G04 #@! TF.GenerationSoftware,KiCad,Pcbnew,6.0.0-unknown-0ba0c17~86~ubuntu19.04.1*
G04 #@! TF.CreationDate,2019-08-31T02:54:02-07:00*
G04 #@! TF.ProjectId,IOBoard,494f426f-6172-4642-9e6b-696361645f70,rev?*
G04 #@! TF.SameCoordinates,Original*
G04 #@! TF.FileFunction,Soldermask,Bot*
G04 #@! TF.FilePolarity,Negative*
%FSLAX46Y46*%
G04 Gerber Fmt 4.6, Leading zero omitted, Abs format (unit mm)*
G04 Created by KiCad (PCBNEW 6.0.0-unknown-0ba0c17~86~ubuntu19.04.1) date 2019-08-31 02:54:02*
%MOMM*%
%LPD*%
G04 APERTURE LIST*
%ADD10C,0.100000*%
G04 APERTURE END LIST*
D10*
G36*
X88436399Y-110543959D02*
G01*
X88453269Y-110555231D01*
X88464541Y-110572101D01*
X88470948Y-110604312D01*
X88470948Y-112279688D01*
X88468499Y-112292000D01*
X88464541Y-112311899D01*
X88453269Y-112328769D01*
X88436399Y-112340041D01*
X88416500Y-112343999D01*
X88404188Y-112346448D01*
X86728812Y-112346448D01*
X86696601Y-112340041D01*
X86679731Y-112328769D01*
X86668459Y-112311899D01*
X86662052Y-112279688D01*
X86662052Y-110604312D01*
X86668459Y-110572101D01*
X86679731Y-110555231D01*
X86696601Y-110543959D01*
X86728812Y-110537552D01*
X88404188Y-110537552D01*
X88436399Y-110543959D01*
X88436399Y-110543959D01*
G37*
G36*
X67227399Y-110543959D02*
G01*
X67244269Y-110555231D01*
X67255541Y-110572101D01*
X67261948Y-110604312D01*
X67261948Y-112279688D01*
X67259499Y-112292000D01*
X67255541Y-112311899D01*
X67244269Y-112328769D01*
X67227399Y-112340041D01*
X67207500Y-112343999D01*
X67195188Y-112346448D01*
X65519812Y-112346448D01*
X65487601Y-112340041D01*
X65470731Y-112328769D01*
X65459459Y-112311899D01*
X65453052Y-112279688D01*
X65453052Y-110604312D01*
X65459459Y-110572101D01*
X65470731Y-110555231D01*
X65487601Y-110543959D01*
X65519812Y-110537552D01*
X67195188Y-110537552D01*
X67227399Y-110543959D01*
X67227399Y-110543959D01*
G37*
G36*
X97914860Y-110555835D02*
G01*
X97995897Y-110582166D01*
X98083163Y-110609848D01*
X98086155Y-110611493D01*
X98094988Y-110614363D01*
X98166966Y-110655919D01*
X98237999Y-110694970D01*
X98245486Y-110701253D01*
X98259011Y-110709061D01*
X98316759Y-110761057D01*
X98373357Y-110808549D01*
X98383462Y-110821118D01*
X98399761Y-110835793D01*
X98441954Y-110893867D01*
X98484079Y-110946260D01*
X98494494Y-110966182D01*
X98511086Y-110989019D01*
X98537797Y-111049012D01*
X98565939Y-111102843D01*
X98574082Y-111130510D01*
X98588121Y-111162042D01*
X98600492Y-111220241D01*
X98615828Y-111272349D01*
X98619018Y-111307401D01*
X98627499Y-111347301D01*
X98627499Y-111400592D01*
X98631843Y-111448324D01*
X98627499Y-111489653D01*
X98627499Y-111536699D01*
X98617717Y-111582721D01*
X98613373Y-111624047D01*
X98599202Y-111669827D01*
X98588121Y-111721958D01*
X98571528Y-111759226D01*
X98561122Y-111792843D01*
X98535289Y-111840620D01*
X98511086Y-111894981D01*
X98490798Y-111922905D01*
X98477080Y-111948276D01*
X98438359Y-111995082D01*
X98399761Y-112048207D01*
X98378784Y-112067095D01*
X98364452Y-112084419D01*
X98312345Y-112126917D01*
X98259011Y-112174939D01*
X98240024Y-112185901D01*
X98227525Y-112196095D01*
X98162280Y-112230786D01*
X98094988Y-112269637D01*
X98080136Y-112274463D01*
X98071503Y-112279053D01*
X97993930Y-112302473D01*
X97914860Y-112328165D01*
X97905614Y-112329137D01*
X97902351Y-112330122D01*
X97811210Y-112339059D01*
X97773711Y-112343000D01*
X97679289Y-112343000D01*
X97538140Y-112328165D01*
X97457103Y-112301834D01*
X97369837Y-112274152D01*
X97366845Y-112272507D01*
X97358012Y-112269637D01*
X97286034Y-112228081D01*
X97215001Y-112189030D01*
X97207514Y-112182747D01*
X97193989Y-112174939D01*
X97136241Y-112122943D01*
X97079643Y-112075451D01*
X97069538Y-112062882D01*
X97053239Y-112048207D01*
X97011046Y-111990133D01*
X96968921Y-111937740D01*
X96958506Y-111917818D01*
X96941914Y-111894981D01*
X96915203Y-111834988D01*
X96887061Y-111781157D01*
X96878918Y-111753490D01*
X96864879Y-111721958D01*
X96852508Y-111663759D01*
X96837172Y-111611651D01*
X96833982Y-111576599D01*
X96825501Y-111536699D01*
X96825501Y-111483408D01*
X96821157Y-111435676D01*
X96825501Y-111394347D01*
X96825501Y-111347301D01*
X96835283Y-111301279D01*
X96839627Y-111259953D01*
X96853798Y-111214173D01*
X96864879Y-111162042D01*
X96881472Y-111124774D01*
X96891878Y-111091157D01*
X96917711Y-111043380D01*
X96941914Y-110989019D01*
X96962202Y-110961095D01*
X96975920Y-110935724D01*
X97014641Y-110888918D01*
X97053239Y-110835793D01*
X97074216Y-110816905D01*
X97088548Y-110799581D01*
X97140655Y-110757083D01*
X97193989Y-110709061D01*
X97212976Y-110698099D01*
X97225475Y-110687905D01*
X97290720Y-110653214D01*
X97358012Y-110614363D01*
X97372864Y-110609537D01*
X97381497Y-110604947D01*
X97459070Y-110581527D01*
X97538140Y-110555835D01*
X97547386Y-110554863D01*
X97550649Y-110553878D01*
X97641790Y-110544941D01*
X97679289Y-110541000D01*
X97773711Y-110541000D01*
X97914860Y-110555835D01*
X97914860Y-110555835D01*
G37*
G36*
X92834860Y-110555835D02*
G01*
X92915897Y-110582166D01*
X93003163Y-110609848D01*
X93006155Y-110611493D01*
X93014988Y-110614363D01*
X93086966Y-110655919D01*
X93157999Y-110694970D01*
X93165486Y-110701253D01*
X93179011Y-110709061D01*
X93236759Y-110761057D01*
X93293357Y-110808549D01*
X93303462Y-110821118D01*
X93319761Y-110835793D01*
X93361954Y-110893867D01*
X93404079Y-110946260D01*
X93414494Y-110966182D01*
X93431086Y-110989019D01*
X93457797Y-111049012D01*
X93485939Y-111102843D01*
X93494082Y-111130510D01*
X93508121Y-111162042D01*
X93520492Y-111220241D01*
X93535828Y-111272349D01*
X93539018Y-111307401D01*
X93547499Y-111347301D01*
X93547499Y-111400592D01*
X93551843Y-111448324D01*
X93547499Y-111489653D01*
X93547499Y-111536699D01*
X93537717Y-111582721D01*
X93533373Y-111624047D01*
X93519202Y-111669827D01*
X93508121Y-111721958D01*
X93491528Y-111759226D01*
X93481122Y-111792843D01*
X93455289Y-111840620D01*
X93431086Y-111894981D01*
X93410798Y-111922905D01*
X93397080Y-111948276D01*
X93358359Y-111995082D01*
X93319761Y-112048207D01*
X93298784Y-112067095D01*
X93284452Y-112084419D01*
X93232345Y-112126917D01*
X93179011Y-112174939D01*
X93160024Y-112185901D01*
X93147525Y-112196095D01*
X93082280Y-112230786D01*
X93014988Y-112269637D01*
X93000136Y-112274463D01*
X92991503Y-112279053D01*
X92913930Y-112302473D01*
X92834860Y-112328165D01*
X92825614Y-112329137D01*
X92822351Y-112330122D01*
X92731210Y-112339059D01*
X92693711Y-112343000D01*
X92599289Y-112343000D01*
X92458140Y-112328165D01*
X92377103Y-112301834D01*
X92289837Y-112274152D01*
X92286845Y-112272507D01*
X92278012Y-112269637D01*
X92206034Y-112228081D01*
X92135001Y-112189030D01*
X92127514Y-112182747D01*
X92113989Y-112174939D01*
X92056241Y-112122943D01*
X91999643Y-112075451D01*
X91989538Y-112062882D01*
X91973239Y-112048207D01*
X91931046Y-111990133D01*
X91888921Y-111937740D01*
X91878506Y-111917818D01*
X91861914Y-111894981D01*
X91835203Y-111834988D01*
X91807061Y-111781157D01*
X91798918Y-111753490D01*
X91784879Y-111721958D01*
X91772508Y-111663759D01*
X91757172Y-111611651D01*
X91753982Y-111576599D01*
X91745501Y-111536699D01*
X91745501Y-111483408D01*
X91741157Y-111435676D01*
X91745501Y-111394347D01*
X91745501Y-111347301D01*
X91755283Y-111301279D01*
X91759627Y-111259953D01*
X91773798Y-111214173D01*
X91784879Y-111162042D01*
X91801472Y-111124774D01*
X91811878Y-111091157D01*
X91837711Y-111043380D01*
X91861914Y-110989019D01*
X91882202Y-110961095D01*
X91895920Y-110935724D01*
X91934641Y-110888918D01*
X91973239Y-110835793D01*
X91994216Y-110816905D01*
X92008548Y-110799581D01*
X92060655Y-110757083D01*
X92113989Y-110709061D01*
X92132976Y-110698099D01*
X92145475Y-110687905D01*
X92210720Y-110653214D01*
X92278012Y-110614363D01*
X92292864Y-110609537D01*
X92301497Y-110604947D01*
X92379070Y-110581527D01*
X92458140Y-110555835D01*
X92467386Y-110554863D01*
X92470649Y-110553878D01*
X92561790Y-110544941D01*
X92599289Y-110541000D01*
X92693711Y-110541000D01*
X92834860Y-110555835D01*
X92834860Y-110555835D01*
G37*
G36*
X95374860Y-110555835D02*
G01*
X95455897Y-110582166D01*
X95543163Y-110609848D01*
X95546155Y-110611493D01*
X95554988Y-110614363D01*
X95626966Y-110655919D01*
X95697999Y-110694970D01*
X95705486Y-110701253D01*
X95719011Y-110709061D01*
X95776759Y-110761057D01*
X95833357Y-110808549D01*
X95843462Y-110821118D01*
X95859761Y-110835793D01*
X95901954Y-110893867D01*
X95944079Y-110946260D01*
X95954494Y-110966182D01*
X95971086Y-110989019D01*
X95997797Y-111049012D01*
X96025939Y-111102843D01*
X96034082Y-111130510D01*
X96048121Y-111162042D01*
X96060492Y-111220241D01*
X96075828Y-111272349D01*
X96079018Y-111307401D01*
X96087499Y-111347301D01*
X96087499Y-111400592D01*
X96091843Y-111448324D01*
X96087499Y-111489653D01*
X96087499Y-111536699D01*
X96077717Y-111582721D01*
X96073373Y-111624047D01*
X96059202Y-111669827D01*
X96048121Y-111721958D01*
X96031528Y-111759226D01*
X96021122Y-111792843D01*
X95995289Y-111840620D01*
X95971086Y-111894981D01*
X95950798Y-111922905D01*
X95937080Y-111948276D01*
X95898359Y-111995082D01*
X95859761Y-112048207D01*
X95838784Y-112067095D01*
X95824452Y-112084419D01*
X95772345Y-112126917D01*
X95719011Y-112174939D01*
X95700024Y-112185901D01*
X95687525Y-112196095D01*
X95622280Y-112230786D01*
X95554988Y-112269637D01*
X95540136Y-112274463D01*
X95531503Y-112279053D01*
X95453930Y-112302473D01*
X95374860Y-112328165D01*
X95365614Y-112329137D01*
X95362351Y-112330122D01*
X95271210Y-112339059D01*
X95233711Y-112343000D01*
X95139289Y-112343000D01*
X94998140Y-112328165D01*
X94917103Y-112301834D01*
X94829837Y-112274152D01*
X94826845Y-112272507D01*
X94818012Y-112269637D01*
X94746034Y-112228081D01*
X94675001Y-112189030D01*
X94667514Y-112182747D01*
X94653989Y-112174939D01*
X94596241Y-112122943D01*
X94539643Y-112075451D01*
X94529538Y-112062882D01*
X94513239Y-112048207D01*
X94471046Y-111990133D01*
X94428921Y-111937740D01*
X94418506Y-111917818D01*
X94401914Y-111894981D01*
X94375203Y-111834988D01*
X94347061Y-111781157D01*
X94338918Y-111753490D01*
X94324879Y-111721958D01*
X94312508Y-111663759D01*
X94297172Y-111611651D01*
X94293982Y-111576599D01*
X94285501Y-111536699D01*
X94285501Y-111483408D01*
X94281157Y-111435676D01*
X94285501Y-111394347D01*
X94285501Y-111347301D01*
X94295283Y-111301279D01*
X94299627Y-111259953D01*
X94313798Y-111214173D01*
X94324879Y-111162042D01*
X94341472Y-111124774D01*
X94351878Y-111091157D01*
X94377711Y-111043380D01*
X94401914Y-110989019D01*
X94422202Y-110961095D01*
X94435920Y-110935724D01*
X94474641Y-110888918D01*
X94513239Y-110835793D01*
X94534216Y-110816905D01*
X94548548Y-110799581D01*
X94600655Y-110757083D01*
X94653989Y-110709061D01*
X94672976Y-110698099D01*
X94685475Y-110687905D01*
X94750720Y-110653214D01*
X94818012Y-110614363D01*
X94832864Y-110609537D01*
X94841497Y-110604947D01*
X94919070Y-110581527D01*
X94998140Y-110555835D01*
X95007386Y-110554863D01*
X95010649Y-110553878D01*
X95101790Y-110544941D01*
X95139289Y-110541000D01*
X95233711Y-110541000D01*
X95374860Y-110555835D01*
X95374860Y-110555835D01*
G37*
G36*
X69085860Y-110555835D02*
G01*
X69166897Y-110582166D01*
X69254163Y-110609848D01*
X69257155Y-110611493D01*
X69265988Y-110614363D01*
X69337966Y-110655919D01*
X69408999Y-110694970D01*
X69416486Y-110701253D01*
X69430011Y-110709061D01*
X69487759Y-110761057D01*
X69544357Y-110808549D01*
X69554462Y-110821118D01*
X69570761Y-110835793D01*
X69612954Y-110893867D01*
X69655079Y-110946260D01*
X69665494Y-110966182D01*
X69682086Y-110989019D01*
X69708797Y-111049012D01*
X69736939Y-111102843D01*
X69745082Y-111130510D01*
X69759121Y-111162042D01*
X69771492Y-111220241D01*
X69786828Y-111272349D01*
X69790018Y-111307401D01*
X69798499Y-111347301D01*
X69798499Y-111400592D01*
X69802843Y-111448324D01*
X69798499Y-111489653D01*
X69798499Y-111536699D01*
X69788717Y-111582721D01*
X69784373Y-111624047D01*
X69770202Y-111669827D01*
X69759121Y-111721958D01*
X69742528Y-111759226D01*
X69732122Y-111792843D01*
X69706289Y-111840620D01*
X69682086Y-111894981D01*
X69661798Y-111922905D01*
X69648080Y-111948276D01*
X69609359Y-111995082D01*
X69570761Y-112048207D01*
X69549784Y-112067095D01*
X69535452Y-112084419D01*
X69483345Y-112126917D01*
X69430011Y-112174939D01*
X69411024Y-112185901D01*
X69398525Y-112196095D01*
X69333280Y-112230786D01*
X69265988Y-112269637D01*
X69251136Y-112274463D01*
X69242503Y-112279053D01*
X69164930Y-112302473D01*
X69085860Y-112328165D01*
X69076614Y-112329137D01*
X69073351Y-112330122D01*
X68982210Y-112339059D01*
X68944711Y-112343000D01*
X68850289Y-112343000D01*
X68709140Y-112328165D01*
X68628103Y-112301834D01*
X68540837Y-112274152D01*
X68537845Y-112272507D01*
X68529012Y-112269637D01*
X68457034Y-112228081D01*
X68386001Y-112189030D01*
X68378514Y-112182747D01*
X68364989Y-112174939D01*
X68307241Y-112122943D01*
X68250643Y-112075451D01*
X68240538Y-112062882D01*
X68224239Y-112048207D01*
X68182046Y-111990133D01*
X68139921Y-111937740D01*
X68129506Y-111917818D01*
X68112914Y-111894981D01*
X68086203Y-111834988D01*
X68058061Y-111781157D01*
X68049918Y-111753490D01*
X68035879Y-111721958D01*
X68023508Y-111663759D01*
X68008172Y-111611651D01*
X68004982Y-111576599D01*
X67996501Y-111536699D01*
X67996501Y-111483408D01*
X67992157Y-111435676D01*
X67996501Y-111394347D01*
X67996501Y-111347301D01*
X68006283Y-111301279D01*
X68010627Y-111259953D01*
X68024798Y-111214173D01*
X68035879Y-111162042D01*
X68052472Y-111124774D01*
X68062878Y-111091157D01*
X68088711Y-111043380D01*
X68112914Y-110989019D01*
X68133202Y-110961095D01*
X68146920Y-110935724D01*
X68185641Y-110888918D01*
X68224239Y-110835793D01*
X68245216Y-110816905D01*
X68259548Y-110799581D01*
X68311655Y-110757083D01*
X68364989Y-110709061D01*
X68383976Y-110698099D01*
X68396475Y-110687905D01*
X68461720Y-110653214D01*
X68529012Y-110614363D01*
X68543864Y-110609537D01*
X68552497Y-110604947D01*
X68630070Y-110581527D01*
X68709140Y-110555835D01*
X68718386Y-110554863D01*
X68721649Y-110553878D01*
X68812790Y-110544941D01*
X68850289Y-110541000D01*
X68944711Y-110541000D01*
X69085860Y-110555835D01*
X69085860Y-110555835D01*
G37*
G36*
X71625860Y-110555835D02*
G01*
X71706897Y-110582166D01*
X71794163Y-110609848D01*
X71797155Y-110611493D01*
X71805988Y-110614363D01*
X71877966Y-110655919D01*
X71948999Y-110694970D01*
X71956486Y-110701253D01*
X71970011Y-110709061D01*
X72027759Y-110761057D01*
X72084357Y-110808549D01*
X72094462Y-110821118D01*
X72110761Y-110835793D01*
X72152954Y-110893867D01*
X72195079Y-110946260D01*
X72205494Y-110966182D01*
X72222086Y-110989019D01*
X72248797Y-111049012D01*
X72276939Y-111102843D01*
X72285082Y-111130510D01*
X72299121Y-111162042D01*
X72311492Y-111220241D01*
X72326828Y-111272349D01*
X72330018Y-111307401D01*
X72338499Y-111347301D01*
X72338499Y-111400592D01*
X72342843Y-111448324D01*
X72338499Y-111489653D01*
X72338499Y-111536699D01*
X72328717Y-111582721D01*
X72324373Y-111624047D01*
X72310202Y-111669827D01*
X72299121Y-111721958D01*
X72282528Y-111759226D01*
X72272122Y-111792843D01*
X72246289Y-111840620D01*
X72222086Y-111894981D01*
X72201798Y-111922905D01*
X72188080Y-111948276D01*
X72149359Y-111995082D01*
X72110761Y-112048207D01*
X72089784Y-112067095D01*
X72075452Y-112084419D01*
X72023345Y-112126917D01*
X71970011Y-112174939D01*
X71951024Y-112185901D01*
X71938525Y-112196095D01*
X71873280Y-112230786D01*
X71805988Y-112269637D01*
X71791136Y-112274463D01*
X71782503Y-112279053D01*
X71704930Y-112302473D01*
X71625860Y-112328165D01*
X71616614Y-112329137D01*
X71613351Y-112330122D01*
X71522210Y-112339059D01*
X71484711Y-112343000D01*
X71390289Y-112343000D01*
X71249140Y-112328165D01*
X71168103Y-112301834D01*
X71080837Y-112274152D01*
X71077845Y-112272507D01*
X71069012Y-112269637D01*
X70997034Y-112228081D01*
X70926001Y-112189030D01*
X70918514Y-112182747D01*
X70904989Y-112174939D01*
X70847241Y-112122943D01*
X70790643Y-112075451D01*
X70780538Y-112062882D01*
X70764239Y-112048207D01*
X70722046Y-111990133D01*
X70679921Y-111937740D01*
X70669506Y-111917818D01*
X70652914Y-111894981D01*
X70626203Y-111834988D01*
X70598061Y-111781157D01*
X70589918Y-111753490D01*
X70575879Y-111721958D01*
X70563508Y-111663759D01*
X70548172Y-111611651D01*
X70544982Y-111576599D01*
X70536501Y-111536699D01*
X70536501Y-111483408D01*
X70532157Y-111435676D01*
X70536501Y-111394347D01*
X70536501Y-111347301D01*
X70546283Y-111301279D01*
X70550627Y-111259953D01*
X70564798Y-111214173D01*
X70575879Y-111162042D01*
X70592472Y-111124774D01*
X70602878Y-111091157D01*
X70628711Y-111043380D01*
X70652914Y-110989019D01*
X70673202Y-110961095D01*
X70686920Y-110935724D01*
X70725641Y-110888918D01*
X70764239Y-110835793D01*
X70785216Y-110816905D01*
X70799548Y-110799581D01*
X70851655Y-110757083D01*
X70904989Y-110709061D01*
X70923976Y-110698099D01*
X70936475Y-110687905D01*
X71001720Y-110653214D01*
X71069012Y-110614363D01*
X71083864Y-110609537D01*
X71092497Y-110604947D01*
X71170070Y-110581527D01*
X71249140Y-110555835D01*
X71258386Y-110554863D01*
X71261649Y-110553878D01*
X71352790Y-110544941D01*
X71390289Y-110541000D01*
X71484711Y-110541000D01*
X71625860Y-110555835D01*
X71625860Y-110555835D01*
G37*
G36*
X74165860Y-110555835D02*
G01*
X74246897Y-110582166D01*
X74334163Y-110609848D01*
X74337155Y-110611493D01*
X74345988Y-110614363D01*
X74417966Y-110655919D01*
X74488999Y-110694970D01*
X74496486Y-110701253D01*
X74510011Y-110709061D01*
X74567759Y-110761057D01*
X74624357Y-110808549D01*
X74634462Y-110821118D01*
X74650761Y-110835793D01*
X74692954Y-110893867D01*
X74735079Y-110946260D01*
X74745494Y-110966182D01*
X74762086Y-110989019D01*
X74788797Y-111049012D01*
X74816939Y-111102843D01*
X74825082Y-111130510D01*
X74839121Y-111162042D01*
X74851492Y-111220241D01*
X74866828Y-111272349D01*
X74870018Y-111307401D01*
X74878499Y-111347301D01*
X74878499Y-111400592D01*
X74882843Y-111448324D01*
X74878499Y-111489653D01*
X74878499Y-111536699D01*
X74868717Y-111582721D01*
X74864373Y-111624047D01*
X74850202Y-111669827D01*
X74839121Y-111721958D01*
X74822528Y-111759226D01*
X74812122Y-111792843D01*
X74786289Y-111840620D01*
X74762086Y-111894981D01*
X74741798Y-111922905D01*
X74728080Y-111948276D01*
X74689359Y-111995082D01*
X74650761Y-112048207D01*
X74629784Y-112067095D01*
X74615452Y-112084419D01*
X74563345Y-112126917D01*
X74510011Y-112174939D01*
X74491024Y-112185901D01*
X74478525Y-112196095D01*
X74413280Y-112230786D01*
X74345988Y-112269637D01*
X74331136Y-112274463D01*
X74322503Y-112279053D01*
X74244930Y-112302473D01*
X74165860Y-112328165D01*
X74156614Y-112329137D01*
X74153351Y-112330122D01*
X74062210Y-112339059D01*
X74024711Y-112343000D01*
X73930289Y-112343000D01*
X73789140Y-112328165D01*
X73708103Y-112301834D01*
X73620837Y-112274152D01*
X73617845Y-112272507D01*
X73609012Y-112269637D01*
X73537034Y-112228081D01*
X73466001Y-112189030D01*
X73458514Y-112182747D01*
X73444989Y-112174939D01*
X73387241Y-112122943D01*
X73330643Y-112075451D01*
X73320538Y-112062882D01*
X73304239Y-112048207D01*
X73262046Y-111990133D01*
X73219921Y-111937740D01*
X73209506Y-111917818D01*
X73192914Y-111894981D01*
X73166203Y-111834988D01*
X73138061Y-111781157D01*
X73129918Y-111753490D01*
X73115879Y-111721958D01*
X73103508Y-111663759D01*
X73088172Y-111611651D01*
X73084982Y-111576599D01*
X73076501Y-111536699D01*
X73076501Y-111483408D01*
X73072157Y-111435676D01*
X73076501Y-111394347D01*
X73076501Y-111347301D01*
X73086283Y-111301279D01*
X73090627Y-111259953D01*
X73104798Y-111214173D01*
X73115879Y-111162042D01*
X73132472Y-111124774D01*
X73142878Y-111091157D01*
X73168711Y-111043380D01*
X73192914Y-110989019D01*
X73213202Y-110961095D01*
X73226920Y-110935724D01*
X73265641Y-110888918D01*
X73304239Y-110835793D01*
X73325216Y-110816905D01*
X73339548Y-110799581D01*
X73391655Y-110757083D01*
X73444989Y-110709061D01*
X73463976Y-110698099D01*
X73476475Y-110687905D01*
X73541720Y-110653214D01*
X73609012Y-110614363D01*
X73623864Y-110609537D01*
X73632497Y-110604947D01*
X73710070Y-110581527D01*
X73789140Y-110555835D01*
X73798386Y-110554863D01*
X73801649Y-110553878D01*
X73892790Y-110544941D01*
X73930289Y-110541000D01*
X74024711Y-110541000D01*
X74165860Y-110555835D01*
X74165860Y-110555835D01*
G37*
G36*
X76705860Y-110555835D02*
G01*
X76786897Y-110582166D01*
X76874163Y-110609848D01*
X76877155Y-110611493D01*
X76885988Y-110614363D01*
X76957966Y-110655919D01*
X77028999Y-110694970D01*
X77036486Y-110701253D01*
X77050011Y-110709061D01*
X77107759Y-110761057D01*
X77164357Y-110808549D01*
X77174462Y-110821118D01*
X77190761Y-110835793D01*
X77232954Y-110893867D01*
X77275079Y-110946260D01*
X77285494Y-110966182D01*
X77302086Y-110989019D01*
X77328797Y-111049012D01*
X77356939Y-111102843D01*
X77365082Y-111130510D01*
X77379121Y-111162042D01*
X77391492Y-111220241D01*
X77406828Y-111272349D01*
X77410018Y-111307401D01*
X77418499Y-111347301D01*
X77418499Y-111400592D01*
X77422843Y-111448324D01*
X77418499Y-111489653D01*
X77418499Y-111536699D01*
X77408717Y-111582721D01*
X77404373Y-111624047D01*
X77390202Y-111669827D01*
X77379121Y-111721958D01*
X77362528Y-111759226D01*
X77352122Y-111792843D01*
X77326289Y-111840620D01*
X77302086Y-111894981D01*
X77281798Y-111922905D01*
X77268080Y-111948276D01*
X77229359Y-111995082D01*
X77190761Y-112048207D01*
X77169784Y-112067095D01*
X77155452Y-112084419D01*
X77103345Y-112126917D01*
X77050011Y-112174939D01*
X77031024Y-112185901D01*
X77018525Y-112196095D01*
X76953280Y-112230786D01*
X76885988Y-112269637D01*
X76871136Y-112274463D01*
X76862503Y-112279053D01*
X76784930Y-112302473D01*
X76705860Y-112328165D01*
X76696614Y-112329137D01*
X76693351Y-112330122D01*
X76602210Y-112339059D01*
X76564711Y-112343000D01*
X76470289Y-112343000D01*
X76329140Y-112328165D01*
X76248103Y-112301834D01*
X76160837Y-112274152D01*
X76157845Y-112272507D01*
X76149012Y-112269637D01*
X76077034Y-112228081D01*
X76006001Y-112189030D01*
X75998514Y-112182747D01*
X75984989Y-112174939D01*
X75927241Y-112122943D01*
X75870643Y-112075451D01*
X75860538Y-112062882D01*
X75844239Y-112048207D01*
X75802046Y-111990133D01*
X75759921Y-111937740D01*
X75749506Y-111917818D01*
X75732914Y-111894981D01*
X75706203Y-111834988D01*
X75678061Y-111781157D01*
X75669918Y-111753490D01*
X75655879Y-111721958D01*
X75643508Y-111663759D01*
X75628172Y-111611651D01*
X75624982Y-111576599D01*
X75616501Y-111536699D01*
X75616501Y-111483408D01*
X75612157Y-111435676D01*
X75616501Y-111394347D01*
X75616501Y-111347301D01*
X75626283Y-111301279D01*
X75630627Y-111259953D01*
X75644798Y-111214173D01*
X75655879Y-111162042D01*
X75672472Y-111124774D01*
X75682878Y-111091157D01*
X75708711Y-111043380D01*
X75732914Y-110989019D01*
X75753202Y-110961095D01*
X75766920Y-110935724D01*
X75805641Y-110888918D01*
X75844239Y-110835793D01*
X75865216Y-110816905D01*
X75879548Y-110799581D01*
X75931655Y-110757083D01*
X75984989Y-110709061D01*
X76003976Y-110698099D01*
X76016475Y-110687905D01*
X76081720Y-110653214D01*
X76149012Y-110614363D01*
X76163864Y-110609537D01*
X76172497Y-110604947D01*
X76250070Y-110581527D01*
X76329140Y-110555835D01*
X76338386Y-110554863D01*
X76341649Y-110553878D01*
X76432790Y-110544941D01*
X76470289Y-110541000D01*
X76564711Y-110541000D01*
X76705860Y-110555835D01*
X76705860Y-110555835D01*
G37*
G36*
X90294860Y-110555835D02*
G01*
X90375897Y-110582166D01*
X90463163Y-110609848D01*
X90466155Y-110611493D01*
X90474988Y-110614363D01*
X90546966Y-110655919D01*
X90617999Y-110694970D01*
X90625486Y-110701253D01*
X90639011Y-110709061D01*
X90696759Y-110761057D01*
X90753357Y-110808549D01*
X90763462Y-110821118D01*
X90779761Y-110835793D01*
X90821954Y-110893867D01*
X90864079Y-110946260D01*
X90874494Y-110966182D01*
X90891086Y-110989019D01*
X90917797Y-111049012D01*
X90945939Y-111102843D01*
X90954082Y-111130510D01*
X90968121Y-111162042D01*
X90980492Y-111220241D01*
X90995828Y-111272349D01*
X90999018Y-111307401D01*
X91007499Y-111347301D01*
X91007499Y-111400592D01*
X91011843Y-111448324D01*
X91007499Y-111489653D01*
X91007499Y-111536699D01*
X90997717Y-111582721D01*
X90993373Y-111624047D01*
X90979202Y-111669827D01*
X90968121Y-111721958D01*
X90951528Y-111759226D01*
X90941122Y-111792843D01*
X90915289Y-111840620D01*
X90891086Y-111894981D01*
X90870798Y-111922905D01*
X90857080Y-111948276D01*
X90818359Y-111995082D01*
X90779761Y-112048207D01*
X90758784Y-112067095D01*
X90744452Y-112084419D01*
X90692345Y-112126917D01*
X90639011Y-112174939D01*
X90620024Y-112185901D01*
X90607525Y-112196095D01*
X90542280Y-112230786D01*
X90474988Y-112269637D01*
X90460136Y-112274463D01*
X90451503Y-112279053D01*
X90373930Y-112302473D01*
X90294860Y-112328165D01*
X90285614Y-112329137D01*
X90282351Y-112330122D01*
X90191210Y-112339059D01*
X90153711Y-112343000D01*
X90059289Y-112343000D01*
X89918140Y-112328165D01*
X89837103Y-112301834D01*
X89749837Y-112274152D01*
X89746845Y-112272507D01*
X89738012Y-112269637D01*
X89666034Y-112228081D01*
X89595001Y-112189030D01*
X89587514Y-112182747D01*
X89573989Y-112174939D01*
X89516241Y-112122943D01*
X89459643Y-112075451D01*
X89449538Y-112062882D01*
X89433239Y-112048207D01*
X89391046Y-111990133D01*
X89348921Y-111937740D01*
X89338506Y-111917818D01*
X89321914Y-111894981D01*
X89295203Y-111834988D01*
X89267061Y-111781157D01*
X89258918Y-111753490D01*
X89244879Y-111721958D01*
X89232508Y-111663759D01*
X89217172Y-111611651D01*
X89213982Y-111576599D01*
X89205501Y-111536699D01*
X89205501Y-111483408D01*
X89201157Y-111435676D01*
X89205501Y-111394347D01*
X89205501Y-111347301D01*
X89215283Y-111301279D01*
X89219627Y-111259953D01*
X89233798Y-111214173D01*
X89244879Y-111162042D01*
X89261472Y-111124774D01*
X89271878Y-111091157D01*
X89297711Y-111043380D01*
X89321914Y-110989019D01*
X89342202Y-110961095D01*
X89355920Y-110935724D01*
X89394641Y-110888918D01*
X89433239Y-110835793D01*
X89454216Y-110816905D01*
X89468548Y-110799581D01*
X89520655Y-110757083D01*
X89573989Y-110709061D01*
X89592976Y-110698099D01*
X89605475Y-110687905D01*
X89670720Y-110653214D01*
X89738012Y-110614363D01*
X89752864Y-110609537D01*
X89761497Y-110604947D01*
X89839070Y-110581527D01*
X89918140Y-110555835D01*
X89927386Y-110554863D01*
X89930649Y-110553878D01*
X90021790Y-110544941D01*
X90059289Y-110541000D01*
X90153711Y-110541000D01*
X90294860Y-110555835D01*
X90294860Y-110555835D01*
G37*
G36*
X109344360Y-108524335D02*
G01*
X109425397Y-108550666D01*
X109512663Y-108578348D01*
X109515655Y-108579993D01*
X109524488Y-108582863D01*
X109596466Y-108624419D01*
X109667499Y-108663470D01*
X109674986Y-108669753D01*
X109688511Y-108677561D01*
X109746259Y-108729557D01*
X109802857Y-108777049D01*
X109812962Y-108789618D01*
X109829261Y-108804293D01*
X109871454Y-108862367D01*
X109913579Y-108914760D01*
X109923994Y-108934682D01*
X109940586Y-108957519D01*
X109967297Y-109017512D01*
X109995439Y-109071343D01*
X110003582Y-109099010D01*
X110017621Y-109130542D01*
X110029992Y-109188741D01*
X110045328Y-109240849D01*
X110048518Y-109275901D01*
X110056999Y-109315801D01*
X110056999Y-109369092D01*
X110061343Y-109416824D01*
X110056999Y-109458153D01*
X110056999Y-109505199D01*
X110047217Y-109551221D01*
X110042873Y-109592547D01*
X110028702Y-109638327D01*
X110017621Y-109690458D01*
X110001028Y-109727726D01*
X109990622Y-109761343D01*
X109964789Y-109809120D01*
X109940586Y-109863481D01*
X109920298Y-109891405D01*
X109906580Y-109916776D01*
X109867859Y-109963582D01*
X109829261Y-110016707D01*
X109808284Y-110035595D01*
X109793952Y-110052919D01*
X109741845Y-110095417D01*
X109688511Y-110143439D01*
X109669524Y-110154401D01*
X109657025Y-110164595D01*
X109591780Y-110199286D01*
X109524488Y-110238137D01*
X109509636Y-110242963D01*
X109501003Y-110247553D01*
X109423430Y-110270973D01*
X109344360Y-110296665D01*
X109335114Y-110297637D01*
X109331851Y-110298622D01*
X109240710Y-110307559D01*
X109203211Y-110311500D01*
X109108789Y-110311500D01*
X108967640Y-110296665D01*
X108886603Y-110270334D01*
X108799337Y-110242652D01*
X108796345Y-110241007D01*
X108787512Y-110238137D01*
X108715534Y-110196581D01*
X108644501Y-110157530D01*
X108637014Y-110151247D01*
X108623489Y-110143439D01*
X108565741Y-110091443D01*
X108509143Y-110043951D01*
X108499038Y-110031382D01*
X108482739Y-110016707D01*
X108440546Y-109958633D01*
X108398421Y-109906240D01*
X108388006Y-109886318D01*
X108371414Y-109863481D01*
X108344703Y-109803488D01*
X108316561Y-109749657D01*
X108308418Y-109721990D01*
X108294379Y-109690458D01*
X108282008Y-109632259D01*
X108266672Y-109580151D01*
X108263482Y-109545099D01*
X108255001Y-109505199D01*
X108255001Y-109451908D01*
X108250657Y-109404176D01*
X108255001Y-109362847D01*
X108255001Y-109315801D01*
X108264783Y-109269779D01*
X108269127Y-109228453D01*
X108283298Y-109182673D01*
X108294379Y-109130542D01*
X108310972Y-109093274D01*
X108321378Y-109059657D01*
X108347211Y-109011880D01*
X108371414Y-108957519D01*
X108391702Y-108929595D01*
X108405420Y-108904224D01*
X108444141Y-108857418D01*
X108482739Y-108804293D01*
X108503716Y-108785405D01*
X108518048Y-108768081D01*
X108570155Y-108725583D01*
X108623489Y-108677561D01*
X108642476Y-108666599D01*
X108654975Y-108656405D01*
X108720220Y-108621714D01*
X108787512Y-108582863D01*
X108802364Y-108578037D01*
X108810997Y-108573447D01*
X108888570Y-108550027D01*
X108967640Y-108524335D01*
X108976886Y-108523363D01*
X108980149Y-108522378D01*
X109071290Y-108513441D01*
X109108789Y-108509500D01*
X109203211Y-108509500D01*
X109344360Y-108524335D01*
X109344360Y-108524335D01*
G37*
G36*
X111884360Y-108524335D02*
G01*
X111965397Y-108550666D01*
X112052663Y-108578348D01*
X112055655Y-108579993D01*
X112064488Y-108582863D01*
X112136466Y-108624419D01*
X112207499Y-108663470D01*
X112214986Y-108669753D01*
X112228511Y-108677561D01*
X112286259Y-108729557D01*
X112342857Y-108777049D01*
X112352962Y-108789618D01*
X112369261Y-108804293D01*
X112411454Y-108862367D01*
X112453579Y-108914760D01*
X112463994Y-108934682D01*
X112480586Y-108957519D01*
X112507297Y-109017512D01*
X112535439Y-109071343D01*
X112543582Y-109099010D01*
X112557621Y-109130542D01*
X112569992Y-109188741D01*
X112585328Y-109240849D01*
X112588518Y-109275901D01*
X112596999Y-109315801D01*
X112596999Y-109369092D01*
X112601343Y-109416824D01*
X112596999Y-109458153D01*
X112596999Y-109505199D01*
X112587217Y-109551221D01*
X112582873Y-109592547D01*
X112568702Y-109638327D01*
X112557621Y-109690458D01*
X112541028Y-109727726D01*
X112530622Y-109761343D01*
X112504789Y-109809120D01*
X112480586Y-109863481D01*
X112460298Y-109891405D01*
X112446580Y-109916776D01*
X112407859Y-109963582D01*
X112369261Y-110016707D01*
X112348284Y-110035595D01*
X112333952Y-110052919D01*
X112281845Y-110095417D01*
X112228511Y-110143439D01*
X112209524Y-110154401D01*
X112197025Y-110164595D01*
X112131780Y-110199286D01*
X112064488Y-110238137D01*
X112049636Y-110242963D01*
X112041003Y-110247553D01*
X111963430Y-110270973D01*
X111884360Y-110296665D01*
X111875114Y-110297637D01*
X111871851Y-110298622D01*
X111780710Y-110307559D01*
X111743211Y-110311500D01*
X111648789Y-110311500D01*
X111507640Y-110296665D01*
X111426603Y-110270334D01*
X111339337Y-110242652D01*
X111336345Y-110241007D01*
X111327512Y-110238137D01*
X111255534Y-110196581D01*
X111184501Y-110157530D01*
X111177014Y-110151247D01*
X111163489Y-110143439D01*
X111105741Y-110091443D01*
X111049143Y-110043951D01*
X111039038Y-110031382D01*
X111022739Y-110016707D01*
X110980546Y-109958633D01*
X110938421Y-109906240D01*
X110928006Y-109886318D01*
X110911414Y-109863481D01*
X110884703Y-109803488D01*
X110856561Y-109749657D01*
X110848418Y-109721990D01*
X110834379Y-109690458D01*
X110822008Y-109632259D01*
X110806672Y-109580151D01*
X110803482Y-109545099D01*
X110795001Y-109505199D01*
X110795001Y-109451908D01*
X110790657Y-109404176D01*
X110795001Y-109362847D01*
X110795001Y-109315801D01*
X110804783Y-109269779D01*
X110809127Y-109228453D01*
X110823298Y-109182673D01*
X110834379Y-109130542D01*
X110850972Y-109093274D01*
X110861378Y-109059657D01*
X110887211Y-109011880D01*
X110911414Y-108957519D01*
X110931702Y-108929595D01*
X110945420Y-108904224D01*
X110984141Y-108857418D01*
X111022739Y-108804293D01*
X111043716Y-108785405D01*
X111058048Y-108768081D01*
X111110155Y-108725583D01*
X111163489Y-108677561D01*
X111182476Y-108666599D01*
X111194975Y-108656405D01*
X111260220Y-108621714D01*
X111327512Y-108582863D01*
X111342364Y-108578037D01*
X111350997Y-108573447D01*
X111428570Y-108550027D01*
X111507640Y-108524335D01*
X111516886Y-108523363D01*
X111520149Y-108522378D01*
X111611290Y-108513441D01*
X111648789Y-108509500D01*
X111743211Y-108509500D01*
X111884360Y-108524335D01*
X111884360Y-108524335D01*
G37*
G36*
X69085860Y-108015835D02*
G01*
X69166897Y-108042166D01*
X69254163Y-108069848D01*
X69257155Y-108071493D01*
X69265988Y-108074363D01*
X69337966Y-108115919D01*
X69408999Y-108154970D01*
X69416486Y-108161253D01*
X69430011Y-108169061D01*
X69487759Y-108221057D01*
X69544357Y-108268549D01*
X69554462Y-108281118D01*
X69570761Y-108295793D01*
X69612954Y-108353867D01*
X69655079Y-108406260D01*
X69665494Y-108426182D01*
X69682086Y-108449019D01*
X69708797Y-108509012D01*
X69736939Y-108562843D01*
X69745082Y-108590510D01*
X69759121Y-108622042D01*
X69771492Y-108680241D01*
X69786828Y-108732349D01*
X69790018Y-108767401D01*
X69798499Y-108807301D01*
X69798499Y-108860592D01*
X69802843Y-108908324D01*
X69798499Y-108949653D01*
X69798499Y-108996699D01*
X69788717Y-109042721D01*
X69784373Y-109084047D01*
X69770202Y-109129827D01*
X69759121Y-109181958D01*
X69742528Y-109219226D01*
X69732122Y-109252843D01*
X69706289Y-109300620D01*
X69682086Y-109354981D01*
X69661798Y-109382905D01*
X69648080Y-109408276D01*
X69609359Y-109455082D01*
X69570761Y-109508207D01*
X69549784Y-109527095D01*
X69535452Y-109544419D01*
X69483345Y-109586917D01*
X69430011Y-109634939D01*
X69411024Y-109645901D01*
X69398525Y-109656095D01*
X69333280Y-109690786D01*
X69265988Y-109729637D01*
X69251136Y-109734463D01*
X69242503Y-109739053D01*
X69164930Y-109762473D01*
X69085860Y-109788165D01*
X69076614Y-109789137D01*
X69073351Y-109790122D01*
X68982210Y-109799059D01*
X68944711Y-109803000D01*
X68850289Y-109803000D01*
X68709140Y-109788165D01*
X68628103Y-109761834D01*
X68540837Y-109734152D01*
X68537845Y-109732507D01*
X68529012Y-109729637D01*
X68457034Y-109688081D01*
X68386001Y-109649030D01*
X68378514Y-109642747D01*
X68364989Y-109634939D01*
X68307241Y-109582943D01*
X68250643Y-109535451D01*
X68240538Y-109522882D01*
X68224239Y-109508207D01*
X68182046Y-109450133D01*
X68139921Y-109397740D01*
X68129506Y-109377818D01*
X68112914Y-109354981D01*
X68086203Y-109294988D01*
X68058061Y-109241157D01*
X68049918Y-109213490D01*
X68035879Y-109181958D01*
X68023508Y-109123759D01*
X68008172Y-109071651D01*
X68004982Y-109036599D01*
X67996501Y-108996699D01*
X67996501Y-108943408D01*
X67992157Y-108895676D01*
X67996501Y-108854347D01*
X67996501Y-108807301D01*
X68006283Y-108761279D01*
X68010627Y-108719953D01*
X68024798Y-108674173D01*
X68035879Y-108622042D01*
X68052472Y-108584774D01*
X68062878Y-108551157D01*
X68088711Y-108503380D01*
X68112914Y-108449019D01*
X68133202Y-108421095D01*
X68146920Y-108395724D01*
X68185641Y-108348918D01*
X68224239Y-108295793D01*
X68245216Y-108276905D01*
X68259548Y-108259581D01*
X68311655Y-108217083D01*
X68364989Y-108169061D01*
X68383976Y-108158099D01*
X68396475Y-108147905D01*
X68461720Y-108113214D01*
X68529012Y-108074363D01*
X68543864Y-108069537D01*
X68552497Y-108064947D01*
X68630070Y-108041527D01*
X68709140Y-108015835D01*
X68718386Y-108014863D01*
X68721649Y-108013878D01*
X68812790Y-108004941D01*
X68850289Y-108001000D01*
X68944711Y-108001000D01*
X69085860Y-108015835D01*
X69085860Y-108015835D01*
G37*
G36*
X76705860Y-108015835D02*
G01*
X76786897Y-108042166D01*
X76874163Y-108069848D01*
X76877155Y-108071493D01*
X76885988Y-108074363D01*
X76957966Y-108115919D01*
X77028999Y-108154970D01*
X77036486Y-108161253D01*
X77050011Y-108169061D01*
X77107759Y-108221057D01*
X77164357Y-108268549D01*
X77174462Y-108281118D01*
X77190761Y-108295793D01*
X77232954Y-108353867D01*
X77275079Y-108406260D01*
X77285494Y-108426182D01*
X77302086Y-108449019D01*
X77328797Y-108509012D01*
X77356939Y-108562843D01*
X77365082Y-108590510D01*
X77379121Y-108622042D01*
X77391492Y-108680241D01*
X77406828Y-108732349D01*
X77410018Y-108767401D01*
X77418499Y-108807301D01*
X77418499Y-108860592D01*
X77422843Y-108908324D01*
X77418499Y-108949653D01*
X77418499Y-108996699D01*
X77408717Y-109042721D01*
X77404373Y-109084047D01*
X77390202Y-109129827D01*
X77379121Y-109181958D01*
X77362528Y-109219226D01*
X77352122Y-109252843D01*
X77326289Y-109300620D01*
X77302086Y-109354981D01*
X77281798Y-109382905D01*
X77268080Y-109408276D01*
X77229359Y-109455082D01*
X77190761Y-109508207D01*
X77169784Y-109527095D01*
X77155452Y-109544419D01*
X77103345Y-109586917D01*
X77050011Y-109634939D01*
X77031024Y-109645901D01*
X77018525Y-109656095D01*
X76953280Y-109690786D01*
X76885988Y-109729637D01*
X76871136Y-109734463D01*
X76862503Y-109739053D01*
X76784930Y-109762473D01*
X76705860Y-109788165D01*
X76696614Y-109789137D01*
X76693351Y-109790122D01*
X76602210Y-109799059D01*
X76564711Y-109803000D01*
X76470289Y-109803000D01*
X76329140Y-109788165D01*
X76248103Y-109761834D01*
X76160837Y-109734152D01*
X76157845Y-109732507D01*
X76149012Y-109729637D01*
X76077034Y-109688081D01*
X76006001Y-109649030D01*
X75998514Y-109642747D01*
X75984989Y-109634939D01*
X75927241Y-109582943D01*
X75870643Y-109535451D01*
X75860538Y-109522882D01*
X75844239Y-109508207D01*
X75802046Y-109450133D01*
X75759921Y-109397740D01*
X75749506Y-109377818D01*
X75732914Y-109354981D01*
X75706203Y-109294988D01*
X75678061Y-109241157D01*
X75669918Y-109213490D01*
X75655879Y-109181958D01*
X75643508Y-109123759D01*
X75628172Y-109071651D01*
X75624982Y-109036599D01*
X75616501Y-108996699D01*
X75616501Y-108943408D01*
X75612157Y-108895676D01*
X75616501Y-108854347D01*
X75616501Y-108807301D01*
X75626283Y-108761279D01*
X75630627Y-108719953D01*
X75644798Y-108674173D01*
X75655879Y-108622042D01*
X75672472Y-108584774D01*
X75682878Y-108551157D01*
X75708711Y-108503380D01*
X75732914Y-108449019D01*
X75753202Y-108421095D01*
X75766920Y-108395724D01*
X75805641Y-108348918D01*
X75844239Y-108295793D01*
X75865216Y-108276905D01*
X75879548Y-108259581D01*
X75931655Y-108217083D01*
X75984989Y-108169061D01*
X76003976Y-108158099D01*
X76016475Y-108147905D01*
X76081720Y-108113214D01*
X76149012Y-108074363D01*
X76163864Y-108069537D01*
X76172497Y-108064947D01*
X76250070Y-108041527D01*
X76329140Y-108015835D01*
X76338386Y-108014863D01*
X76341649Y-108013878D01*
X76432790Y-108004941D01*
X76470289Y-108001000D01*
X76564711Y-108001000D01*
X76705860Y-108015835D01*
X76705860Y-108015835D01*
G37*
G36*
X74165860Y-108015835D02*
G01*
X74246897Y-108042166D01*
X74334163Y-108069848D01*
X74337155Y-108071493D01*
X74345988Y-108074363D01*
X74417966Y-108115919D01*
X74488999Y-108154970D01*
X74496486Y-108161253D01*
X74510011Y-108169061D01*
X74567759Y-108221057D01*
X74624357Y-108268549D01*
X74634462Y-108281118D01*
X74650761Y-108295793D01*
X74692954Y-108353867D01*
X74735079Y-108406260D01*
X74745494Y-108426182D01*
X74762086Y-108449019D01*
X74788797Y-108509012D01*
X74816939Y-108562843D01*
X74825082Y-108590510D01*
X74839121Y-108622042D01*
X74851492Y-108680241D01*
X74866828Y-108732349D01*
X74870018Y-108767401D01*
X74878499Y-108807301D01*
X74878499Y-108860592D01*
X74882843Y-108908324D01*
X74878499Y-108949653D01*
X74878499Y-108996699D01*
X74868717Y-109042721D01*
X74864373Y-109084047D01*
X74850202Y-109129827D01*
X74839121Y-109181958D01*
X74822528Y-109219226D01*
X74812122Y-109252843D01*
X74786289Y-109300620D01*
X74762086Y-109354981D01*
X74741798Y-109382905D01*
X74728080Y-109408276D01*
X74689359Y-109455082D01*
X74650761Y-109508207D01*
X74629784Y-109527095D01*
X74615452Y-109544419D01*
X74563345Y-109586917D01*
X74510011Y-109634939D01*
X74491024Y-109645901D01*
X74478525Y-109656095D01*
X74413280Y-109690786D01*
X74345988Y-109729637D01*
X74331136Y-109734463D01*
X74322503Y-109739053D01*
X74244930Y-109762473D01*
X74165860Y-109788165D01*
X74156614Y-109789137D01*
X74153351Y-109790122D01*
X74062210Y-109799059D01*
X74024711Y-109803000D01*
X73930289Y-109803000D01*
X73789140Y-109788165D01*
X73708103Y-109761834D01*
X73620837Y-109734152D01*
X73617845Y-109732507D01*
X73609012Y-109729637D01*
X73537034Y-109688081D01*
X73466001Y-109649030D01*
X73458514Y-109642747D01*
X73444989Y-109634939D01*
X73387241Y-109582943D01*
X73330643Y-109535451D01*
X73320538Y-109522882D01*
X73304239Y-109508207D01*
X73262046Y-109450133D01*
X73219921Y-109397740D01*
X73209506Y-109377818D01*
X73192914Y-109354981D01*
X73166203Y-109294988D01*
X73138061Y-109241157D01*
X73129918Y-109213490D01*
X73115879Y-109181958D01*
X73103508Y-109123759D01*
X73088172Y-109071651D01*
X73084982Y-109036599D01*
X73076501Y-108996699D01*
X73076501Y-108943408D01*
X73072157Y-108895676D01*
X73076501Y-108854347D01*
X73076501Y-108807301D01*
X73086283Y-108761279D01*
X73090627Y-108719953D01*
X73104798Y-108674173D01*
X73115879Y-108622042D01*
X73132472Y-108584774D01*
X73142878Y-108551157D01*
X73168711Y-108503380D01*
X73192914Y-108449019D01*
X73213202Y-108421095D01*
X73226920Y-108395724D01*
X73265641Y-108348918D01*
X73304239Y-108295793D01*
X73325216Y-108276905D01*
X73339548Y-108259581D01*
X73391655Y-108217083D01*
X73444989Y-108169061D01*
X73463976Y-108158099D01*
X73476475Y-108147905D01*
X73541720Y-108113214D01*
X73609012Y-108074363D01*
X73623864Y-108069537D01*
X73632497Y-108064947D01*
X73710070Y-108041527D01*
X73789140Y-108015835D01*
X73798386Y-108014863D01*
X73801649Y-108013878D01*
X73892790Y-108004941D01*
X73930289Y-108001000D01*
X74024711Y-108001000D01*
X74165860Y-108015835D01*
X74165860Y-108015835D01*
G37*
G36*
X71625860Y-108015835D02*
G01*
X71706897Y-108042166D01*
X71794163Y-108069848D01*
X71797155Y-108071493D01*
X71805988Y-108074363D01*
X71877966Y-108115919D01*
X71948999Y-108154970D01*
X71956486Y-108161253D01*
X71970011Y-108169061D01*
X72027759Y-108221057D01*
X72084357Y-108268549D01*
X72094462Y-108281118D01*
X72110761Y-108295793D01*
X72152954Y-108353867D01*
X72195079Y-108406260D01*
X72205494Y-108426182D01*
X72222086Y-108449019D01*
X72248797Y-108509012D01*
X72276939Y-108562843D01*
X72285082Y-108590510D01*
X72299121Y-108622042D01*
X72311492Y-108680241D01*
X72326828Y-108732349D01*
X72330018Y-108767401D01*
X72338499Y-108807301D01*
X72338499Y-108860592D01*
X72342843Y-108908324D01*
X72338499Y-108949653D01*
X72338499Y-108996699D01*
X72328717Y-109042721D01*
X72324373Y-109084047D01*
X72310202Y-109129827D01*
X72299121Y-109181958D01*
X72282528Y-109219226D01*
X72272122Y-109252843D01*
X72246289Y-109300620D01*
X72222086Y-109354981D01*
X72201798Y-109382905D01*
X72188080Y-109408276D01*
X72149359Y-109455082D01*
X72110761Y-109508207D01*
X72089784Y-109527095D01*
X72075452Y-109544419D01*
X72023345Y-109586917D01*
X71970011Y-109634939D01*
X71951024Y-109645901D01*
X71938525Y-109656095D01*
X71873280Y-109690786D01*
X71805988Y-109729637D01*
X71791136Y-109734463D01*
X71782503Y-109739053D01*
X71704930Y-109762473D01*
X71625860Y-109788165D01*
X71616614Y-109789137D01*
X71613351Y-109790122D01*
X71522210Y-109799059D01*
X71484711Y-109803000D01*
X71390289Y-109803000D01*
X71249140Y-109788165D01*
X71168103Y-109761834D01*
X71080837Y-109734152D01*
X71077845Y-109732507D01*
X71069012Y-109729637D01*
X70997034Y-109688081D01*
X70926001Y-109649030D01*
X70918514Y-109642747D01*
X70904989Y-109634939D01*
X70847241Y-109582943D01*
X70790643Y-109535451D01*
X70780538Y-109522882D01*
X70764239Y-109508207D01*
X70722046Y-109450133D01*
X70679921Y-109397740D01*
X70669506Y-109377818D01*
X70652914Y-109354981D01*
X70626203Y-109294988D01*
X70598061Y-109241157D01*
X70589918Y-109213490D01*
X70575879Y-109181958D01*
X70563508Y-109123759D01*
X70548172Y-109071651D01*
X70544982Y-109036599D01*
X70536501Y-108996699D01*
X70536501Y-108943408D01*
X70532157Y-108895676D01*
X70536501Y-108854347D01*
X70536501Y-108807301D01*
X70546283Y-108761279D01*
X70550627Y-108719953D01*
X70564798Y-108674173D01*
X70575879Y-108622042D01*
X70592472Y-108584774D01*
X70602878Y-108551157D01*
X70628711Y-108503380D01*
X70652914Y-108449019D01*
X70673202Y-108421095D01*
X70686920Y-108395724D01*
X70725641Y-108348918D01*
X70764239Y-108295793D01*
X70785216Y-108276905D01*
X70799548Y-108259581D01*
X70851655Y-108217083D01*
X70904989Y-108169061D01*
X70923976Y-108158099D01*
X70936475Y-108147905D01*
X71001720Y-108113214D01*
X71069012Y-108074363D01*
X71083864Y-108069537D01*
X71092497Y-108064947D01*
X71170070Y-108041527D01*
X71249140Y-108015835D01*
X71258386Y-108014863D01*
X71261649Y-108013878D01*
X71352790Y-108004941D01*
X71390289Y-108001000D01*
X71484711Y-108001000D01*
X71625860Y-108015835D01*
X71625860Y-108015835D01*
G37*
G36*
X66545860Y-108015835D02*
G01*
X66626897Y-108042166D01*
X66714163Y-108069848D01*
X66717155Y-108071493D01*
X66725988Y-108074363D01*
X66797966Y-108115919D01*
X66868999Y-108154970D01*
X66876486Y-108161253D01*
X66890011Y-108169061D01*
X66947759Y-108221057D01*
X67004357Y-108268549D01*
X67014462Y-108281118D01*
X67030761Y-108295793D01*
X67072954Y-108353867D01*
X67115079Y-108406260D01*
X67125494Y-108426182D01*
X67142086Y-108449019D01*
X67168797Y-108509012D01*
X67196939Y-108562843D01*
X67205082Y-108590510D01*
X67219121Y-108622042D01*
X67231492Y-108680241D01*
X67246828Y-108732349D01*
X67250018Y-108767401D01*
X67258499Y-108807301D01*
X67258499Y-108860592D01*
X67262843Y-108908324D01*
X67258499Y-108949653D01*
X67258499Y-108996699D01*
X67248717Y-109042721D01*
X67244373Y-109084047D01*
X67230202Y-109129827D01*
X67219121Y-109181958D01*
X67202528Y-109219226D01*
X67192122Y-109252843D01*
X67166289Y-109300620D01*
X67142086Y-109354981D01*
X67121798Y-109382905D01*
X67108080Y-109408276D01*
X67069359Y-109455082D01*
X67030761Y-109508207D01*
X67009784Y-109527095D01*
X66995452Y-109544419D01*
X66943345Y-109586917D01*
X66890011Y-109634939D01*
X66871024Y-109645901D01*
X66858525Y-109656095D01*
X66793280Y-109690786D01*
X66725988Y-109729637D01*
X66711136Y-109734463D01*
X66702503Y-109739053D01*
X66624930Y-109762473D01*
X66545860Y-109788165D01*
X66536614Y-109789137D01*
X66533351Y-109790122D01*
X66442210Y-109799059D01*
X66404711Y-109803000D01*
X66310289Y-109803000D01*
X66169140Y-109788165D01*
X66088103Y-109761834D01*
X66000837Y-109734152D01*
X65997845Y-109732507D01*
X65989012Y-109729637D01*
X65917034Y-109688081D01*
X65846001Y-109649030D01*
X65838514Y-109642747D01*
X65824989Y-109634939D01*
X65767241Y-109582943D01*
X65710643Y-109535451D01*
X65700538Y-109522882D01*
X65684239Y-109508207D01*
X65642046Y-109450133D01*
X65599921Y-109397740D01*
X65589506Y-109377818D01*
X65572914Y-109354981D01*
X65546203Y-109294988D01*
X65518061Y-109241157D01*
X65509918Y-109213490D01*
X65495879Y-109181958D01*
X65483508Y-109123759D01*
X65468172Y-109071651D01*
X65464982Y-109036599D01*
X65456501Y-108996699D01*
X65456501Y-108943408D01*
X65452157Y-108895676D01*
X65456501Y-108854347D01*
X65456501Y-108807301D01*
X65466283Y-108761279D01*
X65470627Y-108719953D01*
X65484798Y-108674173D01*
X65495879Y-108622042D01*
X65512472Y-108584774D01*
X65522878Y-108551157D01*
X65548711Y-108503380D01*
X65572914Y-108449019D01*
X65593202Y-108421095D01*
X65606920Y-108395724D01*
X65645641Y-108348918D01*
X65684239Y-108295793D01*
X65705216Y-108276905D01*
X65719548Y-108259581D01*
X65771655Y-108217083D01*
X65824989Y-108169061D01*
X65843976Y-108158099D01*
X65856475Y-108147905D01*
X65921720Y-108113214D01*
X65989012Y-108074363D01*
X66003864Y-108069537D01*
X66012497Y-108064947D01*
X66090070Y-108041527D01*
X66169140Y-108015835D01*
X66178386Y-108014863D01*
X66181649Y-108013878D01*
X66272790Y-108004941D01*
X66310289Y-108001000D01*
X66404711Y-108001000D01*
X66545860Y-108015835D01*
X66545860Y-108015835D01*
G37*
G36*
X92834860Y-108015835D02*
G01*
X92915897Y-108042166D01*
X93003163Y-108069848D01*
X93006155Y-108071493D01*
X93014988Y-108074363D01*
X93086966Y-108115919D01*
X93157999Y-108154970D01*
X93165486Y-108161253D01*
X93179011Y-108169061D01*
X93236759Y-108221057D01*
X93293357Y-108268549D01*
X93303462Y-108281118D01*
X93319761Y-108295793D01*
X93361954Y-108353867D01*
X93404079Y-108406260D01*
X93414494Y-108426182D01*
X93431086Y-108449019D01*
X93457797Y-108509012D01*
X93485939Y-108562843D01*
X93494082Y-108590510D01*
X93508121Y-108622042D01*
X93520492Y-108680241D01*
X93535828Y-108732349D01*
X93539018Y-108767401D01*
X93547499Y-108807301D01*
X93547499Y-108860592D01*
X93551843Y-108908324D01*
X93547499Y-108949653D01*
X93547499Y-108996699D01*
X93537717Y-109042721D01*
X93533373Y-109084047D01*
X93519202Y-109129827D01*
X93508121Y-109181958D01*
X93491528Y-109219226D01*
X93481122Y-109252843D01*
X93455289Y-109300620D01*
X93431086Y-109354981D01*
X93410798Y-109382905D01*
X93397080Y-109408276D01*
X93358359Y-109455082D01*
X93319761Y-109508207D01*
X93298784Y-109527095D01*
X93284452Y-109544419D01*
X93232345Y-109586917D01*
X93179011Y-109634939D01*
X93160024Y-109645901D01*
X93147525Y-109656095D01*
X93082280Y-109690786D01*
X93014988Y-109729637D01*
X93000136Y-109734463D01*
X92991503Y-109739053D01*
X92913930Y-109762473D01*
X92834860Y-109788165D01*
X92825614Y-109789137D01*
X92822351Y-109790122D01*
X92731210Y-109799059D01*
X92693711Y-109803000D01*
X92599289Y-109803000D01*
X92458140Y-109788165D01*
X92377103Y-109761834D01*
X92289837Y-109734152D01*
X92286845Y-109732507D01*
X92278012Y-109729637D01*
X92206034Y-109688081D01*
X92135001Y-109649030D01*
X92127514Y-109642747D01*
X92113989Y-109634939D01*
X92056241Y-109582943D01*
X91999643Y-109535451D01*
X91989538Y-109522882D01*
X91973239Y-109508207D01*
X91931046Y-109450133D01*
X91888921Y-109397740D01*
X91878506Y-109377818D01*
X91861914Y-109354981D01*
X91835203Y-109294988D01*
X91807061Y-109241157D01*
X91798918Y-109213490D01*
X91784879Y-109181958D01*
X91772508Y-109123759D01*
X91757172Y-109071651D01*
X91753982Y-109036599D01*
X91745501Y-108996699D01*
X91745501Y-108943408D01*
X91741157Y-108895676D01*
X91745501Y-108854347D01*
X91745501Y-108807301D01*
X91755283Y-108761279D01*
X91759627Y-108719953D01*
X91773798Y-108674173D01*
X91784879Y-108622042D01*
X91801472Y-108584774D01*
X91811878Y-108551157D01*
X91837711Y-108503380D01*
X91861914Y-108449019D01*
X91882202Y-108421095D01*
X91895920Y-108395724D01*
X91934641Y-108348918D01*
X91973239Y-108295793D01*
X91994216Y-108276905D01*
X92008548Y-108259581D01*
X92060655Y-108217083D01*
X92113989Y-108169061D01*
X92132976Y-108158099D01*
X92145475Y-108147905D01*
X92210720Y-108113214D01*
X92278012Y-108074363D01*
X92292864Y-108069537D01*
X92301497Y-108064947D01*
X92379070Y-108041527D01*
X92458140Y-108015835D01*
X92467386Y-108014863D01*
X92470649Y-108013878D01*
X92561790Y-108004941D01*
X92599289Y-108001000D01*
X92693711Y-108001000D01*
X92834860Y-108015835D01*
X92834860Y-108015835D01*
G37*
G36*
X87754860Y-108015835D02*
G01*
X87835897Y-108042166D01*
X87923163Y-108069848D01*
X87926155Y-108071493D01*
X87934988Y-108074363D01*
X88006966Y-108115919D01*
X88077999Y-108154970D01*
X88085486Y-108161253D01*
X88099011Y-108169061D01*
X88156759Y-108221057D01*
X88213357Y-108268549D01*
X88223462Y-108281118D01*
X88239761Y-108295793D01*
X88281954Y-108353867D01*
X88324079Y-108406260D01*
X88334494Y-108426182D01*
X88351086Y-108449019D01*
X88377797Y-108509012D01*
X88405939Y-108562843D01*
X88414082Y-108590510D01*
X88428121Y-108622042D01*
X88440492Y-108680241D01*
X88455828Y-108732349D01*
X88459018Y-108767401D01*
X88467499Y-108807301D01*
X88467499Y-108860592D01*
X88471843Y-108908324D01*
X88467499Y-108949653D01*
X88467499Y-108996699D01*
X88457717Y-109042721D01*
X88453373Y-109084047D01*
X88439202Y-109129827D01*
X88428121Y-109181958D01*
X88411528Y-109219226D01*
X88401122Y-109252843D01*
X88375289Y-109300620D01*
X88351086Y-109354981D01*
X88330798Y-109382905D01*
X88317080Y-109408276D01*
X88278359Y-109455082D01*
X88239761Y-109508207D01*
X88218784Y-109527095D01*
X88204452Y-109544419D01*
X88152345Y-109586917D01*
X88099011Y-109634939D01*
X88080024Y-109645901D01*
X88067525Y-109656095D01*
X88002280Y-109690786D01*
X87934988Y-109729637D01*
X87920136Y-109734463D01*
X87911503Y-109739053D01*
X87833930Y-109762473D01*
X87754860Y-109788165D01*
X87745614Y-109789137D01*
X87742351Y-109790122D01*
X87651210Y-109799059D01*
X87613711Y-109803000D01*
X87519289Y-109803000D01*
X87378140Y-109788165D01*
X87297103Y-109761834D01*
X87209837Y-109734152D01*
X87206845Y-109732507D01*
X87198012Y-109729637D01*
X87126034Y-109688081D01*
X87055001Y-109649030D01*
X87047514Y-109642747D01*
X87033989Y-109634939D01*
X86976241Y-109582943D01*
X86919643Y-109535451D01*
X86909538Y-109522882D01*
X86893239Y-109508207D01*
X86851046Y-109450133D01*
X86808921Y-109397740D01*
X86798506Y-109377818D01*
X86781914Y-109354981D01*
X86755203Y-109294988D01*
X86727061Y-109241157D01*
X86718918Y-109213490D01*
X86704879Y-109181958D01*
X86692508Y-109123759D01*
X86677172Y-109071651D01*
X86673982Y-109036599D01*
X86665501Y-108996699D01*
X86665501Y-108943408D01*
X86661157Y-108895676D01*
X86665501Y-108854347D01*
X86665501Y-108807301D01*
X86675283Y-108761279D01*
X86679627Y-108719953D01*
X86693798Y-108674173D01*
X86704879Y-108622042D01*
X86721472Y-108584774D01*
X86731878Y-108551157D01*
X86757711Y-108503380D01*
X86781914Y-108449019D01*
X86802202Y-108421095D01*
X86815920Y-108395724D01*
X86854641Y-108348918D01*
X86893239Y-108295793D01*
X86914216Y-108276905D01*
X86928548Y-108259581D01*
X86980655Y-108217083D01*
X87033989Y-108169061D01*
X87052976Y-108158099D01*
X87065475Y-108147905D01*
X87130720Y-108113214D01*
X87198012Y-108074363D01*
X87212864Y-108069537D01*
X87221497Y-108064947D01*
X87299070Y-108041527D01*
X87378140Y-108015835D01*
X87387386Y-108014863D01*
X87390649Y-108013878D01*
X87481790Y-108004941D01*
X87519289Y-108001000D01*
X87613711Y-108001000D01*
X87754860Y-108015835D01*
X87754860Y-108015835D01*
G37*
G36*
X97914860Y-108015835D02*
G01*
X97995897Y-108042166D01*
X98083163Y-108069848D01*
X98086155Y-108071493D01*
X98094988Y-108074363D01*
X98166966Y-108115919D01*
X98237999Y-108154970D01*
X98245486Y-108161253D01*
X98259011Y-108169061D01*
X98316759Y-108221057D01*
X98373357Y-108268549D01*
X98383462Y-108281118D01*
X98399761Y-108295793D01*
X98441954Y-108353867D01*
X98484079Y-108406260D01*
X98494494Y-108426182D01*
X98511086Y-108449019D01*
X98537797Y-108509012D01*
X98565939Y-108562843D01*
X98574082Y-108590510D01*
X98588121Y-108622042D01*
X98600492Y-108680241D01*
X98615828Y-108732349D01*
X98619018Y-108767401D01*
X98627499Y-108807301D01*
X98627499Y-108860592D01*
X98631843Y-108908324D01*
X98627499Y-108949653D01*
X98627499Y-108996699D01*
X98617717Y-109042721D01*
X98613373Y-109084047D01*
X98599202Y-109129827D01*
X98588121Y-109181958D01*
X98571528Y-109219226D01*
X98561122Y-109252843D01*
X98535289Y-109300620D01*
X98511086Y-109354981D01*
X98490798Y-109382905D01*
X98477080Y-109408276D01*
X98438359Y-109455082D01*
X98399761Y-109508207D01*
X98378784Y-109527095D01*
X98364452Y-109544419D01*
X98312345Y-109586917D01*
X98259011Y-109634939D01*
X98240024Y-109645901D01*
X98227525Y-109656095D01*
X98162280Y-109690786D01*
X98094988Y-109729637D01*
X98080136Y-109734463D01*
X98071503Y-109739053D01*
X97993930Y-109762473D01*
X97914860Y-109788165D01*
X97905614Y-109789137D01*
X97902351Y-109790122D01*
X97811210Y-109799059D01*
X97773711Y-109803000D01*
X97679289Y-109803000D01*
X97538140Y-109788165D01*
X97457103Y-109761834D01*
X97369837Y-109734152D01*
X97366845Y-109732507D01*
X97358012Y-109729637D01*
X97286034Y-109688081D01*
X97215001Y-109649030D01*
X97207514Y-109642747D01*
X97193989Y-109634939D01*
X97136241Y-109582943D01*
X97079643Y-109535451D01*
X97069538Y-109522882D01*
X97053239Y-109508207D01*
X97011046Y-109450133D01*
X96968921Y-109397740D01*
X96958506Y-109377818D01*
X96941914Y-109354981D01*
X96915203Y-109294988D01*
X96887061Y-109241157D01*
X96878918Y-109213490D01*
X96864879Y-109181958D01*
X96852508Y-109123759D01*
X96837172Y-109071651D01*
X96833982Y-109036599D01*
X96825501Y-108996699D01*
X96825501Y-108943408D01*
X96821157Y-108895676D01*
X96825501Y-108854347D01*
X96825501Y-108807301D01*
X96835283Y-108761279D01*
X96839627Y-108719953D01*
X96853798Y-108674173D01*
X96864879Y-108622042D01*
X96881472Y-108584774D01*
X96891878Y-108551157D01*
X96917711Y-108503380D01*
X96941914Y-108449019D01*
X96962202Y-108421095D01*
X96975920Y-108395724D01*
X97014641Y-108348918D01*
X97053239Y-108295793D01*
X97074216Y-108276905D01*
X97088548Y-108259581D01*
X97140655Y-108217083D01*
X97193989Y-108169061D01*
X97212976Y-108158099D01*
X97225475Y-108147905D01*
X97290720Y-108113214D01*
X97358012Y-108074363D01*
X97372864Y-108069537D01*
X97381497Y-108064947D01*
X97459070Y-108041527D01*
X97538140Y-108015835D01*
X97547386Y-108014863D01*
X97550649Y-108013878D01*
X97641790Y-108004941D01*
X97679289Y-108001000D01*
X97773711Y-108001000D01*
X97914860Y-108015835D01*
X97914860Y-108015835D01*
G37*
G36*
X95374860Y-108015835D02*
G01*
X95455897Y-108042166D01*
X95543163Y-108069848D01*
X95546155Y-108071493D01*
X95554988Y-108074363D01*
X95626966Y-108115919D01*
X95697999Y-108154970D01*
X95705486Y-108161253D01*
X95719011Y-108169061D01*
X95776759Y-108221057D01*
X95833357Y-108268549D01*
X95843462Y-108281118D01*
X95859761Y-108295793D01*
X95901954Y-108353867D01*
X95944079Y-108406260D01*
X95954494Y-108426182D01*
X95971086Y-108449019D01*
X95997797Y-108509012D01*
X96025939Y-108562843D01*
X96034082Y-108590510D01*
X96048121Y-108622042D01*
X96060492Y-108680241D01*
X96075828Y-108732349D01*
X96079018Y-108767401D01*
X96087499Y-108807301D01*
X96087499Y-108860592D01*
X96091843Y-108908324D01*
X96087499Y-108949653D01*
X96087499Y-108996699D01*
X96077717Y-109042721D01*
X96073373Y-109084047D01*
X96059202Y-109129827D01*
X96048121Y-109181958D01*
X96031528Y-109219226D01*
X96021122Y-109252843D01*
X95995289Y-109300620D01*
X95971086Y-109354981D01*
X95950798Y-109382905D01*
X95937080Y-109408276D01*
X95898359Y-109455082D01*
X95859761Y-109508207D01*
X95838784Y-109527095D01*
X95824452Y-109544419D01*
X95772345Y-109586917D01*
X95719011Y-109634939D01*
X95700024Y-109645901D01*
X95687525Y-109656095D01*
X95622280Y-109690786D01*
X95554988Y-109729637D01*
X95540136Y-109734463D01*
X95531503Y-109739053D01*
X95453930Y-109762473D01*
X95374860Y-109788165D01*
X95365614Y-109789137D01*
X95362351Y-109790122D01*
X95271210Y-109799059D01*
X95233711Y-109803000D01*
X95139289Y-109803000D01*
X94998140Y-109788165D01*
X94917103Y-109761834D01*
X94829837Y-109734152D01*
X94826845Y-109732507D01*
X94818012Y-109729637D01*
X94746034Y-109688081D01*
X94675001Y-109649030D01*
X94667514Y-109642747D01*
X94653989Y-109634939D01*
X94596241Y-109582943D01*
X94539643Y-109535451D01*
X94529538Y-109522882D01*
X94513239Y-109508207D01*
X94471046Y-109450133D01*
X94428921Y-109397740D01*
X94418506Y-109377818D01*
X94401914Y-109354981D01*
X94375203Y-109294988D01*
X94347061Y-109241157D01*
X94338918Y-109213490D01*
X94324879Y-109181958D01*
X94312508Y-109123759D01*
X94297172Y-109071651D01*
X94293982Y-109036599D01*
X94285501Y-108996699D01*
X94285501Y-108943408D01*
X94281157Y-108895676D01*
X94285501Y-108854347D01*
X94285501Y-108807301D01*
X94295283Y-108761279D01*
X94299627Y-108719953D01*
X94313798Y-108674173D01*
X94324879Y-108622042D01*
X94341472Y-108584774D01*
X94351878Y-108551157D01*
X94377711Y-108503380D01*
X94401914Y-108449019D01*
X94422202Y-108421095D01*
X94435920Y-108395724D01*
X94474641Y-108348918D01*
X94513239Y-108295793D01*
X94534216Y-108276905D01*
X94548548Y-108259581D01*
X94600655Y-108217083D01*
X94653989Y-108169061D01*
X94672976Y-108158099D01*
X94685475Y-108147905D01*
X94750720Y-108113214D01*
X94818012Y-108074363D01*
X94832864Y-108069537D01*
X94841497Y-108064947D01*
X94919070Y-108041527D01*
X94998140Y-108015835D01*
X95007386Y-108014863D01*
X95010649Y-108013878D01*
X95101790Y-108004941D01*
X95139289Y-108001000D01*
X95233711Y-108001000D01*
X95374860Y-108015835D01*
X95374860Y-108015835D01*
G37*
G36*
X90294860Y-108015835D02*
G01*
X90375897Y-108042166D01*
X90463163Y-108069848D01*
X90466155Y-108071493D01*
X90474988Y-108074363D01*
X90546966Y-108115919D01*
X90617999Y-108154970D01*
X90625486Y-108161253D01*
X90639011Y-108169061D01*
X90696759Y-108221057D01*
X90753357Y-108268549D01*
X90763462Y-108281118D01*
X90779761Y-108295793D01*
X90821954Y-108353867D01*
X90864079Y-108406260D01*
X90874494Y-108426182D01*
X90891086Y-108449019D01*
X90917797Y-108509012D01*
X90945939Y-108562843D01*
X90954082Y-108590510D01*
X90968121Y-108622042D01*
X90980492Y-108680241D01*
X90995828Y-108732349D01*
X90999018Y-108767401D01*
X91007499Y-108807301D01*
X91007499Y-108860592D01*
X91011843Y-108908324D01*
X91007499Y-108949653D01*
X91007499Y-108996699D01*
X90997717Y-109042721D01*
X90993373Y-109084047D01*
X90979202Y-109129827D01*
X90968121Y-109181958D01*
X90951528Y-109219226D01*
X90941122Y-109252843D01*
X90915289Y-109300620D01*
X90891086Y-109354981D01*
X90870798Y-109382905D01*
X90857080Y-109408276D01*
X90818359Y-109455082D01*
X90779761Y-109508207D01*
X90758784Y-109527095D01*
X90744452Y-109544419D01*
X90692345Y-109586917D01*
X90639011Y-109634939D01*
X90620024Y-109645901D01*
X90607525Y-109656095D01*
X90542280Y-109690786D01*
X90474988Y-109729637D01*
X90460136Y-109734463D01*
X90451503Y-109739053D01*
X90373930Y-109762473D01*
X90294860Y-109788165D01*
X90285614Y-109789137D01*
X90282351Y-109790122D01*
X90191210Y-109799059D01*
X90153711Y-109803000D01*
X90059289Y-109803000D01*
X89918140Y-109788165D01*
X89837103Y-109761834D01*
X89749837Y-109734152D01*
X89746845Y-109732507D01*
X89738012Y-109729637D01*
X89666034Y-109688081D01*
X89595001Y-109649030D01*
X89587514Y-109642747D01*
X89573989Y-109634939D01*
X89516241Y-109582943D01*
X89459643Y-109535451D01*
X89449538Y-109522882D01*
X89433239Y-109508207D01*
X89391046Y-109450133D01*
X89348921Y-109397740D01*
X89338506Y-109377818D01*
X89321914Y-109354981D01*
X89295203Y-109294988D01*
X89267061Y-109241157D01*
X89258918Y-109213490D01*
X89244879Y-109181958D01*
X89232508Y-109123759D01*
X89217172Y-109071651D01*
X89213982Y-109036599D01*
X89205501Y-108996699D01*
X89205501Y-108943408D01*
X89201157Y-108895676D01*
X89205501Y-108854347D01*
X89205501Y-108807301D01*
X89215283Y-108761279D01*
X89219627Y-108719953D01*
X89233798Y-108674173D01*
X89244879Y-108622042D01*
X89261472Y-108584774D01*
X89271878Y-108551157D01*
X89297711Y-108503380D01*
X89321914Y-108449019D01*
X89342202Y-108421095D01*
X89355920Y-108395724D01*
X89394641Y-108348918D01*
X89433239Y-108295793D01*
X89454216Y-108276905D01*
X89468548Y-108259581D01*
X89520655Y-108217083D01*
X89573989Y-108169061D01*
X89592976Y-108158099D01*
X89605475Y-108147905D01*
X89670720Y-108113214D01*
X89738012Y-108074363D01*
X89752864Y-108069537D01*
X89761497Y-108064947D01*
X89839070Y-108041527D01*
X89918140Y-108015835D01*
X89927386Y-108014863D01*
X89930649Y-108013878D01*
X90021790Y-108004941D01*
X90059289Y-108001000D01*
X90153711Y-108001000D01*
X90294860Y-108015835D01*
X90294860Y-108015835D01*
G37*
G36*
X111884360Y-105984335D02*
G01*
X111965397Y-106010666D01*
X112052663Y-106038348D01*
X112055655Y-106039993D01*
X112064488Y-106042863D01*
X112136466Y-106084419D01*
X112207499Y-106123470D01*
X112214986Y-106129753D01*
X112228511Y-106137561D01*
X112286259Y-106189557D01*
X112342857Y-106237049D01*
X112352962Y-106249618D01*
X112369261Y-106264293D01*
X112411454Y-106322367D01*
X112453579Y-106374760D01*
X112463994Y-106394682D01*
X112480586Y-106417519D01*
X112507297Y-106477512D01*
X112535439Y-106531343D01*
X112543582Y-106559010D01*
X112557621Y-106590542D01*
X112569992Y-106648741D01*
X112585328Y-106700849D01*
X112588518Y-106735901D01*
X112596999Y-106775801D01*
X112596999Y-106829092D01*
X112601343Y-106876824D01*
X112596999Y-106918153D01*
X112596999Y-106965199D01*
X112587217Y-107011221D01*
X112582873Y-107052547D01*
X112568702Y-107098327D01*
X112557621Y-107150458D01*
X112541028Y-107187726D01*
X112530622Y-107221343D01*
X112504789Y-107269120D01*
X112480586Y-107323481D01*
X112460298Y-107351405D01*
X112446580Y-107376776D01*
X112407859Y-107423582D01*
X112369261Y-107476707D01*
X112348284Y-107495595D01*
X112333952Y-107512919D01*
X112281845Y-107555417D01*
X112228511Y-107603439D01*
X112209524Y-107614401D01*
X112197025Y-107624595D01*
X112131780Y-107659286D01*
X112064488Y-107698137D01*
X112049636Y-107702963D01*
X112041003Y-107707553D01*
X111963430Y-107730973D01*
X111884360Y-107756665D01*
X111875114Y-107757637D01*
X111871851Y-107758622D01*
X111780710Y-107767559D01*
X111743211Y-107771500D01*
X111648789Y-107771500D01*
X111507640Y-107756665D01*
X111426603Y-107730334D01*
X111339337Y-107702652D01*
X111336345Y-107701007D01*
X111327512Y-107698137D01*
X111255534Y-107656581D01*
X111184501Y-107617530D01*
X111177014Y-107611247D01*
X111163489Y-107603439D01*
X111105741Y-107551443D01*
X111049143Y-107503951D01*
X111039038Y-107491382D01*
X111022739Y-107476707D01*
X110980546Y-107418633D01*
X110938421Y-107366240D01*
X110928006Y-107346318D01*
X110911414Y-107323481D01*
X110884703Y-107263488D01*
X110856561Y-107209657D01*
X110848418Y-107181990D01*
X110834379Y-107150458D01*
X110822008Y-107092259D01*
X110806672Y-107040151D01*
X110803482Y-107005099D01*
X110795001Y-106965199D01*
X110795001Y-106911908D01*
X110790657Y-106864176D01*
X110795001Y-106822847D01*
X110795001Y-106775801D01*
X110804783Y-106729779D01*
X110809127Y-106688453D01*
X110823298Y-106642673D01*
X110834379Y-106590542D01*
X110850972Y-106553274D01*
X110861378Y-106519657D01*
X110887211Y-106471880D01*
X110911414Y-106417519D01*
X110931702Y-106389595D01*
X110945420Y-106364224D01*
X110984141Y-106317418D01*
X111022739Y-106264293D01*
X111043716Y-106245405D01*
X111058048Y-106228081D01*
X111110155Y-106185583D01*
X111163489Y-106137561D01*
X111182476Y-106126599D01*
X111194975Y-106116405D01*
X111260220Y-106081714D01*
X111327512Y-106042863D01*
X111342364Y-106038037D01*
X111350997Y-106033447D01*
X111428570Y-106010027D01*
X111507640Y-105984335D01*
X111516886Y-105983363D01*
X111520149Y-105982378D01*
X111611290Y-105973441D01*
X111648789Y-105969500D01*
X111743211Y-105969500D01*
X111884360Y-105984335D01*
X111884360Y-105984335D01*
G37*
G36*
X109344360Y-105984335D02*
G01*
X109425397Y-106010666D01*
X109512663Y-106038348D01*
X109515655Y-106039993D01*
X109524488Y-106042863D01*
X109596466Y-106084419D01*
X109667499Y-106123470D01*
X109674986Y-106129753D01*
X109688511Y-106137561D01*
X109746259Y-106189557D01*
X109802857Y-106237049D01*
X109812962Y-106249618D01*
X109829261Y-106264293D01*
X109871454Y-106322367D01*
X109913579Y-106374760D01*
X109923994Y-106394682D01*
X109940586Y-106417519D01*
X109967297Y-106477512D01*
X109995439Y-106531343D01*
X110003582Y-106559010D01*
X110017621Y-106590542D01*
X110029992Y-106648741D01*
X110045328Y-106700849D01*
X110048518Y-106735901D01*
X110056999Y-106775801D01*
X110056999Y-106829092D01*
X110061343Y-106876824D01*
X110056999Y-106918153D01*
X110056999Y-106965199D01*
X110047217Y-107011221D01*
X110042873Y-107052547D01*
X110028702Y-107098327D01*
X110017621Y-107150458D01*
X110001028Y-107187726D01*
X109990622Y-107221343D01*
X109964789Y-107269120D01*
X109940586Y-107323481D01*
X109920298Y-107351405D01*
X109906580Y-107376776D01*
X109867859Y-107423582D01*
X109829261Y-107476707D01*
X109808284Y-107495595D01*
X109793952Y-107512919D01*
X109741845Y-107555417D01*
X109688511Y-107603439D01*
X109669524Y-107614401D01*
X109657025Y-107624595D01*
X109591780Y-107659286D01*
X109524488Y-107698137D01*
X109509636Y-107702963D01*
X109501003Y-107707553D01*
X109423430Y-107730973D01*
X109344360Y-107756665D01*
X109335114Y-107757637D01*
X109331851Y-107758622D01*
X109240710Y-107767559D01*
X109203211Y-107771500D01*
X109108789Y-107771500D01*
X108967640Y-107756665D01*
X108886603Y-107730334D01*
X108799337Y-107702652D01*
X108796345Y-107701007D01*
X108787512Y-107698137D01*
X108715534Y-107656581D01*
X108644501Y-107617530D01*
X108637014Y-107611247D01*
X108623489Y-107603439D01*
X108565741Y-107551443D01*
X108509143Y-107503951D01*
X108499038Y-107491382D01*
X108482739Y-107476707D01*
X108440546Y-107418633D01*
X108398421Y-107366240D01*
X108388006Y-107346318D01*
X108371414Y-107323481D01*
X108344703Y-107263488D01*
X108316561Y-107209657D01*
X108308418Y-107181990D01*
X108294379Y-107150458D01*
X108282008Y-107092259D01*
X108266672Y-107040151D01*
X108263482Y-107005099D01*
X108255001Y-106965199D01*
X108255001Y-106911908D01*
X108250657Y-106864176D01*
X108255001Y-106822847D01*
X108255001Y-106775801D01*
X108264783Y-106729779D01*
X108269127Y-106688453D01*
X108283298Y-106642673D01*
X108294379Y-106590542D01*
X108310972Y-106553274D01*
X108321378Y-106519657D01*
X108347211Y-106471880D01*
X108371414Y-106417519D01*
X108391702Y-106389595D01*
X108405420Y-106364224D01*
X108444141Y-106317418D01*
X108482739Y-106264293D01*
X108503716Y-106245405D01*
X108518048Y-106228081D01*
X108570155Y-106185583D01*
X108623489Y-106137561D01*
X108642476Y-106126599D01*
X108654975Y-106116405D01*
X108720220Y-106081714D01*
X108787512Y-106042863D01*
X108802364Y-106038037D01*
X108810997Y-106033447D01*
X108888570Y-106010027D01*
X108967640Y-105984335D01*
X108976886Y-105983363D01*
X108980149Y-105982378D01*
X109071290Y-105973441D01*
X109108789Y-105969500D01*
X109203211Y-105969500D01*
X109344360Y-105984335D01*
X109344360Y-105984335D01*
G37*
G36*
X104730899Y-103698959D02*
G01*
X104747769Y-103710231D01*
X104759041Y-103727101D01*
X104765448Y-103759312D01*
X104765448Y-105434688D01*
X104762999Y-105447000D01*
X104759041Y-105466899D01*
X104747769Y-105483769D01*
X104730899Y-105495041D01*
X104711000Y-105498999D01*
X104698688Y-105501448D01*
X103023312Y-105501448D01*
X102991101Y-105495041D01*
X102974231Y-105483769D01*
X102962959Y-105466899D01*
X102956552Y-105434688D01*
X102956552Y-103759312D01*
X102962959Y-103727101D01*
X102974231Y-103710231D01*
X102991101Y-103698959D01*
X103023312Y-103692552D01*
X104698688Y-103692552D01*
X104730899Y-103698959D01*
X104730899Y-103698959D01*
G37*
G36*
X98969360Y-103710835D02*
G01*
X99050397Y-103737166D01*
X99137663Y-103764848D01*
X99140655Y-103766493D01*
X99149488Y-103769363D01*
X99221466Y-103810919D01*
X99292499Y-103849970D01*
X99299986Y-103856253D01*
X99313511Y-103864061D01*
X99371259Y-103916057D01*
X99427857Y-103963549D01*
X99437962Y-103976118D01*
X99454261Y-103990793D01*
X99496454Y-104048867D01*
X99538579Y-104101260D01*
X99548994Y-104121182D01*
X99565586Y-104144019D01*
X99592297Y-104204012D01*
X99620439Y-104257843D01*
X99628582Y-104285510D01*
X99642621Y-104317042D01*
X99654992Y-104375241D01*
X99670328Y-104427349D01*
X99673518Y-104462401D01*
X99681999Y-104502301D01*
X99681999Y-104555592D01*
X99686343Y-104603324D01*
X99681999Y-104644653D01*
X99681999Y-104691699D01*
X99672217Y-104737721D01*
X99667873Y-104779047D01*
X99653702Y-104824827D01*
X99642621Y-104876958D01*
X99626028Y-104914226D01*
X99615622Y-104947843D01*
X99589789Y-104995620D01*
X99565586Y-105049981D01*
X99545298Y-105077905D01*
X99531580Y-105103276D01*
X99492859Y-105150082D01*
X99454261Y-105203207D01*
X99433284Y-105222095D01*
X99418952Y-105239419D01*
X99366845Y-105281917D01*
X99313511Y-105329939D01*
X99294524Y-105340901D01*
X99282025Y-105351095D01*
X99216780Y-105385786D01*
X99149488Y-105424637D01*
X99134636Y-105429463D01*
X99126003Y-105434053D01*
X99048430Y-105457473D01*
X98969360Y-105483165D01*
X98960114Y-105484137D01*
X98956851Y-105485122D01*
X98865710Y-105494059D01*
X98828211Y-105498000D01*
X98733789Y-105498000D01*
X98592640Y-105483165D01*
X98511603Y-105456834D01*
X98424337Y-105429152D01*
X98421345Y-105427507D01*
X98412512Y-105424637D01*
X98340534Y-105383081D01*
X98269501Y-105344030D01*
X98262014Y-105337747D01*
X98248489Y-105329939D01*
X98190741Y-105277943D01*
X98134143Y-105230451D01*
X98124038Y-105217882D01*
X98107739Y-105203207D01*
X98065546Y-105145133D01*
X98023421Y-105092740D01*
X98013006Y-105072818D01*
X97996414Y-105049981D01*
X97969703Y-104989988D01*
X97941561Y-104936157D01*
X97933418Y-104908490D01*
X97919379Y-104876958D01*
X97907008Y-104818759D01*
X97891672Y-104766651D01*
X97888482Y-104731599D01*
X97880001Y-104691699D01*
X97880001Y-104638408D01*
X97875657Y-104590676D01*
X97880001Y-104549347D01*
X97880001Y-104502301D01*
X97889783Y-104456279D01*
X97894127Y-104414953D01*
X97908298Y-104369173D01*
X97919379Y-104317042D01*
X97935972Y-104279774D01*
X97946378Y-104246157D01*
X97972211Y-104198380D01*
X97996414Y-104144019D01*
X98016702Y-104116095D01*
X98030420Y-104090724D01*
X98069141Y-104043918D01*
X98107739Y-103990793D01*
X98128716Y-103971905D01*
X98143048Y-103954581D01*
X98195155Y-103912083D01*
X98248489Y-103864061D01*
X98267476Y-103853099D01*
X98279975Y-103842905D01*
X98345220Y-103808214D01*
X98412512Y-103769363D01*
X98427364Y-103764537D01*
X98435997Y-103759947D01*
X98513570Y-103736527D01*
X98592640Y-103710835D01*
X98601886Y-103709863D01*
X98605149Y-103708878D01*
X98696290Y-103699941D01*
X98733789Y-103696000D01*
X98828211Y-103696000D01*
X98969360Y-103710835D01*
X98969360Y-103710835D01*
G37*
G36*
X101509360Y-103710835D02*
G01*
X101590397Y-103737166D01*
X101677663Y-103764848D01*
X101680655Y-103766493D01*
X101689488Y-103769363D01*
X101761466Y-103810919D01*
X101832499Y-103849970D01*
X101839986Y-103856253D01*
X101853511Y-103864061D01*
X101911259Y-103916057D01*
X101967857Y-103963549D01*
X101977962Y-103976118D01*
X101994261Y-103990793D01*
X102036454Y-104048867D01*
X102078579Y-104101260D01*
X102088994Y-104121182D01*
X102105586Y-104144019D01*
X102132297Y-104204012D01*
X102160439Y-104257843D01*
X102168582Y-104285510D01*
X102182621Y-104317042D01*
X102194992Y-104375241D01*
X102210328Y-104427349D01*
X102213518Y-104462401D01*
X102221999Y-104502301D01*
X102221999Y-104555592D01*
X102226343Y-104603324D01*
X102221999Y-104644653D01*
X102221999Y-104691699D01*
X102212217Y-104737721D01*
X102207873Y-104779047D01*
X102193702Y-104824827D01*
X102182621Y-104876958D01*
X102166028Y-104914226D01*
X102155622Y-104947843D01*
X102129789Y-104995620D01*
X102105586Y-105049981D01*
X102085298Y-105077905D01*
X102071580Y-105103276D01*
X102032859Y-105150082D01*
X101994261Y-105203207D01*
X101973284Y-105222095D01*
X101958952Y-105239419D01*
X101906845Y-105281917D01*
X101853511Y-105329939D01*
X101834524Y-105340901D01*
X101822025Y-105351095D01*
X101756780Y-105385786D01*
X101689488Y-105424637D01*
X101674636Y-105429463D01*
X101666003Y-105434053D01*
X101588430Y-105457473D01*
X101509360Y-105483165D01*
X101500114Y-105484137D01*
X101496851Y-105485122D01*
X101405710Y-105494059D01*
X101368211Y-105498000D01*
X101273789Y-105498000D01*
X101132640Y-105483165D01*
X101051603Y-105456834D01*
X100964337Y-105429152D01*
X100961345Y-105427507D01*
X100952512Y-105424637D01*
X100880534Y-105383081D01*
X100809501Y-105344030D01*
X100802014Y-105337747D01*
X100788489Y-105329939D01*
X100730741Y-105277943D01*
X100674143Y-105230451D01*
X100664038Y-105217882D01*
X100647739Y-105203207D01*
X100605546Y-105145133D01*
X100563421Y-105092740D01*
X100553006Y-105072818D01*
X100536414Y-105049981D01*
X100509703Y-104989988D01*
X100481561Y-104936157D01*
X100473418Y-104908490D01*
X100459379Y-104876958D01*
X100447008Y-104818759D01*
X100431672Y-104766651D01*
X100428482Y-104731599D01*
X100420001Y-104691699D01*
X100420001Y-104638408D01*
X100415657Y-104590676D01*
X100420001Y-104549347D01*
X100420001Y-104502301D01*
X100429783Y-104456279D01*
X100434127Y-104414953D01*
X100448298Y-104369173D01*
X100459379Y-104317042D01*
X100475972Y-104279774D01*
X100486378Y-104246157D01*
X100512211Y-104198380D01*
X100536414Y-104144019D01*
X100556702Y-104116095D01*
X100570420Y-104090724D01*
X100609141Y-104043918D01*
X100647739Y-103990793D01*
X100668716Y-103971905D01*
X100683048Y-103954581D01*
X100735155Y-103912083D01*
X100788489Y-103864061D01*
X100807476Y-103853099D01*
X100819975Y-103842905D01*
X100885220Y-103808214D01*
X100952512Y-103769363D01*
X100967364Y-103764537D01*
X100975997Y-103759947D01*
X101053570Y-103736527D01*
X101132640Y-103710835D01*
X101141886Y-103709863D01*
X101145149Y-103708878D01*
X101236290Y-103699941D01*
X101273789Y-103696000D01*
X101368211Y-103696000D01*
X101509360Y-103710835D01*
X101509360Y-103710835D01*
G37*
G36*
X111884360Y-103444335D02*
G01*
X111965397Y-103470666D01*
X112052663Y-103498348D01*
X112055655Y-103499993D01*
X112064488Y-103502863D01*
X112136466Y-103544419D01*
X112207499Y-103583470D01*
X112214986Y-103589753D01*
X112228511Y-103597561D01*
X112286259Y-103649557D01*
X112342857Y-103697049D01*
X112352962Y-103709618D01*
X112369261Y-103724293D01*
X112411454Y-103782367D01*
X112453579Y-103834760D01*
X112463994Y-103854682D01*
X112480586Y-103877519D01*
X112507297Y-103937512D01*
X112535439Y-103991343D01*
X112543582Y-104019010D01*
X112557621Y-104050542D01*
X112569992Y-104108741D01*
X112585328Y-104160849D01*
X112588518Y-104195901D01*
X112596999Y-104235801D01*
X112596999Y-104289092D01*
X112601343Y-104336824D01*
X112596999Y-104378153D01*
X112596999Y-104425199D01*
X112587217Y-104471221D01*
X112582873Y-104512547D01*
X112568702Y-104558327D01*
X112557621Y-104610458D01*
X112541028Y-104647726D01*
X112530622Y-104681343D01*
X112504789Y-104729120D01*
X112480586Y-104783481D01*
X112460298Y-104811405D01*
X112446580Y-104836776D01*
X112407859Y-104883582D01*
X112369261Y-104936707D01*
X112348284Y-104955595D01*
X112333952Y-104972919D01*
X112281845Y-105015417D01*
X112228511Y-105063439D01*
X112209524Y-105074401D01*
X112197025Y-105084595D01*
X112131780Y-105119286D01*
X112064488Y-105158137D01*
X112049636Y-105162963D01*
X112041003Y-105167553D01*
X111963430Y-105190973D01*
X111884360Y-105216665D01*
X111875114Y-105217637D01*
X111871851Y-105218622D01*
X111780710Y-105227559D01*
X111743211Y-105231500D01*
X111648789Y-105231500D01*
X111507640Y-105216665D01*
X111426603Y-105190334D01*
X111339337Y-105162652D01*
X111336345Y-105161007D01*
X111327512Y-105158137D01*
X111255534Y-105116581D01*
X111184501Y-105077530D01*
X111177014Y-105071247D01*
X111163489Y-105063439D01*
X111105741Y-105011443D01*
X111049143Y-104963951D01*
X111039038Y-104951382D01*
X111022739Y-104936707D01*
X110980546Y-104878633D01*
X110938421Y-104826240D01*
X110928006Y-104806318D01*
X110911414Y-104783481D01*
X110884703Y-104723488D01*
X110856561Y-104669657D01*
X110848418Y-104641990D01*
X110834379Y-104610458D01*
X110822008Y-104552259D01*
X110806672Y-104500151D01*
X110803482Y-104465099D01*
X110795001Y-104425199D01*
X110795001Y-104371908D01*
X110790657Y-104324176D01*
X110795001Y-104282847D01*
X110795001Y-104235801D01*
X110804783Y-104189779D01*
X110809127Y-104148453D01*
X110823298Y-104102673D01*
X110834379Y-104050542D01*
X110850972Y-104013274D01*
X110861378Y-103979657D01*
X110887211Y-103931880D01*
X110911414Y-103877519D01*
X110931702Y-103849595D01*
X110945420Y-103824224D01*
X110984141Y-103777418D01*
X111022739Y-103724293D01*
X111043716Y-103705405D01*
X111058048Y-103688081D01*
X111110155Y-103645583D01*
X111163489Y-103597561D01*
X111182476Y-103586599D01*
X111194975Y-103576405D01*
X111260220Y-103541714D01*
X111327512Y-103502863D01*
X111342364Y-103498037D01*
X111350997Y-103493447D01*
X111428570Y-103470027D01*
X111507640Y-103444335D01*
X111516886Y-103443363D01*
X111520149Y-103442378D01*
X111611290Y-103433441D01*
X111648789Y-103429500D01*
X111743211Y-103429500D01*
X111884360Y-103444335D01*
X111884360Y-103444335D01*
G37*
G36*
X109344360Y-103444335D02*
G01*
X109425397Y-103470666D01*
X109512663Y-103498348D01*
X109515655Y-103499993D01*
X109524488Y-103502863D01*
X109596466Y-103544419D01*
X109667499Y-103583470D01*
X109674986Y-103589753D01*
X109688511Y-103597561D01*
X109746259Y-103649557D01*
X109802857Y-103697049D01*
X109812962Y-103709618D01*
X109829261Y-103724293D01*
X109871454Y-103782367D01*
X109913579Y-103834760D01*
X109923994Y-103854682D01*
X109940586Y-103877519D01*
X109967297Y-103937512D01*
X109995439Y-103991343D01*
X110003582Y-104019010D01*
X110017621Y-104050542D01*
X110029992Y-104108741D01*
X110045328Y-104160849D01*
X110048518Y-104195901D01*
X110056999Y-104235801D01*
X110056999Y-104289092D01*
X110061343Y-104336824D01*
X110056999Y-104378153D01*
X110056999Y-104425199D01*
X110047217Y-104471221D01*
X110042873Y-104512547D01*
X110028702Y-104558327D01*
X110017621Y-104610458D01*
X110001028Y-104647726D01*
X109990622Y-104681343D01*
X109964789Y-104729120D01*
X109940586Y-104783481D01*
X109920298Y-104811405D01*
X109906580Y-104836776D01*
X109867859Y-104883582D01*
X109829261Y-104936707D01*
X109808284Y-104955595D01*
X109793952Y-104972919D01*
X109741845Y-105015417D01*
X109688511Y-105063439D01*
X109669524Y-105074401D01*
X109657025Y-105084595D01*
X109591780Y-105119286D01*
X109524488Y-105158137D01*
X109509636Y-105162963D01*
X109501003Y-105167553D01*
X109423430Y-105190973D01*
X109344360Y-105216665D01*
X109335114Y-105217637D01*
X109331851Y-105218622D01*
X109240710Y-105227559D01*
X109203211Y-105231500D01*
X109108789Y-105231500D01*
X108967640Y-105216665D01*
X108886603Y-105190334D01*
X108799337Y-105162652D01*
X108796345Y-105161007D01*
X108787512Y-105158137D01*
X108715534Y-105116581D01*
X108644501Y-105077530D01*
X108637014Y-105071247D01*
X108623489Y-105063439D01*
X108565741Y-105011443D01*
X108509143Y-104963951D01*
X108499038Y-104951382D01*
X108482739Y-104936707D01*
X108440546Y-104878633D01*
X108398421Y-104826240D01*
X108388006Y-104806318D01*
X108371414Y-104783481D01*
X108344703Y-104723488D01*
X108316561Y-104669657D01*
X108308418Y-104641990D01*
X108294379Y-104610458D01*
X108282008Y-104552259D01*
X108266672Y-104500151D01*
X108263482Y-104465099D01*
X108255001Y-104425199D01*
X108255001Y-104371908D01*
X108250657Y-104324176D01*
X108255001Y-104282847D01*
X108255001Y-104235801D01*
X108264783Y-104189779D01*
X108269127Y-104148453D01*
X108283298Y-104102673D01*
X108294379Y-104050542D01*
X108310972Y-104013274D01*
X108321378Y-103979657D01*
X108347211Y-103931880D01*
X108371414Y-103877519D01*
X108391702Y-103849595D01*
X108405420Y-103824224D01*
X108444141Y-103777418D01*
X108482739Y-103724293D01*
X108503716Y-103705405D01*
X108518048Y-103688081D01*
X108570155Y-103645583D01*
X108623489Y-103597561D01*
X108642476Y-103586599D01*
X108654975Y-103576405D01*
X108720220Y-103541714D01*
X108787512Y-103502863D01*
X108802364Y-103498037D01*
X108810997Y-103493447D01*
X108888570Y-103470027D01*
X108967640Y-103444335D01*
X108976886Y-103443363D01*
X108980149Y-103442378D01*
X109071290Y-103433441D01*
X109108789Y-103429500D01*
X109203211Y-103429500D01*
X109344360Y-103444335D01*
X109344360Y-103444335D01*
G37*
G36*
X111884360Y-100904335D02*
G01*
X111965397Y-100930666D01*
X112052663Y-100958348D01*
X112055655Y-100959993D01*
X112064488Y-100962863D01*
X112136466Y-101004419D01*
X112207499Y-101043470D01*
X112214986Y-101049753D01*
X112228511Y-101057561D01*
X112286259Y-101109557D01*
X112342857Y-101157049D01*
X112352962Y-101169618D01*
X112369261Y-101184293D01*
X112411454Y-101242367D01*
X112453579Y-101294760D01*
X112463994Y-101314682D01*
X112480586Y-101337519D01*
X112507297Y-101397512D01*
X112535439Y-101451343D01*
X112543582Y-101479010D01*
X112557621Y-101510542D01*
X112569992Y-101568741D01*
X112585328Y-101620849D01*
X112588518Y-101655901D01*
X112596999Y-101695801D01*
X112596999Y-101749092D01*
X112601343Y-101796824D01*
X112596999Y-101838153D01*
X112596999Y-101885199D01*
X112587217Y-101931221D01*
X112582873Y-101972547D01*
X112568702Y-102018327D01*
X112557621Y-102070458D01*
X112541028Y-102107726D01*
X112530622Y-102141343D01*
X112504789Y-102189120D01*
X112480586Y-102243481D01*
X112460298Y-102271405D01*
X112446580Y-102296776D01*
X112407859Y-102343582D01*
X112369261Y-102396707D01*
X112348284Y-102415595D01*
X112333952Y-102432919D01*
X112281845Y-102475417D01*
X112228511Y-102523439D01*
X112209524Y-102534401D01*
X112197025Y-102544595D01*
X112131780Y-102579286D01*
X112064488Y-102618137D01*
X112049636Y-102622963D01*
X112041003Y-102627553D01*
X111963430Y-102650973D01*
X111884360Y-102676665D01*
X111875114Y-102677637D01*
X111871851Y-102678622D01*
X111780710Y-102687559D01*
X111743211Y-102691500D01*
X111648789Y-102691500D01*
X111507640Y-102676665D01*
X111426603Y-102650334D01*
X111339337Y-102622652D01*
X111336345Y-102621007D01*
X111327512Y-102618137D01*
X111255534Y-102576581D01*
X111184501Y-102537530D01*
X111177014Y-102531247D01*
X111163489Y-102523439D01*
X111105741Y-102471443D01*
X111049143Y-102423951D01*
X111039038Y-102411382D01*
X111022739Y-102396707D01*
X110980546Y-102338633D01*
X110938421Y-102286240D01*
X110928006Y-102266318D01*
X110911414Y-102243481D01*
X110884703Y-102183488D01*
X110856561Y-102129657D01*
X110848418Y-102101990D01*
X110834379Y-102070458D01*
X110822008Y-102012259D01*
X110806672Y-101960151D01*
X110803482Y-101925099D01*
X110795001Y-101885199D01*
X110795001Y-101831908D01*
X110790657Y-101784176D01*
X110795001Y-101742847D01*
X110795001Y-101695801D01*
X110804783Y-101649779D01*
X110809127Y-101608453D01*
X110823298Y-101562673D01*
X110834379Y-101510542D01*
X110850972Y-101473274D01*
X110861378Y-101439657D01*
X110887211Y-101391880D01*
X110911414Y-101337519D01*
X110931702Y-101309595D01*
X110945420Y-101284224D01*
X110984141Y-101237418D01*
X111022739Y-101184293D01*
X111043716Y-101165405D01*
X111058048Y-101148081D01*
X111110155Y-101105583D01*
X111163489Y-101057561D01*
X111182476Y-101046599D01*
X111194975Y-101036405D01*
X111260220Y-101001714D01*
X111327512Y-100962863D01*
X111342364Y-100958037D01*
X111350997Y-100953447D01*
X111428570Y-100930027D01*
X111507640Y-100904335D01*
X111516886Y-100903363D01*
X111520149Y-100902378D01*
X111611290Y-100893441D01*
X111648789Y-100889500D01*
X111743211Y-100889500D01*
X111884360Y-100904335D01*
X111884360Y-100904335D01*
G37*
G36*
X109344360Y-100904335D02*
G01*
X109425397Y-100930666D01*
X109512663Y-100958348D01*
X109515655Y-100959993D01*
X109524488Y-100962863D01*
X109596466Y-101004419D01*
X109667499Y-101043470D01*
X109674986Y-101049753D01*
X109688511Y-101057561D01*
X109746259Y-101109557D01*
X109802857Y-101157049D01*
X109812962Y-101169618D01*
X109829261Y-101184293D01*
X109871454Y-101242367D01*
X109913579Y-101294760D01*
X109923994Y-101314682D01*
X109940586Y-101337519D01*
X109967297Y-101397512D01*
X109995439Y-101451343D01*
X110003582Y-101479010D01*
X110017621Y-101510542D01*
X110029992Y-101568741D01*
X110045328Y-101620849D01*
X110048518Y-101655901D01*
X110056999Y-101695801D01*
X110056999Y-101749092D01*
X110061343Y-101796824D01*
X110056999Y-101838153D01*
X110056999Y-101885199D01*
X110047217Y-101931221D01*
X110042873Y-101972547D01*
X110028702Y-102018327D01*
X110017621Y-102070458D01*
X110001028Y-102107726D01*
X109990622Y-102141343D01*
X109964789Y-102189120D01*
X109940586Y-102243481D01*
X109920298Y-102271405D01*
X109906580Y-102296776D01*
X109867859Y-102343582D01*
X109829261Y-102396707D01*
X109808284Y-102415595D01*
X109793952Y-102432919D01*
X109741845Y-102475417D01*
X109688511Y-102523439D01*
X109669524Y-102534401D01*
X109657025Y-102544595D01*
X109591780Y-102579286D01*
X109524488Y-102618137D01*
X109509636Y-102622963D01*
X109501003Y-102627553D01*
X109423430Y-102650973D01*
X109344360Y-102676665D01*
X109335114Y-102677637D01*
X109331851Y-102678622D01*
X109240710Y-102687559D01*
X109203211Y-102691500D01*
X109108789Y-102691500D01*
X108967640Y-102676665D01*
X108886603Y-102650334D01*
X108799337Y-102622652D01*
X108796345Y-102621007D01*
X108787512Y-102618137D01*
X108715534Y-102576581D01*
X108644501Y-102537530D01*
X108637014Y-102531247D01*
X108623489Y-102523439D01*
X108565741Y-102471443D01*
X108509143Y-102423951D01*
X108499038Y-102411382D01*
X108482739Y-102396707D01*
X108440546Y-102338633D01*
X108398421Y-102286240D01*
X108388006Y-102266318D01*
X108371414Y-102243481D01*
X108344703Y-102183488D01*
X108316561Y-102129657D01*
X108308418Y-102101990D01*
X108294379Y-102070458D01*
X108282008Y-102012259D01*
X108266672Y-101960151D01*
X108263482Y-101925099D01*
X108255001Y-101885199D01*
X108255001Y-101831908D01*
X108250657Y-101784176D01*
X108255001Y-101742847D01*
X108255001Y-101695801D01*
X108264783Y-101649779D01*
X108269127Y-101608453D01*
X108283298Y-101562673D01*
X108294379Y-101510542D01*
X108310972Y-101473274D01*
X108321378Y-101439657D01*
X108347211Y-101391880D01*
X108371414Y-101337519D01*
X108391702Y-101309595D01*
X108405420Y-101284224D01*
X108444141Y-101237418D01*
X108482739Y-101184293D01*
X108503716Y-101165405D01*
X108518048Y-101148081D01*
X108570155Y-101105583D01*
X108623489Y-101057561D01*
X108642476Y-101046599D01*
X108654975Y-101036405D01*
X108720220Y-101001714D01*
X108787512Y-100962863D01*
X108802364Y-100958037D01*
X108810997Y-100953447D01*
X108888570Y-100930027D01*
X108967640Y-100904335D01*
X108976886Y-100903363D01*
X108980149Y-100902378D01*
X109071290Y-100893441D01*
X109108789Y-100889500D01*
X109203211Y-100889500D01*
X109344360Y-100904335D01*
X109344360Y-100904335D01*
G37*
G36*
X79725099Y-100612359D02*
G01*
X79741969Y-100623631D01*
X79753241Y-100640501D01*
X79759648Y-100672712D01*
X79759648Y-102375288D01*
X79757199Y-102387600D01*
X79753241Y-102407499D01*
X79741969Y-102424369D01*
X79725099Y-102435641D01*
X79705200Y-102439599D01*
X79692888Y-102442048D01*
X77990312Y-102442048D01*
X77958101Y-102435641D01*
X77941231Y-102424369D01*
X77929959Y-102407499D01*
X77923552Y-102375288D01*
X77923552Y-100672712D01*
X77929959Y-100640501D01*
X77941231Y-100623631D01*
X77958101Y-100612359D01*
X77990312Y-100605952D01*
X79692888Y-100605952D01*
X79725099Y-100612359D01*
X79725099Y-100612359D01*
G37*
G36*
X89192803Y-100624459D02*
G01*
X89275135Y-100651211D01*
X89363646Y-100679288D01*
X89366678Y-100680955D01*
X89375650Y-100683870D01*
X89448739Y-100726068D01*
X89520823Y-100765696D01*
X89528424Y-100772074D01*
X89542149Y-100779998D01*
X89600743Y-100832757D01*
X89658222Y-100880987D01*
X89668486Y-100893753D01*
X89685023Y-100908643D01*
X89727842Y-100967577D01*
X89770612Y-101020774D01*
X89781185Y-101040999D01*
X89798029Y-101064182D01*
X89825143Y-101125082D01*
X89853710Y-101179724D01*
X89861976Y-101207808D01*
X89876227Y-101239817D01*
X89888784Y-101298893D01*
X89904352Y-101351788D01*
X89907590Y-101387370D01*
X89916199Y-101427872D01*
X89916199Y-101481971D01*
X89920608Y-101530420D01*
X89916199Y-101572369D01*
X89916199Y-101620128D01*
X89906269Y-101666844D01*
X89901860Y-101708795D01*
X89887474Y-101755268D01*
X89876227Y-101808183D01*
X89859385Y-101846011D01*
X89848820Y-101880141D01*
X89822594Y-101928645D01*
X89798029Y-101983819D01*
X89777437Y-102012161D01*
X89763513Y-102037913D01*
X89724206Y-102085426D01*
X89685023Y-102139357D01*
X89663729Y-102158531D01*
X89649179Y-102176118D01*
X89596286Y-102219257D01*
X89542149Y-102268002D01*
X89522873Y-102279131D01*
X89510185Y-102289479D01*
X89443951Y-102324697D01*
X89375650Y-102364130D01*
X89360577Y-102369027D01*
X89351814Y-102373687D01*
X89273047Y-102397468D01*
X89192803Y-102423541D01*
X89183423Y-102424527D01*
X89180107Y-102425528D01*
X89087545Y-102434604D01*
X89049524Y-102438600D01*
X88953676Y-102438600D01*
X88810397Y-102423541D01*
X88728065Y-102396789D01*
X88639554Y-102368712D01*
X88636522Y-102367045D01*
X88627550Y-102364130D01*
X88554461Y-102321932D01*
X88482377Y-102282304D01*
X88474776Y-102275926D01*
X88461051Y-102268002D01*
X88402457Y-102215243D01*
X88344978Y-102167013D01*
X88334714Y-102154247D01*
X88318177Y-102139357D01*
X88275358Y-102080423D01*
X88232588Y-102027226D01*
X88222015Y-102007001D01*
X88205171Y-101983818D01*
X88178057Y-101922918D01*
X88149490Y-101868276D01*
X88141224Y-101840192D01*
X88126973Y-101808183D01*
X88114416Y-101749107D01*
X88098848Y-101696212D01*
X88095610Y-101660630D01*
X88087001Y-101620128D01*
X88087001Y-101566029D01*
X88082592Y-101517580D01*
X88087001Y-101475631D01*
X88087001Y-101427872D01*
X88096931Y-101381156D01*
X88101340Y-101339205D01*
X88115726Y-101292732D01*
X88126973Y-101239817D01*
X88143815Y-101201989D01*
X88154380Y-101167859D01*
X88180606Y-101119355D01*
X88205171Y-101064181D01*
X88225763Y-101035839D01*
X88239687Y-101010087D01*
X88278994Y-100962574D01*
X88318177Y-100908643D01*
X88339471Y-100889469D01*
X88354021Y-100871882D01*
X88406914Y-100828743D01*
X88461051Y-100779998D01*
X88480327Y-100768869D01*
X88493015Y-100758521D01*
X88559249Y-100723303D01*
X88627550Y-100683870D01*
X88642623Y-100678973D01*
X88651386Y-100674313D01*
X88730153Y-100650532D01*
X88810397Y-100624459D01*
X88819777Y-100623473D01*
X88823093Y-100622472D01*
X88915655Y-100613396D01*
X88953676Y-100609400D01*
X89049524Y-100609400D01*
X89192803Y-100624459D01*
X89192803Y-100624459D01*
G37*
G36*
X86652803Y-100624459D02*
G01*
X86735135Y-100651211D01*
X86823646Y-100679288D01*
X86826678Y-100680955D01*
X86835650Y-100683870D01*
X86908739Y-100726068D01*
X86980823Y-100765696D01*
X86988424Y-100772074D01*
X87002149Y-100779998D01*
X87060743Y-100832757D01*
X87118222Y-100880987D01*
X87128486Y-100893753D01*
X87145023Y-100908643D01*
X87187842Y-100967577D01*
X87230612Y-101020774D01*
X87241185Y-101040999D01*
X87258029Y-101064182D01*
X87285143Y-101125082D01*
X87313710Y-101179724D01*
X87321976Y-101207808D01*
X87336227Y-101239817D01*
X87348784Y-101298893D01*
X87364352Y-101351788D01*
X87367590Y-101387370D01*
X87376199Y-101427872D01*
X87376199Y-101481971D01*
X87380608Y-101530420D01*
X87376199Y-101572369D01*
X87376199Y-101620128D01*
X87366269Y-101666844D01*
X87361860Y-101708795D01*
X87347474Y-101755268D01*
X87336227Y-101808183D01*
X87319385Y-101846011D01*
X87308820Y-101880141D01*
X87282594Y-101928645D01*
X87258029Y-101983819D01*
X87237437Y-102012161D01*
X87223513Y-102037913D01*
X87184206Y-102085426D01*
X87145023Y-102139357D01*
X87123729Y-102158531D01*
X87109179Y-102176118D01*
X87056286Y-102219257D01*
X87002149Y-102268002D01*
X86982873Y-102279131D01*
X86970185Y-102289479D01*
X86903951Y-102324697D01*
X86835650Y-102364130D01*
X86820577Y-102369027D01*
X86811814Y-102373687D01*
X86733047Y-102397468D01*
X86652803Y-102423541D01*
X86643423Y-102424527D01*
X86640107Y-102425528D01*
X86547545Y-102434604D01*
X86509524Y-102438600D01*
X86413676Y-102438600D01*
X86270397Y-102423541D01*
X86188065Y-102396789D01*
X86099554Y-102368712D01*
X86096522Y-102367045D01*
X86087550Y-102364130D01*
X86014461Y-102321932D01*
X85942377Y-102282304D01*
X85934776Y-102275926D01*
X85921051Y-102268002D01*
X85862457Y-102215243D01*
X85804978Y-102167013D01*
X85794714Y-102154247D01*
X85778177Y-102139357D01*
X85735358Y-102080423D01*
X85692588Y-102027226D01*
X85682015Y-102007001D01*
X85665171Y-101983818D01*
X85638057Y-101922918D01*
X85609490Y-101868276D01*
X85601224Y-101840192D01*
X85586973Y-101808183D01*
X85574416Y-101749107D01*
X85558848Y-101696212D01*
X85555610Y-101660630D01*
X85547001Y-101620128D01*
X85547001Y-101566029D01*
X85542592Y-101517580D01*
X85547001Y-101475631D01*
X85547001Y-101427872D01*
X85556931Y-101381156D01*
X85561340Y-101339205D01*
X85575726Y-101292732D01*
X85586973Y-101239817D01*
X85603815Y-101201989D01*
X85614380Y-101167859D01*
X85640606Y-101119355D01*
X85665171Y-101064181D01*
X85685763Y-101035839D01*
X85699687Y-101010087D01*
X85738994Y-100962574D01*
X85778177Y-100908643D01*
X85799471Y-100889469D01*
X85814021Y-100871882D01*
X85866914Y-100828743D01*
X85921051Y-100779998D01*
X85940327Y-100768869D01*
X85953015Y-100758521D01*
X86019249Y-100723303D01*
X86087550Y-100683870D01*
X86102623Y-100678973D01*
X86111386Y-100674313D01*
X86190153Y-100650532D01*
X86270397Y-100624459D01*
X86279777Y-100623473D01*
X86283093Y-100622472D01*
X86375655Y-100613396D01*
X86413676Y-100609400D01*
X86509524Y-100609400D01*
X86652803Y-100624459D01*
X86652803Y-100624459D01*
G37*
G36*
X81572803Y-100624459D02*
G01*
X81655135Y-100651211D01*
X81743646Y-100679288D01*
X81746678Y-100680955D01*
X81755650Y-100683870D01*
X81828739Y-100726068D01*
X81900823Y-100765696D01*
X81908424Y-100772074D01*
X81922149Y-100779998D01*
X81980743Y-100832757D01*
X82038222Y-100880987D01*
X82048486Y-100893753D01*
X82065023Y-100908643D01*
X82107842Y-100967577D01*
X82150612Y-101020774D01*
X82161185Y-101040999D01*
X82178029Y-101064182D01*
X82205143Y-101125082D01*
X82233710Y-101179724D01*
X82241976Y-101207808D01*
X82256227Y-101239817D01*
X82268784Y-101298893D01*
X82284352Y-101351788D01*
X82287590Y-101387370D01*
X82296199Y-101427872D01*
X82296199Y-101481971D01*
X82300608Y-101530420D01*
X82296199Y-101572369D01*
X82296199Y-101620128D01*
X82286269Y-101666844D01*
X82281860Y-101708795D01*
X82267474Y-101755268D01*
X82256227Y-101808183D01*
X82239385Y-101846011D01*
X82228820Y-101880141D01*
X82202594Y-101928645D01*
X82178029Y-101983819D01*
X82157437Y-102012161D01*
X82143513Y-102037913D01*
X82104206Y-102085426D01*
X82065023Y-102139357D01*
X82043729Y-102158531D01*
X82029179Y-102176118D01*
X81976286Y-102219257D01*
X81922149Y-102268002D01*
X81902873Y-102279131D01*
X81890185Y-102289479D01*
X81823951Y-102324697D01*
X81755650Y-102364130D01*
X81740577Y-102369027D01*
X81731814Y-102373687D01*
X81653047Y-102397468D01*
X81572803Y-102423541D01*
X81563423Y-102424527D01*
X81560107Y-102425528D01*
X81467545Y-102434604D01*
X81429524Y-102438600D01*
X81333676Y-102438600D01*
X81190397Y-102423541D01*
X81108065Y-102396789D01*
X81019554Y-102368712D01*
X81016522Y-102367045D01*
X81007550Y-102364130D01*
X80934461Y-102321932D01*
X80862377Y-102282304D01*
X80854776Y-102275926D01*
X80841051Y-102268002D01*
X80782457Y-102215243D01*
X80724978Y-102167013D01*
X80714714Y-102154247D01*
X80698177Y-102139357D01*
X80655358Y-102080423D01*
X80612588Y-102027226D01*
X80602015Y-102007001D01*
X80585171Y-101983818D01*
X80558057Y-101922918D01*
X80529490Y-101868276D01*
X80521224Y-101840192D01*
X80506973Y-101808183D01*
X80494416Y-101749107D01*
X80478848Y-101696212D01*
X80475610Y-101660630D01*
X80467001Y-101620128D01*
X80467001Y-101566029D01*
X80462592Y-101517580D01*
X80467001Y-101475631D01*
X80467001Y-101427872D01*
X80476931Y-101381156D01*
X80481340Y-101339205D01*
X80495726Y-101292732D01*
X80506973Y-101239817D01*
X80523815Y-101201989D01*
X80534380Y-101167859D01*
X80560606Y-101119355D01*
X80585171Y-101064181D01*
X80605763Y-101035839D01*
X80619687Y-101010087D01*
X80658994Y-100962574D01*
X80698177Y-100908643D01*
X80719471Y-100889469D01*
X80734021Y-100871882D01*
X80786914Y-100828743D01*
X80841051Y-100779998D01*
X80860327Y-100768869D01*
X80873015Y-100758521D01*
X80939249Y-100723303D01*
X81007550Y-100683870D01*
X81022623Y-100678973D01*
X81031386Y-100674313D01*
X81110153Y-100650532D01*
X81190397Y-100624459D01*
X81199777Y-100623473D01*
X81203093Y-100622472D01*
X81295655Y-100613396D01*
X81333676Y-100609400D01*
X81429524Y-100609400D01*
X81572803Y-100624459D01*
X81572803Y-100624459D01*
G37*
G36*
X84112803Y-100624459D02*
G01*
X84195135Y-100651211D01*
X84283646Y-100679288D01*
X84286678Y-100680955D01*
X84295650Y-100683870D01*
X84368739Y-100726068D01*
X84440823Y-100765696D01*
X84448424Y-100772074D01*
X84462149Y-100779998D01*
X84520743Y-100832757D01*
X84578222Y-100880987D01*
X84588486Y-100893753D01*
X84605023Y-100908643D01*
X84647842Y-100967577D01*
X84690612Y-101020774D01*
X84701185Y-101040999D01*
X84718029Y-101064182D01*
X84745143Y-101125082D01*
X84773710Y-101179724D01*
X84781976Y-101207808D01*
X84796227Y-101239817D01*
X84808784Y-101298893D01*
X84824352Y-101351788D01*
X84827590Y-101387370D01*
X84836199Y-101427872D01*
X84836199Y-101481971D01*
X84840608Y-101530420D01*
X84836199Y-101572369D01*
X84836199Y-101620128D01*
X84826269Y-101666844D01*
X84821860Y-101708795D01*
X84807474Y-101755268D01*
X84796227Y-101808183D01*
X84779385Y-101846011D01*
X84768820Y-101880141D01*
X84742594Y-101928645D01*
X84718029Y-101983819D01*
X84697437Y-102012161D01*
X84683513Y-102037913D01*
X84644206Y-102085426D01*
X84605023Y-102139357D01*
X84583729Y-102158531D01*
X84569179Y-102176118D01*
X84516286Y-102219257D01*
X84462149Y-102268002D01*
X84442873Y-102279131D01*
X84430185Y-102289479D01*
X84363951Y-102324697D01*
X84295650Y-102364130D01*
X84280577Y-102369027D01*
X84271814Y-102373687D01*
X84193047Y-102397468D01*
X84112803Y-102423541D01*
X84103423Y-102424527D01*
X84100107Y-102425528D01*
X84007545Y-102434604D01*
X83969524Y-102438600D01*
X83873676Y-102438600D01*
X83730397Y-102423541D01*
X83648065Y-102396789D01*
X83559554Y-102368712D01*
X83556522Y-102367045D01*
X83547550Y-102364130D01*
X83474461Y-102321932D01*
X83402377Y-102282304D01*
X83394776Y-102275926D01*
X83381051Y-102268002D01*
X83322457Y-102215243D01*
X83264978Y-102167013D01*
X83254714Y-102154247D01*
X83238177Y-102139357D01*
X83195358Y-102080423D01*
X83152588Y-102027226D01*
X83142015Y-102007001D01*
X83125171Y-101983818D01*
X83098057Y-101922918D01*
X83069490Y-101868276D01*
X83061224Y-101840192D01*
X83046973Y-101808183D01*
X83034416Y-101749107D01*
X83018848Y-101696212D01*
X83015610Y-101660630D01*
X83007001Y-101620128D01*
X83007001Y-101566029D01*
X83002592Y-101517580D01*
X83007001Y-101475631D01*
X83007001Y-101427872D01*
X83016931Y-101381156D01*
X83021340Y-101339205D01*
X83035726Y-101292732D01*
X83046973Y-101239817D01*
X83063815Y-101201989D01*
X83074380Y-101167859D01*
X83100606Y-101119355D01*
X83125171Y-101064181D01*
X83145763Y-101035839D01*
X83159687Y-101010087D01*
X83198994Y-100962574D01*
X83238177Y-100908643D01*
X83259471Y-100889469D01*
X83274021Y-100871882D01*
X83326914Y-100828743D01*
X83381051Y-100779998D01*
X83400327Y-100768869D01*
X83413015Y-100758521D01*
X83479249Y-100723303D01*
X83547550Y-100683870D01*
X83562623Y-100678973D01*
X83571386Y-100674313D01*
X83650153Y-100650532D01*
X83730397Y-100624459D01*
X83739777Y-100623473D01*
X83743093Y-100622472D01*
X83835655Y-100613396D01*
X83873676Y-100609400D01*
X83969524Y-100609400D01*
X84112803Y-100624459D01*
X84112803Y-100624459D01*
G37*
G36*
X104730899Y-100015959D02*
G01*
X104747769Y-100027231D01*
X104759041Y-100044101D01*
X104765448Y-100076312D01*
X104765448Y-101751688D01*
X104762999Y-101764000D01*
X104759041Y-101783899D01*
X104747769Y-101800769D01*
X104730899Y-101812041D01*
X104711000Y-101815999D01*
X104698688Y-101818448D01*
X103023312Y-101818448D01*
X102991101Y-101812041D01*
X102974231Y-101800769D01*
X102962959Y-101783899D01*
X102956552Y-101751688D01*
X102956552Y-100076312D01*
X102962959Y-100044101D01*
X102974231Y-100027231D01*
X102991101Y-100015959D01*
X103023312Y-100009552D01*
X104698688Y-100009552D01*
X104730899Y-100015959D01*
X104730899Y-100015959D01*
G37*
G36*
X101509360Y-100027835D02*
G01*
X101590397Y-100054166D01*
X101677663Y-100081848D01*
X101680655Y-100083493D01*
X101689488Y-100086363D01*
X101761466Y-100127919D01*
X101832499Y-100166970D01*
X101839986Y-100173253D01*
X101853511Y-100181061D01*
X101911259Y-100233057D01*
X101967857Y-100280549D01*
X101977962Y-100293118D01*
X101994261Y-100307793D01*
X102036454Y-100365867D01*
X102078579Y-100418260D01*
X102088994Y-100438182D01*
X102105586Y-100461019D01*
X102132297Y-100521012D01*
X102160439Y-100574843D01*
X102168582Y-100602510D01*
X102182621Y-100634042D01*
X102194992Y-100692241D01*
X102210328Y-100744349D01*
X102213518Y-100779401D01*
X102221999Y-100819301D01*
X102221999Y-100872592D01*
X102226343Y-100920324D01*
X102221999Y-100961653D01*
X102221999Y-101008699D01*
X102212217Y-101054721D01*
X102207873Y-101096047D01*
X102193702Y-101141827D01*
X102182621Y-101193958D01*
X102166028Y-101231226D01*
X102155622Y-101264843D01*
X102129789Y-101312620D01*
X102105586Y-101366981D01*
X102085298Y-101394905D01*
X102071580Y-101420276D01*
X102032859Y-101467082D01*
X101994261Y-101520207D01*
X101973284Y-101539095D01*
X101958952Y-101556419D01*
X101906845Y-101598917D01*
X101853511Y-101646939D01*
X101834524Y-101657901D01*
X101822025Y-101668095D01*
X101756780Y-101702786D01*
X101689488Y-101741637D01*
X101674636Y-101746463D01*
X101666003Y-101751053D01*
X101588430Y-101774473D01*
X101509360Y-101800165D01*
X101500114Y-101801137D01*
X101496851Y-101802122D01*
X101405710Y-101811059D01*
X101368211Y-101815000D01*
X101273789Y-101815000D01*
X101132640Y-101800165D01*
X101051603Y-101773834D01*
X100964337Y-101746152D01*
X100961345Y-101744507D01*
X100952512Y-101741637D01*
X100880534Y-101700081D01*
X100809501Y-101661030D01*
X100802014Y-101654747D01*
X100788489Y-101646939D01*
X100730741Y-101594943D01*
X100674143Y-101547451D01*
X100664038Y-101534882D01*
X100647739Y-101520207D01*
X100605546Y-101462133D01*
X100563421Y-101409740D01*
X100553006Y-101389818D01*
X100536414Y-101366981D01*
X100509703Y-101306988D01*
X100481561Y-101253157D01*
X100473418Y-101225490D01*
X100459379Y-101193958D01*
X100447008Y-101135759D01*
X100431672Y-101083651D01*
X100428482Y-101048599D01*
X100420001Y-101008699D01*
X100420001Y-100955408D01*
X100415657Y-100907676D01*
X100420001Y-100866347D01*
X100420001Y-100819301D01*
X100429783Y-100773279D01*
X100434127Y-100731953D01*
X100448298Y-100686173D01*
X100459379Y-100634042D01*
X100475972Y-100596774D01*
X100486378Y-100563157D01*
X100512211Y-100515380D01*
X100536414Y-100461019D01*
X100556702Y-100433095D01*
X100570420Y-100407724D01*
X100609141Y-100360918D01*
X100647739Y-100307793D01*
X100668716Y-100288905D01*
X100683048Y-100271581D01*
X100735155Y-100229083D01*
X100788489Y-100181061D01*
X100807476Y-100170099D01*
X100819975Y-100159905D01*
X100885220Y-100125214D01*
X100952512Y-100086363D01*
X100967364Y-100081537D01*
X100975997Y-100076947D01*
X101053570Y-100053527D01*
X101132640Y-100027835D01*
X101141886Y-100026863D01*
X101145149Y-100025878D01*
X101236290Y-100016941D01*
X101273789Y-100013000D01*
X101368211Y-100013000D01*
X101509360Y-100027835D01*
X101509360Y-100027835D01*
G37*
G36*
X98969360Y-100027835D02*
G01*
X99050397Y-100054166D01*
X99137663Y-100081848D01*
X99140655Y-100083493D01*
X99149488Y-100086363D01*
X99221466Y-100127919D01*
X99292499Y-100166970D01*
X99299986Y-100173253D01*
X99313511Y-100181061D01*
X99371259Y-100233057D01*
X99427857Y-100280549D01*
X99437962Y-100293118D01*
X99454261Y-100307793D01*
X99496454Y-100365867D01*
X99538579Y-100418260D01*
X99548994Y-100438182D01*
X99565586Y-100461019D01*
X99592297Y-100521012D01*
X99620439Y-100574843D01*
X99628582Y-100602510D01*
X99642621Y-100634042D01*
X99654992Y-100692241D01*
X99670328Y-100744349D01*
X99673518Y-100779401D01*
X99681999Y-100819301D01*
X99681999Y-100872592D01*
X99686343Y-100920324D01*
X99681999Y-100961653D01*
X99681999Y-101008699D01*
X99672217Y-101054721D01*
X99667873Y-101096047D01*
X99653702Y-101141827D01*
X99642621Y-101193958D01*
X99626028Y-101231226D01*
X99615622Y-101264843D01*
X99589789Y-101312620D01*
X99565586Y-101366981D01*
X99545298Y-101394905D01*
X99531580Y-101420276D01*
X99492859Y-101467082D01*
X99454261Y-101520207D01*
X99433284Y-101539095D01*
X99418952Y-101556419D01*
X99366845Y-101598917D01*
X99313511Y-101646939D01*
X99294524Y-101657901D01*
X99282025Y-101668095D01*
X99216780Y-101702786D01*
X99149488Y-101741637D01*
X99134636Y-101746463D01*
X99126003Y-101751053D01*
X99048430Y-101774473D01*
X98969360Y-101800165D01*
X98960114Y-101801137D01*
X98956851Y-101802122D01*
X98865710Y-101811059D01*
X98828211Y-101815000D01*
X98733789Y-101815000D01*
X98592640Y-101800165D01*
X98511603Y-101773834D01*
X98424337Y-101746152D01*
X98421345Y-101744507D01*
X98412512Y-101741637D01*
X98340534Y-101700081D01*
X98269501Y-101661030D01*
X98262014Y-101654747D01*
X98248489Y-101646939D01*
X98190741Y-101594943D01*
X98134143Y-101547451D01*
X98124038Y-101534882D01*
X98107739Y-101520207D01*
X98065546Y-101462133D01*
X98023421Y-101409740D01*
X98013006Y-101389818D01*
X97996414Y-101366981D01*
X97969703Y-101306988D01*
X97941561Y-101253157D01*
X97933418Y-101225490D01*
X97919379Y-101193958D01*
X97907008Y-101135759D01*
X97891672Y-101083651D01*
X97888482Y-101048599D01*
X97880001Y-101008699D01*
X97880001Y-100955408D01*
X97875657Y-100907676D01*
X97880001Y-100866347D01*
X97880001Y-100819301D01*
X97889783Y-100773279D01*
X97894127Y-100731953D01*
X97908298Y-100686173D01*
X97919379Y-100634042D01*
X97935972Y-100596774D01*
X97946378Y-100563157D01*
X97972211Y-100515380D01*
X97996414Y-100461019D01*
X98016702Y-100433095D01*
X98030420Y-100407724D01*
X98069141Y-100360918D01*
X98107739Y-100307793D01*
X98128716Y-100288905D01*
X98143048Y-100271581D01*
X98195155Y-100229083D01*
X98248489Y-100181061D01*
X98267476Y-100170099D01*
X98279975Y-100159905D01*
X98345220Y-100125214D01*
X98412512Y-100086363D01*
X98427364Y-100081537D01*
X98435997Y-100076947D01*
X98513570Y-100053527D01*
X98592640Y-100027835D01*
X98601886Y-100026863D01*
X98605149Y-100025878D01*
X98696290Y-100016941D01*
X98733789Y-100013000D01*
X98828211Y-100013000D01*
X98969360Y-100027835D01*
X98969360Y-100027835D01*
G37*
G36*
X67244360Y-98427835D02*
G01*
X67325397Y-98454166D01*
X67412663Y-98481848D01*
X67415655Y-98483493D01*
X67424488Y-98486363D01*
X67496466Y-98527919D01*
X67567499Y-98566970D01*
X67574986Y-98573253D01*
X67588511Y-98581061D01*
X67646259Y-98633057D01*
X67702857Y-98680549D01*
X67712962Y-98693118D01*
X67729261Y-98707793D01*
X67771454Y-98765867D01*
X67813579Y-98818260D01*
X67823994Y-98838182D01*
X67840586Y-98861019D01*
X67867297Y-98921012D01*
X67895439Y-98974843D01*
X67903582Y-99002510D01*
X67917621Y-99034042D01*
X67929992Y-99092241D01*
X67945328Y-99144349D01*
X67948518Y-99179401D01*
X67956999Y-99219301D01*
X67956999Y-99272592D01*
X67961343Y-99320324D01*
X67956999Y-99361653D01*
X67956999Y-99408699D01*
X67947217Y-99454721D01*
X67942873Y-99496047D01*
X67928702Y-99541827D01*
X67917621Y-99593958D01*
X67901028Y-99631226D01*
X67890622Y-99664843D01*
X67864789Y-99712620D01*
X67840586Y-99766981D01*
X67820298Y-99794905D01*
X67806580Y-99820276D01*
X67767859Y-99867082D01*
X67729261Y-99920207D01*
X67708284Y-99939095D01*
X67693952Y-99956419D01*
X67641845Y-99998917D01*
X67588511Y-100046939D01*
X67569524Y-100057901D01*
X67557025Y-100068095D01*
X67491780Y-100102786D01*
X67424488Y-100141637D01*
X67409636Y-100146463D01*
X67401003Y-100151053D01*
X67323430Y-100174473D01*
X67244360Y-100200165D01*
X67235114Y-100201137D01*
X67231851Y-100202122D01*
X67140710Y-100211059D01*
X67103211Y-100215000D01*
X67008789Y-100215000D01*
X66867640Y-100200165D01*
X66786603Y-100173834D01*
X66699337Y-100146152D01*
X66696345Y-100144507D01*
X66687512Y-100141637D01*
X66615534Y-100100081D01*
X66544501Y-100061030D01*
X66537014Y-100054747D01*
X66523489Y-100046939D01*
X66465741Y-99994943D01*
X66409143Y-99947451D01*
X66399038Y-99934882D01*
X66382739Y-99920207D01*
X66340546Y-99862133D01*
X66298421Y-99809740D01*
X66288006Y-99789818D01*
X66271414Y-99766981D01*
X66244703Y-99706988D01*
X66216561Y-99653157D01*
X66208418Y-99625490D01*
X66194379Y-99593958D01*
X66182008Y-99535759D01*
X66166672Y-99483651D01*
X66163482Y-99448599D01*
X66155001Y-99408699D01*
X66155001Y-99355408D01*
X66150657Y-99307676D01*
X66155001Y-99266347D01*
X66155001Y-99219301D01*
X66164783Y-99173279D01*
X66169127Y-99131953D01*
X66183298Y-99086173D01*
X66194379Y-99034042D01*
X66210972Y-98996774D01*
X66221378Y-98963157D01*
X66247211Y-98915380D01*
X66271414Y-98861019D01*
X66291702Y-98833095D01*
X66305420Y-98807724D01*
X66344141Y-98760918D01*
X66382739Y-98707793D01*
X66403716Y-98688905D01*
X66418048Y-98671581D01*
X66470155Y-98629083D01*
X66523489Y-98581061D01*
X66542476Y-98570099D01*
X66554975Y-98559905D01*
X66620220Y-98525214D01*
X66687512Y-98486363D01*
X66702364Y-98481537D01*
X66710997Y-98476947D01*
X66788570Y-98453527D01*
X66867640Y-98427835D01*
X66876886Y-98426863D01*
X66880149Y-98425878D01*
X66971290Y-98416941D01*
X67008789Y-98413000D01*
X67103211Y-98413000D01*
X67244360Y-98427835D01*
X67244360Y-98427835D01*
G37*
G36*
X64704360Y-98427835D02*
G01*
X64785397Y-98454166D01*
X64872663Y-98481848D01*
X64875655Y-98483493D01*
X64884488Y-98486363D01*
X64956466Y-98527919D01*
X65027499Y-98566970D01*
X65034986Y-98573253D01*
X65048511Y-98581061D01*
X65106259Y-98633057D01*
X65162857Y-98680549D01*
X65172962Y-98693118D01*
X65189261Y-98707793D01*
X65231454Y-98765867D01*
X65273579Y-98818260D01*
X65283994Y-98838182D01*
X65300586Y-98861019D01*
X65327297Y-98921012D01*
X65355439Y-98974843D01*
X65363582Y-99002510D01*
X65377621Y-99034042D01*
X65389992Y-99092241D01*
X65405328Y-99144349D01*
X65408518Y-99179401D01*
X65416999Y-99219301D01*
X65416999Y-99272592D01*
X65421343Y-99320324D01*
X65416999Y-99361653D01*
X65416999Y-99408699D01*
X65407217Y-99454721D01*
X65402873Y-99496047D01*
X65388702Y-99541827D01*
X65377621Y-99593958D01*
X65361028Y-99631226D01*
X65350622Y-99664843D01*
X65324789Y-99712620D01*
X65300586Y-99766981D01*
X65280298Y-99794905D01*
X65266580Y-99820276D01*
X65227859Y-99867082D01*
X65189261Y-99920207D01*
X65168284Y-99939095D01*
X65153952Y-99956419D01*
X65101845Y-99998917D01*
X65048511Y-100046939D01*
X65029524Y-100057901D01*
X65017025Y-100068095D01*
X64951780Y-100102786D01*
X64884488Y-100141637D01*
X64869636Y-100146463D01*
X64861003Y-100151053D01*
X64783430Y-100174473D01*
X64704360Y-100200165D01*
X64695114Y-100201137D01*
X64691851Y-100202122D01*
X64600710Y-100211059D01*
X64563211Y-100215000D01*
X64468789Y-100215000D01*
X64327640Y-100200165D01*
X64246603Y-100173834D01*
X64159337Y-100146152D01*
X64156345Y-100144507D01*
X64147512Y-100141637D01*
X64075534Y-100100081D01*
X64004501Y-100061030D01*
X63997014Y-100054747D01*
X63983489Y-100046939D01*
X63925741Y-99994943D01*
X63869143Y-99947451D01*
X63859038Y-99934882D01*
X63842739Y-99920207D01*
X63800546Y-99862133D01*
X63758421Y-99809740D01*
X63748006Y-99789818D01*
X63731414Y-99766981D01*
X63704703Y-99706988D01*
X63676561Y-99653157D01*
X63668418Y-99625490D01*
X63654379Y-99593958D01*
X63642008Y-99535759D01*
X63626672Y-99483651D01*
X63623482Y-99448599D01*
X63615001Y-99408699D01*
X63615001Y-99355408D01*
X63610657Y-99307676D01*
X63615001Y-99266347D01*
X63615001Y-99219301D01*
X63624783Y-99173279D01*
X63629127Y-99131953D01*
X63643298Y-99086173D01*
X63654379Y-99034042D01*
X63670972Y-98996774D01*
X63681378Y-98963157D01*
X63707211Y-98915380D01*
X63731414Y-98861019D01*
X63751702Y-98833095D01*
X63765420Y-98807724D01*
X63804141Y-98760918D01*
X63842739Y-98707793D01*
X63863716Y-98688905D01*
X63878048Y-98671581D01*
X63930155Y-98629083D01*
X63983489Y-98581061D01*
X64002476Y-98570099D01*
X64014975Y-98559905D01*
X64080220Y-98525214D01*
X64147512Y-98486363D01*
X64162364Y-98481537D01*
X64170997Y-98476947D01*
X64248570Y-98453527D01*
X64327640Y-98427835D01*
X64336886Y-98426863D01*
X64340149Y-98425878D01*
X64431290Y-98416941D01*
X64468789Y-98413000D01*
X64563211Y-98413000D01*
X64704360Y-98427835D01*
X64704360Y-98427835D01*
G37*
G36*
X110025899Y-98352459D02*
G01*
X110042769Y-98363731D01*
X110054041Y-98380601D01*
X110060448Y-98412812D01*
X110060448Y-100088188D01*
X110057999Y-100100500D01*
X110054041Y-100120399D01*
X110042769Y-100137269D01*
X110025899Y-100148541D01*
X110006000Y-100152499D01*
X109993688Y-100154948D01*
X108318312Y-100154948D01*
X108286101Y-100148541D01*
X108269231Y-100137269D01*
X108257959Y-100120399D01*
X108251552Y-100088188D01*
X108251552Y-98412812D01*
X108257959Y-98380601D01*
X108269231Y-98363731D01*
X108286101Y-98352459D01*
X108318312Y-98346052D01*
X109993688Y-98346052D01*
X110025899Y-98352459D01*
X110025899Y-98352459D01*
G37*
G36*
X111884360Y-98364335D02*
G01*
X111965397Y-98390666D01*
X112052663Y-98418348D01*
X112055655Y-98419993D01*
X112064488Y-98422863D01*
X112136466Y-98464419D01*
X112207499Y-98503470D01*
X112214986Y-98509753D01*
X112228511Y-98517561D01*
X112286259Y-98569557D01*
X112342857Y-98617049D01*
X112352962Y-98629618D01*
X112369261Y-98644293D01*
X112411454Y-98702367D01*
X112453579Y-98754760D01*
X112463994Y-98774682D01*
X112480586Y-98797519D01*
X112507297Y-98857512D01*
X112535439Y-98911343D01*
X112543582Y-98939010D01*
X112557621Y-98970542D01*
X112569992Y-99028741D01*
X112585328Y-99080849D01*
X112588518Y-99115901D01*
X112596999Y-99155801D01*
X112596999Y-99209092D01*
X112601343Y-99256824D01*
X112596999Y-99298153D01*
X112596999Y-99345199D01*
X112587217Y-99391221D01*
X112582873Y-99432547D01*
X112568702Y-99478327D01*
X112557621Y-99530458D01*
X112541028Y-99567726D01*
X112530622Y-99601343D01*
X112504789Y-99649120D01*
X112480586Y-99703481D01*
X112460298Y-99731405D01*
X112446580Y-99756776D01*
X112407859Y-99803582D01*
X112369261Y-99856707D01*
X112348284Y-99875595D01*
X112333952Y-99892919D01*
X112281845Y-99935417D01*
X112228511Y-99983439D01*
X112209524Y-99994401D01*
X112197025Y-100004595D01*
X112131780Y-100039286D01*
X112064488Y-100078137D01*
X112049636Y-100082963D01*
X112041003Y-100087553D01*
X111963430Y-100110973D01*
X111884360Y-100136665D01*
X111875114Y-100137637D01*
X111871851Y-100138622D01*
X111780710Y-100147559D01*
X111743211Y-100151500D01*
X111648789Y-100151500D01*
X111507640Y-100136665D01*
X111426603Y-100110334D01*
X111339337Y-100082652D01*
X111336345Y-100081007D01*
X111327512Y-100078137D01*
X111255534Y-100036581D01*
X111184501Y-99997530D01*
X111177014Y-99991247D01*
X111163489Y-99983439D01*
X111105741Y-99931443D01*
X111049143Y-99883951D01*
X111039038Y-99871382D01*
X111022739Y-99856707D01*
X110980546Y-99798633D01*
X110938421Y-99746240D01*
X110928006Y-99726318D01*
X110911414Y-99703481D01*
X110884703Y-99643488D01*
X110856561Y-99589657D01*
X110848418Y-99561990D01*
X110834379Y-99530458D01*
X110822008Y-99472259D01*
X110806672Y-99420151D01*
X110803482Y-99385099D01*
X110795001Y-99345199D01*
X110795001Y-99291908D01*
X110790657Y-99244176D01*
X110795001Y-99202847D01*
X110795001Y-99155801D01*
X110804783Y-99109779D01*
X110809127Y-99068453D01*
X110823298Y-99022673D01*
X110834379Y-98970542D01*
X110850972Y-98933274D01*
X110861378Y-98899657D01*
X110887211Y-98851880D01*
X110911414Y-98797519D01*
X110931702Y-98769595D01*
X110945420Y-98744224D01*
X110984141Y-98697418D01*
X111022739Y-98644293D01*
X111043716Y-98625405D01*
X111058048Y-98608081D01*
X111110155Y-98565583D01*
X111163489Y-98517561D01*
X111182476Y-98506599D01*
X111194975Y-98496405D01*
X111260220Y-98461714D01*
X111327512Y-98422863D01*
X111342364Y-98418037D01*
X111350997Y-98413447D01*
X111428570Y-98390027D01*
X111507640Y-98364335D01*
X111516886Y-98363363D01*
X111520149Y-98362378D01*
X111611290Y-98353441D01*
X111648789Y-98349500D01*
X111743211Y-98349500D01*
X111884360Y-98364335D01*
X111884360Y-98364335D01*
G37*
G36*
X79032803Y-98084459D02*
G01*
X79115135Y-98111211D01*
X79203646Y-98139288D01*
X79206678Y-98140955D01*
X79215650Y-98143870D01*
X79288739Y-98186068D01*
X79360823Y-98225696D01*
X79368424Y-98232074D01*
X79382149Y-98239998D01*
X79440743Y-98292757D01*
X79498222Y-98340987D01*
X79508486Y-98353753D01*
X79525023Y-98368643D01*
X79567842Y-98427577D01*
X79610612Y-98480774D01*
X79621185Y-98500999D01*
X79638029Y-98524182D01*
X79665143Y-98585082D01*
X79693710Y-98639724D01*
X79701976Y-98667808D01*
X79716227Y-98699817D01*
X79728784Y-98758893D01*
X79744352Y-98811788D01*
X79747590Y-98847370D01*
X79756199Y-98887872D01*
X79756199Y-98941971D01*
X79760608Y-98990420D01*
X79756199Y-99032369D01*
X79756199Y-99080128D01*
X79746269Y-99126844D01*
X79741860Y-99168795D01*
X79727474Y-99215268D01*
X79716227Y-99268183D01*
X79699385Y-99306011D01*
X79688820Y-99340141D01*
X79662594Y-99388645D01*
X79638029Y-99443819D01*
X79617437Y-99472161D01*
X79603513Y-99497913D01*
X79564206Y-99545426D01*
X79525023Y-99599357D01*
X79503729Y-99618531D01*
X79489179Y-99636118D01*
X79436286Y-99679257D01*
X79382149Y-99728002D01*
X79362873Y-99739131D01*
X79350185Y-99749479D01*
X79283951Y-99784697D01*
X79215650Y-99824130D01*
X79200577Y-99829027D01*
X79191814Y-99833687D01*
X79113047Y-99857468D01*
X79032803Y-99883541D01*
X79023423Y-99884527D01*
X79020107Y-99885528D01*
X78927545Y-99894604D01*
X78889524Y-99898600D01*
X78793676Y-99898600D01*
X78650397Y-99883541D01*
X78568065Y-99856789D01*
X78479554Y-99828712D01*
X78476522Y-99827045D01*
X78467550Y-99824130D01*
X78394461Y-99781932D01*
X78322377Y-99742304D01*
X78314776Y-99735926D01*
X78301051Y-99728002D01*
X78242457Y-99675243D01*
X78184978Y-99627013D01*
X78174714Y-99614247D01*
X78158177Y-99599357D01*
X78115358Y-99540423D01*
X78072588Y-99487226D01*
X78062015Y-99467001D01*
X78045171Y-99443818D01*
X78018057Y-99382918D01*
X77989490Y-99328276D01*
X77981224Y-99300192D01*
X77966973Y-99268183D01*
X77954416Y-99209107D01*
X77938848Y-99156212D01*
X77935610Y-99120630D01*
X77927001Y-99080128D01*
X77927001Y-99026029D01*
X77922592Y-98977580D01*
X77927001Y-98935631D01*
X77927001Y-98887872D01*
X77936931Y-98841156D01*
X77941340Y-98799205D01*
X77955726Y-98752732D01*
X77966973Y-98699817D01*
X77983815Y-98661989D01*
X77994380Y-98627859D01*
X78020606Y-98579355D01*
X78045171Y-98524181D01*
X78065763Y-98495839D01*
X78079687Y-98470087D01*
X78118994Y-98422574D01*
X78158177Y-98368643D01*
X78179471Y-98349469D01*
X78194021Y-98331882D01*
X78246914Y-98288743D01*
X78301051Y-98239998D01*
X78320327Y-98228869D01*
X78333015Y-98218521D01*
X78399249Y-98183303D01*
X78467550Y-98143870D01*
X78482623Y-98138973D01*
X78491386Y-98134313D01*
X78570153Y-98110532D01*
X78650397Y-98084459D01*
X78659777Y-98083473D01*
X78663093Y-98082472D01*
X78755655Y-98073396D01*
X78793676Y-98069400D01*
X78889524Y-98069400D01*
X79032803Y-98084459D01*
X79032803Y-98084459D01*
G37*
G36*
X89192803Y-98084459D02*
G01*
X89275135Y-98111211D01*
X89363646Y-98139288D01*
X89366678Y-98140955D01*
X89375650Y-98143870D01*
X89448739Y-98186068D01*
X89520823Y-98225696D01*
X89528424Y-98232074D01*
X89542149Y-98239998D01*
X89600743Y-98292757D01*
X89658222Y-98340987D01*
X89668486Y-98353753D01*
X89685023Y-98368643D01*
X89727842Y-98427577D01*
X89770612Y-98480774D01*
X89781185Y-98500999D01*
X89798029Y-98524182D01*
X89825143Y-98585082D01*
X89853710Y-98639724D01*
X89861976Y-98667808D01*
X89876227Y-98699817D01*
X89888784Y-98758893D01*
X89904352Y-98811788D01*
X89907590Y-98847370D01*
X89916199Y-98887872D01*
X89916199Y-98941971D01*
X89920608Y-98990420D01*
X89916199Y-99032369D01*
X89916199Y-99080128D01*
X89906269Y-99126844D01*
X89901860Y-99168795D01*
X89887474Y-99215268D01*
X89876227Y-99268183D01*
X89859385Y-99306011D01*
X89848820Y-99340141D01*
X89822594Y-99388645D01*
X89798029Y-99443819D01*
X89777437Y-99472161D01*
X89763513Y-99497913D01*
X89724206Y-99545426D01*
X89685023Y-99599357D01*
X89663729Y-99618531D01*
X89649179Y-99636118D01*
X89596286Y-99679257D01*
X89542149Y-99728002D01*
X89522873Y-99739131D01*
X89510185Y-99749479D01*
X89443951Y-99784697D01*
X89375650Y-99824130D01*
X89360577Y-99829027D01*
X89351814Y-99833687D01*
X89273047Y-99857468D01*
X89192803Y-99883541D01*
X89183423Y-99884527D01*
X89180107Y-99885528D01*
X89087545Y-99894604D01*
X89049524Y-99898600D01*
X88953676Y-99898600D01*
X88810397Y-99883541D01*
X88728065Y-99856789D01*
X88639554Y-99828712D01*
X88636522Y-99827045D01*
X88627550Y-99824130D01*
X88554461Y-99781932D01*
X88482377Y-99742304D01*
X88474776Y-99735926D01*
X88461051Y-99728002D01*
X88402457Y-99675243D01*
X88344978Y-99627013D01*
X88334714Y-99614247D01*
X88318177Y-99599357D01*
X88275358Y-99540423D01*
X88232588Y-99487226D01*
X88222015Y-99467001D01*
X88205171Y-99443818D01*
X88178057Y-99382918D01*
X88149490Y-99328276D01*
X88141224Y-99300192D01*
X88126973Y-99268183D01*
X88114416Y-99209107D01*
X88098848Y-99156212D01*
X88095610Y-99120630D01*
X88087001Y-99080128D01*
X88087001Y-99026029D01*
X88082592Y-98977580D01*
X88087001Y-98935631D01*
X88087001Y-98887872D01*
X88096931Y-98841156D01*
X88101340Y-98799205D01*
X88115726Y-98752732D01*
X88126973Y-98699817D01*
X88143815Y-98661989D01*
X88154380Y-98627859D01*
X88180606Y-98579355D01*
X88205171Y-98524181D01*
X88225763Y-98495839D01*
X88239687Y-98470087D01*
X88278994Y-98422574D01*
X88318177Y-98368643D01*
X88339471Y-98349469D01*
X88354021Y-98331882D01*
X88406914Y-98288743D01*
X88461051Y-98239998D01*
X88480327Y-98228869D01*
X88493015Y-98218521D01*
X88559249Y-98183303D01*
X88627550Y-98143870D01*
X88642623Y-98138973D01*
X88651386Y-98134313D01*
X88730153Y-98110532D01*
X88810397Y-98084459D01*
X88819777Y-98083473D01*
X88823093Y-98082472D01*
X88915655Y-98073396D01*
X88953676Y-98069400D01*
X89049524Y-98069400D01*
X89192803Y-98084459D01*
X89192803Y-98084459D01*
G37*
G36*
X86652803Y-98084459D02*
G01*
X86735135Y-98111211D01*
X86823646Y-98139288D01*
X86826678Y-98140955D01*
X86835650Y-98143870D01*
X86908739Y-98186068D01*
X86980823Y-98225696D01*
X86988424Y-98232074D01*
X87002149Y-98239998D01*
X87060743Y-98292757D01*
X87118222Y-98340987D01*
X87128486Y-98353753D01*
X87145023Y-98368643D01*
X87187842Y-98427577D01*
X87230612Y-98480774D01*
X87241185Y-98500999D01*
X87258029Y-98524182D01*
X87285143Y-98585082D01*
X87313710Y-98639724D01*
X87321976Y-98667808D01*
X87336227Y-98699817D01*
X87348784Y-98758893D01*
X87364352Y-98811788D01*
X87367590Y-98847370D01*
X87376199Y-98887872D01*
X87376199Y-98941971D01*
X87380608Y-98990420D01*
X87376199Y-99032369D01*
X87376199Y-99080128D01*
X87366269Y-99126844D01*
X87361860Y-99168795D01*
X87347474Y-99215268D01*
X87336227Y-99268183D01*
X87319385Y-99306011D01*
X87308820Y-99340141D01*
X87282594Y-99388645D01*
X87258029Y-99443819D01*
X87237437Y-99472161D01*
X87223513Y-99497913D01*
X87184206Y-99545426D01*
X87145023Y-99599357D01*
X87123729Y-99618531D01*
X87109179Y-99636118D01*
X87056286Y-99679257D01*
X87002149Y-99728002D01*
X86982873Y-99739131D01*
X86970185Y-99749479D01*
X86903951Y-99784697D01*
X86835650Y-99824130D01*
X86820577Y-99829027D01*
X86811814Y-99833687D01*
X86733047Y-99857468D01*
X86652803Y-99883541D01*
X86643423Y-99884527D01*
X86640107Y-99885528D01*
X86547545Y-99894604D01*
X86509524Y-99898600D01*
X86413676Y-99898600D01*
X86270397Y-99883541D01*
X86188065Y-99856789D01*
X86099554Y-99828712D01*
X86096522Y-99827045D01*
X86087550Y-99824130D01*
X86014461Y-99781932D01*
X85942377Y-99742304D01*
X85934776Y-99735926D01*
X85921051Y-99728002D01*
X85862457Y-99675243D01*
X85804978Y-99627013D01*
X85794714Y-99614247D01*
X85778177Y-99599357D01*
X85735358Y-99540423D01*
X85692588Y-99487226D01*
X85682015Y-99467001D01*
X85665171Y-99443818D01*
X85638057Y-99382918D01*
X85609490Y-99328276D01*
X85601224Y-99300192D01*
X85586973Y-99268183D01*
X85574416Y-99209107D01*
X85558848Y-99156212D01*
X85555610Y-99120630D01*
X85547001Y-99080128D01*
X85547001Y-99026029D01*
X85542592Y-98977580D01*
X85547001Y-98935631D01*
X85547001Y-98887872D01*
X85556931Y-98841156D01*
X85561340Y-98799205D01*
X85575726Y-98752732D01*
X85586973Y-98699817D01*
X85603815Y-98661989D01*
X85614380Y-98627859D01*
X85640606Y-98579355D01*
X85665171Y-98524181D01*
X85685763Y-98495839D01*
X85699687Y-98470087D01*
X85738994Y-98422574D01*
X85778177Y-98368643D01*
X85799471Y-98349469D01*
X85814021Y-98331882D01*
X85866914Y-98288743D01*
X85921051Y-98239998D01*
X85940327Y-98228869D01*
X85953015Y-98218521D01*
X86019249Y-98183303D01*
X86087550Y-98143870D01*
X86102623Y-98138973D01*
X86111386Y-98134313D01*
X86190153Y-98110532D01*
X86270397Y-98084459D01*
X86279777Y-98083473D01*
X86283093Y-98082472D01*
X86375655Y-98073396D01*
X86413676Y-98069400D01*
X86509524Y-98069400D01*
X86652803Y-98084459D01*
X86652803Y-98084459D01*
G37*
G36*
X84112803Y-98084459D02*
G01*
X84195135Y-98111211D01*
X84283646Y-98139288D01*
X84286678Y-98140955D01*
X84295650Y-98143870D01*
X84368739Y-98186068D01*
X84440823Y-98225696D01*
X84448424Y-98232074D01*
X84462149Y-98239998D01*
X84520743Y-98292757D01*
X84578222Y-98340987D01*
X84588486Y-98353753D01*
X84605023Y-98368643D01*
X84647842Y-98427577D01*
X84690612Y-98480774D01*
X84701185Y-98500999D01*
X84718029Y-98524182D01*
X84745143Y-98585082D01*
X84773710Y-98639724D01*
X84781976Y-98667808D01*
X84796227Y-98699817D01*
X84808784Y-98758893D01*
X84824352Y-98811788D01*
X84827590Y-98847370D01*
X84836199Y-98887872D01*
X84836199Y-98941971D01*
X84840608Y-98990420D01*
X84836199Y-99032369D01*
X84836199Y-99080128D01*
X84826269Y-99126844D01*
X84821860Y-99168795D01*
X84807474Y-99215268D01*
X84796227Y-99268183D01*
X84779385Y-99306011D01*
X84768820Y-99340141D01*
X84742594Y-99388645D01*
X84718029Y-99443819D01*
X84697437Y-99472161D01*
X84683513Y-99497913D01*
X84644206Y-99545426D01*
X84605023Y-99599357D01*
X84583729Y-99618531D01*
X84569179Y-99636118D01*
X84516286Y-99679257D01*
X84462149Y-99728002D01*
X84442873Y-99739131D01*
X84430185Y-99749479D01*
X84363951Y-99784697D01*
X84295650Y-99824130D01*
X84280577Y-99829027D01*
X84271814Y-99833687D01*
X84193047Y-99857468D01*
X84112803Y-99883541D01*
X84103423Y-99884527D01*
X84100107Y-99885528D01*
X84007545Y-99894604D01*
X83969524Y-99898600D01*
X83873676Y-99898600D01*
X83730397Y-99883541D01*
X83648065Y-99856789D01*
X83559554Y-99828712D01*
X83556522Y-99827045D01*
X83547550Y-99824130D01*
X83474461Y-99781932D01*
X83402377Y-99742304D01*
X83394776Y-99735926D01*
X83381051Y-99728002D01*
X83322457Y-99675243D01*
X83264978Y-99627013D01*
X83254714Y-99614247D01*
X83238177Y-99599357D01*
X83195358Y-99540423D01*
X83152588Y-99487226D01*
X83142015Y-99467001D01*
X83125171Y-99443818D01*
X83098057Y-99382918D01*
X83069490Y-99328276D01*
X83061224Y-99300192D01*
X83046973Y-99268183D01*
X83034416Y-99209107D01*
X83018848Y-99156212D01*
X83015610Y-99120630D01*
X83007001Y-99080128D01*
X83007001Y-99026029D01*
X83002592Y-98977580D01*
X83007001Y-98935631D01*
X83007001Y-98887872D01*
X83016931Y-98841156D01*
X83021340Y-98799205D01*
X83035726Y-98752732D01*
X83046973Y-98699817D01*
X83063815Y-98661989D01*
X83074380Y-98627859D01*
X83100606Y-98579355D01*
X83125171Y-98524181D01*
X83145763Y-98495839D01*
X83159687Y-98470087D01*
X83198994Y-98422574D01*
X83238177Y-98368643D01*
X83259471Y-98349469D01*
X83274021Y-98331882D01*
X83326914Y-98288743D01*
X83381051Y-98239998D01*
X83400327Y-98228869D01*
X83413015Y-98218521D01*
X83479249Y-98183303D01*
X83547550Y-98143870D01*
X83562623Y-98138973D01*
X83571386Y-98134313D01*
X83650153Y-98110532D01*
X83730397Y-98084459D01*
X83739777Y-98083473D01*
X83743093Y-98082472D01*
X83835655Y-98073396D01*
X83873676Y-98069400D01*
X83969524Y-98069400D01*
X84112803Y-98084459D01*
X84112803Y-98084459D01*
G37*
G36*
X81572803Y-98084459D02*
G01*
X81655135Y-98111211D01*
X81743646Y-98139288D01*
X81746678Y-98140955D01*
X81755650Y-98143870D01*
X81828739Y-98186068D01*
X81900823Y-98225696D01*
X81908424Y-98232074D01*
X81922149Y-98239998D01*
X81980743Y-98292757D01*
X82038222Y-98340987D01*
X82048486Y-98353753D01*
X82065023Y-98368643D01*
X82107842Y-98427577D01*
X82150612Y-98480774D01*
X82161185Y-98500999D01*
X82178029Y-98524182D01*
X82205143Y-98585082D01*
X82233710Y-98639724D01*
X82241976Y-98667808D01*
X82256227Y-98699817D01*
X82268784Y-98758893D01*
X82284352Y-98811788D01*
X82287590Y-98847370D01*
X82296199Y-98887872D01*
X82296199Y-98941971D01*
X82300608Y-98990420D01*
X82296199Y-99032369D01*
X82296199Y-99080128D01*
X82286269Y-99126844D01*
X82281860Y-99168795D01*
X82267474Y-99215268D01*
X82256227Y-99268183D01*
X82239385Y-99306011D01*
X82228820Y-99340141D01*
X82202594Y-99388645D01*
X82178029Y-99443819D01*
X82157437Y-99472161D01*
X82143513Y-99497913D01*
X82104206Y-99545426D01*
X82065023Y-99599357D01*
X82043729Y-99618531D01*
X82029179Y-99636118D01*
X81976286Y-99679257D01*
X81922149Y-99728002D01*
X81902873Y-99739131D01*
X81890185Y-99749479D01*
X81823951Y-99784697D01*
X81755650Y-99824130D01*
X81740577Y-99829027D01*
X81731814Y-99833687D01*
X81653047Y-99857468D01*
X81572803Y-99883541D01*
X81563423Y-99884527D01*
X81560107Y-99885528D01*
X81467545Y-99894604D01*
X81429524Y-99898600D01*
X81333676Y-99898600D01*
X81190397Y-99883541D01*
X81108065Y-99856789D01*
X81019554Y-99828712D01*
X81016522Y-99827045D01*
X81007550Y-99824130D01*
X80934461Y-99781932D01*
X80862377Y-99742304D01*
X80854776Y-99735926D01*
X80841051Y-99728002D01*
X80782457Y-99675243D01*
X80724978Y-99627013D01*
X80714714Y-99614247D01*
X80698177Y-99599357D01*
X80655358Y-99540423D01*
X80612588Y-99487226D01*
X80602015Y-99467001D01*
X80585171Y-99443818D01*
X80558057Y-99382918D01*
X80529490Y-99328276D01*
X80521224Y-99300192D01*
X80506973Y-99268183D01*
X80494416Y-99209107D01*
X80478848Y-99156212D01*
X80475610Y-99120630D01*
X80467001Y-99080128D01*
X80467001Y-99026029D01*
X80462592Y-98977580D01*
X80467001Y-98935631D01*
X80467001Y-98887872D01*
X80476931Y-98841156D01*
X80481340Y-98799205D01*
X80495726Y-98752732D01*
X80506973Y-98699817D01*
X80523815Y-98661989D01*
X80534380Y-98627859D01*
X80560606Y-98579355D01*
X80585171Y-98524181D01*
X80605763Y-98495839D01*
X80619687Y-98470087D01*
X80658994Y-98422574D01*
X80698177Y-98368643D01*
X80719471Y-98349469D01*
X80734021Y-98331882D01*
X80786914Y-98288743D01*
X80841051Y-98239998D01*
X80860327Y-98228869D01*
X80873015Y-98218521D01*
X80939249Y-98183303D01*
X81007550Y-98143870D01*
X81022623Y-98138973D01*
X81031386Y-98134313D01*
X81110153Y-98110532D01*
X81190397Y-98084459D01*
X81199777Y-98083473D01*
X81203093Y-98082472D01*
X81295655Y-98073396D01*
X81333676Y-98069400D01*
X81429524Y-98069400D01*
X81572803Y-98084459D01*
X81572803Y-98084459D01*
G37*
G36*
X104730899Y-96333159D02*
G01*
X104747769Y-96344431D01*
X104759041Y-96361301D01*
X104765448Y-96393512D01*
X104765448Y-98068888D01*
X104762999Y-98081200D01*
X104759041Y-98101099D01*
X104747769Y-98117969D01*
X104730899Y-98129241D01*
X104711000Y-98133199D01*
X104698688Y-98135648D01*
X103023312Y-98135648D01*
X102991101Y-98129241D01*
X102974231Y-98117969D01*
X102962959Y-98101099D01*
X102956552Y-98068888D01*
X102956552Y-96393512D01*
X102962959Y-96361301D01*
X102974231Y-96344431D01*
X102991101Y-96333159D01*
X103023312Y-96326752D01*
X104698688Y-96326752D01*
X104730899Y-96333159D01*
X104730899Y-96333159D01*
G37*
G36*
X98969360Y-96345035D02*
G01*
X99050397Y-96371366D01*
X99137663Y-96399048D01*
X99140655Y-96400693D01*
X99149488Y-96403563D01*
X99221466Y-96445119D01*
X99292499Y-96484170D01*
X99299986Y-96490453D01*
X99313511Y-96498261D01*
X99371259Y-96550257D01*
X99427857Y-96597749D01*
X99437962Y-96610318D01*
X99454261Y-96624993D01*
X99496454Y-96683067D01*
X99538579Y-96735460D01*
X99548994Y-96755382D01*
X99565586Y-96778219D01*
X99592297Y-96838212D01*
X99620439Y-96892043D01*
X99628582Y-96919710D01*
X99642621Y-96951242D01*
X99654992Y-97009441D01*
X99670328Y-97061549D01*
X99673518Y-97096601D01*
X99681999Y-97136501D01*
X99681999Y-97189792D01*
X99686343Y-97237524D01*
X99681999Y-97278853D01*
X99681999Y-97325899D01*
X99672217Y-97371921D01*
X99667873Y-97413247D01*
X99653702Y-97459027D01*
X99642621Y-97511158D01*
X99626028Y-97548426D01*
X99615622Y-97582043D01*
X99589789Y-97629820D01*
X99565586Y-97684181D01*
X99545298Y-97712105D01*
X99531580Y-97737476D01*
X99492859Y-97784282D01*
X99454261Y-97837407D01*
X99433284Y-97856295D01*
X99418952Y-97873619D01*
X99366845Y-97916117D01*
X99313511Y-97964139D01*
X99294524Y-97975101D01*
X99282025Y-97985295D01*
X99216780Y-98019986D01*
X99149488Y-98058837D01*
X99134636Y-98063663D01*
X99126003Y-98068253D01*
X99048430Y-98091673D01*
X98969360Y-98117365D01*
X98960114Y-98118337D01*
X98956851Y-98119322D01*
X98865710Y-98128259D01*
X98828211Y-98132200D01*
X98733789Y-98132200D01*
X98592640Y-98117365D01*
X98511603Y-98091034D01*
X98424337Y-98063352D01*
X98421345Y-98061707D01*
X98412512Y-98058837D01*
X98340534Y-98017281D01*
X98269501Y-97978230D01*
X98262014Y-97971947D01*
X98248489Y-97964139D01*
X98190741Y-97912143D01*
X98134143Y-97864651D01*
X98124038Y-97852082D01*
X98107739Y-97837407D01*
X98065546Y-97779333D01*
X98023421Y-97726940D01*
X98013006Y-97707018D01*
X97996414Y-97684181D01*
X97969703Y-97624188D01*
X97941561Y-97570357D01*
X97933418Y-97542690D01*
X97919379Y-97511158D01*
X97907008Y-97452959D01*
X97891672Y-97400851D01*
X97888482Y-97365799D01*
X97880001Y-97325899D01*
X97880001Y-97272608D01*
X97875657Y-97224876D01*
X97880001Y-97183547D01*
X97880001Y-97136501D01*
X97889783Y-97090479D01*
X97894127Y-97049153D01*
X97908298Y-97003373D01*
X97919379Y-96951242D01*
X97935972Y-96913974D01*
X97946378Y-96880357D01*
X97972211Y-96832580D01*
X97996414Y-96778219D01*
X98016702Y-96750295D01*
X98030420Y-96724924D01*
X98069141Y-96678118D01*
X98107739Y-96624993D01*
X98128716Y-96606105D01*
X98143048Y-96588781D01*
X98195155Y-96546283D01*
X98248489Y-96498261D01*
X98267476Y-96487299D01*
X98279975Y-96477105D01*
X98345220Y-96442414D01*
X98412512Y-96403563D01*
X98427364Y-96398737D01*
X98435997Y-96394147D01*
X98513570Y-96370727D01*
X98592640Y-96345035D01*
X98601886Y-96344063D01*
X98605149Y-96343078D01*
X98696290Y-96334141D01*
X98733789Y-96330200D01*
X98828211Y-96330200D01*
X98969360Y-96345035D01*
X98969360Y-96345035D01*
G37*
G36*
X101509360Y-96345035D02*
G01*
X101590397Y-96371366D01*
X101677663Y-96399048D01*
X101680655Y-96400693D01*
X101689488Y-96403563D01*
X101761466Y-96445119D01*
X101832499Y-96484170D01*
X101839986Y-96490453D01*
X101853511Y-96498261D01*
X101911259Y-96550257D01*
X101967857Y-96597749D01*
X101977962Y-96610318D01*
X101994261Y-96624993D01*
X102036454Y-96683067D01*
X102078579Y-96735460D01*
X102088994Y-96755382D01*
X102105586Y-96778219D01*
X102132297Y-96838212D01*
X102160439Y-96892043D01*
X102168582Y-96919710D01*
X102182621Y-96951242D01*
X102194992Y-97009441D01*
X102210328Y-97061549D01*
X102213518Y-97096601D01*
X102221999Y-97136501D01*
X102221999Y-97189792D01*
X102226343Y-97237524D01*
X102221999Y-97278853D01*
X102221999Y-97325899D01*
X102212217Y-97371921D01*
X102207873Y-97413247D01*
X102193702Y-97459027D01*
X102182621Y-97511158D01*
X102166028Y-97548426D01*
X102155622Y-97582043D01*
X102129789Y-97629820D01*
X102105586Y-97684181D01*
X102085298Y-97712105D01*
X102071580Y-97737476D01*
X102032859Y-97784282D01*
X101994261Y-97837407D01*
X101973284Y-97856295D01*
X101958952Y-97873619D01*
X101906845Y-97916117D01*
X101853511Y-97964139D01*
X101834524Y-97975101D01*
X101822025Y-97985295D01*
X101756780Y-98019986D01*
X101689488Y-98058837D01*
X101674636Y-98063663D01*
X101666003Y-98068253D01*
X101588430Y-98091673D01*
X101509360Y-98117365D01*
X101500114Y-98118337D01*
X101496851Y-98119322D01*
X101405710Y-98128259D01*
X101368211Y-98132200D01*
X101273789Y-98132200D01*
X101132640Y-98117365D01*
X101051603Y-98091034D01*
X100964337Y-98063352D01*
X100961345Y-98061707D01*
X100952512Y-98058837D01*
X100880534Y-98017281D01*
X100809501Y-97978230D01*
X100802014Y-97971947D01*
X100788489Y-97964139D01*
X100730741Y-97912143D01*
X100674143Y-97864651D01*
X100664038Y-97852082D01*
X100647739Y-97837407D01*
X100605546Y-97779333D01*
X100563421Y-97726940D01*
X100553006Y-97707018D01*
X100536414Y-97684181D01*
X100509703Y-97624188D01*
X100481561Y-97570357D01*
X100473418Y-97542690D01*
X100459379Y-97511158D01*
X100447008Y-97452959D01*
X100431672Y-97400851D01*
X100428482Y-97365799D01*
X100420001Y-97325899D01*
X100420001Y-97272608D01*
X100415657Y-97224876D01*
X100420001Y-97183547D01*
X100420001Y-97136501D01*
X100429783Y-97090479D01*
X100434127Y-97049153D01*
X100448298Y-97003373D01*
X100459379Y-96951242D01*
X100475972Y-96913974D01*
X100486378Y-96880357D01*
X100512211Y-96832580D01*
X100536414Y-96778219D01*
X100556702Y-96750295D01*
X100570420Y-96724924D01*
X100609141Y-96678118D01*
X100647739Y-96624993D01*
X100668716Y-96606105D01*
X100683048Y-96588781D01*
X100735155Y-96546283D01*
X100788489Y-96498261D01*
X100807476Y-96487299D01*
X100819975Y-96477105D01*
X100885220Y-96442414D01*
X100952512Y-96403563D01*
X100967364Y-96398737D01*
X100975997Y-96394147D01*
X101053570Y-96370727D01*
X101132640Y-96345035D01*
X101141886Y-96344063D01*
X101145149Y-96343078D01*
X101236290Y-96334141D01*
X101273789Y-96330200D01*
X101368211Y-96330200D01*
X101509360Y-96345035D01*
X101509360Y-96345035D01*
G37*
G36*
X64704360Y-95887835D02*
G01*
X64785397Y-95914166D01*
X64872663Y-95941848D01*
X64875655Y-95943493D01*
X64884488Y-95946363D01*
X64956466Y-95987919D01*
X65027499Y-96026970D01*
X65034986Y-96033253D01*
X65048511Y-96041061D01*
X65106259Y-96093057D01*
X65162857Y-96140549D01*
X65172962Y-96153118D01*
X65189261Y-96167793D01*
X65231454Y-96225867D01*
X65273579Y-96278260D01*
X65283994Y-96298182D01*
X65300586Y-96321019D01*
X65327297Y-96381012D01*
X65355439Y-96434843D01*
X65363582Y-96462510D01*
X65377621Y-96494042D01*
X65389992Y-96552241D01*
X65405328Y-96604349D01*
X65408518Y-96639401D01*
X65416999Y-96679301D01*
X65416999Y-96732592D01*
X65421343Y-96780324D01*
X65416999Y-96821653D01*
X65416999Y-96868699D01*
X65407217Y-96914721D01*
X65402873Y-96956047D01*
X65388702Y-97001827D01*
X65377621Y-97053958D01*
X65361028Y-97091226D01*
X65350622Y-97124843D01*
X65324789Y-97172620D01*
X65300586Y-97226981D01*
X65280298Y-97254905D01*
X65266580Y-97280276D01*
X65227859Y-97327082D01*
X65189261Y-97380207D01*
X65168284Y-97399095D01*
X65153952Y-97416419D01*
X65101845Y-97458917D01*
X65048511Y-97506939D01*
X65029524Y-97517901D01*
X65017025Y-97528095D01*
X64951780Y-97562786D01*
X64884488Y-97601637D01*
X64869636Y-97606463D01*
X64861003Y-97611053D01*
X64783430Y-97634473D01*
X64704360Y-97660165D01*
X64695114Y-97661137D01*
X64691851Y-97662122D01*
X64600710Y-97671059D01*
X64563211Y-97675000D01*
X64468789Y-97675000D01*
X64327640Y-97660165D01*
X64246603Y-97633834D01*
X64159337Y-97606152D01*
X64156345Y-97604507D01*
X64147512Y-97601637D01*
X64075534Y-97560081D01*
X64004501Y-97521030D01*
X63997014Y-97514747D01*
X63983489Y-97506939D01*
X63925741Y-97454943D01*
X63869143Y-97407451D01*
X63859038Y-97394882D01*
X63842739Y-97380207D01*
X63800546Y-97322133D01*
X63758421Y-97269740D01*
X63748006Y-97249818D01*
X63731414Y-97226981D01*
X63704703Y-97166988D01*
X63676561Y-97113157D01*
X63668418Y-97085490D01*
X63654379Y-97053958D01*
X63642008Y-96995759D01*
X63626672Y-96943651D01*
X63623482Y-96908599D01*
X63615001Y-96868699D01*
X63615001Y-96815408D01*
X63610657Y-96767676D01*
X63615001Y-96726347D01*
X63615001Y-96679301D01*
X63624783Y-96633279D01*
X63629127Y-96591953D01*
X63643298Y-96546173D01*
X63654379Y-96494042D01*
X63670972Y-96456774D01*
X63681378Y-96423157D01*
X63707211Y-96375380D01*
X63731414Y-96321019D01*
X63751702Y-96293095D01*
X63765420Y-96267724D01*
X63804141Y-96220918D01*
X63842739Y-96167793D01*
X63863716Y-96148905D01*
X63878048Y-96131581D01*
X63930155Y-96089083D01*
X63983489Y-96041061D01*
X64002476Y-96030099D01*
X64014975Y-96019905D01*
X64080220Y-95985214D01*
X64147512Y-95946363D01*
X64162364Y-95941537D01*
X64170997Y-95936947D01*
X64248570Y-95913527D01*
X64327640Y-95887835D01*
X64336886Y-95886863D01*
X64340149Y-95885878D01*
X64431290Y-95876941D01*
X64468789Y-95873000D01*
X64563211Y-95873000D01*
X64704360Y-95887835D01*
X64704360Y-95887835D01*
G37*
G36*
X67244360Y-95887835D02*
G01*
X67325397Y-95914166D01*
X67412663Y-95941848D01*
X67415655Y-95943493D01*
X67424488Y-95946363D01*
X67496466Y-95987919D01*
X67567499Y-96026970D01*
X67574986Y-96033253D01*
X67588511Y-96041061D01*
X67646259Y-96093057D01*
X67702857Y-96140549D01*
X67712962Y-96153118D01*
X67729261Y-96167793D01*
X67771454Y-96225867D01*
X67813579Y-96278260D01*
X67823994Y-96298182D01*
X67840586Y-96321019D01*
X67867297Y-96381012D01*
X67895439Y-96434843D01*
X67903582Y-96462510D01*
X67917621Y-96494042D01*
X67929992Y-96552241D01*
X67945328Y-96604349D01*
X67948518Y-96639401D01*
X67956999Y-96679301D01*
X67956999Y-96732592D01*
X67961343Y-96780324D01*
X67956999Y-96821653D01*
X67956999Y-96868699D01*
X67947217Y-96914721D01*
X67942873Y-96956047D01*
X67928702Y-97001827D01*
X67917621Y-97053958D01*
X67901028Y-97091226D01*
X67890622Y-97124843D01*
X67864789Y-97172620D01*
X67840586Y-97226981D01*
X67820298Y-97254905D01*
X67806580Y-97280276D01*
X67767859Y-97327082D01*
X67729261Y-97380207D01*
X67708284Y-97399095D01*
X67693952Y-97416419D01*
X67641845Y-97458917D01*
X67588511Y-97506939D01*
X67569524Y-97517901D01*
X67557025Y-97528095D01*
X67491780Y-97562786D01*
X67424488Y-97601637D01*
X67409636Y-97606463D01*
X67401003Y-97611053D01*
X67323430Y-97634473D01*
X67244360Y-97660165D01*
X67235114Y-97661137D01*
X67231851Y-97662122D01*
X67140710Y-97671059D01*
X67103211Y-97675000D01*
X67008789Y-97675000D01*
X66867640Y-97660165D01*
X66786603Y-97633834D01*
X66699337Y-97606152D01*
X66696345Y-97604507D01*
X66687512Y-97601637D01*
X66615534Y-97560081D01*
X66544501Y-97521030D01*
X66537014Y-97514747D01*
X66523489Y-97506939D01*
X66465741Y-97454943D01*
X66409143Y-97407451D01*
X66399038Y-97394882D01*
X66382739Y-97380207D01*
X66340546Y-97322133D01*
X66298421Y-97269740D01*
X66288006Y-97249818D01*
X66271414Y-97226981D01*
X66244703Y-97166988D01*
X66216561Y-97113157D01*
X66208418Y-97085490D01*
X66194379Y-97053958D01*
X66182008Y-96995759D01*
X66166672Y-96943651D01*
X66163482Y-96908599D01*
X66155001Y-96868699D01*
X66155001Y-96815408D01*
X66150657Y-96767676D01*
X66155001Y-96726347D01*
X66155001Y-96679301D01*
X66164783Y-96633279D01*
X66169127Y-96591953D01*
X66183298Y-96546173D01*
X66194379Y-96494042D01*
X66210972Y-96456774D01*
X66221378Y-96423157D01*
X66247211Y-96375380D01*
X66271414Y-96321019D01*
X66291702Y-96293095D01*
X66305420Y-96267724D01*
X66344141Y-96220918D01*
X66382739Y-96167793D01*
X66403716Y-96148905D01*
X66418048Y-96131581D01*
X66470155Y-96089083D01*
X66523489Y-96041061D01*
X66542476Y-96030099D01*
X66554975Y-96019905D01*
X66620220Y-95985214D01*
X66687512Y-95946363D01*
X66702364Y-95941537D01*
X66710997Y-95936947D01*
X66788570Y-95913527D01*
X66867640Y-95887835D01*
X66876886Y-95886863D01*
X66880149Y-95885878D01*
X66971290Y-95876941D01*
X67008789Y-95873000D01*
X67103211Y-95873000D01*
X67244360Y-95887835D01*
X67244360Y-95887835D01*
G37*
G36*
X64704360Y-93347835D02*
G01*
X64785397Y-93374166D01*
X64872663Y-93401848D01*
X64875655Y-93403493D01*
X64884488Y-93406363D01*
X64956466Y-93447919D01*
X65027499Y-93486970D01*
X65034986Y-93493253D01*
X65048511Y-93501061D01*
X65106259Y-93553057D01*
X65162857Y-93600549D01*
X65172962Y-93613118D01*
X65189261Y-93627793D01*
X65231454Y-93685867D01*
X65273579Y-93738260D01*
X65283994Y-93758182D01*
X65300586Y-93781019D01*
X65327297Y-93841012D01*
X65355439Y-93894843D01*
X65363582Y-93922510D01*
X65377621Y-93954042D01*
X65389992Y-94012241D01*
X65405328Y-94064349D01*
X65408518Y-94099401D01*
X65416999Y-94139301D01*
X65416999Y-94192592D01*
X65421343Y-94240324D01*
X65416999Y-94281653D01*
X65416999Y-94328699D01*
X65407217Y-94374721D01*
X65402873Y-94416047D01*
X65388702Y-94461827D01*
X65377621Y-94513958D01*
X65361028Y-94551226D01*
X65350622Y-94584843D01*
X65324789Y-94632620D01*
X65300586Y-94686981D01*
X65280298Y-94714905D01*
X65266580Y-94740276D01*
X65227859Y-94787082D01*
X65189261Y-94840207D01*
X65168284Y-94859095D01*
X65153952Y-94876419D01*
X65101845Y-94918917D01*
X65048511Y-94966939D01*
X65029524Y-94977901D01*
X65017025Y-94988095D01*
X64951780Y-95022786D01*
X64884488Y-95061637D01*
X64869636Y-95066463D01*
X64861003Y-95071053D01*
X64783430Y-95094473D01*
X64704360Y-95120165D01*
X64695114Y-95121137D01*
X64691851Y-95122122D01*
X64600710Y-95131059D01*
X64563211Y-95135000D01*
X64468789Y-95135000D01*
X64327640Y-95120165D01*
X64246603Y-95093834D01*
X64159337Y-95066152D01*
X64156345Y-95064507D01*
X64147512Y-95061637D01*
X64075534Y-95020081D01*
X64004501Y-94981030D01*
X63997014Y-94974747D01*
X63983489Y-94966939D01*
X63925741Y-94914943D01*
X63869143Y-94867451D01*
X63859038Y-94854882D01*
X63842739Y-94840207D01*
X63800546Y-94782133D01*
X63758421Y-94729740D01*
X63748006Y-94709818D01*
X63731414Y-94686981D01*
X63704703Y-94626988D01*
X63676561Y-94573157D01*
X63668418Y-94545490D01*
X63654379Y-94513958D01*
X63642008Y-94455759D01*
X63626672Y-94403651D01*
X63623482Y-94368599D01*
X63615001Y-94328699D01*
X63615001Y-94275408D01*
X63610657Y-94227676D01*
X63615001Y-94186347D01*
X63615001Y-94139301D01*
X63624783Y-94093279D01*
X63629127Y-94051953D01*
X63643298Y-94006173D01*
X63654379Y-93954042D01*
X63670972Y-93916774D01*
X63681378Y-93883157D01*
X63707211Y-93835380D01*
X63731414Y-93781019D01*
X63751702Y-93753095D01*
X63765420Y-93727724D01*
X63804141Y-93680918D01*
X63842739Y-93627793D01*
X63863716Y-93608905D01*
X63878048Y-93591581D01*
X63930155Y-93549083D01*
X63983489Y-93501061D01*
X64002476Y-93490099D01*
X64014975Y-93479905D01*
X64080220Y-93445214D01*
X64147512Y-93406363D01*
X64162364Y-93401537D01*
X64170997Y-93396947D01*
X64248570Y-93373527D01*
X64327640Y-93347835D01*
X64336886Y-93346863D01*
X64340149Y-93345878D01*
X64431290Y-93336941D01*
X64468789Y-93333000D01*
X64563211Y-93333000D01*
X64704360Y-93347835D01*
X64704360Y-93347835D01*
G37*
G36*
X67244360Y-93347835D02*
G01*
X67325397Y-93374166D01*
X67412663Y-93401848D01*
X67415655Y-93403493D01*
X67424488Y-93406363D01*
X67496466Y-93447919D01*
X67567499Y-93486970D01*
X67574986Y-93493253D01*
X67588511Y-93501061D01*
X67646259Y-93553057D01*
X67702857Y-93600549D01*
X67712962Y-93613118D01*
X67729261Y-93627793D01*
X67771454Y-93685867D01*
X67813579Y-93738260D01*
X67823994Y-93758182D01*
X67840586Y-93781019D01*
X67867297Y-93841012D01*
X67895439Y-93894843D01*
X67903582Y-93922510D01*
X67917621Y-93954042D01*
X67929992Y-94012241D01*
X67945328Y-94064349D01*
X67948518Y-94099401D01*
X67956999Y-94139301D01*
X67956999Y-94192592D01*
X67961343Y-94240324D01*
X67956999Y-94281653D01*
X67956999Y-94328699D01*
X67947217Y-94374721D01*
X67942873Y-94416047D01*
X67928702Y-94461827D01*
X67917621Y-94513958D01*
X67901028Y-94551226D01*
X67890622Y-94584843D01*
X67864789Y-94632620D01*
X67840586Y-94686981D01*
X67820298Y-94714905D01*
X67806580Y-94740276D01*
X67767859Y-94787082D01*
X67729261Y-94840207D01*
X67708284Y-94859095D01*
X67693952Y-94876419D01*
X67641845Y-94918917D01*
X67588511Y-94966939D01*
X67569524Y-94977901D01*
X67557025Y-94988095D01*
X67491780Y-95022786D01*
X67424488Y-95061637D01*
X67409636Y-95066463D01*
X67401003Y-95071053D01*
X67323430Y-95094473D01*
X67244360Y-95120165D01*
X67235114Y-95121137D01*
X67231851Y-95122122D01*
X67140710Y-95131059D01*
X67103211Y-95135000D01*
X67008789Y-95135000D01*
X66867640Y-95120165D01*
X66786603Y-95093834D01*
X66699337Y-95066152D01*
X66696345Y-95064507D01*
X66687512Y-95061637D01*
X66615534Y-95020081D01*
X66544501Y-94981030D01*
X66537014Y-94974747D01*
X66523489Y-94966939D01*
X66465741Y-94914943D01*
X66409143Y-94867451D01*
X66399038Y-94854882D01*
X66382739Y-94840207D01*
X66340546Y-94782133D01*
X66298421Y-94729740D01*
X66288006Y-94709818D01*
X66271414Y-94686981D01*
X66244703Y-94626988D01*
X66216561Y-94573157D01*
X66208418Y-94545490D01*
X66194379Y-94513958D01*
X66182008Y-94455759D01*
X66166672Y-94403651D01*
X66163482Y-94368599D01*
X66155001Y-94328699D01*
X66155001Y-94275408D01*
X66150657Y-94227676D01*
X66155001Y-94186347D01*
X66155001Y-94139301D01*
X66164783Y-94093279D01*
X66169127Y-94051953D01*
X66183298Y-94006173D01*
X66194379Y-93954042D01*
X66210972Y-93916774D01*
X66221378Y-93883157D01*
X66247211Y-93835380D01*
X66271414Y-93781019D01*
X66291702Y-93753095D01*
X66305420Y-93727724D01*
X66344141Y-93680918D01*
X66382739Y-93627793D01*
X66403716Y-93608905D01*
X66418048Y-93591581D01*
X66470155Y-93549083D01*
X66523489Y-93501061D01*
X66542476Y-93490099D01*
X66554975Y-93479905D01*
X66620220Y-93445214D01*
X66687512Y-93406363D01*
X66702364Y-93401537D01*
X66710997Y-93396947D01*
X66788570Y-93373527D01*
X66867640Y-93347835D01*
X66876886Y-93346863D01*
X66880149Y-93345878D01*
X66971290Y-93336941D01*
X67008789Y-93333000D01*
X67103211Y-93333000D01*
X67244360Y-93347835D01*
X67244360Y-93347835D01*
G37*
G36*
X64704360Y-90807835D02*
G01*
X64785397Y-90834166D01*
X64872663Y-90861848D01*
X64875655Y-90863493D01*
X64884488Y-90866363D01*
X64956466Y-90907919D01*
X65027499Y-90946970D01*
X65034986Y-90953253D01*
X65048511Y-90961061D01*
X65106259Y-91013057D01*
X65162857Y-91060549D01*
X65172962Y-91073118D01*
X65189261Y-91087793D01*
X65231454Y-91145867D01*
X65273579Y-91198260D01*
X65283994Y-91218182D01*
X65300586Y-91241019D01*
X65327297Y-91301012D01*
X65355439Y-91354843D01*
X65363582Y-91382510D01*
X65377621Y-91414042D01*
X65389992Y-91472241D01*
X65405328Y-91524349D01*
X65408518Y-91559401D01*
X65416999Y-91599301D01*
X65416999Y-91652592D01*
X65421343Y-91700324D01*
X65416999Y-91741653D01*
X65416999Y-91788699D01*
X65407217Y-91834721D01*
X65402873Y-91876047D01*
X65388702Y-91921827D01*
X65377621Y-91973958D01*
X65361028Y-92011226D01*
X65350622Y-92044843D01*
X65324789Y-92092620D01*
X65300586Y-92146981D01*
X65280298Y-92174905D01*
X65266580Y-92200276D01*
X65227859Y-92247082D01*
X65189261Y-92300207D01*
X65168284Y-92319095D01*
X65153952Y-92336419D01*
X65101845Y-92378917D01*
X65048511Y-92426939D01*
X65029524Y-92437901D01*
X65017025Y-92448095D01*
X64951780Y-92482786D01*
X64884488Y-92521637D01*
X64869636Y-92526463D01*
X64861003Y-92531053D01*
X64783430Y-92554473D01*
X64704360Y-92580165D01*
X64695114Y-92581137D01*
X64691851Y-92582122D01*
X64600710Y-92591059D01*
X64563211Y-92595000D01*
X64468789Y-92595000D01*
X64327640Y-92580165D01*
X64246603Y-92553834D01*
X64159337Y-92526152D01*
X64156345Y-92524507D01*
X64147512Y-92521637D01*
X64075534Y-92480081D01*
X64004501Y-92441030D01*
X63997014Y-92434747D01*
X63983489Y-92426939D01*
X63925741Y-92374943D01*
X63869143Y-92327451D01*
X63859038Y-92314882D01*
X63842739Y-92300207D01*
X63800546Y-92242133D01*
X63758421Y-92189740D01*
X63748006Y-92169818D01*
X63731414Y-92146981D01*
X63704703Y-92086988D01*
X63676561Y-92033157D01*
X63668418Y-92005490D01*
X63654379Y-91973958D01*
X63642008Y-91915759D01*
X63626672Y-91863651D01*
X63623482Y-91828599D01*
X63615001Y-91788699D01*
X63615001Y-91735408D01*
X63610657Y-91687676D01*
X63615001Y-91646347D01*
X63615001Y-91599301D01*
X63624783Y-91553279D01*
X63629127Y-91511953D01*
X63643298Y-91466173D01*
X63654379Y-91414042D01*
X63670972Y-91376774D01*
X63681378Y-91343157D01*
X63707211Y-91295380D01*
X63731414Y-91241019D01*
X63751702Y-91213095D01*
X63765420Y-91187724D01*
X63804141Y-91140918D01*
X63842739Y-91087793D01*
X63863716Y-91068905D01*
X63878048Y-91051581D01*
X63930155Y-91009083D01*
X63983489Y-90961061D01*
X64002476Y-90950099D01*
X64014975Y-90939905D01*
X64080220Y-90905214D01*
X64147512Y-90866363D01*
X64162364Y-90861537D01*
X64170997Y-90856947D01*
X64248570Y-90833527D01*
X64327640Y-90807835D01*
X64336886Y-90806863D01*
X64340149Y-90805878D01*
X64431290Y-90796941D01*
X64468789Y-90793000D01*
X64563211Y-90793000D01*
X64704360Y-90807835D01*
X64704360Y-90807835D01*
G37*
G36*
X67244360Y-90807835D02*
G01*
X67325397Y-90834166D01*
X67412663Y-90861848D01*
X67415655Y-90863493D01*
X67424488Y-90866363D01*
X67496466Y-90907919D01*
X67567499Y-90946970D01*
X67574986Y-90953253D01*
X67588511Y-90961061D01*
X67646259Y-91013057D01*
X67702857Y-91060549D01*
X67712962Y-91073118D01*
X67729261Y-91087793D01*
X67771454Y-91145867D01*
X67813579Y-91198260D01*
X67823994Y-91218182D01*
X67840586Y-91241019D01*
X67867297Y-91301012D01*
X67895439Y-91354843D01*
X67903582Y-91382510D01*
X67917621Y-91414042D01*
X67929992Y-91472241D01*
X67945328Y-91524349D01*
X67948518Y-91559401D01*
X67956999Y-91599301D01*
X67956999Y-91652592D01*
X67961343Y-91700324D01*
X67956999Y-91741653D01*
X67956999Y-91788699D01*
X67947217Y-91834721D01*
X67942873Y-91876047D01*
X67928702Y-91921827D01*
X67917621Y-91973958D01*
X67901028Y-92011226D01*
X67890622Y-92044843D01*
X67864789Y-92092620D01*
X67840586Y-92146981D01*
X67820298Y-92174905D01*
X67806580Y-92200276D01*
X67767859Y-92247082D01*
X67729261Y-92300207D01*
X67708284Y-92319095D01*
X67693952Y-92336419D01*
X67641845Y-92378917D01*
X67588511Y-92426939D01*
X67569524Y-92437901D01*
X67557025Y-92448095D01*
X67491780Y-92482786D01*
X67424488Y-92521637D01*
X67409636Y-92526463D01*
X67401003Y-92531053D01*
X67323430Y-92554473D01*
X67244360Y-92580165D01*
X67235114Y-92581137D01*
X67231851Y-92582122D01*
X67140710Y-92591059D01*
X67103211Y-92595000D01*
X67008789Y-92595000D01*
X66867640Y-92580165D01*
X66786603Y-92553834D01*
X66699337Y-92526152D01*
X66696345Y-92524507D01*
X66687512Y-92521637D01*
X66615534Y-92480081D01*
X66544501Y-92441030D01*
X66537014Y-92434747D01*
X66523489Y-92426939D01*
X66465741Y-92374943D01*
X66409143Y-92327451D01*
X66399038Y-92314882D01*
X66382739Y-92300207D01*
X66340546Y-92242133D01*
X66298421Y-92189740D01*
X66288006Y-92169818D01*
X66271414Y-92146981D01*
X66244703Y-92086988D01*
X66216561Y-92033157D01*
X66208418Y-92005490D01*
X66194379Y-91973958D01*
X66182008Y-91915759D01*
X66166672Y-91863651D01*
X66163482Y-91828599D01*
X66155001Y-91788699D01*
X66155001Y-91735408D01*
X66150657Y-91687676D01*
X66155001Y-91646347D01*
X66155001Y-91599301D01*
X66164783Y-91553279D01*
X66169127Y-91511953D01*
X66183298Y-91466173D01*
X66194379Y-91414042D01*
X66210972Y-91376774D01*
X66221378Y-91343157D01*
X66247211Y-91295380D01*
X66271414Y-91241019D01*
X66291702Y-91213095D01*
X66305420Y-91187724D01*
X66344141Y-91140918D01*
X66382739Y-91087793D01*
X66403716Y-91068905D01*
X66418048Y-91051581D01*
X66470155Y-91009083D01*
X66523489Y-90961061D01*
X66542476Y-90950099D01*
X66554975Y-90939905D01*
X66620220Y-90905214D01*
X66687512Y-90866363D01*
X66702364Y-90861537D01*
X66710997Y-90856947D01*
X66788570Y-90833527D01*
X66867640Y-90807835D01*
X66876886Y-90806863D01*
X66880149Y-90805878D01*
X66971290Y-90796941D01*
X67008789Y-90793000D01*
X67103211Y-90793000D01*
X67244360Y-90807835D01*
X67244360Y-90807835D01*
G37*
G36*
X79648899Y-89486959D02*
G01*
X79665769Y-89498231D01*
X79677041Y-89515101D01*
X79683448Y-89547312D01*
X79683448Y-91249888D01*
X79680999Y-91262200D01*
X79677041Y-91282099D01*
X79665769Y-91298969D01*
X79648899Y-91310241D01*
X79629000Y-91314199D01*
X79616688Y-91316648D01*
X77914112Y-91316648D01*
X77881901Y-91310241D01*
X77865031Y-91298969D01*
X77853759Y-91282099D01*
X77847352Y-91249888D01*
X77847352Y-89547312D01*
X77853759Y-89515101D01*
X77865031Y-89498231D01*
X77881901Y-89486959D01*
X77914112Y-89480552D01*
X79616688Y-89480552D01*
X79648899Y-89486959D01*
X79648899Y-89486959D01*
G37*
G36*
X86576603Y-89499059D02*
G01*
X86658935Y-89525811D01*
X86747446Y-89553888D01*
X86750478Y-89555555D01*
X86759450Y-89558470D01*
X86832539Y-89600668D01*
X86904623Y-89640296D01*
X86912224Y-89646674D01*
X86925949Y-89654598D01*
X86984543Y-89707357D01*
X87042022Y-89755587D01*
X87052286Y-89768353D01*
X87068823Y-89783243D01*
X87111642Y-89842177D01*
X87154412Y-89895374D01*
X87164985Y-89915599D01*
X87181829Y-89938782D01*
X87208943Y-89999682D01*
X87237510Y-90054324D01*
X87245776Y-90082408D01*
X87260027Y-90114417D01*
X87272584Y-90173493D01*
X87288152Y-90226388D01*
X87291390Y-90261970D01*
X87299999Y-90302472D01*
X87299999Y-90356571D01*
X87304408Y-90405020D01*
X87299999Y-90446969D01*
X87299999Y-90494728D01*
X87290069Y-90541444D01*
X87285660Y-90583395D01*
X87271274Y-90629868D01*
X87260027Y-90682783D01*
X87243185Y-90720611D01*
X87232620Y-90754741D01*
X87206394Y-90803245D01*
X87181829Y-90858419D01*
X87161237Y-90886761D01*
X87147313Y-90912513D01*
X87108006Y-90960026D01*
X87068823Y-91013957D01*
X87047529Y-91033131D01*
X87032979Y-91050718D01*
X86980086Y-91093857D01*
X86925949Y-91142602D01*
X86906673Y-91153731D01*
X86893985Y-91164079D01*
X86827751Y-91199297D01*
X86759450Y-91238730D01*
X86744377Y-91243627D01*
X86735614Y-91248287D01*
X86656847Y-91272068D01*
X86576603Y-91298141D01*
X86567223Y-91299127D01*
X86563907Y-91300128D01*
X86471345Y-91309204D01*
X86433324Y-91313200D01*
X86337476Y-91313200D01*
X86194197Y-91298141D01*
X86111865Y-91271389D01*
X86023354Y-91243312D01*
X86020322Y-91241645D01*
X86011350Y-91238730D01*
X85938261Y-91196532D01*
X85866177Y-91156904D01*
X85858576Y-91150526D01*
X85844851Y-91142602D01*
X85786257Y-91089843D01*
X85728778Y-91041613D01*
X85718514Y-91028847D01*
X85701977Y-91013957D01*
X85659158Y-90955023D01*
X85616388Y-90901826D01*
X85605815Y-90881601D01*
X85588971Y-90858418D01*
X85561857Y-90797518D01*
X85533290Y-90742876D01*
X85525024Y-90714792D01*
X85510773Y-90682783D01*
X85498216Y-90623707D01*
X85482648Y-90570812D01*
X85479410Y-90535230D01*
X85470801Y-90494728D01*
X85470801Y-90440629D01*
X85466392Y-90392180D01*
X85470801Y-90350231D01*
X85470801Y-90302472D01*
X85480731Y-90255756D01*
X85485140Y-90213805D01*
X85499526Y-90167332D01*
X85510773Y-90114417D01*
X85527615Y-90076589D01*
X85538180Y-90042459D01*
X85564406Y-89993955D01*
X85588971Y-89938781D01*
X85609563Y-89910439D01*
X85623487Y-89884687D01*
X85662794Y-89837174D01*
X85701977Y-89783243D01*
X85723271Y-89764069D01*
X85737821Y-89746482D01*
X85790714Y-89703343D01*
X85844851Y-89654598D01*
X85864127Y-89643469D01*
X85876815Y-89633121D01*
X85943049Y-89597903D01*
X86011350Y-89558470D01*
X86026423Y-89553573D01*
X86035186Y-89548913D01*
X86113953Y-89525132D01*
X86194197Y-89499059D01*
X86203577Y-89498073D01*
X86206893Y-89497072D01*
X86299455Y-89487996D01*
X86337476Y-89484000D01*
X86433324Y-89484000D01*
X86576603Y-89499059D01*
X86576603Y-89499059D01*
G37*
G36*
X89116603Y-89499059D02*
G01*
X89198935Y-89525811D01*
X89287446Y-89553888D01*
X89290478Y-89555555D01*
X89299450Y-89558470D01*
X89372539Y-89600668D01*
X89444623Y-89640296D01*
X89452224Y-89646674D01*
X89465949Y-89654598D01*
X89524543Y-89707357D01*
X89582022Y-89755587D01*
X89592286Y-89768353D01*
X89608823Y-89783243D01*
X89651642Y-89842177D01*
X89694412Y-89895374D01*
X89704985Y-89915599D01*
X89721829Y-89938782D01*
X89748943Y-89999682D01*
X89777510Y-90054324D01*
X89785776Y-90082408D01*
X89800027Y-90114417D01*
X89812584Y-90173493D01*
X89828152Y-90226388D01*
X89831390Y-90261970D01*
X89839999Y-90302472D01*
X89839999Y-90356571D01*
X89844408Y-90405020D01*
X89839999Y-90446969D01*
X89839999Y-90494728D01*
X89830069Y-90541444D01*
X89825660Y-90583395D01*
X89811274Y-90629868D01*
X89800027Y-90682783D01*
X89783185Y-90720611D01*
X89772620Y-90754741D01*
X89746394Y-90803245D01*
X89721829Y-90858419D01*
X89701237Y-90886761D01*
X89687313Y-90912513D01*
X89648006Y-90960026D01*
X89608823Y-91013957D01*
X89587529Y-91033131D01*
X89572979Y-91050718D01*
X89520086Y-91093857D01*
X89465949Y-91142602D01*
X89446673Y-91153731D01*
X89433985Y-91164079D01*
X89367751Y-91199297D01*
X89299450Y-91238730D01*
X89284377Y-91243627D01*
X89275614Y-91248287D01*
X89196847Y-91272068D01*
X89116603Y-91298141D01*
X89107223Y-91299127D01*
X89103907Y-91300128D01*
X89011345Y-91309204D01*
X88973324Y-91313200D01*
X88877476Y-91313200D01*
X88734197Y-91298141D01*
X88651865Y-91271389D01*
X88563354Y-91243312D01*
X88560322Y-91241645D01*
X88551350Y-91238730D01*
X88478261Y-91196532D01*
X88406177Y-91156904D01*
X88398576Y-91150526D01*
X88384851Y-91142602D01*
X88326257Y-91089843D01*
X88268778Y-91041613D01*
X88258514Y-91028847D01*
X88241977Y-91013957D01*
X88199158Y-90955023D01*
X88156388Y-90901826D01*
X88145815Y-90881601D01*
X88128971Y-90858418D01*
X88101857Y-90797518D01*
X88073290Y-90742876D01*
X88065024Y-90714792D01*
X88050773Y-90682783D01*
X88038216Y-90623707D01*
X88022648Y-90570812D01*
X88019410Y-90535230D01*
X88010801Y-90494728D01*
X88010801Y-90440629D01*
X88006392Y-90392180D01*
X88010801Y-90350231D01*
X88010801Y-90302472D01*
X88020731Y-90255756D01*
X88025140Y-90213805D01*
X88039526Y-90167332D01*
X88050773Y-90114417D01*
X88067615Y-90076589D01*
X88078180Y-90042459D01*
X88104406Y-89993955D01*
X88128971Y-89938781D01*
X88149563Y-89910439D01*
X88163487Y-89884687D01*
X88202794Y-89837174D01*
X88241977Y-89783243D01*
X88263271Y-89764069D01*
X88277821Y-89746482D01*
X88330714Y-89703343D01*
X88384851Y-89654598D01*
X88404127Y-89643469D01*
X88416815Y-89633121D01*
X88483049Y-89597903D01*
X88551350Y-89558470D01*
X88566423Y-89553573D01*
X88575186Y-89548913D01*
X88653953Y-89525132D01*
X88734197Y-89499059D01*
X88743577Y-89498073D01*
X88746893Y-89497072D01*
X88839455Y-89487996D01*
X88877476Y-89484000D01*
X88973324Y-89484000D01*
X89116603Y-89499059D01*
X89116603Y-89499059D01*
G37*
G36*
X84036603Y-89499059D02*
G01*
X84118935Y-89525811D01*
X84207446Y-89553888D01*
X84210478Y-89555555D01*
X84219450Y-89558470D01*
X84292539Y-89600668D01*
X84364623Y-89640296D01*
X84372224Y-89646674D01*
X84385949Y-89654598D01*
X84444543Y-89707357D01*
X84502022Y-89755587D01*
X84512286Y-89768353D01*
X84528823Y-89783243D01*
X84571642Y-89842177D01*
X84614412Y-89895374D01*
X84624985Y-89915599D01*
X84641829Y-89938782D01*
X84668943Y-89999682D01*
X84697510Y-90054324D01*
X84705776Y-90082408D01*
X84720027Y-90114417D01*
X84732584Y-90173493D01*
X84748152Y-90226388D01*
X84751390Y-90261970D01*
X84759999Y-90302472D01*
X84759999Y-90356571D01*
X84764408Y-90405020D01*
X84759999Y-90446969D01*
X84759999Y-90494728D01*
X84750069Y-90541444D01*
X84745660Y-90583395D01*
X84731274Y-90629868D01*
X84720027Y-90682783D01*
X84703185Y-90720611D01*
X84692620Y-90754741D01*
X84666394Y-90803245D01*
X84641829Y-90858419D01*
X84621237Y-90886761D01*
X84607313Y-90912513D01*
X84568006Y-90960026D01*
X84528823Y-91013957D01*
X84507529Y-91033131D01*
X84492979Y-91050718D01*
X84440086Y-91093857D01*
X84385949Y-91142602D01*
X84366673Y-91153731D01*
X84353985Y-91164079D01*
X84287751Y-91199297D01*
X84219450Y-91238730D01*
X84204377Y-91243627D01*
X84195614Y-91248287D01*
X84116847Y-91272068D01*
X84036603Y-91298141D01*
X84027223Y-91299127D01*
X84023907Y-91300128D01*
X83931345Y-91309204D01*
X83893324Y-91313200D01*
X83797476Y-91313200D01*
X83654197Y-91298141D01*
X83571865Y-91271389D01*
X83483354Y-91243312D01*
X83480322Y-91241645D01*
X83471350Y-91238730D01*
X83398261Y-91196532D01*
X83326177Y-91156904D01*
X83318576Y-91150526D01*
X83304851Y-91142602D01*
X83246257Y-91089843D01*
X83188778Y-91041613D01*
X83178514Y-91028847D01*
X83161977Y-91013957D01*
X83119158Y-90955023D01*
X83076388Y-90901826D01*
X83065815Y-90881601D01*
X83048971Y-90858418D01*
X83021857Y-90797518D01*
X82993290Y-90742876D01*
X82985024Y-90714792D01*
X82970773Y-90682783D01*
X82958216Y-90623707D01*
X82942648Y-90570812D01*
X82939410Y-90535230D01*
X82930801Y-90494728D01*
X82930801Y-90440629D01*
X82926392Y-90392180D01*
X82930801Y-90350231D01*
X82930801Y-90302472D01*
X82940731Y-90255756D01*
X82945140Y-90213805D01*
X82959526Y-90167332D01*
X82970773Y-90114417D01*
X82987615Y-90076589D01*
X82998180Y-90042459D01*
X83024406Y-89993955D01*
X83048971Y-89938781D01*
X83069563Y-89910439D01*
X83083487Y-89884687D01*
X83122794Y-89837174D01*
X83161977Y-89783243D01*
X83183271Y-89764069D01*
X83197821Y-89746482D01*
X83250714Y-89703343D01*
X83304851Y-89654598D01*
X83324127Y-89643469D01*
X83336815Y-89633121D01*
X83403049Y-89597903D01*
X83471350Y-89558470D01*
X83486423Y-89553573D01*
X83495186Y-89548913D01*
X83573953Y-89525132D01*
X83654197Y-89499059D01*
X83663577Y-89498073D01*
X83666893Y-89497072D01*
X83759455Y-89487996D01*
X83797476Y-89484000D01*
X83893324Y-89484000D01*
X84036603Y-89499059D01*
X84036603Y-89499059D01*
G37*
G36*
X81496603Y-89499059D02*
G01*
X81578935Y-89525811D01*
X81667446Y-89553888D01*
X81670478Y-89555555D01*
X81679450Y-89558470D01*
X81752539Y-89600668D01*
X81824623Y-89640296D01*
X81832224Y-89646674D01*
X81845949Y-89654598D01*
X81904543Y-89707357D01*
X81962022Y-89755587D01*
X81972286Y-89768353D01*
X81988823Y-89783243D01*
X82031642Y-89842177D01*
X82074412Y-89895374D01*
X82084985Y-89915599D01*
X82101829Y-89938782D01*
X82128943Y-89999682D01*
X82157510Y-90054324D01*
X82165776Y-90082408D01*
X82180027Y-90114417D01*
X82192584Y-90173493D01*
X82208152Y-90226388D01*
X82211390Y-90261970D01*
X82219999Y-90302472D01*
X82219999Y-90356571D01*
X82224408Y-90405020D01*
X82219999Y-90446969D01*
X82219999Y-90494728D01*
X82210069Y-90541444D01*
X82205660Y-90583395D01*
X82191274Y-90629868D01*
X82180027Y-90682783D01*
X82163185Y-90720611D01*
X82152620Y-90754741D01*
X82126394Y-90803245D01*
X82101829Y-90858419D01*
X82081237Y-90886761D01*
X82067313Y-90912513D01*
X82028006Y-90960026D01*
X81988823Y-91013957D01*
X81967529Y-91033131D01*
X81952979Y-91050718D01*
X81900086Y-91093857D01*
X81845949Y-91142602D01*
X81826673Y-91153731D01*
X81813985Y-91164079D01*
X81747751Y-91199297D01*
X81679450Y-91238730D01*
X81664377Y-91243627D01*
X81655614Y-91248287D01*
X81576847Y-91272068D01*
X81496603Y-91298141D01*
X81487223Y-91299127D01*
X81483907Y-91300128D01*
X81391345Y-91309204D01*
X81353324Y-91313200D01*
X81257476Y-91313200D01*
X81114197Y-91298141D01*
X81031865Y-91271389D01*
X80943354Y-91243312D01*
X80940322Y-91241645D01*
X80931350Y-91238730D01*
X80858261Y-91196532D01*
X80786177Y-91156904D01*
X80778576Y-91150526D01*
X80764851Y-91142602D01*
X80706257Y-91089843D01*
X80648778Y-91041613D01*
X80638514Y-91028847D01*
X80621977Y-91013957D01*
X80579158Y-90955023D01*
X80536388Y-90901826D01*
X80525815Y-90881601D01*
X80508971Y-90858418D01*
X80481857Y-90797518D01*
X80453290Y-90742876D01*
X80445024Y-90714792D01*
X80430773Y-90682783D01*
X80418216Y-90623707D01*
X80402648Y-90570812D01*
X80399410Y-90535230D01*
X80390801Y-90494728D01*
X80390801Y-90440629D01*
X80386392Y-90392180D01*
X80390801Y-90350231D01*
X80390801Y-90302472D01*
X80400731Y-90255756D01*
X80405140Y-90213805D01*
X80419526Y-90167332D01*
X80430773Y-90114417D01*
X80447615Y-90076589D01*
X80458180Y-90042459D01*
X80484406Y-89993955D01*
X80508971Y-89938781D01*
X80529563Y-89910439D01*
X80543487Y-89884687D01*
X80582794Y-89837174D01*
X80621977Y-89783243D01*
X80643271Y-89764069D01*
X80657821Y-89746482D01*
X80710714Y-89703343D01*
X80764851Y-89654598D01*
X80784127Y-89643469D01*
X80796815Y-89633121D01*
X80863049Y-89597903D01*
X80931350Y-89558470D01*
X80946423Y-89553573D01*
X80955186Y-89548913D01*
X81033953Y-89525132D01*
X81114197Y-89499059D01*
X81123577Y-89498073D01*
X81126893Y-89497072D01*
X81219455Y-89487996D01*
X81257476Y-89484000D01*
X81353324Y-89484000D01*
X81496603Y-89499059D01*
X81496603Y-89499059D01*
G37*
G36*
X65385899Y-88255959D02*
G01*
X65402769Y-88267231D01*
X65414041Y-88284101D01*
X65420448Y-88316312D01*
X65420448Y-89991688D01*
X65417999Y-90004000D01*
X65414041Y-90023899D01*
X65402769Y-90040769D01*
X65385899Y-90052041D01*
X65366000Y-90055999D01*
X65353688Y-90058448D01*
X63678312Y-90058448D01*
X63646101Y-90052041D01*
X63629231Y-90040769D01*
X63617959Y-90023899D01*
X63611552Y-89991688D01*
X63611552Y-88316312D01*
X63617959Y-88284101D01*
X63629231Y-88267231D01*
X63646101Y-88255959D01*
X63678312Y-88249552D01*
X65353688Y-88249552D01*
X65385899Y-88255959D01*
X65385899Y-88255959D01*
G37*
G36*
X67244360Y-88267835D02*
G01*
X67325397Y-88294166D01*
X67412663Y-88321848D01*
X67415655Y-88323493D01*
X67424488Y-88326363D01*
X67496466Y-88367919D01*
X67567499Y-88406970D01*
X67574986Y-88413253D01*
X67588511Y-88421061D01*
X67646259Y-88473057D01*
X67702857Y-88520549D01*
X67712962Y-88533118D01*
X67729261Y-88547793D01*
X67771454Y-88605867D01*
X67813579Y-88658260D01*
X67823994Y-88678182D01*
X67840586Y-88701019D01*
X67867297Y-88761012D01*
X67895439Y-88814843D01*
X67903582Y-88842510D01*
X67917621Y-88874042D01*
X67929992Y-88932241D01*
X67945328Y-88984349D01*
X67948518Y-89019401D01*
X67956999Y-89059301D01*
X67956999Y-89112592D01*
X67961343Y-89160324D01*
X67956999Y-89201653D01*
X67956999Y-89248699D01*
X67947217Y-89294721D01*
X67942873Y-89336047D01*
X67928702Y-89381827D01*
X67917621Y-89433958D01*
X67901028Y-89471226D01*
X67890622Y-89504843D01*
X67864789Y-89552620D01*
X67840586Y-89606981D01*
X67820298Y-89634905D01*
X67806580Y-89660276D01*
X67767859Y-89707082D01*
X67729261Y-89760207D01*
X67708284Y-89779095D01*
X67693952Y-89796419D01*
X67641845Y-89838917D01*
X67588511Y-89886939D01*
X67569524Y-89897901D01*
X67557025Y-89908095D01*
X67491780Y-89942786D01*
X67424488Y-89981637D01*
X67409636Y-89986463D01*
X67401003Y-89991053D01*
X67323430Y-90014473D01*
X67244360Y-90040165D01*
X67235114Y-90041137D01*
X67231851Y-90042122D01*
X67140710Y-90051059D01*
X67103211Y-90055000D01*
X67008789Y-90055000D01*
X66867640Y-90040165D01*
X66786603Y-90013834D01*
X66699337Y-89986152D01*
X66696345Y-89984507D01*
X66687512Y-89981637D01*
X66615534Y-89940081D01*
X66544501Y-89901030D01*
X66537014Y-89894747D01*
X66523489Y-89886939D01*
X66465741Y-89834943D01*
X66409143Y-89787451D01*
X66399038Y-89774882D01*
X66382739Y-89760207D01*
X66340546Y-89702133D01*
X66298421Y-89649740D01*
X66288006Y-89629818D01*
X66271414Y-89606981D01*
X66244703Y-89546988D01*
X66216561Y-89493157D01*
X66208418Y-89465490D01*
X66194379Y-89433958D01*
X66182008Y-89375759D01*
X66166672Y-89323651D01*
X66163482Y-89288599D01*
X66155001Y-89248699D01*
X66155001Y-89195408D01*
X66150657Y-89147676D01*
X66155001Y-89106347D01*
X66155001Y-89059301D01*
X66164783Y-89013279D01*
X66169127Y-88971953D01*
X66183298Y-88926173D01*
X66194379Y-88874042D01*
X66210972Y-88836774D01*
X66221378Y-88803157D01*
X66247211Y-88755380D01*
X66271414Y-88701019D01*
X66291702Y-88673095D01*
X66305420Y-88647724D01*
X66344141Y-88600918D01*
X66382739Y-88547793D01*
X66403716Y-88528905D01*
X66418048Y-88511581D01*
X66470155Y-88469083D01*
X66523489Y-88421061D01*
X66542476Y-88410099D01*
X66554975Y-88399905D01*
X66620220Y-88365214D01*
X66687512Y-88326363D01*
X66702364Y-88321537D01*
X66710997Y-88316947D01*
X66788570Y-88293527D01*
X66867640Y-88267835D01*
X66876886Y-88266863D01*
X66880149Y-88265878D01*
X66971290Y-88256941D01*
X67008789Y-88253000D01*
X67103211Y-88253000D01*
X67244360Y-88267835D01*
X67244360Y-88267835D01*
G37*
G36*
X81496603Y-86959059D02*
G01*
X81578935Y-86985811D01*
X81667446Y-87013888D01*
X81670478Y-87015555D01*
X81679450Y-87018470D01*
X81752539Y-87060668D01*
X81824623Y-87100296D01*
X81832224Y-87106674D01*
X81845949Y-87114598D01*
X81904543Y-87167357D01*
X81962022Y-87215587D01*
X81972286Y-87228353D01*
X81988823Y-87243243D01*
X82031642Y-87302177D01*
X82074412Y-87355374D01*
X82084985Y-87375599D01*
X82101829Y-87398782D01*
X82128943Y-87459682D01*
X82157510Y-87514324D01*
X82165776Y-87542408D01*
X82180027Y-87574417D01*
X82192584Y-87633493D01*
X82208152Y-87686388D01*
X82211390Y-87721970D01*
X82219999Y-87762472D01*
X82219999Y-87816571D01*
X82224408Y-87865020D01*
X82219999Y-87906969D01*
X82219999Y-87954728D01*
X82210069Y-88001444D01*
X82205660Y-88043395D01*
X82191274Y-88089868D01*
X82180027Y-88142783D01*
X82163185Y-88180611D01*
X82152620Y-88214741D01*
X82126394Y-88263245D01*
X82101829Y-88318419D01*
X82081237Y-88346761D01*
X82067313Y-88372513D01*
X82028006Y-88420026D01*
X81988823Y-88473957D01*
X81967529Y-88493131D01*
X81952979Y-88510718D01*
X81900086Y-88553857D01*
X81845949Y-88602602D01*
X81826673Y-88613731D01*
X81813985Y-88624079D01*
X81747751Y-88659297D01*
X81679450Y-88698730D01*
X81664377Y-88703627D01*
X81655614Y-88708287D01*
X81576847Y-88732068D01*
X81496603Y-88758141D01*
X81487223Y-88759127D01*
X81483907Y-88760128D01*
X81391345Y-88769204D01*
X81353324Y-88773200D01*
X81257476Y-88773200D01*
X81114197Y-88758141D01*
X81031865Y-88731389D01*
X80943354Y-88703312D01*
X80940322Y-88701645D01*
X80931350Y-88698730D01*
X80858261Y-88656532D01*
X80786177Y-88616904D01*
X80778576Y-88610526D01*
X80764851Y-88602602D01*
X80706257Y-88549843D01*
X80648778Y-88501613D01*
X80638514Y-88488847D01*
X80621977Y-88473957D01*
X80579158Y-88415023D01*
X80536388Y-88361826D01*
X80525815Y-88341601D01*
X80508971Y-88318418D01*
X80481857Y-88257518D01*
X80453290Y-88202876D01*
X80445024Y-88174792D01*
X80430773Y-88142783D01*
X80418216Y-88083707D01*
X80402648Y-88030812D01*
X80399410Y-87995230D01*
X80390801Y-87954728D01*
X80390801Y-87900629D01*
X80386392Y-87852180D01*
X80390801Y-87810231D01*
X80390801Y-87762472D01*
X80400731Y-87715756D01*
X80405140Y-87673805D01*
X80419526Y-87627332D01*
X80430773Y-87574417D01*
X80447615Y-87536589D01*
X80458180Y-87502459D01*
X80484406Y-87453955D01*
X80508971Y-87398781D01*
X80529563Y-87370439D01*
X80543487Y-87344687D01*
X80582794Y-87297174D01*
X80621977Y-87243243D01*
X80643271Y-87224069D01*
X80657821Y-87206482D01*
X80710714Y-87163343D01*
X80764851Y-87114598D01*
X80784127Y-87103469D01*
X80796815Y-87093121D01*
X80863049Y-87057903D01*
X80931350Y-87018470D01*
X80946423Y-87013573D01*
X80955186Y-87008913D01*
X81033953Y-86985132D01*
X81114197Y-86959059D01*
X81123577Y-86958073D01*
X81126893Y-86957072D01*
X81219455Y-86947996D01*
X81257476Y-86944000D01*
X81353324Y-86944000D01*
X81496603Y-86959059D01*
X81496603Y-86959059D01*
G37*
G36*
X78956603Y-86959059D02*
G01*
X79038935Y-86985811D01*
X79127446Y-87013888D01*
X79130478Y-87015555D01*
X79139450Y-87018470D01*
X79212539Y-87060668D01*
X79284623Y-87100296D01*
X79292224Y-87106674D01*
X79305949Y-87114598D01*
X79364543Y-87167357D01*
X79422022Y-87215587D01*
X79432286Y-87228353D01*
X79448823Y-87243243D01*
X79491642Y-87302177D01*
X79534412Y-87355374D01*
X79544985Y-87375599D01*
X79561829Y-87398782D01*
X79588943Y-87459682D01*
X79617510Y-87514324D01*
X79625776Y-87542408D01*
X79640027Y-87574417D01*
X79652584Y-87633493D01*
X79668152Y-87686388D01*
X79671390Y-87721970D01*
X79679999Y-87762472D01*
X79679999Y-87816571D01*
X79684408Y-87865020D01*
X79679999Y-87906969D01*
X79679999Y-87954728D01*
X79670069Y-88001444D01*
X79665660Y-88043395D01*
X79651274Y-88089868D01*
X79640027Y-88142783D01*
X79623185Y-88180611D01*
X79612620Y-88214741D01*
X79586394Y-88263245D01*
X79561829Y-88318419D01*
X79541237Y-88346761D01*
X79527313Y-88372513D01*
X79488006Y-88420026D01*
X79448823Y-88473957D01*
X79427529Y-88493131D01*
X79412979Y-88510718D01*
X79360086Y-88553857D01*
X79305949Y-88602602D01*
X79286673Y-88613731D01*
X79273985Y-88624079D01*
X79207751Y-88659297D01*
X79139450Y-88698730D01*
X79124377Y-88703627D01*
X79115614Y-88708287D01*
X79036847Y-88732068D01*
X78956603Y-88758141D01*
X78947223Y-88759127D01*
X78943907Y-88760128D01*
X78851345Y-88769204D01*
X78813324Y-88773200D01*
X78717476Y-88773200D01*
X78574197Y-88758141D01*
X78491865Y-88731389D01*
X78403354Y-88703312D01*
X78400322Y-88701645D01*
X78391350Y-88698730D01*
X78318261Y-88656532D01*
X78246177Y-88616904D01*
X78238576Y-88610526D01*
X78224851Y-88602602D01*
X78166257Y-88549843D01*
X78108778Y-88501613D01*
X78098514Y-88488847D01*
X78081977Y-88473957D01*
X78039158Y-88415023D01*
X77996388Y-88361826D01*
X77985815Y-88341601D01*
X77968971Y-88318418D01*
X77941857Y-88257518D01*
X77913290Y-88202876D01*
X77905024Y-88174792D01*
X77890773Y-88142783D01*
X77878216Y-88083707D01*
X77862648Y-88030812D01*
X77859410Y-87995230D01*
X77850801Y-87954728D01*
X77850801Y-87900629D01*
X77846392Y-87852180D01*
X77850801Y-87810231D01*
X77850801Y-87762472D01*
X77860731Y-87715756D01*
X77865140Y-87673805D01*
X77879526Y-87627332D01*
X77890773Y-87574417D01*
X77907615Y-87536589D01*
X77918180Y-87502459D01*
X77944406Y-87453955D01*
X77968971Y-87398781D01*
X77989563Y-87370439D01*
X78003487Y-87344687D01*
X78042794Y-87297174D01*
X78081977Y-87243243D01*
X78103271Y-87224069D01*
X78117821Y-87206482D01*
X78170714Y-87163343D01*
X78224851Y-87114598D01*
X78244127Y-87103469D01*
X78256815Y-87093121D01*
X78323049Y-87057903D01*
X78391350Y-87018470D01*
X78406423Y-87013573D01*
X78415186Y-87008913D01*
X78493953Y-86985132D01*
X78574197Y-86959059D01*
X78583577Y-86958073D01*
X78586893Y-86957072D01*
X78679455Y-86947996D01*
X78717476Y-86944000D01*
X78813324Y-86944000D01*
X78956603Y-86959059D01*
X78956603Y-86959059D01*
G37*
G36*
X84036603Y-86959059D02*
G01*
X84118935Y-86985811D01*
X84207446Y-87013888D01*
X84210478Y-87015555D01*
X84219450Y-87018470D01*
X84292539Y-87060668D01*
X84364623Y-87100296D01*
X84372224Y-87106674D01*
X84385949Y-87114598D01*
X84444543Y-87167357D01*
X84502022Y-87215587D01*
X84512286Y-87228353D01*
X84528823Y-87243243D01*
X84571642Y-87302177D01*
X84614412Y-87355374D01*
X84624985Y-87375599D01*
X84641829Y-87398782D01*
X84668943Y-87459682D01*
X84697510Y-87514324D01*
X84705776Y-87542408D01*
X84720027Y-87574417D01*
X84732584Y-87633493D01*
X84748152Y-87686388D01*
X84751390Y-87721970D01*
X84759999Y-87762472D01*
X84759999Y-87816571D01*
X84764408Y-87865020D01*
X84759999Y-87906969D01*
X84759999Y-87954728D01*
X84750069Y-88001444D01*
X84745660Y-88043395D01*
X84731274Y-88089868D01*
X84720027Y-88142783D01*
X84703185Y-88180611D01*
X84692620Y-88214741D01*
X84666394Y-88263245D01*
X84641829Y-88318419D01*
X84621237Y-88346761D01*
X84607313Y-88372513D01*
X84568006Y-88420026D01*
X84528823Y-88473957D01*
X84507529Y-88493131D01*
X84492979Y-88510718D01*
X84440086Y-88553857D01*
X84385949Y-88602602D01*
X84366673Y-88613731D01*
X84353985Y-88624079D01*
X84287751Y-88659297D01*
X84219450Y-88698730D01*
X84204377Y-88703627D01*
X84195614Y-88708287D01*
X84116847Y-88732068D01*
X84036603Y-88758141D01*
X84027223Y-88759127D01*
X84023907Y-88760128D01*
X83931345Y-88769204D01*
X83893324Y-88773200D01*
X83797476Y-88773200D01*
X83654197Y-88758141D01*
X83571865Y-88731389D01*
X83483354Y-88703312D01*
X83480322Y-88701645D01*
X83471350Y-88698730D01*
X83398261Y-88656532D01*
X83326177Y-88616904D01*
X83318576Y-88610526D01*
X83304851Y-88602602D01*
X83246257Y-88549843D01*
X83188778Y-88501613D01*
X83178514Y-88488847D01*
X83161977Y-88473957D01*
X83119158Y-88415023D01*
X83076388Y-88361826D01*
X83065815Y-88341601D01*
X83048971Y-88318418D01*
X83021857Y-88257518D01*
X82993290Y-88202876D01*
X82985024Y-88174792D01*
X82970773Y-88142783D01*
X82958216Y-88083707D01*
X82942648Y-88030812D01*
X82939410Y-87995230D01*
X82930801Y-87954728D01*
X82930801Y-87900629D01*
X82926392Y-87852180D01*
X82930801Y-87810231D01*
X82930801Y-87762472D01*
X82940731Y-87715756D01*
X82945140Y-87673805D01*
X82959526Y-87627332D01*
X82970773Y-87574417D01*
X82987615Y-87536589D01*
X82998180Y-87502459D01*
X83024406Y-87453955D01*
X83048971Y-87398781D01*
X83069563Y-87370439D01*
X83083487Y-87344687D01*
X83122794Y-87297174D01*
X83161977Y-87243243D01*
X83183271Y-87224069D01*
X83197821Y-87206482D01*
X83250714Y-87163343D01*
X83304851Y-87114598D01*
X83324127Y-87103469D01*
X83336815Y-87093121D01*
X83403049Y-87057903D01*
X83471350Y-87018470D01*
X83486423Y-87013573D01*
X83495186Y-87008913D01*
X83573953Y-86985132D01*
X83654197Y-86959059D01*
X83663577Y-86958073D01*
X83666893Y-86957072D01*
X83759455Y-86947996D01*
X83797476Y-86944000D01*
X83893324Y-86944000D01*
X84036603Y-86959059D01*
X84036603Y-86959059D01*
G37*
G36*
X86576603Y-86959059D02*
G01*
X86658935Y-86985811D01*
X86747446Y-87013888D01*
X86750478Y-87015555D01*
X86759450Y-87018470D01*
X86832539Y-87060668D01*
X86904623Y-87100296D01*
X86912224Y-87106674D01*
X86925949Y-87114598D01*
X86984543Y-87167357D01*
X87042022Y-87215587D01*
X87052286Y-87228353D01*
X87068823Y-87243243D01*
X87111642Y-87302177D01*
X87154412Y-87355374D01*
X87164985Y-87375599D01*
X87181829Y-87398782D01*
X87208943Y-87459682D01*
X87237510Y-87514324D01*
X87245776Y-87542408D01*
X87260027Y-87574417D01*
X87272584Y-87633493D01*
X87288152Y-87686388D01*
X87291390Y-87721970D01*
X87299999Y-87762472D01*
X87299999Y-87816571D01*
X87304408Y-87865020D01*
X87299999Y-87906969D01*
X87299999Y-87954728D01*
X87290069Y-88001444D01*
X87285660Y-88043395D01*
X87271274Y-88089868D01*
X87260027Y-88142783D01*
X87243185Y-88180611D01*
X87232620Y-88214741D01*
X87206394Y-88263245D01*
X87181829Y-88318419D01*
X87161237Y-88346761D01*
X87147313Y-88372513D01*
X87108006Y-88420026D01*
X87068823Y-88473957D01*
X87047529Y-88493131D01*
X87032979Y-88510718D01*
X86980086Y-88553857D01*
X86925949Y-88602602D01*
X86906673Y-88613731D01*
X86893985Y-88624079D01*
X86827751Y-88659297D01*
X86759450Y-88698730D01*
X86744377Y-88703627D01*
X86735614Y-88708287D01*
X86656847Y-88732068D01*
X86576603Y-88758141D01*
X86567223Y-88759127D01*
X86563907Y-88760128D01*
X86471345Y-88769204D01*
X86433324Y-88773200D01*
X86337476Y-88773200D01*
X86194197Y-88758141D01*
X86111865Y-88731389D01*
X86023354Y-88703312D01*
X86020322Y-88701645D01*
X86011350Y-88698730D01*
X85938261Y-88656532D01*
X85866177Y-88616904D01*
X85858576Y-88610526D01*
X85844851Y-88602602D01*
X85786257Y-88549843D01*
X85728778Y-88501613D01*
X85718514Y-88488847D01*
X85701977Y-88473957D01*
X85659158Y-88415023D01*
X85616388Y-88361826D01*
X85605815Y-88341601D01*
X85588971Y-88318418D01*
X85561857Y-88257518D01*
X85533290Y-88202876D01*
X85525024Y-88174792D01*
X85510773Y-88142783D01*
X85498216Y-88083707D01*
X85482648Y-88030812D01*
X85479410Y-87995230D01*
X85470801Y-87954728D01*
X85470801Y-87900629D01*
X85466392Y-87852180D01*
X85470801Y-87810231D01*
X85470801Y-87762472D01*
X85480731Y-87715756D01*
X85485140Y-87673805D01*
X85499526Y-87627332D01*
X85510773Y-87574417D01*
X85527615Y-87536589D01*
X85538180Y-87502459D01*
X85564406Y-87453955D01*
X85588971Y-87398781D01*
X85609563Y-87370439D01*
X85623487Y-87344687D01*
X85662794Y-87297174D01*
X85701977Y-87243243D01*
X85723271Y-87224069D01*
X85737821Y-87206482D01*
X85790714Y-87163343D01*
X85844851Y-87114598D01*
X85864127Y-87103469D01*
X85876815Y-87093121D01*
X85943049Y-87057903D01*
X86011350Y-87018470D01*
X86026423Y-87013573D01*
X86035186Y-87008913D01*
X86113953Y-86985132D01*
X86194197Y-86959059D01*
X86203577Y-86958073D01*
X86206893Y-86957072D01*
X86299455Y-86947996D01*
X86337476Y-86944000D01*
X86433324Y-86944000D01*
X86576603Y-86959059D01*
X86576603Y-86959059D01*
G37*
G36*
X89116603Y-86959059D02*
G01*
X89198935Y-86985811D01*
X89287446Y-87013888D01*
X89290478Y-87015555D01*
X89299450Y-87018470D01*
X89372539Y-87060668D01*
X89444623Y-87100296D01*
X89452224Y-87106674D01*
X89465949Y-87114598D01*
X89524543Y-87167357D01*
X89582022Y-87215587D01*
X89592286Y-87228353D01*
X89608823Y-87243243D01*
X89651642Y-87302177D01*
X89694412Y-87355374D01*
X89704985Y-87375599D01*
X89721829Y-87398782D01*
X89748943Y-87459682D01*
X89777510Y-87514324D01*
X89785776Y-87542408D01*
X89800027Y-87574417D01*
X89812584Y-87633493D01*
X89828152Y-87686388D01*
X89831390Y-87721970D01*
X89839999Y-87762472D01*
X89839999Y-87816571D01*
X89844408Y-87865020D01*
X89839999Y-87906969D01*
X89839999Y-87954728D01*
X89830069Y-88001444D01*
X89825660Y-88043395D01*
X89811274Y-88089868D01*
X89800027Y-88142783D01*
X89783185Y-88180611D01*
X89772620Y-88214741D01*
X89746394Y-88263245D01*
X89721829Y-88318419D01*
X89701237Y-88346761D01*
X89687313Y-88372513D01*
X89648006Y-88420026D01*
X89608823Y-88473957D01*
X89587529Y-88493131D01*
X89572979Y-88510718D01*
X89520086Y-88553857D01*
X89465949Y-88602602D01*
X89446673Y-88613731D01*
X89433985Y-88624079D01*
X89367751Y-88659297D01*
X89299450Y-88698730D01*
X89284377Y-88703627D01*
X89275614Y-88708287D01*
X89196847Y-88732068D01*
X89116603Y-88758141D01*
X89107223Y-88759127D01*
X89103907Y-88760128D01*
X89011345Y-88769204D01*
X88973324Y-88773200D01*
X88877476Y-88773200D01*
X88734197Y-88758141D01*
X88651865Y-88731389D01*
X88563354Y-88703312D01*
X88560322Y-88701645D01*
X88551350Y-88698730D01*
X88478261Y-88656532D01*
X88406177Y-88616904D01*
X88398576Y-88610526D01*
X88384851Y-88602602D01*
X88326257Y-88549843D01*
X88268778Y-88501613D01*
X88258514Y-88488847D01*
X88241977Y-88473957D01*
X88199158Y-88415023D01*
X88156388Y-88361826D01*
X88145815Y-88341601D01*
X88128971Y-88318418D01*
X88101857Y-88257518D01*
X88073290Y-88202876D01*
X88065024Y-88174792D01*
X88050773Y-88142783D01*
X88038216Y-88083707D01*
X88022648Y-88030812D01*
X88019410Y-87995230D01*
X88010801Y-87954728D01*
X88010801Y-87900629D01*
X88006392Y-87852180D01*
X88010801Y-87810231D01*
X88010801Y-87762472D01*
X88020731Y-87715756D01*
X88025140Y-87673805D01*
X88039526Y-87627332D01*
X88050773Y-87574417D01*
X88067615Y-87536589D01*
X88078180Y-87502459D01*
X88104406Y-87453955D01*
X88128971Y-87398781D01*
X88149563Y-87370439D01*
X88163487Y-87344687D01*
X88202794Y-87297174D01*
X88241977Y-87243243D01*
X88263271Y-87224069D01*
X88277821Y-87206482D01*
X88330714Y-87163343D01*
X88384851Y-87114598D01*
X88404127Y-87103469D01*
X88416815Y-87093121D01*
X88483049Y-87057903D01*
X88551350Y-87018470D01*
X88566423Y-87013573D01*
X88575186Y-87008913D01*
X88653953Y-86985132D01*
X88734197Y-86959059D01*
X88743577Y-86958073D01*
X88746893Y-86957072D01*
X88839455Y-86947996D01*
X88877476Y-86944000D01*
X88973324Y-86944000D01*
X89116603Y-86959059D01*
X89116603Y-86959059D01*
G37*
M02*
