G04 #@! TF.GenerationSoftware,KiCad,Pcbnew,5.99.0-unknown-79d062a~86~ubuntu19.04.1*
G04 #@! TF.CreationDate,2019-08-31T10:25:11-07:00*
G04 #@! TF.ProjectId,IOBoard,494f426f-6172-4642-9e6b-696361645f70,rev?*
G04 #@! TF.SameCoordinates,Original*
G04 #@! TF.FileFunction,Copper,L1,Top*
G04 #@! TF.FilePolarity,Positive*
%FSLAX46Y46*%
G04 Gerber Fmt 4.6, Leading zero omitted, Abs format (unit mm)*
G04 Created by KiCad (PCBNEW 5.99.0-unknown-79d062a~86~ubuntu19.04.1) date 2019-08-31 10:25:11*
%MOMM*%
%LPD*%
G04 APERTURE LIST*
%ADD10O,1.727200X1.727200*%
%ADD11R,1.727200X1.727200*%
%ADD12R,0.800000X0.500000*%
%ADD13R,0.800000X0.400000*%
%ADD14R,0.500000X0.800000*%
%ADD15R,0.400000X0.800000*%
%ADD16O,1.700000X1.700000*%
%ADD17R,1.700000X1.700000*%
%ADD18C,0.450000*%
%ADD19C,0.152400*%
%ADD20C,0.508000*%
%ADD21C,0.254000*%
G04 APERTURE END LIST*
D10*
X88925400Y-87858600D03*
X88925400Y-90398600D03*
X86385400Y-87858600D03*
X86385400Y-90398600D03*
X83845400Y-87858600D03*
X83845400Y-90398600D03*
X81305400Y-87858600D03*
X81305400Y-90398600D03*
X78765400Y-87858600D03*
D11*
X78765400Y-90398600D03*
D10*
X89001600Y-98984000D03*
X89001600Y-101524000D03*
X86461600Y-98984000D03*
X86461600Y-101524000D03*
X83921600Y-98984000D03*
X83921600Y-101524000D03*
X81381600Y-98984000D03*
X81381600Y-101524000D03*
X78841600Y-98984000D03*
D11*
X78841600Y-101524000D03*
D12*
X110846000Y-95796000D03*
D13*
X110846000Y-94996000D03*
D12*
X110846000Y-93396000D03*
D13*
X110846000Y-94196000D03*
D12*
X109046000Y-95796000D03*
D13*
X109046000Y-94196000D03*
X109046000Y-94996000D03*
D12*
X109046000Y-93396000D03*
D14*
X97656800Y-94067200D03*
D15*
X98456800Y-94067200D03*
D14*
X100056800Y-94067200D03*
D15*
X99256800Y-94067200D03*
D14*
X97656800Y-92267200D03*
D15*
X99256800Y-92267200D03*
X98456800Y-92267200D03*
D14*
X100056800Y-92267200D03*
D16*
X98781000Y-97231200D03*
X101321000Y-97231200D03*
D17*
X103861000Y-97231200D03*
D16*
X98781000Y-104597000D03*
X101321000Y-104597000D03*
D17*
X103861000Y-104597000D03*
D16*
X98781000Y-100914000D03*
X101321000Y-100914000D03*
D17*
X103861000Y-100914000D03*
D16*
X67056000Y-99314000D03*
X64516000Y-99314000D03*
X67056000Y-96774000D03*
X64516000Y-96774000D03*
X67056000Y-94234000D03*
X64516000Y-94234000D03*
X67056000Y-91694000D03*
X64516000Y-91694000D03*
X67056000Y-89154000D03*
D17*
X64516000Y-89154000D03*
D16*
X76517500Y-108902000D03*
X76517500Y-111442000D03*
X73977500Y-108902000D03*
X73977500Y-111442000D03*
X71437500Y-108902000D03*
X71437500Y-111442000D03*
X68897500Y-108902000D03*
X68897500Y-111442000D03*
X66357500Y-108902000D03*
D17*
X66357500Y-111442000D03*
D16*
X111696000Y-109410500D03*
X109156000Y-109410500D03*
X111696000Y-106870500D03*
X109156000Y-106870500D03*
X111696000Y-104330500D03*
X109156000Y-104330500D03*
X111696000Y-101790500D03*
X109156000Y-101790500D03*
X111696000Y-99250500D03*
D17*
X109156000Y-99250500D03*
D16*
X97726500Y-108902000D03*
X97726500Y-111442000D03*
X95186500Y-108902000D03*
X95186500Y-111442000D03*
X92646500Y-108902000D03*
X92646500Y-111442000D03*
X90106500Y-108902000D03*
X90106500Y-111442000D03*
X87566500Y-108902000D03*
D17*
X87566500Y-111442000D03*
D18*
X111936400Y-95645200D03*
X69469000Y-101346000D03*
X68834000Y-103759000D03*
X76327000Y-102362000D03*
X76454000Y-105791000D03*
X80010000Y-105791000D03*
X80518000Y-103759000D03*
X82677000Y-106807000D03*
X80772000Y-108331000D03*
X92075000Y-106807000D03*
X93218000Y-105918000D03*
X90678000Y-102870000D03*
X96393000Y-98679000D03*
X96393000Y-91948000D03*
X91567000Y-97155000D03*
X93091000Y-95250000D03*
X89916000Y-94742000D03*
X87884000Y-94488000D03*
X92583000Y-89154000D03*
X91440000Y-91948000D03*
X87503000Y-92202000D03*
X82931000Y-94361000D03*
X75438000Y-89027000D03*
X107000000Y-103000000D03*
X107000000Y-100000000D03*
X109000000Y-97000000D03*
X107000000Y-96000000D03*
X105000000Y-91000000D03*
X98377900Y-94899600D03*
X87909600Y-107665200D03*
X102788400Y-94316500D03*
X96353600Y-94480700D03*
X101054400Y-93159500D03*
X95566900Y-94269700D03*
X99901200Y-91354000D03*
D19*
X110234601Y-98217619D02*
X110234601Y-103251899D01*
X110217399Y-98200417D02*
X110234601Y-98217619D01*
X110846000Y-94996000D02*
X110293600Y-94996000D01*
X110217399Y-95072201D02*
X110217399Y-98200417D01*
X110293600Y-94996000D02*
X110217399Y-95072201D01*
X110234601Y-103251899D02*
X110005999Y-103480501D01*
X110005999Y-103480501D02*
X109156000Y-104330500D01*
X111398400Y-94196000D02*
X111936400Y-94734000D01*
X110846000Y-94196000D02*
X111398400Y-94196000D01*
X111936400Y-94734000D02*
X111936400Y-95645200D01*
X110846000Y-95796000D02*
X110846000Y-96198400D01*
X112774601Y-98127001D02*
X112774601Y-103251899D01*
X110846000Y-96198400D02*
X112774601Y-98127001D01*
X112774601Y-103251899D02*
X112545999Y-103480501D01*
X112545999Y-103480501D02*
X111696000Y-104330500D01*
X98456800Y-94820700D02*
X98456800Y-94067200D01*
X98377900Y-94899600D02*
X98456800Y-94820700D01*
X99256800Y-95053200D02*
X99256800Y-94067200D01*
X97699500Y-96610500D02*
X99256800Y-95053200D01*
X97699500Y-97775900D02*
X97699500Y-96610500D01*
X100242100Y-100318500D02*
X97699500Y-97775900D01*
X100242100Y-102439200D02*
X100242100Y-100318500D01*
X101321000Y-103518100D02*
X100242100Y-102439200D01*
X101321000Y-104597000D02*
X101321000Y-103518100D01*
X100056800Y-98570900D02*
X100056800Y-94067200D01*
X101321000Y-99835100D02*
X100056800Y-98570900D01*
X101321000Y-100914000D02*
X101321000Y-99835100D01*
X81989900Y-110363000D02*
X97656800Y-94696100D01*
X68762500Y-110363000D02*
X81989900Y-110363000D01*
X67436400Y-109036900D02*
X68762500Y-110363000D01*
X67436400Y-108902000D02*
X67436400Y-109036900D01*
X66357500Y-108902000D02*
X67436400Y-108902000D01*
X97656800Y-94067200D02*
X97656800Y-94696100D01*
X82752900Y-90511800D02*
X82752900Y-90398600D01*
X75373300Y-97891400D02*
X82752900Y-90511800D01*
X66903900Y-97891400D02*
X75373300Y-97891400D01*
X65977000Y-98818300D02*
X66903900Y-97891400D01*
X65977000Y-104902600D02*
X65977000Y-98818300D01*
X68897500Y-107823100D02*
X65977000Y-104902600D01*
X68897500Y-108902000D02*
X68897500Y-107823100D01*
X83845400Y-90398600D02*
X82752900Y-90398600D01*
X84937900Y-87745400D02*
X84937900Y-87858600D01*
X85935600Y-86747700D02*
X84937900Y-87745400D01*
X94366200Y-86747700D02*
X85935600Y-86747700D01*
X99256800Y-91638300D02*
X94366200Y-86747700D01*
X99256800Y-92267200D02*
X99256800Y-91638300D01*
X83845400Y-87858600D02*
X84937900Y-87858600D01*
X98456800Y-92267200D02*
X98456800Y-92896100D01*
X86385400Y-87858600D02*
X87477900Y-87858600D01*
X87477900Y-87971800D02*
X87477900Y-87858600D01*
X88634700Y-89128600D02*
X87477900Y-87971800D01*
X90976900Y-89128600D02*
X88634700Y-89128600D01*
X94744400Y-92896100D02*
X90976900Y-89128600D01*
X98456800Y-92896100D02*
X94744400Y-92896100D01*
X93877100Y-87858600D02*
X97656800Y-91638300D01*
X88925400Y-87858600D02*
X93877100Y-87858600D01*
X97656800Y-92267200D02*
X97656800Y-91638300D01*
D20*
X78841600Y-106578000D02*
X76517500Y-108902000D01*
X78841600Y-101524000D02*
X78841600Y-106578000D01*
X76631800Y-99314000D02*
X78841600Y-101524000D01*
X67056000Y-99314000D02*
X76631800Y-99314000D01*
D19*
X92066200Y-103508600D02*
X87909600Y-107665200D01*
X99272000Y-103508600D02*
X92066200Y-103508600D01*
X99936900Y-104173500D02*
X99272000Y-103508600D01*
X99936900Y-104784200D02*
X99936900Y-104173500D01*
X100868000Y-105715300D02*
X99936900Y-104784200D01*
X101762100Y-105715300D02*
X100868000Y-105715300D01*
X102699000Y-104778400D02*
X101762100Y-105715300D01*
X102699000Y-103735300D02*
X102699000Y-104778400D01*
X102916200Y-103518100D02*
X102699000Y-103735300D01*
X103316200Y-103518100D02*
X102916200Y-103518100D01*
X105985700Y-100848600D02*
X103316200Y-103518100D01*
X105985700Y-98227400D02*
X105985700Y-100848600D01*
X108417100Y-95796000D02*
X105985700Y-98227400D01*
X109046000Y-95796000D02*
X108417100Y-95796000D01*
X82474100Y-98870800D02*
X82474100Y-98984000D01*
X87909000Y-93435900D02*
X82474100Y-98870800D01*
X100688900Y-93435900D02*
X87909000Y-93435900D01*
X102249000Y-94996000D02*
X100688900Y-93435900D01*
X109046000Y-94996000D02*
X102249000Y-94996000D01*
X81381600Y-98984000D02*
X82474100Y-98984000D01*
X108296600Y-94316500D02*
X102788400Y-94316500D01*
X108417100Y-94196000D02*
X108296600Y-94316500D01*
X83921600Y-101524000D02*
X85014100Y-101524000D01*
X109046000Y-94196000D02*
X108417100Y-94196000D01*
X90757700Y-100076600D02*
X96353600Y-94480700D01*
X86348300Y-100076600D02*
X90757700Y-100076600D01*
X85014100Y-101410800D02*
X86348300Y-100076600D01*
X85014100Y-101524000D02*
X85014100Y-101410800D01*
X108180600Y-93159500D02*
X101054400Y-93159500D01*
X108417100Y-93396000D02*
X108180600Y-93159500D01*
X85014100Y-98870800D02*
X85014100Y-98984000D01*
X89615200Y-94269700D02*
X85014100Y-98870800D01*
X95566900Y-94269700D02*
X89615200Y-94269700D01*
X83921600Y-98984000D02*
X85014100Y-98984000D01*
X109046000Y-93396000D02*
X108417100Y-93396000D01*
X85369100Y-99097200D02*
X85369100Y-98984000D01*
X84212300Y-100254000D02*
X85369100Y-99097200D01*
X83616000Y-100254000D02*
X84212300Y-100254000D01*
X82829000Y-101041000D02*
X83616000Y-100254000D01*
X82829000Y-104126200D02*
X82829000Y-101041000D01*
X76966300Y-109988900D02*
X82829000Y-104126200D01*
X76008400Y-109988900D02*
X76966300Y-109988900D01*
X75056400Y-109036900D02*
X76008400Y-109988900D01*
X75056400Y-108902000D02*
X75056400Y-109036900D01*
X73977500Y-108902000D02*
X75056400Y-108902000D01*
X86461600Y-98984000D02*
X85369100Y-98984000D01*
X99901200Y-91482700D02*
X99901200Y-91354000D01*
X100056800Y-91638300D02*
X99901200Y-91482700D01*
X100056800Y-92267200D02*
X100056800Y-91638300D01*
X109675000Y-93938100D02*
X110217100Y-93396000D01*
X109675000Y-97652600D02*
X109675000Y-93938100D01*
X109156000Y-98171600D02*
X109675000Y-97652600D01*
X109156000Y-99250500D02*
X109156000Y-98171600D01*
X110846000Y-93396000D02*
X110217100Y-93396000D01*
X108674500Y-108331600D02*
X104939900Y-104597000D01*
X109673200Y-108331600D02*
X108674500Y-108331600D01*
X110617100Y-109275500D02*
X109673200Y-108331600D01*
X110617100Y-109410500D02*
X110617100Y-109275500D01*
X111696000Y-109410500D02*
X110617100Y-109410500D01*
X103861000Y-104597000D02*
X104939900Y-104597000D01*
X94001400Y-100914000D02*
X98781000Y-100914000D01*
X86486900Y-108428500D02*
X94001400Y-100914000D01*
X86486900Y-109418400D02*
X86486900Y-108428500D01*
X87431600Y-110363100D02*
X86486900Y-109418400D01*
X87566500Y-110363100D02*
X87431600Y-110363100D01*
X87566500Y-111442000D02*
X87566500Y-110363100D01*
X87566500Y-108902000D02*
X88645400Y-108902000D01*
X88645400Y-108815700D02*
X88645400Y-108902000D01*
X92864100Y-104597000D02*
X88645400Y-108815700D01*
X98781000Y-104597000D02*
X92864100Y-104597000D01*
D21*
G36*
X112961869Y-82332591D02*
G01*
X112976516Y-82333600D01*
X113234563Y-82351872D01*
X113464446Y-82401364D01*
X113685063Y-82482753D01*
X113892015Y-82594418D01*
X114081162Y-82734125D01*
X114248735Y-82899087D01*
X114391399Y-83086021D01*
X114506302Y-83291196D01*
X114591142Y-83510493D01*
X114644241Y-83739577D01*
X114665440Y-83984352D01*
X114665696Y-84016819D01*
X114670801Y-84038414D01*
X114670800Y-112950778D01*
X114667409Y-112961869D01*
X114666410Y-112976380D01*
X114648129Y-113234556D01*
X114598636Y-113464447D01*
X114517246Y-113685066D01*
X114405581Y-113892016D01*
X114265875Y-114081162D01*
X114100917Y-114248732D01*
X113913979Y-114391399D01*
X113708804Y-114506302D01*
X113489507Y-114591142D01*
X113260423Y-114644241D01*
X113015648Y-114665440D01*
X112983181Y-114665696D01*
X112961590Y-114670800D01*
X64049222Y-114670800D01*
X64038131Y-114667409D01*
X64023448Y-114666398D01*
X63765444Y-114648129D01*
X63535553Y-114598636D01*
X63314934Y-114517246D01*
X63107984Y-114405581D01*
X62918838Y-114265875D01*
X62751268Y-114100917D01*
X62608601Y-113913979D01*
X62493698Y-113708804D01*
X62408858Y-113489507D01*
X62355759Y-113260423D01*
X62334560Y-113015648D01*
X62334304Y-112983181D01*
X62329200Y-112961590D01*
X62329200Y-110579590D01*
X65174319Y-110579590D01*
X65174319Y-112304410D01*
X65197401Y-112420448D01*
X65270160Y-112529340D01*
X65379052Y-112602099D01*
X65495090Y-112625181D01*
X67219910Y-112625181D01*
X67335948Y-112602099D01*
X67444840Y-112529340D01*
X67517599Y-112420448D01*
X67540681Y-112304410D01*
X67540681Y-110579590D01*
X67517599Y-110463552D01*
X67444840Y-110354660D01*
X67335948Y-110281901D01*
X67219910Y-110258819D01*
X65495090Y-110258819D01*
X65379052Y-110281901D01*
X65270160Y-110354660D01*
X65197401Y-110463552D01*
X65174319Y-110579590D01*
X62329200Y-110579590D01*
X62329200Y-99442000D01*
X63026513Y-99442000D01*
X63089456Y-99741983D01*
X63181961Y-99976222D01*
X63312610Y-100191526D01*
X63477669Y-100381739D01*
X63672416Y-100541422D01*
X63891284Y-100666009D01*
X64130831Y-100752960D01*
X64388000Y-100787047D01*
X64388000Y-99442000D01*
X63026513Y-99442000D01*
X62329200Y-99442000D01*
X62329200Y-99186000D01*
X63035957Y-99186000D01*
X64644000Y-99186000D01*
X64644000Y-100813978D01*
X65010708Y-100718800D01*
X65240329Y-100615363D01*
X65449240Y-100474716D01*
X65571601Y-100357989D01*
X65571600Y-104833465D01*
X65563852Y-104855528D01*
X65571600Y-104925152D01*
X65571600Y-104948286D01*
X65576627Y-104970321D01*
X65584314Y-105039408D01*
X65596999Y-105059628D01*
X65602312Y-105082922D01*
X65646017Y-105137770D01*
X65658085Y-105157006D01*
X65674130Y-105173051D01*
X65717576Y-105227573D01*
X65738974Y-105237894D01*
X68355624Y-107854544D01*
X68241786Y-107915073D01*
X68062579Y-108061230D01*
X67915174Y-108239413D01*
X67805185Y-108442833D01*
X67746878Y-108631192D01*
X67725117Y-108613788D01*
X67695824Y-108577028D01*
X67653810Y-108556762D01*
X67617333Y-108527591D01*
X67571633Y-108517125D01*
X67529231Y-108496673D01*
X67482370Y-108496632D01*
X67482230Y-108496600D01*
X67467442Y-108496600D01*
X67456119Y-108458129D01*
X67348981Y-108253193D01*
X67204078Y-108072970D01*
X67026929Y-107924324D01*
X66824282Y-107812918D01*
X66603431Y-107742859D01*
X66412579Y-107722800D01*
X66299375Y-107722800D01*
X66127352Y-107739667D01*
X65905970Y-107806507D01*
X65701786Y-107915073D01*
X65522579Y-108061230D01*
X65375174Y-108239413D01*
X65265185Y-108442833D01*
X65196802Y-108663743D01*
X65172630Y-108893728D01*
X65193588Y-109124028D01*
X65258881Y-109345871D01*
X65366019Y-109550807D01*
X65510922Y-109731030D01*
X65688071Y-109879676D01*
X65890718Y-109991082D01*
X66111569Y-110061141D01*
X66302421Y-110081200D01*
X66415625Y-110081200D01*
X66587648Y-110064333D01*
X66809030Y-109997493D01*
X67013214Y-109888927D01*
X67192421Y-109742770D01*
X67339826Y-109564587D01*
X67357704Y-109531524D01*
X68267553Y-110441373D01*
X68241786Y-110455073D01*
X68062579Y-110601230D01*
X67915174Y-110779413D01*
X67805185Y-110982833D01*
X67736802Y-111203743D01*
X67712630Y-111433728D01*
X67733588Y-111664028D01*
X67798881Y-111885871D01*
X67906019Y-112090807D01*
X68050922Y-112271030D01*
X68228071Y-112419676D01*
X68430718Y-112531082D01*
X68651569Y-112601141D01*
X68842421Y-112621200D01*
X68955625Y-112621200D01*
X69127648Y-112604333D01*
X69349030Y-112537493D01*
X69553214Y-112428927D01*
X69732421Y-112282770D01*
X69879826Y-112104587D01*
X69989815Y-111901167D01*
X70058198Y-111680257D01*
X70082370Y-111450272D01*
X70061412Y-111219972D01*
X69996119Y-110998129D01*
X69888981Y-110793193D01*
X69869047Y-110768400D01*
X70464285Y-110768400D01*
X70455174Y-110779413D01*
X70345185Y-110982833D01*
X70276802Y-111203743D01*
X70252630Y-111433728D01*
X70273588Y-111664028D01*
X70338881Y-111885871D01*
X70446019Y-112090807D01*
X70590922Y-112271030D01*
X70768071Y-112419676D01*
X70970718Y-112531082D01*
X71191569Y-112601141D01*
X71382421Y-112621200D01*
X71495625Y-112621200D01*
X71667648Y-112604333D01*
X71889030Y-112537493D01*
X72093214Y-112428927D01*
X72272421Y-112282770D01*
X72419826Y-112104587D01*
X72529815Y-111901167D01*
X72598198Y-111680257D01*
X72622370Y-111450272D01*
X72601412Y-111219972D01*
X72536119Y-110998129D01*
X72428981Y-110793193D01*
X72409047Y-110768400D01*
X73004285Y-110768400D01*
X72995174Y-110779413D01*
X72885185Y-110982833D01*
X72816802Y-111203743D01*
X72792630Y-111433728D01*
X72813588Y-111664028D01*
X72878881Y-111885871D01*
X72986019Y-112090807D01*
X73130922Y-112271030D01*
X73308071Y-112419676D01*
X73510718Y-112531082D01*
X73731569Y-112601141D01*
X73922421Y-112621200D01*
X74035625Y-112621200D01*
X74207648Y-112604333D01*
X74429030Y-112537493D01*
X74633214Y-112428927D01*
X74812421Y-112282770D01*
X74959826Y-112104587D01*
X75069815Y-111901167D01*
X75086315Y-111847864D01*
X75090956Y-111869983D01*
X75183461Y-112104222D01*
X75314110Y-112319526D01*
X75479169Y-112509739D01*
X75673916Y-112669422D01*
X75892784Y-112794009D01*
X76132331Y-112880960D01*
X76389500Y-112915047D01*
X76389500Y-111570000D01*
X76645500Y-111570000D01*
X76645500Y-112941978D01*
X77012208Y-112846800D01*
X77241829Y-112743363D01*
X77450740Y-112602716D01*
X77632966Y-112428881D01*
X77783297Y-112226828D01*
X77897436Y-112002334D01*
X77972118Y-111761819D01*
X77997543Y-111570000D01*
X76645500Y-111570000D01*
X76389500Y-111570000D01*
X76389500Y-111314000D01*
X78006987Y-111314000D01*
X77944044Y-111014017D01*
X77851539Y-110779778D01*
X77844635Y-110768400D01*
X81920765Y-110768400D01*
X81942828Y-110776148D01*
X82012452Y-110768400D01*
X82035587Y-110768400D01*
X82057620Y-110763374D01*
X82126708Y-110755686D01*
X82146928Y-110743001D01*
X82170223Y-110737688D01*
X82225080Y-110693976D01*
X82244306Y-110681915D01*
X82260350Y-110665870D01*
X82314873Y-110622423D01*
X82325194Y-110601026D01*
X97846610Y-95079612D01*
X97849476Y-95096119D01*
X97955651Y-95273175D01*
X98118447Y-95400135D01*
X98285843Y-95450835D01*
X97461728Y-96274951D01*
X97440647Y-96285074D01*
X97396885Y-96339795D01*
X97380533Y-96356146D01*
X97368513Y-96375273D01*
X97325093Y-96429565D01*
X97319763Y-96452836D01*
X97307049Y-96473065D01*
X97299170Y-96542753D01*
X97294101Y-96564884D01*
X97294101Y-96587584D01*
X97286269Y-96656849D01*
X97294101Y-96679276D01*
X97294100Y-97706765D01*
X97286352Y-97728828D01*
X97294100Y-97798452D01*
X97294100Y-97821586D01*
X97299127Y-97843621D01*
X97306814Y-97912708D01*
X97319499Y-97932928D01*
X97324812Y-97956222D01*
X97368517Y-98011070D01*
X97380585Y-98030306D01*
X97396630Y-98046351D01*
X97440076Y-98100873D01*
X97461474Y-98111194D01*
X99141473Y-99791194D01*
X99026931Y-99754859D01*
X98836079Y-99734800D01*
X98722875Y-99734800D01*
X98550852Y-99751667D01*
X98329470Y-99818507D01*
X98125286Y-99927073D01*
X97946079Y-100073230D01*
X97798674Y-100251413D01*
X97688685Y-100454833D01*
X97672041Y-100508600D01*
X94070535Y-100508600D01*
X94048472Y-100500852D01*
X93978847Y-100508600D01*
X93955713Y-100508600D01*
X93933680Y-100513626D01*
X93864593Y-100521314D01*
X93844371Y-100533999D01*
X93821076Y-100539313D01*
X93766232Y-100583015D01*
X93746994Y-100595083D01*
X93730936Y-100611141D01*
X93676427Y-100654577D01*
X93666108Y-100675970D01*
X86249130Y-108092950D01*
X86228047Y-108103074D01*
X86184285Y-108157795D01*
X86167933Y-108174146D01*
X86155913Y-108193273D01*
X86112493Y-108247565D01*
X86107163Y-108270836D01*
X86094449Y-108291065D01*
X86086570Y-108360753D01*
X86081501Y-108382884D01*
X86081501Y-108405584D01*
X86073669Y-108474849D01*
X86081501Y-108497276D01*
X86081500Y-109349265D01*
X86073752Y-109371328D01*
X86081500Y-109440952D01*
X86081500Y-109464086D01*
X86086527Y-109486121D01*
X86094214Y-109555208D01*
X86106899Y-109575428D01*
X86112212Y-109598722D01*
X86155917Y-109653570D01*
X86167985Y-109672806D01*
X86184030Y-109688851D01*
X86227476Y-109743373D01*
X86248872Y-109753693D01*
X86753997Y-110258819D01*
X86704090Y-110258819D01*
X86588052Y-110281901D01*
X86479160Y-110354660D01*
X86406401Y-110463552D01*
X86383319Y-110579590D01*
X86383319Y-112304410D01*
X86406401Y-112420448D01*
X86479160Y-112529340D01*
X86588052Y-112602099D01*
X86704090Y-112625181D01*
X88428910Y-112625181D01*
X88544948Y-112602099D01*
X88653840Y-112529340D01*
X88726599Y-112420448D01*
X88749681Y-112304410D01*
X88749681Y-111433728D01*
X88921630Y-111433728D01*
X88942588Y-111664028D01*
X89007881Y-111885871D01*
X89115019Y-112090807D01*
X89259922Y-112271030D01*
X89437071Y-112419676D01*
X89639718Y-112531082D01*
X89860569Y-112601141D01*
X90051421Y-112621200D01*
X90164625Y-112621200D01*
X90336648Y-112604333D01*
X90558030Y-112537493D01*
X90762214Y-112428927D01*
X90941421Y-112282770D01*
X91088826Y-112104587D01*
X91198815Y-111901167D01*
X91267198Y-111680257D01*
X91291370Y-111450272D01*
X91289865Y-111433728D01*
X91461630Y-111433728D01*
X91482588Y-111664028D01*
X91547881Y-111885871D01*
X91655019Y-112090807D01*
X91799922Y-112271030D01*
X91977071Y-112419676D01*
X92179718Y-112531082D01*
X92400569Y-112601141D01*
X92591421Y-112621200D01*
X92704625Y-112621200D01*
X92876648Y-112604333D01*
X93098030Y-112537493D01*
X93302214Y-112428927D01*
X93481421Y-112282770D01*
X93628826Y-112104587D01*
X93738815Y-111901167D01*
X93807198Y-111680257D01*
X93831370Y-111450272D01*
X93829865Y-111433728D01*
X94001630Y-111433728D01*
X94022588Y-111664028D01*
X94087881Y-111885871D01*
X94195019Y-112090807D01*
X94339922Y-112271030D01*
X94517071Y-112419676D01*
X94719718Y-112531082D01*
X94940569Y-112601141D01*
X95131421Y-112621200D01*
X95244625Y-112621200D01*
X95416648Y-112604333D01*
X95638030Y-112537493D01*
X95842214Y-112428927D01*
X96021421Y-112282770D01*
X96168826Y-112104587D01*
X96278815Y-111901167D01*
X96347198Y-111680257D01*
X96371370Y-111450272D01*
X96369865Y-111433728D01*
X96541630Y-111433728D01*
X96562588Y-111664028D01*
X96627881Y-111885871D01*
X96735019Y-112090807D01*
X96879922Y-112271030D01*
X97057071Y-112419676D01*
X97259718Y-112531082D01*
X97480569Y-112601141D01*
X97671421Y-112621200D01*
X97784625Y-112621200D01*
X97956648Y-112604333D01*
X98178030Y-112537493D01*
X98382214Y-112428927D01*
X98561421Y-112282770D01*
X98708826Y-112104587D01*
X98818815Y-111901167D01*
X98887198Y-111680257D01*
X98911370Y-111450272D01*
X98890412Y-111219972D01*
X98825119Y-110998129D01*
X98717981Y-110793193D01*
X98573078Y-110612970D01*
X98395929Y-110464324D01*
X98193282Y-110352918D01*
X97972431Y-110282859D01*
X97781579Y-110262800D01*
X97668375Y-110262800D01*
X97496352Y-110279667D01*
X97274970Y-110346507D01*
X97070786Y-110455073D01*
X96891579Y-110601230D01*
X96744174Y-110779413D01*
X96634185Y-110982833D01*
X96565802Y-111203743D01*
X96541630Y-111433728D01*
X96369865Y-111433728D01*
X96350412Y-111219972D01*
X96285119Y-110998129D01*
X96177981Y-110793193D01*
X96033078Y-110612970D01*
X95855929Y-110464324D01*
X95653282Y-110352918D01*
X95432431Y-110282859D01*
X95241579Y-110262800D01*
X95128375Y-110262800D01*
X94956352Y-110279667D01*
X94734970Y-110346507D01*
X94530786Y-110455073D01*
X94351579Y-110601230D01*
X94204174Y-110779413D01*
X94094185Y-110982833D01*
X94025802Y-111203743D01*
X94001630Y-111433728D01*
X93829865Y-111433728D01*
X93810412Y-111219972D01*
X93745119Y-110998129D01*
X93637981Y-110793193D01*
X93493078Y-110612970D01*
X93315929Y-110464324D01*
X93113282Y-110352918D01*
X92892431Y-110282859D01*
X92701579Y-110262800D01*
X92588375Y-110262800D01*
X92416352Y-110279667D01*
X92194970Y-110346507D01*
X91990786Y-110455073D01*
X91811579Y-110601230D01*
X91664174Y-110779413D01*
X91554185Y-110982833D01*
X91485802Y-111203743D01*
X91461630Y-111433728D01*
X91289865Y-111433728D01*
X91270412Y-111219972D01*
X91205119Y-110998129D01*
X91097981Y-110793193D01*
X90953078Y-110612970D01*
X90775929Y-110464324D01*
X90573282Y-110352918D01*
X90352431Y-110282859D01*
X90161579Y-110262800D01*
X90048375Y-110262800D01*
X89876352Y-110279667D01*
X89654970Y-110346507D01*
X89450786Y-110455073D01*
X89271579Y-110601230D01*
X89124174Y-110779413D01*
X89014185Y-110982833D01*
X88945802Y-111203743D01*
X88921630Y-111433728D01*
X88749681Y-111433728D01*
X88749681Y-110579590D01*
X88726599Y-110463552D01*
X88653840Y-110354660D01*
X88544948Y-110281901D01*
X88428910Y-110258819D01*
X87966150Y-110258819D01*
X87951641Y-110228604D01*
X87941187Y-110182775D01*
X87912116Y-110146293D01*
X87891926Y-110104246D01*
X87855217Y-110074888D01*
X87837078Y-110052126D01*
X88018030Y-109997493D01*
X88222214Y-109888927D01*
X88401421Y-109742770D01*
X88548826Y-109564587D01*
X88658815Y-109361167D01*
X88675448Y-109307434D01*
X88737524Y-109307488D01*
X88779896Y-109287141D01*
X88825725Y-109276687D01*
X88862207Y-109247616D01*
X88904254Y-109227426D01*
X88933609Y-109190719D01*
X88956782Y-109172254D01*
X89007881Y-109345871D01*
X89115019Y-109550807D01*
X89259922Y-109731030D01*
X89437071Y-109879676D01*
X89639718Y-109991082D01*
X89860569Y-110061141D01*
X90051421Y-110081200D01*
X90164625Y-110081200D01*
X90336648Y-110064333D01*
X90558030Y-109997493D01*
X90762214Y-109888927D01*
X90941421Y-109742770D01*
X91088826Y-109564587D01*
X91198815Y-109361167D01*
X91267198Y-109140257D01*
X91291370Y-108910272D01*
X91289865Y-108893728D01*
X91461630Y-108893728D01*
X91482588Y-109124028D01*
X91547881Y-109345871D01*
X91655019Y-109550807D01*
X91799922Y-109731030D01*
X91977071Y-109879676D01*
X92179718Y-109991082D01*
X92400569Y-110061141D01*
X92591421Y-110081200D01*
X92704625Y-110081200D01*
X92876648Y-110064333D01*
X93098030Y-109997493D01*
X93302214Y-109888927D01*
X93481421Y-109742770D01*
X93628826Y-109564587D01*
X93738815Y-109361167D01*
X93807198Y-109140257D01*
X93831370Y-108910272D01*
X93829865Y-108893728D01*
X94001630Y-108893728D01*
X94022588Y-109124028D01*
X94087881Y-109345871D01*
X94195019Y-109550807D01*
X94339922Y-109731030D01*
X94517071Y-109879676D01*
X94719718Y-109991082D01*
X94940569Y-110061141D01*
X95131421Y-110081200D01*
X95244625Y-110081200D01*
X95416648Y-110064333D01*
X95638030Y-109997493D01*
X95842214Y-109888927D01*
X96021421Y-109742770D01*
X96168826Y-109564587D01*
X96278815Y-109361167D01*
X96347198Y-109140257D01*
X96371370Y-108910272D01*
X96369865Y-108893728D01*
X96541630Y-108893728D01*
X96562588Y-109124028D01*
X96627881Y-109345871D01*
X96735019Y-109550807D01*
X96879922Y-109731030D01*
X97057071Y-109879676D01*
X97259718Y-109991082D01*
X97480569Y-110061141D01*
X97671421Y-110081200D01*
X97784625Y-110081200D01*
X97956648Y-110064333D01*
X98178030Y-109997493D01*
X98382214Y-109888927D01*
X98561421Y-109742770D01*
X98708826Y-109564587D01*
X98818815Y-109361167D01*
X98887198Y-109140257D01*
X98911370Y-108910272D01*
X98890412Y-108679972D01*
X98825119Y-108458129D01*
X98717981Y-108253193D01*
X98573078Y-108072970D01*
X98395929Y-107924324D01*
X98193282Y-107812918D01*
X97972431Y-107742859D01*
X97781579Y-107722800D01*
X97668375Y-107722800D01*
X97496352Y-107739667D01*
X97274970Y-107806507D01*
X97070786Y-107915073D01*
X96891579Y-108061230D01*
X96744174Y-108239413D01*
X96634185Y-108442833D01*
X96565802Y-108663743D01*
X96541630Y-108893728D01*
X96369865Y-108893728D01*
X96350412Y-108679972D01*
X96285119Y-108458129D01*
X96177981Y-108253193D01*
X96033078Y-108072970D01*
X95855929Y-107924324D01*
X95653282Y-107812918D01*
X95432431Y-107742859D01*
X95241579Y-107722800D01*
X95128375Y-107722800D01*
X94956352Y-107739667D01*
X94734970Y-107806507D01*
X94530786Y-107915073D01*
X94351579Y-108061230D01*
X94204174Y-108239413D01*
X94094185Y-108442833D01*
X94025802Y-108663743D01*
X94001630Y-108893728D01*
X93829865Y-108893728D01*
X93810412Y-108679972D01*
X93745119Y-108458129D01*
X93637981Y-108253193D01*
X93493078Y-108072970D01*
X93315929Y-107924324D01*
X93113282Y-107812918D01*
X92892431Y-107742859D01*
X92701579Y-107722800D01*
X92588375Y-107722800D01*
X92416352Y-107739667D01*
X92194970Y-107806507D01*
X91990786Y-107915073D01*
X91811579Y-108061230D01*
X91664174Y-108239413D01*
X91554185Y-108442833D01*
X91485802Y-108663743D01*
X91461630Y-108893728D01*
X91289865Y-108893728D01*
X91270412Y-108679972D01*
X91205119Y-108458129D01*
X91097981Y-108253193D01*
X90953078Y-108072970D01*
X90775929Y-107924324D01*
X90573282Y-107812918D01*
X90352431Y-107742859D01*
X90297350Y-107737070D01*
X93032021Y-105002400D01*
X97671058Y-105002400D01*
X97682381Y-105040871D01*
X97789519Y-105245807D01*
X97934422Y-105426030D01*
X98111571Y-105574676D01*
X98314218Y-105686082D01*
X98535069Y-105756141D01*
X98725921Y-105776200D01*
X98839125Y-105776200D01*
X99011148Y-105759333D01*
X99232530Y-105692493D01*
X99436714Y-105583927D01*
X99615921Y-105437770D01*
X99763326Y-105259587D01*
X99789871Y-105210493D01*
X100532452Y-105953075D01*
X100542574Y-105974154D01*
X100597290Y-106017912D01*
X100613644Y-106034267D01*
X100632776Y-106046291D01*
X100687066Y-106089709D01*
X100710337Y-106095038D01*
X100730563Y-106107751D01*
X100800244Y-106115629D01*
X100822384Y-106120700D01*
X100845094Y-106120700D01*
X100914350Y-106128530D01*
X100936772Y-106120700D01*
X101692965Y-106120700D01*
X101715028Y-106128448D01*
X101784652Y-106120700D01*
X101807787Y-106120700D01*
X101829820Y-106115674D01*
X101898908Y-106107986D01*
X101919128Y-106095301D01*
X101942423Y-106089988D01*
X101997280Y-106046276D01*
X102016506Y-106034215D01*
X102032550Y-106018170D01*
X102087073Y-105974723D01*
X102097393Y-105953328D01*
X102677819Y-105372903D01*
X102677819Y-105459410D01*
X102700901Y-105575448D01*
X102773660Y-105684340D01*
X102882552Y-105757099D01*
X102998590Y-105780181D01*
X104723410Y-105780181D01*
X104839448Y-105757099D01*
X104948340Y-105684340D01*
X105021099Y-105575448D01*
X105044181Y-105459410D01*
X105044181Y-105274601D01*
X108331120Y-108561541D01*
X108321079Y-108569730D01*
X108173674Y-108747913D01*
X108063685Y-108951333D01*
X107995302Y-109172243D01*
X107971130Y-109402228D01*
X107992088Y-109632528D01*
X108057381Y-109854371D01*
X108164519Y-110059307D01*
X108309422Y-110239530D01*
X108486571Y-110388176D01*
X108689218Y-110499582D01*
X108910069Y-110569641D01*
X109100921Y-110589700D01*
X109214125Y-110589700D01*
X109386148Y-110572833D01*
X109607530Y-110505993D01*
X109811714Y-110397427D01*
X109990921Y-110251270D01*
X110138326Y-110073087D01*
X110248315Y-109869667D01*
X110306622Y-109681309D01*
X110328384Y-109698712D01*
X110357677Y-109735473D01*
X110399690Y-109755737D01*
X110436165Y-109784908D01*
X110481869Y-109795376D01*
X110524269Y-109815827D01*
X110571130Y-109815868D01*
X110571270Y-109815900D01*
X110586058Y-109815900D01*
X110597381Y-109854371D01*
X110704519Y-110059307D01*
X110849422Y-110239530D01*
X111026571Y-110388176D01*
X111229218Y-110499582D01*
X111450069Y-110569641D01*
X111640921Y-110589700D01*
X111754125Y-110589700D01*
X111926148Y-110572833D01*
X112147530Y-110505993D01*
X112351714Y-110397427D01*
X112530921Y-110251270D01*
X112678326Y-110073087D01*
X112788315Y-109869667D01*
X112856698Y-109648757D01*
X112880870Y-109418772D01*
X112859912Y-109188472D01*
X112794619Y-108966629D01*
X112687481Y-108761693D01*
X112542578Y-108581470D01*
X112365429Y-108432824D01*
X112162782Y-108321418D01*
X111941931Y-108251359D01*
X111751079Y-108231300D01*
X111637875Y-108231300D01*
X111465852Y-108248167D01*
X111244470Y-108315007D01*
X111040286Y-108423573D01*
X110861079Y-108569730D01*
X110713674Y-108747913D01*
X110695832Y-108780911D01*
X110008749Y-108093828D01*
X109998626Y-108072746D01*
X109943900Y-108028980D01*
X109927556Y-108012635D01*
X109908430Y-108000614D01*
X109854135Y-107957193D01*
X109830862Y-107951862D01*
X109810633Y-107939149D01*
X109740953Y-107931270D01*
X109718815Y-107926200D01*
X109696107Y-107926200D01*
X109684779Y-107924919D01*
X109811714Y-107857427D01*
X109990921Y-107711270D01*
X110138326Y-107533087D01*
X110248315Y-107329667D01*
X110316698Y-107108757D01*
X110340870Y-106878772D01*
X110339365Y-106862228D01*
X110511130Y-106862228D01*
X110532088Y-107092528D01*
X110597381Y-107314371D01*
X110704519Y-107519307D01*
X110849422Y-107699530D01*
X111026571Y-107848176D01*
X111229218Y-107959582D01*
X111450069Y-108029641D01*
X111640921Y-108049700D01*
X111754125Y-108049700D01*
X111926148Y-108032833D01*
X112147530Y-107965993D01*
X112351714Y-107857427D01*
X112530921Y-107711270D01*
X112678326Y-107533087D01*
X112788315Y-107329667D01*
X112856698Y-107108757D01*
X112880870Y-106878772D01*
X112859912Y-106648472D01*
X112794619Y-106426629D01*
X112687481Y-106221693D01*
X112542578Y-106041470D01*
X112365429Y-105892824D01*
X112162782Y-105781418D01*
X111941931Y-105711359D01*
X111751079Y-105691300D01*
X111637875Y-105691300D01*
X111465852Y-105708167D01*
X111244470Y-105775007D01*
X111040286Y-105883573D01*
X110861079Y-106029730D01*
X110713674Y-106207913D01*
X110603685Y-106411333D01*
X110535302Y-106632243D01*
X110511130Y-106862228D01*
X110339365Y-106862228D01*
X110319912Y-106648472D01*
X110254619Y-106426629D01*
X110147481Y-106221693D01*
X110002578Y-106041470D01*
X109825429Y-105892824D01*
X109622782Y-105781418D01*
X109401931Y-105711359D01*
X109211079Y-105691300D01*
X109097875Y-105691300D01*
X108925852Y-105708167D01*
X108704470Y-105775007D01*
X108500286Y-105883573D01*
X108321079Y-106029730D01*
X108173674Y-106207913D01*
X108063685Y-106411333D01*
X107995302Y-106632243D01*
X107971130Y-106862228D01*
X107990420Y-107074198D01*
X105275450Y-104359230D01*
X105265326Y-104338146D01*
X105210600Y-104294380D01*
X105194256Y-104278035D01*
X105175130Y-104266014D01*
X105120835Y-104222593D01*
X105097562Y-104217262D01*
X105077333Y-104204549D01*
X105044181Y-104200800D01*
X105044181Y-103734590D01*
X105021099Y-103618552D01*
X104948340Y-103509660D01*
X104839448Y-103436901D01*
X104723410Y-103413819D01*
X103993801Y-103413819D01*
X106223471Y-101184150D01*
X106244554Y-101174026D01*
X106288316Y-101119305D01*
X106304664Y-101102958D01*
X106316688Y-101083830D01*
X106360109Y-101029532D01*
X106365438Y-101006264D01*
X106378151Y-100986037D01*
X106386029Y-100916356D01*
X106391100Y-100894216D01*
X106391100Y-100871506D01*
X106398930Y-100802250D01*
X106391100Y-100779828D01*
X106391100Y-98395320D01*
X108465261Y-96321160D01*
X108517552Y-96356099D01*
X108633590Y-96379181D01*
X109269600Y-96379181D01*
X109269600Y-97484677D01*
X108918228Y-97836051D01*
X108897147Y-97846174D01*
X108853385Y-97900895D01*
X108837033Y-97917246D01*
X108825013Y-97936373D01*
X108781593Y-97990665D01*
X108776263Y-98013936D01*
X108763549Y-98034165D01*
X108759800Y-98067319D01*
X108293590Y-98067319D01*
X108177552Y-98090401D01*
X108068660Y-98163160D01*
X107995901Y-98272052D01*
X107972819Y-98388090D01*
X107972819Y-100112910D01*
X107995901Y-100228948D01*
X108068660Y-100337840D01*
X108177552Y-100410599D01*
X108293590Y-100433681D01*
X109829201Y-100433681D01*
X109829202Y-100815990D01*
X109825429Y-100812824D01*
X109622782Y-100701418D01*
X109401931Y-100631359D01*
X109211079Y-100611300D01*
X109097875Y-100611300D01*
X108925852Y-100628167D01*
X108704470Y-100695007D01*
X108500286Y-100803573D01*
X108321079Y-100949730D01*
X108173674Y-101127913D01*
X108063685Y-101331333D01*
X107995302Y-101552243D01*
X107971130Y-101782228D01*
X107992088Y-102012528D01*
X108057381Y-102234371D01*
X108164519Y-102439307D01*
X108309422Y-102619530D01*
X108486571Y-102768176D01*
X108689218Y-102879582D01*
X108910069Y-102949641D01*
X109100921Y-102969700D01*
X109214125Y-102969700D01*
X109386148Y-102952833D01*
X109607530Y-102885993D01*
X109811714Y-102777427D01*
X109829202Y-102763164D01*
X109829202Y-103083976D01*
X109755981Y-103157198D01*
X109755979Y-103157199D01*
X109654386Y-103258792D01*
X109622782Y-103241418D01*
X109401931Y-103171359D01*
X109211079Y-103151300D01*
X109097875Y-103151300D01*
X108925852Y-103168167D01*
X108704470Y-103235007D01*
X108500286Y-103343573D01*
X108321079Y-103489730D01*
X108173674Y-103667913D01*
X108063685Y-103871333D01*
X107995302Y-104092243D01*
X107971130Y-104322228D01*
X107992088Y-104552528D01*
X108057381Y-104774371D01*
X108164519Y-104979307D01*
X108309422Y-105159530D01*
X108486571Y-105308176D01*
X108689218Y-105419582D01*
X108910069Y-105489641D01*
X109100921Y-105509700D01*
X109214125Y-105509700D01*
X109386148Y-105492833D01*
X109607530Y-105425993D01*
X109811714Y-105317427D01*
X109990921Y-105171270D01*
X110138326Y-104993087D01*
X110248315Y-104789667D01*
X110316698Y-104568757D01*
X110340870Y-104338772D01*
X110319912Y-104108472D01*
X110254619Y-103886629D01*
X110226665Y-103833157D01*
X110329390Y-103730432D01*
X110329391Y-103730430D01*
X110472374Y-103587448D01*
X110493455Y-103577325D01*
X110537217Y-103522604D01*
X110553565Y-103506257D01*
X110565589Y-103487129D01*
X110609010Y-103432831D01*
X110614339Y-103409563D01*
X110627052Y-103389336D01*
X110634930Y-103319655D01*
X110640001Y-103297515D01*
X110640001Y-103274805D01*
X110647831Y-103205549D01*
X110640001Y-103183127D01*
X110640001Y-102315896D01*
X110704519Y-102439307D01*
X110849422Y-102619530D01*
X111026571Y-102768176D01*
X111229218Y-102879582D01*
X111450069Y-102949641D01*
X111640921Y-102969700D01*
X111754125Y-102969700D01*
X111926148Y-102952833D01*
X112147530Y-102885993D01*
X112351714Y-102777427D01*
X112369202Y-102763164D01*
X112369202Y-103083976D01*
X112295981Y-103157198D01*
X112295979Y-103157199D01*
X112194386Y-103258792D01*
X112162782Y-103241418D01*
X111941931Y-103171359D01*
X111751079Y-103151300D01*
X111637875Y-103151300D01*
X111465852Y-103168167D01*
X111244470Y-103235007D01*
X111040286Y-103343573D01*
X110861079Y-103489730D01*
X110713674Y-103667913D01*
X110603685Y-103871333D01*
X110535302Y-104092243D01*
X110511130Y-104322228D01*
X110532088Y-104552528D01*
X110597381Y-104774371D01*
X110704519Y-104979307D01*
X110849422Y-105159530D01*
X111026571Y-105308176D01*
X111229218Y-105419582D01*
X111450069Y-105489641D01*
X111640921Y-105509700D01*
X111754125Y-105509700D01*
X111926148Y-105492833D01*
X112147530Y-105425993D01*
X112351714Y-105317427D01*
X112530921Y-105171270D01*
X112678326Y-104993087D01*
X112788315Y-104789667D01*
X112856698Y-104568757D01*
X112880870Y-104338772D01*
X112859912Y-104108472D01*
X112794619Y-103886629D01*
X112766665Y-103833157D01*
X112869390Y-103730432D01*
X112869391Y-103730430D01*
X113012374Y-103587448D01*
X113033455Y-103577325D01*
X113077217Y-103522604D01*
X113093565Y-103506257D01*
X113105589Y-103487129D01*
X113149010Y-103432831D01*
X113154339Y-103409563D01*
X113167052Y-103389336D01*
X113174930Y-103319655D01*
X113180001Y-103297515D01*
X113180001Y-103274805D01*
X113187831Y-103205549D01*
X113180001Y-103183127D01*
X113180001Y-98196136D01*
X113187749Y-98174073D01*
X113180001Y-98104449D01*
X113180001Y-98081314D01*
X113174975Y-98059281D01*
X113167287Y-97990195D01*
X113154603Y-97969975D01*
X113149289Y-97946677D01*
X113105583Y-97891829D01*
X113093519Y-97872596D01*
X113077460Y-97856537D01*
X113034024Y-97802028D01*
X113012633Y-97791710D01*
X111491720Y-96270799D01*
X111556099Y-96174448D01*
X111577273Y-96068002D01*
X111676947Y-96145735D01*
X111874533Y-96205579D01*
X112080417Y-96190280D01*
X112266988Y-96101888D01*
X112409229Y-95952258D01*
X112488350Y-95760771D01*
X112491009Y-95543149D01*
X112416590Y-95349785D01*
X112341800Y-95267159D01*
X112341800Y-94803135D01*
X112349548Y-94781072D01*
X112341800Y-94711447D01*
X112341800Y-94688313D01*
X112336774Y-94666280D01*
X112329086Y-94597193D01*
X112316401Y-94576971D01*
X112311087Y-94553676D01*
X112267385Y-94498832D01*
X112255317Y-94479594D01*
X112239259Y-94463536D01*
X112195823Y-94409027D01*
X112174432Y-94398709D01*
X111733949Y-93958228D01*
X111723826Y-93937146D01*
X111669100Y-93893380D01*
X111652756Y-93877035D01*
X111633630Y-93865014D01*
X111579335Y-93821593D01*
X111556062Y-93816262D01*
X111536411Y-93803913D01*
X111556099Y-93774448D01*
X111579181Y-93658410D01*
X111579181Y-93133590D01*
X111556099Y-93017552D01*
X111483340Y-92908660D01*
X111374448Y-92835901D01*
X111258410Y-92812819D01*
X110433590Y-92812819D01*
X110317552Y-92835901D01*
X110208660Y-92908660D01*
X110150762Y-92995311D01*
X110149380Y-92995626D01*
X110080291Y-93003314D01*
X110060071Y-93015998D01*
X110036776Y-93021312D01*
X109981926Y-93065020D01*
X109962693Y-93077085D01*
X109946641Y-93093137D01*
X109892127Y-93136577D01*
X109881808Y-93157970D01*
X109779181Y-93260597D01*
X109779181Y-93133590D01*
X109756099Y-93017552D01*
X109683340Y-92908660D01*
X109574448Y-92835901D01*
X109458410Y-92812819D01*
X108633590Y-92812819D01*
X108517552Y-92835901D01*
X108467166Y-92869568D01*
X108451300Y-92856880D01*
X108434956Y-92840535D01*
X108415830Y-92828514D01*
X108361535Y-92785093D01*
X108338262Y-92779762D01*
X108318033Y-92767049D01*
X108248353Y-92759170D01*
X108226215Y-92754100D01*
X108203507Y-92754100D01*
X108134250Y-92746269D01*
X108111827Y-92754100D01*
X101435036Y-92754100D01*
X101396046Y-92711025D01*
X101211690Y-92618102D01*
X101006244Y-92597777D01*
X100807254Y-92652775D01*
X100641404Y-92775720D01*
X100530935Y-92950129D01*
X100514948Y-93030500D01*
X98842077Y-93030500D01*
X98862127Y-92988931D01*
X98862168Y-92942070D01*
X98862200Y-92941930D01*
X98862200Y-92933098D01*
X98928352Y-92977299D01*
X99044390Y-93000381D01*
X99469210Y-93000381D01*
X99585248Y-92977299D01*
X99631800Y-92946194D01*
X99678352Y-92977299D01*
X99794390Y-93000381D01*
X100319210Y-93000381D01*
X100435248Y-92977299D01*
X100544140Y-92904540D01*
X100616899Y-92795648D01*
X100639981Y-92679610D01*
X100639981Y-91854790D01*
X100616899Y-91738752D01*
X100544140Y-91629860D01*
X100457489Y-91571962D01*
X100457173Y-91570576D01*
X100449486Y-91501492D01*
X100443743Y-91492337D01*
X100453150Y-91469571D01*
X100455809Y-91251949D01*
X100381390Y-91058586D01*
X100242846Y-90905525D01*
X100058490Y-90812602D01*
X99853044Y-90792277D01*
X99654054Y-90847275D01*
X99488204Y-90970220D01*
X99377735Y-91144629D01*
X99370886Y-91179064D01*
X94701750Y-86509930D01*
X94691626Y-86488846D01*
X94636900Y-86445080D01*
X94620556Y-86428735D01*
X94601430Y-86416714D01*
X94547135Y-86373293D01*
X94523862Y-86367962D01*
X94503633Y-86355249D01*
X94433953Y-86347370D01*
X94411815Y-86342300D01*
X94389107Y-86342300D01*
X94319850Y-86334469D01*
X94297427Y-86342300D01*
X86004735Y-86342300D01*
X85982672Y-86334552D01*
X85913047Y-86342300D01*
X85889913Y-86342300D01*
X85867880Y-86347326D01*
X85798793Y-86355014D01*
X85778571Y-86367699D01*
X85755276Y-86373013D01*
X85700432Y-86416715D01*
X85681194Y-86428783D01*
X85665136Y-86444841D01*
X85610627Y-86488277D01*
X85600309Y-86509668D01*
X84868693Y-87241286D01*
X84848317Y-87202310D01*
X84701742Y-87020008D01*
X84522550Y-86869648D01*
X84317565Y-86756957D01*
X84094172Y-86686092D01*
X83901106Y-86665800D01*
X83786601Y-86665800D01*
X83612597Y-86682861D01*
X83388662Y-86750472D01*
X83182124Y-86860290D01*
X83000850Y-87008133D01*
X82851744Y-87188371D01*
X82740487Y-87394137D01*
X82671316Y-87617595D01*
X82646864Y-87850232D01*
X82668064Y-88083188D01*
X82734110Y-88307591D01*
X82842483Y-88514890D01*
X82989058Y-88697192D01*
X83168250Y-88847552D01*
X83373235Y-88960243D01*
X83596628Y-89031108D01*
X83789694Y-89051400D01*
X83904199Y-89051400D01*
X84078203Y-89034339D01*
X84302138Y-88966728D01*
X84508676Y-88856910D01*
X84689950Y-88709067D01*
X84839056Y-88528829D01*
X84950313Y-88323063D01*
X84968585Y-88264035D01*
X85030024Y-88264088D01*
X85072396Y-88243741D01*
X85118225Y-88233287D01*
X85154707Y-88204216D01*
X85196754Y-88184026D01*
X85226109Y-88147319D01*
X85226781Y-88146783D01*
X85274110Y-88307591D01*
X85382483Y-88514890D01*
X85529058Y-88697192D01*
X85708250Y-88847552D01*
X85913235Y-88960243D01*
X86136628Y-89031108D01*
X86329694Y-89051400D01*
X86444199Y-89051400D01*
X86618203Y-89034339D01*
X86842138Y-88966728D01*
X87048676Y-88856910D01*
X87229950Y-88709067D01*
X87379056Y-88528829D01*
X87408027Y-88475248D01*
X88299152Y-89366375D01*
X88304594Y-89377708D01*
X88262124Y-89400290D01*
X88080850Y-89548133D01*
X87931744Y-89728371D01*
X87820487Y-89934137D01*
X87751316Y-90157595D01*
X87726864Y-90390232D01*
X87748064Y-90623188D01*
X87814110Y-90847591D01*
X87922483Y-91054890D01*
X88069058Y-91237192D01*
X88248250Y-91387552D01*
X88453235Y-91500243D01*
X88676628Y-91571108D01*
X88869694Y-91591400D01*
X88984199Y-91591400D01*
X89158203Y-91574339D01*
X89382138Y-91506728D01*
X89588676Y-91396910D01*
X89769950Y-91249067D01*
X89919056Y-91068829D01*
X90030313Y-90863063D01*
X90099484Y-90639605D01*
X90123936Y-90406968D01*
X90102736Y-90174012D01*
X90036690Y-89949609D01*
X89928317Y-89742310D01*
X89781742Y-89560008D01*
X89750747Y-89534000D01*
X90808980Y-89534000D01*
X94305479Y-93030500D01*
X87978135Y-93030500D01*
X87956072Y-93022752D01*
X87886447Y-93030500D01*
X87863313Y-93030500D01*
X87841280Y-93035526D01*
X87772191Y-93043214D01*
X87751971Y-93055898D01*
X87728676Y-93061212D01*
X87673826Y-93104920D01*
X87654593Y-93116985D01*
X87638541Y-93133037D01*
X87584027Y-93176477D01*
X87573707Y-93197872D01*
X82404894Y-98366686D01*
X82384517Y-98327710D01*
X82237942Y-98145408D01*
X82058750Y-97995048D01*
X81853765Y-97882357D01*
X81630372Y-97811492D01*
X81437306Y-97791200D01*
X81322801Y-97791200D01*
X81148797Y-97808261D01*
X80924862Y-97875872D01*
X80718324Y-97985690D01*
X80537050Y-98133533D01*
X80387944Y-98313771D01*
X80276687Y-98519537D01*
X80273028Y-98531356D01*
X80187865Y-98315708D01*
X80056019Y-98098430D01*
X79889447Y-97906475D01*
X79692916Y-97745329D01*
X79472042Y-97619600D01*
X79230325Y-97531861D01*
X78969600Y-97497304D01*
X78969600Y-99112000D01*
X77338216Y-99112000D01*
X77360435Y-99217897D01*
X77113142Y-98970581D01*
X77108101Y-98960268D01*
X77035371Y-98892802D01*
X77005913Y-98863341D01*
X76997075Y-98857278D01*
X76995698Y-98856000D01*
X77347839Y-98856000D01*
X78713600Y-98856000D01*
X78713600Y-97469970D01*
X78342358Y-97566325D01*
X78110633Y-97670710D01*
X77899807Y-97812645D01*
X77715910Y-97988074D01*
X77564202Y-98191979D01*
X77449017Y-98418530D01*
X77373650Y-98661250D01*
X77347839Y-98856000D01*
X76995698Y-98856000D01*
X76944105Y-98808142D01*
X76911833Y-98798797D01*
X76872189Y-98771599D01*
X76660808Y-98721425D01*
X76591895Y-98730800D01*
X68081780Y-98730800D01*
X68047481Y-98665193D01*
X67902578Y-98484970D01*
X67725429Y-98336324D01*
X67653535Y-98296800D01*
X75304165Y-98296800D01*
X75326228Y-98304548D01*
X75395852Y-98296800D01*
X75418987Y-98296800D01*
X75441020Y-98291774D01*
X75510108Y-98284086D01*
X75530328Y-98271401D01*
X75553623Y-98266088D01*
X75608480Y-98222376D01*
X75627706Y-98210315D01*
X75643750Y-98194270D01*
X75698273Y-98150823D01*
X75708594Y-98129427D01*
X82822107Y-91015915D01*
X82842483Y-91054890D01*
X82989058Y-91237192D01*
X83168250Y-91387552D01*
X83373235Y-91500243D01*
X83596628Y-91571108D01*
X83789694Y-91591400D01*
X83904199Y-91591400D01*
X84078203Y-91574339D01*
X84302138Y-91506728D01*
X84508676Y-91396910D01*
X84689950Y-91249067D01*
X84839056Y-91068829D01*
X84950313Y-90863063D01*
X85019484Y-90639605D01*
X85043936Y-90406968D01*
X85042413Y-90390232D01*
X85186864Y-90390232D01*
X85208064Y-90623188D01*
X85274110Y-90847591D01*
X85382483Y-91054890D01*
X85529058Y-91237192D01*
X85708250Y-91387552D01*
X85913235Y-91500243D01*
X86136628Y-91571108D01*
X86329694Y-91591400D01*
X86444199Y-91591400D01*
X86618203Y-91574339D01*
X86842138Y-91506728D01*
X87048676Y-91396910D01*
X87229950Y-91249067D01*
X87379056Y-91068829D01*
X87490313Y-90863063D01*
X87559484Y-90639605D01*
X87583936Y-90406968D01*
X87562736Y-90174012D01*
X87496690Y-89949609D01*
X87388317Y-89742310D01*
X87241742Y-89560008D01*
X87062550Y-89409648D01*
X86857565Y-89296957D01*
X86634172Y-89226092D01*
X86441106Y-89205800D01*
X86326601Y-89205800D01*
X86152597Y-89222861D01*
X85928662Y-89290472D01*
X85722124Y-89400290D01*
X85540850Y-89548133D01*
X85391744Y-89728371D01*
X85280487Y-89934137D01*
X85211316Y-90157595D01*
X85186864Y-90390232D01*
X85042413Y-90390232D01*
X85022736Y-90174012D01*
X84956690Y-89949609D01*
X84848317Y-89742310D01*
X84701742Y-89560008D01*
X84522550Y-89409648D01*
X84317565Y-89296957D01*
X84094172Y-89226092D01*
X83901106Y-89205800D01*
X83786601Y-89205800D01*
X83612597Y-89222861D01*
X83388662Y-89290472D01*
X83182124Y-89400290D01*
X83000850Y-89548133D01*
X82851744Y-89728371D01*
X82740487Y-89934137D01*
X82722215Y-89993165D01*
X82660776Y-89993112D01*
X82618406Y-90013458D01*
X82572576Y-90023912D01*
X82536092Y-90052984D01*
X82494046Y-90073174D01*
X82464689Y-90109883D01*
X82464019Y-90110417D01*
X82416690Y-89949609D01*
X82308317Y-89742310D01*
X82161742Y-89560008D01*
X81982550Y-89409648D01*
X81777565Y-89296957D01*
X81554172Y-89226092D01*
X81361106Y-89205800D01*
X81246601Y-89205800D01*
X81072597Y-89222861D01*
X80848662Y-89290472D01*
X80642124Y-89400290D01*
X80460850Y-89548133D01*
X80311744Y-89728371D01*
X80200487Y-89934137D01*
X80131316Y-90157595D01*
X80106864Y-90390232D01*
X80128064Y-90623188D01*
X80194110Y-90847591D01*
X80302483Y-91054890D01*
X80449058Y-91237192D01*
X80628250Y-91387552D01*
X80833235Y-91500243D01*
X81056628Y-91571108D01*
X81114218Y-91577161D01*
X75205380Y-97486000D01*
X67997448Y-97486000D01*
X68038326Y-97436587D01*
X68148315Y-97233167D01*
X68216698Y-97012257D01*
X68240870Y-96782272D01*
X68219912Y-96551972D01*
X68154619Y-96330129D01*
X68047481Y-96125193D01*
X67902578Y-95944970D01*
X67725429Y-95796324D01*
X67522782Y-95684918D01*
X67301931Y-95614859D01*
X67111079Y-95594800D01*
X66997875Y-95594800D01*
X66825852Y-95611667D01*
X66604470Y-95678507D01*
X66400286Y-95787073D01*
X66221079Y-95933230D01*
X66073674Y-96111413D01*
X65963685Y-96314833D01*
X65895302Y-96535743D01*
X65871130Y-96765728D01*
X65892088Y-96996028D01*
X65957381Y-97217871D01*
X66064519Y-97422807D01*
X66209422Y-97603030D01*
X66386571Y-97751676D01*
X66440600Y-97781378D01*
X65744358Y-98477621D01*
X65719389Y-98436473D01*
X65554331Y-98246261D01*
X65359584Y-98086578D01*
X65140716Y-97961991D01*
X64922960Y-97882950D01*
X64967530Y-97869493D01*
X65171714Y-97760927D01*
X65350921Y-97614770D01*
X65498326Y-97436587D01*
X65608315Y-97233167D01*
X65676698Y-97012257D01*
X65700870Y-96782272D01*
X65679912Y-96551972D01*
X65614619Y-96330129D01*
X65507481Y-96125193D01*
X65362578Y-95944970D01*
X65185429Y-95796324D01*
X64982782Y-95684918D01*
X64761931Y-95614859D01*
X64571079Y-95594800D01*
X64457875Y-95594800D01*
X64285852Y-95611667D01*
X64064470Y-95678507D01*
X63860286Y-95787073D01*
X63681079Y-95933230D01*
X63533674Y-96111413D01*
X63423685Y-96314833D01*
X63355302Y-96535743D01*
X63331130Y-96765728D01*
X63352088Y-96996028D01*
X63417381Y-97217871D01*
X63524519Y-97422807D01*
X63669422Y-97603030D01*
X63846571Y-97751676D01*
X64049218Y-97863082D01*
X64116610Y-97884460D01*
X64021292Y-97909200D01*
X63791671Y-98012637D01*
X63582760Y-98153284D01*
X63400534Y-98327119D01*
X63250203Y-98529172D01*
X63136064Y-98753666D01*
X63061382Y-98994181D01*
X63035957Y-99186000D01*
X62329200Y-99186000D01*
X62329200Y-94225728D01*
X63331130Y-94225728D01*
X63352088Y-94456028D01*
X63417381Y-94677871D01*
X63524519Y-94882807D01*
X63669422Y-95063030D01*
X63846571Y-95211676D01*
X64049218Y-95323082D01*
X64270069Y-95393141D01*
X64460921Y-95413200D01*
X64574125Y-95413200D01*
X64746148Y-95396333D01*
X64967530Y-95329493D01*
X65171714Y-95220927D01*
X65350921Y-95074770D01*
X65498326Y-94896587D01*
X65608315Y-94693167D01*
X65676698Y-94472257D01*
X65700870Y-94242272D01*
X65699365Y-94225728D01*
X65871130Y-94225728D01*
X65892088Y-94456028D01*
X65957381Y-94677871D01*
X66064519Y-94882807D01*
X66209422Y-95063030D01*
X66386571Y-95211676D01*
X66589218Y-95323082D01*
X66810069Y-95393141D01*
X67000921Y-95413200D01*
X67114125Y-95413200D01*
X67286148Y-95396333D01*
X67507530Y-95329493D01*
X67711714Y-95220927D01*
X67890921Y-95074770D01*
X68038326Y-94896587D01*
X68148315Y-94693167D01*
X68216698Y-94472257D01*
X68240870Y-94242272D01*
X68219912Y-94011972D01*
X68154619Y-93790129D01*
X68047481Y-93585193D01*
X67902578Y-93404970D01*
X67725429Y-93256324D01*
X67522782Y-93144918D01*
X67301931Y-93074859D01*
X67111079Y-93054800D01*
X66997875Y-93054800D01*
X66825852Y-93071667D01*
X66604470Y-93138507D01*
X66400286Y-93247073D01*
X66221079Y-93393230D01*
X66073674Y-93571413D01*
X65963685Y-93774833D01*
X65895302Y-93995743D01*
X65871130Y-94225728D01*
X65699365Y-94225728D01*
X65679912Y-94011972D01*
X65614619Y-93790129D01*
X65507481Y-93585193D01*
X65362578Y-93404970D01*
X65185429Y-93256324D01*
X64982782Y-93144918D01*
X64761931Y-93074859D01*
X64571079Y-93054800D01*
X64457875Y-93054800D01*
X64285852Y-93071667D01*
X64064470Y-93138507D01*
X63860286Y-93247073D01*
X63681079Y-93393230D01*
X63533674Y-93571413D01*
X63423685Y-93774833D01*
X63355302Y-93995743D01*
X63331130Y-94225728D01*
X62329200Y-94225728D01*
X62329200Y-91685728D01*
X63331130Y-91685728D01*
X63352088Y-91916028D01*
X63417381Y-92137871D01*
X63524519Y-92342807D01*
X63669422Y-92523030D01*
X63846571Y-92671676D01*
X64049218Y-92783082D01*
X64270069Y-92853141D01*
X64460921Y-92873200D01*
X64574125Y-92873200D01*
X64746148Y-92856333D01*
X64967530Y-92789493D01*
X65171714Y-92680927D01*
X65350921Y-92534770D01*
X65498326Y-92356587D01*
X65608315Y-92153167D01*
X65676698Y-91932257D01*
X65700870Y-91702272D01*
X65699365Y-91685728D01*
X65871130Y-91685728D01*
X65892088Y-91916028D01*
X65957381Y-92137871D01*
X66064519Y-92342807D01*
X66209422Y-92523030D01*
X66386571Y-92671676D01*
X66589218Y-92783082D01*
X66810069Y-92853141D01*
X67000921Y-92873200D01*
X67114125Y-92873200D01*
X67286148Y-92856333D01*
X67507530Y-92789493D01*
X67711714Y-92680927D01*
X67890921Y-92534770D01*
X68038326Y-92356587D01*
X68148315Y-92153167D01*
X68216698Y-91932257D01*
X68240870Y-91702272D01*
X68219912Y-91471972D01*
X68154619Y-91250129D01*
X68047481Y-91045193D01*
X67902578Y-90864970D01*
X67725429Y-90716324D01*
X67522782Y-90604918D01*
X67301931Y-90534859D01*
X67111079Y-90514800D01*
X66997875Y-90514800D01*
X66825852Y-90531667D01*
X66604470Y-90598507D01*
X66400286Y-90707073D01*
X66221079Y-90853230D01*
X66073674Y-91031413D01*
X65963685Y-91234833D01*
X65895302Y-91455743D01*
X65871130Y-91685728D01*
X65699365Y-91685728D01*
X65679912Y-91471972D01*
X65614619Y-91250129D01*
X65507481Y-91045193D01*
X65362578Y-90864970D01*
X65185429Y-90716324D01*
X64982782Y-90604918D01*
X64761931Y-90534859D01*
X64571079Y-90514800D01*
X64457875Y-90514800D01*
X64285852Y-90531667D01*
X64064470Y-90598507D01*
X63860286Y-90707073D01*
X63681079Y-90853230D01*
X63533674Y-91031413D01*
X63423685Y-91234833D01*
X63355302Y-91455743D01*
X63331130Y-91685728D01*
X62329200Y-91685728D01*
X62329200Y-88291590D01*
X63332819Y-88291590D01*
X63332819Y-90016410D01*
X63355901Y-90132448D01*
X63428660Y-90241340D01*
X63537552Y-90314099D01*
X63653590Y-90337181D01*
X65378410Y-90337181D01*
X65494448Y-90314099D01*
X65603340Y-90241340D01*
X65676099Y-90132448D01*
X65699181Y-90016410D01*
X65699181Y-89145728D01*
X65871130Y-89145728D01*
X65892088Y-89376028D01*
X65957381Y-89597871D01*
X66064519Y-89802807D01*
X66209422Y-89983030D01*
X66386571Y-90131676D01*
X66589218Y-90243082D01*
X66810069Y-90313141D01*
X67000921Y-90333200D01*
X67114125Y-90333200D01*
X67286148Y-90316333D01*
X67507530Y-90249493D01*
X67711714Y-90140927D01*
X67890921Y-89994770D01*
X68038326Y-89816587D01*
X68148315Y-89613167D01*
X68216698Y-89392257D01*
X68240870Y-89162272D01*
X68219912Y-88931972D01*
X68154619Y-88710129D01*
X68047481Y-88505193D01*
X67902578Y-88324970D01*
X67725429Y-88176324D01*
X67522782Y-88064918D01*
X67301931Y-87994859D01*
X67223351Y-87986600D01*
X77262016Y-87986600D01*
X77325782Y-88290506D01*
X77419135Y-88526892D01*
X77550981Y-88744170D01*
X77717553Y-88936125D01*
X77914084Y-89097271D01*
X78097748Y-89201819D01*
X77889390Y-89201819D01*
X77773352Y-89224901D01*
X77664460Y-89297660D01*
X77591701Y-89406552D01*
X77568619Y-89522590D01*
X77568619Y-91274610D01*
X77591701Y-91390648D01*
X77664460Y-91499540D01*
X77773352Y-91572299D01*
X77889390Y-91595381D01*
X79641410Y-91595381D01*
X79757448Y-91572299D01*
X79866340Y-91499540D01*
X79939099Y-91390648D01*
X79962181Y-91274610D01*
X79962181Y-89522590D01*
X79939099Y-89406552D01*
X79866340Y-89297660D01*
X79757448Y-89224901D01*
X79641410Y-89201819D01*
X79429927Y-89201819D01*
X79496367Y-89171890D01*
X79707193Y-89029955D01*
X79891090Y-88854526D01*
X80042798Y-88650621D01*
X80157983Y-88424070D01*
X80194136Y-88307640D01*
X80302483Y-88514890D01*
X80449058Y-88697192D01*
X80628250Y-88847552D01*
X80833235Y-88960243D01*
X81056628Y-89031108D01*
X81249694Y-89051400D01*
X81364199Y-89051400D01*
X81538203Y-89034339D01*
X81762138Y-88966728D01*
X81968676Y-88856910D01*
X82149950Y-88709067D01*
X82299056Y-88528829D01*
X82410313Y-88323063D01*
X82479484Y-88099605D01*
X82503936Y-87866968D01*
X82482736Y-87634012D01*
X82416690Y-87409609D01*
X82308317Y-87202310D01*
X82161742Y-87020008D01*
X81982550Y-86869648D01*
X81777565Y-86756957D01*
X81554172Y-86686092D01*
X81361106Y-86665800D01*
X81246601Y-86665800D01*
X81072597Y-86682861D01*
X80848662Y-86750472D01*
X80642124Y-86860290D01*
X80460850Y-87008133D01*
X80311744Y-87188371D01*
X80200487Y-87394137D01*
X80196828Y-87405956D01*
X80111665Y-87190308D01*
X79979819Y-86973030D01*
X79813247Y-86781075D01*
X79616716Y-86619929D01*
X79395842Y-86494200D01*
X79154125Y-86406461D01*
X78893400Y-86371904D01*
X78893400Y-87986600D01*
X77262016Y-87986600D01*
X67223351Y-87986600D01*
X67111079Y-87974800D01*
X66997875Y-87974800D01*
X66825852Y-87991667D01*
X66604470Y-88058507D01*
X66400286Y-88167073D01*
X66221079Y-88313230D01*
X66073674Y-88491413D01*
X65963685Y-88694833D01*
X65895302Y-88915743D01*
X65871130Y-89145728D01*
X65699181Y-89145728D01*
X65699181Y-88291590D01*
X65676099Y-88175552D01*
X65603340Y-88066660D01*
X65494448Y-87993901D01*
X65378410Y-87970819D01*
X63653590Y-87970819D01*
X63537552Y-87993901D01*
X63428660Y-88066660D01*
X63355901Y-88175552D01*
X63332819Y-88291590D01*
X62329200Y-88291590D01*
X62329200Y-87730600D01*
X77271639Y-87730600D01*
X78637400Y-87730600D01*
X78637400Y-86344570D01*
X78266158Y-86440925D01*
X78034433Y-86545310D01*
X77823607Y-86687245D01*
X77639710Y-86862674D01*
X77488002Y-87066579D01*
X77372817Y-87293130D01*
X77297450Y-87535850D01*
X77271639Y-87730600D01*
X62329200Y-87730600D01*
X62329200Y-84049222D01*
X62332591Y-84038131D01*
X62333590Y-84023621D01*
X62351872Y-83765437D01*
X62401364Y-83535554D01*
X62482753Y-83314937D01*
X62594418Y-83107985D01*
X62734125Y-82918838D01*
X62899087Y-82751265D01*
X63086021Y-82608601D01*
X63291196Y-82493698D01*
X63510493Y-82408858D01*
X63739577Y-82355759D01*
X63984352Y-82334560D01*
X64016819Y-82334304D01*
X64038410Y-82329200D01*
X112950778Y-82329200D01*
X112961869Y-82332591D01*
X112961869Y-82332591D01*
G37*
X112961869Y-82332591D02*
X112976516Y-82333600D01*
X113234563Y-82351872D01*
X113464446Y-82401364D01*
X113685063Y-82482753D01*
X113892015Y-82594418D01*
X114081162Y-82734125D01*
X114248735Y-82899087D01*
X114391399Y-83086021D01*
X114506302Y-83291196D01*
X114591142Y-83510493D01*
X114644241Y-83739577D01*
X114665440Y-83984352D01*
X114665696Y-84016819D01*
X114670801Y-84038414D01*
X114670800Y-112950778D01*
X114667409Y-112961869D01*
X114666410Y-112976380D01*
X114648129Y-113234556D01*
X114598636Y-113464447D01*
X114517246Y-113685066D01*
X114405581Y-113892016D01*
X114265875Y-114081162D01*
X114100917Y-114248732D01*
X113913979Y-114391399D01*
X113708804Y-114506302D01*
X113489507Y-114591142D01*
X113260423Y-114644241D01*
X113015648Y-114665440D01*
X112983181Y-114665696D01*
X112961590Y-114670800D01*
X64049222Y-114670800D01*
X64038131Y-114667409D01*
X64023448Y-114666398D01*
X63765444Y-114648129D01*
X63535553Y-114598636D01*
X63314934Y-114517246D01*
X63107984Y-114405581D01*
X62918838Y-114265875D01*
X62751268Y-114100917D01*
X62608601Y-113913979D01*
X62493698Y-113708804D01*
X62408858Y-113489507D01*
X62355759Y-113260423D01*
X62334560Y-113015648D01*
X62334304Y-112983181D01*
X62329200Y-112961590D01*
X62329200Y-110579590D01*
X65174319Y-110579590D01*
X65174319Y-112304410D01*
X65197401Y-112420448D01*
X65270160Y-112529340D01*
X65379052Y-112602099D01*
X65495090Y-112625181D01*
X67219910Y-112625181D01*
X67335948Y-112602099D01*
X67444840Y-112529340D01*
X67517599Y-112420448D01*
X67540681Y-112304410D01*
X67540681Y-110579590D01*
X67517599Y-110463552D01*
X67444840Y-110354660D01*
X67335948Y-110281901D01*
X67219910Y-110258819D01*
X65495090Y-110258819D01*
X65379052Y-110281901D01*
X65270160Y-110354660D01*
X65197401Y-110463552D01*
X65174319Y-110579590D01*
X62329200Y-110579590D01*
X62329200Y-99442000D01*
X63026513Y-99442000D01*
X63089456Y-99741983D01*
X63181961Y-99976222D01*
X63312610Y-100191526D01*
X63477669Y-100381739D01*
X63672416Y-100541422D01*
X63891284Y-100666009D01*
X64130831Y-100752960D01*
X64388000Y-100787047D01*
X64388000Y-99442000D01*
X63026513Y-99442000D01*
X62329200Y-99442000D01*
X62329200Y-99186000D01*
X63035957Y-99186000D01*
X64644000Y-99186000D01*
X64644000Y-100813978D01*
X65010708Y-100718800D01*
X65240329Y-100615363D01*
X65449240Y-100474716D01*
X65571601Y-100357989D01*
X65571600Y-104833465D01*
X65563852Y-104855528D01*
X65571600Y-104925152D01*
X65571600Y-104948286D01*
X65576627Y-104970321D01*
X65584314Y-105039408D01*
X65596999Y-105059628D01*
X65602312Y-105082922D01*
X65646017Y-105137770D01*
X65658085Y-105157006D01*
X65674130Y-105173051D01*
X65717576Y-105227573D01*
X65738974Y-105237894D01*
X68355624Y-107854544D01*
X68241786Y-107915073D01*
X68062579Y-108061230D01*
X67915174Y-108239413D01*
X67805185Y-108442833D01*
X67746878Y-108631192D01*
X67725117Y-108613788D01*
X67695824Y-108577028D01*
X67653810Y-108556762D01*
X67617333Y-108527591D01*
X67571633Y-108517125D01*
X67529231Y-108496673D01*
X67482370Y-108496632D01*
X67482230Y-108496600D01*
X67467442Y-108496600D01*
X67456119Y-108458129D01*
X67348981Y-108253193D01*
X67204078Y-108072970D01*
X67026929Y-107924324D01*
X66824282Y-107812918D01*
X66603431Y-107742859D01*
X66412579Y-107722800D01*
X66299375Y-107722800D01*
X66127352Y-107739667D01*
X65905970Y-107806507D01*
X65701786Y-107915073D01*
X65522579Y-108061230D01*
X65375174Y-108239413D01*
X65265185Y-108442833D01*
X65196802Y-108663743D01*
X65172630Y-108893728D01*
X65193588Y-109124028D01*
X65258881Y-109345871D01*
X65366019Y-109550807D01*
X65510922Y-109731030D01*
X65688071Y-109879676D01*
X65890718Y-109991082D01*
X66111569Y-110061141D01*
X66302421Y-110081200D01*
X66415625Y-110081200D01*
X66587648Y-110064333D01*
X66809030Y-109997493D01*
X67013214Y-109888927D01*
X67192421Y-109742770D01*
X67339826Y-109564587D01*
X67357704Y-109531524D01*
X68267553Y-110441373D01*
X68241786Y-110455073D01*
X68062579Y-110601230D01*
X67915174Y-110779413D01*
X67805185Y-110982833D01*
X67736802Y-111203743D01*
X67712630Y-111433728D01*
X67733588Y-111664028D01*
X67798881Y-111885871D01*
X67906019Y-112090807D01*
X68050922Y-112271030D01*
X68228071Y-112419676D01*
X68430718Y-112531082D01*
X68651569Y-112601141D01*
X68842421Y-112621200D01*
X68955625Y-112621200D01*
X69127648Y-112604333D01*
X69349030Y-112537493D01*
X69553214Y-112428927D01*
X69732421Y-112282770D01*
X69879826Y-112104587D01*
X69989815Y-111901167D01*
X70058198Y-111680257D01*
X70082370Y-111450272D01*
X70061412Y-111219972D01*
X69996119Y-110998129D01*
X69888981Y-110793193D01*
X69869047Y-110768400D01*
X70464285Y-110768400D01*
X70455174Y-110779413D01*
X70345185Y-110982833D01*
X70276802Y-111203743D01*
X70252630Y-111433728D01*
X70273588Y-111664028D01*
X70338881Y-111885871D01*
X70446019Y-112090807D01*
X70590922Y-112271030D01*
X70768071Y-112419676D01*
X70970718Y-112531082D01*
X71191569Y-112601141D01*
X71382421Y-112621200D01*
X71495625Y-112621200D01*
X71667648Y-112604333D01*
X71889030Y-112537493D01*
X72093214Y-112428927D01*
X72272421Y-112282770D01*
X72419826Y-112104587D01*
X72529815Y-111901167D01*
X72598198Y-111680257D01*
X72622370Y-111450272D01*
X72601412Y-111219972D01*
X72536119Y-110998129D01*
X72428981Y-110793193D01*
X72409047Y-110768400D01*
X73004285Y-110768400D01*
X72995174Y-110779413D01*
X72885185Y-110982833D01*
X72816802Y-111203743D01*
X72792630Y-111433728D01*
X72813588Y-111664028D01*
X72878881Y-111885871D01*
X72986019Y-112090807D01*
X73130922Y-112271030D01*
X73308071Y-112419676D01*
X73510718Y-112531082D01*
X73731569Y-112601141D01*
X73922421Y-112621200D01*
X74035625Y-112621200D01*
X74207648Y-112604333D01*
X74429030Y-112537493D01*
X74633214Y-112428927D01*
X74812421Y-112282770D01*
X74959826Y-112104587D01*
X75069815Y-111901167D01*
X75086315Y-111847864D01*
X75090956Y-111869983D01*
X75183461Y-112104222D01*
X75314110Y-112319526D01*
X75479169Y-112509739D01*
X75673916Y-112669422D01*
X75892784Y-112794009D01*
X76132331Y-112880960D01*
X76389500Y-112915047D01*
X76389500Y-111570000D01*
X76645500Y-111570000D01*
X76645500Y-112941978D01*
X77012208Y-112846800D01*
X77241829Y-112743363D01*
X77450740Y-112602716D01*
X77632966Y-112428881D01*
X77783297Y-112226828D01*
X77897436Y-112002334D01*
X77972118Y-111761819D01*
X77997543Y-111570000D01*
X76645500Y-111570000D01*
X76389500Y-111570000D01*
X76389500Y-111314000D01*
X78006987Y-111314000D01*
X77944044Y-111014017D01*
X77851539Y-110779778D01*
X77844635Y-110768400D01*
X81920765Y-110768400D01*
X81942828Y-110776148D01*
X82012452Y-110768400D01*
X82035587Y-110768400D01*
X82057620Y-110763374D01*
X82126708Y-110755686D01*
X82146928Y-110743001D01*
X82170223Y-110737688D01*
X82225080Y-110693976D01*
X82244306Y-110681915D01*
X82260350Y-110665870D01*
X82314873Y-110622423D01*
X82325194Y-110601026D01*
X97846610Y-95079612D01*
X97849476Y-95096119D01*
X97955651Y-95273175D01*
X98118447Y-95400135D01*
X98285843Y-95450835D01*
X97461728Y-96274951D01*
X97440647Y-96285074D01*
X97396885Y-96339795D01*
X97380533Y-96356146D01*
X97368513Y-96375273D01*
X97325093Y-96429565D01*
X97319763Y-96452836D01*
X97307049Y-96473065D01*
X97299170Y-96542753D01*
X97294101Y-96564884D01*
X97294101Y-96587584D01*
X97286269Y-96656849D01*
X97294101Y-96679276D01*
X97294100Y-97706765D01*
X97286352Y-97728828D01*
X97294100Y-97798452D01*
X97294100Y-97821586D01*
X97299127Y-97843621D01*
X97306814Y-97912708D01*
X97319499Y-97932928D01*
X97324812Y-97956222D01*
X97368517Y-98011070D01*
X97380585Y-98030306D01*
X97396630Y-98046351D01*
X97440076Y-98100873D01*
X97461474Y-98111194D01*
X99141473Y-99791194D01*
X99026931Y-99754859D01*
X98836079Y-99734800D01*
X98722875Y-99734800D01*
X98550852Y-99751667D01*
X98329470Y-99818507D01*
X98125286Y-99927073D01*
X97946079Y-100073230D01*
X97798674Y-100251413D01*
X97688685Y-100454833D01*
X97672041Y-100508600D01*
X94070535Y-100508600D01*
X94048472Y-100500852D01*
X93978847Y-100508600D01*
X93955713Y-100508600D01*
X93933680Y-100513626D01*
X93864593Y-100521314D01*
X93844371Y-100533999D01*
X93821076Y-100539313D01*
X93766232Y-100583015D01*
X93746994Y-100595083D01*
X93730936Y-100611141D01*
X93676427Y-100654577D01*
X93666108Y-100675970D01*
X86249130Y-108092950D01*
X86228047Y-108103074D01*
X86184285Y-108157795D01*
X86167933Y-108174146D01*
X86155913Y-108193273D01*
X86112493Y-108247565D01*
X86107163Y-108270836D01*
X86094449Y-108291065D01*
X86086570Y-108360753D01*
X86081501Y-108382884D01*
X86081501Y-108405584D01*
X86073669Y-108474849D01*
X86081501Y-108497276D01*
X86081500Y-109349265D01*
X86073752Y-109371328D01*
X86081500Y-109440952D01*
X86081500Y-109464086D01*
X86086527Y-109486121D01*
X86094214Y-109555208D01*
X86106899Y-109575428D01*
X86112212Y-109598722D01*
X86155917Y-109653570D01*
X86167985Y-109672806D01*
X86184030Y-109688851D01*
X86227476Y-109743373D01*
X86248872Y-109753693D01*
X86753997Y-110258819D01*
X86704090Y-110258819D01*
X86588052Y-110281901D01*
X86479160Y-110354660D01*
X86406401Y-110463552D01*
X86383319Y-110579590D01*
X86383319Y-112304410D01*
X86406401Y-112420448D01*
X86479160Y-112529340D01*
X86588052Y-112602099D01*
X86704090Y-112625181D01*
X88428910Y-112625181D01*
X88544948Y-112602099D01*
X88653840Y-112529340D01*
X88726599Y-112420448D01*
X88749681Y-112304410D01*
X88749681Y-111433728D01*
X88921630Y-111433728D01*
X88942588Y-111664028D01*
X89007881Y-111885871D01*
X89115019Y-112090807D01*
X89259922Y-112271030D01*
X89437071Y-112419676D01*
X89639718Y-112531082D01*
X89860569Y-112601141D01*
X90051421Y-112621200D01*
X90164625Y-112621200D01*
X90336648Y-112604333D01*
X90558030Y-112537493D01*
X90762214Y-112428927D01*
X90941421Y-112282770D01*
X91088826Y-112104587D01*
X91198815Y-111901167D01*
X91267198Y-111680257D01*
X91291370Y-111450272D01*
X91289865Y-111433728D01*
X91461630Y-111433728D01*
X91482588Y-111664028D01*
X91547881Y-111885871D01*
X91655019Y-112090807D01*
X91799922Y-112271030D01*
X91977071Y-112419676D01*
X92179718Y-112531082D01*
X92400569Y-112601141D01*
X92591421Y-112621200D01*
X92704625Y-112621200D01*
X92876648Y-112604333D01*
X93098030Y-112537493D01*
X93302214Y-112428927D01*
X93481421Y-112282770D01*
X93628826Y-112104587D01*
X93738815Y-111901167D01*
X93807198Y-111680257D01*
X93831370Y-111450272D01*
X93829865Y-111433728D01*
X94001630Y-111433728D01*
X94022588Y-111664028D01*
X94087881Y-111885871D01*
X94195019Y-112090807D01*
X94339922Y-112271030D01*
X94517071Y-112419676D01*
X94719718Y-112531082D01*
X94940569Y-112601141D01*
X95131421Y-112621200D01*
X95244625Y-112621200D01*
X95416648Y-112604333D01*
X95638030Y-112537493D01*
X95842214Y-112428927D01*
X96021421Y-112282770D01*
X96168826Y-112104587D01*
X96278815Y-111901167D01*
X96347198Y-111680257D01*
X96371370Y-111450272D01*
X96369865Y-111433728D01*
X96541630Y-111433728D01*
X96562588Y-111664028D01*
X96627881Y-111885871D01*
X96735019Y-112090807D01*
X96879922Y-112271030D01*
X97057071Y-112419676D01*
X97259718Y-112531082D01*
X97480569Y-112601141D01*
X97671421Y-112621200D01*
X97784625Y-112621200D01*
X97956648Y-112604333D01*
X98178030Y-112537493D01*
X98382214Y-112428927D01*
X98561421Y-112282770D01*
X98708826Y-112104587D01*
X98818815Y-111901167D01*
X98887198Y-111680257D01*
X98911370Y-111450272D01*
X98890412Y-111219972D01*
X98825119Y-110998129D01*
X98717981Y-110793193D01*
X98573078Y-110612970D01*
X98395929Y-110464324D01*
X98193282Y-110352918D01*
X97972431Y-110282859D01*
X97781579Y-110262800D01*
X97668375Y-110262800D01*
X97496352Y-110279667D01*
X97274970Y-110346507D01*
X97070786Y-110455073D01*
X96891579Y-110601230D01*
X96744174Y-110779413D01*
X96634185Y-110982833D01*
X96565802Y-111203743D01*
X96541630Y-111433728D01*
X96369865Y-111433728D01*
X96350412Y-111219972D01*
X96285119Y-110998129D01*
X96177981Y-110793193D01*
X96033078Y-110612970D01*
X95855929Y-110464324D01*
X95653282Y-110352918D01*
X95432431Y-110282859D01*
X95241579Y-110262800D01*
X95128375Y-110262800D01*
X94956352Y-110279667D01*
X94734970Y-110346507D01*
X94530786Y-110455073D01*
X94351579Y-110601230D01*
X94204174Y-110779413D01*
X94094185Y-110982833D01*
X94025802Y-111203743D01*
X94001630Y-111433728D01*
X93829865Y-111433728D01*
X93810412Y-111219972D01*
X93745119Y-110998129D01*
X93637981Y-110793193D01*
X93493078Y-110612970D01*
X93315929Y-110464324D01*
X93113282Y-110352918D01*
X92892431Y-110282859D01*
X92701579Y-110262800D01*
X92588375Y-110262800D01*
X92416352Y-110279667D01*
X92194970Y-110346507D01*
X91990786Y-110455073D01*
X91811579Y-110601230D01*
X91664174Y-110779413D01*
X91554185Y-110982833D01*
X91485802Y-111203743D01*
X91461630Y-111433728D01*
X91289865Y-111433728D01*
X91270412Y-111219972D01*
X91205119Y-110998129D01*
X91097981Y-110793193D01*
X90953078Y-110612970D01*
X90775929Y-110464324D01*
X90573282Y-110352918D01*
X90352431Y-110282859D01*
X90161579Y-110262800D01*
X90048375Y-110262800D01*
X89876352Y-110279667D01*
X89654970Y-110346507D01*
X89450786Y-110455073D01*
X89271579Y-110601230D01*
X89124174Y-110779413D01*
X89014185Y-110982833D01*
X88945802Y-111203743D01*
X88921630Y-111433728D01*
X88749681Y-111433728D01*
X88749681Y-110579590D01*
X88726599Y-110463552D01*
X88653840Y-110354660D01*
X88544948Y-110281901D01*
X88428910Y-110258819D01*
X87966150Y-110258819D01*
X87951641Y-110228604D01*
X87941187Y-110182775D01*
X87912116Y-110146293D01*
X87891926Y-110104246D01*
X87855217Y-110074888D01*
X87837078Y-110052126D01*
X88018030Y-109997493D01*
X88222214Y-109888927D01*
X88401421Y-109742770D01*
X88548826Y-109564587D01*
X88658815Y-109361167D01*
X88675448Y-109307434D01*
X88737524Y-109307488D01*
X88779896Y-109287141D01*
X88825725Y-109276687D01*
X88862207Y-109247616D01*
X88904254Y-109227426D01*
X88933609Y-109190719D01*
X88956782Y-109172254D01*
X89007881Y-109345871D01*
X89115019Y-109550807D01*
X89259922Y-109731030D01*
X89437071Y-109879676D01*
X89639718Y-109991082D01*
X89860569Y-110061141D01*
X90051421Y-110081200D01*
X90164625Y-110081200D01*
X90336648Y-110064333D01*
X90558030Y-109997493D01*
X90762214Y-109888927D01*
X90941421Y-109742770D01*
X91088826Y-109564587D01*
X91198815Y-109361167D01*
X91267198Y-109140257D01*
X91291370Y-108910272D01*
X91289865Y-108893728D01*
X91461630Y-108893728D01*
X91482588Y-109124028D01*
X91547881Y-109345871D01*
X91655019Y-109550807D01*
X91799922Y-109731030D01*
X91977071Y-109879676D01*
X92179718Y-109991082D01*
X92400569Y-110061141D01*
X92591421Y-110081200D01*
X92704625Y-110081200D01*
X92876648Y-110064333D01*
X93098030Y-109997493D01*
X93302214Y-109888927D01*
X93481421Y-109742770D01*
X93628826Y-109564587D01*
X93738815Y-109361167D01*
X93807198Y-109140257D01*
X93831370Y-108910272D01*
X93829865Y-108893728D01*
X94001630Y-108893728D01*
X94022588Y-109124028D01*
X94087881Y-109345871D01*
X94195019Y-109550807D01*
X94339922Y-109731030D01*
X94517071Y-109879676D01*
X94719718Y-109991082D01*
X94940569Y-110061141D01*
X95131421Y-110081200D01*
X95244625Y-110081200D01*
X95416648Y-110064333D01*
X95638030Y-109997493D01*
X95842214Y-109888927D01*
X96021421Y-109742770D01*
X96168826Y-109564587D01*
X96278815Y-109361167D01*
X96347198Y-109140257D01*
X96371370Y-108910272D01*
X96369865Y-108893728D01*
X96541630Y-108893728D01*
X96562588Y-109124028D01*
X96627881Y-109345871D01*
X96735019Y-109550807D01*
X96879922Y-109731030D01*
X97057071Y-109879676D01*
X97259718Y-109991082D01*
X97480569Y-110061141D01*
X97671421Y-110081200D01*
X97784625Y-110081200D01*
X97956648Y-110064333D01*
X98178030Y-109997493D01*
X98382214Y-109888927D01*
X98561421Y-109742770D01*
X98708826Y-109564587D01*
X98818815Y-109361167D01*
X98887198Y-109140257D01*
X98911370Y-108910272D01*
X98890412Y-108679972D01*
X98825119Y-108458129D01*
X98717981Y-108253193D01*
X98573078Y-108072970D01*
X98395929Y-107924324D01*
X98193282Y-107812918D01*
X97972431Y-107742859D01*
X97781579Y-107722800D01*
X97668375Y-107722800D01*
X97496352Y-107739667D01*
X97274970Y-107806507D01*
X97070786Y-107915073D01*
X96891579Y-108061230D01*
X96744174Y-108239413D01*
X96634185Y-108442833D01*
X96565802Y-108663743D01*
X96541630Y-108893728D01*
X96369865Y-108893728D01*
X96350412Y-108679972D01*
X96285119Y-108458129D01*
X96177981Y-108253193D01*
X96033078Y-108072970D01*
X95855929Y-107924324D01*
X95653282Y-107812918D01*
X95432431Y-107742859D01*
X95241579Y-107722800D01*
X95128375Y-107722800D01*
X94956352Y-107739667D01*
X94734970Y-107806507D01*
X94530786Y-107915073D01*
X94351579Y-108061230D01*
X94204174Y-108239413D01*
X94094185Y-108442833D01*
X94025802Y-108663743D01*
X94001630Y-108893728D01*
X93829865Y-108893728D01*
X93810412Y-108679972D01*
X93745119Y-108458129D01*
X93637981Y-108253193D01*
X93493078Y-108072970D01*
X93315929Y-107924324D01*
X93113282Y-107812918D01*
X92892431Y-107742859D01*
X92701579Y-107722800D01*
X92588375Y-107722800D01*
X92416352Y-107739667D01*
X92194970Y-107806507D01*
X91990786Y-107915073D01*
X91811579Y-108061230D01*
X91664174Y-108239413D01*
X91554185Y-108442833D01*
X91485802Y-108663743D01*
X91461630Y-108893728D01*
X91289865Y-108893728D01*
X91270412Y-108679972D01*
X91205119Y-108458129D01*
X91097981Y-108253193D01*
X90953078Y-108072970D01*
X90775929Y-107924324D01*
X90573282Y-107812918D01*
X90352431Y-107742859D01*
X90297350Y-107737070D01*
X93032021Y-105002400D01*
X97671058Y-105002400D01*
X97682381Y-105040871D01*
X97789519Y-105245807D01*
X97934422Y-105426030D01*
X98111571Y-105574676D01*
X98314218Y-105686082D01*
X98535069Y-105756141D01*
X98725921Y-105776200D01*
X98839125Y-105776200D01*
X99011148Y-105759333D01*
X99232530Y-105692493D01*
X99436714Y-105583927D01*
X99615921Y-105437770D01*
X99763326Y-105259587D01*
X99789871Y-105210493D01*
X100532452Y-105953075D01*
X100542574Y-105974154D01*
X100597290Y-106017912D01*
X100613644Y-106034267D01*
X100632776Y-106046291D01*
X100687066Y-106089709D01*
X100710337Y-106095038D01*
X100730563Y-106107751D01*
X100800244Y-106115629D01*
X100822384Y-106120700D01*
X100845094Y-106120700D01*
X100914350Y-106128530D01*
X100936772Y-106120700D01*
X101692965Y-106120700D01*
X101715028Y-106128448D01*
X101784652Y-106120700D01*
X101807787Y-106120700D01*
X101829820Y-106115674D01*
X101898908Y-106107986D01*
X101919128Y-106095301D01*
X101942423Y-106089988D01*
X101997280Y-106046276D01*
X102016506Y-106034215D01*
X102032550Y-106018170D01*
X102087073Y-105974723D01*
X102097393Y-105953328D01*
X102677819Y-105372903D01*
X102677819Y-105459410D01*
X102700901Y-105575448D01*
X102773660Y-105684340D01*
X102882552Y-105757099D01*
X102998590Y-105780181D01*
X104723410Y-105780181D01*
X104839448Y-105757099D01*
X104948340Y-105684340D01*
X105021099Y-105575448D01*
X105044181Y-105459410D01*
X105044181Y-105274601D01*
X108331120Y-108561541D01*
X108321079Y-108569730D01*
X108173674Y-108747913D01*
X108063685Y-108951333D01*
X107995302Y-109172243D01*
X107971130Y-109402228D01*
X107992088Y-109632528D01*
X108057381Y-109854371D01*
X108164519Y-110059307D01*
X108309422Y-110239530D01*
X108486571Y-110388176D01*
X108689218Y-110499582D01*
X108910069Y-110569641D01*
X109100921Y-110589700D01*
X109214125Y-110589700D01*
X109386148Y-110572833D01*
X109607530Y-110505993D01*
X109811714Y-110397427D01*
X109990921Y-110251270D01*
X110138326Y-110073087D01*
X110248315Y-109869667D01*
X110306622Y-109681309D01*
X110328384Y-109698712D01*
X110357677Y-109735473D01*
X110399690Y-109755737D01*
X110436165Y-109784908D01*
X110481869Y-109795376D01*
X110524269Y-109815827D01*
X110571130Y-109815868D01*
X110571270Y-109815900D01*
X110586058Y-109815900D01*
X110597381Y-109854371D01*
X110704519Y-110059307D01*
X110849422Y-110239530D01*
X111026571Y-110388176D01*
X111229218Y-110499582D01*
X111450069Y-110569641D01*
X111640921Y-110589700D01*
X111754125Y-110589700D01*
X111926148Y-110572833D01*
X112147530Y-110505993D01*
X112351714Y-110397427D01*
X112530921Y-110251270D01*
X112678326Y-110073087D01*
X112788315Y-109869667D01*
X112856698Y-109648757D01*
X112880870Y-109418772D01*
X112859912Y-109188472D01*
X112794619Y-108966629D01*
X112687481Y-108761693D01*
X112542578Y-108581470D01*
X112365429Y-108432824D01*
X112162782Y-108321418D01*
X111941931Y-108251359D01*
X111751079Y-108231300D01*
X111637875Y-108231300D01*
X111465852Y-108248167D01*
X111244470Y-108315007D01*
X111040286Y-108423573D01*
X110861079Y-108569730D01*
X110713674Y-108747913D01*
X110695832Y-108780911D01*
X110008749Y-108093828D01*
X109998626Y-108072746D01*
X109943900Y-108028980D01*
X109927556Y-108012635D01*
X109908430Y-108000614D01*
X109854135Y-107957193D01*
X109830862Y-107951862D01*
X109810633Y-107939149D01*
X109740953Y-107931270D01*
X109718815Y-107926200D01*
X109696107Y-107926200D01*
X109684779Y-107924919D01*
X109811714Y-107857427D01*
X109990921Y-107711270D01*
X110138326Y-107533087D01*
X110248315Y-107329667D01*
X110316698Y-107108757D01*
X110340870Y-106878772D01*
X110339365Y-106862228D01*
X110511130Y-106862228D01*
X110532088Y-107092528D01*
X110597381Y-107314371D01*
X110704519Y-107519307D01*
X110849422Y-107699530D01*
X111026571Y-107848176D01*
X111229218Y-107959582D01*
X111450069Y-108029641D01*
X111640921Y-108049700D01*
X111754125Y-108049700D01*
X111926148Y-108032833D01*
X112147530Y-107965993D01*
X112351714Y-107857427D01*
X112530921Y-107711270D01*
X112678326Y-107533087D01*
X112788315Y-107329667D01*
X112856698Y-107108757D01*
X112880870Y-106878772D01*
X112859912Y-106648472D01*
X112794619Y-106426629D01*
X112687481Y-106221693D01*
X112542578Y-106041470D01*
X112365429Y-105892824D01*
X112162782Y-105781418D01*
X111941931Y-105711359D01*
X111751079Y-105691300D01*
X111637875Y-105691300D01*
X111465852Y-105708167D01*
X111244470Y-105775007D01*
X111040286Y-105883573D01*
X110861079Y-106029730D01*
X110713674Y-106207913D01*
X110603685Y-106411333D01*
X110535302Y-106632243D01*
X110511130Y-106862228D01*
X110339365Y-106862228D01*
X110319912Y-106648472D01*
X110254619Y-106426629D01*
X110147481Y-106221693D01*
X110002578Y-106041470D01*
X109825429Y-105892824D01*
X109622782Y-105781418D01*
X109401931Y-105711359D01*
X109211079Y-105691300D01*
X109097875Y-105691300D01*
X108925852Y-105708167D01*
X108704470Y-105775007D01*
X108500286Y-105883573D01*
X108321079Y-106029730D01*
X108173674Y-106207913D01*
X108063685Y-106411333D01*
X107995302Y-106632243D01*
X107971130Y-106862228D01*
X107990420Y-107074198D01*
X105275450Y-104359230D01*
X105265326Y-104338146D01*
X105210600Y-104294380D01*
X105194256Y-104278035D01*
X105175130Y-104266014D01*
X105120835Y-104222593D01*
X105097562Y-104217262D01*
X105077333Y-104204549D01*
X105044181Y-104200800D01*
X105044181Y-103734590D01*
X105021099Y-103618552D01*
X104948340Y-103509660D01*
X104839448Y-103436901D01*
X104723410Y-103413819D01*
X103993801Y-103413819D01*
X106223471Y-101184150D01*
X106244554Y-101174026D01*
X106288316Y-101119305D01*
X106304664Y-101102958D01*
X106316688Y-101083830D01*
X106360109Y-101029532D01*
X106365438Y-101006264D01*
X106378151Y-100986037D01*
X106386029Y-100916356D01*
X106391100Y-100894216D01*
X106391100Y-100871506D01*
X106398930Y-100802250D01*
X106391100Y-100779828D01*
X106391100Y-98395320D01*
X108465261Y-96321160D01*
X108517552Y-96356099D01*
X108633590Y-96379181D01*
X109269600Y-96379181D01*
X109269600Y-97484677D01*
X108918228Y-97836051D01*
X108897147Y-97846174D01*
X108853385Y-97900895D01*
X108837033Y-97917246D01*
X108825013Y-97936373D01*
X108781593Y-97990665D01*
X108776263Y-98013936D01*
X108763549Y-98034165D01*
X108759800Y-98067319D01*
X108293590Y-98067319D01*
X108177552Y-98090401D01*
X108068660Y-98163160D01*
X107995901Y-98272052D01*
X107972819Y-98388090D01*
X107972819Y-100112910D01*
X107995901Y-100228948D01*
X108068660Y-100337840D01*
X108177552Y-100410599D01*
X108293590Y-100433681D01*
X109829201Y-100433681D01*
X109829202Y-100815990D01*
X109825429Y-100812824D01*
X109622782Y-100701418D01*
X109401931Y-100631359D01*
X109211079Y-100611300D01*
X109097875Y-100611300D01*
X108925852Y-100628167D01*
X108704470Y-100695007D01*
X108500286Y-100803573D01*
X108321079Y-100949730D01*
X108173674Y-101127913D01*
X108063685Y-101331333D01*
X107995302Y-101552243D01*
X107971130Y-101782228D01*
X107992088Y-102012528D01*
X108057381Y-102234371D01*
X108164519Y-102439307D01*
X108309422Y-102619530D01*
X108486571Y-102768176D01*
X108689218Y-102879582D01*
X108910069Y-102949641D01*
X109100921Y-102969700D01*
X109214125Y-102969700D01*
X109386148Y-102952833D01*
X109607530Y-102885993D01*
X109811714Y-102777427D01*
X109829202Y-102763164D01*
X109829202Y-103083976D01*
X109755981Y-103157198D01*
X109755979Y-103157199D01*
X109654386Y-103258792D01*
X109622782Y-103241418D01*
X109401931Y-103171359D01*
X109211079Y-103151300D01*
X109097875Y-103151300D01*
X108925852Y-103168167D01*
X108704470Y-103235007D01*
X108500286Y-103343573D01*
X108321079Y-103489730D01*
X108173674Y-103667913D01*
X108063685Y-103871333D01*
X107995302Y-104092243D01*
X107971130Y-104322228D01*
X107992088Y-104552528D01*
X108057381Y-104774371D01*
X108164519Y-104979307D01*
X108309422Y-105159530D01*
X108486571Y-105308176D01*
X108689218Y-105419582D01*
X108910069Y-105489641D01*
X109100921Y-105509700D01*
X109214125Y-105509700D01*
X109386148Y-105492833D01*
X109607530Y-105425993D01*
X109811714Y-105317427D01*
X109990921Y-105171270D01*
X110138326Y-104993087D01*
X110248315Y-104789667D01*
X110316698Y-104568757D01*
X110340870Y-104338772D01*
X110319912Y-104108472D01*
X110254619Y-103886629D01*
X110226665Y-103833157D01*
X110329390Y-103730432D01*
X110329391Y-103730430D01*
X110472374Y-103587448D01*
X110493455Y-103577325D01*
X110537217Y-103522604D01*
X110553565Y-103506257D01*
X110565589Y-103487129D01*
X110609010Y-103432831D01*
X110614339Y-103409563D01*
X110627052Y-103389336D01*
X110634930Y-103319655D01*
X110640001Y-103297515D01*
X110640001Y-103274805D01*
X110647831Y-103205549D01*
X110640001Y-103183127D01*
X110640001Y-102315896D01*
X110704519Y-102439307D01*
X110849422Y-102619530D01*
X111026571Y-102768176D01*
X111229218Y-102879582D01*
X111450069Y-102949641D01*
X111640921Y-102969700D01*
X111754125Y-102969700D01*
X111926148Y-102952833D01*
X112147530Y-102885993D01*
X112351714Y-102777427D01*
X112369202Y-102763164D01*
X112369202Y-103083976D01*
X112295981Y-103157198D01*
X112295979Y-103157199D01*
X112194386Y-103258792D01*
X112162782Y-103241418D01*
X111941931Y-103171359D01*
X111751079Y-103151300D01*
X111637875Y-103151300D01*
X111465852Y-103168167D01*
X111244470Y-103235007D01*
X111040286Y-103343573D01*
X110861079Y-103489730D01*
X110713674Y-103667913D01*
X110603685Y-103871333D01*
X110535302Y-104092243D01*
X110511130Y-104322228D01*
X110532088Y-104552528D01*
X110597381Y-104774371D01*
X110704519Y-104979307D01*
X110849422Y-105159530D01*
X111026571Y-105308176D01*
X111229218Y-105419582D01*
X111450069Y-105489641D01*
X111640921Y-105509700D01*
X111754125Y-105509700D01*
X111926148Y-105492833D01*
X112147530Y-105425993D01*
X112351714Y-105317427D01*
X112530921Y-105171270D01*
X112678326Y-104993087D01*
X112788315Y-104789667D01*
X112856698Y-104568757D01*
X112880870Y-104338772D01*
X112859912Y-104108472D01*
X112794619Y-103886629D01*
X112766665Y-103833157D01*
X112869390Y-103730432D01*
X112869391Y-103730430D01*
X113012374Y-103587448D01*
X113033455Y-103577325D01*
X113077217Y-103522604D01*
X113093565Y-103506257D01*
X113105589Y-103487129D01*
X113149010Y-103432831D01*
X113154339Y-103409563D01*
X113167052Y-103389336D01*
X113174930Y-103319655D01*
X113180001Y-103297515D01*
X113180001Y-103274805D01*
X113187831Y-103205549D01*
X113180001Y-103183127D01*
X113180001Y-98196136D01*
X113187749Y-98174073D01*
X113180001Y-98104449D01*
X113180001Y-98081314D01*
X113174975Y-98059281D01*
X113167287Y-97990195D01*
X113154603Y-97969975D01*
X113149289Y-97946677D01*
X113105583Y-97891829D01*
X113093519Y-97872596D01*
X113077460Y-97856537D01*
X113034024Y-97802028D01*
X113012633Y-97791710D01*
X111491720Y-96270799D01*
X111556099Y-96174448D01*
X111577273Y-96068002D01*
X111676947Y-96145735D01*
X111874533Y-96205579D01*
X112080417Y-96190280D01*
X112266988Y-96101888D01*
X112409229Y-95952258D01*
X112488350Y-95760771D01*
X112491009Y-95543149D01*
X112416590Y-95349785D01*
X112341800Y-95267159D01*
X112341800Y-94803135D01*
X112349548Y-94781072D01*
X112341800Y-94711447D01*
X112341800Y-94688313D01*
X112336774Y-94666280D01*
X112329086Y-94597193D01*
X112316401Y-94576971D01*
X112311087Y-94553676D01*
X112267385Y-94498832D01*
X112255317Y-94479594D01*
X112239259Y-94463536D01*
X112195823Y-94409027D01*
X112174432Y-94398709D01*
X111733949Y-93958228D01*
X111723826Y-93937146D01*
X111669100Y-93893380D01*
X111652756Y-93877035D01*
X111633630Y-93865014D01*
X111579335Y-93821593D01*
X111556062Y-93816262D01*
X111536411Y-93803913D01*
X111556099Y-93774448D01*
X111579181Y-93658410D01*
X111579181Y-93133590D01*
X111556099Y-93017552D01*
X111483340Y-92908660D01*
X111374448Y-92835901D01*
X111258410Y-92812819D01*
X110433590Y-92812819D01*
X110317552Y-92835901D01*
X110208660Y-92908660D01*
X110150762Y-92995311D01*
X110149380Y-92995626D01*
X110080291Y-93003314D01*
X110060071Y-93015998D01*
X110036776Y-93021312D01*
X109981926Y-93065020D01*
X109962693Y-93077085D01*
X109946641Y-93093137D01*
X109892127Y-93136577D01*
X109881808Y-93157970D01*
X109779181Y-93260597D01*
X109779181Y-93133590D01*
X109756099Y-93017552D01*
X109683340Y-92908660D01*
X109574448Y-92835901D01*
X109458410Y-92812819D01*
X108633590Y-92812819D01*
X108517552Y-92835901D01*
X108467166Y-92869568D01*
X108451300Y-92856880D01*
X108434956Y-92840535D01*
X108415830Y-92828514D01*
X108361535Y-92785093D01*
X108338262Y-92779762D01*
X108318033Y-92767049D01*
X108248353Y-92759170D01*
X108226215Y-92754100D01*
X108203507Y-92754100D01*
X108134250Y-92746269D01*
X108111827Y-92754100D01*
X101435036Y-92754100D01*
X101396046Y-92711025D01*
X101211690Y-92618102D01*
X101006244Y-92597777D01*
X100807254Y-92652775D01*
X100641404Y-92775720D01*
X100530935Y-92950129D01*
X100514948Y-93030500D01*
X98842077Y-93030500D01*
X98862127Y-92988931D01*
X98862168Y-92942070D01*
X98862200Y-92941930D01*
X98862200Y-92933098D01*
X98928352Y-92977299D01*
X99044390Y-93000381D01*
X99469210Y-93000381D01*
X99585248Y-92977299D01*
X99631800Y-92946194D01*
X99678352Y-92977299D01*
X99794390Y-93000381D01*
X100319210Y-93000381D01*
X100435248Y-92977299D01*
X100544140Y-92904540D01*
X100616899Y-92795648D01*
X100639981Y-92679610D01*
X100639981Y-91854790D01*
X100616899Y-91738752D01*
X100544140Y-91629860D01*
X100457489Y-91571962D01*
X100457173Y-91570576D01*
X100449486Y-91501492D01*
X100443743Y-91492337D01*
X100453150Y-91469571D01*
X100455809Y-91251949D01*
X100381390Y-91058586D01*
X100242846Y-90905525D01*
X100058490Y-90812602D01*
X99853044Y-90792277D01*
X99654054Y-90847275D01*
X99488204Y-90970220D01*
X99377735Y-91144629D01*
X99370886Y-91179064D01*
X94701750Y-86509930D01*
X94691626Y-86488846D01*
X94636900Y-86445080D01*
X94620556Y-86428735D01*
X94601430Y-86416714D01*
X94547135Y-86373293D01*
X94523862Y-86367962D01*
X94503633Y-86355249D01*
X94433953Y-86347370D01*
X94411815Y-86342300D01*
X94389107Y-86342300D01*
X94319850Y-86334469D01*
X94297427Y-86342300D01*
X86004735Y-86342300D01*
X85982672Y-86334552D01*
X85913047Y-86342300D01*
X85889913Y-86342300D01*
X85867880Y-86347326D01*
X85798793Y-86355014D01*
X85778571Y-86367699D01*
X85755276Y-86373013D01*
X85700432Y-86416715D01*
X85681194Y-86428783D01*
X85665136Y-86444841D01*
X85610627Y-86488277D01*
X85600309Y-86509668D01*
X84868693Y-87241286D01*
X84848317Y-87202310D01*
X84701742Y-87020008D01*
X84522550Y-86869648D01*
X84317565Y-86756957D01*
X84094172Y-86686092D01*
X83901106Y-86665800D01*
X83786601Y-86665800D01*
X83612597Y-86682861D01*
X83388662Y-86750472D01*
X83182124Y-86860290D01*
X83000850Y-87008133D01*
X82851744Y-87188371D01*
X82740487Y-87394137D01*
X82671316Y-87617595D01*
X82646864Y-87850232D01*
X82668064Y-88083188D01*
X82734110Y-88307591D01*
X82842483Y-88514890D01*
X82989058Y-88697192D01*
X83168250Y-88847552D01*
X83373235Y-88960243D01*
X83596628Y-89031108D01*
X83789694Y-89051400D01*
X83904199Y-89051400D01*
X84078203Y-89034339D01*
X84302138Y-88966728D01*
X84508676Y-88856910D01*
X84689950Y-88709067D01*
X84839056Y-88528829D01*
X84950313Y-88323063D01*
X84968585Y-88264035D01*
X85030024Y-88264088D01*
X85072396Y-88243741D01*
X85118225Y-88233287D01*
X85154707Y-88204216D01*
X85196754Y-88184026D01*
X85226109Y-88147319D01*
X85226781Y-88146783D01*
X85274110Y-88307591D01*
X85382483Y-88514890D01*
X85529058Y-88697192D01*
X85708250Y-88847552D01*
X85913235Y-88960243D01*
X86136628Y-89031108D01*
X86329694Y-89051400D01*
X86444199Y-89051400D01*
X86618203Y-89034339D01*
X86842138Y-88966728D01*
X87048676Y-88856910D01*
X87229950Y-88709067D01*
X87379056Y-88528829D01*
X87408027Y-88475248D01*
X88299152Y-89366375D01*
X88304594Y-89377708D01*
X88262124Y-89400290D01*
X88080850Y-89548133D01*
X87931744Y-89728371D01*
X87820487Y-89934137D01*
X87751316Y-90157595D01*
X87726864Y-90390232D01*
X87748064Y-90623188D01*
X87814110Y-90847591D01*
X87922483Y-91054890D01*
X88069058Y-91237192D01*
X88248250Y-91387552D01*
X88453235Y-91500243D01*
X88676628Y-91571108D01*
X88869694Y-91591400D01*
X88984199Y-91591400D01*
X89158203Y-91574339D01*
X89382138Y-91506728D01*
X89588676Y-91396910D01*
X89769950Y-91249067D01*
X89919056Y-91068829D01*
X90030313Y-90863063D01*
X90099484Y-90639605D01*
X90123936Y-90406968D01*
X90102736Y-90174012D01*
X90036690Y-89949609D01*
X89928317Y-89742310D01*
X89781742Y-89560008D01*
X89750747Y-89534000D01*
X90808980Y-89534000D01*
X94305479Y-93030500D01*
X87978135Y-93030500D01*
X87956072Y-93022752D01*
X87886447Y-93030500D01*
X87863313Y-93030500D01*
X87841280Y-93035526D01*
X87772191Y-93043214D01*
X87751971Y-93055898D01*
X87728676Y-93061212D01*
X87673826Y-93104920D01*
X87654593Y-93116985D01*
X87638541Y-93133037D01*
X87584027Y-93176477D01*
X87573707Y-93197872D01*
X82404894Y-98366686D01*
X82384517Y-98327710D01*
X82237942Y-98145408D01*
X82058750Y-97995048D01*
X81853765Y-97882357D01*
X81630372Y-97811492D01*
X81437306Y-97791200D01*
X81322801Y-97791200D01*
X81148797Y-97808261D01*
X80924862Y-97875872D01*
X80718324Y-97985690D01*
X80537050Y-98133533D01*
X80387944Y-98313771D01*
X80276687Y-98519537D01*
X80273028Y-98531356D01*
X80187865Y-98315708D01*
X80056019Y-98098430D01*
X79889447Y-97906475D01*
X79692916Y-97745329D01*
X79472042Y-97619600D01*
X79230325Y-97531861D01*
X78969600Y-97497304D01*
X78969600Y-99112000D01*
X77338216Y-99112000D01*
X77360435Y-99217897D01*
X77113142Y-98970581D01*
X77108101Y-98960268D01*
X77035371Y-98892802D01*
X77005913Y-98863341D01*
X76997075Y-98857278D01*
X76995698Y-98856000D01*
X77347839Y-98856000D01*
X78713600Y-98856000D01*
X78713600Y-97469970D01*
X78342358Y-97566325D01*
X78110633Y-97670710D01*
X77899807Y-97812645D01*
X77715910Y-97988074D01*
X77564202Y-98191979D01*
X77449017Y-98418530D01*
X77373650Y-98661250D01*
X77347839Y-98856000D01*
X76995698Y-98856000D01*
X76944105Y-98808142D01*
X76911833Y-98798797D01*
X76872189Y-98771599D01*
X76660808Y-98721425D01*
X76591895Y-98730800D01*
X68081780Y-98730800D01*
X68047481Y-98665193D01*
X67902578Y-98484970D01*
X67725429Y-98336324D01*
X67653535Y-98296800D01*
X75304165Y-98296800D01*
X75326228Y-98304548D01*
X75395852Y-98296800D01*
X75418987Y-98296800D01*
X75441020Y-98291774D01*
X75510108Y-98284086D01*
X75530328Y-98271401D01*
X75553623Y-98266088D01*
X75608480Y-98222376D01*
X75627706Y-98210315D01*
X75643750Y-98194270D01*
X75698273Y-98150823D01*
X75708594Y-98129427D01*
X82822107Y-91015915D01*
X82842483Y-91054890D01*
X82989058Y-91237192D01*
X83168250Y-91387552D01*
X83373235Y-91500243D01*
X83596628Y-91571108D01*
X83789694Y-91591400D01*
X83904199Y-91591400D01*
X84078203Y-91574339D01*
X84302138Y-91506728D01*
X84508676Y-91396910D01*
X84689950Y-91249067D01*
X84839056Y-91068829D01*
X84950313Y-90863063D01*
X85019484Y-90639605D01*
X85043936Y-90406968D01*
X85042413Y-90390232D01*
X85186864Y-90390232D01*
X85208064Y-90623188D01*
X85274110Y-90847591D01*
X85382483Y-91054890D01*
X85529058Y-91237192D01*
X85708250Y-91387552D01*
X85913235Y-91500243D01*
X86136628Y-91571108D01*
X86329694Y-91591400D01*
X86444199Y-91591400D01*
X86618203Y-91574339D01*
X86842138Y-91506728D01*
X87048676Y-91396910D01*
X87229950Y-91249067D01*
X87379056Y-91068829D01*
X87490313Y-90863063D01*
X87559484Y-90639605D01*
X87583936Y-90406968D01*
X87562736Y-90174012D01*
X87496690Y-89949609D01*
X87388317Y-89742310D01*
X87241742Y-89560008D01*
X87062550Y-89409648D01*
X86857565Y-89296957D01*
X86634172Y-89226092D01*
X86441106Y-89205800D01*
X86326601Y-89205800D01*
X86152597Y-89222861D01*
X85928662Y-89290472D01*
X85722124Y-89400290D01*
X85540850Y-89548133D01*
X85391744Y-89728371D01*
X85280487Y-89934137D01*
X85211316Y-90157595D01*
X85186864Y-90390232D01*
X85042413Y-90390232D01*
X85022736Y-90174012D01*
X84956690Y-89949609D01*
X84848317Y-89742310D01*
X84701742Y-89560008D01*
X84522550Y-89409648D01*
X84317565Y-89296957D01*
X84094172Y-89226092D01*
X83901106Y-89205800D01*
X83786601Y-89205800D01*
X83612597Y-89222861D01*
X83388662Y-89290472D01*
X83182124Y-89400290D01*
X83000850Y-89548133D01*
X82851744Y-89728371D01*
X82740487Y-89934137D01*
X82722215Y-89993165D01*
X82660776Y-89993112D01*
X82618406Y-90013458D01*
X82572576Y-90023912D01*
X82536092Y-90052984D01*
X82494046Y-90073174D01*
X82464689Y-90109883D01*
X82464019Y-90110417D01*
X82416690Y-89949609D01*
X82308317Y-89742310D01*
X82161742Y-89560008D01*
X81982550Y-89409648D01*
X81777565Y-89296957D01*
X81554172Y-89226092D01*
X81361106Y-89205800D01*
X81246601Y-89205800D01*
X81072597Y-89222861D01*
X80848662Y-89290472D01*
X80642124Y-89400290D01*
X80460850Y-89548133D01*
X80311744Y-89728371D01*
X80200487Y-89934137D01*
X80131316Y-90157595D01*
X80106864Y-90390232D01*
X80128064Y-90623188D01*
X80194110Y-90847591D01*
X80302483Y-91054890D01*
X80449058Y-91237192D01*
X80628250Y-91387552D01*
X80833235Y-91500243D01*
X81056628Y-91571108D01*
X81114218Y-91577161D01*
X75205380Y-97486000D01*
X67997448Y-97486000D01*
X68038326Y-97436587D01*
X68148315Y-97233167D01*
X68216698Y-97012257D01*
X68240870Y-96782272D01*
X68219912Y-96551972D01*
X68154619Y-96330129D01*
X68047481Y-96125193D01*
X67902578Y-95944970D01*
X67725429Y-95796324D01*
X67522782Y-95684918D01*
X67301931Y-95614859D01*
X67111079Y-95594800D01*
X66997875Y-95594800D01*
X66825852Y-95611667D01*
X66604470Y-95678507D01*
X66400286Y-95787073D01*
X66221079Y-95933230D01*
X66073674Y-96111413D01*
X65963685Y-96314833D01*
X65895302Y-96535743D01*
X65871130Y-96765728D01*
X65892088Y-96996028D01*
X65957381Y-97217871D01*
X66064519Y-97422807D01*
X66209422Y-97603030D01*
X66386571Y-97751676D01*
X66440600Y-97781378D01*
X65744358Y-98477621D01*
X65719389Y-98436473D01*
X65554331Y-98246261D01*
X65359584Y-98086578D01*
X65140716Y-97961991D01*
X64922960Y-97882950D01*
X64967530Y-97869493D01*
X65171714Y-97760927D01*
X65350921Y-97614770D01*
X65498326Y-97436587D01*
X65608315Y-97233167D01*
X65676698Y-97012257D01*
X65700870Y-96782272D01*
X65679912Y-96551972D01*
X65614619Y-96330129D01*
X65507481Y-96125193D01*
X65362578Y-95944970D01*
X65185429Y-95796324D01*
X64982782Y-95684918D01*
X64761931Y-95614859D01*
X64571079Y-95594800D01*
X64457875Y-95594800D01*
X64285852Y-95611667D01*
X64064470Y-95678507D01*
X63860286Y-95787073D01*
X63681079Y-95933230D01*
X63533674Y-96111413D01*
X63423685Y-96314833D01*
X63355302Y-96535743D01*
X63331130Y-96765728D01*
X63352088Y-96996028D01*
X63417381Y-97217871D01*
X63524519Y-97422807D01*
X63669422Y-97603030D01*
X63846571Y-97751676D01*
X64049218Y-97863082D01*
X64116610Y-97884460D01*
X64021292Y-97909200D01*
X63791671Y-98012637D01*
X63582760Y-98153284D01*
X63400534Y-98327119D01*
X63250203Y-98529172D01*
X63136064Y-98753666D01*
X63061382Y-98994181D01*
X63035957Y-99186000D01*
X62329200Y-99186000D01*
X62329200Y-94225728D01*
X63331130Y-94225728D01*
X63352088Y-94456028D01*
X63417381Y-94677871D01*
X63524519Y-94882807D01*
X63669422Y-95063030D01*
X63846571Y-95211676D01*
X64049218Y-95323082D01*
X64270069Y-95393141D01*
X64460921Y-95413200D01*
X64574125Y-95413200D01*
X64746148Y-95396333D01*
X64967530Y-95329493D01*
X65171714Y-95220927D01*
X65350921Y-95074770D01*
X65498326Y-94896587D01*
X65608315Y-94693167D01*
X65676698Y-94472257D01*
X65700870Y-94242272D01*
X65699365Y-94225728D01*
X65871130Y-94225728D01*
X65892088Y-94456028D01*
X65957381Y-94677871D01*
X66064519Y-94882807D01*
X66209422Y-95063030D01*
X66386571Y-95211676D01*
X66589218Y-95323082D01*
X66810069Y-95393141D01*
X67000921Y-95413200D01*
X67114125Y-95413200D01*
X67286148Y-95396333D01*
X67507530Y-95329493D01*
X67711714Y-95220927D01*
X67890921Y-95074770D01*
X68038326Y-94896587D01*
X68148315Y-94693167D01*
X68216698Y-94472257D01*
X68240870Y-94242272D01*
X68219912Y-94011972D01*
X68154619Y-93790129D01*
X68047481Y-93585193D01*
X67902578Y-93404970D01*
X67725429Y-93256324D01*
X67522782Y-93144918D01*
X67301931Y-93074859D01*
X67111079Y-93054800D01*
X66997875Y-93054800D01*
X66825852Y-93071667D01*
X66604470Y-93138507D01*
X66400286Y-93247073D01*
X66221079Y-93393230D01*
X66073674Y-93571413D01*
X65963685Y-93774833D01*
X65895302Y-93995743D01*
X65871130Y-94225728D01*
X65699365Y-94225728D01*
X65679912Y-94011972D01*
X65614619Y-93790129D01*
X65507481Y-93585193D01*
X65362578Y-93404970D01*
X65185429Y-93256324D01*
X64982782Y-93144918D01*
X64761931Y-93074859D01*
X64571079Y-93054800D01*
X64457875Y-93054800D01*
X64285852Y-93071667D01*
X64064470Y-93138507D01*
X63860286Y-93247073D01*
X63681079Y-93393230D01*
X63533674Y-93571413D01*
X63423685Y-93774833D01*
X63355302Y-93995743D01*
X63331130Y-94225728D01*
X62329200Y-94225728D01*
X62329200Y-91685728D01*
X63331130Y-91685728D01*
X63352088Y-91916028D01*
X63417381Y-92137871D01*
X63524519Y-92342807D01*
X63669422Y-92523030D01*
X63846571Y-92671676D01*
X64049218Y-92783082D01*
X64270069Y-92853141D01*
X64460921Y-92873200D01*
X64574125Y-92873200D01*
X64746148Y-92856333D01*
X64967530Y-92789493D01*
X65171714Y-92680927D01*
X65350921Y-92534770D01*
X65498326Y-92356587D01*
X65608315Y-92153167D01*
X65676698Y-91932257D01*
X65700870Y-91702272D01*
X65699365Y-91685728D01*
X65871130Y-91685728D01*
X65892088Y-91916028D01*
X65957381Y-92137871D01*
X66064519Y-92342807D01*
X66209422Y-92523030D01*
X66386571Y-92671676D01*
X66589218Y-92783082D01*
X66810069Y-92853141D01*
X67000921Y-92873200D01*
X67114125Y-92873200D01*
X67286148Y-92856333D01*
X67507530Y-92789493D01*
X67711714Y-92680927D01*
X67890921Y-92534770D01*
X68038326Y-92356587D01*
X68148315Y-92153167D01*
X68216698Y-91932257D01*
X68240870Y-91702272D01*
X68219912Y-91471972D01*
X68154619Y-91250129D01*
X68047481Y-91045193D01*
X67902578Y-90864970D01*
X67725429Y-90716324D01*
X67522782Y-90604918D01*
X67301931Y-90534859D01*
X67111079Y-90514800D01*
X66997875Y-90514800D01*
X66825852Y-90531667D01*
X66604470Y-90598507D01*
X66400286Y-90707073D01*
X66221079Y-90853230D01*
X66073674Y-91031413D01*
X65963685Y-91234833D01*
X65895302Y-91455743D01*
X65871130Y-91685728D01*
X65699365Y-91685728D01*
X65679912Y-91471972D01*
X65614619Y-91250129D01*
X65507481Y-91045193D01*
X65362578Y-90864970D01*
X65185429Y-90716324D01*
X64982782Y-90604918D01*
X64761931Y-90534859D01*
X64571079Y-90514800D01*
X64457875Y-90514800D01*
X64285852Y-90531667D01*
X64064470Y-90598507D01*
X63860286Y-90707073D01*
X63681079Y-90853230D01*
X63533674Y-91031413D01*
X63423685Y-91234833D01*
X63355302Y-91455743D01*
X63331130Y-91685728D01*
X62329200Y-91685728D01*
X62329200Y-88291590D01*
X63332819Y-88291590D01*
X63332819Y-90016410D01*
X63355901Y-90132448D01*
X63428660Y-90241340D01*
X63537552Y-90314099D01*
X63653590Y-90337181D01*
X65378410Y-90337181D01*
X65494448Y-90314099D01*
X65603340Y-90241340D01*
X65676099Y-90132448D01*
X65699181Y-90016410D01*
X65699181Y-89145728D01*
X65871130Y-89145728D01*
X65892088Y-89376028D01*
X65957381Y-89597871D01*
X66064519Y-89802807D01*
X66209422Y-89983030D01*
X66386571Y-90131676D01*
X66589218Y-90243082D01*
X66810069Y-90313141D01*
X67000921Y-90333200D01*
X67114125Y-90333200D01*
X67286148Y-90316333D01*
X67507530Y-90249493D01*
X67711714Y-90140927D01*
X67890921Y-89994770D01*
X68038326Y-89816587D01*
X68148315Y-89613167D01*
X68216698Y-89392257D01*
X68240870Y-89162272D01*
X68219912Y-88931972D01*
X68154619Y-88710129D01*
X68047481Y-88505193D01*
X67902578Y-88324970D01*
X67725429Y-88176324D01*
X67522782Y-88064918D01*
X67301931Y-87994859D01*
X67223351Y-87986600D01*
X77262016Y-87986600D01*
X77325782Y-88290506D01*
X77419135Y-88526892D01*
X77550981Y-88744170D01*
X77717553Y-88936125D01*
X77914084Y-89097271D01*
X78097748Y-89201819D01*
X77889390Y-89201819D01*
X77773352Y-89224901D01*
X77664460Y-89297660D01*
X77591701Y-89406552D01*
X77568619Y-89522590D01*
X77568619Y-91274610D01*
X77591701Y-91390648D01*
X77664460Y-91499540D01*
X77773352Y-91572299D01*
X77889390Y-91595381D01*
X79641410Y-91595381D01*
X79757448Y-91572299D01*
X79866340Y-91499540D01*
X79939099Y-91390648D01*
X79962181Y-91274610D01*
X79962181Y-89522590D01*
X79939099Y-89406552D01*
X79866340Y-89297660D01*
X79757448Y-89224901D01*
X79641410Y-89201819D01*
X79429927Y-89201819D01*
X79496367Y-89171890D01*
X79707193Y-89029955D01*
X79891090Y-88854526D01*
X80042798Y-88650621D01*
X80157983Y-88424070D01*
X80194136Y-88307640D01*
X80302483Y-88514890D01*
X80449058Y-88697192D01*
X80628250Y-88847552D01*
X80833235Y-88960243D01*
X81056628Y-89031108D01*
X81249694Y-89051400D01*
X81364199Y-89051400D01*
X81538203Y-89034339D01*
X81762138Y-88966728D01*
X81968676Y-88856910D01*
X82149950Y-88709067D01*
X82299056Y-88528829D01*
X82410313Y-88323063D01*
X82479484Y-88099605D01*
X82503936Y-87866968D01*
X82482736Y-87634012D01*
X82416690Y-87409609D01*
X82308317Y-87202310D01*
X82161742Y-87020008D01*
X81982550Y-86869648D01*
X81777565Y-86756957D01*
X81554172Y-86686092D01*
X81361106Y-86665800D01*
X81246601Y-86665800D01*
X81072597Y-86682861D01*
X80848662Y-86750472D01*
X80642124Y-86860290D01*
X80460850Y-87008133D01*
X80311744Y-87188371D01*
X80200487Y-87394137D01*
X80196828Y-87405956D01*
X80111665Y-87190308D01*
X79979819Y-86973030D01*
X79813247Y-86781075D01*
X79616716Y-86619929D01*
X79395842Y-86494200D01*
X79154125Y-86406461D01*
X78893400Y-86371904D01*
X78893400Y-87986600D01*
X77262016Y-87986600D01*
X67223351Y-87986600D01*
X67111079Y-87974800D01*
X66997875Y-87974800D01*
X66825852Y-87991667D01*
X66604470Y-88058507D01*
X66400286Y-88167073D01*
X66221079Y-88313230D01*
X66073674Y-88491413D01*
X65963685Y-88694833D01*
X65895302Y-88915743D01*
X65871130Y-89145728D01*
X65699181Y-89145728D01*
X65699181Y-88291590D01*
X65676099Y-88175552D01*
X65603340Y-88066660D01*
X65494448Y-87993901D01*
X65378410Y-87970819D01*
X63653590Y-87970819D01*
X63537552Y-87993901D01*
X63428660Y-88066660D01*
X63355901Y-88175552D01*
X63332819Y-88291590D01*
X62329200Y-88291590D01*
X62329200Y-87730600D01*
X77271639Y-87730600D01*
X78637400Y-87730600D01*
X78637400Y-86344570D01*
X78266158Y-86440925D01*
X78034433Y-86545310D01*
X77823607Y-86687245D01*
X77639710Y-86862674D01*
X77488002Y-87066579D01*
X77372817Y-87293130D01*
X77297450Y-87535850D01*
X77271639Y-87730600D01*
X62329200Y-87730600D01*
X62329200Y-84049222D01*
X62332591Y-84038131D01*
X62333590Y-84023621D01*
X62351872Y-83765437D01*
X62401364Y-83535554D01*
X62482753Y-83314937D01*
X62594418Y-83107985D01*
X62734125Y-82918838D01*
X62899087Y-82751265D01*
X63086021Y-82608601D01*
X63291196Y-82493698D01*
X63510493Y-82408858D01*
X63739577Y-82355759D01*
X63984352Y-82334560D01*
X64016819Y-82334304D01*
X64038410Y-82329200D01*
X112950778Y-82329200D01*
X112961869Y-82332591D01*
G36*
X88338324Y-100525690D02*
G01*
X88157050Y-100673533D01*
X88007944Y-100853771D01*
X87896687Y-101059537D01*
X87827516Y-101282995D01*
X87803064Y-101515632D01*
X87824264Y-101748588D01*
X87890310Y-101972991D01*
X87998683Y-102180290D01*
X88145258Y-102362592D01*
X88324450Y-102512952D01*
X88529435Y-102625643D01*
X88752828Y-102696508D01*
X88945894Y-102716800D01*
X89060399Y-102716800D01*
X89063039Y-102716541D01*
X81821980Y-109957600D01*
X77570920Y-109957600D01*
X83066771Y-104461750D01*
X83087854Y-104451626D01*
X83131616Y-104396905D01*
X83147966Y-104380556D01*
X83159987Y-104361429D01*
X83203408Y-104307135D01*
X83208738Y-104283866D01*
X83221453Y-104263635D01*
X83229330Y-104193954D01*
X83234400Y-104171817D01*
X83234400Y-104149107D01*
X83242230Y-104079849D01*
X83234400Y-104057427D01*
X83234400Y-102504519D01*
X83244450Y-102512952D01*
X83449435Y-102625643D01*
X83672828Y-102696508D01*
X83865894Y-102716800D01*
X83980399Y-102716800D01*
X84154403Y-102699739D01*
X84378338Y-102632128D01*
X84584876Y-102522310D01*
X84766150Y-102374467D01*
X84915256Y-102194229D01*
X85026513Y-101988463D01*
X85044785Y-101929435D01*
X85106223Y-101929488D01*
X85148592Y-101909143D01*
X85194424Y-101898688D01*
X85230906Y-101869617D01*
X85272955Y-101849426D01*
X85302312Y-101812716D01*
X85302981Y-101812183D01*
X85350310Y-101972991D01*
X85458683Y-102180290D01*
X85605258Y-102362592D01*
X85784450Y-102512952D01*
X85989435Y-102625643D01*
X86212828Y-102696508D01*
X86405894Y-102716800D01*
X86520399Y-102716800D01*
X86694403Y-102699739D01*
X86918338Y-102632128D01*
X87124876Y-102522310D01*
X87306150Y-102374467D01*
X87455256Y-102194229D01*
X87566513Y-101988463D01*
X87635684Y-101765005D01*
X87660136Y-101532368D01*
X87638936Y-101299412D01*
X87572890Y-101075009D01*
X87464517Y-100867710D01*
X87317942Y-100685408D01*
X87138750Y-100535048D01*
X87042256Y-100482000D01*
X88420493Y-100482000D01*
X88338324Y-100525690D01*
X88338324Y-100525690D01*
G37*
X88338324Y-100525690D02*
X88157050Y-100673533D01*
X88007944Y-100853771D01*
X87896687Y-101059537D01*
X87827516Y-101282995D01*
X87803064Y-101515632D01*
X87824264Y-101748588D01*
X87890310Y-101972991D01*
X87998683Y-102180290D01*
X88145258Y-102362592D01*
X88324450Y-102512952D01*
X88529435Y-102625643D01*
X88752828Y-102696508D01*
X88945894Y-102716800D01*
X89060399Y-102716800D01*
X89063039Y-102716541D01*
X81821980Y-109957600D01*
X77570920Y-109957600D01*
X83066771Y-104461750D01*
X83087854Y-104451626D01*
X83131616Y-104396905D01*
X83147966Y-104380556D01*
X83159987Y-104361429D01*
X83203408Y-104307135D01*
X83208738Y-104283866D01*
X83221453Y-104263635D01*
X83229330Y-104193954D01*
X83234400Y-104171817D01*
X83234400Y-104149107D01*
X83242230Y-104079849D01*
X83234400Y-104057427D01*
X83234400Y-102504519D01*
X83244450Y-102512952D01*
X83449435Y-102625643D01*
X83672828Y-102696508D01*
X83865894Y-102716800D01*
X83980399Y-102716800D01*
X84154403Y-102699739D01*
X84378338Y-102632128D01*
X84584876Y-102522310D01*
X84766150Y-102374467D01*
X84915256Y-102194229D01*
X85026513Y-101988463D01*
X85044785Y-101929435D01*
X85106223Y-101929488D01*
X85148592Y-101909143D01*
X85194424Y-101898688D01*
X85230906Y-101869617D01*
X85272955Y-101849426D01*
X85302312Y-101812716D01*
X85302981Y-101812183D01*
X85350310Y-101972991D01*
X85458683Y-102180290D01*
X85605258Y-102362592D01*
X85784450Y-102512952D01*
X85989435Y-102625643D01*
X86212828Y-102696508D01*
X86405894Y-102716800D01*
X86520399Y-102716800D01*
X86694403Y-102699739D01*
X86918338Y-102632128D01*
X87124876Y-102522310D01*
X87306150Y-102374467D01*
X87455256Y-102194229D01*
X87566513Y-101988463D01*
X87635684Y-101765005D01*
X87660136Y-101532368D01*
X87638936Y-101299412D01*
X87572890Y-101075009D01*
X87464517Y-100867710D01*
X87317942Y-100685408D01*
X87138750Y-100535048D01*
X87042256Y-100482000D01*
X88420493Y-100482000D01*
X88338324Y-100525690D01*
G36*
X77644819Y-101151916D02*
G01*
X77644819Y-102400010D01*
X77667901Y-102516048D01*
X77740660Y-102624940D01*
X77849552Y-102697699D01*
X77965590Y-102720781D01*
X78258400Y-102720781D01*
X78258401Y-106336422D01*
X76830596Y-107764165D01*
X76763431Y-107742859D01*
X76572579Y-107722800D01*
X76459375Y-107722800D01*
X76287352Y-107739667D01*
X76065970Y-107806507D01*
X75861786Y-107915073D01*
X75682579Y-108061230D01*
X75535174Y-108239413D01*
X75425185Y-108442833D01*
X75366878Y-108631192D01*
X75345117Y-108613788D01*
X75315824Y-108577028D01*
X75273810Y-108556762D01*
X75237333Y-108527591D01*
X75191633Y-108517125D01*
X75149231Y-108496673D01*
X75102370Y-108496632D01*
X75102230Y-108496600D01*
X75087442Y-108496600D01*
X75076119Y-108458129D01*
X74968981Y-108253193D01*
X74824078Y-108072970D01*
X74646929Y-107924324D01*
X74444282Y-107812918D01*
X74223431Y-107742859D01*
X74032579Y-107722800D01*
X73919375Y-107722800D01*
X73747352Y-107739667D01*
X73525970Y-107806507D01*
X73321786Y-107915073D01*
X73142579Y-108061230D01*
X72995174Y-108239413D01*
X72885185Y-108442833D01*
X72816802Y-108663743D01*
X72792630Y-108893728D01*
X72813588Y-109124028D01*
X72878881Y-109345871D01*
X72986019Y-109550807D01*
X73130922Y-109731030D01*
X73308071Y-109879676D01*
X73449814Y-109957600D01*
X71964058Y-109957600D01*
X72093214Y-109888927D01*
X72272421Y-109742770D01*
X72419826Y-109564587D01*
X72529815Y-109361167D01*
X72598198Y-109140257D01*
X72622370Y-108910272D01*
X72601412Y-108679972D01*
X72536119Y-108458129D01*
X72428981Y-108253193D01*
X72284078Y-108072970D01*
X72106929Y-107924324D01*
X71904282Y-107812918D01*
X71683431Y-107742859D01*
X71492579Y-107722800D01*
X71379375Y-107722800D01*
X71207352Y-107739667D01*
X70985970Y-107806507D01*
X70781786Y-107915073D01*
X70602579Y-108061230D01*
X70455174Y-108239413D01*
X70345185Y-108442833D01*
X70276802Y-108663743D01*
X70252630Y-108893728D01*
X70273588Y-109124028D01*
X70338881Y-109345871D01*
X70446019Y-109550807D01*
X70590922Y-109731030D01*
X70768071Y-109879676D01*
X70909814Y-109957600D01*
X69424058Y-109957600D01*
X69553214Y-109888927D01*
X69732421Y-109742770D01*
X69879826Y-109564587D01*
X69989815Y-109361167D01*
X70058198Y-109140257D01*
X70082370Y-108910272D01*
X70061412Y-108679972D01*
X69996119Y-108458129D01*
X69888981Y-108253193D01*
X69744078Y-108072970D01*
X69566929Y-107924324D01*
X69364282Y-107812918D01*
X69302900Y-107793446D01*
X69302900Y-107777413D01*
X69297874Y-107755380D01*
X69290186Y-107686294D01*
X69277502Y-107666074D01*
X69272188Y-107642776D01*
X69228482Y-107587928D01*
X69216418Y-107568695D01*
X69200359Y-107552636D01*
X69156923Y-107498127D01*
X69135530Y-107487808D01*
X66382400Y-104734680D01*
X66382400Y-100288176D01*
X66386571Y-100291676D01*
X66589218Y-100403082D01*
X66810069Y-100473141D01*
X67000921Y-100493200D01*
X67114125Y-100493200D01*
X67286148Y-100476333D01*
X67507530Y-100409493D01*
X67711714Y-100300927D01*
X67890921Y-100154770D01*
X68038326Y-99976587D01*
X68081250Y-99897200D01*
X76390217Y-99897200D01*
X77644819Y-101151916D01*
X77644819Y-101151916D01*
G37*
X77644819Y-101151916D02*
X77644819Y-102400010D01*
X77667901Y-102516048D01*
X77740660Y-102624940D01*
X77849552Y-102697699D01*
X77965590Y-102720781D01*
X78258400Y-102720781D01*
X78258401Y-106336422D01*
X76830596Y-107764165D01*
X76763431Y-107742859D01*
X76572579Y-107722800D01*
X76459375Y-107722800D01*
X76287352Y-107739667D01*
X76065970Y-107806507D01*
X75861786Y-107915073D01*
X75682579Y-108061230D01*
X75535174Y-108239413D01*
X75425185Y-108442833D01*
X75366878Y-108631192D01*
X75345117Y-108613788D01*
X75315824Y-108577028D01*
X75273810Y-108556762D01*
X75237333Y-108527591D01*
X75191633Y-108517125D01*
X75149231Y-108496673D01*
X75102370Y-108496632D01*
X75102230Y-108496600D01*
X75087442Y-108496600D01*
X75076119Y-108458129D01*
X74968981Y-108253193D01*
X74824078Y-108072970D01*
X74646929Y-107924324D01*
X74444282Y-107812918D01*
X74223431Y-107742859D01*
X74032579Y-107722800D01*
X73919375Y-107722800D01*
X73747352Y-107739667D01*
X73525970Y-107806507D01*
X73321786Y-107915073D01*
X73142579Y-108061230D01*
X72995174Y-108239413D01*
X72885185Y-108442833D01*
X72816802Y-108663743D01*
X72792630Y-108893728D01*
X72813588Y-109124028D01*
X72878881Y-109345871D01*
X72986019Y-109550807D01*
X73130922Y-109731030D01*
X73308071Y-109879676D01*
X73449814Y-109957600D01*
X71964058Y-109957600D01*
X72093214Y-109888927D01*
X72272421Y-109742770D01*
X72419826Y-109564587D01*
X72529815Y-109361167D01*
X72598198Y-109140257D01*
X72622370Y-108910272D01*
X72601412Y-108679972D01*
X72536119Y-108458129D01*
X72428981Y-108253193D01*
X72284078Y-108072970D01*
X72106929Y-107924324D01*
X71904282Y-107812918D01*
X71683431Y-107742859D01*
X71492579Y-107722800D01*
X71379375Y-107722800D01*
X71207352Y-107739667D01*
X70985970Y-107806507D01*
X70781786Y-107915073D01*
X70602579Y-108061230D01*
X70455174Y-108239413D01*
X70345185Y-108442833D01*
X70276802Y-108663743D01*
X70252630Y-108893728D01*
X70273588Y-109124028D01*
X70338881Y-109345871D01*
X70446019Y-109550807D01*
X70590922Y-109731030D01*
X70768071Y-109879676D01*
X70909814Y-109957600D01*
X69424058Y-109957600D01*
X69553214Y-109888927D01*
X69732421Y-109742770D01*
X69879826Y-109564587D01*
X69989815Y-109361167D01*
X70058198Y-109140257D01*
X70082370Y-108910272D01*
X70061412Y-108679972D01*
X69996119Y-108458129D01*
X69888981Y-108253193D01*
X69744078Y-108072970D01*
X69566929Y-107924324D01*
X69364282Y-107812918D01*
X69302900Y-107793446D01*
X69302900Y-107777413D01*
X69297874Y-107755380D01*
X69290186Y-107686294D01*
X69277502Y-107666074D01*
X69272188Y-107642776D01*
X69228482Y-107587928D01*
X69216418Y-107568695D01*
X69200359Y-107552636D01*
X69156923Y-107498127D01*
X69135530Y-107487808D01*
X66382400Y-104734680D01*
X66382400Y-100288176D01*
X66386571Y-100291676D01*
X66589218Y-100403082D01*
X66810069Y-100473141D01*
X67000921Y-100493200D01*
X67114125Y-100493200D01*
X67286148Y-100476333D01*
X67507530Y-100409493D01*
X67711714Y-100300927D01*
X67890921Y-100154770D01*
X68038326Y-99976587D01*
X68081250Y-99897200D01*
X76390217Y-99897200D01*
X77644819Y-101151916D01*
G36*
X82810310Y-99432991D02*
G01*
X82918683Y-99640290D01*
X83065258Y-99822592D01*
X83244450Y-99972952D01*
X83289509Y-99997724D01*
X83280708Y-100015970D01*
X82591228Y-100705451D01*
X82570147Y-100715574D01*
X82526385Y-100770295D01*
X82510033Y-100786646D01*
X82498013Y-100805773D01*
X82454593Y-100860065D01*
X82449263Y-100883336D01*
X82436549Y-100903565D01*
X82430630Y-100955916D01*
X82384517Y-100867710D01*
X82237942Y-100685408D01*
X82058750Y-100535048D01*
X81853765Y-100422357D01*
X81630372Y-100351492D01*
X81437306Y-100331200D01*
X81322801Y-100331200D01*
X81148797Y-100348261D01*
X80924862Y-100415872D01*
X80718324Y-100525690D01*
X80537050Y-100673533D01*
X80387944Y-100853771D01*
X80276687Y-101059537D01*
X80207516Y-101282995D01*
X80183064Y-101515632D01*
X80204264Y-101748588D01*
X80270310Y-101972991D01*
X80378683Y-102180290D01*
X80525258Y-102362592D01*
X80704450Y-102512952D01*
X80909435Y-102625643D01*
X81132828Y-102696508D01*
X81325894Y-102716800D01*
X81440399Y-102716800D01*
X81614403Y-102699739D01*
X81838338Y-102632128D01*
X82044876Y-102522310D01*
X82226150Y-102374467D01*
X82375256Y-102194229D01*
X82423601Y-102104817D01*
X82423600Y-103958278D01*
X77683122Y-108698758D01*
X77681412Y-108679972D01*
X77654788Y-108589512D01*
X79185030Y-107059337D01*
X79195331Y-107054302D01*
X79262786Y-106981584D01*
X79292265Y-106952106D01*
X79298328Y-106943269D01*
X79347458Y-106890305D01*
X79356804Y-106858031D01*
X79384008Y-106818377D01*
X79434175Y-106606995D01*
X79424800Y-106538089D01*
X79424800Y-102720781D01*
X79717610Y-102720781D01*
X79833648Y-102697699D01*
X79942540Y-102624940D01*
X80015299Y-102516048D01*
X80038381Y-102400010D01*
X80038381Y-100647990D01*
X80015299Y-100531952D01*
X79942540Y-100423060D01*
X79833648Y-100350301D01*
X79717610Y-100327219D01*
X79506127Y-100327219D01*
X79572567Y-100297290D01*
X79783393Y-100155355D01*
X79967290Y-99979926D01*
X80118998Y-99776021D01*
X80234183Y-99549470D01*
X80270336Y-99433040D01*
X80378683Y-99640290D01*
X80525258Y-99822592D01*
X80704450Y-99972952D01*
X80909435Y-100085643D01*
X81132828Y-100156508D01*
X81325894Y-100176800D01*
X81440399Y-100176800D01*
X81614403Y-100159739D01*
X81838338Y-100092128D01*
X82044876Y-99982310D01*
X82226150Y-99834467D01*
X82375256Y-99654229D01*
X82486513Y-99448463D01*
X82504785Y-99389435D01*
X82566224Y-99389488D01*
X82608596Y-99369141D01*
X82654425Y-99358687D01*
X82690907Y-99329616D01*
X82732954Y-99309426D01*
X82762309Y-99272719D01*
X82762981Y-99272183D01*
X82810310Y-99432991D01*
X82810310Y-99432991D01*
G37*
X82810310Y-99432991D02*
X82918683Y-99640290D01*
X83065258Y-99822592D01*
X83244450Y-99972952D01*
X83289509Y-99997724D01*
X83280708Y-100015970D01*
X82591228Y-100705451D01*
X82570147Y-100715574D01*
X82526385Y-100770295D01*
X82510033Y-100786646D01*
X82498013Y-100805773D01*
X82454593Y-100860065D01*
X82449263Y-100883336D01*
X82436549Y-100903565D01*
X82430630Y-100955916D01*
X82384517Y-100867710D01*
X82237942Y-100685408D01*
X82058750Y-100535048D01*
X81853765Y-100422357D01*
X81630372Y-100351492D01*
X81437306Y-100331200D01*
X81322801Y-100331200D01*
X81148797Y-100348261D01*
X80924862Y-100415872D01*
X80718324Y-100525690D01*
X80537050Y-100673533D01*
X80387944Y-100853771D01*
X80276687Y-101059537D01*
X80207516Y-101282995D01*
X80183064Y-101515632D01*
X80204264Y-101748588D01*
X80270310Y-101972991D01*
X80378683Y-102180290D01*
X80525258Y-102362592D01*
X80704450Y-102512952D01*
X80909435Y-102625643D01*
X81132828Y-102696508D01*
X81325894Y-102716800D01*
X81440399Y-102716800D01*
X81614403Y-102699739D01*
X81838338Y-102632128D01*
X82044876Y-102522310D01*
X82226150Y-102374467D01*
X82375256Y-102194229D01*
X82423601Y-102104817D01*
X82423600Y-103958278D01*
X77683122Y-108698758D01*
X77681412Y-108679972D01*
X77654788Y-108589512D01*
X79185030Y-107059337D01*
X79195331Y-107054302D01*
X79262786Y-106981584D01*
X79292265Y-106952106D01*
X79298328Y-106943269D01*
X79347458Y-106890305D01*
X79356804Y-106858031D01*
X79384008Y-106818377D01*
X79434175Y-106606995D01*
X79424800Y-106538089D01*
X79424800Y-102720781D01*
X79717610Y-102720781D01*
X79833648Y-102697699D01*
X79942540Y-102624940D01*
X80015299Y-102516048D01*
X80038381Y-102400010D01*
X80038381Y-100647990D01*
X80015299Y-100531952D01*
X79942540Y-100423060D01*
X79833648Y-100350301D01*
X79717610Y-100327219D01*
X79506127Y-100327219D01*
X79572567Y-100297290D01*
X79783393Y-100155355D01*
X79967290Y-99979926D01*
X80118998Y-99776021D01*
X80234183Y-99549470D01*
X80270336Y-99433040D01*
X80378683Y-99640290D01*
X80525258Y-99822592D01*
X80704450Y-99972952D01*
X80909435Y-100085643D01*
X81132828Y-100156508D01*
X81325894Y-100176800D01*
X81440399Y-100176800D01*
X81614403Y-100159739D01*
X81838338Y-100092128D01*
X82044876Y-99982310D01*
X82226150Y-99834467D01*
X82375256Y-99654229D01*
X82486513Y-99448463D01*
X82504785Y-99389435D01*
X82566224Y-99389488D01*
X82608596Y-99369141D01*
X82654425Y-99358687D01*
X82690907Y-99329616D01*
X82732954Y-99309426D01*
X82762309Y-99272719D01*
X82762981Y-99272183D01*
X82810310Y-99432991D01*
G36*
X101913450Y-95233771D02*
G01*
X101923574Y-95254854D01*
X101978295Y-95298616D01*
X101994644Y-95314966D01*
X102013771Y-95326987D01*
X102068065Y-95370408D01*
X102091334Y-95375738D01*
X102111565Y-95388453D01*
X102181246Y-95396330D01*
X102203383Y-95401400D01*
X102226093Y-95401400D01*
X102295351Y-95409230D01*
X102317773Y-95401400D01*
X108297494Y-95401400D01*
X108280293Y-95403314D01*
X108260071Y-95415999D01*
X108236776Y-95421313D01*
X108181932Y-95465015D01*
X108162694Y-95477083D01*
X108146636Y-95493141D01*
X108092127Y-95536577D01*
X108081808Y-95557970D01*
X105747931Y-97891849D01*
X105726845Y-97901974D01*
X105683080Y-97956700D01*
X105666735Y-97973044D01*
X105654713Y-97992172D01*
X105611291Y-98046468D01*
X105605962Y-98069738D01*
X105593249Y-98089964D01*
X105585371Y-98159645D01*
X105580300Y-98181785D01*
X105580300Y-98204493D01*
X105572469Y-98273750D01*
X105580300Y-98296173D01*
X105580301Y-100680678D01*
X105044181Y-101216798D01*
X105044181Y-100051590D01*
X105021099Y-99935552D01*
X104948340Y-99826660D01*
X104839448Y-99753901D01*
X104723410Y-99730819D01*
X102998590Y-99730819D01*
X102882552Y-99753901D01*
X102773660Y-99826660D01*
X102700901Y-99935552D01*
X102677819Y-100051590D01*
X102677819Y-101776410D01*
X102700901Y-101892448D01*
X102773660Y-102001340D01*
X102882552Y-102074099D01*
X102998590Y-102097181D01*
X104163798Y-102097181D01*
X103148280Y-103112700D01*
X102985335Y-103112700D01*
X102963272Y-103104952D01*
X102893647Y-103112700D01*
X102870513Y-103112700D01*
X102848480Y-103117726D01*
X102779391Y-103125414D01*
X102759171Y-103138098D01*
X102735876Y-103143412D01*
X102681026Y-103187120D01*
X102661793Y-103199185D01*
X102645741Y-103215237D01*
X102591227Y-103258677D01*
X102580908Y-103280070D01*
X102461229Y-103399750D01*
X102440145Y-103409874D01*
X102396385Y-103464595D01*
X102380035Y-103480944D01*
X102368013Y-103500072D01*
X102324591Y-103554368D01*
X102319262Y-103577638D01*
X102306549Y-103597864D01*
X102298671Y-103667545D01*
X102293600Y-103689685D01*
X102293600Y-103712394D01*
X102285770Y-103781648D01*
X102293600Y-103804072D01*
X102293600Y-103924710D01*
X102167578Y-103767970D01*
X101990429Y-103619324D01*
X101787782Y-103507918D01*
X101726400Y-103488446D01*
X101726400Y-103472413D01*
X101721374Y-103450380D01*
X101713686Y-103381291D01*
X101701002Y-103361071D01*
X101695688Y-103337776D01*
X101651980Y-103282926D01*
X101639915Y-103263693D01*
X101623863Y-103247641D01*
X101580423Y-103193127D01*
X101559030Y-103182808D01*
X100647500Y-102271279D01*
X100647500Y-101888260D01*
X100651571Y-101891676D01*
X100854218Y-102003082D01*
X101075069Y-102073141D01*
X101265921Y-102093200D01*
X101379125Y-102093200D01*
X101551148Y-102076333D01*
X101772530Y-102009493D01*
X101976714Y-101900927D01*
X102155921Y-101754770D01*
X102303326Y-101576587D01*
X102413315Y-101373167D01*
X102481698Y-101152257D01*
X102505870Y-100922272D01*
X102484912Y-100691972D01*
X102419619Y-100470129D01*
X102312481Y-100265193D01*
X102167578Y-100084970D01*
X101990429Y-99936324D01*
X101787782Y-99824918D01*
X101726400Y-99805446D01*
X101726400Y-99789413D01*
X101721374Y-99767380D01*
X101713686Y-99698294D01*
X101701002Y-99678074D01*
X101695688Y-99654776D01*
X101651982Y-99599928D01*
X101639918Y-99580695D01*
X101623859Y-99564636D01*
X101580423Y-99510127D01*
X101559032Y-99499809D01*
X100462200Y-98402979D01*
X100462200Y-98045029D01*
X100474422Y-98060230D01*
X100651571Y-98208876D01*
X100854218Y-98320282D01*
X101075069Y-98390341D01*
X101265921Y-98410400D01*
X101379125Y-98410400D01*
X101551148Y-98393533D01*
X101772530Y-98326693D01*
X101976714Y-98218127D01*
X102155921Y-98071970D01*
X102303326Y-97893787D01*
X102413315Y-97690367D01*
X102481698Y-97469457D01*
X102505870Y-97239472D01*
X102484912Y-97009172D01*
X102419619Y-96787329D01*
X102312481Y-96582393D01*
X102167578Y-96402170D01*
X102127798Y-96368790D01*
X102677819Y-96368790D01*
X102677819Y-98093610D01*
X102700901Y-98209648D01*
X102773660Y-98318540D01*
X102882552Y-98391299D01*
X102998590Y-98414381D01*
X104723410Y-98414381D01*
X104839448Y-98391299D01*
X104948340Y-98318540D01*
X105021099Y-98209648D01*
X105044181Y-98093610D01*
X105044181Y-96368790D01*
X105021099Y-96252752D01*
X104948340Y-96143860D01*
X104839448Y-96071101D01*
X104723410Y-96048019D01*
X102998590Y-96048019D01*
X102882552Y-96071101D01*
X102773660Y-96143860D01*
X102700901Y-96252752D01*
X102677819Y-96368790D01*
X102127798Y-96368790D01*
X101990429Y-96253524D01*
X101787782Y-96142118D01*
X101566931Y-96072059D01*
X101376079Y-96052000D01*
X101262875Y-96052000D01*
X101090852Y-96068867D01*
X100869470Y-96135707D01*
X100665286Y-96244273D01*
X100486079Y-96390430D01*
X100462200Y-96419295D01*
X100462200Y-94759290D01*
X100544140Y-94704540D01*
X100616899Y-94595648D01*
X100639981Y-94479610D01*
X100639981Y-93960301D01*
X101913450Y-95233771D01*
X101913450Y-95233771D01*
G37*
X101913450Y-95233771D02*
X101923574Y-95254854D01*
X101978295Y-95298616D01*
X101994644Y-95314966D01*
X102013771Y-95326987D01*
X102068065Y-95370408D01*
X102091334Y-95375738D01*
X102111565Y-95388453D01*
X102181246Y-95396330D01*
X102203383Y-95401400D01*
X102226093Y-95401400D01*
X102295351Y-95409230D01*
X102317773Y-95401400D01*
X108297494Y-95401400D01*
X108280293Y-95403314D01*
X108260071Y-95415999D01*
X108236776Y-95421313D01*
X108181932Y-95465015D01*
X108162694Y-95477083D01*
X108146636Y-95493141D01*
X108092127Y-95536577D01*
X108081808Y-95557970D01*
X105747931Y-97891849D01*
X105726845Y-97901974D01*
X105683080Y-97956700D01*
X105666735Y-97973044D01*
X105654713Y-97992172D01*
X105611291Y-98046468D01*
X105605962Y-98069738D01*
X105593249Y-98089964D01*
X105585371Y-98159645D01*
X105580300Y-98181785D01*
X105580300Y-98204493D01*
X105572469Y-98273750D01*
X105580300Y-98296173D01*
X105580301Y-100680678D01*
X105044181Y-101216798D01*
X105044181Y-100051590D01*
X105021099Y-99935552D01*
X104948340Y-99826660D01*
X104839448Y-99753901D01*
X104723410Y-99730819D01*
X102998590Y-99730819D01*
X102882552Y-99753901D01*
X102773660Y-99826660D01*
X102700901Y-99935552D01*
X102677819Y-100051590D01*
X102677819Y-101776410D01*
X102700901Y-101892448D01*
X102773660Y-102001340D01*
X102882552Y-102074099D01*
X102998590Y-102097181D01*
X104163798Y-102097181D01*
X103148280Y-103112700D01*
X102985335Y-103112700D01*
X102963272Y-103104952D01*
X102893647Y-103112700D01*
X102870513Y-103112700D01*
X102848480Y-103117726D01*
X102779391Y-103125414D01*
X102759171Y-103138098D01*
X102735876Y-103143412D01*
X102681026Y-103187120D01*
X102661793Y-103199185D01*
X102645741Y-103215237D01*
X102591227Y-103258677D01*
X102580908Y-103280070D01*
X102461229Y-103399750D01*
X102440145Y-103409874D01*
X102396385Y-103464595D01*
X102380035Y-103480944D01*
X102368013Y-103500072D01*
X102324591Y-103554368D01*
X102319262Y-103577638D01*
X102306549Y-103597864D01*
X102298671Y-103667545D01*
X102293600Y-103689685D01*
X102293600Y-103712394D01*
X102285770Y-103781648D01*
X102293600Y-103804072D01*
X102293600Y-103924710D01*
X102167578Y-103767970D01*
X101990429Y-103619324D01*
X101787782Y-103507918D01*
X101726400Y-103488446D01*
X101726400Y-103472413D01*
X101721374Y-103450380D01*
X101713686Y-103381291D01*
X101701002Y-103361071D01*
X101695688Y-103337776D01*
X101651980Y-103282926D01*
X101639915Y-103263693D01*
X101623863Y-103247641D01*
X101580423Y-103193127D01*
X101559030Y-103182808D01*
X100647500Y-102271279D01*
X100647500Y-101888260D01*
X100651571Y-101891676D01*
X100854218Y-102003082D01*
X101075069Y-102073141D01*
X101265921Y-102093200D01*
X101379125Y-102093200D01*
X101551148Y-102076333D01*
X101772530Y-102009493D01*
X101976714Y-101900927D01*
X102155921Y-101754770D01*
X102303326Y-101576587D01*
X102413315Y-101373167D01*
X102481698Y-101152257D01*
X102505870Y-100922272D01*
X102484912Y-100691972D01*
X102419619Y-100470129D01*
X102312481Y-100265193D01*
X102167578Y-100084970D01*
X101990429Y-99936324D01*
X101787782Y-99824918D01*
X101726400Y-99805446D01*
X101726400Y-99789413D01*
X101721374Y-99767380D01*
X101713686Y-99698294D01*
X101701002Y-99678074D01*
X101695688Y-99654776D01*
X101651982Y-99599928D01*
X101639918Y-99580695D01*
X101623859Y-99564636D01*
X101580423Y-99510127D01*
X101559032Y-99499809D01*
X100462200Y-98402979D01*
X100462200Y-98045029D01*
X100474422Y-98060230D01*
X100651571Y-98208876D01*
X100854218Y-98320282D01*
X101075069Y-98390341D01*
X101265921Y-98410400D01*
X101379125Y-98410400D01*
X101551148Y-98393533D01*
X101772530Y-98326693D01*
X101976714Y-98218127D01*
X102155921Y-98071970D01*
X102303326Y-97893787D01*
X102413315Y-97690367D01*
X102481698Y-97469457D01*
X102505870Y-97239472D01*
X102484912Y-97009172D01*
X102419619Y-96787329D01*
X102312481Y-96582393D01*
X102167578Y-96402170D01*
X102127798Y-96368790D01*
X102677819Y-96368790D01*
X102677819Y-98093610D01*
X102700901Y-98209648D01*
X102773660Y-98318540D01*
X102882552Y-98391299D01*
X102998590Y-98414381D01*
X104723410Y-98414381D01*
X104839448Y-98391299D01*
X104948340Y-98318540D01*
X105021099Y-98209648D01*
X105044181Y-98093610D01*
X105044181Y-96368790D01*
X105021099Y-96252752D01*
X104948340Y-96143860D01*
X104839448Y-96071101D01*
X104723410Y-96048019D01*
X102998590Y-96048019D01*
X102882552Y-96071101D01*
X102773660Y-96143860D01*
X102700901Y-96252752D01*
X102677819Y-96368790D01*
X102127798Y-96368790D01*
X101990429Y-96253524D01*
X101787782Y-96142118D01*
X101566931Y-96072059D01*
X101376079Y-96052000D01*
X101262875Y-96052000D01*
X101090852Y-96068867D01*
X100869470Y-96135707D01*
X100665286Y-96244273D01*
X100486079Y-96390430D01*
X100462200Y-96419295D01*
X100462200Y-94759290D01*
X100544140Y-94704540D01*
X100616899Y-94595648D01*
X100639981Y-94479610D01*
X100639981Y-93960301D01*
X101913450Y-95233771D01*
G36*
X95307447Y-94770235D02*
G01*
X95448133Y-94812845D01*
X90589780Y-99671200D01*
X89981216Y-99671200D01*
X89995256Y-99654229D01*
X90106513Y-99448463D01*
X90175684Y-99225005D01*
X90200136Y-98992368D01*
X90178936Y-98759412D01*
X90112890Y-98535009D01*
X90004517Y-98327710D01*
X89857942Y-98145408D01*
X89678750Y-97995048D01*
X89473765Y-97882357D01*
X89250372Y-97811492D01*
X89057306Y-97791200D01*
X88942801Y-97791200D01*
X88768797Y-97808261D01*
X88544862Y-97875872D01*
X88338324Y-97985690D01*
X88157050Y-98133533D01*
X88007944Y-98313771D01*
X87896687Y-98519537D01*
X87827516Y-98742995D01*
X87803064Y-98975632D01*
X87824264Y-99208588D01*
X87890310Y-99432991D01*
X87998683Y-99640290D01*
X88023535Y-99671200D01*
X87441216Y-99671200D01*
X87455256Y-99654229D01*
X87566513Y-99448463D01*
X87635684Y-99225005D01*
X87660136Y-98992368D01*
X87638936Y-98759412D01*
X87572890Y-98535009D01*
X87464517Y-98327710D01*
X87317942Y-98145408D01*
X87138750Y-97995048D01*
X86933765Y-97882357D01*
X86710372Y-97811492D01*
X86652781Y-97805439D01*
X89783121Y-94675100D01*
X95185458Y-94675100D01*
X95307447Y-94770235D01*
X95307447Y-94770235D01*
G37*
X95307447Y-94770235D02*
X95448133Y-94812845D01*
X90589780Y-99671200D01*
X89981216Y-99671200D01*
X89995256Y-99654229D01*
X90106513Y-99448463D01*
X90175684Y-99225005D01*
X90200136Y-98992368D01*
X90178936Y-98759412D01*
X90112890Y-98535009D01*
X90004517Y-98327710D01*
X89857942Y-98145408D01*
X89678750Y-97995048D01*
X89473765Y-97882357D01*
X89250372Y-97811492D01*
X89057306Y-97791200D01*
X88942801Y-97791200D01*
X88768797Y-97808261D01*
X88544862Y-97875872D01*
X88338324Y-97985690D01*
X88157050Y-98133533D01*
X88007944Y-98313771D01*
X87896687Y-98519537D01*
X87827516Y-98742995D01*
X87803064Y-98975632D01*
X87824264Y-99208588D01*
X87890310Y-99432991D01*
X87998683Y-99640290D01*
X88023535Y-99671200D01*
X87441216Y-99671200D01*
X87455256Y-99654229D01*
X87566513Y-99448463D01*
X87635684Y-99225005D01*
X87660136Y-98992368D01*
X87638936Y-98759412D01*
X87572890Y-98535009D01*
X87464517Y-98327710D01*
X87317942Y-98145408D01*
X87138750Y-97995048D01*
X86933765Y-97882357D01*
X86710372Y-97811492D01*
X86652781Y-97805439D01*
X89783121Y-94675100D01*
X95185458Y-94675100D01*
X95307447Y-94770235D01*
G36*
X95183070Y-93864300D02*
G01*
X89684335Y-93864300D01*
X89662272Y-93856552D01*
X89592647Y-93864300D01*
X89569513Y-93864300D01*
X89547480Y-93869326D01*
X89478391Y-93877014D01*
X89458171Y-93889698D01*
X89434876Y-93895012D01*
X89380026Y-93938720D01*
X89360793Y-93950785D01*
X89344741Y-93966837D01*
X89290227Y-94010277D01*
X89279907Y-94031672D01*
X84944894Y-98366686D01*
X84924517Y-98327710D01*
X84777942Y-98145408D01*
X84598750Y-97995048D01*
X84393765Y-97882357D01*
X84170372Y-97811492D01*
X84112781Y-97805439D01*
X88076922Y-93841300D01*
X95214096Y-93841300D01*
X95183070Y-93864300D01*
X95183070Y-93864300D01*
G37*
X95183070Y-93864300D02*
X89684335Y-93864300D01*
X89662272Y-93856552D01*
X89592647Y-93864300D01*
X89569513Y-93864300D01*
X89547480Y-93869326D01*
X89478391Y-93877014D01*
X89458171Y-93889698D01*
X89434876Y-93895012D01*
X89380026Y-93938720D01*
X89360793Y-93950785D01*
X89344741Y-93966837D01*
X89290227Y-94010277D01*
X89279907Y-94031672D01*
X84944894Y-98366686D01*
X84924517Y-98327710D01*
X84777942Y-98145408D01*
X84598750Y-97995048D01*
X84393765Y-97882357D01*
X84170372Y-97811492D01*
X84112781Y-97805439D01*
X88076922Y-93841300D01*
X95214096Y-93841300D01*
X95183070Y-93864300D01*
G36*
X97131640Y-91686461D02*
G01*
X97096701Y-91738752D01*
X97073619Y-91854790D01*
X97073619Y-92490700D01*
X94912321Y-92490700D01*
X91312450Y-88890830D01*
X91302326Y-88869746D01*
X91247600Y-88825980D01*
X91231256Y-88809635D01*
X91212130Y-88797614D01*
X91157835Y-88754193D01*
X91134562Y-88748862D01*
X91114333Y-88736149D01*
X91044653Y-88728270D01*
X91022515Y-88723200D01*
X90999807Y-88723200D01*
X90930550Y-88715369D01*
X90908127Y-88723200D01*
X89752621Y-88723200D01*
X89769950Y-88709067D01*
X89919056Y-88528829D01*
X90030313Y-88323063D01*
X90048596Y-88264000D01*
X93709180Y-88264000D01*
X97131640Y-91686461D01*
X97131640Y-91686461D01*
G37*
X97131640Y-91686461D02*
X97096701Y-91738752D01*
X97073619Y-91854790D01*
X97073619Y-92490700D01*
X94912321Y-92490700D01*
X91312450Y-88890830D01*
X91302326Y-88869746D01*
X91247600Y-88825980D01*
X91231256Y-88809635D01*
X91212130Y-88797614D01*
X91157835Y-88754193D01*
X91134562Y-88748862D01*
X91114333Y-88736149D01*
X91044653Y-88728270D01*
X91022515Y-88723200D01*
X90999807Y-88723200D01*
X90930550Y-88715369D01*
X90908127Y-88723200D01*
X89752621Y-88723200D01*
X89769950Y-88709067D01*
X89919056Y-88528829D01*
X90030313Y-88323063D01*
X90048596Y-88264000D01*
X93709180Y-88264000D01*
X97131640Y-91686461D01*
M02*
