M48
; DRILL file {KiCad 6.0.0-unknown-0ba0c17~86~ubuntu19.04.1} date Sat 31 Aug 2019 02:54:05 AM PDT
; FORMAT={-:-/ absolute / metric / decimal}
; #@! TF.CreationDate,2019-08-31T02:54:05-07:00
; #@! TF.GenerationSoftware,Kicad,Pcbnew,6.0.0-unknown-0ba0c17~86~ubuntu19.04.1
; #@! TF.FileFunction,Plated,1,2,PTH
FMAT,2
METRIC
T1C0.200
T2C1.000
T3C1.016
%
G90
G05
T1
X68.834Y-103.759
X69.469Y-101.346
X75.438Y-89.027
X76.327Y-102.362
X76.454Y-105.791
X80.01Y-105.791
X80.518Y-103.759
X80.772Y-108.331
X82.677Y-106.807
X82.931Y-94.361
X87.503Y-92.202
X87.884Y-94.488
X87.91Y-107.665
X89.916Y-94.742
X90.678Y-102.87
X91.44Y-91.948
X91.567Y-97.155
X92.075Y-106.807
X92.583Y-89.154
X93.091Y-95.25
X93.218Y-105.918
X95.567Y-94.27
X96.354Y-94.481
X96.393Y-91.948
X96.393Y-98.679
X98.378Y-94.9
X99.901Y-91.354
X101.054Y-93.159
X102.788Y-94.316
X105.0Y-91.0
X107.0Y-96.0
X107.0Y-100.0
X107.0Y-103.0
X109.0Y-97.0
T2
X66.358Y-108.902
X66.358Y-111.442
X68.897Y-108.902
X68.897Y-111.442
X71.438Y-108.902
X71.438Y-111.442
X73.977Y-108.902
X73.977Y-111.442
X76.517Y-108.902
X76.517Y-111.442
X98.781Y-100.914
X101.321Y-100.914
X103.861Y-100.914
X64.516Y-89.154
X64.516Y-91.694
X64.516Y-94.234
X64.516Y-96.774
X64.516Y-99.314
X67.056Y-89.154
X67.056Y-91.694
X67.056Y-94.234
X67.056Y-96.774
X67.056Y-99.314
X87.566Y-108.902
X87.566Y-111.442
X90.106Y-108.902
X90.106Y-111.442
X92.646Y-108.902
X92.646Y-111.442
X95.186Y-108.902
X95.186Y-111.442
X97.727Y-108.902
X97.727Y-111.442
X98.781Y-97.231
X101.321Y-97.231
X103.861Y-97.231
X109.156Y-99.251
X109.156Y-101.79
X109.156Y-104.331
X109.156Y-106.87
X109.156Y-109.41
X111.696Y-99.251
X111.696Y-101.79
X111.696Y-104.331
X111.696Y-106.87
X111.696Y-109.41
X98.781Y-104.597
X101.321Y-104.597
X103.861Y-104.597
T3
X78.765Y-87.859
X78.765Y-90.399
X81.305Y-87.859
X81.305Y-90.399
X83.845Y-87.859
X83.845Y-90.399
X86.385Y-87.859
X86.385Y-90.399
X88.925Y-87.859
X88.925Y-90.399
X78.842Y-98.984
X78.842Y-101.524
X81.382Y-98.984
X81.382Y-101.524
X83.922Y-98.984
X83.922Y-101.524
X86.462Y-98.984
X86.462Y-101.524
X89.002Y-98.984
X89.002Y-101.524
T0
M30
