G04 #@! TF.GenerationSoftware,KiCad,Pcbnew,(5.1.0-1558-g0ba0c1724)*
G04 #@! TF.CreationDate,2019-09-15T11:25:37-07:00*
G04 #@! TF.ProjectId,IOBoard,494f426f-6172-4642-9e6b-696361645f70,rev?*
G04 #@! TF.SameCoordinates,Original*
G04 #@! TF.FileFunction,Copper,L1,Top*
G04 #@! TF.FilePolarity,Positive*
%FSLAX46Y46*%
G04 Gerber Fmt 4.6, Leading zero omitted, Abs format (unit mm)*
G04 Created by KiCad (PCBNEW (5.1.0-1558-g0ba0c1724)) date 2019-09-15 11:25:37*
%MOMM*%
%LPD*%
G04 APERTURE LIST*
%ADD10O,1.700000X1.700000*%
%ADD11R,1.700000X1.700000*%
%ADD12O,1.727200X1.727200*%
%ADD13R,1.727200X1.727200*%
%ADD14R,0.800000X0.500000*%
%ADD15R,0.800000X0.400000*%
%ADD16R,0.500000X0.800000*%
%ADD17R,0.400000X0.800000*%
%ADD18C,0.450000*%
%ADD19C,0.152400*%
%ADD20C,0.762000*%
%ADD21C,0.254000*%
G04 APERTURE END LIST*
D10*
X98779200Y-93562400D03*
X101319200Y-93562400D03*
D11*
X103859200Y-93562400D03*
D12*
X88925400Y-87858600D03*
X88925400Y-90398600D03*
X86385400Y-87858600D03*
X86385400Y-90398600D03*
X83845400Y-87858600D03*
X83845400Y-90398600D03*
X81305400Y-87858600D03*
X81305400Y-90398600D03*
X78765400Y-87858600D03*
D13*
X78765400Y-90398600D03*
D12*
X89001600Y-98984000D03*
X89001600Y-101524000D03*
X86461600Y-98984000D03*
X86461600Y-101524000D03*
X83921600Y-98984000D03*
X83921600Y-101524000D03*
X81381600Y-98984000D03*
X81381600Y-101524000D03*
X78841600Y-98984000D03*
D13*
X78841600Y-101524000D03*
D14*
X110846000Y-95796000D03*
D15*
X110846000Y-94996000D03*
D14*
X110846000Y-93396000D03*
D15*
X110846000Y-94196000D03*
D14*
X109046000Y-95796000D03*
D15*
X109046000Y-94196000D03*
X109046000Y-94996000D03*
D14*
X109046000Y-93396000D03*
D16*
X101846000Y-110058000D03*
D17*
X102646000Y-110058000D03*
D16*
X104246000Y-110058000D03*
D17*
X103446000Y-110058000D03*
D16*
X101846000Y-108258000D03*
D17*
X103446000Y-108258000D03*
X102646000Y-108258000D03*
D16*
X104246000Y-108258000D03*
D10*
X98781000Y-97231200D03*
X101321000Y-97231200D03*
D11*
X103861000Y-97231200D03*
D10*
X98781000Y-104597000D03*
X101321000Y-104597000D03*
D11*
X103861000Y-104597000D03*
D10*
X98781000Y-100914000D03*
X101321000Y-100914000D03*
D11*
X103861000Y-100914000D03*
D10*
X67056000Y-99314000D03*
X64516000Y-99314000D03*
X67056000Y-96774000D03*
X64516000Y-96774000D03*
X67056000Y-94234000D03*
X64516000Y-94234000D03*
X67056000Y-91694000D03*
X64516000Y-91694000D03*
X67056000Y-89154000D03*
D11*
X64516000Y-89154000D03*
D10*
X76517500Y-108902000D03*
X76517500Y-111442000D03*
X73977500Y-108902000D03*
X73977500Y-111442000D03*
X71437500Y-108902000D03*
X71437500Y-111442000D03*
X68897500Y-108902000D03*
X68897500Y-111442000D03*
X66357500Y-108902000D03*
D11*
X66357500Y-111442000D03*
D10*
X111696000Y-109410500D03*
X109156000Y-109410500D03*
X111696000Y-106870500D03*
X109156000Y-106870500D03*
X111696000Y-104330500D03*
X109156000Y-104330500D03*
X111696000Y-101790500D03*
X109156000Y-101790500D03*
X111696000Y-99250500D03*
D11*
X109156000Y-99250500D03*
D10*
X97726500Y-108902000D03*
X97726500Y-111442000D03*
X95186500Y-108902000D03*
X95186500Y-111442000D03*
X92646500Y-108902000D03*
X92646500Y-111442000D03*
X90106500Y-108902000D03*
X90106500Y-111442000D03*
X87566500Y-108902000D03*
D11*
X87566500Y-111442000D03*
D18*
X87738674Y-97065423D03*
X87399682Y-92920056D03*
X91704300Y-107157300D03*
X96045500Y-104285100D03*
X101781400Y-107120600D03*
X94940800Y-104668600D03*
X100590000Y-109809200D03*
X111033100Y-96596500D03*
X81608800Y-107329200D03*
X70534400Y-104636800D03*
X70026400Y-102249200D03*
X78408400Y-106059200D03*
X77595600Y-103062000D03*
X83996400Y-106973600D03*
X87400000Y-106313200D03*
X89889200Y-103214400D03*
X89940000Y-105449600D03*
X92886400Y-102808000D03*
X91768800Y-100674400D03*
X93292800Y-98540800D03*
X94715200Y-96966000D03*
X91768800Y-96915200D03*
X90194000Y-94781600D03*
X88771600Y-93867200D03*
X85876000Y-94273600D03*
X86130000Y-96458000D03*
X83285200Y-96712000D03*
X82370800Y-94019600D03*
X80694400Y-94934000D03*
X78865600Y-96000800D03*
X91260800Y-89701600D03*
X92734000Y-87974400D03*
X95020000Y-93511600D03*
X98931600Y-90870000D03*
X107466000Y-90006400D03*
X107262800Y-102960400D03*
X107415200Y-105500400D03*
X100811200Y-102757200D03*
X99846000Y-106618000D03*
X99287200Y-110529600D03*
X82015200Y-112764800D03*
X64286000Y-105754400D03*
X70483600Y-85688400D03*
D19*
X110846000Y-94196000D02*
X111474900Y-94196000D01*
X111474900Y-94196000D02*
X112777600Y-95498700D01*
X112777600Y-100708900D02*
X111696000Y-101790500D01*
X112777600Y-95498700D02*
X112777600Y-100708900D01*
X103861000Y-104597000D02*
X104939900Y-104597000D01*
X104939900Y-104597000D02*
X108674500Y-108331600D01*
X108674500Y-108331600D02*
X110617100Y-108331600D01*
X110617100Y-108331600D02*
X111696000Y-109410500D01*
X91704300Y-107157300D02*
X91704300Y-107959800D01*
X91704300Y-107959800D02*
X92646500Y-108902000D01*
X93636300Y-103831200D02*
X90343950Y-107123550D01*
X90343950Y-107123550D02*
X89344950Y-107123550D01*
X89344950Y-107123550D02*
X87566500Y-108902000D01*
X79934200Y-107013400D02*
X76966700Y-109980900D01*
X87143300Y-92180700D02*
X86119900Y-92180700D01*
X86119900Y-92180700D02*
X79934200Y-98366400D01*
X79934200Y-98366400D02*
X79934200Y-107013400D01*
X88925400Y-90398600D02*
X87143300Y-92180700D01*
X76966700Y-109980900D02*
X72516400Y-109980900D01*
X72516400Y-109980900D02*
X71437500Y-108902000D01*
X67767200Y-106692800D02*
X65977000Y-104902600D01*
X67767200Y-106692800D02*
X67767200Y-107771700D01*
X67767200Y-107771700D02*
X68897500Y-108902000D01*
X86492100Y-112551300D02*
X84265300Y-110324500D01*
X67780000Y-110324500D02*
X66357500Y-108902000D01*
X99981600Y-112551300D02*
X86492100Y-112551300D01*
X101846000Y-110686900D02*
X99981600Y-112551300D01*
X84265300Y-110324500D02*
X67780000Y-110324500D01*
X101846000Y-110058000D02*
X101846000Y-110686900D01*
X91406600Y-92478300D02*
X86600650Y-97284250D01*
X86600650Y-97284250D02*
X85621350Y-97284250D01*
X85621350Y-97284250D02*
X83921600Y-98984000D01*
X106817000Y-95796000D02*
X94001600Y-95796000D01*
X89391100Y-100406500D02*
X85039100Y-100406500D01*
X85039100Y-100406500D02*
X83921600Y-101524000D01*
X108417000Y-94196000D02*
X106817000Y-95796000D01*
X94001600Y-95796000D02*
X89391100Y-100406500D01*
X109046000Y-94196000D02*
X108417000Y-94196000D01*
X89027350Y-97374150D02*
X91606700Y-94794800D01*
X88071450Y-97374150D02*
X86461600Y-98984000D01*
X89027350Y-97374150D02*
X88071450Y-97374150D01*
X75373300Y-97891400D02*
X81214350Y-92050350D01*
X81214350Y-92050350D02*
X82193650Y-92050350D01*
X82193650Y-92050350D02*
X83845400Y-90398600D01*
X111391300Y-103060500D02*
X111996700Y-103060500D01*
X109046000Y-96198400D02*
X108077100Y-97167300D01*
X108077100Y-97167300D02*
X108077100Y-104839200D01*
X87956366Y-91798700D02*
X87269556Y-92485511D01*
X109046000Y-95796000D02*
X109046000Y-96198400D01*
X110227700Y-91798700D02*
X87956366Y-91798700D01*
X80270300Y-100412700D02*
X80518001Y-100660401D01*
X108647400Y-105409500D02*
X109651700Y-105409500D01*
X87269556Y-92485511D02*
X86296789Y-92485511D01*
X110617000Y-104444200D02*
X110617000Y-103834800D01*
X108077100Y-104839200D02*
X108647400Y-105409500D01*
X111996700Y-103060500D02*
X113125400Y-101931800D01*
X86296789Y-92485511D02*
X80270300Y-98512000D01*
X113125400Y-101931800D02*
X113125400Y-94696400D01*
X80518001Y-100660401D02*
X81381600Y-101524000D01*
X80270300Y-98512000D02*
X80270300Y-100412700D01*
X113125400Y-94696400D02*
X110227700Y-91798700D01*
X110617000Y-103834800D02*
X111391300Y-103060500D01*
X109651700Y-105409500D02*
X110617000Y-104444200D01*
X97702100Y-104597000D02*
X96936300Y-103831200D01*
X96936300Y-103831200D02*
X93636300Y-103831200D01*
X98781000Y-104597000D02*
X97702100Y-104597000D01*
X102142300Y-105974300D02*
X101097800Y-105974300D01*
X101097800Y-105974300D02*
X100051000Y-104927500D01*
X100051000Y-104927500D02*
X100051000Y-104318800D01*
X100051000Y-104318800D02*
X97256200Y-101524000D01*
X97256200Y-101524000D02*
X89001600Y-101524000D01*
X109046000Y-93396000D02*
X108417100Y-93396000D01*
X108417100Y-93396000D02*
X107499400Y-92478300D01*
X107499400Y-92478300D02*
X91406600Y-92478300D01*
D20*
X67056000Y-99314000D02*
X76631600Y-99314000D01*
X76631600Y-99314000D02*
X78841600Y-101524000D01*
X76517500Y-108902000D02*
X76517500Y-102222000D01*
X76517500Y-102222000D02*
X77216000Y-101524000D01*
X77216000Y-101524000D02*
X78841600Y-101524000D01*
D19*
X99389500Y-107629100D02*
X96045500Y-104285100D01*
X102646000Y-108258000D02*
X102646000Y-107629100D01*
X102646000Y-107629100D02*
X102289900Y-107629100D01*
X102289900Y-107629100D02*
X101781400Y-107120600D01*
X103446000Y-108258000D02*
X103446000Y-108886900D01*
X103446000Y-108886900D02*
X99645700Y-108886900D01*
X99645700Y-108886900D02*
X95427400Y-104668600D01*
X95427400Y-104668600D02*
X94940800Y-104668600D01*
X65977000Y-104902600D02*
X65977000Y-98818300D01*
X65977000Y-98818300D02*
X66903900Y-97891400D01*
X66903900Y-97891400D02*
X75373300Y-97891400D01*
X111033100Y-96596500D02*
X110846000Y-96409400D01*
X110846000Y-96409400D02*
X110846000Y-95796000D01*
X101370000Y-93562400D02*
X100291100Y-93562400D01*
X91606700Y-94794800D02*
X99170500Y-94794800D01*
X99170500Y-94794800D02*
X100291100Y-93674200D01*
X100291100Y-93674200D02*
X100291100Y-93562400D01*
X91567600Y-110363100D02*
X92646500Y-111442000D01*
X87493300Y-110363100D02*
X91567600Y-110363100D01*
X86461600Y-109331400D02*
X87493300Y-110363100D01*
X86461600Y-101524000D02*
X86461600Y-109331400D01*
X103156150Y-105675601D02*
X102828119Y-105675601D01*
X102828119Y-105675601D02*
X102538400Y-105385882D01*
X105029412Y-107548863D02*
X103156150Y-105675601D01*
X105029412Y-109124588D02*
X105029412Y-107548863D01*
X104246000Y-109908000D02*
X105029412Y-109124588D01*
X103922908Y-107201457D02*
X104250940Y-107201457D01*
X102170999Y-105449548D02*
X103922908Y-107201457D01*
X103446000Y-109858000D02*
X103446000Y-110058000D01*
X101321000Y-104597000D02*
X102170999Y-105446999D01*
X103874900Y-109429100D02*
X103446000Y-109858000D01*
X104055300Y-109429100D02*
X103874900Y-109429100D01*
X104724601Y-107675118D02*
X104724601Y-108759799D01*
X102170999Y-105446999D02*
X102170999Y-105449548D01*
X104724601Y-108759799D02*
X104055300Y-109429100D01*
X104250940Y-107201457D02*
X104724601Y-107675118D01*
X104246000Y-110058000D02*
X104246000Y-109908000D01*
X102538400Y-102131400D02*
X101321000Y-100914000D01*
X102538400Y-105385882D02*
X102538400Y-102131400D01*
X104246000Y-108108000D02*
X104246000Y-108258000D01*
X103297200Y-107159200D02*
X104246000Y-108108000D01*
X103297200Y-107129200D02*
X103297200Y-107159200D01*
X103297200Y-107129200D02*
X102142300Y-105974300D01*
X101232000Y-108258000D02*
X101846000Y-108258000D01*
X100603100Y-107629100D02*
X101232000Y-108258000D01*
X100603100Y-107629100D02*
X99389500Y-107629100D01*
X102646000Y-109858000D02*
X102646000Y-110058000D01*
X102217100Y-109429100D02*
X102646000Y-109858000D01*
X100970100Y-109429100D02*
X102217100Y-109429100D01*
X100590000Y-109809200D02*
X100970100Y-109429100D01*
X109674900Y-94567100D02*
X109246000Y-94996000D01*
X109674900Y-93045900D02*
X109674900Y-94567100D01*
X109246000Y-94996000D02*
X109046000Y-94996000D01*
X81381600Y-98984000D02*
X82776550Y-97589050D01*
X108792400Y-92163400D02*
X109674900Y-93045900D01*
X82776550Y-97589050D02*
X83755850Y-97589050D01*
X83755850Y-97589050D02*
X89181500Y-92163400D01*
X89181500Y-92163400D02*
X108792400Y-92163400D01*
X109156000Y-104330500D02*
X110234900Y-103251600D01*
X111487000Y-96784600D02*
X111487000Y-95437000D01*
X111046000Y-94996000D02*
X110846000Y-94996000D01*
X110234900Y-103251600D02*
X110234900Y-98036700D01*
X110234900Y-98036700D02*
X111487000Y-96784600D01*
X111487000Y-95437000D02*
X111046000Y-94996000D01*
X110696000Y-93396000D02*
X110846000Y-93396000D01*
X110217100Y-93874900D02*
X110696000Y-93396000D01*
X110217100Y-97110500D02*
X110217100Y-93874900D01*
X109156000Y-98171600D02*
X110217100Y-97110500D01*
X109156000Y-99250500D02*
X109156000Y-98171600D01*
D21*
G36*
X62329200Y-91685728D02*
G01*
X63331130Y-91685728D01*
X63352088Y-91916028D01*
X63417381Y-92137871D01*
X63524519Y-92342807D01*
X63669422Y-92523030D01*
X63846571Y-92671676D01*
X64049218Y-92783082D01*
X64270069Y-92853141D01*
X64460921Y-92873200D01*
X64574125Y-92873200D01*
X64746148Y-92856333D01*
X64967530Y-92789493D01*
X65171714Y-92680927D01*
X65350921Y-92534770D01*
X65498326Y-92356587D01*
X65608315Y-92153167D01*
X65676698Y-91932257D01*
X65700870Y-91702272D01*
X65699365Y-91685728D01*
X65871130Y-91685728D01*
X65892088Y-91916028D01*
X65957381Y-92137871D01*
X66064519Y-92342807D01*
X66209422Y-92523030D01*
X66386571Y-92671676D01*
X66589218Y-92783082D01*
X66810069Y-92853141D01*
X67000921Y-92873200D01*
X67114125Y-92873200D01*
X67286148Y-92856333D01*
X67507530Y-92789493D01*
X67711714Y-92680927D01*
X67890921Y-92534770D01*
X68038326Y-92356587D01*
X68148315Y-92153167D01*
X68216698Y-91932257D01*
X68240870Y-91702272D01*
X68219912Y-91471972D01*
X68154619Y-91250129D01*
X68047481Y-91045193D01*
X67902578Y-90864970D01*
X67725429Y-90716324D01*
X67522782Y-90604918D01*
X67301931Y-90534859D01*
X67111079Y-90514800D01*
X66997875Y-90514800D01*
X66825852Y-90531667D01*
X66604470Y-90598507D01*
X66400286Y-90707073D01*
X66221079Y-90853230D01*
X66073674Y-91031413D01*
X65963685Y-91234833D01*
X65895302Y-91455743D01*
X65871130Y-91685728D01*
X65699365Y-91685728D01*
X65679912Y-91471972D01*
X65614619Y-91250129D01*
X65507481Y-91045193D01*
X65362578Y-90864970D01*
X65185429Y-90716324D01*
X64982782Y-90604918D01*
X64761931Y-90534859D01*
X64571079Y-90514800D01*
X64457875Y-90514800D01*
X64285852Y-90531667D01*
X64064470Y-90598507D01*
X63860286Y-90707073D01*
X63681079Y-90853230D01*
X63533674Y-91031413D01*
X63423685Y-91234833D01*
X63355302Y-91455743D01*
X63331130Y-91685728D01*
X62329200Y-91685728D01*
X62329200Y-88291590D01*
X63332819Y-88291590D01*
X63332819Y-90016410D01*
X63355901Y-90132448D01*
X63428660Y-90241340D01*
X63537552Y-90314099D01*
X63653590Y-90337181D01*
X65378410Y-90337181D01*
X65494448Y-90314099D01*
X65603340Y-90241340D01*
X65676099Y-90132448D01*
X65699181Y-90016410D01*
X65699181Y-89145728D01*
X65871130Y-89145728D01*
X65892088Y-89376028D01*
X65957381Y-89597871D01*
X66064519Y-89802807D01*
X66209422Y-89983030D01*
X66386571Y-90131676D01*
X66589218Y-90243082D01*
X66810069Y-90313141D01*
X67000921Y-90333200D01*
X67114125Y-90333200D01*
X67286148Y-90316333D01*
X67507530Y-90249493D01*
X67711714Y-90140927D01*
X67890921Y-89994770D01*
X68038326Y-89816587D01*
X68148315Y-89613167D01*
X68216698Y-89392257D01*
X68240870Y-89162272D01*
X68219912Y-88931972D01*
X68154619Y-88710129D01*
X68047481Y-88505193D01*
X67902578Y-88324970D01*
X67725429Y-88176324D01*
X67522782Y-88064918D01*
X67301931Y-87994859D01*
X67223351Y-87986600D01*
X77262016Y-87986600D01*
X77325782Y-88290506D01*
X77419135Y-88526892D01*
X77550981Y-88744170D01*
X77717553Y-88936125D01*
X77914084Y-89097271D01*
X78097748Y-89201819D01*
X77889390Y-89201819D01*
X77773352Y-89224901D01*
X77664460Y-89297660D01*
X77591701Y-89406552D01*
X77568619Y-89522590D01*
X77568619Y-91274610D01*
X77591701Y-91390648D01*
X77664460Y-91499540D01*
X77773352Y-91572299D01*
X77889390Y-91595381D01*
X79641410Y-91595381D01*
X79757448Y-91572299D01*
X79866340Y-91499540D01*
X79939099Y-91390648D01*
X79962181Y-91274610D01*
X79962181Y-90390232D01*
X80106864Y-90390232D01*
X80128064Y-90623188D01*
X80194110Y-90847591D01*
X80302483Y-91054890D01*
X80449058Y-91237192D01*
X80628250Y-91387552D01*
X80833235Y-91500243D01*
X81056628Y-91571108D01*
X81249694Y-91591400D01*
X81364199Y-91591400D01*
X81538203Y-91574339D01*
X81762138Y-91506728D01*
X81968676Y-91396910D01*
X82149950Y-91249067D01*
X82299056Y-91068829D01*
X82410313Y-90863063D01*
X82479484Y-90639605D01*
X82503936Y-90406968D01*
X82482736Y-90174012D01*
X82416690Y-89949609D01*
X82308317Y-89742310D01*
X82161742Y-89560008D01*
X81982550Y-89409648D01*
X81777565Y-89296957D01*
X81554172Y-89226092D01*
X81361106Y-89205800D01*
X81246601Y-89205800D01*
X81072597Y-89222861D01*
X80848662Y-89290472D01*
X80642124Y-89400290D01*
X80460850Y-89548133D01*
X80311744Y-89728371D01*
X80200487Y-89934137D01*
X80131316Y-90157595D01*
X80106864Y-90390232D01*
X79962181Y-90390232D01*
X79962181Y-89522590D01*
X79939099Y-89406552D01*
X79866340Y-89297660D01*
X79757448Y-89224901D01*
X79641410Y-89201819D01*
X79429927Y-89201819D01*
X79496367Y-89171890D01*
X79707193Y-89029955D01*
X79891090Y-88854526D01*
X80042798Y-88650621D01*
X80157983Y-88424070D01*
X80194136Y-88307640D01*
X80302483Y-88514890D01*
X80449058Y-88697192D01*
X80628250Y-88847552D01*
X80833235Y-88960243D01*
X81056628Y-89031108D01*
X81249694Y-89051400D01*
X81364199Y-89051400D01*
X81538203Y-89034339D01*
X81762138Y-88966728D01*
X81968676Y-88856910D01*
X82149950Y-88709067D01*
X82299056Y-88528829D01*
X82410313Y-88323063D01*
X82479484Y-88099605D01*
X82503936Y-87866968D01*
X82502413Y-87850232D01*
X82646864Y-87850232D01*
X82668064Y-88083188D01*
X82734110Y-88307591D01*
X82842483Y-88514890D01*
X82989058Y-88697192D01*
X83168250Y-88847552D01*
X83373235Y-88960243D01*
X83596628Y-89031108D01*
X83789694Y-89051400D01*
X83904199Y-89051400D01*
X84078203Y-89034339D01*
X84302138Y-88966728D01*
X84508676Y-88856910D01*
X84689950Y-88709067D01*
X84839056Y-88528829D01*
X84950313Y-88323063D01*
X85019484Y-88099605D01*
X85043936Y-87866968D01*
X85042413Y-87850232D01*
X85186864Y-87850232D01*
X85208064Y-88083188D01*
X85274110Y-88307591D01*
X85382483Y-88514890D01*
X85529058Y-88697192D01*
X85708250Y-88847552D01*
X85913235Y-88960243D01*
X86136628Y-89031108D01*
X86329694Y-89051400D01*
X86444199Y-89051400D01*
X86618203Y-89034339D01*
X86842138Y-88966728D01*
X87048676Y-88856910D01*
X87229950Y-88709067D01*
X87379056Y-88528829D01*
X87490313Y-88323063D01*
X87559484Y-88099605D01*
X87583936Y-87866968D01*
X87582413Y-87850232D01*
X87726864Y-87850232D01*
X87748064Y-88083188D01*
X87814110Y-88307591D01*
X87922483Y-88514890D01*
X88069058Y-88697192D01*
X88248250Y-88847552D01*
X88453235Y-88960243D01*
X88676628Y-89031108D01*
X88869694Y-89051400D01*
X88984199Y-89051400D01*
X89158203Y-89034339D01*
X89382138Y-88966728D01*
X89588676Y-88856910D01*
X89769950Y-88709067D01*
X89919056Y-88528829D01*
X90030313Y-88323063D01*
X90099484Y-88099605D01*
X90123936Y-87866968D01*
X90102736Y-87634012D01*
X90036690Y-87409609D01*
X89928317Y-87202310D01*
X89781742Y-87020008D01*
X89602550Y-86869648D01*
X89397565Y-86756957D01*
X89174172Y-86686092D01*
X88981106Y-86665800D01*
X88866601Y-86665800D01*
X88692597Y-86682861D01*
X88468662Y-86750472D01*
X88262124Y-86860290D01*
X88080850Y-87008133D01*
X87931744Y-87188371D01*
X87820487Y-87394137D01*
X87751316Y-87617595D01*
X87726864Y-87850232D01*
X87582413Y-87850232D01*
X87562736Y-87634012D01*
X87496690Y-87409609D01*
X87388317Y-87202310D01*
X87241742Y-87020008D01*
X87062550Y-86869648D01*
X86857565Y-86756957D01*
X86634172Y-86686092D01*
X86441106Y-86665800D01*
X86326601Y-86665800D01*
X86152597Y-86682861D01*
X85928662Y-86750472D01*
X85722124Y-86860290D01*
X85540850Y-87008133D01*
X85391744Y-87188371D01*
X85280487Y-87394137D01*
X85211316Y-87617595D01*
X85186864Y-87850232D01*
X85042413Y-87850232D01*
X85022736Y-87634012D01*
X84956690Y-87409609D01*
X84848317Y-87202310D01*
X84701742Y-87020008D01*
X84522550Y-86869648D01*
X84317565Y-86756957D01*
X84094172Y-86686092D01*
X83901106Y-86665800D01*
X83786601Y-86665800D01*
X83612597Y-86682861D01*
X83388662Y-86750472D01*
X83182124Y-86860290D01*
X83000850Y-87008133D01*
X82851744Y-87188371D01*
X82740487Y-87394137D01*
X82671316Y-87617595D01*
X82646864Y-87850232D01*
X82502413Y-87850232D01*
X82482736Y-87634012D01*
X82416690Y-87409609D01*
X82308317Y-87202310D01*
X82161742Y-87020008D01*
X81982550Y-86869648D01*
X81777565Y-86756957D01*
X81554172Y-86686092D01*
X81361106Y-86665800D01*
X81246601Y-86665800D01*
X81072597Y-86682861D01*
X80848662Y-86750472D01*
X80642124Y-86860290D01*
X80460850Y-87008133D01*
X80311744Y-87188371D01*
X80200487Y-87394137D01*
X80196828Y-87405956D01*
X80111665Y-87190308D01*
X79979819Y-86973030D01*
X79813247Y-86781075D01*
X79616716Y-86619929D01*
X79395842Y-86494200D01*
X79154125Y-86406461D01*
X78893400Y-86371904D01*
X78893400Y-87986600D01*
X77262016Y-87986600D01*
X67223351Y-87986600D01*
X67111079Y-87974800D01*
X66997875Y-87974800D01*
X66825852Y-87991667D01*
X66604470Y-88058507D01*
X66400286Y-88167073D01*
X66221079Y-88313230D01*
X66073674Y-88491413D01*
X65963685Y-88694833D01*
X65895302Y-88915743D01*
X65871130Y-89145728D01*
X65699181Y-89145728D01*
X65699181Y-88291590D01*
X65676099Y-88175552D01*
X65603340Y-88066660D01*
X65494448Y-87993901D01*
X65378410Y-87970819D01*
X63653590Y-87970819D01*
X63537552Y-87993901D01*
X63428660Y-88066660D01*
X63355901Y-88175552D01*
X63332819Y-88291590D01*
X62329200Y-88291590D01*
X62329200Y-87730600D01*
X77271639Y-87730600D01*
X78637400Y-87730600D01*
X78637400Y-86344570D01*
X78266158Y-86440925D01*
X78034433Y-86545310D01*
X77823607Y-86687245D01*
X77639710Y-86862674D01*
X77488002Y-87066579D01*
X77372817Y-87293130D01*
X77297450Y-87535850D01*
X77271639Y-87730600D01*
X62329200Y-87730600D01*
X62329200Y-84049222D01*
X62332591Y-84038131D01*
X62333590Y-84023621D01*
X62351872Y-83765437D01*
X62401364Y-83535554D01*
X62482753Y-83314937D01*
X62594418Y-83107985D01*
X62734125Y-82918838D01*
X62899087Y-82751265D01*
X63086021Y-82608601D01*
X63291196Y-82493698D01*
X63510493Y-82408858D01*
X63739577Y-82355759D01*
X63984352Y-82334560D01*
X64016819Y-82334304D01*
X64038410Y-82329200D01*
X112950778Y-82329200D01*
X112961869Y-82332591D01*
X112976516Y-82333600D01*
X113234563Y-82351872D01*
X113464446Y-82401364D01*
X113685063Y-82482753D01*
X113892015Y-82594418D01*
X114081162Y-82734125D01*
X114248735Y-82899087D01*
X114391399Y-83086021D01*
X114506302Y-83291196D01*
X114591142Y-83510493D01*
X114644241Y-83739577D01*
X114665440Y-83984352D01*
X114665696Y-84016819D01*
X114670801Y-84038414D01*
X114670800Y-112950778D01*
X114667409Y-112961869D01*
X114666410Y-112976380D01*
X114648129Y-113234556D01*
X114598636Y-113464447D01*
X114517246Y-113685066D01*
X114405581Y-113892016D01*
X114265875Y-114081162D01*
X114100917Y-114248732D01*
X113913979Y-114391399D01*
X113708804Y-114506302D01*
X113489507Y-114591142D01*
X113260423Y-114644241D01*
X113015648Y-114665440D01*
X112983181Y-114665696D01*
X112961590Y-114670800D01*
X64049222Y-114670800D01*
X64038131Y-114667409D01*
X64023448Y-114666398D01*
X63765444Y-114648129D01*
X63535553Y-114598636D01*
X63314934Y-114517246D01*
X63107984Y-114405581D01*
X62918838Y-114265875D01*
X62751268Y-114100917D01*
X62608601Y-113913979D01*
X62493698Y-113708804D01*
X62408858Y-113489507D01*
X62355759Y-113260423D01*
X62334560Y-113015648D01*
X62334304Y-112983181D01*
X62329200Y-112961590D01*
X62329200Y-99442000D01*
X63026513Y-99442000D01*
X63089456Y-99741983D01*
X63181961Y-99976222D01*
X63312610Y-100191526D01*
X63477669Y-100381739D01*
X63672416Y-100541422D01*
X63891284Y-100666009D01*
X64130831Y-100752960D01*
X64388000Y-100787047D01*
X64388000Y-99442000D01*
X63026513Y-99442000D01*
X62329200Y-99442000D01*
X62329200Y-99186000D01*
X63035957Y-99186000D01*
X64644000Y-99186000D01*
X64644000Y-100813978D01*
X65010708Y-100718800D01*
X65240329Y-100615363D01*
X65449240Y-100474716D01*
X65571601Y-100357989D01*
X65571600Y-104833465D01*
X65563852Y-104855528D01*
X65571600Y-104925152D01*
X65571600Y-104948286D01*
X65576627Y-104970321D01*
X65584314Y-105039408D01*
X65596999Y-105059628D01*
X65602312Y-105082922D01*
X65646017Y-105137770D01*
X65658085Y-105157006D01*
X65674130Y-105173051D01*
X65717576Y-105227573D01*
X65738974Y-105237894D01*
X67361800Y-106860721D01*
X67361801Y-107702562D01*
X67354052Y-107724627D01*
X67361801Y-107794261D01*
X67361801Y-107817386D01*
X67366825Y-107839408D01*
X67374514Y-107908508D01*
X67387201Y-107928732D01*
X67392514Y-107952024D01*
X67436220Y-108006874D01*
X67448286Y-108026106D01*
X67464337Y-108042157D01*
X67507778Y-108096673D01*
X67529171Y-108106992D01*
X67826181Y-108404002D01*
X67805185Y-108442833D01*
X67736802Y-108663743D01*
X67712630Y-108893728D01*
X67733588Y-109124028D01*
X67798881Y-109345871D01*
X67906019Y-109550807D01*
X68050922Y-109731030D01*
X68228071Y-109879676D01*
X68299783Y-109919100D01*
X67947923Y-109919100D01*
X67428820Y-109399997D01*
X67449815Y-109361167D01*
X67518198Y-109140257D01*
X67542370Y-108910272D01*
X67521412Y-108679972D01*
X67456119Y-108458129D01*
X67348981Y-108253193D01*
X67204078Y-108072970D01*
X67026929Y-107924324D01*
X66824282Y-107812918D01*
X66603431Y-107742859D01*
X66412579Y-107722800D01*
X66299375Y-107722800D01*
X66127352Y-107739667D01*
X65905970Y-107806507D01*
X65701786Y-107915073D01*
X65522579Y-108061230D01*
X65375174Y-108239413D01*
X65265185Y-108442833D01*
X65196802Y-108663743D01*
X65172630Y-108893728D01*
X65193588Y-109124028D01*
X65258881Y-109345871D01*
X65366019Y-109550807D01*
X65510922Y-109731030D01*
X65688071Y-109879676D01*
X65890718Y-109991082D01*
X66111569Y-110061141D01*
X66302421Y-110081200D01*
X66415625Y-110081200D01*
X66587648Y-110064333D01*
X66809030Y-109997493D01*
X66855150Y-109972971D01*
X67140998Y-110258819D01*
X65495090Y-110258819D01*
X65379052Y-110281901D01*
X65270160Y-110354660D01*
X65197401Y-110463552D01*
X65174319Y-110579590D01*
X65174319Y-112304410D01*
X65197401Y-112420448D01*
X65270160Y-112529340D01*
X65379052Y-112602099D01*
X65495090Y-112625181D01*
X67219910Y-112625181D01*
X67335948Y-112602099D01*
X67444840Y-112529340D01*
X67517599Y-112420448D01*
X67540681Y-112304410D01*
X67540681Y-110652917D01*
X67544771Y-110655487D01*
X67599065Y-110698908D01*
X67622334Y-110704238D01*
X67642565Y-110716953D01*
X67712246Y-110724830D01*
X67734383Y-110729900D01*
X67757093Y-110729900D01*
X67826351Y-110737730D01*
X67848773Y-110729900D01*
X67956134Y-110729900D01*
X67915174Y-110779413D01*
X67805185Y-110982833D01*
X67736802Y-111203743D01*
X67712630Y-111433728D01*
X67733588Y-111664028D01*
X67798881Y-111885871D01*
X67906019Y-112090807D01*
X68050922Y-112271030D01*
X68228071Y-112419676D01*
X68430718Y-112531082D01*
X68651569Y-112601141D01*
X68842421Y-112621200D01*
X68955625Y-112621200D01*
X69127648Y-112604333D01*
X69349030Y-112537493D01*
X69553214Y-112428927D01*
X69732421Y-112282770D01*
X69879826Y-112104587D01*
X69989815Y-111901167D01*
X70058198Y-111680257D01*
X70082370Y-111450272D01*
X70061412Y-111219972D01*
X69996119Y-110998129D01*
X69888981Y-110793193D01*
X69838092Y-110729900D01*
X70496134Y-110729900D01*
X70455174Y-110779413D01*
X70345185Y-110982833D01*
X70276802Y-111203743D01*
X70252630Y-111433728D01*
X70273588Y-111664028D01*
X70338881Y-111885871D01*
X70446019Y-112090807D01*
X70590922Y-112271030D01*
X70768071Y-112419676D01*
X70970718Y-112531082D01*
X71191569Y-112601141D01*
X71382421Y-112621200D01*
X71495625Y-112621200D01*
X71667648Y-112604333D01*
X71889030Y-112537493D01*
X72093214Y-112428927D01*
X72272421Y-112282770D01*
X72419826Y-112104587D01*
X72529815Y-111901167D01*
X72598198Y-111680257D01*
X72622370Y-111450272D01*
X72601412Y-111219972D01*
X72536119Y-110998129D01*
X72428981Y-110793193D01*
X72378092Y-110729900D01*
X73036134Y-110729900D01*
X72995174Y-110779413D01*
X72885185Y-110982833D01*
X72816802Y-111203743D01*
X72792630Y-111433728D01*
X72813588Y-111664028D01*
X72878881Y-111885871D01*
X72986019Y-112090807D01*
X73130922Y-112271030D01*
X73308071Y-112419676D01*
X73510718Y-112531082D01*
X73731569Y-112601141D01*
X73922421Y-112621200D01*
X74035625Y-112621200D01*
X74207648Y-112604333D01*
X74429030Y-112537493D01*
X74633214Y-112428927D01*
X74812421Y-112282770D01*
X74959826Y-112104587D01*
X75069815Y-111901167D01*
X75086315Y-111847864D01*
X75090956Y-111869983D01*
X75183461Y-112104222D01*
X75314110Y-112319526D01*
X75479169Y-112509739D01*
X75673916Y-112669422D01*
X75892784Y-112794009D01*
X76132331Y-112880960D01*
X76389500Y-112915047D01*
X76389500Y-111570000D01*
X76645500Y-111570000D01*
X76645500Y-112941978D01*
X77012208Y-112846800D01*
X77241829Y-112743363D01*
X77450740Y-112602716D01*
X77632966Y-112428881D01*
X77783297Y-112226828D01*
X77897436Y-112002334D01*
X77972118Y-111761819D01*
X77997543Y-111570000D01*
X76645500Y-111570000D01*
X76389500Y-111570000D01*
X76389500Y-111314000D01*
X78006987Y-111314000D01*
X77944044Y-111014017D01*
X77851539Y-110779778D01*
X77821272Y-110729900D01*
X84097380Y-110729900D01*
X86156550Y-112789071D01*
X86166674Y-112810154D01*
X86221395Y-112853916D01*
X86237744Y-112870266D01*
X86256871Y-112882287D01*
X86311165Y-112925708D01*
X86334434Y-112931038D01*
X86354665Y-112943753D01*
X86424346Y-112951630D01*
X86446483Y-112956700D01*
X86469193Y-112956700D01*
X86538451Y-112964530D01*
X86560873Y-112956700D01*
X99912465Y-112956700D01*
X99934528Y-112964448D01*
X100004152Y-112956700D01*
X100027287Y-112956700D01*
X100049320Y-112951674D01*
X100118408Y-112943986D01*
X100138628Y-112931301D01*
X100161923Y-112925988D01*
X100216780Y-112882276D01*
X100236006Y-112870215D01*
X100252050Y-112854170D01*
X100306573Y-112810723D01*
X100316893Y-112789327D01*
X102083771Y-111022450D01*
X102104854Y-111012326D01*
X102148616Y-110957605D01*
X102164966Y-110941256D01*
X102176987Y-110922129D01*
X102220408Y-110867835D01*
X102225738Y-110844566D01*
X102238453Y-110824335D01*
X102246330Y-110754654D01*
X102246648Y-110753266D01*
X102271000Y-110736994D01*
X102317552Y-110768099D01*
X102433590Y-110791181D01*
X102858410Y-110791181D01*
X102974448Y-110768099D01*
X103046000Y-110720290D01*
X103117552Y-110768099D01*
X103233590Y-110791181D01*
X103658410Y-110791181D01*
X103774448Y-110768099D01*
X103821000Y-110736994D01*
X103867552Y-110768099D01*
X103983590Y-110791181D01*
X104508410Y-110791181D01*
X104624448Y-110768099D01*
X104733340Y-110695340D01*
X104806099Y-110586448D01*
X104829181Y-110470410D01*
X104829181Y-109898140D01*
X105267185Y-109460137D01*
X105288266Y-109450014D01*
X105332028Y-109395293D01*
X105348378Y-109378944D01*
X105360399Y-109359817D01*
X105403820Y-109305523D01*
X105409150Y-109282254D01*
X105421865Y-109262023D01*
X105429742Y-109192342D01*
X105434812Y-109170205D01*
X105434812Y-109147495D01*
X105442642Y-109078237D01*
X105434812Y-109055815D01*
X105434812Y-107618002D01*
X105442561Y-107595937D01*
X105434812Y-107526305D01*
X105434812Y-107503178D01*
X105429787Y-107481146D01*
X105422097Y-107412054D01*
X105409413Y-107391835D01*
X105404100Y-107368540D01*
X105360393Y-107313690D01*
X105348328Y-107294457D01*
X105332275Y-107278404D01*
X105288835Y-107223890D01*
X105267440Y-107213570D01*
X103834050Y-105780181D01*
X104723410Y-105780181D01*
X104839448Y-105757099D01*
X104948340Y-105684340D01*
X105021099Y-105575448D01*
X105044181Y-105459410D01*
X105044181Y-105274601D01*
X108331120Y-108561541D01*
X108321079Y-108569730D01*
X108173674Y-108747913D01*
X108063685Y-108951333D01*
X107995302Y-109172243D01*
X107971130Y-109402228D01*
X107992088Y-109632528D01*
X108057381Y-109854371D01*
X108164519Y-110059307D01*
X108309422Y-110239530D01*
X108486571Y-110388176D01*
X108689218Y-110499582D01*
X108910069Y-110569641D01*
X109100921Y-110589700D01*
X109214125Y-110589700D01*
X109386148Y-110572833D01*
X109607530Y-110505993D01*
X109811714Y-110397427D01*
X109990921Y-110251270D01*
X110138326Y-110073087D01*
X110248315Y-109869667D01*
X110316698Y-109648757D01*
X110340870Y-109418772D01*
X110319912Y-109188472D01*
X110254619Y-108966629D01*
X110147481Y-108761693D01*
X110127627Y-108737000D01*
X110449179Y-108737000D01*
X110624681Y-108912502D01*
X110603685Y-108951333D01*
X110535302Y-109172243D01*
X110511130Y-109402228D01*
X110532088Y-109632528D01*
X110597381Y-109854371D01*
X110704519Y-110059307D01*
X110849422Y-110239530D01*
X111026571Y-110388176D01*
X111229218Y-110499582D01*
X111450069Y-110569641D01*
X111640921Y-110589700D01*
X111754125Y-110589700D01*
X111926148Y-110572833D01*
X112147530Y-110505993D01*
X112351714Y-110397427D01*
X112530921Y-110251270D01*
X112678326Y-110073087D01*
X112788315Y-109869667D01*
X112856698Y-109648757D01*
X112880870Y-109418772D01*
X112859912Y-109188472D01*
X112794619Y-108966629D01*
X112687481Y-108761693D01*
X112542578Y-108581470D01*
X112365429Y-108432824D01*
X112162782Y-108321418D01*
X111941931Y-108251359D01*
X111751079Y-108231300D01*
X111637875Y-108231300D01*
X111465852Y-108248167D01*
X111244470Y-108315007D01*
X111198351Y-108339529D01*
X110952649Y-108093828D01*
X110942526Y-108072746D01*
X110887800Y-108028980D01*
X110871456Y-108012635D01*
X110852330Y-108000614D01*
X110798035Y-107957193D01*
X110774762Y-107951862D01*
X110754533Y-107939149D01*
X110684853Y-107931270D01*
X110662715Y-107926200D01*
X110640007Y-107926200D01*
X110570750Y-107918369D01*
X110548327Y-107926200D01*
X109682370Y-107926200D01*
X109811714Y-107857427D01*
X109990921Y-107711270D01*
X110138326Y-107533087D01*
X110248315Y-107329667D01*
X110316698Y-107108757D01*
X110340870Y-106878772D01*
X110339365Y-106862228D01*
X110511130Y-106862228D01*
X110532088Y-107092528D01*
X110597381Y-107314371D01*
X110704519Y-107519307D01*
X110849422Y-107699530D01*
X111026571Y-107848176D01*
X111229218Y-107959582D01*
X111450069Y-108029641D01*
X111640921Y-108049700D01*
X111754125Y-108049700D01*
X111926148Y-108032833D01*
X112147530Y-107965993D01*
X112351714Y-107857427D01*
X112530921Y-107711270D01*
X112678326Y-107533087D01*
X112788315Y-107329667D01*
X112856698Y-107108757D01*
X112880870Y-106878772D01*
X112859912Y-106648472D01*
X112794619Y-106426629D01*
X112687481Y-106221693D01*
X112542578Y-106041470D01*
X112365429Y-105892824D01*
X112162782Y-105781418D01*
X111941931Y-105711359D01*
X111751079Y-105691300D01*
X111637875Y-105691300D01*
X111465852Y-105708167D01*
X111244470Y-105775007D01*
X111040286Y-105883573D01*
X110861079Y-106029730D01*
X110713674Y-106207913D01*
X110603685Y-106411333D01*
X110535302Y-106632243D01*
X110511130Y-106862228D01*
X110339365Y-106862228D01*
X110319912Y-106648472D01*
X110254619Y-106426629D01*
X110147481Y-106221693D01*
X110002578Y-106041470D01*
X109825429Y-105892824D01*
X109683686Y-105814900D01*
X109697387Y-105814900D01*
X109719420Y-105809874D01*
X109788508Y-105802186D01*
X109808728Y-105789501D01*
X109832023Y-105784188D01*
X109886880Y-105740476D01*
X109906106Y-105728415D01*
X109922150Y-105712370D01*
X109976673Y-105668923D01*
X109986993Y-105647528D01*
X110687593Y-104946930D01*
X110704519Y-104979307D01*
X110849422Y-105159530D01*
X111026571Y-105308176D01*
X111229218Y-105419582D01*
X111450069Y-105489641D01*
X111640921Y-105509700D01*
X111754125Y-105509700D01*
X111926148Y-105492833D01*
X112147530Y-105425993D01*
X112351714Y-105317427D01*
X112530921Y-105171270D01*
X112678326Y-104993087D01*
X112788315Y-104789667D01*
X112856698Y-104568757D01*
X112880870Y-104338772D01*
X112859912Y-104108472D01*
X112794619Y-103886629D01*
X112687481Y-103681693D01*
X112542578Y-103501470D01*
X112365429Y-103352824D01*
X112315104Y-103325158D01*
X112321673Y-103319923D01*
X112331993Y-103298527D01*
X113363171Y-102267350D01*
X113384254Y-102257226D01*
X113428016Y-102202505D01*
X113444366Y-102186156D01*
X113456387Y-102167029D01*
X113499808Y-102112735D01*
X113505138Y-102089466D01*
X113517853Y-102069235D01*
X113525730Y-101999554D01*
X113530800Y-101977417D01*
X113530800Y-101954707D01*
X113538630Y-101885449D01*
X113530800Y-101863027D01*
X113530800Y-94765536D01*
X113538548Y-94743473D01*
X113530800Y-94673848D01*
X113530800Y-94650714D01*
X113525773Y-94628676D01*
X113518086Y-94559594D01*
X113505402Y-94539374D01*
X113500088Y-94516076D01*
X113456382Y-94461228D01*
X113444318Y-94441995D01*
X113428259Y-94425936D01*
X113384823Y-94371427D01*
X113363430Y-94361108D01*
X110563250Y-91560930D01*
X110553126Y-91539846D01*
X110498400Y-91496080D01*
X110482056Y-91479735D01*
X110462930Y-91467714D01*
X110408635Y-91424293D01*
X110385362Y-91418962D01*
X110365133Y-91406249D01*
X110295453Y-91398370D01*
X110273315Y-91393300D01*
X110250607Y-91393300D01*
X110181350Y-91385469D01*
X110158927Y-91393300D01*
X89593102Y-91393300D01*
X89769950Y-91249067D01*
X89919056Y-91068829D01*
X90030313Y-90863063D01*
X90099484Y-90639605D01*
X90123936Y-90406968D01*
X90102736Y-90174012D01*
X90036690Y-89949609D01*
X89928317Y-89742310D01*
X89781742Y-89560008D01*
X89602550Y-89409648D01*
X89397565Y-89296957D01*
X89174172Y-89226092D01*
X88981106Y-89205800D01*
X88866601Y-89205800D01*
X88692597Y-89222861D01*
X88468662Y-89290472D01*
X88262124Y-89400290D01*
X88080850Y-89548133D01*
X87931744Y-89728371D01*
X87820487Y-89934137D01*
X87751316Y-90157595D01*
X87726864Y-90390232D01*
X87748064Y-90623188D01*
X87814110Y-90847591D01*
X87844657Y-90906022D01*
X86975379Y-91775300D01*
X86189035Y-91775300D01*
X86166972Y-91767552D01*
X86097347Y-91775300D01*
X86074213Y-91775300D01*
X86052180Y-91780326D01*
X85983093Y-91788014D01*
X85962871Y-91800699D01*
X85939576Y-91806013D01*
X85884732Y-91849715D01*
X85865494Y-91861783D01*
X85849436Y-91877841D01*
X85794927Y-91921277D01*
X85784608Y-91942670D01*
X79851731Y-97875549D01*
X79692916Y-97745329D01*
X79472042Y-97619600D01*
X79230325Y-97531861D01*
X78969600Y-97497304D01*
X78969600Y-99112000D01*
X77433973Y-99112000D01*
X77177974Y-98856000D01*
X77347839Y-98856000D01*
X78713600Y-98856000D01*
X78713600Y-97469970D01*
X78342358Y-97566325D01*
X78110633Y-97670710D01*
X77899807Y-97812645D01*
X77715910Y-97988074D01*
X77564202Y-98191979D01*
X77449017Y-98418530D01*
X77373650Y-98661250D01*
X77347839Y-98856000D01*
X77177974Y-98856000D01*
X77054248Y-98732274D01*
X77003823Y-98706581D01*
X76958043Y-98673320D01*
X76904227Y-98655834D01*
X76853799Y-98630140D01*
X76797897Y-98621286D01*
X76744084Y-98603801D01*
X76688011Y-98603801D01*
X76688005Y-98603800D01*
X67998120Y-98603800D01*
X67902578Y-98484970D01*
X67725429Y-98336324D01*
X67653535Y-98296800D01*
X75304165Y-98296800D01*
X75326228Y-98304548D01*
X75395852Y-98296800D01*
X75418987Y-98296800D01*
X75441020Y-98291774D01*
X75510108Y-98284086D01*
X75530328Y-98271401D01*
X75553623Y-98266088D01*
X75608480Y-98222376D01*
X75627706Y-98210315D01*
X75643750Y-98194270D01*
X75698273Y-98150823D01*
X75708594Y-98129426D01*
X81382271Y-92455750D01*
X82124515Y-92455750D01*
X82146578Y-92463498D01*
X82216202Y-92455750D01*
X82239337Y-92455750D01*
X82261370Y-92450724D01*
X82330458Y-92443036D01*
X82350678Y-92430351D01*
X82373973Y-92425038D01*
X82428830Y-92381326D01*
X82448056Y-92369265D01*
X82464100Y-92353220D01*
X82518623Y-92309773D01*
X82528943Y-92288378D01*
X83337000Y-91480322D01*
X83373235Y-91500243D01*
X83596628Y-91571108D01*
X83789694Y-91591400D01*
X83904199Y-91591400D01*
X84078203Y-91574339D01*
X84302138Y-91506728D01*
X84508676Y-91396910D01*
X84689950Y-91249067D01*
X84839056Y-91068829D01*
X84950313Y-90863063D01*
X85019484Y-90639605D01*
X85043936Y-90406968D01*
X85042413Y-90390232D01*
X85186864Y-90390232D01*
X85208064Y-90623188D01*
X85274110Y-90847591D01*
X85382483Y-91054890D01*
X85529058Y-91237192D01*
X85708250Y-91387552D01*
X85913235Y-91500243D01*
X86136628Y-91571108D01*
X86329694Y-91591400D01*
X86444199Y-91591400D01*
X86618203Y-91574339D01*
X86842138Y-91506728D01*
X87048676Y-91396910D01*
X87229950Y-91249067D01*
X87379056Y-91068829D01*
X87490313Y-90863063D01*
X87559484Y-90639605D01*
X87583936Y-90406968D01*
X87562736Y-90174012D01*
X87496690Y-89949609D01*
X87388317Y-89742310D01*
X87241742Y-89560008D01*
X87062550Y-89409648D01*
X86857565Y-89296957D01*
X86634172Y-89226092D01*
X86441106Y-89205800D01*
X86326601Y-89205800D01*
X86152597Y-89222861D01*
X85928662Y-89290472D01*
X85722124Y-89400290D01*
X85540850Y-89548133D01*
X85391744Y-89728371D01*
X85280487Y-89934137D01*
X85211316Y-90157595D01*
X85186864Y-90390232D01*
X85042413Y-90390232D01*
X85022736Y-90174012D01*
X84956690Y-89949609D01*
X84848317Y-89742310D01*
X84701742Y-89560008D01*
X84522550Y-89409648D01*
X84317565Y-89296957D01*
X84094172Y-89226092D01*
X83901106Y-89205800D01*
X83786601Y-89205800D01*
X83612597Y-89222861D01*
X83388662Y-89290472D01*
X83182124Y-89400290D01*
X83000850Y-89548133D01*
X82851744Y-89728371D01*
X82740487Y-89934137D01*
X82671316Y-90157595D01*
X82646864Y-90390232D01*
X82668064Y-90623188D01*
X82734110Y-90847591D01*
X82764657Y-90906022D01*
X82025729Y-91644950D01*
X81283485Y-91644950D01*
X81261422Y-91637202D01*
X81191797Y-91644950D01*
X81168663Y-91644950D01*
X81146630Y-91649976D01*
X81077541Y-91657664D01*
X81057321Y-91670348D01*
X81034026Y-91675662D01*
X80979176Y-91719370D01*
X80959943Y-91731435D01*
X80943891Y-91747487D01*
X80889377Y-91790927D01*
X80879057Y-91812322D01*
X75205380Y-97486000D01*
X67997448Y-97486000D01*
X68038326Y-97436587D01*
X68148315Y-97233167D01*
X68216698Y-97012257D01*
X68240870Y-96782272D01*
X68219912Y-96551972D01*
X68154619Y-96330129D01*
X68047481Y-96125193D01*
X67902578Y-95944970D01*
X67725429Y-95796324D01*
X67522782Y-95684918D01*
X67301931Y-95614859D01*
X67111079Y-95594800D01*
X66997875Y-95594800D01*
X66825852Y-95611667D01*
X66604470Y-95678507D01*
X66400286Y-95787073D01*
X66221079Y-95933230D01*
X66073674Y-96111413D01*
X65963685Y-96314833D01*
X65895302Y-96535743D01*
X65871130Y-96765728D01*
X65892088Y-96996028D01*
X65957381Y-97217871D01*
X66064519Y-97422807D01*
X66209422Y-97603030D01*
X66386571Y-97751676D01*
X66440600Y-97781378D01*
X65744358Y-98477621D01*
X65719389Y-98436473D01*
X65554331Y-98246261D01*
X65359584Y-98086578D01*
X65140716Y-97961991D01*
X64922960Y-97882950D01*
X64967530Y-97869493D01*
X65171714Y-97760927D01*
X65350921Y-97614770D01*
X65498326Y-97436587D01*
X65608315Y-97233167D01*
X65676698Y-97012257D01*
X65700870Y-96782272D01*
X65679912Y-96551972D01*
X65614619Y-96330129D01*
X65507481Y-96125193D01*
X65362578Y-95944970D01*
X65185429Y-95796324D01*
X64982782Y-95684918D01*
X64761931Y-95614859D01*
X64571079Y-95594800D01*
X64457875Y-95594800D01*
X64285852Y-95611667D01*
X64064470Y-95678507D01*
X63860286Y-95787073D01*
X63681079Y-95933230D01*
X63533674Y-96111413D01*
X63423685Y-96314833D01*
X63355302Y-96535743D01*
X63331130Y-96765728D01*
X63352088Y-96996028D01*
X63417381Y-97217871D01*
X63524519Y-97422807D01*
X63669422Y-97603030D01*
X63846571Y-97751676D01*
X64049218Y-97863082D01*
X64116610Y-97884460D01*
X64021292Y-97909200D01*
X63791671Y-98012637D01*
X63582760Y-98153284D01*
X63400534Y-98327119D01*
X63250203Y-98529172D01*
X63136064Y-98753666D01*
X63061382Y-98994181D01*
X63035957Y-99186000D01*
X62329200Y-99186000D01*
X62329200Y-94225728D01*
X63331130Y-94225728D01*
X63352088Y-94456028D01*
X63417381Y-94677871D01*
X63524519Y-94882807D01*
X63669422Y-95063030D01*
X63846571Y-95211676D01*
X64049218Y-95323082D01*
X64270069Y-95393141D01*
X64460921Y-95413200D01*
X64574125Y-95413200D01*
X64746148Y-95396333D01*
X64967530Y-95329493D01*
X65171714Y-95220927D01*
X65350921Y-95074770D01*
X65498326Y-94896587D01*
X65608315Y-94693167D01*
X65676698Y-94472257D01*
X65700870Y-94242272D01*
X65699365Y-94225728D01*
X65871130Y-94225728D01*
X65892088Y-94456028D01*
X65957381Y-94677871D01*
X66064519Y-94882807D01*
X66209422Y-95063030D01*
X66386571Y-95211676D01*
X66589218Y-95323082D01*
X66810069Y-95393141D01*
X67000921Y-95413200D01*
X67114125Y-95413200D01*
X67286148Y-95396333D01*
X67507530Y-95329493D01*
X67711714Y-95220927D01*
X67890921Y-95074770D01*
X68038326Y-94896587D01*
X68148315Y-94693167D01*
X68216698Y-94472257D01*
X68240870Y-94242272D01*
X68219912Y-94011972D01*
X68154619Y-93790129D01*
X68047481Y-93585193D01*
X67902578Y-93404970D01*
X67725429Y-93256324D01*
X67522782Y-93144918D01*
X67301931Y-93074859D01*
X67111079Y-93054800D01*
X66997875Y-93054800D01*
X66825852Y-93071667D01*
X66604470Y-93138507D01*
X66400286Y-93247073D01*
X66221079Y-93393230D01*
X66073674Y-93571413D01*
X65963685Y-93774833D01*
X65895302Y-93995743D01*
X65871130Y-94225728D01*
X65699365Y-94225728D01*
X65679912Y-94011972D01*
X65614619Y-93790129D01*
X65507481Y-93585193D01*
X65362578Y-93404970D01*
X65185429Y-93256324D01*
X64982782Y-93144918D01*
X64761931Y-93074859D01*
X64571079Y-93054800D01*
X64457875Y-93054800D01*
X64285852Y-93071667D01*
X64064470Y-93138507D01*
X63860286Y-93247073D01*
X63681079Y-93393230D01*
X63533674Y-93571413D01*
X63423685Y-93774833D01*
X63355302Y-93995743D01*
X63331130Y-94225728D01*
X62329200Y-94225728D01*
X62329200Y-91685728D01*
X62329200Y-91685728D01*
G37*
X62329200Y-91685728D02*
X63331130Y-91685728D01*
X63352088Y-91916028D01*
X63417381Y-92137871D01*
X63524519Y-92342807D01*
X63669422Y-92523030D01*
X63846571Y-92671676D01*
X64049218Y-92783082D01*
X64270069Y-92853141D01*
X64460921Y-92873200D01*
X64574125Y-92873200D01*
X64746148Y-92856333D01*
X64967530Y-92789493D01*
X65171714Y-92680927D01*
X65350921Y-92534770D01*
X65498326Y-92356587D01*
X65608315Y-92153167D01*
X65676698Y-91932257D01*
X65700870Y-91702272D01*
X65699365Y-91685728D01*
X65871130Y-91685728D01*
X65892088Y-91916028D01*
X65957381Y-92137871D01*
X66064519Y-92342807D01*
X66209422Y-92523030D01*
X66386571Y-92671676D01*
X66589218Y-92783082D01*
X66810069Y-92853141D01*
X67000921Y-92873200D01*
X67114125Y-92873200D01*
X67286148Y-92856333D01*
X67507530Y-92789493D01*
X67711714Y-92680927D01*
X67890921Y-92534770D01*
X68038326Y-92356587D01*
X68148315Y-92153167D01*
X68216698Y-91932257D01*
X68240870Y-91702272D01*
X68219912Y-91471972D01*
X68154619Y-91250129D01*
X68047481Y-91045193D01*
X67902578Y-90864970D01*
X67725429Y-90716324D01*
X67522782Y-90604918D01*
X67301931Y-90534859D01*
X67111079Y-90514800D01*
X66997875Y-90514800D01*
X66825852Y-90531667D01*
X66604470Y-90598507D01*
X66400286Y-90707073D01*
X66221079Y-90853230D01*
X66073674Y-91031413D01*
X65963685Y-91234833D01*
X65895302Y-91455743D01*
X65871130Y-91685728D01*
X65699365Y-91685728D01*
X65679912Y-91471972D01*
X65614619Y-91250129D01*
X65507481Y-91045193D01*
X65362578Y-90864970D01*
X65185429Y-90716324D01*
X64982782Y-90604918D01*
X64761931Y-90534859D01*
X64571079Y-90514800D01*
X64457875Y-90514800D01*
X64285852Y-90531667D01*
X64064470Y-90598507D01*
X63860286Y-90707073D01*
X63681079Y-90853230D01*
X63533674Y-91031413D01*
X63423685Y-91234833D01*
X63355302Y-91455743D01*
X63331130Y-91685728D01*
X62329200Y-91685728D01*
X62329200Y-88291590D01*
X63332819Y-88291590D01*
X63332819Y-90016410D01*
X63355901Y-90132448D01*
X63428660Y-90241340D01*
X63537552Y-90314099D01*
X63653590Y-90337181D01*
X65378410Y-90337181D01*
X65494448Y-90314099D01*
X65603340Y-90241340D01*
X65676099Y-90132448D01*
X65699181Y-90016410D01*
X65699181Y-89145728D01*
X65871130Y-89145728D01*
X65892088Y-89376028D01*
X65957381Y-89597871D01*
X66064519Y-89802807D01*
X66209422Y-89983030D01*
X66386571Y-90131676D01*
X66589218Y-90243082D01*
X66810069Y-90313141D01*
X67000921Y-90333200D01*
X67114125Y-90333200D01*
X67286148Y-90316333D01*
X67507530Y-90249493D01*
X67711714Y-90140927D01*
X67890921Y-89994770D01*
X68038326Y-89816587D01*
X68148315Y-89613167D01*
X68216698Y-89392257D01*
X68240870Y-89162272D01*
X68219912Y-88931972D01*
X68154619Y-88710129D01*
X68047481Y-88505193D01*
X67902578Y-88324970D01*
X67725429Y-88176324D01*
X67522782Y-88064918D01*
X67301931Y-87994859D01*
X67223351Y-87986600D01*
X77262016Y-87986600D01*
X77325782Y-88290506D01*
X77419135Y-88526892D01*
X77550981Y-88744170D01*
X77717553Y-88936125D01*
X77914084Y-89097271D01*
X78097748Y-89201819D01*
X77889390Y-89201819D01*
X77773352Y-89224901D01*
X77664460Y-89297660D01*
X77591701Y-89406552D01*
X77568619Y-89522590D01*
X77568619Y-91274610D01*
X77591701Y-91390648D01*
X77664460Y-91499540D01*
X77773352Y-91572299D01*
X77889390Y-91595381D01*
X79641410Y-91595381D01*
X79757448Y-91572299D01*
X79866340Y-91499540D01*
X79939099Y-91390648D01*
X79962181Y-91274610D01*
X79962181Y-90390232D01*
X80106864Y-90390232D01*
X80128064Y-90623188D01*
X80194110Y-90847591D01*
X80302483Y-91054890D01*
X80449058Y-91237192D01*
X80628250Y-91387552D01*
X80833235Y-91500243D01*
X81056628Y-91571108D01*
X81249694Y-91591400D01*
X81364199Y-91591400D01*
X81538203Y-91574339D01*
X81762138Y-91506728D01*
X81968676Y-91396910D01*
X82149950Y-91249067D01*
X82299056Y-91068829D01*
X82410313Y-90863063D01*
X82479484Y-90639605D01*
X82503936Y-90406968D01*
X82482736Y-90174012D01*
X82416690Y-89949609D01*
X82308317Y-89742310D01*
X82161742Y-89560008D01*
X81982550Y-89409648D01*
X81777565Y-89296957D01*
X81554172Y-89226092D01*
X81361106Y-89205800D01*
X81246601Y-89205800D01*
X81072597Y-89222861D01*
X80848662Y-89290472D01*
X80642124Y-89400290D01*
X80460850Y-89548133D01*
X80311744Y-89728371D01*
X80200487Y-89934137D01*
X80131316Y-90157595D01*
X80106864Y-90390232D01*
X79962181Y-90390232D01*
X79962181Y-89522590D01*
X79939099Y-89406552D01*
X79866340Y-89297660D01*
X79757448Y-89224901D01*
X79641410Y-89201819D01*
X79429927Y-89201819D01*
X79496367Y-89171890D01*
X79707193Y-89029955D01*
X79891090Y-88854526D01*
X80042798Y-88650621D01*
X80157983Y-88424070D01*
X80194136Y-88307640D01*
X80302483Y-88514890D01*
X80449058Y-88697192D01*
X80628250Y-88847552D01*
X80833235Y-88960243D01*
X81056628Y-89031108D01*
X81249694Y-89051400D01*
X81364199Y-89051400D01*
X81538203Y-89034339D01*
X81762138Y-88966728D01*
X81968676Y-88856910D01*
X82149950Y-88709067D01*
X82299056Y-88528829D01*
X82410313Y-88323063D01*
X82479484Y-88099605D01*
X82503936Y-87866968D01*
X82502413Y-87850232D01*
X82646864Y-87850232D01*
X82668064Y-88083188D01*
X82734110Y-88307591D01*
X82842483Y-88514890D01*
X82989058Y-88697192D01*
X83168250Y-88847552D01*
X83373235Y-88960243D01*
X83596628Y-89031108D01*
X83789694Y-89051400D01*
X83904199Y-89051400D01*
X84078203Y-89034339D01*
X84302138Y-88966728D01*
X84508676Y-88856910D01*
X84689950Y-88709067D01*
X84839056Y-88528829D01*
X84950313Y-88323063D01*
X85019484Y-88099605D01*
X85043936Y-87866968D01*
X85042413Y-87850232D01*
X85186864Y-87850232D01*
X85208064Y-88083188D01*
X85274110Y-88307591D01*
X85382483Y-88514890D01*
X85529058Y-88697192D01*
X85708250Y-88847552D01*
X85913235Y-88960243D01*
X86136628Y-89031108D01*
X86329694Y-89051400D01*
X86444199Y-89051400D01*
X86618203Y-89034339D01*
X86842138Y-88966728D01*
X87048676Y-88856910D01*
X87229950Y-88709067D01*
X87379056Y-88528829D01*
X87490313Y-88323063D01*
X87559484Y-88099605D01*
X87583936Y-87866968D01*
X87582413Y-87850232D01*
X87726864Y-87850232D01*
X87748064Y-88083188D01*
X87814110Y-88307591D01*
X87922483Y-88514890D01*
X88069058Y-88697192D01*
X88248250Y-88847552D01*
X88453235Y-88960243D01*
X88676628Y-89031108D01*
X88869694Y-89051400D01*
X88984199Y-89051400D01*
X89158203Y-89034339D01*
X89382138Y-88966728D01*
X89588676Y-88856910D01*
X89769950Y-88709067D01*
X89919056Y-88528829D01*
X90030313Y-88323063D01*
X90099484Y-88099605D01*
X90123936Y-87866968D01*
X90102736Y-87634012D01*
X90036690Y-87409609D01*
X89928317Y-87202310D01*
X89781742Y-87020008D01*
X89602550Y-86869648D01*
X89397565Y-86756957D01*
X89174172Y-86686092D01*
X88981106Y-86665800D01*
X88866601Y-86665800D01*
X88692597Y-86682861D01*
X88468662Y-86750472D01*
X88262124Y-86860290D01*
X88080850Y-87008133D01*
X87931744Y-87188371D01*
X87820487Y-87394137D01*
X87751316Y-87617595D01*
X87726864Y-87850232D01*
X87582413Y-87850232D01*
X87562736Y-87634012D01*
X87496690Y-87409609D01*
X87388317Y-87202310D01*
X87241742Y-87020008D01*
X87062550Y-86869648D01*
X86857565Y-86756957D01*
X86634172Y-86686092D01*
X86441106Y-86665800D01*
X86326601Y-86665800D01*
X86152597Y-86682861D01*
X85928662Y-86750472D01*
X85722124Y-86860290D01*
X85540850Y-87008133D01*
X85391744Y-87188371D01*
X85280487Y-87394137D01*
X85211316Y-87617595D01*
X85186864Y-87850232D01*
X85042413Y-87850232D01*
X85022736Y-87634012D01*
X84956690Y-87409609D01*
X84848317Y-87202310D01*
X84701742Y-87020008D01*
X84522550Y-86869648D01*
X84317565Y-86756957D01*
X84094172Y-86686092D01*
X83901106Y-86665800D01*
X83786601Y-86665800D01*
X83612597Y-86682861D01*
X83388662Y-86750472D01*
X83182124Y-86860290D01*
X83000850Y-87008133D01*
X82851744Y-87188371D01*
X82740487Y-87394137D01*
X82671316Y-87617595D01*
X82646864Y-87850232D01*
X82502413Y-87850232D01*
X82482736Y-87634012D01*
X82416690Y-87409609D01*
X82308317Y-87202310D01*
X82161742Y-87020008D01*
X81982550Y-86869648D01*
X81777565Y-86756957D01*
X81554172Y-86686092D01*
X81361106Y-86665800D01*
X81246601Y-86665800D01*
X81072597Y-86682861D01*
X80848662Y-86750472D01*
X80642124Y-86860290D01*
X80460850Y-87008133D01*
X80311744Y-87188371D01*
X80200487Y-87394137D01*
X80196828Y-87405956D01*
X80111665Y-87190308D01*
X79979819Y-86973030D01*
X79813247Y-86781075D01*
X79616716Y-86619929D01*
X79395842Y-86494200D01*
X79154125Y-86406461D01*
X78893400Y-86371904D01*
X78893400Y-87986600D01*
X77262016Y-87986600D01*
X67223351Y-87986600D01*
X67111079Y-87974800D01*
X66997875Y-87974800D01*
X66825852Y-87991667D01*
X66604470Y-88058507D01*
X66400286Y-88167073D01*
X66221079Y-88313230D01*
X66073674Y-88491413D01*
X65963685Y-88694833D01*
X65895302Y-88915743D01*
X65871130Y-89145728D01*
X65699181Y-89145728D01*
X65699181Y-88291590D01*
X65676099Y-88175552D01*
X65603340Y-88066660D01*
X65494448Y-87993901D01*
X65378410Y-87970819D01*
X63653590Y-87970819D01*
X63537552Y-87993901D01*
X63428660Y-88066660D01*
X63355901Y-88175552D01*
X63332819Y-88291590D01*
X62329200Y-88291590D01*
X62329200Y-87730600D01*
X77271639Y-87730600D01*
X78637400Y-87730600D01*
X78637400Y-86344570D01*
X78266158Y-86440925D01*
X78034433Y-86545310D01*
X77823607Y-86687245D01*
X77639710Y-86862674D01*
X77488002Y-87066579D01*
X77372817Y-87293130D01*
X77297450Y-87535850D01*
X77271639Y-87730600D01*
X62329200Y-87730600D01*
X62329200Y-84049222D01*
X62332591Y-84038131D01*
X62333590Y-84023621D01*
X62351872Y-83765437D01*
X62401364Y-83535554D01*
X62482753Y-83314937D01*
X62594418Y-83107985D01*
X62734125Y-82918838D01*
X62899087Y-82751265D01*
X63086021Y-82608601D01*
X63291196Y-82493698D01*
X63510493Y-82408858D01*
X63739577Y-82355759D01*
X63984352Y-82334560D01*
X64016819Y-82334304D01*
X64038410Y-82329200D01*
X112950778Y-82329200D01*
X112961869Y-82332591D01*
X112976516Y-82333600D01*
X113234563Y-82351872D01*
X113464446Y-82401364D01*
X113685063Y-82482753D01*
X113892015Y-82594418D01*
X114081162Y-82734125D01*
X114248735Y-82899087D01*
X114391399Y-83086021D01*
X114506302Y-83291196D01*
X114591142Y-83510493D01*
X114644241Y-83739577D01*
X114665440Y-83984352D01*
X114665696Y-84016819D01*
X114670801Y-84038414D01*
X114670800Y-112950778D01*
X114667409Y-112961869D01*
X114666410Y-112976380D01*
X114648129Y-113234556D01*
X114598636Y-113464447D01*
X114517246Y-113685066D01*
X114405581Y-113892016D01*
X114265875Y-114081162D01*
X114100917Y-114248732D01*
X113913979Y-114391399D01*
X113708804Y-114506302D01*
X113489507Y-114591142D01*
X113260423Y-114644241D01*
X113015648Y-114665440D01*
X112983181Y-114665696D01*
X112961590Y-114670800D01*
X64049222Y-114670800D01*
X64038131Y-114667409D01*
X64023448Y-114666398D01*
X63765444Y-114648129D01*
X63535553Y-114598636D01*
X63314934Y-114517246D01*
X63107984Y-114405581D01*
X62918838Y-114265875D01*
X62751268Y-114100917D01*
X62608601Y-113913979D01*
X62493698Y-113708804D01*
X62408858Y-113489507D01*
X62355759Y-113260423D01*
X62334560Y-113015648D01*
X62334304Y-112983181D01*
X62329200Y-112961590D01*
X62329200Y-99442000D01*
X63026513Y-99442000D01*
X63089456Y-99741983D01*
X63181961Y-99976222D01*
X63312610Y-100191526D01*
X63477669Y-100381739D01*
X63672416Y-100541422D01*
X63891284Y-100666009D01*
X64130831Y-100752960D01*
X64388000Y-100787047D01*
X64388000Y-99442000D01*
X63026513Y-99442000D01*
X62329200Y-99442000D01*
X62329200Y-99186000D01*
X63035957Y-99186000D01*
X64644000Y-99186000D01*
X64644000Y-100813978D01*
X65010708Y-100718800D01*
X65240329Y-100615363D01*
X65449240Y-100474716D01*
X65571601Y-100357989D01*
X65571600Y-104833465D01*
X65563852Y-104855528D01*
X65571600Y-104925152D01*
X65571600Y-104948286D01*
X65576627Y-104970321D01*
X65584314Y-105039408D01*
X65596999Y-105059628D01*
X65602312Y-105082922D01*
X65646017Y-105137770D01*
X65658085Y-105157006D01*
X65674130Y-105173051D01*
X65717576Y-105227573D01*
X65738974Y-105237894D01*
X67361800Y-106860721D01*
X67361801Y-107702562D01*
X67354052Y-107724627D01*
X67361801Y-107794261D01*
X67361801Y-107817386D01*
X67366825Y-107839408D01*
X67374514Y-107908508D01*
X67387201Y-107928732D01*
X67392514Y-107952024D01*
X67436220Y-108006874D01*
X67448286Y-108026106D01*
X67464337Y-108042157D01*
X67507778Y-108096673D01*
X67529171Y-108106992D01*
X67826181Y-108404002D01*
X67805185Y-108442833D01*
X67736802Y-108663743D01*
X67712630Y-108893728D01*
X67733588Y-109124028D01*
X67798881Y-109345871D01*
X67906019Y-109550807D01*
X68050922Y-109731030D01*
X68228071Y-109879676D01*
X68299783Y-109919100D01*
X67947923Y-109919100D01*
X67428820Y-109399997D01*
X67449815Y-109361167D01*
X67518198Y-109140257D01*
X67542370Y-108910272D01*
X67521412Y-108679972D01*
X67456119Y-108458129D01*
X67348981Y-108253193D01*
X67204078Y-108072970D01*
X67026929Y-107924324D01*
X66824282Y-107812918D01*
X66603431Y-107742859D01*
X66412579Y-107722800D01*
X66299375Y-107722800D01*
X66127352Y-107739667D01*
X65905970Y-107806507D01*
X65701786Y-107915073D01*
X65522579Y-108061230D01*
X65375174Y-108239413D01*
X65265185Y-108442833D01*
X65196802Y-108663743D01*
X65172630Y-108893728D01*
X65193588Y-109124028D01*
X65258881Y-109345871D01*
X65366019Y-109550807D01*
X65510922Y-109731030D01*
X65688071Y-109879676D01*
X65890718Y-109991082D01*
X66111569Y-110061141D01*
X66302421Y-110081200D01*
X66415625Y-110081200D01*
X66587648Y-110064333D01*
X66809030Y-109997493D01*
X66855150Y-109972971D01*
X67140998Y-110258819D01*
X65495090Y-110258819D01*
X65379052Y-110281901D01*
X65270160Y-110354660D01*
X65197401Y-110463552D01*
X65174319Y-110579590D01*
X65174319Y-112304410D01*
X65197401Y-112420448D01*
X65270160Y-112529340D01*
X65379052Y-112602099D01*
X65495090Y-112625181D01*
X67219910Y-112625181D01*
X67335948Y-112602099D01*
X67444840Y-112529340D01*
X67517599Y-112420448D01*
X67540681Y-112304410D01*
X67540681Y-110652917D01*
X67544771Y-110655487D01*
X67599065Y-110698908D01*
X67622334Y-110704238D01*
X67642565Y-110716953D01*
X67712246Y-110724830D01*
X67734383Y-110729900D01*
X67757093Y-110729900D01*
X67826351Y-110737730D01*
X67848773Y-110729900D01*
X67956134Y-110729900D01*
X67915174Y-110779413D01*
X67805185Y-110982833D01*
X67736802Y-111203743D01*
X67712630Y-111433728D01*
X67733588Y-111664028D01*
X67798881Y-111885871D01*
X67906019Y-112090807D01*
X68050922Y-112271030D01*
X68228071Y-112419676D01*
X68430718Y-112531082D01*
X68651569Y-112601141D01*
X68842421Y-112621200D01*
X68955625Y-112621200D01*
X69127648Y-112604333D01*
X69349030Y-112537493D01*
X69553214Y-112428927D01*
X69732421Y-112282770D01*
X69879826Y-112104587D01*
X69989815Y-111901167D01*
X70058198Y-111680257D01*
X70082370Y-111450272D01*
X70061412Y-111219972D01*
X69996119Y-110998129D01*
X69888981Y-110793193D01*
X69838092Y-110729900D01*
X70496134Y-110729900D01*
X70455174Y-110779413D01*
X70345185Y-110982833D01*
X70276802Y-111203743D01*
X70252630Y-111433728D01*
X70273588Y-111664028D01*
X70338881Y-111885871D01*
X70446019Y-112090807D01*
X70590922Y-112271030D01*
X70768071Y-112419676D01*
X70970718Y-112531082D01*
X71191569Y-112601141D01*
X71382421Y-112621200D01*
X71495625Y-112621200D01*
X71667648Y-112604333D01*
X71889030Y-112537493D01*
X72093214Y-112428927D01*
X72272421Y-112282770D01*
X72419826Y-112104587D01*
X72529815Y-111901167D01*
X72598198Y-111680257D01*
X72622370Y-111450272D01*
X72601412Y-111219972D01*
X72536119Y-110998129D01*
X72428981Y-110793193D01*
X72378092Y-110729900D01*
X73036134Y-110729900D01*
X72995174Y-110779413D01*
X72885185Y-110982833D01*
X72816802Y-111203743D01*
X72792630Y-111433728D01*
X72813588Y-111664028D01*
X72878881Y-111885871D01*
X72986019Y-112090807D01*
X73130922Y-112271030D01*
X73308071Y-112419676D01*
X73510718Y-112531082D01*
X73731569Y-112601141D01*
X73922421Y-112621200D01*
X74035625Y-112621200D01*
X74207648Y-112604333D01*
X74429030Y-112537493D01*
X74633214Y-112428927D01*
X74812421Y-112282770D01*
X74959826Y-112104587D01*
X75069815Y-111901167D01*
X75086315Y-111847864D01*
X75090956Y-111869983D01*
X75183461Y-112104222D01*
X75314110Y-112319526D01*
X75479169Y-112509739D01*
X75673916Y-112669422D01*
X75892784Y-112794009D01*
X76132331Y-112880960D01*
X76389500Y-112915047D01*
X76389500Y-111570000D01*
X76645500Y-111570000D01*
X76645500Y-112941978D01*
X77012208Y-112846800D01*
X77241829Y-112743363D01*
X77450740Y-112602716D01*
X77632966Y-112428881D01*
X77783297Y-112226828D01*
X77897436Y-112002334D01*
X77972118Y-111761819D01*
X77997543Y-111570000D01*
X76645500Y-111570000D01*
X76389500Y-111570000D01*
X76389500Y-111314000D01*
X78006987Y-111314000D01*
X77944044Y-111014017D01*
X77851539Y-110779778D01*
X77821272Y-110729900D01*
X84097380Y-110729900D01*
X86156550Y-112789071D01*
X86166674Y-112810154D01*
X86221395Y-112853916D01*
X86237744Y-112870266D01*
X86256871Y-112882287D01*
X86311165Y-112925708D01*
X86334434Y-112931038D01*
X86354665Y-112943753D01*
X86424346Y-112951630D01*
X86446483Y-112956700D01*
X86469193Y-112956700D01*
X86538451Y-112964530D01*
X86560873Y-112956700D01*
X99912465Y-112956700D01*
X99934528Y-112964448D01*
X100004152Y-112956700D01*
X100027287Y-112956700D01*
X100049320Y-112951674D01*
X100118408Y-112943986D01*
X100138628Y-112931301D01*
X100161923Y-112925988D01*
X100216780Y-112882276D01*
X100236006Y-112870215D01*
X100252050Y-112854170D01*
X100306573Y-112810723D01*
X100316893Y-112789327D01*
X102083771Y-111022450D01*
X102104854Y-111012326D01*
X102148616Y-110957605D01*
X102164966Y-110941256D01*
X102176987Y-110922129D01*
X102220408Y-110867835D01*
X102225738Y-110844566D01*
X102238453Y-110824335D01*
X102246330Y-110754654D01*
X102246648Y-110753266D01*
X102271000Y-110736994D01*
X102317552Y-110768099D01*
X102433590Y-110791181D01*
X102858410Y-110791181D01*
X102974448Y-110768099D01*
X103046000Y-110720290D01*
X103117552Y-110768099D01*
X103233590Y-110791181D01*
X103658410Y-110791181D01*
X103774448Y-110768099D01*
X103821000Y-110736994D01*
X103867552Y-110768099D01*
X103983590Y-110791181D01*
X104508410Y-110791181D01*
X104624448Y-110768099D01*
X104733340Y-110695340D01*
X104806099Y-110586448D01*
X104829181Y-110470410D01*
X104829181Y-109898140D01*
X105267185Y-109460137D01*
X105288266Y-109450014D01*
X105332028Y-109395293D01*
X105348378Y-109378944D01*
X105360399Y-109359817D01*
X105403820Y-109305523D01*
X105409150Y-109282254D01*
X105421865Y-109262023D01*
X105429742Y-109192342D01*
X105434812Y-109170205D01*
X105434812Y-109147495D01*
X105442642Y-109078237D01*
X105434812Y-109055815D01*
X105434812Y-107618002D01*
X105442561Y-107595937D01*
X105434812Y-107526305D01*
X105434812Y-107503178D01*
X105429787Y-107481146D01*
X105422097Y-107412054D01*
X105409413Y-107391835D01*
X105404100Y-107368540D01*
X105360393Y-107313690D01*
X105348328Y-107294457D01*
X105332275Y-107278404D01*
X105288835Y-107223890D01*
X105267440Y-107213570D01*
X103834050Y-105780181D01*
X104723410Y-105780181D01*
X104839448Y-105757099D01*
X104948340Y-105684340D01*
X105021099Y-105575448D01*
X105044181Y-105459410D01*
X105044181Y-105274601D01*
X108331120Y-108561541D01*
X108321079Y-108569730D01*
X108173674Y-108747913D01*
X108063685Y-108951333D01*
X107995302Y-109172243D01*
X107971130Y-109402228D01*
X107992088Y-109632528D01*
X108057381Y-109854371D01*
X108164519Y-110059307D01*
X108309422Y-110239530D01*
X108486571Y-110388176D01*
X108689218Y-110499582D01*
X108910069Y-110569641D01*
X109100921Y-110589700D01*
X109214125Y-110589700D01*
X109386148Y-110572833D01*
X109607530Y-110505993D01*
X109811714Y-110397427D01*
X109990921Y-110251270D01*
X110138326Y-110073087D01*
X110248315Y-109869667D01*
X110316698Y-109648757D01*
X110340870Y-109418772D01*
X110319912Y-109188472D01*
X110254619Y-108966629D01*
X110147481Y-108761693D01*
X110127627Y-108737000D01*
X110449179Y-108737000D01*
X110624681Y-108912502D01*
X110603685Y-108951333D01*
X110535302Y-109172243D01*
X110511130Y-109402228D01*
X110532088Y-109632528D01*
X110597381Y-109854371D01*
X110704519Y-110059307D01*
X110849422Y-110239530D01*
X111026571Y-110388176D01*
X111229218Y-110499582D01*
X111450069Y-110569641D01*
X111640921Y-110589700D01*
X111754125Y-110589700D01*
X111926148Y-110572833D01*
X112147530Y-110505993D01*
X112351714Y-110397427D01*
X112530921Y-110251270D01*
X112678326Y-110073087D01*
X112788315Y-109869667D01*
X112856698Y-109648757D01*
X112880870Y-109418772D01*
X112859912Y-109188472D01*
X112794619Y-108966629D01*
X112687481Y-108761693D01*
X112542578Y-108581470D01*
X112365429Y-108432824D01*
X112162782Y-108321418D01*
X111941931Y-108251359D01*
X111751079Y-108231300D01*
X111637875Y-108231300D01*
X111465852Y-108248167D01*
X111244470Y-108315007D01*
X111198351Y-108339529D01*
X110952649Y-108093828D01*
X110942526Y-108072746D01*
X110887800Y-108028980D01*
X110871456Y-108012635D01*
X110852330Y-108000614D01*
X110798035Y-107957193D01*
X110774762Y-107951862D01*
X110754533Y-107939149D01*
X110684853Y-107931270D01*
X110662715Y-107926200D01*
X110640007Y-107926200D01*
X110570750Y-107918369D01*
X110548327Y-107926200D01*
X109682370Y-107926200D01*
X109811714Y-107857427D01*
X109990921Y-107711270D01*
X110138326Y-107533087D01*
X110248315Y-107329667D01*
X110316698Y-107108757D01*
X110340870Y-106878772D01*
X110339365Y-106862228D01*
X110511130Y-106862228D01*
X110532088Y-107092528D01*
X110597381Y-107314371D01*
X110704519Y-107519307D01*
X110849422Y-107699530D01*
X111026571Y-107848176D01*
X111229218Y-107959582D01*
X111450069Y-108029641D01*
X111640921Y-108049700D01*
X111754125Y-108049700D01*
X111926148Y-108032833D01*
X112147530Y-107965993D01*
X112351714Y-107857427D01*
X112530921Y-107711270D01*
X112678326Y-107533087D01*
X112788315Y-107329667D01*
X112856698Y-107108757D01*
X112880870Y-106878772D01*
X112859912Y-106648472D01*
X112794619Y-106426629D01*
X112687481Y-106221693D01*
X112542578Y-106041470D01*
X112365429Y-105892824D01*
X112162782Y-105781418D01*
X111941931Y-105711359D01*
X111751079Y-105691300D01*
X111637875Y-105691300D01*
X111465852Y-105708167D01*
X111244470Y-105775007D01*
X111040286Y-105883573D01*
X110861079Y-106029730D01*
X110713674Y-106207913D01*
X110603685Y-106411333D01*
X110535302Y-106632243D01*
X110511130Y-106862228D01*
X110339365Y-106862228D01*
X110319912Y-106648472D01*
X110254619Y-106426629D01*
X110147481Y-106221693D01*
X110002578Y-106041470D01*
X109825429Y-105892824D01*
X109683686Y-105814900D01*
X109697387Y-105814900D01*
X109719420Y-105809874D01*
X109788508Y-105802186D01*
X109808728Y-105789501D01*
X109832023Y-105784188D01*
X109886880Y-105740476D01*
X109906106Y-105728415D01*
X109922150Y-105712370D01*
X109976673Y-105668923D01*
X109986993Y-105647528D01*
X110687593Y-104946930D01*
X110704519Y-104979307D01*
X110849422Y-105159530D01*
X111026571Y-105308176D01*
X111229218Y-105419582D01*
X111450069Y-105489641D01*
X111640921Y-105509700D01*
X111754125Y-105509700D01*
X111926148Y-105492833D01*
X112147530Y-105425993D01*
X112351714Y-105317427D01*
X112530921Y-105171270D01*
X112678326Y-104993087D01*
X112788315Y-104789667D01*
X112856698Y-104568757D01*
X112880870Y-104338772D01*
X112859912Y-104108472D01*
X112794619Y-103886629D01*
X112687481Y-103681693D01*
X112542578Y-103501470D01*
X112365429Y-103352824D01*
X112315104Y-103325158D01*
X112321673Y-103319923D01*
X112331993Y-103298527D01*
X113363171Y-102267350D01*
X113384254Y-102257226D01*
X113428016Y-102202505D01*
X113444366Y-102186156D01*
X113456387Y-102167029D01*
X113499808Y-102112735D01*
X113505138Y-102089466D01*
X113517853Y-102069235D01*
X113525730Y-101999554D01*
X113530800Y-101977417D01*
X113530800Y-101954707D01*
X113538630Y-101885449D01*
X113530800Y-101863027D01*
X113530800Y-94765536D01*
X113538548Y-94743473D01*
X113530800Y-94673848D01*
X113530800Y-94650714D01*
X113525773Y-94628676D01*
X113518086Y-94559594D01*
X113505402Y-94539374D01*
X113500088Y-94516076D01*
X113456382Y-94461228D01*
X113444318Y-94441995D01*
X113428259Y-94425936D01*
X113384823Y-94371427D01*
X113363430Y-94361108D01*
X110563250Y-91560930D01*
X110553126Y-91539846D01*
X110498400Y-91496080D01*
X110482056Y-91479735D01*
X110462930Y-91467714D01*
X110408635Y-91424293D01*
X110385362Y-91418962D01*
X110365133Y-91406249D01*
X110295453Y-91398370D01*
X110273315Y-91393300D01*
X110250607Y-91393300D01*
X110181350Y-91385469D01*
X110158927Y-91393300D01*
X89593102Y-91393300D01*
X89769950Y-91249067D01*
X89919056Y-91068829D01*
X90030313Y-90863063D01*
X90099484Y-90639605D01*
X90123936Y-90406968D01*
X90102736Y-90174012D01*
X90036690Y-89949609D01*
X89928317Y-89742310D01*
X89781742Y-89560008D01*
X89602550Y-89409648D01*
X89397565Y-89296957D01*
X89174172Y-89226092D01*
X88981106Y-89205800D01*
X88866601Y-89205800D01*
X88692597Y-89222861D01*
X88468662Y-89290472D01*
X88262124Y-89400290D01*
X88080850Y-89548133D01*
X87931744Y-89728371D01*
X87820487Y-89934137D01*
X87751316Y-90157595D01*
X87726864Y-90390232D01*
X87748064Y-90623188D01*
X87814110Y-90847591D01*
X87844657Y-90906022D01*
X86975379Y-91775300D01*
X86189035Y-91775300D01*
X86166972Y-91767552D01*
X86097347Y-91775300D01*
X86074213Y-91775300D01*
X86052180Y-91780326D01*
X85983093Y-91788014D01*
X85962871Y-91800699D01*
X85939576Y-91806013D01*
X85884732Y-91849715D01*
X85865494Y-91861783D01*
X85849436Y-91877841D01*
X85794927Y-91921277D01*
X85784608Y-91942670D01*
X79851731Y-97875549D01*
X79692916Y-97745329D01*
X79472042Y-97619600D01*
X79230325Y-97531861D01*
X78969600Y-97497304D01*
X78969600Y-99112000D01*
X77433973Y-99112000D01*
X77177974Y-98856000D01*
X77347839Y-98856000D01*
X78713600Y-98856000D01*
X78713600Y-97469970D01*
X78342358Y-97566325D01*
X78110633Y-97670710D01*
X77899807Y-97812645D01*
X77715910Y-97988074D01*
X77564202Y-98191979D01*
X77449017Y-98418530D01*
X77373650Y-98661250D01*
X77347839Y-98856000D01*
X77177974Y-98856000D01*
X77054248Y-98732274D01*
X77003823Y-98706581D01*
X76958043Y-98673320D01*
X76904227Y-98655834D01*
X76853799Y-98630140D01*
X76797897Y-98621286D01*
X76744084Y-98603801D01*
X76688011Y-98603801D01*
X76688005Y-98603800D01*
X67998120Y-98603800D01*
X67902578Y-98484970D01*
X67725429Y-98336324D01*
X67653535Y-98296800D01*
X75304165Y-98296800D01*
X75326228Y-98304548D01*
X75395852Y-98296800D01*
X75418987Y-98296800D01*
X75441020Y-98291774D01*
X75510108Y-98284086D01*
X75530328Y-98271401D01*
X75553623Y-98266088D01*
X75608480Y-98222376D01*
X75627706Y-98210315D01*
X75643750Y-98194270D01*
X75698273Y-98150823D01*
X75708594Y-98129426D01*
X81382271Y-92455750D01*
X82124515Y-92455750D01*
X82146578Y-92463498D01*
X82216202Y-92455750D01*
X82239337Y-92455750D01*
X82261370Y-92450724D01*
X82330458Y-92443036D01*
X82350678Y-92430351D01*
X82373973Y-92425038D01*
X82428830Y-92381326D01*
X82448056Y-92369265D01*
X82464100Y-92353220D01*
X82518623Y-92309773D01*
X82528943Y-92288378D01*
X83337000Y-91480322D01*
X83373235Y-91500243D01*
X83596628Y-91571108D01*
X83789694Y-91591400D01*
X83904199Y-91591400D01*
X84078203Y-91574339D01*
X84302138Y-91506728D01*
X84508676Y-91396910D01*
X84689950Y-91249067D01*
X84839056Y-91068829D01*
X84950313Y-90863063D01*
X85019484Y-90639605D01*
X85043936Y-90406968D01*
X85042413Y-90390232D01*
X85186864Y-90390232D01*
X85208064Y-90623188D01*
X85274110Y-90847591D01*
X85382483Y-91054890D01*
X85529058Y-91237192D01*
X85708250Y-91387552D01*
X85913235Y-91500243D01*
X86136628Y-91571108D01*
X86329694Y-91591400D01*
X86444199Y-91591400D01*
X86618203Y-91574339D01*
X86842138Y-91506728D01*
X87048676Y-91396910D01*
X87229950Y-91249067D01*
X87379056Y-91068829D01*
X87490313Y-90863063D01*
X87559484Y-90639605D01*
X87583936Y-90406968D01*
X87562736Y-90174012D01*
X87496690Y-89949609D01*
X87388317Y-89742310D01*
X87241742Y-89560008D01*
X87062550Y-89409648D01*
X86857565Y-89296957D01*
X86634172Y-89226092D01*
X86441106Y-89205800D01*
X86326601Y-89205800D01*
X86152597Y-89222861D01*
X85928662Y-89290472D01*
X85722124Y-89400290D01*
X85540850Y-89548133D01*
X85391744Y-89728371D01*
X85280487Y-89934137D01*
X85211316Y-90157595D01*
X85186864Y-90390232D01*
X85042413Y-90390232D01*
X85022736Y-90174012D01*
X84956690Y-89949609D01*
X84848317Y-89742310D01*
X84701742Y-89560008D01*
X84522550Y-89409648D01*
X84317565Y-89296957D01*
X84094172Y-89226092D01*
X83901106Y-89205800D01*
X83786601Y-89205800D01*
X83612597Y-89222861D01*
X83388662Y-89290472D01*
X83182124Y-89400290D01*
X83000850Y-89548133D01*
X82851744Y-89728371D01*
X82740487Y-89934137D01*
X82671316Y-90157595D01*
X82646864Y-90390232D01*
X82668064Y-90623188D01*
X82734110Y-90847591D01*
X82764657Y-90906022D01*
X82025729Y-91644950D01*
X81283485Y-91644950D01*
X81261422Y-91637202D01*
X81191797Y-91644950D01*
X81168663Y-91644950D01*
X81146630Y-91649976D01*
X81077541Y-91657664D01*
X81057321Y-91670348D01*
X81034026Y-91675662D01*
X80979176Y-91719370D01*
X80959943Y-91731435D01*
X80943891Y-91747487D01*
X80889377Y-91790927D01*
X80879057Y-91812322D01*
X75205380Y-97486000D01*
X67997448Y-97486000D01*
X68038326Y-97436587D01*
X68148315Y-97233167D01*
X68216698Y-97012257D01*
X68240870Y-96782272D01*
X68219912Y-96551972D01*
X68154619Y-96330129D01*
X68047481Y-96125193D01*
X67902578Y-95944970D01*
X67725429Y-95796324D01*
X67522782Y-95684918D01*
X67301931Y-95614859D01*
X67111079Y-95594800D01*
X66997875Y-95594800D01*
X66825852Y-95611667D01*
X66604470Y-95678507D01*
X66400286Y-95787073D01*
X66221079Y-95933230D01*
X66073674Y-96111413D01*
X65963685Y-96314833D01*
X65895302Y-96535743D01*
X65871130Y-96765728D01*
X65892088Y-96996028D01*
X65957381Y-97217871D01*
X66064519Y-97422807D01*
X66209422Y-97603030D01*
X66386571Y-97751676D01*
X66440600Y-97781378D01*
X65744358Y-98477621D01*
X65719389Y-98436473D01*
X65554331Y-98246261D01*
X65359584Y-98086578D01*
X65140716Y-97961991D01*
X64922960Y-97882950D01*
X64967530Y-97869493D01*
X65171714Y-97760927D01*
X65350921Y-97614770D01*
X65498326Y-97436587D01*
X65608315Y-97233167D01*
X65676698Y-97012257D01*
X65700870Y-96782272D01*
X65679912Y-96551972D01*
X65614619Y-96330129D01*
X65507481Y-96125193D01*
X65362578Y-95944970D01*
X65185429Y-95796324D01*
X64982782Y-95684918D01*
X64761931Y-95614859D01*
X64571079Y-95594800D01*
X64457875Y-95594800D01*
X64285852Y-95611667D01*
X64064470Y-95678507D01*
X63860286Y-95787073D01*
X63681079Y-95933230D01*
X63533674Y-96111413D01*
X63423685Y-96314833D01*
X63355302Y-96535743D01*
X63331130Y-96765728D01*
X63352088Y-96996028D01*
X63417381Y-97217871D01*
X63524519Y-97422807D01*
X63669422Y-97603030D01*
X63846571Y-97751676D01*
X64049218Y-97863082D01*
X64116610Y-97884460D01*
X64021292Y-97909200D01*
X63791671Y-98012637D01*
X63582760Y-98153284D01*
X63400534Y-98327119D01*
X63250203Y-98529172D01*
X63136064Y-98753666D01*
X63061382Y-98994181D01*
X63035957Y-99186000D01*
X62329200Y-99186000D01*
X62329200Y-94225728D01*
X63331130Y-94225728D01*
X63352088Y-94456028D01*
X63417381Y-94677871D01*
X63524519Y-94882807D01*
X63669422Y-95063030D01*
X63846571Y-95211676D01*
X64049218Y-95323082D01*
X64270069Y-95393141D01*
X64460921Y-95413200D01*
X64574125Y-95413200D01*
X64746148Y-95396333D01*
X64967530Y-95329493D01*
X65171714Y-95220927D01*
X65350921Y-95074770D01*
X65498326Y-94896587D01*
X65608315Y-94693167D01*
X65676698Y-94472257D01*
X65700870Y-94242272D01*
X65699365Y-94225728D01*
X65871130Y-94225728D01*
X65892088Y-94456028D01*
X65957381Y-94677871D01*
X66064519Y-94882807D01*
X66209422Y-95063030D01*
X66386571Y-95211676D01*
X66589218Y-95323082D01*
X66810069Y-95393141D01*
X67000921Y-95413200D01*
X67114125Y-95413200D01*
X67286148Y-95396333D01*
X67507530Y-95329493D01*
X67711714Y-95220927D01*
X67890921Y-95074770D01*
X68038326Y-94896587D01*
X68148315Y-94693167D01*
X68216698Y-94472257D01*
X68240870Y-94242272D01*
X68219912Y-94011972D01*
X68154619Y-93790129D01*
X68047481Y-93585193D01*
X67902578Y-93404970D01*
X67725429Y-93256324D01*
X67522782Y-93144918D01*
X67301931Y-93074859D01*
X67111079Y-93054800D01*
X66997875Y-93054800D01*
X66825852Y-93071667D01*
X66604470Y-93138507D01*
X66400286Y-93247073D01*
X66221079Y-93393230D01*
X66073674Y-93571413D01*
X65963685Y-93774833D01*
X65895302Y-93995743D01*
X65871130Y-94225728D01*
X65699365Y-94225728D01*
X65679912Y-94011972D01*
X65614619Y-93790129D01*
X65507481Y-93585193D01*
X65362578Y-93404970D01*
X65185429Y-93256324D01*
X64982782Y-93144918D01*
X64761931Y-93074859D01*
X64571079Y-93054800D01*
X64457875Y-93054800D01*
X64285852Y-93071667D01*
X64064470Y-93138507D01*
X63860286Y-93247073D01*
X63681079Y-93393230D01*
X63533674Y-93571413D01*
X63423685Y-93774833D01*
X63355302Y-93995743D01*
X63331130Y-94225728D01*
X62329200Y-94225728D01*
X62329200Y-91685728D01*
G36*
X97796874Y-92899813D02*
G01*
X97686885Y-93103233D01*
X97618502Y-93324143D01*
X97594330Y-93554128D01*
X97615288Y-93784428D01*
X97680581Y-94006271D01*
X97787719Y-94211207D01*
X97930990Y-94389400D01*
X91675835Y-94389400D01*
X91653772Y-94381652D01*
X91584148Y-94389400D01*
X91561013Y-94389400D01*
X91538980Y-94394426D01*
X91469894Y-94402114D01*
X91449674Y-94414798D01*
X91426376Y-94420112D01*
X91371528Y-94463818D01*
X91352295Y-94475882D01*
X91336236Y-94491941D01*
X91281727Y-94535377D01*
X91271408Y-94556770D01*
X88859430Y-96968750D01*
X88140585Y-96968750D01*
X88118522Y-96961002D01*
X88048898Y-96968750D01*
X88025763Y-96968750D01*
X88003730Y-96973776D01*
X87934644Y-96981464D01*
X87914424Y-96994148D01*
X87891126Y-96999462D01*
X87836278Y-97043168D01*
X87817045Y-97055232D01*
X87800986Y-97071291D01*
X87746477Y-97114727D01*
X87736159Y-97136118D01*
X86970000Y-97902278D01*
X86933765Y-97882357D01*
X86710372Y-97811492D01*
X86517306Y-97791200D01*
X86402801Y-97791200D01*
X86228797Y-97808261D01*
X86004862Y-97875872D01*
X85798324Y-97985690D01*
X85617050Y-98133533D01*
X85467944Y-98313771D01*
X85356687Y-98519537D01*
X85287516Y-98742995D01*
X85263064Y-98975632D01*
X85284264Y-99208588D01*
X85350310Y-99432991D01*
X85458683Y-99640290D01*
X85605258Y-99822592D01*
X85784450Y-99972952D01*
X85835651Y-100001100D01*
X85108236Y-100001100D01*
X85086173Y-99993352D01*
X85016548Y-100001100D01*
X84993414Y-100001100D01*
X84971376Y-100006127D01*
X84902294Y-100013814D01*
X84882074Y-100026498D01*
X84858776Y-100031812D01*
X84803928Y-100075518D01*
X84784695Y-100087582D01*
X84768636Y-100103641D01*
X84714127Y-100147077D01*
X84703808Y-100168470D01*
X84430001Y-100442277D01*
X84393765Y-100422357D01*
X84170372Y-100351492D01*
X83977306Y-100331200D01*
X83862801Y-100331200D01*
X83688797Y-100348261D01*
X83464862Y-100415872D01*
X83258324Y-100525690D01*
X83077050Y-100673533D01*
X82927944Y-100853771D01*
X82816687Y-101059537D01*
X82747516Y-101282995D01*
X82723064Y-101515632D01*
X82744264Y-101748588D01*
X82810310Y-101972991D01*
X82918683Y-102180290D01*
X83065258Y-102362592D01*
X83244450Y-102512952D01*
X83449435Y-102625643D01*
X83672828Y-102696508D01*
X83865894Y-102716800D01*
X83980399Y-102716800D01*
X84154403Y-102699739D01*
X84378338Y-102632128D01*
X84584876Y-102522310D01*
X84766150Y-102374467D01*
X84915256Y-102194229D01*
X85026513Y-101988463D01*
X85095684Y-101765005D01*
X85120136Y-101532368D01*
X85098936Y-101299412D01*
X85032890Y-101075009D01*
X85002343Y-101016578D01*
X85207021Y-100811900D01*
X85502583Y-100811900D01*
X85467944Y-100853771D01*
X85356687Y-101059537D01*
X85287516Y-101282995D01*
X85263064Y-101515632D01*
X85284264Y-101748588D01*
X85350310Y-101972991D01*
X85458683Y-102180290D01*
X85605258Y-102362592D01*
X85784450Y-102512952D01*
X85989435Y-102625643D01*
X86056200Y-102646823D01*
X86056201Y-109262262D01*
X86048452Y-109284327D01*
X86056201Y-109353961D01*
X86056201Y-109377086D01*
X86061225Y-109399108D01*
X86068914Y-109468208D01*
X86081601Y-109488432D01*
X86086914Y-109511724D01*
X86130620Y-109566574D01*
X86142686Y-109585806D01*
X86158737Y-109601857D01*
X86202178Y-109656373D01*
X86223571Y-109666692D01*
X86815697Y-110258819D01*
X86704090Y-110258819D01*
X86588052Y-110281901D01*
X86479160Y-110354660D01*
X86406401Y-110463552D01*
X86383319Y-110579590D01*
X86383319Y-111869197D01*
X84600850Y-110086730D01*
X84590726Y-110065646D01*
X84536000Y-110021880D01*
X84519656Y-110005535D01*
X84500530Y-109993514D01*
X84446235Y-109950093D01*
X84422962Y-109944762D01*
X84402733Y-109932049D01*
X84333053Y-109924170D01*
X84310915Y-109919100D01*
X84288207Y-109919100D01*
X84218950Y-109911269D01*
X84196527Y-109919100D01*
X77601820Y-109919100D01*
X80171971Y-107348950D01*
X80193054Y-107338826D01*
X80236816Y-107284105D01*
X80253166Y-107267756D01*
X80265187Y-107248629D01*
X80308608Y-107194335D01*
X80313938Y-107171066D01*
X80326653Y-107150835D01*
X80334530Y-107081154D01*
X80339600Y-107059017D01*
X80339600Y-107036307D01*
X80347430Y-106967049D01*
X80339600Y-106944627D01*
X80339600Y-102105531D01*
X80378683Y-102180290D01*
X80525258Y-102362592D01*
X80704450Y-102512952D01*
X80909435Y-102625643D01*
X81132828Y-102696508D01*
X81325894Y-102716800D01*
X81440399Y-102716800D01*
X81614403Y-102699739D01*
X81838338Y-102632128D01*
X82044876Y-102522310D01*
X82226150Y-102374467D01*
X82375256Y-102194229D01*
X82486513Y-101988463D01*
X82555684Y-101765005D01*
X82580136Y-101532368D01*
X82558936Y-101299412D01*
X82492890Y-101075009D01*
X82384517Y-100867710D01*
X82237942Y-100685408D01*
X82058750Y-100535048D01*
X81853765Y-100422357D01*
X81630372Y-100351492D01*
X81437306Y-100331200D01*
X81322801Y-100331200D01*
X81148797Y-100348261D01*
X80924862Y-100415872D01*
X80873893Y-100442973D01*
X80835671Y-100404751D01*
X80835667Y-100404745D01*
X80675700Y-100244779D01*
X80675700Y-99948828D01*
X80704450Y-99972952D01*
X80909435Y-100085643D01*
X81132828Y-100156508D01*
X81325894Y-100176800D01*
X81440399Y-100176800D01*
X81614403Y-100159739D01*
X81838338Y-100092128D01*
X82044876Y-99982310D01*
X82226150Y-99834467D01*
X82375256Y-99654229D01*
X82486513Y-99448463D01*
X82555684Y-99225005D01*
X82580136Y-98992368D01*
X82558936Y-98759412D01*
X82492890Y-98535009D01*
X82462344Y-98476579D01*
X82944473Y-97994450D01*
X83247583Y-97994450D01*
X83077050Y-98133533D01*
X82927944Y-98313771D01*
X82816687Y-98519537D01*
X82747516Y-98742995D01*
X82723064Y-98975632D01*
X82744264Y-99208588D01*
X82810310Y-99432991D01*
X82918683Y-99640290D01*
X83065258Y-99822592D01*
X83244450Y-99972952D01*
X83449435Y-100085643D01*
X83672828Y-100156508D01*
X83865894Y-100176800D01*
X83980399Y-100176800D01*
X84154403Y-100159739D01*
X84378338Y-100092128D01*
X84584876Y-99982310D01*
X84766150Y-99834467D01*
X84915256Y-99654229D01*
X85026513Y-99448463D01*
X85095684Y-99225005D01*
X85120136Y-98992368D01*
X85098936Y-98759412D01*
X85032890Y-98535009D01*
X85002343Y-98476578D01*
X85789271Y-97689650D01*
X86531515Y-97689650D01*
X86553578Y-97697398D01*
X86623202Y-97689650D01*
X86646337Y-97689650D01*
X86668370Y-97684624D01*
X86737458Y-97676936D01*
X86757678Y-97664251D01*
X86780973Y-97658938D01*
X86835830Y-97615226D01*
X86855056Y-97603165D01*
X86871100Y-97587120D01*
X86925623Y-97543673D01*
X86935944Y-97522276D01*
X91574521Y-92883700D01*
X97810204Y-92883700D01*
X97796874Y-92899813D01*
X97796874Y-92899813D01*
G37*
X97796874Y-92899813D02*
X97686885Y-93103233D01*
X97618502Y-93324143D01*
X97594330Y-93554128D01*
X97615288Y-93784428D01*
X97680581Y-94006271D01*
X97787719Y-94211207D01*
X97930990Y-94389400D01*
X91675835Y-94389400D01*
X91653772Y-94381652D01*
X91584148Y-94389400D01*
X91561013Y-94389400D01*
X91538980Y-94394426D01*
X91469894Y-94402114D01*
X91449674Y-94414798D01*
X91426376Y-94420112D01*
X91371528Y-94463818D01*
X91352295Y-94475882D01*
X91336236Y-94491941D01*
X91281727Y-94535377D01*
X91271408Y-94556770D01*
X88859430Y-96968750D01*
X88140585Y-96968750D01*
X88118522Y-96961002D01*
X88048898Y-96968750D01*
X88025763Y-96968750D01*
X88003730Y-96973776D01*
X87934644Y-96981464D01*
X87914424Y-96994148D01*
X87891126Y-96999462D01*
X87836278Y-97043168D01*
X87817045Y-97055232D01*
X87800986Y-97071291D01*
X87746477Y-97114727D01*
X87736159Y-97136118D01*
X86970000Y-97902278D01*
X86933765Y-97882357D01*
X86710372Y-97811492D01*
X86517306Y-97791200D01*
X86402801Y-97791200D01*
X86228797Y-97808261D01*
X86004862Y-97875872D01*
X85798324Y-97985690D01*
X85617050Y-98133533D01*
X85467944Y-98313771D01*
X85356687Y-98519537D01*
X85287516Y-98742995D01*
X85263064Y-98975632D01*
X85284264Y-99208588D01*
X85350310Y-99432991D01*
X85458683Y-99640290D01*
X85605258Y-99822592D01*
X85784450Y-99972952D01*
X85835651Y-100001100D01*
X85108236Y-100001100D01*
X85086173Y-99993352D01*
X85016548Y-100001100D01*
X84993414Y-100001100D01*
X84971376Y-100006127D01*
X84902294Y-100013814D01*
X84882074Y-100026498D01*
X84858776Y-100031812D01*
X84803928Y-100075518D01*
X84784695Y-100087582D01*
X84768636Y-100103641D01*
X84714127Y-100147077D01*
X84703808Y-100168470D01*
X84430001Y-100442277D01*
X84393765Y-100422357D01*
X84170372Y-100351492D01*
X83977306Y-100331200D01*
X83862801Y-100331200D01*
X83688797Y-100348261D01*
X83464862Y-100415872D01*
X83258324Y-100525690D01*
X83077050Y-100673533D01*
X82927944Y-100853771D01*
X82816687Y-101059537D01*
X82747516Y-101282995D01*
X82723064Y-101515632D01*
X82744264Y-101748588D01*
X82810310Y-101972991D01*
X82918683Y-102180290D01*
X83065258Y-102362592D01*
X83244450Y-102512952D01*
X83449435Y-102625643D01*
X83672828Y-102696508D01*
X83865894Y-102716800D01*
X83980399Y-102716800D01*
X84154403Y-102699739D01*
X84378338Y-102632128D01*
X84584876Y-102522310D01*
X84766150Y-102374467D01*
X84915256Y-102194229D01*
X85026513Y-101988463D01*
X85095684Y-101765005D01*
X85120136Y-101532368D01*
X85098936Y-101299412D01*
X85032890Y-101075009D01*
X85002343Y-101016578D01*
X85207021Y-100811900D01*
X85502583Y-100811900D01*
X85467944Y-100853771D01*
X85356687Y-101059537D01*
X85287516Y-101282995D01*
X85263064Y-101515632D01*
X85284264Y-101748588D01*
X85350310Y-101972991D01*
X85458683Y-102180290D01*
X85605258Y-102362592D01*
X85784450Y-102512952D01*
X85989435Y-102625643D01*
X86056200Y-102646823D01*
X86056201Y-109262262D01*
X86048452Y-109284327D01*
X86056201Y-109353961D01*
X86056201Y-109377086D01*
X86061225Y-109399108D01*
X86068914Y-109468208D01*
X86081601Y-109488432D01*
X86086914Y-109511724D01*
X86130620Y-109566574D01*
X86142686Y-109585806D01*
X86158737Y-109601857D01*
X86202178Y-109656373D01*
X86223571Y-109666692D01*
X86815697Y-110258819D01*
X86704090Y-110258819D01*
X86588052Y-110281901D01*
X86479160Y-110354660D01*
X86406401Y-110463552D01*
X86383319Y-110579590D01*
X86383319Y-111869197D01*
X84600850Y-110086730D01*
X84590726Y-110065646D01*
X84536000Y-110021880D01*
X84519656Y-110005535D01*
X84500530Y-109993514D01*
X84446235Y-109950093D01*
X84422962Y-109944762D01*
X84402733Y-109932049D01*
X84333053Y-109924170D01*
X84310915Y-109919100D01*
X84288207Y-109919100D01*
X84218950Y-109911269D01*
X84196527Y-109919100D01*
X77601820Y-109919100D01*
X80171971Y-107348950D01*
X80193054Y-107338826D01*
X80236816Y-107284105D01*
X80253166Y-107267756D01*
X80265187Y-107248629D01*
X80308608Y-107194335D01*
X80313938Y-107171066D01*
X80326653Y-107150835D01*
X80334530Y-107081154D01*
X80339600Y-107059017D01*
X80339600Y-107036307D01*
X80347430Y-106967049D01*
X80339600Y-106944627D01*
X80339600Y-102105531D01*
X80378683Y-102180290D01*
X80525258Y-102362592D01*
X80704450Y-102512952D01*
X80909435Y-102625643D01*
X81132828Y-102696508D01*
X81325894Y-102716800D01*
X81440399Y-102716800D01*
X81614403Y-102699739D01*
X81838338Y-102632128D01*
X82044876Y-102522310D01*
X82226150Y-102374467D01*
X82375256Y-102194229D01*
X82486513Y-101988463D01*
X82555684Y-101765005D01*
X82580136Y-101532368D01*
X82558936Y-101299412D01*
X82492890Y-101075009D01*
X82384517Y-100867710D01*
X82237942Y-100685408D01*
X82058750Y-100535048D01*
X81853765Y-100422357D01*
X81630372Y-100351492D01*
X81437306Y-100331200D01*
X81322801Y-100331200D01*
X81148797Y-100348261D01*
X80924862Y-100415872D01*
X80873893Y-100442973D01*
X80835671Y-100404751D01*
X80835667Y-100404745D01*
X80675700Y-100244779D01*
X80675700Y-99948828D01*
X80704450Y-99972952D01*
X80909435Y-100085643D01*
X81132828Y-100156508D01*
X81325894Y-100176800D01*
X81440399Y-100176800D01*
X81614403Y-100159739D01*
X81838338Y-100092128D01*
X82044876Y-99982310D01*
X82226150Y-99834467D01*
X82375256Y-99654229D01*
X82486513Y-99448463D01*
X82555684Y-99225005D01*
X82580136Y-98992368D01*
X82558936Y-98759412D01*
X82492890Y-98535009D01*
X82462344Y-98476579D01*
X82944473Y-97994450D01*
X83247583Y-97994450D01*
X83077050Y-98133533D01*
X82927944Y-98313771D01*
X82816687Y-98519537D01*
X82747516Y-98742995D01*
X82723064Y-98975632D01*
X82744264Y-99208588D01*
X82810310Y-99432991D01*
X82918683Y-99640290D01*
X83065258Y-99822592D01*
X83244450Y-99972952D01*
X83449435Y-100085643D01*
X83672828Y-100156508D01*
X83865894Y-100176800D01*
X83980399Y-100176800D01*
X84154403Y-100159739D01*
X84378338Y-100092128D01*
X84584876Y-99982310D01*
X84766150Y-99834467D01*
X84915256Y-99654229D01*
X85026513Y-99448463D01*
X85095684Y-99225005D01*
X85120136Y-98992368D01*
X85098936Y-98759412D01*
X85032890Y-98535009D01*
X85002343Y-98476578D01*
X85789271Y-97689650D01*
X86531515Y-97689650D01*
X86553578Y-97697398D01*
X86623202Y-97689650D01*
X86646337Y-97689650D01*
X86668370Y-97684624D01*
X86737458Y-97676936D01*
X86757678Y-97664251D01*
X86780973Y-97658938D01*
X86835830Y-97615226D01*
X86855056Y-97603165D01*
X86871100Y-97587120D01*
X86925623Y-97543673D01*
X86935944Y-97522276D01*
X91574521Y-92883700D01*
X97810204Y-92883700D01*
X97796874Y-92899813D01*
G36*
X77126995Y-100813769D02*
G01*
X77103768Y-100813761D01*
X77049825Y-100831267D01*
X76993801Y-100840140D01*
X76943491Y-100865774D01*
X76889785Y-100883203D01*
X76843885Y-100916527D01*
X76793352Y-100942274D01*
X76714350Y-101021276D01*
X76094926Y-101640258D01*
X76094813Y-101640315D01*
X76016532Y-101718596D01*
X76016532Y-101718595D01*
X75975961Y-101759137D01*
X75975881Y-101759247D01*
X75935776Y-101799352D01*
X75910145Y-101849654D01*
X75876936Y-101895328D01*
X75859388Y-101949271D01*
X75833641Y-101999800D01*
X75824809Y-102055568D01*
X75807341Y-102109261D01*
X75807320Y-102166169D01*
X75807301Y-102166295D01*
X75807301Y-102221765D01*
X75807261Y-102334172D01*
X75807301Y-102334296D01*
X75807300Y-107959510D01*
X75682579Y-108061230D01*
X75535174Y-108239413D01*
X75425185Y-108442833D01*
X75356802Y-108663743D01*
X75332630Y-108893728D01*
X75353588Y-109124028D01*
X75418881Y-109345871D01*
X75526019Y-109550807D01*
X75545873Y-109575500D01*
X74950798Y-109575500D01*
X74959826Y-109564587D01*
X75069815Y-109361167D01*
X75138198Y-109140257D01*
X75162370Y-108910272D01*
X75141412Y-108679972D01*
X75076119Y-108458129D01*
X74968981Y-108253193D01*
X74824078Y-108072970D01*
X74646929Y-107924324D01*
X74444282Y-107812918D01*
X74223431Y-107742859D01*
X74032579Y-107722800D01*
X73919375Y-107722800D01*
X73747352Y-107739667D01*
X73525970Y-107806507D01*
X73321786Y-107915073D01*
X73142579Y-108061230D01*
X72995174Y-108239413D01*
X72885185Y-108442833D01*
X72816802Y-108663743D01*
X72792630Y-108893728D01*
X72813588Y-109124028D01*
X72878881Y-109345871D01*
X72986019Y-109550807D01*
X73005873Y-109575500D01*
X72684321Y-109575500D01*
X72508819Y-109399998D01*
X72529815Y-109361167D01*
X72598198Y-109140257D01*
X72622370Y-108910272D01*
X72601412Y-108679972D01*
X72536119Y-108458129D01*
X72428981Y-108253193D01*
X72284078Y-108072970D01*
X72106929Y-107924324D01*
X71904282Y-107812918D01*
X71683431Y-107742859D01*
X71492579Y-107722800D01*
X71379375Y-107722800D01*
X71207352Y-107739667D01*
X70985970Y-107806507D01*
X70781786Y-107915073D01*
X70602579Y-108061230D01*
X70455174Y-108239413D01*
X70345185Y-108442833D01*
X70276802Y-108663743D01*
X70252630Y-108893728D01*
X70273588Y-109124028D01*
X70338881Y-109345871D01*
X70446019Y-109550807D01*
X70590922Y-109731030D01*
X70768071Y-109879676D01*
X70839783Y-109919100D01*
X69496467Y-109919100D01*
X69553214Y-109888927D01*
X69732421Y-109742770D01*
X69879826Y-109564587D01*
X69989815Y-109361167D01*
X70058198Y-109140257D01*
X70082370Y-108910272D01*
X70061412Y-108679972D01*
X69996119Y-108458129D01*
X69888981Y-108253193D01*
X69744078Y-108072970D01*
X69566929Y-107924324D01*
X69364282Y-107812918D01*
X69143431Y-107742859D01*
X68952579Y-107722800D01*
X68839375Y-107722800D01*
X68667352Y-107739667D01*
X68445970Y-107806507D01*
X68399851Y-107831029D01*
X68172600Y-107603779D01*
X68172600Y-106761935D01*
X68180348Y-106739872D01*
X68172600Y-106670247D01*
X68172600Y-106647113D01*
X68167574Y-106625080D01*
X68159886Y-106555991D01*
X68147202Y-106535771D01*
X68141888Y-106512476D01*
X68098180Y-106457626D01*
X68086115Y-106438393D01*
X68070063Y-106422341D01*
X68026623Y-106367827D01*
X68005228Y-106357507D01*
X66382400Y-104734680D01*
X66382400Y-100288176D01*
X66386571Y-100291676D01*
X66589218Y-100403082D01*
X66810069Y-100473141D01*
X67000921Y-100493200D01*
X67114125Y-100493200D01*
X67286148Y-100476333D01*
X67507530Y-100409493D01*
X67711714Y-100300927D01*
X67890921Y-100154770D01*
X67998938Y-100024200D01*
X76337427Y-100024200D01*
X77126995Y-100813769D01*
X77126995Y-100813769D01*
G37*
X77126995Y-100813769D02*
X77103768Y-100813761D01*
X77049825Y-100831267D01*
X76993801Y-100840140D01*
X76943491Y-100865774D01*
X76889785Y-100883203D01*
X76843885Y-100916527D01*
X76793352Y-100942274D01*
X76714350Y-101021276D01*
X76094926Y-101640258D01*
X76094813Y-101640315D01*
X76016532Y-101718596D01*
X76016532Y-101718595D01*
X75975961Y-101759137D01*
X75975881Y-101759247D01*
X75935776Y-101799352D01*
X75910145Y-101849654D01*
X75876936Y-101895328D01*
X75859388Y-101949271D01*
X75833641Y-101999800D01*
X75824809Y-102055568D01*
X75807341Y-102109261D01*
X75807320Y-102166169D01*
X75807301Y-102166295D01*
X75807301Y-102221765D01*
X75807261Y-102334172D01*
X75807301Y-102334296D01*
X75807300Y-107959510D01*
X75682579Y-108061230D01*
X75535174Y-108239413D01*
X75425185Y-108442833D01*
X75356802Y-108663743D01*
X75332630Y-108893728D01*
X75353588Y-109124028D01*
X75418881Y-109345871D01*
X75526019Y-109550807D01*
X75545873Y-109575500D01*
X74950798Y-109575500D01*
X74959826Y-109564587D01*
X75069815Y-109361167D01*
X75138198Y-109140257D01*
X75162370Y-108910272D01*
X75141412Y-108679972D01*
X75076119Y-108458129D01*
X74968981Y-108253193D01*
X74824078Y-108072970D01*
X74646929Y-107924324D01*
X74444282Y-107812918D01*
X74223431Y-107742859D01*
X74032579Y-107722800D01*
X73919375Y-107722800D01*
X73747352Y-107739667D01*
X73525970Y-107806507D01*
X73321786Y-107915073D01*
X73142579Y-108061230D01*
X72995174Y-108239413D01*
X72885185Y-108442833D01*
X72816802Y-108663743D01*
X72792630Y-108893728D01*
X72813588Y-109124028D01*
X72878881Y-109345871D01*
X72986019Y-109550807D01*
X73005873Y-109575500D01*
X72684321Y-109575500D01*
X72508819Y-109399998D01*
X72529815Y-109361167D01*
X72598198Y-109140257D01*
X72622370Y-108910272D01*
X72601412Y-108679972D01*
X72536119Y-108458129D01*
X72428981Y-108253193D01*
X72284078Y-108072970D01*
X72106929Y-107924324D01*
X71904282Y-107812918D01*
X71683431Y-107742859D01*
X71492579Y-107722800D01*
X71379375Y-107722800D01*
X71207352Y-107739667D01*
X70985970Y-107806507D01*
X70781786Y-107915073D01*
X70602579Y-108061230D01*
X70455174Y-108239413D01*
X70345185Y-108442833D01*
X70276802Y-108663743D01*
X70252630Y-108893728D01*
X70273588Y-109124028D01*
X70338881Y-109345871D01*
X70446019Y-109550807D01*
X70590922Y-109731030D01*
X70768071Y-109879676D01*
X70839783Y-109919100D01*
X69496467Y-109919100D01*
X69553214Y-109888927D01*
X69732421Y-109742770D01*
X69879826Y-109564587D01*
X69989815Y-109361167D01*
X70058198Y-109140257D01*
X70082370Y-108910272D01*
X70061412Y-108679972D01*
X69996119Y-108458129D01*
X69888981Y-108253193D01*
X69744078Y-108072970D01*
X69566929Y-107924324D01*
X69364282Y-107812918D01*
X69143431Y-107742859D01*
X68952579Y-107722800D01*
X68839375Y-107722800D01*
X68667352Y-107739667D01*
X68445970Y-107806507D01*
X68399851Y-107831029D01*
X68172600Y-107603779D01*
X68172600Y-106761935D01*
X68180348Y-106739872D01*
X68172600Y-106670247D01*
X68172600Y-106647113D01*
X68167574Y-106625080D01*
X68159886Y-106555991D01*
X68147202Y-106535771D01*
X68141888Y-106512476D01*
X68098180Y-106457626D01*
X68086115Y-106438393D01*
X68070063Y-106422341D01*
X68026623Y-106367827D01*
X68005228Y-106357507D01*
X66382400Y-104734680D01*
X66382400Y-100288176D01*
X66386571Y-100291676D01*
X66589218Y-100403082D01*
X66810069Y-100473141D01*
X67000921Y-100493200D01*
X67114125Y-100493200D01*
X67286148Y-100476333D01*
X67507530Y-100409493D01*
X67711714Y-100300927D01*
X67890921Y-100154770D01*
X67998938Y-100024200D01*
X76337427Y-100024200D01*
X77126995Y-100813769D01*
G36*
X77644819Y-102400010D02*
G01*
X77667901Y-102516048D01*
X77740660Y-102624940D01*
X77849552Y-102697699D01*
X77965590Y-102720781D01*
X79528800Y-102720781D01*
X79528801Y-106845477D01*
X77682488Y-108691792D01*
X77681412Y-108679972D01*
X77616119Y-108458129D01*
X77508981Y-108253193D01*
X77364078Y-108072970D01*
X77227700Y-107958535D01*
X77227700Y-102516322D01*
X77510024Y-102234200D01*
X77644819Y-102234200D01*
X77644819Y-102400010D01*
X77644819Y-102400010D01*
G37*
X77644819Y-102400010D02*
X77667901Y-102516048D01*
X77740660Y-102624940D01*
X77849552Y-102697699D01*
X77965590Y-102720781D01*
X79528800Y-102720781D01*
X79528801Y-106845477D01*
X77682488Y-108691792D01*
X77681412Y-108679972D01*
X77616119Y-108458129D01*
X77508981Y-108253193D01*
X77364078Y-108072970D01*
X77227700Y-107958535D01*
X77227700Y-102516322D01*
X77510024Y-102234200D01*
X77644819Y-102234200D01*
X77644819Y-102400010D01*
G36*
X88007944Y-100853771D02*
G01*
X87896687Y-101059537D01*
X87827516Y-101282995D01*
X87803064Y-101515632D01*
X87824264Y-101748588D01*
X87890310Y-101972991D01*
X87998683Y-102180290D01*
X88145258Y-102362592D01*
X88324450Y-102512952D01*
X88529435Y-102625643D01*
X88752828Y-102696508D01*
X88945894Y-102716800D01*
X89060399Y-102716800D01*
X89234403Y-102699739D01*
X89458338Y-102632128D01*
X89664876Y-102522310D01*
X89846150Y-102374467D01*
X89995256Y-102194229D01*
X90106513Y-101988463D01*
X90124796Y-101929400D01*
X97088280Y-101929400D01*
X98589734Y-103430855D01*
X98550852Y-103434667D01*
X98329470Y-103501507D01*
X98125286Y-103610073D01*
X97946079Y-103756230D01*
X97798674Y-103934413D01*
X97733455Y-104055033D01*
X97271849Y-103593428D01*
X97261726Y-103572346D01*
X97207000Y-103528580D01*
X97190656Y-103512235D01*
X97171530Y-103500214D01*
X97117235Y-103456793D01*
X97093962Y-103451462D01*
X97073733Y-103438749D01*
X97004053Y-103430870D01*
X96981915Y-103425800D01*
X96959207Y-103425800D01*
X96889950Y-103417969D01*
X96867527Y-103425800D01*
X93705435Y-103425800D01*
X93683372Y-103418052D01*
X93613747Y-103425800D01*
X93590613Y-103425800D01*
X93568580Y-103430826D01*
X93499491Y-103438514D01*
X93479271Y-103451198D01*
X93455976Y-103456512D01*
X93401126Y-103500220D01*
X93381893Y-103512285D01*
X93365841Y-103528337D01*
X93311327Y-103571777D01*
X93301007Y-103593172D01*
X90176030Y-106718150D01*
X89414085Y-106718150D01*
X89392022Y-106710402D01*
X89322397Y-106718150D01*
X89299263Y-106718150D01*
X89277230Y-106723176D01*
X89208141Y-106730864D01*
X89187921Y-106743548D01*
X89164626Y-106748862D01*
X89109776Y-106792570D01*
X89090543Y-106804635D01*
X89074491Y-106820687D01*
X89019977Y-106864127D01*
X89009657Y-106885522D01*
X88064887Y-107830293D01*
X88033282Y-107812918D01*
X87812431Y-107742859D01*
X87621579Y-107722800D01*
X87508375Y-107722800D01*
X87336352Y-107739667D01*
X87114970Y-107806507D01*
X86910786Y-107915073D01*
X86867000Y-107950784D01*
X86867000Y-102647628D01*
X86918338Y-102632128D01*
X87124876Y-102522310D01*
X87306150Y-102374467D01*
X87455256Y-102194229D01*
X87566513Y-101988463D01*
X87635684Y-101765005D01*
X87660136Y-101532368D01*
X87638936Y-101299412D01*
X87572890Y-101075009D01*
X87464517Y-100867710D01*
X87419644Y-100811900D01*
X88042583Y-100811900D01*
X88007944Y-100853771D01*
X88007944Y-100853771D01*
G37*
X88007944Y-100853771D02*
X87896687Y-101059537D01*
X87827516Y-101282995D01*
X87803064Y-101515632D01*
X87824264Y-101748588D01*
X87890310Y-101972991D01*
X87998683Y-102180290D01*
X88145258Y-102362592D01*
X88324450Y-102512952D01*
X88529435Y-102625643D01*
X88752828Y-102696508D01*
X88945894Y-102716800D01*
X89060399Y-102716800D01*
X89234403Y-102699739D01*
X89458338Y-102632128D01*
X89664876Y-102522310D01*
X89846150Y-102374467D01*
X89995256Y-102194229D01*
X90106513Y-101988463D01*
X90124796Y-101929400D01*
X97088280Y-101929400D01*
X98589734Y-103430855D01*
X98550852Y-103434667D01*
X98329470Y-103501507D01*
X98125286Y-103610073D01*
X97946079Y-103756230D01*
X97798674Y-103934413D01*
X97733455Y-104055033D01*
X97271849Y-103593428D01*
X97261726Y-103572346D01*
X97207000Y-103528580D01*
X97190656Y-103512235D01*
X97171530Y-103500214D01*
X97117235Y-103456793D01*
X97093962Y-103451462D01*
X97073733Y-103438749D01*
X97004053Y-103430870D01*
X96981915Y-103425800D01*
X96959207Y-103425800D01*
X96889950Y-103417969D01*
X96867527Y-103425800D01*
X93705435Y-103425800D01*
X93683372Y-103418052D01*
X93613747Y-103425800D01*
X93590613Y-103425800D01*
X93568580Y-103430826D01*
X93499491Y-103438514D01*
X93479271Y-103451198D01*
X93455976Y-103456512D01*
X93401126Y-103500220D01*
X93381893Y-103512285D01*
X93365841Y-103528337D01*
X93311327Y-103571777D01*
X93301007Y-103593172D01*
X90176030Y-106718150D01*
X89414085Y-106718150D01*
X89392022Y-106710402D01*
X89322397Y-106718150D01*
X89299263Y-106718150D01*
X89277230Y-106723176D01*
X89208141Y-106730864D01*
X89187921Y-106743548D01*
X89164626Y-106748862D01*
X89109776Y-106792570D01*
X89090543Y-106804635D01*
X89074491Y-106820687D01*
X89019977Y-106864127D01*
X89009657Y-106885522D01*
X88064887Y-107830293D01*
X88033282Y-107812918D01*
X87812431Y-107742859D01*
X87621579Y-107722800D01*
X87508375Y-107722800D01*
X87336352Y-107739667D01*
X87114970Y-107806507D01*
X86910786Y-107915073D01*
X86867000Y-107950784D01*
X86867000Y-102647628D01*
X86918338Y-102632128D01*
X87124876Y-102522310D01*
X87306150Y-102374467D01*
X87455256Y-102194229D01*
X87566513Y-101988463D01*
X87635684Y-101765005D01*
X87660136Y-101532368D01*
X87638936Y-101299412D01*
X87572890Y-101075009D01*
X87464517Y-100867710D01*
X87419644Y-100811900D01*
X88042583Y-100811900D01*
X88007944Y-100853771D01*
G36*
X97366551Y-104834773D02*
G01*
X97376674Y-104855854D01*
X97431395Y-104899616D01*
X97447744Y-104915966D01*
X97466871Y-104927987D01*
X97521165Y-104971408D01*
X97544434Y-104976738D01*
X97564665Y-104989453D01*
X97634346Y-104997330D01*
X97656483Y-105002400D01*
X97671058Y-105002400D01*
X97682381Y-105040871D01*
X97789519Y-105245807D01*
X97934422Y-105426030D01*
X98111571Y-105574676D01*
X98314218Y-105686082D01*
X98535069Y-105756141D01*
X98725921Y-105776200D01*
X98839125Y-105776200D01*
X99011148Y-105759333D01*
X99232530Y-105692493D01*
X99436714Y-105583927D01*
X99615921Y-105437770D01*
X99763326Y-105259587D01*
X99777038Y-105234228D01*
X99791576Y-105252473D01*
X99812974Y-105262794D01*
X100762250Y-106212071D01*
X100772374Y-106233154D01*
X100827095Y-106276916D01*
X100843444Y-106293266D01*
X100862571Y-106305287D01*
X100916865Y-106348708D01*
X100940134Y-106354038D01*
X100960365Y-106366753D01*
X101030046Y-106374630D01*
X101052183Y-106379700D01*
X101074893Y-106379700D01*
X101144151Y-106387530D01*
X101166573Y-106379700D01*
X101974379Y-106379700D01*
X102892637Y-107297960D01*
X102863410Y-107283863D01*
X102826935Y-107254692D01*
X102781231Y-107244224D01*
X102738831Y-107223773D01*
X102691970Y-107223732D01*
X102691830Y-107223700D01*
X102654967Y-107223700D01*
X102553838Y-107223612D01*
X102553655Y-107223700D01*
X102457821Y-107223700D01*
X102335003Y-107100882D01*
X102336009Y-107018549D01*
X102261590Y-106825186D01*
X102123046Y-106672125D01*
X101938690Y-106579202D01*
X101733244Y-106558877D01*
X101534254Y-106613875D01*
X101368404Y-106736820D01*
X101257935Y-106911229D01*
X101217659Y-107113712D01*
X101252976Y-107317119D01*
X101359151Y-107494175D01*
X101446273Y-107562119D01*
X101358660Y-107620660D01*
X101285901Y-107729552D01*
X101284403Y-107737081D01*
X100938649Y-107391328D01*
X100928526Y-107370246D01*
X100873800Y-107326480D01*
X100857456Y-107310135D01*
X100838330Y-107298114D01*
X100784035Y-107254693D01*
X100760762Y-107249362D01*
X100740533Y-107236649D01*
X100670853Y-107228770D01*
X100648715Y-107223700D01*
X100626007Y-107223700D01*
X100556750Y-107215869D01*
X100534327Y-107223700D01*
X99557421Y-107223700D01*
X96599103Y-104265383D01*
X96599455Y-104236600D01*
X96768379Y-104236600D01*
X97366551Y-104834773D01*
X97366551Y-104834773D01*
G37*
X97366551Y-104834773D02*
X97376674Y-104855854D01*
X97431395Y-104899616D01*
X97447744Y-104915966D01*
X97466871Y-104927987D01*
X97521165Y-104971408D01*
X97544434Y-104976738D01*
X97564665Y-104989453D01*
X97634346Y-104997330D01*
X97656483Y-105002400D01*
X97671058Y-105002400D01*
X97682381Y-105040871D01*
X97789519Y-105245807D01*
X97934422Y-105426030D01*
X98111571Y-105574676D01*
X98314218Y-105686082D01*
X98535069Y-105756141D01*
X98725921Y-105776200D01*
X98839125Y-105776200D01*
X99011148Y-105759333D01*
X99232530Y-105692493D01*
X99436714Y-105583927D01*
X99615921Y-105437770D01*
X99763326Y-105259587D01*
X99777038Y-105234228D01*
X99791576Y-105252473D01*
X99812974Y-105262794D01*
X100762250Y-106212071D01*
X100772374Y-106233154D01*
X100827095Y-106276916D01*
X100843444Y-106293266D01*
X100862571Y-106305287D01*
X100916865Y-106348708D01*
X100940134Y-106354038D01*
X100960365Y-106366753D01*
X101030046Y-106374630D01*
X101052183Y-106379700D01*
X101074893Y-106379700D01*
X101144151Y-106387530D01*
X101166573Y-106379700D01*
X101974379Y-106379700D01*
X102892637Y-107297960D01*
X102863410Y-107283863D01*
X102826935Y-107254692D01*
X102781231Y-107244224D01*
X102738831Y-107223773D01*
X102691970Y-107223732D01*
X102691830Y-107223700D01*
X102654967Y-107223700D01*
X102553838Y-107223612D01*
X102553655Y-107223700D01*
X102457821Y-107223700D01*
X102335003Y-107100882D01*
X102336009Y-107018549D01*
X102261590Y-106825186D01*
X102123046Y-106672125D01*
X101938690Y-106579202D01*
X101733244Y-106558877D01*
X101534254Y-106613875D01*
X101368404Y-106736820D01*
X101257935Y-106911229D01*
X101217659Y-107113712D01*
X101252976Y-107317119D01*
X101359151Y-107494175D01*
X101446273Y-107562119D01*
X101358660Y-107620660D01*
X101285901Y-107729552D01*
X101284403Y-107737081D01*
X100938649Y-107391328D01*
X100928526Y-107370246D01*
X100873800Y-107326480D01*
X100857456Y-107310135D01*
X100838330Y-107298114D01*
X100784035Y-107254693D01*
X100760762Y-107249362D01*
X100740533Y-107236649D01*
X100670853Y-107228770D01*
X100648715Y-107223700D01*
X100626007Y-107223700D01*
X100556750Y-107215869D01*
X100534327Y-107223700D01*
X99557421Y-107223700D01*
X96599103Y-104265383D01*
X96599455Y-104236600D01*
X96768379Y-104236600D01*
X97366551Y-104834773D01*
G36*
X108312819Y-95208410D02*
G01*
X108335901Y-95324448D01*
X108367006Y-95371000D01*
X108335901Y-95417552D01*
X108312819Y-95533590D01*
X108312819Y-96058410D01*
X108335901Y-96174448D01*
X108400280Y-96270798D01*
X107839329Y-96831750D01*
X107818245Y-96841874D01*
X107774480Y-96896600D01*
X107758135Y-96912944D01*
X107746113Y-96932072D01*
X107702691Y-96986368D01*
X107697362Y-97009638D01*
X107684649Y-97029864D01*
X107676771Y-97099545D01*
X107671700Y-97121685D01*
X107671700Y-97144393D01*
X107663869Y-97213650D01*
X107671700Y-97236073D01*
X107671701Y-104770062D01*
X107663952Y-104792127D01*
X107671701Y-104861761D01*
X107671701Y-104884886D01*
X107676725Y-104906908D01*
X107684414Y-104976008D01*
X107697101Y-104996232D01*
X107702414Y-105019524D01*
X107746120Y-105074374D01*
X107758186Y-105093606D01*
X107774237Y-105109657D01*
X107817678Y-105164173D01*
X107839071Y-105174492D01*
X108311851Y-105647273D01*
X108321974Y-105668354D01*
X108376695Y-105712116D01*
X108393042Y-105728464D01*
X108412170Y-105740488D01*
X108466468Y-105783909D01*
X108489736Y-105789238D01*
X108509963Y-105801951D01*
X108579644Y-105809829D01*
X108601784Y-105814900D01*
X108624494Y-105814900D01*
X108628574Y-105815361D01*
X108500286Y-105883573D01*
X108321079Y-106029730D01*
X108173674Y-106207913D01*
X108063685Y-106411333D01*
X107995302Y-106632243D01*
X107971130Y-106862228D01*
X107990420Y-107074198D01*
X105275450Y-104359230D01*
X105265326Y-104338146D01*
X105210600Y-104294380D01*
X105194256Y-104278035D01*
X105175130Y-104266014D01*
X105120835Y-104222593D01*
X105097562Y-104217262D01*
X105077333Y-104204549D01*
X105044181Y-104200800D01*
X105044181Y-103734590D01*
X105021099Y-103618552D01*
X104948340Y-103509660D01*
X104839448Y-103436901D01*
X104723410Y-103413819D01*
X102998590Y-103413819D01*
X102943800Y-103424718D01*
X102943800Y-102200536D01*
X102951548Y-102178473D01*
X102943800Y-102108848D01*
X102943800Y-102086282D01*
X102998590Y-102097181D01*
X104723410Y-102097181D01*
X104839448Y-102074099D01*
X104948340Y-102001340D01*
X105021099Y-101892448D01*
X105044181Y-101776410D01*
X105044181Y-100051590D01*
X105021099Y-99935552D01*
X104948340Y-99826660D01*
X104839448Y-99753901D01*
X104723410Y-99730819D01*
X102998590Y-99730819D01*
X102882552Y-99753901D01*
X102773660Y-99826660D01*
X102700901Y-99935552D01*
X102677819Y-100051590D01*
X102677819Y-101697498D01*
X102392319Y-101411998D01*
X102413315Y-101373167D01*
X102481698Y-101152257D01*
X102505870Y-100922272D01*
X102484912Y-100691972D01*
X102419619Y-100470129D01*
X102312481Y-100265193D01*
X102167578Y-100084970D01*
X101990429Y-99936324D01*
X101787782Y-99824918D01*
X101566931Y-99754859D01*
X101376079Y-99734800D01*
X101262875Y-99734800D01*
X101090852Y-99751667D01*
X100869470Y-99818507D01*
X100665286Y-99927073D01*
X100486079Y-100073230D01*
X100338674Y-100251413D01*
X100228685Y-100454833D01*
X100160302Y-100675743D01*
X100136130Y-100905728D01*
X100157088Y-101136028D01*
X100222381Y-101357871D01*
X100329519Y-101562807D01*
X100474422Y-101743030D01*
X100651571Y-101891676D01*
X100854218Y-102003082D01*
X101075069Y-102073141D01*
X101265921Y-102093200D01*
X101379125Y-102093200D01*
X101551148Y-102076333D01*
X101772530Y-102009493D01*
X101818650Y-101984971D01*
X102133001Y-102299322D01*
X102133000Y-103738956D01*
X101990429Y-103619324D01*
X101787782Y-103507918D01*
X101566931Y-103437859D01*
X101376079Y-103417800D01*
X101262875Y-103417800D01*
X101090852Y-103434667D01*
X100869470Y-103501507D01*
X100665286Y-103610073D01*
X100486079Y-103756230D01*
X100338674Y-103934413D01*
X100307350Y-103992345D01*
X100289028Y-103983507D01*
X98301745Y-101996225D01*
X98314218Y-102003082D01*
X98535069Y-102073141D01*
X98725921Y-102093200D01*
X98839125Y-102093200D01*
X99011148Y-102076333D01*
X99232530Y-102009493D01*
X99436714Y-101900927D01*
X99615921Y-101754770D01*
X99763326Y-101576587D01*
X99873315Y-101373167D01*
X99941698Y-101152257D01*
X99965870Y-100922272D01*
X99944912Y-100691972D01*
X99879619Y-100470129D01*
X99772481Y-100265193D01*
X99627578Y-100084970D01*
X99450429Y-99936324D01*
X99247782Y-99824918D01*
X99026931Y-99754859D01*
X98836079Y-99734800D01*
X98722875Y-99734800D01*
X98550852Y-99751667D01*
X98329470Y-99818507D01*
X98125286Y-99927073D01*
X97946079Y-100073230D01*
X97798674Y-100251413D01*
X97688685Y-100454833D01*
X97620302Y-100675743D01*
X97596130Y-100905728D01*
X97617088Y-101136028D01*
X97682381Y-101357871D01*
X97703185Y-101397665D01*
X97591750Y-101286230D01*
X97581626Y-101265146D01*
X97526900Y-101221380D01*
X97510556Y-101205035D01*
X97491430Y-101193014D01*
X97437135Y-101149593D01*
X97413862Y-101144262D01*
X97393633Y-101131549D01*
X97323953Y-101123670D01*
X97301815Y-101118600D01*
X97279107Y-101118600D01*
X97209850Y-101110769D01*
X97187427Y-101118600D01*
X90125720Y-101118600D01*
X90112890Y-101075009D01*
X90004517Y-100867710D01*
X89857942Y-100685408D01*
X89764184Y-100606736D01*
X94169521Y-96201400D01*
X98205919Y-96201400D01*
X98125286Y-96244273D01*
X97946079Y-96390430D01*
X97798674Y-96568613D01*
X97688685Y-96772033D01*
X97620302Y-96992943D01*
X97596130Y-97222928D01*
X97617088Y-97453228D01*
X97682381Y-97675071D01*
X97789519Y-97880007D01*
X97934422Y-98060230D01*
X98111571Y-98208876D01*
X98314218Y-98320282D01*
X98535069Y-98390341D01*
X98725921Y-98410400D01*
X98839125Y-98410400D01*
X99011148Y-98393533D01*
X99232530Y-98326693D01*
X99436714Y-98218127D01*
X99615921Y-98071970D01*
X99763326Y-97893787D01*
X99873315Y-97690367D01*
X99941698Y-97469457D01*
X99965870Y-97239472D01*
X99944912Y-97009172D01*
X99879619Y-96787329D01*
X99772481Y-96582393D01*
X99627578Y-96402170D01*
X99450429Y-96253524D01*
X99355616Y-96201400D01*
X100745919Y-96201400D01*
X100665286Y-96244273D01*
X100486079Y-96390430D01*
X100338674Y-96568613D01*
X100228685Y-96772033D01*
X100160302Y-96992943D01*
X100136130Y-97222928D01*
X100157088Y-97453228D01*
X100222381Y-97675071D01*
X100329519Y-97880007D01*
X100474422Y-98060230D01*
X100651571Y-98208876D01*
X100854218Y-98320282D01*
X101075069Y-98390341D01*
X101265921Y-98410400D01*
X101379125Y-98410400D01*
X101551148Y-98393533D01*
X101772530Y-98326693D01*
X101976714Y-98218127D01*
X102155921Y-98071970D01*
X102303326Y-97893787D01*
X102413315Y-97690367D01*
X102481698Y-97469457D01*
X102505870Y-97239472D01*
X102484912Y-97009172D01*
X102419619Y-96787329D01*
X102312481Y-96582393D01*
X102167578Y-96402170D01*
X101990429Y-96253524D01*
X101895616Y-96201400D01*
X102735213Y-96201400D01*
X102700901Y-96252752D01*
X102677819Y-96368790D01*
X102677819Y-98093610D01*
X102700901Y-98209648D01*
X102773660Y-98318540D01*
X102882552Y-98391299D01*
X102998590Y-98414381D01*
X104723410Y-98414381D01*
X104839448Y-98391299D01*
X104948340Y-98318540D01*
X105021099Y-98209648D01*
X105044181Y-98093610D01*
X105044181Y-96368790D01*
X105021099Y-96252752D01*
X104986787Y-96201400D01*
X106747865Y-96201400D01*
X106769928Y-96209148D01*
X106839552Y-96201400D01*
X106862687Y-96201400D01*
X106884720Y-96196374D01*
X106953808Y-96188686D01*
X106974028Y-96176001D01*
X106997323Y-96170688D01*
X107052180Y-96126976D01*
X107071406Y-96114915D01*
X107087450Y-96098870D01*
X107141973Y-96055423D01*
X107152293Y-96034027D01*
X108312819Y-94873502D01*
X108312819Y-95208410D01*
X108312819Y-95208410D01*
G37*
X108312819Y-95208410D02*
X108335901Y-95324448D01*
X108367006Y-95371000D01*
X108335901Y-95417552D01*
X108312819Y-95533590D01*
X108312819Y-96058410D01*
X108335901Y-96174448D01*
X108400280Y-96270798D01*
X107839329Y-96831750D01*
X107818245Y-96841874D01*
X107774480Y-96896600D01*
X107758135Y-96912944D01*
X107746113Y-96932072D01*
X107702691Y-96986368D01*
X107697362Y-97009638D01*
X107684649Y-97029864D01*
X107676771Y-97099545D01*
X107671700Y-97121685D01*
X107671700Y-97144393D01*
X107663869Y-97213650D01*
X107671700Y-97236073D01*
X107671701Y-104770062D01*
X107663952Y-104792127D01*
X107671701Y-104861761D01*
X107671701Y-104884886D01*
X107676725Y-104906908D01*
X107684414Y-104976008D01*
X107697101Y-104996232D01*
X107702414Y-105019524D01*
X107746120Y-105074374D01*
X107758186Y-105093606D01*
X107774237Y-105109657D01*
X107817678Y-105164173D01*
X107839071Y-105174492D01*
X108311851Y-105647273D01*
X108321974Y-105668354D01*
X108376695Y-105712116D01*
X108393042Y-105728464D01*
X108412170Y-105740488D01*
X108466468Y-105783909D01*
X108489736Y-105789238D01*
X108509963Y-105801951D01*
X108579644Y-105809829D01*
X108601784Y-105814900D01*
X108624494Y-105814900D01*
X108628574Y-105815361D01*
X108500286Y-105883573D01*
X108321079Y-106029730D01*
X108173674Y-106207913D01*
X108063685Y-106411333D01*
X107995302Y-106632243D01*
X107971130Y-106862228D01*
X107990420Y-107074198D01*
X105275450Y-104359230D01*
X105265326Y-104338146D01*
X105210600Y-104294380D01*
X105194256Y-104278035D01*
X105175130Y-104266014D01*
X105120835Y-104222593D01*
X105097562Y-104217262D01*
X105077333Y-104204549D01*
X105044181Y-104200800D01*
X105044181Y-103734590D01*
X105021099Y-103618552D01*
X104948340Y-103509660D01*
X104839448Y-103436901D01*
X104723410Y-103413819D01*
X102998590Y-103413819D01*
X102943800Y-103424718D01*
X102943800Y-102200536D01*
X102951548Y-102178473D01*
X102943800Y-102108848D01*
X102943800Y-102086282D01*
X102998590Y-102097181D01*
X104723410Y-102097181D01*
X104839448Y-102074099D01*
X104948340Y-102001340D01*
X105021099Y-101892448D01*
X105044181Y-101776410D01*
X105044181Y-100051590D01*
X105021099Y-99935552D01*
X104948340Y-99826660D01*
X104839448Y-99753901D01*
X104723410Y-99730819D01*
X102998590Y-99730819D01*
X102882552Y-99753901D01*
X102773660Y-99826660D01*
X102700901Y-99935552D01*
X102677819Y-100051590D01*
X102677819Y-101697498D01*
X102392319Y-101411998D01*
X102413315Y-101373167D01*
X102481698Y-101152257D01*
X102505870Y-100922272D01*
X102484912Y-100691972D01*
X102419619Y-100470129D01*
X102312481Y-100265193D01*
X102167578Y-100084970D01*
X101990429Y-99936324D01*
X101787782Y-99824918D01*
X101566931Y-99754859D01*
X101376079Y-99734800D01*
X101262875Y-99734800D01*
X101090852Y-99751667D01*
X100869470Y-99818507D01*
X100665286Y-99927073D01*
X100486079Y-100073230D01*
X100338674Y-100251413D01*
X100228685Y-100454833D01*
X100160302Y-100675743D01*
X100136130Y-100905728D01*
X100157088Y-101136028D01*
X100222381Y-101357871D01*
X100329519Y-101562807D01*
X100474422Y-101743030D01*
X100651571Y-101891676D01*
X100854218Y-102003082D01*
X101075069Y-102073141D01*
X101265921Y-102093200D01*
X101379125Y-102093200D01*
X101551148Y-102076333D01*
X101772530Y-102009493D01*
X101818650Y-101984971D01*
X102133001Y-102299322D01*
X102133000Y-103738956D01*
X101990429Y-103619324D01*
X101787782Y-103507918D01*
X101566931Y-103437859D01*
X101376079Y-103417800D01*
X101262875Y-103417800D01*
X101090852Y-103434667D01*
X100869470Y-103501507D01*
X100665286Y-103610073D01*
X100486079Y-103756230D01*
X100338674Y-103934413D01*
X100307350Y-103992345D01*
X100289028Y-103983507D01*
X98301745Y-101996225D01*
X98314218Y-102003082D01*
X98535069Y-102073141D01*
X98725921Y-102093200D01*
X98839125Y-102093200D01*
X99011148Y-102076333D01*
X99232530Y-102009493D01*
X99436714Y-101900927D01*
X99615921Y-101754770D01*
X99763326Y-101576587D01*
X99873315Y-101373167D01*
X99941698Y-101152257D01*
X99965870Y-100922272D01*
X99944912Y-100691972D01*
X99879619Y-100470129D01*
X99772481Y-100265193D01*
X99627578Y-100084970D01*
X99450429Y-99936324D01*
X99247782Y-99824918D01*
X99026931Y-99754859D01*
X98836079Y-99734800D01*
X98722875Y-99734800D01*
X98550852Y-99751667D01*
X98329470Y-99818507D01*
X98125286Y-99927073D01*
X97946079Y-100073230D01*
X97798674Y-100251413D01*
X97688685Y-100454833D01*
X97620302Y-100675743D01*
X97596130Y-100905728D01*
X97617088Y-101136028D01*
X97682381Y-101357871D01*
X97703185Y-101397665D01*
X97591750Y-101286230D01*
X97581626Y-101265146D01*
X97526900Y-101221380D01*
X97510556Y-101205035D01*
X97491430Y-101193014D01*
X97437135Y-101149593D01*
X97413862Y-101144262D01*
X97393633Y-101131549D01*
X97323953Y-101123670D01*
X97301815Y-101118600D01*
X97279107Y-101118600D01*
X97209850Y-101110769D01*
X97187427Y-101118600D01*
X90125720Y-101118600D01*
X90112890Y-101075009D01*
X90004517Y-100867710D01*
X89857942Y-100685408D01*
X89764184Y-100606736D01*
X94169521Y-96201400D01*
X98205919Y-96201400D01*
X98125286Y-96244273D01*
X97946079Y-96390430D01*
X97798674Y-96568613D01*
X97688685Y-96772033D01*
X97620302Y-96992943D01*
X97596130Y-97222928D01*
X97617088Y-97453228D01*
X97682381Y-97675071D01*
X97789519Y-97880007D01*
X97934422Y-98060230D01*
X98111571Y-98208876D01*
X98314218Y-98320282D01*
X98535069Y-98390341D01*
X98725921Y-98410400D01*
X98839125Y-98410400D01*
X99011148Y-98393533D01*
X99232530Y-98326693D01*
X99436714Y-98218127D01*
X99615921Y-98071970D01*
X99763326Y-97893787D01*
X99873315Y-97690367D01*
X99941698Y-97469457D01*
X99965870Y-97239472D01*
X99944912Y-97009172D01*
X99879619Y-96787329D01*
X99772481Y-96582393D01*
X99627578Y-96402170D01*
X99450429Y-96253524D01*
X99355616Y-96201400D01*
X100745919Y-96201400D01*
X100665286Y-96244273D01*
X100486079Y-96390430D01*
X100338674Y-96568613D01*
X100228685Y-96772033D01*
X100160302Y-96992943D01*
X100136130Y-97222928D01*
X100157088Y-97453228D01*
X100222381Y-97675071D01*
X100329519Y-97880007D01*
X100474422Y-98060230D01*
X100651571Y-98208876D01*
X100854218Y-98320282D01*
X101075069Y-98390341D01*
X101265921Y-98410400D01*
X101379125Y-98410400D01*
X101551148Y-98393533D01*
X101772530Y-98326693D01*
X101976714Y-98218127D01*
X102155921Y-98071970D01*
X102303326Y-97893787D01*
X102413315Y-97690367D01*
X102481698Y-97469457D01*
X102505870Y-97239472D01*
X102484912Y-97009172D01*
X102419619Y-96787329D01*
X102312481Y-96582393D01*
X102167578Y-96402170D01*
X101990429Y-96253524D01*
X101895616Y-96201400D01*
X102735213Y-96201400D01*
X102700901Y-96252752D01*
X102677819Y-96368790D01*
X102677819Y-98093610D01*
X102700901Y-98209648D01*
X102773660Y-98318540D01*
X102882552Y-98391299D01*
X102998590Y-98414381D01*
X104723410Y-98414381D01*
X104839448Y-98391299D01*
X104948340Y-98318540D01*
X105021099Y-98209648D01*
X105044181Y-98093610D01*
X105044181Y-96368790D01*
X105021099Y-96252752D01*
X104986787Y-96201400D01*
X106747865Y-96201400D01*
X106769928Y-96209148D01*
X106839552Y-96201400D01*
X106862687Y-96201400D01*
X106884720Y-96196374D01*
X106953808Y-96188686D01*
X106974028Y-96176001D01*
X106997323Y-96170688D01*
X107052180Y-96126976D01*
X107071406Y-96114915D01*
X107087450Y-96098870D01*
X107141973Y-96055423D01*
X107152293Y-96034027D01*
X108312819Y-94873502D01*
X108312819Y-95208410D01*
G36*
X102676019Y-94424810D02*
G01*
X102699101Y-94540848D01*
X102771860Y-94649740D01*
X102880752Y-94722499D01*
X102996790Y-94745581D01*
X104721610Y-94745581D01*
X104837648Y-94722499D01*
X104946540Y-94649740D01*
X105019299Y-94540848D01*
X105042381Y-94424810D01*
X105042381Y-92883700D01*
X107331479Y-92883700D01*
X108081551Y-93633773D01*
X108091674Y-93654854D01*
X108146395Y-93698616D01*
X108162744Y-93714966D01*
X108181871Y-93726987D01*
X108236165Y-93770408D01*
X108259434Y-93775738D01*
X108279665Y-93788453D01*
X108346177Y-93795972D01*
X108280194Y-93803314D01*
X108259974Y-93815998D01*
X108236676Y-93821312D01*
X108181828Y-93865018D01*
X108162595Y-93877082D01*
X108146536Y-93893141D01*
X108092027Y-93936577D01*
X108081709Y-93957968D01*
X106649079Y-95390600D01*
X94070736Y-95390600D01*
X94048673Y-95382852D01*
X93979048Y-95390600D01*
X93955914Y-95390600D01*
X93933876Y-95395627D01*
X93864794Y-95403314D01*
X93844574Y-95415998D01*
X93821276Y-95421312D01*
X93766428Y-95465018D01*
X93747195Y-95477082D01*
X93731136Y-95493141D01*
X93676627Y-95536577D01*
X93666308Y-95557970D01*
X90196404Y-99027875D01*
X90200136Y-98992368D01*
X90178936Y-98759412D01*
X90112890Y-98535009D01*
X90004517Y-98327710D01*
X89857942Y-98145408D01*
X89678750Y-97995048D01*
X89473765Y-97882357D01*
X89250372Y-97811492D01*
X89057306Y-97791200D01*
X88942801Y-97791200D01*
X88768797Y-97808261D01*
X88544862Y-97875872D01*
X88338324Y-97985690D01*
X88157050Y-98133533D01*
X88007944Y-98313771D01*
X87896687Y-98519537D01*
X87827516Y-98742995D01*
X87803064Y-98975632D01*
X87824264Y-99208588D01*
X87890310Y-99432991D01*
X87998683Y-99640290D01*
X88145258Y-99822592D01*
X88324450Y-99972952D01*
X88375651Y-100001100D01*
X87089537Y-100001100D01*
X87124876Y-99982310D01*
X87306150Y-99834467D01*
X87455256Y-99654229D01*
X87566513Y-99448463D01*
X87635684Y-99225005D01*
X87660136Y-98992368D01*
X87638936Y-98759412D01*
X87572890Y-98535009D01*
X87542343Y-98476578D01*
X88239371Y-97779550D01*
X88958215Y-97779550D01*
X88980278Y-97787298D01*
X89049902Y-97779550D01*
X89073037Y-97779550D01*
X89095070Y-97774524D01*
X89164158Y-97766836D01*
X89184378Y-97754151D01*
X89207673Y-97748838D01*
X89262530Y-97705126D01*
X89281756Y-97693065D01*
X89297800Y-97677020D01*
X89352323Y-97633573D01*
X89362644Y-97612177D01*
X91774621Y-95200200D01*
X99101365Y-95200200D01*
X99123428Y-95207948D01*
X99193052Y-95200200D01*
X99216187Y-95200200D01*
X99238220Y-95195174D01*
X99307308Y-95187486D01*
X99327528Y-95174801D01*
X99350823Y-95169488D01*
X99405680Y-95125776D01*
X99424906Y-95113715D01*
X99440950Y-95097670D01*
X99495473Y-95054223D01*
X99505793Y-95032828D01*
X100327615Y-94211007D01*
X100327719Y-94211207D01*
X100472622Y-94391430D01*
X100649771Y-94540076D01*
X100852418Y-94651482D01*
X101073269Y-94721541D01*
X101264121Y-94741600D01*
X101377325Y-94741600D01*
X101549348Y-94724733D01*
X101770730Y-94657893D01*
X101974914Y-94549327D01*
X102154121Y-94403170D01*
X102301526Y-94224987D01*
X102411515Y-94021567D01*
X102479898Y-93800657D01*
X102504070Y-93570672D01*
X102483112Y-93340372D01*
X102417819Y-93118529D01*
X102310681Y-92913593D01*
X102286646Y-92883700D01*
X102676019Y-92883700D01*
X102676019Y-94424810D01*
X102676019Y-94424810D01*
G37*
X102676019Y-94424810D02*
X102699101Y-94540848D01*
X102771860Y-94649740D01*
X102880752Y-94722499D01*
X102996790Y-94745581D01*
X104721610Y-94745581D01*
X104837648Y-94722499D01*
X104946540Y-94649740D01*
X105019299Y-94540848D01*
X105042381Y-94424810D01*
X105042381Y-92883700D01*
X107331479Y-92883700D01*
X108081551Y-93633773D01*
X108091674Y-93654854D01*
X108146395Y-93698616D01*
X108162744Y-93714966D01*
X108181871Y-93726987D01*
X108236165Y-93770408D01*
X108259434Y-93775738D01*
X108279665Y-93788453D01*
X108346177Y-93795972D01*
X108280194Y-93803314D01*
X108259974Y-93815998D01*
X108236676Y-93821312D01*
X108181828Y-93865018D01*
X108162595Y-93877082D01*
X108146536Y-93893141D01*
X108092027Y-93936577D01*
X108081709Y-93957968D01*
X106649079Y-95390600D01*
X94070736Y-95390600D01*
X94048673Y-95382852D01*
X93979048Y-95390600D01*
X93955914Y-95390600D01*
X93933876Y-95395627D01*
X93864794Y-95403314D01*
X93844574Y-95415998D01*
X93821276Y-95421312D01*
X93766428Y-95465018D01*
X93747195Y-95477082D01*
X93731136Y-95493141D01*
X93676627Y-95536577D01*
X93666308Y-95557970D01*
X90196404Y-99027875D01*
X90200136Y-98992368D01*
X90178936Y-98759412D01*
X90112890Y-98535009D01*
X90004517Y-98327710D01*
X89857942Y-98145408D01*
X89678750Y-97995048D01*
X89473765Y-97882357D01*
X89250372Y-97811492D01*
X89057306Y-97791200D01*
X88942801Y-97791200D01*
X88768797Y-97808261D01*
X88544862Y-97875872D01*
X88338324Y-97985690D01*
X88157050Y-98133533D01*
X88007944Y-98313771D01*
X87896687Y-98519537D01*
X87827516Y-98742995D01*
X87803064Y-98975632D01*
X87824264Y-99208588D01*
X87890310Y-99432991D01*
X87998683Y-99640290D01*
X88145258Y-99822592D01*
X88324450Y-99972952D01*
X88375651Y-100001100D01*
X87089537Y-100001100D01*
X87124876Y-99982310D01*
X87306150Y-99834467D01*
X87455256Y-99654229D01*
X87566513Y-99448463D01*
X87635684Y-99225005D01*
X87660136Y-98992368D01*
X87638936Y-98759412D01*
X87572890Y-98535009D01*
X87542343Y-98476578D01*
X88239371Y-97779550D01*
X88958215Y-97779550D01*
X88980278Y-97787298D01*
X89049902Y-97779550D01*
X89073037Y-97779550D01*
X89095070Y-97774524D01*
X89164158Y-97766836D01*
X89184378Y-97754151D01*
X89207673Y-97748838D01*
X89262530Y-97705126D01*
X89281756Y-97693065D01*
X89297800Y-97677020D01*
X89352323Y-97633573D01*
X89362644Y-97612177D01*
X91774621Y-95200200D01*
X99101365Y-95200200D01*
X99123428Y-95207948D01*
X99193052Y-95200200D01*
X99216187Y-95200200D01*
X99238220Y-95195174D01*
X99307308Y-95187486D01*
X99327528Y-95174801D01*
X99350823Y-95169488D01*
X99405680Y-95125776D01*
X99424906Y-95113715D01*
X99440950Y-95097670D01*
X99495473Y-95054223D01*
X99505793Y-95032828D01*
X100327615Y-94211007D01*
X100327719Y-94211207D01*
X100472622Y-94391430D01*
X100649771Y-94540076D01*
X100852418Y-94651482D01*
X101073269Y-94721541D01*
X101264121Y-94741600D01*
X101377325Y-94741600D01*
X101549348Y-94724733D01*
X101770730Y-94657893D01*
X101974914Y-94549327D01*
X102154121Y-94403170D01*
X102301526Y-94224987D01*
X102411515Y-94021567D01*
X102479898Y-93800657D01*
X102504070Y-93570672D01*
X102483112Y-93340372D01*
X102417819Y-93118529D01*
X102310681Y-92913593D01*
X102286646Y-92883700D01*
X102676019Y-92883700D01*
X102676019Y-94424810D01*
G36*
X94592852Y-104236600D02*
G01*
X94527804Y-104284820D01*
X94417335Y-104459229D01*
X94377059Y-104661712D01*
X94412376Y-104865119D01*
X94518551Y-105042175D01*
X94681347Y-105169135D01*
X94878933Y-105228979D01*
X95084817Y-105213680D01*
X95271388Y-105125288D01*
X95290580Y-105105100D01*
X97923160Y-107737680D01*
X97781579Y-107722800D01*
X97668375Y-107722800D01*
X97496352Y-107739667D01*
X97274970Y-107806507D01*
X97070786Y-107915073D01*
X96891579Y-108061230D01*
X96744174Y-108239413D01*
X96634185Y-108442833D01*
X96565802Y-108663743D01*
X96541630Y-108893728D01*
X96562588Y-109124028D01*
X96627881Y-109345871D01*
X96735019Y-109550807D01*
X96879922Y-109731030D01*
X97057071Y-109879676D01*
X97259718Y-109991082D01*
X97480569Y-110061141D01*
X97671421Y-110081200D01*
X97784625Y-110081200D01*
X97956648Y-110064333D01*
X98178030Y-109997493D01*
X98382214Y-109888927D01*
X98561421Y-109742770D01*
X98708826Y-109564587D01*
X98818815Y-109361167D01*
X98887198Y-109140257D01*
X98911370Y-108910272D01*
X98892911Y-108707432D01*
X99310150Y-109124671D01*
X99320274Y-109145754D01*
X99374995Y-109189516D01*
X99391342Y-109205864D01*
X99410470Y-109217888D01*
X99464768Y-109261309D01*
X99488036Y-109266638D01*
X99508263Y-109279351D01*
X99577944Y-109287229D01*
X99600084Y-109292300D01*
X99622794Y-109292300D01*
X99692050Y-109300130D01*
X99714472Y-109292300D01*
X100379668Y-109292300D01*
X100342854Y-109302475D01*
X100177004Y-109425420D01*
X100066535Y-109599829D01*
X100026259Y-109802312D01*
X100061576Y-110005719D01*
X100167751Y-110182775D01*
X100330547Y-110309735D01*
X100528133Y-110369579D01*
X100734017Y-110354280D01*
X100920588Y-110265888D01*
X101062829Y-110116258D01*
X101141950Y-109924770D01*
X101143053Y-109834500D01*
X101262819Y-109834500D01*
X101262819Y-110470410D01*
X101285901Y-110586448D01*
X101320840Y-110638738D01*
X99813679Y-112145900D01*
X98674649Y-112145900D01*
X98708826Y-112104587D01*
X98818815Y-111901167D01*
X98887198Y-111680257D01*
X98911370Y-111450272D01*
X98890412Y-111219972D01*
X98825119Y-110998129D01*
X98717981Y-110793193D01*
X98573078Y-110612970D01*
X98395929Y-110464324D01*
X98193282Y-110352918D01*
X97972431Y-110282859D01*
X97781579Y-110262800D01*
X97668375Y-110262800D01*
X97496352Y-110279667D01*
X97274970Y-110346507D01*
X97070786Y-110455073D01*
X96891579Y-110601230D01*
X96744174Y-110779413D01*
X96634185Y-110982833D01*
X96565802Y-111203743D01*
X96541630Y-111433728D01*
X96562588Y-111664028D01*
X96627881Y-111885871D01*
X96735019Y-112090807D01*
X96779315Y-112145900D01*
X96134649Y-112145900D01*
X96168826Y-112104587D01*
X96278815Y-111901167D01*
X96347198Y-111680257D01*
X96371370Y-111450272D01*
X96350412Y-111219972D01*
X96285119Y-110998129D01*
X96177981Y-110793193D01*
X96033078Y-110612970D01*
X95855929Y-110464324D01*
X95653282Y-110352918D01*
X95432431Y-110282859D01*
X95241579Y-110262800D01*
X95128375Y-110262800D01*
X94956352Y-110279667D01*
X94734970Y-110346507D01*
X94530786Y-110455073D01*
X94351579Y-110601230D01*
X94204174Y-110779413D01*
X94094185Y-110982833D01*
X94025802Y-111203743D01*
X94001630Y-111433728D01*
X94022588Y-111664028D01*
X94087881Y-111885871D01*
X94195019Y-112090807D01*
X94239315Y-112145900D01*
X93594649Y-112145900D01*
X93628826Y-112104587D01*
X93738815Y-111901167D01*
X93807198Y-111680257D01*
X93831370Y-111450272D01*
X93810412Y-111219972D01*
X93745119Y-110998129D01*
X93637981Y-110793193D01*
X93493078Y-110612970D01*
X93315929Y-110464324D01*
X93113282Y-110352918D01*
X92892431Y-110282859D01*
X92701579Y-110262800D01*
X92588375Y-110262800D01*
X92416352Y-110279667D01*
X92194970Y-110346507D01*
X92148851Y-110371029D01*
X91903149Y-110125328D01*
X91893026Y-110104246D01*
X91838300Y-110060480D01*
X91821956Y-110044135D01*
X91802830Y-110032114D01*
X91748535Y-109988693D01*
X91725262Y-109983362D01*
X91705033Y-109970649D01*
X91635353Y-109962770D01*
X91613215Y-109957700D01*
X91590507Y-109957700D01*
X91521250Y-109949869D01*
X91498827Y-109957700D01*
X90632870Y-109957700D01*
X90762214Y-109888927D01*
X90941421Y-109742770D01*
X91088826Y-109564587D01*
X91198815Y-109361167D01*
X91267198Y-109140257D01*
X91291370Y-108910272D01*
X91270412Y-108679972D01*
X91205119Y-108458129D01*
X91097981Y-108253193D01*
X90953078Y-108072970D01*
X90775929Y-107924324D01*
X90573282Y-107812918D01*
X90352431Y-107742859D01*
X90161579Y-107722800D01*
X90048375Y-107722800D01*
X89876352Y-107739667D01*
X89654970Y-107806507D01*
X89450786Y-107915073D01*
X89271579Y-108061230D01*
X89124174Y-108239413D01*
X89014185Y-108442833D01*
X88945802Y-108663743D01*
X88921630Y-108893728D01*
X88942588Y-109124028D01*
X89007881Y-109345871D01*
X89115019Y-109550807D01*
X89259922Y-109731030D01*
X89437071Y-109879676D01*
X89578996Y-109957700D01*
X88092870Y-109957700D01*
X88222214Y-109888927D01*
X88401421Y-109742770D01*
X88548826Y-109564587D01*
X88658815Y-109361167D01*
X88727198Y-109140257D01*
X88751370Y-108910272D01*
X88730412Y-108679972D01*
X88665119Y-108458129D01*
X88637164Y-108404657D01*
X89512871Y-107528950D01*
X90274815Y-107528950D01*
X90296878Y-107536698D01*
X90366502Y-107528950D01*
X90389637Y-107528950D01*
X90411670Y-107523924D01*
X90480758Y-107516236D01*
X90500978Y-107503551D01*
X90524273Y-107498238D01*
X90579130Y-107454526D01*
X90598356Y-107442465D01*
X90614400Y-107426420D01*
X90668923Y-107382973D01*
X90679244Y-107361577D01*
X90890409Y-107150412D01*
X91140559Y-107150412D01*
X91175876Y-107353819D01*
X91282051Y-107530874D01*
X91298900Y-107544015D01*
X91298901Y-107890662D01*
X91291152Y-107912727D01*
X91298901Y-107982361D01*
X91298901Y-108005486D01*
X91303925Y-108027508D01*
X91311614Y-108096608D01*
X91324301Y-108116832D01*
X91329614Y-108140124D01*
X91373320Y-108194974D01*
X91385386Y-108214206D01*
X91401437Y-108230257D01*
X91444878Y-108284773D01*
X91466273Y-108295093D01*
X91575181Y-108404001D01*
X91554185Y-108442833D01*
X91485802Y-108663743D01*
X91461630Y-108893728D01*
X91482588Y-109124028D01*
X91547881Y-109345871D01*
X91655019Y-109550807D01*
X91799922Y-109731030D01*
X91977071Y-109879676D01*
X92179718Y-109991082D01*
X92400569Y-110061141D01*
X92591421Y-110081200D01*
X92704625Y-110081200D01*
X92876648Y-110064333D01*
X93098030Y-109997493D01*
X93302214Y-109888927D01*
X93481421Y-109742770D01*
X93628826Y-109564587D01*
X93738815Y-109361167D01*
X93807198Y-109140257D01*
X93831370Y-108910272D01*
X93829865Y-108893728D01*
X94001630Y-108893728D01*
X94022588Y-109124028D01*
X94087881Y-109345871D01*
X94195019Y-109550807D01*
X94339922Y-109731030D01*
X94517071Y-109879676D01*
X94719718Y-109991082D01*
X94940569Y-110061141D01*
X95131421Y-110081200D01*
X95244625Y-110081200D01*
X95416648Y-110064333D01*
X95638030Y-109997493D01*
X95842214Y-109888927D01*
X96021421Y-109742770D01*
X96168826Y-109564587D01*
X96278815Y-109361167D01*
X96347198Y-109140257D01*
X96371370Y-108910272D01*
X96350412Y-108679972D01*
X96285119Y-108458129D01*
X96177981Y-108253193D01*
X96033078Y-108072970D01*
X95855929Y-107924324D01*
X95653282Y-107812918D01*
X95432431Y-107742859D01*
X95241579Y-107722800D01*
X95128375Y-107722800D01*
X94956352Y-107739667D01*
X94734970Y-107806507D01*
X94530786Y-107915073D01*
X94351579Y-108061230D01*
X94204174Y-108239413D01*
X94094185Y-108442833D01*
X94025802Y-108663743D01*
X94001630Y-108893728D01*
X93829865Y-108893728D01*
X93810412Y-108679972D01*
X93745119Y-108458129D01*
X93637981Y-108253193D01*
X93493078Y-108072970D01*
X93315929Y-107924324D01*
X93113282Y-107812918D01*
X92892431Y-107742859D01*
X92701579Y-107722800D01*
X92588375Y-107722800D01*
X92416352Y-107739667D01*
X92194970Y-107806507D01*
X92148850Y-107831029D01*
X92109700Y-107791879D01*
X92109700Y-107535290D01*
X92177129Y-107464358D01*
X92256250Y-107272871D01*
X92258909Y-107055249D01*
X92184490Y-106861886D01*
X92045946Y-106708825D01*
X91861590Y-106615902D01*
X91656144Y-106595577D01*
X91457154Y-106650575D01*
X91291304Y-106773520D01*
X91180835Y-106947929D01*
X91140559Y-107150412D01*
X90890409Y-107150412D01*
X93804221Y-104236600D01*
X94592852Y-104236600D01*
X94592852Y-104236600D01*
G37*
X94592852Y-104236600D02*
X94527804Y-104284820D01*
X94417335Y-104459229D01*
X94377059Y-104661712D01*
X94412376Y-104865119D01*
X94518551Y-105042175D01*
X94681347Y-105169135D01*
X94878933Y-105228979D01*
X95084817Y-105213680D01*
X95271388Y-105125288D01*
X95290580Y-105105100D01*
X97923160Y-107737680D01*
X97781579Y-107722800D01*
X97668375Y-107722800D01*
X97496352Y-107739667D01*
X97274970Y-107806507D01*
X97070786Y-107915073D01*
X96891579Y-108061230D01*
X96744174Y-108239413D01*
X96634185Y-108442833D01*
X96565802Y-108663743D01*
X96541630Y-108893728D01*
X96562588Y-109124028D01*
X96627881Y-109345871D01*
X96735019Y-109550807D01*
X96879922Y-109731030D01*
X97057071Y-109879676D01*
X97259718Y-109991082D01*
X97480569Y-110061141D01*
X97671421Y-110081200D01*
X97784625Y-110081200D01*
X97956648Y-110064333D01*
X98178030Y-109997493D01*
X98382214Y-109888927D01*
X98561421Y-109742770D01*
X98708826Y-109564587D01*
X98818815Y-109361167D01*
X98887198Y-109140257D01*
X98911370Y-108910272D01*
X98892911Y-108707432D01*
X99310150Y-109124671D01*
X99320274Y-109145754D01*
X99374995Y-109189516D01*
X99391342Y-109205864D01*
X99410470Y-109217888D01*
X99464768Y-109261309D01*
X99488036Y-109266638D01*
X99508263Y-109279351D01*
X99577944Y-109287229D01*
X99600084Y-109292300D01*
X99622794Y-109292300D01*
X99692050Y-109300130D01*
X99714472Y-109292300D01*
X100379668Y-109292300D01*
X100342854Y-109302475D01*
X100177004Y-109425420D01*
X100066535Y-109599829D01*
X100026259Y-109802312D01*
X100061576Y-110005719D01*
X100167751Y-110182775D01*
X100330547Y-110309735D01*
X100528133Y-110369579D01*
X100734017Y-110354280D01*
X100920588Y-110265888D01*
X101062829Y-110116258D01*
X101141950Y-109924770D01*
X101143053Y-109834500D01*
X101262819Y-109834500D01*
X101262819Y-110470410D01*
X101285901Y-110586448D01*
X101320840Y-110638738D01*
X99813679Y-112145900D01*
X98674649Y-112145900D01*
X98708826Y-112104587D01*
X98818815Y-111901167D01*
X98887198Y-111680257D01*
X98911370Y-111450272D01*
X98890412Y-111219972D01*
X98825119Y-110998129D01*
X98717981Y-110793193D01*
X98573078Y-110612970D01*
X98395929Y-110464324D01*
X98193282Y-110352918D01*
X97972431Y-110282859D01*
X97781579Y-110262800D01*
X97668375Y-110262800D01*
X97496352Y-110279667D01*
X97274970Y-110346507D01*
X97070786Y-110455073D01*
X96891579Y-110601230D01*
X96744174Y-110779413D01*
X96634185Y-110982833D01*
X96565802Y-111203743D01*
X96541630Y-111433728D01*
X96562588Y-111664028D01*
X96627881Y-111885871D01*
X96735019Y-112090807D01*
X96779315Y-112145900D01*
X96134649Y-112145900D01*
X96168826Y-112104587D01*
X96278815Y-111901167D01*
X96347198Y-111680257D01*
X96371370Y-111450272D01*
X96350412Y-111219972D01*
X96285119Y-110998129D01*
X96177981Y-110793193D01*
X96033078Y-110612970D01*
X95855929Y-110464324D01*
X95653282Y-110352918D01*
X95432431Y-110282859D01*
X95241579Y-110262800D01*
X95128375Y-110262800D01*
X94956352Y-110279667D01*
X94734970Y-110346507D01*
X94530786Y-110455073D01*
X94351579Y-110601230D01*
X94204174Y-110779413D01*
X94094185Y-110982833D01*
X94025802Y-111203743D01*
X94001630Y-111433728D01*
X94022588Y-111664028D01*
X94087881Y-111885871D01*
X94195019Y-112090807D01*
X94239315Y-112145900D01*
X93594649Y-112145900D01*
X93628826Y-112104587D01*
X93738815Y-111901167D01*
X93807198Y-111680257D01*
X93831370Y-111450272D01*
X93810412Y-111219972D01*
X93745119Y-110998129D01*
X93637981Y-110793193D01*
X93493078Y-110612970D01*
X93315929Y-110464324D01*
X93113282Y-110352918D01*
X92892431Y-110282859D01*
X92701579Y-110262800D01*
X92588375Y-110262800D01*
X92416352Y-110279667D01*
X92194970Y-110346507D01*
X92148851Y-110371029D01*
X91903149Y-110125328D01*
X91893026Y-110104246D01*
X91838300Y-110060480D01*
X91821956Y-110044135D01*
X91802830Y-110032114D01*
X91748535Y-109988693D01*
X91725262Y-109983362D01*
X91705033Y-109970649D01*
X91635353Y-109962770D01*
X91613215Y-109957700D01*
X91590507Y-109957700D01*
X91521250Y-109949869D01*
X91498827Y-109957700D01*
X90632870Y-109957700D01*
X90762214Y-109888927D01*
X90941421Y-109742770D01*
X91088826Y-109564587D01*
X91198815Y-109361167D01*
X91267198Y-109140257D01*
X91291370Y-108910272D01*
X91270412Y-108679972D01*
X91205119Y-108458129D01*
X91097981Y-108253193D01*
X90953078Y-108072970D01*
X90775929Y-107924324D01*
X90573282Y-107812918D01*
X90352431Y-107742859D01*
X90161579Y-107722800D01*
X90048375Y-107722800D01*
X89876352Y-107739667D01*
X89654970Y-107806507D01*
X89450786Y-107915073D01*
X89271579Y-108061230D01*
X89124174Y-108239413D01*
X89014185Y-108442833D01*
X88945802Y-108663743D01*
X88921630Y-108893728D01*
X88942588Y-109124028D01*
X89007881Y-109345871D01*
X89115019Y-109550807D01*
X89259922Y-109731030D01*
X89437071Y-109879676D01*
X89578996Y-109957700D01*
X88092870Y-109957700D01*
X88222214Y-109888927D01*
X88401421Y-109742770D01*
X88548826Y-109564587D01*
X88658815Y-109361167D01*
X88727198Y-109140257D01*
X88751370Y-108910272D01*
X88730412Y-108679972D01*
X88665119Y-108458129D01*
X88637164Y-108404657D01*
X89512871Y-107528950D01*
X90274815Y-107528950D01*
X90296878Y-107536698D01*
X90366502Y-107528950D01*
X90389637Y-107528950D01*
X90411670Y-107523924D01*
X90480758Y-107516236D01*
X90500978Y-107503551D01*
X90524273Y-107498238D01*
X90579130Y-107454526D01*
X90598356Y-107442465D01*
X90614400Y-107426420D01*
X90668923Y-107382973D01*
X90679244Y-107361577D01*
X90890409Y-107150412D01*
X91140559Y-107150412D01*
X91175876Y-107353819D01*
X91282051Y-107530874D01*
X91298900Y-107544015D01*
X91298901Y-107890662D01*
X91291152Y-107912727D01*
X91298901Y-107982361D01*
X91298901Y-108005486D01*
X91303925Y-108027508D01*
X91311614Y-108096608D01*
X91324301Y-108116832D01*
X91329614Y-108140124D01*
X91373320Y-108194974D01*
X91385386Y-108214206D01*
X91401437Y-108230257D01*
X91444878Y-108284773D01*
X91466273Y-108295093D01*
X91575181Y-108404001D01*
X91554185Y-108442833D01*
X91485802Y-108663743D01*
X91461630Y-108893728D01*
X91482588Y-109124028D01*
X91547881Y-109345871D01*
X91655019Y-109550807D01*
X91799922Y-109731030D01*
X91977071Y-109879676D01*
X92179718Y-109991082D01*
X92400569Y-110061141D01*
X92591421Y-110081200D01*
X92704625Y-110081200D01*
X92876648Y-110064333D01*
X93098030Y-109997493D01*
X93302214Y-109888927D01*
X93481421Y-109742770D01*
X93628826Y-109564587D01*
X93738815Y-109361167D01*
X93807198Y-109140257D01*
X93831370Y-108910272D01*
X93829865Y-108893728D01*
X94001630Y-108893728D01*
X94022588Y-109124028D01*
X94087881Y-109345871D01*
X94195019Y-109550807D01*
X94339922Y-109731030D01*
X94517071Y-109879676D01*
X94719718Y-109991082D01*
X94940569Y-110061141D01*
X95131421Y-110081200D01*
X95244625Y-110081200D01*
X95416648Y-110064333D01*
X95638030Y-109997493D01*
X95842214Y-109888927D01*
X96021421Y-109742770D01*
X96168826Y-109564587D01*
X96278815Y-109361167D01*
X96347198Y-109140257D01*
X96371370Y-108910272D01*
X96350412Y-108679972D01*
X96285119Y-108458129D01*
X96177981Y-108253193D01*
X96033078Y-108072970D01*
X95855929Y-107924324D01*
X95653282Y-107812918D01*
X95432431Y-107742859D01*
X95241579Y-107722800D01*
X95128375Y-107722800D01*
X94956352Y-107739667D01*
X94734970Y-107806507D01*
X94530786Y-107915073D01*
X94351579Y-108061230D01*
X94204174Y-108239413D01*
X94094185Y-108442833D01*
X94025802Y-108663743D01*
X94001630Y-108893728D01*
X93829865Y-108893728D01*
X93810412Y-108679972D01*
X93745119Y-108458129D01*
X93637981Y-108253193D01*
X93493078Y-108072970D01*
X93315929Y-107924324D01*
X93113282Y-107812918D01*
X92892431Y-107742859D01*
X92701579Y-107722800D01*
X92588375Y-107722800D01*
X92416352Y-107739667D01*
X92194970Y-107806507D01*
X92148850Y-107831029D01*
X92109700Y-107791879D01*
X92109700Y-107535290D01*
X92177129Y-107464358D01*
X92256250Y-107272871D01*
X92258909Y-107055249D01*
X92184490Y-106861886D01*
X92045946Y-106708825D01*
X91861590Y-106615902D01*
X91656144Y-106595577D01*
X91457154Y-106650575D01*
X91291304Y-106773520D01*
X91180835Y-106947929D01*
X91140559Y-107150412D01*
X90890409Y-107150412D01*
X93804221Y-104236600D01*
X94592852Y-104236600D01*
G36*
X86432730Y-96878850D02*
G01*
X85690489Y-96878850D01*
X85668424Y-96871101D01*
X85598792Y-96878850D01*
X85575665Y-96878850D01*
X85553633Y-96883875D01*
X85484541Y-96891565D01*
X85464322Y-96904249D01*
X85441027Y-96909562D01*
X85386177Y-96953269D01*
X85366944Y-96965334D01*
X85350891Y-96981387D01*
X85296377Y-97024827D01*
X85286058Y-97046220D01*
X84430001Y-97902278D01*
X84393765Y-97882357D01*
X84170372Y-97811492D01*
X84112781Y-97805439D01*
X89349421Y-92568800D01*
X90742778Y-92568800D01*
X86432730Y-96878850D01*
X86432730Y-96878850D01*
G37*
X86432730Y-96878850D02*
X85690489Y-96878850D01*
X85668424Y-96871101D01*
X85598792Y-96878850D01*
X85575665Y-96878850D01*
X85553633Y-96883875D01*
X85484541Y-96891565D01*
X85464322Y-96904249D01*
X85441027Y-96909562D01*
X85386177Y-96953269D01*
X85366944Y-96965334D01*
X85350891Y-96981387D01*
X85296377Y-97024827D01*
X85286058Y-97046220D01*
X84430001Y-97902278D01*
X84393765Y-97882357D01*
X84170372Y-97811492D01*
X84112781Y-97805439D01*
X89349421Y-92568800D01*
X90742778Y-92568800D01*
X86432730Y-96878850D01*
G36*
X83587930Y-97183650D02*
G01*
X82845685Y-97183650D01*
X82823622Y-97175902D01*
X82753997Y-97183650D01*
X82730863Y-97183650D01*
X82708830Y-97188676D01*
X82639741Y-97196364D01*
X82619521Y-97209048D01*
X82596226Y-97214362D01*
X82541376Y-97258070D01*
X82522143Y-97270135D01*
X82506091Y-97286187D01*
X82451577Y-97329627D01*
X82441258Y-97351020D01*
X81890001Y-97902278D01*
X81853765Y-97882357D01*
X81630372Y-97811492D01*
X81552331Y-97803290D01*
X86464711Y-92890911D01*
X87200421Y-92890911D01*
X87222484Y-92898659D01*
X87292108Y-92890911D01*
X87315243Y-92890911D01*
X87337276Y-92885885D01*
X87406364Y-92878197D01*
X87426584Y-92865512D01*
X87449879Y-92860199D01*
X87504736Y-92816487D01*
X87523962Y-92804426D01*
X87540006Y-92788381D01*
X87594529Y-92744934D01*
X87604850Y-92723537D01*
X88124287Y-92204100D01*
X88567478Y-92204100D01*
X83587930Y-97183650D01*
X83587930Y-97183650D01*
G37*
X83587930Y-97183650D02*
X82845685Y-97183650D01*
X82823622Y-97175902D01*
X82753997Y-97183650D01*
X82730863Y-97183650D01*
X82708830Y-97188676D01*
X82639741Y-97196364D01*
X82619521Y-97209048D01*
X82596226Y-97214362D01*
X82541376Y-97258070D01*
X82522143Y-97270135D01*
X82506091Y-97286187D01*
X82451577Y-97329627D01*
X82441258Y-97351020D01*
X81890001Y-97902278D01*
X81853765Y-97882357D01*
X81630372Y-97811492D01*
X81552331Y-97803290D01*
X86464711Y-92890911D01*
X87200421Y-92890911D01*
X87222484Y-92898659D01*
X87292108Y-92890911D01*
X87315243Y-92890911D01*
X87337276Y-92885885D01*
X87406364Y-92878197D01*
X87426584Y-92865512D01*
X87449879Y-92860199D01*
X87504736Y-92816487D01*
X87523962Y-92804426D01*
X87540006Y-92788381D01*
X87594529Y-92744934D01*
X87604850Y-92723537D01*
X88124287Y-92204100D01*
X88567478Y-92204100D01*
X83587930Y-97183650D01*
M02*
