G04 #@! TF.GenerationSoftware,KiCad,Pcbnew,(5.1.0-1558-g0ba0c1724)*
G04 #@! TF.CreationDate,2019-09-15T11:25:37-07:00*
G04 #@! TF.ProjectId,IOBoard,494f426f-6172-4642-9e6b-696361645f70,rev?*
G04 #@! TF.SameCoordinates,Original*
G04 #@! TF.FileFunction,Legend,Top*
G04 #@! TF.FilePolarity,Positive*
%FSLAX46Y46*%
G04 Gerber Fmt 4.6, Leading zero omitted, Abs format (unit mm)*
G04 Created by KiCad (PCBNEW (5.1.0-1558-g0ba0c1724)) date 2019-09-15 11:25:37*
%MOMM*%
%LPD*%
G04 APERTURE LIST*
%ADD10C,0.150000*%
%ADD11C,0.120000*%
%ADD12O,1.802000X1.802000*%
%ADD13R,1.802000X1.802000*%
%ADD14O,1.829200X1.829200*%
%ADD15R,1.829200X1.829200*%
%ADD16R,0.902000X0.602000*%
%ADD17R,0.902000X0.502000*%
%ADD18R,0.602000X0.902000*%
%ADD19R,0.502000X0.902000*%
G04 APERTURE END LIST*
D10*
X106738485Y-94082114D02*
X106738485Y-94439257D01*
X105988485Y-94439257D01*
X106667057Y-93403542D02*
X106702771Y-93439257D01*
X106738485Y-93546400D01*
X106738485Y-93617828D01*
X106702771Y-93724971D01*
X106631342Y-93796400D01*
X106559914Y-93832114D01*
X106417057Y-93867828D01*
X106309914Y-93867828D01*
X106167057Y-93832114D01*
X106095628Y-93796400D01*
X106024200Y-93724971D01*
X105988485Y-93617828D01*
X105988485Y-93546400D01*
X106024200Y-93439257D01*
X106059914Y-93403542D01*
X106738485Y-93082114D02*
X105988485Y-93082114D01*
X105988485Y-92903542D01*
X106024200Y-92796400D01*
X106095628Y-92724971D01*
X106167057Y-92689257D01*
X106309914Y-92653542D01*
X106417057Y-92653542D01*
X106559914Y-92689257D01*
X106631342Y-92724971D01*
X106702771Y-92796400D01*
X106738485Y-92903542D01*
X106738485Y-93082114D01*
X106809914Y-92510685D02*
X106809914Y-91939257D01*
X106345628Y-91760685D02*
X106345628Y-91510685D01*
X106738485Y-91403542D02*
X106738485Y-91760685D01*
X105988485Y-91760685D01*
X105988485Y-91403542D01*
X106738485Y-91082114D02*
X105988485Y-91082114D01*
X106738485Y-90653542D01*
X105988485Y-90653542D01*
X106345628Y-102816942D02*
X106381342Y-102709800D01*
X106417057Y-102674085D01*
X106488485Y-102638371D01*
X106595628Y-102638371D01*
X106667057Y-102674085D01*
X106702771Y-102709800D01*
X106738485Y-102781228D01*
X106738485Y-103066942D01*
X105988485Y-103066942D01*
X105988485Y-102816942D01*
X106024200Y-102745514D01*
X106059914Y-102709800D01*
X106131342Y-102674085D01*
X106202771Y-102674085D01*
X106274200Y-102709800D01*
X106309914Y-102745514D01*
X106345628Y-102816942D01*
X106345628Y-103066942D01*
X105988485Y-102424085D02*
X105988485Y-101995514D01*
X106738485Y-102209800D02*
X105988485Y-102209800D01*
X106738485Y-101745514D02*
X105988485Y-101745514D01*
X106738485Y-101316942D01*
X105988485Y-101316942D01*
X106809914Y-101138371D02*
X106809914Y-100566942D01*
X106738485Y-100388371D02*
X105988485Y-100388371D01*
X106738485Y-100031228D02*
X105988485Y-100031228D01*
X106738485Y-99602657D01*
X105988485Y-99602657D01*
X106396428Y-107445285D02*
X106396428Y-107195285D01*
X106789285Y-107088142D02*
X106789285Y-107445285D01*
X106039285Y-107445285D01*
X106039285Y-107088142D01*
X106789285Y-106766714D02*
X106039285Y-106766714D01*
X106789285Y-106338142D01*
X106039285Y-106338142D01*
X106717857Y-105552428D02*
X106753571Y-105588142D01*
X106789285Y-105695285D01*
X106789285Y-105766714D01*
X106753571Y-105873857D01*
X106682142Y-105945285D01*
X106610714Y-105981000D01*
X106467857Y-106016714D01*
X106360714Y-106016714D01*
X106217857Y-105981000D01*
X106146428Y-105945285D01*
X106075000Y-105873857D01*
X106039285Y-105766714D01*
X106039285Y-105695285D01*
X106075000Y-105588142D01*
X106110714Y-105552428D01*
X106860714Y-105409571D02*
X106860714Y-104838142D01*
X106396428Y-104409571D02*
X106432142Y-104302428D01*
X106467857Y-104266714D01*
X106539285Y-104231000D01*
X106646428Y-104231000D01*
X106717857Y-104266714D01*
X106753571Y-104302428D01*
X106789285Y-104373857D01*
X106789285Y-104659571D01*
X106039285Y-104659571D01*
X106039285Y-104409571D01*
X106075000Y-104338142D01*
X106110714Y-104302428D01*
X106182142Y-104266714D01*
X106253571Y-104266714D01*
X106325000Y-104302428D01*
X106360714Y-104338142D01*
X106396428Y-104409571D01*
X106396428Y-104659571D01*
X106345628Y-98806514D02*
X106345628Y-98556514D01*
X106738485Y-98449371D02*
X106738485Y-98806514D01*
X105988485Y-98806514D01*
X105988485Y-98449371D01*
X106738485Y-98127942D02*
X105988485Y-98127942D01*
X106738485Y-97699371D01*
X105988485Y-97699371D01*
X106667057Y-96913657D02*
X106702771Y-96949371D01*
X106738485Y-97056514D01*
X106738485Y-97127942D01*
X106702771Y-97235085D01*
X106631342Y-97306514D01*
X106559914Y-97342228D01*
X106417057Y-97377942D01*
X106309914Y-97377942D01*
X106167057Y-97342228D01*
X106095628Y-97306514D01*
X106024200Y-97235085D01*
X105988485Y-97127942D01*
X105988485Y-97056514D01*
X106024200Y-96949371D01*
X106059914Y-96913657D01*
X106809914Y-96770800D02*
X106809914Y-96199371D01*
X106524200Y-96056514D02*
X106524200Y-95699371D01*
X106738485Y-96127942D02*
X105988485Y-95877942D01*
X106738485Y-95627942D01*
X103261904Y-86452380D02*
X103261904Y-85785714D01*
X103261904Y-85976190D02*
X103309523Y-85880952D01*
X103357142Y-85833333D01*
X103452380Y-85785714D01*
X103547619Y-85785714D01*
X104261904Y-86404761D02*
X104166666Y-86452380D01*
X103976190Y-86452380D01*
X103880952Y-86404761D01*
X103833333Y-86309523D01*
X103833333Y-85928571D01*
X103880952Y-85833333D01*
X103976190Y-85785714D01*
X104166666Y-85785714D01*
X104261904Y-85833333D01*
X104309523Y-85928571D01*
X104309523Y-86023809D01*
X103833333Y-86119047D01*
X104642857Y-85785714D02*
X104880952Y-86452380D01*
X105119047Y-85785714D01*
X106690476Y-85785714D02*
X106690476Y-86452380D01*
X106452380Y-85404761D02*
X106214285Y-86119047D01*
X106833333Y-86119047D01*
X97166666Y-86452380D02*
X96690476Y-86452380D01*
X96690476Y-85452380D01*
X98071428Y-86357142D02*
X98023809Y-86404761D01*
X97880952Y-86452380D01*
X97785714Y-86452380D01*
X97642857Y-86404761D01*
X97547619Y-86309523D01*
X97500000Y-86214285D01*
X97452380Y-86023809D01*
X97452380Y-85880952D01*
X97500000Y-85690476D01*
X97547619Y-85595238D01*
X97642857Y-85500000D01*
X97785714Y-85452380D01*
X97880952Y-85452380D01*
X98023809Y-85500000D01*
X98071428Y-85547619D01*
X98500000Y-86452380D02*
X98500000Y-85452380D01*
X98738095Y-85452380D01*
X98880952Y-85500000D01*
X98976190Y-85595238D01*
X99023809Y-85690476D01*
X99071428Y-85880952D01*
X99071428Y-86023809D01*
X99023809Y-86214285D01*
X98976190Y-86309523D01*
X98880952Y-86404761D01*
X98738095Y-86452380D01*
X98500000Y-86452380D01*
X99261904Y-86547619D02*
X100023809Y-86547619D01*
X100261904Y-86452380D02*
X100261904Y-85452380D01*
X100928571Y-85452380D02*
X101119047Y-85452380D01*
X101214285Y-85500000D01*
X101309523Y-85595238D01*
X101357142Y-85785714D01*
X101357142Y-86119047D01*
X101309523Y-86309523D01*
X101214285Y-86404761D01*
X101119047Y-86452380D01*
X100928571Y-86452380D01*
X100833333Y-86404761D01*
X100738095Y-86309523D01*
X100690476Y-86119047D01*
X100690476Y-85785714D01*
X100738095Y-85595238D01*
X100833333Y-85500000D01*
X100928571Y-85452380D01*
X97935066Y-91271580D02*
X97601733Y-90795390D01*
X97363638Y-91271580D02*
X97363638Y-90271580D01*
X97744590Y-90271580D01*
X97839828Y-90319200D01*
X97887447Y-90366819D01*
X97935066Y-90462057D01*
X97935066Y-90604914D01*
X97887447Y-90700152D01*
X97839828Y-90747771D01*
X97744590Y-90795390D01*
X97363638Y-90795390D01*
X98887447Y-91271580D02*
X98316019Y-91271580D01*
X98601733Y-91271580D02*
X98601733Y-90271580D01*
X98506495Y-90414438D01*
X98411257Y-90509676D01*
X98316019Y-90557295D01*
X99316019Y-90890628D02*
X100077923Y-90890628D01*
X100506495Y-90366819D02*
X100554114Y-90319200D01*
X100649352Y-90271580D01*
X100887447Y-90271580D01*
X100982685Y-90319200D01*
X101030304Y-90366819D01*
X101077923Y-90462057D01*
X101077923Y-90557295D01*
X101030304Y-90700152D01*
X100458876Y-91271580D01*
X101077923Y-91271580D01*
X101744590Y-91604914D02*
X101744590Y-90176342D01*
X103030304Y-91271580D02*
X102696971Y-90795390D01*
X102458876Y-91271580D02*
X102458876Y-90271580D01*
X102839828Y-90271580D01*
X102935066Y-90319200D01*
X102982685Y-90366819D01*
X103030304Y-90462057D01*
X103030304Y-90604914D01*
X102982685Y-90700152D01*
X102935066Y-90747771D01*
X102839828Y-90795390D01*
X102458876Y-90795390D01*
X103363638Y-90271580D02*
X103982685Y-90271580D01*
X103649352Y-90652533D01*
X103792209Y-90652533D01*
X103887447Y-90700152D01*
X103935066Y-90747771D01*
X103982685Y-90843009D01*
X103982685Y-91081104D01*
X103935066Y-91176342D01*
X103887447Y-91223961D01*
X103792209Y-91271580D01*
X103506495Y-91271580D01*
X103411257Y-91223961D01*
X103363638Y-91176342D01*
X104411257Y-90890628D02*
X105173161Y-90890628D01*
X104792209Y-91271580D02*
X104792209Y-90509676D01*
X71928571Y-102666666D02*
X71928571Y-102333333D01*
X72452380Y-102190476D02*
X72452380Y-102666666D01*
X71452380Y-102666666D01*
X71452380Y-102190476D01*
X71452380Y-101857142D02*
X72452380Y-101190476D01*
X71452380Y-101190476D02*
X72452380Y-101857142D01*
X72452380Y-100809523D02*
X71452380Y-100809523D01*
X71452380Y-100428571D01*
X71500000Y-100333333D01*
X71547619Y-100285714D01*
X71642857Y-100238095D01*
X71785714Y-100238095D01*
X71880952Y-100285714D01*
X71928571Y-100333333D01*
X71976190Y-100428571D01*
X71976190Y-100809523D01*
X72452380Y-99285714D02*
X72452380Y-99857142D01*
X72452380Y-99571428D02*
X71452380Y-99571428D01*
X71595238Y-99666666D01*
X71690476Y-99761904D01*
X71738095Y-99857142D01*
X71928571Y-91666666D02*
X71928571Y-91333333D01*
X72452380Y-91190476D02*
X72452380Y-91666666D01*
X71452380Y-91666666D01*
X71452380Y-91190476D01*
X71452380Y-90857142D02*
X72452380Y-90190476D01*
X71452380Y-90190476D02*
X72452380Y-90857142D01*
X72452380Y-89809523D02*
X71452380Y-89809523D01*
X71452380Y-89428571D01*
X71500000Y-89333333D01*
X71547619Y-89285714D01*
X71642857Y-89238095D01*
X71785714Y-89238095D01*
X71880952Y-89285714D01*
X71928571Y-89333333D01*
X71976190Y-89428571D01*
X71976190Y-89809523D01*
X71547619Y-88857142D02*
X71500000Y-88809523D01*
X71452380Y-88714285D01*
X71452380Y-88476190D01*
X71500000Y-88380952D01*
X71547619Y-88333333D01*
X71642857Y-88285714D01*
X71738095Y-88285714D01*
X71880952Y-88333333D01*
X72452380Y-88904761D01*
X72452380Y-88285714D01*
D11*
X105189200Y-92232400D02*
X105189200Y-93562400D01*
X103859200Y-92232400D02*
X105189200Y-92232400D01*
X102589200Y-92232400D02*
X102589200Y-94892400D01*
X102589200Y-94892400D02*
X97449200Y-94892400D01*
X102589200Y-92232400D02*
X97449200Y-92232400D01*
X97449200Y-92232400D02*
X97449200Y-94892400D01*
X73165400Y-94053600D02*
X73165400Y-91513600D01*
X73165400Y-94053600D02*
X75705400Y-94053600D01*
X73415400Y-93803600D02*
X73415400Y-84453600D01*
X94275400Y-93803600D02*
X73415400Y-93803600D01*
X94275400Y-84453600D02*
X94275400Y-93803600D01*
X73415400Y-84453600D02*
X94275400Y-84453600D01*
X73241600Y-105179000D02*
X73241600Y-102639000D01*
X73241600Y-105179000D02*
X75781600Y-105179000D01*
X73491600Y-104929000D02*
X73491600Y-95579000D01*
X94351600Y-104929000D02*
X73491600Y-104929000D01*
X94351600Y-95579000D02*
X94351600Y-104929000D01*
X73491600Y-95579000D02*
X94351600Y-95579000D01*
X110446000Y-92916000D02*
X109446000Y-92916000D01*
X110446000Y-96276000D02*
X109446000Y-96276000D01*
X104726000Y-109658000D02*
X104726000Y-108658000D01*
X101366000Y-109658000D02*
X101366000Y-108658000D01*
X105191000Y-95901200D02*
X105191000Y-97231200D01*
X103861000Y-95901200D02*
X105191000Y-95901200D01*
X102591000Y-95901200D02*
X102591000Y-98561200D01*
X102591000Y-98561200D02*
X97451000Y-98561200D01*
X102591000Y-95901200D02*
X97451000Y-95901200D01*
X97451000Y-95901200D02*
X97451000Y-98561200D01*
X105191000Y-103267000D02*
X105191000Y-104597000D01*
X103861000Y-103267000D02*
X105191000Y-103267000D01*
X102591000Y-103267000D02*
X102591000Y-105927000D01*
X102591000Y-105927000D02*
X97451000Y-105927000D01*
X102591000Y-103267000D02*
X97451000Y-103267000D01*
X97451000Y-103267000D02*
X97451000Y-105927000D01*
X105191000Y-99584000D02*
X105191000Y-100914000D01*
X103861000Y-99584000D02*
X105191000Y-99584000D01*
X102591000Y-99584000D02*
X102591000Y-102244000D01*
X102591000Y-102244000D02*
X97451000Y-102244000D01*
X102591000Y-99584000D02*
X97451000Y-99584000D01*
X97451000Y-99584000D02*
X97451000Y-102244000D01*
%LPC*%
D12*
X98779200Y-93562400D03*
X101319200Y-93562400D03*
D13*
X103859200Y-93562400D03*
D14*
X88925400Y-87858600D03*
X88925400Y-90398600D03*
X86385400Y-87858600D03*
X86385400Y-90398600D03*
X83845400Y-87858600D03*
X83845400Y-90398600D03*
X81305400Y-87858600D03*
X81305400Y-90398600D03*
X78765400Y-87858600D03*
D15*
X78765400Y-90398600D03*
D14*
X89001600Y-98984000D03*
X89001600Y-101524000D03*
X86461600Y-98984000D03*
X86461600Y-101524000D03*
X83921600Y-98984000D03*
X83921600Y-101524000D03*
X81381600Y-98984000D03*
X81381600Y-101524000D03*
X78841600Y-98984000D03*
D15*
X78841600Y-101524000D03*
D16*
X110846000Y-95796000D03*
D17*
X110846000Y-94996000D03*
D16*
X110846000Y-93396000D03*
D17*
X110846000Y-94196000D03*
D16*
X109046000Y-95796000D03*
D17*
X109046000Y-94196000D03*
X109046000Y-94996000D03*
D16*
X109046000Y-93396000D03*
D18*
X101846000Y-110058000D03*
D19*
X102646000Y-110058000D03*
D18*
X104246000Y-110058000D03*
D19*
X103446000Y-110058000D03*
D18*
X101846000Y-108258000D03*
D19*
X103446000Y-108258000D03*
X102646000Y-108258000D03*
D18*
X104246000Y-108258000D03*
D12*
X98781000Y-97231200D03*
X101321000Y-97231200D03*
D13*
X103861000Y-97231200D03*
D12*
X98781000Y-104597000D03*
X101321000Y-104597000D03*
D13*
X103861000Y-104597000D03*
D12*
X98781000Y-100914000D03*
X101321000Y-100914000D03*
D13*
X103861000Y-100914000D03*
D12*
X67056000Y-99314000D03*
X64516000Y-99314000D03*
X67056000Y-96774000D03*
X64516000Y-96774000D03*
X67056000Y-94234000D03*
X64516000Y-94234000D03*
X67056000Y-91694000D03*
X64516000Y-91694000D03*
X67056000Y-89154000D03*
D13*
X64516000Y-89154000D03*
D12*
X76517500Y-108902000D03*
X76517500Y-111442000D03*
X73977500Y-108902000D03*
X73977500Y-111442000D03*
X71437500Y-108902000D03*
X71437500Y-111442000D03*
X68897500Y-108902000D03*
X68897500Y-111442000D03*
X66357500Y-108902000D03*
D13*
X66357500Y-111442000D03*
D12*
X111696000Y-109410500D03*
X109156000Y-109410500D03*
X111696000Y-106870500D03*
X109156000Y-106870500D03*
X111696000Y-104330500D03*
X109156000Y-104330500D03*
X111696000Y-101790500D03*
X109156000Y-101790500D03*
X111696000Y-99250500D03*
D13*
X109156000Y-99250500D03*
D12*
X97726500Y-108902000D03*
X97726500Y-111442000D03*
X95186500Y-108902000D03*
X95186500Y-111442000D03*
X92646500Y-108902000D03*
X92646500Y-111442000D03*
X90106500Y-108902000D03*
X90106500Y-111442000D03*
X87566500Y-108902000D03*
D13*
X87566500Y-111442000D03*
M02*
