M48
; DRILL file {KiCad (5.1.0-1558-g0ba0c1724)} date Sun 15 Sep 2019 11:25:39 AM PDT
; FORMAT={-:-/ absolute / metric / decimal}
; #@! TF.CreationDate,2019-09-15T11:25:39-07:00
; #@! TF.GenerationSoftware,Kicad,Pcbnew,(5.1.0-1558-g0ba0c1724)
; #@! TF.FileFunction,Plated,1,2,PTH
FMAT,2
METRIC
T1C0.200
T2C1.000
T3C1.016
%
G90
G05
T1
X64.286Y-105.754
X70.026Y-102.249
X70.484Y-85.688
X70.534Y-104.637
X77.596Y-103.062
X78.408Y-106.059
X78.866Y-96.001
X80.694Y-94.934
X81.609Y-107.329
X82.015Y-112.765
X82.371Y-94.02
X83.285Y-96.712
X83.996Y-106.974
X85.876Y-94.274
X86.13Y-96.458
X87.4Y-92.92
X87.4Y-106.313
X87.739Y-97.065
X88.772Y-93.867
X89.889Y-103.214
X89.94Y-105.45
X90.194Y-94.782
X91.261Y-89.702
X91.704Y-107.157
X91.769Y-96.915
X91.769Y-100.674
X92.734Y-87.974
X92.886Y-102.808
X93.293Y-98.541
X94.715Y-96.966
X94.941Y-104.669
X95.02Y-93.512
X96.045Y-104.285
X98.932Y-90.87
X99.287Y-110.53
X99.846Y-106.618
X100.59Y-109.809
X100.811Y-102.757
X101.781Y-107.121
X107.263Y-102.96
X107.415Y-105.5
X107.466Y-90.006
X111.033Y-96.596
T2
X98.781Y-104.597
X101.321Y-104.597
X103.861Y-104.597
X87.566Y-108.902
X87.566Y-111.442
X90.106Y-108.902
X90.106Y-111.442
X92.646Y-108.902
X92.646Y-111.442
X95.186Y-108.902
X95.186Y-111.442
X97.727Y-108.902
X97.727Y-111.442
X109.156Y-99.251
X109.156Y-101.79
X109.156Y-104.331
X109.156Y-106.87
X109.156Y-109.41
X111.696Y-99.251
X111.696Y-101.79
X111.696Y-104.331
X111.696Y-106.87
X111.696Y-109.41
X66.358Y-108.902
X66.358Y-111.442
X68.897Y-108.902
X68.897Y-111.442
X71.438Y-108.902
X71.438Y-111.442
X73.977Y-108.902
X73.977Y-111.442
X76.517Y-108.902
X76.517Y-111.442
X98.781Y-97.231
X101.321Y-97.231
X103.861Y-97.231
X98.781Y-100.914
X101.321Y-100.914
X103.861Y-100.914
X64.516Y-89.154
X64.516Y-91.694
X64.516Y-94.234
X64.516Y-96.774
X64.516Y-99.314
X67.056Y-89.154
X67.056Y-91.694
X67.056Y-94.234
X67.056Y-96.774
X67.056Y-99.314
X98.779Y-93.562
X101.319Y-93.562
X103.859Y-93.562
T3
X78.765Y-87.859
X78.765Y-90.399
X81.305Y-87.859
X81.305Y-90.399
X83.845Y-87.859
X83.845Y-90.399
X86.385Y-87.859
X86.385Y-90.399
X88.925Y-87.859
X88.925Y-90.399
X78.842Y-98.984
X78.842Y-101.524
X81.382Y-98.984
X81.382Y-101.524
X83.922Y-98.984
X83.922Y-101.524
X86.462Y-98.984
X86.462Y-101.524
X89.002Y-98.984
X89.002Y-101.524
T0
M30
