G04 #@! TF.GenerationSoftware,KiCad,Pcbnew,6.0.0-rc1-unknown-0bceb69~66~ubuntu18.10.1*
G04 #@! TF.CreationDate,2018-12-04T21:08:12-08:00
G04 #@! TF.ProjectId,Nucleo-64-407,4e75636c-656f-42d3-9634-2d3430372e6b,rev?*
G04 #@! TF.SameCoordinates,PX328b740PY6ea0500*
G04 #@! TF.FileFunction,Soldermask,Bot*
G04 #@! TF.FilePolarity,Negative*
%FSLAX46Y46*%
G04 Gerber Fmt 4.6, Leading zero omitted, Abs format (unit mm)*
G04 Created by KiCad (PCBNEW 6.0.0-rc1-unknown-0bceb69~66~ubuntu18.10.1) date Tue 04 Dec 2018 09:08:12 PM PST*
%MOMM*%
%LPD*%
G04 APERTURE LIST*
%ADD10C,0.100000*%
G04 APERTURE END LIST*
D10*
G36*
X3128642Y3836758D02*
G01*
X3276602Y3775470D01*
X3409758Y3686498D01*
X3522998Y3573258D01*
X3611970Y3440102D01*
X3673258Y3292142D01*
X3704500Y3135075D01*
X3704500Y2974925D01*
X3673258Y2817858D01*
X3611970Y2669898D01*
X3522998Y2536742D01*
X3409758Y2423502D01*
X3276602Y2334530D01*
X3128642Y2273242D01*
X2971575Y2242000D01*
X2811425Y2242000D01*
X2654358Y2273242D01*
X2506398Y2334530D01*
X2373242Y2423502D01*
X2260002Y2536742D01*
X2171030Y2669898D01*
X2109742Y2817858D01*
X2078500Y2974925D01*
X2078500Y3135075D01*
X2109742Y3292142D01*
X2171030Y3440102D01*
X2260002Y3573258D01*
X2373242Y3686498D01*
X2506398Y3775470D01*
X2654358Y3836758D01*
X2811425Y3868000D01*
X2971575Y3868000D01*
X3128642Y3836758D01*
X3128642Y3836758D01*
G37*
G36*
X64088642Y3836758D02*
G01*
X64236602Y3775470D01*
X64369758Y3686498D01*
X64482998Y3573258D01*
X64571970Y3440102D01*
X64633258Y3292142D01*
X64664500Y3135075D01*
X64664500Y2974925D01*
X64633258Y2817858D01*
X64571970Y2669898D01*
X64482998Y2536742D01*
X64369758Y2423502D01*
X64236602Y2334530D01*
X64088642Y2273242D01*
X63931575Y2242000D01*
X63771425Y2242000D01*
X63614358Y2273242D01*
X63466398Y2334530D01*
X63333242Y2423502D01*
X63220002Y2536742D01*
X63131030Y2669898D01*
X63069742Y2817858D01*
X63038500Y2974925D01*
X63038500Y3135075D01*
X63069742Y3292142D01*
X63131030Y3440102D01*
X63220002Y3573258D01*
X63333242Y3686498D01*
X63466398Y3775470D01*
X63614358Y3836758D01*
X63771425Y3868000D01*
X63931575Y3868000D01*
X64088642Y3836758D01*
X64088642Y3836758D01*
G37*
G36*
X66628642Y3836758D02*
G01*
X66776602Y3775470D01*
X66909758Y3686498D01*
X67022998Y3573258D01*
X67111970Y3440102D01*
X67173258Y3292142D01*
X67204500Y3135075D01*
X67204500Y2974925D01*
X67173258Y2817858D01*
X67111970Y2669898D01*
X67022998Y2536742D01*
X66909758Y2423502D01*
X66776602Y2334530D01*
X66628642Y2273242D01*
X66471575Y2242000D01*
X66311425Y2242000D01*
X66154358Y2273242D01*
X66006398Y2334530D01*
X65873242Y2423502D01*
X65760002Y2536742D01*
X65671030Y2669898D01*
X65609742Y2817858D01*
X65578500Y2974925D01*
X65578500Y3135075D01*
X65609742Y3292142D01*
X65671030Y3440102D01*
X65760002Y3573258D01*
X65873242Y3686498D01*
X66006398Y3775470D01*
X66154358Y3836758D01*
X66311425Y3868000D01*
X66471575Y3868000D01*
X66628642Y3836758D01*
X66628642Y3836758D01*
G37*
G36*
X5668642Y3836758D02*
G01*
X5816602Y3775470D01*
X5949758Y3686498D01*
X6062998Y3573258D01*
X6151970Y3440102D01*
X6213258Y3292142D01*
X6244500Y3135075D01*
X6244500Y2974925D01*
X6213258Y2817858D01*
X6151970Y2669898D01*
X6062998Y2536742D01*
X5949758Y2423502D01*
X5816602Y2334530D01*
X5668642Y2273242D01*
X5511575Y2242000D01*
X5351425Y2242000D01*
X5194358Y2273242D01*
X5046398Y2334530D01*
X4913242Y2423502D01*
X4800002Y2536742D01*
X4711030Y2669898D01*
X4649742Y2817858D01*
X4618500Y2974925D01*
X4618500Y3135075D01*
X4649742Y3292142D01*
X4711030Y3440102D01*
X4800002Y3573258D01*
X4913242Y3686498D01*
X5046398Y3775470D01*
X5194358Y3836758D01*
X5351425Y3868000D01*
X5511575Y3868000D01*
X5668642Y3836758D01*
X5668642Y3836758D01*
G37*
G36*
X37285794Y5459367D02*
G01*
X37458194Y5407069D01*
X37458196Y5407068D01*
X37617083Y5322141D01*
X37756349Y5207849D01*
X37870641Y5068583D01*
X37955568Y4909696D01*
X37955569Y4909694D01*
X38007867Y4737294D01*
X38025525Y4558000D01*
X38007867Y4378706D01*
X37955569Y4206306D01*
X37955568Y4206304D01*
X37870641Y4047417D01*
X37756349Y3908151D01*
X37617083Y3793859D01*
X37458196Y3708932D01*
X37458194Y3708931D01*
X37285794Y3656633D01*
X37151431Y3643400D01*
X37061569Y3643400D01*
X36927206Y3656633D01*
X36754806Y3708931D01*
X36754804Y3708932D01*
X36595917Y3793859D01*
X36456651Y3908151D01*
X36342359Y4047417D01*
X36257432Y4206304D01*
X36257431Y4206306D01*
X36205133Y4378706D01*
X36187475Y4558000D01*
X36205133Y4737294D01*
X36257431Y4909694D01*
X36257432Y4909696D01*
X36342359Y5068583D01*
X36456651Y5207849D01*
X36595917Y5322141D01*
X36754804Y5407068D01*
X36754806Y5407069D01*
X36927206Y5459367D01*
X37061569Y5472600D01*
X37151431Y5472600D01*
X37285794Y5459367D01*
X37285794Y5459367D01*
G37*
G36*
X39825794Y5459367D02*
G01*
X39998194Y5407069D01*
X39998196Y5407068D01*
X40157083Y5322141D01*
X40296349Y5207849D01*
X40410641Y5068583D01*
X40495568Y4909696D01*
X40495569Y4909694D01*
X40547867Y4737294D01*
X40565525Y4558000D01*
X40547867Y4378706D01*
X40495569Y4206306D01*
X40495568Y4206304D01*
X40410641Y4047417D01*
X40296349Y3908151D01*
X40157083Y3793859D01*
X39998196Y3708932D01*
X39998194Y3708931D01*
X39825794Y3656633D01*
X39691431Y3643400D01*
X39601569Y3643400D01*
X39467206Y3656633D01*
X39294806Y3708931D01*
X39294804Y3708932D01*
X39135917Y3793859D01*
X38996651Y3908151D01*
X38882359Y4047417D01*
X38797432Y4206304D01*
X38797431Y4206306D01*
X38745133Y4378706D01*
X38727475Y4558000D01*
X38745133Y4737294D01*
X38797431Y4909694D01*
X38797432Y4909696D01*
X38882359Y5068583D01*
X38996651Y5207849D01*
X39135917Y5322141D01*
X39294804Y5407068D01*
X39294806Y5407069D01*
X39467206Y5459367D01*
X39601569Y5472600D01*
X39691431Y5472600D01*
X39825794Y5459367D01*
X39825794Y5459367D01*
G37*
G36*
X42365794Y5459367D02*
G01*
X42538194Y5407069D01*
X42538196Y5407068D01*
X42697083Y5322141D01*
X42836349Y5207849D01*
X42950641Y5068583D01*
X43035568Y4909696D01*
X43035569Y4909694D01*
X43087867Y4737294D01*
X43105525Y4558000D01*
X43087867Y4378706D01*
X43035569Y4206306D01*
X43035568Y4206304D01*
X42950641Y4047417D01*
X42836349Y3908151D01*
X42697083Y3793859D01*
X42538196Y3708932D01*
X42538194Y3708931D01*
X42365794Y3656633D01*
X42231431Y3643400D01*
X42141569Y3643400D01*
X42007206Y3656633D01*
X41834806Y3708931D01*
X41834804Y3708932D01*
X41675917Y3793859D01*
X41536651Y3908151D01*
X41422359Y4047417D01*
X41337432Y4206304D01*
X41337431Y4206306D01*
X41285133Y4378706D01*
X41267475Y4558000D01*
X41285133Y4737294D01*
X41337431Y4909694D01*
X41337432Y4909696D01*
X41422359Y5068583D01*
X41536651Y5207849D01*
X41675917Y5322141D01*
X41834804Y5407068D01*
X41834806Y5407069D01*
X42007206Y5459367D01*
X42141569Y5472600D01*
X42231431Y5472600D01*
X42365794Y5459367D01*
X42365794Y5459367D01*
G37*
G36*
X44905794Y5459367D02*
G01*
X45078194Y5407069D01*
X45078196Y5407068D01*
X45237083Y5322141D01*
X45376349Y5207849D01*
X45490641Y5068583D01*
X45575568Y4909696D01*
X45575569Y4909694D01*
X45627867Y4737294D01*
X45645525Y4558000D01*
X45627867Y4378706D01*
X45575569Y4206306D01*
X45575568Y4206304D01*
X45490641Y4047417D01*
X45376349Y3908151D01*
X45237083Y3793859D01*
X45078196Y3708932D01*
X45078194Y3708931D01*
X44905794Y3656633D01*
X44771431Y3643400D01*
X44681569Y3643400D01*
X44547206Y3656633D01*
X44374806Y3708931D01*
X44374804Y3708932D01*
X44215917Y3793859D01*
X44076651Y3908151D01*
X43962359Y4047417D01*
X43877432Y4206304D01*
X43877431Y4206306D01*
X43825133Y4378706D01*
X43807475Y4558000D01*
X43825133Y4737294D01*
X43877431Y4909694D01*
X43877432Y4909696D01*
X43962359Y5068583D01*
X44076651Y5207849D01*
X44215917Y5322141D01*
X44374804Y5407068D01*
X44374806Y5407069D01*
X44547206Y5459367D01*
X44681569Y5472600D01*
X44771431Y5472600D01*
X44905794Y5459367D01*
X44905794Y5459367D01*
G37*
G36*
X14272100Y3643400D02*
G01*
X12442900Y3643400D01*
X12442900Y5472600D01*
X14272100Y5472600D01*
X14272100Y3643400D01*
X14272100Y3643400D01*
G37*
G36*
X16076794Y5459367D02*
G01*
X16249194Y5407069D01*
X16249196Y5407068D01*
X16408083Y5322141D01*
X16547349Y5207849D01*
X16661641Y5068583D01*
X16746568Y4909696D01*
X16746569Y4909694D01*
X16798867Y4737294D01*
X16816525Y4558000D01*
X16798867Y4378706D01*
X16746569Y4206306D01*
X16746568Y4206304D01*
X16661641Y4047417D01*
X16547349Y3908151D01*
X16408083Y3793859D01*
X16249196Y3708932D01*
X16249194Y3708931D01*
X16076794Y3656633D01*
X15942431Y3643400D01*
X15852569Y3643400D01*
X15718206Y3656633D01*
X15545806Y3708931D01*
X15545804Y3708932D01*
X15386917Y3793859D01*
X15247651Y3908151D01*
X15133359Y4047417D01*
X15048432Y4206304D01*
X15048431Y4206306D01*
X14996133Y4378706D01*
X14978475Y4558000D01*
X14996133Y4737294D01*
X15048431Y4909694D01*
X15048432Y4909696D01*
X15133359Y5068583D01*
X15247651Y5207849D01*
X15386917Y5322141D01*
X15545804Y5407068D01*
X15545806Y5407069D01*
X15718206Y5459367D01*
X15852569Y5472600D01*
X15942431Y5472600D01*
X16076794Y5459367D01*
X16076794Y5459367D01*
G37*
G36*
X18616794Y5459367D02*
G01*
X18789194Y5407069D01*
X18789196Y5407068D01*
X18948083Y5322141D01*
X19087349Y5207849D01*
X19201641Y5068583D01*
X19286568Y4909696D01*
X19286569Y4909694D01*
X19338867Y4737294D01*
X19356525Y4558000D01*
X19338867Y4378706D01*
X19286569Y4206306D01*
X19286568Y4206304D01*
X19201641Y4047417D01*
X19087349Y3908151D01*
X18948083Y3793859D01*
X18789196Y3708932D01*
X18789194Y3708931D01*
X18616794Y3656633D01*
X18482431Y3643400D01*
X18392569Y3643400D01*
X18258206Y3656633D01*
X18085806Y3708931D01*
X18085804Y3708932D01*
X17926917Y3793859D01*
X17787651Y3908151D01*
X17673359Y4047417D01*
X17588432Y4206304D01*
X17588431Y4206306D01*
X17536133Y4378706D01*
X17518475Y4558000D01*
X17536133Y4737294D01*
X17588431Y4909694D01*
X17588432Y4909696D01*
X17673359Y5068583D01*
X17787651Y5207849D01*
X17926917Y5322141D01*
X18085804Y5407068D01*
X18085806Y5407069D01*
X18258206Y5459367D01*
X18392569Y5472600D01*
X18482431Y5472600D01*
X18616794Y5459367D01*
X18616794Y5459367D01*
G37*
G36*
X21156794Y5459367D02*
G01*
X21329194Y5407069D01*
X21329196Y5407068D01*
X21488083Y5322141D01*
X21627349Y5207849D01*
X21741641Y5068583D01*
X21826568Y4909696D01*
X21826569Y4909694D01*
X21878867Y4737294D01*
X21896525Y4558000D01*
X21878867Y4378706D01*
X21826569Y4206306D01*
X21826568Y4206304D01*
X21741641Y4047417D01*
X21627349Y3908151D01*
X21488083Y3793859D01*
X21329196Y3708932D01*
X21329194Y3708931D01*
X21156794Y3656633D01*
X21022431Y3643400D01*
X20932569Y3643400D01*
X20798206Y3656633D01*
X20625806Y3708931D01*
X20625804Y3708932D01*
X20466917Y3793859D01*
X20327651Y3908151D01*
X20213359Y4047417D01*
X20128432Y4206304D01*
X20128431Y4206306D01*
X20076133Y4378706D01*
X20058475Y4558000D01*
X20076133Y4737294D01*
X20128431Y4909694D01*
X20128432Y4909696D01*
X20213359Y5068583D01*
X20327651Y5207849D01*
X20466917Y5322141D01*
X20625804Y5407068D01*
X20625806Y5407069D01*
X20798206Y5459367D01*
X20932569Y5472600D01*
X21022431Y5472600D01*
X21156794Y5459367D01*
X21156794Y5459367D01*
G37*
G36*
X23696794Y5459367D02*
G01*
X23869194Y5407069D01*
X23869196Y5407068D01*
X24028083Y5322141D01*
X24167349Y5207849D01*
X24281641Y5068583D01*
X24366568Y4909696D01*
X24366569Y4909694D01*
X24418867Y4737294D01*
X24436525Y4558000D01*
X24418867Y4378706D01*
X24366569Y4206306D01*
X24366568Y4206304D01*
X24281641Y4047417D01*
X24167349Y3908151D01*
X24028083Y3793859D01*
X23869196Y3708932D01*
X23869194Y3708931D01*
X23696794Y3656633D01*
X23562431Y3643400D01*
X23472569Y3643400D01*
X23338206Y3656633D01*
X23165806Y3708931D01*
X23165804Y3708932D01*
X23006917Y3793859D01*
X22867651Y3908151D01*
X22753359Y4047417D01*
X22668432Y4206304D01*
X22668431Y4206306D01*
X22616133Y4378706D01*
X22598475Y4558000D01*
X22616133Y4737294D01*
X22668431Y4909694D01*
X22668432Y4909696D01*
X22753359Y5068583D01*
X22867651Y5207849D01*
X23006917Y5322141D01*
X23165804Y5407068D01*
X23165806Y5407069D01*
X23338206Y5459367D01*
X23472569Y5472600D01*
X23562431Y5472600D01*
X23696794Y5459367D01*
X23696794Y5459367D01*
G37*
G36*
X35481100Y3643400D02*
G01*
X33651900Y3643400D01*
X33651900Y5472600D01*
X35481100Y5472600D01*
X35481100Y3643400D01*
X35481100Y3643400D01*
G37*
G36*
X64088642Y6376758D02*
G01*
X64236602Y6315470D01*
X64303630Y6270683D01*
X64352838Y6237804D01*
X64369758Y6226498D01*
X64482998Y6113258D01*
X64571970Y5980102D01*
X64633258Y5832142D01*
X64664500Y5675075D01*
X64664500Y5514925D01*
X64633258Y5357858D01*
X64571970Y5209898D01*
X64482998Y5076742D01*
X64369758Y4963502D01*
X64236602Y4874530D01*
X64088642Y4813242D01*
X63931575Y4782000D01*
X63771425Y4782000D01*
X63614358Y4813242D01*
X63466398Y4874530D01*
X63333242Y4963502D01*
X63220002Y5076742D01*
X63131030Y5209898D01*
X63069742Y5357858D01*
X63038500Y5514925D01*
X63038500Y5675075D01*
X63069742Y5832142D01*
X63131030Y5980102D01*
X63220002Y6113258D01*
X63333242Y6226498D01*
X63350163Y6237804D01*
X63399370Y6270683D01*
X63466398Y6315470D01*
X63614358Y6376758D01*
X63771425Y6408000D01*
X63931575Y6408000D01*
X64088642Y6376758D01*
X64088642Y6376758D01*
G37*
G36*
X3128642Y6376758D02*
G01*
X3276602Y6315470D01*
X3343630Y6270683D01*
X3392838Y6237804D01*
X3409758Y6226498D01*
X3522998Y6113258D01*
X3611970Y5980102D01*
X3673258Y5832142D01*
X3704500Y5675075D01*
X3704500Y5514925D01*
X3673258Y5357858D01*
X3611970Y5209898D01*
X3522998Y5076742D01*
X3409758Y4963502D01*
X3276602Y4874530D01*
X3128642Y4813242D01*
X2971575Y4782000D01*
X2811425Y4782000D01*
X2654358Y4813242D01*
X2506398Y4874530D01*
X2373242Y4963502D01*
X2260002Y5076742D01*
X2171030Y5209898D01*
X2109742Y5357858D01*
X2078500Y5514925D01*
X2078500Y5675075D01*
X2109742Y5832142D01*
X2171030Y5980102D01*
X2260002Y6113258D01*
X2373242Y6226498D01*
X2390163Y6237804D01*
X2439370Y6270683D01*
X2506398Y6315470D01*
X2654358Y6376758D01*
X2811425Y6408000D01*
X2971575Y6408000D01*
X3128642Y6376758D01*
X3128642Y6376758D01*
G37*
G36*
X66628642Y6376758D02*
G01*
X66776602Y6315470D01*
X66843630Y6270683D01*
X66892838Y6237804D01*
X66909758Y6226498D01*
X67022998Y6113258D01*
X67111970Y5980102D01*
X67173258Y5832142D01*
X67204500Y5675075D01*
X67204500Y5514925D01*
X67173258Y5357858D01*
X67111970Y5209898D01*
X67022998Y5076742D01*
X66909758Y4963502D01*
X66776602Y4874530D01*
X66628642Y4813242D01*
X66471575Y4782000D01*
X66311425Y4782000D01*
X66154358Y4813242D01*
X66006398Y4874530D01*
X65873242Y4963502D01*
X65760002Y5076742D01*
X65671030Y5209898D01*
X65609742Y5357858D01*
X65578500Y5514925D01*
X65578500Y5675075D01*
X65609742Y5832142D01*
X65671030Y5980102D01*
X65760002Y6113258D01*
X65873242Y6226498D01*
X65890163Y6237804D01*
X65939370Y6270683D01*
X66006398Y6315470D01*
X66154358Y6376758D01*
X66311425Y6408000D01*
X66471575Y6408000D01*
X66628642Y6376758D01*
X66628642Y6376758D01*
G37*
G36*
X5668642Y6376758D02*
G01*
X5816602Y6315470D01*
X5883630Y6270683D01*
X5932838Y6237804D01*
X5949758Y6226498D01*
X6062998Y6113258D01*
X6151970Y5980102D01*
X6213258Y5832142D01*
X6244500Y5675075D01*
X6244500Y5514925D01*
X6213258Y5357858D01*
X6151970Y5209898D01*
X6062998Y5076742D01*
X5949758Y4963502D01*
X5816602Y4874530D01*
X5668642Y4813242D01*
X5511575Y4782000D01*
X5351425Y4782000D01*
X5194358Y4813242D01*
X5046398Y4874530D01*
X4913242Y4963502D01*
X4800002Y5076742D01*
X4711030Y5209898D01*
X4649742Y5357858D01*
X4618500Y5514925D01*
X4618500Y5675075D01*
X4649742Y5832142D01*
X4711030Y5980102D01*
X4800002Y6113258D01*
X4913242Y6226498D01*
X4930163Y6237804D01*
X4979370Y6270683D01*
X5046398Y6315470D01*
X5194358Y6376758D01*
X5351425Y6408000D01*
X5511575Y6408000D01*
X5668642Y6376758D01*
X5668642Y6376758D01*
G37*
G36*
X58875294Y7490867D02*
G01*
X59047694Y7438569D01*
X59047696Y7438568D01*
X59206583Y7353641D01*
X59206585Y7353640D01*
X59206584Y7353640D01*
X59345849Y7239349D01*
X59460140Y7100084D01*
X59545069Y6941194D01*
X59597367Y6768794D01*
X59615025Y6589500D01*
X59597367Y6410206D01*
X59545069Y6237806D01*
X59545068Y6237804D01*
X59460141Y6078917D01*
X59345849Y5939651D01*
X59206583Y5825359D01*
X59047696Y5740432D01*
X59047694Y5740431D01*
X58875294Y5688133D01*
X58740931Y5674900D01*
X58651069Y5674900D01*
X58516706Y5688133D01*
X58344306Y5740431D01*
X58344304Y5740432D01*
X58185417Y5825359D01*
X58046151Y5939651D01*
X57931859Y6078917D01*
X57846932Y6237804D01*
X57846931Y6237806D01*
X57794633Y6410206D01*
X57776975Y6589500D01*
X57794633Y6768794D01*
X57846931Y6941194D01*
X57931860Y7100084D01*
X58046151Y7239349D01*
X58185416Y7353640D01*
X58185415Y7353640D01*
X58185417Y7353641D01*
X58344304Y7438568D01*
X58344306Y7438569D01*
X58516706Y7490867D01*
X58651069Y7504100D01*
X58740931Y7504100D01*
X58875294Y7490867D01*
X58875294Y7490867D01*
G37*
G36*
X56335294Y7490867D02*
G01*
X56507694Y7438569D01*
X56507696Y7438568D01*
X56666583Y7353641D01*
X56666585Y7353640D01*
X56666584Y7353640D01*
X56805849Y7239349D01*
X56920140Y7100084D01*
X57005069Y6941194D01*
X57057367Y6768794D01*
X57075025Y6589500D01*
X57057367Y6410206D01*
X57005069Y6237806D01*
X57005068Y6237804D01*
X56920141Y6078917D01*
X56805849Y5939651D01*
X56666583Y5825359D01*
X56507696Y5740432D01*
X56507694Y5740431D01*
X56335294Y5688133D01*
X56200931Y5674900D01*
X56111069Y5674900D01*
X55976706Y5688133D01*
X55804306Y5740431D01*
X55804304Y5740432D01*
X55645417Y5825359D01*
X55506151Y5939651D01*
X55391859Y6078917D01*
X55306932Y6237804D01*
X55306931Y6237806D01*
X55254633Y6410206D01*
X55236975Y6589500D01*
X55254633Y6768794D01*
X55306931Y6941194D01*
X55391860Y7100084D01*
X55506151Y7239349D01*
X55645416Y7353640D01*
X55645415Y7353640D01*
X55645417Y7353641D01*
X55804304Y7438568D01*
X55804306Y7438569D01*
X55976706Y7490867D01*
X56111069Y7504100D01*
X56200931Y7504100D01*
X56335294Y7490867D01*
X56335294Y7490867D01*
G37*
G36*
X23696794Y7999367D02*
G01*
X23869194Y7947069D01*
X23869196Y7947068D01*
X24028083Y7862141D01*
X24167349Y7747849D01*
X24281641Y7608583D01*
X24344562Y7490866D01*
X24366569Y7449694D01*
X24418867Y7277294D01*
X24436525Y7098000D01*
X24418867Y6918706D01*
X24373390Y6768793D01*
X24366568Y6746304D01*
X24281641Y6587417D01*
X24167349Y6448151D01*
X24028083Y6333859D01*
X23869196Y6248932D01*
X23869194Y6248931D01*
X23696794Y6196633D01*
X23562431Y6183400D01*
X23472569Y6183400D01*
X23338206Y6196633D01*
X23165806Y6248931D01*
X23165804Y6248932D01*
X23006917Y6333859D01*
X22867651Y6448151D01*
X22753359Y6587417D01*
X22668432Y6746304D01*
X22661610Y6768793D01*
X22616133Y6918706D01*
X22598475Y7098000D01*
X22616133Y7277294D01*
X22668431Y7449694D01*
X22690438Y7490866D01*
X22753359Y7608583D01*
X22867651Y7747849D01*
X23006917Y7862141D01*
X23165804Y7947068D01*
X23165806Y7947069D01*
X23338206Y7999367D01*
X23472569Y8012600D01*
X23562431Y8012600D01*
X23696794Y7999367D01*
X23696794Y7999367D01*
G37*
G36*
X37285794Y7999367D02*
G01*
X37458194Y7947069D01*
X37458196Y7947068D01*
X37617083Y7862141D01*
X37756349Y7747849D01*
X37870641Y7608583D01*
X37933562Y7490866D01*
X37955569Y7449694D01*
X38007867Y7277294D01*
X38025525Y7098000D01*
X38007867Y6918706D01*
X37962390Y6768793D01*
X37955568Y6746304D01*
X37870641Y6587417D01*
X37756349Y6448151D01*
X37617083Y6333859D01*
X37458196Y6248932D01*
X37458194Y6248931D01*
X37285794Y6196633D01*
X37151431Y6183400D01*
X37061569Y6183400D01*
X36927206Y6196633D01*
X36754806Y6248931D01*
X36754804Y6248932D01*
X36595917Y6333859D01*
X36456651Y6448151D01*
X36342359Y6587417D01*
X36257432Y6746304D01*
X36250610Y6768793D01*
X36205133Y6918706D01*
X36187475Y7098000D01*
X36205133Y7277294D01*
X36257431Y7449694D01*
X36279438Y7490866D01*
X36342359Y7608583D01*
X36456651Y7747849D01*
X36595917Y7862141D01*
X36754804Y7947068D01*
X36754806Y7947069D01*
X36927206Y7999367D01*
X37061569Y8012600D01*
X37151431Y8012600D01*
X37285794Y7999367D01*
X37285794Y7999367D01*
G37*
G36*
X34745794Y7999367D02*
G01*
X34918194Y7947069D01*
X34918196Y7947068D01*
X35077083Y7862141D01*
X35216349Y7747849D01*
X35330641Y7608583D01*
X35393562Y7490866D01*
X35415569Y7449694D01*
X35467867Y7277294D01*
X35485525Y7098000D01*
X35467867Y6918706D01*
X35422390Y6768793D01*
X35415568Y6746304D01*
X35330641Y6587417D01*
X35216349Y6448151D01*
X35077083Y6333859D01*
X34918196Y6248932D01*
X34918194Y6248931D01*
X34745794Y6196633D01*
X34611431Y6183400D01*
X34521569Y6183400D01*
X34387206Y6196633D01*
X34214806Y6248931D01*
X34214804Y6248932D01*
X34055917Y6333859D01*
X33916651Y6448151D01*
X33802359Y6587417D01*
X33717432Y6746304D01*
X33710610Y6768793D01*
X33665133Y6918706D01*
X33647475Y7098000D01*
X33665133Y7277294D01*
X33717431Y7449694D01*
X33739438Y7490866D01*
X33802359Y7608583D01*
X33916651Y7747849D01*
X34055917Y7862141D01*
X34214804Y7947068D01*
X34214806Y7947069D01*
X34387206Y7999367D01*
X34521569Y8012600D01*
X34611431Y8012600D01*
X34745794Y7999367D01*
X34745794Y7999367D01*
G37*
G36*
X44905794Y7999367D02*
G01*
X45078194Y7947069D01*
X45078196Y7947068D01*
X45237083Y7862141D01*
X45376349Y7747849D01*
X45490641Y7608583D01*
X45553562Y7490866D01*
X45575569Y7449694D01*
X45627867Y7277294D01*
X45645525Y7098000D01*
X45627867Y6918706D01*
X45582390Y6768793D01*
X45575568Y6746304D01*
X45490641Y6587417D01*
X45376349Y6448151D01*
X45237083Y6333859D01*
X45078196Y6248932D01*
X45078194Y6248931D01*
X44905794Y6196633D01*
X44771431Y6183400D01*
X44681569Y6183400D01*
X44547206Y6196633D01*
X44374806Y6248931D01*
X44374804Y6248932D01*
X44215917Y6333859D01*
X44076651Y6448151D01*
X43962359Y6587417D01*
X43877432Y6746304D01*
X43870610Y6768793D01*
X43825133Y6918706D01*
X43807475Y7098000D01*
X43825133Y7277294D01*
X43877431Y7449694D01*
X43899438Y7490866D01*
X43962359Y7608583D01*
X44076651Y7747849D01*
X44215917Y7862141D01*
X44374804Y7947068D01*
X44374806Y7947069D01*
X44547206Y7999367D01*
X44681569Y8012600D01*
X44771431Y8012600D01*
X44905794Y7999367D01*
X44905794Y7999367D01*
G37*
G36*
X21156794Y7999367D02*
G01*
X21329194Y7947069D01*
X21329196Y7947068D01*
X21488083Y7862141D01*
X21627349Y7747849D01*
X21741641Y7608583D01*
X21804562Y7490866D01*
X21826569Y7449694D01*
X21878867Y7277294D01*
X21896525Y7098000D01*
X21878867Y6918706D01*
X21833390Y6768793D01*
X21826568Y6746304D01*
X21741641Y6587417D01*
X21627349Y6448151D01*
X21488083Y6333859D01*
X21329196Y6248932D01*
X21329194Y6248931D01*
X21156794Y6196633D01*
X21022431Y6183400D01*
X20932569Y6183400D01*
X20798206Y6196633D01*
X20625806Y6248931D01*
X20625804Y6248932D01*
X20466917Y6333859D01*
X20327651Y6448151D01*
X20213359Y6587417D01*
X20128432Y6746304D01*
X20121610Y6768793D01*
X20076133Y6918706D01*
X20058475Y7098000D01*
X20076133Y7277294D01*
X20128431Y7449694D01*
X20150438Y7490866D01*
X20213359Y7608583D01*
X20327651Y7747849D01*
X20466917Y7862141D01*
X20625804Y7947068D01*
X20625806Y7947069D01*
X20798206Y7999367D01*
X20932569Y8012600D01*
X21022431Y8012600D01*
X21156794Y7999367D01*
X21156794Y7999367D01*
G37*
G36*
X39825794Y7999367D02*
G01*
X39998194Y7947069D01*
X39998196Y7947068D01*
X40157083Y7862141D01*
X40296349Y7747849D01*
X40410641Y7608583D01*
X40473562Y7490866D01*
X40495569Y7449694D01*
X40547867Y7277294D01*
X40565525Y7098000D01*
X40547867Y6918706D01*
X40502390Y6768793D01*
X40495568Y6746304D01*
X40410641Y6587417D01*
X40296349Y6448151D01*
X40157083Y6333859D01*
X39998196Y6248932D01*
X39998194Y6248931D01*
X39825794Y6196633D01*
X39691431Y6183400D01*
X39601569Y6183400D01*
X39467206Y6196633D01*
X39294806Y6248931D01*
X39294804Y6248932D01*
X39135917Y6333859D01*
X38996651Y6448151D01*
X38882359Y6587417D01*
X38797432Y6746304D01*
X38790610Y6768793D01*
X38745133Y6918706D01*
X38727475Y7098000D01*
X38745133Y7277294D01*
X38797431Y7449694D01*
X38819438Y7490866D01*
X38882359Y7608583D01*
X38996651Y7747849D01*
X39135917Y7862141D01*
X39294804Y7947068D01*
X39294806Y7947069D01*
X39467206Y7999367D01*
X39601569Y8012600D01*
X39691431Y8012600D01*
X39825794Y7999367D01*
X39825794Y7999367D01*
G37*
G36*
X18616794Y7999367D02*
G01*
X18789194Y7947069D01*
X18789196Y7947068D01*
X18948083Y7862141D01*
X19087349Y7747849D01*
X19201641Y7608583D01*
X19264562Y7490866D01*
X19286569Y7449694D01*
X19338867Y7277294D01*
X19356525Y7098000D01*
X19338867Y6918706D01*
X19293390Y6768793D01*
X19286568Y6746304D01*
X19201641Y6587417D01*
X19087349Y6448151D01*
X18948083Y6333859D01*
X18789196Y6248932D01*
X18789194Y6248931D01*
X18616794Y6196633D01*
X18482431Y6183400D01*
X18392569Y6183400D01*
X18258206Y6196633D01*
X18085806Y6248931D01*
X18085804Y6248932D01*
X17926917Y6333859D01*
X17787651Y6448151D01*
X17673359Y6587417D01*
X17588432Y6746304D01*
X17581610Y6768793D01*
X17536133Y6918706D01*
X17518475Y7098000D01*
X17536133Y7277294D01*
X17588431Y7449694D01*
X17610438Y7490866D01*
X17673359Y7608583D01*
X17787651Y7747849D01*
X17926917Y7862141D01*
X18085804Y7947068D01*
X18085806Y7947069D01*
X18258206Y7999367D01*
X18392569Y8012600D01*
X18482431Y8012600D01*
X18616794Y7999367D01*
X18616794Y7999367D01*
G37*
G36*
X16076794Y7999367D02*
G01*
X16249194Y7947069D01*
X16249196Y7947068D01*
X16408083Y7862141D01*
X16547349Y7747849D01*
X16661641Y7608583D01*
X16724562Y7490866D01*
X16746569Y7449694D01*
X16798867Y7277294D01*
X16816525Y7098000D01*
X16798867Y6918706D01*
X16753390Y6768793D01*
X16746568Y6746304D01*
X16661641Y6587417D01*
X16547349Y6448151D01*
X16408083Y6333859D01*
X16249196Y6248932D01*
X16249194Y6248931D01*
X16076794Y6196633D01*
X15942431Y6183400D01*
X15852569Y6183400D01*
X15718206Y6196633D01*
X15545806Y6248931D01*
X15545804Y6248932D01*
X15386917Y6333859D01*
X15247651Y6448151D01*
X15133359Y6587417D01*
X15048432Y6746304D01*
X15041610Y6768793D01*
X14996133Y6918706D01*
X14978475Y7098000D01*
X14996133Y7277294D01*
X15048431Y7449694D01*
X15070438Y7490866D01*
X15133359Y7608583D01*
X15247651Y7747849D01*
X15386917Y7862141D01*
X15545804Y7947068D01*
X15545806Y7947069D01*
X15718206Y7999367D01*
X15852569Y8012600D01*
X15942431Y8012600D01*
X16076794Y7999367D01*
X16076794Y7999367D01*
G37*
G36*
X13536794Y7999367D02*
G01*
X13709194Y7947069D01*
X13709196Y7947068D01*
X13868083Y7862141D01*
X14007349Y7747849D01*
X14121641Y7608583D01*
X14184562Y7490866D01*
X14206569Y7449694D01*
X14258867Y7277294D01*
X14276525Y7098000D01*
X14258867Y6918706D01*
X14213390Y6768793D01*
X14206568Y6746304D01*
X14121641Y6587417D01*
X14007349Y6448151D01*
X13868083Y6333859D01*
X13709196Y6248932D01*
X13709194Y6248931D01*
X13536794Y6196633D01*
X13402431Y6183400D01*
X13312569Y6183400D01*
X13178206Y6196633D01*
X13005806Y6248931D01*
X13005804Y6248932D01*
X12846917Y6333859D01*
X12707651Y6448151D01*
X12593359Y6587417D01*
X12508432Y6746304D01*
X12501610Y6768793D01*
X12456133Y6918706D01*
X12438475Y7098000D01*
X12456133Y7277294D01*
X12508431Y7449694D01*
X12530438Y7490866D01*
X12593359Y7608583D01*
X12707651Y7747849D01*
X12846917Y7862141D01*
X13005804Y7947068D01*
X13005806Y7947069D01*
X13178206Y7999367D01*
X13312569Y8012600D01*
X13402431Y8012600D01*
X13536794Y7999367D01*
X13536794Y7999367D01*
G37*
G36*
X42365794Y7999367D02*
G01*
X42538194Y7947069D01*
X42538196Y7947068D01*
X42697083Y7862141D01*
X42836349Y7747849D01*
X42950641Y7608583D01*
X43013562Y7490866D01*
X43035569Y7449694D01*
X43087867Y7277294D01*
X43105525Y7098000D01*
X43087867Y6918706D01*
X43042390Y6768793D01*
X43035568Y6746304D01*
X42950641Y6587417D01*
X42836349Y6448151D01*
X42697083Y6333859D01*
X42538196Y6248932D01*
X42538194Y6248931D01*
X42365794Y6196633D01*
X42231431Y6183400D01*
X42141569Y6183400D01*
X42007206Y6196633D01*
X41834806Y6248931D01*
X41834804Y6248932D01*
X41675917Y6333859D01*
X41536651Y6448151D01*
X41422359Y6587417D01*
X41337432Y6746304D01*
X41330610Y6768793D01*
X41285133Y6918706D01*
X41267475Y7098000D01*
X41285133Y7277294D01*
X41337431Y7449694D01*
X41359438Y7490866D01*
X41422359Y7608583D01*
X41536651Y7747849D01*
X41675917Y7862141D01*
X41834804Y7947068D01*
X41834806Y7947069D01*
X42007206Y7999367D01*
X42141569Y8012600D01*
X42231431Y8012600D01*
X42365794Y7999367D01*
X42365794Y7999367D01*
G37*
G36*
X5668642Y8916758D02*
G01*
X5816602Y8855470D01*
X5883630Y8810683D01*
X5932838Y8777804D01*
X5949758Y8766498D01*
X6062998Y8653258D01*
X6151970Y8520102D01*
X6213258Y8372142D01*
X6244500Y8215075D01*
X6244500Y8054925D01*
X6213258Y7897858D01*
X6165854Y7783417D01*
X6151971Y7749900D01*
X6062999Y7616743D01*
X5949757Y7503501D01*
X5930847Y7490866D01*
X5816602Y7414530D01*
X5668642Y7353242D01*
X5511575Y7322000D01*
X5351425Y7322000D01*
X5194358Y7353242D01*
X5046398Y7414530D01*
X4932153Y7490866D01*
X4913243Y7503501D01*
X4800001Y7616743D01*
X4711029Y7749900D01*
X4697146Y7783417D01*
X4649742Y7897858D01*
X4618500Y8054925D01*
X4618500Y8215075D01*
X4649742Y8372142D01*
X4711030Y8520102D01*
X4800002Y8653258D01*
X4913242Y8766498D01*
X4930163Y8777804D01*
X4979370Y8810683D01*
X5046398Y8855470D01*
X5194358Y8916758D01*
X5351425Y8948000D01*
X5511575Y8948000D01*
X5668642Y8916758D01*
X5668642Y8916758D01*
G37*
G36*
X3128642Y8916758D02*
G01*
X3276602Y8855470D01*
X3343630Y8810683D01*
X3392838Y8777804D01*
X3409758Y8766498D01*
X3522998Y8653258D01*
X3611970Y8520102D01*
X3673258Y8372142D01*
X3704500Y8215075D01*
X3704500Y8054925D01*
X3673258Y7897858D01*
X3625854Y7783417D01*
X3611971Y7749900D01*
X3522999Y7616743D01*
X3409757Y7503501D01*
X3390847Y7490866D01*
X3276602Y7414530D01*
X3128642Y7353242D01*
X2971575Y7322000D01*
X2811425Y7322000D01*
X2654358Y7353242D01*
X2506398Y7414530D01*
X2392153Y7490866D01*
X2373243Y7503501D01*
X2260001Y7616743D01*
X2171029Y7749900D01*
X2157146Y7783417D01*
X2109742Y7897858D01*
X2078500Y8054925D01*
X2078500Y8215075D01*
X2109742Y8372142D01*
X2171030Y8520102D01*
X2260002Y8653258D01*
X2373242Y8766498D01*
X2390163Y8777804D01*
X2439370Y8810683D01*
X2506398Y8855470D01*
X2654358Y8916758D01*
X2811425Y8948000D01*
X2971575Y8948000D01*
X3128642Y8916758D01*
X3128642Y8916758D01*
G37*
G36*
X66628642Y8916758D02*
G01*
X66776602Y8855470D01*
X66843630Y8810683D01*
X66892838Y8777804D01*
X66909758Y8766498D01*
X67022998Y8653258D01*
X67111970Y8520102D01*
X67173258Y8372142D01*
X67204500Y8215075D01*
X67204500Y8054925D01*
X67173258Y7897858D01*
X67125854Y7783417D01*
X67111971Y7749900D01*
X67022999Y7616743D01*
X66909757Y7503501D01*
X66890847Y7490866D01*
X66776602Y7414530D01*
X66628642Y7353242D01*
X66471575Y7322000D01*
X66311425Y7322000D01*
X66154358Y7353242D01*
X66006398Y7414530D01*
X65892153Y7490866D01*
X65873243Y7503501D01*
X65760001Y7616743D01*
X65671029Y7749900D01*
X65657146Y7783417D01*
X65609742Y7897858D01*
X65578500Y8054925D01*
X65578500Y8215075D01*
X65609742Y8372142D01*
X65671030Y8520102D01*
X65760002Y8653258D01*
X65873242Y8766498D01*
X65890163Y8777804D01*
X65939370Y8810683D01*
X66006398Y8855470D01*
X66154358Y8916758D01*
X66311425Y8948000D01*
X66471575Y8948000D01*
X66628642Y8916758D01*
X66628642Y8916758D01*
G37*
G36*
X64088642Y8916758D02*
G01*
X64236602Y8855470D01*
X64303630Y8810683D01*
X64352838Y8777804D01*
X64369758Y8766498D01*
X64482998Y8653258D01*
X64571970Y8520102D01*
X64633258Y8372142D01*
X64664500Y8215075D01*
X64664500Y8054925D01*
X64633258Y7897858D01*
X64585854Y7783417D01*
X64571971Y7749900D01*
X64482999Y7616743D01*
X64369757Y7503501D01*
X64350847Y7490866D01*
X64236602Y7414530D01*
X64088642Y7353242D01*
X63931575Y7322000D01*
X63771425Y7322000D01*
X63614358Y7353242D01*
X63466398Y7414530D01*
X63352153Y7490866D01*
X63333243Y7503501D01*
X63220001Y7616743D01*
X63131029Y7749900D01*
X63117146Y7783417D01*
X63069742Y7897858D01*
X63038500Y8054925D01*
X63038500Y8215075D01*
X63069742Y8372142D01*
X63131030Y8520102D01*
X63220002Y8653258D01*
X63333242Y8766498D01*
X63350163Y8777804D01*
X63399370Y8810683D01*
X63466398Y8855470D01*
X63614358Y8916758D01*
X63771425Y8948000D01*
X63931575Y8948000D01*
X64088642Y8916758D01*
X64088642Y8916758D01*
G37*
G36*
X58875294Y10030867D02*
G01*
X59047694Y9978569D01*
X59047696Y9978568D01*
X59206583Y9893641D01*
X59206585Y9893640D01*
X59206584Y9893640D01*
X59345849Y9779349D01*
X59460140Y9640084D01*
X59545069Y9481194D01*
X59597367Y9308794D01*
X59615025Y9129500D01*
X59597367Y8950206D01*
X59545069Y8777806D01*
X59545068Y8777804D01*
X59460141Y8618917D01*
X59345849Y8479651D01*
X59206583Y8365359D01*
X59047696Y8280432D01*
X59047694Y8280431D01*
X58875294Y8228133D01*
X58740931Y8214900D01*
X58651069Y8214900D01*
X58516706Y8228133D01*
X58344306Y8280431D01*
X58344304Y8280432D01*
X58185417Y8365359D01*
X58046151Y8479651D01*
X57931859Y8618917D01*
X57846932Y8777804D01*
X57846931Y8777806D01*
X57794633Y8950206D01*
X57776975Y9129500D01*
X57794633Y9308794D01*
X57846931Y9481194D01*
X57931860Y9640084D01*
X58046151Y9779349D01*
X58185416Y9893640D01*
X58185415Y9893640D01*
X58185417Y9893641D01*
X58344304Y9978568D01*
X58344306Y9978569D01*
X58516706Y10030867D01*
X58651069Y10044100D01*
X58740931Y10044100D01*
X58875294Y10030867D01*
X58875294Y10030867D01*
G37*
G36*
X56335294Y10030867D02*
G01*
X56507694Y9978569D01*
X56507696Y9978568D01*
X56666583Y9893641D01*
X56666585Y9893640D01*
X56666584Y9893640D01*
X56805849Y9779349D01*
X56920140Y9640084D01*
X57005069Y9481194D01*
X57057367Y9308794D01*
X57075025Y9129500D01*
X57057367Y8950206D01*
X57005069Y8777806D01*
X57005068Y8777804D01*
X56920141Y8618917D01*
X56805849Y8479651D01*
X56666583Y8365359D01*
X56507696Y8280432D01*
X56507694Y8280431D01*
X56335294Y8228133D01*
X56200931Y8214900D01*
X56111069Y8214900D01*
X55976706Y8228133D01*
X55804306Y8280431D01*
X55804304Y8280432D01*
X55645417Y8365359D01*
X55506151Y8479651D01*
X55391859Y8618917D01*
X55306932Y8777804D01*
X55306931Y8777806D01*
X55254633Y8950206D01*
X55236975Y9129500D01*
X55254633Y9308794D01*
X55306931Y9481194D01*
X55391860Y9640084D01*
X55506151Y9779349D01*
X55645416Y9893640D01*
X55645415Y9893640D01*
X55645417Y9893641D01*
X55804304Y9978568D01*
X55804306Y9978569D01*
X55976706Y10030867D01*
X56111069Y10044100D01*
X56200931Y10044100D01*
X56335294Y10030867D01*
X56335294Y10030867D01*
G37*
G36*
X3128642Y11456758D02*
G01*
X3276602Y11395470D01*
X3343630Y11350683D01*
X3392838Y11317804D01*
X3409758Y11306498D01*
X3522998Y11193258D01*
X3611970Y11060102D01*
X3673258Y10912142D01*
X3704500Y10755075D01*
X3704500Y10594925D01*
X3673258Y10437858D01*
X3625854Y10323417D01*
X3611971Y10289900D01*
X3522999Y10156743D01*
X3409757Y10043501D01*
X3390847Y10030866D01*
X3276602Y9954530D01*
X3128642Y9893242D01*
X2971575Y9862000D01*
X2811425Y9862000D01*
X2654358Y9893242D01*
X2506398Y9954530D01*
X2392153Y10030866D01*
X2373243Y10043501D01*
X2260001Y10156743D01*
X2171029Y10289900D01*
X2157146Y10323417D01*
X2109742Y10437858D01*
X2078500Y10594925D01*
X2078500Y10755075D01*
X2109742Y10912142D01*
X2171030Y11060102D01*
X2260002Y11193258D01*
X2373242Y11306498D01*
X2390163Y11317804D01*
X2439370Y11350683D01*
X2506398Y11395470D01*
X2654358Y11456758D01*
X2811425Y11488000D01*
X2971575Y11488000D01*
X3128642Y11456758D01*
X3128642Y11456758D01*
G37*
G36*
X64088642Y11456758D02*
G01*
X64236602Y11395470D01*
X64303630Y11350683D01*
X64352838Y11317804D01*
X64369758Y11306498D01*
X64482998Y11193258D01*
X64571970Y11060102D01*
X64633258Y10912142D01*
X64664500Y10755075D01*
X64664500Y10594925D01*
X64633258Y10437858D01*
X64585854Y10323417D01*
X64571971Y10289900D01*
X64482999Y10156743D01*
X64369757Y10043501D01*
X64350847Y10030866D01*
X64236602Y9954530D01*
X64088642Y9893242D01*
X63931575Y9862000D01*
X63771425Y9862000D01*
X63614358Y9893242D01*
X63466398Y9954530D01*
X63352153Y10030866D01*
X63333243Y10043501D01*
X63220001Y10156743D01*
X63131029Y10289900D01*
X63117146Y10323417D01*
X63069742Y10437858D01*
X63038500Y10594925D01*
X63038500Y10755075D01*
X63069742Y10912142D01*
X63131030Y11060102D01*
X63220002Y11193258D01*
X63333242Y11306498D01*
X63350163Y11317804D01*
X63399370Y11350683D01*
X63466398Y11395470D01*
X63614358Y11456758D01*
X63771425Y11488000D01*
X63931575Y11488000D01*
X64088642Y11456758D01*
X64088642Y11456758D01*
G37*
G36*
X5668642Y11456758D02*
G01*
X5816602Y11395470D01*
X5883630Y11350683D01*
X5932838Y11317804D01*
X5949758Y11306498D01*
X6062998Y11193258D01*
X6151970Y11060102D01*
X6213258Y10912142D01*
X6244500Y10755075D01*
X6244500Y10594925D01*
X6213258Y10437858D01*
X6165854Y10323417D01*
X6151971Y10289900D01*
X6062999Y10156743D01*
X5949757Y10043501D01*
X5930847Y10030866D01*
X5816602Y9954530D01*
X5668642Y9893242D01*
X5511575Y9862000D01*
X5351425Y9862000D01*
X5194358Y9893242D01*
X5046398Y9954530D01*
X4932153Y10030866D01*
X4913243Y10043501D01*
X4800001Y10156743D01*
X4711029Y10289900D01*
X4697146Y10323417D01*
X4649742Y10437858D01*
X4618500Y10594925D01*
X4618500Y10755075D01*
X4649742Y10912142D01*
X4711030Y11060102D01*
X4800002Y11193258D01*
X4913242Y11306498D01*
X4930163Y11317804D01*
X4979370Y11350683D01*
X5046398Y11395470D01*
X5194358Y11456758D01*
X5351425Y11488000D01*
X5511575Y11488000D01*
X5668642Y11456758D01*
X5668642Y11456758D01*
G37*
G36*
X66628642Y11456758D02*
G01*
X66776602Y11395470D01*
X66843630Y11350683D01*
X66892838Y11317804D01*
X66909758Y11306498D01*
X67022998Y11193258D01*
X67111970Y11060102D01*
X67173258Y10912142D01*
X67204500Y10755075D01*
X67204500Y10594925D01*
X67173258Y10437858D01*
X67125854Y10323417D01*
X67111971Y10289900D01*
X67022999Y10156743D01*
X66909757Y10043501D01*
X66890847Y10030866D01*
X66776602Y9954530D01*
X66628642Y9893242D01*
X66471575Y9862000D01*
X66311425Y9862000D01*
X66154358Y9893242D01*
X66006398Y9954530D01*
X65892153Y10030866D01*
X65873243Y10043501D01*
X65760001Y10156743D01*
X65671029Y10289900D01*
X65657146Y10323417D01*
X65609742Y10437858D01*
X65578500Y10594925D01*
X65578500Y10755075D01*
X65609742Y10912142D01*
X65671030Y11060102D01*
X65760002Y11193258D01*
X65873242Y11306498D01*
X65890163Y11317804D01*
X65939370Y11350683D01*
X66006398Y11395470D01*
X66154358Y11456758D01*
X66311425Y11488000D01*
X66471575Y11488000D01*
X66628642Y11456758D01*
X66628642Y11456758D01*
G37*
G36*
X58875294Y12570867D02*
G01*
X59047694Y12518569D01*
X59047696Y12518568D01*
X59206583Y12433641D01*
X59206585Y12433640D01*
X59206584Y12433640D01*
X59345849Y12319349D01*
X59460140Y12180084D01*
X59545069Y12021194D01*
X59597367Y11848794D01*
X59615025Y11669500D01*
X59597367Y11490206D01*
X59545069Y11317806D01*
X59545068Y11317804D01*
X59460141Y11158917D01*
X59345849Y11019651D01*
X59206583Y10905359D01*
X59047696Y10820432D01*
X59047694Y10820431D01*
X58875294Y10768133D01*
X58740931Y10754900D01*
X58651069Y10754900D01*
X58516706Y10768133D01*
X58344306Y10820431D01*
X58344304Y10820432D01*
X58185417Y10905359D01*
X58046151Y11019651D01*
X57931859Y11158917D01*
X57846932Y11317804D01*
X57846931Y11317806D01*
X57794633Y11490206D01*
X57776975Y11669500D01*
X57794633Y11848794D01*
X57846931Y12021194D01*
X57931860Y12180084D01*
X58046151Y12319349D01*
X58185416Y12433640D01*
X58185415Y12433640D01*
X58185417Y12433641D01*
X58344304Y12518568D01*
X58344306Y12518569D01*
X58516706Y12570867D01*
X58651069Y12584100D01*
X58740931Y12584100D01*
X58875294Y12570867D01*
X58875294Y12570867D01*
G37*
G36*
X56335294Y12570867D02*
G01*
X56507694Y12518569D01*
X56507696Y12518568D01*
X56666583Y12433641D01*
X56666585Y12433640D01*
X56666584Y12433640D01*
X56805849Y12319349D01*
X56920140Y12180084D01*
X57005069Y12021194D01*
X57057367Y11848794D01*
X57075025Y11669500D01*
X57057367Y11490206D01*
X57005069Y11317806D01*
X57005068Y11317804D01*
X56920141Y11158917D01*
X56805849Y11019651D01*
X56666583Y10905359D01*
X56507696Y10820432D01*
X56507694Y10820431D01*
X56335294Y10768133D01*
X56200931Y10754900D01*
X56111069Y10754900D01*
X55976706Y10768133D01*
X55804306Y10820431D01*
X55804304Y10820432D01*
X55645417Y10905359D01*
X55506151Y11019651D01*
X55391859Y11158917D01*
X55306932Y11317804D01*
X55306931Y11317806D01*
X55254633Y11490206D01*
X55236975Y11669500D01*
X55254633Y11848794D01*
X55306931Y12021194D01*
X55391860Y12180084D01*
X55506151Y12319349D01*
X55645416Y12433640D01*
X55645415Y12433640D01*
X55645417Y12433641D01*
X55804304Y12518568D01*
X55804306Y12518569D01*
X55976706Y12570867D01*
X56111069Y12584100D01*
X56200931Y12584100D01*
X56335294Y12570867D01*
X56335294Y12570867D01*
G37*
G36*
X66628642Y13996758D02*
G01*
X66776602Y13935470D01*
X66843630Y13890683D01*
X66892838Y13857804D01*
X66909758Y13846498D01*
X67022998Y13733258D01*
X67111970Y13600102D01*
X67173258Y13452142D01*
X67204500Y13295075D01*
X67204500Y13134925D01*
X67173258Y12977858D01*
X67125854Y12863417D01*
X67111971Y12829900D01*
X67022999Y12696743D01*
X66909757Y12583501D01*
X66890847Y12570866D01*
X66776602Y12494530D01*
X66628642Y12433242D01*
X66471575Y12402000D01*
X66311425Y12402000D01*
X66154358Y12433242D01*
X66006398Y12494530D01*
X65892153Y12570866D01*
X65873243Y12583501D01*
X65760001Y12696743D01*
X65671029Y12829900D01*
X65657146Y12863417D01*
X65609742Y12977858D01*
X65578500Y13134925D01*
X65578500Y13295075D01*
X65609742Y13452142D01*
X65671030Y13600102D01*
X65760002Y13733258D01*
X65873242Y13846498D01*
X65890163Y13857804D01*
X65939370Y13890683D01*
X66006398Y13935470D01*
X66154358Y13996758D01*
X66311425Y14028000D01*
X66471575Y14028000D01*
X66628642Y13996758D01*
X66628642Y13996758D01*
G37*
G36*
X5668642Y13996758D02*
G01*
X5816602Y13935470D01*
X5883630Y13890683D01*
X5932838Y13857804D01*
X5949758Y13846498D01*
X6062998Y13733258D01*
X6151970Y13600102D01*
X6213258Y13452142D01*
X6244500Y13295075D01*
X6244500Y13134925D01*
X6213258Y12977858D01*
X6165854Y12863417D01*
X6151971Y12829900D01*
X6062999Y12696743D01*
X5949757Y12583501D01*
X5930847Y12570866D01*
X5816602Y12494530D01*
X5668642Y12433242D01*
X5511575Y12402000D01*
X5351425Y12402000D01*
X5194358Y12433242D01*
X5046398Y12494530D01*
X4932153Y12570866D01*
X4913243Y12583501D01*
X4800001Y12696743D01*
X4711029Y12829900D01*
X4697146Y12863417D01*
X4649742Y12977858D01*
X4618500Y13134925D01*
X4618500Y13295075D01*
X4649742Y13452142D01*
X4711030Y13600102D01*
X4800002Y13733258D01*
X4913242Y13846498D01*
X4930163Y13857804D01*
X4979370Y13890683D01*
X5046398Y13935470D01*
X5194358Y13996758D01*
X5351425Y14028000D01*
X5511575Y14028000D01*
X5668642Y13996758D01*
X5668642Y13996758D01*
G37*
G36*
X64088642Y13996758D02*
G01*
X64236602Y13935470D01*
X64303630Y13890683D01*
X64352838Y13857804D01*
X64369758Y13846498D01*
X64482998Y13733258D01*
X64571970Y13600102D01*
X64633258Y13452142D01*
X64664500Y13295075D01*
X64664500Y13134925D01*
X64633258Y12977858D01*
X64585854Y12863417D01*
X64571971Y12829900D01*
X64482999Y12696743D01*
X64369757Y12583501D01*
X64350847Y12570866D01*
X64236602Y12494530D01*
X64088642Y12433242D01*
X63931575Y12402000D01*
X63771425Y12402000D01*
X63614358Y12433242D01*
X63466398Y12494530D01*
X63352153Y12570866D01*
X63333243Y12583501D01*
X63220001Y12696743D01*
X63131029Y12829900D01*
X63117146Y12863417D01*
X63069742Y12977858D01*
X63038500Y13134925D01*
X63038500Y13295075D01*
X63069742Y13452142D01*
X63131030Y13600102D01*
X63220002Y13733258D01*
X63333242Y13846498D01*
X63350163Y13857804D01*
X63399370Y13890683D01*
X63466398Y13935470D01*
X63614358Y13996758D01*
X63771425Y14028000D01*
X63931575Y14028000D01*
X64088642Y13996758D01*
X64088642Y13996758D01*
G37*
G36*
X3128642Y13996758D02*
G01*
X3276602Y13935470D01*
X3343630Y13890683D01*
X3392838Y13857804D01*
X3409758Y13846498D01*
X3522998Y13733258D01*
X3611970Y13600102D01*
X3673258Y13452142D01*
X3704500Y13295075D01*
X3704500Y13134925D01*
X3673258Y12977858D01*
X3625854Y12863417D01*
X3611971Y12829900D01*
X3522999Y12696743D01*
X3409757Y12583501D01*
X3390847Y12570866D01*
X3276602Y12494530D01*
X3128642Y12433242D01*
X2971575Y12402000D01*
X2811425Y12402000D01*
X2654358Y12433242D01*
X2506398Y12494530D01*
X2392153Y12570866D01*
X2373243Y12583501D01*
X2260001Y12696743D01*
X2171029Y12829900D01*
X2157146Y12863417D01*
X2109742Y12977858D01*
X2078500Y13134925D01*
X2078500Y13295075D01*
X2109742Y13452142D01*
X2171030Y13600102D01*
X2260002Y13733258D01*
X2373242Y13846498D01*
X2390163Y13857804D01*
X2439370Y13890683D01*
X2506398Y13935470D01*
X2654358Y13996758D01*
X2811425Y14028000D01*
X2971575Y14028000D01*
X3128642Y13996758D01*
X3128642Y13996758D01*
G37*
G36*
X58875294Y15110867D02*
G01*
X59047694Y15058569D01*
X59047696Y15058568D01*
X59206583Y14973641D01*
X59206585Y14973640D01*
X59206584Y14973640D01*
X59345849Y14859349D01*
X59460140Y14720084D01*
X59545069Y14561194D01*
X59597367Y14388794D01*
X59615025Y14209500D01*
X59597367Y14030206D01*
X59545069Y13857806D01*
X59545068Y13857804D01*
X59460141Y13698917D01*
X59345849Y13559651D01*
X59206583Y13445359D01*
X59047696Y13360432D01*
X59047694Y13360431D01*
X58875294Y13308133D01*
X58740931Y13294900D01*
X58651069Y13294900D01*
X58516706Y13308133D01*
X58344306Y13360431D01*
X58344304Y13360432D01*
X58185417Y13445359D01*
X58046151Y13559651D01*
X57931859Y13698917D01*
X57846932Y13857804D01*
X57846931Y13857806D01*
X57794633Y14030206D01*
X57776975Y14209500D01*
X57794633Y14388794D01*
X57846931Y14561194D01*
X57931860Y14720084D01*
X58046151Y14859349D01*
X58185416Y14973640D01*
X58185415Y14973640D01*
X58185417Y14973641D01*
X58344304Y15058568D01*
X58344306Y15058569D01*
X58516706Y15110867D01*
X58651069Y15124100D01*
X58740931Y15124100D01*
X58875294Y15110867D01*
X58875294Y15110867D01*
G37*
G36*
X56335294Y15110867D02*
G01*
X56507694Y15058569D01*
X56507696Y15058568D01*
X56666583Y14973641D01*
X56666585Y14973640D01*
X56666584Y14973640D01*
X56805849Y14859349D01*
X56920140Y14720084D01*
X57005069Y14561194D01*
X57057367Y14388794D01*
X57075025Y14209500D01*
X57057367Y14030206D01*
X57005069Y13857806D01*
X57005068Y13857804D01*
X56920141Y13698917D01*
X56805849Y13559651D01*
X56666583Y13445359D01*
X56507696Y13360432D01*
X56507694Y13360431D01*
X56335294Y13308133D01*
X56200931Y13294900D01*
X56111069Y13294900D01*
X55976706Y13308133D01*
X55804306Y13360431D01*
X55804304Y13360432D01*
X55645417Y13445359D01*
X55506151Y13559651D01*
X55391859Y13698917D01*
X55306932Y13857804D01*
X55306931Y13857806D01*
X55254633Y14030206D01*
X55236975Y14209500D01*
X55254633Y14388794D01*
X55306931Y14561194D01*
X55391860Y14720084D01*
X55506151Y14859349D01*
X55645416Y14973640D01*
X55645415Y14973640D01*
X55645417Y14973641D01*
X55804304Y15058568D01*
X55804306Y15058569D01*
X55976706Y15110867D01*
X56111069Y15124100D01*
X56200931Y15124100D01*
X56335294Y15110867D01*
X56335294Y15110867D01*
G37*
G36*
X5668642Y16536758D02*
G01*
X5816602Y16475470D01*
X5883630Y16430683D01*
X5932838Y16397804D01*
X5949758Y16386498D01*
X6062998Y16273258D01*
X6151970Y16140102D01*
X6213258Y15992142D01*
X6244500Y15835075D01*
X6244500Y15674925D01*
X6213258Y15517858D01*
X6165854Y15403417D01*
X6151971Y15369900D01*
X6062999Y15236743D01*
X5949757Y15123501D01*
X5930847Y15110866D01*
X5816602Y15034530D01*
X5668642Y14973242D01*
X5511575Y14942000D01*
X5351425Y14942000D01*
X5194358Y14973242D01*
X5046398Y15034530D01*
X4932153Y15110866D01*
X4913243Y15123501D01*
X4800001Y15236743D01*
X4711029Y15369900D01*
X4697146Y15403417D01*
X4649742Y15517858D01*
X4618500Y15674925D01*
X4618500Y15835075D01*
X4649742Y15992142D01*
X4711030Y16140102D01*
X4800002Y16273258D01*
X4913242Y16386498D01*
X4930163Y16397804D01*
X4979370Y16430683D01*
X5046398Y16475470D01*
X5194358Y16536758D01*
X5351425Y16568000D01*
X5511575Y16568000D01*
X5668642Y16536758D01*
X5668642Y16536758D01*
G37*
G36*
X66628642Y16536758D02*
G01*
X66776602Y16475470D01*
X66843630Y16430683D01*
X66892838Y16397804D01*
X66909758Y16386498D01*
X67022998Y16273258D01*
X67111970Y16140102D01*
X67173258Y15992142D01*
X67204500Y15835075D01*
X67204500Y15674925D01*
X67173258Y15517858D01*
X67125854Y15403417D01*
X67111971Y15369900D01*
X67022999Y15236743D01*
X66909757Y15123501D01*
X66890847Y15110866D01*
X66776602Y15034530D01*
X66628642Y14973242D01*
X66471575Y14942000D01*
X66311425Y14942000D01*
X66154358Y14973242D01*
X66006398Y15034530D01*
X65892153Y15110866D01*
X65873243Y15123501D01*
X65760001Y15236743D01*
X65671029Y15369900D01*
X65657146Y15403417D01*
X65609742Y15517858D01*
X65578500Y15674925D01*
X65578500Y15835075D01*
X65609742Y15992142D01*
X65671030Y16140102D01*
X65760002Y16273258D01*
X65873242Y16386498D01*
X65890163Y16397804D01*
X65939370Y16430683D01*
X66006398Y16475470D01*
X66154358Y16536758D01*
X66311425Y16568000D01*
X66471575Y16568000D01*
X66628642Y16536758D01*
X66628642Y16536758D01*
G37*
G36*
X64088642Y16536758D02*
G01*
X64236602Y16475470D01*
X64303630Y16430683D01*
X64352838Y16397804D01*
X64369758Y16386498D01*
X64482998Y16273258D01*
X64571970Y16140102D01*
X64633258Y15992142D01*
X64664500Y15835075D01*
X64664500Y15674925D01*
X64633258Y15517858D01*
X64585854Y15403417D01*
X64571971Y15369900D01*
X64482999Y15236743D01*
X64369757Y15123501D01*
X64350847Y15110866D01*
X64236602Y15034530D01*
X64088642Y14973242D01*
X63931575Y14942000D01*
X63771425Y14942000D01*
X63614358Y14973242D01*
X63466398Y15034530D01*
X63352153Y15110866D01*
X63333243Y15123501D01*
X63220001Y15236743D01*
X63131029Y15369900D01*
X63117146Y15403417D01*
X63069742Y15517858D01*
X63038500Y15674925D01*
X63038500Y15835075D01*
X63069742Y15992142D01*
X63131030Y16140102D01*
X63220002Y16273258D01*
X63333242Y16386498D01*
X63350163Y16397804D01*
X63399370Y16430683D01*
X63466398Y16475470D01*
X63614358Y16536758D01*
X63771425Y16568000D01*
X63931575Y16568000D01*
X64088642Y16536758D01*
X64088642Y16536758D01*
G37*
G36*
X3128642Y16536758D02*
G01*
X3276602Y16475470D01*
X3343630Y16430683D01*
X3392838Y16397804D01*
X3409758Y16386498D01*
X3522998Y16273258D01*
X3611970Y16140102D01*
X3673258Y15992142D01*
X3704500Y15835075D01*
X3704500Y15674925D01*
X3673258Y15517858D01*
X3625854Y15403417D01*
X3611971Y15369900D01*
X3522999Y15236743D01*
X3409757Y15123501D01*
X3390847Y15110866D01*
X3276602Y15034530D01*
X3128642Y14973242D01*
X2971575Y14942000D01*
X2811425Y14942000D01*
X2654358Y14973242D01*
X2506398Y15034530D01*
X2392153Y15110866D01*
X2373243Y15123501D01*
X2260001Y15236743D01*
X2171029Y15369900D01*
X2157146Y15403417D01*
X2109742Y15517858D01*
X2078500Y15674925D01*
X2078500Y15835075D01*
X2109742Y15992142D01*
X2171030Y16140102D01*
X2260002Y16273258D01*
X2373242Y16386498D01*
X2390163Y16397804D01*
X2439370Y16430683D01*
X2506398Y16475470D01*
X2654358Y16536758D01*
X2811425Y16568000D01*
X2971575Y16568000D01*
X3128642Y16536758D01*
X3128642Y16536758D01*
G37*
G36*
X11695294Y17587367D02*
G01*
X11867694Y17535069D01*
X11867696Y17535068D01*
X12026583Y17450141D01*
X12165849Y17335849D01*
X12280141Y17196583D01*
X12365068Y17037696D01*
X12365069Y17037694D01*
X12417367Y16865294D01*
X12435025Y16686000D01*
X12417367Y16506706D01*
X12365069Y16334306D01*
X12365068Y16334304D01*
X12280141Y16175417D01*
X12165849Y16036151D01*
X12026583Y15921859D01*
X11867696Y15836932D01*
X11867694Y15836931D01*
X11695294Y15784633D01*
X11560931Y15771400D01*
X11471069Y15771400D01*
X11336706Y15784633D01*
X11164306Y15836931D01*
X11164304Y15836932D01*
X11005417Y15921859D01*
X10866151Y16036151D01*
X10751859Y16175417D01*
X10666932Y16334304D01*
X10666931Y16334306D01*
X10614633Y16506706D01*
X10596975Y16686000D01*
X10614633Y16865294D01*
X10666931Y17037694D01*
X10666932Y17037696D01*
X10751859Y17196583D01*
X10866151Y17335849D01*
X11005417Y17450141D01*
X11164304Y17535068D01*
X11164306Y17535069D01*
X11336706Y17587367D01*
X11471069Y17600600D01*
X11560931Y17600600D01*
X11695294Y17587367D01*
X11695294Y17587367D01*
G37*
G36*
X14235294Y17587367D02*
G01*
X14407694Y17535069D01*
X14407696Y17535068D01*
X14566583Y17450141D01*
X14705849Y17335849D01*
X14820141Y17196583D01*
X14905068Y17037696D01*
X14905069Y17037694D01*
X14957367Y16865294D01*
X14975025Y16686000D01*
X14957367Y16506706D01*
X14905069Y16334306D01*
X14905068Y16334304D01*
X14820141Y16175417D01*
X14705849Y16036151D01*
X14566583Y15921859D01*
X14407696Y15836932D01*
X14407694Y15836931D01*
X14235294Y15784633D01*
X14100931Y15771400D01*
X14011069Y15771400D01*
X13876706Y15784633D01*
X13704306Y15836931D01*
X13704304Y15836932D01*
X13545417Y15921859D01*
X13406151Y16036151D01*
X13291859Y16175417D01*
X13206932Y16334304D01*
X13206931Y16334306D01*
X13154633Y16506706D01*
X13136975Y16686000D01*
X13154633Y16865294D01*
X13206931Y17037694D01*
X13206932Y17037696D01*
X13291859Y17196583D01*
X13406151Y17335849D01*
X13545417Y17450141D01*
X13704304Y17535068D01*
X13704306Y17535069D01*
X13876706Y17587367D01*
X14011069Y17600600D01*
X14100931Y17600600D01*
X14235294Y17587367D01*
X14235294Y17587367D01*
G37*
G36*
X58875294Y17650867D02*
G01*
X59047694Y17598569D01*
X59047696Y17598568D01*
X59206583Y17513641D01*
X59345849Y17399349D01*
X59460141Y17260083D01*
X59545068Y17101196D01*
X59545069Y17101194D01*
X59597367Y16928794D01*
X59615025Y16749500D01*
X59597367Y16570206D01*
X59545069Y16397806D01*
X59545068Y16397804D01*
X59460141Y16238917D01*
X59345849Y16099651D01*
X59206583Y15985359D01*
X59087785Y15921860D01*
X59047694Y15900431D01*
X58875294Y15848133D01*
X58740931Y15834900D01*
X58651069Y15834900D01*
X58516706Y15848133D01*
X58344306Y15900431D01*
X58304215Y15921860D01*
X58185417Y15985359D01*
X58046151Y16099651D01*
X57931859Y16238917D01*
X57846932Y16397804D01*
X57846931Y16397806D01*
X57794633Y16570206D01*
X57776975Y16749500D01*
X57794633Y16928794D01*
X57846931Y17101194D01*
X57846932Y17101196D01*
X57931859Y17260083D01*
X58046151Y17399349D01*
X58185417Y17513641D01*
X58344304Y17598568D01*
X58344306Y17598569D01*
X58516706Y17650867D01*
X58651069Y17664100D01*
X58740931Y17664100D01*
X58875294Y17650867D01*
X58875294Y17650867D01*
G37*
G36*
X57070600Y15834900D02*
G01*
X55241400Y15834900D01*
X55241400Y17664100D01*
X57070600Y17664100D01*
X57070600Y15834900D01*
X57070600Y15834900D01*
G37*
G36*
X66628642Y19076758D02*
G01*
X66776602Y19015470D01*
X66909758Y18926498D01*
X67022998Y18813258D01*
X67111970Y18680102D01*
X67173258Y18532142D01*
X67204500Y18375075D01*
X67204500Y18214925D01*
X67173258Y18057858D01*
X67125854Y17943417D01*
X67111971Y17909900D01*
X67022999Y17776743D01*
X66909757Y17663501D01*
X66890847Y17650866D01*
X66776602Y17574530D01*
X66628642Y17513242D01*
X66471575Y17482000D01*
X66311425Y17482000D01*
X66154358Y17513242D01*
X66006398Y17574530D01*
X65892153Y17650866D01*
X65873243Y17663501D01*
X65760001Y17776743D01*
X65671029Y17909900D01*
X65657146Y17943417D01*
X65609742Y18057858D01*
X65578500Y18214925D01*
X65578500Y18375075D01*
X65609742Y18532142D01*
X65671030Y18680102D01*
X65760002Y18813258D01*
X65873242Y18926498D01*
X66006398Y19015470D01*
X66154358Y19076758D01*
X66311425Y19108000D01*
X66471575Y19108000D01*
X66628642Y19076758D01*
X66628642Y19076758D01*
G37*
G36*
X5668642Y19076758D02*
G01*
X5816602Y19015470D01*
X5949758Y18926498D01*
X6062998Y18813258D01*
X6151970Y18680102D01*
X6213258Y18532142D01*
X6244500Y18375075D01*
X6244500Y18214925D01*
X6213258Y18057858D01*
X6165854Y17943417D01*
X6151971Y17909900D01*
X6062999Y17776743D01*
X5949757Y17663501D01*
X5930847Y17650866D01*
X5816602Y17574530D01*
X5668642Y17513242D01*
X5511575Y17482000D01*
X5351425Y17482000D01*
X5194358Y17513242D01*
X5046398Y17574530D01*
X4932153Y17650866D01*
X4913243Y17663501D01*
X4800001Y17776743D01*
X4711029Y17909900D01*
X4697146Y17943417D01*
X4649742Y18057858D01*
X4618500Y18214925D01*
X4618500Y18375075D01*
X4649742Y18532142D01*
X4711030Y18680102D01*
X4800002Y18813258D01*
X4913242Y18926498D01*
X5046398Y19015470D01*
X5194358Y19076758D01*
X5351425Y19108000D01*
X5511575Y19108000D01*
X5668642Y19076758D01*
X5668642Y19076758D01*
G37*
G36*
X3128642Y19076758D02*
G01*
X3276602Y19015470D01*
X3409758Y18926498D01*
X3522998Y18813258D01*
X3611970Y18680102D01*
X3673258Y18532142D01*
X3704500Y18375075D01*
X3704500Y18214925D01*
X3673258Y18057858D01*
X3625854Y17943417D01*
X3611971Y17909900D01*
X3522999Y17776743D01*
X3409757Y17663501D01*
X3390847Y17650866D01*
X3276602Y17574530D01*
X3128642Y17513242D01*
X2971575Y17482000D01*
X2811425Y17482000D01*
X2654358Y17513242D01*
X2506398Y17574530D01*
X2392153Y17650866D01*
X2373243Y17663501D01*
X2260001Y17776743D01*
X2171029Y17909900D01*
X2157146Y17943417D01*
X2109742Y18057858D01*
X2078500Y18214925D01*
X2078500Y18375075D01*
X2109742Y18532142D01*
X2171030Y18680102D01*
X2260002Y18813258D01*
X2373242Y18926498D01*
X2506398Y19015470D01*
X2654358Y19076758D01*
X2811425Y19108000D01*
X2971575Y19108000D01*
X3128642Y19076758D01*
X3128642Y19076758D01*
G37*
G36*
X64088642Y19076758D02*
G01*
X64236602Y19015470D01*
X64369758Y18926498D01*
X64482998Y18813258D01*
X64571970Y18680102D01*
X64633258Y18532142D01*
X64664500Y18375075D01*
X64664500Y18214925D01*
X64633258Y18057858D01*
X64585854Y17943417D01*
X64571971Y17909900D01*
X64482999Y17776743D01*
X64369757Y17663501D01*
X64350847Y17650866D01*
X64236602Y17574530D01*
X64088642Y17513242D01*
X63931575Y17482000D01*
X63771425Y17482000D01*
X63614358Y17513242D01*
X63466398Y17574530D01*
X63352153Y17650866D01*
X63333243Y17663501D01*
X63220001Y17776743D01*
X63131029Y17909900D01*
X63117146Y17943417D01*
X63069742Y18057858D01*
X63038500Y18214925D01*
X63038500Y18375075D01*
X63069742Y18532142D01*
X63131030Y18680102D01*
X63220002Y18813258D01*
X63333242Y18926498D01*
X63466398Y19015470D01*
X63614358Y19076758D01*
X63771425Y19108000D01*
X63931575Y19108000D01*
X64088642Y19076758D01*
X64088642Y19076758D01*
G37*
G36*
X11695294Y20127367D02*
G01*
X11867694Y20075069D01*
X11867696Y20075068D01*
X12026583Y19990141D01*
X12026585Y19990140D01*
X12026584Y19990140D01*
X12165849Y19875849D01*
X12280140Y19736584D01*
X12365069Y19577694D01*
X12417367Y19405294D01*
X12435025Y19226000D01*
X12417367Y19046706D01*
X12365069Y18874306D01*
X12365068Y18874304D01*
X12280141Y18715417D01*
X12165849Y18576151D01*
X12026583Y18461859D01*
X11867696Y18376932D01*
X11867694Y18376931D01*
X11695294Y18324633D01*
X11560931Y18311400D01*
X11471069Y18311400D01*
X11336706Y18324633D01*
X11164306Y18376931D01*
X11164304Y18376932D01*
X11005417Y18461859D01*
X10866151Y18576151D01*
X10751859Y18715417D01*
X10666932Y18874304D01*
X10666931Y18874306D01*
X10614633Y19046706D01*
X10596975Y19226000D01*
X10614633Y19405294D01*
X10666931Y19577694D01*
X10751860Y19736584D01*
X10866151Y19875849D01*
X11005416Y19990140D01*
X11005415Y19990140D01*
X11005417Y19990141D01*
X11164304Y20075068D01*
X11164306Y20075069D01*
X11336706Y20127367D01*
X11471069Y20140600D01*
X11560931Y20140600D01*
X11695294Y20127367D01*
X11695294Y20127367D01*
G37*
G36*
X14235294Y20127367D02*
G01*
X14407694Y20075069D01*
X14407696Y20075068D01*
X14566583Y19990141D01*
X14566585Y19990140D01*
X14566584Y19990140D01*
X14705849Y19875849D01*
X14820140Y19736584D01*
X14905069Y19577694D01*
X14957367Y19405294D01*
X14975025Y19226000D01*
X14957367Y19046706D01*
X14905069Y18874306D01*
X14905068Y18874304D01*
X14820141Y18715417D01*
X14705849Y18576151D01*
X14566583Y18461859D01*
X14407696Y18376932D01*
X14407694Y18376931D01*
X14235294Y18324633D01*
X14100931Y18311400D01*
X14011069Y18311400D01*
X13876706Y18324633D01*
X13704306Y18376931D01*
X13704304Y18376932D01*
X13545417Y18461859D01*
X13406151Y18576151D01*
X13291859Y18715417D01*
X13206932Y18874304D01*
X13206931Y18874306D01*
X13154633Y19046706D01*
X13136975Y19226000D01*
X13154633Y19405294D01*
X13206931Y19577694D01*
X13291860Y19736584D01*
X13406151Y19875849D01*
X13545416Y19990140D01*
X13545415Y19990140D01*
X13545417Y19990141D01*
X13704304Y20075068D01*
X13704306Y20075069D01*
X13876706Y20127367D01*
X14011069Y20140600D01*
X14100931Y20140600D01*
X14235294Y20127367D01*
X14235294Y20127367D01*
G37*
G36*
X66628642Y21616758D02*
G01*
X66776602Y21555470D01*
X66909758Y21466498D01*
X67022998Y21353258D01*
X67111970Y21220102D01*
X67173258Y21072142D01*
X67204500Y20915075D01*
X67204500Y20754925D01*
X67173258Y20597858D01*
X67111970Y20449898D01*
X67022998Y20316742D01*
X66909758Y20203502D01*
X66776602Y20114530D01*
X66628642Y20053242D01*
X66471575Y20022000D01*
X66311425Y20022000D01*
X66154358Y20053242D01*
X66006398Y20114530D01*
X65873242Y20203502D01*
X65760002Y20316742D01*
X65671030Y20449898D01*
X65609742Y20597858D01*
X65578500Y20754925D01*
X65578500Y20915075D01*
X65609742Y21072142D01*
X65671030Y21220102D01*
X65760002Y21353258D01*
X65873242Y21466498D01*
X66006398Y21555470D01*
X66154358Y21616758D01*
X66311425Y21648000D01*
X66471575Y21648000D01*
X66628642Y21616758D01*
X66628642Y21616758D01*
G37*
G36*
X5668642Y21616758D02*
G01*
X5816602Y21555470D01*
X5949758Y21466498D01*
X6062998Y21353258D01*
X6151970Y21220102D01*
X6213258Y21072142D01*
X6244500Y20915075D01*
X6244500Y20754925D01*
X6213258Y20597858D01*
X6151970Y20449898D01*
X6062998Y20316742D01*
X5949758Y20203502D01*
X5816602Y20114530D01*
X5668642Y20053242D01*
X5511575Y20022000D01*
X5351425Y20022000D01*
X5194358Y20053242D01*
X5046398Y20114530D01*
X4913242Y20203502D01*
X4800002Y20316742D01*
X4711030Y20449898D01*
X4649742Y20597858D01*
X4618500Y20754925D01*
X4618500Y20915075D01*
X4649742Y21072142D01*
X4711030Y21220102D01*
X4800002Y21353258D01*
X4913242Y21466498D01*
X5046398Y21555470D01*
X5194358Y21616758D01*
X5351425Y21648000D01*
X5511575Y21648000D01*
X5668642Y21616758D01*
X5668642Y21616758D01*
G37*
G36*
X3128642Y21616758D02*
G01*
X3276602Y21555470D01*
X3409758Y21466498D01*
X3522998Y21353258D01*
X3611970Y21220102D01*
X3673258Y21072142D01*
X3704500Y20915075D01*
X3704500Y20754925D01*
X3673258Y20597858D01*
X3611970Y20449898D01*
X3522998Y20316742D01*
X3409758Y20203502D01*
X3276602Y20114530D01*
X3128642Y20053242D01*
X2971575Y20022000D01*
X2811425Y20022000D01*
X2654358Y20053242D01*
X2506398Y20114530D01*
X2373242Y20203502D01*
X2260002Y20316742D01*
X2171030Y20449898D01*
X2109742Y20597858D01*
X2078500Y20754925D01*
X2078500Y20915075D01*
X2109742Y21072142D01*
X2171030Y21220102D01*
X2260002Y21353258D01*
X2373242Y21466498D01*
X2506398Y21555470D01*
X2654358Y21616758D01*
X2811425Y21648000D01*
X2971575Y21648000D01*
X3128642Y21616758D01*
X3128642Y21616758D01*
G37*
G36*
X64088642Y21616758D02*
G01*
X64236602Y21555470D01*
X64369758Y21466498D01*
X64482998Y21353258D01*
X64571970Y21220102D01*
X64633258Y21072142D01*
X64664500Y20915075D01*
X64664500Y20754925D01*
X64633258Y20597858D01*
X64571970Y20449898D01*
X64482998Y20316742D01*
X64369758Y20203502D01*
X64236602Y20114530D01*
X64088642Y20053242D01*
X63931575Y20022000D01*
X63771425Y20022000D01*
X63614358Y20053242D01*
X63466398Y20114530D01*
X63333242Y20203502D01*
X63220002Y20316742D01*
X63131030Y20449898D01*
X63069742Y20597858D01*
X63038500Y20754925D01*
X63038500Y20915075D01*
X63069742Y21072142D01*
X63131030Y21220102D01*
X63220002Y21353258D01*
X63333242Y21466498D01*
X63466398Y21555470D01*
X63614358Y21616758D01*
X63771425Y21648000D01*
X63931575Y21648000D01*
X64088642Y21616758D01*
X64088642Y21616758D01*
G37*
G36*
X11695294Y22667367D02*
G01*
X11867694Y22615069D01*
X11867696Y22615068D01*
X12026583Y22530141D01*
X12026585Y22530140D01*
X12026584Y22530140D01*
X12165849Y22415849D01*
X12280140Y22276584D01*
X12365069Y22117694D01*
X12417367Y21945294D01*
X12435025Y21766000D01*
X12417367Y21586706D01*
X12365069Y21414306D01*
X12365068Y21414304D01*
X12280141Y21255417D01*
X12165849Y21116151D01*
X12026583Y21001859D01*
X11867696Y20916932D01*
X11867694Y20916931D01*
X11695294Y20864633D01*
X11560931Y20851400D01*
X11471069Y20851400D01*
X11336706Y20864633D01*
X11164306Y20916931D01*
X11164304Y20916932D01*
X11005417Y21001859D01*
X10866151Y21116151D01*
X10751859Y21255417D01*
X10666932Y21414304D01*
X10666931Y21414306D01*
X10614633Y21586706D01*
X10596975Y21766000D01*
X10614633Y21945294D01*
X10666931Y22117694D01*
X10751860Y22276584D01*
X10866151Y22415849D01*
X11005416Y22530140D01*
X11005415Y22530140D01*
X11005417Y22530141D01*
X11164304Y22615068D01*
X11164306Y22615069D01*
X11336706Y22667367D01*
X11471069Y22680600D01*
X11560931Y22680600D01*
X11695294Y22667367D01*
X11695294Y22667367D01*
G37*
G36*
X14235294Y22667367D02*
G01*
X14407694Y22615069D01*
X14407696Y22615068D01*
X14566583Y22530141D01*
X14566585Y22530140D01*
X14566584Y22530140D01*
X14705849Y22415849D01*
X14820140Y22276584D01*
X14905069Y22117694D01*
X14957367Y21945294D01*
X14975025Y21766000D01*
X14957367Y21586706D01*
X14905069Y21414306D01*
X14905068Y21414304D01*
X14820141Y21255417D01*
X14705849Y21116151D01*
X14566583Y21001859D01*
X14407696Y20916932D01*
X14407694Y20916931D01*
X14235294Y20864633D01*
X14100931Y20851400D01*
X14011069Y20851400D01*
X13876706Y20864633D01*
X13704306Y20916931D01*
X13704304Y20916932D01*
X13545417Y21001859D01*
X13406151Y21116151D01*
X13291859Y21255417D01*
X13206932Y21414304D01*
X13206931Y21414306D01*
X13154633Y21586706D01*
X13136975Y21766000D01*
X13154633Y21945294D01*
X13206931Y22117694D01*
X13291860Y22276584D01*
X13406151Y22415849D01*
X13545416Y22530140D01*
X13545415Y22530140D01*
X13545417Y22530141D01*
X13704304Y22615068D01*
X13704306Y22615069D01*
X13876706Y22667367D01*
X14011069Y22680600D01*
X14100931Y22680600D01*
X14235294Y22667367D01*
X14235294Y22667367D01*
G37*
G36*
X66628642Y24156758D02*
G01*
X66776602Y24095470D01*
X66909758Y24006498D01*
X67022998Y23893258D01*
X67111970Y23760102D01*
X67173258Y23612142D01*
X67204500Y23455075D01*
X67204500Y23294925D01*
X67173258Y23137858D01*
X67111970Y22989898D01*
X67022998Y22856742D01*
X66909758Y22743502D01*
X66776602Y22654530D01*
X66628642Y22593242D01*
X66471575Y22562000D01*
X66311425Y22562000D01*
X66154358Y22593242D01*
X66006398Y22654530D01*
X65873242Y22743502D01*
X65760002Y22856742D01*
X65671030Y22989898D01*
X65609742Y23137858D01*
X65578500Y23294925D01*
X65578500Y23455075D01*
X65609742Y23612142D01*
X65671030Y23760102D01*
X65760002Y23893258D01*
X65873242Y24006498D01*
X66006398Y24095470D01*
X66154358Y24156758D01*
X66311425Y24188000D01*
X66471575Y24188000D01*
X66628642Y24156758D01*
X66628642Y24156758D01*
G37*
G36*
X3128642Y24156758D02*
G01*
X3276602Y24095470D01*
X3409758Y24006498D01*
X3522998Y23893258D01*
X3611970Y23760102D01*
X3673258Y23612142D01*
X3704500Y23455075D01*
X3704500Y23294925D01*
X3673258Y23137858D01*
X3611970Y22989898D01*
X3522998Y22856742D01*
X3409758Y22743502D01*
X3276602Y22654530D01*
X3128642Y22593242D01*
X2971575Y22562000D01*
X2811425Y22562000D01*
X2654358Y22593242D01*
X2506398Y22654530D01*
X2373242Y22743502D01*
X2260002Y22856742D01*
X2171030Y22989898D01*
X2109742Y23137858D01*
X2078500Y23294925D01*
X2078500Y23455075D01*
X2109742Y23612142D01*
X2171030Y23760102D01*
X2260002Y23893258D01*
X2373242Y24006498D01*
X2506398Y24095470D01*
X2654358Y24156758D01*
X2811425Y24188000D01*
X2971575Y24188000D01*
X3128642Y24156758D01*
X3128642Y24156758D01*
G37*
G36*
X64088642Y24156758D02*
G01*
X64236602Y24095470D01*
X64369758Y24006498D01*
X64482998Y23893258D01*
X64571970Y23760102D01*
X64633258Y23612142D01*
X64664500Y23455075D01*
X64664500Y23294925D01*
X64633258Y23137858D01*
X64571970Y22989898D01*
X64482998Y22856742D01*
X64369758Y22743502D01*
X64236602Y22654530D01*
X64088642Y22593242D01*
X63931575Y22562000D01*
X63771425Y22562000D01*
X63614358Y22593242D01*
X63466398Y22654530D01*
X63333242Y22743502D01*
X63220002Y22856742D01*
X63131030Y22989898D01*
X63069742Y23137858D01*
X63038500Y23294925D01*
X63038500Y23455075D01*
X63069742Y23612142D01*
X63131030Y23760102D01*
X63220002Y23893258D01*
X63333242Y24006498D01*
X63466398Y24095470D01*
X63614358Y24156758D01*
X63771425Y24188000D01*
X63931575Y24188000D01*
X64088642Y24156758D01*
X64088642Y24156758D01*
G37*
G36*
X5668642Y24156758D02*
G01*
X5816602Y24095470D01*
X5949758Y24006498D01*
X6062998Y23893258D01*
X6151970Y23760102D01*
X6213258Y23612142D01*
X6244500Y23455075D01*
X6244500Y23294925D01*
X6213258Y23137858D01*
X6151970Y22989898D01*
X6062998Y22856742D01*
X5949758Y22743502D01*
X5816602Y22654530D01*
X5668642Y22593242D01*
X5511575Y22562000D01*
X5351425Y22562000D01*
X5194358Y22593242D01*
X5046398Y22654530D01*
X4913242Y22743502D01*
X4800002Y22856742D01*
X4711030Y22989898D01*
X4649742Y23137858D01*
X4618500Y23294925D01*
X4618500Y23455075D01*
X4649742Y23612142D01*
X4711030Y23760102D01*
X4800002Y23893258D01*
X4913242Y24006498D01*
X5046398Y24095470D01*
X5194358Y24156758D01*
X5351425Y24188000D01*
X5511575Y24188000D01*
X5668642Y24156758D01*
X5668642Y24156758D01*
G37*
G36*
X14235294Y25207367D02*
G01*
X14407694Y25155069D01*
X14407696Y25155068D01*
X14566583Y25070141D01*
X14566585Y25070140D01*
X14566584Y25070140D01*
X14705849Y24955849D01*
X14820140Y24816584D01*
X14905069Y24657694D01*
X14957367Y24485294D01*
X14975025Y24306000D01*
X14957367Y24126706D01*
X14905069Y23954306D01*
X14905068Y23954304D01*
X14820141Y23795417D01*
X14705849Y23656151D01*
X14566583Y23541859D01*
X14407696Y23456932D01*
X14407694Y23456931D01*
X14235294Y23404633D01*
X14100931Y23391400D01*
X14011069Y23391400D01*
X13876706Y23404633D01*
X13704306Y23456931D01*
X13704304Y23456932D01*
X13545417Y23541859D01*
X13406151Y23656151D01*
X13291859Y23795417D01*
X13206932Y23954304D01*
X13206931Y23954306D01*
X13154633Y24126706D01*
X13136975Y24306000D01*
X13154633Y24485294D01*
X13206931Y24657694D01*
X13291860Y24816584D01*
X13406151Y24955849D01*
X13545416Y25070140D01*
X13545415Y25070140D01*
X13545417Y25070141D01*
X13704304Y25155068D01*
X13704306Y25155069D01*
X13876706Y25207367D01*
X14011069Y25220600D01*
X14100931Y25220600D01*
X14235294Y25207367D01*
X14235294Y25207367D01*
G37*
G36*
X11695294Y25207367D02*
G01*
X11867694Y25155069D01*
X11867696Y25155068D01*
X12026583Y25070141D01*
X12026585Y25070140D01*
X12026584Y25070140D01*
X12165849Y24955849D01*
X12280140Y24816584D01*
X12365069Y24657694D01*
X12417367Y24485294D01*
X12435025Y24306000D01*
X12417367Y24126706D01*
X12365069Y23954306D01*
X12365068Y23954304D01*
X12280141Y23795417D01*
X12165849Y23656151D01*
X12026583Y23541859D01*
X11867696Y23456932D01*
X11867694Y23456931D01*
X11695294Y23404633D01*
X11560931Y23391400D01*
X11471069Y23391400D01*
X11336706Y23404633D01*
X11164306Y23456931D01*
X11164304Y23456932D01*
X11005417Y23541859D01*
X10866151Y23656151D01*
X10751859Y23795417D01*
X10666932Y23954304D01*
X10666931Y23954306D01*
X10614633Y24126706D01*
X10596975Y24306000D01*
X10614633Y24485294D01*
X10666931Y24657694D01*
X10751860Y24816584D01*
X10866151Y24955849D01*
X11005416Y25070140D01*
X11005415Y25070140D01*
X11005417Y25070141D01*
X11164304Y25155068D01*
X11164306Y25155069D01*
X11336706Y25207367D01*
X11471069Y25220600D01*
X11560931Y25220600D01*
X11695294Y25207367D01*
X11695294Y25207367D01*
G37*
G36*
X64088642Y26696758D02*
G01*
X64236602Y26635470D01*
X64369758Y26546498D01*
X64482998Y26433258D01*
X64571970Y26300102D01*
X64633258Y26152142D01*
X64664500Y25995075D01*
X64664500Y25834925D01*
X64633258Y25677858D01*
X64571970Y25529898D01*
X64482998Y25396742D01*
X64369758Y25283502D01*
X64236602Y25194530D01*
X64088642Y25133242D01*
X63931575Y25102000D01*
X63771425Y25102000D01*
X63614358Y25133242D01*
X63466398Y25194530D01*
X63333242Y25283502D01*
X63220002Y25396742D01*
X63131030Y25529898D01*
X63069742Y25677858D01*
X63038500Y25834925D01*
X63038500Y25995075D01*
X63069742Y26152142D01*
X63131030Y26300102D01*
X63220002Y26433258D01*
X63333242Y26546498D01*
X63466398Y26635470D01*
X63614358Y26696758D01*
X63771425Y26728000D01*
X63931575Y26728000D01*
X64088642Y26696758D01*
X64088642Y26696758D01*
G37*
G36*
X3128642Y26696758D02*
G01*
X3276602Y26635470D01*
X3409758Y26546498D01*
X3522998Y26433258D01*
X3611970Y26300102D01*
X3673258Y26152142D01*
X3704500Y25995075D01*
X3704500Y25834925D01*
X3673258Y25677858D01*
X3611970Y25529898D01*
X3522998Y25396742D01*
X3409758Y25283502D01*
X3276602Y25194530D01*
X3128642Y25133242D01*
X2971575Y25102000D01*
X2811425Y25102000D01*
X2654358Y25133242D01*
X2506398Y25194530D01*
X2373242Y25283502D01*
X2260002Y25396742D01*
X2171030Y25529898D01*
X2109742Y25677858D01*
X2078500Y25834925D01*
X2078500Y25995075D01*
X2109742Y26152142D01*
X2171030Y26300102D01*
X2260002Y26433258D01*
X2373242Y26546498D01*
X2506398Y26635470D01*
X2654358Y26696758D01*
X2811425Y26728000D01*
X2971575Y26728000D01*
X3128642Y26696758D01*
X3128642Y26696758D01*
G37*
G36*
X66628642Y26696758D02*
G01*
X66776602Y26635470D01*
X66909758Y26546498D01*
X67022998Y26433258D01*
X67111970Y26300102D01*
X67173258Y26152142D01*
X67204500Y25995075D01*
X67204500Y25834925D01*
X67173258Y25677858D01*
X67111970Y25529898D01*
X67022998Y25396742D01*
X66909758Y25283502D01*
X66776602Y25194530D01*
X66628642Y25133242D01*
X66471575Y25102000D01*
X66311425Y25102000D01*
X66154358Y25133242D01*
X66006398Y25194530D01*
X65873242Y25283502D01*
X65760002Y25396742D01*
X65671030Y25529898D01*
X65609742Y25677858D01*
X65578500Y25834925D01*
X65578500Y25995075D01*
X65609742Y26152142D01*
X65671030Y26300102D01*
X65760002Y26433258D01*
X65873242Y26546498D01*
X66006398Y26635470D01*
X66154358Y26696758D01*
X66311425Y26728000D01*
X66471575Y26728000D01*
X66628642Y26696758D01*
X66628642Y26696758D01*
G37*
G36*
X5668642Y26696758D02*
G01*
X5816602Y26635470D01*
X5949758Y26546498D01*
X6062998Y26433258D01*
X6151970Y26300102D01*
X6213258Y26152142D01*
X6244500Y25995075D01*
X6244500Y25834925D01*
X6213258Y25677858D01*
X6151970Y25529898D01*
X6062998Y25396742D01*
X5949758Y25283502D01*
X5816602Y25194530D01*
X5668642Y25133242D01*
X5511575Y25102000D01*
X5351425Y25102000D01*
X5194358Y25133242D01*
X5046398Y25194530D01*
X4913242Y25283502D01*
X4800002Y25396742D01*
X4711030Y25529898D01*
X4649742Y25677858D01*
X4618500Y25834925D01*
X4618500Y25995075D01*
X4649742Y26152142D01*
X4711030Y26300102D01*
X4800002Y26433258D01*
X4913242Y26546498D01*
X5046398Y26635470D01*
X5194358Y26696758D01*
X5351425Y26728000D01*
X5511575Y26728000D01*
X5668642Y26696758D01*
X5668642Y26696758D01*
G37*
G36*
X12430600Y25931400D02*
G01*
X10601400Y25931400D01*
X10601400Y27760600D01*
X12430600Y27760600D01*
X12430600Y25931400D01*
X12430600Y25931400D01*
G37*
G36*
X14235294Y27747367D02*
G01*
X14407694Y27695069D01*
X14407696Y27695068D01*
X14566583Y27610141D01*
X14566585Y27610140D01*
X14566584Y27610140D01*
X14705849Y27495849D01*
X14820140Y27356584D01*
X14905069Y27197694D01*
X14957367Y27025294D01*
X14975025Y26846000D01*
X14957367Y26666706D01*
X14905069Y26494306D01*
X14905068Y26494304D01*
X14820141Y26335417D01*
X14705849Y26196151D01*
X14566583Y26081859D01*
X14407696Y25996932D01*
X14407694Y25996931D01*
X14235294Y25944633D01*
X14100931Y25931400D01*
X14011069Y25931400D01*
X13876706Y25944633D01*
X13704306Y25996931D01*
X13704304Y25996932D01*
X13545417Y26081859D01*
X13406151Y26196151D01*
X13291859Y26335417D01*
X13206932Y26494304D01*
X13206931Y26494306D01*
X13154633Y26666706D01*
X13136975Y26846000D01*
X13154633Y27025294D01*
X13206931Y27197694D01*
X13291860Y27356584D01*
X13406151Y27495849D01*
X13545416Y27610140D01*
X13545415Y27610140D01*
X13545417Y27610141D01*
X13704304Y27695068D01*
X13704306Y27695069D01*
X13876706Y27747367D01*
X14011069Y27760600D01*
X14100931Y27760600D01*
X14235294Y27747367D01*
X14235294Y27747367D01*
G37*
G36*
X66628642Y29236758D02*
G01*
X66776602Y29175470D01*
X66909758Y29086498D01*
X67022998Y28973258D01*
X67111970Y28840102D01*
X67173258Y28692142D01*
X67204500Y28535075D01*
X67204500Y28374925D01*
X67173258Y28217858D01*
X67111970Y28069898D01*
X67022998Y27936742D01*
X66909758Y27823502D01*
X66776602Y27734530D01*
X66628642Y27673242D01*
X66471575Y27642000D01*
X66311425Y27642000D01*
X66154358Y27673242D01*
X66006398Y27734530D01*
X65873242Y27823502D01*
X65760002Y27936742D01*
X65671030Y28069898D01*
X65609742Y28217858D01*
X65578500Y28374925D01*
X65578500Y28535075D01*
X65609742Y28692142D01*
X65671030Y28840102D01*
X65760002Y28973258D01*
X65873242Y29086498D01*
X66006398Y29175470D01*
X66154358Y29236758D01*
X66311425Y29268000D01*
X66471575Y29268000D01*
X66628642Y29236758D01*
X66628642Y29236758D01*
G37*
G36*
X64088642Y29236758D02*
G01*
X64236602Y29175470D01*
X64369758Y29086498D01*
X64482998Y28973258D01*
X64571970Y28840102D01*
X64633258Y28692142D01*
X64664500Y28535075D01*
X64664500Y28374925D01*
X64633258Y28217858D01*
X64571970Y28069898D01*
X64482998Y27936742D01*
X64369758Y27823502D01*
X64236602Y27734530D01*
X64088642Y27673242D01*
X63931575Y27642000D01*
X63771425Y27642000D01*
X63614358Y27673242D01*
X63466398Y27734530D01*
X63333242Y27823502D01*
X63220002Y27936742D01*
X63131030Y28069898D01*
X63069742Y28217858D01*
X63038500Y28374925D01*
X63038500Y28535075D01*
X63069742Y28692142D01*
X63131030Y28840102D01*
X63220002Y28973258D01*
X63333242Y29086498D01*
X63466398Y29175470D01*
X63614358Y29236758D01*
X63771425Y29268000D01*
X63931575Y29268000D01*
X64088642Y29236758D01*
X64088642Y29236758D01*
G37*
G36*
X5668642Y29236758D02*
G01*
X5816602Y29175470D01*
X5949758Y29086498D01*
X6062998Y28973258D01*
X6151970Y28840102D01*
X6213258Y28692142D01*
X6244500Y28535075D01*
X6244500Y28374925D01*
X6213258Y28217858D01*
X6151970Y28069898D01*
X6062998Y27936742D01*
X5949758Y27823502D01*
X5816602Y27734530D01*
X5668642Y27673242D01*
X5511575Y27642000D01*
X5351425Y27642000D01*
X5194358Y27673242D01*
X5046398Y27734530D01*
X4913242Y27823502D01*
X4800002Y27936742D01*
X4711030Y28069898D01*
X4649742Y28217858D01*
X4618500Y28374925D01*
X4618500Y28535075D01*
X4649742Y28692142D01*
X4711030Y28840102D01*
X4800002Y28973258D01*
X4913242Y29086498D01*
X5046398Y29175470D01*
X5194358Y29236758D01*
X5351425Y29268000D01*
X5511575Y29268000D01*
X5668642Y29236758D01*
X5668642Y29236758D01*
G37*
G36*
X3128642Y29236758D02*
G01*
X3276602Y29175470D01*
X3409758Y29086498D01*
X3522998Y28973258D01*
X3611970Y28840102D01*
X3673258Y28692142D01*
X3704500Y28535075D01*
X3704500Y28374925D01*
X3673258Y28217858D01*
X3611970Y28069898D01*
X3522998Y27936742D01*
X3409758Y27823502D01*
X3276602Y27734530D01*
X3128642Y27673242D01*
X2971575Y27642000D01*
X2811425Y27642000D01*
X2654358Y27673242D01*
X2506398Y27734530D01*
X2373242Y27823502D01*
X2260002Y27936742D01*
X2171030Y28069898D01*
X2109742Y28217858D01*
X2078500Y28374925D01*
X2078500Y28535075D01*
X2109742Y28692142D01*
X2171030Y28840102D01*
X2260002Y28973258D01*
X2373242Y29086498D01*
X2506398Y29175470D01*
X2654358Y29236758D01*
X2811425Y29268000D01*
X2971575Y29268000D01*
X3128642Y29236758D01*
X3128642Y29236758D01*
G37*
G36*
X5668642Y31776758D02*
G01*
X5816602Y31715470D01*
X5949758Y31626498D01*
X6062998Y31513258D01*
X6151970Y31380102D01*
X6213258Y31232142D01*
X6244500Y31075075D01*
X6244500Y30914925D01*
X6213258Y30757858D01*
X6151970Y30609898D01*
X6062998Y30476742D01*
X5949758Y30363502D01*
X5816602Y30274530D01*
X5668642Y30213242D01*
X5511575Y30182000D01*
X5351425Y30182000D01*
X5194358Y30213242D01*
X5046398Y30274530D01*
X4913242Y30363502D01*
X4800002Y30476742D01*
X4711030Y30609898D01*
X4649742Y30757858D01*
X4618500Y30914925D01*
X4618500Y31075075D01*
X4649742Y31232142D01*
X4711030Y31380102D01*
X4800002Y31513258D01*
X4913242Y31626498D01*
X5046398Y31715470D01*
X5194358Y31776758D01*
X5351425Y31808000D01*
X5511575Y31808000D01*
X5668642Y31776758D01*
X5668642Y31776758D01*
G37*
G36*
X64088642Y31776758D02*
G01*
X64236602Y31715470D01*
X64369758Y31626498D01*
X64482998Y31513258D01*
X64571970Y31380102D01*
X64633258Y31232142D01*
X64664500Y31075075D01*
X64664500Y30914925D01*
X64633258Y30757858D01*
X64571970Y30609898D01*
X64482998Y30476742D01*
X64369758Y30363502D01*
X64236602Y30274530D01*
X64088642Y30213242D01*
X63931575Y30182000D01*
X63771425Y30182000D01*
X63614358Y30213242D01*
X63466398Y30274530D01*
X63333242Y30363502D01*
X63220002Y30476742D01*
X63131030Y30609898D01*
X63069742Y30757858D01*
X63038500Y30914925D01*
X63038500Y31075075D01*
X63069742Y31232142D01*
X63131030Y31380102D01*
X63220002Y31513258D01*
X63333242Y31626498D01*
X63466398Y31715470D01*
X63614358Y31776758D01*
X63771425Y31808000D01*
X63931575Y31808000D01*
X64088642Y31776758D01*
X64088642Y31776758D01*
G37*
G36*
X66628642Y31776758D02*
G01*
X66776602Y31715470D01*
X66909758Y31626498D01*
X67022998Y31513258D01*
X67111970Y31380102D01*
X67173258Y31232142D01*
X67204500Y31075075D01*
X67204500Y30914925D01*
X67173258Y30757858D01*
X67111970Y30609898D01*
X67022998Y30476742D01*
X66909758Y30363502D01*
X66776602Y30274530D01*
X66628642Y30213242D01*
X66471575Y30182000D01*
X66311425Y30182000D01*
X66154358Y30213242D01*
X66006398Y30274530D01*
X65873242Y30363502D01*
X65760002Y30476742D01*
X65671030Y30609898D01*
X65609742Y30757858D01*
X65578500Y30914925D01*
X65578500Y31075075D01*
X65609742Y31232142D01*
X65671030Y31380102D01*
X65760002Y31513258D01*
X65873242Y31626498D01*
X66006398Y31715470D01*
X66154358Y31776758D01*
X66311425Y31808000D01*
X66471575Y31808000D01*
X66628642Y31776758D01*
X66628642Y31776758D01*
G37*
G36*
X3128642Y31776758D02*
G01*
X3276602Y31715470D01*
X3409758Y31626498D01*
X3522998Y31513258D01*
X3611970Y31380102D01*
X3673258Y31232142D01*
X3704500Y31075075D01*
X3704500Y30914925D01*
X3673258Y30757858D01*
X3611970Y30609898D01*
X3522998Y30476742D01*
X3409758Y30363502D01*
X3276602Y30274530D01*
X3128642Y30213242D01*
X2971575Y30182000D01*
X2811425Y30182000D01*
X2654358Y30213242D01*
X2506398Y30274530D01*
X2373242Y30363502D01*
X2260002Y30476742D01*
X2171030Y30609898D01*
X2109742Y30757858D01*
X2078500Y30914925D01*
X2078500Y31075075D01*
X2109742Y31232142D01*
X2171030Y31380102D01*
X2260002Y31513258D01*
X2373242Y31626498D01*
X2506398Y31715470D01*
X2654358Y31776758D01*
X2811425Y31808000D01*
X2971575Y31808000D01*
X3128642Y31776758D01*
X3128642Y31776758D01*
G37*
G36*
X64088642Y34316758D02*
G01*
X64236602Y34255470D01*
X64369758Y34166498D01*
X64482998Y34053258D01*
X64571970Y33920102D01*
X64633258Y33772142D01*
X64664500Y33615075D01*
X64664500Y33454925D01*
X64633258Y33297858D01*
X64571970Y33149898D01*
X64482998Y33016742D01*
X64369758Y32903502D01*
X64236602Y32814530D01*
X64088642Y32753242D01*
X63931575Y32722000D01*
X63771425Y32722000D01*
X63614358Y32753242D01*
X63466398Y32814530D01*
X63333242Y32903502D01*
X63220002Y33016742D01*
X63131030Y33149898D01*
X63069742Y33297858D01*
X63038500Y33454925D01*
X63038500Y33615075D01*
X63069742Y33772142D01*
X63131030Y33920102D01*
X63220002Y34053258D01*
X63333242Y34166498D01*
X63466398Y34255470D01*
X63614358Y34316758D01*
X63771425Y34348000D01*
X63931575Y34348000D01*
X64088642Y34316758D01*
X64088642Y34316758D01*
G37*
G36*
X3128642Y34316758D02*
G01*
X3276602Y34255470D01*
X3409758Y34166498D01*
X3522998Y34053258D01*
X3611970Y33920102D01*
X3673258Y33772142D01*
X3704500Y33615075D01*
X3704500Y33454925D01*
X3673258Y33297858D01*
X3611970Y33149898D01*
X3522998Y33016742D01*
X3409758Y32903502D01*
X3276602Y32814530D01*
X3128642Y32753242D01*
X2971575Y32722000D01*
X2811425Y32722000D01*
X2654358Y32753242D01*
X2506398Y32814530D01*
X2373242Y32903502D01*
X2260002Y33016742D01*
X2171030Y33149898D01*
X2109742Y33297858D01*
X2078500Y33454925D01*
X2078500Y33615075D01*
X2109742Y33772142D01*
X2171030Y33920102D01*
X2260002Y34053258D01*
X2373242Y34166498D01*
X2506398Y34255470D01*
X2654358Y34316758D01*
X2811425Y34348000D01*
X2971575Y34348000D01*
X3128642Y34316758D01*
X3128642Y34316758D01*
G37*
G36*
X5668642Y34316758D02*
G01*
X5816602Y34255470D01*
X5949758Y34166498D01*
X6062998Y34053258D01*
X6151970Y33920102D01*
X6213258Y33772142D01*
X6244500Y33615075D01*
X6244500Y33454925D01*
X6213258Y33297858D01*
X6151970Y33149898D01*
X6062998Y33016742D01*
X5949758Y32903502D01*
X5816602Y32814530D01*
X5668642Y32753242D01*
X5511575Y32722000D01*
X5351425Y32722000D01*
X5194358Y32753242D01*
X5046398Y32814530D01*
X4913242Y32903502D01*
X4800002Y33016742D01*
X4711030Y33149898D01*
X4649742Y33297858D01*
X4618500Y33454925D01*
X4618500Y33615075D01*
X4649742Y33772142D01*
X4711030Y33920102D01*
X4800002Y34053258D01*
X4913242Y34166498D01*
X5046398Y34255470D01*
X5194358Y34316758D01*
X5351425Y34348000D01*
X5511575Y34348000D01*
X5668642Y34316758D01*
X5668642Y34316758D01*
G37*
G36*
X66628642Y34316758D02*
G01*
X66776602Y34255470D01*
X66909758Y34166498D01*
X67022998Y34053258D01*
X67111970Y33920102D01*
X67173258Y33772142D01*
X67204500Y33615075D01*
X67204500Y33454925D01*
X67173258Y33297858D01*
X67111970Y33149898D01*
X67022998Y33016742D01*
X66909758Y32903502D01*
X66776602Y32814530D01*
X66628642Y32753242D01*
X66471575Y32722000D01*
X66311425Y32722000D01*
X66154358Y32753242D01*
X66006398Y32814530D01*
X65873242Y32903502D01*
X65760002Y33016742D01*
X65671030Y33149898D01*
X65609742Y33297858D01*
X65578500Y33454925D01*
X65578500Y33615075D01*
X65609742Y33772142D01*
X65671030Y33920102D01*
X65760002Y34053258D01*
X65873242Y34166498D01*
X66006398Y34255470D01*
X66154358Y34316758D01*
X66311425Y34348000D01*
X66471575Y34348000D01*
X66628642Y34316758D01*
X66628642Y34316758D01*
G37*
G36*
X64088642Y36856758D02*
G01*
X64236602Y36795470D01*
X64369758Y36706498D01*
X64482998Y36593258D01*
X64571970Y36460102D01*
X64633258Y36312142D01*
X64664500Y36155075D01*
X64664500Y35994925D01*
X64633258Y35837858D01*
X64571970Y35689898D01*
X64482998Y35556742D01*
X64369758Y35443502D01*
X64236602Y35354530D01*
X64088642Y35293242D01*
X63931575Y35262000D01*
X63771425Y35262000D01*
X63614358Y35293242D01*
X63466398Y35354530D01*
X63333242Y35443502D01*
X63220002Y35556742D01*
X63131030Y35689898D01*
X63069742Y35837858D01*
X63038500Y35994925D01*
X63038500Y36155075D01*
X63069742Y36312142D01*
X63131030Y36460102D01*
X63220002Y36593258D01*
X63333242Y36706498D01*
X63466398Y36795470D01*
X63614358Y36856758D01*
X63771425Y36888000D01*
X63931575Y36888000D01*
X64088642Y36856758D01*
X64088642Y36856758D01*
G37*
G36*
X5668642Y36856758D02*
G01*
X5816602Y36795470D01*
X5949758Y36706498D01*
X6062998Y36593258D01*
X6151970Y36460102D01*
X6213258Y36312142D01*
X6244500Y36155075D01*
X6244500Y35994925D01*
X6213258Y35837858D01*
X6151970Y35689898D01*
X6062998Y35556742D01*
X5949758Y35443502D01*
X5816602Y35354530D01*
X5668642Y35293242D01*
X5511575Y35262000D01*
X5351425Y35262000D01*
X5194358Y35293242D01*
X5046398Y35354530D01*
X4913242Y35443502D01*
X4800002Y35556742D01*
X4711030Y35689898D01*
X4649742Y35837858D01*
X4618500Y35994925D01*
X4618500Y36155075D01*
X4649742Y36312142D01*
X4711030Y36460102D01*
X4800002Y36593258D01*
X4913242Y36706498D01*
X5046398Y36795470D01*
X5194358Y36856758D01*
X5351425Y36888000D01*
X5511575Y36888000D01*
X5668642Y36856758D01*
X5668642Y36856758D01*
G37*
G36*
X66628642Y36856758D02*
G01*
X66776602Y36795470D01*
X66909758Y36706498D01*
X67022998Y36593258D01*
X67111970Y36460102D01*
X67173258Y36312142D01*
X67204500Y36155075D01*
X67204500Y35994925D01*
X67173258Y35837858D01*
X67111970Y35689898D01*
X67022998Y35556742D01*
X66909758Y35443502D01*
X66776602Y35354530D01*
X66628642Y35293242D01*
X66471575Y35262000D01*
X66311425Y35262000D01*
X66154358Y35293242D01*
X66006398Y35354530D01*
X65873242Y35443502D01*
X65760002Y35556742D01*
X65671030Y35689898D01*
X65609742Y35837858D01*
X65578500Y35994925D01*
X65578500Y36155075D01*
X65609742Y36312142D01*
X65671030Y36460102D01*
X65760002Y36593258D01*
X65873242Y36706498D01*
X66006398Y36795470D01*
X66154358Y36856758D01*
X66311425Y36888000D01*
X66471575Y36888000D01*
X66628642Y36856758D01*
X66628642Y36856758D01*
G37*
G36*
X3128642Y36856758D02*
G01*
X3276602Y36795470D01*
X3409758Y36706498D01*
X3522998Y36593258D01*
X3611970Y36460102D01*
X3673258Y36312142D01*
X3704500Y36155075D01*
X3704500Y35994925D01*
X3673258Y35837858D01*
X3611970Y35689898D01*
X3522998Y35556742D01*
X3409758Y35443502D01*
X3276602Y35354530D01*
X3128642Y35293242D01*
X2971575Y35262000D01*
X2811425Y35262000D01*
X2654358Y35293242D01*
X2506398Y35354530D01*
X2373242Y35443502D01*
X2260002Y35556742D01*
X2171030Y35689898D01*
X2109742Y35837858D01*
X2078500Y35994925D01*
X2078500Y36155075D01*
X2109742Y36312142D01*
X2171030Y36460102D01*
X2260002Y36593258D01*
X2373242Y36706498D01*
X2506398Y36795470D01*
X2654358Y36856758D01*
X2811425Y36888000D01*
X2971575Y36888000D01*
X3128642Y36856758D01*
X3128642Y36856758D01*
G37*
G36*
X64088642Y39396758D02*
G01*
X64236602Y39335470D01*
X64369758Y39246498D01*
X64482998Y39133258D01*
X64571970Y39000102D01*
X64633258Y38852142D01*
X64664500Y38695075D01*
X64664500Y38534925D01*
X64633258Y38377858D01*
X64571970Y38229898D01*
X64482998Y38096742D01*
X64369758Y37983502D01*
X64236602Y37894530D01*
X64088642Y37833242D01*
X63931575Y37802000D01*
X63771425Y37802000D01*
X63614358Y37833242D01*
X63466398Y37894530D01*
X63333242Y37983502D01*
X63220002Y38096742D01*
X63131030Y38229898D01*
X63069742Y38377858D01*
X63038500Y38534925D01*
X63038500Y38695075D01*
X63069742Y38852142D01*
X63131030Y39000102D01*
X63220002Y39133258D01*
X63333242Y39246498D01*
X63466398Y39335470D01*
X63614358Y39396758D01*
X63771425Y39428000D01*
X63931575Y39428000D01*
X64088642Y39396758D01*
X64088642Y39396758D01*
G37*
G36*
X66628642Y39396758D02*
G01*
X66776602Y39335470D01*
X66909758Y39246498D01*
X67022998Y39133258D01*
X67111970Y39000102D01*
X67173258Y38852142D01*
X67204500Y38695075D01*
X67204500Y38534925D01*
X67173258Y38377858D01*
X67111970Y38229898D01*
X67022998Y38096742D01*
X66909758Y37983502D01*
X66776602Y37894530D01*
X66628642Y37833242D01*
X66471575Y37802000D01*
X66311425Y37802000D01*
X66154358Y37833242D01*
X66006398Y37894530D01*
X65873242Y37983502D01*
X65760002Y38096742D01*
X65671030Y38229898D01*
X65609742Y38377858D01*
X65578500Y38534925D01*
X65578500Y38695075D01*
X65609742Y38852142D01*
X65671030Y39000102D01*
X65760002Y39133258D01*
X65873242Y39246498D01*
X66006398Y39335470D01*
X66154358Y39396758D01*
X66311425Y39428000D01*
X66471575Y39428000D01*
X66628642Y39396758D01*
X66628642Y39396758D01*
G37*
G36*
X5668642Y39396758D02*
G01*
X5816602Y39335470D01*
X5949758Y39246498D01*
X6062998Y39133258D01*
X6151970Y39000102D01*
X6213258Y38852142D01*
X6244500Y38695075D01*
X6244500Y38534925D01*
X6213258Y38377858D01*
X6151970Y38229898D01*
X6062998Y38096742D01*
X5949758Y37983502D01*
X5816602Y37894530D01*
X5668642Y37833242D01*
X5511575Y37802000D01*
X5351425Y37802000D01*
X5194358Y37833242D01*
X5046398Y37894530D01*
X4913242Y37983502D01*
X4800002Y38096742D01*
X4711030Y38229898D01*
X4649742Y38377858D01*
X4618500Y38534925D01*
X4618500Y38695075D01*
X4649742Y38852142D01*
X4711030Y39000102D01*
X4800002Y39133258D01*
X4913242Y39246498D01*
X5046398Y39335470D01*
X5194358Y39396758D01*
X5351425Y39428000D01*
X5511575Y39428000D01*
X5668642Y39396758D01*
X5668642Y39396758D01*
G37*
G36*
X3128642Y39396758D02*
G01*
X3276602Y39335470D01*
X3409758Y39246498D01*
X3522998Y39133258D01*
X3611970Y39000102D01*
X3673258Y38852142D01*
X3704500Y38695075D01*
X3704500Y38534925D01*
X3673258Y38377858D01*
X3611970Y38229898D01*
X3522998Y38096742D01*
X3409758Y37983502D01*
X3276602Y37894530D01*
X3128642Y37833242D01*
X2971575Y37802000D01*
X2811425Y37802000D01*
X2654358Y37833242D01*
X2506398Y37894530D01*
X2373242Y37983502D01*
X2260002Y38096742D01*
X2171030Y38229898D01*
X2109742Y38377858D01*
X2078500Y38534925D01*
X2078500Y38695075D01*
X2109742Y38852142D01*
X2171030Y39000102D01*
X2260002Y39133258D01*
X2373242Y39246498D01*
X2506398Y39335470D01*
X2654358Y39396758D01*
X2811425Y39428000D01*
X2971575Y39428000D01*
X3128642Y39396758D01*
X3128642Y39396758D01*
G37*
G36*
X66628642Y41936758D02*
G01*
X66776602Y41875470D01*
X66909758Y41786498D01*
X67022998Y41673258D01*
X67111970Y41540102D01*
X67173258Y41392142D01*
X67204500Y41235075D01*
X67204500Y41074925D01*
X67173258Y40917858D01*
X67111970Y40769898D01*
X67022998Y40636742D01*
X66909758Y40523502D01*
X66776602Y40434530D01*
X66628642Y40373242D01*
X66471575Y40342000D01*
X66311425Y40342000D01*
X66154358Y40373242D01*
X66006398Y40434530D01*
X65873242Y40523502D01*
X65760002Y40636742D01*
X65671030Y40769898D01*
X65609742Y40917858D01*
X65578500Y41074925D01*
X65578500Y41235075D01*
X65609742Y41392142D01*
X65671030Y41540102D01*
X65760002Y41673258D01*
X65873242Y41786498D01*
X66006398Y41875470D01*
X66154358Y41936758D01*
X66311425Y41968000D01*
X66471575Y41968000D01*
X66628642Y41936758D01*
X66628642Y41936758D01*
G37*
G36*
X64088642Y41936758D02*
G01*
X64236602Y41875470D01*
X64369758Y41786498D01*
X64482998Y41673258D01*
X64571970Y41540102D01*
X64633258Y41392142D01*
X64664500Y41235075D01*
X64664500Y41074925D01*
X64633258Y40917858D01*
X64571970Y40769898D01*
X64482998Y40636742D01*
X64369758Y40523502D01*
X64236602Y40434530D01*
X64088642Y40373242D01*
X63931575Y40342000D01*
X63771425Y40342000D01*
X63614358Y40373242D01*
X63466398Y40434530D01*
X63333242Y40523502D01*
X63220002Y40636742D01*
X63131030Y40769898D01*
X63069742Y40917858D01*
X63038500Y41074925D01*
X63038500Y41235075D01*
X63069742Y41392142D01*
X63131030Y41540102D01*
X63220002Y41673258D01*
X63333242Y41786498D01*
X63466398Y41875470D01*
X63614358Y41936758D01*
X63771425Y41968000D01*
X63931575Y41968000D01*
X64088642Y41936758D01*
X64088642Y41936758D01*
G37*
G36*
X5668642Y41936758D02*
G01*
X5816602Y41875470D01*
X5949758Y41786498D01*
X6062998Y41673258D01*
X6151970Y41540102D01*
X6213258Y41392142D01*
X6244500Y41235075D01*
X6244500Y41074925D01*
X6213258Y40917858D01*
X6151970Y40769898D01*
X6062998Y40636742D01*
X5949758Y40523502D01*
X5816602Y40434530D01*
X5668642Y40373242D01*
X5511575Y40342000D01*
X5351425Y40342000D01*
X5194358Y40373242D01*
X5046398Y40434530D01*
X4913242Y40523502D01*
X4800002Y40636742D01*
X4711030Y40769898D01*
X4649742Y40917858D01*
X4618500Y41074925D01*
X4618500Y41235075D01*
X4649742Y41392142D01*
X4711030Y41540102D01*
X4800002Y41673258D01*
X4913242Y41786498D01*
X5046398Y41875470D01*
X5194358Y41936758D01*
X5351425Y41968000D01*
X5511575Y41968000D01*
X5668642Y41936758D01*
X5668642Y41936758D01*
G37*
G36*
X3128642Y41936758D02*
G01*
X3276602Y41875470D01*
X3409758Y41786498D01*
X3522998Y41673258D01*
X3611970Y41540102D01*
X3673258Y41392142D01*
X3704500Y41235075D01*
X3704500Y41074925D01*
X3673258Y40917858D01*
X3611970Y40769898D01*
X3522998Y40636742D01*
X3409758Y40523502D01*
X3276602Y40434530D01*
X3128642Y40373242D01*
X2971575Y40342000D01*
X2811425Y40342000D01*
X2654358Y40373242D01*
X2506398Y40434530D01*
X2373242Y40523502D01*
X2260002Y40636742D01*
X2171030Y40769898D01*
X2109742Y40917858D01*
X2078500Y41074925D01*
X2078500Y41235075D01*
X2109742Y41392142D01*
X2171030Y41540102D01*
X2260002Y41673258D01*
X2373242Y41786498D01*
X2506398Y41875470D01*
X2654358Y41936758D01*
X2811425Y41968000D01*
X2971575Y41968000D01*
X3128642Y41936758D01*
X3128642Y41936758D01*
G37*
G36*
X3128642Y44476758D02*
G01*
X3276602Y44415470D01*
X3409758Y44326498D01*
X3522998Y44213258D01*
X3611970Y44080102D01*
X3673258Y43932142D01*
X3704500Y43775075D01*
X3704500Y43614925D01*
X3673258Y43457858D01*
X3611970Y43309898D01*
X3522998Y43176742D01*
X3409758Y43063502D01*
X3276602Y42974530D01*
X3128642Y42913242D01*
X2971575Y42882000D01*
X2811425Y42882000D01*
X2654358Y42913242D01*
X2506398Y42974530D01*
X2373242Y43063502D01*
X2260002Y43176742D01*
X2171030Y43309898D01*
X2109742Y43457858D01*
X2078500Y43614925D01*
X2078500Y43775075D01*
X2109742Y43932142D01*
X2171030Y44080102D01*
X2260002Y44213258D01*
X2373242Y44326498D01*
X2506398Y44415470D01*
X2654358Y44476758D01*
X2811425Y44508000D01*
X2971575Y44508000D01*
X3128642Y44476758D01*
X3128642Y44476758D01*
G37*
G36*
X66628642Y44476758D02*
G01*
X66776602Y44415470D01*
X66909758Y44326498D01*
X67022998Y44213258D01*
X67111970Y44080102D01*
X67173258Y43932142D01*
X67204500Y43775075D01*
X67204500Y43614925D01*
X67173258Y43457858D01*
X67111970Y43309898D01*
X67022998Y43176742D01*
X66909758Y43063502D01*
X66776602Y42974530D01*
X66628642Y42913242D01*
X66471575Y42882000D01*
X66311425Y42882000D01*
X66154358Y42913242D01*
X66006398Y42974530D01*
X65873242Y43063502D01*
X65760002Y43176742D01*
X65671030Y43309898D01*
X65609742Y43457858D01*
X65578500Y43614925D01*
X65578500Y43775075D01*
X65609742Y43932142D01*
X65671030Y44080102D01*
X65760002Y44213258D01*
X65873242Y44326498D01*
X66006398Y44415470D01*
X66154358Y44476758D01*
X66311425Y44508000D01*
X66471575Y44508000D01*
X66628642Y44476758D01*
X66628642Y44476758D01*
G37*
G36*
X5668642Y44476758D02*
G01*
X5816602Y44415470D01*
X5949758Y44326498D01*
X6062998Y44213258D01*
X6151970Y44080102D01*
X6213258Y43932142D01*
X6244500Y43775075D01*
X6244500Y43614925D01*
X6213258Y43457858D01*
X6151970Y43309898D01*
X6062998Y43176742D01*
X5949758Y43063502D01*
X5816602Y42974530D01*
X5668642Y42913242D01*
X5511575Y42882000D01*
X5351425Y42882000D01*
X5194358Y42913242D01*
X5046398Y42974530D01*
X4913242Y43063502D01*
X4800002Y43176742D01*
X4711030Y43309898D01*
X4649742Y43457858D01*
X4618500Y43614925D01*
X4618500Y43775075D01*
X4649742Y43932142D01*
X4711030Y44080102D01*
X4800002Y44213258D01*
X4913242Y44326498D01*
X5046398Y44415470D01*
X5194358Y44476758D01*
X5351425Y44508000D01*
X5511575Y44508000D01*
X5668642Y44476758D01*
X5668642Y44476758D01*
G37*
G36*
X64088642Y44476758D02*
G01*
X64236602Y44415470D01*
X64369758Y44326498D01*
X64482998Y44213258D01*
X64571970Y44080102D01*
X64633258Y43932142D01*
X64664500Y43775075D01*
X64664500Y43614925D01*
X64633258Y43457858D01*
X64571970Y43309898D01*
X64482998Y43176742D01*
X64369758Y43063502D01*
X64236602Y42974530D01*
X64088642Y42913242D01*
X63931575Y42882000D01*
X63771425Y42882000D01*
X63614358Y42913242D01*
X63466398Y42974530D01*
X63333242Y43063502D01*
X63220002Y43176742D01*
X63131030Y43309898D01*
X63069742Y43457858D01*
X63038500Y43614925D01*
X63038500Y43775075D01*
X63069742Y43932142D01*
X63131030Y44080102D01*
X63220002Y44213258D01*
X63333242Y44326498D01*
X63466398Y44415470D01*
X63614358Y44476758D01*
X63771425Y44508000D01*
X63931575Y44508000D01*
X64088642Y44476758D01*
X64088642Y44476758D01*
G37*
G36*
X64088642Y47016758D02*
G01*
X64236602Y46955470D01*
X64369758Y46866498D01*
X64482998Y46753258D01*
X64571970Y46620102D01*
X64633258Y46472142D01*
X64664500Y46315075D01*
X64664500Y46154925D01*
X64633258Y45997858D01*
X64571970Y45849898D01*
X64482998Y45716742D01*
X64369758Y45603502D01*
X64236602Y45514530D01*
X64088642Y45453242D01*
X63931575Y45422000D01*
X63771425Y45422000D01*
X63614358Y45453242D01*
X63466398Y45514530D01*
X63333242Y45603502D01*
X63220002Y45716742D01*
X63131030Y45849898D01*
X63069742Y45997858D01*
X63038500Y46154925D01*
X63038500Y46315075D01*
X63069742Y46472142D01*
X63131030Y46620102D01*
X63220002Y46753258D01*
X63333242Y46866498D01*
X63466398Y46955470D01*
X63614358Y47016758D01*
X63771425Y47048000D01*
X63931575Y47048000D01*
X64088642Y47016758D01*
X64088642Y47016758D01*
G37*
G36*
X66628642Y47016758D02*
G01*
X66776602Y46955470D01*
X66909758Y46866498D01*
X67022998Y46753258D01*
X67111970Y46620102D01*
X67173258Y46472142D01*
X67204500Y46315075D01*
X67204500Y46154925D01*
X67173258Y45997858D01*
X67111970Y45849898D01*
X67022998Y45716742D01*
X66909758Y45603502D01*
X66776602Y45514530D01*
X66628642Y45453242D01*
X66471575Y45422000D01*
X66311425Y45422000D01*
X66154358Y45453242D01*
X66006398Y45514530D01*
X65873242Y45603502D01*
X65760002Y45716742D01*
X65671030Y45849898D01*
X65609742Y45997858D01*
X65578500Y46154925D01*
X65578500Y46315075D01*
X65609742Y46472142D01*
X65671030Y46620102D01*
X65760002Y46753258D01*
X65873242Y46866498D01*
X66006398Y46955470D01*
X66154358Y47016758D01*
X66311425Y47048000D01*
X66471575Y47048000D01*
X66628642Y47016758D01*
X66628642Y47016758D01*
G37*
G36*
X3128642Y47016758D02*
G01*
X3276602Y46955470D01*
X3409758Y46866498D01*
X3522998Y46753258D01*
X3611970Y46620102D01*
X3673258Y46472142D01*
X3704500Y46315075D01*
X3704500Y46154925D01*
X3673258Y45997858D01*
X3611970Y45849898D01*
X3522998Y45716742D01*
X3409758Y45603502D01*
X3276602Y45514530D01*
X3128642Y45453242D01*
X2971575Y45422000D01*
X2811425Y45422000D01*
X2654358Y45453242D01*
X2506398Y45514530D01*
X2373242Y45603502D01*
X2260002Y45716742D01*
X2171030Y45849898D01*
X2109742Y45997858D01*
X2078500Y46154925D01*
X2078500Y46315075D01*
X2109742Y46472142D01*
X2171030Y46620102D01*
X2260002Y46753258D01*
X2373242Y46866498D01*
X2506398Y46955470D01*
X2654358Y47016758D01*
X2811425Y47048000D01*
X2971575Y47048000D01*
X3128642Y47016758D01*
X3128642Y47016758D01*
G37*
G36*
X5668642Y47016758D02*
G01*
X5816602Y46955470D01*
X5949758Y46866498D01*
X6062998Y46753258D01*
X6151970Y46620102D01*
X6213258Y46472142D01*
X6244500Y46315075D01*
X6244500Y46154925D01*
X6213258Y45997858D01*
X6151970Y45849898D01*
X6062998Y45716742D01*
X5949758Y45603502D01*
X5816602Y45514530D01*
X5668642Y45453242D01*
X5511575Y45422000D01*
X5351425Y45422000D01*
X5194358Y45453242D01*
X5046398Y45514530D01*
X4913242Y45603502D01*
X4800002Y45716742D01*
X4711030Y45849898D01*
X4649742Y45997858D01*
X4618500Y46154925D01*
X4618500Y46315075D01*
X4649742Y46472142D01*
X4711030Y46620102D01*
X4800002Y46753258D01*
X4913242Y46866498D01*
X5046398Y46955470D01*
X5194358Y47016758D01*
X5351425Y47048000D01*
X5511575Y47048000D01*
X5668642Y47016758D01*
X5668642Y47016758D01*
G37*
G36*
X64664500Y47962000D02*
G01*
X63038500Y47962000D01*
X63038500Y49588000D01*
X64664500Y49588000D01*
X64664500Y47962000D01*
X64664500Y47962000D01*
G37*
G36*
X3704500Y47962000D02*
G01*
X2078500Y47962000D01*
X2078500Y49588000D01*
X3704500Y49588000D01*
X3704500Y47962000D01*
X3704500Y47962000D01*
G37*
G36*
X66628642Y49556758D02*
G01*
X66776602Y49495470D01*
X66909758Y49406498D01*
X67022998Y49293258D01*
X67111970Y49160102D01*
X67173258Y49012142D01*
X67204500Y48855075D01*
X67204500Y48694925D01*
X67173258Y48537858D01*
X67111970Y48389898D01*
X67022998Y48256742D01*
X66909758Y48143502D01*
X66776602Y48054530D01*
X66628642Y47993242D01*
X66471575Y47962000D01*
X66311425Y47962000D01*
X66154358Y47993242D01*
X66006398Y48054530D01*
X65873242Y48143502D01*
X65760002Y48256742D01*
X65671030Y48389898D01*
X65609742Y48537858D01*
X65578500Y48694925D01*
X65578500Y48855075D01*
X65609742Y49012142D01*
X65671030Y49160102D01*
X65760002Y49293258D01*
X65873242Y49406498D01*
X66006398Y49495470D01*
X66154358Y49556758D01*
X66311425Y49588000D01*
X66471575Y49588000D01*
X66628642Y49556758D01*
X66628642Y49556758D01*
G37*
G36*
X5668642Y49556758D02*
G01*
X5816602Y49495470D01*
X5949758Y49406498D01*
X6062998Y49293258D01*
X6151970Y49160102D01*
X6213258Y49012142D01*
X6244500Y48855075D01*
X6244500Y48694925D01*
X6213258Y48537858D01*
X6151970Y48389898D01*
X6062998Y48256742D01*
X5949758Y48143502D01*
X5816602Y48054530D01*
X5668642Y47993242D01*
X5511575Y47962000D01*
X5351425Y47962000D01*
X5194358Y47993242D01*
X5046398Y48054530D01*
X4913242Y48143502D01*
X4800002Y48256742D01*
X4711030Y48389898D01*
X4649742Y48537858D01*
X4618500Y48694925D01*
X4618500Y48855075D01*
X4649742Y49012142D01*
X4711030Y49160102D01*
X4800002Y49293258D01*
X4913242Y49406498D01*
X5046398Y49495470D01*
X5194358Y49556758D01*
X5351425Y49588000D01*
X5511575Y49588000D01*
X5668642Y49556758D01*
X5668642Y49556758D01*
G37*
G36*
X40110442Y52234482D02*
G01*
X40176627Y52227963D01*
X40289853Y52193616D01*
X40346467Y52176443D01*
X40485087Y52102348D01*
X40502991Y52092778D01*
X40538729Y52063448D01*
X40640186Y51980186D01*
X40723448Y51878729D01*
X40752778Y51842991D01*
X40752779Y51842989D01*
X40836443Y51686467D01*
X40836443Y51686466D01*
X40887963Y51516627D01*
X40905359Y51340000D01*
X40887963Y51163373D01*
X40853616Y51050147D01*
X40836443Y50993533D01*
X40762348Y50854913D01*
X40752778Y50837009D01*
X40723448Y50801271D01*
X40640186Y50699814D01*
X40538729Y50616552D01*
X40502991Y50587222D01*
X40502989Y50587221D01*
X40346467Y50503557D01*
X40289853Y50486384D01*
X40176627Y50452037D01*
X40110443Y50445519D01*
X40044260Y50439000D01*
X39955740Y50439000D01*
X39889557Y50445519D01*
X39823373Y50452037D01*
X39710147Y50486384D01*
X39653533Y50503557D01*
X39497011Y50587221D01*
X39497009Y50587222D01*
X39461271Y50616552D01*
X39359814Y50699814D01*
X39276552Y50801271D01*
X39247222Y50837009D01*
X39237652Y50854913D01*
X39163557Y50993533D01*
X39146384Y51050147D01*
X39112037Y51163373D01*
X39094641Y51340000D01*
X39112037Y51516627D01*
X39163557Y51686466D01*
X39163557Y51686467D01*
X39247221Y51842989D01*
X39247222Y51842991D01*
X39276552Y51878729D01*
X39359814Y51980186D01*
X39461271Y52063448D01*
X39497009Y52092778D01*
X39514913Y52102348D01*
X39653533Y52176443D01*
X39710147Y52193616D01*
X39823373Y52227963D01*
X39889558Y52234482D01*
X39955740Y52241000D01*
X40044260Y52241000D01*
X40110442Y52234482D01*
X40110442Y52234482D01*
G37*
G36*
X40110443Y54774481D02*
G01*
X40176627Y54767963D01*
X40289853Y54733616D01*
X40346467Y54716443D01*
X40485087Y54642348D01*
X40502991Y54632778D01*
X40538729Y54603448D01*
X40640186Y54520186D01*
X40723448Y54418729D01*
X40752778Y54382991D01*
X40752779Y54382989D01*
X40836443Y54226467D01*
X40836443Y54226466D01*
X40887963Y54056627D01*
X40905359Y53880000D01*
X40887963Y53703373D01*
X40853616Y53590147D01*
X40836443Y53533533D01*
X40762348Y53394913D01*
X40752778Y53377009D01*
X40723448Y53341271D01*
X40640186Y53239814D01*
X40538729Y53156552D01*
X40502991Y53127222D01*
X40502989Y53127221D01*
X40346467Y53043557D01*
X40289853Y53026384D01*
X40176627Y52992037D01*
X40110442Y52985518D01*
X40044260Y52979000D01*
X39955740Y52979000D01*
X39889558Y52985518D01*
X39823373Y52992037D01*
X39710147Y53026384D01*
X39653533Y53043557D01*
X39497011Y53127221D01*
X39497009Y53127222D01*
X39461271Y53156552D01*
X39359814Y53239814D01*
X39276552Y53341271D01*
X39247222Y53377009D01*
X39237652Y53394913D01*
X39163557Y53533533D01*
X39146384Y53590147D01*
X39112037Y53703373D01*
X39094641Y53880000D01*
X39112037Y54056627D01*
X39163557Y54226466D01*
X39163557Y54226467D01*
X39247221Y54382989D01*
X39247222Y54382991D01*
X39276552Y54418729D01*
X39359814Y54520186D01*
X39461271Y54603448D01*
X39497009Y54632778D01*
X39514913Y54642348D01*
X39653533Y54716443D01*
X39710147Y54733616D01*
X39823373Y54767963D01*
X39889557Y54774481D01*
X39955740Y54781000D01*
X40044260Y54781000D01*
X40110443Y54774481D01*
X40110443Y54774481D01*
G37*
G36*
X40110442Y57314482D02*
G01*
X40176627Y57307963D01*
X40289853Y57273616D01*
X40346467Y57256443D01*
X40485087Y57182348D01*
X40502991Y57172778D01*
X40538729Y57143448D01*
X40640186Y57060186D01*
X40723448Y56958729D01*
X40752778Y56922991D01*
X40752779Y56922989D01*
X40836443Y56766467D01*
X40836443Y56766466D01*
X40887963Y56596627D01*
X40905359Y56420000D01*
X40887963Y56243373D01*
X40853616Y56130147D01*
X40836443Y56073533D01*
X40762348Y55934913D01*
X40752778Y55917009D01*
X40723448Y55881271D01*
X40640186Y55779814D01*
X40538729Y55696552D01*
X40502991Y55667222D01*
X40502989Y55667221D01*
X40346467Y55583557D01*
X40289853Y55566384D01*
X40176627Y55532037D01*
X40110442Y55525518D01*
X40044260Y55519000D01*
X39955740Y55519000D01*
X39889558Y55525518D01*
X39823373Y55532037D01*
X39710147Y55566384D01*
X39653533Y55583557D01*
X39497011Y55667221D01*
X39497009Y55667222D01*
X39461271Y55696552D01*
X39359814Y55779814D01*
X39276552Y55881271D01*
X39247222Y55917009D01*
X39237652Y55934913D01*
X39163557Y56073533D01*
X39146384Y56130147D01*
X39112037Y56243373D01*
X39094641Y56420000D01*
X39112037Y56596627D01*
X39163557Y56766466D01*
X39163557Y56766467D01*
X39247221Y56922989D01*
X39247222Y56922991D01*
X39276552Y56958729D01*
X39359814Y57060186D01*
X39461271Y57143448D01*
X39497009Y57172778D01*
X39514913Y57182348D01*
X39653533Y57256443D01*
X39710147Y57273616D01*
X39823373Y57307963D01*
X39889558Y57314482D01*
X39955740Y57321000D01*
X40044260Y57321000D01*
X40110442Y57314482D01*
X40110442Y57314482D01*
G37*
G36*
X40110442Y59854482D02*
G01*
X40176627Y59847963D01*
X40289853Y59813616D01*
X40346467Y59796443D01*
X40485087Y59722348D01*
X40502991Y59712778D01*
X40538729Y59683448D01*
X40640186Y59600186D01*
X40723448Y59498729D01*
X40752778Y59462991D01*
X40752779Y59462989D01*
X40836443Y59306467D01*
X40836443Y59306466D01*
X40887963Y59136627D01*
X40905359Y58960000D01*
X40887963Y58783373D01*
X40853616Y58670147D01*
X40836443Y58613533D01*
X40762348Y58474913D01*
X40752778Y58457009D01*
X40723448Y58421271D01*
X40640186Y58319814D01*
X40538729Y58236552D01*
X40502991Y58207222D01*
X40502989Y58207221D01*
X40346467Y58123557D01*
X40289853Y58106384D01*
X40176627Y58072037D01*
X40110443Y58065519D01*
X40044260Y58059000D01*
X39955740Y58059000D01*
X39889557Y58065519D01*
X39823373Y58072037D01*
X39710147Y58106384D01*
X39653533Y58123557D01*
X39497011Y58207221D01*
X39497009Y58207222D01*
X39461271Y58236552D01*
X39359814Y58319814D01*
X39276552Y58421271D01*
X39247222Y58457009D01*
X39237652Y58474913D01*
X39163557Y58613533D01*
X39146384Y58670147D01*
X39112037Y58783373D01*
X39094641Y58960000D01*
X39112037Y59136627D01*
X39163557Y59306466D01*
X39163557Y59306467D01*
X39247221Y59462989D01*
X39247222Y59462991D01*
X39276552Y59498729D01*
X39359814Y59600186D01*
X39461271Y59683448D01*
X39497009Y59712778D01*
X39514913Y59722348D01*
X39653533Y59796443D01*
X39710147Y59813616D01*
X39823373Y59847963D01*
X39889558Y59854482D01*
X39955740Y59861000D01*
X40044260Y59861000D01*
X40110442Y59854482D01*
X40110442Y59854482D01*
G37*
G36*
X40901000Y60599000D02*
G01*
X39099000Y60599000D01*
X39099000Y62401000D01*
X40901000Y62401000D01*
X40901000Y60599000D01*
X40901000Y60599000D01*
G37*
G36*
X48587796Y76889433D02*
G01*
X48642578Y76866742D01*
X48691879Y76833800D01*
X48733800Y76791879D01*
X48766742Y76742578D01*
X48789433Y76687796D01*
X48801000Y76629647D01*
X48801000Y76570353D01*
X48789433Y76512204D01*
X48766742Y76457422D01*
X48733800Y76408121D01*
X48691879Y76366200D01*
X48642578Y76333258D01*
X48587796Y76310567D01*
X48529647Y76299000D01*
X48470353Y76299000D01*
X48412204Y76310567D01*
X48357422Y76333258D01*
X48308121Y76366200D01*
X48266200Y76408121D01*
X48233258Y76457422D01*
X48210567Y76512204D01*
X48199000Y76570353D01*
X48199000Y76629647D01*
X48210567Y76687796D01*
X48233258Y76742578D01*
X48266200Y76791879D01*
X48308121Y76833800D01*
X48357422Y76866742D01*
X48412204Y76889433D01*
X48470353Y76901000D01*
X48529647Y76901000D01*
X48587796Y76889433D01*
X48587796Y76889433D01*
G37*
G36*
X44587796Y76889433D02*
G01*
X44642578Y76866742D01*
X44691879Y76833800D01*
X44733800Y76791879D01*
X44766742Y76742578D01*
X44789433Y76687796D01*
X44801000Y76629647D01*
X44801000Y76570353D01*
X44789433Y76512204D01*
X44766742Y76457422D01*
X44733800Y76408121D01*
X44691879Y76366200D01*
X44642578Y76333258D01*
X44587796Y76310567D01*
X44529647Y76299000D01*
X44470353Y76299000D01*
X44412204Y76310567D01*
X44357422Y76333258D01*
X44308121Y76366200D01*
X44266200Y76408121D01*
X44233258Y76457422D01*
X44210567Y76512204D01*
X44199000Y76570353D01*
X44199000Y76629647D01*
X44210567Y76687796D01*
X44233258Y76742578D01*
X44266200Y76791879D01*
X44308121Y76833800D01*
X44357422Y76866742D01*
X44412204Y76889433D01*
X44470353Y76901000D01*
X44529647Y76901000D01*
X44587796Y76889433D01*
X44587796Y76889433D01*
G37*
G36*
X32292500Y76999000D02*
G01*
X30490500Y76999000D01*
X30490500Y78801000D01*
X32292500Y78801000D01*
X32292500Y76999000D01*
X32292500Y76999000D01*
G37*
G36*
X34041942Y78794482D02*
G01*
X34108127Y78787963D01*
X34221353Y78753616D01*
X34277967Y78736443D01*
X34416587Y78662348D01*
X34434491Y78652778D01*
X34470229Y78623448D01*
X34571686Y78540186D01*
X34654948Y78438729D01*
X34684278Y78402991D01*
X34684279Y78402989D01*
X34767943Y78246467D01*
X34767943Y78246466D01*
X34819463Y78076627D01*
X34836859Y77900000D01*
X34819463Y77723373D01*
X34785116Y77610147D01*
X34767943Y77553533D01*
X34693848Y77414913D01*
X34684278Y77397009D01*
X34654948Y77361271D01*
X34571686Y77259814D01*
X34470229Y77176552D01*
X34434491Y77147222D01*
X34434489Y77147221D01*
X34277967Y77063557D01*
X34221353Y77046384D01*
X34108127Y77012037D01*
X34041943Y77005519D01*
X33975760Y76999000D01*
X33887240Y76999000D01*
X33821057Y77005519D01*
X33754873Y77012037D01*
X33641647Y77046384D01*
X33585033Y77063557D01*
X33428511Y77147221D01*
X33428509Y77147222D01*
X33392771Y77176552D01*
X33291314Y77259814D01*
X33208052Y77361271D01*
X33178722Y77397009D01*
X33169152Y77414913D01*
X33095057Y77553533D01*
X33077884Y77610147D01*
X33043537Y77723373D01*
X33026141Y77900000D01*
X33043537Y78076627D01*
X33095057Y78246466D01*
X33095057Y78246467D01*
X33178721Y78402989D01*
X33178722Y78402991D01*
X33208052Y78438729D01*
X33291314Y78540186D01*
X33392771Y78623448D01*
X33428509Y78652778D01*
X33446413Y78662348D01*
X33585033Y78736443D01*
X33641647Y78753616D01*
X33754873Y78787963D01*
X33821058Y78794482D01*
X33887240Y78801000D01*
X33975760Y78801000D01*
X34041942Y78794482D01*
X34041942Y78794482D01*
G37*
G36*
X39121942Y78794482D02*
G01*
X39188127Y78787963D01*
X39301353Y78753616D01*
X39357967Y78736443D01*
X39496587Y78662348D01*
X39514491Y78652778D01*
X39550229Y78623448D01*
X39651686Y78540186D01*
X39734948Y78438729D01*
X39764278Y78402991D01*
X39764279Y78402989D01*
X39847943Y78246467D01*
X39847943Y78246466D01*
X39899463Y78076627D01*
X39916859Y77900000D01*
X39899463Y77723373D01*
X39865116Y77610147D01*
X39847943Y77553533D01*
X39773848Y77414913D01*
X39764278Y77397009D01*
X39734948Y77361271D01*
X39651686Y77259814D01*
X39550229Y77176552D01*
X39514491Y77147222D01*
X39514489Y77147221D01*
X39357967Y77063557D01*
X39301353Y77046384D01*
X39188127Y77012037D01*
X39121943Y77005519D01*
X39055760Y76999000D01*
X38967240Y76999000D01*
X38901057Y77005519D01*
X38834873Y77012037D01*
X38721647Y77046384D01*
X38665033Y77063557D01*
X38508511Y77147221D01*
X38508509Y77147222D01*
X38472771Y77176552D01*
X38371314Y77259814D01*
X38288052Y77361271D01*
X38258722Y77397009D01*
X38249152Y77414913D01*
X38175057Y77553533D01*
X38157884Y77610147D01*
X38123537Y77723373D01*
X38106141Y77900000D01*
X38123537Y78076627D01*
X38175057Y78246466D01*
X38175057Y78246467D01*
X38258721Y78402989D01*
X38258722Y78402991D01*
X38288052Y78438729D01*
X38371314Y78540186D01*
X38472771Y78623448D01*
X38508509Y78652778D01*
X38526413Y78662348D01*
X38665033Y78736443D01*
X38721647Y78753616D01*
X38834873Y78787963D01*
X38901058Y78794482D01*
X38967240Y78801000D01*
X39055760Y78801000D01*
X39121942Y78794482D01*
X39121942Y78794482D01*
G37*
G36*
X36581942Y78794482D02*
G01*
X36648127Y78787963D01*
X36761353Y78753616D01*
X36817967Y78736443D01*
X36956587Y78662348D01*
X36974491Y78652778D01*
X37010229Y78623448D01*
X37111686Y78540186D01*
X37194948Y78438729D01*
X37224278Y78402991D01*
X37224279Y78402989D01*
X37307943Y78246467D01*
X37307943Y78246466D01*
X37359463Y78076627D01*
X37376859Y77900000D01*
X37359463Y77723373D01*
X37325116Y77610147D01*
X37307943Y77553533D01*
X37233848Y77414913D01*
X37224278Y77397009D01*
X37194948Y77361271D01*
X37111686Y77259814D01*
X37010229Y77176552D01*
X36974491Y77147222D01*
X36974489Y77147221D01*
X36817967Y77063557D01*
X36761353Y77046384D01*
X36648127Y77012037D01*
X36581943Y77005519D01*
X36515760Y76999000D01*
X36427240Y76999000D01*
X36361057Y77005519D01*
X36294873Y77012037D01*
X36181647Y77046384D01*
X36125033Y77063557D01*
X35968511Y77147221D01*
X35968509Y77147222D01*
X35932771Y77176552D01*
X35831314Y77259814D01*
X35748052Y77361271D01*
X35718722Y77397009D01*
X35709152Y77414913D01*
X35635057Y77553533D01*
X35617884Y77610147D01*
X35583537Y77723373D01*
X35566141Y77900000D01*
X35583537Y78076627D01*
X35635057Y78246466D01*
X35635057Y78246467D01*
X35718721Y78402989D01*
X35718722Y78402991D01*
X35748052Y78438729D01*
X35831314Y78540186D01*
X35932771Y78623448D01*
X35968509Y78652778D01*
X35986413Y78662348D01*
X36125033Y78736443D01*
X36181647Y78753616D01*
X36294873Y78787963D01*
X36361058Y78794482D01*
X36427240Y78801000D01*
X36515760Y78801000D01*
X36581942Y78794482D01*
X36581942Y78794482D01*
G37*
M02*
