G04 #@! TF.GenerationSoftware,KiCad,Pcbnew,6.0.0-unknown-35da498~86~ubuntu19.04.1*
G04 #@! TF.CreationDate,2019-06-13T20:28:44-07:00*
G04 #@! TF.ProjectId,Nucleo-64-407,4e75636c-656f-42d3-9634-2d3430372e6b,rev?*
G04 #@! TF.SameCoordinates,PX328b740PY6ea0500*
G04 #@! TF.FileFunction,Legend,Bot*
G04 #@! TF.FilePolarity,Positive*
%FSLAX46Y46*%
G04 Gerber Fmt 4.6, Leading zero omitted, Abs format (unit mm)*
G04 Created by KiCad (PCBNEW 6.0.0-unknown-35da498~86~ubuntu19.04.1) date 2019-06-13 20:28:44*
%MOMM*%
%LPD*%
G04 APERTURE LIST*
%ADD10C,0.150000*%
%ADD11C,0.100000*%
%ADD12C,0.300000*%
G04 APERTURE END LIST*
D10*
X10309523Y26547620D02*
X10309523Y27547620D01*
X9642857Y27547620D02*
X9452380Y27547620D01*
X9357142Y27500000D01*
X9261904Y27404762D01*
X9214285Y27214286D01*
X9214285Y26880953D01*
X9261904Y26690477D01*
X9357142Y26595239D01*
X9452380Y26547620D01*
X9642857Y26547620D01*
X9738095Y26595239D01*
X9833333Y26690477D01*
X9880952Y26880953D01*
X9880952Y27214286D01*
X9833333Y27404762D01*
X9738095Y27500000D01*
X9642857Y27547620D01*
X8833333Y26833334D02*
X8357142Y26833334D01*
X8928571Y26547620D02*
X8595238Y27547620D01*
X8261904Y26547620D01*
X6738095Y27214286D02*
X6738095Y26547620D01*
X6976190Y27595239D02*
X7214285Y26880953D01*
X6595238Y26880953D01*
X10309523Y23547620D02*
X10309523Y24547620D01*
X9642857Y24547620D02*
X9452380Y24547620D01*
X9357142Y24500000D01*
X9261904Y24404762D01*
X9214285Y24214286D01*
X9214285Y23880953D01*
X9261904Y23690477D01*
X9357142Y23595239D01*
X9452380Y23547620D01*
X9642857Y23547620D01*
X9738095Y23595239D01*
X9833333Y23690477D01*
X9880952Y23880953D01*
X9880952Y24214286D01*
X9833333Y24404762D01*
X9738095Y24500000D01*
X9642857Y24547620D01*
X8833333Y23833334D02*
X8357142Y23833334D01*
X8928571Y23547620D02*
X8595238Y24547620D01*
X8261904Y23547620D01*
X6690476Y24547620D02*
X7166666Y24547620D01*
X7214285Y24071429D01*
X7166666Y24119048D01*
X7071428Y24166667D01*
X6833333Y24166667D01*
X6738095Y24119048D01*
X6690476Y24071429D01*
X6642857Y23976191D01*
X6642857Y23738096D01*
X6690476Y23642858D01*
X6738095Y23595239D01*
X6833333Y23547620D01*
X7071428Y23547620D01*
X7166666Y23595239D01*
X7214285Y23642858D01*
D11*
X10483333Y22134000D02*
X9850000Y22134000D01*
X10316666Y21550000D02*
X10083333Y21550000D01*
X9983333Y21183334D02*
X10316666Y21183334D01*
X10316666Y21883334D01*
X9983333Y21883334D01*
X9850000Y22134000D02*
X9116666Y22134000D01*
X9683333Y21183334D02*
X9683333Y21883334D01*
X9283333Y21183334D01*
X9283333Y21883334D01*
X9116666Y22134000D02*
X8583333Y22134000D01*
X9116666Y21116667D02*
X8583333Y21116667D01*
X8583333Y22134000D02*
X7783333Y22134000D01*
X8416666Y21183334D02*
X8416666Y21883334D01*
X8183333Y21383334D01*
X7950000Y21883334D01*
X7950000Y21183334D01*
X7783333Y22134000D02*
X7050000Y22134000D01*
X7483333Y21883334D02*
X7350000Y21883334D01*
X7283333Y21850000D01*
X7216666Y21783334D01*
X7183333Y21650000D01*
X7183333Y21416667D01*
X7216666Y21283334D01*
X7283333Y21216667D01*
X7350000Y21183334D01*
X7483333Y21183334D01*
X7550000Y21216667D01*
X7616666Y21283334D01*
X7650000Y21416667D01*
X7650000Y21650000D01*
X7616666Y21783334D01*
X7550000Y21850000D01*
X7483333Y21883334D01*
X7050000Y22134000D02*
X6516666Y22134000D01*
X6983333Y21883334D02*
X6583333Y21883334D01*
X6783333Y21183334D02*
X6783333Y21883334D01*
D10*
X18321428Y26797620D02*
X18321428Y27797620D01*
X17988095Y27083334D01*
X17654761Y27797620D01*
X17654761Y26797620D01*
X17178571Y26797620D02*
X17178571Y27797620D01*
X16750000Y26845239D02*
X16607142Y26797620D01*
X16369047Y26797620D01*
X16273809Y26845239D01*
X16226190Y26892858D01*
X16178571Y26988096D01*
X16178571Y27083334D01*
X16226190Y27178572D01*
X16273809Y27226191D01*
X16369047Y27273810D01*
X16559523Y27321429D01*
X16654761Y27369048D01*
X16702380Y27416667D01*
X16750000Y27511905D01*
X16750000Y27607143D01*
X16702380Y27702381D01*
X16654761Y27750000D01*
X16559523Y27797620D01*
X16321428Y27797620D01*
X16178571Y27750000D01*
X15559523Y27797620D02*
X15369047Y27797620D01*
X15273809Y27750000D01*
X15178571Y27654762D01*
X15130952Y27464286D01*
X15130952Y27130953D01*
X15178571Y26940477D01*
X15273809Y26845239D01*
X15369047Y26797620D01*
X15559523Y26797620D01*
X15654761Y26845239D01*
X15750000Y26940477D01*
X15797619Y27130953D01*
X15797619Y27464286D01*
X15750000Y27654762D01*
X15654761Y27750000D01*
X15559523Y27797620D01*
X18571428Y24297620D02*
X18571428Y25297620D01*
X18238095Y24583334D01*
X17904761Y25297620D01*
X17904761Y24297620D01*
X17238095Y25297620D02*
X17047619Y25297620D01*
X16952380Y25250000D01*
X16857142Y25154762D01*
X16809523Y24964286D01*
X16809523Y24630953D01*
X16857142Y24440477D01*
X16952380Y24345239D01*
X17047619Y24297620D01*
X17238095Y24297620D01*
X17333333Y24345239D01*
X17428571Y24440477D01*
X17476190Y24630953D01*
X17476190Y24964286D01*
X17428571Y25154762D01*
X17333333Y25250000D01*
X17238095Y25297620D01*
X16428571Y24345239D02*
X16285714Y24297620D01*
X16047619Y24297620D01*
X15952380Y24345239D01*
X15904761Y24392858D01*
X15857142Y24488096D01*
X15857142Y24583334D01*
X15904761Y24678572D01*
X15952380Y24726191D01*
X16047619Y24773810D01*
X16238095Y24821429D01*
X16333333Y24869048D01*
X16380952Y24916667D01*
X16428571Y25011905D01*
X16428571Y25107143D01*
X16380952Y25202381D01*
X16333333Y25250000D01*
X16238095Y25297620D01*
X16000000Y25297620D01*
X15857142Y25250000D01*
X15428571Y24297620D02*
X15428571Y25297620D01*
X17785714Y21345239D02*
X17642857Y21297620D01*
X17404761Y21297620D01*
X17309523Y21345239D01*
X17261904Y21392858D01*
X17214285Y21488096D01*
X17214285Y21583334D01*
X17261904Y21678572D01*
X17309523Y21726191D01*
X17404761Y21773810D01*
X17595238Y21821429D01*
X17690476Y21869048D01*
X17738095Y21916667D01*
X17785714Y22011905D01*
X17785714Y22107143D01*
X17738095Y22202381D01*
X17690476Y22250000D01*
X17595238Y22297620D01*
X17357142Y22297620D01*
X17214285Y22250000D01*
X16214285Y21392858D02*
X16261904Y21345239D01*
X16404761Y21297620D01*
X16500000Y21297620D01*
X16642857Y21345239D01*
X16738095Y21440477D01*
X16785714Y21535715D01*
X16833333Y21726191D01*
X16833333Y21869048D01*
X16785714Y22059524D01*
X16738095Y22154762D01*
X16642857Y22250000D01*
X16500000Y22297620D01*
X16404761Y22297620D01*
X16261904Y22250000D01*
X16214285Y22202381D01*
X15785714Y21297620D02*
X15785714Y22297620D01*
X15214285Y21297620D02*
X15642857Y21869048D01*
X15214285Y22297620D02*
X15785714Y21726191D01*
X10095238Y19297620D02*
X9761904Y18297620D01*
X9428571Y19297620D01*
X9095238Y18297620D02*
X9095238Y19297620D01*
X8619047Y18297620D02*
X8619047Y19297620D01*
X8047619Y18297620D01*
X8047619Y19297620D01*
X18226190Y20047620D02*
X17607142Y20047620D01*
X17940476Y19666667D01*
X17797619Y19666667D01*
X17702380Y19619048D01*
X17654761Y19571429D01*
X17607142Y19476191D01*
X17607142Y19238096D01*
X17654761Y19142858D01*
X17702380Y19095239D01*
X17797619Y19047620D01*
X18083333Y19047620D01*
X18178571Y19095239D01*
X18226190Y19142858D01*
X17178571Y19142858D02*
X17130952Y19095239D01*
X17178571Y19047620D01*
X17226190Y19095239D01*
X17178571Y19142858D01*
X17178571Y19047620D01*
X16797619Y20047620D02*
X16178571Y20047620D01*
X16511904Y19666667D01*
X16369047Y19666667D01*
X16273809Y19619048D01*
X16226190Y19571429D01*
X16178571Y19476191D01*
X16178571Y19238096D01*
X16226190Y19142858D01*
X16273809Y19095239D01*
X16369047Y19047620D01*
X16654761Y19047620D01*
X16750000Y19095239D01*
X16797619Y19142858D01*
X15892857Y20047620D02*
X15559523Y19047620D01*
X15226190Y20047620D01*
X16190476Y17297620D02*
X16666666Y17297620D01*
X16714285Y16821429D01*
X16666666Y16869048D01*
X16571428Y16916667D01*
X16333333Y16916667D01*
X16238095Y16869048D01*
X16190476Y16821429D01*
X16142857Y16726191D01*
X16142857Y16488096D01*
X16190476Y16392858D01*
X16238095Y16345239D01*
X16333333Y16297620D01*
X16571428Y16297620D01*
X16666666Y16345239D01*
X16714285Y16392858D01*
X15857142Y17297620D02*
X15523809Y16297620D01*
X15190476Y17297620D01*
X9511904Y17250000D02*
X9607142Y17297620D01*
X9750000Y17297620D01*
X9892857Y17250000D01*
X9988095Y17154762D01*
X10035714Y17059524D01*
X10083333Y16869048D01*
X10083333Y16726191D01*
X10035714Y16535715D01*
X9988095Y16440477D01*
X9892857Y16345239D01*
X9750000Y16297620D01*
X9654761Y16297620D01*
X9511904Y16345239D01*
X9464285Y16392858D01*
X9464285Y16726191D01*
X9654761Y16726191D01*
X9035714Y16297620D02*
X9035714Y17297620D01*
X8464285Y16297620D01*
X8464285Y17297620D01*
X7988095Y16297620D02*
X7988095Y17297620D01*
X7750000Y17297620D01*
X7607142Y17250000D01*
X7511904Y17154762D01*
X7464285Y17059524D01*
X7416666Y16869048D01*
X7416666Y16726191D01*
X7464285Y16535715D01*
X7511904Y16440477D01*
X7607142Y16345239D01*
X7750000Y16297620D01*
X7988095Y16297620D01*
X14702380Y11571429D02*
X13702380Y11571429D01*
X14416666Y11238096D01*
X13702380Y10904762D01*
X14702380Y10904762D01*
X14702380Y10428572D02*
X13702380Y10428572D01*
X14654761Y10000000D02*
X14702380Y9857143D01*
X14702380Y9619048D01*
X14654761Y9523810D01*
X14607142Y9476191D01*
X14511904Y9428572D01*
X14416666Y9428572D01*
X14321428Y9476191D01*
X14273809Y9523810D01*
X14226190Y9619048D01*
X14178571Y9809524D01*
X14130952Y9904762D01*
X14083333Y9952381D01*
X13988095Y10000000D01*
X13892857Y10000000D01*
X13797619Y9952381D01*
X13750000Y9904762D01*
X13702380Y9809524D01*
X13702380Y9571429D01*
X13750000Y9428572D01*
X13702380Y8809524D02*
X13702380Y8619048D01*
X13750000Y8523810D01*
X13845238Y8428572D01*
X14035714Y8380953D01*
X14369047Y8380953D01*
X14559523Y8428572D01*
X14654761Y8523810D01*
X14702380Y8619048D01*
X14702380Y8809524D01*
X14654761Y8904762D01*
X14559523Y9000000D01*
X14369047Y9047620D01*
X14035714Y9047620D01*
X13845238Y9000000D01*
X13750000Y8904762D01*
X13702380Y8809524D01*
X16952380Y11571429D02*
X15952380Y11571429D01*
X16666666Y11238096D01*
X15952380Y10904762D01*
X16952380Y10904762D01*
X15952380Y10238096D02*
X15952380Y10047620D01*
X16000000Y9952381D01*
X16095238Y9857143D01*
X16285714Y9809524D01*
X16619047Y9809524D01*
X16809523Y9857143D01*
X16904761Y9952381D01*
X16952380Y10047620D01*
X16952380Y10238096D01*
X16904761Y10333334D01*
X16809523Y10428572D01*
X16619047Y10476191D01*
X16285714Y10476191D01*
X16095238Y10428572D01*
X16000000Y10333334D01*
X15952380Y10238096D01*
X16904761Y9428572D02*
X16952380Y9285715D01*
X16952380Y9047620D01*
X16904761Y8952381D01*
X16857142Y8904762D01*
X16761904Y8857143D01*
X16666666Y8857143D01*
X16571428Y8904762D01*
X16523809Y8952381D01*
X16476190Y9047620D01*
X16428571Y9238096D01*
X16380952Y9333334D01*
X16333333Y9380953D01*
X16238095Y9428572D01*
X16142857Y9428572D01*
X16047619Y9380953D01*
X16000000Y9333334D01*
X15952380Y9238096D01*
X15952380Y9000000D01*
X16000000Y8857143D01*
X16952380Y8428572D02*
X15952380Y8428572D01*
X18904761Y11035715D02*
X18952380Y10892858D01*
X18952380Y10654762D01*
X18904761Y10559524D01*
X18857142Y10511905D01*
X18761904Y10464286D01*
X18666666Y10464286D01*
X18571428Y10511905D01*
X18523809Y10559524D01*
X18476190Y10654762D01*
X18428571Y10845239D01*
X18380952Y10940477D01*
X18333333Y10988096D01*
X18238095Y11035715D01*
X18142857Y11035715D01*
X18047619Y10988096D01*
X18000000Y10940477D01*
X17952380Y10845239D01*
X17952380Y10607143D01*
X18000000Y10464286D01*
X18857142Y9464286D02*
X18904761Y9511905D01*
X18952380Y9654762D01*
X18952380Y9750000D01*
X18904761Y9892858D01*
X18809523Y9988096D01*
X18714285Y10035715D01*
X18523809Y10083334D01*
X18380952Y10083334D01*
X18190476Y10035715D01*
X18095238Y9988096D01*
X18000000Y9892858D01*
X17952380Y9750000D01*
X17952380Y9654762D01*
X18000000Y9511905D01*
X18047619Y9464286D01*
X18952380Y9035715D02*
X17952380Y9035715D01*
X18952380Y8464286D02*
X18380952Y8892858D01*
X17952380Y8464286D02*
X18523809Y9035715D01*
X21452380Y10976191D02*
X21452380Y10357143D01*
X21833333Y10690477D01*
X21833333Y10547620D01*
X21880952Y10452381D01*
X21928571Y10404762D01*
X22023809Y10357143D01*
X22261904Y10357143D01*
X22357142Y10404762D01*
X22404761Y10452381D01*
X22452380Y10547620D01*
X22452380Y10833334D01*
X22404761Y10928572D01*
X22357142Y10976191D01*
X22357142Y9928572D02*
X22404761Y9880953D01*
X22452380Y9928572D01*
X22404761Y9976191D01*
X22357142Y9928572D01*
X22452380Y9928572D01*
X21452380Y9547620D02*
X21452380Y8928572D01*
X21833333Y9261905D01*
X21833333Y9119048D01*
X21880952Y9023810D01*
X21928571Y8976191D01*
X22023809Y8928572D01*
X22261904Y8928572D01*
X22357142Y8976191D01*
X22404761Y9023810D01*
X22452380Y9119048D01*
X22452380Y9404762D01*
X22404761Y9500000D01*
X22357142Y9547620D01*
X21452380Y8642858D02*
X22452380Y8309524D01*
X21452380Y7976191D01*
X22952380Y9690477D02*
X22952380Y10166667D01*
X23428571Y10214286D01*
X23380952Y10166667D01*
X23333333Y10071429D01*
X23333333Y9833334D01*
X23380952Y9738096D01*
X23428571Y9690477D01*
X23523809Y9642858D01*
X23761904Y9642858D01*
X23857142Y9690477D01*
X23904761Y9738096D01*
X23952380Y9833334D01*
X23952380Y10071429D01*
X23904761Y10166667D01*
X23857142Y10214286D01*
X22952380Y9357143D02*
X23952380Y9023810D01*
X22952380Y8690477D01*
X23000000Y2761905D02*
X22952380Y2857143D01*
X22952380Y3000000D01*
X23000000Y3142858D01*
X23095238Y3238096D01*
X23190476Y3285715D01*
X23380952Y3333334D01*
X23523809Y3333334D01*
X23714285Y3285715D01*
X23809523Y3238096D01*
X23904761Y3142858D01*
X23952380Y3000000D01*
X23952380Y2904762D01*
X23904761Y2761905D01*
X23857142Y2714286D01*
X23523809Y2714286D01*
X23523809Y2904762D01*
X23952380Y2285715D02*
X22952380Y2285715D01*
X23952380Y1714286D01*
X22952380Y1714286D01*
X23952380Y1238096D02*
X22952380Y1238096D01*
X22952380Y1000000D01*
X23000000Y857143D01*
X23095238Y761905D01*
X23190476Y714286D01*
X23380952Y666667D01*
X23523809Y666667D01*
X23714285Y714286D01*
X23809523Y761905D01*
X23904761Y857143D01*
X23952380Y1000000D01*
X23952380Y1238096D01*
X20404761Y3190477D02*
X20452380Y3047620D01*
X20452380Y2809524D01*
X20404761Y2714286D01*
X20357142Y2666667D01*
X20261904Y2619048D01*
X20166666Y2619048D01*
X20071428Y2666667D01*
X20023809Y2714286D01*
X19976190Y2809524D01*
X19928571Y3000000D01*
X19880952Y3095239D01*
X19833333Y3142858D01*
X19738095Y3190477D01*
X19642857Y3190477D01*
X19547619Y3142858D01*
X19500000Y3095239D01*
X19452380Y3000000D01*
X19452380Y2761905D01*
X19500000Y2619048D01*
X20357142Y1619048D02*
X20404761Y1666667D01*
X20452380Y1809524D01*
X20452380Y1904762D01*
X20404761Y2047620D01*
X20309523Y2142858D01*
X20214285Y2190477D01*
X20023809Y2238096D01*
X19880952Y2238096D01*
X19690476Y2190477D01*
X19595238Y2142858D01*
X19500000Y2047620D01*
X19452380Y1904762D01*
X19452380Y1809524D01*
X19500000Y1666667D01*
X19547619Y1619048D01*
X20452380Y714286D02*
X20452380Y1190477D01*
X19452380Y1190477D01*
X18904761Y3214286D02*
X18952380Y3071429D01*
X18952380Y2833334D01*
X18904761Y2738096D01*
X18857142Y2690477D01*
X18761904Y2642858D01*
X18666666Y2642858D01*
X18571428Y2690477D01*
X18523809Y2738096D01*
X18476190Y2833334D01*
X18428571Y3023810D01*
X18380952Y3119048D01*
X18333333Y3166667D01*
X18238095Y3214286D01*
X18142857Y3214286D01*
X18047619Y3166667D01*
X18000000Y3119048D01*
X17952380Y3023810D01*
X17952380Y2785715D01*
X18000000Y2642858D01*
X18952380Y2214286D02*
X17952380Y2214286D01*
X17952380Y1976191D01*
X18000000Y1833334D01*
X18095238Y1738096D01*
X18190476Y1690477D01*
X18380952Y1642858D01*
X18523809Y1642858D01*
X18714285Y1690477D01*
X18809523Y1738096D01*
X18904761Y1833334D01*
X18952380Y1976191D01*
X18952380Y2214286D01*
X18666666Y1261905D02*
X18666666Y785715D01*
X18952380Y1357143D02*
X17952380Y1023810D01*
X18952380Y690477D01*
X16452380Y2666667D02*
X15976190Y3000000D01*
X16452380Y3238096D02*
X15452380Y3238096D01*
X15452380Y2857143D01*
X15500000Y2761905D01*
X15547619Y2714286D01*
X15642857Y2666667D01*
X15785714Y2666667D01*
X15880952Y2714286D01*
X15928571Y2761905D01*
X15976190Y2857143D01*
X15976190Y3238096D01*
X15452380Y2333334D02*
X16452380Y1666667D01*
X15452380Y1666667D02*
X16452380Y2333334D01*
X12702380Y3261905D02*
X12702380Y2690477D01*
X13702380Y2976191D02*
X12702380Y2976191D01*
X12702380Y2452381D02*
X13702380Y1785715D01*
X12702380Y1785715D02*
X13702380Y2452381D01*
X33773809Y2952381D02*
X33773809Y1952381D01*
X34440476Y1952381D02*
X34630952Y1952381D01*
X34726190Y2000000D01*
X34821428Y2095239D01*
X34869047Y2285715D01*
X34869047Y2619048D01*
X34821428Y2809524D01*
X34726190Y2904762D01*
X34630952Y2952381D01*
X34440476Y2952381D01*
X34345238Y2904762D01*
X34250000Y2809524D01*
X34202380Y2619048D01*
X34202380Y2285715D01*
X34250000Y2095239D01*
X34345238Y2000000D01*
X34440476Y1952381D01*
X35297619Y2428572D02*
X35630952Y2428572D01*
X35773809Y2952381D02*
X35297619Y2952381D01*
X35297619Y1952381D01*
X35773809Y1952381D01*
X37154761Y1952381D02*
X37250000Y1952381D01*
X37345238Y2000000D01*
X37392857Y2047620D01*
X37440476Y2142858D01*
X37488095Y2333334D01*
X37488095Y2571429D01*
X37440476Y2761905D01*
X37392857Y2857143D01*
X37345238Y2904762D01*
X37250000Y2952381D01*
X37154761Y2952381D01*
X37059523Y2904762D01*
X37011904Y2857143D01*
X36964285Y2761905D01*
X36916666Y2571429D01*
X36916666Y2333334D01*
X36964285Y2142858D01*
X37011904Y2047620D01*
X37059523Y2000000D01*
X37154761Y1952381D01*
X37964285Y2904762D02*
X37964285Y2952381D01*
X37916666Y3047620D01*
X37869047Y3095239D01*
X38345238Y2047620D02*
X38392857Y2000000D01*
X38488095Y1952381D01*
X38726190Y1952381D01*
X38821428Y2000000D01*
X38869047Y2047620D01*
X38916666Y2142858D01*
X38916666Y2238096D01*
X38869047Y2380953D01*
X38297619Y2952381D01*
X38916666Y2952381D01*
X39392857Y2904762D02*
X39392857Y2952381D01*
X39345238Y3047620D01*
X39297619Y3095239D01*
X40250000Y2285715D02*
X40250000Y2952381D01*
X40011904Y1904762D02*
X39773809Y2619048D01*
X40392857Y2619048D01*
X40821428Y2904762D02*
X40821428Y2952381D01*
X40773809Y3047620D01*
X40726190Y3095239D01*
X41678571Y1952381D02*
X41488095Y1952381D01*
X41392857Y2000000D01*
X41345238Y2047620D01*
X41250000Y2190477D01*
X41202380Y2380953D01*
X41202380Y2761905D01*
X41250000Y2857143D01*
X41297619Y2904762D01*
X41392857Y2952381D01*
X41583333Y2952381D01*
X41678571Y2904762D01*
X41726190Y2857143D01*
X41773809Y2761905D01*
X41773809Y2523810D01*
X41726190Y2428572D01*
X41678571Y2380953D01*
X41583333Y2333334D01*
X41392857Y2333334D01*
X41297619Y2380953D01*
X41250000Y2428572D01*
X41202380Y2523810D01*
X33488095Y9702381D02*
X33488095Y8702381D01*
X34154761Y8702381D02*
X34345238Y8702381D01*
X34440476Y8750000D01*
X34535714Y8845239D01*
X34583333Y9035715D01*
X34583333Y9369048D01*
X34535714Y9559524D01*
X34440476Y9654762D01*
X34345238Y9702381D01*
X34154761Y9702381D01*
X34059523Y9654762D01*
X33964285Y9559524D01*
X33916666Y9369048D01*
X33916666Y9035715D01*
X33964285Y8845239D01*
X34059523Y8750000D01*
X34154761Y8702381D01*
X35011904Y9178572D02*
X35345238Y9178572D01*
X35488095Y9702381D02*
X35011904Y9702381D01*
X35011904Y8702381D01*
X35488095Y8702381D01*
X37202380Y9702381D02*
X36630952Y9702381D01*
X36916666Y9702381D02*
X36916666Y8702381D01*
X36821428Y8845239D01*
X36726190Y8940477D01*
X36630952Y8988096D01*
X37678571Y9654762D02*
X37678571Y9702381D01*
X37630952Y9797620D01*
X37583333Y9845239D01*
X38011904Y8702381D02*
X38630952Y8702381D01*
X38297619Y9083334D01*
X38440476Y9083334D01*
X38535714Y9130953D01*
X38583333Y9178572D01*
X38630952Y9273810D01*
X38630952Y9511905D01*
X38583333Y9607143D01*
X38535714Y9654762D01*
X38440476Y9702381D01*
X38154761Y9702381D01*
X38059523Y9654762D01*
X38011904Y9607143D01*
X39107142Y9654762D02*
X39107142Y9702381D01*
X39059523Y9797620D01*
X39011904Y9845239D01*
X40011904Y8702381D02*
X39535714Y8702381D01*
X39488095Y9178572D01*
X39535714Y9130953D01*
X39630952Y9083334D01*
X39869047Y9083334D01*
X39964285Y9130953D01*
X40011904Y9178572D01*
X40059523Y9273810D01*
X40059523Y9511905D01*
X40011904Y9607143D01*
X39964285Y9654762D01*
X39869047Y9702381D01*
X39630952Y9702381D01*
X39535714Y9654762D01*
X39488095Y9607143D01*
X44250000Y2511905D02*
X44202380Y2607143D01*
X44202380Y2750000D01*
X44250000Y2892858D01*
X44345238Y2988096D01*
X44440476Y3035715D01*
X44630952Y3083334D01*
X44773809Y3083334D01*
X44964285Y3035715D01*
X45059523Y2988096D01*
X45154761Y2892858D01*
X45202380Y2750000D01*
X45202380Y2654762D01*
X45154761Y2511905D01*
X45107142Y2464286D01*
X44773809Y2464286D01*
X44773809Y2654762D01*
X45202380Y2035715D02*
X44202380Y2035715D01*
X45202380Y1464286D01*
X44202380Y1464286D01*
X45202380Y988096D02*
X44202380Y988096D01*
X44202380Y750000D01*
X44250000Y607143D01*
X44345238Y511905D01*
X44440476Y464286D01*
X44630952Y416667D01*
X44773809Y416667D01*
X44964285Y464286D01*
X45059523Y511905D01*
X45154761Y607143D01*
X45202380Y750000D01*
X45202380Y988096D01*
X45202380Y11476191D02*
X45202380Y10857143D01*
X45583333Y11190477D01*
X45583333Y11047620D01*
X45630952Y10952381D01*
X45678571Y10904762D01*
X45773809Y10857143D01*
X46011904Y10857143D01*
X46107142Y10904762D01*
X46154761Y10952381D01*
X46202380Y11047620D01*
X46202380Y11333334D01*
X46154761Y11428572D01*
X46107142Y11476191D01*
X46107142Y10428572D02*
X46154761Y10380953D01*
X46202380Y10428572D01*
X46154761Y10476191D01*
X46107142Y10428572D01*
X46202380Y10428572D01*
X45202380Y10047620D02*
X45202380Y9428572D01*
X45583333Y9761905D01*
X45583333Y9619048D01*
X45630952Y9523810D01*
X45678571Y9476191D01*
X45773809Y9428572D01*
X46011904Y9428572D01*
X46107142Y9476191D01*
X46154761Y9523810D01*
X46202380Y9619048D01*
X46202380Y9904762D01*
X46154761Y10000000D01*
X46107142Y10047620D01*
X45202380Y9142858D02*
X46202380Y8809524D01*
X45202380Y8476191D01*
X41702380Y9440477D02*
X41702380Y9916667D01*
X42178571Y9964286D01*
X42130952Y9916667D01*
X42083333Y9821429D01*
X42083333Y9583334D01*
X42130952Y9488096D01*
X42178571Y9440477D01*
X42273809Y9392858D01*
X42511904Y9392858D01*
X42607142Y9440477D01*
X42654761Y9488096D01*
X42702380Y9583334D01*
X42702380Y9821429D01*
X42654761Y9916667D01*
X42607142Y9964286D01*
X41702380Y9107143D02*
X42702380Y8773810D01*
X41702380Y8440477D01*
X54702380Y17678572D02*
X53702380Y17678572D01*
X53702380Y17011905D02*
X53702380Y16821429D01*
X53750000Y16726191D01*
X53845238Y16630953D01*
X54035714Y16583334D01*
X54369047Y16583334D01*
X54559523Y16630953D01*
X54654761Y16726191D01*
X54702380Y16821429D01*
X54702380Y17011905D01*
X54654761Y17107143D01*
X54559523Y17202381D01*
X54369047Y17250000D01*
X54035714Y17250000D01*
X53845238Y17202381D01*
X53750000Y17107143D01*
X53702380Y17011905D01*
X54416666Y16202381D02*
X54416666Y15726191D01*
X54702380Y16297620D02*
X53702380Y15964286D01*
X54702380Y15630953D01*
X53702380Y14630953D02*
X53702380Y14011905D01*
X54083333Y14345239D01*
X54083333Y14202381D01*
X54130952Y14107143D01*
X54178571Y14059524D01*
X54273809Y14011905D01*
X54511904Y14011905D01*
X54607142Y14059524D01*
X54654761Y14107143D01*
X54702380Y14202381D01*
X54702380Y14488096D01*
X54654761Y14583334D01*
X54607142Y14630953D01*
X54654761Y13535715D02*
X54702380Y13535715D01*
X54797619Y13583334D01*
X54845238Y13630953D01*
X53702380Y12630953D02*
X53702380Y13107143D01*
X54178571Y13154762D01*
X54130952Y13107143D01*
X54083333Y13011905D01*
X54083333Y12773810D01*
X54130952Y12678572D01*
X54178571Y12630953D01*
X54273809Y12583334D01*
X54511904Y12583334D01*
X54607142Y12630953D01*
X54654761Y12678572D01*
X54702380Y12773810D01*
X54702380Y13011905D01*
X54654761Y13107143D01*
X54607142Y13154762D01*
X54654761Y12107143D02*
X54702380Y12107143D01*
X54797619Y12154762D01*
X54845238Y12202381D01*
X53702380Y11773810D02*
X53702380Y11107143D01*
X54702380Y11535715D01*
X54654761Y10678572D02*
X54702380Y10678572D01*
X54797619Y10726191D01*
X54845238Y10773810D01*
X54702380Y9726191D02*
X54702380Y10297620D01*
X54702380Y10011905D02*
X53702380Y10011905D01*
X53845238Y10107143D01*
X53940476Y10202381D01*
X53988095Y10297620D01*
X53702380Y8821429D02*
X53702380Y9297620D01*
X54178571Y9345239D01*
X54130952Y9297620D01*
X54083333Y9202381D01*
X54083333Y8964286D01*
X54130952Y8869048D01*
X54178571Y8821429D01*
X54273809Y8773810D01*
X54511904Y8773810D01*
X54607142Y8821429D01*
X54654761Y8869048D01*
X54702380Y8964286D01*
X54702380Y9202381D01*
X54654761Y9297620D01*
X54607142Y9345239D01*
X54011904Y7000000D02*
X54107142Y7047620D01*
X54250000Y7047620D01*
X54392857Y7000000D01*
X54488095Y6904762D01*
X54535714Y6809524D01*
X54583333Y6619048D01*
X54583333Y6476191D01*
X54535714Y6285715D01*
X54488095Y6190477D01*
X54392857Y6095239D01*
X54250000Y6047620D01*
X54154761Y6047620D01*
X54011904Y6095239D01*
X53964285Y6142858D01*
X53964285Y6476191D01*
X54154761Y6476191D01*
X53535714Y6047620D02*
X53535714Y7047620D01*
X52964285Y6047620D01*
X52964285Y7047620D01*
X52488095Y6047620D02*
X52488095Y7047620D01*
X52250000Y7047620D01*
X52107142Y7000000D01*
X52011904Y6904762D01*
X51964285Y6809524D01*
X51916666Y6619048D01*
X51916666Y6476191D01*
X51964285Y6285715D01*
X52011904Y6190477D01*
X52107142Y6095239D01*
X52250000Y6047620D01*
X52488095Y6047620D01*
X62095238Y7047620D02*
X61761904Y6047620D01*
X61428571Y7047620D01*
X61095238Y6047620D02*
X61095238Y7047620D01*
X60619047Y6047620D02*
X60619047Y7047620D01*
X60047619Y6047620D01*
X60047619Y7047620D01*
X60940476Y9547620D02*
X61416666Y9547620D01*
X61464285Y9071429D01*
X61416666Y9119048D01*
X61321428Y9166667D01*
X61083333Y9166667D01*
X60988095Y9119048D01*
X60940476Y9071429D01*
X60892857Y8976191D01*
X60892857Y8738096D01*
X60940476Y8642858D01*
X60988095Y8595239D01*
X61083333Y8547620D01*
X61321428Y8547620D01*
X61416666Y8595239D01*
X61464285Y8642858D01*
X60607142Y9547620D02*
X60273809Y8547620D01*
X59940476Y9547620D01*
X60952380Y17238096D02*
X59952380Y17238096D01*
X59952380Y16571429D02*
X59952380Y16380953D01*
X60000000Y16285715D01*
X60095238Y16190477D01*
X60285714Y16142858D01*
X60619047Y16142858D01*
X60809523Y16190477D01*
X60904761Y16285715D01*
X60952380Y16380953D01*
X60952380Y16571429D01*
X60904761Y16666667D01*
X60809523Y16761905D01*
X60619047Y16809524D01*
X60285714Y16809524D01*
X60095238Y16761905D01*
X60000000Y16666667D01*
X59952380Y16571429D01*
X60666666Y15761905D02*
X60666666Y15285715D01*
X60952380Y15857143D02*
X59952380Y15523810D01*
X60952380Y15190477D01*
X60285714Y13666667D02*
X60952380Y13666667D01*
X59904761Y13904762D02*
X60619047Y14142858D01*
X60619047Y13523810D01*
X60904761Y13095239D02*
X60952380Y13095239D01*
X61047619Y13142858D01*
X61095238Y13190477D01*
X59952380Y12238096D02*
X59952380Y12428572D01*
X60000000Y12523810D01*
X60047619Y12571429D01*
X60190476Y12666667D01*
X60380952Y12714286D01*
X60761904Y12714286D01*
X60857142Y12666667D01*
X60904761Y12619048D01*
X60952380Y12523810D01*
X60952380Y12333334D01*
X60904761Y12238096D01*
X60857142Y12190477D01*
X60761904Y12142858D01*
X60523809Y12142858D01*
X60428571Y12190477D01*
X60380952Y12238096D01*
X60333333Y12333334D01*
X60333333Y12523810D01*
X60380952Y12619048D01*
X60428571Y12666667D01*
X60523809Y12714286D01*
X60904761Y11666667D02*
X60952380Y11666667D01*
X61047619Y11714286D01*
X61095238Y11761905D01*
X60380952Y11095239D02*
X60333333Y11190477D01*
X60285714Y11238096D01*
X60190476Y11285715D01*
X60142857Y11285715D01*
X60047619Y11238096D01*
X60000000Y11190477D01*
X59952380Y11095239D01*
X59952380Y10904762D01*
X60000000Y10809524D01*
X60047619Y10761905D01*
X60142857Y10714286D01*
X60190476Y10714286D01*
X60285714Y10761905D01*
X60333333Y10809524D01*
X60380952Y10904762D01*
X60380952Y11095239D01*
X60428571Y11190477D01*
X60476190Y11238096D01*
X60571428Y11285715D01*
X60761904Y11285715D01*
X60857142Y11238096D01*
X60904761Y11190477D01*
X60952380Y11095239D01*
X60952380Y10904762D01*
X60904761Y10809524D01*
X60857142Y10761905D01*
X60761904Y10714286D01*
X60571428Y10714286D01*
X60476190Y10761905D01*
X60428571Y10809524D01*
X60380952Y10904762D01*
X12371428Y14746429D02*
X12038095Y14746429D01*
X11895238Y14222620D02*
X12371428Y14222620D01*
X12371428Y15222620D01*
X11895238Y15222620D01*
X11561904Y15222620D02*
X10895238Y14222620D01*
X10895238Y15222620D02*
X11561904Y14222620D01*
X10657142Y15222620D02*
X10085714Y15222620D01*
X10371428Y14222620D02*
X10371428Y15222620D01*
X12323809Y12620239D02*
X12180952Y12572620D01*
X11942857Y12572620D01*
X11847619Y12620239D01*
X11800000Y12667858D01*
X11752380Y12763096D01*
X11752380Y12858334D01*
X11800000Y12953572D01*
X11847619Y13001191D01*
X11942857Y13048810D01*
X12133333Y13096429D01*
X12228571Y13144048D01*
X12276190Y13191667D01*
X12323809Y13286905D01*
X12323809Y13382143D01*
X12276190Y13477381D01*
X12228571Y13525000D01*
X12133333Y13572620D01*
X11895238Y13572620D01*
X11752380Y13525000D01*
X11323809Y12572620D02*
X11323809Y13572620D01*
X10942857Y13572620D01*
X10847619Y13525000D01*
X10800000Y13477381D01*
X10752380Y13382143D01*
X10752380Y13239286D01*
X10800000Y13144048D01*
X10847619Y13096429D01*
X10942857Y13048810D01*
X11323809Y13048810D01*
X10323809Y12572620D02*
X10323809Y13572620D01*
X58797619Y4321429D02*
X58464285Y4321429D01*
X58321428Y3797620D02*
X58797619Y3797620D01*
X58797619Y4797620D01*
X58321428Y4797620D01*
X57988095Y4797620D02*
X57321428Y3797620D01*
X57321428Y4797620D02*
X57988095Y3797620D01*
X57083333Y4797620D02*
X56511904Y4797620D01*
X56797619Y3797620D02*
X56797619Y4797620D01*
X55654761Y3797620D02*
X56226190Y3797620D01*
X55940476Y3797620D02*
X55940476Y4797620D01*
X56035714Y4654762D01*
X56130952Y4559524D01*
X56226190Y4511905D01*
X49797619Y4071429D02*
X49464285Y4071429D01*
X49321428Y3547620D02*
X49797619Y3547620D01*
X49797619Y4547620D01*
X49321428Y4547620D01*
X48988095Y4547620D02*
X48321428Y3547620D01*
X48321428Y4547620D02*
X48988095Y3547620D01*
X48083333Y4547620D02*
X47511904Y4547620D01*
X47797619Y3547620D02*
X47797619Y4547620D01*
X47226190Y4452381D02*
X47178571Y4500000D01*
X47083333Y4547620D01*
X46845238Y4547620D01*
X46750000Y4500000D01*
X46702380Y4452381D01*
X46654761Y4357143D01*
X46654761Y4261905D01*
X46702380Y4119048D01*
X47273809Y3547620D01*
X46654761Y3547620D01*
X10678571Y6964286D02*
X10678571Y6630953D01*
X11202380Y6488096D02*
X11202380Y6964286D01*
X10202380Y6964286D01*
X10202380Y6488096D01*
X10202380Y6154762D02*
X11202380Y5488096D01*
X10202380Y5488096D02*
X11202380Y6154762D01*
X10202380Y5250000D02*
X10202380Y4678572D01*
X11202380Y4964286D02*
X10202380Y4964286D01*
X11297619Y4583334D02*
X11297619Y3821429D01*
X11202380Y3583334D02*
X10202380Y3583334D01*
X10202380Y2916667D02*
X10202380Y2726191D01*
X10250000Y2630953D01*
X10345238Y2535715D01*
X10535714Y2488096D01*
X10869047Y2488096D01*
X11059523Y2535715D01*
X11154761Y2630953D01*
X11202380Y2726191D01*
X11202380Y2916667D01*
X11154761Y3011905D01*
X11059523Y3107143D01*
X10869047Y3154762D01*
X10535714Y3154762D01*
X10345238Y3107143D01*
X10250000Y3011905D01*
X10202380Y2916667D01*
X47461904Y51095239D02*
X47319047Y51047620D01*
X47080952Y51047620D01*
X46985714Y51095239D01*
X46938095Y51142858D01*
X46890476Y51238096D01*
X46890476Y51333334D01*
X46938095Y51428572D01*
X46985714Y51476191D01*
X47080952Y51523810D01*
X47271428Y51571429D01*
X47366666Y51619048D01*
X47414285Y51666667D01*
X47461904Y51761905D01*
X47461904Y51857143D01*
X47414285Y51952381D01*
X47366666Y52000000D01*
X47271428Y52047620D01*
X47033333Y52047620D01*
X46890476Y52000000D01*
X46557142Y52047620D02*
X46319047Y51047620D01*
X46128571Y51761905D01*
X45938095Y51047620D01*
X45700000Y52047620D01*
X45319047Y51047620D02*
X45319047Y52047620D01*
X45080952Y52047620D01*
X44938095Y52000000D01*
X44842857Y51904762D01*
X44795238Y51809524D01*
X44747619Y51619048D01*
X44747619Y51476191D01*
X44795238Y51285715D01*
X44842857Y51190477D01*
X44938095Y51095239D01*
X45080952Y51047620D01*
X45319047Y51047620D01*
X43747619Y51142858D02*
X43795238Y51095239D01*
X43938095Y51047620D01*
X44033333Y51047620D01*
X44176190Y51095239D01*
X44271428Y51190477D01*
X44319047Y51285715D01*
X44366666Y51476191D01*
X44366666Y51619048D01*
X44319047Y51809524D01*
X44271428Y51904762D01*
X44176190Y52000000D01*
X44033333Y52047620D01*
X43938095Y52047620D01*
X43795238Y52000000D01*
X43747619Y51952381D01*
X43319047Y51047620D02*
X43319047Y52047620D01*
X42747619Y51047620D02*
X43176190Y51619048D01*
X42747619Y52047620D02*
X43319047Y51476191D01*
X41842857Y51047620D02*
X42319047Y51047620D01*
X42319047Y52047620D01*
X46419047Y53345239D02*
X46276190Y53297620D01*
X46038095Y53297620D01*
X45942857Y53345239D01*
X45895238Y53392858D01*
X45847619Y53488096D01*
X45847619Y53583334D01*
X45895238Y53678572D01*
X45942857Y53726191D01*
X46038095Y53773810D01*
X46228571Y53821429D01*
X46323809Y53869048D01*
X46371428Y53916667D01*
X46419047Y54011905D01*
X46419047Y54107143D01*
X46371428Y54202381D01*
X46323809Y54250000D01*
X46228571Y54297620D01*
X45990476Y54297620D01*
X45847619Y54250000D01*
X45514285Y54297620D02*
X45276190Y53297620D01*
X45085714Y54011905D01*
X44895238Y53297620D01*
X44657142Y54297620D01*
X44276190Y53297620D02*
X44276190Y54297620D01*
X44038095Y54297620D01*
X43895238Y54250000D01*
X43800000Y54154762D01*
X43752380Y54059524D01*
X43704761Y53869048D01*
X43704761Y53726191D01*
X43752380Y53535715D01*
X43800000Y53440477D01*
X43895238Y53345239D01*
X44038095Y53297620D01*
X44276190Y53297620D01*
X43276190Y53297620D02*
X43276190Y54297620D01*
X42609523Y54297620D02*
X42419047Y54297620D01*
X42323809Y54250000D01*
X42228571Y54154762D01*
X42180952Y53964286D01*
X42180952Y53630953D01*
X42228571Y53440477D01*
X42323809Y53345239D01*
X42419047Y53297620D01*
X42609523Y53297620D01*
X42704761Y53345239D01*
X42800000Y53440477D01*
X42847619Y53630953D01*
X42847619Y53964286D01*
X42800000Y54154762D01*
X42704761Y54250000D01*
X42609523Y54297620D01*
X45157142Y57315000D02*
X44157142Y57315000D01*
X44347619Y55947620D02*
X44680952Y56423810D01*
X44919047Y55947620D02*
X44919047Y56947620D01*
X44538095Y56947620D01*
X44442857Y56900000D01*
X44395238Y56852381D01*
X44347619Y56757143D01*
X44347619Y56614286D01*
X44395238Y56519048D01*
X44442857Y56471429D01*
X44538095Y56423810D01*
X44919047Y56423810D01*
X44157142Y57315000D02*
X43204761Y57315000D01*
X43966666Y55995239D02*
X43823809Y55947620D01*
X43585714Y55947620D01*
X43490476Y55995239D01*
X43442857Y56042858D01*
X43395238Y56138096D01*
X43395238Y56233334D01*
X43442857Y56328572D01*
X43490476Y56376191D01*
X43585714Y56423810D01*
X43776190Y56471429D01*
X43871428Y56519048D01*
X43919047Y56566667D01*
X43966666Y56661905D01*
X43966666Y56757143D01*
X43919047Y56852381D01*
X43871428Y56900000D01*
X43776190Y56947620D01*
X43538095Y56947620D01*
X43395238Y56900000D01*
X43204761Y57315000D02*
X42442857Y57315000D01*
X43109523Y56947620D02*
X42538095Y56947620D01*
X42823809Y55947620D02*
X42823809Y56947620D01*
X44976190Y59447620D02*
X44357142Y59447620D01*
X44690476Y59066667D01*
X44547619Y59066667D01*
X44452380Y59019048D01*
X44404761Y58971429D01*
X44357142Y58876191D01*
X44357142Y58638096D01*
X44404761Y58542858D01*
X44452380Y58495239D01*
X44547619Y58447620D01*
X44833333Y58447620D01*
X44928571Y58495239D01*
X44976190Y58542858D01*
X43928571Y58542858D02*
X43880952Y58495239D01*
X43928571Y58447620D01*
X43976190Y58495239D01*
X43928571Y58542858D01*
X43928571Y58447620D01*
X43547619Y59447620D02*
X42928571Y59447620D01*
X43261904Y59066667D01*
X43119047Y59066667D01*
X43023809Y59019048D01*
X42976190Y58971429D01*
X42928571Y58876191D01*
X42928571Y58638096D01*
X42976190Y58542858D01*
X43023809Y58495239D01*
X43119047Y58447620D01*
X43404761Y58447620D01*
X43500000Y58495239D01*
X43547619Y58542858D01*
X42642857Y59447620D02*
X42309523Y58447620D01*
X41976190Y59447620D01*
X44161904Y61950000D02*
X44257142Y61997620D01*
X44400000Y61997620D01*
X44542857Y61950000D01*
X44638095Y61854762D01*
X44685714Y61759524D01*
X44733333Y61569048D01*
X44733333Y61426191D01*
X44685714Y61235715D01*
X44638095Y61140477D01*
X44542857Y61045239D01*
X44400000Y60997620D01*
X44304761Y60997620D01*
X44161904Y61045239D01*
X44114285Y61092858D01*
X44114285Y61426191D01*
X44304761Y61426191D01*
X43685714Y60997620D02*
X43685714Y61997620D01*
X43114285Y60997620D01*
X43114285Y61997620D01*
X42638095Y60997620D02*
X42638095Y61997620D01*
X42400000Y61997620D01*
X42257142Y61950000D01*
X42161904Y61854762D01*
X42114285Y61759524D01*
X42066666Y61569048D01*
X42066666Y61426191D01*
X42114285Y61235715D01*
X42161904Y61140477D01*
X42257142Y61045239D01*
X42400000Y60997620D01*
X42638095Y60997620D01*
X38552380Y76261905D02*
X38552380Y75690477D01*
X39552380Y75976191D02*
X38552380Y75976191D01*
X38552380Y75452381D02*
X39552380Y74785715D01*
X38552380Y74785715D02*
X39552380Y75452381D01*
X37002380Y75566667D02*
X36526190Y75900000D01*
X37002380Y76138096D02*
X36002380Y76138096D01*
X36002380Y75757143D01*
X36050000Y75661905D01*
X36097619Y75614286D01*
X36192857Y75566667D01*
X36335714Y75566667D01*
X36430952Y75614286D01*
X36478571Y75661905D01*
X36526190Y75757143D01*
X36526190Y76138096D01*
X36002380Y75233334D02*
X37002380Y74566667D01*
X36002380Y74566667D02*
X37002380Y75233334D01*
X33350000Y75511905D02*
X33302380Y75607143D01*
X33302380Y75750000D01*
X33350000Y75892858D01*
X33445238Y75988096D01*
X33540476Y76035715D01*
X33730952Y76083334D01*
X33873809Y76083334D01*
X34064285Y76035715D01*
X34159523Y75988096D01*
X34254761Y75892858D01*
X34302380Y75750000D01*
X34302380Y75654762D01*
X34254761Y75511905D01*
X34207142Y75464286D01*
X33873809Y75464286D01*
X33873809Y75654762D01*
X34302380Y75035715D02*
X33302380Y75035715D01*
X34302380Y74464286D01*
X33302380Y74464286D01*
X34302380Y73988096D02*
X33302380Y73988096D01*
X33302380Y73750000D01*
X33350000Y73607143D01*
X33445238Y73511905D01*
X33540476Y73464286D01*
X33730952Y73416667D01*
X33873809Y73416667D01*
X34064285Y73464286D01*
X34159523Y73511905D01*
X34254761Y73607143D01*
X34302380Y73750000D01*
X34302380Y73988096D01*
X30802380Y75340477D02*
X30802380Y75816667D01*
X31278571Y75864286D01*
X31230952Y75816667D01*
X31183333Y75721429D01*
X31183333Y75483334D01*
X31230952Y75388096D01*
X31278571Y75340477D01*
X31373809Y75292858D01*
X31611904Y75292858D01*
X31707142Y75340477D01*
X31754761Y75388096D01*
X31802380Y75483334D01*
X31802380Y75721429D01*
X31754761Y75816667D01*
X31707142Y75864286D01*
X30802380Y75007143D02*
X31802380Y74673810D01*
X30802380Y74340477D01*
D12*
X63235714Y73321429D02*
X63735714Y74035715D01*
X64092857Y73321429D02*
X64092857Y74821429D01*
X63521428Y74821429D01*
X63378571Y74750000D01*
X63307142Y74678572D01*
X63235714Y74535715D01*
X63235714Y74321429D01*
X63307142Y74178572D01*
X63378571Y74107143D01*
X63521428Y74035715D01*
X64092857Y74035715D01*
X62021428Y73392858D02*
X62164285Y73321429D01*
X62450000Y73321429D01*
X62592857Y73392858D01*
X62664285Y73535715D01*
X62664285Y74107143D01*
X62592857Y74250000D01*
X62450000Y74321429D01*
X62164285Y74321429D01*
X62021428Y74250000D01*
X61950000Y74107143D01*
X61950000Y73964286D01*
X62664285Y73821429D01*
X61450000Y74321429D02*
X61092857Y73321429D01*
X60735714Y74321429D01*
X58378571Y74321429D02*
X58378571Y73321429D01*
X58735714Y74892858D02*
X59092857Y73821429D01*
X58164285Y73821429D01*
X19528571Y64725000D02*
X19600000Y64796429D01*
X19742857Y65010715D01*
X19814285Y65153572D01*
X19885714Y65367858D01*
X19957142Y65725000D01*
X19957142Y66010715D01*
X19885714Y66367858D01*
X19814285Y66582143D01*
X19742857Y66725000D01*
X19600000Y66939286D01*
X19528571Y67010715D01*
X18314285Y65367858D02*
X18457142Y65296429D01*
X18742857Y65296429D01*
X18885714Y65367858D01*
X18957142Y65439286D01*
X19028571Y65582143D01*
X19028571Y66010715D01*
X18957142Y66153572D01*
X18885714Y66225000D01*
X18742857Y66296429D01*
X18457142Y66296429D01*
X18314285Y66225000D01*
X17814285Y64725000D02*
X17742857Y64796429D01*
X17600000Y65010715D01*
X17528571Y65153572D01*
X17457142Y65367858D01*
X17385714Y65725000D01*
X17385714Y66010715D01*
X17457142Y66367858D01*
X17528571Y66582143D01*
X17600000Y66725000D01*
X17742857Y66939286D01*
X17814285Y67010715D01*
X15528571Y65296429D02*
X15528571Y66296429D01*
X15528571Y66796429D02*
X15600000Y66725000D01*
X15528571Y66653572D01*
X15457142Y66725000D01*
X15528571Y66796429D01*
X15528571Y66653572D01*
X13814285Y65153572D02*
X13957142Y65225000D01*
X14100000Y65367858D01*
X14314285Y65582143D01*
X14457142Y65653572D01*
X14600000Y65653572D01*
X14528571Y65296429D02*
X14671428Y65367858D01*
X14814285Y65510715D01*
X14885714Y65796429D01*
X14885714Y66296429D01*
X14814285Y66582143D01*
X14671428Y66725000D01*
X14528571Y66796429D01*
X14242857Y66796429D01*
X14100000Y66725000D01*
X13957142Y66582143D01*
X13885714Y66296429D01*
X13885714Y65796429D01*
X13957142Y65510715D01*
X14100000Y65367858D01*
X14242857Y65296429D01*
X14528571Y65296429D01*
X12600000Y66296429D02*
X12600000Y65296429D01*
X13242857Y66296429D02*
X13242857Y65510715D01*
X13171428Y65367858D01*
X13028571Y65296429D01*
X12814285Y65296429D01*
X12671428Y65367858D01*
X12600000Y65439286D01*
X11885714Y65296429D02*
X11885714Y66296429D01*
X11885714Y66010715D02*
X11814285Y66153572D01*
X11742857Y66225000D01*
X11600000Y66296429D01*
X11457142Y66296429D01*
X11100000Y66296429D02*
X10742857Y65296429D01*
X10385714Y66296429D02*
X10742857Y65296429D01*
X10885714Y64939286D01*
X10957142Y64867858D01*
X11100000Y64796429D01*
X9814285Y65439286D02*
X9742857Y65367858D01*
X9814285Y65296429D01*
X9885714Y65367858D01*
X9814285Y65439286D01*
X9814285Y65296429D01*
X8457142Y66296429D02*
X8457142Y65296429D01*
X9100000Y66296429D02*
X9100000Y65510715D01*
X9028571Y65367858D01*
X8885714Y65296429D01*
X8671428Y65296429D01*
X8528571Y65367858D01*
X8457142Y65439286D01*
X7814285Y65367858D02*
X7671428Y65296429D01*
X7385714Y65296429D01*
X7242857Y65367858D01*
X7171428Y65510715D01*
X7171428Y65582143D01*
X7242857Y65725000D01*
X7385714Y65796429D01*
X7600000Y65796429D01*
X7742857Y65867858D01*
X7814285Y66010715D01*
X7814285Y66082143D01*
X7742857Y66225000D01*
X7600000Y66296429D01*
X7385714Y66296429D01*
X7242857Y66225000D01*
X18171428Y64246429D02*
X18171428Y63175000D01*
X18242857Y62960715D01*
X18385714Y62817858D01*
X18600000Y62746429D01*
X18742857Y62746429D01*
X16814285Y63746429D02*
X16814285Y62746429D01*
X17457142Y63746429D02*
X17457142Y62960715D01*
X17385714Y62817858D01*
X17242857Y62746429D01*
X17028571Y62746429D01*
X16885714Y62817858D01*
X16814285Y62889286D01*
X16100000Y63746429D02*
X16100000Y62746429D01*
X16100000Y63603572D02*
X16028571Y63675000D01*
X15885714Y63746429D01*
X15671428Y63746429D01*
X15528571Y63675000D01*
X15457142Y63532143D01*
X15457142Y62746429D01*
X13671428Y64103572D02*
X13600000Y64175000D01*
X13457142Y64246429D01*
X13100000Y64246429D01*
X12957142Y64175000D01*
X12885714Y64103572D01*
X12814285Y63960715D01*
X12814285Y63817858D01*
X12885714Y63603572D01*
X13742857Y62746429D01*
X12814285Y62746429D01*
X11885714Y64246429D02*
X11742857Y64246429D01*
X11600000Y64175000D01*
X11528571Y64103572D01*
X11457142Y63960715D01*
X11385714Y63675000D01*
X11385714Y63317858D01*
X11457142Y63032143D01*
X11528571Y62889286D01*
X11600000Y62817858D01*
X11742857Y62746429D01*
X11885714Y62746429D01*
X12028571Y62817858D01*
X12100000Y62889286D01*
X12171428Y63032143D01*
X12242857Y63317858D01*
X12242857Y63675000D01*
X12171428Y63960715D01*
X12100000Y64103572D01*
X12028571Y64175000D01*
X11885714Y64246429D01*
X9957142Y62746429D02*
X10814285Y62746429D01*
X10385714Y62746429D02*
X10385714Y64246429D01*
X10528571Y64032143D01*
X10671428Y63889286D01*
X10814285Y63817858D01*
X9242857Y62746429D02*
X8957142Y62746429D01*
X8814285Y62817858D01*
X8742857Y62889286D01*
X8600000Y63103572D01*
X8528571Y63389286D01*
X8528571Y63960715D01*
X8600000Y64103572D01*
X8671428Y64175000D01*
X8814285Y64246429D01*
X9100000Y64246429D01*
X9242857Y64175000D01*
X9314285Y64103572D01*
X9385714Y63960715D01*
X9385714Y63603572D01*
X9314285Y63460715D01*
X9242857Y63389286D01*
X9100000Y63317858D01*
X8814285Y63317858D01*
X8671428Y63389286D01*
X8600000Y63460715D01*
X8528571Y63603572D01*
X19292857Y72696429D02*
X19292857Y74196429D01*
X18435714Y72696429D01*
X18435714Y74196429D01*
X17721428Y74196429D02*
X17721428Y72982143D01*
X17650000Y72839286D01*
X17578571Y72767858D01*
X17435714Y72696429D01*
X17150000Y72696429D01*
X17007142Y72767858D01*
X16935714Y72839286D01*
X16864285Y72982143D01*
X16864285Y74196429D01*
X15292857Y72839286D02*
X15364285Y72767858D01*
X15578571Y72696429D01*
X15721428Y72696429D01*
X15935714Y72767858D01*
X16078571Y72910715D01*
X16150000Y73053572D01*
X16221428Y73339286D01*
X16221428Y73553572D01*
X16150000Y73839286D01*
X16078571Y73982143D01*
X15935714Y74125000D01*
X15721428Y74196429D01*
X15578571Y74196429D01*
X15364285Y74125000D01*
X15292857Y74053572D01*
X13935714Y72696429D02*
X14650000Y72696429D01*
X14650000Y74196429D01*
X13435714Y73482143D02*
X12935714Y73482143D01*
X12721428Y72696429D02*
X13435714Y72696429D01*
X13435714Y74196429D01*
X12721428Y74196429D01*
X11792857Y74196429D02*
X11507142Y74196429D01*
X11364285Y74125000D01*
X11221428Y73982143D01*
X11150000Y73696429D01*
X11150000Y73196429D01*
X11221428Y72910715D01*
X11364285Y72767858D01*
X11507142Y72696429D01*
X11792857Y72696429D01*
X11935714Y72767858D01*
X12078571Y72910715D01*
X12150000Y73196429D01*
X12150000Y73696429D01*
X12078571Y73982143D01*
X11935714Y74125000D01*
X11792857Y74196429D01*
X10507142Y73267858D02*
X9364285Y73267858D01*
X8007142Y74196429D02*
X8292857Y74196429D01*
X8435714Y74125000D01*
X8507142Y74053572D01*
X8650000Y73839286D01*
X8721428Y73553572D01*
X8721428Y72982143D01*
X8650000Y72839286D01*
X8578571Y72767858D01*
X8435714Y72696429D01*
X8150000Y72696429D01*
X8007142Y72767858D01*
X7935714Y72839286D01*
X7864285Y72982143D01*
X7864285Y73339286D01*
X7935714Y73482143D01*
X8007142Y73553572D01*
X8150000Y73625000D01*
X8435714Y73625000D01*
X8578571Y73553572D01*
X8650000Y73482143D01*
X8721428Y73339286D01*
X6578571Y73696429D02*
X6578571Y72696429D01*
X6935714Y74267858D02*
X7292857Y73196429D01*
X6364285Y73196429D01*
X18971428Y70217858D02*
X18757142Y70146429D01*
X18400000Y70146429D01*
X18257142Y70217858D01*
X18185714Y70289286D01*
X18114285Y70432143D01*
X18114285Y70575000D01*
X18185714Y70717858D01*
X18257142Y70789286D01*
X18400000Y70860715D01*
X18685714Y70932143D01*
X18828571Y71003572D01*
X18900000Y71075000D01*
X18971428Y71217858D01*
X18971428Y71360715D01*
X18900000Y71503572D01*
X18828571Y71575000D01*
X18685714Y71646429D01*
X18328571Y71646429D01*
X18114285Y71575000D01*
X17685714Y71646429D02*
X16828571Y71646429D01*
X17257142Y70146429D02*
X17257142Y71646429D01*
X16328571Y70146429D02*
X16328571Y71646429D01*
X15828571Y70575000D01*
X15328571Y71646429D01*
X15328571Y70146429D01*
X14757142Y71646429D02*
X13828571Y71646429D01*
X14328571Y71075000D01*
X14114285Y71075000D01*
X13971428Y71003572D01*
X13900000Y70932143D01*
X13828571Y70789286D01*
X13828571Y70432143D01*
X13900000Y70289286D01*
X13971428Y70217858D01*
X14114285Y70146429D01*
X14542857Y70146429D01*
X14685714Y70217858D01*
X14757142Y70289286D01*
X13257142Y71503572D02*
X13185714Y71575000D01*
X13042857Y71646429D01*
X12685714Y71646429D01*
X12542857Y71575000D01*
X12471428Y71503572D01*
X12400000Y71360715D01*
X12400000Y71217858D01*
X12471428Y71003572D01*
X13328571Y70146429D01*
X12400000Y70146429D01*
X11257142Y70932143D02*
X11757142Y70932143D01*
X11757142Y70146429D02*
X11757142Y71646429D01*
X11042857Y71646429D01*
X9828571Y71146429D02*
X9828571Y70146429D01*
X10185714Y71717858D02*
X10542857Y70646429D01*
X9614285Y70646429D01*
X8757142Y71646429D02*
X8614285Y71646429D01*
X8471428Y71575000D01*
X8400000Y71503572D01*
X8328571Y71360715D01*
X8257142Y71075000D01*
X8257142Y70717858D01*
X8328571Y70432143D01*
X8400000Y70289286D01*
X8471428Y70217858D01*
X8614285Y70146429D01*
X8757142Y70146429D01*
X8900000Y70217858D01*
X8971428Y70289286D01*
X9042857Y70432143D01*
X9114285Y70717858D01*
X9114285Y71075000D01*
X9042857Y71360715D01*
X8971428Y71503572D01*
X8900000Y71575000D01*
X8757142Y71646429D01*
X7757142Y71646429D02*
X6757142Y71646429D01*
X7400000Y70146429D01*
M02*
