M48
; DRILL file {KiCad 6.0.0-rc1-unknown-0bceb69~66~ubuntu18.10.1} date Tue 04 Dec 2018 09:08:15 PM PST
; FORMAT={-:-/ absolute / metric / decimal}
; #@! TF.CreationDate,2018-12-04T21:08:15-08:00
; #@! TF.GenerationSoftware,Kicad,Pcbnew,6.0.0-rc1-unknown-0bceb69~66~ubuntu18.10.1
; #@! TF.FileFunction,Plated,1,2,PTH
FMAT,2
METRIC
T1C0.200
T2C0.400
T3C0.762
T4C1.000
T5C1.016
%
G90
G05
T1
X3.635Y32.265
X4.039Y37.586
X4.073Y49.924
X4.156Y35.002
X6.377Y24.812
X7.4Y16.1
X7.5Y78.5
X7.5Y77.0
X7.5Y75.5
X8.4Y20.2
X9.1Y3.0
X9.19Y25.6
X9.6Y11.7
X10.2Y20.5
X10.331Y33.076
X11.0Y8.0
X11.1Y30.2
X11.59Y35.488
X12.2Y11.1
X12.693Y35.544
X13.2Y49.404
X13.4Y34.6
X14.102Y12.909
X14.7Y29.2
X15.5Y11.9
X16.2Y31.4
X16.256Y15.749
X16.355Y18.504
X16.588Y28.814
X16.7Y35.2
X16.939Y23.687
X16.993Y26.215
X17.177Y22.583
X17.2Y53.2
X17.39Y18.504
X17.462Y34.245
X17.867Y29.987
X18.471Y34.197
X18.597Y31.432
X20.133Y34.2
X20.906Y2.528
X21.0Y9.9
X21.771Y21.178
X22.3Y34.3
X22.648Y21.982
X23.023Y31.265
X23.7Y11.4
X24.151Y38.322
X24.24Y33.841
X24.45Y34.866
X24.617Y49.819
X24.743Y12.113
X24.841Y31.327
X24.961Y30.339
X25.113Y20.766
X25.201Y37.934
X25.255Y33.182
X25.4Y7.1
X25.6Y9.5
X25.632Y13.815
X25.8Y59.0
X26.226Y4.528
X26.5Y78.6
X26.5Y77.0
X26.5Y75.5
X26.834Y22.407
X27.2Y53.4
X27.2Y52.0
X27.359Y3.928
X27.842Y49.509
X27.9Y7.0
X28.0Y73.0
X28.2Y5.0
X28.4Y13.3
X28.498Y29.828
X28.516Y35.48
X29.045Y2.019
X29.221Y27.613
X29.659Y22.043
X29.988Y25.452
X30.019Y41.493
X30.288Y33.856
X30.487Y36.4
X30.5Y28.0
X30.759Y38.538
X31.295Y21.538
X31.3Y4.8
X31.457Y41.726
X31.5Y26.5
X31.594Y49.953
X31.9Y7.1
X32.0Y52.6
X32.167Y32.189
X32.4Y47.9
X32.44Y22.682
X32.54Y36.222
X32.661Y29.115
X32.75Y20.0
X32.9Y11.4
X33.08Y21.769
X33.1Y16.4
X33.25Y27.75
X33.258Y43.284
X33.371Y26.272
X33.405Y37.644
X34.018Y45.916
X34.109Y36.482
X34.139Y41.428
X34.32Y22.796
X34.452Y42.839
X34.5Y20.75
X34.5Y1.5
X34.62Y44.961
X34.626Y13.668
X34.727Y26.603
X34.892Y34.139
X35.0Y50.0
X35.0Y17.75
X35.013Y12.488
X35.309Y41.769
X35.4Y11.2
X35.526Y21.89
X35.599Y36.045
X35.679Y30.066
X36.0Y55.0
X36.25Y28.95
X36.749Y21.381
X36.75Y1.25
X36.841Y42.616
X36.846Y18.219
X36.983Y41.513
X37.075Y35.708
X37.2Y47.0
X37.218Y29.048
X37.916Y18.049
X38.0Y12.6
X38.079Y22.124
X38.235Y31.894
X38.266Y19.762
X38.529Y34.702
X38.698Y26.738
X38.703Y29.755
X39.0Y15.4
X39.15Y46.927
X39.238Y22.138
X39.476Y47.953
X39.5Y67.0
X39.564Y41.694
X39.75Y36.75
X39.867Y26.741
X40.012Y34.702
X41.007Y41.289
X41.053Y47.848
X41.5Y75.5
X42.151Y56.161
X42.2Y12.8
X43.1Y18.2
X43.2Y43.0
X44.346Y9.482
X44.648Y16.962
X44.9Y15.2
X44.925Y26.772
X45.157Y31.569
X45.3Y61.0
X45.3Y58.0
X45.561Y18.03
X46.0Y43.2
X47.0Y12.1
X47.2Y17.7
X47.3Y15.3
X47.9Y23.2
X48.3Y5.7
X49.5Y15.3
X49.555Y58.412
X49.7Y12.9
X49.9Y61.2
X49.935Y47.289
X50.0Y25.1
X50.25Y56.75
X50.25Y44.25
X50.4Y18.4
X50.55Y73.9
X50.701Y30.0
X51.0Y51.0
X51.3Y23.4
X51.4Y57.8
X51.4Y13.2
X51.68Y45.22
X51.75Y55.75
X51.982Y37.305
X52.05Y69.9
X52.321Y31.957
X52.55Y18.03
X52.658Y38.095
X52.7Y41.9
X52.981Y13.312
X53.016Y35.986
X53.401Y34.292
X53.473Y48.353
X53.5Y53.75
X53.6Y15.3
X53.735Y36.67
X53.75Y50.25
X54.0Y27.8
X54.1Y19.1
X54.2Y57.2
X54.228Y38.371
X54.3Y60.7
X54.73Y31.264
X55.2Y36.4
X55.376Y38.071
X55.5Y27.8
X56.0Y56.2
X56.2Y25.0
X56.25Y51.0
X56.45Y71.35
X56.547Y47.799
X57.4Y62.5
X57.441Y28.965
X58.5Y31.3
X59.15Y71.35
X59.3Y21.3
X59.6Y24.8
X59.733Y39.282
X59.926Y61.572
X60.0Y28.1
X60.5Y55.75
X61.047Y35.989
X61.107Y39.048
X61.2Y22.8
X61.4Y13.3
X61.9Y76.8
X62.1Y18.3
X62.2Y30.3
X62.4Y16.4
X62.403Y28.971
X62.8Y50.8
X63.141Y61.518
X63.9Y63.65
X64.6Y1.4
X64.839Y61.796
X64.977Y27.52
X66.25Y54.25
X68.0Y9.6
X68.05Y63.9
X68.6Y6.7
T2
X7.2Y43.6
X8.6Y33.6
X8.7Y38.7
X8.9Y31.1
X9.0Y41.0
X9.3Y35.8
X14.1Y41.0
X16.2Y14.5
X16.3Y20.7
X17.0Y38.7
X17.6Y59.0
X18.2Y17.0
X18.9Y22.0
X20.388Y18.071
X20.5Y29.4
X20.8Y35.6
X20.9Y22.7
X21.4Y38.5
X22.1Y42.6
X22.3Y18.7
X22.5Y13.7
X23.3Y20.4
X24.0Y40.3
X24.2Y14.9
X24.9Y24.6
X25.167Y35.667
X25.7Y42.4
X26.2Y49.6
X26.5Y23.8
X27.8Y45.5
X27.999Y28.789
X28.119Y32.875
X28.3Y34.2
X28.75Y62.75
X28.75Y61.25
X28.936Y25.432
X29.0Y20.4
X29.9Y44.0
X30.0Y37.5
X30.1Y32.1
X30.947Y62.75
X30.947Y61.25
X31.4Y70.35
X33.0Y62.75
X33.0Y61.25
X35.8Y72.35
X39.8Y18.8
X40.1Y73.95
X47.0Y36.8
X48.7Y34.256
X49.8Y63.7
X55.493Y58.701
X55.921Y62.589
X57.3Y61.4
T3
X2.891Y48.775
X2.891Y46.235
X2.891Y43.695
X2.891Y41.155
X2.891Y38.615
X2.891Y36.075
X2.891Y33.535
X2.891Y30.995
X2.891Y28.455
X2.891Y25.915
X2.891Y23.375
X2.891Y20.835
X2.891Y18.295
X2.891Y15.755
X2.891Y13.215
X2.891Y10.675
X2.891Y8.135
X2.891Y5.595
X2.891Y3.055
X5.431Y48.775
X5.431Y46.235
X5.431Y43.695
X5.431Y41.155
X5.431Y38.615
X5.431Y36.075
X5.431Y33.535
X5.431Y30.995
X5.431Y28.455
X5.431Y25.915
X5.431Y23.375
X5.431Y20.835
X5.431Y18.295
X5.431Y15.755
X5.431Y13.215
X5.431Y10.675
X5.431Y8.135
X5.431Y5.595
X5.431Y3.055
X63.851Y48.775
X63.851Y46.235
X63.851Y43.695
X63.851Y41.155
X63.851Y38.615
X63.851Y36.075
X63.851Y33.535
X63.851Y30.995
X63.851Y28.455
X63.851Y25.915
X63.851Y23.375
X63.851Y20.835
X63.851Y18.295
X63.851Y15.755
X63.851Y13.215
X63.851Y10.675
X63.851Y8.135
X63.851Y5.595
X63.851Y3.055
X66.391Y48.775
X66.391Y46.235
X66.391Y43.695
X66.391Y41.155
X66.391Y38.615
X66.391Y36.075
X66.391Y33.535
X66.391Y30.995
X66.391Y28.455
X66.391Y25.915
X66.391Y23.375
X66.391Y20.835
X66.391Y18.295
X66.391Y15.755
X66.391Y13.215
X66.391Y10.675
X66.391Y8.135
X66.391Y5.595
X66.391Y3.055
T4
X40.0Y61.5
X40.0Y58.96
X40.0Y56.42
X40.0Y53.88
X40.0Y51.34
X31.391Y77.9
X33.931Y77.9
X36.471Y77.9
X39.011Y77.9
T5
X34.566Y7.098
X34.566Y4.558
X37.106Y7.098
X37.106Y4.558
X39.646Y7.098
X39.646Y4.558
X42.186Y7.098
X42.186Y4.558
X44.727Y7.098
X44.727Y4.558
X11.516Y26.846
X11.516Y24.306
X11.516Y21.766
X11.516Y19.226
X11.516Y16.686
X14.056Y26.846
X14.056Y24.306
X14.056Y21.766
X14.056Y19.226
X14.056Y16.686
X13.357Y7.098
X13.357Y4.558
X15.897Y7.098
X15.897Y4.558
X18.438Y7.098
X18.438Y4.558
X20.977Y7.098
X20.977Y4.558
X23.517Y7.098
X23.517Y4.558
X56.156Y16.749
X56.156Y14.21
X56.156Y11.669
X56.156Y9.13
X56.156Y6.59
X58.696Y16.749
X58.696Y14.21
X58.696Y11.669
X58.696Y9.13
X58.696Y6.59
T0
M30
