%TF.GenerationSoftware,KiCad,Pcbnew,5.0.0-rc3-unknown-101b68b~65~ubuntu18.04.1*%
%TF.CreationDate,2018-07-10T23:05:25-07:00*%
%TF.ProjectId,PrntrBoardV1,50726E7472426F61726456312E6B6963,rev?*%
%TF.SameCoordinates,Original*%
%TF.FileFunction,Legend,Bot*%
%TF.FilePolarity,Positive*%
%FSLAX46Y46*%
G04 Gerber Fmt 4.6, Leading zero omitted, Abs format (unit mm)*
G04 Created by KiCad (PCBNEW 5.0.0-rc3-unknown-101b68b~65~ubuntu18.04.1) date Tue Jul 10 23:05:25 2018*
%MOMM*%
%LPD*%
G01*
G04 APERTURE LIST*
%ADD10C,0.300000*%
%ADD11C,0.150000*%
G04 APERTURE END LIST*
D10*
X63928571Y-92364285D02*
X63928571Y-91650000D01*
X62428571Y-91650000D01*
X63785714Y-93721428D02*
X63857142Y-93650000D01*
X63928571Y-93435714D01*
X63928571Y-93292857D01*
X63857142Y-93078571D01*
X63714285Y-92935714D01*
X63571428Y-92864285D01*
X63285714Y-92792857D01*
X63071428Y-92792857D01*
X62785714Y-92864285D01*
X62642857Y-92935714D01*
X62500000Y-93078571D01*
X62428571Y-93292857D01*
X62428571Y-93435714D01*
X62500000Y-93650000D01*
X62571428Y-93721428D01*
X63928571Y-94364285D02*
X62428571Y-94364285D01*
X62428571Y-94721428D01*
X62500000Y-94935714D01*
X62642857Y-95078571D01*
X62785714Y-95150000D01*
X63071428Y-95221428D01*
X63285714Y-95221428D01*
X63571428Y-95150000D01*
X63714285Y-95078571D01*
X63857142Y-94935714D01*
X63928571Y-94721428D01*
X63928571Y-94364285D01*
D11*
X50000000Y-96888095D02*
X49952380Y-96792857D01*
X49952380Y-96650000D01*
X50000000Y-96507142D01*
X50095238Y-96411904D01*
X50190476Y-96364285D01*
X50380952Y-96316666D01*
X50523809Y-96316666D01*
X50714285Y-96364285D01*
X50809523Y-96411904D01*
X50904761Y-96507142D01*
X50952380Y-96650000D01*
X50952380Y-96745238D01*
X50904761Y-96888095D01*
X50857142Y-96935714D01*
X50523809Y-96935714D01*
X50523809Y-96745238D01*
X50952380Y-97364285D02*
X49952380Y-97364285D01*
X50952380Y-97935714D01*
X49952380Y-97935714D01*
X50952380Y-98411904D02*
X49952380Y-98411904D01*
X49952380Y-98650000D01*
X50000000Y-98792857D01*
X50095238Y-98888095D01*
X50190476Y-98935714D01*
X50380952Y-98983333D01*
X50523809Y-98983333D01*
X50714285Y-98935714D01*
X50809523Y-98888095D01*
X50904761Y-98792857D01*
X50952380Y-98650000D01*
X50952380Y-98411904D01*
X52500000Y-96888095D02*
X52452380Y-96792857D01*
X52452380Y-96650000D01*
X52500000Y-96507142D01*
X52595238Y-96411904D01*
X52690476Y-96364285D01*
X52880952Y-96316666D01*
X53023809Y-96316666D01*
X53214285Y-96364285D01*
X53309523Y-96411904D01*
X53404761Y-96507142D01*
X53452380Y-96650000D01*
X53452380Y-96745238D01*
X53404761Y-96888095D01*
X53357142Y-96935714D01*
X53023809Y-96935714D01*
X53023809Y-96745238D01*
X53452380Y-97364285D02*
X52452380Y-97364285D01*
X53452380Y-97935714D01*
X52452380Y-97935714D01*
X53452380Y-98411904D02*
X52452380Y-98411904D01*
X52452380Y-98650000D01*
X52500000Y-98792857D01*
X52595238Y-98888095D01*
X52690476Y-98935714D01*
X52880952Y-98983333D01*
X53023809Y-98983333D01*
X53214285Y-98935714D01*
X53309523Y-98888095D01*
X53404761Y-98792857D01*
X53452380Y-98650000D01*
X53452380Y-98411904D01*
X55050000Y-96888095D02*
X55002380Y-96792857D01*
X55002380Y-96650000D01*
X55050000Y-96507142D01*
X55145238Y-96411904D01*
X55240476Y-96364285D01*
X55430952Y-96316666D01*
X55573809Y-96316666D01*
X55764285Y-96364285D01*
X55859523Y-96411904D01*
X55954761Y-96507142D01*
X56002380Y-96650000D01*
X56002380Y-96745238D01*
X55954761Y-96888095D01*
X55907142Y-96935714D01*
X55573809Y-96935714D01*
X55573809Y-96745238D01*
X56002380Y-97364285D02*
X55002380Y-97364285D01*
X56002380Y-97935714D01*
X55002380Y-97935714D01*
X56002380Y-98411904D02*
X55002380Y-98411904D01*
X55002380Y-98650000D01*
X55050000Y-98792857D01*
X55145238Y-98888095D01*
X55240476Y-98935714D01*
X55430952Y-98983333D01*
X55573809Y-98983333D01*
X55764285Y-98935714D01*
X55859523Y-98888095D01*
X55954761Y-98792857D01*
X56002380Y-98650000D01*
X56002380Y-98411904D01*
X57702380Y-96173809D02*
X57702380Y-96792857D01*
X58083333Y-96459523D01*
X58083333Y-96602380D01*
X58130952Y-96697619D01*
X58178571Y-96745238D01*
X58273809Y-96792857D01*
X58511904Y-96792857D01*
X58607142Y-96745238D01*
X58654761Y-96697619D01*
X58702380Y-96602380D01*
X58702380Y-96316666D01*
X58654761Y-96221428D01*
X58607142Y-96173809D01*
X58607142Y-97221428D02*
X58654761Y-97269047D01*
X58702380Y-97221428D01*
X58654761Y-97173809D01*
X58607142Y-97221428D01*
X58702380Y-97221428D01*
X57702380Y-97602380D02*
X57702380Y-98221428D01*
X58083333Y-97888095D01*
X58083333Y-98030952D01*
X58130952Y-98126190D01*
X58178571Y-98173809D01*
X58273809Y-98221428D01*
X58511904Y-98221428D01*
X58607142Y-98173809D01*
X58654761Y-98126190D01*
X58702380Y-98030952D01*
X58702380Y-97745238D01*
X58654761Y-97650000D01*
X58607142Y-97602380D01*
X57702380Y-98507142D02*
X58702380Y-98840476D01*
X57702380Y-99173809D01*
X60152380Y-96609523D02*
X60152380Y-96133333D01*
X60628571Y-96085714D01*
X60580952Y-96133333D01*
X60533333Y-96228571D01*
X60533333Y-96466666D01*
X60580952Y-96561904D01*
X60628571Y-96609523D01*
X60723809Y-96657142D01*
X60961904Y-96657142D01*
X61057142Y-96609523D01*
X61104761Y-96561904D01*
X61152380Y-96466666D01*
X61152380Y-96228571D01*
X61104761Y-96133333D01*
X61057142Y-96085714D01*
X60152380Y-96942857D02*
X61152380Y-97276190D01*
X60152380Y-97609523D01*
X61152380Y-87678571D02*
X60152380Y-87678571D01*
X60866666Y-88011904D01*
X60152380Y-88345238D01*
X61152380Y-88345238D01*
X60152380Y-89011904D02*
X60152380Y-89202380D01*
X60200000Y-89297619D01*
X60295238Y-89392857D01*
X60485714Y-89440476D01*
X60819047Y-89440476D01*
X61009523Y-89392857D01*
X61104761Y-89297619D01*
X61152380Y-89202380D01*
X61152380Y-89011904D01*
X61104761Y-88916666D01*
X61009523Y-88821428D01*
X60819047Y-88773809D01*
X60485714Y-88773809D01*
X60295238Y-88821428D01*
X60200000Y-88916666D01*
X60152380Y-89011904D01*
X61104761Y-89821428D02*
X61152380Y-89964285D01*
X61152380Y-90202380D01*
X61104761Y-90297619D01*
X61057142Y-90345238D01*
X60961904Y-90392857D01*
X60866666Y-90392857D01*
X60771428Y-90345238D01*
X60723809Y-90297619D01*
X60676190Y-90202380D01*
X60628571Y-90011904D01*
X60580952Y-89916666D01*
X60533333Y-89869047D01*
X60438095Y-89821428D01*
X60342857Y-89821428D01*
X60247619Y-89869047D01*
X60200000Y-89916666D01*
X60152380Y-90011904D01*
X60152380Y-90250000D01*
X60200000Y-90392857D01*
X61152380Y-90821428D02*
X60152380Y-90821428D01*
X58454761Y-88314285D02*
X58502380Y-88457142D01*
X58502380Y-88695238D01*
X58454761Y-88790476D01*
X58407142Y-88838095D01*
X58311904Y-88885714D01*
X58216666Y-88885714D01*
X58121428Y-88838095D01*
X58073809Y-88790476D01*
X58026190Y-88695238D01*
X57978571Y-88504761D01*
X57930952Y-88409523D01*
X57883333Y-88361904D01*
X57788095Y-88314285D01*
X57692857Y-88314285D01*
X57597619Y-88361904D01*
X57550000Y-88409523D01*
X57502380Y-88504761D01*
X57502380Y-88742857D01*
X57550000Y-88885714D01*
X58407142Y-89885714D02*
X58454761Y-89838095D01*
X58502380Y-89695238D01*
X58502380Y-89600000D01*
X58454761Y-89457142D01*
X58359523Y-89361904D01*
X58264285Y-89314285D01*
X58073809Y-89266666D01*
X57930952Y-89266666D01*
X57740476Y-89314285D01*
X57645238Y-89361904D01*
X57550000Y-89457142D01*
X57502380Y-89600000D01*
X57502380Y-89695238D01*
X57550000Y-89838095D01*
X57597619Y-89885714D01*
X58502380Y-90314285D02*
X57502380Y-90314285D01*
X58502380Y-90885714D02*
X57930952Y-90457142D01*
X57502380Y-90885714D02*
X58073809Y-90314285D01*
X55716666Y-89635714D02*
X55716666Y-90111904D01*
X56002380Y-89540476D02*
X55002380Y-89873809D01*
X56002380Y-90207142D01*
X55002380Y-90730952D02*
X55002380Y-90826190D01*
X55050000Y-90921428D01*
X55097619Y-90969047D01*
X55192857Y-91016666D01*
X55383333Y-91064285D01*
X55621428Y-91064285D01*
X55811904Y-91016666D01*
X55907142Y-90969047D01*
X55954761Y-90921428D01*
X56002380Y-90826190D01*
X56002380Y-90730952D01*
X55954761Y-90635714D01*
X55907142Y-90588095D01*
X55811904Y-90540476D01*
X55621428Y-90492857D01*
X55383333Y-90492857D01*
X55192857Y-90540476D01*
X55097619Y-90588095D01*
X55050000Y-90635714D01*
X55002380Y-90730952D01*
X52235000Y-86688095D02*
X52235000Y-87688095D01*
X53602380Y-87497619D02*
X53126190Y-87164285D01*
X53602380Y-86926190D02*
X52602380Y-86926190D01*
X52602380Y-87307142D01*
X52650000Y-87402380D01*
X52697619Y-87450000D01*
X52792857Y-87497619D01*
X52935714Y-87497619D01*
X53030952Y-87450000D01*
X53078571Y-87402380D01*
X53126190Y-87307142D01*
X53126190Y-86926190D01*
X52235000Y-87688095D02*
X52235000Y-88592857D01*
X53078571Y-87926190D02*
X53078571Y-88259523D01*
X53602380Y-88402380D02*
X53602380Y-87926190D01*
X52602380Y-87926190D01*
X52602380Y-88402380D01*
X52235000Y-88592857D02*
X52235000Y-89545238D01*
X53554761Y-88783333D02*
X53602380Y-88926190D01*
X53602380Y-89164285D01*
X53554761Y-89259523D01*
X53507142Y-89307142D01*
X53411904Y-89354761D01*
X53316666Y-89354761D01*
X53221428Y-89307142D01*
X53173809Y-89259523D01*
X53126190Y-89164285D01*
X53078571Y-88973809D01*
X53030952Y-88878571D01*
X52983333Y-88830952D01*
X52888095Y-88783333D01*
X52792857Y-88783333D01*
X52697619Y-88830952D01*
X52650000Y-88878571D01*
X52602380Y-88973809D01*
X52602380Y-89211904D01*
X52650000Y-89354761D01*
X52235000Y-89545238D02*
X52235000Y-90450000D01*
X53078571Y-89783333D02*
X53078571Y-90116666D01*
X53602380Y-90259523D02*
X53602380Y-89783333D01*
X52602380Y-89783333D01*
X52602380Y-90259523D01*
X52235000Y-90450000D02*
X52235000Y-91211904D01*
X52602380Y-90545238D02*
X52602380Y-91116666D01*
X53602380Y-90830952D02*
X52602380Y-90830952D01*
X49635000Y-89073809D02*
X49635000Y-90073809D01*
X50907142Y-89883333D02*
X50954761Y-89835714D01*
X51002380Y-89692857D01*
X51002380Y-89597619D01*
X50954761Y-89454761D01*
X50859523Y-89359523D01*
X50764285Y-89311904D01*
X50573809Y-89264285D01*
X50430952Y-89264285D01*
X50240476Y-89311904D01*
X50145238Y-89359523D01*
X50050000Y-89454761D01*
X50002380Y-89597619D01*
X50002380Y-89692857D01*
X50050000Y-89835714D01*
X50097619Y-89883333D01*
X49635000Y-90073809D02*
X49635000Y-91026190D01*
X50954761Y-90264285D02*
X51002380Y-90407142D01*
X51002380Y-90645238D01*
X50954761Y-90740476D01*
X50907142Y-90788095D01*
X50811904Y-90835714D01*
X50716666Y-90835714D01*
X50621428Y-90788095D01*
X50573809Y-90740476D01*
X50526190Y-90645238D01*
X50478571Y-90454761D01*
X50430952Y-90359523D01*
X50383333Y-90311904D01*
X50288095Y-90264285D01*
X50192857Y-90264285D01*
X50097619Y-90311904D01*
X50050000Y-90359523D01*
X50002380Y-90454761D01*
X50002380Y-90692857D01*
X50050000Y-90835714D01*
X85191000Y-42711809D02*
X85191000Y-43711809D01*
X86463142Y-43521333D02*
X86510761Y-43473714D01*
X86558380Y-43330857D01*
X86558380Y-43235619D01*
X86510761Y-43092761D01*
X86415523Y-42997523D01*
X86320285Y-42949904D01*
X86129809Y-42902285D01*
X85986952Y-42902285D01*
X85796476Y-42949904D01*
X85701238Y-42997523D01*
X85606000Y-43092761D01*
X85558380Y-43235619D01*
X85558380Y-43330857D01*
X85606000Y-43473714D01*
X85653619Y-43521333D01*
X85191000Y-43711809D02*
X85191000Y-44664190D01*
X86510761Y-43902285D02*
X86558380Y-44045142D01*
X86558380Y-44283238D01*
X86510761Y-44378476D01*
X86463142Y-44426095D01*
X86367904Y-44473714D01*
X86272666Y-44473714D01*
X86177428Y-44426095D01*
X86129809Y-44378476D01*
X86082190Y-44283238D01*
X86034571Y-44092761D01*
X85986952Y-43997523D01*
X85939333Y-43949904D01*
X85844095Y-43902285D01*
X85748857Y-43902285D01*
X85653619Y-43949904D01*
X85606000Y-43997523D01*
X85558380Y-44092761D01*
X85558380Y-44330857D01*
X85606000Y-44473714D01*
X83764380Y-42481619D02*
X82764380Y-42481619D01*
X82764380Y-42719714D01*
X82812000Y-42862571D01*
X82907238Y-42957809D01*
X83002476Y-43005428D01*
X83192952Y-43053047D01*
X83335809Y-43053047D01*
X83526285Y-43005428D01*
X83621523Y-42957809D01*
X83716761Y-42862571D01*
X83764380Y-42719714D01*
X83764380Y-42481619D01*
X83764380Y-43481619D02*
X82764380Y-43481619D01*
X83097714Y-43957809D02*
X83764380Y-43957809D01*
X83192952Y-43957809D02*
X83145333Y-44005428D01*
X83097714Y-44100666D01*
X83097714Y-44243523D01*
X83145333Y-44338761D01*
X83240571Y-44386380D01*
X83764380Y-44386380D01*
X81224380Y-41148190D02*
X80224380Y-41148190D01*
X80224380Y-41386285D01*
X80272000Y-41529142D01*
X80367238Y-41624380D01*
X80462476Y-41672000D01*
X80652952Y-41719619D01*
X80795809Y-41719619D01*
X80986285Y-41672000D01*
X81081523Y-41624380D01*
X81176761Y-41529142D01*
X81224380Y-41386285D01*
X81224380Y-41148190D01*
X80224380Y-42338666D02*
X80224380Y-42529142D01*
X80272000Y-42624380D01*
X80367238Y-42719619D01*
X80557714Y-42767238D01*
X80891047Y-42767238D01*
X81081523Y-42719619D01*
X81176761Y-42624380D01*
X81224380Y-42529142D01*
X81224380Y-42338666D01*
X81176761Y-42243428D01*
X81081523Y-42148190D01*
X80891047Y-42100571D01*
X80557714Y-42100571D01*
X80367238Y-42148190D01*
X80272000Y-42243428D01*
X80224380Y-42338666D01*
X80557714Y-43624380D02*
X81224380Y-43624380D01*
X80557714Y-43195809D02*
X81081523Y-43195809D01*
X81176761Y-43243428D01*
X81224380Y-43338666D01*
X81224380Y-43481523D01*
X81176761Y-43576761D01*
X81129142Y-43624380D01*
X80557714Y-43957714D02*
X80557714Y-44338666D01*
X80224380Y-44100571D02*
X81081523Y-44100571D01*
X81176761Y-44148190D01*
X81224380Y-44243428D01*
X81224380Y-44338666D01*
X78636761Y-41894285D02*
X78684380Y-42037142D01*
X78684380Y-42275238D01*
X78636761Y-42370476D01*
X78589142Y-42418095D01*
X78493904Y-42465714D01*
X78398666Y-42465714D01*
X78303428Y-42418095D01*
X78255809Y-42370476D01*
X78208190Y-42275238D01*
X78160571Y-42084761D01*
X78112952Y-41989523D01*
X78065333Y-41941904D01*
X77970095Y-41894285D01*
X77874857Y-41894285D01*
X77779619Y-41941904D01*
X77732000Y-41989523D01*
X77684380Y-42084761D01*
X77684380Y-42322857D01*
X77732000Y-42465714D01*
X78589142Y-43465714D02*
X78636761Y-43418095D01*
X78684380Y-43275238D01*
X78684380Y-43180000D01*
X78636761Y-43037142D01*
X78541523Y-42941904D01*
X78446285Y-42894285D01*
X78255809Y-42846666D01*
X78112952Y-42846666D01*
X77922476Y-42894285D01*
X77827238Y-42941904D01*
X77732000Y-43037142D01*
X77684380Y-43180000D01*
X77684380Y-43275238D01*
X77732000Y-43418095D01*
X77779619Y-43465714D01*
X78684380Y-43894285D02*
X77684380Y-43894285D01*
X78684380Y-44465714D02*
X78112952Y-44037142D01*
X77684380Y-44465714D02*
X78255809Y-43894285D01*
X75192000Y-42418095D02*
X75144380Y-42322857D01*
X75144380Y-42180000D01*
X75192000Y-42037142D01*
X75287238Y-41941904D01*
X75382476Y-41894285D01*
X75572952Y-41846666D01*
X75715809Y-41846666D01*
X75906285Y-41894285D01*
X76001523Y-41941904D01*
X76096761Y-42037142D01*
X76144380Y-42180000D01*
X76144380Y-42275238D01*
X76096761Y-42418095D01*
X76049142Y-42465714D01*
X75715809Y-42465714D01*
X75715809Y-42275238D01*
X76144380Y-42894285D02*
X75144380Y-42894285D01*
X76144380Y-43465714D01*
X75144380Y-43465714D01*
X76144380Y-43941904D02*
X75144380Y-43941904D01*
X75144380Y-44180000D01*
X75192000Y-44322857D01*
X75287238Y-44418095D01*
X75382476Y-44465714D01*
X75572952Y-44513333D01*
X75715809Y-44513333D01*
X75906285Y-44465714D01*
X76001523Y-44418095D01*
X76096761Y-44322857D01*
X76144380Y-44180000D01*
X76144380Y-43941904D01*
X72604380Y-43497523D02*
X72604380Y-43021333D01*
X73080571Y-42973714D01*
X73032952Y-43021333D01*
X72985333Y-43116571D01*
X72985333Y-43354666D01*
X73032952Y-43449904D01*
X73080571Y-43497523D01*
X73175809Y-43545142D01*
X73413904Y-43545142D01*
X73509142Y-43497523D01*
X73556761Y-43449904D01*
X73604380Y-43354666D01*
X73604380Y-43116571D01*
X73556761Y-43021333D01*
X73509142Y-42973714D01*
X72604380Y-43830857D02*
X73604380Y-44164190D01*
X72604380Y-44497523D01*
X39597619Y-88497619D02*
X39597619Y-89497619D01*
X40073809Y-89164285D02*
X40073809Y-88497619D01*
X40073809Y-89069047D02*
X40121428Y-89116666D01*
X40216666Y-89164285D01*
X40359523Y-89164285D01*
X40454761Y-89116666D01*
X40502380Y-89021428D01*
X40502380Y-88497619D01*
X38538095Y-86800000D02*
X38442857Y-86847619D01*
X38300000Y-86847619D01*
X38157142Y-86800000D01*
X38061904Y-86704761D01*
X38014285Y-86609523D01*
X37966666Y-86419047D01*
X37966666Y-86276190D01*
X38014285Y-86085714D01*
X38061904Y-85990476D01*
X38157142Y-85895238D01*
X38300000Y-85847619D01*
X38395238Y-85847619D01*
X38538095Y-85895238D01*
X38585714Y-85942857D01*
X38585714Y-86276190D01*
X38395238Y-86276190D01*
X39014285Y-85847619D02*
X39014285Y-86847619D01*
X39585714Y-85847619D01*
X39585714Y-86847619D01*
X40061904Y-85847619D02*
X40061904Y-86847619D01*
X40300000Y-86847619D01*
X40442857Y-86800000D01*
X40538095Y-86704761D01*
X40585714Y-86609523D01*
X40633333Y-86419047D01*
X40633333Y-86276190D01*
X40585714Y-86085714D01*
X40538095Y-85990476D01*
X40442857Y-85895238D01*
X40300000Y-85847619D01*
X40061904Y-85847619D01*
X38566666Y-84347619D02*
X38757142Y-84347619D01*
X38852380Y-84300000D01*
X38947619Y-84204761D01*
X38995238Y-84014285D01*
X38995238Y-83680952D01*
X38947619Y-83490476D01*
X38852380Y-83395238D01*
X38757142Y-83347619D01*
X38566666Y-83347619D01*
X38471428Y-83395238D01*
X38376190Y-83490476D01*
X38328571Y-83680952D01*
X38328571Y-84014285D01*
X38376190Y-84204761D01*
X38471428Y-84300000D01*
X38566666Y-84347619D01*
X39852380Y-84014285D02*
X39852380Y-83347619D01*
X39423809Y-84014285D02*
X39423809Y-83490476D01*
X39471428Y-83395238D01*
X39566666Y-83347619D01*
X39709523Y-83347619D01*
X39804761Y-83395238D01*
X39852380Y-83442857D01*
X40185714Y-84014285D02*
X40566666Y-84014285D01*
X40328571Y-84347619D02*
X40328571Y-83490476D01*
X40376190Y-83395238D01*
X40471428Y-83347619D01*
X40566666Y-83347619D01*
X39509523Y-81647619D02*
X39033333Y-81647619D01*
X38985714Y-81171428D01*
X39033333Y-81219047D01*
X39128571Y-81266666D01*
X39366666Y-81266666D01*
X39461904Y-81219047D01*
X39509523Y-81171428D01*
X39557142Y-81076190D01*
X39557142Y-80838095D01*
X39509523Y-80742857D01*
X39461904Y-80695238D01*
X39366666Y-80647619D01*
X39128571Y-80647619D01*
X39033333Y-80695238D01*
X38985714Y-80742857D01*
X39842857Y-81647619D02*
X40176190Y-80647619D01*
X40509523Y-81647619D01*
X60688095Y-60602380D02*
X60688095Y-59602380D01*
X60116666Y-60602380D01*
X60116666Y-59602380D01*
X59211904Y-59935714D02*
X59211904Y-60602380D01*
X59640476Y-59935714D02*
X59640476Y-60459523D01*
X59592857Y-60554761D01*
X59497619Y-60602380D01*
X59354761Y-60602380D01*
X59259523Y-60554761D01*
X59211904Y-60507142D01*
X58307142Y-60554761D02*
X58402380Y-60602380D01*
X58592857Y-60602380D01*
X58688095Y-60554761D01*
X58735714Y-60507142D01*
X58783333Y-60411904D01*
X58783333Y-60126190D01*
X58735714Y-60030952D01*
X58688095Y-59983333D01*
X58592857Y-59935714D01*
X58402380Y-59935714D01*
X58307142Y-59983333D01*
X57735714Y-60602380D02*
X57830952Y-60554761D01*
X57878571Y-60459523D01*
X57878571Y-59602380D01*
X56973809Y-60554761D02*
X57069047Y-60602380D01*
X57259523Y-60602380D01*
X57354761Y-60554761D01*
X57402380Y-60459523D01*
X57402380Y-60078571D01*
X57354761Y-59983333D01*
X57259523Y-59935714D01*
X57069047Y-59935714D01*
X56973809Y-59983333D01*
X56926190Y-60078571D01*
X56926190Y-60173809D01*
X57402380Y-60269047D01*
X56354761Y-60602380D02*
X56450000Y-60554761D01*
X56497619Y-60507142D01*
X56545238Y-60411904D01*
X56545238Y-60126190D01*
X56497619Y-60030952D01*
X56450000Y-59983333D01*
X56354761Y-59935714D01*
X56211904Y-59935714D01*
X56116666Y-59983333D01*
X56069047Y-60030952D01*
X56021428Y-60126190D01*
X56021428Y-60411904D01*
X56069047Y-60507142D01*
X56116666Y-60554761D01*
X56211904Y-60602380D01*
X56354761Y-60602380D01*
X55592857Y-60221428D02*
X54830952Y-60221428D01*
X54021428Y-60078571D02*
X54354761Y-60078571D01*
X54354761Y-60602380D02*
X54354761Y-59602380D01*
X53878571Y-59602380D01*
X53069047Y-59935714D02*
X53069047Y-60602380D01*
X53307142Y-59554761D02*
X53545238Y-60269047D01*
X52926190Y-60269047D01*
X52116666Y-59935714D02*
X52116666Y-60602380D01*
X52354761Y-59554761D02*
X52592857Y-60269047D01*
X51973809Y-60269047D01*
X51164285Y-59602380D02*
X51354761Y-59602380D01*
X51450000Y-59650000D01*
X51497619Y-59697619D01*
X51592857Y-59840476D01*
X51640476Y-60030952D01*
X51640476Y-60411904D01*
X51592857Y-60507142D01*
X51545238Y-60554761D01*
X51450000Y-60602380D01*
X51259523Y-60602380D01*
X51164285Y-60554761D01*
X51116666Y-60507142D01*
X51069047Y-60411904D01*
X51069047Y-60173809D01*
X51116666Y-60078571D01*
X51164285Y-60030952D01*
X51259523Y-59983333D01*
X51450000Y-59983333D01*
X51545238Y-60030952D01*
X51592857Y-60078571D01*
X51640476Y-60173809D01*
X50069047Y-60602380D02*
X50402380Y-60126190D01*
X50640476Y-60602380D02*
X50640476Y-59602380D01*
X50259523Y-59602380D01*
X50164285Y-59650000D01*
X50116666Y-59697619D01*
X50069047Y-59792857D01*
X50069047Y-59935714D01*
X50116666Y-60030952D01*
X50164285Y-60078571D01*
X50259523Y-60126190D01*
X50640476Y-60126190D01*
X49640476Y-60078571D02*
X49307142Y-60078571D01*
X49164285Y-60602380D02*
X49640476Y-60602380D01*
X49640476Y-59602380D01*
X49164285Y-59602380D01*
D10*
X107204342Y-38422971D02*
X107204342Y-37422971D01*
X107204342Y-37708685D02*
X107132914Y-37565828D01*
X107061485Y-37494400D01*
X106918628Y-37422971D01*
X106775771Y-37422971D01*
X105704342Y-38351542D02*
X105847200Y-38422971D01*
X106132914Y-38422971D01*
X106275771Y-38351542D01*
X106347200Y-38208685D01*
X106347200Y-37637257D01*
X106275771Y-37494400D01*
X106132914Y-37422971D01*
X105847200Y-37422971D01*
X105704342Y-37494400D01*
X105632914Y-37637257D01*
X105632914Y-37780114D01*
X106347200Y-37922971D01*
X105132914Y-37422971D02*
X104775771Y-38422971D01*
X104418628Y-37422971D01*
X102775771Y-37065828D02*
X102704342Y-36994400D01*
X102561485Y-36922971D01*
X102204342Y-36922971D01*
X102061485Y-36994400D01*
X101990057Y-37065828D01*
X101918628Y-37208685D01*
X101918628Y-37351542D01*
X101990057Y-37565828D01*
X102847200Y-38422971D01*
X101918628Y-38422971D01*
D11*
X113324780Y-40749933D02*
X113372400Y-40702314D01*
X113467638Y-40559457D01*
X113515257Y-40464219D01*
X113562876Y-40321361D01*
X113610495Y-40083266D01*
X113610495Y-39892790D01*
X113562876Y-39654695D01*
X113515257Y-39511838D01*
X113467638Y-39416600D01*
X113372400Y-39273742D01*
X113324780Y-39226123D01*
X112515257Y-40321361D02*
X112610495Y-40368980D01*
X112800971Y-40368980D01*
X112896209Y-40321361D01*
X112943828Y-40273742D01*
X112991447Y-40178504D01*
X112991447Y-39892790D01*
X112943828Y-39797552D01*
X112896209Y-39749933D01*
X112800971Y-39702314D01*
X112610495Y-39702314D01*
X112515257Y-39749933D01*
X112181923Y-40749933D02*
X112134304Y-40702314D01*
X112039066Y-40559457D01*
X111991447Y-40464219D01*
X111943828Y-40321361D01*
X111896209Y-40083266D01*
X111896209Y-39892790D01*
X111943828Y-39654695D01*
X111991447Y-39511838D01*
X112039066Y-39416600D01*
X112134304Y-39273742D01*
X112181923Y-39226123D01*
X110658114Y-40368980D02*
X110658114Y-39702314D01*
X110658114Y-39368980D02*
X110705733Y-39416600D01*
X110658114Y-39464219D01*
X110610495Y-39416600D01*
X110658114Y-39368980D01*
X110658114Y-39464219D01*
X109515257Y-40464219D02*
X109610495Y-40416600D01*
X109705733Y-40321361D01*
X109848590Y-40178504D01*
X109943828Y-40130885D01*
X110039066Y-40130885D01*
X109991447Y-40368980D02*
X110086685Y-40321361D01*
X110181923Y-40226123D01*
X110229542Y-40035647D01*
X110229542Y-39702314D01*
X110181923Y-39511838D01*
X110086685Y-39416600D01*
X109991447Y-39368980D01*
X109800971Y-39368980D01*
X109705733Y-39416600D01*
X109610495Y-39511838D01*
X109562876Y-39702314D01*
X109562876Y-40035647D01*
X109610495Y-40226123D01*
X109705733Y-40321361D01*
X109800971Y-40368980D01*
X109991447Y-40368980D01*
X108705733Y-39702314D02*
X108705733Y-40368980D01*
X109134304Y-39702314D02*
X109134304Y-40226123D01*
X109086685Y-40321361D01*
X108991447Y-40368980D01*
X108848590Y-40368980D01*
X108753352Y-40321361D01*
X108705733Y-40273742D01*
X108229542Y-40368980D02*
X108229542Y-39702314D01*
X108229542Y-39892790D02*
X108181923Y-39797552D01*
X108134304Y-39749933D01*
X108039066Y-39702314D01*
X107943828Y-39702314D01*
X107705733Y-39702314D02*
X107467638Y-40368980D01*
X107229542Y-39702314D02*
X107467638Y-40368980D01*
X107562876Y-40607076D01*
X107610495Y-40654695D01*
X107705733Y-40702314D01*
X106848590Y-40273742D02*
X106800971Y-40321361D01*
X106848590Y-40368980D01*
X106896209Y-40321361D01*
X106848590Y-40273742D01*
X106848590Y-40368980D01*
X105943828Y-39702314D02*
X105943828Y-40368980D01*
X106372400Y-39702314D02*
X106372400Y-40226123D01*
X106324780Y-40321361D01*
X106229542Y-40368980D01*
X106086685Y-40368980D01*
X105991447Y-40321361D01*
X105943828Y-40273742D01*
X105515257Y-40321361D02*
X105420019Y-40368980D01*
X105229542Y-40368980D01*
X105134304Y-40321361D01*
X105086685Y-40226123D01*
X105086685Y-40178504D01*
X105134304Y-40083266D01*
X105229542Y-40035647D01*
X105372400Y-40035647D01*
X105467638Y-39988028D01*
X105515257Y-39892790D01*
X105515257Y-39845171D01*
X105467638Y-39749933D01*
X105372400Y-39702314D01*
X105229542Y-39702314D01*
X105134304Y-39749933D01*
X112610495Y-41018980D02*
X112610495Y-41733266D01*
X112658114Y-41876123D01*
X112753352Y-41971361D01*
X112896209Y-42018980D01*
X112991447Y-42018980D01*
X111705733Y-41352314D02*
X111705733Y-42018980D01*
X112134304Y-41352314D02*
X112134304Y-41876123D01*
X112086685Y-41971361D01*
X111991447Y-42018980D01*
X111848590Y-42018980D01*
X111753352Y-41971361D01*
X111705733Y-41923742D01*
X111086685Y-42018980D02*
X111181923Y-41971361D01*
X111229542Y-41876123D01*
X111229542Y-41018980D01*
X110800971Y-41352314D02*
X110562876Y-42018980D01*
X110324780Y-41352314D02*
X110562876Y-42018980D01*
X110658114Y-42257076D01*
X110705733Y-42304695D01*
X110800971Y-42352314D01*
X109229542Y-41114219D02*
X109181923Y-41066600D01*
X109086685Y-41018980D01*
X108848590Y-41018980D01*
X108753352Y-41066600D01*
X108705733Y-41114219D01*
X108658114Y-41209457D01*
X108658114Y-41304695D01*
X108705733Y-41447552D01*
X109277161Y-42018980D01*
X108658114Y-42018980D01*
X108039066Y-41018980D02*
X107943828Y-41018980D01*
X107848590Y-41066600D01*
X107800971Y-41114219D01*
X107753352Y-41209457D01*
X107705733Y-41399933D01*
X107705733Y-41638028D01*
X107753352Y-41828504D01*
X107800971Y-41923742D01*
X107848590Y-41971361D01*
X107943828Y-42018980D01*
X108039066Y-42018980D01*
X108134304Y-41971361D01*
X108181923Y-41923742D01*
X108229542Y-41828504D01*
X108277161Y-41638028D01*
X108277161Y-41399933D01*
X108229542Y-41209457D01*
X108181923Y-41114219D01*
X108134304Y-41066600D01*
X108039066Y-41018980D01*
X106753352Y-42018980D02*
X107324780Y-42018980D01*
X107039066Y-42018980D02*
X107039066Y-41018980D01*
X107134304Y-41161838D01*
X107229542Y-41257076D01*
X107324780Y-41304695D01*
X106181923Y-41447552D02*
X106277161Y-41399933D01*
X106324780Y-41352314D01*
X106372400Y-41257076D01*
X106372400Y-41209457D01*
X106324780Y-41114219D01*
X106277161Y-41066600D01*
X106181923Y-41018980D01*
X105991447Y-41018980D01*
X105896209Y-41066600D01*
X105848590Y-41114219D01*
X105800971Y-41209457D01*
X105800971Y-41257076D01*
X105848590Y-41352314D01*
X105896209Y-41399933D01*
X105991447Y-41447552D01*
X106181923Y-41447552D01*
X106277161Y-41495171D01*
X106324780Y-41542790D01*
X106372400Y-41638028D01*
X106372400Y-41828504D01*
X106324780Y-41923742D01*
X106277161Y-41971361D01*
X106181923Y-42018980D01*
X105991447Y-42018980D01*
X105896209Y-41971361D01*
X105848590Y-41923742D01*
X105800971Y-41828504D01*
X105800971Y-41638028D01*
X105848590Y-41542790D01*
X105896209Y-41495171D01*
X105991447Y-41447552D01*
D10*
X45167857Y-79421428D02*
X45239285Y-79635714D01*
X45310714Y-79707142D01*
X45453571Y-79778571D01*
X45667857Y-79778571D01*
X45810714Y-79707142D01*
X45882142Y-79635714D01*
X45953571Y-79492857D01*
X45953571Y-78921428D01*
X44453571Y-78921428D01*
X44453571Y-79421428D01*
X44525000Y-79564285D01*
X44596428Y-79635714D01*
X44739285Y-79707142D01*
X44882142Y-79707142D01*
X45025000Y-79635714D01*
X45096428Y-79564285D01*
X45167857Y-79421428D01*
X45167857Y-78921428D01*
X45882142Y-80992857D02*
X45953571Y-80850000D01*
X45953571Y-80564285D01*
X45882142Y-80421428D01*
X45739285Y-80350000D01*
X45167857Y-80350000D01*
X45025000Y-80421428D01*
X44953571Y-80564285D01*
X44953571Y-80850000D01*
X45025000Y-80992857D01*
X45167857Y-81064285D01*
X45310714Y-81064285D01*
X45453571Y-80350000D01*
X45953571Y-82350000D02*
X44453571Y-82350000D01*
X45882142Y-82350000D02*
X45953571Y-82207142D01*
X45953571Y-81921428D01*
X45882142Y-81778571D01*
X45810714Y-81707142D01*
X45667857Y-81635714D01*
X45239285Y-81635714D01*
X45096428Y-81707142D01*
X45025000Y-81778571D01*
X44953571Y-81921428D01*
X44953571Y-82207142D01*
X45025000Y-82350000D01*
X45953571Y-84421428D02*
X45882142Y-84278571D01*
X45739285Y-84207142D01*
X44453571Y-84207142D01*
X45882142Y-85564285D02*
X45953571Y-85421428D01*
X45953571Y-85135714D01*
X45882142Y-84992857D01*
X45739285Y-84921428D01*
X45167857Y-84921428D01*
X45025000Y-84992857D01*
X44953571Y-85135714D01*
X44953571Y-85421428D01*
X45025000Y-85564285D01*
X45167857Y-85635714D01*
X45310714Y-85635714D01*
X45453571Y-84921428D01*
X44953571Y-86135714D02*
X45953571Y-86492857D01*
X44953571Y-86850000D01*
X45882142Y-87992857D02*
X45953571Y-87850000D01*
X45953571Y-87564285D01*
X45882142Y-87421428D01*
X45739285Y-87350000D01*
X45167857Y-87350000D01*
X45025000Y-87421428D01*
X44953571Y-87564285D01*
X44953571Y-87850000D01*
X45025000Y-87992857D01*
X45167857Y-88064285D01*
X45310714Y-88064285D01*
X45453571Y-87350000D01*
X45953571Y-88921428D02*
X45882142Y-88778571D01*
X45739285Y-88707142D01*
X44453571Y-88707142D01*
X47503571Y-81064285D02*
X49003571Y-81064285D01*
X47575000Y-81064285D02*
X47503571Y-81207142D01*
X47503571Y-81492857D01*
X47575000Y-81635714D01*
X47646428Y-81707142D01*
X47789285Y-81778571D01*
X48217857Y-81778571D01*
X48360714Y-81707142D01*
X48432142Y-81635714D01*
X48503571Y-81492857D01*
X48503571Y-81207142D01*
X48432142Y-81064285D01*
X48503571Y-82421428D02*
X47503571Y-82421428D01*
X47789285Y-82421428D02*
X47646428Y-82492857D01*
X47575000Y-82564285D01*
X47503571Y-82707142D01*
X47503571Y-82850000D01*
X48503571Y-83564285D02*
X48432142Y-83421428D01*
X48360714Y-83350000D01*
X48217857Y-83278571D01*
X47789285Y-83278571D01*
X47646428Y-83350000D01*
X47575000Y-83421428D01*
X47503571Y-83564285D01*
X47503571Y-83778571D01*
X47575000Y-83921428D01*
X47646428Y-83992857D01*
X47789285Y-84064285D01*
X48217857Y-84064285D01*
X48360714Y-83992857D01*
X48432142Y-83921428D01*
X48503571Y-83778571D01*
X48503571Y-83564285D01*
X48503571Y-84707142D02*
X47003571Y-84707142D01*
X47575000Y-84707142D02*
X47503571Y-84850000D01*
X47503571Y-85135714D01*
X47575000Y-85278571D01*
X47646428Y-85350000D01*
X47789285Y-85421428D01*
X48217857Y-85421428D01*
X48360714Y-85350000D01*
X48432142Y-85278571D01*
X48503571Y-85135714D01*
X48503571Y-84850000D01*
X48432142Y-84707142D01*
X48432142Y-86635714D02*
X48503571Y-86492857D01*
X48503571Y-86207142D01*
X48432142Y-86064285D01*
X48289285Y-85992857D01*
X47717857Y-85992857D01*
X47575000Y-86064285D01*
X47503571Y-86207142D01*
X47503571Y-86492857D01*
X47575000Y-86635714D01*
X47717857Y-86707142D01*
X47860714Y-86707142D01*
X48003571Y-85992857D01*
X74900000Y-89703571D02*
X74042857Y-89703571D01*
X74471428Y-91203571D02*
X74471428Y-89703571D01*
X72971428Y-91132142D02*
X73114285Y-91203571D01*
X73400000Y-91203571D01*
X73542857Y-91132142D01*
X73614285Y-90989285D01*
X73614285Y-90417857D01*
X73542857Y-90275000D01*
X73400000Y-90203571D01*
X73114285Y-90203571D01*
X72971428Y-90275000D01*
X72900000Y-90417857D01*
X72900000Y-90560714D01*
X73614285Y-90703571D01*
X72257142Y-91203571D02*
X72257142Y-90203571D01*
X72257142Y-90346428D02*
X72185714Y-90275000D01*
X72042857Y-90203571D01*
X71828571Y-90203571D01*
X71685714Y-90275000D01*
X71614285Y-90417857D01*
X71614285Y-91203571D01*
X71614285Y-90417857D02*
X71542857Y-90275000D01*
X71400000Y-90203571D01*
X71185714Y-90203571D01*
X71042857Y-90275000D01*
X70971428Y-90417857D01*
X70971428Y-91203571D01*
X70257142Y-90203571D02*
X70257142Y-91703571D01*
X70257142Y-90275000D02*
X70114285Y-90203571D01*
X69828571Y-90203571D01*
X69685714Y-90275000D01*
X69614285Y-90346428D01*
X69542857Y-90489285D01*
X69542857Y-90917857D01*
X69614285Y-91060714D01*
X69685714Y-91132142D01*
X69828571Y-91203571D01*
X70114285Y-91203571D01*
X70257142Y-91132142D01*
X73185714Y-92967857D02*
X72685714Y-92967857D01*
X72471428Y-93753571D02*
X73185714Y-93753571D01*
X73185714Y-92253571D01*
X72471428Y-92253571D01*
X71542857Y-92253571D02*
X71400000Y-92253571D01*
X71257142Y-92325000D01*
X71185714Y-92396428D01*
X71114285Y-92539285D01*
X71042857Y-92825000D01*
X71042857Y-93182142D01*
X71114285Y-93467857D01*
X71185714Y-93610714D01*
X71257142Y-93682142D01*
X71400000Y-93753571D01*
X71542857Y-93753571D01*
X71685714Y-93682142D01*
X71757142Y-93610714D01*
X71828571Y-93467857D01*
X71900000Y-93182142D01*
X71900000Y-92825000D01*
X71828571Y-92539285D01*
X71757142Y-92396428D01*
X71685714Y-92325000D01*
X71542857Y-92253571D01*
X75200000Y-95953571D02*
X74342857Y-95953571D01*
X74771428Y-97453571D02*
X74771428Y-95953571D01*
X73271428Y-97382142D02*
X73414285Y-97453571D01*
X73700000Y-97453571D01*
X73842857Y-97382142D01*
X73914285Y-97239285D01*
X73914285Y-96667857D01*
X73842857Y-96525000D01*
X73700000Y-96453571D01*
X73414285Y-96453571D01*
X73271428Y-96525000D01*
X73200000Y-96667857D01*
X73200000Y-96810714D01*
X73914285Y-96953571D01*
X72557142Y-97453571D02*
X72557142Y-96453571D01*
X72557142Y-96596428D02*
X72485714Y-96525000D01*
X72342857Y-96453571D01*
X72128571Y-96453571D01*
X71985714Y-96525000D01*
X71914285Y-96667857D01*
X71914285Y-97453571D01*
X71914285Y-96667857D02*
X71842857Y-96525000D01*
X71700000Y-96453571D01*
X71485714Y-96453571D01*
X71342857Y-96525000D01*
X71271428Y-96667857D01*
X71271428Y-97453571D01*
X70557142Y-96453571D02*
X70557142Y-97953571D01*
X70557142Y-96525000D02*
X70414285Y-96453571D01*
X70128571Y-96453571D01*
X69985714Y-96525000D01*
X69914285Y-96596428D01*
X69842857Y-96739285D01*
X69842857Y-97167857D01*
X69914285Y-97310714D01*
X69985714Y-97382142D01*
X70128571Y-97453571D01*
X70414285Y-97453571D01*
X70557142Y-97382142D01*
X73485714Y-99217857D02*
X72985714Y-99217857D01*
X72771428Y-100003571D02*
X73485714Y-100003571D01*
X73485714Y-98503571D01*
X72771428Y-98503571D01*
X71342857Y-100003571D02*
X72200000Y-100003571D01*
X71771428Y-100003571D02*
X71771428Y-98503571D01*
X71914285Y-98717857D01*
X72057142Y-98860714D01*
X72200000Y-98932142D01*
X75100000Y-102503571D02*
X74242857Y-102503571D01*
X74671428Y-104003571D02*
X74671428Y-102503571D01*
X73171428Y-103932142D02*
X73314285Y-104003571D01*
X73600000Y-104003571D01*
X73742857Y-103932142D01*
X73814285Y-103789285D01*
X73814285Y-103217857D01*
X73742857Y-103075000D01*
X73600000Y-103003571D01*
X73314285Y-103003571D01*
X73171428Y-103075000D01*
X73100000Y-103217857D01*
X73100000Y-103360714D01*
X73814285Y-103503571D01*
X72457142Y-104003571D02*
X72457142Y-103003571D01*
X72457142Y-103146428D02*
X72385714Y-103075000D01*
X72242857Y-103003571D01*
X72028571Y-103003571D01*
X71885714Y-103075000D01*
X71814285Y-103217857D01*
X71814285Y-104003571D01*
X71814285Y-103217857D02*
X71742857Y-103075000D01*
X71600000Y-103003571D01*
X71385714Y-103003571D01*
X71242857Y-103075000D01*
X71171428Y-103217857D01*
X71171428Y-104003571D01*
X70457142Y-103003571D02*
X70457142Y-104503571D01*
X70457142Y-103075000D02*
X70314285Y-103003571D01*
X70028571Y-103003571D01*
X69885714Y-103075000D01*
X69814285Y-103146428D01*
X69742857Y-103289285D01*
X69742857Y-103717857D01*
X69814285Y-103860714D01*
X69885714Y-103932142D01*
X70028571Y-104003571D01*
X70314285Y-104003571D01*
X70457142Y-103932142D01*
X73564285Y-105767857D02*
X73350000Y-105839285D01*
X73278571Y-105910714D01*
X73207142Y-106053571D01*
X73207142Y-106267857D01*
X73278571Y-106410714D01*
X73350000Y-106482142D01*
X73492857Y-106553571D01*
X74064285Y-106553571D01*
X74064285Y-105053571D01*
X73564285Y-105053571D01*
X73421428Y-105125000D01*
X73350000Y-105196428D01*
X73278571Y-105339285D01*
X73278571Y-105482142D01*
X73350000Y-105625000D01*
X73421428Y-105696428D01*
X73564285Y-105767857D01*
X74064285Y-105767857D01*
X71992857Y-106482142D02*
X72135714Y-106553571D01*
X72421428Y-106553571D01*
X72564285Y-106482142D01*
X72635714Y-106339285D01*
X72635714Y-105767857D01*
X72564285Y-105625000D01*
X72421428Y-105553571D01*
X72135714Y-105553571D01*
X71992857Y-105625000D01*
X71921428Y-105767857D01*
X71921428Y-105910714D01*
X72635714Y-106053571D01*
X71278571Y-106553571D02*
X71278571Y-105053571D01*
X71278571Y-105625000D02*
X71135714Y-105553571D01*
X70850000Y-105553571D01*
X70707142Y-105625000D01*
X70635714Y-105696428D01*
X70564285Y-105839285D01*
X70564285Y-106267857D01*
X70635714Y-106410714D01*
X70707142Y-106482142D01*
X70850000Y-106553571D01*
X71135714Y-106553571D01*
X71278571Y-106482142D01*
X41228571Y-72717857D02*
X40728571Y-72717857D01*
X40514285Y-73503571D02*
X41228571Y-73503571D01*
X41228571Y-72003571D01*
X40514285Y-72003571D01*
X39085714Y-73503571D02*
X39942857Y-73503571D01*
X39514285Y-73503571D02*
X39514285Y-72003571D01*
X39657142Y-72217857D01*
X39800000Y-72360714D01*
X39942857Y-72432142D01*
X36800000Y-72717857D02*
X37300000Y-72717857D01*
X37300000Y-73503571D02*
X37300000Y-72003571D01*
X36585714Y-72003571D01*
X36014285Y-73503571D02*
X36014285Y-72503571D01*
X36014285Y-72003571D02*
X36085714Y-72075000D01*
X36014285Y-72146428D01*
X35942857Y-72075000D01*
X36014285Y-72003571D01*
X36014285Y-72146428D01*
X35085714Y-73503571D02*
X35228571Y-73432142D01*
X35300000Y-73289285D01*
X35300000Y-72003571D01*
X33871428Y-73503571D02*
X33871428Y-72717857D01*
X33942857Y-72575000D01*
X34085714Y-72503571D01*
X34371428Y-72503571D01*
X34514285Y-72575000D01*
X33871428Y-73432142D02*
X34014285Y-73503571D01*
X34371428Y-73503571D01*
X34514285Y-73432142D01*
X34585714Y-73289285D01*
X34585714Y-73146428D01*
X34514285Y-73003571D01*
X34371428Y-72932142D01*
X34014285Y-72932142D01*
X33871428Y-72860714D01*
X33157142Y-73503571D02*
X33157142Y-72503571D01*
X33157142Y-72646428D02*
X33085714Y-72575000D01*
X32942857Y-72503571D01*
X32728571Y-72503571D01*
X32585714Y-72575000D01*
X32514285Y-72717857D01*
X32514285Y-73503571D01*
X32514285Y-72717857D02*
X32442857Y-72575000D01*
X32300000Y-72503571D01*
X32085714Y-72503571D01*
X31942857Y-72575000D01*
X31871428Y-72717857D01*
X31871428Y-73503571D01*
X30585714Y-73432142D02*
X30728571Y-73503571D01*
X31014285Y-73503571D01*
X31157142Y-73432142D01*
X31228571Y-73289285D01*
X31228571Y-72717857D01*
X31157142Y-72575000D01*
X31014285Y-72503571D01*
X30728571Y-72503571D01*
X30585714Y-72575000D01*
X30514285Y-72717857D01*
X30514285Y-72860714D01*
X31228571Y-73003571D01*
X29871428Y-72503571D02*
X29871428Y-73503571D01*
X29871428Y-72646428D02*
X29800000Y-72575000D01*
X29657142Y-72503571D01*
X29442857Y-72503571D01*
X29300000Y-72575000D01*
X29228571Y-72717857D01*
X29228571Y-73503571D01*
X28728571Y-72503571D02*
X28157142Y-72503571D01*
X28514285Y-72003571D02*
X28514285Y-73289285D01*
X28442857Y-73432142D01*
X28300000Y-73503571D01*
X28157142Y-73503571D01*
X37978571Y-76053571D02*
X37978571Y-74553571D01*
X37621428Y-74553571D01*
X37407142Y-74625000D01*
X37264285Y-74767857D01*
X37192857Y-74910714D01*
X37121428Y-75196428D01*
X37121428Y-75410714D01*
X37192857Y-75696428D01*
X37264285Y-75839285D01*
X37407142Y-75982142D01*
X37621428Y-76053571D01*
X37978571Y-76053571D01*
X35907142Y-75982142D02*
X36050000Y-76053571D01*
X36335714Y-76053571D01*
X36478571Y-75982142D01*
X36550000Y-75839285D01*
X36550000Y-75267857D01*
X36478571Y-75125000D01*
X36335714Y-75053571D01*
X36050000Y-75053571D01*
X35907142Y-75125000D01*
X35835714Y-75267857D01*
X35835714Y-75410714D01*
X36550000Y-75553571D01*
X35407142Y-75053571D02*
X34835714Y-75053571D01*
X35192857Y-74553571D02*
X35192857Y-75839285D01*
X35121428Y-75982142D01*
X34978571Y-76053571D01*
X34835714Y-76053571D01*
X33764285Y-75982142D02*
X33907142Y-76053571D01*
X34192857Y-76053571D01*
X34335714Y-75982142D01*
X34407142Y-75839285D01*
X34407142Y-75267857D01*
X34335714Y-75125000D01*
X34192857Y-75053571D01*
X33907142Y-75053571D01*
X33764285Y-75125000D01*
X33692857Y-75267857D01*
X33692857Y-75410714D01*
X34407142Y-75553571D01*
X32407142Y-75982142D02*
X32550000Y-76053571D01*
X32835714Y-76053571D01*
X32978571Y-75982142D01*
X33050000Y-75910714D01*
X33121428Y-75767857D01*
X33121428Y-75339285D01*
X33050000Y-75196428D01*
X32978571Y-75125000D01*
X32835714Y-75053571D01*
X32550000Y-75053571D01*
X32407142Y-75125000D01*
X31978571Y-75053571D02*
X31407142Y-75053571D01*
X31764285Y-74553571D02*
X31764285Y-75839285D01*
X31692857Y-75982142D01*
X31550000Y-76053571D01*
X31407142Y-76053571D01*
X36941285Y-88474285D02*
X36941285Y-89188571D01*
X37441285Y-87688571D02*
X36941285Y-88474285D01*
X36441285Y-87688571D01*
X34798428Y-89188571D02*
X34798428Y-87688571D01*
X34298428Y-88760000D01*
X33798428Y-87688571D01*
X33798428Y-89188571D01*
X32441285Y-89188571D02*
X32441285Y-88402857D01*
X32512714Y-88260000D01*
X32655571Y-88188571D01*
X32941285Y-88188571D01*
X33084142Y-88260000D01*
X32441285Y-89117142D02*
X32584142Y-89188571D01*
X32941285Y-89188571D01*
X33084142Y-89117142D01*
X33155571Y-88974285D01*
X33155571Y-88831428D01*
X33084142Y-88688571D01*
X32941285Y-88617142D01*
X32584142Y-88617142D01*
X32441285Y-88545714D01*
X31869857Y-89188571D02*
X31084142Y-88188571D01*
X31869857Y-88188571D02*
X31084142Y-89188571D01*
X37568285Y-97086571D02*
X36568285Y-97086571D01*
X37568285Y-98586571D01*
X36568285Y-98586571D01*
X34854000Y-98586571D02*
X34854000Y-97086571D01*
X34354000Y-98158000D01*
X33854000Y-97086571D01*
X33854000Y-98586571D01*
X32496857Y-98586571D02*
X32496857Y-97800857D01*
X32568285Y-97658000D01*
X32711142Y-97586571D01*
X32996857Y-97586571D01*
X33139714Y-97658000D01*
X32496857Y-98515142D02*
X32639714Y-98586571D01*
X32996857Y-98586571D01*
X33139714Y-98515142D01*
X33211142Y-98372285D01*
X33211142Y-98229428D01*
X33139714Y-98086571D01*
X32996857Y-98015142D01*
X32639714Y-98015142D01*
X32496857Y-97943714D01*
X31925428Y-98586571D02*
X31139714Y-97586571D01*
X31925428Y-97586571D02*
X31139714Y-98586571D01*
X78378571Y-84067857D02*
X77878571Y-84067857D01*
X77664285Y-84853571D02*
X78378571Y-84853571D01*
X78378571Y-83353571D01*
X77664285Y-83353571D01*
X76735714Y-83353571D02*
X76592857Y-83353571D01*
X76450000Y-83425000D01*
X76378571Y-83496428D01*
X76307142Y-83639285D01*
X76235714Y-83925000D01*
X76235714Y-84282142D01*
X76307142Y-84567857D01*
X76378571Y-84710714D01*
X76450000Y-84782142D01*
X76592857Y-84853571D01*
X76735714Y-84853571D01*
X76878571Y-84782142D01*
X76950000Y-84710714D01*
X77021428Y-84567857D01*
X77092857Y-84282142D01*
X77092857Y-83925000D01*
X77021428Y-83639285D01*
X76950000Y-83496428D01*
X76878571Y-83425000D01*
X76735714Y-83353571D01*
X73950000Y-84067857D02*
X74450000Y-84067857D01*
X74450000Y-84853571D02*
X74450000Y-83353571D01*
X73735714Y-83353571D01*
X73164285Y-84853571D02*
X73164285Y-83853571D01*
X73164285Y-83353571D02*
X73235714Y-83425000D01*
X73164285Y-83496428D01*
X73092857Y-83425000D01*
X73164285Y-83353571D01*
X73164285Y-83496428D01*
X72235714Y-84853571D02*
X72378571Y-84782142D01*
X72450000Y-84639285D01*
X72450000Y-83353571D01*
X71021428Y-84853571D02*
X71021428Y-84067857D01*
X71092857Y-83925000D01*
X71235714Y-83853571D01*
X71521428Y-83853571D01*
X71664285Y-83925000D01*
X71021428Y-84782142D02*
X71164285Y-84853571D01*
X71521428Y-84853571D01*
X71664285Y-84782142D01*
X71735714Y-84639285D01*
X71735714Y-84496428D01*
X71664285Y-84353571D01*
X71521428Y-84282142D01*
X71164285Y-84282142D01*
X71021428Y-84210714D01*
X70307142Y-84853571D02*
X70307142Y-83853571D01*
X70307142Y-83996428D02*
X70235714Y-83925000D01*
X70092857Y-83853571D01*
X69878571Y-83853571D01*
X69735714Y-83925000D01*
X69664285Y-84067857D01*
X69664285Y-84853571D01*
X69664285Y-84067857D02*
X69592857Y-83925000D01*
X69450000Y-83853571D01*
X69235714Y-83853571D01*
X69092857Y-83925000D01*
X69021428Y-84067857D01*
X69021428Y-84853571D01*
X67735714Y-84782142D02*
X67878571Y-84853571D01*
X68164285Y-84853571D01*
X68307142Y-84782142D01*
X68378571Y-84639285D01*
X68378571Y-84067857D01*
X68307142Y-83925000D01*
X68164285Y-83853571D01*
X67878571Y-83853571D01*
X67735714Y-83925000D01*
X67664285Y-84067857D01*
X67664285Y-84210714D01*
X68378571Y-84353571D01*
X67021428Y-83853571D02*
X67021428Y-84853571D01*
X67021428Y-83996428D02*
X66950000Y-83925000D01*
X66807142Y-83853571D01*
X66592857Y-83853571D01*
X66450000Y-83925000D01*
X66378571Y-84067857D01*
X66378571Y-84853571D01*
X65878571Y-83853571D02*
X65307142Y-83853571D01*
X65664285Y-83353571D02*
X65664285Y-84639285D01*
X65592857Y-84782142D01*
X65450000Y-84853571D01*
X65307142Y-84853571D01*
X75128571Y-87403571D02*
X75128571Y-85903571D01*
X74771428Y-85903571D01*
X74557142Y-85975000D01*
X74414285Y-86117857D01*
X74342857Y-86260714D01*
X74271428Y-86546428D01*
X74271428Y-86760714D01*
X74342857Y-87046428D01*
X74414285Y-87189285D01*
X74557142Y-87332142D01*
X74771428Y-87403571D01*
X75128571Y-87403571D01*
X73057142Y-87332142D02*
X73200000Y-87403571D01*
X73485714Y-87403571D01*
X73628571Y-87332142D01*
X73700000Y-87189285D01*
X73700000Y-86617857D01*
X73628571Y-86475000D01*
X73485714Y-86403571D01*
X73200000Y-86403571D01*
X73057142Y-86475000D01*
X72985714Y-86617857D01*
X72985714Y-86760714D01*
X73700000Y-86903571D01*
X72557142Y-86403571D02*
X71985714Y-86403571D01*
X72342857Y-85903571D02*
X72342857Y-87189285D01*
X72271428Y-87332142D01*
X72128571Y-87403571D01*
X71985714Y-87403571D01*
X70914285Y-87332142D02*
X71057142Y-87403571D01*
X71342857Y-87403571D01*
X71485714Y-87332142D01*
X71557142Y-87189285D01*
X71557142Y-86617857D01*
X71485714Y-86475000D01*
X71342857Y-86403571D01*
X71057142Y-86403571D01*
X70914285Y-86475000D01*
X70842857Y-86617857D01*
X70842857Y-86760714D01*
X71557142Y-86903571D01*
X69557142Y-87332142D02*
X69700000Y-87403571D01*
X69985714Y-87403571D01*
X70128571Y-87332142D01*
X70200000Y-87260714D01*
X70271428Y-87117857D01*
X70271428Y-86689285D01*
X70200000Y-86546428D01*
X70128571Y-86475000D01*
X69985714Y-86403571D01*
X69700000Y-86403571D01*
X69557142Y-86475000D01*
X69128571Y-86403571D02*
X68557142Y-86403571D01*
X68914285Y-85903571D02*
X68914285Y-87189285D01*
X68842857Y-87332142D01*
X68700000Y-87403571D01*
X68557142Y-87403571D01*
X73214285Y-70578571D02*
X72214285Y-72078571D01*
X72214285Y-70578571D02*
X73214285Y-72078571D01*
X70500000Y-72078571D02*
X70500000Y-70578571D01*
X70000000Y-71650000D01*
X69500000Y-70578571D01*
X69500000Y-72078571D01*
X68142857Y-72078571D02*
X68142857Y-71292857D01*
X68214285Y-71150000D01*
X68357142Y-71078571D01*
X68642857Y-71078571D01*
X68785714Y-71150000D01*
X68142857Y-72007142D02*
X68285714Y-72078571D01*
X68642857Y-72078571D01*
X68785714Y-72007142D01*
X68857142Y-71864285D01*
X68857142Y-71721428D01*
X68785714Y-71578571D01*
X68642857Y-71507142D01*
X68285714Y-71507142D01*
X68142857Y-71435714D01*
X67571428Y-72078571D02*
X66785714Y-71078571D01*
X67571428Y-71078571D02*
X66785714Y-72078571D01*
X81272785Y-75377071D02*
X80272785Y-75377071D01*
X81272785Y-76877071D01*
X80272785Y-76877071D01*
X78558500Y-76877071D02*
X78558500Y-75377071D01*
X78058500Y-76448500D01*
X77558500Y-75377071D01*
X77558500Y-76877071D01*
X76844214Y-76877071D02*
X76844214Y-75877071D01*
X76844214Y-75377071D02*
X76915642Y-75448500D01*
X76844214Y-75519928D01*
X76772785Y-75448500D01*
X76844214Y-75377071D01*
X76844214Y-75519928D01*
X76129928Y-75877071D02*
X76129928Y-76877071D01*
X76129928Y-76019928D02*
X76058500Y-75948500D01*
X75915642Y-75877071D01*
X75701357Y-75877071D01*
X75558500Y-75948500D01*
X75487071Y-76091357D01*
X75487071Y-76877071D01*
X72714285Y-62664285D02*
X72714285Y-63378571D01*
X73214285Y-61878571D02*
X72714285Y-62664285D01*
X72214285Y-61878571D01*
X70571428Y-63378571D02*
X70571428Y-61878571D01*
X70071428Y-62950000D01*
X69571428Y-61878571D01*
X69571428Y-63378571D01*
X68857142Y-63378571D02*
X68857142Y-62378571D01*
X68857142Y-61878571D02*
X68928571Y-61950000D01*
X68857142Y-62021428D01*
X68785714Y-61950000D01*
X68857142Y-61878571D01*
X68857142Y-62021428D01*
X68142857Y-62378571D02*
X68142857Y-63378571D01*
X68142857Y-62521428D02*
X68071428Y-62450000D01*
X67928571Y-62378571D01*
X67714285Y-62378571D01*
X67571428Y-62450000D01*
X67500000Y-62592857D01*
X67500000Y-63378571D01*
X81082285Y-66868071D02*
X80082285Y-68368071D01*
X80082285Y-66868071D02*
X81082285Y-68368071D01*
X78368000Y-68368071D02*
X78368000Y-66868071D01*
X77868000Y-67939500D01*
X77368000Y-66868071D01*
X77368000Y-68368071D01*
X76653714Y-68368071D02*
X76653714Y-67368071D01*
X76653714Y-66868071D02*
X76725142Y-66939500D01*
X76653714Y-67010928D01*
X76582285Y-66939500D01*
X76653714Y-66868071D01*
X76653714Y-67010928D01*
X75939428Y-67368071D02*
X75939428Y-68368071D01*
X75939428Y-67510928D02*
X75868000Y-67439500D01*
X75725142Y-67368071D01*
X75510857Y-67368071D01*
X75368000Y-67439500D01*
X75296571Y-67582357D01*
X75296571Y-68368071D01*
X77513571Y-108245000D02*
X76799285Y-108245000D01*
X77656428Y-108673571D02*
X77156428Y-107173571D01*
X76656428Y-108673571D01*
X75942142Y-108673571D02*
X76085000Y-108602142D01*
X76156428Y-108459285D01*
X76156428Y-107173571D01*
X75513571Y-107673571D02*
X75227857Y-108673571D01*
X74942142Y-107959285D01*
X74656428Y-108673571D01*
X74370714Y-107673571D01*
X73156428Y-108673571D02*
X73156428Y-107887857D01*
X73227857Y-107745000D01*
X73370714Y-107673571D01*
X73656428Y-107673571D01*
X73799285Y-107745000D01*
X73156428Y-108602142D02*
X73299285Y-108673571D01*
X73656428Y-108673571D01*
X73799285Y-108602142D01*
X73870714Y-108459285D01*
X73870714Y-108316428D01*
X73799285Y-108173571D01*
X73656428Y-108102142D01*
X73299285Y-108102142D01*
X73156428Y-108030714D01*
X72585000Y-107673571D02*
X72227857Y-108673571D01*
X71870714Y-107673571D02*
X72227857Y-108673571D01*
X72370714Y-109030714D01*
X72442142Y-109102142D01*
X72585000Y-109173571D01*
X71370714Y-108602142D02*
X71227857Y-108673571D01*
X70942142Y-108673571D01*
X70799285Y-108602142D01*
X70727857Y-108459285D01*
X70727857Y-108387857D01*
X70799285Y-108245000D01*
X70942142Y-108173571D01*
X71156428Y-108173571D01*
X71299285Y-108102142D01*
X71370714Y-107959285D01*
X71370714Y-107887857D01*
X71299285Y-107745000D01*
X71156428Y-107673571D01*
X70942142Y-107673571D01*
X70799285Y-107745000D01*
X68656428Y-107173571D02*
X68370714Y-107173571D01*
X68227857Y-107245000D01*
X68085000Y-107387857D01*
X68013571Y-107673571D01*
X68013571Y-108173571D01*
X68085000Y-108459285D01*
X68227857Y-108602142D01*
X68370714Y-108673571D01*
X68656428Y-108673571D01*
X68799285Y-108602142D01*
X68942142Y-108459285D01*
X69013571Y-108173571D01*
X69013571Y-107673571D01*
X68942142Y-107387857D01*
X68799285Y-107245000D01*
X68656428Y-107173571D01*
X67370714Y-107673571D02*
X67370714Y-108673571D01*
X67370714Y-107816428D02*
X67299285Y-107745000D01*
X67156428Y-107673571D01*
X66942142Y-107673571D01*
X66799285Y-107745000D01*
X66727857Y-107887857D01*
X66727857Y-108673571D01*
X78870714Y-110652142D02*
X77727857Y-110652142D01*
X74727857Y-110652142D02*
X73585000Y-110652142D01*
X74156428Y-111223571D02*
X74156428Y-110080714D01*
X70585000Y-110652142D02*
X69442142Y-110652142D01*
X66442142Y-110652142D02*
X65299285Y-110652142D01*
X65870714Y-111223571D02*
X65870714Y-110080714D01*
X35870714Y-104213357D02*
X35370714Y-104213357D01*
X35156428Y-104999071D02*
X35870714Y-104999071D01*
X35870714Y-103499071D01*
X35156428Y-103499071D01*
X33727857Y-104999071D02*
X34585000Y-104999071D01*
X34156428Y-104999071D02*
X34156428Y-103499071D01*
X34299285Y-103713357D01*
X34442142Y-103856214D01*
X34585000Y-103927642D01*
X36799285Y-107549071D02*
X36799285Y-106049071D01*
X36227857Y-106049071D01*
X36085000Y-106120500D01*
X36013571Y-106191928D01*
X35942142Y-106334785D01*
X35942142Y-106549071D01*
X36013571Y-106691928D01*
X36085000Y-106763357D01*
X36227857Y-106834785D01*
X36799285Y-106834785D01*
X34656428Y-107549071D02*
X34656428Y-106763357D01*
X34727857Y-106620500D01*
X34870714Y-106549071D01*
X35156428Y-106549071D01*
X35299285Y-106620500D01*
X34656428Y-107477642D02*
X34799285Y-107549071D01*
X35156428Y-107549071D01*
X35299285Y-107477642D01*
X35370714Y-107334785D01*
X35370714Y-107191928D01*
X35299285Y-107049071D01*
X35156428Y-106977642D01*
X34799285Y-106977642D01*
X34656428Y-106906214D01*
X33942142Y-107549071D02*
X33942142Y-106549071D01*
X33942142Y-106834785D02*
X33870714Y-106691928D01*
X33799285Y-106620500D01*
X33656428Y-106549071D01*
X33513571Y-106549071D01*
X33227857Y-106549071D02*
X32656428Y-106549071D01*
X33013571Y-106049071D02*
X33013571Y-107334785D01*
X32942142Y-107477642D01*
X32799285Y-107549071D01*
X32656428Y-107549071D01*
X37477857Y-109527642D02*
X36335000Y-109527642D01*
X33335000Y-109527642D02*
X32192142Y-109527642D01*
X32763571Y-110099071D02*
X32763571Y-108956214D01*
X44189214Y-104149857D02*
X43689214Y-104149857D01*
X43474928Y-104935571D02*
X44189214Y-104935571D01*
X44189214Y-103435571D01*
X43474928Y-103435571D01*
X42546357Y-103435571D02*
X42403500Y-103435571D01*
X42260642Y-103507000D01*
X42189214Y-103578428D01*
X42117785Y-103721285D01*
X42046357Y-104007000D01*
X42046357Y-104364142D01*
X42117785Y-104649857D01*
X42189214Y-104792714D01*
X42260642Y-104864142D01*
X42403500Y-104935571D01*
X42546357Y-104935571D01*
X42689214Y-104864142D01*
X42760642Y-104792714D01*
X42832071Y-104649857D01*
X42903500Y-104364142D01*
X42903500Y-104007000D01*
X42832071Y-103721285D01*
X42760642Y-103578428D01*
X42689214Y-103507000D01*
X42546357Y-103435571D01*
X45117785Y-107485571D02*
X45117785Y-105985571D01*
X44546357Y-105985571D01*
X44403500Y-106057000D01*
X44332071Y-106128428D01*
X44260642Y-106271285D01*
X44260642Y-106485571D01*
X44332071Y-106628428D01*
X44403500Y-106699857D01*
X44546357Y-106771285D01*
X45117785Y-106771285D01*
X42974928Y-107485571D02*
X42974928Y-106699857D01*
X43046357Y-106557000D01*
X43189214Y-106485571D01*
X43474928Y-106485571D01*
X43617785Y-106557000D01*
X42974928Y-107414142D02*
X43117785Y-107485571D01*
X43474928Y-107485571D01*
X43617785Y-107414142D01*
X43689214Y-107271285D01*
X43689214Y-107128428D01*
X43617785Y-106985571D01*
X43474928Y-106914142D01*
X43117785Y-106914142D01*
X42974928Y-106842714D01*
X42260642Y-107485571D02*
X42260642Y-106485571D01*
X42260642Y-106771285D02*
X42189214Y-106628428D01*
X42117785Y-106557000D01*
X41974928Y-106485571D01*
X41832071Y-106485571D01*
X41546357Y-106485571D02*
X40974928Y-106485571D01*
X41332071Y-105985571D02*
X41332071Y-107271285D01*
X41260642Y-107414142D01*
X41117785Y-107485571D01*
X40974928Y-107485571D01*
X45796357Y-109464142D02*
X44653500Y-109464142D01*
X41653500Y-109464142D02*
X40510642Y-109464142D01*
X41082071Y-110035571D02*
X41082071Y-108892714D01*
X52698214Y-104276857D02*
X52198214Y-104276857D01*
X51983928Y-105062571D02*
X52698214Y-105062571D01*
X52698214Y-103562571D01*
X51983928Y-103562571D01*
X50555357Y-105062571D02*
X51412500Y-105062571D01*
X50983928Y-105062571D02*
X50983928Y-103562571D01*
X51126785Y-103776857D01*
X51269642Y-103919714D01*
X51412500Y-103991142D01*
X52948214Y-107469714D02*
X53019642Y-107541142D01*
X53233928Y-107612571D01*
X53376785Y-107612571D01*
X53591071Y-107541142D01*
X53733928Y-107398285D01*
X53805357Y-107255428D01*
X53876785Y-106969714D01*
X53876785Y-106755428D01*
X53805357Y-106469714D01*
X53733928Y-106326857D01*
X53591071Y-106184000D01*
X53376785Y-106112571D01*
X53233928Y-106112571D01*
X53019642Y-106184000D01*
X52948214Y-106255428D01*
X52091071Y-107612571D02*
X52233928Y-107541142D01*
X52305357Y-107469714D01*
X52376785Y-107326857D01*
X52376785Y-106898285D01*
X52305357Y-106755428D01*
X52233928Y-106684000D01*
X52091071Y-106612571D01*
X51876785Y-106612571D01*
X51733928Y-106684000D01*
X51662500Y-106755428D01*
X51591071Y-106898285D01*
X51591071Y-107326857D01*
X51662500Y-107469714D01*
X51733928Y-107541142D01*
X51876785Y-107612571D01*
X52091071Y-107612571D01*
X50733928Y-107612571D02*
X50876785Y-107541142D01*
X50948214Y-107469714D01*
X51019642Y-107326857D01*
X51019642Y-106898285D01*
X50948214Y-106755428D01*
X50876785Y-106684000D01*
X50733928Y-106612571D01*
X50519642Y-106612571D01*
X50376785Y-106684000D01*
X50305357Y-106755428D01*
X50233928Y-106898285D01*
X50233928Y-107326857D01*
X50305357Y-107469714D01*
X50376785Y-107541142D01*
X50519642Y-107612571D01*
X50733928Y-107612571D01*
X49376785Y-107612571D02*
X49519642Y-107541142D01*
X49591071Y-107398285D01*
X49591071Y-106112571D01*
X54305357Y-109591142D02*
X53162500Y-109591142D01*
X50162500Y-109591142D02*
X49019642Y-109591142D01*
X49591071Y-110162571D02*
X49591071Y-109019714D01*
X60726214Y-104326857D02*
X60226214Y-104326857D01*
X60011928Y-105112571D02*
X60726214Y-105112571D01*
X60726214Y-103612571D01*
X60011928Y-103612571D01*
X59083357Y-103612571D02*
X58940500Y-103612571D01*
X58797642Y-103684000D01*
X58726214Y-103755428D01*
X58654785Y-103898285D01*
X58583357Y-104184000D01*
X58583357Y-104541142D01*
X58654785Y-104826857D01*
X58726214Y-104969714D01*
X58797642Y-105041142D01*
X58940500Y-105112571D01*
X59083357Y-105112571D01*
X59226214Y-105041142D01*
X59297642Y-104969714D01*
X59369071Y-104826857D01*
X59440500Y-104541142D01*
X59440500Y-104184000D01*
X59369071Y-103898285D01*
X59297642Y-103755428D01*
X59226214Y-103684000D01*
X59083357Y-103612571D01*
X60976214Y-107519714D02*
X61047642Y-107591142D01*
X61261928Y-107662571D01*
X61404785Y-107662571D01*
X61619071Y-107591142D01*
X61761928Y-107448285D01*
X61833357Y-107305428D01*
X61904785Y-107019714D01*
X61904785Y-106805428D01*
X61833357Y-106519714D01*
X61761928Y-106376857D01*
X61619071Y-106234000D01*
X61404785Y-106162571D01*
X61261928Y-106162571D01*
X61047642Y-106234000D01*
X60976214Y-106305428D01*
X60119071Y-107662571D02*
X60261928Y-107591142D01*
X60333357Y-107519714D01*
X60404785Y-107376857D01*
X60404785Y-106948285D01*
X60333357Y-106805428D01*
X60261928Y-106734000D01*
X60119071Y-106662571D01*
X59904785Y-106662571D01*
X59761928Y-106734000D01*
X59690500Y-106805428D01*
X59619071Y-106948285D01*
X59619071Y-107376857D01*
X59690500Y-107519714D01*
X59761928Y-107591142D01*
X59904785Y-107662571D01*
X60119071Y-107662571D01*
X58761928Y-107662571D02*
X58904785Y-107591142D01*
X58976214Y-107519714D01*
X59047642Y-107376857D01*
X59047642Y-106948285D01*
X58976214Y-106805428D01*
X58904785Y-106734000D01*
X58761928Y-106662571D01*
X58547642Y-106662571D01*
X58404785Y-106734000D01*
X58333357Y-106805428D01*
X58261928Y-106948285D01*
X58261928Y-107376857D01*
X58333357Y-107519714D01*
X58404785Y-107591142D01*
X58547642Y-107662571D01*
X58761928Y-107662571D01*
X57404785Y-107662571D02*
X57547642Y-107591142D01*
X57619071Y-107448285D01*
X57619071Y-106162571D01*
X62333357Y-109641142D02*
X61190500Y-109641142D01*
X58190500Y-109641142D02*
X57047642Y-109641142D01*
X57619071Y-110212571D02*
X57619071Y-109069714D01*
X49348500Y-100794357D02*
X49848500Y-100794357D01*
X49848500Y-101580071D02*
X49848500Y-100080071D01*
X49134214Y-100080071D01*
X47919928Y-101580071D02*
X47919928Y-100794357D01*
X47991357Y-100651500D01*
X48134214Y-100580071D01*
X48419928Y-100580071D01*
X48562785Y-100651500D01*
X47919928Y-101508642D02*
X48062785Y-101580071D01*
X48419928Y-101580071D01*
X48562785Y-101508642D01*
X48634214Y-101365785D01*
X48634214Y-101222928D01*
X48562785Y-101080071D01*
X48419928Y-101008642D01*
X48062785Y-101008642D01*
X47919928Y-100937214D01*
X47205642Y-100580071D02*
X47205642Y-101580071D01*
X47205642Y-100722928D02*
X47134214Y-100651500D01*
X46991357Y-100580071D01*
X46777071Y-100580071D01*
X46634214Y-100651500D01*
X46562785Y-100794357D01*
X46562785Y-101580071D01*
X45919928Y-101508642D02*
X45777071Y-101580071D01*
X45491357Y-101580071D01*
X45348500Y-101508642D01*
X45277071Y-101365785D01*
X45277071Y-101294357D01*
X45348500Y-101151500D01*
X45491357Y-101080071D01*
X45705642Y-101080071D01*
X45848500Y-101008642D01*
X45919928Y-100865785D01*
X45919928Y-100794357D01*
X45848500Y-100651500D01*
X45705642Y-100580071D01*
X45491357Y-100580071D01*
X45348500Y-100651500D01*
X46635714Y-20242857D02*
X46135714Y-20242857D01*
X45921428Y-21028571D02*
X46635714Y-21028571D01*
X46635714Y-19528571D01*
X45921428Y-19528571D01*
X44492857Y-21028571D02*
X45350000Y-21028571D01*
X44921428Y-21028571D02*
X44921428Y-19528571D01*
X45064285Y-19742857D01*
X45207142Y-19885714D01*
X45350000Y-19957142D01*
X22117857Y-48811785D02*
X22117857Y-49311785D01*
X22903571Y-49526071D02*
X22903571Y-48811785D01*
X21403571Y-48811785D01*
X21403571Y-49526071D01*
X21403571Y-50454642D02*
X21403571Y-50597500D01*
X21475000Y-50740357D01*
X21546428Y-50811785D01*
X21689285Y-50883214D01*
X21975000Y-50954642D01*
X22332142Y-50954642D01*
X22617857Y-50883214D01*
X22760714Y-50811785D01*
X22832142Y-50740357D01*
X22903571Y-50597500D01*
X22903571Y-50454642D01*
X22832142Y-50311785D01*
X22760714Y-50240357D01*
X22617857Y-50168928D01*
X22332142Y-50097500D01*
X21975000Y-50097500D01*
X21689285Y-50168928D01*
X21546428Y-50240357D01*
X21475000Y-50311785D01*
X21403571Y-50454642D01*
X115383571Y-96536285D02*
X116883571Y-97536285D01*
X115383571Y-97536285D02*
X116883571Y-96536285D01*
X116455000Y-99179142D02*
X116455000Y-99893428D01*
X116883571Y-99036285D02*
X115383571Y-99536285D01*
X116883571Y-100036285D01*
X116883571Y-100393428D02*
X115883571Y-101179142D01*
X115883571Y-100393428D02*
X116883571Y-101179142D01*
X116883571Y-101750571D02*
X115883571Y-101750571D01*
X115383571Y-101750571D02*
X115455000Y-101679142D01*
X115526428Y-101750571D01*
X115455000Y-101822000D01*
X115383571Y-101750571D01*
X115526428Y-101750571D01*
X116812142Y-102393428D02*
X116883571Y-102536285D01*
X116883571Y-102822000D01*
X116812142Y-102964857D01*
X116669285Y-103036285D01*
X116597857Y-103036285D01*
X116455000Y-102964857D01*
X116383571Y-102822000D01*
X116383571Y-102607714D01*
X116312142Y-102464857D01*
X116169285Y-102393428D01*
X116097857Y-102393428D01*
X115955000Y-102464857D01*
X115883571Y-102607714D01*
X115883571Y-102822000D01*
X115955000Y-102964857D01*
X116232785Y-72144285D02*
X116947071Y-72144285D01*
X115447071Y-71644285D02*
X116232785Y-72144285D01*
X115447071Y-72644285D01*
X116518500Y-74215714D02*
X116518500Y-74930000D01*
X116947071Y-74072857D02*
X115447071Y-74572857D01*
X116947071Y-75072857D01*
X116947071Y-75430000D02*
X115947071Y-76215714D01*
X115947071Y-75430000D02*
X116947071Y-76215714D01*
X116947071Y-76787142D02*
X115947071Y-76787142D01*
X115447071Y-76787142D02*
X115518500Y-76715714D01*
X115589928Y-76787142D01*
X115518500Y-76858571D01*
X115447071Y-76787142D01*
X115589928Y-76787142D01*
X116875642Y-77430000D02*
X116947071Y-77572857D01*
X116947071Y-77858571D01*
X116875642Y-78001428D01*
X116732785Y-78072857D01*
X116661357Y-78072857D01*
X116518500Y-78001428D01*
X116447071Y-77858571D01*
X116447071Y-77644285D01*
X116375642Y-77501428D01*
X116232785Y-77430000D01*
X116161357Y-77430000D01*
X116018500Y-77501428D01*
X115947071Y-77644285D01*
X115947071Y-77858571D01*
X116018500Y-78001428D01*
X115891571Y-35576285D02*
X115891571Y-36576285D01*
X117391571Y-35576285D01*
X117391571Y-36576285D01*
X116963000Y-38219142D02*
X116963000Y-38933428D01*
X117391571Y-38076285D02*
X115891571Y-38576285D01*
X117391571Y-39076285D01*
X117391571Y-39433428D02*
X116391571Y-40219142D01*
X116391571Y-39433428D02*
X117391571Y-40219142D01*
X117391571Y-40790571D02*
X116391571Y-40790571D01*
X115891571Y-40790571D02*
X115963000Y-40719142D01*
X116034428Y-40790571D01*
X115963000Y-40862000D01*
X115891571Y-40790571D01*
X116034428Y-40790571D01*
X117320142Y-41433428D02*
X117391571Y-41576285D01*
X117391571Y-41862000D01*
X117320142Y-42004857D01*
X117177285Y-42076285D01*
X117105857Y-42076285D01*
X116963000Y-42004857D01*
X116891571Y-41862000D01*
X116891571Y-41647714D01*
X116820142Y-41504857D01*
X116677285Y-41433428D01*
X116605857Y-41433428D01*
X116463000Y-41504857D01*
X116391571Y-41647714D01*
X116391571Y-41862000D01*
X116463000Y-42004857D01*
X78632357Y-36429071D02*
X78632357Y-34929071D01*
X78632357Y-35643357D02*
X77775214Y-35643357D01*
X77775214Y-36429071D02*
X77775214Y-34929071D01*
X76489500Y-36357642D02*
X76632357Y-36429071D01*
X76918071Y-36429071D01*
X77060928Y-36357642D01*
X77132357Y-36214785D01*
X77132357Y-35643357D01*
X77060928Y-35500500D01*
X76918071Y-35429071D01*
X76632357Y-35429071D01*
X76489500Y-35500500D01*
X76418071Y-35643357D01*
X76418071Y-35786214D01*
X77132357Y-35929071D01*
X75132357Y-36429071D02*
X75132357Y-35643357D01*
X75203785Y-35500500D01*
X75346642Y-35429071D01*
X75632357Y-35429071D01*
X75775214Y-35500500D01*
X75132357Y-36357642D02*
X75275214Y-36429071D01*
X75632357Y-36429071D01*
X75775214Y-36357642D01*
X75846642Y-36214785D01*
X75846642Y-36071928D01*
X75775214Y-35929071D01*
X75632357Y-35857642D01*
X75275214Y-35857642D01*
X75132357Y-35786214D01*
X74632357Y-35429071D02*
X74060928Y-35429071D01*
X74418071Y-34929071D02*
X74418071Y-36214785D01*
X74346642Y-36357642D01*
X74203785Y-36429071D01*
X74060928Y-36429071D01*
X72989500Y-36357642D02*
X73132357Y-36429071D01*
X73418071Y-36429071D01*
X73560928Y-36357642D01*
X73632357Y-36214785D01*
X73632357Y-35643357D01*
X73560928Y-35500500D01*
X73418071Y-35429071D01*
X73132357Y-35429071D01*
X72989500Y-35500500D01*
X72918071Y-35643357D01*
X72918071Y-35786214D01*
X73632357Y-35929071D01*
X72275214Y-36429071D02*
X72275214Y-35429071D01*
X72275214Y-35714785D02*
X72203785Y-35571928D01*
X72132357Y-35500500D01*
X71989500Y-35429071D01*
X71846642Y-35429071D01*
X71418071Y-36357642D02*
X71275214Y-36429071D01*
X70989500Y-36429071D01*
X70846642Y-36357642D01*
X70775214Y-36214785D01*
X70775214Y-36143357D01*
X70846642Y-36000500D01*
X70989500Y-35929071D01*
X71203785Y-35929071D01*
X71346642Y-35857642D01*
X71418071Y-35714785D01*
X71418071Y-35643357D01*
X71346642Y-35500500D01*
X71203785Y-35429071D01*
X70989500Y-35429071D01*
X70846642Y-35500500D01*
X33092857Y-26553571D02*
X33807142Y-26553571D01*
X33878571Y-27267857D01*
X33807142Y-27196428D01*
X33664285Y-27125000D01*
X33307142Y-27125000D01*
X33164285Y-27196428D01*
X33092857Y-27267857D01*
X33021428Y-27410714D01*
X33021428Y-27767857D01*
X33092857Y-27910714D01*
X33164285Y-27982142D01*
X33307142Y-28053571D01*
X33664285Y-28053571D01*
X33807142Y-27982142D01*
X33878571Y-27910714D01*
X32592857Y-26553571D02*
X32092857Y-28053571D01*
X31592857Y-26553571D01*
X29950000Y-28053571D02*
X29950000Y-26553571D01*
X29235714Y-27053571D02*
X29235714Y-28053571D01*
X29235714Y-27196428D02*
X29164285Y-27125000D01*
X29021428Y-27053571D01*
X28807142Y-27053571D01*
X28664285Y-27125000D01*
X28592857Y-27267857D01*
X28592857Y-28053571D01*
X33842857Y-30032142D02*
X32700000Y-30032142D01*
X29700000Y-30032142D02*
X28557142Y-30032142D01*
X29128571Y-30603571D02*
X29128571Y-29460714D01*
X63435714Y-26867857D02*
X62935714Y-26867857D01*
X62721428Y-27653571D02*
X63435714Y-27653571D01*
X63435714Y-26153571D01*
X62721428Y-26153571D01*
X61292857Y-27653571D02*
X62150000Y-27653571D01*
X61721428Y-27653571D02*
X61721428Y-26153571D01*
X61864285Y-26367857D01*
X62007142Y-26510714D01*
X62150000Y-26582142D01*
X65042857Y-29632142D02*
X63900000Y-29632142D01*
X64471428Y-30203571D02*
X64471428Y-29060714D01*
X60900000Y-29632142D02*
X59757142Y-29632142D01*
X75584714Y-26811857D02*
X75084714Y-26811857D01*
X74870428Y-27597571D02*
X75584714Y-27597571D01*
X75584714Y-26097571D01*
X74870428Y-26097571D01*
X73941857Y-26097571D02*
X73799000Y-26097571D01*
X73656142Y-26169000D01*
X73584714Y-26240428D01*
X73513285Y-26383285D01*
X73441857Y-26669000D01*
X73441857Y-27026142D01*
X73513285Y-27311857D01*
X73584714Y-27454714D01*
X73656142Y-27526142D01*
X73799000Y-27597571D01*
X73941857Y-27597571D01*
X74084714Y-27526142D01*
X74156142Y-27454714D01*
X74227571Y-27311857D01*
X74299000Y-27026142D01*
X74299000Y-26669000D01*
X74227571Y-26383285D01*
X74156142Y-26240428D01*
X74084714Y-26169000D01*
X73941857Y-26097571D01*
X77191857Y-29576142D02*
X76049000Y-29576142D01*
X76620428Y-30147571D02*
X76620428Y-29004714D01*
X73049000Y-29576142D02*
X71906142Y-29576142D01*
X88590285Y-26748357D02*
X88376000Y-26819785D01*
X88304571Y-26891214D01*
X88233142Y-27034071D01*
X88233142Y-27248357D01*
X88304571Y-27391214D01*
X88376000Y-27462642D01*
X88518857Y-27534071D01*
X89090285Y-27534071D01*
X89090285Y-26034071D01*
X88590285Y-26034071D01*
X88447428Y-26105500D01*
X88376000Y-26176928D01*
X88304571Y-26319785D01*
X88304571Y-26462642D01*
X88376000Y-26605500D01*
X88447428Y-26676928D01*
X88590285Y-26748357D01*
X89090285Y-26748357D01*
X87018857Y-27462642D02*
X87161714Y-27534071D01*
X87447428Y-27534071D01*
X87590285Y-27462642D01*
X87661714Y-27319785D01*
X87661714Y-26748357D01*
X87590285Y-26605500D01*
X87447428Y-26534071D01*
X87161714Y-26534071D01*
X87018857Y-26605500D01*
X86947428Y-26748357D01*
X86947428Y-26891214D01*
X87661714Y-27034071D01*
X85661714Y-27534071D02*
X85661714Y-26034071D01*
X85661714Y-27462642D02*
X85804571Y-27534071D01*
X86090285Y-27534071D01*
X86233142Y-27462642D01*
X86304571Y-27391214D01*
X86376000Y-27248357D01*
X86376000Y-26819785D01*
X86304571Y-26676928D01*
X86233142Y-26605500D01*
X86090285Y-26534071D01*
X85804571Y-26534071D01*
X85661714Y-26605500D01*
X90018857Y-29512642D02*
X88876000Y-29512642D01*
X89447428Y-30084071D02*
X89447428Y-28941214D01*
X85876000Y-29512642D02*
X84733142Y-29512642D01*
X108279628Y-28633971D02*
X108279628Y-27133971D01*
X107708200Y-27133971D01*
X107565342Y-27205400D01*
X107493914Y-27276828D01*
X107422485Y-27419685D01*
X107422485Y-27633971D01*
X107493914Y-27776828D01*
X107565342Y-27848257D01*
X107708200Y-27919685D01*
X108279628Y-27919685D01*
X106565342Y-28633971D02*
X106708200Y-28562542D01*
X106779628Y-28491114D01*
X106851057Y-28348257D01*
X106851057Y-27919685D01*
X106779628Y-27776828D01*
X106708200Y-27705400D01*
X106565342Y-27633971D01*
X106351057Y-27633971D01*
X106208200Y-27705400D01*
X106136771Y-27776828D01*
X106065342Y-27919685D01*
X106065342Y-28348257D01*
X106136771Y-28491114D01*
X106208200Y-28562542D01*
X106351057Y-28633971D01*
X106565342Y-28633971D01*
X105565342Y-27633971D02*
X105279628Y-28633971D01*
X104993914Y-27919685D01*
X104708200Y-28633971D01*
X104422485Y-27633971D01*
X103279628Y-28562542D02*
X103422485Y-28633971D01*
X103708200Y-28633971D01*
X103851057Y-28562542D01*
X103922485Y-28419685D01*
X103922485Y-27848257D01*
X103851057Y-27705400D01*
X103708200Y-27633971D01*
X103422485Y-27633971D01*
X103279628Y-27705400D01*
X103208200Y-27848257D01*
X103208200Y-27991114D01*
X103922485Y-28133971D01*
X102565342Y-28633971D02*
X102565342Y-27633971D01*
X102565342Y-27919685D02*
X102493914Y-27776828D01*
X102422485Y-27705400D01*
X102279628Y-27633971D01*
X102136771Y-27633971D01*
X100493914Y-28633971D02*
X100493914Y-27133971D01*
X99779628Y-27633971D02*
X99779628Y-28633971D01*
X99779628Y-27776828D02*
X99708200Y-27705400D01*
X99565342Y-27633971D01*
X99351057Y-27633971D01*
X99208200Y-27705400D01*
X99136771Y-27848257D01*
X99136771Y-28633971D01*
X106922485Y-30612542D02*
X105779628Y-30612542D01*
X101636771Y-30612542D02*
X100493914Y-30612542D01*
X101065342Y-31183971D02*
X101065342Y-30041114D01*
X107636771Y-33733971D02*
X108493914Y-33733971D01*
X108065342Y-33733971D02*
X108065342Y-32233971D01*
X108208200Y-32448257D01*
X108351057Y-32591114D01*
X108493914Y-32662542D01*
X107065342Y-32376828D02*
X106993914Y-32305400D01*
X106851057Y-32233971D01*
X106493914Y-32233971D01*
X106351057Y-32305400D01*
X106279628Y-32376828D01*
X106208200Y-32519685D01*
X106208200Y-32662542D01*
X106279628Y-32876828D01*
X107136771Y-33733971D01*
X106208200Y-33733971D01*
X105779628Y-32233971D02*
X105279628Y-33733971D01*
X104779628Y-32233971D01*
X104279628Y-33162542D02*
X103136771Y-33162542D01*
X102493914Y-32376828D02*
X102422485Y-32305400D01*
X102279628Y-32233971D01*
X101922485Y-32233971D01*
X101779628Y-32305400D01*
X101708200Y-32376828D01*
X101636771Y-32519685D01*
X101636771Y-32662542D01*
X101708200Y-32876828D01*
X102565342Y-33733971D01*
X101636771Y-33733971D01*
X100351057Y-32733971D02*
X100351057Y-33733971D01*
X100708200Y-32162542D02*
X101065342Y-33233971D01*
X100136771Y-33233971D01*
X99779628Y-32233971D02*
X99279628Y-33733971D01*
X98779628Y-32233971D01*
D11*
X89000000Y-57149986D02*
X89000000Y-112150013D01*
X73760000Y-57150000D02*
X89000000Y-57150000D01*
X73710000Y-56150000D02*
X73710000Y-57150000D01*
X88960000Y-56150000D02*
X73710000Y-56150000D01*
X89000000Y-31649963D02*
X89000000Y-56150032D01*
X19709989Y-31690000D02*
X89000000Y-31690000D01*
X19710000Y-56150000D02*
X19710000Y-31650000D01*
X34460000Y-56150000D02*
X19710000Y-56150000D01*
X34460000Y-57150000D02*
X34460000Y-56150000D01*
X19710000Y-57150000D02*
X34460000Y-57150000D01*
X19710000Y-112150000D02*
X19710000Y-57150000D01*
X41210037Y-112190000D02*
X19709974Y-112190000D01*
X43230000Y-114170000D02*
X41210000Y-112150000D01*
X76210024Y-114190000D02*
X43209978Y-114190000D01*
X78210000Y-112150000D02*
X76210000Y-114150000D01*
X89000000Y-112190000D02*
X78209926Y-112190000D01*
X47559483Y-111690000D02*
G75*
G03X47559483Y-111690000I-1739483J0D01*
G01*
X59504095Y-115968380D02*
X59504095Y-116777904D01*
X59456476Y-116873142D01*
X59408857Y-116920761D01*
X59313619Y-116968380D01*
X59123142Y-116968380D01*
X59027904Y-116920761D01*
X58980285Y-116873142D01*
X58932666Y-116777904D01*
X58932666Y-115968380D01*
X57932666Y-116968380D02*
X58504095Y-116968380D01*
X58218380Y-116968380D02*
X58218380Y-115968380D01*
X58313619Y-116111238D01*
X58408857Y-116206476D01*
X58504095Y-116254095D01*
X56980285Y-116968380D02*
X57551714Y-116968380D01*
X57266000Y-116968380D02*
X57266000Y-115968380D01*
X57361238Y-116111238D01*
X57456476Y-116206476D01*
X57551714Y-116254095D01*
M02*
