%TF.GenerationSoftware,KiCad,Pcbnew,6.0.0-rc1-unknown-0109641~66~ubuntu18.04.1*%
%TF.CreationDate,2018-09-01T21:15:30-07:00*%
%TF.ProjectId,PrntrBoardV1,50726E7472426F61726456312E6B6963,rev?*%
%TF.SameCoordinates,PX1303eb8PY7093f24*%
%TF.FileFunction,Paste,Top*%
%TF.FilePolarity,Positive*%
%FSLAX46Y46*%
G04 Gerber Fmt 4.6, Leading zero omitted, Abs format (unit mm)*
G04 Created by KiCad (PCBNEW 6.0.0-rc1-unknown-0109641~66~ubuntu18.04.1) date Sat Sep  1 21:15:30 2018*
%MOMM*%
%LPD*%
G01*
G04 APERTURE LIST*
%ADD10R,0.640000X0.590000*%
%ADD11R,0.590000X0.640000*%
%ADD12R,0.875000X0.950000*%
%ADD13C,0.875000*%
%ADD14C,0.100000*%
%ADD15R,0.950000X0.875000*%
%ADD16R,1.250000X1.750000*%
%ADD17R,1.750000X1.250000*%
%ADD18R,3.000000X0.127000*%
%ADD19R,0.127000X3.000000*%
%ADD20R,0.900000X1.750000*%
%ADD21R,1.500000X1.500000*%
%ADD22R,0.700000X0.500000*%
%ADD23R,0.650000X1.200000*%
%ADD24R,0.820000X1.000000*%
%ADD25R,1.000000X1.000000*%
%ADD26R,1.500000X0.300000*%
%ADD27R,0.300000X1.500000*%
%ADD28R,1.350000X1.350000*%
%ADD29R,3.500000X1.600000*%
%ADD30R,1.000000X0.820000*%
%ADD31R,1.600000X3.500000*%
%ADD32R,1.450000X0.450000*%
%ADD33R,0.800000X0.900000*%
%ADD34R,0.900000X0.600000*%
%ADD35R,0.600000X0.900000*%
%ADD36R,0.600000X1.050000*%
G04 APERTURE END LIST*
D10*
X86360000Y76405500D03*
X86360000Y75435500D03*
D11*
X17206000Y74866500D03*
X18176000Y74866500D03*
D10*
X36631800Y87050700D03*
X36631800Y86080700D03*
D11*
X80736400Y11315700D03*
X79766400Y11315700D03*
X16855600Y88204100D03*
X17825600Y88204100D03*
D10*
X11658600Y60429100D03*
X11658600Y59459100D03*
X86233000Y57579500D03*
X86233000Y58549500D03*
D11*
X83906400Y7200900D03*
X84876400Y7200900D03*
X79918800Y61048900D03*
X80888800Y61048900D03*
X14308500Y78946500D03*
X13338500Y78946500D03*
D10*
X86029800Y52135900D03*
X86029800Y51165900D03*
X86029800Y26057900D03*
X86029800Y27027900D03*
D11*
X79944000Y36664900D03*
X80914000Y36664900D03*
X83601600Y32194500D03*
X84571600Y32194500D03*
D10*
X32161400Y82016700D03*
X32161400Y82986700D03*
D12*
X38290500Y42418000D03*
X36715500Y42418000D03*
D13*
X31428662Y80537162D03*
D14*
G36*
X31402145Y81182397D02*
X32073897Y80510645D01*
X31455179Y79891927D01*
X30783427Y80563679D01*
X31402145Y81182397D01*
X31402145Y81182397D01*
G37*
D13*
X30314968Y79423468D03*
D14*
G36*
X30288451Y80068703D02*
X30960203Y79396951D01*
X30341485Y78778233D01*
X29669733Y79449985D01*
X30288451Y80068703D01*
X30288451Y80068703D01*
G37*
D12*
X59259100Y15819700D03*
X60834100Y15819700D03*
X9873500Y89246500D03*
X11448500Y89246500D03*
D15*
X89317500Y37899500D03*
X89317500Y36324500D03*
D12*
X49619000Y38546000D03*
X51194000Y38546000D03*
D15*
X26811000Y78734000D03*
X26811000Y77159000D03*
X87957800Y74940400D03*
X87957800Y73365400D03*
D12*
X76517700Y66179700D03*
X74942700Y66179700D03*
D13*
X78553362Y61870538D03*
D14*
G36*
X79198597Y61897055D02*
X78526845Y61225303D01*
X77908127Y61844021D01*
X78579879Y62515773D01*
X79198597Y61897055D01*
X79198597Y61897055D01*
G37*
D13*
X77439668Y62984232D03*
D14*
G36*
X78084903Y63010749D02*
X77413151Y62338997D01*
X76794433Y62957715D01*
X77466185Y63629467D01*
X78084903Y63010749D01*
X78084903Y63010749D01*
G37*
D15*
X31178500Y49708000D03*
X31178500Y48133000D03*
X62061000Y36846500D03*
X62061000Y38421500D03*
X7411000Y44896500D03*
X7411000Y46471500D03*
D12*
X38848500Y38546500D03*
X37273500Y38546500D03*
D15*
X88835000Y48687800D03*
X88835000Y50262800D03*
X7373500Y76434000D03*
X7373500Y74859000D03*
D12*
X4506500Y59846500D03*
X6081500Y59846500D03*
X23101300Y69329300D03*
X21526300Y69329300D03*
X14859500Y43189000D03*
X13284500Y43189000D03*
X60859500Y28938800D03*
X59284500Y28938800D03*
X92445500Y36293900D03*
X90870500Y36293900D03*
D15*
X88561000Y19059000D03*
X88561000Y20634000D03*
D12*
X91889100Y10948700D03*
X90314100Y10948700D03*
X88911000Y25996500D03*
X90486000Y25996500D03*
X51181500Y46928000D03*
X49606500Y46928000D03*
X57404300Y55360800D03*
X58979300Y55360800D03*
X76009700Y40271700D03*
X74434700Y40271700D03*
D15*
X88761000Y44323000D03*
X88761000Y45898000D03*
X32661000Y43346500D03*
X32661000Y44921500D03*
X88742500Y10980500D03*
X88742500Y12555500D03*
X17861000Y92646500D03*
X17861000Y91071500D03*
X32711000Y48121500D03*
X32711000Y49696500D03*
D12*
X76771700Y41846500D03*
X75196700Y41846500D03*
D15*
X33724400Y92618200D03*
X33724400Y94193200D03*
D12*
X32123500Y90971500D03*
X33698500Y90971500D03*
D13*
X78502562Y37588138D03*
D14*
G36*
X79147797Y37614655D02*
X78476045Y36942903D01*
X77857327Y37561621D01*
X78529079Y38233373D01*
X79147797Y37614655D01*
X79147797Y37614655D01*
G37*
D13*
X77388868Y38701832D03*
D14*
G36*
X78034103Y38728349D02*
X77362351Y38056597D01*
X76743633Y38675315D01*
X77415385Y39347067D01*
X78034103Y38728349D01*
X78034103Y38728349D01*
G37*
D12*
X59259100Y22449100D03*
X60834100Y22449100D03*
D15*
X87366400Y24893400D03*
X87366400Y23318400D03*
D12*
X76009700Y15024100D03*
X74434700Y15024100D03*
X38854000Y36993500D03*
X37279000Y36993500D03*
X29146500Y45847000D03*
X30721500Y45847000D03*
X23368000Y70866000D03*
X21793000Y70866000D03*
D15*
X9271000Y65214500D03*
X9271000Y66789500D03*
D13*
X19641968Y74020532D03*
D14*
G36*
X18996733Y73994015D02*
X19668485Y74665767D01*
X20287203Y74047049D01*
X19615451Y73375297D01*
X18996733Y73994015D01*
X18996733Y73994015D01*
G37*
D13*
X20755662Y72906838D03*
D14*
G36*
X20110427Y72880321D02*
X20782179Y73552073D01*
X21400897Y72933355D01*
X20729145Y72261603D01*
X20110427Y72880321D01*
X20110427Y72880321D01*
G37*
D15*
X7671400Y61469400D03*
X7671400Y59894400D03*
D12*
X18119100Y89472900D03*
X19694100Y89472900D03*
X92086000Y50971500D03*
X90511000Y50971500D03*
D15*
X8936000Y75829500D03*
X8936000Y74254500D03*
D12*
X51105100Y55335400D03*
X49530100Y55335400D03*
X13208500Y34743500D03*
X14783500Y34743500D03*
X76619300Y16548100D03*
X75044300Y16548100D03*
X74663100Y64554100D03*
X76238100Y64554100D03*
D13*
X77287268Y13200232D03*
D14*
G36*
X77932503Y13226749D02*
X77260751Y12554997D01*
X76642033Y13173715D01*
X77313785Y13845467D01*
X77932503Y13226749D01*
X77932503Y13226749D01*
G37*
D13*
X78400962Y12086538D03*
D14*
G36*
X79046197Y12113055D02*
X78374445Y11441303D01*
X77755727Y12060021D01*
X78427479Y12731773D01*
X79046197Y12113055D01*
X79046197Y12113055D01*
G37*
D15*
X88711000Y68909000D03*
X88711000Y70484000D03*
X87651000Y60845000D03*
X87651000Y59270000D03*
X89336000Y56284000D03*
X89336000Y57859000D03*
X96136000Y74159000D03*
X96136000Y75734000D03*
D12*
X13272000Y26107500D03*
X14847000Y26107500D03*
X58992000Y46928000D03*
X57417000Y46928000D03*
D15*
X28461000Y77159000D03*
X28461000Y78734000D03*
D12*
X22547500Y90896500D03*
X24122500Y90896500D03*
D16*
X19901000Y62106500D03*
X17101000Y62106500D03*
X17124200Y76898500D03*
X19924200Y76898500D03*
X78018200Y24196500D03*
X80818200Y24196500D03*
X80970600Y34734500D03*
X78170600Y34734500D03*
X78170600Y73796500D03*
X80970600Y73796500D03*
D17*
X19715400Y83094100D03*
X19715400Y80294100D03*
D16*
X78178200Y59118500D03*
X80978200Y59118500D03*
D17*
X34142600Y83094100D03*
X34142600Y80294100D03*
X59928000Y96859700D03*
X59928000Y94059700D03*
D16*
X80818200Y9334500D03*
X78018200Y9334500D03*
X78170600Y49696500D03*
X80970600Y49696500D03*
D17*
X75011800Y93722900D03*
X75011800Y96522900D03*
X48158000Y96660100D03*
X48158000Y93860100D03*
D15*
X51211000Y50246500D03*
X51211000Y48671500D03*
X17104400Y51865400D03*
X17104400Y50290400D03*
D12*
X68999100Y6261100D03*
X67424100Y6261100D03*
D15*
X55811000Y41834000D03*
X55811000Y40259000D03*
X58911000Y41835500D03*
X58911000Y40260500D03*
X11811000Y19421500D03*
X11811000Y20996500D03*
D12*
X14648500Y89246500D03*
X13073500Y89246500D03*
D15*
X82194400Y83604200D03*
X82194400Y82029200D03*
D12*
X30398500Y32496500D03*
X28823500Y32496500D03*
X42298500Y33996500D03*
X40723500Y33996500D03*
D15*
X48161000Y48671500D03*
X48161000Y50246500D03*
X11748000Y28025000D03*
X11748000Y29600000D03*
X51211000Y33453500D03*
X51211000Y31878500D03*
X59348200Y17915200D03*
X59348200Y19490200D03*
D12*
X59259100Y20925100D03*
X60834100Y20925100D03*
D15*
X66344800Y79756000D03*
X66344800Y78181000D03*
X42316400Y79832000D03*
X42316400Y81407000D03*
X43891200Y87604600D03*
X43891200Y86029600D03*
X59297400Y12860800D03*
X59297400Y11285800D03*
D12*
X60834100Y14295700D03*
X59259100Y14295700D03*
D15*
X14859500Y19440000D03*
X14859500Y21015000D03*
X40894500Y14496500D03*
X40894500Y12921500D03*
X48111000Y31859000D03*
X48111000Y33434000D03*
X59322800Y24404900D03*
X59322800Y25979900D03*
X42411000Y14496500D03*
X42411000Y12921500D03*
X24294000Y14529000D03*
X24294000Y12954000D03*
X25881500Y14529000D03*
X25881500Y12954000D03*
X32661000Y14546500D03*
X32661000Y12971500D03*
X16039000Y12971500D03*
X16039000Y14546500D03*
X14796000Y29596500D03*
X14796000Y28021500D03*
D12*
X59323500Y30846500D03*
X60898500Y30846500D03*
D15*
X11748000Y36521500D03*
X11748000Y38096500D03*
X14923000Y36534000D03*
X14923000Y38109000D03*
D12*
X60859500Y27414800D03*
X59284500Y27414800D03*
D15*
X54511000Y79596500D03*
X54511000Y81171500D03*
X56095900Y87427000D03*
X56095900Y85852000D03*
X51211000Y41871500D03*
X51211000Y40296500D03*
D12*
X28823500Y33996500D03*
X30398500Y33996500D03*
X40723500Y32046500D03*
X42298500Y32046500D03*
D15*
X17561000Y12971500D03*
X17561000Y14546500D03*
X48111000Y40309000D03*
X48111000Y41884000D03*
X58961000Y48671500D03*
X58961000Y50246500D03*
X55861000Y48671500D03*
X55861000Y50246500D03*
X34200000Y12971500D03*
X34200000Y14546500D03*
X68148200Y83820000D03*
X68148200Y85395000D03*
D17*
X34650600Y85998900D03*
X34650600Y88798900D03*
X13741400Y57914100D03*
X13741400Y60714100D03*
D16*
X14381000Y77101700D03*
X11581000Y77101700D03*
D17*
X84048600Y28405300D03*
X84048600Y25605300D03*
D16*
X83773800Y9182100D03*
X86573800Y9182100D03*
D17*
X84150200Y53820500D03*
X84150200Y51020500D03*
D16*
X83504600Y34124900D03*
X86304600Y34124900D03*
D17*
X84328000Y78077500D03*
X84328000Y75277500D03*
X84201000Y58707500D03*
X84201000Y55907500D03*
D16*
X15412200Y86222900D03*
X18212200Y86222900D03*
D18*
X97336000Y97296500D03*
D19*
X97336000Y97296500D03*
D18*
X97336000Y1746500D03*
D19*
X97336000Y1746500D03*
D18*
X1786000Y97296500D03*
D19*
X1786000Y97296500D03*
D18*
X1786000Y1746500D03*
D19*
X1786000Y1746500D03*
D20*
X29540500Y48016500D03*
X29540500Y50916500D03*
X27990500Y50916500D03*
X27990500Y48016500D03*
D21*
X63516000Y83775300D03*
X65516000Y83775300D03*
X65516000Y85775300D03*
X63516000Y85775300D03*
D22*
X62516000Y87450300D03*
X63851000Y87450300D03*
X65181000Y87450300D03*
X66516000Y87450300D03*
D23*
X62611000Y81450300D03*
X63881000Y81450300D03*
X65151000Y81450300D03*
X66421000Y81450300D03*
D24*
X17180400Y48753900D03*
X15580400Y48753900D03*
X82257800Y85128100D03*
X80657800Y85128100D03*
X12911000Y87446500D03*
X11311000Y87446500D03*
X67411800Y4457700D03*
X69011800Y4457700D03*
D25*
X68137400Y87083900D03*
X70637400Y87083900D03*
X43911000Y89296500D03*
X46411000Y89296500D03*
X56111000Y89115900D03*
X58611000Y89115900D03*
X13961000Y9796500D03*
X11461000Y9796500D03*
X30561000Y9846500D03*
X28061000Y9846500D03*
X22261000Y9842500D03*
X19761000Y9842500D03*
X38911000Y9796500D03*
X36411000Y9796500D03*
D26*
X86765599Y14539200D03*
X86765599Y15039200D03*
X86765599Y15539200D03*
X86765599Y16039200D03*
X86765599Y16539200D03*
X86765599Y17039200D03*
X86765599Y17539200D03*
X86765599Y18039200D03*
X86765599Y18539200D03*
X86765599Y19039200D03*
X86765599Y19539200D03*
X86765599Y20039200D03*
D27*
X85315599Y21489200D03*
X84315599Y21489200D03*
X83315599Y21489200D03*
X82315599Y21489200D03*
X81315599Y21489200D03*
X80315599Y21489200D03*
X79815599Y21489200D03*
D26*
X78365599Y20039200D03*
X78365599Y19539200D03*
X78365599Y19039200D03*
X78365599Y18539200D03*
X78365599Y18039200D03*
X78365599Y17539200D03*
X78365599Y17039200D03*
X78365599Y16539200D03*
X78365599Y16039200D03*
X78365599Y15539200D03*
X78365599Y15039200D03*
X78365599Y14539200D03*
D27*
X79815599Y13089200D03*
X80315599Y13089200D03*
X80815599Y13089200D03*
X81315599Y13089200D03*
X82315599Y13089200D03*
X83315599Y13089200D03*
X84315599Y13089200D03*
X85315599Y13089200D03*
D28*
X81690599Y18164200D03*
X81690599Y16414200D03*
X83440599Y18164200D03*
X83440599Y16414200D03*
D26*
X11167201Y71499800D03*
X11167201Y70999800D03*
X11167201Y70499800D03*
X11167201Y69999800D03*
X11167201Y69499800D03*
X11167201Y68999800D03*
X11167201Y68499800D03*
X11167201Y67999800D03*
X11167201Y67499800D03*
X11167201Y66999800D03*
X11167201Y66499800D03*
X11167201Y65999800D03*
D27*
X12617201Y64549800D03*
X13617201Y64549800D03*
X14617201Y64549800D03*
X15617201Y64549800D03*
X16617201Y64549800D03*
X17617201Y64549800D03*
X18117201Y64549800D03*
D26*
X19567201Y65999800D03*
X19567201Y66499800D03*
X19567201Y66999800D03*
X19567201Y67499800D03*
X19567201Y67999800D03*
X19567201Y68499800D03*
X19567201Y68999800D03*
X19567201Y69499800D03*
X19567201Y69999800D03*
X19567201Y70499800D03*
X19567201Y70999800D03*
X19567201Y71499800D03*
D27*
X18117201Y72949800D03*
X17617201Y72949800D03*
X17117201Y72949800D03*
X16617201Y72949800D03*
X15617201Y72949800D03*
X14617201Y72949800D03*
X13617201Y72949800D03*
X12617201Y72949800D03*
D28*
X16242201Y67874800D03*
X16242201Y69624800D03*
X14492201Y67874800D03*
X14492201Y69624800D03*
D26*
X86904399Y39919200D03*
X86904399Y40419200D03*
X86904399Y40919200D03*
X86904399Y41419200D03*
X86904399Y41919200D03*
X86904399Y42419200D03*
X86904399Y42919200D03*
X86904399Y43419200D03*
X86904399Y43919200D03*
X86904399Y44419200D03*
X86904399Y44919200D03*
X86904399Y45419200D03*
D27*
X85454399Y46869200D03*
X84454399Y46869200D03*
X83454399Y46869200D03*
X82454399Y46869200D03*
X81454399Y46869200D03*
X80454399Y46869200D03*
X79954399Y46869200D03*
D26*
X78504399Y45419200D03*
X78504399Y44919200D03*
X78504399Y44419200D03*
X78504399Y43919200D03*
X78504399Y43419200D03*
X78504399Y42919200D03*
X78504399Y42419200D03*
X78504399Y41919200D03*
X78504399Y41419200D03*
X78504399Y40919200D03*
X78504399Y40419200D03*
X78504399Y39919200D03*
D27*
X79954399Y38469200D03*
X80454399Y38469200D03*
X80954399Y38469200D03*
X81454399Y38469200D03*
X82454399Y38469200D03*
X83454399Y38469200D03*
X84454399Y38469200D03*
X85454399Y38469200D03*
D28*
X81829399Y43544200D03*
X81829399Y41794200D03*
X83579399Y43544200D03*
X83579399Y41794200D03*
D26*
X86917999Y64292000D03*
X86917999Y64792000D03*
X86917999Y65292000D03*
X86917999Y65792000D03*
X86917999Y66292000D03*
X86917999Y66792000D03*
X86917999Y67292000D03*
X86917999Y67792000D03*
X86917999Y68292000D03*
X86917999Y68792000D03*
X86917999Y69292000D03*
X86917999Y69792000D03*
D27*
X85467999Y71242000D03*
X84467999Y71242000D03*
X83467999Y71242000D03*
X82467999Y71242000D03*
X81467999Y71242000D03*
X80467999Y71242000D03*
X79967999Y71242000D03*
D26*
X78517999Y69792000D03*
X78517999Y69292000D03*
X78517999Y68792000D03*
X78517999Y68292000D03*
X78517999Y67792000D03*
X78517999Y67292000D03*
X78517999Y66792000D03*
X78517999Y66292000D03*
X78517999Y65792000D03*
X78517999Y65292000D03*
X78517999Y64792000D03*
X78517999Y64292000D03*
D27*
X79967999Y62842000D03*
X80467999Y62842000D03*
X80967999Y62842000D03*
X81467999Y62842000D03*
X82467999Y62842000D03*
X83467999Y62842000D03*
X84467999Y62842000D03*
X85467999Y62842000D03*
D28*
X81842999Y67917000D03*
X81842999Y66167000D03*
X83592999Y67917000D03*
X83592999Y66167000D03*
D27*
X28907100Y89011099D03*
X28407100Y89011099D03*
X27907100Y89011099D03*
X27407100Y89011099D03*
X26907100Y89011099D03*
X26407100Y89011099D03*
X25907100Y89011099D03*
X25407100Y89011099D03*
X24907100Y89011099D03*
X24407100Y89011099D03*
X23907100Y89011099D03*
X23407100Y89011099D03*
D26*
X21957100Y87561099D03*
X21957100Y86561099D03*
X21957100Y85561099D03*
X21957100Y84561099D03*
X21957100Y83561099D03*
X21957100Y82561099D03*
X21957100Y82061099D03*
D27*
X23407100Y80611099D03*
X23907100Y80611099D03*
X24407100Y80611099D03*
X24907100Y80611099D03*
X25407100Y80611099D03*
X25907100Y80611099D03*
X26407100Y80611099D03*
X26907100Y80611099D03*
X27407100Y80611099D03*
X27907100Y80611099D03*
X28407100Y80611099D03*
X28907100Y80611099D03*
D26*
X30357100Y82061099D03*
X30357100Y82561099D03*
X30357100Y83061099D03*
X30357100Y83561099D03*
X30357100Y84561099D03*
X30357100Y85561099D03*
X30357100Y86561099D03*
X30357100Y87561099D03*
D28*
X25282100Y83936099D03*
X27032100Y83936099D03*
X25282100Y85686099D03*
X27032100Y85686099D03*
D29*
X2211000Y86596500D03*
X7611000Y86596500D03*
D30*
X43891200Y83070700D03*
X43891200Y84670700D03*
X13335500Y38096500D03*
X13335500Y36496500D03*
X68148200Y80810300D03*
X68148200Y82410300D03*
X49670000Y41911500D03*
X49670000Y40311500D03*
X57411000Y50296500D03*
X57411000Y48696500D03*
X13272000Y29574500D03*
X13272000Y27974500D03*
X49670000Y50280600D03*
X49670000Y48680600D03*
X13335500Y21027500D03*
X13335500Y19427500D03*
X57361000Y41846500D03*
X57361000Y40246500D03*
X49670000Y33478500D03*
X49670000Y31878500D03*
X56095900Y82867500D03*
X56095900Y84467500D03*
D29*
X69586000Y75996500D03*
X74986000Y75996500D03*
X23621000Y57406500D03*
X18221000Y57406500D03*
X69711000Y33021500D03*
X75111000Y33021500D03*
D31*
X42211000Y68696500D03*
X42211000Y74096500D03*
D29*
X69661000Y57346500D03*
X75061000Y57346500D03*
D32*
X36836699Y44061100D03*
X36836699Y44711100D03*
X36836699Y45361100D03*
X36836699Y46011100D03*
X36836699Y46661100D03*
X36836699Y47311100D03*
X36836699Y47961100D03*
X42736699Y47961100D03*
X42736699Y47311100D03*
X42736699Y46661100D03*
X42736699Y46011100D03*
X42736699Y45361100D03*
X42736699Y44711100D03*
X42736699Y44061100D03*
X38534301Y35312900D03*
X38534301Y34662900D03*
X38534301Y34012900D03*
X38534301Y33362900D03*
X38534301Y32712900D03*
X38534301Y32062900D03*
X38534301Y31412900D03*
X32634301Y31412900D03*
X32634301Y32062900D03*
X32634301Y32712900D03*
X32634301Y33362900D03*
X32634301Y34012900D03*
X32634301Y34662900D03*
X32634301Y35312900D03*
X30373901Y44203600D03*
X30373901Y43553600D03*
X30373901Y42903600D03*
X30373901Y42253600D03*
X30373901Y41603600D03*
X30373901Y40953600D03*
X30373901Y40303600D03*
X24473901Y40303600D03*
X24473901Y40953600D03*
X24473901Y41603600D03*
X24473901Y42253600D03*
X24473901Y42903600D03*
X24473901Y43553600D03*
X24473901Y44203600D03*
D33*
X34134000Y11525000D03*
X32234000Y11525000D03*
X33184000Y9525000D03*
X25818000Y11557000D03*
X23918000Y11557000D03*
X24868000Y9557000D03*
X17497000Y11525000D03*
X15597000Y11525000D03*
X16547000Y9525000D03*
X42416000Y11475000D03*
X40516000Y11475000D03*
X41466000Y9475000D03*
D34*
X39194700Y85995871D03*
X39194700Y85145871D03*
X39194700Y86845871D03*
X41494700Y85995871D03*
X41494700Y85145871D03*
X41494700Y86845871D03*
X40344700Y86845871D03*
X40344700Y85145871D03*
D35*
X38464700Y88695871D03*
X42224700Y88695871D03*
X39744700Y88695871D03*
D36*
X39704700Y82975871D03*
X38434700Y82975871D03*
X40984700Y82975871D03*
X42254700Y82975871D03*
D35*
X40944700Y88695871D03*
D34*
X40344700Y85995871D03*
X51399400Y85790271D03*
X51399400Y84940271D03*
X51399400Y86640271D03*
X53699400Y85790271D03*
X53699400Y84940271D03*
X53699400Y86640271D03*
X52549400Y86640271D03*
X52549400Y84940271D03*
D35*
X50669400Y88490271D03*
X54429400Y88490271D03*
X51949400Y88490271D03*
D36*
X51909400Y82770271D03*
X50639400Y82770271D03*
X53189400Y82770271D03*
X54459400Y82770271D03*
D35*
X53149400Y88490271D03*
D34*
X52549400Y85790271D03*
M02*
