M48
; DRILL file {KiCad 6.0.0-unknown-a0ed408~86~ubuntu19.04.1} date Sun 18 Aug 2019 08:17:02 PM PDT
; FORMAT={-:-/ absolute / metric / decimal}
; #@! TF.CreationDate,2019-08-18T20:17:02-07:00
; #@! TF.GenerationSoftware,Kicad,Pcbnew,6.0.0-unknown-a0ed408~86~ubuntu19.04.1
; #@! TF.FileFunction,Plated,1,4,PTH
FMAT,2
METRIC
T1C0.305
T2C0.381
T3C0.508
T4C0.762
T5C1.000
T6C1.016
T7C1.200
T8C1.300
%
G90
G05
T1
X0.517Y63.881
X7.175Y52.133
X7.938Y24.447
X7.938Y21.653
X8.382Y13.398
X8.445Y10.414
X9.461Y26.733
X9.525Y43.878
X9.588Y22.098
X10.541Y48.704
X10.541Y39.433
X10.604Y31.369
X10.604Y18.351
X11.557Y25.019
X11.62Y30.543
X12.255Y50.268
X12.509Y40.678
X12.509Y19.431
X13.398Y15.278
X14.034Y34.734
X14.097Y26.924
X15.05Y19.304
X15.113Y25.59
X16.129Y48.069
X16.192Y52.514
X16.764Y42.799
X16.891Y31.941
X16.935Y36.112
X17.462Y21.526
X17.473Y37.412
X18.034Y43.37
X18.161Y73.025
X18.161Y65.786
X18.415Y18.669
X18.415Y15.748
X19.088Y35.099
X19.304Y52.642
X19.558Y17.907
X19.897Y55.143
X19.939Y38.735
X19.939Y38.036
X20.32Y53.276
X20.828Y45.72
X20.828Y36.767
X22.225Y66.802
X22.225Y63.246
X22.27Y49.187
X22.669Y36.576
X23.304Y78.232
X23.304Y48.069
X23.558Y41.212
X23.939Y44.958
X24.003Y36.767
X24.066Y38.036
X24.066Y34.798
X24.32Y44.005
X24.447Y20.447
X24.447Y19.05
X25.082Y48.006
X25.133Y41.199
X26.254Y35.462
X26.289Y40.386
X26.479Y77.533
X26.67Y31.941
X26.67Y20.193
X26.737Y37.412
X26.737Y36.449
X26.797Y52.578
X29.019Y45.657
X29.591Y14.097
X29.718Y51.117
X30.607Y14.541
X31.115Y48.069
X31.178Y37.148
X31.496Y77.533
X33.084Y16.002
X33.591Y53.149
X33.591Y38.163
X33.591Y33.655
X34.925Y68.263
X34.925Y30.061
X34.989Y87.566
X34.989Y13.271
X35.052Y28.321
X35.408Y55.816
X35.408Y55.093
X35.75Y22.098
X36.195Y65.722
X36.38Y14.694
X36.576Y23.114
X36.703Y62.293
X36.703Y39.433
X37.211Y24.447
X37.401Y69.85
X37.782Y25.273
X37.846Y41.465
X37.91Y23.304
X37.91Y14.414
X39.751Y20.13
X39.754Y14.389
X39.814Y25.908
X39.814Y23.939
X39.814Y22.034
X39.878Y24.638
X40.0Y49.603
X40.094Y77.47
X40.322Y80.2
X40.343Y49.039
X41.059Y68.542
X41.059Y60.871
X41.313Y76.162
X41.529Y53.34
X41.529Y51.371
X41.91Y38.735
X42.227Y55.334
X42.355Y13.462
X42.418Y37.148
X42.926Y55.816
X43.053Y30.061
X43.053Y22.034
X43.561Y28.448
X43.752Y55.435
X43.878Y22.606
X43.942Y25.273
X43.942Y23.304
X44.069Y87.694
X44.386Y53.086
X44.386Y51.498
X44.869Y58.331
X44.933Y73.622
X44.958Y34.925
X45.021Y32.322
X45.148Y43.37
X45.148Y40.576
X45.212Y36.195
X45.339Y33.591
X45.402Y57.087
X45.441Y66.002
X45.618Y64.834
X45.657Y72.581
X45.72Y24.003
X46.101Y55.753
X46.568Y14.694
X46.99Y43.282
X48.323Y21.755
X48.514Y35.687
X48.514Y33.02
X49.022Y34.227
X49.212Y42.291
X49.212Y39.624
X49.34Y37.91
X49.53Y80.073
X49.53Y43.942
X50.355Y50.482
X50.355Y38.925
X50.609Y54.483
X50.673Y56.451
X51.117Y34.925
X51.62Y28.473
X51.625Y70.294
X51.88Y19.05
X51.89Y13.779
X52.007Y27.939
X52.133Y76.898
X52.133Y25.654
X52.152Y20.79
X52.715Y17.262
X53.124Y33.655
X53.46Y41.059
X53.911Y52.07
X53.911Y49.784
X54.889Y70.269
X55.004Y80.023
X55.092Y89.827
X55.499Y27.94
X55.562Y21.907
X56.317Y28.473
X56.325Y19.113
X56.464Y71.819
X56.642Y81.598
X56.642Y30.543
X56.743Y91.402
X57.975Y24.638
X57.975Y20.574
X58.229Y11.43
X58.319Y14.148
X58.864Y71.12
X58.928Y64.77
X59.055Y90.678
X59.055Y80.835
X59.055Y54.61
X59.118Y39.624
X59.118Y28.384
X59.419Y41.059
X59.627Y31.369
X60.071Y30.48
X60.389Y17.145
X60.389Y9.271
X60.579Y42.799
X60.579Y37.655
X60.922Y32.703
X61.15Y73.469
X61.214Y38.354
X61.404Y65.786
X61.404Y30.543
X61.468Y15.519
X61.468Y9.906
X61.658Y17.907
X61.722Y23.177
X62.039Y78.613
X62.039Y74.313
X62.039Y71.051
X62.039Y66.693
X62.357Y15.938
X62.357Y12.255
X62.42Y36.386
X62.801Y64.325
X64.453Y64.262
X64.897Y57.087
X69.215Y48.069
X69.215Y31.75
X70.155Y82.156
X70.345Y75.362
X70.523Y77.953
X70.739Y95.885
X71.958Y59.068
X71.958Y40.005
X72.136Y61.658
X72.136Y42.596
X72.212Y20.612
X72.39Y23.203
X72.428Y81.331
X72.555Y95.872
X74.193Y90.386
X74.193Y89.294
X74.193Y88.024
X74.193Y86.931
X75.248Y94.488
X75.387Y80.937
X75.565Y30.226
X75.629Y37.338
X76.2Y94.488
X76.276Y80.912
X76.479Y32.512
X76.898Y37.338
X76.962Y30.734
X77.153Y94.488
X77.191Y80.937
X77.279Y68.135
X77.343Y52.133
X77.406Y49.466
X77.597Y32.893
X77.724Y73.152
X77.787Y68.618
X77.787Y56.388
X77.787Y34.798
X77.8Y95.694
X77.851Y36.005
X77.902Y81.572
X77.914Y54.165
X77.914Y15.494
X78.359Y10.668
X78.486Y32.575
X78.486Y14.478
X78.689Y89.065
X78.689Y88.252
X79.042Y70.802
X79.042Y52.895
X79.057Y34.671
X79.248Y15.748
X79.819Y40.195
X79.883Y59.118
X79.947Y78.232
X79.947Y20.764
X79.972Y74.429
X79.972Y36.386
X80.416Y89.141
X80.416Y88.201
X80.454Y72.326
X80.454Y53.213
X80.454Y34.155
X80.581Y14.795
X80.962Y51.054
X80.962Y49.022
X80.962Y30.543
X81.002Y36.21
X81.007Y54.978
X81.007Y16.573
X81.064Y74.418
X81.724Y95.377
X81.724Y94.297
X81.724Y83.058
X81.724Y81.852
X82.042Y71.056
X82.169Y32.766
X82.614Y29.909
X82.779Y89.865
X82.779Y89.294
X82.779Y88.659
X82.779Y88.024
X82.779Y87.389
X82.779Y74.638
X82.779Y74.003
X82.779Y73.368
X82.779Y72.733
X82.779Y72.161
X82.804Y55.486
X82.804Y54.851
X82.804Y54.216
X82.804Y53.581
X82.804Y53.01
X82.804Y36.424
X82.804Y35.789
X82.804Y35.154
X82.804Y34.519
X82.804Y33.947
X82.804Y17.081
X82.804Y16.447
X82.804Y15.811
X82.804Y15.176
X82.804Y14.605
X82.906Y79.79
X83.058Y83.553
X83.161Y12.752
X83.376Y84.645
X83.414Y89.865
X83.414Y89.294
X83.414Y88.659
X83.414Y88.024
X83.414Y87.389
X83.414Y74.638
X83.414Y74.003
X83.414Y73.368
X83.414Y72.733
X83.414Y72.161
X83.439Y55.486
X83.439Y54.851
X83.439Y54.216
X83.439Y53.581
X83.439Y53.01
X83.439Y36.424
X83.439Y35.789
X83.439Y35.154
X83.439Y34.519
X83.439Y33.947
X83.439Y17.081
X83.439Y16.447
X83.439Y15.811
X83.439Y15.176
X83.439Y14.605
X83.502Y94.234
X83.623Y82.117
X84.049Y91.681
X84.049Y89.865
X84.049Y89.294
X84.049Y88.659
X84.049Y88.024
X84.049Y87.389
X84.049Y74.638
X84.049Y74.003
X84.049Y73.368
X84.049Y72.733
X84.049Y72.161
X84.049Y70.345
X84.074Y55.486
X84.074Y54.851
X84.074Y54.216
X84.074Y53.581
X84.074Y53.01
X84.074Y51.194
X84.074Y36.424
X84.074Y35.789
X84.074Y35.154
X84.074Y34.519
X84.074Y33.947
X84.074Y32.131
X84.074Y17.081
X84.074Y16.447
X84.074Y15.811
X84.074Y15.176
X84.074Y14.605
X84.074Y12.789
X84.138Y94.615
X84.582Y67.691
X84.684Y89.865
X84.684Y89.294
X84.684Y88.659
X84.684Y88.024
X84.684Y87.389
X84.684Y74.638
X84.684Y74.003
X84.684Y73.368
X84.684Y72.733
X84.684Y72.161
X84.709Y95.313
X84.709Y55.486
X84.709Y54.851
X84.709Y54.216
X84.709Y53.581
X84.709Y53.01
X84.709Y48.387
X84.709Y36.424
X84.709Y35.789
X84.709Y35.154
X84.709Y34.519
X84.709Y33.947
X84.709Y17.081
X84.709Y16.447
X84.709Y15.811
X84.709Y15.176
X84.709Y14.605
X84.755Y12.671
X84.772Y9.652
X85.039Y78.473
X85.065Y20.917
X85.079Y30.223
X85.141Y65.977
X85.166Y61.608
X85.166Y46.825
X85.166Y42.545
X85.166Y27.762
X85.166Y23.203
X85.166Y8.42
X85.166Y40.576
X85.168Y59.536
X85.319Y89.865
X85.319Y89.294
X85.319Y88.659
X85.319Y88.024
X85.319Y87.389
X85.319Y74.638
X85.319Y74.003
X85.319Y73.368
X85.319Y72.733
X85.319Y72.161
X85.344Y55.486
X85.344Y54.851
X85.344Y54.216
X85.344Y53.581
X85.344Y53.01
X85.344Y36.424
X85.344Y35.789
X85.344Y35.154
X85.344Y34.519
X85.344Y33.947
X85.344Y17.081
X85.344Y16.447
X85.344Y15.811
X85.344Y15.176
X85.344Y14.605
X85.827Y61.608
X85.827Y42.545
X85.827Y23.203
X86.081Y65.977
X86.106Y46.825
X86.106Y27.762
X86.106Y8.42
X86.296Y80.2
X86.296Y79.502
X87.104Y88.151
X87.23Y89.535
X87.515Y82.117
X87.681Y73.825
X87.681Y72.885
X87.706Y54.673
X87.706Y53.734
X87.706Y35.611
X87.706Y34.671
X87.706Y16.269
X87.706Y15.329
X88.011Y87.439
X88.519Y91.694
X89.408Y73.774
X89.408Y72.962
X89.433Y54.623
X89.433Y53.81
X89.433Y35.56
X89.433Y34.747
X89.433Y16.218
X89.433Y15.405
X89.599Y89.98
X90.195Y80.454
X90.221Y61.303
X90.221Y42.24
X90.221Y22.898
X90.297Y66.586
X90.322Y47.434
X90.322Y28.372
X90.322Y9.03
X90.907Y81.09
X90.932Y65.621
X90.932Y61.938
X90.932Y42.875
X90.932Y23.533
X90.957Y46.469
X90.957Y27.407
X90.957Y8.064
X91.821Y81.115
X91.846Y61.963
X91.846Y42.901
X91.846Y23.558
X91.872Y65.596
X91.897Y46.444
X91.897Y27.381
X91.897Y8.039
X92.71Y81.09
X92.735Y61.938
X92.735Y42.875
X92.735Y23.533
X92.862Y65.596
X92.888Y46.444
X92.888Y27.381
X92.888Y8.039
X93.904Y75.095
X93.904Y74.003
X93.904Y72.733
X93.904Y71.641
X93.929Y55.944
X93.929Y54.851
X93.929Y53.581
X93.929Y52.489
X93.929Y36.881
X93.929Y35.789
X93.929Y34.519
X93.929Y33.426
X93.929Y17.539
X93.929Y16.447
X93.929Y15.176
X93.929Y14.084
X97.917Y85.039
X97.942Y79.87
X97.968Y65.215
X97.968Y60.719
X97.968Y41.656
X97.968Y22.314
X97.993Y46.063
X97.993Y27.0
X97.993Y7.658
X98.095Y87.63
T2
X1.016Y90.614
X1.016Y89.599
X1.016Y88.582
X1.016Y87.566
X1.016Y86.55
X1.016Y85.534
X6.477Y90.614
X6.477Y89.599
X6.477Y88.582
X6.477Y87.694
X6.477Y86.677
X6.477Y85.661
X6.667Y65.57
X6.667Y63.843
X6.667Y62.205
X6.667Y60.477
X13.843Y84.772
X13.843Y79.311
X14.986Y84.772
X14.986Y79.311
X16.129Y84.772
X16.129Y79.311
X17.272Y84.772
X17.272Y79.311
X18.415Y84.772
X18.415Y79.311
X19.558Y84.772
X19.558Y79.311
X21.336Y87.122
X21.336Y85.915
X21.78Y84.519
X22.669Y84.519
X23.558Y84.519
X24.511Y84.519
X24.828Y88.011
X25.463Y84.519
X25.971Y88.011
X26.479Y84.519
X28.372Y11.671
X28.511Y79.947
X28.638Y85.979
X28.638Y85.09
X28.638Y84.201
X28.638Y83.312
X29.527Y85.979
X29.527Y85.09
X29.527Y84.201
X29.527Y83.312
X29.781Y79.947
X30.416Y85.979
X30.416Y85.09
X30.416Y84.201
X30.416Y83.312
X31.115Y79.947
X31.242Y85.979
X31.242Y85.09
X31.242Y84.201
X31.242Y83.312
X32.131Y85.979
X32.131Y85.09
X32.131Y84.201
X32.131Y83.312
X34.353Y81.153
X35.496Y81.153
X36.551Y11.722
X37.338Y82.359
X37.478Y88.875
X37.478Y87.097
X38.367Y87.986
X38.367Y86.208
X38.608Y82.359
X39.256Y88.875
X39.256Y87.097
X39.878Y82.359
X40.081Y87.986
X40.081Y86.208
X40.97Y88.875
X40.97Y87.097
X42.164Y71.755
X42.164Y56.426
X42.227Y64.008
X43.612Y81.013
X44.005Y78.486
X44.005Y70.739
X44.069Y63.119
X44.526Y81.013
X44.729Y11.722
X46.355Y82.334
X46.571Y88.824
X46.571Y87.046
X47.46Y87.935
X47.46Y86.157
X47.676Y82.334
X48.349Y88.824
X48.349Y87.046
X48.946Y82.334
X49.174Y87.935
X49.174Y86.157
X50.063Y88.824
X50.063Y87.046
X52.807Y11.722
X53.264Y71.819
X54.356Y82.423
X54.546Y92.138
X56.959Y45.402
X60.795Y46.545
X61.214Y79.502
X63.436Y71.882
X66.139Y95.91
X66.142Y81.204
X81.28Y93.332
X81.28Y92.646
X81.28Y91.935
X81.331Y85.357
X81.331Y84.671
X81.331Y83.96
X82.321Y92.621
X82.321Y91.935
X82.347Y93.307
X82.372Y84.645
X82.372Y83.96
X82.398Y85.331
X85.7Y76.695
X85.725Y78.067
X85.725Y77.381
X85.725Y57.544
X85.725Y38.481
X85.725Y19.139
X85.75Y68.72
X85.75Y58.915
X85.75Y58.229
X85.75Y39.853
X85.75Y39.167
X85.75Y20.511
X85.75Y19.825
X85.776Y70.091
X85.776Y69.406
X85.776Y49.568
X85.776Y30.505
X85.776Y11.163
X85.801Y50.94
X85.801Y50.254
X85.801Y31.877
X85.801Y31.191
X85.801Y12.535
X85.801Y11.849
X86.766Y78.067
X86.766Y77.356
X86.766Y76.67
X86.792Y58.915
X86.792Y58.204
X86.792Y57.518
X86.792Y39.853
X86.792Y39.141
X86.792Y38.456
X86.792Y20.511
X86.792Y19.799
X86.792Y19.113
X86.817Y70.091
X86.817Y69.38
X86.817Y68.694
X86.843Y50.94
X86.843Y50.228
X86.843Y49.543
X86.843Y31.877
X86.843Y31.166
X86.843Y30.48
X86.843Y12.535
X86.843Y11.824
X86.843Y11.138
T3
X1.038Y32.956
X1.191Y59.563
X50.355Y53.086
X54.229Y59.309
X54.229Y53.848
X56.954Y68.58
X57.975Y47.879
X58.864Y68.516
X59.22Y49.111
X61.277Y25.527
X66.167Y64.262
X81.788Y69.342
X81.788Y50.165
X81.788Y31.178
X81.788Y26.924
X81.788Y11.811
X86.296Y92.646
T4
X3.021Y54.616
X3.021Y52.076
X3.021Y49.536
X3.021Y46.996
X3.021Y44.456
X3.021Y41.916
X3.021Y39.377
X3.021Y36.837
X3.021Y34.297
X3.021Y31.756
X3.021Y29.216
X3.021Y26.676
X3.021Y24.136
X3.021Y21.596
X3.021Y19.056
X3.021Y16.517
X3.021Y13.976
X3.021Y11.436
X3.021Y8.896
X5.561Y54.616
X5.561Y52.076
X5.561Y49.536
X5.561Y46.996
X5.561Y44.456
X5.561Y41.916
X5.561Y39.377
X5.561Y36.837
X5.561Y34.297
X5.561Y31.756
X5.561Y29.216
X5.561Y26.676
X5.561Y24.136
X5.561Y21.596
X5.561Y19.056
X5.561Y16.517
X5.561Y13.976
X5.561Y11.436
X5.561Y8.896
X63.981Y54.616
X63.981Y52.076
X63.981Y49.536
X63.981Y46.996
X63.981Y44.456
X63.981Y41.916
X63.981Y39.377
X63.981Y36.837
X63.981Y34.297
X63.981Y31.756
X63.981Y29.216
X63.981Y26.676
X63.981Y24.136
X63.981Y21.596
X63.981Y19.056
X63.981Y16.517
X63.981Y13.976
X63.981Y11.436
X63.981Y8.896
X66.521Y54.616
X66.521Y52.076
X66.521Y49.536
X66.521Y46.996
X66.521Y44.456
X66.521Y41.916
X66.521Y39.377
X66.521Y36.837
X66.521Y34.297
X66.521Y31.756
X66.521Y29.216
X66.521Y26.676
X66.521Y24.136
X66.521Y21.596
X66.521Y19.056
X66.521Y16.517
X66.521Y13.976
X66.521Y11.436
X66.521Y8.896
T5
X74.867Y70.104
X25.019Y56.121
X25.019Y53.581
X25.019Y51.041
X64.935Y92.443
X72.326Y70.104
X58.75Y6.998
X58.75Y4.458
X58.75Y1.918
X59.969Y26.607
X59.969Y24.066
X64.935Y89.903
X31.826Y56.121
X31.826Y53.581
X96.139Y58.052
X96.139Y55.512
X96.139Y52.972
X96.139Y50.432
X72.326Y53.594
X74.867Y53.594
X64.935Y87.363
X64.935Y84.823
X31.826Y51.041
X38.735Y76.162
X38.735Y73.622
X71.755Y11.938
X74.295Y11.938
X38.735Y68.542
X38.735Y66.002
X65.456Y77.787
X65.456Y75.248
X47.473Y68.542
X47.473Y66.002
X96.114Y77.203
X96.114Y74.663
X96.114Y72.123
X96.114Y69.583
X47.473Y76.162
X47.473Y73.622
X71.691Y5.207
X74.231Y5.207
X12.522Y13.627
X15.062Y13.627
X17.602Y13.627
X20.142Y13.627
X25.019Y73.393
X25.019Y70.853
X25.019Y68.313
X31.826Y65.773
X31.826Y63.233
X25.019Y65.773
X25.019Y63.233
X31.826Y73.393
X31.826Y70.853
X31.826Y68.313
X31.826Y60.693
X25.019Y60.693
X47.473Y60.871
X96.19Y17.107
X96.19Y14.567
X96.19Y12.027
X47.473Y58.331
X2.362Y57.493
X4.902Y57.493
X54.511Y75.239
X57.051Y75.239
X38.735Y60.871
X38.735Y58.331
X39.352Y45.81
X41.892Y45.81
X44.432Y45.81
X46.972Y45.81
X96.19Y19.647
X65.456Y70.167
X65.456Y67.627
X57.206Y84.996
X54.725Y94.801
X57.265Y94.801
X54.665Y84.996
X96.19Y33.96
X96.19Y31.42
X71.92Y87.363
X71.92Y84.823
X96.19Y39.04
X96.19Y36.5
X71.92Y92.443
X71.92Y89.903
T6
X14.097Y71.92
X14.097Y69.38
X14.097Y66.84
X14.097Y64.3
X14.097Y61.76
X14.097Y59.22
X16.637Y71.92
X16.637Y69.38
X16.637Y66.84
X16.637Y64.3
X16.637Y61.76
X16.637Y59.22
T7
X26.441Y5.22
X18.364Y5.22
X10.287Y5.22
X13.787Y5.22
X29.941Y5.22
X21.864Y5.22
X50.8Y5.22
X54.3Y5.22
X36.251Y93.853
X39.751Y93.853
X45.293Y93.866
X48.793Y93.866
X34.569Y5.22
X38.069Y5.22
X42.697Y5.22
X46.197Y5.22
X62.87Y4.255
X66.37Y4.255
T8
X11.074Y90.284
X17.424Y90.284
X25.095Y93.739
X30.175Y93.739
T0
M30
