M48
;DRILL file {KiCad 5.0.0-rc2-unknown-6090f90~65~ubuntu18.04.1} date Sun May 27 17:44:13 2018
;FORMAT={-:-/ absolute / inch / decimal}
FMAT,2
INCH,TZ
T1C0.0120
T2C0.0150
T3C0.0200
T4C0.0300
T5C0.0394
T6C0.0400
T7C0.0472
T8C0.0512
T9C0.1260
%
G90
G05
M72
T1
X0.84Y-1.07
X0.84Y-1.105
X0.84Y-1.1375
X0.856Y-1.664
X0.912Y-1.664
X0.968Y-1.664
X0.9875Y-2.2875
X0.995Y-1.305
X1.0175Y-1.306
X1.018Y-1.66
X1.04Y-1.306
X1.058Y-1.558
X1.062Y-2.296
X1.0625Y-1.306
X1.065Y-2.62
X1.065Y-2.6575
X1.0675Y-3.1925
X1.0675Y-3.465
X1.0675Y-3.4975
X1.072Y-1.664
X1.075Y-3.36
X1.08Y-2.9475
X1.0825Y-2.84
X1.085Y-1.306
X1.0975Y-2.62
X1.1Y-3.22
X1.1Y-3.26
X1.1075Y-1.306
X1.1075Y-2.86
X1.11Y-2.9725
X1.1175Y-3.395
X1.1275Y-1.1725
X1.1275Y-1.25
X1.15Y-1.1725
X1.15Y-1.25
X1.158Y-2.466
X1.17Y-1.614
X1.1725Y-1.1725
X1.1725Y-1.25
X1.1795Y-1.961
X1.1808Y-1.9046
X1.192Y-1.588
X1.2163Y-1.5175
X1.2344Y-1.4875
X1.248Y-1.538
X1.265Y-3.39
X1.2675Y-1.9655
X1.2683Y-1.846
X1.2683Y-1.872
X1.2695Y-1.9991
X1.27Y-1.9032
X1.28Y-2.306
X1.2825Y-2.59
X1.285Y-2.865
X1.285Y-3.125
X1.29Y-3.39
X1.3Y-1.1525
X1.3Y-1.1775
X1.3Y-1.2025
X1.3Y-1.2275
X1.3Y-1.2525
X1.3Y-1.2775
X1.3Y-1.3025
X1.3Y-1.3275
X1.3025Y-1.855
X1.3025Y-1.88
X1.3025Y-1.905
X1.3025Y-1.93
X1.3025Y-1.955
X1.3025Y-1.98
X1.3025Y-2.005
X1.3025Y-2.0275
X1.3197Y-1.3658
X1.32Y-1.685
X1.32Y-1.7075
X1.32Y-1.73
X1.32Y-2.1525
X1.32Y-2.175
X1.32Y-2.1975
X1.323Y-2.419
X1.3275Y-1.1525
X1.3275Y-1.1775
X1.3275Y-1.2025
X1.3275Y-1.2275
X1.3275Y-1.2525
X1.3275Y-1.2775
X1.3275Y-1.3025
X1.3275Y-1.3275
X1.3275Y-1.855
X1.3275Y-1.88
X1.3275Y-1.905
X1.3275Y-1.93
X1.3275Y-1.955
X1.3275Y-1.98
X1.3275Y-2.0025
X1.3275Y-2.0275
X1.335Y-1.1175
X1.352Y-0.936
X1.3525Y-1.1525
X1.3525Y-1.1775
X1.3525Y-1.2025
X1.3525Y-1.2275
X1.3525Y-1.2525
X1.3525Y-1.2775
X1.3525Y-1.3025
X1.3525Y-1.3275
X1.3525Y-1.855
X1.3525Y-1.88
X1.3525Y-1.905
X1.3525Y-1.93
X1.3525Y-1.955
X1.3525Y-1.98
X1.3525Y-2.005
X1.3525Y-2.0275
X1.36Y-1.365
X1.3606Y-2.5296
X1.3612Y-1.1135
X1.3702Y-1.0293
X1.3775Y-1.1525
X1.3775Y-1.1775
X1.3775Y-1.2025
X1.3775Y-1.2275
X1.3775Y-1.2525
X1.3775Y-1.2775
X1.3775Y-1.3025
X1.3775Y-1.3275
X1.3775Y-1.855
X1.3775Y-1.88
X1.3775Y-1.905
X1.3775Y-1.93
X1.3775Y-1.955
X1.3775Y-1.98
X1.3775Y-2.005
X1.3775Y-2.0275
X1.4Y-1.685
X1.4Y-1.7075
X1.4Y-1.73
X1.4Y-2.1525
X1.4Y-2.175
X1.4Y-2.1975
X1.4Y-3.8825
X1.4025Y-1.1525
X1.4025Y-1.1775
X1.4025Y-1.2025
X1.4025Y-1.2275
X1.4025Y-1.2525
X1.4025Y-1.2775
X1.4025Y-1.3025
X1.4025Y-1.3275
X1.4025Y-1.855
X1.4025Y-1.88
X1.4025Y-1.905
X1.4025Y-1.93
X1.4025Y-1.955
X1.4025Y-1.98
X1.4025Y-2.005
X1.4025Y-2.0275
X1.41Y-1.55
X1.4225Y-1.0275
X1.4275Y-1.1525
X1.4275Y-1.1775
X1.4275Y-1.2025
X1.4275Y-1.2275
X1.4275Y-1.2525
X1.4275Y-1.2775
X1.4275Y-1.3025
X1.4275Y-1.3275
X1.4275Y-1.855
X1.4275Y-1.88
X1.4275Y-1.905
X1.4275Y-1.93
X1.4275Y-1.955
X1.4275Y-1.98
X1.4275Y-2.005
X1.4275Y-2.0275
X1.4334Y-1.1198
X1.4475Y-2.1475
X1.4525Y-1.1525
X1.4525Y-1.1775
X1.4525Y-1.2025
X1.4525Y-1.2275
X1.4525Y-1.2525
X1.4525Y-1.2775
X1.4525Y-1.3025
X1.4525Y-1.3275
X1.4525Y-1.6625
X1.4525Y-1.855
X1.4525Y-1.88
X1.4525Y-1.905
X1.4525Y-1.93
X1.4525Y-1.955
X1.4525Y-1.98
X1.4525Y-2.005
X1.4525Y-2.0275
X1.4571Y-2.245
X1.4575Y-2.2675
X1.4575Y-2.2875
X1.4575Y-2.3075
X1.4575Y-2.3275
X1.4575Y-2.3475
X1.4594Y-1.1212
X1.4675Y-1.59
X1.4715Y-2.5785
X1.476Y-3.706
X1.4775Y-1.1525
X1.4775Y-1.1775
X1.4775Y-1.2025
X1.4775Y-1.2275
X1.4775Y-1.2525
X1.4775Y-1.2775
X1.4775Y-1.3025
X1.4775Y-1.3275
X1.4775Y-1.855
X1.4775Y-1.88
X1.4775Y-1.905
X1.4775Y-1.93
X1.4775Y-1.955
X1.4775Y-1.98
X1.4775Y-2.005
X1.4775Y-2.0275
X1.479Y-3.653
X1.485Y-2.745
X1.485Y-3.002
X1.485Y-3.035
X1.485Y-3.0675
X1.485Y-3.1025
X1.4872Y-1.119
X1.4875Y-1.63
X1.4875Y-1.655
X1.4875Y-2.7825
X1.4875Y-2.8175
X1.5175Y-1.52
X1.526Y-1.568
X1.5378Y-1.6688
X1.565Y-2.545
X1.5825Y-1.515
X1.586Y-3.256
X1.5975Y-1.2975
X1.6025Y-1.17
X1.6025Y-1.25
X1.604Y-1.698
X1.6045Y-2.0105
X1.605Y-1.98
X1.6081Y-3.155
X1.6081Y-3.205
X1.614Y-2.42
X1.618Y-2.66
X1.62Y-3.273
X1.625Y-1.17
X1.625Y-1.25
X1.63Y-1.61
X1.638Y-1.438
X1.642Y-1.7
X1.6475Y-1.17
X1.6475Y-1.25
X1.65Y-2.55
X1.655Y-1.725
X1.665Y-2.6275
X1.6694Y-1.3025
X1.6694Y-1.3275
X1.675Y-2.0175
X1.678Y-2.8
X1.6836Y-1.7325
X1.684Y-3.062
X1.686Y-1.772
X1.6884Y-1.5946
X1.69Y-3.1525
X1.6906Y-3.2069
X1.694Y-3.108
X1.694Y-3.108
X1.7Y-1.52
X1.7025Y-2.2125
X1.705Y-2.0175
X1.7225Y-2.625
X1.725Y-1.52
X1.727Y-2.319
X1.728Y-1.896
X1.7325Y-2.5525
X1.734Y-1.702
X1.735Y-2.0175
X1.7375Y-2.2125
X1.74Y-1.3025
X1.74Y-1.3275
X1.75Y-1.52
X1.7525Y-2.7275
X1.7546Y-1.8171
X1.7625Y-2.5525
X1.764Y-2.318
X1.765Y-2.284
X1.7675Y-2.0175
X1.788Y-1.094
X1.788Y-1.118
X1.79Y-0.91
X1.79Y-0.935
X1.79Y-0.96
X1.792Y-3.272
X1.796Y-1.22
X1.796Y-1.246
X1.798Y-1.762
X1.8175Y-0.9775
X1.82Y-2.325
X1.82Y-2.36
X1.82Y-2.4
X1.822Y-2.27
X1.824Y-2.188
X1.83Y-2.806
X1.83Y-3.2425
X1.836Y-2.116
X1.8425Y-0.995
X1.866Y-1.012
X1.866Y-1.04
X1.866Y-1.066
X1.883Y-3.566
X1.887Y-2.6557
X1.894Y-1.994
X1.898Y-1.306
X1.9Y-1.72
X1.904Y-3.566
X1.9225Y-2.905
X1.925Y-3.566
X1.928Y-1.516
X1.928Y-1.544
X1.928Y-1.594
X1.9325Y-0.8125
X1.944Y-3.868
X1.9675Y-1.5075
X1.97Y-3.398
X1.974Y-1.762
X1.9825Y-2.9591
X1.995Y-0.8125
X1.995Y-2.5025
X1.9975Y-2.215
X1.9975Y-2.2475
X1.9975Y-2.2875
X1.998Y-1.548
X1.998Y-1.582
X1.998Y-1.616
X2.004Y-1.488
X2.0125Y-2.985
X2.019Y-3.0607
X2.03Y-2.5025
X2.0325Y-2.9325
X2.046Y-3.402
X2.047Y-3.52
X2.055Y-0.8125
X2.064Y-3.012
X2.0675Y-1.5125
X2.068Y-3.52
X2.089Y-3.52
X2.094Y-2.576
X2.0975Y-1.5125
X2.0975Y-1.9325
X2.109Y-3.913
X2.112Y-2.078
X2.12Y-0.8125
X2.1275Y-1.513
X2.13Y-1.894
X2.13Y-3.914
X2.131Y-3.086
X2.135Y-1.935
X2.14Y-2.4
X2.14Y-2.4425
X2.14Y-2.48
X2.151Y-3.915
X2.155Y-1.841
X2.1625Y-3.0925
X2.1775Y-3.3101
X2.185Y-3.235
X2.19Y-3.0925
X2.2175Y-2.4025
X2.2175Y-2.44
X2.2175Y-2.4825
X2.2175Y-3.0925
X2.2225Y-2.0725
X2.225Y-1.945
X2.2275Y-0.8125
X2.2275Y-0.885
X2.2275Y-0.9575
X2.2275Y-1.0125
X2.2275Y-1.0725
X2.24Y-2.576
X2.28Y-2.863
X2.288Y-2.658
X2.2975Y-2.9
X2.315Y-2.67
X2.325Y-1.81
X2.3275Y-0.8125
X2.33Y-3.5
X2.3325Y-2.9
X2.342Y-3.1577
X2.3475Y-3.4675
X2.35Y-1.4775
X2.35Y-1.505
X2.35Y-1.535
X2.35Y-1.565
X2.35Y-1.595
X2.35Y-3.3725
X2.355Y-0.8125
X2.357Y-2.8113
X2.3586Y-3.5185
X2.3625Y-2.86
X2.3625Y-2.9
X2.365Y-1.81
X2.365Y-2.01
X2.365Y-2.0725
X2.365Y-3.105
X2.381Y-3.359
X2.3825Y-0.8125
X2.3925Y-2.9
X2.3975Y-2.9675
X2.4Y-2.576
X2.405Y-1.81
X2.405Y-2.4
X2.405Y-2.44
X2.405Y-2.485
X2.4125Y-0.8125
X2.445Y-0.8125
X2.472Y-3.73
X2.4775Y-0.8125
X2.4825Y-3.5125
X2.493Y-3.73
X2.51Y-3.546
X2.5125Y-1.055
X2.5325Y-3.435
X2.534Y-3.547
X2.535Y-3.195
X2.5375Y-1.12
X2.5375Y-2.8875
X2.5375Y-2.92
X2.5375Y-2.955
X2.54Y-2.738
X2.545Y-2.0825
X2.5575Y-3.5475
X2.56Y-3.072
X2.5675Y-3.195
X2.5875Y-2.6075
X2.5875Y-2.65
X2.595Y-3.
X2.5975Y-3.0925
X2.598Y-1.896
X2.6225Y-1.5775
X2.623Y-1.523
X2.634Y-3.29
X2.637Y-3.699
X2.66Y-1.5775
X2.661Y-1.523
X2.68Y-3.285
X2.685Y-3.0925
X2.692Y-3.437
X2.695Y-0.898
X2.696Y-3.199
X2.6975Y-1.5775
X2.698Y-1.523
X2.71Y-2.6075
X2.711Y-1.049
X2.7125Y-2.65
X2.7125Y-3.285
X2.715Y-1.217
X2.715Y-1.243
X2.715Y-1.269
X2.715Y-1.294
X2.72Y-2.738
X2.735Y-1.049
X2.7375Y-1.5775
X2.74Y-2.885
X2.7475Y-3.285
X2.75Y-2.4075
X2.7525Y-2.455
X2.7525Y-2.495
X2.76Y-3.1975
X2.7625Y-3.0975
X2.77Y-2.8625
X2.7725Y-1.8075
X2.785Y-3.0025
X2.7925Y-2.695
X2.7925Y-3.0975
X2.7925Y-3.1975
X2.8025Y-2.8375
X2.8125Y-1.8075
X2.82Y-3.0975
X2.82Y-3.1975
X2.825Y-2.665
X2.842Y-3.909
X2.855Y-1.8075
X2.8575Y-2.63
X2.866Y-3.909
X2.889Y-3.909
X2.8925Y-1.8075
X2.9Y-1.701
X2.905Y-4.128
X2.9207Y-3.1993
X2.925Y-1.701
X2.935Y-1.8075
X2.95Y-1.701
X2.974Y-1.701
X2.997Y-4.037
X2.998Y-1.065
X2.999Y-1.701
X3.0125Y-2.8175
X3.015Y-1.4625
X3.0225Y-2.4175
X3.0425Y-1.4625
X3.048Y-1.335
X3.048Y-1.361
X3.048Y-1.387
X3.0525Y-2.4175
X3.0525Y-2.8175
X3.069Y-1.4625
X3.0825Y-2.4175
X3.0875Y-2.715
X3.088Y-2.072
X3.09Y-2.8175
X3.11Y-2.358
X3.14Y-3.73
X3.147Y-0.898
X3.15Y-2.718
X3.1525Y-3.0725
X3.155Y-2.9975
X3.169Y-1.011
X3.17Y-3.956
X3.1875Y-2.4175
X3.189Y-4.04
X3.193Y-1.047
X3.1975Y-2.7175
X3.1975Y-3.575
X3.1975Y-3.6025
X3.198Y-2.912
X3.2Y-2.82
X3.213Y-1.481
X3.213Y-1.503
X3.213Y-1.525
X3.2225Y-2.5875
X3.235Y-2.9975
X3.236Y-1.482
X3.236Y-1.504
X3.236Y-1.525
X3.245Y-1.228
X3.245Y-1.2505
X3.245Y-1.273
X3.245Y-1.2955
X3.245Y-1.318
X3.245Y-1.3405
X3.245Y-1.363
X3.245Y-3.345
X3.259Y-1.483
X3.259Y-1.505
X3.259Y-1.527
X3.2675Y-1.228
X3.2675Y-1.2505
X3.2675Y-1.273
X3.2675Y-1.2955
X3.2675Y-1.318
X3.2675Y-1.3405
X3.2675Y-1.363
X3.282Y-1.483
X3.282Y-1.506
X3.2825Y-4.4225
X3.29Y-1.228
X3.29Y-1.2505
X3.29Y-1.273
X3.29Y-1.2955
X3.29Y-1.318
X3.29Y-1.3405
X3.29Y-1.363
X3.305Y-1.484
X3.3125Y-1.228
X3.3125Y-1.2505
X3.3125Y-1.273
X3.3125Y-1.2955
X3.3125Y-1.318
X3.3125Y-1.3405
X3.3125Y-1.363
X3.3225Y-4.4225
X3.335Y-1.228
X3.335Y-1.2505
X3.335Y-1.273
X3.335Y-1.2955
X3.335Y-1.318
X3.335Y-1.3405
X3.335Y-1.363
X3.335Y-1.7925
X3.3575Y-1.228
X3.3575Y-1.2505
X3.3575Y-1.273
X3.3575Y-1.2955
X3.3575Y-1.318
X3.3575Y-1.3405
X3.3575Y-1.363
X3.365Y-4.4225
X3.3725Y-1.7925
X3.38Y-1.228
X3.38Y-1.2505
X3.38Y-1.273
X3.38Y-1.2955
X3.38Y-1.318
X3.38Y-1.3405
X3.38Y-1.363
X3.4025Y-1.228
X3.4025Y-1.2505
X3.4025Y-1.273
X3.4025Y-1.2955
X3.4025Y-1.318
X3.4025Y-1.3405
X3.4025Y-1.363
X3.4075Y-1.7925
X3.44Y-1.7925
X3.455Y-3.635
X3.4575Y-3.245
X3.467Y-3.544
X3.4675Y-2.9325
X3.468Y-3.437
X3.475Y-1.59
X3.476Y-3.356
X3.4775Y-3.08
X3.4775Y-3.905
X3.4775Y-3.9425
X3.485Y-2.7325
X3.4875Y-2.56
X3.496Y-1.083
X3.5075Y-1.59
X3.516Y-2.888
X3.5334Y-3.5084
X3.535Y-2.355
X3.537Y-3.871
X3.54Y-1.59
X3.547Y-3.463
X3.555Y-2.8225
X3.564Y-2.11
X3.575Y-2.965
X3.592Y-2.134
X3.617Y-3.899
X3.6175Y-2.6975
X3.6269Y-2.252
X3.627Y-3.944
X3.65Y-3.945
X3.668Y-2.607
X3.668Y-3.687
X3.6725Y-2.575
X3.674Y-1.139
X3.674Y-4.088
X3.675Y-1.07
X3.675Y-1.093
X3.675Y-1.116
X3.675Y-3.945
X3.675Y-3.973
X3.6875Y-1.21
X3.689Y-3.211
X3.695Y-4.104
X3.695Y-4.25
X3.695Y-4.28
X3.695Y-4.3125
X3.7Y-2.848
X3.702Y-2.723
X3.702Y-2.959
X3.703Y-2.79
X3.709Y-3.11
X3.716Y-4.104
X3.728Y-2.4
X3.732Y-3.19
X3.7516Y-2.338
X3.7525Y-0.82
X3.764Y-2.926
X3.764Y-2.952
X3.768Y-3.948
X3.768Y-3.972
X3.7735Y-2.4
X3.7825Y-2.745
X3.7825Y-2.8225
X3.785Y-2.655
X3.786Y-3.188
X3.793Y-4.156
X3.795Y-4.3025
X3.795Y-4.33
X3.795Y-4.355
X3.796Y-3.843
X3.796Y-3.953
X3.806Y-2.401
X3.807Y-2.637
X3.8175Y-0.82
X3.825Y-3.212
X3.8275Y-1.935
X3.8275Y-3.3525
X3.828Y-3.79
X3.833Y-2.899
X3.834Y-2.83
X3.836Y-2.241
X3.837Y-2.8
X3.84Y-3.4
X3.848Y-4.216
X3.8525Y-2.7525
X3.8525Y-3.3525
X3.8675Y-3.4
X3.874Y-4.12
X3.875Y-2.256
X3.875Y-2.7525
X3.8875Y-0.82
X3.889Y-3.216
X3.891Y-4.214
X3.899Y-2.255
X3.91Y-3.9375
X3.915Y-2.9375
X3.9175Y-1.98
X3.9291Y-1.48
X3.9425Y-2.48
X3.9475Y-3.88
X3.9475Y-3.905
X3.9475Y-3.93
X3.9475Y-3.955
X3.9475Y-3.98
X3.9475Y-4.005
X3.9475Y-4.03
X3.9475Y-4.0525
X3.9525Y-1.92
X3.9525Y-1.945
X3.9525Y-1.97
X3.9525Y-1.995
X3.9525Y-2.02
X3.9525Y-2.045
X3.9525Y-2.07
X3.9525Y-2.095
X3.9525Y-2.8825
X3.9525Y-2.905
X3.9525Y-2.93
X3.9525Y-2.955
X3.9525Y-2.98
X3.9525Y-3.005
X3.9525Y-3.03
X3.9525Y-3.055
X3.9525Y-3.2475
X3.9525Y-3.3125
X3.9525Y-4.36
X3.9575Y-2.2925
X3.9575Y-2.3475
X3.968Y-3.635
X3.968Y-3.67
X3.968Y-3.6949
X3.9725Y-3.88
X3.9725Y-3.905
X3.9725Y-3.93
X3.9725Y-3.955
X3.9725Y-3.98
X3.9725Y-4.005
X3.9725Y-4.03
X3.9725Y-4.0525
X3.974Y-2.5547
X3.974Y-2.6375
X3.974Y-2.6675
X3.974Y-2.6909
X3.974Y-3.3375
X3.974Y-3.3625
X3.974Y-3.3875
X3.9743Y-2.3775
X3.9775Y-1.92
X3.9775Y-1.945
X3.9775Y-1.97
X3.9775Y-1.995
X3.9775Y-2.02
X3.9775Y-2.045
X3.9775Y-2.07
X3.9775Y-2.095
X3.9775Y-2.2125
X3.9775Y-2.2725
X3.9775Y-2.2925
X3.9775Y-2.3475
X3.9775Y-2.8825
X3.9775Y-2.905
X3.9775Y-2.93
X3.9775Y-2.955
X3.9775Y-2.98
X3.9775Y-3.005
X3.9775Y-3.03
X3.9775Y-3.055
X3.9775Y-3.75
X3.9775Y-4.17
X3.9775Y-4.1925
X3.9775Y-4.2175
X3.9775Y-4.245
X3.9775Y-4.27
X3.9775Y-4.295
X3.98Y-3.1725
X3.98Y-3.2325
X3.98Y-3.2525
X3.98Y-3.3125
X3.985Y-2.4775
X3.9875Y-2.7275
X3.9875Y-2.75
X3.9975Y-3.88
X3.9975Y-3.905
X3.9975Y-3.93
X3.9975Y-3.955
X3.9975Y-3.98
X3.9975Y-4.005
X3.9975Y-4.03
X3.9975Y-4.0525
X4.0025Y-1.92
X4.0025Y-1.945
X4.0025Y-1.97
X4.0025Y-1.995
X4.0025Y-2.02
X4.0025Y-2.045
X4.0025Y-2.07
X4.0025Y-2.095
X4.0025Y-2.8825
X4.0025Y-2.905
X4.0025Y-2.93
X4.0025Y-2.955
X4.0025Y-2.98
X4.0025Y-3.005
X4.0025Y-3.03
X4.0025Y-3.055
X4.0225Y-3.365
X4.0225Y-3.3925
X4.0225Y-3.88
X4.0225Y-3.905
X4.0225Y-3.93
X4.0225Y-3.955
X4.0225Y-3.98
X4.0225Y-4.005
X4.0225Y-4.03
X4.0225Y-4.0525
X4.025Y-4.1825
X4.025Y-4.205
X4.025Y-4.2275
X4.0275Y-1.92
X4.0275Y-1.945
X4.0275Y-1.97
X4.0275Y-1.995
X4.0275Y-2.02
X4.0275Y-2.045
X4.0275Y-2.07
X4.0275Y-2.095
X4.0275Y-2.8825
X4.0275Y-2.905
X4.0275Y-2.93
X4.0275Y-2.955
X4.0275Y-2.98
X4.0275Y-3.005
X4.0275Y-3.03
X4.0275Y-3.055
X4.0275Y-3.705
X4.0275Y-3.7275
X4.0275Y-3.75
X4.029Y-2.397
X4.03Y-1.745
X4.03Y-1.7675
X4.03Y-1.79
X4.03Y-2.225
X4.03Y-2.2475
X4.03Y-2.27
X4.03Y-3.185
X4.03Y-3.2075
X4.03Y-3.23
X4.0325Y-2.705
X4.0325Y-2.7275
X4.0325Y-2.75
X4.0475Y-3.88
X4.0475Y-3.905
X4.0475Y-3.93
X4.0475Y-3.955
X4.0475Y-3.98
X4.0475Y-4.005
X4.0475Y-4.03
X4.0475Y-4.0525
X4.0525Y-1.92
X4.0525Y-1.945
X4.0525Y-1.97
X4.0525Y-1.995
X4.0525Y-2.02
X4.0525Y-2.045
X4.0525Y-2.07
X4.0525Y-2.095
X4.0525Y-2.8825
X4.0525Y-2.905
X4.0525Y-2.93
X4.0525Y-2.955
X4.0525Y-2.98
X4.0525Y-3.005
X4.0525Y-3.03
X4.0525Y-3.055
X4.07Y-1.21
X4.0725Y-3.88
X4.0725Y-3.905
X4.0725Y-3.93
X4.0725Y-3.955
X4.0725Y-3.98
X4.0725Y-4.005
X4.0725Y-4.03
X4.0725Y-4.0525
X4.0775Y-1.92
X4.0775Y-1.945
X4.0775Y-1.97
X4.0775Y-1.995
X4.0775Y-2.02
X4.0775Y-2.045
X4.0775Y-2.07
X4.0775Y-2.095
X4.0775Y-2.8825
X4.0775Y-2.905
X4.0775Y-2.93
X4.0775Y-2.955
X4.0775Y-2.98
X4.0775Y-3.005
X4.0775Y-3.03
X4.0775Y-3.055
X4.091Y-1.231
X4.0975Y-3.88
X4.0975Y-3.905
X4.0975Y-3.93
X4.0975Y-3.955
X4.0975Y-3.98
X4.0975Y-4.005
X4.0975Y-4.03
X4.0975Y-4.0525
X4.1025Y-1.92
X4.1025Y-1.945
X4.1025Y-1.97
X4.1025Y-1.995
X4.1025Y-2.02
X4.1025Y-2.045
X4.1025Y-2.07
X4.1025Y-2.095
X4.1025Y-2.8825
X4.1025Y-2.905
X4.1025Y-2.93
X4.1025Y-2.955
X4.1025Y-2.98
X4.1025Y-3.005
X4.1025Y-3.03
X4.1025Y-3.055
X4.105Y-3.705
X4.105Y-3.7275
X4.105Y-3.75
X4.105Y-4.1825
X4.105Y-4.205
X4.105Y-4.2275
X4.11Y-1.745
X4.11Y-1.7675
X4.11Y-1.79
X4.11Y-2.225
X4.11Y-2.2475
X4.11Y-2.27
X4.11Y-2.705
X4.11Y-2.7275
X4.11Y-2.75
X4.11Y-3.185
X4.11Y-3.2075
X4.11Y-3.23
X4.115Y-1.255
X4.1225Y-3.88
X4.1225Y-3.905
X4.1225Y-3.93
X4.1225Y-3.955
X4.1225Y-3.98
X4.1225Y-4.005
X4.1225Y-4.03
X4.1225Y-4.0525
X4.1275Y-2.8825
X4.1275Y-2.905
X4.1275Y-2.93
X4.1275Y-2.955
X4.1275Y-2.98
X4.1275Y-3.005
X4.1275Y-3.0325
X4.1275Y-3.055
X4.13Y-1.92
X4.13Y-1.945
X4.13Y-1.97
X4.13Y-1.995
X4.13Y-2.02
X4.13Y-2.045
X4.13Y-2.07
X4.13Y-2.095
X4.1526Y-3.9155
X4.1575Y-4.06
X4.1578Y-3.9427
X4.1581Y-4.0307
X4.1612Y-2.9486
X4.1615Y-1.9914
X4.1615Y-3.0656
X4.1619Y-2.1065
X4.1624Y-2.0768
X4.1638Y-3.0355
X4.1662Y-2.9169
X4.1676Y-1.9577
X4.19Y-4.365
X4.204Y-2.558
X4.2175Y-4.365
X4.2425Y-4.365
X4.246Y-4.022
X4.248Y-3.95
X4.2493Y-3.0218
X4.252Y-2.952
X4.2525Y-2.074
X4.254Y-1.994
X4.2566Y-3.9982
X4.2607Y-2.0392
X4.2621Y-2.9992
X4.2675Y-4.3
X4.2698Y-2.558
X4.281Y-1.481
X4.311Y-0.912
X4.311Y-0.941
X4.311Y-0.969
X4.311Y-0.997
X4.331Y-1.481
X4.36Y-1.836
X4.381Y-1.481
X4.43Y-1.481
X4.4325Y-3.365
X4.4325Y-3.41
X4.4325Y-3.455
X4.49Y-2.37
X4.49Y-2.415
X4.49Y-2.46
X4.49Y-2.5075
T2
X1.718Y-1.78
X1.878Y-3.458
X1.996Y-2.06
X2.08Y-2.17
X2.118Y-2.17
X2.12Y-2.212
X2.206Y-2.172
X2.308Y-2.278
T3
X1.0275Y-2.4175
X1.0675Y-2.3475
X1.1125Y-2.4175
X1.5453Y-3.34
X1.635Y-0.9825
X1.7975Y-1.5638
X1.805Y-3.4025
X1.825Y-3.032
X1.865Y-3.28
X1.8669Y-2.543
X1.8675Y-3.3966
X1.895Y-2.2375
X2.0949Y-3.0323
X2.1125Y-2.88
X2.1575Y-3.03
X2.2275Y-3.9575
X2.313Y-1.1614
X2.313Y-1.2008
X2.313Y-1.2402
X2.313Y-1.2795
X2.35Y-2.62
X2.3524Y-1.1614
X2.3524Y-1.2008
X2.3524Y-1.2402
X2.3524Y-1.2795
X2.3917Y-1.1614
X2.3917Y-1.2008
X2.3917Y-1.2402
X2.3917Y-1.2795
X2.3975Y-3.275
X2.4311Y-1.1614
X2.4311Y-1.2008
X2.4311Y-1.2402
X2.4311Y-1.2795
X2.44Y-3.4725
X2.4775Y-3.4725
X2.515Y-3.4725
X2.7225Y-2.9975
X2.7954Y-1.1714
X2.7954Y-1.2108
X2.7954Y-1.2502
X2.7954Y-1.2895
X2.8225Y-3.035
X2.8348Y-1.1714
X2.8348Y-1.2108
X2.8348Y-1.2502
X2.8348Y-1.2895
X2.8425Y-3.59
X2.85Y-3.2925
X2.865Y-3.2275
X2.8742Y-1.2108
X2.8742Y-1.2502
X2.8742Y-1.2895
X2.8759Y-1.1714
X2.8775Y-2.205
X2.8775Y-2.245
X2.8775Y-2.285
X2.9Y-2.9375
X2.9075Y-3.8775
X2.9125Y-3.035
X2.9135Y-1.1714
X2.9135Y-1.2108
X2.9135Y-1.2502
X2.9135Y-1.2895
X3.1625Y-3.43
X3.1675Y-3.6925
X3.2016Y-3.74
X3.21Y-3.4259
X3.2225Y-2.675
X3.23Y-3.6875
X3.325Y-2.2875
X3.365Y-2.2875
X3.405Y-2.2875
X3.4425Y-2.2875
X3.48Y-2.2875
X3.4825Y-1.9625
X3.525Y-1.9625
X3.565Y-1.9625
X3.595Y-3.2775
X3.615Y-1.5425
X3.615Y-1.5825
X3.615Y-1.6225
X3.615Y-1.6625
X3.6283Y-3.3497
X3.655Y-1.405
X3.66Y-3.15
X3.7Y-1.405
X3.74Y-1.405
X3.78Y-2.605
X3.7825Y-1.405
X3.7925Y-3.2675
X3.7925Y-3.3075
X3.83Y-2.44
X4.2525Y-3.3925
X4.2525Y-3.44
X4.2534Y-3.3477
T4
X1.255Y-3.9955
X1.5575Y-3.9925
X0.9025Y-2.4975
X0.9025Y-2.5975
X0.9025Y-2.6975
X0.9025Y-2.7975
X0.9025Y-2.8975
X0.9025Y-2.9975
X0.9025Y-3.0975
X0.9025Y-3.1975
X0.9025Y-3.2975
X0.9025Y-3.3975
X0.9025Y-3.4975
X0.9025Y-3.5975
X0.9025Y-3.6975
X0.9025Y-3.7975
X0.9025Y-3.8975
X0.9025Y-3.9975
X0.9025Y-4.0975
X0.9025Y-4.1975
X0.9025Y-4.2975
X1.0025Y-2.4975
X1.0025Y-2.5975
X1.0025Y-2.6975
X1.0025Y-2.7975
X1.0025Y-2.8975
X1.0025Y-2.9975
X1.0025Y-3.0975
X1.0025Y-3.1975
X1.0025Y-3.2975
X1.0025Y-3.3975
X1.0025Y-3.4975
X1.0025Y-3.5975
X1.0025Y-3.6975
X1.0025Y-3.7975
X1.0025Y-3.8975
X1.0025Y-3.9975
X1.0025Y-4.0975
X1.0025Y-4.1975
X1.0025Y-4.2975
X3.3025Y-2.4975
X3.3025Y-2.5975
X3.3025Y-2.6975
X3.3025Y-2.7975
X3.3025Y-2.8975
X3.3025Y-2.9975
X3.3025Y-3.0975
X3.3025Y-3.1975
X3.3025Y-3.2975
X3.3025Y-3.3975
X3.3025Y-3.4975
X3.3025Y-3.5975
X3.3025Y-3.6975
X3.3025Y-3.7975
X3.3025Y-3.8975
X3.3025Y-3.9975
X3.3025Y-4.0975
X3.3025Y-4.1975
X3.3025Y-4.2975
X3.4025Y-2.4975
X3.4025Y-2.5975
X3.4025Y-2.6975
X3.4025Y-2.7975
X3.4025Y-2.8975
X3.4025Y-2.9975
X3.4025Y-3.0975
X3.4025Y-3.1975
X3.4025Y-3.2975
X3.4025Y-3.3975
X3.4025Y-3.4975
X3.4025Y-3.5975
X3.4025Y-3.6975
X3.4025Y-3.7975
X3.4025Y-3.8975
X3.4025Y-3.9975
X3.4025Y-4.0975
X3.4025Y-4.1975
X3.4025Y-4.2975
T5
X3.61Y-4.4725
X3.71Y-4.4725
X3.81Y-4.4725
X1.383Y-3.1905
X1.383Y-3.2905
X4.452Y-1.866
X4.452Y-1.966
X4.452Y-2.066
X4.452Y-2.166
X3.5175Y-4.155
X3.5175Y-4.255
X1.5845Y-3.491
X1.6845Y-3.491
X0.9781Y-1.8182
X0.9781Y-1.9182
X0.9781Y-2.0182
X0.9781Y-2.1182
X2.9515Y-3.113
X3.0515Y-3.113
X4.444Y-2.792
X4.444Y-2.892
X4.444Y-2.992
X4.444Y-3.092
X1.585Y-4.1525
X1.685Y-4.1525
X4.596Y-1.766
X4.596Y-1.866
X4.596Y-1.966
X4.596Y-2.066
X1.384Y-2.674
X1.384Y-2.774
X2.195Y-1.6275
X2.195Y-1.7275
X1.2805Y-3.8215
X1.3805Y-3.8215
X1.192Y-0.83
X1.292Y-0.83
X1.392Y-0.83
X1.492Y-0.83
X1.384Y-2.933
X1.384Y-3.033
X1.279Y-4.1525
X1.379Y-4.1525
X1.8148Y-3.1795
X1.9148Y-3.1795
X2.0148Y-3.1795
X2.1148Y-3.1795
X2.956Y-3.451
X3.056Y-3.451
X4.444Y-3.778
X4.444Y-3.878
X4.444Y-3.978
X4.444Y-4.078
X2.9545Y-3.7865
X3.0545Y-3.7865
X1.585Y-3.8225
X1.685Y-3.8225
T6
X1.984Y-3.632
X1.984Y-3.732
X2.084Y-3.632
X2.084Y-3.732
X2.184Y-3.632
X2.184Y-3.732
X2.284Y-3.632
X2.284Y-3.732
X2.384Y-3.632
X2.384Y-3.732
T7
X2.8637Y-0.957
X3.0015Y-0.957
X2.3832Y-0.951
X2.521Y-0.951
X2.2785Y-4.4441
X2.4162Y-4.4441
X1.985Y-0.95
X2.1228Y-0.95
X2.934Y-4.4425
X3.0718Y-4.4425
X2.6065Y-4.444
X2.7443Y-4.444
X1.2947Y-4.4425
X1.4325Y-4.4425
X1.6225Y-4.4425
X1.7603Y-4.4425
X1.949Y-4.444
X2.0868Y-4.444
T8
X3.3295Y-0.95
X3.5295Y-0.95
X3.951Y-0.957
X4.151Y-0.957
T9
X4.5276Y-0.9055
X0.9275Y-4.505
X0.936Y-0.92
X4.5276Y-4.4882
T0
M30
