%TF.GenerationSoftware,KiCad,Pcbnew,6.0.0-rc1-unknown-0109641~66~ubuntu18.04.1*%
%TF.CreationDate,2018-09-01T21:15:30-07:00*%
%TF.ProjectId,PrntrBoardV1,50726E7472426F61726456312E6B6963,rev?*%
%TF.SameCoordinates,PX1303eb8PY7093f24*%
%TF.FileFunction,Legend,Top*%
%TF.FilePolarity,Positive*%
%FSLAX46Y46*%
G04 Gerber Fmt 4.6, Leading zero omitted, Abs format (unit mm)*
G04 Created by KiCad (PCBNEW 6.0.0-rc1-unknown-0109641~66~ubuntu18.04.1) date Sat Sep  1 21:15:30 2018*
%MOMM*%
%LPD*%
G01*
G04 APERTURE LIST*
%ADD10C,0.150000*%
%ADD11C,0.300000*%
%ADD12C,0.250000*%
%ADD13C,0.200000*%
%ADD14C,0.100000*%
%ADD15C,0.120000*%
G04 APERTURE END LIST*
D10*
X27705285Y42779215D02*
X27705285Y42422072D01*
X26955285Y42422072D01*
X26955285Y42922072D02*
X27705285Y43172072D01*
X26955285Y43422072D01*
X27633857Y44100643D02*
X27669571Y44064929D01*
X27705285Y43957786D01*
X27705285Y43886358D01*
X27669571Y43779215D01*
X27598142Y43707786D01*
X27526714Y43672072D01*
X27383857Y43636358D01*
X27276714Y43636358D01*
X27133857Y43672072D01*
X27062428Y43707786D01*
X26991000Y43779215D01*
X26955285Y43886358D01*
X26955285Y43957786D01*
X26991000Y44064929D01*
X27026714Y44100643D01*
X28980285Y42743500D02*
X28980285Y42314929D01*
X28980285Y42529215D02*
X28230285Y42529215D01*
X28337428Y42457786D01*
X28408857Y42386358D01*
X28444571Y42314929D01*
X28301714Y43029215D02*
X28266000Y43064929D01*
X28230285Y43136358D01*
X28230285Y43314929D01*
X28266000Y43386358D01*
X28301714Y43422072D01*
X28373142Y43457786D01*
X28444571Y43457786D01*
X28551714Y43422072D01*
X28980285Y42993500D01*
X28980285Y43457786D01*
X28230285Y44136358D02*
X28230285Y43779215D01*
X28587428Y43743500D01*
X28551714Y43779215D01*
X28516000Y43850643D01*
X28516000Y44029215D01*
X28551714Y44100643D01*
X28587428Y44136358D01*
X28658857Y44172072D01*
X28837428Y44172072D01*
X28908857Y44136358D01*
X28944571Y44100643D01*
X28980285Y44029215D01*
X28980285Y43850643D01*
X28944571Y43779215D01*
X28908857Y43743500D01*
X40733285Y44410429D02*
X41233285Y44410429D01*
X40447571Y44231858D02*
X40983285Y44053286D01*
X40983285Y44517572D01*
X40483285Y44946143D02*
X40483285Y45017572D01*
X40519000Y45089000D01*
X40554714Y45124715D01*
X40626142Y45160429D01*
X40769000Y45196143D01*
X40947571Y45196143D01*
X41090428Y45160429D01*
X41161857Y45124715D01*
X41197571Y45089000D01*
X41233285Y45017572D01*
X41233285Y44946143D01*
X41197571Y44874715D01*
X41161857Y44839000D01*
X41090428Y44803286D01*
X40947571Y44767572D01*
X40769000Y44767572D01*
X40626142Y44803286D01*
X40554714Y44839000D01*
X40519000Y44874715D01*
X40483285Y44946143D01*
X40483285Y45446143D02*
X40483285Y45946143D01*
X41233285Y45624715D01*
X40804714Y46339000D02*
X40769000Y46267572D01*
X40733285Y46231858D01*
X40661857Y46196143D01*
X40626142Y46196143D01*
X40554714Y46231858D01*
X40519000Y46267572D01*
X40483285Y46339000D01*
X40483285Y46481858D01*
X40519000Y46553286D01*
X40554714Y46589000D01*
X40626142Y46624715D01*
X40661857Y46624715D01*
X40733285Y46589000D01*
X40769000Y46553286D01*
X40804714Y46481858D01*
X40804714Y46339000D01*
X40840428Y46267572D01*
X40876142Y46231858D01*
X40947571Y46196143D01*
X41090428Y46196143D01*
X41161857Y46231858D01*
X41197571Y46267572D01*
X41233285Y46339000D01*
X41233285Y46481858D01*
X41197571Y46553286D01*
X41161857Y46589000D01*
X41090428Y46624715D01*
X40947571Y46624715D01*
X40876142Y46589000D01*
X40840428Y46553286D01*
X40804714Y46481858D01*
X37169285Y30986215D02*
X36419285Y30986215D01*
X36776428Y30986215D02*
X36776428Y31414786D01*
X37169285Y31414786D02*
X36419285Y31414786D01*
X37097857Y32200500D02*
X37133571Y32164786D01*
X37169285Y32057643D01*
X37169285Y31986215D01*
X37133571Y31879072D01*
X37062142Y31807643D01*
X36990714Y31771929D01*
X36847857Y31736215D01*
X36740714Y31736215D01*
X36597857Y31771929D01*
X36526428Y31807643D01*
X36455000Y31879072D01*
X36419285Y31986215D01*
X36419285Y32057643D01*
X36455000Y32164786D01*
X36490714Y32200500D01*
X36419285Y32414786D02*
X36419285Y32843358D01*
X37169285Y32629072D02*
X36419285Y32629072D01*
X36419285Y33236215D02*
X36419285Y33307643D01*
X36455000Y33379072D01*
X36490714Y33414786D01*
X36562142Y33450500D01*
X36705000Y33486215D01*
X36883571Y33486215D01*
X37026428Y33450500D01*
X37097857Y33414786D01*
X37133571Y33379072D01*
X37169285Y33307643D01*
X37169285Y33236215D01*
X37133571Y33164786D01*
X37097857Y33129072D01*
X37026428Y33093358D01*
X36883571Y33057643D01*
X36705000Y33057643D01*
X36562142Y33093358D01*
X36490714Y33129072D01*
X36455000Y33164786D01*
X36419285Y33236215D01*
X36490714Y33771929D02*
X36455000Y33807643D01*
X36419285Y33879072D01*
X36419285Y34057643D01*
X36455000Y34129072D01*
X36490714Y34164786D01*
X36562142Y34200500D01*
X36633571Y34200500D01*
X36740714Y34164786D01*
X37169285Y33736215D01*
X37169285Y34200500D01*
D11*
X93999857Y88431429D02*
X93999857Y87288572D01*
X93428428Y87860000D02*
X94571285Y87860000D01*
X93999857Y85431429D02*
X93999857Y84288572D01*
D12*
X84979261Y82669167D02*
X84931642Y82716786D01*
X84836404Y82859643D01*
X84788785Y82954881D01*
X84741166Y83097739D01*
X84693547Y83335834D01*
X84693547Y83526310D01*
X84741166Y83764405D01*
X84788785Y83907262D01*
X84836404Y84002500D01*
X84931642Y84145358D01*
X84979261Y84192977D01*
X85884023Y83050120D02*
X85312595Y83050120D01*
X85598309Y83050120D02*
X85598309Y84050120D01*
X85503071Y83907262D01*
X85407833Y83812024D01*
X85312595Y83764405D01*
X86264976Y83954881D02*
X86312595Y84002500D01*
X86407833Y84050120D01*
X86645928Y84050120D01*
X86741166Y84002500D01*
X86788785Y83954881D01*
X86836404Y83859643D01*
X86836404Y83764405D01*
X86788785Y83621548D01*
X86217357Y83050120D01*
X86836404Y83050120D01*
X87264976Y83431072D02*
X88026880Y83431072D01*
X88455452Y83954881D02*
X88503071Y84002500D01*
X88598309Y84050120D01*
X88836404Y84050120D01*
X88931642Y84002500D01*
X88979261Y83954881D01*
X89026880Y83859643D01*
X89026880Y83764405D01*
X88979261Y83621548D01*
X88407833Y83050120D01*
X89026880Y83050120D01*
X89884023Y83716786D02*
X89884023Y83050120D01*
X89645928Y84097739D02*
X89407833Y83383453D01*
X90026880Y83383453D01*
X90264976Y84050120D02*
X90598309Y83050120D01*
X90931642Y84050120D01*
X91169738Y82669167D02*
X91217357Y82716786D01*
X91312595Y82859643D01*
X91360214Y82954881D01*
X91407833Y83097739D01*
X91455452Y83335834D01*
X91455452Y83526310D01*
X91407833Y83764405D01*
X91360214Y83907262D01*
X91312595Y84002500D01*
X91217357Y84145358D01*
X91169738Y84192977D01*
D11*
X91761571Y77267786D02*
X93261571Y77767786D01*
X91761571Y78267786D01*
X93261571Y78767786D02*
X92261571Y78767786D01*
X91761571Y78767786D02*
X91833000Y78696358D01*
X91904428Y78767786D01*
X91833000Y78839215D01*
X91761571Y78767786D01*
X91904428Y78767786D01*
X92261571Y79482072D02*
X93261571Y79482072D01*
X92404428Y79482072D02*
X92333000Y79553500D01*
X92261571Y79696358D01*
X92261571Y79910643D01*
X92333000Y80053500D01*
X92475857Y80124929D01*
X93261571Y80124929D01*
X93936357Y82081429D02*
X93936357Y80938572D01*
X93364928Y81510000D02*
X94507785Y81510000D01*
X93936357Y79081429D02*
X93936357Y77938572D01*
X91126571Y88233286D02*
X91126571Y87519000D01*
X91840857Y87447572D01*
X91769428Y87519000D01*
X91698000Y87661858D01*
X91698000Y88019000D01*
X91769428Y88161858D01*
X91840857Y88233286D01*
X91983714Y88304715D01*
X92340857Y88304715D01*
X92483714Y88233286D01*
X92555142Y88161858D01*
X92626571Y88019000D01*
X92626571Y87661858D01*
X92555142Y87519000D01*
X92483714Y87447572D01*
X91126571Y88733286D02*
X92626571Y89233286D01*
X91126571Y89733286D01*
X90432428Y5053643D02*
X89289571Y5053643D01*
X89861000Y5625072D02*
X89861000Y4482215D01*
X87432428Y5053643D02*
X86289571Y5053643D01*
X89875285Y7667929D02*
X89161000Y7667929D01*
X89089571Y6953643D01*
X89161000Y7025072D01*
X89303857Y7096500D01*
X89661000Y7096500D01*
X89803857Y7025072D01*
X89875285Y6953643D01*
X89946714Y6810786D01*
X89946714Y6453643D01*
X89875285Y6310786D01*
X89803857Y6239358D01*
X89661000Y6167929D01*
X89303857Y6167929D01*
X89161000Y6239358D01*
X89089571Y6310786D01*
X90375285Y7667929D02*
X90875285Y6167929D01*
X91375285Y7667929D01*
X79689571Y5239358D02*
X80832428Y5239358D01*
X80261000Y4667929D02*
X80261000Y5810786D01*
X82689571Y5239358D02*
X83832428Y5239358D01*
X80225285Y7567929D02*
X80725285Y6067929D01*
X81225285Y7567929D01*
X81725285Y6067929D02*
X81725285Y7067929D01*
X81725285Y7567929D02*
X81653857Y7496500D01*
X81725285Y7425072D01*
X81796714Y7496500D01*
X81725285Y7567929D01*
X81725285Y7425072D01*
X82439571Y7067929D02*
X82439571Y6067929D01*
X82439571Y6925072D02*
X82511000Y6996500D01*
X82653857Y7067929D01*
X82868142Y7067929D01*
X83011000Y6996500D01*
X83082428Y6853643D01*
X83082428Y6067929D01*
X72764571Y83242929D02*
X72764571Y84742929D01*
X72764571Y84028643D02*
X73621714Y84028643D01*
X73621714Y83242929D02*
X73621714Y84742929D01*
X74336000Y84028643D02*
X74836000Y84028643D01*
X75050285Y83242929D02*
X74336000Y83242929D01*
X74336000Y84742929D01*
X75050285Y84742929D01*
X75621714Y83671500D02*
X76336000Y83671500D01*
X75478857Y83242929D02*
X75978857Y84742929D01*
X76478857Y83242929D01*
X76764571Y84742929D02*
X77621714Y84742929D01*
X77193142Y83242929D02*
X77193142Y84742929D01*
D10*
X53864333Y64746120D02*
X54435761Y64746120D01*
X54150047Y63746120D02*
X54150047Y64746120D01*
X55340523Y63841358D02*
X55292904Y63793739D01*
X55150047Y63746120D01*
X55054809Y63746120D01*
X54911952Y63793739D01*
X54816714Y63888977D01*
X54769095Y63984215D01*
X54721476Y64174691D01*
X54721476Y64317548D01*
X54769095Y64508024D01*
X54816714Y64603262D01*
X54911952Y64698500D01*
X55054809Y64746120D01*
X55150047Y64746120D01*
X55292904Y64698500D01*
X55340523Y64650881D01*
X56531000Y64269929D02*
X56864333Y64269929D01*
X57007190Y63746120D02*
X56531000Y63746120D01*
X56531000Y64746120D01*
X57007190Y64746120D01*
X57435761Y64412786D02*
X57435761Y63746120D01*
X57435761Y64317548D02*
X57483380Y64365167D01*
X57578619Y64412786D01*
X57721476Y64412786D01*
X57816714Y64365167D01*
X57864333Y64269929D01*
X57864333Y63746120D01*
X58769095Y63746120D02*
X58769095Y64269929D01*
X58721476Y64365167D01*
X58626238Y64412786D01*
X58435761Y64412786D01*
X58340523Y64365167D01*
X58769095Y63793739D02*
X58673857Y63746120D01*
X58435761Y63746120D01*
X58340523Y63793739D01*
X58292904Y63888977D01*
X58292904Y63984215D01*
X58340523Y64079453D01*
X58435761Y64127072D01*
X58673857Y64127072D01*
X58769095Y64174691D01*
X59245285Y63746120D02*
X59245285Y64746120D01*
X59245285Y64365167D02*
X59340523Y64412786D01*
X59531000Y64412786D01*
X59626238Y64365167D01*
X59673857Y64317548D01*
X59721476Y64222310D01*
X59721476Y63936596D01*
X59673857Y63841358D01*
X59626238Y63793739D01*
X59531000Y63746120D01*
X59340523Y63746120D01*
X59245285Y63793739D01*
X60292904Y63746120D02*
X60197666Y63793739D01*
X60150047Y63888977D01*
X60150047Y64746120D01*
X61054809Y63793739D02*
X60959571Y63746120D01*
X60769095Y63746120D01*
X60673857Y63793739D01*
X60626238Y63888977D01*
X60626238Y64269929D01*
X60673857Y64365167D01*
X60769095Y64412786D01*
X60959571Y64412786D01*
X61054809Y64365167D01*
X61102428Y64269929D01*
X61102428Y64174691D01*
X60626238Y64079453D01*
X47765761Y76944120D02*
X48337190Y76944120D01*
X48051476Y75944120D02*
X48051476Y76944120D01*
X48670523Y75944120D02*
X48670523Y76944120D01*
X49099095Y75944120D02*
X49099095Y76467929D01*
X49051476Y76563167D01*
X48956238Y76610786D01*
X48813380Y76610786D01*
X48718142Y76563167D01*
X48670523Y76515548D01*
X49956238Y75991739D02*
X49861000Y75944120D01*
X49670523Y75944120D01*
X49575285Y75991739D01*
X49527666Y76086977D01*
X49527666Y76467929D01*
X49575285Y76563167D01*
X49670523Y76610786D01*
X49861000Y76610786D01*
X49956238Y76563167D01*
X50003857Y76467929D01*
X50003857Y76372691D01*
X49527666Y76277453D01*
X50432428Y75944120D02*
X50432428Y76610786D01*
X50432428Y76420310D02*
X50480047Y76515548D01*
X50527666Y76563167D01*
X50622904Y76610786D01*
X50718142Y76610786D01*
X51051476Y75944120D02*
X51051476Y76610786D01*
X51051476Y76515548D02*
X51099095Y76563167D01*
X51194333Y76610786D01*
X51337190Y76610786D01*
X51432428Y76563167D01*
X51480047Y76467929D01*
X51480047Y75944120D01*
X51480047Y76467929D02*
X51527666Y76563167D01*
X51622904Y76610786D01*
X51765761Y76610786D01*
X51861000Y76563167D01*
X51908619Y76467929D01*
X51908619Y75944120D01*
X52527666Y75944120D02*
X52432428Y75991739D01*
X52384809Y76039358D01*
X52337190Y76134596D01*
X52337190Y76420310D01*
X52384809Y76515548D01*
X52432428Y76563167D01*
X52527666Y76610786D01*
X52670523Y76610786D01*
X52765761Y76563167D01*
X52813380Y76515548D01*
X52861000Y76420310D01*
X52861000Y76134596D01*
X52813380Y76039358D01*
X52765761Y75991739D01*
X52670523Y75944120D01*
X52527666Y75944120D01*
X48146714Y74341739D02*
X48051476Y74294120D01*
X47861000Y74294120D01*
X47765761Y74341739D01*
X47718142Y74389358D01*
X47670523Y74484596D01*
X47670523Y74770310D01*
X47718142Y74865548D01*
X47765761Y74913167D01*
X47861000Y74960786D01*
X48051476Y74960786D01*
X48146714Y74913167D01*
X48718142Y74294120D02*
X48622904Y74341739D01*
X48575285Y74389358D01*
X48527666Y74484596D01*
X48527666Y74770310D01*
X48575285Y74865548D01*
X48622904Y74913167D01*
X48718142Y74960786D01*
X48861000Y74960786D01*
X48956238Y74913167D01*
X49003857Y74865548D01*
X49051476Y74770310D01*
X49051476Y74484596D01*
X49003857Y74389358D01*
X48956238Y74341739D01*
X48861000Y74294120D01*
X48718142Y74294120D01*
X49908619Y74960786D02*
X49908619Y74294120D01*
X49480047Y74960786D02*
X49480047Y74436977D01*
X49527666Y74341739D01*
X49622904Y74294120D01*
X49765761Y74294120D01*
X49861000Y74341739D01*
X49908619Y74389358D01*
X50384809Y74960786D02*
X50384809Y73960786D01*
X50384809Y74913167D02*
X50480047Y74960786D01*
X50670523Y74960786D01*
X50765761Y74913167D01*
X50813380Y74865548D01*
X50860999Y74770310D01*
X50860999Y74484596D01*
X50813380Y74389358D01*
X50765761Y74341739D01*
X50670523Y74294120D01*
X50480047Y74294120D01*
X50384809Y74341739D01*
X51432428Y74294120D02*
X51337190Y74341739D01*
X51289571Y74436977D01*
X51289571Y75294120D01*
X52194333Y74341739D02*
X52099095Y74294120D01*
X51908619Y74294120D01*
X51813380Y74341739D01*
X51765761Y74436977D01*
X51765761Y74817929D01*
X51813380Y74913167D01*
X51908619Y74960786D01*
X52099095Y74960786D01*
X52194333Y74913167D01*
X52241952Y74817929D01*
X52241952Y74722691D01*
X51765761Y74627453D01*
X52622904Y74341739D02*
X52718142Y74294120D01*
X52908619Y74294120D01*
X53003857Y74341739D01*
X53051476Y74436977D01*
X53051476Y74484596D01*
X53003857Y74579834D01*
X52908619Y74627453D01*
X52765761Y74627453D01*
X52670523Y74675072D01*
X52622904Y74770310D01*
X52622904Y74817929D01*
X52670523Y74913167D01*
X52765761Y74960786D01*
X52908619Y74960786D01*
X53003857Y74913167D01*
X50754595Y58744929D02*
X51087928Y58744929D01*
X51230785Y58221120D02*
X50754595Y58221120D01*
X50754595Y59221120D01*
X51230785Y59221120D01*
X51849833Y59221120D02*
X51945071Y59221120D01*
X52040309Y59173500D01*
X52087928Y59125881D01*
X52135547Y59030643D01*
X52183166Y58840167D01*
X52183166Y58602072D01*
X52135547Y58411596D01*
X52087928Y58316358D01*
X52040309Y58268739D01*
X51945071Y58221120D01*
X51849833Y58221120D01*
X51754595Y58268739D01*
X51706976Y58316358D01*
X51659357Y58411596D01*
X51611738Y58602072D01*
X51611738Y58840167D01*
X51659357Y59030643D01*
X51706976Y59125881D01*
X51754595Y59173500D01*
X51849833Y59221120D01*
X53230785Y59221120D02*
X53802214Y59221120D01*
X53516500Y58221120D02*
X53516500Y59221120D01*
X54706976Y58316358D02*
X54659357Y58268739D01*
X54516500Y58221120D01*
X54421261Y58221120D01*
X54278404Y58268739D01*
X54183166Y58363977D01*
X54135547Y58459215D01*
X54087928Y58649691D01*
X54087928Y58792548D01*
X54135547Y58983024D01*
X54183166Y59078262D01*
X54278404Y59173500D01*
X54421261Y59221120D01*
X54516500Y59221120D01*
X54659357Y59173500D01*
X54706976Y59125881D01*
X55659357Y58221120D02*
X55087928Y58221120D01*
X55373642Y58221120D02*
X55373642Y59221120D01*
X55278404Y59078262D01*
X55183166Y58983024D01*
X55087928Y58935405D01*
X51326023Y56666358D02*
X51278404Y56618739D01*
X51135547Y56571120D01*
X51040309Y56571120D01*
X50897452Y56618739D01*
X50802214Y56713977D01*
X50754595Y56809215D01*
X50706976Y56999691D01*
X50706976Y57142548D01*
X50754595Y57333024D01*
X50802214Y57428262D01*
X50897452Y57523500D01*
X51040309Y57571120D01*
X51135547Y57571120D01*
X51278404Y57523500D01*
X51326023Y57475881D01*
X51897452Y56571120D02*
X51802214Y56618739D01*
X51754595Y56666358D01*
X51706976Y56761596D01*
X51706976Y57047310D01*
X51754595Y57142548D01*
X51802214Y57190167D01*
X51897452Y57237786D01*
X52040309Y57237786D01*
X52135547Y57190167D01*
X52183166Y57142548D01*
X52230785Y57047310D01*
X52230785Y56761596D01*
X52183166Y56666358D01*
X52135547Y56618739D01*
X52040309Y56571120D01*
X51897452Y56571120D01*
X52802214Y56571120D02*
X52706976Y56618739D01*
X52659357Y56666358D01*
X52611738Y56761596D01*
X52611738Y57047310D01*
X52659357Y57142548D01*
X52706976Y57190167D01*
X52802214Y57237786D01*
X52945071Y57237786D01*
X53040309Y57190167D01*
X53087928Y57142548D01*
X53135547Y57047310D01*
X53135547Y56761596D01*
X53087928Y56666358D01*
X53040309Y56618739D01*
X52945071Y56571120D01*
X52802214Y56571120D01*
X53706976Y56571120D02*
X53611738Y56618739D01*
X53564119Y56713977D01*
X53564119Y57571120D01*
X60152595Y58744929D02*
X60485928Y58744929D01*
X60628785Y58221120D02*
X60152595Y58221120D01*
X60152595Y59221120D01*
X60628785Y59221120D01*
X61581166Y58221120D02*
X61009738Y58221120D01*
X61295452Y58221120D02*
X61295452Y59221120D01*
X61200214Y59078262D01*
X61104976Y58983024D01*
X61009738Y58935405D01*
X62628785Y59221120D02*
X63200214Y59221120D01*
X62914500Y58221120D02*
X62914500Y59221120D01*
X64104976Y58316358D02*
X64057357Y58268739D01*
X63914500Y58221120D01*
X63819261Y58221120D01*
X63676404Y58268739D01*
X63581166Y58363977D01*
X63533547Y58459215D01*
X63485928Y58649691D01*
X63485928Y58792548D01*
X63533547Y58983024D01*
X63581166Y59078262D01*
X63676404Y59173500D01*
X63819261Y59221120D01*
X63914500Y59221120D01*
X64057357Y59173500D01*
X64104976Y59125881D01*
X64485928Y59125881D02*
X64533547Y59173500D01*
X64628785Y59221120D01*
X64866880Y59221120D01*
X64962119Y59173500D01*
X65009738Y59125881D01*
X65057357Y59030643D01*
X65057357Y58935405D01*
X65009738Y58792548D01*
X64438309Y58221120D01*
X65057357Y58221120D01*
X60724023Y56666358D02*
X60676404Y56618739D01*
X60533547Y56571120D01*
X60438309Y56571120D01*
X60295452Y56618739D01*
X60200214Y56713977D01*
X60152595Y56809215D01*
X60104976Y56999691D01*
X60104976Y57142548D01*
X60152595Y57333024D01*
X60200214Y57428262D01*
X60295452Y57523500D01*
X60438309Y57571120D01*
X60533547Y57571120D01*
X60676404Y57523500D01*
X60724023Y57475881D01*
X61295452Y56571120D02*
X61200214Y56618739D01*
X61152595Y56666358D01*
X61104976Y56761596D01*
X61104976Y57047310D01*
X61152595Y57142548D01*
X61200214Y57190167D01*
X61295452Y57237786D01*
X61438309Y57237786D01*
X61533547Y57190167D01*
X61581166Y57142548D01*
X61628785Y57047310D01*
X61628785Y56761596D01*
X61581166Y56666358D01*
X61533547Y56618739D01*
X61438309Y56571120D01*
X61295452Y56571120D01*
X62200214Y56571120D02*
X62104976Y56618739D01*
X62057357Y56666358D01*
X62009738Y56761596D01*
X62009738Y57047310D01*
X62057357Y57142548D01*
X62104976Y57190167D01*
X62200214Y57237786D01*
X62343071Y57237786D01*
X62438309Y57190167D01*
X62485928Y57142548D01*
X62533547Y57047310D01*
X62533547Y56761596D01*
X62485928Y56666358D01*
X62438309Y56618739D01*
X62343071Y56571120D01*
X62200214Y56571120D01*
X63104976Y56571120D02*
X63009738Y56618739D01*
X62962119Y56713977D01*
X62962119Y57571120D01*
D11*
X47468142Y68192929D02*
X48325285Y68192929D01*
X47896714Y66692929D02*
X47896714Y68192929D01*
X49682428Y66835786D02*
X49611000Y66764358D01*
X49396714Y66692929D01*
X49253857Y66692929D01*
X49039571Y66764358D01*
X48896714Y66907215D01*
X48825285Y67050072D01*
X48753857Y67335786D01*
X48753857Y67550072D01*
X48825285Y67835786D01*
X48896714Y67978643D01*
X49039571Y68121500D01*
X49253857Y68192929D01*
X49396714Y68192929D01*
X49611000Y68121500D01*
X49682428Y68050072D01*
X50253857Y68050072D02*
X50325285Y68121500D01*
X50468142Y68192929D01*
X50825285Y68192929D01*
X50968142Y68121500D01*
X51039571Y68050072D01*
X51111000Y67907215D01*
X51111000Y67764358D01*
X51039571Y67550072D01*
X50182428Y66692929D01*
X51111000Y66692929D01*
X47418142Y72392929D02*
X48275285Y72392929D01*
X47846714Y70892929D02*
X47846714Y72392929D01*
X49632428Y71035786D02*
X49561000Y70964358D01*
X49346714Y70892929D01*
X49203857Y70892929D01*
X48989571Y70964358D01*
X48846714Y71107215D01*
X48775285Y71250072D01*
X48703857Y71535786D01*
X48703857Y71750072D01*
X48775285Y72035786D01*
X48846714Y72178643D01*
X48989571Y72321500D01*
X49203857Y72392929D01*
X49346714Y72392929D01*
X49561000Y72321500D01*
X49632428Y72250072D01*
X51061000Y70892929D02*
X50203857Y70892929D01*
X50632428Y70892929D02*
X50632428Y72392929D01*
X50489571Y72178643D01*
X50346714Y72035786D01*
X50203857Y71964358D01*
D13*
X32639571Y53082215D02*
X33039571Y53082215D01*
X33211000Y52453643D02*
X32639571Y52453643D01*
X32639571Y53653643D01*
X33211000Y53653643D01*
X33725285Y53253643D02*
X33725285Y52453643D01*
X33725285Y53139358D02*
X33782428Y53196500D01*
X33896714Y53253643D01*
X34068142Y53253643D01*
X34182428Y53196500D01*
X34239571Y53082215D01*
X34239571Y52453643D01*
X35325285Y52453643D02*
X35325285Y53653643D01*
X35325285Y52510786D02*
X35211000Y52453643D01*
X34982428Y52453643D01*
X34868142Y52510786D01*
X34811000Y52567929D01*
X34753857Y52682215D01*
X34753857Y53025072D01*
X34811000Y53139358D01*
X34868142Y53196500D01*
X34982428Y53253643D01*
X35211000Y53253643D01*
X35325285Y53196500D01*
X36753857Y52510786D02*
X36925285Y52453643D01*
X37211000Y52453643D01*
X37325285Y52510786D01*
X37382428Y52567929D01*
X37439571Y52682215D01*
X37439571Y52796500D01*
X37382428Y52910786D01*
X37325285Y52967929D01*
X37211000Y53025072D01*
X36982428Y53082215D01*
X36868142Y53139358D01*
X36811000Y53196500D01*
X36753857Y53310786D01*
X36753857Y53425072D01*
X36811000Y53539358D01*
X36868142Y53596500D01*
X36982428Y53653643D01*
X37268142Y53653643D01*
X37439571Y53596500D01*
X37782428Y53253643D02*
X38239571Y53253643D01*
X37953857Y53653643D02*
X37953857Y52625072D01*
X38011000Y52510786D01*
X38125285Y52453643D01*
X38239571Y52453643D01*
X38811000Y52453643D02*
X38696714Y52510786D01*
X38639571Y52567929D01*
X38582428Y52682215D01*
X38582428Y53025072D01*
X38639571Y53139358D01*
X38696714Y53196500D01*
X38811000Y53253643D01*
X38982428Y53253643D01*
X39096714Y53196500D01*
X39153857Y53139358D01*
X39211000Y53025072D01*
X39211000Y52682215D01*
X39153857Y52567929D01*
X39096714Y52510786D01*
X38982428Y52453643D01*
X38811000Y52453643D01*
X39725285Y53253643D02*
X39725285Y52053643D01*
X39725285Y53196500D02*
X39839571Y53253643D01*
X40068142Y53253643D01*
X40182428Y53196500D01*
X40239571Y53139358D01*
X40296714Y53025072D01*
X40296714Y52682215D01*
X40239571Y52567929D01*
X40182428Y52510786D01*
X40068142Y52453643D01*
X39839571Y52453643D01*
X39725285Y52510786D01*
X40753857Y52510786D02*
X40868142Y52453643D01*
X41096714Y52453643D01*
X41211000Y52510786D01*
X41268142Y52625072D01*
X41268142Y52682215D01*
X41211000Y52796500D01*
X41096714Y52853643D01*
X40925285Y52853643D01*
X40811000Y52910786D01*
X40753857Y53025072D01*
X40753857Y53082215D01*
X40811000Y53196500D01*
X40925285Y53253643D01*
X41096714Y53253643D01*
X41211000Y53196500D01*
X41782428Y52910786D02*
X42696714Y52910786D01*
X43268142Y53253643D02*
X44182428Y52910786D01*
X43268142Y52567929D01*
D11*
X20218142Y36653643D02*
X20218142Y36153643D01*
X19432428Y35939358D02*
X19432428Y36653643D01*
X20932428Y36653643D01*
X20932428Y35939358D01*
X20432428Y35296500D02*
X19432428Y35296500D01*
X20289571Y35296500D02*
X20361000Y35225072D01*
X20432428Y35082215D01*
X20432428Y34867929D01*
X20361000Y34725072D01*
X20218142Y34653643D01*
X19432428Y34653643D01*
X19432428Y33296500D02*
X20932428Y33296500D01*
X19503857Y33296500D02*
X19432428Y33439358D01*
X19432428Y33725072D01*
X19503857Y33867929D01*
X19575285Y33939358D01*
X19718142Y34010786D01*
X20146714Y34010786D01*
X20289571Y33939358D01*
X20361000Y33867929D01*
X20432428Y33725072D01*
X20432428Y33439358D01*
X20361000Y33296500D01*
X19503857Y31510786D02*
X19432428Y31296500D01*
X19432428Y30939358D01*
X19503857Y30796500D01*
X19575285Y30725072D01*
X19718142Y30653643D01*
X19861000Y30653643D01*
X20003857Y30725072D01*
X20075285Y30796500D01*
X20146714Y30939358D01*
X20218142Y31225072D01*
X20289571Y31367929D01*
X20361000Y31439358D01*
X20503857Y31510786D01*
X20646714Y31510786D01*
X20789571Y31439358D01*
X20861000Y31367929D01*
X20932428Y31225072D01*
X20932428Y30867929D01*
X20861000Y30653643D01*
X20432428Y30225072D02*
X20432428Y29653643D01*
X20932428Y30010786D02*
X19646714Y30010786D01*
X19503857Y29939358D01*
X19432428Y29796500D01*
X19432428Y29653643D01*
X19432428Y28939358D02*
X19503857Y29082215D01*
X19575285Y29153643D01*
X19718142Y29225072D01*
X20146714Y29225072D01*
X20289571Y29153643D01*
X20361000Y29082215D01*
X20432428Y28939358D01*
X20432428Y28725072D01*
X20361000Y28582215D01*
X20289571Y28510786D01*
X20146714Y28439358D01*
X19718142Y28439358D01*
X19575285Y28510786D01*
X19503857Y28582215D01*
X19432428Y28725072D01*
X19432428Y28939358D01*
X20432428Y27796500D02*
X18932428Y27796500D01*
X20361000Y27796500D02*
X20432428Y27653643D01*
X20432428Y27367929D01*
X20361000Y27225072D01*
X20289571Y27153643D01*
X20146714Y27082215D01*
X19718142Y27082215D01*
X19575285Y27153643D01*
X19503857Y27225072D01*
X19432428Y27367929D01*
X19432428Y27653643D01*
X19503857Y27796500D01*
X19503857Y26510786D02*
X19432428Y26367929D01*
X19432428Y26082215D01*
X19503857Y25939358D01*
X19646714Y25867929D01*
X19718142Y25867929D01*
X19861000Y25939358D01*
X19932428Y26082215D01*
X19932428Y26296500D01*
X20003857Y26439358D01*
X20146714Y26510786D01*
X20218142Y26510786D01*
X20361000Y26439358D01*
X20432428Y26296500D01*
X20432428Y26082215D01*
X20361000Y25939358D01*
X48962571Y15613858D02*
X48962571Y16471000D01*
X50462571Y16042429D02*
X48962571Y16042429D01*
X50462571Y16971000D02*
X48962571Y16971000D01*
X50462571Y17613858D02*
X49676857Y17613858D01*
X49534000Y17542429D01*
X49462571Y17399572D01*
X49462571Y17185286D01*
X49534000Y17042429D01*
X49605428Y16971000D01*
X50391142Y18899572D02*
X50462571Y18756715D01*
X50462571Y18471000D01*
X50391142Y18328143D01*
X50248285Y18256715D01*
X49676857Y18256715D01*
X49534000Y18328143D01*
X49462571Y18471000D01*
X49462571Y18756715D01*
X49534000Y18899572D01*
X49676857Y18971000D01*
X49819714Y18971000D01*
X49962571Y18256715D01*
X50462571Y19613858D02*
X49462571Y19613858D01*
X49748285Y19613858D02*
X49605428Y19685286D01*
X49534000Y19756715D01*
X49462571Y19899572D01*
X49462571Y20042429D01*
X50462571Y20542429D02*
X49462571Y20542429D01*
X49605428Y20542429D02*
X49534000Y20613858D01*
X49462571Y20756715D01*
X49462571Y20971000D01*
X49534000Y21113858D01*
X49676857Y21185286D01*
X50462571Y21185286D01*
X49676857Y21185286D02*
X49534000Y21256715D01*
X49462571Y21399572D01*
X49462571Y21613858D01*
X49534000Y21756715D01*
X49676857Y21828143D01*
X50462571Y21828143D01*
X50462571Y22542429D02*
X49462571Y22542429D01*
X48962571Y22542429D02*
X49034000Y22471000D01*
X49105428Y22542429D01*
X49034000Y22613858D01*
X48962571Y22542429D01*
X49105428Y22542429D01*
X50391142Y23185286D02*
X50462571Y23328143D01*
X50462571Y23613858D01*
X50391142Y23756715D01*
X50248285Y23828143D01*
X50176857Y23828143D01*
X50034000Y23756715D01*
X49962571Y23613858D01*
X49962571Y23399572D01*
X49891142Y23256715D01*
X49748285Y23185286D01*
X49676857Y23185286D01*
X49534000Y23256715D01*
X49462571Y23399572D01*
X49462571Y23613858D01*
X49534000Y23756715D01*
X49462571Y24256715D02*
X49462571Y24828143D01*
X48962571Y24471000D02*
X50248285Y24471000D01*
X50391142Y24542429D01*
X50462571Y24685286D01*
X50462571Y24828143D01*
X50462571Y25542429D02*
X50391142Y25399572D01*
X50319714Y25328143D01*
X50176857Y25256715D01*
X49748285Y25256715D01*
X49605428Y25328143D01*
X49534000Y25399572D01*
X49462571Y25542429D01*
X49462571Y25756715D01*
X49534000Y25899572D01*
X49605428Y25971000D01*
X49748285Y26042429D01*
X50176857Y26042429D01*
X50319714Y25971000D01*
X50391142Y25899572D01*
X50462571Y25756715D01*
X50462571Y25542429D01*
X50462571Y26685286D02*
X49462571Y26685286D01*
X49748285Y26685286D02*
X49605428Y26756715D01*
X49534000Y26828143D01*
X49462571Y26971000D01*
X49462571Y27113858D01*
X50391142Y27542429D02*
X50462571Y27685286D01*
X50462571Y27971000D01*
X50391142Y28113858D01*
X50248285Y28185286D01*
X50176857Y28185286D01*
X50034000Y28113858D01*
X49962571Y27971000D01*
X49962571Y27756715D01*
X49891142Y27613858D01*
X49748285Y27542429D01*
X49676857Y27542429D01*
X49534000Y27613858D01*
X49462571Y27756715D01*
X49462571Y27971000D01*
X49534000Y28113858D01*
X24639571Y23410786D02*
X24639571Y22696500D01*
X23139571Y22696500D01*
X24496714Y24767929D02*
X24568142Y24696500D01*
X24639571Y24482215D01*
X24639571Y24339358D01*
X24568142Y24125072D01*
X24425285Y23982215D01*
X24282428Y23910786D01*
X23996714Y23839358D01*
X23782428Y23839358D01*
X23496714Y23910786D01*
X23353857Y23982215D01*
X23211000Y24125072D01*
X23139571Y24339358D01*
X23139571Y24482215D01*
X23211000Y24696500D01*
X23282428Y24767929D01*
X24639571Y25410786D02*
X23139571Y25410786D01*
X23139571Y25767929D01*
X23211000Y25982215D01*
X23353857Y26125072D01*
X23496714Y26196500D01*
X23782428Y26267929D01*
X23996714Y26267929D01*
X24282428Y26196500D01*
X24425285Y26125072D01*
X24568142Y25982215D01*
X24639571Y25767929D01*
X24639571Y25410786D01*
X64617885Y3297929D02*
X65117885Y1797929D01*
X65617885Y3297929D01*
X65903600Y2797929D02*
X66475028Y2797929D01*
X66117885Y1797929D02*
X66117885Y3083643D01*
X66189314Y3226500D01*
X66332171Y3297929D01*
X66475028Y3297929D01*
X67617885Y1797929D02*
X67617885Y2583643D01*
X67546457Y2726500D01*
X67403600Y2797929D01*
X67117885Y2797929D01*
X66975028Y2726500D01*
X67617885Y1869358D02*
X67475028Y1797929D01*
X67117885Y1797929D01*
X66975028Y1869358D01*
X66903600Y2012215D01*
X66903600Y2155072D01*
X66975028Y2297929D01*
X67117885Y2369358D01*
X67475028Y2369358D01*
X67617885Y2440786D01*
X68332171Y2797929D02*
X68332171Y1797929D01*
X68332171Y2655072D02*
X68403600Y2726500D01*
X68546457Y2797929D01*
X68760742Y2797929D01*
X68903600Y2726500D01*
X68975028Y2583643D01*
X68975028Y1797929D01*
X11650285Y84817929D02*
X10936000Y84817929D01*
X10864571Y84103643D01*
X10936000Y84175072D01*
X11078857Y84246500D01*
X11436000Y84246500D01*
X11578857Y84175072D01*
X11650285Y84103643D01*
X11721714Y83960786D01*
X11721714Y83603643D01*
X11650285Y83460786D01*
X11578857Y83389358D01*
X11436000Y83317929D01*
X11078857Y83317929D01*
X10936000Y83389358D01*
X10864571Y83460786D01*
X12150285Y84817929D02*
X12650285Y83317929D01*
X13150285Y84817929D01*
X79564571Y81085786D02*
X81064571Y81585786D01*
X79564571Y82085786D01*
X81064571Y82585786D02*
X80064571Y82585786D01*
X79564571Y82585786D02*
X79636000Y82514358D01*
X79707428Y82585786D01*
X79636000Y82657215D01*
X79564571Y82585786D01*
X79707428Y82585786D01*
X80064571Y83300072D02*
X81064571Y83300072D01*
X80207428Y83300072D02*
X80136000Y83371500D01*
X80064571Y83514358D01*
X80064571Y83728643D01*
X80136000Y83871500D01*
X80278857Y83942929D01*
X81064571Y83942929D01*
X11257914Y51353329D02*
X12186485Y51353329D01*
X11686485Y50781900D01*
X11900771Y50781900D01*
X12043628Y50710472D01*
X12115057Y50639043D01*
X12186485Y50496186D01*
X12186485Y50139043D01*
X12115057Y49996186D01*
X12043628Y49924758D01*
X11900771Y49853329D01*
X11472200Y49853329D01*
X11329342Y49924758D01*
X11257914Y49996186D01*
X12829342Y49996186D02*
X12900771Y49924758D01*
X12829342Y49853329D01*
X12757914Y49924758D01*
X12829342Y49996186D01*
X12829342Y49853329D01*
X13400771Y51353329D02*
X14329342Y51353329D01*
X13829342Y50781900D01*
X14043628Y50781900D01*
X14186485Y50710472D01*
X14257914Y50639043D01*
X14329342Y50496186D01*
X14329342Y50139043D01*
X14257914Y49996186D01*
X14186485Y49924758D01*
X14043628Y49853329D01*
X13615057Y49853329D01*
X13472200Y49924758D01*
X13400771Y49996186D01*
X14757914Y51353329D02*
X15257914Y49853329D01*
X15757914Y51353329D01*
X15557571Y98000358D02*
X16700428Y98000358D01*
X6159571Y97936858D02*
X7302428Y97936858D01*
X6731000Y97365429D02*
X6731000Y98508286D01*
X76415142Y97682858D02*
X77558000Y97682858D01*
X76986571Y97111429D02*
X76986571Y98254286D01*
X88558000Y97682858D02*
X89700857Y97682858D01*
X45418142Y9739358D02*
X46561000Y9739358D01*
X45989571Y9167929D02*
X45989571Y10310786D01*
X49561000Y9739358D02*
X50703857Y9739358D01*
X53643342Y9589358D02*
X54786200Y9589358D01*
X54214771Y9017929D02*
X54214771Y10160786D01*
X57786200Y9589358D02*
X58929057Y9589358D01*
X12418142Y16489358D02*
X13561000Y16489358D01*
X12989571Y15917929D02*
X12989571Y17060786D01*
X16561000Y16489358D02*
X17703857Y16489358D01*
X20818142Y15839358D02*
X21961000Y15839358D01*
X21389571Y15267929D02*
X21389571Y16410786D01*
X24961000Y15839358D02*
X26103857Y15839358D01*
X28768142Y15739358D02*
X29911000Y15739358D01*
X29339571Y15167929D02*
X29339571Y16310786D01*
X32911000Y15739358D02*
X34053857Y15739358D01*
X37168142Y15739358D02*
X38311000Y15739358D01*
X37739571Y15167929D02*
X37739571Y16310786D01*
X41311000Y15739358D02*
X42453857Y15739358D01*
X61353857Y2767929D02*
X61353857Y2267929D01*
X62139571Y2267929D02*
X60639571Y2267929D01*
X60639571Y2982215D01*
X61711000Y3482215D02*
X61711000Y4196500D01*
X62139571Y3339358D02*
X60639571Y3839358D01*
X62139571Y4339358D01*
X62139571Y4839358D02*
X60639571Y4839358D01*
X62139571Y5696500D01*
X60639571Y5696500D01*
X62068142Y6339358D02*
X62139571Y6553643D01*
X62139571Y6910786D01*
X62068142Y7053643D01*
X61996714Y7125072D01*
X61853857Y7196500D01*
X61711000Y7196500D01*
X61568142Y7125072D01*
X61496714Y7053643D01*
X61425285Y6910786D01*
X61353857Y6625072D01*
X61282428Y6482215D01*
X61211000Y6410786D01*
X61068142Y6339358D01*
X60925285Y6339358D01*
X60782428Y6410786D01*
X60711000Y6482215D01*
X60639571Y6625072D01*
X60639571Y6982215D01*
X60711000Y7196500D01*
D13*
X10070523Y15217929D02*
X10403857Y15217929D01*
X10546714Y14694120D02*
X10070523Y14694120D01*
X10070523Y15694120D01*
X10546714Y15694120D01*
X11499095Y14694120D02*
X10927666Y14694120D01*
X11213380Y14694120D02*
X11213380Y15694120D01*
X11118142Y15551262D01*
X11022904Y15456024D01*
X10927666Y15408405D01*
X9451476Y12994120D02*
X9451476Y13994120D01*
X9832428Y13994120D01*
X9927666Y13946500D01*
X9975285Y13898881D01*
X10022904Y13803643D01*
X10022904Y13660786D01*
X9975285Y13565548D01*
X9927666Y13517929D01*
X9832428Y13470310D01*
X9451476Y13470310D01*
X10880047Y12994120D02*
X10880047Y13517929D01*
X10832428Y13613167D01*
X10737190Y13660786D01*
X10546714Y13660786D01*
X10451476Y13613167D01*
X10880047Y13041739D02*
X10784809Y12994120D01*
X10546714Y12994120D01*
X10451476Y13041739D01*
X10403857Y13136977D01*
X10403857Y13232215D01*
X10451476Y13327453D01*
X10546714Y13375072D01*
X10784809Y13375072D01*
X10880047Y13422691D01*
X11356238Y12994120D02*
X11356238Y13660786D01*
X11356238Y13470310D02*
X11403857Y13565548D01*
X11451476Y13613167D01*
X11546714Y13660786D01*
X11641952Y13660786D01*
X11832428Y13660786D02*
X12213380Y13660786D01*
X11975285Y13994120D02*
X11975285Y13136977D01*
X12022904Y13041739D01*
X12118142Y12994120D01*
X12213380Y12994120D01*
X23070523Y18717929D02*
X23403857Y18717929D01*
X23546714Y18194120D02*
X23070523Y18194120D01*
X23070523Y19194120D01*
X23546714Y19194120D01*
X24165761Y19194120D02*
X24261000Y19194120D01*
X24356238Y19146500D01*
X24403857Y19098881D01*
X24451476Y19003643D01*
X24499095Y18813167D01*
X24499095Y18575072D01*
X24451476Y18384596D01*
X24403857Y18289358D01*
X24356238Y18241739D01*
X24261000Y18194120D01*
X24165761Y18194120D01*
X24070523Y18241739D01*
X24022904Y18289358D01*
X23975285Y18384596D01*
X23927666Y18575072D01*
X23927666Y18813167D01*
X23975285Y19003643D01*
X24022904Y19098881D01*
X24070523Y19146500D01*
X24165761Y19194120D01*
X22451476Y16494120D02*
X22451476Y17494120D01*
X22832428Y17494120D01*
X22927666Y17446500D01*
X22975285Y17398881D01*
X23022904Y17303643D01*
X23022904Y17160786D01*
X22975285Y17065548D01*
X22927666Y17017929D01*
X22832428Y16970310D01*
X22451476Y16970310D01*
X23880047Y16494120D02*
X23880047Y17017929D01*
X23832428Y17113167D01*
X23737190Y17160786D01*
X23546714Y17160786D01*
X23451476Y17113167D01*
X23880047Y16541739D02*
X23784809Y16494120D01*
X23546714Y16494120D01*
X23451476Y16541739D01*
X23403857Y16636977D01*
X23403857Y16732215D01*
X23451476Y16827453D01*
X23546714Y16875072D01*
X23784809Y16875072D01*
X23880047Y16922691D01*
X24356238Y16494120D02*
X24356238Y17160786D01*
X24356238Y16970310D02*
X24403857Y17065548D01*
X24451476Y17113167D01*
X24546714Y17160786D01*
X24641952Y17160786D01*
X24832428Y17160786D02*
X25213380Y17160786D01*
X24975285Y17494120D02*
X24975285Y16636977D01*
X25022904Y16541739D01*
X25118142Y16494120D01*
X25213380Y16494120D01*
X31120523Y18567929D02*
X31453857Y18567929D01*
X31596714Y18044120D02*
X31120523Y18044120D01*
X31120523Y19044120D01*
X31596714Y19044120D01*
X32549095Y18044120D02*
X31977666Y18044120D01*
X32263380Y18044120D02*
X32263380Y19044120D01*
X32168142Y18901262D01*
X32072904Y18806024D01*
X31977666Y18758405D01*
X30953857Y16439358D02*
X30906238Y16391739D01*
X30763380Y16344120D01*
X30668142Y16344120D01*
X30525285Y16391739D01*
X30430047Y16486977D01*
X30382428Y16582215D01*
X30334809Y16772691D01*
X30334809Y16915548D01*
X30382428Y17106024D01*
X30430047Y17201262D01*
X30525285Y17296500D01*
X30668142Y17344120D01*
X30763380Y17344120D01*
X30906238Y17296500D01*
X30953857Y17248881D01*
X31525285Y16344120D02*
X31430047Y16391739D01*
X31382428Y16439358D01*
X31334809Y16534596D01*
X31334809Y16820310D01*
X31382428Y16915548D01*
X31430047Y16963167D01*
X31525285Y17010786D01*
X31668142Y17010786D01*
X31763380Y16963167D01*
X31811000Y16915548D01*
X31858619Y16820310D01*
X31858619Y16534596D01*
X31811000Y16439358D01*
X31763380Y16391739D01*
X31668142Y16344120D01*
X31525285Y16344120D01*
X32430047Y16344120D02*
X32334809Y16391739D01*
X32287190Y16439358D01*
X32239571Y16534596D01*
X32239571Y16820310D01*
X32287190Y16915548D01*
X32334809Y16963167D01*
X32430047Y17010786D01*
X32572904Y17010786D01*
X32668142Y16963167D01*
X32715761Y16915548D01*
X32763380Y16820310D01*
X32763380Y16534596D01*
X32715761Y16439358D01*
X32668142Y16391739D01*
X32572904Y16344120D01*
X32430047Y16344120D01*
X33334809Y16344120D02*
X33239571Y16391739D01*
X33191952Y16486977D01*
X33191952Y17344120D01*
X39120523Y18567929D02*
X39453857Y18567929D01*
X39596714Y18044120D02*
X39120523Y18044120D01*
X39120523Y19044120D01*
X39596714Y19044120D01*
X40215761Y19044120D02*
X40311000Y19044120D01*
X40406238Y18996500D01*
X40453857Y18948881D01*
X40501476Y18853643D01*
X40549095Y18663167D01*
X40549095Y18425072D01*
X40501476Y18234596D01*
X40453857Y18139358D01*
X40406238Y18091739D01*
X40311000Y18044120D01*
X40215761Y18044120D01*
X40120523Y18091739D01*
X40072904Y18139358D01*
X40025285Y18234596D01*
X39977666Y18425072D01*
X39977666Y18663167D01*
X40025285Y18853643D01*
X40072904Y18948881D01*
X40120523Y18996500D01*
X40215761Y19044120D01*
X38953857Y16439358D02*
X38906238Y16391739D01*
X38763380Y16344120D01*
X38668142Y16344120D01*
X38525285Y16391739D01*
X38430047Y16486977D01*
X38382428Y16582215D01*
X38334809Y16772691D01*
X38334809Y16915548D01*
X38382428Y17106024D01*
X38430047Y17201262D01*
X38525285Y17296500D01*
X38668142Y17344120D01*
X38763380Y17344120D01*
X38906238Y17296500D01*
X38953857Y17248881D01*
X39525285Y16344120D02*
X39430047Y16391739D01*
X39382428Y16439358D01*
X39334809Y16534596D01*
X39334809Y16820310D01*
X39382428Y16915548D01*
X39430047Y16963167D01*
X39525285Y17010786D01*
X39668142Y17010786D01*
X39763380Y16963167D01*
X39811000Y16915548D01*
X39858619Y16820310D01*
X39858619Y16534596D01*
X39811000Y16439358D01*
X39763380Y16391739D01*
X39668142Y16344120D01*
X39525285Y16344120D01*
X40430047Y16344120D02*
X40334809Y16391739D01*
X40287190Y16439358D01*
X40239571Y16534596D01*
X40239571Y16820310D01*
X40287190Y16915548D01*
X40334809Y16963167D01*
X40430047Y17010786D01*
X40572904Y17010786D01*
X40668142Y16963167D01*
X40715761Y16915548D01*
X40763380Y16820310D01*
X40763380Y16534596D01*
X40715761Y16439358D01*
X40668142Y16391739D01*
X40572904Y16344120D01*
X40430047Y16344120D01*
X41334809Y16344120D02*
X41239571Y16391739D01*
X41191952Y16486977D01*
X41191952Y17344120D01*
D11*
X86792785Y86292429D02*
X87292785Y84792429D01*
X87792785Y86292429D01*
X88292785Y84792429D02*
X88292785Y85792429D01*
X88292785Y86292429D02*
X88221357Y86221000D01*
X88292785Y86149572D01*
X88364214Y86221000D01*
X88292785Y86292429D01*
X88292785Y86149572D01*
X89007071Y85792429D02*
X89007071Y84792429D01*
X89007071Y85649572D02*
X89078500Y85721000D01*
X89221357Y85792429D01*
X89435642Y85792429D01*
X89578500Y85721000D01*
X89649928Y85578143D01*
X89649928Y84792429D01*
X73864571Y86628643D02*
X74078857Y86557215D01*
X74150285Y86485786D01*
X74221714Y86342929D01*
X74221714Y86128643D01*
X74150285Y85985786D01*
X74078857Y85914358D01*
X73936000Y85842929D01*
X73364571Y85842929D01*
X73364571Y87342929D01*
X73864571Y87342929D01*
X74007428Y87271500D01*
X74078857Y87200072D01*
X74150285Y87057215D01*
X74150285Y86914358D01*
X74078857Y86771500D01*
X74007428Y86700072D01*
X73864571Y86628643D01*
X73364571Y86628643D01*
X74864571Y86628643D02*
X75364571Y86628643D01*
X75578857Y85842929D02*
X74864571Y85842929D01*
X74864571Y87342929D01*
X75578857Y87342929D01*
X76221714Y85842929D02*
X76221714Y87342929D01*
X76578857Y87342929D01*
X76793142Y87271500D01*
X76936000Y87128643D01*
X77007428Y86985786D01*
X77078857Y86700072D01*
X77078857Y86485786D01*
X77007428Y86200072D01*
X76936000Y86057215D01*
X76793142Y85914358D01*
X76578857Y85842929D01*
X76221714Y85842929D01*
X57675285Y82703643D02*
X58175285Y82703643D01*
X58389571Y81917929D02*
X57675285Y81917929D01*
X57675285Y83417929D01*
X58389571Y83417929D01*
X59318142Y83417929D02*
X59461000Y83417929D01*
X59603857Y83346500D01*
X59675285Y83275072D01*
X59746714Y83132215D01*
X59818142Y82846500D01*
X59818142Y82489358D01*
X59746714Y82203643D01*
X59675285Y82060786D01*
X59603857Y81989358D01*
X59461000Y81917929D01*
X59318142Y81917929D01*
X59175285Y81989358D01*
X59103857Y82060786D01*
X59032428Y82203643D01*
X58961000Y82489358D01*
X58961000Y82846500D01*
X59032428Y83132215D01*
X59103857Y83275072D01*
X59175285Y83346500D01*
X59318142Y83417929D01*
X56389571Y79367929D02*
X56389571Y80867929D01*
X56389571Y80153643D02*
X57246714Y80153643D01*
X57246714Y79367929D02*
X57246714Y80867929D01*
X57961000Y80153643D02*
X58461000Y80153643D01*
X58675285Y79367929D02*
X57961000Y79367929D01*
X57961000Y80867929D01*
X58675285Y80867929D01*
X59246714Y79796500D02*
X59961000Y79796500D01*
X59103857Y79367929D02*
X59603857Y80867929D01*
X60103857Y79367929D01*
X60389571Y80867929D02*
X61246714Y80867929D01*
X60818142Y79367929D02*
X60818142Y80867929D01*
X45475285Y82578643D02*
X45975285Y82578643D01*
X46189571Y81792929D02*
X45475285Y81792929D01*
X45475285Y83292929D01*
X46189571Y83292929D01*
X47618142Y81792929D02*
X46761000Y81792929D01*
X47189571Y81792929D02*
X47189571Y83292929D01*
X47046714Y83078643D01*
X46903857Y82935786D01*
X46761000Y82864358D01*
X44189571Y79242929D02*
X44189571Y80742929D01*
X44189571Y80028643D02*
X45046714Y80028643D01*
X45046714Y79242929D02*
X45046714Y80742929D01*
X45761000Y80028643D02*
X46261000Y80028643D01*
X46475285Y79242929D02*
X45761000Y79242929D01*
X45761000Y80742929D01*
X46475285Y80742929D01*
X47046714Y79671500D02*
X47761000Y79671500D01*
X46903857Y79242929D02*
X47403857Y80742929D01*
X47903857Y79242929D01*
X48189571Y80742929D02*
X49046714Y80742929D01*
X48618142Y79242929D02*
X48618142Y80742929D01*
X16605285Y96388929D02*
X15891000Y96388929D01*
X15819571Y95674643D01*
X15891000Y95746072D01*
X16033857Y95817500D01*
X16391000Y95817500D01*
X16533857Y95746072D01*
X16605285Y95674643D01*
X16676714Y95531786D01*
X16676714Y95174643D01*
X16605285Y95031786D01*
X16533857Y94960358D01*
X16391000Y94888929D01*
X16033857Y94888929D01*
X15891000Y94960358D01*
X15819571Y95031786D01*
X17105285Y96388929D02*
X17605285Y94888929D01*
X18105285Y96388929D01*
X31475285Y96128643D02*
X31975285Y96128643D01*
X32189571Y95342929D02*
X31475285Y95342929D01*
X31475285Y96842929D01*
X32189571Y96842929D01*
X33618142Y95342929D02*
X32761000Y95342929D01*
X33189571Y95342929D02*
X33189571Y96842929D01*
X33046714Y96628643D01*
X32903857Y96485786D01*
X32761000Y96414358D01*
X2153857Y58485786D02*
X2153857Y58985786D01*
X2939571Y59200072D02*
X2939571Y58485786D01*
X1439571Y58485786D01*
X1439571Y59200072D01*
X1439571Y60128643D02*
X1439571Y60271500D01*
X1511000Y60414358D01*
X1582428Y60485786D01*
X1725285Y60557215D01*
X2011000Y60628643D01*
X2368142Y60628643D01*
X2653857Y60557215D01*
X2796714Y60485786D01*
X2868142Y60414358D01*
X2939571Y60271500D01*
X2939571Y60128643D01*
X2868142Y59985786D01*
X2796714Y59914358D01*
X2653857Y59842929D01*
X2368142Y59771500D01*
X2011000Y59771500D01*
X1725285Y59842929D01*
X1582428Y59914358D01*
X1511000Y59985786D01*
X1439571Y60128643D01*
X95339571Y55896500D02*
X95339571Y56896500D01*
X96839571Y55896500D01*
X96839571Y56896500D01*
X96325285Y36946500D02*
X97039571Y36946500D01*
X95539571Y36446500D02*
X96325285Y36946500D01*
X95539571Y37446500D01*
X95639571Y10696500D02*
X97139571Y11696500D01*
X95639571Y11696500D02*
X97139571Y10696500D01*
D13*
X41211000Y61644120D02*
X41211000Y60834596D01*
X41258619Y60739358D01*
X41306238Y60691739D01*
X41401476Y60644120D01*
X41591952Y60644120D01*
X41687190Y60691739D01*
X41734809Y60739358D01*
X41782428Y60834596D01*
X41782428Y61644120D01*
X42211000Y60691739D02*
X42306238Y60644120D01*
X42496714Y60644120D01*
X42591952Y60691739D01*
X42639571Y60786977D01*
X42639571Y60834596D01*
X42591952Y60929834D01*
X42496714Y60977453D01*
X42353857Y60977453D01*
X42258619Y61025072D01*
X42211000Y61120310D01*
X42211000Y61167929D01*
X42258619Y61263167D01*
X42353857Y61310786D01*
X42496714Y61310786D01*
X42591952Y61263167D01*
X43449095Y60691739D02*
X43353857Y60644120D01*
X43163380Y60644120D01*
X43068142Y60691739D01*
X43020523Y60786977D01*
X43020523Y61167929D01*
X43068142Y61263167D01*
X43163380Y61310786D01*
X43353857Y61310786D01*
X43449095Y61263167D01*
X43496714Y61167929D01*
X43496714Y61072691D01*
X43020523Y60977453D01*
X44687190Y61644120D02*
X44687190Y60834596D01*
X44734809Y60739358D01*
X44782428Y60691739D01*
X44877666Y60644120D01*
X45068142Y60644120D01*
X45163380Y60691739D01*
X45211000Y60739358D01*
X45258619Y60834596D01*
X45258619Y61644120D01*
X45687190Y60691739D02*
X45830047Y60644120D01*
X46068142Y60644120D01*
X46163380Y60691739D01*
X46211000Y60739358D01*
X46258619Y60834596D01*
X46258619Y60929834D01*
X46211000Y61025072D01*
X46163380Y61072691D01*
X46068142Y61120310D01*
X45877666Y61167929D01*
X45782428Y61215548D01*
X45734809Y61263167D01*
X45687190Y61358405D01*
X45687190Y61453643D01*
X45734809Y61548881D01*
X45782428Y61596500D01*
X45877666Y61644120D01*
X46115761Y61644120D01*
X46258619Y61596500D01*
X47020523Y61167929D02*
X47163380Y61120310D01*
X47211000Y61072691D01*
X47258619Y60977453D01*
X47258619Y60834596D01*
X47211000Y60739358D01*
X47163380Y60691739D01*
X47068142Y60644120D01*
X46687190Y60644120D01*
X46687190Y61644120D01*
X47020523Y61644120D01*
X47115761Y61596500D01*
X47163380Y61548881D01*
X47211000Y61453643D01*
X47211000Y61358405D01*
X47163380Y61263167D01*
X47115761Y61215548D01*
X47020523Y61167929D01*
X46687190Y61167929D01*
X67791952Y22794120D02*
X67791952Y21984596D01*
X67839571Y21889358D01*
X67887190Y21841739D01*
X67982428Y21794120D01*
X68172904Y21794120D01*
X68268142Y21841739D01*
X68315761Y21889358D01*
X68363380Y21984596D01*
X68363380Y22794120D01*
X68791952Y21841739D02*
X68887190Y21794120D01*
X69077666Y21794120D01*
X69172904Y21841739D01*
X69220523Y21936977D01*
X69220523Y21984596D01*
X69172904Y22079834D01*
X69077666Y22127453D01*
X68934809Y22127453D01*
X68839571Y22175072D01*
X68791952Y22270310D01*
X68791952Y22317929D01*
X68839571Y22413167D01*
X68934809Y22460786D01*
X69077666Y22460786D01*
X69172904Y22413167D01*
X70030047Y21841739D02*
X69934809Y21794120D01*
X69744333Y21794120D01*
X69649095Y21841739D01*
X69601476Y21936977D01*
X69601476Y22317929D01*
X69649095Y22413167D01*
X69744333Y22460786D01*
X69934809Y22460786D01*
X70030047Y22413167D01*
X70077666Y22317929D01*
X70077666Y22222691D01*
X69601476Y22127453D01*
X71125285Y22794120D02*
X71458619Y21794120D01*
X71791952Y22794120D01*
X72125285Y21794120D02*
X72125285Y22460786D01*
X72125285Y22794120D02*
X72077666Y22746500D01*
X72125285Y22698881D01*
X72172904Y22746500D01*
X72125285Y22794120D01*
X72125285Y22698881D01*
X72601476Y22460786D02*
X72601476Y21794120D01*
X72601476Y22365548D02*
X72649095Y22413167D01*
X72744333Y22460786D01*
X72887190Y22460786D01*
X72982428Y22413167D01*
X73030047Y22317929D01*
X73030047Y21794120D01*
X18658619Y26289358D02*
X18658619Y25622691D01*
X17658619Y26289358D01*
X17658619Y25622691D01*
X17658619Y24479834D02*
X18658619Y24479834D01*
X17944333Y24146500D01*
X18658619Y23813167D01*
X17658619Y23813167D01*
X17658619Y22908405D02*
X18182428Y22908405D01*
X18277666Y22956024D01*
X18325285Y23051262D01*
X18325285Y23241739D01*
X18277666Y23336977D01*
X17706238Y22908405D02*
X17658619Y23003643D01*
X17658619Y23241739D01*
X17706238Y23336977D01*
X17801476Y23384596D01*
X17896714Y23384596D01*
X17991952Y23336977D01*
X18039571Y23241739D01*
X18039571Y23003643D01*
X18087190Y22908405D01*
X17658619Y22527453D02*
X18325285Y22003643D01*
X18325285Y22527453D02*
X17658619Y22003643D01*
X18034809Y34756024D02*
X17558619Y34756024D01*
X18558619Y35089358D02*
X18034809Y34756024D01*
X18558619Y34422691D01*
X17558619Y33327453D02*
X18558619Y33327453D01*
X17844333Y32994120D01*
X18558619Y32660786D01*
X17558619Y32660786D01*
X17558619Y31756024D02*
X18082428Y31756024D01*
X18177666Y31803643D01*
X18225285Y31898881D01*
X18225285Y32089358D01*
X18177666Y32184596D01*
X17606238Y31756024D02*
X17558619Y31851262D01*
X17558619Y32089358D01*
X17606238Y32184596D01*
X17701476Y32232215D01*
X17796714Y32232215D01*
X17891952Y32184596D01*
X17939571Y32089358D01*
X17939571Y31851262D01*
X17987190Y31756024D01*
X17558619Y31375072D02*
X18225285Y30851262D01*
X18225285Y31375072D02*
X17558619Y30851262D01*
X18182428Y44260786D02*
X18182428Y43927453D01*
X17658619Y43784596D02*
X17658619Y44260786D01*
X18658619Y44260786D01*
X18658619Y43784596D01*
X17658619Y42832215D02*
X17658619Y43403643D01*
X17658619Y43117929D02*
X18658619Y43117929D01*
X18515761Y43213167D01*
X18420523Y43308405D01*
X18372904Y43403643D01*
X18182428Y41308405D02*
X18182428Y41641739D01*
X17658619Y41641739D02*
X18658619Y41641739D01*
X18658619Y41165548D01*
X17658619Y40641739D02*
X17706238Y40736977D01*
X17801476Y40784596D01*
X18658619Y40784596D01*
X17658619Y40260786D02*
X18325285Y40260786D01*
X18230047Y40260786D02*
X18277666Y40213167D01*
X18325285Y40117929D01*
X18325285Y39975072D01*
X18277666Y39879834D01*
X18182428Y39832215D01*
X17658619Y39832215D01*
X18182428Y39832215D02*
X18277666Y39784596D01*
X18325285Y39689358D01*
X18325285Y39546500D01*
X18277666Y39451262D01*
X18182428Y39403643D01*
X17658619Y39403643D01*
X18325285Y39070310D02*
X18325285Y38689358D01*
X18658619Y38927453D02*
X17801476Y38927453D01*
X17706238Y38879834D01*
X17658619Y38784596D01*
X17658619Y38689358D01*
X54046714Y33717929D02*
X54380047Y33717929D01*
X54522904Y33194120D02*
X54046714Y33194120D01*
X54046714Y34194120D01*
X54522904Y34194120D01*
X55141952Y34194120D02*
X55237190Y34194120D01*
X55332428Y34146500D01*
X55380047Y34098881D01*
X55427666Y34003643D01*
X55475285Y33813167D01*
X55475285Y33575072D01*
X55427666Y33384596D01*
X55380047Y33289358D01*
X55332428Y33241739D01*
X55237190Y33194120D01*
X55141952Y33194120D01*
X55046714Y33241739D01*
X54999095Y33289358D01*
X54951476Y33384596D01*
X54903857Y33575072D01*
X54903857Y33813167D01*
X54951476Y34003643D01*
X54999095Y34098881D01*
X55046714Y34146500D01*
X55141952Y34194120D01*
X56999095Y33717929D02*
X56665761Y33717929D01*
X56665761Y33194120D02*
X56665761Y34194120D01*
X57141952Y34194120D01*
X57665761Y33194120D02*
X57570523Y33241739D01*
X57522904Y33336977D01*
X57522904Y34194120D01*
X58046714Y33194120D02*
X58046714Y33860786D01*
X58046714Y33765548D02*
X58094333Y33813167D01*
X58189571Y33860786D01*
X58332428Y33860786D01*
X58427666Y33813167D01*
X58475285Y33717929D01*
X58475285Y33194120D01*
X58475285Y33717929D02*
X58522904Y33813167D01*
X58618142Y33860786D01*
X58761000Y33860786D01*
X58856238Y33813167D01*
X58903857Y33717929D01*
X58903857Y33194120D01*
X59237190Y33860786D02*
X59618142Y33860786D01*
X59380047Y34194120D02*
X59380047Y33336977D01*
X59427666Y33241739D01*
X59522904Y33194120D01*
X59618142Y33194120D01*
X45663380Y42103643D02*
X46663380Y42770310D01*
X45663380Y42770310D02*
X46663380Y42103643D01*
X46663380Y43913167D02*
X45663380Y43913167D01*
X46377666Y44246500D01*
X45663380Y44579834D01*
X46663380Y44579834D01*
X46663380Y45484596D02*
X46139571Y45484596D01*
X46044333Y45436977D01*
X45996714Y45341739D01*
X45996714Y45151262D01*
X46044333Y45056024D01*
X46615761Y45484596D02*
X46663380Y45389358D01*
X46663380Y45151262D01*
X46615761Y45056024D01*
X46520523Y45008405D01*
X46425285Y45008405D01*
X46330047Y45056024D01*
X46282428Y45151262D01*
X46282428Y45389358D01*
X46234809Y45484596D01*
X46663380Y45865548D02*
X45996714Y46389358D01*
X45996714Y45865548D02*
X46663380Y46389358D01*
X46337190Y51503643D02*
X46813380Y51503643D01*
X45813380Y51170310D02*
X46337190Y51503643D01*
X45813380Y51836977D01*
X46813380Y52932215D02*
X45813380Y52932215D01*
X46527666Y53265548D01*
X45813380Y53598881D01*
X46813380Y53598881D01*
X46813380Y54075072D02*
X46146714Y54075072D01*
X45813380Y54075072D02*
X45861000Y54027453D01*
X45908619Y54075072D01*
X45861000Y54122691D01*
X45813380Y54075072D01*
X45908619Y54075072D01*
X46146714Y54551262D02*
X46813380Y54551262D01*
X46241952Y54551262D02*
X46194333Y54598881D01*
X46146714Y54694120D01*
X46146714Y54836977D01*
X46194333Y54932215D01*
X46289571Y54979834D01*
X46813380Y54979834D01*
X62508619Y45772691D02*
X62508619Y45106024D01*
X61508619Y45772691D01*
X61508619Y45106024D01*
X61508619Y43963167D02*
X62508619Y43963167D01*
X61794333Y43629834D01*
X62508619Y43296500D01*
X61508619Y43296500D01*
X61508619Y42820310D02*
X62175285Y42820310D01*
X62508619Y42820310D02*
X62461000Y42867929D01*
X62413380Y42820310D01*
X62461000Y42772691D01*
X62508619Y42820310D01*
X62413380Y42820310D01*
X62175285Y42344120D02*
X61508619Y42344120D01*
X62080047Y42344120D02*
X62127666Y42296500D01*
X62175285Y42201262D01*
X62175285Y42058405D01*
X62127666Y41963167D01*
X62032428Y41915548D01*
X61508619Y41915548D01*
X62658619Y54972691D02*
X61658619Y54306024D01*
X62658619Y54306024D02*
X61658619Y54972691D01*
X61658619Y53163167D02*
X62658619Y53163167D01*
X61944333Y52829834D01*
X62658619Y52496500D01*
X61658619Y52496500D01*
X61658619Y52020310D02*
X62325285Y52020310D01*
X62658619Y52020310D02*
X62611000Y52067929D01*
X62563380Y52020310D01*
X62611000Y51972691D01*
X62658619Y52020310D01*
X62563380Y52020310D01*
X62325285Y51544120D02*
X61658619Y51544120D01*
X62230047Y51544120D02*
X62277666Y51496500D01*
X62325285Y51401262D01*
X62325285Y51258405D01*
X62277666Y51163167D01*
X62182428Y51115548D01*
X61658619Y51115548D01*
D10*
X24763380Y31789358D02*
X24763380Y32456024D01*
X25763380Y31789358D01*
X25763380Y32456024D01*
X25763380Y33598881D02*
X24763380Y33598881D01*
X24763380Y33979834D01*
X24811000Y34075072D01*
X24858619Y34122691D01*
X24953857Y34170310D01*
X25096714Y34170310D01*
X25191952Y34122691D01*
X25239571Y34075072D01*
X25287190Y33979834D01*
X25287190Y33598881D01*
X25763380Y34598881D02*
X25096714Y34598881D01*
X25287190Y34598881D02*
X25191952Y34646500D01*
X25144333Y34694120D01*
X25096714Y34789358D01*
X25096714Y34884596D01*
X25763380Y35360786D02*
X25715761Y35265548D01*
X25668142Y35217929D01*
X25572904Y35170310D01*
X25287190Y35170310D01*
X25191952Y35217929D01*
X25144333Y35265548D01*
X25096714Y35360786D01*
X25096714Y35503643D01*
X25144333Y35598881D01*
X25191952Y35646500D01*
X25287190Y35694120D01*
X25572904Y35694120D01*
X25668142Y35646500D01*
X25715761Y35598881D01*
X25763380Y35503643D01*
X25763380Y35360786D01*
X25763380Y36122691D02*
X24763380Y36122691D01*
X25144333Y36122691D02*
X25096714Y36217929D01*
X25096714Y36408405D01*
X25144333Y36503643D01*
X25191952Y36551262D01*
X25287190Y36598881D01*
X25572904Y36598881D01*
X25668142Y36551262D01*
X25715761Y36503643D01*
X25763380Y36408405D01*
X25763380Y36217929D01*
X25715761Y36122691D01*
X25715761Y37408405D02*
X25763380Y37313167D01*
X25763380Y37122691D01*
X25715761Y37027453D01*
X25620523Y36979834D01*
X25239571Y36979834D01*
X25144333Y37027453D01*
X25096714Y37122691D01*
X25096714Y37313167D01*
X25144333Y37408405D01*
X25239571Y37456024D01*
X25334809Y37456024D01*
X25430047Y36979834D01*
D11*
X52425285Y22303643D02*
X52925285Y22303643D01*
X53139571Y21517929D02*
X52425285Y21517929D01*
X52425285Y23017929D01*
X53139571Y23017929D01*
X54568142Y21517929D02*
X53711000Y21517929D01*
X54139571Y21517929D02*
X54139571Y23017929D01*
X53996714Y22803643D01*
X53853857Y22660786D01*
X53711000Y22589358D01*
X52525285Y28853643D02*
X53025285Y28853643D01*
X53239571Y28067929D02*
X52525285Y28067929D01*
X52525285Y29567929D01*
X53239571Y29567929D01*
X54168142Y29567929D02*
X54311000Y29567929D01*
X54453857Y29496500D01*
X54525285Y29425072D01*
X54596714Y29282215D01*
X54668142Y28996500D01*
X54668142Y28639358D01*
X54596714Y28353643D01*
X54525285Y28210786D01*
X54453857Y28139358D01*
X54311000Y28067929D01*
X54168142Y28067929D01*
X54025285Y28139358D01*
X53953857Y28210786D01*
X53882428Y28353643D01*
X53811000Y28639358D01*
X53811000Y28996500D01*
X53882428Y29282215D01*
X53953857Y29425072D01*
X54025285Y29496500D01*
X54168142Y29567929D01*
X51596714Y15553643D02*
X51811000Y15482215D01*
X51882428Y15410786D01*
X51953857Y15267929D01*
X51953857Y15053643D01*
X51882428Y14910786D01*
X51811000Y14839358D01*
X51668142Y14767929D01*
X51096714Y14767929D01*
X51096714Y16267929D01*
X51596714Y16267929D01*
X51739571Y16196500D01*
X51811000Y16125072D01*
X51882428Y15982215D01*
X51882428Y15839358D01*
X51811000Y15696500D01*
X51739571Y15625072D01*
X51596714Y15553643D01*
X51096714Y15553643D01*
X53168142Y14839358D02*
X53025285Y14767929D01*
X52739571Y14767929D01*
X52596714Y14839358D01*
X52525285Y14982215D01*
X52525285Y15553643D01*
X52596714Y15696500D01*
X52739571Y15767929D01*
X53025285Y15767929D01*
X53168142Y15696500D01*
X53239571Y15553643D01*
X53239571Y15410786D01*
X52525285Y15267929D01*
X54525285Y14767929D02*
X54525285Y16267929D01*
X54525285Y14839358D02*
X54382428Y14767929D01*
X54096714Y14767929D01*
X53953857Y14839358D01*
X53882428Y14910786D01*
X53811000Y15053643D01*
X53811000Y15482215D01*
X53882428Y15625072D01*
X53953857Y15696500D01*
X54096714Y15767929D01*
X54382428Y15767929D01*
X54525285Y15696500D01*
D10*
X29282071Y61840620D02*
X29282071Y62840620D01*
X29663023Y62840620D01*
X29758261Y62793000D01*
X29805880Y62745381D01*
X29853499Y62650143D01*
X29853499Y62507286D01*
X29805880Y62412048D01*
X29758261Y62364429D01*
X29663023Y62316810D01*
X29282071Y62316810D01*
X30282071Y61840620D02*
X30282071Y62507286D01*
X30282071Y62316810D02*
X30329690Y62412048D01*
X30377309Y62459667D01*
X30472547Y62507286D01*
X30567785Y62507286D01*
X30901119Y62507286D02*
X30901119Y61840620D01*
X30901119Y62412048D02*
X30948738Y62459667D01*
X31043976Y62507286D01*
X31186833Y62507286D01*
X31282071Y62459667D01*
X31329690Y62364429D01*
X31329690Y61840620D01*
X31663023Y62507286D02*
X32043976Y62507286D01*
X31805880Y62840620D02*
X31805880Y61983477D01*
X31853499Y61888239D01*
X31948738Y61840620D01*
X32043976Y61840620D01*
X32377309Y61840620D02*
X32377309Y62507286D01*
X32377309Y62316810D02*
X32424928Y62412048D01*
X32472547Y62459667D01*
X32567785Y62507286D01*
X32663023Y62507286D01*
X33329690Y62364429D02*
X33472547Y62316810D01*
X33520166Y62269191D01*
X33567785Y62173953D01*
X33567785Y62031096D01*
X33520166Y61935858D01*
X33472547Y61888239D01*
X33377309Y61840620D01*
X32996357Y61840620D01*
X32996357Y62840620D01*
X33329690Y62840620D01*
X33424928Y62793000D01*
X33472547Y62745381D01*
X33520166Y62650143D01*
X33520166Y62554905D01*
X33472547Y62459667D01*
X33424928Y62412048D01*
X33329690Y62364429D01*
X32996357Y62364429D01*
X34139214Y61840620D02*
X34043976Y61888239D01*
X33996357Y61935858D01*
X33948738Y62031096D01*
X33948738Y62316810D01*
X33996357Y62412048D01*
X34043976Y62459667D01*
X34139214Y62507286D01*
X34282071Y62507286D01*
X34377309Y62459667D01*
X34424928Y62412048D01*
X34472547Y62316810D01*
X34472547Y62031096D01*
X34424928Y61935858D01*
X34377309Y61888239D01*
X34282071Y61840620D01*
X34139214Y61840620D01*
X35329690Y61840620D02*
X35329690Y62364429D01*
X35282071Y62459667D01*
X35186833Y62507286D01*
X34996357Y62507286D01*
X34901119Y62459667D01*
X35329690Y61888239D02*
X35234452Y61840620D01*
X34996357Y61840620D01*
X34901119Y61888239D01*
X34853499Y61983477D01*
X34853499Y62078715D01*
X34901119Y62173953D01*
X34996357Y62221572D01*
X35234452Y62221572D01*
X35329690Y62269191D01*
X35805880Y61840620D02*
X35805880Y62507286D01*
X35805880Y62316810D02*
X35853499Y62412048D01*
X35901119Y62459667D01*
X35996357Y62507286D01*
X36091595Y62507286D01*
X36853500Y61840620D02*
X36853500Y62840620D01*
X36853500Y61888239D02*
X36758261Y61840620D01*
X36567785Y61840620D01*
X36472547Y61888239D01*
X36424928Y61935858D01*
X36377309Y62031096D01*
X36377309Y62316810D01*
X36424928Y62412048D01*
X36472547Y62459667D01*
X36567785Y62507286D01*
X36758261Y62507286D01*
X36853500Y62459667D01*
X37948738Y62840620D02*
X38282071Y61840620D01*
X38615404Y62840620D01*
X39472547Y61840620D02*
X38901119Y61840620D01*
X39186833Y61840620D02*
X39186833Y62840620D01*
X39091595Y62697762D01*
X38996357Y62602524D01*
X38901119Y62554905D01*
X31091595Y61190620D02*
X31663023Y61190620D01*
X31377309Y60190620D02*
X31377309Y61190620D01*
X31996357Y60190620D02*
X31996357Y61190620D01*
X32329690Y60476334D01*
X32663023Y61190620D01*
X32663023Y60190620D01*
X33710642Y60285858D02*
X33663023Y60238239D01*
X33520166Y60190620D01*
X33424928Y60190620D01*
X33282071Y60238239D01*
X33186833Y60333477D01*
X33139214Y60428715D01*
X33091595Y60619191D01*
X33091595Y60762048D01*
X33139214Y60952524D01*
X33186833Y61047762D01*
X33282071Y61143000D01*
X33424928Y61190620D01*
X33520166Y61190620D01*
X33663023Y61143000D01*
X33710642Y61095381D01*
X34091595Y61095381D02*
X34139214Y61143000D01*
X34234452Y61190620D01*
X34472547Y61190620D01*
X34567785Y61143000D01*
X34615404Y61095381D01*
X34663023Y61000143D01*
X34663023Y60904905D01*
X34615404Y60762048D01*
X34043976Y60190620D01*
X34663023Y60190620D01*
X35615404Y60190620D02*
X35043976Y60190620D01*
X35329690Y60190620D02*
X35329690Y61190620D01*
X35234452Y61047762D01*
X35139214Y60952524D01*
X35043976Y60904905D01*
X35948738Y61190620D02*
X36567785Y61190620D01*
X36234452Y60809667D01*
X36377309Y60809667D01*
X36472547Y60762048D01*
X36520166Y60714429D01*
X36567785Y60619191D01*
X36567785Y60381096D01*
X36520166Y60285858D01*
X36472547Y60238239D01*
X36377309Y60190620D01*
X36091595Y60190620D01*
X35996357Y60238239D01*
X35948738Y60285858D01*
X37186833Y61190620D02*
X37282071Y61190620D01*
X37377309Y61143000D01*
X37424928Y61095381D01*
X37472547Y61000143D01*
X37520166Y60809667D01*
X37520166Y60571572D01*
X37472547Y60381096D01*
X37424928Y60285858D01*
X37377309Y60238239D01*
X37282071Y60190620D01*
X37186833Y60190620D01*
X37091595Y60238239D01*
X37043976Y60285858D01*
X36996357Y60381096D01*
X36948738Y60571572D01*
X36948738Y60809667D01*
X36996357Y61000143D01*
X37043976Y61095381D01*
X37091595Y61143000D01*
X37186833Y61190620D01*
D14*
X71399785Y2548643D02*
X71133119Y2548643D01*
X71133119Y2129596D02*
X71133119Y2929596D01*
X71514071Y2929596D01*
X72161690Y2129596D02*
X72161690Y2548643D01*
X72123595Y2624834D01*
X72047404Y2662929D01*
X71895023Y2662929D01*
X71818833Y2624834D01*
X72161690Y2167691D02*
X72085500Y2129596D01*
X71895023Y2129596D01*
X71818833Y2167691D01*
X71780738Y2243881D01*
X71780738Y2320072D01*
X71818833Y2396262D01*
X71895023Y2434358D01*
X72085500Y2434358D01*
X72161690Y2472453D01*
X72542642Y2662929D02*
X72542642Y2129596D01*
X72542642Y2586739D02*
X72580738Y2624834D01*
X72656928Y2662929D01*
X72771214Y2662929D01*
X72847404Y2624834D01*
X72885500Y2548643D01*
X72885500Y2129596D01*
X73799785Y2662929D02*
X73990261Y2129596D01*
X74180738Y2662929D01*
X74599785Y2129596D02*
X74523595Y2167691D01*
X74485500Y2205786D01*
X74447404Y2281977D01*
X74447404Y2510548D01*
X74485500Y2586739D01*
X74523595Y2624834D01*
X74599785Y2662929D01*
X74714071Y2662929D01*
X74790261Y2624834D01*
X74828357Y2586739D01*
X74866452Y2510548D01*
X74866452Y2281977D01*
X74828357Y2205786D01*
X74790261Y2167691D01*
X74714071Y2129596D01*
X74599785Y2129596D01*
X75323595Y2129596D02*
X75247404Y2167691D01*
X75209309Y2243881D01*
X75209309Y2929596D01*
X75514071Y2662929D02*
X75818833Y2662929D01*
X75628357Y2929596D02*
X75628357Y2243881D01*
X75666452Y2167691D01*
X75742642Y2129596D01*
X75818833Y2129596D01*
X76428357Y2129596D02*
X76428357Y2548643D01*
X76390261Y2624834D01*
X76314071Y2662929D01*
X76161690Y2662929D01*
X76085500Y2624834D01*
X76428357Y2167691D02*
X76352166Y2129596D01*
X76161690Y2129596D01*
X76085500Y2167691D01*
X76047404Y2243881D01*
X76047404Y2320072D01*
X76085500Y2396262D01*
X76161690Y2434358D01*
X76352166Y2434358D01*
X76428357Y2472453D01*
X77152166Y2662929D02*
X77152166Y2015310D01*
X77114071Y1939120D01*
X77075976Y1901024D01*
X76999785Y1862929D01*
X76885500Y1862929D01*
X76809309Y1901024D01*
X77152166Y2167691D02*
X77075976Y2129596D01*
X76923595Y2129596D01*
X76847404Y2167691D01*
X76809309Y2205786D01*
X76771214Y2281977D01*
X76771214Y2510548D01*
X76809309Y2586739D01*
X76847404Y2624834D01*
X76923595Y2662929D01*
X77075976Y2662929D01*
X77152166Y2624834D01*
X77837880Y2167691D02*
X77761690Y2129596D01*
X77609309Y2129596D01*
X77533119Y2167691D01*
X77495023Y2243881D01*
X77495023Y2548643D01*
X77533119Y2624834D01*
X77609309Y2662929D01*
X77761690Y2662929D01*
X77837880Y2624834D01*
X77875976Y2548643D01*
X77875976Y2472453D01*
X77495023Y2396262D01*
X73171214Y1629596D02*
X72790261Y1629596D01*
X72752166Y1248643D01*
X72790261Y1286739D01*
X72866452Y1324834D01*
X73056928Y1324834D01*
X73133119Y1286739D01*
X73171214Y1248643D01*
X73209309Y1172453D01*
X73209309Y981977D01*
X73171214Y905786D01*
X73133119Y867691D01*
X73056928Y829596D01*
X72866452Y829596D01*
X72790261Y867691D01*
X72752166Y905786D01*
X73437880Y1629596D02*
X73704547Y829596D01*
X73971214Y1629596D01*
X74733119Y1629596D02*
X74999785Y829596D01*
X75266452Y1629596D01*
X75533119Y829596D02*
X75533119Y1362929D01*
X75533119Y1286739D02*
X75571214Y1324834D01*
X75647404Y1362929D01*
X75761690Y1362929D01*
X75837880Y1324834D01*
X75875976Y1248643D01*
X75875976Y829596D01*
X75875976Y1248643D02*
X75914071Y1324834D01*
X75990261Y1362929D01*
X76104547Y1362929D01*
X76180738Y1324834D01*
X76218833Y1248643D01*
X76218833Y829596D01*
X76714071Y829596D02*
X76637880Y867691D01*
X76599785Y905786D01*
X76561690Y981977D01*
X76561690Y1210548D01*
X76599785Y1286739D01*
X76637880Y1324834D01*
X76714071Y1362929D01*
X76828357Y1362929D01*
X76904547Y1324834D01*
X76942642Y1286739D01*
X76980738Y1210548D01*
X76980738Y981977D01*
X76942642Y905786D01*
X76904547Y867691D01*
X76828357Y829596D01*
X76714071Y829596D01*
X77209309Y1362929D02*
X77514071Y1362929D01*
X77323595Y1629596D02*
X77323595Y943881D01*
X77361690Y867691D01*
X77437880Y829596D01*
X77514071Y829596D01*
D15*
X37340221Y41908000D02*
X37665779Y41908000D01*
X37340221Y42928000D02*
X37665779Y42928000D01*
X31347542Y79734793D02*
X31117337Y79504588D01*
X30626293Y80456042D02*
X30396088Y80225837D01*
X60209379Y16329700D02*
X59883821Y16329700D01*
X60209379Y15309700D02*
X59883821Y15309700D01*
X10498221Y89756500D02*
X10823779Y89756500D01*
X10498221Y88736500D02*
X10823779Y88736500D01*
X89827500Y36949221D02*
X89827500Y37274779D01*
X88807500Y36949221D02*
X88807500Y37274779D01*
X50243721Y39056000D02*
X50569279Y39056000D01*
X50243721Y38036000D02*
X50569279Y38036000D01*
X27321000Y77783721D02*
X27321000Y78109279D01*
X26301000Y77783721D02*
X26301000Y78109279D01*
X88467800Y74315679D02*
X88467800Y73990121D01*
X87447800Y74315679D02*
X87447800Y73990121D01*
X75567421Y65669700D02*
X75892979Y65669700D01*
X75567421Y66689700D02*
X75892979Y66689700D01*
X77750993Y61951658D02*
X77520788Y62181863D01*
X78472242Y62672907D02*
X78242037Y62903112D01*
X31688500Y48757721D02*
X31688500Y49083279D01*
X30668500Y48757721D02*
X30668500Y49083279D01*
X61551000Y37471221D02*
X61551000Y37796779D01*
X62571000Y37471221D02*
X62571000Y37796779D01*
X6901000Y45846779D02*
X6901000Y45521221D01*
X7921000Y45846779D02*
X7921000Y45521221D01*
X38223779Y38036500D02*
X37898221Y38036500D01*
X38223779Y39056500D02*
X37898221Y39056500D01*
X88325000Y49638079D02*
X88325000Y49312521D01*
X89345000Y49638079D02*
X89345000Y49312521D01*
X7883500Y75809279D02*
X7883500Y75483721D01*
X6863500Y75809279D02*
X6863500Y75483721D01*
X5456779Y60356500D02*
X5131221Y60356500D01*
X5456779Y59336500D02*
X5131221Y59336500D01*
X22476579Y68819300D02*
X22151021Y68819300D01*
X22476579Y69839300D02*
X22151021Y69839300D01*
X13909221Y42679000D02*
X14234779Y42679000D01*
X13909221Y43699000D02*
X14234779Y43699000D01*
X60234779Y28428800D02*
X59909221Y28428800D01*
X60234779Y29448800D02*
X59909221Y29448800D01*
X91495221Y35783900D02*
X91820779Y35783900D01*
X91495221Y36803900D02*
X91820779Y36803900D01*
X88051000Y19683721D02*
X88051000Y20009279D01*
X89071000Y19683721D02*
X89071000Y20009279D01*
X90938821Y10438700D02*
X91264379Y10438700D01*
X90938821Y11458700D02*
X91264379Y11458700D01*
X89535721Y26506500D02*
X89861279Y26506500D01*
X89535721Y25486500D02*
X89861279Y25486500D01*
X50231221Y46418000D02*
X50556779Y46418000D01*
X50231221Y47438000D02*
X50556779Y47438000D01*
X58029021Y55870800D02*
X58354579Y55870800D01*
X58029021Y54850800D02*
X58354579Y54850800D01*
X75059421Y39761700D02*
X75384979Y39761700D01*
X75059421Y40781700D02*
X75384979Y40781700D01*
X88251000Y44947721D02*
X88251000Y45273279D01*
X89271000Y44947721D02*
X89271000Y45273279D01*
X32151000Y44296779D02*
X32151000Y43971221D01*
X33171000Y44296779D02*
X33171000Y43971221D01*
X88232500Y11605221D02*
X88232500Y11930779D01*
X89252500Y11605221D02*
X89252500Y11930779D01*
X18371000Y91696221D02*
X18371000Y92021779D01*
X17351000Y91696221D02*
X17351000Y92021779D01*
X32201000Y48746221D02*
X32201000Y49071779D01*
X33221000Y48746221D02*
X33221000Y49071779D01*
X75821421Y41336500D02*
X76146979Y41336500D01*
X75821421Y42356500D02*
X76146979Y42356500D01*
X33214400Y93242921D02*
X33214400Y93568479D01*
X34234400Y93242921D02*
X34234400Y93568479D01*
X33073779Y91481500D02*
X32748221Y91481500D01*
X33073779Y90461500D02*
X32748221Y90461500D01*
X77700193Y37669258D02*
X77469988Y37899463D01*
X78421442Y38390507D02*
X78191237Y38620712D01*
X60209379Y22959100D02*
X59883821Y22959100D01*
X60209379Y21939100D02*
X59883821Y21939100D01*
X87876400Y24268679D02*
X87876400Y23943121D01*
X86856400Y24268679D02*
X86856400Y23943121D01*
X75059421Y14514100D02*
X75384979Y14514100D01*
X75059421Y15534100D02*
X75384979Y15534100D01*
X38229279Y36483500D02*
X37903721Y36483500D01*
X38229279Y37503500D02*
X37903721Y37503500D01*
X30096779Y46357000D02*
X29771221Y46357000D01*
X30096779Y45337000D02*
X29771221Y45337000D01*
X22743279Y70356000D02*
X22417721Y70356000D01*
X22743279Y71376000D02*
X22417721Y71376000D01*
X8761000Y66164779D02*
X8761000Y65839221D01*
X9781000Y66164779D02*
X9781000Y65839221D01*
X20444337Y73939412D02*
X20674542Y73709207D01*
X19723088Y73218163D02*
X19953293Y72987958D01*
X8181400Y60519121D02*
X8181400Y60844679D01*
X7161400Y60519121D02*
X7161400Y60844679D01*
X18743821Y89982900D02*
X19069379Y89982900D01*
X18743821Y88962900D02*
X19069379Y88962900D01*
X91135721Y50461500D02*
X91461279Y50461500D01*
X91135721Y51481500D02*
X91461279Y51481500D01*
X9446000Y75204779D02*
X9446000Y74879221D01*
X8426000Y75204779D02*
X8426000Y74879221D01*
X50154821Y54825400D02*
X50480379Y54825400D01*
X50154821Y55845400D02*
X50480379Y55845400D01*
X13833221Y35253500D02*
X14158779Y35253500D01*
X13833221Y34233500D02*
X14158779Y34233500D01*
X75669021Y16038100D02*
X75994579Y16038100D01*
X75669021Y17058100D02*
X75994579Y17058100D01*
X75287821Y65064100D02*
X75613379Y65064100D01*
X75287821Y64044100D02*
X75613379Y64044100D01*
X78319842Y12888907D02*
X78089637Y13119112D01*
X77598593Y12167658D02*
X77368388Y12397863D01*
X88201000Y69533721D02*
X88201000Y69859279D01*
X89221000Y69533721D02*
X89221000Y69859279D01*
X88161000Y59894721D02*
X88161000Y60220279D01*
X87141000Y59894721D02*
X87141000Y60220279D01*
X88826000Y56908721D02*
X88826000Y57234279D01*
X89846000Y56908721D02*
X89846000Y57234279D01*
X95626000Y75109279D02*
X95626000Y74783721D01*
X96646000Y75109279D02*
X96646000Y74783721D01*
X13896721Y26617500D02*
X14222279Y26617500D01*
X13896721Y25597500D02*
X14222279Y25597500D01*
X58041721Y46418000D02*
X58367279Y46418000D01*
X58041721Y47438000D02*
X58367279Y47438000D01*
X27951000Y77783721D02*
X27951000Y78109279D01*
X28971000Y77783721D02*
X28971000Y78109279D01*
X23497779Y91406500D02*
X23172221Y91406500D01*
X23497779Y90386500D02*
X23172221Y90386500D01*
X17898936Y61196500D02*
X19103064Y61196500D01*
X17898936Y63016500D02*
X19103064Y63016500D01*
X17922136Y77808500D02*
X19126264Y77808500D01*
X17922136Y75988500D02*
X19126264Y75988500D01*
X80020264Y25106500D02*
X78816136Y25106500D01*
X80020264Y23286500D02*
X78816136Y23286500D01*
X80172664Y33824500D02*
X78968536Y33824500D01*
X80172664Y35644500D02*
X78968536Y35644500D01*
X80172664Y74706500D02*
X78968536Y74706500D01*
X80172664Y72886500D02*
X78968536Y72886500D01*
X20625400Y82296164D02*
X20625400Y81092036D01*
X18805400Y82296164D02*
X18805400Y81092036D01*
X80180264Y60028500D02*
X78976136Y60028500D01*
X80180264Y58208500D02*
X78976136Y58208500D01*
X35052600Y82296164D02*
X35052600Y81092036D01*
X33232600Y82296164D02*
X33232600Y81092036D01*
X60838000Y94857636D02*
X60838000Y96061764D01*
X59018000Y94857636D02*
X59018000Y96061764D01*
X80020264Y8424500D02*
X78816136Y8424500D01*
X80020264Y10244500D02*
X78816136Y10244500D01*
X80172664Y50606500D02*
X78968536Y50606500D01*
X80172664Y48786500D02*
X78968536Y48786500D01*
X74101800Y94520836D02*
X74101800Y95724964D01*
X75921800Y94520836D02*
X75921800Y95724964D01*
X49068000Y94658036D02*
X49068000Y95862164D01*
X47248000Y94658036D02*
X47248000Y95862164D01*
X51721000Y49296221D02*
X51721000Y49621779D01*
X50701000Y49296221D02*
X50701000Y49621779D01*
X17614400Y51240679D02*
X17614400Y50915121D01*
X16594400Y51240679D02*
X16594400Y50915121D01*
X68048821Y5751100D02*
X68374379Y5751100D01*
X68048821Y6771100D02*
X68374379Y6771100D01*
X56321000Y41209279D02*
X56321000Y40883721D01*
X55301000Y41209279D02*
X55301000Y40883721D01*
X59421000Y40885221D02*
X59421000Y41210779D01*
X58401000Y40885221D02*
X58401000Y41210779D01*
X11301000Y20046221D02*
X11301000Y20371779D01*
X12321000Y20046221D02*
X12321000Y20371779D01*
X13698221Y88736500D02*
X14023779Y88736500D01*
X13698221Y89756500D02*
X14023779Y89756500D01*
X82704400Y82979479D02*
X82704400Y82653921D01*
X81684400Y82979479D02*
X81684400Y82653921D01*
X29448221Y31986500D02*
X29773779Y31986500D01*
X29448221Y33006500D02*
X29773779Y33006500D01*
X41673779Y33486500D02*
X41348221Y33486500D01*
X41673779Y34506500D02*
X41348221Y34506500D01*
X47651000Y49621779D02*
X47651000Y49296221D01*
X48671000Y49621779D02*
X48671000Y49296221D01*
X11238000Y28649721D02*
X11238000Y28975279D01*
X12258000Y28649721D02*
X12258000Y28975279D01*
X51721000Y32503221D02*
X51721000Y32828779D01*
X50701000Y32503221D02*
X50701000Y32828779D01*
X58838200Y18539921D02*
X58838200Y18865479D01*
X59858200Y18539921D02*
X59858200Y18865479D01*
X60209379Y21435100D02*
X59883821Y21435100D01*
X60209379Y20415100D02*
X59883821Y20415100D01*
X66854800Y79131279D02*
X66854800Y78805721D01*
X65834800Y79131279D02*
X65834800Y78805721D01*
X41806400Y80782279D02*
X41806400Y80456721D01*
X42826400Y80782279D02*
X42826400Y80456721D01*
X44401200Y86979879D02*
X44401200Y86654321D01*
X43381200Y86979879D02*
X43381200Y86654321D01*
X59807400Y11910521D02*
X59807400Y12236079D01*
X58787400Y11910521D02*
X58787400Y12236079D01*
X60209379Y13785700D02*
X59883821Y13785700D01*
X60209379Y14805700D02*
X59883821Y14805700D01*
X14349500Y20390279D02*
X14349500Y20064721D01*
X15369500Y20390279D02*
X15369500Y20064721D01*
X41404500Y13871779D02*
X41404500Y13546221D01*
X40384500Y13871779D02*
X40384500Y13546221D01*
X47601000Y32809279D02*
X47601000Y32483721D01*
X48621000Y32809279D02*
X48621000Y32483721D01*
X58812800Y25029621D02*
X58812800Y25355179D01*
X59832800Y25029621D02*
X59832800Y25355179D01*
X42921000Y13546221D02*
X42921000Y13871779D01*
X41901000Y13546221D02*
X41901000Y13871779D01*
X24804000Y13904279D02*
X24804000Y13578721D01*
X23784000Y13904279D02*
X23784000Y13578721D01*
X26391500Y13578721D02*
X26391500Y13904279D01*
X25371500Y13578721D02*
X25371500Y13904279D01*
X33171000Y13921779D02*
X33171000Y13596221D01*
X32151000Y13921779D02*
X32151000Y13596221D01*
X15529000Y13921779D02*
X15529000Y13596221D01*
X16549000Y13921779D02*
X16549000Y13596221D01*
X15306000Y28971779D02*
X15306000Y28646221D01*
X14286000Y28971779D02*
X14286000Y28646221D01*
X60273779Y31356500D02*
X59948221Y31356500D01*
X60273779Y30336500D02*
X59948221Y30336500D01*
X11238000Y37146221D02*
X11238000Y37471779D01*
X12258000Y37146221D02*
X12258000Y37471779D01*
X14413000Y37484279D02*
X14413000Y37158721D01*
X15433000Y37484279D02*
X15433000Y37158721D01*
X60234779Y26904800D02*
X59909221Y26904800D01*
X60234779Y27924800D02*
X59909221Y27924800D01*
X54001000Y80546779D02*
X54001000Y80221221D01*
X55021000Y80546779D02*
X55021000Y80221221D01*
X56605900Y86802279D02*
X56605900Y86476721D01*
X55585900Y86802279D02*
X55585900Y86476721D01*
X51721000Y40921221D02*
X51721000Y41246779D01*
X50701000Y40921221D02*
X50701000Y41246779D01*
X29448221Y34506500D02*
X29773779Y34506500D01*
X29448221Y33486500D02*
X29773779Y33486500D01*
X41673779Y32556500D02*
X41348221Y32556500D01*
X41673779Y31536500D02*
X41348221Y31536500D01*
X17051000Y13596221D02*
X17051000Y13921779D01*
X18071000Y13596221D02*
X18071000Y13921779D01*
X47601000Y41259279D02*
X47601000Y40933721D01*
X48621000Y41259279D02*
X48621000Y40933721D01*
X58451000Y49296221D02*
X58451000Y49621779D01*
X59471000Y49296221D02*
X59471000Y49621779D01*
X55351000Y49621779D02*
X55351000Y49296221D01*
X56371000Y49621779D02*
X56371000Y49296221D01*
X33690000Y13596221D02*
X33690000Y13921779D01*
X34710000Y13596221D02*
X34710000Y13921779D01*
X67638200Y84770279D02*
X67638200Y84444721D01*
X68658200Y84770279D02*
X68658200Y84444721D01*
X33740600Y86796836D02*
X33740600Y88000964D01*
X35560600Y86796836D02*
X35560600Y88000964D01*
X12831400Y59916164D02*
X12831400Y58712036D01*
X14651400Y59916164D02*
X14651400Y58712036D01*
X13583064Y76191700D02*
X12378936Y76191700D01*
X13583064Y78011700D02*
X12378936Y78011700D01*
X84958600Y26403236D02*
X84958600Y27607364D01*
X83138600Y26403236D02*
X83138600Y27607364D01*
X84571736Y10092100D02*
X85775864Y10092100D01*
X84571736Y8272100D02*
X85775864Y8272100D01*
X85060200Y51818436D02*
X85060200Y53022564D01*
X83240200Y51818436D02*
X83240200Y53022564D01*
X84302536Y35034900D02*
X85506664Y35034900D01*
X84302536Y33214900D02*
X85506664Y33214900D01*
X85238000Y76075436D02*
X85238000Y77279564D01*
X83418000Y76075436D02*
X83418000Y77279564D01*
X85111000Y57909564D02*
X85111000Y56705436D01*
X83291000Y57909564D02*
X83291000Y56705436D01*
X17414264Y87132900D02*
X16210136Y87132900D01*
X17414264Y85312900D02*
X16210136Y85312900D01*
X48716500Y29436000D02*
X48716500Y26896000D01*
X48716500Y29436000D02*
X46176500Y29436000D01*
X48466500Y29186000D02*
X48466500Y19836000D01*
X25066500Y29186000D02*
X48466500Y29186000D01*
X25066500Y19836000D02*
X25066500Y29186000D01*
X48466500Y19836000D02*
X25066500Y19836000D01*
X95380500Y82673500D02*
X96710500Y82673500D01*
X95380500Y81343500D02*
X95380500Y82673500D01*
X95380500Y80073500D02*
X98040500Y80073500D01*
X98040500Y80073500D02*
X98040500Y77473500D01*
X95380500Y80073500D02*
X95380500Y77473500D01*
X95380500Y77473500D02*
X98040500Y77473500D01*
X79291000Y1416500D02*
X79291000Y2746500D01*
X80621000Y1416500D02*
X79291000Y1416500D01*
X81891000Y1416500D02*
X81891000Y4076500D01*
X81891000Y4076500D02*
X84491000Y4076500D01*
X81891000Y1416500D02*
X84491000Y1416500D01*
X84491000Y1416500D02*
X84491000Y4076500D01*
X90891000Y4076500D02*
X90891000Y2746500D01*
X89561000Y4076500D02*
X90891000Y4076500D01*
X88291000Y4076500D02*
X88291000Y1416500D01*
X88291000Y1416500D02*
X85691000Y1416500D01*
X88291000Y4076500D02*
X85691000Y4076500D01*
X85691000Y4076500D02*
X85691000Y1416500D01*
X95380500Y89023500D02*
X96710500Y89023500D01*
X95380500Y87693500D02*
X95380500Y89023500D01*
X95380500Y86423500D02*
X98040500Y86423500D01*
X98040500Y86423500D02*
X98040500Y83823500D01*
X95380500Y86423500D02*
X95380500Y83823500D01*
X95380500Y83823500D02*
X98040500Y83823500D01*
X27340500Y47666500D02*
X27315500Y47666500D01*
X27315500Y47666500D02*
X27315500Y51266500D01*
X27315500Y51266500D02*
X27340500Y51266500D01*
X30190500Y46941500D02*
X30190500Y47666500D01*
X30190500Y47666500D02*
X30215500Y47666500D01*
X30215500Y47666500D02*
X30215500Y51266500D01*
X30215500Y51266500D02*
X30190500Y51266500D01*
X28890500Y46941500D02*
X28890500Y47666500D01*
X28890500Y47666500D02*
X28640500Y47666500D01*
X28640500Y51266500D02*
X28890500Y51266500D01*
X49139800Y60252300D02*
X49139800Y61582300D01*
X50469800Y60252300D02*
X49139800Y60252300D01*
X51739800Y60252300D02*
X51739800Y62912300D01*
X51739800Y62912300D02*
X56879800Y62912300D01*
X51739800Y60252300D02*
X56879800Y60252300D01*
X56879800Y60252300D02*
X56879800Y62912300D01*
X58842600Y60303100D02*
X58842600Y61633100D01*
X60172600Y60303100D02*
X58842600Y60303100D01*
X61442600Y60303100D02*
X61442600Y62963100D01*
X61442600Y62963100D02*
X66582600Y62963100D01*
X61442600Y60303100D02*
X66582600Y60303100D01*
X66582600Y60303100D02*
X66582600Y62963100D01*
X51933800Y66500700D02*
X51933800Y67830700D01*
X53263800Y66500700D02*
X51933800Y66500700D01*
X54533800Y66500700D02*
X54533800Y69160700D01*
X54533800Y69160700D02*
X67293800Y69160700D01*
X54533800Y66500700D02*
X67293800Y66500700D01*
X67293800Y66500700D02*
X67293800Y69160700D01*
X51883000Y70640900D02*
X51883000Y71970900D01*
X53213000Y70640900D02*
X51883000Y70640900D01*
X54483000Y70640900D02*
X54483000Y73300900D01*
X54483000Y73300900D02*
X67243000Y73300900D01*
X54483000Y70640900D02*
X67243000Y70640900D01*
X67243000Y70640900D02*
X67243000Y73300900D01*
X15580400Y47993900D02*
X17850400Y47993900D01*
X17850400Y47993900D02*
X17850400Y49513900D01*
X17850400Y49513900D02*
X15580400Y49513900D01*
X80657800Y84368100D02*
X82927800Y84368100D01*
X82927800Y84368100D02*
X82927800Y85888100D01*
X82927800Y85888100D02*
X80657800Y85888100D01*
X11311000Y86686500D02*
X13581000Y86686500D01*
X13581000Y86686500D02*
X13581000Y88206500D01*
X13581000Y88206500D02*
X11311000Y88206500D01*
X69011800Y5217700D02*
X66741800Y5217700D01*
X66741800Y5217700D02*
X66741800Y3697700D01*
X66741800Y3697700D02*
X69011800Y3697700D01*
X71287400Y86233900D02*
X68137400Y86233900D01*
X71287400Y87933900D02*
X68137400Y87933900D01*
X71287400Y86233900D02*
X71287400Y87933900D01*
X47061000Y88446500D02*
X43911000Y88446500D01*
X47061000Y90146500D02*
X43911000Y90146500D01*
X47061000Y88446500D02*
X47061000Y90146500D01*
X59261000Y88265900D02*
X56111000Y88265900D01*
X59261000Y89965900D02*
X56111000Y89965900D01*
X59261000Y88265900D02*
X59261000Y89965900D01*
X10811000Y10646500D02*
X13961000Y10646500D01*
X10811000Y8946500D02*
X13961000Y8946500D01*
X10811000Y10646500D02*
X10811000Y8946500D01*
X27411000Y10696500D02*
X30561000Y10696500D01*
X27411000Y8996500D02*
X30561000Y8996500D01*
X27411000Y10696500D02*
X27411000Y8996500D01*
X19111000Y10692500D02*
X22261000Y10692500D01*
X19111000Y8992500D02*
X22261000Y8992500D01*
X19111000Y10692500D02*
X19111000Y8992500D01*
X35761000Y10646500D02*
X38911000Y10646500D01*
X35761000Y8946500D02*
X38911000Y8946500D01*
X35761000Y10646500D02*
X35761000Y8946500D01*
X42491000Y57166500D02*
X42491000Y58496500D01*
X43821000Y57166500D02*
X42491000Y57166500D01*
X45091000Y57166500D02*
X45091000Y59826500D01*
X45091000Y59826500D02*
X47691000Y59826500D01*
X45091000Y57166500D02*
X47691000Y57166500D01*
X47691000Y57166500D02*
X47691000Y59826500D01*
X67731000Y28766500D02*
X69061000Y28766500D01*
X67731000Y27436500D02*
X67731000Y28766500D01*
X67731000Y26166500D02*
X70391000Y26166500D01*
X70391000Y26166500D02*
X70391000Y23566500D01*
X67731000Y26166500D02*
X67731000Y23566500D01*
X67731000Y23566500D02*
X70391000Y23566500D01*
D10*
X86240599Y13614200D02*
X86240599Y14064200D01*
X78890599Y13614200D02*
X78890599Y14164200D01*
X78890599Y20964200D02*
X78890599Y20414200D01*
X86240599Y20964200D02*
X86240599Y20414200D01*
X86240599Y13614200D02*
X85690599Y13614200D01*
X86240599Y20964200D02*
X85690599Y20964200D01*
X78890599Y20964200D02*
X79440599Y20964200D01*
X78890599Y13614200D02*
X79440599Y13614200D01*
X86240599Y14064200D02*
X87515599Y14064200D01*
X11692201Y72424800D02*
X11692201Y71974800D01*
X19042201Y72424800D02*
X19042201Y71874800D01*
X19042201Y65074800D02*
X19042201Y65624800D01*
X11692201Y65074800D02*
X11692201Y65624800D01*
X11692201Y72424800D02*
X12242201Y72424800D01*
X11692201Y65074800D02*
X12242201Y65074800D01*
X19042201Y65074800D02*
X18492201Y65074800D01*
X19042201Y72424800D02*
X18492201Y72424800D01*
X11692201Y71974800D02*
X10417201Y71974800D01*
X86379399Y38994200D02*
X86379399Y39444200D01*
X79029399Y38994200D02*
X79029399Y39544200D01*
X79029399Y46344200D02*
X79029399Y45794200D01*
X86379399Y46344200D02*
X86379399Y45794200D01*
X86379399Y38994200D02*
X85829399Y38994200D01*
X86379399Y46344200D02*
X85829399Y46344200D01*
X79029399Y46344200D02*
X79579399Y46344200D01*
X79029399Y38994200D02*
X79579399Y38994200D01*
X86379399Y39444200D02*
X87654399Y39444200D01*
X86392999Y63367000D02*
X86392999Y63817000D01*
X79042999Y63367000D02*
X79042999Y63917000D01*
X79042999Y70717000D02*
X79042999Y70167000D01*
X86392999Y70717000D02*
X86392999Y70167000D01*
X86392999Y63367000D02*
X85842999Y63367000D01*
X86392999Y70717000D02*
X85842999Y70717000D01*
X79042999Y70717000D02*
X79592999Y70717000D01*
X79042999Y63367000D02*
X79592999Y63367000D01*
X86392999Y63817000D02*
X87667999Y63817000D01*
X29832100Y88486099D02*
X29382100Y88486099D01*
X29832100Y81136099D02*
X29282100Y81136099D01*
X22482100Y81136099D02*
X23032100Y81136099D01*
X22482100Y88486099D02*
X23032100Y88486099D01*
X29832100Y88486099D02*
X29832100Y87936099D01*
X22482100Y88486099D02*
X22482100Y87936099D01*
X22482100Y81136099D02*
X22482100Y81686099D01*
X29832100Y81136099D02*
X29832100Y81686099D01*
X29382100Y88486099D02*
X29382100Y89761099D01*
D15*
X8954750Y84355250D02*
X8954750Y85142750D01*
X9348500Y84749000D02*
X8561000Y84749000D01*
X8321000Y88942063D02*
X7256563Y90006500D01*
X8321000Y84250937D02*
X7256563Y83186500D01*
X8321000Y84250937D02*
X8321000Y85536500D01*
X8321000Y88942063D02*
X8321000Y87656500D01*
X7256563Y90006500D02*
X1501000Y90006500D01*
X7256563Y83186500D02*
X1501000Y83186500D01*
X1501000Y83186500D02*
X1501000Y85536500D01*
X1501000Y90006500D02*
X1501000Y87656500D01*
X43131200Y84670700D02*
X43131200Y82400700D01*
X43131200Y82400700D02*
X44651200Y82400700D01*
X44651200Y82400700D02*
X44651200Y84670700D01*
X14095500Y36496500D02*
X14095500Y38766500D01*
X14095500Y38766500D02*
X12575500Y38766500D01*
X12575500Y38766500D02*
X12575500Y36496500D01*
X67388200Y82410300D02*
X67388200Y80140300D01*
X67388200Y80140300D02*
X68908200Y80140300D01*
X68908200Y80140300D02*
X68908200Y82410300D01*
X50430000Y40311500D02*
X50430000Y42581500D01*
X50430000Y42581500D02*
X48910000Y42581500D01*
X48910000Y42581500D02*
X48910000Y40311500D01*
X58171000Y48696500D02*
X58171000Y50966500D01*
X58171000Y50966500D02*
X56651000Y50966500D01*
X56651000Y50966500D02*
X56651000Y48696500D01*
X14032000Y27974500D02*
X14032000Y30244500D01*
X14032000Y30244500D02*
X12512000Y30244500D01*
X12512000Y30244500D02*
X12512000Y27974500D01*
X50430000Y48680600D02*
X50430000Y50950600D01*
X50430000Y50950600D02*
X48910000Y50950600D01*
X48910000Y50950600D02*
X48910000Y48680600D01*
X14095500Y19427500D02*
X14095500Y21697500D01*
X14095500Y21697500D02*
X12575500Y21697500D01*
X12575500Y21697500D02*
X12575500Y19427500D01*
X58121000Y40246500D02*
X58121000Y42516500D01*
X58121000Y42516500D02*
X56601000Y42516500D01*
X56601000Y42516500D02*
X56601000Y40246500D01*
X50430000Y31878500D02*
X50430000Y34148500D01*
X50430000Y34148500D02*
X48910000Y34148500D01*
X48910000Y34148500D02*
X48910000Y31878500D01*
X55335900Y84467500D02*
X55335900Y82197500D01*
X55335900Y82197500D02*
X56855900Y82197500D01*
X56855900Y82197500D02*
X56855900Y84467500D01*
X84813082Y95273456D02*
G75*
G02X85496400Y95418700I683318J-1534756D01*
G01*
X83960974Y93055658D02*
G75*
G02X83961400Y94422700I1535426J683042D01*
G01*
X86179442Y92203274D02*
G75*
G02X84812400Y92203700I-683042J1535426D01*
G01*
X87031826Y94421742D02*
G75*
G02X87031400Y93054700I-1535426J-683042D01*
G01*
X85467595Y95418953D02*
G75*
G02X86180400Y95273700I28805J-1680253D01*
G01*
X82096400Y93738700D02*
G75*
G03X82096400Y93738700I-1680000J0D01*
G01*
X88096400Y97838700D02*
X77816400Y97838700D01*
X88096400Y96338700D02*
X77816400Y96338700D01*
X88096400Y91437700D02*
X77816400Y91437700D01*
X88096400Y88477700D02*
X77816400Y88477700D01*
X88096400Y98398700D02*
X77816400Y98398700D01*
X88096400Y88477700D02*
X88096400Y98398700D01*
X77816400Y88477700D02*
X77816400Y98398700D01*
X79141400Y92669700D02*
X79188400Y92715700D01*
X81450400Y94977700D02*
X81485400Y95012700D01*
X79346400Y92463700D02*
X79381400Y92499700D01*
X81643400Y94761700D02*
X81690400Y94807700D01*
X88336400Y97898700D02*
X88336400Y98638700D01*
X88336400Y98638700D02*
X87836400Y98638700D01*
X69026982Y95451256D02*
G75*
G02X69710300Y95596500I683318J-1534756D01*
G01*
X68174874Y93233458D02*
G75*
G02X68175300Y94600500I1535426J683042D01*
G01*
X70393342Y92381074D02*
G75*
G02X69026300Y92381500I-683042J1535426D01*
G01*
X71245726Y94599542D02*
G75*
G02X71245300Y93232500I-1535426J-683042D01*
G01*
X69681495Y95596753D02*
G75*
G02X70394300Y95451500I28805J-1680253D01*
G01*
X66310300Y93916500D02*
G75*
G03X66310300Y93916500I-1680000J0D01*
G01*
X72310300Y98016500D02*
X62030300Y98016500D01*
X72310300Y96516500D02*
X62030300Y96516500D01*
X72310300Y91615500D02*
X62030300Y91615500D01*
X72310300Y88655500D02*
X62030300Y88655500D01*
X72310300Y98576500D02*
X62030300Y98576500D01*
X72310300Y88655500D02*
X72310300Y98576500D01*
X62030300Y88655500D02*
X62030300Y98576500D01*
X63355300Y92847500D02*
X63402300Y92893500D01*
X65664300Y95155500D02*
X65699300Y95190500D01*
X63560300Y92641500D02*
X63595300Y92677500D01*
X65857300Y94939500D02*
X65904300Y94985500D01*
X72550300Y98076500D02*
X72550300Y98816500D01*
X72550300Y98816500D02*
X72050300Y98816500D01*
X43204136Y95315821D02*
G75*
G02X44094400Y95571100I890264J-1424721D01*
G01*
X42668895Y93000907D02*
G75*
G02X42669400Y94782100I1425505J890193D01*
G01*
X44984294Y92465742D02*
G75*
G02X43228400Y92451100I-889894J1425358D01*
G01*
X45519758Y94780994D02*
G75*
G02X45534400Y93025100I-1425358J-889894D01*
G01*
X44065726Y95571199D02*
G75*
G02X44960400Y95331100I28674J-1680099D01*
G01*
X42274400Y93891100D02*
G75*
G03X42274400Y93891100I-1680000J0D01*
G01*
X45904400Y97991100D02*
X38784400Y97991100D01*
X45904400Y96891100D02*
X38784400Y96891100D01*
X45904400Y90731100D02*
X38784400Y90731100D01*
X45904400Y98451100D02*
X38784400Y98451100D01*
X45904400Y90731100D02*
X45904400Y98451100D01*
X38784400Y90731100D02*
X38784400Y98451100D01*
X39319400Y92822100D02*
X39448400Y92950100D01*
X41569400Y95072100D02*
X41663400Y95165100D01*
X39524400Y92616100D02*
X39618400Y92710100D01*
X41739400Y94832100D02*
X41868400Y94960100D01*
X46144400Y98051100D02*
X46144400Y98691100D01*
X46144400Y98691100D02*
X45744400Y98691100D01*
X55408836Y95163421D02*
G75*
G02X56299100Y95418700I890264J-1424721D01*
G01*
X54873595Y92848507D02*
G75*
G02X54874100Y94629700I1425505J890193D01*
G01*
X57188994Y92313342D02*
G75*
G02X55433100Y92298700I-889894J1425358D01*
G01*
X57724458Y94628594D02*
G75*
G02X57739100Y92872700I-1425358J-889894D01*
G01*
X56270426Y95418799D02*
G75*
G02X57165100Y95178700I28674J-1680099D01*
G01*
X54479100Y93738700D02*
G75*
G03X54479100Y93738700I-1680000J0D01*
G01*
X58109100Y97838700D02*
X50989100Y97838700D01*
X58109100Y96738700D02*
X50989100Y96738700D01*
X58109100Y90578700D02*
X50989100Y90578700D01*
X58109100Y98298700D02*
X50989100Y98298700D01*
X58109100Y90578700D02*
X58109100Y98298700D01*
X50989100Y90578700D02*
X50989100Y98298700D01*
X51524100Y92669700D02*
X51653100Y92797700D01*
X53774100Y94919700D02*
X53868100Y95012700D01*
X51729100Y92463700D02*
X51823100Y92557700D01*
X53944100Y94679700D02*
X54073100Y94807700D01*
X58349100Y97898700D02*
X58349100Y98538700D01*
X58349100Y98538700D02*
X57949100Y98538700D01*
X13855864Y3744179D02*
G75*
G02X12965600Y3488900I-890264J1424721D01*
G01*
X14391105Y6059093D02*
G75*
G02X14390600Y4277900I-1425505J-890193D01*
G01*
X12075706Y6594258D02*
G75*
G02X13831600Y6608900I889894J-1425358D01*
G01*
X11540242Y4279006D02*
G75*
G02X11525600Y6034900I1425358J889894D01*
G01*
X12994274Y3488801D02*
G75*
G02X12099600Y3728900I-28674J1680099D01*
G01*
X18145600Y5168900D02*
G75*
G03X18145600Y5168900I-1680000J0D01*
G01*
X11155600Y1068900D02*
X18275600Y1068900D01*
X11155600Y2168900D02*
X18275600Y2168900D01*
X11155600Y8328900D02*
X18275600Y8328900D01*
X11155600Y608900D02*
X18275600Y608900D01*
X11155600Y8328900D02*
X11155600Y608900D01*
X18275600Y8328900D02*
X18275600Y608900D01*
X17740600Y6237900D02*
X17611600Y6109900D01*
X15490600Y3987900D02*
X15396600Y3894900D01*
X17535600Y6443900D02*
X17441600Y6349900D01*
X15320600Y4227900D02*
X15191600Y4099900D01*
X10915600Y1008900D02*
X10915600Y368900D01*
X10915600Y368900D02*
X11315600Y368900D01*
X47186764Y3732279D02*
G75*
G02X46296500Y3477000I-890264J1424721D01*
G01*
X47722005Y6047193D02*
G75*
G02X47721500Y4266000I-1425505J-890193D01*
G01*
X45406606Y6582358D02*
G75*
G02X47162500Y6597000I889894J-1425358D01*
G01*
X44871142Y4267106D02*
G75*
G02X44856500Y6023000I1425358J889894D01*
G01*
X46325174Y3476901D02*
G75*
G02X45430500Y3717000I-28674J1680099D01*
G01*
X51476500Y5157000D02*
G75*
G03X51476500Y5157000I-1680000J0D01*
G01*
X44486500Y1057000D02*
X51606500Y1057000D01*
X44486500Y2157000D02*
X51606500Y2157000D01*
X44486500Y8317000D02*
X51606500Y8317000D01*
X44486500Y597000D02*
X51606500Y597000D01*
X44486500Y8317000D02*
X44486500Y597000D01*
X51606500Y8317000D02*
X51606500Y597000D01*
X51071500Y6226000D02*
X50942500Y6098000D01*
X48821500Y3976000D02*
X48727500Y3883000D01*
X50866500Y6432000D02*
X50772500Y6338000D01*
X48651500Y4216000D02*
X48522500Y4088000D01*
X44246500Y997000D02*
X44246500Y357000D01*
X44246500Y357000D02*
X44646500Y357000D01*
X55512764Y3732279D02*
G75*
G02X54622500Y3477000I-890264J1424721D01*
G01*
X56048005Y6047193D02*
G75*
G02X56047500Y4266000I-1425505J-890193D01*
G01*
X53732606Y6582358D02*
G75*
G02X55488500Y6597000I889894J-1425358D01*
G01*
X53197142Y4267106D02*
G75*
G02X53182500Y6023000I1425358J889894D01*
G01*
X54651174Y3476901D02*
G75*
G02X53756500Y3717000I-28674J1680099D01*
G01*
X59802500Y5157000D02*
G75*
G03X59802500Y5157000I-1680000J0D01*
G01*
X52812500Y1057000D02*
X59932500Y1057000D01*
X52812500Y2157000D02*
X59932500Y2157000D01*
X52812500Y8317000D02*
X59932500Y8317000D01*
X52812500Y597000D02*
X59932500Y597000D01*
X52812500Y8317000D02*
X52812500Y597000D01*
X59932500Y8317000D02*
X59932500Y597000D01*
X59397500Y6226000D02*
X59268500Y6098000D01*
X57147500Y3976000D02*
X57053500Y3883000D01*
X59192500Y6432000D02*
X59098500Y6338000D01*
X56977500Y4216000D02*
X56848500Y4088000D01*
X52572500Y997000D02*
X52572500Y357000D01*
X52572500Y357000D02*
X52972500Y357000D01*
X38774864Y3732279D02*
G75*
G02X37884600Y3477000I-890264J1424721D01*
G01*
X39310105Y6047193D02*
G75*
G02X39309600Y4266000I-1425505J-890193D01*
G01*
X36994706Y6582358D02*
G75*
G02X38750600Y6597000I889894J-1425358D01*
G01*
X36459242Y4267106D02*
G75*
G02X36444600Y6023000I1425358J889894D01*
G01*
X37913274Y3476901D02*
G75*
G02X37018600Y3717000I-28674J1680099D01*
G01*
X43064600Y5157000D02*
G75*
G03X43064600Y5157000I-1680000J0D01*
G01*
X36074600Y1057000D02*
X43194600Y1057000D01*
X36074600Y2157000D02*
X43194600Y2157000D01*
X36074600Y8317000D02*
X43194600Y8317000D01*
X36074600Y597000D02*
X43194600Y597000D01*
X36074600Y8317000D02*
X36074600Y597000D01*
X43194600Y8317000D02*
X43194600Y597000D01*
X42659600Y6226000D02*
X42530600Y6098000D01*
X40409600Y3976000D02*
X40315600Y3883000D01*
X42454600Y6432000D02*
X42360600Y6338000D01*
X40239600Y4216000D02*
X40110600Y4088000D01*
X35834600Y997000D02*
X35834600Y357000D01*
X35834600Y357000D02*
X36234600Y357000D01*
X22223963Y3740879D02*
G75*
G02X21333699Y3485600I-890264J1424721D01*
G01*
X22759204Y6055793D02*
G75*
G02X22758699Y4274600I-1425505J-890193D01*
G01*
X20443805Y6590958D02*
G75*
G02X22199699Y6605600I889894J-1425358D01*
G01*
X19908341Y4275706D02*
G75*
G02X19893699Y6031600I1425358J889894D01*
G01*
X21362373Y3485501D02*
G75*
G02X20467699Y3725600I-28674J1680099D01*
G01*
X26513699Y5165600D02*
G75*
G03X26513699Y5165600I-1680000J0D01*
G01*
X19523699Y1065600D02*
X26643699Y1065600D01*
X19523699Y2165600D02*
X26643699Y2165600D01*
X19523699Y8325600D02*
X26643699Y8325600D01*
X19523699Y605600D02*
X26643699Y605600D01*
X19523699Y8325600D02*
X19523699Y605600D01*
X26643699Y8325600D02*
X26643699Y605600D01*
X26108699Y6234600D02*
X25979699Y6106600D01*
X23858699Y3984600D02*
X23764699Y3891600D01*
X25903699Y6440600D02*
X25809699Y6346600D01*
X23688699Y4224600D02*
X23559699Y4096600D01*
X19283699Y1005600D02*
X19283699Y365600D01*
X19283699Y365600D02*
X19683699Y365600D01*
X12270736Y95341221D02*
G75*
G02X13161000Y95596500I890264J-1424721D01*
G01*
X11735495Y93026307D02*
G75*
G02X11736000Y94807500I1425505J890193D01*
G01*
X14050894Y92491142D02*
G75*
G02X12295000Y92476500I-889894J1425358D01*
G01*
X14586358Y94806394D02*
G75*
G02X14601000Y93050500I-1425358J-889894D01*
G01*
X13132326Y95596599D02*
G75*
G02X14027000Y95356500I28674J-1680099D01*
G01*
X11341000Y93916500D02*
G75*
G03X11341000Y93916500I-1680000J0D01*
G01*
X14971000Y98016500D02*
X7851000Y98016500D01*
X14971000Y96916500D02*
X7851000Y96916500D01*
X14971000Y90756500D02*
X7851000Y90756500D01*
X14971000Y98476500D02*
X7851000Y98476500D01*
X14971000Y90756500D02*
X14971000Y98476500D01*
X7851000Y90756500D02*
X7851000Y98476500D01*
X8386000Y92847500D02*
X8515000Y92975500D01*
X10636000Y95097500D02*
X10730000Y95190500D01*
X8591000Y92641500D02*
X8685000Y92735500D01*
X10806000Y94857500D02*
X10935000Y94985500D01*
X15211000Y98076500D02*
X15211000Y98716500D01*
X15211000Y98716500D02*
X14811000Y98716500D01*
X30556364Y3744179D02*
G75*
G02X29666100Y3488900I-890264J1424721D01*
G01*
X31091605Y6059093D02*
G75*
G02X31091100Y4277900I-1425505J-890193D01*
G01*
X28776206Y6594258D02*
G75*
G02X30532100Y6608900I889894J-1425358D01*
G01*
X28240742Y4279006D02*
G75*
G02X28226100Y6034900I1425358J889894D01*
G01*
X29694774Y3488801D02*
G75*
G02X28800100Y3728900I-28674J1680099D01*
G01*
X34846100Y5168900D02*
G75*
G03X34846100Y5168900I-1680000J0D01*
G01*
X27856100Y1068900D02*
X34976100Y1068900D01*
X27856100Y2168900D02*
X34976100Y2168900D01*
X27856100Y8328900D02*
X34976100Y8328900D01*
X27856100Y608900D02*
X34976100Y608900D01*
X27856100Y8328900D02*
X27856100Y608900D01*
X34976100Y8328900D02*
X34976100Y608900D01*
X34441100Y6237900D02*
X34312100Y6109900D01*
X32191100Y3987900D02*
X32097100Y3894900D01*
X34236100Y6443900D02*
X34142100Y6349900D01*
X32021100Y4227900D02*
X31892100Y4099900D01*
X27616100Y1008900D02*
X27616100Y368900D01*
X27616100Y368900D02*
X28016100Y368900D01*
X76329750Y73755250D02*
X76329750Y74542750D01*
X76723500Y74149000D02*
X75936000Y74149000D01*
X75696000Y78342063D02*
X74631563Y79406500D01*
X75696000Y73650937D02*
X74631563Y72586500D01*
X75696000Y73650937D02*
X75696000Y74936500D01*
X75696000Y78342063D02*
X75696000Y77056500D01*
X74631563Y79406500D02*
X68876000Y79406500D01*
X74631563Y72586500D02*
X68876000Y72586500D01*
X68876000Y72586500D02*
X68876000Y74936500D01*
X68876000Y79406500D02*
X68876000Y77056500D01*
X16877250Y59647750D02*
X16877250Y58860250D01*
X16483500Y59254000D02*
X17271000Y59254000D01*
X17511000Y55060937D02*
X18575437Y53996500D01*
X17511000Y59752063D02*
X18575437Y60816500D01*
X17511000Y59752063D02*
X17511000Y58466500D01*
X17511000Y55060937D02*
X17511000Y56346500D01*
X18575437Y53996500D02*
X24331000Y53996500D01*
X18575437Y60816500D02*
X24331000Y60816500D01*
X24331000Y60816500D02*
X24331000Y58466500D01*
X24331000Y53996500D02*
X24331000Y56346500D01*
X76454750Y30780250D02*
X76454750Y31567750D01*
X76848500Y31174000D02*
X76061000Y31174000D01*
X75821000Y35367063D02*
X74756563Y36431500D01*
X75821000Y30675937D02*
X74756563Y29611500D01*
X75821000Y30675937D02*
X75821000Y31961500D01*
X75821000Y35367063D02*
X75821000Y34081500D01*
X74756563Y36431500D02*
X69001000Y36431500D01*
X74756563Y29611500D02*
X69001000Y29611500D01*
X69001000Y29611500D02*
X69001000Y31961500D01*
X69001000Y36431500D02*
X69001000Y34081500D01*
X44452250Y75440250D02*
X43664750Y75440250D01*
X44058500Y75834000D02*
X44058500Y75046500D01*
X39865437Y74806500D02*
X38801000Y73742063D01*
X44556563Y74806500D02*
X45621000Y73742063D01*
X44556563Y74806500D02*
X43271000Y74806500D01*
X39865437Y74806500D02*
X41151000Y74806500D01*
X38801000Y73742063D02*
X38801000Y67986500D01*
X45621000Y73742063D02*
X45621000Y67986500D01*
X45621000Y67986500D02*
X43271000Y67986500D01*
X38801000Y67986500D02*
X41151000Y67986500D01*
X76404750Y55105250D02*
X76404750Y55892750D01*
X76798500Y55499000D02*
X76011000Y55499000D01*
X75771000Y59692063D02*
X74706563Y60756500D01*
X75771000Y55000937D02*
X74706563Y53936500D01*
X75771000Y55000937D02*
X75771000Y56286500D01*
X75771000Y59692063D02*
X75771000Y58406500D01*
X74706563Y60756500D02*
X68951000Y60756500D01*
X74706563Y53936500D02*
X68951000Y53936500D01*
X68951000Y53936500D02*
X68951000Y56286500D01*
X68951000Y60756500D02*
X68951000Y58406500D01*
X47832000Y43058000D02*
X47832000Y44388000D01*
X49162000Y43058000D02*
X47832000Y43058000D01*
X50432000Y43058000D02*
X50432000Y45718000D01*
X50432000Y45718000D02*
X53032000Y45718000D01*
X50432000Y43058000D02*
X53032000Y43058000D01*
X53032000Y43058000D02*
X53032000Y45718000D01*
X47844700Y34637900D02*
X47844700Y35967900D01*
X49174700Y34637900D02*
X47844700Y34637900D01*
X50444700Y34637900D02*
X50444700Y37297900D01*
X50444700Y37297900D02*
X53044700Y37297900D01*
X50444700Y34637900D02*
X53044700Y34637900D01*
X53044700Y34637900D02*
X53044700Y37297900D01*
X58087400Y17664700D02*
X56757400Y17664700D01*
X58087400Y18994700D02*
X58087400Y17664700D01*
X58087400Y20264700D02*
X55427400Y20264700D01*
X55427400Y20264700D02*
X55427400Y22864700D01*
X58087400Y20264700D02*
X58087400Y22864700D01*
X58087400Y22864700D02*
X55427400Y22864700D01*
X58087400Y11086100D02*
X56757400Y11086100D01*
X58087400Y12416100D02*
X58087400Y11086100D01*
X58087400Y13686100D02*
X55427400Y13686100D01*
X55427400Y13686100D02*
X55427400Y16286100D01*
X58087400Y13686100D02*
X58087400Y16286100D01*
X58087400Y16286100D02*
X55427400Y16286100D01*
X55566300Y43032600D02*
X55566300Y44362600D01*
X56896300Y43032600D02*
X55566300Y43032600D01*
X58166300Y43032600D02*
X58166300Y45692600D01*
X58166300Y45692600D02*
X60766300Y45692600D01*
X58166300Y43032600D02*
X60766300Y43032600D01*
X60766300Y43032600D02*
X60766300Y45692600D01*
X47832000Y51440000D02*
X47832000Y52770000D01*
X49162000Y51440000D02*
X47832000Y51440000D01*
X50432000Y51440000D02*
X50432000Y54100000D01*
X50432000Y54100000D02*
X53032000Y54100000D01*
X50432000Y51440000D02*
X53032000Y51440000D01*
X53032000Y51440000D02*
X53032000Y54100000D01*
X11408600Y30771900D02*
X11408600Y32101900D01*
X12738600Y30771900D02*
X11408600Y30771900D01*
X14008600Y30771900D02*
X14008600Y33431900D01*
X14008600Y33431900D02*
X16608600Y33431900D01*
X14008600Y30771900D02*
X16608600Y30771900D01*
X16608600Y30771900D02*
X16608600Y33431900D01*
X55604400Y51440000D02*
X55604400Y52770000D01*
X56934400Y51440000D02*
X55604400Y51440000D01*
X58204400Y51440000D02*
X58204400Y54100000D01*
X58204400Y54100000D02*
X60804400Y54100000D01*
X58204400Y51440000D02*
X60804400Y51440000D01*
X60804400Y51440000D02*
X60804400Y54100000D01*
X58112800Y24205200D02*
X56782800Y24205200D01*
X58112800Y25535200D02*
X58112800Y24205200D01*
X58112800Y26805200D02*
X55452800Y26805200D01*
X55452800Y26805200D02*
X55452800Y29405200D01*
X58112800Y26805200D02*
X58112800Y29405200D01*
X58112800Y29405200D02*
X55452800Y29405200D01*
X11446700Y39293600D02*
X11446700Y40623600D01*
X12776700Y39293600D02*
X11446700Y39293600D01*
X14046700Y39293600D02*
X14046700Y41953600D01*
X14046700Y41953600D02*
X16646700Y41953600D01*
X14046700Y39293600D02*
X16646700Y39293600D01*
X16646700Y39293600D02*
X16646700Y41953600D01*
X11522900Y22186700D02*
X11522900Y23516700D01*
X12852900Y22186700D02*
X11522900Y22186700D01*
X14122900Y22186700D02*
X14122900Y24846700D01*
X14122900Y24846700D02*
X16722900Y24846700D01*
X14122900Y22186700D02*
X16722900Y22186700D01*
X16722900Y22186700D02*
X16722900Y24846700D01*
X78165000Y5775000D02*
X78165000Y4445000D01*
X76835000Y5775000D02*
X78165000Y5775000D01*
X75565000Y5775000D02*
X75565000Y3115000D01*
X75565000Y3115000D02*
X70425000Y3115000D01*
X75565000Y5775000D02*
X70425000Y5775000D01*
X70425000Y5775000D02*
X70425000Y3115000D01*
X91608600Y48459700D02*
X92938600Y48459700D01*
X91608600Y47129700D02*
X91608600Y48459700D01*
X91608600Y45859700D02*
X94268600Y45859700D01*
X94268600Y45859700D02*
X94268600Y38179700D01*
X91608600Y45859700D02*
X91608600Y38179700D01*
X91608600Y38179700D02*
X94268600Y38179700D01*
X90231000Y71856500D02*
X91561000Y71856500D01*
X90231000Y70526500D02*
X90231000Y71856500D01*
X90231000Y69256500D02*
X92891000Y69256500D01*
X92891000Y69256500D02*
X92891000Y61576500D01*
X90231000Y69256500D02*
X90231000Y61576500D01*
X90231000Y61576500D02*
X92891000Y61576500D01*
X95431000Y69406500D02*
X96761000Y69406500D01*
X95431000Y68076500D02*
X95431000Y69406500D01*
X95431000Y66806500D02*
X98091000Y66806500D01*
X98091000Y66806500D02*
X98091000Y59126500D01*
X95431000Y66806500D02*
X95431000Y59126500D01*
X95431000Y59126500D02*
X98091000Y59126500D01*
X91608600Y23415300D02*
X92938600Y23415300D01*
X91608600Y22085300D02*
X91608600Y23415300D01*
X91608600Y20815300D02*
X94268600Y20815300D01*
X94268600Y20815300D02*
X94268600Y13135300D01*
X91608600Y20815300D02*
X91608600Y13135300D01*
X91608600Y13135300D02*
X94268600Y13135300D01*
X6235800Y62914900D02*
X4905800Y62914900D01*
X6235800Y64244900D02*
X6235800Y62914900D01*
X6235800Y65514900D02*
X3575800Y65514900D01*
X3575800Y65514900D02*
X3575800Y73194900D01*
X6235800Y65514900D02*
X6235800Y73194900D01*
X6235800Y73194900D02*
X3575800Y73194900D01*
X23991000Y27766500D02*
X22661000Y27766500D01*
X23991000Y29096500D02*
X23991000Y27766500D01*
X23991000Y30366500D02*
X21331000Y30366500D01*
X21331000Y30366500D02*
X21331000Y38046500D01*
X23991000Y30366500D02*
X23991000Y38046500D01*
X23991000Y38046500D02*
X21331000Y38046500D01*
X19807800Y93884500D02*
X19807800Y95214500D01*
X21137800Y93884500D02*
X19807800Y93884500D01*
X22407800Y93884500D02*
X22407800Y96544500D01*
X22407800Y96544500D02*
X30087800Y96544500D01*
X22407800Y93884500D02*
X30087800Y93884500D01*
X30087800Y93884500D02*
X30087800Y96544500D01*
D10*
X42111699Y43511100D02*
X43461699Y43511100D01*
X42111699Y48636100D02*
X37461699Y48636100D01*
X42111699Y43386100D02*
X37461699Y43386100D01*
X42111699Y48636100D02*
X42111699Y48411100D01*
X37461699Y48636100D02*
X37461699Y48411100D01*
X37461699Y43386100D02*
X37461699Y43611100D01*
X42111699Y43386100D02*
X42111699Y43511100D01*
X33259301Y35862900D02*
X31909301Y35862900D01*
X33259301Y30737900D02*
X37909301Y30737900D01*
X33259301Y35987900D02*
X37909301Y35987900D01*
X33259301Y30737900D02*
X33259301Y30962900D01*
X37909301Y30737900D02*
X37909301Y30962900D01*
X37909301Y35987900D02*
X37909301Y35762900D01*
X33259301Y35987900D02*
X33259301Y35862900D01*
X25098901Y44753600D02*
X23748901Y44753600D01*
X25098901Y39628600D02*
X29748901Y39628600D01*
X25098901Y44878600D02*
X29748901Y44878600D01*
X25098901Y39628600D02*
X25098901Y39853600D01*
X29748901Y39628600D02*
X29748901Y39853600D01*
X29748901Y44878600D02*
X29748901Y44653600D01*
X25098901Y44878600D02*
X25098901Y44753600D01*
D15*
X31604000Y9765000D02*
X32534000Y9765000D01*
X34764000Y9765000D02*
X33834000Y9765000D01*
X34764000Y9765000D02*
X34764000Y11925000D01*
X31604000Y9765000D02*
X31604000Y11225000D01*
X23288000Y9797000D02*
X24218000Y9797000D01*
X26448000Y9797000D02*
X25518000Y9797000D01*
X26448000Y9797000D02*
X26448000Y11957000D01*
X23288000Y9797000D02*
X23288000Y11257000D01*
X14967000Y9765000D02*
X15897000Y9765000D01*
X18127000Y9765000D02*
X17197000Y9765000D01*
X18127000Y9765000D02*
X18127000Y11925000D01*
X14967000Y9765000D02*
X14967000Y11225000D01*
X39886000Y9715000D02*
X40816000Y9715000D01*
X43046000Y9715000D02*
X42116000Y9715000D01*
X43046000Y9715000D02*
X43046000Y11875000D01*
X39886000Y9715000D02*
X39886000Y11175000D01*
X42744700Y83495871D02*
X42944700Y83495871D01*
X42944700Y83495871D02*
X42944700Y87795871D01*
X42944700Y87795871D02*
X42794700Y87795871D01*
X37894700Y87795871D02*
X37744700Y87795871D01*
X37744700Y87795871D02*
X37744700Y83495871D01*
X37744700Y83495871D02*
X37944700Y83495871D01*
X54949400Y83290271D02*
X55149400Y83290271D01*
X55149400Y83290271D02*
X55149400Y87590271D01*
X55149400Y87590271D02*
X54999400Y87590271D01*
X50099400Y87590271D02*
X49949400Y87590271D01*
X49949400Y87590271D02*
X49949400Y83290271D01*
X49949400Y83290271D02*
X50149400Y83290271D01*
M02*
