M48
;DRILL file {KiCad 6.0.0-rc1-unknown-879ffa4~65~ubuntu18.04.1} date Thu Jul 19 21:47:28 2018
;FORMAT={-:-/ absolute / metric / decimal}
FMAT,2
METRIC,TZ
T1C0.305
T2C0.381
T3C0.508
T4C0.762
T5C1.000
T6C1.016
T7C1.200
T8C1.300
T9C3.200
%
G90
G05
M71
T1
X21.55Y-31.45
X22.45Y-31.45
X23.25Y-31.45
X26.8Y-58.275
X28.1Y-41.7
X28.55Y-71.4
X28.55Y-101.
X28.825Y-58.05
X28.825Y-62.425
X29.2Y-50.6
X29.2Y-53.3
X29.4Y-49.5
X29.55Y-58.6
X29.55Y-76.1
X29.85Y-46.9
X29.9Y-47.6
X29.9Y-48.35
X29.9Y-49.05
X29.983Y-50.357
X30.35Y-46.45
X31.55Y-31.5
X31.6Y-40.4
X31.6Y-41.5
X31.875Y-29.375
X31.95Y-59.075
X32.063Y-48.047
X32.063Y-50.047
X32.45Y-44.25
X32.45Y-54.05
X32.825Y-39.475
X33.1Y-60.2
X34.3Y-60.2
X35.1Y-29.3
X35.3Y-32.3
X35.3Y-74.8
X35.3Y-83.3
X35.3Y-91.9
X35.35Y-31.3
X35.7Y-105.8
X35.95Y-97.8
X35.95Y-102.95
X36.425Y-29.4
X36.8Y-100.2
X36.8Y-102.3
X37.45Y-54.15
X37.975Y-27.8
X38.85Y-48.8
X39.15Y-37.8
X39.5Y-46.35
X39.9Y-40.6
X39.9Y-41.6
X39.9Y-55.4
X39.9Y-56.5
X40.Y-37.8
X40.2Y-48.8
X40.463Y-50.047
X40.463Y-51.047
X40.65Y-62.7
X41.2Y-35.25
X41.6Y-30.3
X41.7Y-54.1
X41.95Y-27.175
X42.525Y-43.609
X42.85Y-62.35
X42.85Y-72.25
X43.25Y-47.95
X43.5Y-75.8
X43.5Y-77.8
X43.6Y-73.8
X43.861Y-89.636
X44.1Y-105.8
X44.25Y-102.8
X44.346Y-38.392
X44.6Y-27.2
X44.902Y-28.004
X45.346Y-29.992
X45.367Y-38.424
X45.412Y-91.008
X45.45Y-77.1
X45.75Y-27.55
X45.95Y-48.1
X45.95Y-75.15
X46.25Y-76.45
X46.35Y-27.9
X46.6Y-36.8
X46.6Y-38.15
X46.8Y-41.35
X47.05Y-27.85
X47.18Y-64.438
X47.346Y-29.992
X47.5Y-54.65
X47.75Y-43.85
X47.839Y-27.999
X48.4Y-41.3
X48.4Y-77.1
X48.4Y-93.2
X48.5Y-44.55
X48.534Y-27.913
X48.6Y-72.2
X48.7Y-45.35
X49.05Y-29.
X49.05Y-37.5
X49.05Y-96.462
X49.5Y-66.2
X49.992Y-51.65
X50.1Y-86.85
X50.35Y-30.3
X50.5Y-47.35
X50.65Y-78.162
X50.65Y-89.458
X50.75Y-42.9
X51.Y-67.8
X51.05Y-51.05
X51.05Y-66.95
X51.2Y-74.5
X51.2Y-76.4
X51.65Y-83.4
X51.75Y-86.3
X52.4Y-105.8
X52.6Y-75.3
X52.7Y-67.8
X52.75Y-47.95
X52.75Y-65.2
X53.5Y-37.85
X53.65Y-26.25
X53.7Y-46.65
X53.7Y-75.8
X53.7Y-84.7
X53.8Y-78.1
X54.Y-29.25
X54.15Y-85.45
X54.3Y-84.05
X54.4Y-101.8
X54.55Y-37.85
X54.8Y-46.5
X55.05Y-29.25
X55.308Y-66.95
X55.308Y-70.75
X55.4Y-85.95
X55.45Y-78.8
X55.65Y-45.7
X55.65Y-63.45
X55.783Y-89.814
X55.9Y-101.7
X56.Y-80.55
X56.Y-83.542
X56.25Y-30.55
X56.486Y-67.992
X56.6Y-43.55
X56.8Y-46.05
X56.831Y-44.362
X56.992Y-45.35
X57.25Y-80.3
X57.5Y-43.25
X57.5Y-68.5
X58.Y-89.458
X58.021Y-42.845
X58.05Y-71.35
X58.4Y-72.7
X58.4Y-74.55
X58.7Y-75.6
X59.35Y-72.1
X59.35Y-74.692
X59.35Y-84.7
X59.35Y-86.7
X59.45Y-81.1
X60.7Y-105.85
X61.5Y-41.05
X61.5Y-78.1
X62.142Y-82.6
X62.25Y-41.1
X62.65Y-85.
X63.05Y-41.1
X63.25Y-103.3
X63.5Y-70.
X63.6Y-72.3
X63.6Y-73.
X63.75Y-62.35
X64.2Y-68.35
X64.2Y-71.4
X64.45Y-74.
X64.45Y-83.75
X64.85Y-85.
X64.85Y-108.15
X65.65Y-76.4
X65.65Y-107.
X66.6Y-45.35
X66.65Y-53.95
X67.5Y-21.35
X68.7Y-21.35
X70.4Y-103.3
X71.6Y-62.85
X71.6Y-71.25
X73.2Y-85.35
X73.2Y-90.5
X74.2Y-98.95
X74.4Y-82.75
X74.4Y-95.7
X74.45Y-41.05
X75.3Y-82.242
X75.75Y-52.3
X77.35Y-44.2
X78.25Y-87.25
X78.3Y-51.7
X78.65Y-88.95
X78.65Y-95.55
X78.65Y-102.15
X79.25Y-21.125
X79.4Y-62.75
X79.5Y-71.15
X80.5Y-21.125
X80.5Y-100.9
X80.65Y-43.65
X80.85Y-51.65
X82.Y-79.1
X82.25Y-85.35
X84.55Y-55.1
X86.3Y-40.8
X87.6Y-82.85
X87.85Y-50.25
X88.3Y-51.4
X88.3Y-82.3
X88.85Y-48.85
X88.85Y-50.55
X88.9Y-71.95
X88.9Y-80.25
X88.95Y-51.75
X88.95Y-70.4
X89.35Y-99.
X89.45Y-75.2
X89.5Y-68.65
X89.5Y-72.65
X89.75Y-46.2
X89.888Y-97.925
X89.95Y-106.6
X90.019Y-58.
X90.3Y-52.3
X90.374Y-56.906
X90.65Y-79.95
X90.808Y-52.899
X90.808Y-56.257
X90.85Y-78.9
X90.85Y-105.1
X91.029Y-92.25
X91.3Y-104.
X91.316Y-53.95
X91.564Y-78.162
X91.75Y-103.15
X91.8Y-74.627
X92.258Y-100.007
X92.284Y-51.934
X92.614Y-97.9
X92.95Y-96.8
X93.Y-72.5
X93.532Y-50.924
X94.3Y-49.7
X94.35Y-21.525
X94.55Y-52.6
X94.6Y-102.25
X95.55Y-21.525
X97.303Y-49.556
X97.348Y-99.007
X97.348Y-100.007
X97.487Y-73.627
X97.487Y-74.627
X97.5Y-50.254
X97.8Y-101.3
X97.9Y-93.3
X97.9Y-94.4
X97.9Y-108.2
X97.9Y-109.2
X97.95Y-51.55
X97.95Y-75.85
X98.05Y-43.65
X98.05Y-44.8
X98.05Y-58.35
X98.05Y-59.5
X98.05Y-82.7
X98.05Y-83.9
X98.1Y-67.75
X98.1Y-68.9
X98.3Y-103.65
X98.45Y-53.9
X98.45Y-78.3
X98.95Y-75.85
X98.95Y-101.3
X99.1Y-51.55
X100.4Y-95.85
X100.55Y-46.05
X100.55Y-70.45
X102.1Y-36.1
X103.4Y-89.65
X103.5Y-64.25
X103.55Y-62.2
X103.65Y-40.
X104.55Y-89.65
X104.65Y-64.25
X104.7Y-62.2
X104.8Y-85.9
X104.85Y-40.
X105.1Y-110.9
X105.4Y-105.6
X105.5Y-46.1
X105.55Y-55.85
X105.55Y-80.25
X105.55Y-95.875
X105.613Y-50.605
X105.65Y-70.625
X105.748Y-100.007
X105.748Y-102.007
X105.887Y-74.627
X105.887Y-76.627
X105.9Y-52.254
X106.Y-65.65
X106.Y-90.75
X106.15Y-60.7
X106.3Y-41.75
X106.3Y-83.35
X106.3Y-84.5
X106.5Y-108.3
X106.5Y-109.4
X107.35Y-103.65
X107.45Y-53.9
X107.6Y-59.25
X107.65Y-78.25
X107.761Y-103.09
X107.821Y-102.334
X107.838Y-101.674
X107.861Y-99.85
X107.9Y-42.6
X107.9Y-101.
X107.95Y-77.
X108.Y-53.35
X108.05Y-52.65
X108.05Y-77.7
X108.095Y-49.995
X108.1Y-51.95
X108.1Y-93.15
X108.207Y-100.412
X108.25Y-51.3
X108.25Y-74.556
X108.25Y-75.7
X108.25Y-76.4
X108.259Y-50.635
X108.5Y-96.9
X108.6Y-99.7
X108.65Y-47.
X108.65Y-75.15
X108.75Y-71.65
X108.9Y-50.2
X108.95Y-74.4
X109.325Y-62.225
X109.475Y-107.125
X109.625Y-67.725
X109.925Y-60.175
X110.05Y-81.775
X116.075Y-44.5
X116.125Y-41.75
T2
X33.3Y-47.25
X33.3Y-48.1
X33.3Y-48.95
X33.3Y-49.75
X33.3Y-50.55
X33.3Y-51.35
X34.1Y-47.25
X34.1Y-48.1
X34.1Y-48.95
X34.1Y-49.75
X34.1Y-50.55
X34.1Y-51.35
X34.9Y-47.25
X34.9Y-48.1
X34.9Y-48.95
X34.9Y-49.75
X34.9Y-50.55
X34.9Y-51.35
X35.55Y-42.05
X35.55Y-42.7
X35.55Y-43.35
X35.55Y-44.
X35.6Y-54.6
X35.6Y-55.25
X35.6Y-55.9
X35.6Y-56.55
X35.7Y-47.25
X35.7Y-48.1
X35.7Y-48.95
X35.7Y-49.75
X35.7Y-50.55
X35.7Y-51.35
X36.5Y-47.25
X36.5Y-48.1
X36.5Y-48.95
X36.5Y-49.75
X36.5Y-50.55
X36.5Y-51.35
X37.05Y-65.7
X37.3Y-47.25
X37.3Y-48.1
X37.3Y-48.95
X37.3Y-49.75
X37.3Y-50.55
X37.3Y-51.35
X38.7Y-33.5
X39.35Y-33.5
X40.Y-33.5
X40.65Y-33.5
X44.1Y-31.15
X44.1Y-32.
X44.1Y-32.85
X44.1Y-33.65
X44.1Y-34.45
X44.1Y-35.25
X44.9Y-31.15
X44.9Y-32.
X44.9Y-32.85
X44.9Y-33.65
X44.9Y-34.45
X44.9Y-35.25
X45.7Y-31.15
X45.7Y-32.
X45.7Y-32.85
X45.7Y-33.65
X45.7Y-34.45
X45.7Y-35.25
X46.5Y-31.15
X46.5Y-32.
X46.5Y-32.85
X46.5Y-33.65
X46.5Y-34.45
X46.5Y-35.25
X47.3Y-31.15
X47.3Y-32.
X47.3Y-32.85
X47.3Y-33.65
X47.3Y-34.45
X47.3Y-35.25
X48.1Y-31.15
X48.1Y-32.
X48.1Y-32.85
X48.1Y-33.65
X48.1Y-34.45
X48.1Y-35.25
X51.4Y-33.5
X52.05Y-33.5
X52.7Y-33.5
X53.35Y-33.5
X58.35Y-35.1
X58.35Y-35.75
X58.6Y-29.35
X58.6Y-30.2
X58.6Y-31.05
X58.6Y-31.9
X58.6Y-32.75
X59.45Y-29.35
X59.45Y-30.2
X59.45Y-31.05
X59.45Y-31.9
X59.45Y-32.75
X59.65Y-35.1
X59.65Y-35.75
X60.3Y-29.35
X60.3Y-30.2
X60.3Y-31.05
X60.3Y-31.9
X60.3Y-32.75
X60.9Y-35.1
X60.9Y-35.75
X61.15Y-29.35
X61.15Y-30.2
X61.15Y-31.05
X61.15Y-31.9
X61.15Y-32.75
X62.Y-29.35
X62.Y-30.2
X62.Y-31.05
X62.Y-31.9
X62.Y-32.75
X70.6Y-35.35
X70.6Y-36.
X70.8Y-29.6
X70.8Y-30.45
X70.8Y-31.3
X70.8Y-32.15
X70.8Y-33.
X71.65Y-29.6
X71.65Y-30.45
X71.65Y-31.3
X71.65Y-32.15
X71.65Y-33.
X71.9Y-35.35
X71.9Y-36.
X72.5Y-29.6
X72.5Y-30.45
X72.5Y-31.3
X72.5Y-32.15
X72.5Y-33.
X73.1Y-35.35
X73.1Y-36.
X73.35Y-29.6
X73.35Y-30.45
X73.35Y-31.3
X73.35Y-32.15
X73.35Y-33.
X74.2Y-29.6
X74.2Y-30.45
X74.2Y-31.3
X74.2Y-32.15
X74.2Y-33.
X82.55Y-36.65
X82.55Y-37.3
X82.6Y-31.4
X82.6Y-32.3
X82.6Y-33.2
X82.6Y-34.1
X82.6Y-35.
X83.5Y-31.4
X83.5Y-32.3
X83.5Y-33.2
X83.5Y-34.1
X83.5Y-35.
X83.8Y-36.65
X83.8Y-37.3
X84.4Y-31.4
X84.4Y-32.3
X84.4Y-33.2
X84.4Y-34.1
X84.4Y-35.
X85.1Y-36.65
X85.1Y-37.3
X85.3Y-31.4
X85.3Y-32.3
X85.3Y-33.2
X85.3Y-34.1
X85.3Y-35.
X86.2Y-31.4
X86.2Y-32.3
X86.2Y-33.2
X86.2Y-34.1
X86.2Y-35.
X94.1Y-71.3
X100.55Y-98.65
X100.55Y-99.5
X100.55Y-100.35
X100.55Y-101.15
X100.55Y-101.95
X100.55Y-102.75
X100.65Y-48.9
X100.65Y-49.75
X100.65Y-50.6
X100.65Y-51.4
X100.65Y-52.2
X100.65Y-53.
X100.65Y-73.3
X100.65Y-74.15
X100.65Y-75.
X100.65Y-75.8
X100.65Y-76.6
X100.65Y-77.4
X101.35Y-98.65
X101.35Y-99.5
X101.35Y-100.35
X101.35Y-101.15
X101.35Y-101.95
X101.35Y-102.75
X101.45Y-48.9
X101.45Y-49.75
X101.45Y-50.6
X101.45Y-51.4
X101.45Y-52.2
X101.45Y-53.
X101.45Y-73.3
X101.45Y-74.15
X101.45Y-75.
X101.45Y-75.8
X101.45Y-76.6
X101.45Y-77.4
X102.15Y-98.65
X102.15Y-99.5
X102.15Y-100.35
X102.15Y-101.15
X102.15Y-101.95
X102.15Y-102.75
X102.25Y-48.9
X102.25Y-49.75
X102.25Y-50.6
X102.25Y-51.4
X102.25Y-52.2
X102.25Y-53.
X102.25Y-73.3
X102.25Y-74.15
X102.25Y-75.
X102.25Y-75.8
X102.25Y-76.6
X102.25Y-77.4
X102.25Y-93.45
X102.25Y-94.1
X102.25Y-94.75
X102.25Y-95.4
X102.25Y-106.1
X102.25Y-106.75
X102.25Y-107.4
X102.25Y-108.05
X102.35Y-43.7
X102.35Y-44.35
X102.35Y-45.
X102.35Y-45.65
X102.4Y-56.3
X102.4Y-56.95
X102.4Y-57.6
X102.4Y-58.25
X102.4Y-68.1
X102.4Y-68.75
X102.4Y-69.4
X102.4Y-70.05
X102.4Y-80.75
X102.4Y-81.4
X102.4Y-82.05
X102.4Y-82.7
X102.95Y-98.65
X102.95Y-99.5
X102.95Y-100.35
X102.95Y-101.15
X102.95Y-101.95
X102.95Y-102.75
X103.05Y-48.9
X103.05Y-49.75
X103.05Y-50.6
X103.05Y-51.4
X103.05Y-52.2
X103.05Y-53.
X103.05Y-73.3
X103.05Y-74.15
X103.05Y-75.
X103.05Y-75.8
X103.05Y-76.6
X103.05Y-77.4
X103.75Y-98.65
X103.75Y-99.5
X103.75Y-100.35
X103.75Y-101.15
X103.75Y-101.95
X103.75Y-102.75
X103.85Y-48.9
X103.85Y-49.75
X103.85Y-50.6
X103.85Y-51.4
X103.85Y-52.2
X103.85Y-53.
X103.85Y-73.3
X103.85Y-74.15
X103.85Y-75.
X103.85Y-75.8
X103.85Y-76.6
X103.85Y-77.4
X104.55Y-98.65
X104.55Y-99.5
X104.55Y-100.35
X104.55Y-101.15
X104.55Y-101.95
X104.55Y-102.75
X104.65Y-48.9
X104.65Y-49.75
X104.65Y-50.6
X104.65Y-51.4
X104.65Y-52.2
X104.65Y-53.
X104.65Y-73.3
X104.65Y-74.15
X104.65Y-75.
X104.65Y-75.8
X104.65Y-76.6
X104.65Y-77.4
T3
X41.3Y-39.575
X43.025Y-59.425
X44.Y-45.775
X44.25Y-59.425
X44.325Y-43.95
X46.025Y-44.125
X49.301Y-39.514
X88.95Y-111.1
X89.3Y-59.55
X89.35Y-61.9
X89.55Y-40.85
X89.55Y-43.275
X93.425Y-65.5
X94.45Y-76.9
X94.675Y-80.775
X94.7Y-105.8
X96.1Y-54.5
T4
X22.96Y-63.43
X22.96Y-65.97
X22.96Y-68.51
X22.96Y-71.05
X22.96Y-73.59
X22.96Y-76.13
X22.96Y-78.67
X22.96Y-81.21
X22.96Y-83.75
X22.96Y-86.29
X22.96Y-88.83
X22.96Y-91.37
X22.96Y-93.91
X22.96Y-96.45
X22.96Y-98.99
X22.96Y-101.53
X22.96Y-104.07
X22.96Y-106.61
X22.96Y-109.15
X25.5Y-63.43
X25.5Y-65.97
X25.5Y-68.51
X25.5Y-71.05
X25.5Y-73.59
X25.5Y-76.13
X25.5Y-78.67
X25.5Y-81.21
X25.5Y-83.75
X25.5Y-86.29
X25.5Y-88.83
X25.5Y-91.37
X25.5Y-93.91
X25.5Y-96.45
X25.5Y-98.99
X25.5Y-101.53
X25.5Y-104.07
X25.5Y-106.61
X25.5Y-109.15
X83.92Y-63.43
X83.92Y-65.97
X83.92Y-68.51
X83.92Y-71.05
X83.92Y-73.59
X83.92Y-76.13
X83.92Y-78.67
X83.92Y-81.21
X83.92Y-83.75
X83.92Y-86.29
X83.92Y-88.83
X83.92Y-91.37
X83.92Y-93.91
X83.92Y-96.45
X83.92Y-98.99
X83.92Y-101.53
X83.92Y-104.07
X83.92Y-106.61
X83.92Y-109.15
X86.46Y-63.43
X86.46Y-65.97
X86.46Y-68.51
X86.46Y-71.05
X86.46Y-73.59
X86.46Y-76.13
X86.46Y-78.67
X86.46Y-81.21
X86.46Y-83.75
X86.46Y-86.29
X86.46Y-88.83
X86.46Y-91.37
X86.46Y-93.91
X86.46Y-96.45
X86.46Y-98.99
X86.46Y-101.53
X86.46Y-104.07
X86.46Y-106.61
X86.46Y-109.15
T5
X91.694Y-113.602
X94.234Y-113.602
X96.774Y-113.602
X106.96Y-115.3
X109.5Y-115.3
X112.878Y-70.917
X112.878Y-73.457
X112.878Y-75.997
X112.878Y-78.537
X41.077Y-22.832
X43.617Y-22.832
X46.157Y-22.832
X48.697Y-22.832
X76.835Y-73.684
X79.375Y-73.684
X32.678Y-85.945
X35.218Y-85.945
X69.114Y-82.079
X71.654Y-82.079
X111.5Y-47.52
X111.5Y-50.06
X111.5Y-52.6
X111.5Y-55.14
X112.878Y-95.961
X112.878Y-98.501
X112.878Y-101.041
X112.878Y-103.581
X76.696Y-103.09
X76.696Y-105.63
X32.716Y-77.423
X35.256Y-77.423
X100.56Y-115.3
X103.1Y-115.3
X32.792Y-94.53
X35.332Y-94.53
X63.76Y-59.55
X66.3Y-59.55
X42.6Y-81.33
X42.6Y-83.87
X42.6Y-86.41
X42.6Y-88.95
X76.873Y-65.276
X79.413Y-65.276
X76.696Y-96.512
X76.696Y-99.052
X24.845Y-46.182
X24.845Y-48.722
X24.845Y-51.262
X24.845Y-53.802
X22.Y-37.1
X24.54Y-37.1
X22.06Y-40.8
X24.6Y-40.8
X116.7Y-49.97
X116.7Y-52.51
X116.7Y-55.05
X116.7Y-57.59
X69.101Y-73.659
X71.641Y-73.659
X70.409Y-56.464
X72.949Y-56.464
X75.489Y-56.464
X69.101Y-65.276
X71.641Y-65.276
X73.203Y-50.216
X75.743Y-50.216
X78.283Y-50.216
X80.823Y-50.216
X83.363Y-50.216
X85.903Y-50.216
X80.112Y-56.413
X82.652Y-56.413
X85.192Y-56.413
X76.722Y-89.971
X76.722Y-92.511
X89.Y-90.61
X89.Y-93.15
X73.152Y-46.076
X75.692Y-46.076
X78.232Y-46.076
X80.772Y-46.076
X83.312Y-46.076
X85.852Y-46.076
T6
X50.394Y-92.253
X50.394Y-94.793
X52.934Y-92.253
X52.934Y-94.793
X55.474Y-92.253
X55.474Y-94.793
X58.014Y-92.253
X58.014Y-94.793
X60.554Y-92.253
X60.554Y-94.793
T7
X66.236Y-112.889
X69.736Y-112.889
X57.824Y-112.889
X61.324Y-112.889
X72.738Y-24.308
X76.238Y-24.308
X41.273Y-112.881
X44.773Y-112.881
X74.561Y-112.889
X78.061Y-112.889
X32.905Y-112.878
X36.405Y-112.878
X49.605Y-112.878
X53.105Y-112.878
X60.533Y-24.155
X64.033Y-24.155
X29.6Y-24.13
X33.1Y-24.13
T8
X100.355Y-24.308
X105.435Y-24.308
X84.569Y-24.13
X89.649Y-24.13
T9
X23.558Y-114.427
X115.Y-23.
X115.Y-114.
X23.558Y-23.
T0
M30
