%TF.GenerationSoftware,KiCad,Pcbnew,6.0.0-rc1-unknown-24149a8~66~ubuntu18.04.1*%
%TF.CreationDate,2018-08-26T00:53:23-07:00*%
%TF.ProjectId,PrntrBoardV1,50726E7472426F61726456312E6B6963,rev?*%
%TF.SameCoordinates,PX1303eb8PY7093f24*%
%TF.FileFunction,Legend,Bot*%
%TF.FilePolarity,Positive*%
%FSLAX46Y46*%
G04 Gerber Fmt 4.6, Leading zero omitted, Abs format (unit mm)*
G04 Created by KiCad (PCBNEW 6.0.0-rc1-unknown-24149a8~66~ubuntu18.04.1) date Sun Aug 26 00:53:23 2018*
%MOMM*%
%LPD*%
G01*
G04 APERTURE LIST*
%ADD10C,0.150000*%
%ADD11C,0.300000*%
G04 APERTURE END LIST*
D10*
X29916500Y29146405D02*
X29868880Y29241643D01*
X29868880Y29384500D01*
X29916500Y29527358D01*
X30011738Y29622596D01*
X30106976Y29670215D01*
X30297452Y29717834D01*
X30440309Y29717834D01*
X30630785Y29670215D01*
X30726023Y29622596D01*
X30821261Y29527358D01*
X30868880Y29384500D01*
X30868880Y29289262D01*
X30821261Y29146405D01*
X30773642Y29098786D01*
X30440309Y29098786D01*
X30440309Y29289262D01*
X30868880Y28670215D02*
X29868880Y28670215D01*
X30868880Y28098786D01*
X29868880Y28098786D01*
X30868880Y27622596D02*
X29868880Y27622596D01*
X29868880Y27384500D01*
X29916500Y27241643D01*
X30011738Y27146405D01*
X30106976Y27098786D01*
X30297452Y27051167D01*
X30440309Y27051167D01*
X30630785Y27098786D01*
X30726023Y27146405D01*
X30821261Y27241643D01*
X30868880Y27384500D01*
X30868880Y27622596D01*
X30408571Y21470691D02*
X30408571Y21137358D01*
X30932380Y20994500D02*
X30932380Y21470691D01*
X29932380Y21470691D01*
X29932380Y20994500D01*
X30265714Y20565929D02*
X30932380Y20565929D01*
X30360952Y20565929D02*
X30313333Y20518310D01*
X30265714Y20423072D01*
X30265714Y20280215D01*
X30313333Y20184977D01*
X30408571Y20137358D01*
X30932380Y20137358D01*
X30884761Y19232596D02*
X30932380Y19327834D01*
X30932380Y19518310D01*
X30884761Y19613548D01*
X30837142Y19661167D01*
X30741904Y19708786D01*
X30456190Y19708786D01*
X30360952Y19661167D01*
X30313333Y19613548D01*
X30265714Y19518310D01*
X30265714Y19327834D01*
X30313333Y19232596D01*
X30408571Y17708786D02*
X30456190Y17565929D01*
X30503809Y17518310D01*
X30599047Y17470691D01*
X30741904Y17470691D01*
X30837142Y17518310D01*
X30884761Y17565929D01*
X30932380Y17661167D01*
X30932380Y18042120D01*
X29932380Y18042120D01*
X29932380Y17708786D01*
X29980000Y17613548D01*
X30027619Y17565929D01*
X30122857Y17518310D01*
X30218095Y17518310D01*
X30313333Y17565929D01*
X30360952Y17613548D01*
X30408571Y17708786D01*
X30408571Y18042120D01*
X33012071Y21526262D02*
X33012071Y21192929D01*
X33535880Y21050072D02*
X33535880Y21526262D01*
X32535880Y21526262D01*
X32535880Y21050072D01*
X32869214Y20621500D02*
X33535880Y20621500D01*
X32964452Y20621500D02*
X32916833Y20573881D01*
X32869214Y20478643D01*
X32869214Y20335786D01*
X32916833Y20240548D01*
X33012071Y20192929D01*
X33535880Y20192929D01*
X33488261Y19288167D02*
X33535880Y19383405D01*
X33535880Y19573881D01*
X33488261Y19669120D01*
X33440642Y19716739D01*
X33345404Y19764358D01*
X33059690Y19764358D01*
X32964452Y19716739D01*
X32916833Y19669120D01*
X32869214Y19573881D01*
X32869214Y19383405D01*
X32916833Y19288167D01*
X33250166Y18145310D02*
X33250166Y17669120D01*
X33535880Y18240548D02*
X32535880Y17907215D01*
X33535880Y17573881D01*
X35552071Y21105596D02*
X35599690Y20962739D01*
X35647309Y20915120D01*
X35742547Y20867500D01*
X35885404Y20867500D01*
X35980642Y20915120D01*
X36028261Y20962739D01*
X36075880Y21057977D01*
X36075880Y21438929D01*
X35075880Y21438929D01*
X35075880Y21105596D01*
X35123500Y21010358D01*
X35171119Y20962739D01*
X35266357Y20915120D01*
X35361595Y20915120D01*
X35456833Y20962739D01*
X35504452Y21010358D01*
X35552071Y21105596D01*
X35552071Y21438929D01*
X35409214Y20581786D02*
X35409214Y20200834D01*
X35075880Y20438929D02*
X35933023Y20438929D01*
X36028261Y20391310D01*
X36075880Y20296072D01*
X36075880Y20200834D01*
X35409214Y19867500D02*
X36075880Y19867500D01*
X35504452Y19867500D02*
X35456833Y19819881D01*
X35409214Y19724643D01*
X35409214Y19581786D01*
X35456833Y19486548D01*
X35552071Y19438929D01*
X36075880Y19438929D01*
X36075880Y18200834D02*
X35075880Y18200834D01*
X35409214Y17724643D02*
X36075880Y17724643D01*
X35504452Y17724643D02*
X35456833Y17677024D01*
X35409214Y17581786D01*
X35409214Y17438929D01*
X35456833Y17343691D01*
X35552071Y17296072D01*
X36075880Y17296072D01*
X73561000Y7046500D02*
X89561000Y7046500D01*
X73561000Y80046500D02*
X73561000Y7046500D01*
X89561000Y80046500D02*
X89561000Y7046500D01*
X73561000Y80046500D02*
X89561000Y80046500D01*
X8061000Y63046500D02*
X8061000Y91046500D01*
X36061000Y63046500D02*
X8061000Y63046500D01*
X36061000Y91046500D02*
X36061000Y63046500D01*
X8061000Y91046500D02*
X36061000Y91046500D01*
D11*
X94023642Y88431429D02*
X94023642Y87288572D01*
X94595071Y87860000D02*
X93452214Y87860000D01*
X94023642Y85431429D02*
X94023642Y84288572D01*
X91253571Y81418715D02*
X92753571Y80918715D01*
X91253571Y80418715D01*
X92753571Y79918715D02*
X91753571Y79918715D01*
X91253571Y79918715D02*
X91325000Y79990143D01*
X91396428Y79918715D01*
X91325000Y79847286D01*
X91253571Y79918715D01*
X91396428Y79918715D01*
X91753571Y79204429D02*
X92753571Y79204429D01*
X91896428Y79204429D02*
X91825000Y79133000D01*
X91753571Y78990143D01*
X91753571Y78775858D01*
X91825000Y78633000D01*
X91967857Y78561572D01*
X92753571Y78561572D01*
X93960142Y82081429D02*
X93960142Y80938572D01*
X94531571Y81510000D02*
X93388714Y81510000D01*
X93960142Y79081429D02*
X93960142Y77938572D01*
X91380571Y86518715D02*
X91380571Y87233000D01*
X92094857Y87304429D01*
X92023428Y87233000D01*
X91952000Y87090143D01*
X91952000Y86733000D01*
X92023428Y86590143D01*
X92094857Y86518715D01*
X92237714Y86447286D01*
X92594857Y86447286D01*
X92737714Y86518715D01*
X92809142Y86590143D01*
X92880571Y86733000D01*
X92880571Y87090143D01*
X92809142Y87233000D01*
X92737714Y87304429D01*
X91380571Y86018715D02*
X92880571Y85518715D01*
X91380571Y85018715D01*
X90432428Y4689358D02*
X89289571Y4689358D01*
X89861000Y4117929D02*
X89861000Y5260786D01*
X87432428Y4689358D02*
X86289571Y4689358D01*
X88496714Y6717929D02*
X89211000Y6717929D01*
X89282428Y6003643D01*
X89211000Y6075072D01*
X89068142Y6146500D01*
X88711000Y6146500D01*
X88568142Y6075072D01*
X88496714Y6003643D01*
X88425285Y5860786D01*
X88425285Y5503643D01*
X88496714Y5360786D01*
X88568142Y5289358D01*
X88711000Y5217929D01*
X89068142Y5217929D01*
X89211000Y5289358D01*
X89282428Y5360786D01*
X87996714Y6717929D02*
X87496714Y5217929D01*
X86996714Y6717929D01*
X79689571Y4653643D02*
X80832428Y4653643D01*
X80261000Y5225072D02*
X80261000Y4082215D01*
X82689571Y4653643D02*
X83832428Y4653643D01*
X83521714Y6742929D02*
X83021714Y5242929D01*
X82521714Y6742929D01*
X82021714Y5242929D02*
X82021714Y6242929D01*
X82021714Y6742929D02*
X82093142Y6671500D01*
X82021714Y6600072D01*
X81950285Y6671500D01*
X82021714Y6742929D01*
X82021714Y6600072D01*
X81307428Y6242929D02*
X81307428Y5242929D01*
X81307428Y6100072D02*
X81236000Y6171500D01*
X81093142Y6242929D01*
X80878857Y6242929D01*
X80736000Y6171500D01*
X80664571Y6028643D01*
X80664571Y5242929D01*
X46017571Y25546715D02*
X46017571Y26261000D01*
X44517571Y26261000D01*
X45874714Y24189572D02*
X45946142Y24261000D01*
X46017571Y24475286D01*
X46017571Y24618143D01*
X45946142Y24832429D01*
X45803285Y24975286D01*
X45660428Y25046715D01*
X45374714Y25118143D01*
X45160428Y25118143D01*
X44874714Y25046715D01*
X44731857Y24975286D01*
X44589000Y24832429D01*
X44517571Y24618143D01*
X44517571Y24475286D01*
X44589000Y24261000D01*
X44660428Y24189572D01*
X46017571Y23546715D02*
X44517571Y23546715D01*
X44517571Y23189572D01*
X44589000Y22975286D01*
X44731857Y22832429D01*
X44874714Y22761000D01*
X45160428Y22689572D01*
X45374714Y22689572D01*
X45660428Y22761000D01*
X45803285Y22832429D01*
X45946142Y22975286D01*
X46017571Y23189572D01*
X46017571Y23546715D01*
D10*
X37536500Y20891405D02*
X37488880Y20986643D01*
X37488880Y21129500D01*
X37536500Y21272358D01*
X37631738Y21367596D01*
X37726976Y21415215D01*
X37917452Y21462834D01*
X38060309Y21462834D01*
X38250785Y21415215D01*
X38346023Y21367596D01*
X38441261Y21272358D01*
X38488880Y21129500D01*
X38488880Y21034262D01*
X38441261Y20891405D01*
X38393642Y20843786D01*
X38060309Y20843786D01*
X38060309Y21034262D01*
X38488880Y20415215D02*
X37488880Y20415215D01*
X38488880Y19843786D01*
X37488880Y19843786D01*
X38488880Y19367596D02*
X37488880Y19367596D01*
X37488880Y19129500D01*
X37536500Y18986643D01*
X37631738Y18891405D01*
X37726976Y18843786D01*
X37917452Y18796167D01*
X38060309Y18796167D01*
X38250785Y18843786D01*
X38346023Y18891405D01*
X38441261Y18986643D01*
X38488880Y19129500D01*
X38488880Y19367596D01*
X40028880Y21478691D02*
X40028880Y20859643D01*
X40409833Y21192977D01*
X40409833Y21050120D01*
X40457452Y20954881D01*
X40505071Y20907262D01*
X40600309Y20859643D01*
X40838404Y20859643D01*
X40933642Y20907262D01*
X40981261Y20954881D01*
X41028880Y21050120D01*
X41028880Y21335834D01*
X40981261Y21431072D01*
X40933642Y21478691D01*
X40933642Y20431072D02*
X40981261Y20383453D01*
X41028880Y20431072D01*
X40981261Y20478691D01*
X40933642Y20431072D01*
X41028880Y20431072D01*
X40028880Y20050120D02*
X40028880Y19431072D01*
X40409833Y19764405D01*
X40409833Y19621548D01*
X40457452Y19526310D01*
X40505071Y19478691D01*
X40600309Y19431072D01*
X40838404Y19431072D01*
X40933642Y19478691D01*
X40981261Y19526310D01*
X41028880Y19621548D01*
X41028880Y19907262D01*
X40981261Y20002500D01*
X40933642Y20050120D01*
X40028880Y19145358D02*
X41028880Y18812024D01*
X40028880Y18478691D01*
X42568880Y20954977D02*
X42568880Y21431167D01*
X43045071Y21478786D01*
X42997452Y21431167D01*
X42949833Y21335929D01*
X42949833Y21097834D01*
X42997452Y21002596D01*
X43045071Y20954977D01*
X43140309Y20907358D01*
X43378404Y20907358D01*
X43473642Y20954977D01*
X43521261Y21002596D01*
X43568880Y21097834D01*
X43568880Y21335929D01*
X43521261Y21431167D01*
X43473642Y21478786D01*
X42568880Y20621643D02*
X43568880Y20288310D01*
X42568880Y19954977D01*
X43632380Y30336929D02*
X42632380Y30336929D01*
X43346666Y30003596D01*
X42632380Y29670262D01*
X43632380Y29670262D01*
X42632380Y29003596D02*
X42632380Y28813120D01*
X42680000Y28717881D01*
X42775238Y28622643D01*
X42965714Y28575024D01*
X43299047Y28575024D01*
X43489523Y28622643D01*
X43584761Y28717881D01*
X43632380Y28813120D01*
X43632380Y29003596D01*
X43584761Y29098834D01*
X43489523Y29194072D01*
X43299047Y29241691D01*
X42965714Y29241691D01*
X42775238Y29194072D01*
X42680000Y29098834D01*
X42632380Y29003596D01*
X43584761Y28194072D02*
X43632380Y28051215D01*
X43632380Y27813120D01*
X43584761Y27717881D01*
X43537142Y27670262D01*
X43441904Y27622643D01*
X43346666Y27622643D01*
X43251428Y27670262D01*
X43203809Y27717881D01*
X43156190Y27813120D01*
X43108571Y28003596D01*
X43060952Y28098834D01*
X43013333Y28146453D01*
X42918095Y28194072D01*
X42822857Y28194072D01*
X42727619Y28146453D01*
X42680000Y28098834D01*
X42632380Y28003596D01*
X42632380Y27765500D01*
X42680000Y27622643D01*
X43632380Y27194072D02*
X42632380Y27194072D01*
X40981261Y29797215D02*
X41028880Y29654358D01*
X41028880Y29416262D01*
X40981261Y29321024D01*
X40933642Y29273405D01*
X40838404Y29225786D01*
X40743166Y29225786D01*
X40647928Y29273405D01*
X40600309Y29321024D01*
X40552690Y29416262D01*
X40505071Y29606739D01*
X40457452Y29701977D01*
X40409833Y29749596D01*
X40314595Y29797215D01*
X40219357Y29797215D01*
X40124119Y29749596D01*
X40076500Y29701977D01*
X40028880Y29606739D01*
X40028880Y29368643D01*
X40076500Y29225786D01*
X40933642Y28225786D02*
X40981261Y28273405D01*
X41028880Y28416262D01*
X41028880Y28511500D01*
X40981261Y28654358D01*
X40886023Y28749596D01*
X40790785Y28797215D01*
X40600309Y28844834D01*
X40457452Y28844834D01*
X40266976Y28797215D01*
X40171738Y28749596D01*
X40076500Y28654358D01*
X40028880Y28511500D01*
X40028880Y28416262D01*
X40076500Y28273405D01*
X40124119Y28225786D01*
X41028880Y27797215D02*
X40028880Y27797215D01*
X41028880Y27225786D02*
X40457452Y27654358D01*
X40028880Y27225786D02*
X40600309Y27797215D01*
X38266666Y28463786D02*
X38266666Y27987596D01*
X38552380Y28559024D02*
X37552380Y28225691D01*
X38552380Y27892358D01*
X37552380Y27368548D02*
X37552380Y27273310D01*
X37600000Y27178072D01*
X37647619Y27130453D01*
X37742857Y27082834D01*
X37933333Y27035215D01*
X38171428Y27035215D01*
X38361904Y27082834D01*
X38457142Y27130453D01*
X38504761Y27178072D01*
X38552380Y27273310D01*
X38552380Y27368548D01*
X38504761Y27463786D01*
X38457142Y27511405D01*
X38361904Y27559024D01*
X38171428Y27606643D01*
X37933333Y27606643D01*
X37742857Y27559024D01*
X37647619Y27511405D01*
X37600000Y27463786D01*
X37552380Y27368548D01*
X34708500Y31535405D02*
X34708500Y30535405D01*
X36075880Y30725881D02*
X35599690Y31059215D01*
X36075880Y31297310D02*
X35075880Y31297310D01*
X35075880Y30916358D01*
X35123500Y30821120D01*
X35171119Y30773500D01*
X35266357Y30725881D01*
X35409214Y30725881D01*
X35504452Y30773500D01*
X35552071Y30821120D01*
X35599690Y30916358D01*
X35599690Y31297310D01*
X34708500Y30535405D02*
X34708500Y29630643D01*
X35552071Y30297310D02*
X35552071Y29963977D01*
X36075880Y29821120D02*
X36075880Y30297310D01*
X35075880Y30297310D01*
X35075880Y29821120D01*
X34708500Y29630643D02*
X34708500Y28678262D01*
X36028261Y29440167D02*
X36075880Y29297310D01*
X36075880Y29059215D01*
X36028261Y28963977D01*
X35980642Y28916358D01*
X35885404Y28868739D01*
X35790166Y28868739D01*
X35694928Y28916358D01*
X35647309Y28963977D01*
X35599690Y29059215D01*
X35552071Y29249691D01*
X35504452Y29344929D01*
X35456833Y29392548D01*
X35361595Y29440167D01*
X35266357Y29440167D01*
X35171119Y29392548D01*
X35123500Y29344929D01*
X35075880Y29249691D01*
X35075880Y29011596D01*
X35123500Y28868739D01*
X34708500Y28678262D02*
X34708500Y27773500D01*
X35552071Y28440167D02*
X35552071Y28106834D01*
X36075880Y27963977D02*
X36075880Y28440167D01*
X35075880Y28440167D01*
X35075880Y27963977D01*
X34708500Y27773500D02*
X34708500Y27011596D01*
X35075880Y27678262D02*
X35075880Y27106834D01*
X36075880Y27392548D02*
X35075880Y27392548D01*
X32232000Y28979691D02*
X32232000Y27979691D01*
X33504142Y28170167D02*
X33551761Y28217786D01*
X33599380Y28360643D01*
X33599380Y28455881D01*
X33551761Y28598739D01*
X33456523Y28693977D01*
X33361285Y28741596D01*
X33170809Y28789215D01*
X33027952Y28789215D01*
X32837476Y28741596D01*
X32742238Y28693977D01*
X32647000Y28598739D01*
X32599380Y28455881D01*
X32599380Y28360643D01*
X32647000Y28217786D01*
X32694619Y28170167D01*
X32232000Y27979691D02*
X32232000Y27027310D01*
X33551761Y27789215D02*
X33599380Y27646358D01*
X33599380Y27408262D01*
X33551761Y27313024D01*
X33504142Y27265405D01*
X33408904Y27217786D01*
X33313666Y27217786D01*
X33218428Y27265405D01*
X33170809Y27313024D01*
X33123190Y27408262D01*
X33075571Y27598739D01*
X33027952Y27693977D01*
X32980333Y27741596D01*
X32885095Y27789215D01*
X32789857Y27789215D01*
X32694619Y27741596D01*
X32647000Y27693977D01*
X32599380Y27598739D01*
X32599380Y27360643D01*
X32647000Y27217786D01*
X65252000Y75334691D02*
X65252000Y74334691D01*
X66524142Y74525167D02*
X66571761Y74572786D01*
X66619380Y74715643D01*
X66619380Y74810881D01*
X66571761Y74953739D01*
X66476523Y75048977D01*
X66381285Y75096596D01*
X66190809Y75144215D01*
X66047952Y75144215D01*
X65857476Y75096596D01*
X65762238Y75048977D01*
X65667000Y74953739D01*
X65619380Y74810881D01*
X65619380Y74715643D01*
X65667000Y74572786D01*
X65714619Y74525167D01*
X65252000Y74334691D02*
X65252000Y73382310D01*
X66571761Y74144215D02*
X66619380Y74001358D01*
X66619380Y73763262D01*
X66571761Y73668024D01*
X66524142Y73620405D01*
X66428904Y73572786D01*
X66333666Y73572786D01*
X66238428Y73620405D01*
X66190809Y73668024D01*
X66143190Y73763262D01*
X66095571Y73953739D01*
X66047952Y74048977D01*
X66000333Y74096596D01*
X65905095Y74144215D01*
X65809857Y74144215D01*
X65714619Y74096596D01*
X65667000Y74048977D01*
X65619380Y73953739D01*
X65619380Y73715643D01*
X65667000Y73572786D01*
X63825380Y75564881D02*
X62825380Y75564881D01*
X62825380Y75326786D01*
X62873000Y75183929D01*
X62968238Y75088691D01*
X63063476Y75041072D01*
X63253952Y74993453D01*
X63396809Y74993453D01*
X63587285Y75041072D01*
X63682523Y75088691D01*
X63777761Y75183929D01*
X63825380Y75326786D01*
X63825380Y75564881D01*
X63825380Y74564881D02*
X62825380Y74564881D01*
X63158714Y74088691D02*
X63825380Y74088691D01*
X63253952Y74088691D02*
X63206333Y74041072D01*
X63158714Y73945834D01*
X63158714Y73802977D01*
X63206333Y73707739D01*
X63301571Y73660120D01*
X63825380Y73660120D01*
X61285380Y76898310D02*
X60285380Y76898310D01*
X60285380Y76660215D01*
X60333000Y76517358D01*
X60428238Y76422120D01*
X60523476Y76374500D01*
X60713952Y76326881D01*
X60856809Y76326881D01*
X61047285Y76374500D01*
X61142523Y76422120D01*
X61237761Y76517358D01*
X61285380Y76660215D01*
X61285380Y76898310D01*
X60285380Y75707834D02*
X60285380Y75517358D01*
X60333000Y75422120D01*
X60428238Y75326881D01*
X60618714Y75279262D01*
X60952047Y75279262D01*
X61142523Y75326881D01*
X61237761Y75422120D01*
X61285380Y75517358D01*
X61285380Y75707834D01*
X61237761Y75803072D01*
X61142523Y75898310D01*
X60952047Y75945929D01*
X60618714Y75945929D01*
X60428238Y75898310D01*
X60333000Y75803072D01*
X60285380Y75707834D01*
X60618714Y74422120D02*
X61285380Y74422120D01*
X60618714Y74850691D02*
X61142523Y74850691D01*
X61237761Y74803072D01*
X61285380Y74707834D01*
X61285380Y74564977D01*
X61237761Y74469739D01*
X61190142Y74422120D01*
X60618714Y74088786D02*
X60618714Y73707834D01*
X60285380Y73945929D02*
X61142523Y73945929D01*
X61237761Y73898310D01*
X61285380Y73803072D01*
X61285380Y73707834D01*
X58697761Y76152215D02*
X58745380Y76009358D01*
X58745380Y75771262D01*
X58697761Y75676024D01*
X58650142Y75628405D01*
X58554904Y75580786D01*
X58459666Y75580786D01*
X58364428Y75628405D01*
X58316809Y75676024D01*
X58269190Y75771262D01*
X58221571Y75961739D01*
X58173952Y76056977D01*
X58126333Y76104596D01*
X58031095Y76152215D01*
X57935857Y76152215D01*
X57840619Y76104596D01*
X57793000Y76056977D01*
X57745380Y75961739D01*
X57745380Y75723643D01*
X57793000Y75580786D01*
X58650142Y74580786D02*
X58697761Y74628405D01*
X58745380Y74771262D01*
X58745380Y74866500D01*
X58697761Y75009358D01*
X58602523Y75104596D01*
X58507285Y75152215D01*
X58316809Y75199834D01*
X58173952Y75199834D01*
X57983476Y75152215D01*
X57888238Y75104596D01*
X57793000Y75009358D01*
X57745380Y74866500D01*
X57745380Y74771262D01*
X57793000Y74628405D01*
X57840619Y74580786D01*
X58745380Y74152215D02*
X57745380Y74152215D01*
X58745380Y73580786D02*
X58173952Y74009358D01*
X57745380Y73580786D02*
X58316809Y74152215D01*
X55253000Y75628405D02*
X55205380Y75723643D01*
X55205380Y75866500D01*
X55253000Y76009358D01*
X55348238Y76104596D01*
X55443476Y76152215D01*
X55633952Y76199834D01*
X55776809Y76199834D01*
X55967285Y76152215D01*
X56062523Y76104596D01*
X56157761Y76009358D01*
X56205380Y75866500D01*
X56205380Y75771262D01*
X56157761Y75628405D01*
X56110142Y75580786D01*
X55776809Y75580786D01*
X55776809Y75771262D01*
X56205380Y75152215D02*
X55205380Y75152215D01*
X56205380Y74580786D01*
X55205380Y74580786D01*
X56205380Y74104596D02*
X55205380Y74104596D01*
X55205380Y73866500D01*
X55253000Y73723643D01*
X55348238Y73628405D01*
X55443476Y73580786D01*
X55633952Y73533167D01*
X55776809Y73533167D01*
X55967285Y73580786D01*
X56062523Y73628405D01*
X56157761Y73723643D01*
X56205380Y73866500D01*
X56205380Y74104596D01*
X52665380Y74548977D02*
X52665380Y75025167D01*
X53141571Y75072786D01*
X53093952Y75025167D01*
X53046333Y74929929D01*
X53046333Y74691834D01*
X53093952Y74596596D01*
X53141571Y74548977D01*
X53236809Y74501358D01*
X53474904Y74501358D01*
X53570142Y74548977D01*
X53617761Y74596596D01*
X53665380Y74691834D01*
X53665380Y74929929D01*
X53617761Y75025167D01*
X53570142Y75072786D01*
X52665380Y74215643D02*
X53665380Y73882310D01*
X52665380Y73548977D01*
X20563380Y28644120D02*
X20563380Y29644120D01*
X20087190Y29310786D02*
X20087190Y28644120D01*
X20087190Y29215548D02*
X20039571Y29263167D01*
X19944333Y29310786D01*
X19801476Y29310786D01*
X19706238Y29263167D01*
X19658619Y29167929D01*
X19658619Y28644120D01*
X20122904Y32246500D02*
X20218142Y32294120D01*
X20361000Y32294120D01*
X20503857Y32246500D01*
X20599095Y32151262D01*
X20646714Y32056024D01*
X20694333Y31865548D01*
X20694333Y31722691D01*
X20646714Y31532215D01*
X20599095Y31436977D01*
X20503857Y31341739D01*
X20361000Y31294120D01*
X20265761Y31294120D01*
X20122904Y31341739D01*
X20075285Y31389358D01*
X20075285Y31722691D01*
X20265761Y31722691D01*
X19646714Y31294120D02*
X19646714Y32294120D01*
X19075285Y31294120D01*
X19075285Y32294120D01*
X18599095Y31294120D02*
X18599095Y32294120D01*
X18361000Y32294120D01*
X18218142Y32246500D01*
X18122904Y32151262D01*
X18075285Y32056024D01*
X18027666Y31865548D01*
X18027666Y31722691D01*
X18075285Y31532215D01*
X18122904Y31436977D01*
X18218142Y31341739D01*
X18361000Y31294120D01*
X18599095Y31294120D01*
X20294333Y34794120D02*
X20103857Y34794120D01*
X20008619Y34746500D01*
X19913380Y34651262D01*
X19865761Y34460786D01*
X19865761Y34127453D01*
X19913380Y33936977D01*
X20008619Y33841739D01*
X20103857Y33794120D01*
X20294333Y33794120D01*
X20389571Y33841739D01*
X20484809Y33936977D01*
X20532428Y34127453D01*
X20532428Y34460786D01*
X20484809Y34651262D01*
X20389571Y34746500D01*
X20294333Y34794120D01*
X19008619Y34460786D02*
X19008619Y33794120D01*
X19437190Y34460786D02*
X19437190Y33936977D01*
X19389571Y33841739D01*
X19294333Y33794120D01*
X19151476Y33794120D01*
X19056238Y33841739D01*
X19008619Y33889358D01*
X18675285Y34460786D02*
X18294333Y34460786D01*
X18532428Y34794120D02*
X18532428Y33936977D01*
X18484809Y33841739D01*
X18389571Y33794120D01*
X18294333Y33794120D01*
X19951476Y37494120D02*
X20427666Y37494120D01*
X20475285Y37017929D01*
X20427666Y37065548D01*
X20332428Y37113167D01*
X20094333Y37113167D01*
X19999095Y37065548D01*
X19951476Y37017929D01*
X19903857Y36922691D01*
X19903857Y36684596D01*
X19951476Y36589358D01*
X19999095Y36541739D01*
X20094333Y36494120D01*
X20332428Y36494120D01*
X20427666Y36541739D01*
X20475285Y36589358D01*
X19618142Y37494120D02*
X19284809Y36494120D01*
X18951476Y37494120D01*
X40749095Y57444120D02*
X40749095Y58444120D01*
X40177666Y57444120D01*
X40177666Y58444120D01*
X39272904Y58110786D02*
X39272904Y57444120D01*
X39701476Y58110786D02*
X39701476Y57586977D01*
X39653857Y57491739D01*
X39558619Y57444120D01*
X39415761Y57444120D01*
X39320523Y57491739D01*
X39272904Y57539358D01*
X38368142Y57491739D02*
X38463380Y57444120D01*
X38653857Y57444120D01*
X38749095Y57491739D01*
X38796714Y57539358D01*
X38844333Y57634596D01*
X38844333Y57920310D01*
X38796714Y58015548D01*
X38749095Y58063167D01*
X38653857Y58110786D01*
X38463380Y58110786D01*
X38368142Y58063167D01*
X37796714Y57444120D02*
X37891952Y57491739D01*
X37939571Y57586977D01*
X37939571Y58444120D01*
X37034809Y57491739D02*
X37130047Y57444120D01*
X37320523Y57444120D01*
X37415761Y57491739D01*
X37463380Y57586977D01*
X37463380Y57967929D01*
X37415761Y58063167D01*
X37320523Y58110786D01*
X37130047Y58110786D01*
X37034809Y58063167D01*
X36987190Y57967929D01*
X36987190Y57872691D01*
X37463380Y57777453D01*
X36415761Y57444120D02*
X36511000Y57491739D01*
X36558619Y57539358D01*
X36606238Y57634596D01*
X36606238Y57920310D01*
X36558619Y58015548D01*
X36511000Y58063167D01*
X36415761Y58110786D01*
X36272904Y58110786D01*
X36177666Y58063167D01*
X36130047Y58015548D01*
X36082428Y57920310D01*
X36082428Y57634596D01*
X36130047Y57539358D01*
X36177666Y57491739D01*
X36272904Y57444120D01*
X36415761Y57444120D01*
X35653857Y57825072D02*
X34891952Y57825072D01*
X34082428Y57967929D02*
X34415761Y57967929D01*
X34415761Y57444120D02*
X34415761Y58444120D01*
X33939571Y58444120D01*
X33130047Y58110786D02*
X33130047Y57444120D01*
X33368142Y58491739D02*
X33606238Y57777453D01*
X32987190Y57777453D01*
X32177666Y58110786D02*
X32177666Y57444120D01*
X32415761Y58491739D02*
X32653857Y57777453D01*
X32034809Y57777453D01*
X31225285Y58444120D02*
X31415761Y58444120D01*
X31511000Y58396500D01*
X31558619Y58348881D01*
X31653857Y58206024D01*
X31701476Y58015548D01*
X31701476Y57634596D01*
X31653857Y57539358D01*
X31606238Y57491739D01*
X31511000Y57444120D01*
X31320523Y57444120D01*
X31225285Y57491739D01*
X31177666Y57539358D01*
X31130047Y57634596D01*
X31130047Y57872691D01*
X31177666Y57967929D01*
X31225285Y58015548D01*
X31320523Y58063167D01*
X31511000Y58063167D01*
X31606238Y58015548D01*
X31653857Y57967929D01*
X31701476Y57872691D01*
X30130047Y57444120D02*
X30463380Y57920310D01*
X30701476Y57444120D02*
X30701476Y58444120D01*
X30320523Y58444120D01*
X30225285Y58396500D01*
X30177666Y58348881D01*
X30130047Y58253643D01*
X30130047Y58110786D01*
X30177666Y58015548D01*
X30225285Y57967929D01*
X30320523Y57920310D01*
X30701476Y57920310D01*
X29701476Y57967929D02*
X29368142Y57967929D01*
X29225285Y57444120D02*
X29701476Y57444120D01*
X29701476Y58444120D01*
X29225285Y58444120D01*
D11*
X85982642Y84919429D02*
X85982642Y85919429D01*
X85982642Y85633715D02*
X85911214Y85776572D01*
X85839785Y85848000D01*
X85696928Y85919429D01*
X85554071Y85919429D01*
X84482642Y84990858D02*
X84625500Y84919429D01*
X84911214Y84919429D01*
X85054071Y84990858D01*
X85125500Y85133715D01*
X85125500Y85705143D01*
X85054071Y85848000D01*
X84911214Y85919429D01*
X84625500Y85919429D01*
X84482642Y85848000D01*
X84411214Y85705143D01*
X84411214Y85562286D01*
X85125500Y85419429D01*
X83911214Y85919429D02*
X83554071Y84919429D01*
X83196928Y85919429D01*
X80839785Y85919429D02*
X80839785Y84919429D01*
X81196928Y86490858D02*
X81554071Y85419429D01*
X80625500Y85419429D01*
D10*
X87137380Y82541667D02*
X87185000Y82589286D01*
X87280238Y82732143D01*
X87327857Y82827381D01*
X87375476Y82970239D01*
X87423095Y83208334D01*
X87423095Y83398810D01*
X87375476Y83636905D01*
X87327857Y83779762D01*
X87280238Y83875000D01*
X87185000Y84017858D01*
X87137380Y84065477D01*
X86327857Y82970239D02*
X86423095Y82922620D01*
X86613571Y82922620D01*
X86708809Y82970239D01*
X86756428Y83017858D01*
X86804047Y83113096D01*
X86804047Y83398810D01*
X86756428Y83494048D01*
X86708809Y83541667D01*
X86613571Y83589286D01*
X86423095Y83589286D01*
X86327857Y83541667D01*
X85994523Y82541667D02*
X85946904Y82589286D01*
X85851666Y82732143D01*
X85804047Y82827381D01*
X85756428Y82970239D01*
X85708809Y83208334D01*
X85708809Y83398810D01*
X85756428Y83636905D01*
X85804047Y83779762D01*
X85851666Y83875000D01*
X85946904Y84017858D01*
X85994523Y84065477D01*
X84470714Y82922620D02*
X84470714Y83589286D01*
X84470714Y83922620D02*
X84518333Y83875000D01*
X84470714Y83827381D01*
X84423095Y83875000D01*
X84470714Y83922620D01*
X84470714Y83827381D01*
X83327857Y82827381D02*
X83423095Y82875000D01*
X83518333Y82970239D01*
X83661190Y83113096D01*
X83756428Y83160715D01*
X83851666Y83160715D01*
X83804047Y82922620D02*
X83899285Y82970239D01*
X83994523Y83065477D01*
X84042142Y83255953D01*
X84042142Y83589286D01*
X83994523Y83779762D01*
X83899285Y83875000D01*
X83804047Y83922620D01*
X83613571Y83922620D01*
X83518333Y83875000D01*
X83423095Y83779762D01*
X83375476Y83589286D01*
X83375476Y83255953D01*
X83423095Y83065477D01*
X83518333Y82970239D01*
X83613571Y82922620D01*
X83804047Y82922620D01*
X82518333Y83589286D02*
X82518333Y82922620D01*
X82946904Y83589286D02*
X82946904Y83065477D01*
X82899285Y82970239D01*
X82804047Y82922620D01*
X82661190Y82922620D01*
X82565952Y82970239D01*
X82518333Y83017858D01*
X82042142Y82922620D02*
X82042142Y83589286D01*
X82042142Y83398810D02*
X81994523Y83494048D01*
X81946904Y83541667D01*
X81851666Y83589286D01*
X81756428Y83589286D01*
X81518333Y83589286D02*
X81280238Y82922620D01*
X81042142Y83589286D02*
X81280238Y82922620D01*
X81375476Y82684524D01*
X81423095Y82636905D01*
X81518333Y82589286D01*
X80661190Y83017858D02*
X80613571Y82970239D01*
X80661190Y82922620D01*
X80708809Y82970239D01*
X80661190Y83017858D01*
X80661190Y82922620D01*
X79756428Y83589286D02*
X79756428Y82922620D01*
X80185000Y83589286D02*
X80185000Y83065477D01*
X80137380Y82970239D01*
X80042142Y82922620D01*
X79899285Y82922620D01*
X79804047Y82970239D01*
X79756428Y83017858D01*
X79327857Y82970239D02*
X79232619Y82922620D01*
X79042142Y82922620D01*
X78946904Y82970239D01*
X78899285Y83065477D01*
X78899285Y83113096D01*
X78946904Y83208334D01*
X79042142Y83255953D01*
X79185000Y83255953D01*
X79280238Y83303572D01*
X79327857Y83398810D01*
X79327857Y83446429D01*
X79280238Y83541667D01*
X79185000Y83589286D01*
X79042142Y83589286D01*
X78946904Y83541667D01*
X86613571Y81558334D02*
X86137380Y81558334D01*
X86708809Y81272620D02*
X86375476Y82272620D01*
X86042142Y81272620D01*
X85280238Y81939286D02*
X85280238Y81272620D01*
X85708809Y81939286D02*
X85708809Y81415477D01*
X85661190Y81320239D01*
X85565952Y81272620D01*
X85423095Y81272620D01*
X85327857Y81320239D01*
X85280238Y81367858D01*
X84375476Y81939286D02*
X84375476Y81129762D01*
X84423095Y81034524D01*
X84470714Y80986905D01*
X84565952Y80939286D01*
X84708809Y80939286D01*
X84804047Y80986905D01*
X84375476Y81320239D02*
X84470714Y81272620D01*
X84661190Y81272620D01*
X84756428Y81320239D01*
X84804047Y81367858D01*
X84851666Y81463096D01*
X84851666Y81748810D01*
X84804047Y81844048D01*
X84756428Y81891667D01*
X84661190Y81939286D01*
X84470714Y81939286D01*
X84375476Y81891667D01*
X83185000Y82177381D02*
X83137380Y82225000D01*
X83042142Y82272620D01*
X82804047Y82272620D01*
X82708809Y82225000D01*
X82661190Y82177381D01*
X82613571Y82082143D01*
X82613571Y81986905D01*
X82661190Y81844048D01*
X83232619Y81272620D01*
X82613571Y81272620D01*
X81994523Y82272620D02*
X81899285Y82272620D01*
X81804047Y82225000D01*
X81756428Y82177381D01*
X81708809Y82082143D01*
X81661190Y81891667D01*
X81661190Y81653572D01*
X81708809Y81463096D01*
X81756428Y81367858D01*
X81804047Y81320239D01*
X81899285Y81272620D01*
X81994523Y81272620D01*
X82089761Y81320239D01*
X82137380Y81367858D01*
X82185000Y81463096D01*
X82232619Y81653572D01*
X82232619Y81891667D01*
X82185000Y82082143D01*
X82137380Y82177381D01*
X82089761Y82225000D01*
X81994523Y82272620D01*
X80708809Y81272620D02*
X81280238Y81272620D01*
X80994523Y81272620D02*
X80994523Y82272620D01*
X81089761Y82129762D01*
X81185000Y82034524D01*
X81280238Y81986905D01*
X80137380Y81844048D02*
X80232619Y81891667D01*
X80280238Y81939286D01*
X80327857Y82034524D01*
X80327857Y82082143D01*
X80280238Y82177381D01*
X80232619Y82225000D01*
X80137380Y82272620D01*
X79946904Y82272620D01*
X79851666Y82225000D01*
X79804047Y82177381D01*
X79756428Y82082143D01*
X79756428Y82034524D01*
X79804047Y81939286D01*
X79851666Y81891667D01*
X79946904Y81844048D01*
X80137380Y81844048D01*
X80232619Y81796429D01*
X80280238Y81748810D01*
X80327857Y81653572D01*
X80327857Y81463096D01*
X80280238Y81367858D01*
X80232619Y81320239D01*
X80137380Y81272620D01*
X79946904Y81272620D01*
X79851666Y81320239D01*
X79804047Y81367858D01*
X79756428Y81463096D01*
X79756428Y81653572D01*
X79804047Y81748810D01*
X79851666Y81796429D01*
X79946904Y81844048D01*
D11*
X25228857Y38625072D02*
X25300285Y38410786D01*
X25371714Y38339358D01*
X25514571Y38267929D01*
X25728857Y38267929D01*
X25871714Y38339358D01*
X25943142Y38410786D01*
X26014571Y38553643D01*
X26014571Y39125072D01*
X24514571Y39125072D01*
X24514571Y38625072D01*
X24586000Y38482215D01*
X24657428Y38410786D01*
X24800285Y38339358D01*
X24943142Y38339358D01*
X25086000Y38410786D01*
X25157428Y38482215D01*
X25228857Y38625072D01*
X25228857Y39125072D01*
X25943142Y37053643D02*
X26014571Y37196500D01*
X26014571Y37482215D01*
X25943142Y37625072D01*
X25800285Y37696500D01*
X25228857Y37696500D01*
X25086000Y37625072D01*
X25014571Y37482215D01*
X25014571Y37196500D01*
X25086000Y37053643D01*
X25228857Y36982215D01*
X25371714Y36982215D01*
X25514571Y37696500D01*
X26014571Y35696500D02*
X24514571Y35696500D01*
X25943142Y35696500D02*
X26014571Y35839358D01*
X26014571Y36125072D01*
X25943142Y36267929D01*
X25871714Y36339358D01*
X25728857Y36410786D01*
X25300285Y36410786D01*
X25157428Y36339358D01*
X25086000Y36267929D01*
X25014571Y36125072D01*
X25014571Y35839358D01*
X25086000Y35696500D01*
X26014571Y33625072D02*
X25943142Y33767929D01*
X25800285Y33839358D01*
X24514571Y33839358D01*
X25943142Y32482215D02*
X26014571Y32625072D01*
X26014571Y32910786D01*
X25943142Y33053643D01*
X25800285Y33125072D01*
X25228857Y33125072D01*
X25086000Y33053643D01*
X25014571Y32910786D01*
X25014571Y32625072D01*
X25086000Y32482215D01*
X25228857Y32410786D01*
X25371714Y32410786D01*
X25514571Y33125072D01*
X25014571Y31910786D02*
X26014571Y31553643D01*
X25014571Y31196500D01*
X25943142Y30053643D02*
X26014571Y30196500D01*
X26014571Y30482215D01*
X25943142Y30625072D01*
X25800285Y30696500D01*
X25228857Y30696500D01*
X25086000Y30625072D01*
X25014571Y30482215D01*
X25014571Y30196500D01*
X25086000Y30053643D01*
X25228857Y29982215D01*
X25371714Y29982215D01*
X25514571Y30696500D01*
X26014571Y29125072D02*
X25943142Y29267929D01*
X25800285Y29339358D01*
X24514571Y29339358D01*
X27564571Y36982215D02*
X29064571Y36982215D01*
X27636000Y36982215D02*
X27564571Y36839358D01*
X27564571Y36553643D01*
X27636000Y36410786D01*
X27707428Y36339358D01*
X27850285Y36267929D01*
X28278857Y36267929D01*
X28421714Y36339358D01*
X28493142Y36410786D01*
X28564571Y36553643D01*
X28564571Y36839358D01*
X28493142Y36982215D01*
X28564571Y35625072D02*
X27564571Y35625072D01*
X27850285Y35625072D02*
X27707428Y35553643D01*
X27636000Y35482215D01*
X27564571Y35339358D01*
X27564571Y35196500D01*
X28564571Y34482215D02*
X28493142Y34625072D01*
X28421714Y34696500D01*
X28278857Y34767929D01*
X27850285Y34767929D01*
X27707428Y34696500D01*
X27636000Y34625072D01*
X27564571Y34482215D01*
X27564571Y34267929D01*
X27636000Y34125072D01*
X27707428Y34053643D01*
X27850285Y33982215D01*
X28278857Y33982215D01*
X28421714Y34053643D01*
X28493142Y34125072D01*
X28564571Y34267929D01*
X28564571Y34482215D01*
X28564571Y33339358D02*
X27064571Y33339358D01*
X27636000Y33339358D02*
X27564571Y33196500D01*
X27564571Y32910786D01*
X27636000Y32767929D01*
X27707428Y32696500D01*
X27850285Y32625072D01*
X28278857Y32625072D01*
X28421714Y32696500D01*
X28493142Y32767929D01*
X28564571Y32910786D01*
X28564571Y33196500D01*
X28493142Y33339358D01*
X28493142Y31410786D02*
X28564571Y31553643D01*
X28564571Y31839358D01*
X28493142Y31982215D01*
X28350285Y32053643D01*
X27778857Y32053643D01*
X27636000Y31982215D01*
X27564571Y31839358D01*
X27564571Y31553643D01*
X27636000Y31410786D01*
X27778857Y31339358D01*
X27921714Y31339358D01*
X28064571Y32053643D01*
X54961000Y28342929D02*
X54103857Y28342929D01*
X54532428Y26842929D02*
X54532428Y28342929D01*
X53032428Y26914358D02*
X53175285Y26842929D01*
X53461000Y26842929D01*
X53603857Y26914358D01*
X53675285Y27057215D01*
X53675285Y27628643D01*
X53603857Y27771500D01*
X53461000Y27842929D01*
X53175285Y27842929D01*
X53032428Y27771500D01*
X52961000Y27628643D01*
X52961000Y27485786D01*
X53675285Y27342929D01*
X52318142Y26842929D02*
X52318142Y27842929D01*
X52318142Y27700072D02*
X52246714Y27771500D01*
X52103857Y27842929D01*
X51889571Y27842929D01*
X51746714Y27771500D01*
X51675285Y27628643D01*
X51675285Y26842929D01*
X51675285Y27628643D02*
X51603857Y27771500D01*
X51461000Y27842929D01*
X51246714Y27842929D01*
X51103857Y27771500D01*
X51032428Y27628643D01*
X51032428Y26842929D01*
X50318142Y27842929D02*
X50318142Y26342929D01*
X50318142Y27771500D02*
X50175285Y27842929D01*
X49889571Y27842929D01*
X49746714Y27771500D01*
X49675285Y27700072D01*
X49603857Y27557215D01*
X49603857Y27128643D01*
X49675285Y26985786D01*
X49746714Y26914358D01*
X49889571Y26842929D01*
X50175285Y26842929D01*
X50318142Y26914358D01*
X53246714Y25078643D02*
X52746714Y25078643D01*
X52532428Y24292929D02*
X53246714Y24292929D01*
X53246714Y25792929D01*
X52532428Y25792929D01*
X51603857Y25792929D02*
X51461000Y25792929D01*
X51318142Y25721500D01*
X51246714Y25650072D01*
X51175285Y25507215D01*
X51103857Y25221500D01*
X51103857Y24864358D01*
X51175285Y24578643D01*
X51246714Y24435786D01*
X51318142Y24364358D01*
X51461000Y24292929D01*
X51603857Y24292929D01*
X51746714Y24364358D01*
X51818142Y24435786D01*
X51889571Y24578643D01*
X51961000Y24864358D01*
X51961000Y25221500D01*
X51889571Y25507215D01*
X51818142Y25650072D01*
X51746714Y25721500D01*
X51603857Y25792929D01*
X55261000Y22092929D02*
X54403857Y22092929D01*
X54832428Y20592929D02*
X54832428Y22092929D01*
X53332428Y20664358D02*
X53475285Y20592929D01*
X53761000Y20592929D01*
X53903857Y20664358D01*
X53975285Y20807215D01*
X53975285Y21378643D01*
X53903857Y21521500D01*
X53761000Y21592929D01*
X53475285Y21592929D01*
X53332428Y21521500D01*
X53261000Y21378643D01*
X53261000Y21235786D01*
X53975285Y21092929D01*
X52618142Y20592929D02*
X52618142Y21592929D01*
X52618142Y21450072D02*
X52546714Y21521500D01*
X52403857Y21592929D01*
X52189571Y21592929D01*
X52046714Y21521500D01*
X51975285Y21378643D01*
X51975285Y20592929D01*
X51975285Y21378643D02*
X51903857Y21521500D01*
X51761000Y21592929D01*
X51546714Y21592929D01*
X51403857Y21521500D01*
X51332428Y21378643D01*
X51332428Y20592929D01*
X50618142Y21592929D02*
X50618142Y20092929D01*
X50618142Y21521500D02*
X50475285Y21592929D01*
X50189571Y21592929D01*
X50046714Y21521500D01*
X49975285Y21450072D01*
X49903857Y21307215D01*
X49903857Y20878643D01*
X49975285Y20735786D01*
X50046714Y20664358D01*
X50189571Y20592929D01*
X50475285Y20592929D01*
X50618142Y20664358D01*
X53546714Y18828643D02*
X53046714Y18828643D01*
X52832428Y18042929D02*
X53546714Y18042929D01*
X53546714Y19542929D01*
X52832428Y19542929D01*
X51403857Y18042929D02*
X52261000Y18042929D01*
X51832428Y18042929D02*
X51832428Y19542929D01*
X51975285Y19328643D01*
X52118142Y19185786D01*
X52261000Y19114358D01*
X55161000Y15542929D02*
X54303857Y15542929D01*
X54732428Y14042929D02*
X54732428Y15542929D01*
X53232428Y14114358D02*
X53375285Y14042929D01*
X53661000Y14042929D01*
X53803857Y14114358D01*
X53875285Y14257215D01*
X53875285Y14828643D01*
X53803857Y14971500D01*
X53661000Y15042929D01*
X53375285Y15042929D01*
X53232428Y14971500D01*
X53161000Y14828643D01*
X53161000Y14685786D01*
X53875285Y14542929D01*
X52518142Y14042929D02*
X52518142Y15042929D01*
X52518142Y14900072D02*
X52446714Y14971500D01*
X52303857Y15042929D01*
X52089571Y15042929D01*
X51946714Y14971500D01*
X51875285Y14828643D01*
X51875285Y14042929D01*
X51875285Y14828643D02*
X51803857Y14971500D01*
X51661000Y15042929D01*
X51446714Y15042929D01*
X51303857Y14971500D01*
X51232428Y14828643D01*
X51232428Y14042929D01*
X50518142Y15042929D02*
X50518142Y13542929D01*
X50518142Y14971500D02*
X50375285Y15042929D01*
X50089571Y15042929D01*
X49946714Y14971500D01*
X49875285Y14900072D01*
X49803857Y14757215D01*
X49803857Y14328643D01*
X49875285Y14185786D01*
X49946714Y14114358D01*
X50089571Y14042929D01*
X50375285Y14042929D01*
X50518142Y14114358D01*
X53625285Y12278643D02*
X53411000Y12207215D01*
X53339571Y12135786D01*
X53268142Y11992929D01*
X53268142Y11778643D01*
X53339571Y11635786D01*
X53411000Y11564358D01*
X53553857Y11492929D01*
X54125285Y11492929D01*
X54125285Y12992929D01*
X53625285Y12992929D01*
X53482428Y12921500D01*
X53411000Y12850072D01*
X53339571Y12707215D01*
X53339571Y12564358D01*
X53411000Y12421500D01*
X53482428Y12350072D01*
X53625285Y12278643D01*
X54125285Y12278643D01*
X52053857Y11564358D02*
X52196714Y11492929D01*
X52482428Y11492929D01*
X52625285Y11564358D01*
X52696714Y11707215D01*
X52696714Y12278643D01*
X52625285Y12421500D01*
X52482428Y12492929D01*
X52196714Y12492929D01*
X52053857Y12421500D01*
X51982428Y12278643D01*
X51982428Y12135786D01*
X52696714Y11992929D01*
X51339571Y11492929D02*
X51339571Y12992929D01*
X51339571Y12421500D02*
X51196714Y12492929D01*
X50911000Y12492929D01*
X50768142Y12421500D01*
X50696714Y12350072D01*
X50625285Y12207215D01*
X50625285Y11778643D01*
X50696714Y11635786D01*
X50768142Y11564358D01*
X50911000Y11492929D01*
X51196714Y11492929D01*
X51339571Y11564358D01*
X21289571Y45328643D02*
X20789571Y45328643D01*
X20575285Y44542929D02*
X21289571Y44542929D01*
X21289571Y46042929D01*
X20575285Y46042929D01*
X19146714Y44542929D02*
X20003857Y44542929D01*
X19575285Y44542929D02*
X19575285Y46042929D01*
X19718142Y45828643D01*
X19861000Y45685786D01*
X20003857Y45614358D01*
X16861000Y45328643D02*
X17361000Y45328643D01*
X17361000Y44542929D02*
X17361000Y46042929D01*
X16646714Y46042929D01*
X16075285Y44542929D02*
X16075285Y45542929D01*
X16075285Y46042929D02*
X16146714Y45971500D01*
X16075285Y45900072D01*
X16003857Y45971500D01*
X16075285Y46042929D01*
X16075285Y45900072D01*
X15146714Y44542929D02*
X15289571Y44614358D01*
X15361000Y44757215D01*
X15361000Y46042929D01*
X13932428Y44542929D02*
X13932428Y45328643D01*
X14003857Y45471500D01*
X14146714Y45542929D01*
X14432428Y45542929D01*
X14575285Y45471500D01*
X13932428Y44614358D02*
X14075285Y44542929D01*
X14432428Y44542929D01*
X14575285Y44614358D01*
X14646714Y44757215D01*
X14646714Y44900072D01*
X14575285Y45042929D01*
X14432428Y45114358D01*
X14075285Y45114358D01*
X13932428Y45185786D01*
X13218142Y44542929D02*
X13218142Y45542929D01*
X13218142Y45400072D02*
X13146714Y45471500D01*
X13003857Y45542929D01*
X12789571Y45542929D01*
X12646714Y45471500D01*
X12575285Y45328643D01*
X12575285Y44542929D01*
X12575285Y45328643D02*
X12503857Y45471500D01*
X12361000Y45542929D01*
X12146714Y45542929D01*
X12003857Y45471500D01*
X11932428Y45328643D01*
X11932428Y44542929D01*
X10646714Y44614358D02*
X10789571Y44542929D01*
X11075285Y44542929D01*
X11218142Y44614358D01*
X11289571Y44757215D01*
X11289571Y45328643D01*
X11218142Y45471500D01*
X11075285Y45542929D01*
X10789571Y45542929D01*
X10646714Y45471500D01*
X10575285Y45328643D01*
X10575285Y45185786D01*
X11289571Y45042929D01*
X9932428Y45542929D02*
X9932428Y44542929D01*
X9932428Y45400072D02*
X9861000Y45471500D01*
X9718142Y45542929D01*
X9503857Y45542929D01*
X9361000Y45471500D01*
X9289571Y45328643D01*
X9289571Y44542929D01*
X8789571Y45542929D02*
X8218142Y45542929D01*
X8575285Y46042929D02*
X8575285Y44757215D01*
X8503857Y44614358D01*
X8361000Y44542929D01*
X8218142Y44542929D01*
X18039571Y41992929D02*
X18039571Y43492929D01*
X17682428Y43492929D01*
X17468142Y43421500D01*
X17325285Y43278643D01*
X17253857Y43135786D01*
X17182428Y42850072D01*
X17182428Y42635786D01*
X17253857Y42350072D01*
X17325285Y42207215D01*
X17468142Y42064358D01*
X17682428Y41992929D01*
X18039571Y41992929D01*
X15968142Y42064358D02*
X16111000Y41992929D01*
X16396714Y41992929D01*
X16539571Y42064358D01*
X16611000Y42207215D01*
X16611000Y42778643D01*
X16539571Y42921500D01*
X16396714Y42992929D01*
X16111000Y42992929D01*
X15968142Y42921500D01*
X15896714Y42778643D01*
X15896714Y42635786D01*
X16611000Y42492929D01*
X15468142Y42992929D02*
X14896714Y42992929D01*
X15253857Y43492929D02*
X15253857Y42207215D01*
X15182428Y42064358D01*
X15039571Y41992929D01*
X14896714Y41992929D01*
X13825285Y42064358D02*
X13968142Y41992929D01*
X14253857Y41992929D01*
X14396714Y42064358D01*
X14468142Y42207215D01*
X14468142Y42778643D01*
X14396714Y42921500D01*
X14253857Y42992929D01*
X13968142Y42992929D01*
X13825285Y42921500D01*
X13753857Y42778643D01*
X13753857Y42635786D01*
X14468142Y42492929D01*
X12468142Y42064358D02*
X12611000Y41992929D01*
X12896714Y41992929D01*
X13039571Y42064358D01*
X13111000Y42135786D01*
X13182428Y42278643D01*
X13182428Y42707215D01*
X13111000Y42850072D01*
X13039571Y42921500D01*
X12896714Y42992929D01*
X12611000Y42992929D01*
X12468142Y42921500D01*
X12039571Y42992929D02*
X11468142Y42992929D01*
X11825285Y43492929D02*
X11825285Y42207215D01*
X11753857Y42064358D01*
X11611000Y41992929D01*
X11468142Y41992929D01*
X17002285Y29572215D02*
X17002285Y28857929D01*
X17502285Y30357929D02*
X17002285Y29572215D01*
X16502285Y30357929D01*
X14859428Y28857929D02*
X14859428Y30357929D01*
X14359428Y29286500D01*
X13859428Y30357929D01*
X13859428Y28857929D01*
X12502285Y28857929D02*
X12502285Y29643643D01*
X12573714Y29786500D01*
X12716571Y29857929D01*
X13002285Y29857929D01*
X13145142Y29786500D01*
X12502285Y28929358D02*
X12645142Y28857929D01*
X13002285Y28857929D01*
X13145142Y28929358D01*
X13216571Y29072215D01*
X13216571Y29215072D01*
X13145142Y29357929D01*
X13002285Y29429358D01*
X12645142Y29429358D01*
X12502285Y29500786D01*
X11930857Y28857929D02*
X11145142Y29857929D01*
X11930857Y29857929D02*
X11145142Y28857929D01*
X17629285Y20959929D02*
X16629285Y20959929D01*
X17629285Y19459929D01*
X16629285Y19459929D01*
X14915000Y19459929D02*
X14915000Y20959929D01*
X14415000Y19888500D01*
X13915000Y20959929D01*
X13915000Y19459929D01*
X12557857Y19459929D02*
X12557857Y20245643D01*
X12629285Y20388500D01*
X12772142Y20459929D01*
X13057857Y20459929D01*
X13200714Y20388500D01*
X12557857Y19531358D02*
X12700714Y19459929D01*
X13057857Y19459929D01*
X13200714Y19531358D01*
X13272142Y19674215D01*
X13272142Y19817072D01*
X13200714Y19959929D01*
X13057857Y20031358D01*
X12700714Y20031358D01*
X12557857Y20102786D01*
X11986428Y19459929D02*
X11200714Y20459929D01*
X11986428Y20459929D02*
X11200714Y19459929D01*
X58439571Y33978643D02*
X57939571Y33978643D01*
X57725285Y33192929D02*
X58439571Y33192929D01*
X58439571Y34692929D01*
X57725285Y34692929D01*
X56796714Y34692929D02*
X56653857Y34692929D01*
X56511000Y34621500D01*
X56439571Y34550072D01*
X56368142Y34407215D01*
X56296714Y34121500D01*
X56296714Y33764358D01*
X56368142Y33478643D01*
X56439571Y33335786D01*
X56511000Y33264358D01*
X56653857Y33192929D01*
X56796714Y33192929D01*
X56939571Y33264358D01*
X57011000Y33335786D01*
X57082428Y33478643D01*
X57153857Y33764358D01*
X57153857Y34121500D01*
X57082428Y34407215D01*
X57011000Y34550072D01*
X56939571Y34621500D01*
X56796714Y34692929D01*
X54011000Y33978643D02*
X54511000Y33978643D01*
X54511000Y33192929D02*
X54511000Y34692929D01*
X53796714Y34692929D01*
X53225285Y33192929D02*
X53225285Y34192929D01*
X53225285Y34692929D02*
X53296714Y34621500D01*
X53225285Y34550072D01*
X53153857Y34621500D01*
X53225285Y34692929D01*
X53225285Y34550072D01*
X52296714Y33192929D02*
X52439571Y33264358D01*
X52511000Y33407215D01*
X52511000Y34692929D01*
X51082428Y33192929D02*
X51082428Y33978643D01*
X51153857Y34121500D01*
X51296714Y34192929D01*
X51582428Y34192929D01*
X51725285Y34121500D01*
X51082428Y33264358D02*
X51225285Y33192929D01*
X51582428Y33192929D01*
X51725285Y33264358D01*
X51796714Y33407215D01*
X51796714Y33550072D01*
X51725285Y33692929D01*
X51582428Y33764358D01*
X51225285Y33764358D01*
X51082428Y33835786D01*
X50368142Y33192929D02*
X50368142Y34192929D01*
X50368142Y34050072D02*
X50296714Y34121500D01*
X50153857Y34192929D01*
X49939571Y34192929D01*
X49796714Y34121500D01*
X49725285Y33978643D01*
X49725285Y33192929D01*
X49725285Y33978643D02*
X49653857Y34121500D01*
X49511000Y34192929D01*
X49296714Y34192929D01*
X49153857Y34121500D01*
X49082428Y33978643D01*
X49082428Y33192929D01*
X47796714Y33264358D02*
X47939571Y33192929D01*
X48225285Y33192929D01*
X48368142Y33264358D01*
X48439571Y33407215D01*
X48439571Y33978643D01*
X48368142Y34121500D01*
X48225285Y34192929D01*
X47939571Y34192929D01*
X47796714Y34121500D01*
X47725285Y33978643D01*
X47725285Y33835786D01*
X48439571Y33692929D01*
X47082428Y34192929D02*
X47082428Y33192929D01*
X47082428Y34050072D02*
X47011000Y34121500D01*
X46868142Y34192929D01*
X46653857Y34192929D01*
X46511000Y34121500D01*
X46439571Y33978643D01*
X46439571Y33192929D01*
X45939571Y34192929D02*
X45368142Y34192929D01*
X45725285Y34692929D02*
X45725285Y33407215D01*
X45653857Y33264358D01*
X45511000Y33192929D01*
X45368142Y33192929D01*
X55189571Y30642929D02*
X55189571Y32142929D01*
X54832428Y32142929D01*
X54618142Y32071500D01*
X54475285Y31928643D01*
X54403857Y31785786D01*
X54332428Y31500072D01*
X54332428Y31285786D01*
X54403857Y31000072D01*
X54475285Y30857215D01*
X54618142Y30714358D01*
X54832428Y30642929D01*
X55189571Y30642929D01*
X53118142Y30714358D02*
X53261000Y30642929D01*
X53546714Y30642929D01*
X53689571Y30714358D01*
X53761000Y30857215D01*
X53761000Y31428643D01*
X53689571Y31571500D01*
X53546714Y31642929D01*
X53261000Y31642929D01*
X53118142Y31571500D01*
X53046714Y31428643D01*
X53046714Y31285786D01*
X53761000Y31142929D01*
X52618142Y31642929D02*
X52046714Y31642929D01*
X52403857Y32142929D02*
X52403857Y30857215D01*
X52332428Y30714358D01*
X52189571Y30642929D01*
X52046714Y30642929D01*
X50975285Y30714358D02*
X51118142Y30642929D01*
X51403857Y30642929D01*
X51546714Y30714358D01*
X51618142Y30857215D01*
X51618142Y31428643D01*
X51546714Y31571500D01*
X51403857Y31642929D01*
X51118142Y31642929D01*
X50975285Y31571500D01*
X50903857Y31428643D01*
X50903857Y31285786D01*
X51618142Y31142929D01*
X49618142Y30714358D02*
X49761000Y30642929D01*
X50046714Y30642929D01*
X50189571Y30714358D01*
X50261000Y30785786D01*
X50332428Y30928643D01*
X50332428Y31357215D01*
X50261000Y31500072D01*
X50189571Y31571500D01*
X50046714Y31642929D01*
X49761000Y31642929D01*
X49618142Y31571500D01*
X49189571Y31642929D02*
X48618142Y31642929D01*
X48975285Y32142929D02*
X48975285Y30857215D01*
X48903857Y30714358D01*
X48761000Y30642929D01*
X48618142Y30642929D01*
X53275285Y47467929D02*
X52275285Y45967929D01*
X52275285Y47467929D02*
X53275285Y45967929D01*
X50561000Y45967929D02*
X50561000Y47467929D01*
X50061000Y46396500D01*
X49561000Y47467929D01*
X49561000Y45967929D01*
X48203857Y45967929D02*
X48203857Y46753643D01*
X48275285Y46896500D01*
X48418142Y46967929D01*
X48703857Y46967929D01*
X48846714Y46896500D01*
X48203857Y46039358D02*
X48346714Y45967929D01*
X48703857Y45967929D01*
X48846714Y46039358D01*
X48918142Y46182215D01*
X48918142Y46325072D01*
X48846714Y46467929D01*
X48703857Y46539358D01*
X48346714Y46539358D01*
X48203857Y46610786D01*
X47632428Y45967929D02*
X46846714Y46967929D01*
X47632428Y46967929D02*
X46846714Y45967929D01*
X61333785Y42669429D02*
X60333785Y42669429D01*
X61333785Y41169429D01*
X60333785Y41169429D01*
X58619500Y41169429D02*
X58619500Y42669429D01*
X58119500Y41598000D01*
X57619500Y42669429D01*
X57619500Y41169429D01*
X56905214Y41169429D02*
X56905214Y42169429D01*
X56905214Y42669429D02*
X56976642Y42598000D01*
X56905214Y42526572D01*
X56833785Y42598000D01*
X56905214Y42669429D01*
X56905214Y42526572D01*
X56190928Y42169429D02*
X56190928Y41169429D01*
X56190928Y42026572D02*
X56119500Y42098000D01*
X55976642Y42169429D01*
X55762357Y42169429D01*
X55619500Y42098000D01*
X55548071Y41955143D01*
X55548071Y41169429D01*
X52775285Y55382215D02*
X52775285Y54667929D01*
X53275285Y56167929D02*
X52775285Y55382215D01*
X52275285Y56167929D01*
X50632428Y54667929D02*
X50632428Y56167929D01*
X50132428Y55096500D01*
X49632428Y56167929D01*
X49632428Y54667929D01*
X48918142Y54667929D02*
X48918142Y55667929D01*
X48918142Y56167929D02*
X48989571Y56096500D01*
X48918142Y56025072D01*
X48846714Y56096500D01*
X48918142Y56167929D01*
X48918142Y56025072D01*
X48203857Y55667929D02*
X48203857Y54667929D01*
X48203857Y55525072D02*
X48132428Y55596500D01*
X47989571Y55667929D01*
X47775285Y55667929D01*
X47632428Y55596500D01*
X47561000Y55453643D01*
X47561000Y54667929D01*
X61143285Y51178429D02*
X60143285Y49678429D01*
X60143285Y51178429D02*
X61143285Y49678429D01*
X58429000Y49678429D02*
X58429000Y51178429D01*
X57929000Y50107000D01*
X57429000Y51178429D01*
X57429000Y49678429D01*
X56714714Y49678429D02*
X56714714Y50678429D01*
X56714714Y51178429D02*
X56786142Y51107000D01*
X56714714Y51035572D01*
X56643285Y51107000D01*
X56714714Y51178429D01*
X56714714Y51035572D01*
X56000428Y50678429D02*
X56000428Y49678429D01*
X56000428Y50535572D02*
X55929000Y50607000D01*
X55786142Y50678429D01*
X55571857Y50678429D01*
X55429000Y50607000D01*
X55357571Y50464143D01*
X55357571Y49678429D01*
X57574571Y9801500D02*
X56860285Y9801500D01*
X57717428Y9372929D02*
X57217428Y10872929D01*
X56717428Y9372929D01*
X56003142Y9372929D02*
X56146000Y9444358D01*
X56217428Y9587215D01*
X56217428Y10872929D01*
X55574571Y10372929D02*
X55288857Y9372929D01*
X55003142Y10087215D01*
X54717428Y9372929D01*
X54431714Y10372929D01*
X53217428Y9372929D02*
X53217428Y10158643D01*
X53288857Y10301500D01*
X53431714Y10372929D01*
X53717428Y10372929D01*
X53860285Y10301500D01*
X53217428Y9444358D02*
X53360285Y9372929D01*
X53717428Y9372929D01*
X53860285Y9444358D01*
X53931714Y9587215D01*
X53931714Y9730072D01*
X53860285Y9872929D01*
X53717428Y9944358D01*
X53360285Y9944358D01*
X53217428Y10015786D01*
X52646000Y10372929D02*
X52288857Y9372929D01*
X51931714Y10372929D02*
X52288857Y9372929D01*
X52431714Y9015786D01*
X52503142Y8944358D01*
X52646000Y8872929D01*
X51431714Y9444358D02*
X51288857Y9372929D01*
X51003142Y9372929D01*
X50860285Y9444358D01*
X50788857Y9587215D01*
X50788857Y9658643D01*
X50860285Y9801500D01*
X51003142Y9872929D01*
X51217428Y9872929D01*
X51360285Y9944358D01*
X51431714Y10087215D01*
X51431714Y10158643D01*
X51360285Y10301500D01*
X51217428Y10372929D01*
X51003142Y10372929D01*
X50860285Y10301500D01*
X48717428Y10872929D02*
X48431714Y10872929D01*
X48288857Y10801500D01*
X48146000Y10658643D01*
X48074571Y10372929D01*
X48074571Y9872929D01*
X48146000Y9587215D01*
X48288857Y9444358D01*
X48431714Y9372929D01*
X48717428Y9372929D01*
X48860285Y9444358D01*
X49003142Y9587215D01*
X49074571Y9872929D01*
X49074571Y10372929D01*
X49003142Y10658643D01*
X48860285Y10801500D01*
X48717428Y10872929D01*
X47431714Y10372929D02*
X47431714Y9372929D01*
X47431714Y10230072D02*
X47360285Y10301500D01*
X47217428Y10372929D01*
X47003142Y10372929D01*
X46860285Y10301500D01*
X46788857Y10158643D01*
X46788857Y9372929D01*
X58931714Y7394358D02*
X57788857Y7394358D01*
X54788857Y7394358D02*
X53646000Y7394358D01*
X54217428Y6822929D02*
X54217428Y7965786D01*
X50646000Y7394358D02*
X49503142Y7394358D01*
X46503142Y7394358D02*
X45360285Y7394358D01*
X45931714Y6822929D02*
X45931714Y7965786D01*
X15931714Y13833143D02*
X15431714Y13833143D01*
X15217428Y13047429D02*
X15931714Y13047429D01*
X15931714Y14547429D01*
X15217428Y14547429D01*
X13788857Y13047429D02*
X14646000Y13047429D01*
X14217428Y13047429D02*
X14217428Y14547429D01*
X14360285Y14333143D01*
X14503142Y14190286D01*
X14646000Y14118858D01*
X16860285Y10497429D02*
X16860285Y11997429D01*
X16288857Y11997429D01*
X16146000Y11926000D01*
X16074571Y11854572D01*
X16003142Y11711715D01*
X16003142Y11497429D01*
X16074571Y11354572D01*
X16146000Y11283143D01*
X16288857Y11211715D01*
X16860285Y11211715D01*
X14717428Y10497429D02*
X14717428Y11283143D01*
X14788857Y11426000D01*
X14931714Y11497429D01*
X15217428Y11497429D01*
X15360285Y11426000D01*
X14717428Y10568858D02*
X14860285Y10497429D01*
X15217428Y10497429D01*
X15360285Y10568858D01*
X15431714Y10711715D01*
X15431714Y10854572D01*
X15360285Y10997429D01*
X15217428Y11068858D01*
X14860285Y11068858D01*
X14717428Y11140286D01*
X14003142Y10497429D02*
X14003142Y11497429D01*
X14003142Y11211715D02*
X13931714Y11354572D01*
X13860285Y11426000D01*
X13717428Y11497429D01*
X13574571Y11497429D01*
X13288857Y11497429D02*
X12717428Y11497429D01*
X13074571Y11997429D02*
X13074571Y10711715D01*
X13003142Y10568858D01*
X12860285Y10497429D01*
X12717428Y10497429D01*
X17538857Y8518858D02*
X16396000Y8518858D01*
X13396000Y8518858D02*
X12253142Y8518858D01*
X12824571Y7947429D02*
X12824571Y9090286D01*
X24250214Y13896643D02*
X23750214Y13896643D01*
X23535928Y13110929D02*
X24250214Y13110929D01*
X24250214Y14610929D01*
X23535928Y14610929D01*
X22607357Y14610929D02*
X22464500Y14610929D01*
X22321642Y14539500D01*
X22250214Y14468072D01*
X22178785Y14325215D01*
X22107357Y14039500D01*
X22107357Y13682358D01*
X22178785Y13396643D01*
X22250214Y13253786D01*
X22321642Y13182358D01*
X22464500Y13110929D01*
X22607357Y13110929D01*
X22750214Y13182358D01*
X22821642Y13253786D01*
X22893071Y13396643D01*
X22964500Y13682358D01*
X22964500Y14039500D01*
X22893071Y14325215D01*
X22821642Y14468072D01*
X22750214Y14539500D01*
X22607357Y14610929D01*
X25178785Y10560929D02*
X25178785Y12060929D01*
X24607357Y12060929D01*
X24464500Y11989500D01*
X24393071Y11918072D01*
X24321642Y11775215D01*
X24321642Y11560929D01*
X24393071Y11418072D01*
X24464500Y11346643D01*
X24607357Y11275215D01*
X25178785Y11275215D01*
X23035928Y10560929D02*
X23035928Y11346643D01*
X23107357Y11489500D01*
X23250214Y11560929D01*
X23535928Y11560929D01*
X23678785Y11489500D01*
X23035928Y10632358D02*
X23178785Y10560929D01*
X23535928Y10560929D01*
X23678785Y10632358D01*
X23750214Y10775215D01*
X23750214Y10918072D01*
X23678785Y11060929D01*
X23535928Y11132358D01*
X23178785Y11132358D01*
X23035928Y11203786D01*
X22321642Y10560929D02*
X22321642Y11560929D01*
X22321642Y11275215D02*
X22250214Y11418072D01*
X22178785Y11489500D01*
X22035928Y11560929D01*
X21893071Y11560929D01*
X21607357Y11560929D02*
X21035928Y11560929D01*
X21393071Y12060929D02*
X21393071Y10775215D01*
X21321642Y10632358D01*
X21178785Y10560929D01*
X21035928Y10560929D01*
X25857357Y8582358D02*
X24714500Y8582358D01*
X21714500Y8582358D02*
X20571642Y8582358D01*
X21143071Y8010929D02*
X21143071Y9153786D01*
X32759214Y13769643D02*
X32259214Y13769643D01*
X32044928Y12983929D02*
X32759214Y12983929D01*
X32759214Y14483929D01*
X32044928Y14483929D01*
X30616357Y12983929D02*
X31473500Y12983929D01*
X31044928Y12983929D02*
X31044928Y14483929D01*
X31187785Y14269643D01*
X31330642Y14126786D01*
X31473500Y14055358D01*
X33009214Y10576786D02*
X33080642Y10505358D01*
X33294928Y10433929D01*
X33437785Y10433929D01*
X33652071Y10505358D01*
X33794928Y10648215D01*
X33866357Y10791072D01*
X33937785Y11076786D01*
X33937785Y11291072D01*
X33866357Y11576786D01*
X33794928Y11719643D01*
X33652071Y11862500D01*
X33437785Y11933929D01*
X33294928Y11933929D01*
X33080642Y11862500D01*
X33009214Y11791072D01*
X32152071Y10433929D02*
X32294928Y10505358D01*
X32366357Y10576786D01*
X32437785Y10719643D01*
X32437785Y11148215D01*
X32366357Y11291072D01*
X32294928Y11362500D01*
X32152071Y11433929D01*
X31937785Y11433929D01*
X31794928Y11362500D01*
X31723500Y11291072D01*
X31652071Y11148215D01*
X31652071Y10719643D01*
X31723500Y10576786D01*
X31794928Y10505358D01*
X31937785Y10433929D01*
X32152071Y10433929D01*
X30794928Y10433929D02*
X30937785Y10505358D01*
X31009214Y10576786D01*
X31080642Y10719643D01*
X31080642Y11148215D01*
X31009214Y11291072D01*
X30937785Y11362500D01*
X30794928Y11433929D01*
X30580642Y11433929D01*
X30437785Y11362500D01*
X30366357Y11291072D01*
X30294928Y11148215D01*
X30294928Y10719643D01*
X30366357Y10576786D01*
X30437785Y10505358D01*
X30580642Y10433929D01*
X30794928Y10433929D01*
X29437785Y10433929D02*
X29580642Y10505358D01*
X29652071Y10648215D01*
X29652071Y11933929D01*
X34366357Y8455358D02*
X33223500Y8455358D01*
X30223500Y8455358D02*
X29080642Y8455358D01*
X29652071Y7883929D02*
X29652071Y9026786D01*
X40787214Y13719643D02*
X40287214Y13719643D01*
X40072928Y12933929D02*
X40787214Y12933929D01*
X40787214Y14433929D01*
X40072928Y14433929D01*
X39144357Y14433929D02*
X39001500Y14433929D01*
X38858642Y14362500D01*
X38787214Y14291072D01*
X38715785Y14148215D01*
X38644357Y13862500D01*
X38644357Y13505358D01*
X38715785Y13219643D01*
X38787214Y13076786D01*
X38858642Y13005358D01*
X39001500Y12933929D01*
X39144357Y12933929D01*
X39287214Y13005358D01*
X39358642Y13076786D01*
X39430071Y13219643D01*
X39501500Y13505358D01*
X39501500Y13862500D01*
X39430071Y14148215D01*
X39358642Y14291072D01*
X39287214Y14362500D01*
X39144357Y14433929D01*
X41037214Y10526786D02*
X41108642Y10455358D01*
X41322928Y10383929D01*
X41465785Y10383929D01*
X41680071Y10455358D01*
X41822928Y10598215D01*
X41894357Y10741072D01*
X41965785Y11026786D01*
X41965785Y11241072D01*
X41894357Y11526786D01*
X41822928Y11669643D01*
X41680071Y11812500D01*
X41465785Y11883929D01*
X41322928Y11883929D01*
X41108642Y11812500D01*
X41037214Y11741072D01*
X40180071Y10383929D02*
X40322928Y10455358D01*
X40394357Y10526786D01*
X40465785Y10669643D01*
X40465785Y11098215D01*
X40394357Y11241072D01*
X40322928Y11312500D01*
X40180071Y11383929D01*
X39965785Y11383929D01*
X39822928Y11312500D01*
X39751500Y11241072D01*
X39680071Y11098215D01*
X39680071Y10669643D01*
X39751500Y10526786D01*
X39822928Y10455358D01*
X39965785Y10383929D01*
X40180071Y10383929D01*
X38822928Y10383929D02*
X38965785Y10455358D01*
X39037214Y10526786D01*
X39108642Y10669643D01*
X39108642Y11098215D01*
X39037214Y11241072D01*
X38965785Y11312500D01*
X38822928Y11383929D01*
X38608642Y11383929D01*
X38465785Y11312500D01*
X38394357Y11241072D01*
X38322928Y11098215D01*
X38322928Y10669643D01*
X38394357Y10526786D01*
X38465785Y10455358D01*
X38608642Y10383929D01*
X38822928Y10383929D01*
X37465785Y10383929D02*
X37608642Y10455358D01*
X37680071Y10598215D01*
X37680071Y11883929D01*
X42394357Y8405358D02*
X41251500Y8405358D01*
X38251500Y8405358D02*
X37108642Y8405358D01*
X37680071Y7833929D02*
X37680071Y8976786D01*
X24864000Y16426643D02*
X25364000Y16426643D01*
X25364000Y15640929D02*
X25364000Y17140929D01*
X24649714Y17140929D01*
X23435428Y15640929D02*
X23435428Y16426643D01*
X23506857Y16569500D01*
X23649714Y16640929D01*
X23935428Y16640929D01*
X24078285Y16569500D01*
X23435428Y15712358D02*
X23578285Y15640929D01*
X23935428Y15640929D01*
X24078285Y15712358D01*
X24149714Y15855215D01*
X24149714Y15998072D01*
X24078285Y16140929D01*
X23935428Y16212358D01*
X23578285Y16212358D01*
X23435428Y16283786D01*
X22721142Y16640929D02*
X22721142Y15640929D01*
X22721142Y16498072D02*
X22649714Y16569500D01*
X22506857Y16640929D01*
X22292571Y16640929D01*
X22149714Y16569500D01*
X22078285Y16426643D01*
X22078285Y15640929D01*
X21435428Y15712358D02*
X21292571Y15640929D01*
X21006857Y15640929D01*
X20864000Y15712358D01*
X20792571Y15855215D01*
X20792571Y15926643D01*
X20864000Y16069500D01*
X21006857Y16140929D01*
X21221142Y16140929D01*
X21364000Y16212358D01*
X21435428Y16355215D01*
X21435428Y16426643D01*
X21364000Y16569500D01*
X21221142Y16640929D01*
X21006857Y16640929D01*
X20864000Y16569500D01*
X30557428Y92928643D02*
X30057428Y92928643D01*
X29843142Y92142929D02*
X30557428Y92142929D01*
X30557428Y93642929D01*
X29843142Y93642929D01*
X29343142Y92142929D02*
X28557428Y93142929D01*
X29343142Y93142929D02*
X28557428Y92142929D01*
X28200285Y93142929D02*
X27628857Y93142929D01*
X27986000Y93642929D02*
X27986000Y92357215D01*
X27914571Y92214358D01*
X27771714Y92142929D01*
X27628857Y92142929D01*
X27128857Y92142929D02*
X27128857Y93142929D01*
X27128857Y92857215D02*
X27057428Y93000072D01*
X26986000Y93071500D01*
X26843142Y93142929D01*
X26700285Y93142929D01*
X25557428Y93142929D02*
X25557428Y92142929D01*
X26200285Y93142929D02*
X26200285Y92357215D01*
X26128857Y92214358D01*
X25986000Y92142929D01*
X25771714Y92142929D01*
X25628857Y92214358D01*
X25557428Y92285786D01*
X24200285Y92142929D02*
X24200285Y93642929D01*
X24200285Y92214358D02*
X24343142Y92142929D01*
X24628857Y92142929D01*
X24771714Y92214358D01*
X24843142Y92285786D01*
X24914571Y92428643D01*
X24914571Y92857215D01*
X24843142Y93000072D01*
X24771714Y93071500D01*
X24628857Y93142929D01*
X24343142Y93142929D01*
X24200285Y93071500D01*
X22914571Y92214358D02*
X23057428Y92142929D01*
X23343142Y92142929D01*
X23486000Y92214358D01*
X23557428Y92357215D01*
X23557428Y92928643D01*
X23486000Y93071500D01*
X23343142Y93142929D01*
X23057428Y93142929D01*
X22914571Y93071500D01*
X22843142Y92928643D01*
X22843142Y92785786D01*
X23557428Y92642929D01*
X22200285Y92142929D02*
X22200285Y93142929D01*
X22200285Y92857215D02*
X22128857Y93000072D01*
X22057428Y93071500D01*
X21914571Y93142929D01*
X21771714Y93142929D01*
X19343142Y92142929D02*
X20200285Y92142929D01*
X19771714Y92142929D02*
X19771714Y93642929D01*
X19914571Y93428643D01*
X20057428Y93285786D01*
X20200285Y93214358D01*
X1797857Y74722929D02*
X1797857Y74222929D01*
X2583571Y74008643D02*
X2583571Y74722929D01*
X1083571Y74722929D01*
X1083571Y74008643D01*
X2583571Y73508643D02*
X1583571Y72722929D01*
X1583571Y73508643D02*
X2583571Y72722929D01*
X1583571Y72365786D02*
X1583571Y71794358D01*
X1083571Y72151500D02*
X2369285Y72151500D01*
X2512142Y72080072D01*
X2583571Y71937215D01*
X2583571Y71794358D01*
X2583571Y71294358D02*
X1583571Y71294358D01*
X1869285Y71294358D02*
X1726428Y71222929D01*
X1655000Y71151500D01*
X1583571Y71008643D01*
X1583571Y70865786D01*
X1583571Y69722929D02*
X2583571Y69722929D01*
X1583571Y70365786D02*
X2369285Y70365786D01*
X2512142Y70294358D01*
X2583571Y70151500D01*
X2583571Y69937215D01*
X2512142Y69794358D01*
X2440714Y69722929D01*
X2583571Y68365786D02*
X1083571Y68365786D01*
X2512142Y68365786D02*
X2583571Y68508643D01*
X2583571Y68794358D01*
X2512142Y68937215D01*
X2440714Y69008643D01*
X2297857Y69080072D01*
X1869285Y69080072D01*
X1726428Y69008643D01*
X1655000Y68937215D01*
X1583571Y68794358D01*
X1583571Y68508643D01*
X1655000Y68365786D01*
X2512142Y67080072D02*
X2583571Y67222929D01*
X2583571Y67508643D01*
X2512142Y67651500D01*
X2369285Y67722929D01*
X1797857Y67722929D01*
X1655000Y67651500D01*
X1583571Y67508643D01*
X1583571Y67222929D01*
X1655000Y67080072D01*
X1797857Y67008643D01*
X1940714Y67008643D01*
X2083571Y67722929D01*
X2583571Y66365786D02*
X1583571Y66365786D01*
X1869285Y66365786D02*
X1726428Y66294358D01*
X1655000Y66222929D01*
X1583571Y66080072D01*
X1583571Y65937215D01*
X1083571Y64008643D02*
X1083571Y63865786D01*
X1155000Y63722929D01*
X1226428Y63651500D01*
X1369285Y63580072D01*
X1655000Y63508643D01*
X2012142Y63508643D01*
X2297857Y63580072D01*
X2440714Y63651500D01*
X2512142Y63722929D01*
X2583571Y63865786D01*
X2583571Y64008643D01*
X2512142Y64151500D01*
X2440714Y64222929D01*
X2297857Y64294358D01*
X2012142Y64365786D01*
X1655000Y64365786D01*
X1369285Y64294358D01*
X1226428Y64222929D01*
X1155000Y64151500D01*
X1083571Y64008643D01*
X95444571Y21510215D02*
X96944571Y20510215D01*
X95444571Y20510215D02*
X96944571Y21510215D01*
X96516000Y18867358D02*
X96516000Y18153072D01*
X96944571Y19010215D02*
X95444571Y18510215D01*
X96944571Y18010215D01*
X96944571Y17653072D02*
X95944571Y16867358D01*
X95944571Y17653072D02*
X96944571Y16867358D01*
X96944571Y16295929D02*
X95944571Y16295929D01*
X95444571Y16295929D02*
X95516000Y16367358D01*
X95587428Y16295929D01*
X95516000Y16224500D01*
X95444571Y16295929D01*
X95587428Y16295929D01*
X96873142Y15653072D02*
X96944571Y15510215D01*
X96944571Y15224500D01*
X96873142Y15081643D01*
X96730285Y15010215D01*
X96658857Y15010215D01*
X96516000Y15081643D01*
X96444571Y15224500D01*
X96444571Y15438786D01*
X96373142Y15581643D01*
X96230285Y15653072D01*
X96158857Y15653072D01*
X96016000Y15581643D01*
X95944571Y15438786D01*
X95944571Y15224500D01*
X96016000Y15081643D01*
X96293785Y45902215D02*
X97008071Y45902215D01*
X95508071Y46402215D02*
X96293785Y45902215D01*
X95508071Y45402215D01*
X96579500Y43830786D02*
X96579500Y43116500D01*
X97008071Y43973643D02*
X95508071Y43473643D01*
X97008071Y42973643D01*
X97008071Y42616500D02*
X96008071Y41830786D01*
X96008071Y42616500D02*
X97008071Y41830786D01*
X97008071Y41259358D02*
X96008071Y41259358D01*
X95508071Y41259358D02*
X95579500Y41330786D01*
X95650928Y41259358D01*
X95579500Y41187929D01*
X95508071Y41259358D01*
X95650928Y41259358D01*
X96936642Y40616500D02*
X97008071Y40473643D01*
X97008071Y40187929D01*
X96936642Y40045072D01*
X96793785Y39973643D01*
X96722357Y39973643D01*
X96579500Y40045072D01*
X96508071Y40187929D01*
X96508071Y40402215D01*
X96436642Y40545072D01*
X96293785Y40616500D01*
X96222357Y40616500D01*
X96079500Y40545072D01*
X96008071Y40402215D01*
X96008071Y40187929D01*
X96079500Y40045072D01*
X93984071Y76818715D02*
X93984071Y75818715D01*
X95484071Y76818715D01*
X95484071Y75818715D01*
X95055500Y74175858D02*
X95055500Y73461572D01*
X95484071Y74318715D02*
X93984071Y73818715D01*
X95484071Y73318715D01*
X95484071Y72961572D02*
X94484071Y72175858D01*
X94484071Y72961572D02*
X95484071Y72175858D01*
X95484071Y71604429D02*
X94484071Y71604429D01*
X93984071Y71604429D02*
X94055500Y71675858D01*
X94126928Y71604429D01*
X94055500Y71533000D01*
X93984071Y71604429D01*
X94126928Y71604429D01*
X95412642Y70961572D02*
X95484071Y70818715D01*
X95484071Y70533000D01*
X95412642Y70390143D01*
X95269785Y70318715D01*
X95198357Y70318715D01*
X95055500Y70390143D01*
X94984071Y70533000D01*
X94984071Y70747286D01*
X94912642Y70890143D01*
X94769785Y70961572D01*
X94698357Y70961572D01*
X94555500Y70890143D01*
X94484071Y70747286D01*
X94484071Y70533000D01*
X94555500Y70390143D01*
X59772857Y87586429D02*
X59772857Y89086429D01*
X59772857Y88372143D02*
X58915714Y88372143D01*
X58915714Y87586429D02*
X58915714Y89086429D01*
X57630000Y87657858D02*
X57772857Y87586429D01*
X58058571Y87586429D01*
X58201428Y87657858D01*
X58272857Y87800715D01*
X58272857Y88372143D01*
X58201428Y88515000D01*
X58058571Y88586429D01*
X57772857Y88586429D01*
X57630000Y88515000D01*
X57558571Y88372143D01*
X57558571Y88229286D01*
X58272857Y88086429D01*
X56272857Y87586429D02*
X56272857Y88372143D01*
X56344285Y88515000D01*
X56487142Y88586429D01*
X56772857Y88586429D01*
X56915714Y88515000D01*
X56272857Y87657858D02*
X56415714Y87586429D01*
X56772857Y87586429D01*
X56915714Y87657858D01*
X56987142Y87800715D01*
X56987142Y87943572D01*
X56915714Y88086429D01*
X56772857Y88157858D01*
X56415714Y88157858D01*
X56272857Y88229286D01*
X55772857Y88586429D02*
X55201428Y88586429D01*
X55558571Y89086429D02*
X55558571Y87800715D01*
X55487142Y87657858D01*
X55344285Y87586429D01*
X55201428Y87586429D01*
X54130000Y87657858D02*
X54272857Y87586429D01*
X54558571Y87586429D01*
X54701428Y87657858D01*
X54772857Y87800715D01*
X54772857Y88372143D01*
X54701428Y88515000D01*
X54558571Y88586429D01*
X54272857Y88586429D01*
X54130000Y88515000D01*
X54058571Y88372143D01*
X54058571Y88229286D01*
X54772857Y88086429D01*
X53415714Y87586429D02*
X53415714Y88586429D01*
X53415714Y88300715D02*
X53344285Y88443572D01*
X53272857Y88515000D01*
X53130000Y88586429D01*
X52987142Y88586429D01*
X52558571Y87657858D02*
X52415714Y87586429D01*
X52130000Y87586429D01*
X51987142Y87657858D01*
X51915714Y87800715D01*
X51915714Y87872143D01*
X51987142Y88015000D01*
X52130000Y88086429D01*
X52344285Y88086429D01*
X52487142Y88157858D01*
X52558571Y88300715D01*
X52558571Y88372143D01*
X52487142Y88515000D01*
X52344285Y88586429D01*
X52130000Y88586429D01*
X51987142Y88515000D01*
X9668142Y90875072D02*
X8953857Y90875072D01*
X8882428Y91589358D01*
X8953857Y91517929D01*
X9096714Y91446500D01*
X9453857Y91446500D01*
X9596714Y91517929D01*
X9668142Y91589358D01*
X9739571Y91732215D01*
X9739571Y92089358D01*
X9668142Y92232215D01*
X9596714Y92303643D01*
X9453857Y92375072D01*
X9096714Y92375072D01*
X8953857Y92303643D01*
X8882428Y92232215D01*
X10168142Y90875072D02*
X10668142Y92375072D01*
X11168142Y90875072D01*
X12810999Y92375072D02*
X12810999Y90875072D01*
X13525285Y91375072D02*
X13525285Y92375072D01*
X13525285Y91517929D02*
X13596714Y91446500D01*
X13739571Y91375072D01*
X13953857Y91375072D01*
X14096714Y91446500D01*
X14168142Y91589358D01*
X14168142Y92375072D01*
X8918142Y96903643D02*
X10061000Y96903643D01*
X13061000Y96903643D02*
X14203857Y96903643D01*
X13632428Y97475072D02*
X13632428Y96332215D01*
X41255285Y91322858D02*
X41755285Y91322858D01*
X41969571Y92108572D02*
X41255285Y92108572D01*
X41255285Y90608572D01*
X41969571Y90608572D01*
X43398142Y92108572D02*
X42541000Y92108572D01*
X42969571Y92108572D02*
X42969571Y90608572D01*
X42826714Y90822858D01*
X42683857Y90965715D01*
X42541000Y91037143D01*
X39648142Y96637143D02*
X40791000Y96637143D01*
X40219571Y97208572D02*
X40219571Y96065715D01*
X43791000Y96637143D02*
X44933857Y96637143D01*
X53500285Y91259358D02*
X54000285Y91259358D01*
X54214571Y92045072D02*
X53500285Y92045072D01*
X53500285Y90545072D01*
X54214571Y90545072D01*
X55143142Y90545072D02*
X55286000Y90545072D01*
X55428857Y90616500D01*
X55500285Y90687929D01*
X55571714Y90830786D01*
X55643142Y91116500D01*
X55643142Y91473643D01*
X55571714Y91759358D01*
X55500285Y91902215D01*
X55428857Y91973643D01*
X55286000Y92045072D01*
X55143142Y92045072D01*
X55000285Y91973643D01*
X54928857Y91902215D01*
X54857428Y91759358D01*
X54786000Y91473643D01*
X54786000Y91116500D01*
X54857428Y90830786D01*
X54928857Y90687929D01*
X55000285Y90616500D01*
X55143142Y90545072D01*
X51893142Y96573643D02*
X53036000Y96573643D01*
X52464571Y97145072D02*
X52464571Y96002215D01*
X56036000Y96573643D02*
X57178857Y96573643D01*
X65905214Y91322858D02*
X66119500Y91394286D01*
X66190928Y91465715D01*
X66262357Y91608572D01*
X66262357Y91822858D01*
X66190928Y91965715D01*
X66119500Y92037143D01*
X65976642Y92108572D01*
X65405214Y92108572D01*
X65405214Y90608572D01*
X65905214Y90608572D01*
X66048071Y90680000D01*
X66119500Y90751429D01*
X66190928Y90894286D01*
X66190928Y91037143D01*
X66119500Y91180000D01*
X66048071Y91251429D01*
X65905214Y91322858D01*
X65405214Y91322858D01*
X67476642Y92037143D02*
X67333785Y92108572D01*
X67048071Y92108572D01*
X66905214Y92037143D01*
X66833785Y91894286D01*
X66833785Y91322858D01*
X66905214Y91180000D01*
X67048071Y91108572D01*
X67333785Y91108572D01*
X67476642Y91180000D01*
X67548071Y91322858D01*
X67548071Y91465715D01*
X66833785Y91608572D01*
X68833785Y92108572D02*
X68833785Y90608572D01*
X68833785Y92037143D02*
X68690928Y92108572D01*
X68405214Y92108572D01*
X68262357Y92037143D01*
X68190928Y91965715D01*
X68119500Y91822858D01*
X68119500Y91394286D01*
X68190928Y91251429D01*
X68262357Y91180000D01*
X68405214Y91108572D01*
X68690928Y91108572D01*
X68833785Y91180000D01*
X63905214Y96637143D02*
X65048071Y96637143D01*
X64476642Y97208572D02*
X64476642Y96065715D01*
X69190928Y96637143D02*
X70333785Y96637143D01*
X87532428Y95792929D02*
X87532428Y97292929D01*
X86961000Y97292929D01*
X86818142Y97221500D01*
X86746714Y97150072D01*
X86675285Y97007215D01*
X86675285Y96792929D01*
X86746714Y96650072D01*
X86818142Y96578643D01*
X86961000Y96507215D01*
X87532428Y96507215D01*
X85818142Y95792929D02*
X85961000Y95864358D01*
X86032428Y95935786D01*
X86103857Y96078643D01*
X86103857Y96507215D01*
X86032428Y96650072D01*
X85961000Y96721500D01*
X85818142Y96792929D01*
X85603857Y96792929D01*
X85461000Y96721500D01*
X85389571Y96650072D01*
X85318142Y96507215D01*
X85318142Y96078643D01*
X85389571Y95935786D01*
X85461000Y95864358D01*
X85603857Y95792929D01*
X85818142Y95792929D01*
X84818142Y96792929D02*
X84532428Y95792929D01*
X84246714Y96507215D01*
X83961000Y95792929D01*
X83675285Y96792929D01*
X82532428Y95864358D02*
X82675285Y95792929D01*
X82961000Y95792929D01*
X83103857Y95864358D01*
X83175285Y96007215D01*
X83175285Y96578643D01*
X83103857Y96721500D01*
X82961000Y96792929D01*
X82675285Y96792929D01*
X82532428Y96721500D01*
X82461000Y96578643D01*
X82461000Y96435786D01*
X83175285Y96292929D01*
X81818142Y95792929D02*
X81818142Y96792929D01*
X81818142Y96507215D02*
X81746714Y96650072D01*
X81675285Y96721500D01*
X81532428Y96792929D01*
X81389571Y96792929D01*
X79746714Y95792929D02*
X79746714Y97292929D01*
X79032428Y96792929D02*
X79032428Y95792929D01*
X79032428Y96650072D02*
X78961000Y96721500D01*
X78818142Y96792929D01*
X78603857Y96792929D01*
X78461000Y96721500D01*
X78389571Y96578643D01*
X78389571Y95792929D01*
X86175285Y91264358D02*
X85032428Y91264358D01*
X80889571Y91264358D02*
X79746714Y91264358D01*
X80318142Y90692929D02*
X80318142Y91835786D01*
X86889571Y88142929D02*
X87746714Y88142929D01*
X87318142Y88142929D02*
X87318142Y89642929D01*
X87461000Y89428643D01*
X87603857Y89285786D01*
X87746714Y89214358D01*
X86318142Y89500072D02*
X86246714Y89571500D01*
X86103857Y89642929D01*
X85746714Y89642929D01*
X85603857Y89571500D01*
X85532428Y89500072D01*
X85461000Y89357215D01*
X85461000Y89214358D01*
X85532428Y89000072D01*
X86389571Y88142929D01*
X85461000Y88142929D01*
X85032428Y89642929D02*
X84532428Y88142929D01*
X84032428Y89642929D01*
X83532428Y88714358D02*
X82389571Y88714358D01*
X81746714Y89500072D02*
X81675285Y89571500D01*
X81532428Y89642929D01*
X81175285Y89642929D01*
X81032428Y89571500D01*
X80961000Y89500072D01*
X80889571Y89357215D01*
X80889571Y89214358D01*
X80961000Y89000072D01*
X81818142Y88142929D01*
X80889571Y88142929D01*
X79603857Y89142929D02*
X79603857Y88142929D01*
X79961000Y89714358D02*
X80318142Y88642929D01*
X79389571Y88642929D01*
X79032428Y89642929D02*
X78532428Y88142929D01*
X78032428Y89642929D01*
D10*
X69061000Y60896514D02*
X69061000Y5896487D01*
X53821000Y60896500D02*
X69061000Y60896500D01*
X53771000Y61896500D02*
X53771000Y60896500D01*
X69021000Y61896500D02*
X53771000Y61896500D01*
X69061000Y86396537D02*
X69061000Y61896468D01*
X-229011Y86356500D02*
X69061000Y86356500D01*
X-229000Y61896500D02*
X-229000Y86396500D01*
X14521000Y61896500D02*
X-229000Y61896500D01*
X14521000Y60896500D02*
X14521000Y61896500D01*
X-229000Y60896500D02*
X14521000Y60896500D01*
X-229000Y5896500D02*
X-229000Y60896500D01*
X21271037Y5856500D02*
X-229026Y5856500D01*
X23291000Y3876500D02*
X21271000Y5896500D01*
X56271024Y3856500D02*
X23270978Y3856500D01*
X58271000Y5896500D02*
X56271000Y3896500D01*
X69061000Y5856500D02*
X58270926Y5856500D01*
X27620483Y6356500D02*
G75*
G03X27620483Y6356500I-1739483J0D01*
G01*
M02*
