M48
;DRILL file {KiCad 5.0.0-rc2-unknown-68f6e3a~65~ubuntu18.04.1} date Wed Jun 13 02:14:21 2018
;FORMAT={-:-/ absolute / inch / decimal}
FMAT,2
INCH,TZ
T1C0.0150
T2C0.0157
T3C0.0300
T4C0.0394
T5C0.0400
T6C0.0472
T7C0.0512
T8C0.1260
%
G90
G05
M72
T1
X2.3504Y-3.3898
X2.4331Y-3.1693
X2.4331Y-3.2008
X2.4331Y-3.2323
X2.4331Y-3.2953
X2.4331Y-3.3268
X2.4724Y-3.0866
X2.4724Y-3.1339
X2.4764Y-3.3937
X2.4764Y-3.4409
X2.4803Y-2.5276
X2.4803Y-2.5748
X2.4803Y-2.622
X2.4803Y-2.6693
X2.4961Y-3.1102
X2.4961Y-3.1575
X2.5Y-3.3701
X2.5Y-3.4173
X2.5039Y-2.5512
X2.5039Y-2.5984
X2.5039Y-2.6457
X2.5039Y-2.6929
X2.5197Y-3.0866
X2.5197Y-3.1339
X2.5236Y-3.3937
X2.5236Y-3.4409
X2.5276Y-2.5276
X2.5276Y-2.5748
X2.5276Y-2.622
X2.5276Y-2.6693
X2.5433Y-3.1102
X2.5433Y-3.1575
X2.5472Y-3.3701
X2.5472Y-3.4173
X2.5512Y-2.5512
X2.5512Y-2.5984
X2.5512Y-2.6457
X2.5512Y-2.6929
X2.5591Y-2.9213
X2.5591Y-2.9685
X2.5669Y-3.0866
X2.5669Y-3.1339
X2.5709Y-3.3937
X2.5709Y-3.4409
X2.5709Y-3.5709
X2.5709Y-3.6181
X2.5827Y-2.8976
X2.5827Y-2.9449
X2.5827Y-2.9921
X2.5906Y-3.1102
X2.5906Y-3.1575
X2.5945Y-3.3701
X2.5945Y-3.4173
X2.5945Y-3.5472
X2.5945Y-3.5945
X2.6063Y-2.9213
X2.6063Y-2.9685
X2.6142Y-3.0866
X2.6142Y-3.1339
X2.6181Y-3.3937
X2.6181Y-3.4409
X2.6181Y-3.5709
X2.6181Y-3.6181
X2.6299Y-2.8976
X2.6299Y-2.9449
X2.6378Y-3.1102
X2.6378Y-3.1575
X2.6417Y-3.3701
X2.6417Y-3.4173
X2.6417Y-3.5472
X2.6417Y-3.5945
X2.6535Y-2.9685
X2.6654Y-2.437
X2.6654Y-2.4843
X2.6654Y-2.5315
X2.6654Y-2.5787
X2.6654Y-3.5709
X2.6654Y-3.6181
X2.6772Y-2.9449
X2.689Y-2.4606
X2.689Y-2.5079
X2.689Y-2.5551
X2.689Y-2.6024
X2.689Y-3.5472
X2.689Y-3.5945
X2.7008Y-2.9685
X2.7126Y-2.437
X2.7126Y-2.4843
X2.7126Y-2.5315
X2.7126Y-2.5787
X2.7126Y-3.5709
X2.7126Y-3.6181
X2.7165Y-2.311
X2.7244Y-2.9449
X2.7244Y-2.9921
X2.7362Y-2.4606
X2.7362Y-2.5079
X2.7362Y-2.5551
X2.7362Y-2.6024
X2.7362Y-3.5472
X2.7362Y-3.5945
X2.748Y-2.9685
X2.7717Y-2.3976
X2.8071Y-2.3976
X2.8071Y-2.7756
X2.8071Y-4.4724
X2.815Y-3.1693
X2.815Y-3.2008
X2.815Y-3.2953
X2.8504Y-4.0017
X2.8504Y-4.126
X2.8654Y-2.4016
X2.8937Y-4.2717
X2.8953Y-2.4016
X2.9016Y-2.7756
X2.9252Y-2.4016
X2.9252Y-3.9724
X2.9314Y-2.7756
X2.9331Y-4.2717
X2.9449Y-2.4409
X2.9449Y-2.4882
X2.9449Y-2.5354
X2.9449Y-2.5827
X2.9449Y-3.1732
X2.9624Y-4.0657
X2.9685Y-2.4646
X2.9685Y-2.5118
X2.9685Y-2.5591
X2.9685Y-2.6063
X2.9764Y-4.3937
X2.9803Y-3.9331
X2.9921Y-2.4409
X2.9921Y-2.4882
X2.9921Y-2.5354
X2.9921Y-2.5827
X3.0039Y-4.122
X3.0157Y-2.4646
X3.0157Y-2.5118
X3.0157Y-2.5591
X3.016Y-2.6063
X3.0945Y-3.8976
X3.0962Y-4.0147
X3.1181Y-4.0906
X3.122Y-2.5354
X3.122Y-2.5827
X3.122Y-2.6299
X3.122Y-2.6772
X3.1457Y-2.5591
X3.1457Y-2.6063
X3.1457Y-2.6535
X3.1457Y-2.7008
X3.1693Y-2.5354
X3.1693Y-2.5827
X3.1693Y-2.6299
X3.1693Y-2.6772
X3.1929Y-2.5591
X3.1929Y-2.6063
X3.1929Y-2.6535
X3.1929Y-2.7008
X3.1969Y-4.0669
X3.2913Y-3.8228
X3.3196Y-3.7559
X3.3307Y-5.2598
X3.3504Y-3.6811
X3.3661Y-3.9291
X3.3819Y-3.4213
X3.3819Y-4.0433
X3.4055Y-4.0866
X3.4077Y-3.3945
X3.4173Y-3.3443
X3.4252Y-3.189
X3.4314Y-3.2498
X3.437Y-3.0354
X3.437Y-4.5906
X3.4375Y-3.3937
X3.4579Y-3.2637
X3.4632Y-3.3076
X3.4669Y-3.3878
X3.4724Y-2.9291
X3.4813Y-4.0346
X3.4817Y-4.1116
X3.4882Y-3.1102
X3.5197Y-3.0551
X3.5246Y-3.4182
X3.5315Y-4.0118
X3.532Y-3.2936
X3.5359Y-3.4488
X3.5472Y-2.9567
X3.5472Y-3.0079
X3.5472Y-3.0394
X3.5777Y-3.074
X3.6063Y-2.9016
X3.6084Y-3.0742
X3.6089Y-4.1949
X3.6388Y-3.0748
X3.6391Y-4.0602
X3.6457Y-2.9154
X3.6464Y-4.1391
X3.6535Y-3.2559
X3.66Y-3.353
X3.6693Y-2.3543
X3.6693Y-2.4016
X3.6693Y-2.4488
X3.6693Y-2.4961
X3.6732Y-5.2677
X3.685Y-3.0118
X3.689Y-4.2559
X3.6929Y-2.378
X3.6929Y-2.4252
X3.6929Y-2.4724
X3.6969Y-3.0709
X3.6969Y-3.1181
X3.7165Y-2.3543
X3.7165Y-2.4016
X3.7165Y-2.4488
X3.7165Y-2.4961
X3.7402Y-2.378
X3.7402Y-2.4252
X3.7402Y-2.4724
X3.7638Y-2.3543
X3.7638Y-2.4016
X3.7638Y-2.4488
X3.7638Y-2.4961
X3.7677Y-4.2756
X3.7874Y-2.378
X3.7874Y-2.4252
X3.7874Y-2.4724
X3.811Y-2.3543
X3.811Y-2.4016
X3.811Y-2.4488
X3.811Y-2.4961
X4.0079Y-5.2638
X4.0236Y-4.4094
X4.0591Y-5.1732
X4.0597Y-3.5705
X4.0706Y-4.3909
X4.0945Y-2.3543
X4.0945Y-2.4016
X4.0945Y-2.4488
X4.0945Y-2.4961
X4.1164Y-5.1248
X4.1181Y-2.378
X4.1181Y-2.4252
X4.1181Y-2.4724
X4.1417Y-2.3543
X4.1417Y-2.4016
X4.1417Y-2.4488
X4.1417Y-2.4961
X4.1436Y-4.4631
X4.1654Y-2.378
X4.1654Y-2.4252
X4.1654Y-2.4724
X4.1772Y-4.5276
X4.189Y-2.3543
X4.189Y-2.4016
X4.189Y-2.4488
X4.189Y-2.4961
X4.2126Y-2.378
X4.2126Y-2.4252
X4.2126Y-2.4724
X4.2174Y-3.596
X4.2362Y-2.3543
X4.2362Y-2.4016
X4.2362Y-2.4488
X4.2362Y-2.4961
X4.2835Y-5.2323
X4.292Y-3.5193
X4.3071Y-4.4488
X4.311Y-3.5433
X4.4006Y-4.3167
X4.5276Y-2.4646
X4.5276Y-2.5118
X4.5276Y-2.5591
X4.5276Y-2.6063
X4.5512Y-2.4882
X4.5512Y-2.5354
X4.5512Y-2.5827
X4.5748Y-2.4646
X4.5748Y-2.5118
X4.5748Y-2.5591
X4.5748Y-2.6063
X4.5984Y-2.4882
X4.5984Y-2.5354
X4.5984Y-2.5827
X4.622Y-2.4646
X4.622Y-2.5118
X4.622Y-2.5591
X4.622Y-2.6063
X4.6457Y-2.4882
X4.6457Y-2.5354
X4.6457Y-2.5827
X4.6652Y-3.9552
X4.6693Y-2.4646
X4.6693Y-2.5118
X4.6693Y-2.5591
X4.6693Y-2.6063
X4.6802Y-3.7874
X4.6828Y-4.1761
X4.689Y-4.1063
X4.6936Y-4.1483
X4.7008Y-4.3228
X4.7021Y-3.8466
X4.7048Y-3.9729
X4.7122Y-4.0844
X4.7126Y-4.2396
X4.7205Y-3.9213
X4.7403Y-4.0412
X4.7574Y-4.0967
X4.772Y-4.203
X4.774Y-4.1412
X4.774Y-4.1732
X4.9449Y-3.185
X4.9449Y-3.2795
X4.9449Y-3.311
X5.0079Y-2.8622
X5.0079Y-2.9094
X5.0113Y-4.1966
X5.0118Y-4.0669
X5.0157Y-5.0276
X5.0157Y-5.122
X5.0157Y-5.1535
X5.0203Y-4.1681
X5.0276Y-3.5
X5.0276Y-3.5472
X5.0315Y-2.8858
X5.0315Y-2.9331
X5.0512Y-3.5236
X5.0512Y-3.5709
X5.0551Y-2.8622
X5.0551Y-2.9094
X5.0748Y-3.5
X5.0748Y-3.5472
X5.0787Y-2.8858
X5.0787Y-2.9331
X5.0866Y-4.3858
X5.0866Y-4.4331
X5.0906Y-3.7441
X5.0906Y-3.7913
X5.0984Y-3.5236
X5.0984Y-3.5709
X5.0984Y-4.7008
X5.0984Y-4.748
X5.0984Y-5.3425
X5.0984Y-5.3898
X5.1024Y-2.8622
X5.1024Y-2.9094
X5.1102Y-4.4094
X5.1102Y-4.4567
X5.1142Y-3.7677
X5.1142Y-3.815
X5.122Y-3.0394
X5.122Y-3.0866
X5.122Y-3.3189
X5.122Y-3.3661
X5.122Y-3.5
X5.122Y-3.5472
X5.122Y-4.7244
X5.122Y-4.7717
X5.122Y-5.3661
X5.122Y-5.4134
X5.126Y-2.8858
X5.126Y-2.9331
X5.1339Y-4.3858
X5.1339Y-4.4331
X5.1378Y-3.7441
X5.1378Y-3.7913
X5.1457Y-3.063
X5.1457Y-3.1102
X5.1457Y-3.3425
X5.1457Y-3.3898
X5.1457Y-3.5236
X5.1457Y-3.5709
X5.1457Y-4.7008
X5.1457Y-4.748
X5.1457Y-5.3425
X5.1457Y-5.3898
X5.1496Y-2.8622
X5.1496Y-2.9094
X5.1575Y-4.4094
X5.1575Y-4.4567
X5.1614Y-3.7677
X5.1614Y-3.815
X5.1693Y-3.0394
X5.1693Y-3.0866
X5.1693Y-3.3189
X5.1693Y-3.3661
X5.1693Y-3.5
X5.1693Y-3.5472
X5.1693Y-4.7244
X5.1693Y-4.7717
X5.1693Y-5.3661
X5.1693Y-5.4134
X5.1732Y-2.8858
X5.1732Y-2.9331
X5.1811Y-4.3858
X5.1811Y-4.4331
X5.185Y-3.7441
X5.185Y-3.7913
X5.185Y-3.9252
X5.185Y-3.9724
X5.185Y-4.2008
X5.185Y-4.248
X5.189Y-5.1614
X5.189Y-5.2087
X5.1929Y-3.063
X5.1929Y-3.1102
X5.1929Y-3.3425
X5.1929Y-3.3898
X5.1929Y-3.5236
X5.1929Y-3.5709
X5.1929Y-4.7008
X5.1929Y-4.748
X5.1929Y-4.8858
X5.1929Y-4.9331
X5.1929Y-5.3425
X5.1929Y-5.3898
X5.1969Y-2.8622
X5.1969Y-2.9094
X5.2047Y-4.4094
X5.2047Y-4.4567
X5.2087Y-3.7677
X5.2087Y-3.815
X5.2087Y-3.9488
X5.2087Y-3.9961
X5.2087Y-4.2244
X5.2087Y-4.2717
X5.2126Y-5.185
X5.2126Y-5.2323
X5.2165Y-3.0394
X5.2165Y-3.0866
X5.2165Y-3.3189
X5.2165Y-3.3661
X5.2165Y-4.7244
X5.2165Y-4.7717
X5.2165Y-4.9094
X5.2165Y-4.9567
X5.2165Y-5.3661
X5.2165Y-5.4134
X5.2283Y-4.3858
X5.2283Y-4.4331
X5.2323Y-3.7441
X5.2323Y-3.7913
X5.2323Y-3.9252
X5.2323Y-3.9724
X5.2323Y-4.2008
X5.2323Y-4.248
X5.2362Y-5.1614
X5.2362Y-5.2087
X5.2402Y-3.063
X5.2402Y-3.1102
X5.2402Y-3.3425
X5.2402Y-3.3898
X5.2402Y-4.7008
X5.2402Y-4.748
X5.2402Y-4.8858
X5.2402Y-4.9331
X5.2402Y-5.3425
X5.2402Y-5.3898
X5.252Y-4.4094
X5.252Y-4.4567
X5.2559Y-3.7677
X5.2559Y-3.815
X5.2559Y-3.9488
X5.2559Y-3.9961
X5.2559Y-4.2244
X5.2559Y-4.2717
X5.2598Y-5.185
X5.2598Y-5.2323
X5.2638Y-3.0394
X5.2638Y-3.0866
X5.2638Y-3.3189
X5.2638Y-3.3661
X5.2638Y-4.7244
X5.2638Y-4.7717
X5.2638Y-4.9094
X5.2638Y-4.9567
X5.2638Y-5.3661
X5.2638Y-5.4134
X5.2795Y-3.9252
X5.2795Y-3.9724
X5.2795Y-4.2008
X5.2795Y-4.248
X5.2835Y-5.1614
X5.2835Y-5.2087
X5.2874Y-3.063
X5.2874Y-3.1102
X5.2874Y-3.3425
X5.2874Y-3.3898
X5.2874Y-4.8858
X5.2874Y-4.9331
X5.3031Y-3.9488
X5.3031Y-3.9961
X5.3031Y-4.2244
X5.3031Y-4.2717
X5.3071Y-5.185
X5.3071Y-5.2323
X5.311Y-4.9094
X5.311Y-4.9567
X5.3206Y-3.185
X5.3268Y-3.9252
X5.3268Y-3.9724
X5.3268Y-4.2008
X5.3268Y-4.248
X5.3307Y-3.1535
X5.3307Y-5.1614
X5.3307Y-5.2087
X5.3346Y-4.8858
X5.3346Y-4.9331
X5.3504Y-3.9488
X5.3504Y-3.9961
X5.3504Y-4.2244
X5.3504Y-4.2717
X5.3543Y-5.185
X5.3543Y-5.2323
X5.3583Y-4.9094
X5.3583Y-4.9567
X5.3915Y-4.0664
X5.3937Y-4.0354
X5.4016Y-4.9921
X5.4016Y-5.0276
X5.4052Y-3.0906
X5.4055Y-3.2817
X5.4077Y-3.3117
X5.4083Y-3.252
X5.4683Y-4.1597
X5.4685Y-3.9724
X5.4685Y-4.1298
X5.4742Y-4.9331
X5.4747Y-5.0889
X5.4761Y-5.1204
X5.4764Y-5.1535
X5.4788Y-4.1893
T2
X2.2165Y-2.9764
X2.2283Y-3.4685
X2.2441Y-2.3976
X2.2441Y-2.4409
X2.2441Y-2.4843
X2.252Y-3.0512
X2.2638Y-4.2638
X2.2717Y-3.2598
X2.3661Y-4.2795
X2.3819Y-4.6811
X2.3937Y-5.2598
X2.3976Y-4.9685
X2.4016Y-2.9331
X2.4016Y-3.5945
X2.4843Y-2.8189
X2.5079Y-2.3504
X2.5787Y-4.5945
X2.622Y-2.2165
X2.6378Y-4.563
X2.6614Y-4.6614
X2.7047Y-4.626
X2.7559Y-5.2638
X2.7598Y-4.9764
X2.7874Y-4.126
X2.8228Y-2.9252
X2.8425Y-2.2913
X2.9094Y-3.0945
X2.9094Y-3.1299
X2.9173Y-2.8976
X2.9606Y-3.2717
X2.9646Y-3.0157
X2.9685Y-2.874
X2.9724Y-3.5
X3.0039Y-2.874
X3.0827Y-2.2008
X3.1693Y-3.0945
X3.1693Y-3.1339
X3.1693Y-3.1732
X3.1732Y-2.3465
X3.189Y-2.8189
X3.2205Y-4.9921
X3.2835Y-2.5433
X3.3228Y-2.3622
X3.3228Y-2.5433
X3.3307Y-4.0787
X3.3307Y-4.1535
X3.3661Y-2.5433
X3.5Y-2.5433
X3.5394Y-2.5433
X3.5709Y-2.3622
X3.5787Y-2.5433
X3.6142Y-3.6417
X3.665Y-2.6535
X3.6654Y-2.689
X3.6898Y-4.2944
X3.7126Y-2.6535
X3.7126Y-2.689
X3.7126Y-3.9134
X3.7216Y-4.1114
X3.748Y-2.6535
X3.748Y-2.689
X3.7795Y-4.4961
X3.9813Y-4.5984
X3.9921Y-4.4361
X4.Y-2.315
X4.0512Y-4.8583
X4.0906Y-2.6614
X4.0906Y-2.6969
X4.126Y-2.6614
X4.126Y-2.6969
X4.1378Y-4.9567
X4.1614Y-2.6614
X4.1614Y-2.6969
X4.1732Y-4.5709
X4.185Y-5.
X4.2638Y-3.4094
X4.3071Y-4.0551
X4.311Y-4.3268
X4.311Y-4.5157
X4.311Y-4.8031
X4.4252Y-2.315
X4.4449Y-3.4488
X4.4528Y-2.7598
X4.4921Y-2.7598
X4.5079Y-2.8583
X4.5276Y-2.7598
X4.5433Y-2.8583
X4.563Y-2.7598
X4.5787Y-2.8583
X4.6142Y-2.8583
X4.689Y-3.6693
X4.7205Y-4.5512
X4.7323Y-3.6693
X4.7598Y-5.5433
X4.7638Y-4.5512
X4.7756Y-3.6693
X4.7795Y-2.9843
X4.7913Y-3.2008
X4.7913Y-3.4606
X4.7953Y-3.2874
X4.8071Y-4.5512
X4.8071Y-5.5433
X4.8425Y-4.1299
X4.8465Y-3.3465
X4.8465Y-3.3819
X4.8504Y-4.3504
X4.8504Y-5.5433
X4.8543Y-3.8583
X4.8543Y-4.0866
X4.8543Y-4.811
X4.8583Y-5.0433
X4.8661Y-5.3031
X4.8898Y-5.1378
X4.9134Y-4.2283
X4.9134Y-4.2638
X4.9213Y-5.189
X4.9213Y-5.2244
X4.9764Y-2.3307
X5.0748Y-3.2402
X5.1693Y-3.2559
X5.3622Y-2.8937
X5.378Y-3.5433
X5.4252Y-3.2205
X5.437Y-3.7717
X5.4409Y-5.3819
X5.4488Y-4.4291
X5.4488Y-4.7205
X5.4843Y-4.0984
X5.4961Y-5.0591
X5.5079Y-3.0827
X5.5157Y-3.3228
X5.5669Y-3.9685
X5.5669Y-4.3189
X5.5787Y-5.2874
X5.5866Y-4.9252
T3
X2.0811Y-3.6732
X2.0811Y-3.7732
X2.0811Y-3.8732
X2.0811Y-3.9732
X2.0811Y-4.0732
X2.0811Y-4.1732
X2.0811Y-4.2732
X2.0811Y-4.3732
X2.0811Y-4.4732
X2.0811Y-4.5732
X2.0811Y-4.6732
X2.0811Y-4.7732
X2.0811Y-4.8732
X2.0811Y-4.9732
X2.0811Y-5.0732
X2.0811Y-5.1732
X2.0811Y-5.2732
X2.0811Y-5.3732
X2.0811Y-5.4732
X2.1811Y-3.6732
X2.1811Y-3.7732
X2.1811Y-3.8732
X2.1811Y-3.9732
X2.1811Y-4.0732
X2.1811Y-4.1732
X2.1811Y-4.2732
X2.1811Y-4.3732
X2.1811Y-4.4732
X2.1811Y-4.5732
X2.1811Y-4.6732
X2.1811Y-4.7732
X2.1811Y-4.8732
X2.1811Y-4.9732
X2.1811Y-5.0732
X2.1811Y-5.1732
X2.1811Y-5.2732
X2.1811Y-5.3732
X2.1811Y-5.4732
X4.4811Y-3.6732
X4.4811Y-3.7732
X4.4811Y-3.8732
X4.4811Y-3.9732
X4.4811Y-4.0732
X4.4811Y-4.1732
X4.4811Y-4.2732
X4.4811Y-4.3732
X4.4811Y-4.4732
X4.4811Y-4.5732
X4.4811Y-4.6732
X4.4811Y-4.7732
X4.4811Y-4.8732
X4.4811Y-4.9732
X4.4811Y-5.0732
X4.4811Y-5.1732
X4.4811Y-5.2732
X4.4811Y-5.3732
X4.4811Y-5.4732
X4.5811Y-3.6732
X4.5811Y-3.7732
X4.5811Y-3.8732
X4.5811Y-3.9732
X4.5811Y-4.0732
X4.5811Y-4.1732
X4.5811Y-4.2732
X4.5811Y-4.3732
X4.5811Y-4.4732
X4.5811Y-4.5732
X4.5811Y-4.6732
X4.5811Y-4.7732
X4.5811Y-4.8732
X4.5811Y-4.9732
X4.5811Y-5.0732
X4.5811Y-5.1732
X4.5811Y-5.2732
X4.5811Y-5.3732
X4.5811Y-5.4732
T4
X2.9528Y-5.2992
X2.9528Y-5.3992
X2.5694Y-3.8862
X2.5694Y-3.9862
X4.4949Y-5.6729
X4.5949Y-5.6729
X4.6949Y-5.6729
X5.6142Y-3.1543
X5.6142Y-3.2543
X5.6142Y-3.3543
X5.6142Y-3.4543
X2.5583Y-5.2973
X2.5583Y-5.3973
X5.6988Y-3.9685
X5.6988Y-4.0685
X5.6988Y-4.1685
X5.6988Y-4.2685
X2.7268Y-2.1063
X2.8268Y-2.1063
X2.9268Y-2.1063
X3.0268Y-2.1063
X2.5661Y-4.4173
X2.6661Y-4.4173
X2.7661Y-4.4173
X2.8661Y-4.4173
X4.1102Y-3.9236
X4.1102Y-4.0236
X3.7173Y-4.7008
X3.8173Y-4.7008
X3.9173Y-4.7008
X4.1102Y-4.1811
X4.1102Y-4.2811
X5.7618Y-3.0591
X5.7618Y-3.1591
X5.7618Y-3.2591
X5.7618Y-3.3591
X2.8504Y-3.711
X2.8504Y-3.811
X3.0508Y-4.8583
X3.1508Y-4.8583
X3.2508Y-4.8583
X3.3508Y-4.8583
X3.4508Y-4.8583
X3.5508Y-4.8583
X4.7008Y-5.1677
X4.7008Y-5.2677
X2.9528Y-5.0157
X2.9528Y-5.1157
X4.1102Y-4.6772
X4.1102Y-4.7772
X2.5669Y-4.1496
X2.5669Y-4.2496
X2.126Y-3.0799
X2.126Y-3.1799
X2.126Y-3.2799
X2.126Y-3.3799
X3.7165Y-4.8583
X3.8165Y-4.8583
X3.9165Y-4.8583
X5.6969Y-4.9587
X5.6969Y-5.0587
X5.6969Y-5.1587
X5.6969Y-5.2587
X3.1024Y-3.5748
X3.1024Y-3.6748
X3.0508Y-4.6989
X3.1508Y-4.6989
X3.2508Y-4.6989
X3.3508Y-4.6989
X3.4508Y-4.6989
X3.5508Y-4.6989
X2.5591Y-4.7087
X2.5591Y-4.8087
X2.5591Y-5.0102
X2.5591Y-5.1102
T5
X3.2535Y-4.3661
X3.2535Y-4.4661
X3.3535Y-4.3661
X3.3535Y-4.4661
X3.4535Y-4.3661
X3.4535Y-4.4661
X3.5535Y-4.3661
X3.5535Y-4.4661
X3.6535Y-4.3661
X3.6535Y-4.4661
T6
X3.4764Y-5.6614
X3.6142Y-5.6614
X4.1614Y-5.6614
X4.2992Y-5.6614
X3.7205Y-2.1811
X3.8583Y-2.1811
X2.7913Y-5.6614
X2.9291Y-5.6614
X3.378Y-2.1811
X3.5157Y-2.1811
X2.4449Y-5.6614
X2.5827Y-5.6614
X3.8189Y-5.6614
X3.9567Y-5.6614
X4.1457Y-2.1811
X4.2835Y-2.1811
X3.1339Y-5.6614
X3.2717Y-5.6614
T7
X4.6063Y-2.1811
X4.8063Y-2.1811
X5.1543Y-2.1811
X5.3543Y-2.1811
T8
X2.126Y-2.1496
X5.685Y-2.1496
X2.126Y-5.685
X5.685Y-5.685
T0
M30
