M48
;DRILL file {KiCad 5.0.0-rc3-unknown-101b68b~65~ubuntu18.04.1} date Sat Jul  7 20:27:58 2018
;FORMAT={3:3/ absolute / metric / suppress leading zeros}
FMAT,2
METRIC,TZ
T1C0.305
T2C0.381
T3C0.508
T4C0.762
T5C1.000
T6C1.016
T7C1.200
T8C1.300
T9C3.200
%
G90
G05
M71
T1
X21550Y-31450
X22200Y-46600
X22200Y-53400
X22450Y-31450
X23250Y-31450
X26800Y-56500
X27000Y-43600
X29200Y-50600
X29200Y-53300
X29400Y-49500
X29850Y-46900
X29900Y-47600
X29900Y-48350
X29900Y-49050
X29983Y-50357
X30350Y-46450
X31450Y-29000
X31600Y-40400
X31600Y-41500
X31600Y-58900
X32063Y-48047
X32063Y-50047
X32450Y-44250
X32450Y-54050
X33000Y-39100
X33100Y-60200
X34300Y-60200
X34650Y-28950
X35300Y-32300
X35300Y-74800
X35300Y-83300
X35300Y-91900
X35350Y-31300
X35550Y-42300
X35550Y-42850
X35550Y-43400
X35550Y-43950
X35600Y-54700
X35600Y-55250
X35600Y-55800
X35600Y-56350
X35700Y-105800
X36800Y-29900
X37450Y-54150
X38850Y-48800
X38950Y-25700
X39000Y-33500
X39150Y-37800
X39500Y-46350
X39550Y-33500
X39900Y-40600
X39900Y-41600
X39900Y-55400
X39900Y-56500
X40000Y-37800
X40100Y-33500
X40200Y-48800
X40650Y-33500
X41200Y-35250
X41600Y-30300
X42200Y-60600
X42450Y-26300
X43250Y-47950
X43300Y-60600
X43500Y-75800
X43500Y-77800
X43600Y-73800
X44100Y-105800
X44300Y-60600
X44600Y-27200
X44900Y-45400
X44902Y-28004
X45250Y-39200
X45346Y-29992
X45750Y-27550
X45900Y-45400
X46350Y-27900
X46600Y-36800
X46600Y-38150
X46900Y-45400
X47050Y-27850
X47346Y-29992
X47839Y-27999
X48400Y-41300
X48534Y-27913
X48600Y-72200
X49050Y-29000
X49050Y-37500
X49150Y-25500
X49500Y-66200
X50350Y-30300
X51000Y-67800
X51200Y-74500
X51200Y-76400
X51400Y-25500
X51500Y-33500
X51650Y-83400
X51750Y-86300
X52050Y-33500
X52400Y-105800
X52600Y-33500
X52600Y-75300
X52700Y-67800
X53150Y-33500
X53500Y-37850
X54000Y-29250
X54550Y-37850
X55050Y-29250
X56550Y-30800
X57250Y-80300
X58350Y-35150
X58350Y-35750
X58700Y-75600
X59350Y-84700
X59350Y-86700
X59650Y-35150
X59650Y-35750
X60700Y-105850
X60900Y-35150
X60900Y-35750
X63500Y-70000
X63600Y-72300
X63600Y-73000
X67850Y-24050
X69050Y-24050
X70600Y-35400
X70600Y-36000
X71600Y-62850
X71600Y-71250
X71900Y-35400
X71900Y-36000
X73100Y-35400
X73100Y-36000
X78650Y-88950
X78650Y-95550
X78650Y-102150
X79250Y-24050
X79400Y-62750
X79500Y-71150
X80500Y-24050
X82000Y-79100
X82600Y-36700
X82600Y-37300
X83900Y-36700
X83900Y-37300
X85100Y-36700
X85100Y-37300
X93250Y-39700
X93300Y-89200
X93500Y-63800
X94400Y-89200
X94450Y-63800
X94500Y-39700
X94550Y-52600
X94600Y-28000
X94600Y-102250
X95450Y-89200
X95650Y-39700
X95750Y-63800
X95800Y-28000
X97800Y-101300
X97900Y-93300
X97900Y-94400
X97900Y-108200
X97900Y-109200
X97950Y-51550
X97950Y-75850
X98050Y-43650
X98050Y-44800
X98050Y-58350
X98050Y-59500
X98050Y-82700
X98050Y-83900
X98100Y-67750
X98100Y-68900
X98300Y-103650
X98450Y-53900
X98450Y-78300
X98950Y-75850
X98950Y-101300
X99100Y-51550
X100400Y-95850
X100550Y-46050
X100550Y-70450
X102100Y-36100
X103400Y-89650
X103500Y-64250
X103550Y-62200
X103650Y-40000
X104550Y-89650
X104650Y-64250
X104700Y-62200
X104800Y-85900
X104850Y-40000
X105100Y-110900
X105400Y-105600
X105500Y-46100
X105500Y-96400
X105550Y-55850
X105550Y-80250
X105650Y-71100
X106000Y-65650
X106000Y-90750
X106150Y-60700
X106300Y-41750
X106300Y-83350
X106300Y-84500
X106500Y-108300
X106500Y-109400
X107350Y-103650
X107450Y-53900
X107650Y-78250
X107700Y-101000
X107850Y-75650
X107900Y-51250
X108500Y-96900
X108650Y-47000
X108750Y-71650
X110000Y-93400
X110000Y-106200
X110350Y-68350
X110450Y-81150
X110500Y-53750
X113050Y-42800
X114050Y-59650
X115450Y-71400
X115500Y-78100
X115500Y-96400
X115500Y-103100
X116650Y-45300
T2
X33300Y-47250
X33300Y-48100
X33300Y-48950
X33300Y-49750
X33300Y-50550
X33300Y-51350
X34100Y-47250
X34100Y-48100
X34100Y-48950
X34100Y-49750
X34100Y-50550
X34100Y-51350
X34900Y-47250
X34900Y-48100
X34900Y-48950
X34900Y-49750
X34900Y-50550
X34900Y-51350
X35700Y-47250
X35700Y-48100
X35700Y-48950
X35700Y-49750
X35700Y-50550
X35700Y-51350
X36500Y-47250
X36500Y-48100
X36500Y-48950
X36500Y-49750
X36500Y-50550
X36500Y-51350
X37050Y-65700
X37300Y-47250
X37300Y-48100
X37300Y-48950
X37300Y-49750
X37300Y-50550
X37300Y-51350
X44100Y-31150
X44100Y-32000
X44100Y-32850
X44100Y-33650
X44100Y-34450
X44100Y-35250
X44900Y-31150
X44900Y-32000
X44900Y-32850
X44900Y-33650
X44900Y-34450
X44900Y-35250
X45700Y-31150
X45700Y-32000
X45700Y-32850
X45700Y-33650
X45700Y-34450
X45700Y-35250
X46500Y-31150
X46500Y-32000
X46500Y-32850
X46500Y-33650
X46500Y-34450
X46500Y-35250
X47300Y-31150
X47300Y-32000
X47300Y-32850
X47300Y-33650
X47300Y-34450
X47300Y-35250
X48100Y-31150
X48100Y-32000
X48100Y-32850
X48100Y-33650
X48100Y-34450
X48100Y-35250
X58600Y-29350
X58600Y-30200
X58600Y-31050
X58600Y-31900
X58600Y-32750
X59450Y-29350
X59450Y-30200
X59450Y-31050
X59450Y-31900
X59450Y-32750
X60300Y-29350
X60300Y-30200
X60300Y-31050
X60300Y-31900
X60300Y-32750
X61150Y-29350
X61150Y-30200
X61150Y-31050
X61150Y-31900
X61150Y-32750
X62000Y-29350
X62000Y-30200
X62000Y-31050
X62000Y-31900
X62000Y-32750
X70800Y-29600
X70800Y-30450
X70800Y-31300
X70800Y-32150
X70800Y-33000
X71650Y-29600
X71650Y-30450
X71650Y-31300
X71650Y-32150
X71650Y-33000
X72500Y-29600
X72500Y-30450
X72500Y-31300
X72500Y-32150
X72500Y-33000
X73350Y-29600
X73350Y-30450
X73350Y-31300
X73350Y-32150
X73350Y-33000
X74200Y-29600
X74200Y-30450
X74200Y-31300
X74200Y-32150
X74200Y-33000
X82600Y-31400
X82600Y-32300
X82600Y-33200
X82600Y-34100
X82600Y-35000
X83500Y-31400
X83500Y-32300
X83500Y-33200
X83500Y-34100
X83500Y-35000
X84400Y-31400
X84400Y-32300
X84400Y-33200
X84400Y-34100
X84400Y-35000
X85300Y-31400
X85300Y-32300
X85300Y-33200
X85300Y-34100
X85300Y-35000
X86200Y-31400
X86200Y-32300
X86200Y-33200
X86200Y-34100
X86200Y-35000
X100550Y-98650
X100550Y-99500
X100550Y-100350
X100550Y-101150
X100550Y-101950
X100550Y-102750
X100650Y-48900
X100650Y-49750
X100650Y-50600
X100650Y-51400
X100650Y-52200
X100650Y-53000
X100650Y-73300
X100650Y-74150
X100650Y-75000
X100650Y-75800
X100650Y-76600
X100650Y-77400
X101350Y-98650
X101350Y-99500
X101350Y-100350
X101350Y-101150
X101350Y-101950
X101350Y-102750
X101450Y-48900
X101450Y-49750
X101450Y-50600
X101450Y-51400
X101450Y-52200
X101450Y-53000
X101450Y-73300
X101450Y-74150
X101450Y-75000
X101450Y-75800
X101450Y-76600
X101450Y-77400
X102150Y-98650
X102150Y-99500
X102150Y-100350
X102150Y-101150
X102150Y-101950
X102150Y-102750
X102250Y-48900
X102250Y-49750
X102250Y-50600
X102250Y-51400
X102250Y-52200
X102250Y-53000
X102250Y-73300
X102250Y-74150
X102250Y-75000
X102250Y-75800
X102250Y-76600
X102250Y-77400
X102950Y-98650
X102950Y-99500
X102950Y-100350
X102950Y-101150
X102950Y-101950
X102950Y-102750
X103050Y-48900
X103050Y-49750
X103050Y-50600
X103050Y-51400
X103050Y-52200
X103050Y-53000
X103050Y-73300
X103050Y-74150
X103050Y-75000
X103050Y-75800
X103050Y-76600
X103050Y-77400
X103750Y-98650
X103750Y-99500
X103750Y-100350
X103750Y-101150
X103750Y-101950
X103750Y-102750
X103850Y-48900
X103850Y-49750
X103850Y-50600
X103850Y-51400
X103850Y-52200
X103850Y-53000
X103850Y-73300
X103850Y-74150
X103850Y-75000
X103850Y-75800
X103850Y-76600
X103850Y-77400
X104550Y-98650
X104550Y-99500
X104550Y-100350
X104550Y-101150
X104550Y-101950
X104550Y-102750
X104650Y-48900
X104650Y-49750
X104650Y-50600
X104650Y-51400
X104650Y-52200
X104650Y-53000
X104650Y-73300
X104650Y-74150
X104650Y-75000
X104650Y-75800
X104650Y-76600
X104650Y-77400
T3
X88950Y-111100
X94450Y-76900
T4
X22960Y-63430
X22960Y-65970
X22960Y-68510
X22960Y-71050
X22960Y-73590
X22960Y-76130
X22960Y-78670
X22960Y-81210
X22960Y-83750
X22960Y-86290
X22960Y-88830
X22960Y-91370
X22960Y-93910
X22960Y-96450
X22960Y-98990
X22960Y-101530
X22960Y-104070
X22960Y-106610
X22960Y-109150
X25500Y-63430
X25500Y-65970
X25500Y-68510
X25500Y-71050
X25500Y-73590
X25500Y-76130
X25500Y-78670
X25500Y-81210
X25500Y-83750
X25500Y-86290
X25500Y-88830
X25500Y-91370
X25500Y-93910
X25500Y-96450
X25500Y-98990
X25500Y-101530
X25500Y-104070
X25500Y-106610
X25500Y-109150
X83920Y-63430
X83920Y-65970
X83920Y-68510
X83920Y-71050
X83920Y-73590
X83920Y-76130
X83920Y-78670
X83920Y-81210
X83920Y-83750
X83920Y-86290
X83920Y-88830
X83920Y-91370
X83920Y-93910
X83920Y-96450
X83920Y-98990
X83920Y-101530
X83920Y-104070
X83920Y-106610
X83920Y-109150
X86460Y-63430
X86460Y-65970
X86460Y-68510
X86460Y-71050
X86460Y-73590
X86460Y-76130
X86460Y-78670
X86460Y-81210
X86460Y-83750
X86460Y-86290
X86460Y-88830
X86460Y-91370
X86460Y-93910
X86460Y-96450
X86460Y-98990
X86460Y-101530
X86460Y-104070
X86460Y-106610
X86460Y-109150
T5
X100560Y-115300
X103100Y-115300
X70409Y-56464
X72949Y-56464
X75489Y-56464
X80112Y-56413
X82652Y-56413
X85192Y-56413
X76722Y-89971
X76722Y-92511
X116700Y-49970
X116700Y-52510
X116700Y-55050
X116700Y-57590
X112878Y-70917
X112878Y-73457
X112878Y-75997
X112878Y-78537
X76696Y-96512
X76696Y-99052
X112878Y-95961
X112878Y-98501
X112878Y-101041
X112878Y-103581
X76696Y-103090
X76696Y-105630
X69101Y-65277
X71641Y-65277
X32678Y-85945
X35218Y-85945
X76873Y-65277
X79413Y-65277
X63760Y-59550
X66300Y-59550
X42600Y-81330
X42600Y-83870
X42600Y-86410
X42600Y-88950
X91700Y-107360
X91700Y-109900
X69114Y-82079
X71654Y-82079
X76835Y-73684
X79375Y-73684
X69101Y-73659
X71641Y-73659
X22600Y-37110
X22600Y-39650
X113050Y-47420
X113050Y-49960
X113050Y-52500
X113050Y-55040
X91694Y-113602
X94234Y-113602
X96774Y-113602
X89000Y-90610
X89000Y-93150
X73152Y-46076
X75692Y-46076
X78232Y-46076
X80772Y-46076
X83312Y-46076
X85852Y-46076
X32792Y-94530
X35332Y-94530
X24845Y-46182
X24845Y-48722
X24845Y-51262
X24845Y-53802
X91650Y-46010
X91650Y-48550
X32716Y-77423
X35256Y-77423
X41077Y-22832
X43617Y-22832
X46157Y-22832
X48697Y-22832
X73203Y-50216
X75743Y-50216
X78283Y-50216
X80823Y-50216
X83363Y-50216
X85903Y-50216
T6
X50394Y-92253
X50394Y-94793
X52934Y-92253
X52934Y-94793
X55474Y-92253
X55474Y-94793
X58014Y-92253
X58014Y-94793
X60554Y-92253
X60554Y-94793
T7
X72738Y-24308
X76238Y-24308
X32905Y-112878
X36405Y-112878
X74562Y-112890
X78062Y-112890
X29600Y-24130
X33100Y-24130
X66236Y-112890
X69736Y-112890
X41273Y-112881
X44773Y-112881
X49605Y-112878
X53105Y-112878
X60533Y-24155
X64033Y-24155
X57824Y-112890
X61324Y-112890
T8
X84569Y-24130
X89649Y-24130
X100355Y-24308
X105435Y-24308
T9
X115000Y-114000
X23559Y-23000
X115000Y-23000
X23559Y-114427
T0
M30
