G04 #@! TF.GenerationSoftware,KiCad,Pcbnew,5.0.0-rc2-unknown-68f6e3a~65~ubuntu18.04.1*
G04 #@! TF.CreationDate,2018-06-13T02:14:18-07:00*
G04 #@! TF.ProjectId,PrntrBoardV1,50726E7472426F61726456312E6B6963,rev?*
G04 #@! TF.SameCoordinates,Original*
G04 #@! TF.FileFunction,Soldermask,Top*
G04 #@! TF.FilePolarity,Negative*
%FSLAX46Y46*%
G04 Gerber Fmt 4.6, Leading zero omitted, Abs format (unit mm)*
G04 Created by KiCad (PCBNEW 5.0.0-rc2-unknown-68f6e3a~65~ubuntu18.04.1) date Wed Jun 13 02:14:18 2018*
%MOMM*%
%LPD*%
G01*
G04 APERTURE LIST*
%ADD10R,0.650000X0.575000*%
%ADD11R,0.575000X0.650000*%
%ADD12R,0.820000X1.000000*%
%ADD13R,1.220000X1.800000*%
%ADD14R,1.600000X3.500000*%
%ADD15R,1.000000X0.820000*%
%ADD16R,1.800000X1.220000*%
%ADD17R,3.500000X1.600000*%
%ADD18R,1.000000X1.000000*%
%ADD19C,2.540000*%
%ADD20C,2.400000*%
%ADD21R,2.400000X2.400000*%
%ADD22R,2.600000X2.600000*%
%ADD23C,2.600000*%
%ADD24O,1.700000X1.700000*%
%ADD25R,1.700000X1.700000*%
%ADD26R,1.727200X1.727200*%
%ADD27O,1.727200X1.727200*%
%ADD28C,3.200000*%
%ADD29R,0.840000X1.290000*%
%ADD30R,4.340000X3.440000*%
%ADD31R,4.840000X1.690000*%
%ADD32R,0.750000X1.300000*%
%ADD33R,0.800000X0.600000*%
%ADD34R,4.800000X4.600000*%
%ADD35R,0.800000X0.900000*%
%ADD36R,1.450000X0.450000*%
%ADD37R,0.500000X1.600000*%
%ADD38R,1.300000X1.600000*%
%ADD39R,1.600000X0.500000*%
%ADD40R,1.600000X1.300000*%
%ADD41C,1.524000*%
%ADD42R,1.524000X1.524000*%
%ADD43R,1.750000X0.900000*%
G04 APERTURE END LIST*
D10*
G04 #@! TO.C,C50*
X122600000Y-79137500D03*
X122600000Y-78362500D03*
G04 #@! TD*
G04 #@! TO.C,C7*
X74300000Y-86100000D03*
X74300000Y-85325000D03*
G04 #@! TD*
G04 #@! TO.C,C22*
X124450000Y-126137500D03*
X124450000Y-125362500D03*
G04 #@! TD*
G04 #@! TO.C,C36*
X124250000Y-100962500D03*
X124250000Y-101737500D03*
G04 #@! TD*
D11*
G04 #@! TO.C,C64*
X69487500Y-73500000D03*
X68712500Y-73500000D03*
G04 #@! TD*
D12*
G04 #@! TO.C,C1*
X107600000Y-86300000D03*
X106000000Y-86300000D03*
G04 #@! TD*
G04 #@! TO.C,C2*
X87200000Y-69000000D03*
X85600000Y-69000000D03*
G04 #@! TD*
G04 #@! TO.C,C3*
X92000000Y-99400000D03*
X93600000Y-99400000D03*
G04 #@! TD*
D13*
G04 #@! TO.C,C4*
X72390000Y-76600000D03*
X75250000Y-76600000D03*
G04 #@! TD*
G04 #@! TO.C,C5*
X75500000Y-88850000D03*
X72640000Y-88850000D03*
G04 #@! TD*
D14*
G04 #@! TO.C,C6*
X80500000Y-79700000D03*
X80500000Y-85100000D03*
G04 #@! TD*
D15*
G04 #@! TO.C,C8*
X58750000Y-82200000D03*
X58750000Y-80600000D03*
G04 #@! TD*
G04 #@! TO.C,C9*
X74500000Y-83100000D03*
X74500000Y-81500000D03*
G04 #@! TD*
D12*
G04 #@! TO.C,C10*
X57250000Y-87350000D03*
X58850000Y-87350000D03*
G04 #@! TD*
D15*
G04 #@! TO.C,C11*
X56750000Y-82200000D03*
X56750000Y-80600000D03*
G04 #@! TD*
D12*
G04 #@! TO.C,C12*
X54000000Y-75600000D03*
X55600000Y-75600000D03*
G04 #@! TD*
G04 #@! TO.C,C13*
X55850000Y-88600000D03*
X54250000Y-88600000D03*
G04 #@! TD*
G04 #@! TO.C,C14*
X56750000Y-83850000D03*
X58350000Y-83850000D03*
G04 #@! TD*
D15*
G04 #@! TO.C,C15*
X107200000Y-119800000D03*
X107200000Y-121400000D03*
G04 #@! TD*
D12*
G04 #@! TO.C,C16*
X62400000Y-105000000D03*
X60800000Y-105000000D03*
G04 #@! TD*
D16*
G04 #@! TO.C,C17*
X101600000Y-55940000D03*
X101600000Y-58800000D03*
G04 #@! TD*
D12*
G04 #@! TO.C,C18*
X58850000Y-78600000D03*
X57250000Y-78600000D03*
G04 #@! TD*
D13*
G04 #@! TO.C,C19*
X123340000Y-122200000D03*
X126200000Y-122200000D03*
G04 #@! TD*
G04 #@! TO.C,C20*
X123590000Y-134700000D03*
X126450000Y-134700000D03*
G04 #@! TD*
D17*
G04 #@! TO.C,C21*
X127400000Y-140800000D03*
X122000000Y-140800000D03*
G04 #@! TD*
D15*
G04 #@! TO.C,C23*
X140200000Y-131300000D03*
X140200000Y-129700000D03*
G04 #@! TD*
G04 #@! TO.C,C24*
X124450000Y-129700000D03*
X124450000Y-128100000D03*
G04 #@! TD*
D12*
G04 #@! TO.C,C25*
X140100000Y-123950000D03*
X141700000Y-123950000D03*
G04 #@! TD*
D15*
G04 #@! TO.C,C26*
X141950000Y-129650000D03*
X141950000Y-131250000D03*
G04 #@! TD*
D12*
G04 #@! TO.C,C27*
X143100000Y-136200000D03*
X144700000Y-136200000D03*
G04 #@! TD*
G04 #@! TO.C,C28*
X144700000Y-123200000D03*
X143100000Y-123200000D03*
G04 #@! TD*
D15*
G04 #@! TO.C,C29*
X72200000Y-127000000D03*
X72200000Y-128600000D03*
G04 #@! TD*
G04 #@! TO.C,C30*
X62275286Y-136000000D03*
X62275286Y-134400000D03*
G04 #@! TD*
D12*
G04 #@! TO.C,C31*
X140400000Y-128200000D03*
X142000000Y-128200000D03*
G04 #@! TD*
G04 #@! TO.C,C32*
X141600000Y-133000000D03*
X140000000Y-133000000D03*
G04 #@! TD*
D13*
G04 #@! TO.C,C33*
X126110000Y-110550000D03*
X123250000Y-110550000D03*
G04 #@! TD*
G04 #@! TO.C,C34*
X126180000Y-98050000D03*
X123320000Y-98050000D03*
G04 #@! TD*
D17*
G04 #@! TO.C,C35*
X121000000Y-115600000D03*
X126400000Y-115600000D03*
G04 #@! TD*
D15*
G04 #@! TO.C,C37*
X140250000Y-106550000D03*
X140250000Y-104950000D03*
G04 #@! TD*
G04 #@! TO.C,C38*
X124250000Y-105150000D03*
X124250000Y-103550000D03*
G04 #@! TD*
D12*
G04 #@! TO.C,C39*
X139900000Y-99800000D03*
X141500000Y-99800000D03*
G04 #@! TD*
D15*
G04 #@! TO.C,C40*
X142000000Y-106400000D03*
X142000000Y-104800000D03*
G04 #@! TD*
D12*
G04 #@! TO.C,C41*
X142950000Y-111050000D03*
X144550000Y-111050000D03*
G04 #@! TD*
D15*
G04 #@! TO.C,C42*
X107200000Y-107600000D03*
X107200000Y-109200000D03*
G04 #@! TD*
G04 #@! TO.C,C43*
X72200000Y-134400000D03*
X72200000Y-136000000D03*
G04 #@! TD*
D12*
G04 #@! TO.C,C44*
X144250000Y-97800000D03*
X142650000Y-97800000D03*
G04 #@! TD*
G04 #@! TO.C,C45*
X140400000Y-103300000D03*
X142000000Y-103300000D03*
G04 #@! TD*
G04 #@! TO.C,C46*
X141500000Y-108550000D03*
X139900000Y-108550000D03*
G04 #@! TD*
D13*
G04 #@! TO.C,C47*
X121740000Y-87950000D03*
X124600000Y-87950000D03*
G04 #@! TD*
G04 #@! TO.C,C48*
X124210000Y-75700000D03*
X121350000Y-75700000D03*
G04 #@! TD*
D17*
G04 #@! TO.C,C49*
X120200000Y-93200000D03*
X125600000Y-93200000D03*
G04 #@! TD*
D15*
G04 #@! TO.C,C51*
X138350000Y-83950000D03*
X138350000Y-82350000D03*
G04 #@! TD*
G04 #@! TO.C,C52*
X122600000Y-81200000D03*
X122600000Y-82800000D03*
G04 #@! TD*
D12*
G04 #@! TO.C,C53*
X138250000Y-77450000D03*
X139850000Y-77450000D03*
G04 #@! TD*
D15*
G04 #@! TO.C,C54*
X147200000Y-89800000D03*
X147200000Y-88200000D03*
G04 #@! TD*
G04 #@! TO.C,C55*
X107200000Y-102200000D03*
X107200000Y-100600000D03*
G04 #@! TD*
G04 #@! TO.C,C56*
X62200000Y-127150500D03*
X62200000Y-128750500D03*
G04 #@! TD*
G04 #@! TO.C,C57*
X145400000Y-88200000D03*
X145400000Y-89800000D03*
G04 #@! TD*
G04 #@! TO.C,C58*
X143600000Y-75800000D03*
X143600000Y-77400000D03*
G04 #@! TD*
G04 #@! TO.C,C59*
X141800000Y-75800000D03*
X141800000Y-77400000D03*
G04 #@! TD*
D12*
G04 #@! TO.C,C60*
X139850000Y-85950000D03*
X138250000Y-85950000D03*
G04 #@! TD*
D13*
G04 #@! TO.C,C61*
X80900000Y-71600000D03*
X78040000Y-71600000D03*
G04 #@! TD*
G04 #@! TO.C,C62*
X65960000Y-71600000D03*
X63100000Y-71600000D03*
G04 #@! TD*
D14*
G04 #@! TO.C,C63*
X57000000Y-67400000D03*
X57000000Y-62000000D03*
G04 #@! TD*
D12*
G04 #@! TO.C,C65*
X73200000Y-57850000D03*
X74800000Y-57850000D03*
G04 #@! TD*
G04 #@! TO.C,C66*
X73300000Y-73500000D03*
X71700000Y-73500000D03*
G04 #@! TD*
D15*
G04 #@! TO.C,C67*
X67700000Y-56600000D03*
X67700000Y-58200000D03*
G04 #@! TD*
G04 #@! TO.C,C68*
X62200000Y-121200000D03*
X62200000Y-119600000D03*
G04 #@! TD*
D12*
G04 #@! TO.C,C69*
X62600000Y-98600000D03*
X61000000Y-98600000D03*
G04 #@! TD*
D16*
G04 #@! TO.C,C70*
X112400000Y-55940000D03*
X112400000Y-58800000D03*
G04 #@! TD*
D12*
G04 #@! TO.C,C71*
X68000000Y-94000000D03*
X69600000Y-94000000D03*
G04 #@! TD*
D16*
G04 #@! TO.C,C72*
X126400000Y-59200000D03*
X126400000Y-56340000D03*
G04 #@! TD*
D12*
G04 #@! TO.C,C73*
X73100000Y-56100000D03*
X74700000Y-56100000D03*
G04 #@! TD*
D15*
G04 #@! TO.C,C74*
X79700000Y-55400000D03*
X79700000Y-53800000D03*
G04 #@! TD*
G04 #@! TO.C,C75*
X66450000Y-53600000D03*
X66450000Y-55200000D03*
G04 #@! TD*
G04 #@! TO.C,C76*
X71200000Y-56000000D03*
X71200000Y-57600000D03*
G04 #@! TD*
G04 #@! TO.C,C77*
X76700000Y-58100000D03*
X76700000Y-56500000D03*
G04 #@! TD*
D17*
G04 #@! TO.C,C88*
X84400000Y-64600000D03*
X89800000Y-64600000D03*
G04 #@! TD*
D12*
G04 #@! TO.C,C89*
X80600000Y-99600000D03*
X79000000Y-99600000D03*
G04 #@! TD*
G04 #@! TO.C,C90*
X91000000Y-93400000D03*
X89400000Y-93400000D03*
G04 #@! TD*
D15*
G04 #@! TO.C,D1*
X110400000Y-119800000D03*
X110400000Y-118200000D03*
G04 #@! TD*
G04 #@! TO.C,D2*
X98800000Y-64000000D03*
X98800000Y-65600000D03*
G04 #@! TD*
G04 #@! TO.C,D3*
X69000000Y-130200000D03*
X69000000Y-128600000D03*
G04 #@! TD*
G04 #@! TO.C,D4*
X58800000Y-137600000D03*
X58800000Y-136000000D03*
G04 #@! TD*
G04 #@! TO.C,D5*
X110400000Y-106000000D03*
X110400000Y-107600000D03*
G04 #@! TD*
G04 #@! TO.C,D6*
X69000000Y-136000000D03*
X69000000Y-137600000D03*
G04 #@! TD*
G04 #@! TO.C,D7*
X110400000Y-99000000D03*
X110400000Y-100600000D03*
G04 #@! TD*
G04 #@! TO.C,D8*
X59000000Y-130000000D03*
X59000000Y-128400000D03*
G04 #@! TD*
G04 #@! TO.C,D9*
X59000000Y-121200000D03*
X59000000Y-122800000D03*
G04 #@! TD*
G04 #@! TO.C,D10*
X109600000Y-65800000D03*
X109600000Y-64200000D03*
G04 #@! TD*
G04 #@! TO.C,D11*
X120800000Y-67800000D03*
X120800000Y-66200000D03*
G04 #@! TD*
D18*
G04 #@! TO.C,D12*
X89600000Y-139000000D03*
X87100000Y-139000000D03*
G04 #@! TD*
G04 #@! TO.C,D13*
X78300000Y-139000000D03*
X80800000Y-139000000D03*
G04 #@! TD*
G04 #@! TO.C,D14*
X106800000Y-138600000D03*
X104300000Y-138600000D03*
G04 #@! TD*
G04 #@! TO.C,D15*
X95700000Y-139000000D03*
X98200000Y-139000000D03*
G04 #@! TD*
G04 #@! TO.C,D16*
X98800000Y-59900000D03*
X98800000Y-62400000D03*
G04 #@! TD*
G04 #@! TO.C,D17*
X109800000Y-62500000D03*
X109800000Y-60000000D03*
G04 #@! TD*
G04 #@! TO.C,D18*
X121000000Y-64600000D03*
X121000000Y-62100000D03*
G04 #@! TD*
D12*
G04 #@! TO.C,D19*
X130800000Y-62000000D03*
X132400000Y-62000000D03*
G04 #@! TD*
G04 #@! TO.C,D20*
X85000000Y-60000000D03*
X86600000Y-60000000D03*
G04 #@! TD*
G04 #@! TO.C,D21*
X118400000Y-146800000D03*
X116800000Y-146800000D03*
G04 #@! TD*
G04 #@! TO.C,D22*
X91000000Y-91600000D03*
X89400000Y-91600000D03*
G04 #@! TD*
D19*
G04 #@! TO.C,FID1*
X50800000Y-50800000D03*
G04 #@! TD*
G04 #@! TO.C,FID2*
X148200000Y-50800000D03*
G04 #@! TD*
G04 #@! TO.C,FID3*
X148200000Y-148200000D03*
G04 #@! TD*
G04 #@! TO.C,FID4*
X50800000Y-148200000D03*
G04 #@! TD*
D20*
G04 #@! TO.C,J1*
X85800000Y-55400000D03*
D21*
X89300000Y-55400000D03*
G04 #@! TD*
D22*
G04 #@! TO.C,J2*
X122080000Y-55400000D03*
D23*
X117000000Y-55400000D03*
G04 #@! TD*
D24*
G04 #@! TO.C,J3*
X72800000Y-112200000D03*
X70260000Y-112200000D03*
X67720000Y-112200000D03*
D25*
X65180000Y-112200000D03*
G04 #@! TD*
D20*
G04 #@! TO.C,J4*
X91800000Y-143800000D03*
D21*
X88300000Y-143800000D03*
G04 #@! TD*
D20*
G04 #@! TO.C,J5*
X83100000Y-143800000D03*
D21*
X79600000Y-143800000D03*
G04 #@! TD*
G04 #@! TO.C,J6*
X105700000Y-143800000D03*
D20*
X109200000Y-143800000D03*
G04 #@! TD*
D21*
G04 #@! TO.C,J7*
X97000000Y-143800000D03*
D20*
X100500000Y-143800000D03*
G04 #@! TD*
G04 #@! TO.C,J8*
X74400000Y-143800000D03*
D21*
X70900000Y-143800000D03*
G04 #@! TD*
G04 #@! TO.C,J9*
X62100000Y-143800000D03*
D20*
X65600000Y-143800000D03*
G04 #@! TD*
D25*
G04 #@! TO.C,J10*
X104400000Y-118800000D03*
D24*
X104400000Y-121340000D03*
G04 #@! TD*
D20*
G04 #@! TO.C,J11*
X94500000Y-55400000D03*
D21*
X98000000Y-55400000D03*
G04 #@! TD*
D25*
G04 #@! TO.C,J12*
X54000000Y-85850000D03*
D24*
X54000000Y-83310000D03*
X54000000Y-80770000D03*
X54000000Y-78230000D03*
G04 #@! TD*
G04 #@! TO.C,J13*
X65200000Y-105400000D03*
D25*
X65200000Y-107940000D03*
G04 #@! TD*
G04 #@! TO.C,J14*
X75000000Y-129940000D03*
D24*
X75000000Y-127400000D03*
G04 #@! TD*
D25*
G04 #@! TO.C,J15*
X64980999Y-137090500D03*
D24*
X64980999Y-134550500D03*
G04 #@! TD*
G04 #@! TO.C,J16*
X104400000Y-108740000D03*
D25*
X104400000Y-106200000D03*
G04 #@! TD*
G04 #@! TO.C,J17*
X75000000Y-137140000D03*
D24*
X75000000Y-134600000D03*
G04 #@! TD*
D25*
G04 #@! TO.C,J18*
X104400000Y-99660000D03*
D24*
X104400000Y-102200000D03*
G04 #@! TD*
G04 #@! TO.C,J19*
X65000000Y-127260000D03*
D25*
X65000000Y-129800000D03*
G04 #@! TD*
D24*
G04 #@! TO.C,J20*
X144700000Y-133570000D03*
X144700000Y-131030000D03*
X144700000Y-128490000D03*
D25*
X144700000Y-125950000D03*
G04 #@! TD*
G04 #@! TO.C,J21*
X144750000Y-100800000D03*
D24*
X144750000Y-103340000D03*
X144750000Y-105880000D03*
X144750000Y-108420000D03*
G04 #@! TD*
D25*
G04 #@! TO.C,J22*
X142600000Y-80120000D03*
D24*
X142600000Y-82660000D03*
X142600000Y-85200000D03*
X142600000Y-87740000D03*
G04 #@! TD*
D25*
G04 #@! TO.C,J23*
X146350000Y-77700000D03*
D24*
X146350000Y-80240000D03*
X146350000Y-82780000D03*
X146350000Y-85320000D03*
G04 #@! TD*
G04 #@! TO.C,J24*
X65000000Y-119600000D03*
D25*
X65000000Y-122140000D03*
G04 #@! TD*
D21*
G04 #@! TO.C,J25*
X108800000Y-55400000D03*
D20*
X105300000Y-55400000D03*
G04 #@! TD*
D24*
G04 #@! TO.C,J26*
X76880000Y-53500000D03*
X74340000Y-53500000D03*
X71800000Y-53500000D03*
D25*
X69260000Y-53500000D03*
G04 #@! TD*
D24*
G04 #@! TO.C,J27*
X65262429Y-98710500D03*
D25*
X65262429Y-101250500D03*
G04 #@! TD*
G04 #@! TO.C,J28*
X72400000Y-96800000D03*
D24*
X72400000Y-94260000D03*
G04 #@! TD*
D23*
G04 #@! TO.C,J29*
X130920000Y-55400000D03*
D22*
X136000000Y-55400000D03*
G04 #@! TD*
D26*
G04 #@! TO.C,J30*
X92800000Y-110900000D03*
D27*
X92800000Y-113440000D03*
X90260000Y-110900000D03*
X90260000Y-113440000D03*
X87720000Y-110900000D03*
X87720000Y-113440000D03*
X85180000Y-110900000D03*
X85180000Y-113440000D03*
X82640000Y-110900000D03*
X82640000Y-113440000D03*
G04 #@! TD*
D24*
G04 #@! TO.C,J31*
X90189500Y-123400999D03*
X87649500Y-123400999D03*
X85109500Y-123400999D03*
X82569500Y-123400999D03*
X80029500Y-123400999D03*
D25*
X77489500Y-123400999D03*
G04 #@! TD*
G04 #@! TO.C,J32*
X77489500Y-119350999D03*
D24*
X80029500Y-119350999D03*
X82569500Y-119350999D03*
X85109500Y-119350999D03*
X87649500Y-119350999D03*
X90189500Y-119350999D03*
G04 #@! TD*
G04 #@! TO.C,JP1*
X114170500Y-144091857D03*
X116710500Y-144091857D03*
D25*
X119250500Y-144091857D03*
G04 #@! TD*
G04 #@! TO.C,JP2*
X99500000Y-119400000D03*
D24*
X96960000Y-119400000D03*
X94420000Y-119400000D03*
G04 #@! TD*
D25*
G04 #@! TO.C,JP3*
X99480000Y-123400000D03*
D24*
X96940000Y-123400000D03*
X94400000Y-123400000D03*
G04 #@! TD*
D25*
G04 #@! TO.C,JP8*
X78800000Y-90800000D03*
D24*
X78800000Y-93340000D03*
G04 #@! TD*
G04 #@! TO.C,JP9*
X119400000Y-133800000D03*
D25*
X119400000Y-131260000D03*
G04 #@! TD*
D28*
G04 #@! TO.C,MK1*
X144400000Y-144400000D03*
G04 #@! TD*
G04 #@! TO.C,MK2*
X144400000Y-54600000D03*
G04 #@! TD*
G04 #@! TO.C,MK3*
X54000000Y-54600000D03*
G04 #@! TD*
G04 #@! TO.C,MK4*
X54000000Y-144400000D03*
G04 #@! TD*
D12*
G04 #@! TO.C,R1*
X62600000Y-112100000D03*
X61000000Y-112100000D03*
G04 #@! TD*
G04 #@! TO.C,R2*
X61250000Y-89100000D03*
X59650000Y-89100000D03*
G04 #@! TD*
D13*
G04 #@! TO.C,R3*
X61040000Y-91300000D03*
X63900000Y-91300000D03*
G04 #@! TD*
D12*
G04 #@! TO.C,R4*
X61250000Y-76850000D03*
X59650000Y-76850000D03*
G04 #@! TD*
D13*
G04 #@! TO.C,R5*
X61040000Y-74500000D03*
X63900000Y-74500000D03*
G04 #@! TD*
D12*
G04 #@! TO.C,R6*
X107000000Y-118200000D03*
X108600000Y-118200000D03*
G04 #@! TD*
D15*
G04 #@! TO.C,R7*
X108800000Y-119800000D03*
X108800000Y-121400000D03*
G04 #@! TD*
D12*
G04 #@! TO.C,R8*
X62400000Y-108600000D03*
X60800000Y-108600000D03*
G04 #@! TD*
G04 #@! TO.C,R9*
X60800000Y-106800000D03*
X62400000Y-106800000D03*
G04 #@! TD*
D15*
G04 #@! TO.C,R10*
X97000000Y-67300000D03*
X97000000Y-68900000D03*
G04 #@! TD*
G04 #@! TO.C,R11*
X100600000Y-61600000D03*
X100600000Y-63200000D03*
G04 #@! TD*
D12*
G04 #@! TO.C,R12*
X139450000Y-122200000D03*
X137850000Y-122200000D03*
G04 #@! TD*
D13*
G04 #@! TO.C,R13*
X138310000Y-119950000D03*
X135450000Y-119950000D03*
G04 #@! TD*
D12*
G04 #@! TO.C,R14*
X139300000Y-134700000D03*
X137700000Y-134700000D03*
G04 #@! TD*
D13*
G04 #@! TO.C,R15*
X138130000Y-136700000D03*
X135270000Y-136700000D03*
G04 #@! TD*
D12*
G04 #@! TO.C,R16*
X72400000Y-130400000D03*
X70800000Y-130400000D03*
G04 #@! TD*
D15*
G04 #@! TO.C,R17*
X70600000Y-127000000D03*
X70600000Y-128600000D03*
G04 #@! TD*
D12*
G04 #@! TO.C,R18*
X60800000Y-137600000D03*
X62400000Y-137600000D03*
G04 #@! TD*
D15*
G04 #@! TO.C,R19*
X60600000Y-136000000D03*
X60600000Y-134400000D03*
G04 #@! TD*
D12*
G04 #@! TO.C,R20*
X137700000Y-98050000D03*
X139300000Y-98050000D03*
G04 #@! TD*
D13*
G04 #@! TO.C,R21*
X135250000Y-95800000D03*
X138110000Y-95800000D03*
G04 #@! TD*
D12*
G04 #@! TO.C,R22*
X72400000Y-102400000D03*
X70800000Y-102400000D03*
G04 #@! TD*
G04 #@! TO.C,R23*
X82200000Y-104600000D03*
X83800000Y-104600000D03*
G04 #@! TD*
G04 #@! TO.C,R24*
X108600000Y-106000000D03*
X107000000Y-106000000D03*
G04 #@! TD*
D15*
G04 #@! TO.C,R25*
X108800000Y-107600000D03*
X108800000Y-109200000D03*
G04 #@! TD*
D12*
G04 #@! TO.C,R26*
X70800000Y-137600000D03*
X72400000Y-137600000D03*
G04 #@! TD*
D15*
G04 #@! TO.C,R27*
X70600000Y-136000000D03*
X70600000Y-134400000D03*
G04 #@! TD*
D12*
G04 #@! TO.C,R28*
X83800000Y-102800000D03*
X82200000Y-102800000D03*
G04 #@! TD*
G04 #@! TO.C,R29*
X70800000Y-104000000D03*
X72400000Y-104000000D03*
G04 #@! TD*
G04 #@! TO.C,R30*
X134000000Y-62000000D03*
X135600000Y-62000000D03*
G04 #@! TD*
G04 #@! TO.C,R31*
X89800000Y-60000000D03*
X88200000Y-60000000D03*
G04 #@! TD*
G04 #@! TO.C,R32*
X107000000Y-99000000D03*
X108600000Y-99000000D03*
G04 #@! TD*
D15*
G04 #@! TO.C,R33*
X108800000Y-102200000D03*
X108800000Y-100600000D03*
G04 #@! TD*
D12*
G04 #@! TO.C,R34*
X62400000Y-130200000D03*
X60800000Y-130200000D03*
G04 #@! TD*
D15*
G04 #@! TO.C,R35*
X60600000Y-126800000D03*
X60600000Y-128400000D03*
G04 #@! TD*
D12*
G04 #@! TO.C,R36*
X119900000Y-146800000D03*
X121500000Y-146800000D03*
G04 #@! TD*
G04 #@! TO.C,R37*
X87801381Y-91599500D03*
X86201381Y-91599500D03*
G04 #@! TD*
G04 #@! TO.C,R38*
X139100000Y-110300000D03*
X137500000Y-110300000D03*
G04 #@! TD*
D13*
G04 #@! TO.C,R39*
X135500000Y-112550000D03*
X138360000Y-112550000D03*
G04 #@! TD*
D12*
G04 #@! TO.C,R40*
X62400000Y-122800000D03*
X60800000Y-122800000D03*
G04 #@! TD*
D15*
G04 #@! TO.C,R41*
X60600000Y-119600000D03*
X60600000Y-121200000D03*
G04 #@! TD*
D12*
G04 #@! TO.C,R42*
X62600000Y-102400000D03*
X61000000Y-102400000D03*
G04 #@! TD*
G04 #@! TO.C,R43*
X61000000Y-100600000D03*
X62600000Y-100600000D03*
G04 #@! TD*
D15*
G04 #@! TO.C,R44*
X107800000Y-69000000D03*
X107800000Y-67400000D03*
G04 #@! TD*
G04 #@! TO.C,R45*
X111600000Y-61800000D03*
X111600000Y-63400000D03*
G04 #@! TD*
D12*
G04 #@! TO.C,R46*
X69600000Y-97600000D03*
X68000000Y-97600000D03*
G04 #@! TD*
G04 #@! TO.C,R47*
X68000000Y-95800000D03*
X69600000Y-95800000D03*
G04 #@! TD*
D15*
G04 #@! TO.C,R48*
X118800000Y-71200000D03*
X118800000Y-69600000D03*
G04 #@! TD*
G04 #@! TO.C,R49*
X122800000Y-66400000D03*
X122800000Y-64800000D03*
G04 #@! TD*
G04 #@! TO.C,R50*
X91200000Y-134400000D03*
X91200000Y-136000000D03*
G04 #@! TD*
G04 #@! TO.C,R51*
X93200000Y-136000000D03*
X93200000Y-134400000D03*
G04 #@! TD*
G04 #@! TO.C,R52*
X82600000Y-135800000D03*
X82600000Y-134200000D03*
G04 #@! TD*
G04 #@! TO.C,R53*
X84600000Y-135800000D03*
X84600000Y-134200000D03*
G04 #@! TD*
G04 #@! TO.C,R54*
X108800000Y-133600000D03*
X108800000Y-135200000D03*
G04 #@! TD*
G04 #@! TO.C,R55*
X110600000Y-135200000D03*
X110600000Y-133600000D03*
G04 #@! TD*
G04 #@! TO.C,R56*
X100000000Y-134400000D03*
X100000000Y-136000000D03*
G04 #@! TD*
G04 #@! TO.C,R57*
X101800000Y-134400000D03*
X101800000Y-136000000D03*
G04 #@! TD*
D12*
G04 #@! TO.C,R58*
X137650000Y-75700000D03*
X136050000Y-75700000D03*
G04 #@! TD*
D13*
G04 #@! TO.C,R59*
X133350000Y-73450000D03*
X136210000Y-73450000D03*
G04 #@! TD*
D12*
G04 #@! TO.C,R60*
X136100000Y-87700000D03*
X137700000Y-87700000D03*
G04 #@! TD*
D13*
G04 #@! TO.C,R61*
X133740000Y-90000000D03*
X136600000Y-90000000D03*
G04 #@! TD*
D15*
G04 #@! TO.C,R62*
X65950000Y-58750000D03*
X65950000Y-60350000D03*
G04 #@! TD*
D16*
G04 #@! TO.C,R63*
X63700000Y-59740000D03*
X63700000Y-62600000D03*
G04 #@! TD*
D15*
G04 #@! TO.C,R64*
X78450000Y-60200000D03*
X78450000Y-58600000D03*
G04 #@! TD*
D16*
G04 #@! TO.C,R65*
X80576238Y-62460000D03*
X80576238Y-59600000D03*
G04 #@! TD*
D29*
G04 #@! TO.C,TR1*
X96910000Y-65670000D03*
D30*
X95000000Y-62400000D03*
D31*
X95000000Y-60200000D03*
D29*
X95640000Y-65670000D03*
X93090000Y-65670000D03*
X94360000Y-65670000D03*
G04 #@! TD*
G04 #@! TO.C,TR2*
X105160000Y-65670000D03*
X103890000Y-65670000D03*
X106440000Y-65670000D03*
D31*
X105800000Y-60200000D03*
D30*
X105800000Y-62400000D03*
D29*
X107710000Y-65670000D03*
G04 #@! TD*
D32*
G04 #@! TO.C,TR3*
X118704001Y-67894500D03*
X117434001Y-67894500D03*
X116164001Y-67894500D03*
X114894001Y-67894500D03*
D33*
X118799001Y-61894500D03*
X117464001Y-61894500D03*
X116134001Y-61894500D03*
X114799001Y-61894500D03*
D34*
X116799001Y-64394500D03*
G04 #@! TD*
D35*
G04 #@! TO.C,TR4*
X93150000Y-137400000D03*
X91250000Y-137400000D03*
X92200000Y-139400000D03*
G04 #@! TD*
G04 #@! TO.C,TR5*
X83600000Y-139400000D03*
X82650000Y-137400000D03*
X84550000Y-137400000D03*
G04 #@! TD*
G04 #@! TO.C,TR6*
X109600000Y-138800000D03*
X108650000Y-136800000D03*
X110550000Y-136800000D03*
G04 #@! TD*
G04 #@! TO.C,TR7*
X101874238Y-137400000D03*
X99974238Y-137400000D03*
X100924238Y-139400000D03*
G04 #@! TD*
D36*
G04 #@! TO.C,U1*
X102169001Y-88089500D03*
X102169001Y-88739500D03*
X102169001Y-89389500D03*
X102169001Y-90039500D03*
X102169001Y-90689500D03*
X102169001Y-91339500D03*
X102169001Y-91989500D03*
X108069001Y-91989500D03*
X108069001Y-91339500D03*
X108069001Y-90689500D03*
X108069001Y-90039500D03*
X108069001Y-89389500D03*
X108069001Y-88739500D03*
X108069001Y-88089500D03*
G04 #@! TD*
G04 #@! TO.C,U2*
X80199001Y-101319500D03*
X80199001Y-101969500D03*
X80199001Y-102619500D03*
X80199001Y-103269500D03*
X80199001Y-103919500D03*
X80199001Y-104569500D03*
X80199001Y-105219500D03*
X74299001Y-105219500D03*
X74299001Y-104569500D03*
X74299001Y-103919500D03*
X74299001Y-103269500D03*
X74299001Y-102619500D03*
X74299001Y-101969500D03*
X74299001Y-101319500D03*
G04 #@! TD*
G04 #@! TO.C,U3*
X87479001Y-101179500D03*
X87479001Y-101829500D03*
X87479001Y-102479500D03*
X87479001Y-103129500D03*
X87479001Y-103779500D03*
X87479001Y-104429500D03*
X87479001Y-105079500D03*
X93379001Y-105079500D03*
X93379001Y-104429500D03*
X93379001Y-103779500D03*
X93379001Y-103129500D03*
X93379001Y-102479500D03*
X93379001Y-101829500D03*
X93379001Y-101179500D03*
G04 #@! TD*
D37*
G04 #@! TO.C,U4*
X70612000Y-77054000D03*
D38*
X69412000Y-77054000D03*
X67012000Y-77054000D03*
X65412000Y-77054000D03*
X63012000Y-77054000D03*
X63012000Y-88754000D03*
X65412000Y-88754000D03*
X67012000Y-88754000D03*
X69412000Y-88754000D03*
D37*
X68212000Y-77054000D03*
X64212000Y-77054000D03*
X64212000Y-88754000D03*
X68212000Y-88754000D03*
X70612000Y-88754000D03*
D39*
X60762000Y-78904000D03*
X60762000Y-79704000D03*
X60762000Y-80504000D03*
X60762000Y-81304000D03*
X60762000Y-82104000D03*
X60762000Y-82904000D03*
X60762000Y-83704000D03*
X60762000Y-84504000D03*
X60762000Y-85304000D03*
X60762000Y-86104000D03*
X60762000Y-86904000D03*
X72462000Y-86904000D03*
X72462000Y-86104000D03*
X72462000Y-85304000D03*
X72462000Y-84504000D03*
X72462000Y-83704000D03*
X72462000Y-82904000D03*
X72462000Y-82104000D03*
X72462000Y-81304000D03*
X72462000Y-80504000D03*
X72462000Y-79704000D03*
X72462000Y-78904000D03*
G04 #@! TD*
G04 #@! TO.C,U5*
X126458000Y-132446000D03*
X126458000Y-131646000D03*
X126458000Y-130846000D03*
X126458000Y-130046000D03*
X126458000Y-129246000D03*
X126458000Y-128446000D03*
X126458000Y-127646000D03*
X126458000Y-126846000D03*
X126458000Y-126046000D03*
X126458000Y-125246000D03*
X126458000Y-124446000D03*
X138158000Y-124446000D03*
X138158000Y-125246000D03*
X138158000Y-126046000D03*
X138158000Y-126846000D03*
X138158000Y-127646000D03*
X138158000Y-128446000D03*
X138158000Y-129246000D03*
X138158000Y-130046000D03*
X138158000Y-130846000D03*
X138158000Y-131646000D03*
X138158000Y-132446000D03*
D37*
X128308000Y-122596000D03*
X130708000Y-122596000D03*
X134708000Y-122596000D03*
X134708000Y-134296000D03*
X130708000Y-134296000D03*
D38*
X129508000Y-122596000D03*
X131908000Y-122596000D03*
X133508000Y-122596000D03*
X135908000Y-122596000D03*
X135908000Y-134296000D03*
X133508000Y-134296000D03*
X131908000Y-134296000D03*
X129508000Y-134296000D03*
D37*
X128308000Y-134296000D03*
G04 #@! TD*
D39*
G04 #@! TO.C,U6*
X126288000Y-108086000D03*
X126288000Y-107286000D03*
X126288000Y-106486000D03*
X126288000Y-105686000D03*
X126288000Y-104886000D03*
X126288000Y-104086000D03*
X126288000Y-103286000D03*
X126288000Y-102486000D03*
X126288000Y-101686000D03*
X126288000Y-100886000D03*
X126288000Y-100086000D03*
X137988000Y-100086000D03*
X137988000Y-100886000D03*
X137988000Y-101686000D03*
X137988000Y-102486000D03*
X137988000Y-103286000D03*
X137988000Y-104086000D03*
X137988000Y-104886000D03*
X137988000Y-105686000D03*
X137988000Y-106486000D03*
X137988000Y-107286000D03*
X137988000Y-108086000D03*
D37*
X128138000Y-98236000D03*
X130538000Y-98236000D03*
X134538000Y-98236000D03*
X134538000Y-109936000D03*
X130538000Y-109936000D03*
D38*
X129338000Y-98236000D03*
X131738000Y-98236000D03*
X133338000Y-98236000D03*
X135738000Y-98236000D03*
X135738000Y-109936000D03*
X133338000Y-109936000D03*
X131738000Y-109936000D03*
X129338000Y-109936000D03*
D37*
X128138000Y-109936000D03*
G04 #@! TD*
D39*
G04 #@! TO.C,U7*
X124668000Y-85696000D03*
X124668000Y-84896000D03*
X124668000Y-84096000D03*
X124668000Y-83296000D03*
X124668000Y-82496000D03*
X124668000Y-81696000D03*
X124668000Y-80896000D03*
X124668000Y-80096000D03*
X124668000Y-79296000D03*
X124668000Y-78496000D03*
X124668000Y-77696000D03*
X136368000Y-77696000D03*
X136368000Y-78496000D03*
X136368000Y-79296000D03*
X136368000Y-80096000D03*
X136368000Y-80896000D03*
X136368000Y-81696000D03*
X136368000Y-82496000D03*
X136368000Y-83296000D03*
X136368000Y-84096000D03*
X136368000Y-84896000D03*
X136368000Y-85696000D03*
D37*
X126518000Y-75846000D03*
X128918000Y-75846000D03*
X132918000Y-75846000D03*
X132918000Y-87546000D03*
X128918000Y-87546000D03*
D38*
X127718000Y-75846000D03*
X130118000Y-75846000D03*
X131718000Y-75846000D03*
X134118000Y-75846000D03*
X134118000Y-87546000D03*
X131718000Y-87546000D03*
X130118000Y-87546000D03*
X127718000Y-87546000D03*
D37*
X126518000Y-87546000D03*
G04 #@! TD*
D39*
G04 #@! TO.C,U8*
X77926000Y-69712000D03*
D40*
X77926000Y-68512000D03*
X77926000Y-66112000D03*
X77926000Y-64512000D03*
X77926000Y-62112000D03*
X66226000Y-62112000D03*
X66226000Y-64512000D03*
X66226000Y-66112000D03*
X66226000Y-68512000D03*
D39*
X77926000Y-67312000D03*
X77926000Y-63312000D03*
X66226000Y-63312000D03*
X66226000Y-67312000D03*
X66226000Y-69712000D03*
D37*
X76076000Y-59862000D03*
X75276000Y-59862000D03*
X74476000Y-59862000D03*
X73676000Y-59862000D03*
X72876000Y-59862000D03*
X72076000Y-59862000D03*
X71276000Y-59862000D03*
X70476000Y-59862000D03*
X69676000Y-59862000D03*
X68876000Y-59862000D03*
X68076000Y-59862000D03*
X68076000Y-71562000D03*
X68876000Y-71562000D03*
X69676000Y-71562000D03*
X70476000Y-71562000D03*
X71276000Y-71562000D03*
X72076000Y-71562000D03*
X72876000Y-71562000D03*
X73676000Y-71562000D03*
X74476000Y-71562000D03*
X75276000Y-71562000D03*
X76076000Y-71562000D03*
G04 #@! TD*
D41*
G04 #@! TO.C,U11*
X52860000Y-93300000D03*
X55400000Y-93300000D03*
X116360000Y-93300000D03*
X113820000Y-93300000D03*
X116360000Y-95840000D03*
X116360000Y-98380000D03*
X116360000Y-100920000D03*
X116360000Y-103460000D03*
X116360000Y-106000000D03*
X116360000Y-108540000D03*
X116360000Y-111080000D03*
X116360000Y-113620000D03*
X116360000Y-116160000D03*
X116360000Y-118700000D03*
X116360000Y-121240000D03*
X116360000Y-123780000D03*
X116360000Y-126320000D03*
X116360000Y-128860000D03*
X116360000Y-131400000D03*
X116360000Y-133940000D03*
X116360000Y-136480000D03*
X116360000Y-139020000D03*
X113820000Y-95840000D03*
X113820000Y-98380000D03*
X113820000Y-100920000D03*
X113820000Y-103460000D03*
X113820000Y-106000000D03*
X113820000Y-108540000D03*
X113820000Y-111080000D03*
X113820000Y-113620000D03*
X113820000Y-116160000D03*
X113820000Y-118700000D03*
X113820000Y-121240000D03*
X113820000Y-123780000D03*
X113820000Y-126320000D03*
X113820000Y-128860000D03*
X113820000Y-131400000D03*
X113820000Y-133940000D03*
X113820000Y-136480000D03*
D42*
X113820000Y-139020000D03*
D41*
X52860000Y-95840000D03*
X52860000Y-98380000D03*
X52860000Y-100920000D03*
X52860000Y-103460000D03*
X52860000Y-106000000D03*
X52860000Y-108540000D03*
X52860000Y-111080000D03*
X52860000Y-113620000D03*
X52860000Y-116160000D03*
X52860000Y-118700000D03*
X52860000Y-121240000D03*
X52860000Y-123780000D03*
X52860000Y-126320000D03*
X52860000Y-128860000D03*
X52860000Y-131400000D03*
X52860000Y-133940000D03*
X52860000Y-136480000D03*
D42*
X52860000Y-139020000D03*
D41*
X55400000Y-95840000D03*
X55400000Y-98380000D03*
X55400000Y-100920000D03*
X55400000Y-103460000D03*
X55400000Y-106000000D03*
X55400000Y-108540000D03*
X55400000Y-111080000D03*
X55400000Y-113620000D03*
X55400000Y-116160000D03*
X55400000Y-118700000D03*
X55400000Y-121240000D03*
X55400000Y-123780000D03*
X55400000Y-126320000D03*
X55400000Y-128860000D03*
X55400000Y-131400000D03*
X55400000Y-133940000D03*
X55400000Y-136480000D03*
X55400000Y-139020000D03*
G04 #@! TD*
D43*
G04 #@! TO.C,X1*
X91600000Y-96600000D03*
X88700000Y-96600000D03*
X88700000Y-95050000D03*
X91600000Y-95050000D03*
G04 #@! TD*
M02*
