%TF.GenerationSoftware,KiCad,Pcbnew,6.0.0-unknown-b9898e2~86~ubuntu19.04.1*%
%TF.CreationDate,2019-05-24T21:22:52-07:00*%
%TF.ProjectId,PrntrBoardV1,50726e74-7242-46f6-9172-6456312e6b69,rev?*%
%TF.SameCoordinates,PX1303eb8PY7093f24*%
%TF.FileFunction,Paste,Top*%
%TF.FilePolarity,Positive*%
%FSLAX46Y46*%
G04 Gerber Fmt 4.6, Leading zero omitted, Abs format (unit mm)*
G04 Created by KiCad (PCBNEW 6.0.0-unknown-b9898e2~86~ubuntu19.04.1) date 2019-05-24 21:22:52*
%MOMM*%
%LPD*%
G04 APERTURE LIST*
%ADD10R,3.810000X4.240000*%
%ADD11R,4.240000X3.810000*%
%ADD12R,0.820000X1.000000*%
%ADD13R,1.750000X0.900000*%
%ADD14R,0.875000X0.950000*%
%ADD15R,3.300000X2.500000*%
%ADD16R,0.640000X0.590000*%
%ADD17R,0.590000X0.640000*%
%ADD18C,0.100000*%
%ADD19C,1.600000*%
%ADD20R,0.500000X1.600000*%
%ADD21R,1.300000X1.600000*%
%ADD22R,1.600000X0.500000*%
%ADD23R,1.600000X1.300000*%
%ADD24R,1.450000X0.450000*%
%ADD25R,0.800000X0.900000*%
%ADD26R,1.500000X1.500000*%
%ADD27R,0.700000X0.500000*%
%ADD28R,0.650000X1.200000*%
%ADD29R,0.900000X0.600000*%
%ADD30R,0.600000X0.900000*%
%ADD31R,0.600000X1.050000*%
%ADD32R,0.950000X0.875000*%
%ADD33R,1.250000X1.750000*%
%ADD34R,1.750000X1.250000*%
%ADD35R,1.000000X1.000000*%
%ADD36R,3.000000X0.127000*%
%ADD37R,0.127000X3.000000*%
G04 APERTURE END LIST*
D10*
X11486000Y79071500D03*
X11486000Y72701500D03*
D11*
X18891000Y71896500D03*
X25261000Y71896500D03*
D12*
X36836000Y56246500D03*
X38436000Y56246500D03*
D13*
X43761000Y43646500D03*
X46661000Y43646500D03*
X46661000Y45196500D03*
X43761000Y45196500D03*
D14*
X44886000Y42046500D03*
X46461000Y42046500D03*
X43436000Y42046500D03*
X41861000Y42046500D03*
D15*
X4761000Y75046500D03*
X4761000Y81846500D03*
X29761000Y59146500D03*
X29761000Y65946500D03*
D16*
X73111000Y84811500D03*
X73111000Y85781500D03*
D17*
X54746000Y69046500D03*
X53776000Y69046500D03*
D16*
X73686000Y41024000D03*
X73686000Y41994000D03*
X73611000Y19599000D03*
X73611000Y20569000D03*
X73361000Y62649000D03*
X73361000Y63619000D03*
D18*
G36*
X71756671Y28327470D02*
G01*
X71837777Y28273277D01*
X71891970Y28192171D01*
X71911000Y28096500D01*
X71911000Y26996500D01*
X71891970Y26900829D01*
X71837777Y26819723D01*
X71756671Y26765530D01*
X71661000Y26746500D01*
X68661000Y26746500D01*
X68565329Y26765530D01*
X68484223Y26819723D01*
X68430030Y26900829D01*
X68411000Y26996500D01*
X68411000Y28096500D01*
X68430030Y28192171D01*
X68484223Y28273277D01*
X68565329Y28327470D01*
X68661000Y28346500D01*
X71661000Y28346500D01*
X71756671Y28327470D01*
X71756671Y28327470D01*
G37*
D19*
X70161000Y27546500D03*
D18*
G36*
X77156671Y28327470D02*
G01*
X77237777Y28273277D01*
X77291970Y28192171D01*
X77311000Y28096500D01*
X77311000Y26996500D01*
X77291970Y26900829D01*
X77237777Y26819723D01*
X77156671Y26765530D01*
X77061000Y26746500D01*
X74061000Y26746500D01*
X73965329Y26765530D01*
X73884223Y26819723D01*
X73830030Y26900829D01*
X73811000Y26996500D01*
X73811000Y28096500D01*
X73830030Y28192171D01*
X73884223Y28273277D01*
X73965329Y28327470D01*
X74061000Y28346500D01*
X77061000Y28346500D01*
X77156671Y28327470D01*
X77156671Y28327470D01*
G37*
D19*
X75561000Y27546500D03*
D20*
X77701000Y76196500D03*
D21*
X78901000Y76196500D03*
X81301000Y76196500D03*
X82901000Y76196500D03*
X85301000Y76196500D03*
X85301000Y87896500D03*
X82901000Y87896500D03*
X81301000Y87896500D03*
X78901000Y87896500D03*
D20*
X80101000Y76196500D03*
X84101000Y76196500D03*
X84101000Y87896500D03*
X80101000Y87896500D03*
X77701000Y87896500D03*
D22*
X87551000Y78046500D03*
X87551000Y78846500D03*
X87551000Y79646500D03*
X87551000Y80446500D03*
X87551000Y81246500D03*
X87551000Y82046500D03*
X87551000Y82846500D03*
X87551000Y83646500D03*
X87551000Y84446500D03*
X87551000Y85246500D03*
X87551000Y86046500D03*
X75851000Y86046500D03*
X75851000Y85246500D03*
X75851000Y84446500D03*
X75851000Y83646500D03*
X75851000Y82846500D03*
X75851000Y82046500D03*
X75851000Y81246500D03*
X75851000Y80446500D03*
X75851000Y79646500D03*
X75851000Y78846500D03*
X75851000Y78046500D03*
X63211000Y73746500D03*
D23*
X63211000Y74946500D03*
X63211000Y77346500D03*
X63211000Y78946500D03*
X63211000Y81346500D03*
X51511000Y81346500D03*
X51511000Y78946500D03*
X51511000Y77346500D03*
X51511000Y74946500D03*
D22*
X63211000Y76146500D03*
X63211000Y80146500D03*
X51511000Y80146500D03*
X51511000Y76146500D03*
X51511000Y73746500D03*
D20*
X61361000Y83596500D03*
X60561000Y83596500D03*
X59761000Y83596500D03*
X58961000Y83596500D03*
X58161000Y83596500D03*
X57361000Y83596500D03*
X56561000Y83596500D03*
X55761000Y83596500D03*
X54961000Y83596500D03*
X54161000Y83596500D03*
X53361000Y83596500D03*
X53361000Y71896500D03*
X54161000Y71896500D03*
X54961000Y71896500D03*
X55761000Y71896500D03*
X56561000Y71896500D03*
X57361000Y71896500D03*
X58161000Y71896500D03*
X58961000Y71896500D03*
X59761000Y71896500D03*
X60561000Y71896500D03*
X61361000Y71896500D03*
X77701000Y32516500D03*
D21*
X78901000Y32516500D03*
X81301000Y32516500D03*
X82901000Y32516500D03*
X85301000Y32516500D03*
X85301000Y44216500D03*
X82901000Y44216500D03*
X81301000Y44216500D03*
X78901000Y44216500D03*
D20*
X80101000Y32516500D03*
X84101000Y32516500D03*
X84101000Y44216500D03*
X80101000Y44216500D03*
X77701000Y44216500D03*
D22*
X87551000Y34366500D03*
X87551000Y35166500D03*
X87551000Y35966500D03*
X87551000Y36766500D03*
X87551000Y37566500D03*
X87551000Y38366500D03*
X87551000Y39166500D03*
X87551000Y39966500D03*
X87551000Y40766500D03*
X87551000Y41566500D03*
X87551000Y42366500D03*
X75851000Y42366500D03*
X75851000Y41566500D03*
X75851000Y40766500D03*
X75851000Y39966500D03*
X75851000Y39166500D03*
X75851000Y38366500D03*
X75851000Y37566500D03*
X75851000Y36766500D03*
X75851000Y35966500D03*
X75851000Y35166500D03*
X75851000Y34366500D03*
D20*
X77701000Y11006500D03*
D21*
X78901000Y11006500D03*
X81301000Y11006500D03*
X82901000Y11006500D03*
X85301000Y11006500D03*
X85301000Y22706500D03*
X82901000Y22706500D03*
X81301000Y22706500D03*
X78901000Y22706500D03*
D20*
X80101000Y11006500D03*
X84101000Y11006500D03*
X84101000Y22706500D03*
X80101000Y22706500D03*
X77701000Y22706500D03*
D22*
X87551000Y12856500D03*
X87551000Y13656500D03*
X87551000Y14456500D03*
X87551000Y15256500D03*
X87551000Y16056500D03*
X87551000Y16856500D03*
X87551000Y17656500D03*
X87551000Y18456500D03*
X87551000Y19256500D03*
X87551000Y20056500D03*
X87551000Y20856500D03*
X75851000Y20856500D03*
X75851000Y20056500D03*
X75851000Y19256500D03*
X75851000Y18456500D03*
X75851000Y17656500D03*
X75851000Y16856500D03*
X75851000Y16056500D03*
X75851000Y15256500D03*
X75851000Y14456500D03*
X75851000Y13656500D03*
X75851000Y12856500D03*
D20*
X77701000Y54106500D03*
D21*
X78901000Y54106500D03*
X81301000Y54106500D03*
X82901000Y54106500D03*
X85301000Y54106500D03*
X85301000Y65806500D03*
X82901000Y65806500D03*
X81301000Y65806500D03*
X78901000Y65806500D03*
D20*
X80101000Y54106500D03*
X84101000Y54106500D03*
X84101000Y65806500D03*
X80101000Y65806500D03*
X77701000Y65806500D03*
D22*
X87551000Y55956500D03*
X87551000Y56756500D03*
X87551000Y57556500D03*
X87551000Y58356500D03*
X87551000Y59156500D03*
X87551000Y59956500D03*
X87551000Y60756500D03*
X87551000Y61556500D03*
X87551000Y62356500D03*
X87551000Y63156500D03*
X87551000Y63956500D03*
X75851000Y63956500D03*
X75851000Y63156500D03*
X75851000Y62356500D03*
X75851000Y61556500D03*
X75851000Y60756500D03*
X75851000Y59956500D03*
X75851000Y59156500D03*
X75851000Y58356500D03*
X75851000Y57556500D03*
X75851000Y56756500D03*
X75851000Y55956500D03*
D24*
X44876001Y34081499D03*
X44876001Y33431499D03*
X44876001Y32781499D03*
X44876001Y32131499D03*
X44876001Y31481499D03*
X44876001Y30831499D03*
X44876001Y30181499D03*
X38976001Y30181499D03*
X38976001Y30831499D03*
X38976001Y31481499D03*
X38976001Y32131499D03*
X38976001Y32781499D03*
X38976001Y33431499D03*
X38976001Y34081499D03*
X36936001Y47171499D03*
X36936001Y46521499D03*
X36936001Y45871499D03*
X36936001Y45221499D03*
X36936001Y44571499D03*
X36936001Y43921499D03*
X36936001Y43271499D03*
X31036001Y43271499D03*
X31036001Y43921499D03*
X31036001Y44571499D03*
X31036001Y45221499D03*
X31036001Y45871499D03*
X31036001Y46521499D03*
X31036001Y47171499D03*
X57386001Y34021499D03*
X57386001Y33371499D03*
X57386001Y32721499D03*
X57386001Y32071499D03*
X57386001Y31421499D03*
X57386001Y30771499D03*
X57386001Y30121499D03*
X51486001Y30121499D03*
X51486001Y30771499D03*
X51486001Y31421499D03*
X51486001Y32071499D03*
X51486001Y32721499D03*
X51486001Y33371499D03*
X51486001Y34021499D03*
D25*
X55211000Y11646500D03*
X53311000Y11646500D03*
X54261000Y9646500D03*
X30961000Y11646500D03*
X29061000Y11646500D03*
X30011000Y9646500D03*
X47211000Y11646500D03*
X45311000Y11646500D03*
X46261000Y9646500D03*
X39061000Y11646500D03*
X37161000Y11646500D03*
X38111000Y9646500D03*
D26*
X26016001Y83251499D03*
X28016001Y83251499D03*
X28016001Y85251499D03*
X26016001Y85251499D03*
D27*
X25016001Y86926499D03*
X26351001Y86926499D03*
X27681001Y86926499D03*
X29016001Y86926499D03*
D28*
X25111001Y80926499D03*
X26381001Y80926499D03*
X27651001Y80926499D03*
X28921001Y80926499D03*
D29*
X42091000Y86546500D03*
X42091000Y85696500D03*
X42091000Y87396500D03*
X44391000Y86546500D03*
X44391000Y85696500D03*
X44391000Y87396500D03*
X43241000Y87396500D03*
X43241000Y85696500D03*
D30*
X41361000Y89246500D03*
X45121000Y89246500D03*
X42641000Y89246500D03*
D31*
X42601000Y83526500D03*
X41331000Y83526500D03*
X43881000Y83526500D03*
X45151000Y83526500D03*
D30*
X43841000Y89246500D03*
D29*
X43241000Y86546500D03*
X33911000Y86531500D03*
X33911000Y85681500D03*
X33911000Y87381500D03*
X36211000Y86531500D03*
X36211000Y85681500D03*
X36211000Y87381500D03*
X35061000Y87381500D03*
X35061000Y85681500D03*
D30*
X33181000Y89231500D03*
X36941000Y89231500D03*
X34461000Y89231500D03*
D31*
X34421000Y83511500D03*
X33151000Y83511500D03*
X35701000Y83511500D03*
X36971000Y83511500D03*
D30*
X35661000Y89231500D03*
D29*
X35061000Y86531500D03*
D14*
X55236000Y13146500D03*
X53661000Y13146500D03*
X49586000Y11646500D03*
X51161000Y11646500D03*
X31036000Y13146500D03*
X29461000Y13146500D03*
X25486000Y11746500D03*
X27061000Y11746500D03*
X47236000Y13146500D03*
X45661000Y13146500D03*
X41561000Y11646500D03*
X43136000Y11646500D03*
X39136000Y13146500D03*
X37561000Y13146500D03*
X33486000Y11646500D03*
X35061000Y11646500D03*
D32*
X21361000Y84721500D03*
X21361000Y83146500D03*
X29061000Y79146500D03*
X29061000Y77571500D03*
X50661000Y16546500D03*
X50661000Y18121500D03*
X49161000Y21146500D03*
X49161000Y19571500D03*
D14*
X41073500Y79346500D03*
X42648500Y79346500D03*
D32*
X45261000Y80921500D03*
X45261000Y79346500D03*
X57761000Y16646500D03*
X57761000Y18221500D03*
X56261000Y21146500D03*
X56261000Y19571500D03*
D14*
X54536000Y38746500D03*
X52961000Y38746500D03*
D32*
X54461000Y43446500D03*
X54461000Y41871500D03*
D33*
X84611000Y73546500D03*
X87411000Y73546500D03*
D14*
X89111000Y76046500D03*
X87536000Y76046500D03*
D33*
X84561000Y90546500D03*
X87361000Y90546500D03*
D14*
X89361000Y88296500D03*
X87786000Y88296500D03*
X47636000Y54946500D03*
X46061000Y54946500D03*
D32*
X47561000Y59621500D03*
X47561000Y58046500D03*
D14*
X47661000Y47746500D03*
X46086000Y47746500D03*
D32*
X47561000Y52546500D03*
X47561000Y50971500D03*
D34*
X65661000Y80846500D03*
X65661000Y83646500D03*
D32*
X63261000Y85521500D03*
X63261000Y83946500D03*
D34*
X48861000Y80646500D03*
X48861000Y83446500D03*
D32*
X51061000Y84934000D03*
X51061000Y83359000D03*
D14*
X54561000Y54946500D03*
X52986000Y54946500D03*
D32*
X54461000Y59621500D03*
X54461000Y58046500D03*
D14*
X54536000Y47746500D03*
X52961000Y47746500D03*
D32*
X54461000Y52521500D03*
X54461000Y50946500D03*
D33*
X84611000Y30046500D03*
X87411000Y30046500D03*
D14*
X89186000Y32296500D03*
X87611000Y32296500D03*
D33*
X84611000Y46796500D03*
X87411000Y46796500D03*
D14*
X89361000Y44546500D03*
X87786000Y44546500D03*
X61436000Y54946500D03*
X59861000Y54946500D03*
D32*
X61361000Y59621500D03*
X61361000Y58046500D03*
D14*
X61436000Y47746500D03*
X59861000Y47746500D03*
D32*
X61361000Y52546500D03*
X61361000Y50971500D03*
D33*
X84711000Y8296500D03*
X87511000Y8296500D03*
D14*
X89111000Y10296500D03*
X87536000Y10296500D03*
D33*
X84611000Y25296500D03*
X87411000Y25296500D03*
D14*
X89186000Y23296500D03*
X87611000Y23296500D03*
X32961000Y79346500D03*
X34536000Y79346500D03*
D32*
X37061000Y80921500D03*
X37061000Y79346500D03*
X57761000Y22846500D03*
X57761000Y24421500D03*
X56261000Y27446500D03*
X56261000Y25871500D03*
D14*
X61348500Y38746500D03*
X59773500Y38746500D03*
D32*
X61261000Y43421500D03*
X61261000Y41846500D03*
D33*
X84561000Y51546500D03*
X87361000Y51546500D03*
D14*
X89348500Y53746500D03*
X87773500Y53746500D03*
D33*
X84561000Y68146500D03*
X87361000Y68146500D03*
D14*
X89361000Y65946500D03*
X87786000Y65946500D03*
X11486000Y12646500D03*
X9911000Y12646500D03*
X24061000Y50646500D03*
X22486000Y50646500D03*
X35086000Y54521500D03*
X33511000Y54521500D03*
X27061000Y44546500D03*
X28636000Y44546500D03*
X41061000Y45846500D03*
X39486000Y45846500D03*
X41061000Y43746500D03*
X39486000Y43746500D03*
X27061000Y46246500D03*
X28636000Y46246500D03*
X33486000Y52946500D03*
X35061000Y52946500D03*
X35086000Y56196500D03*
X33511000Y56196500D03*
D35*
X51661000Y9846500D03*
X49161000Y9846500D03*
X27361000Y9946500D03*
X24861000Y9946500D03*
X43661000Y9846500D03*
X41161000Y9846500D03*
X35461000Y9846500D03*
X32961000Y9846500D03*
X23261000Y84246500D03*
X23261000Y86746500D03*
D12*
X23161000Y81546500D03*
X21561000Y81546500D03*
D35*
X39161000Y83896500D03*
X39161000Y81396500D03*
D12*
X41061000Y80946500D03*
X42661000Y80946500D03*
X52961000Y40346500D03*
X54561000Y40346500D03*
X46061000Y56546500D03*
X47661000Y56546500D03*
X46061000Y49346500D03*
X47661000Y49346500D03*
X52961000Y56546500D03*
X54561000Y56546500D03*
X52961000Y49346500D03*
X54561000Y49346500D03*
X59861000Y56546500D03*
X61461000Y56546500D03*
X59861000Y49346500D03*
X61461000Y49346500D03*
D35*
X31061000Y84046500D03*
X31061000Y81546500D03*
D12*
X32961000Y80946500D03*
X34561000Y80946500D03*
X59761000Y40346500D03*
X61361000Y40346500D03*
X11461000Y10971500D03*
X9861000Y10971500D03*
X36836000Y54596500D03*
X38436000Y54596500D03*
X36861000Y52946500D03*
X38461000Y52946500D03*
D33*
X21261000Y86646500D03*
X18461000Y86646500D03*
D32*
X49161000Y16546500D03*
X49161000Y18121500D03*
D34*
X39161000Y89146500D03*
X39161000Y86346500D03*
D32*
X56261000Y16571500D03*
X56261000Y18146500D03*
X52961000Y41859000D03*
X52961000Y43434000D03*
D14*
X89611000Y77546500D03*
X91186000Y77546500D03*
D32*
X92361000Y85046500D03*
X92361000Y83471500D03*
D14*
X93823500Y86796500D03*
X95398500Y86796500D03*
X93073500Y73046500D03*
X94648500Y73046500D03*
D32*
X92361000Y81296500D03*
X92361000Y79721500D03*
D14*
X89573500Y86796500D03*
X91148500Y86796500D03*
D32*
X73111000Y80796500D03*
X73111000Y82371500D03*
X90611000Y81334000D03*
X90611000Y79759000D03*
D18*
G36*
X71806671Y71827470D02*
G01*
X71887777Y71773277D01*
X71941970Y71692171D01*
X71961000Y71596500D01*
X71961000Y70496500D01*
X71941970Y70400829D01*
X71887777Y70319723D01*
X71806671Y70265530D01*
X71711000Y70246500D01*
X68711000Y70246500D01*
X68615329Y70265530D01*
X68534223Y70319723D01*
X68480030Y70400829D01*
X68461000Y70496500D01*
X68461000Y71596500D01*
X68480030Y71692171D01*
X68534223Y71773277D01*
X68615329Y71827470D01*
X68711000Y71846500D01*
X71711000Y71846500D01*
X71806671Y71827470D01*
X71806671Y71827470D01*
G37*
D19*
X70211000Y71046500D03*
D18*
G36*
X77206671Y71827470D02*
G01*
X77287777Y71773277D01*
X77341970Y71692171D01*
X77361000Y71596500D01*
X77361000Y70496500D01*
X77341970Y70400829D01*
X77287777Y70319723D01*
X77206671Y70265530D01*
X77111000Y70246500D01*
X74111000Y70246500D01*
X74015329Y70265530D01*
X73934223Y70319723D01*
X73880030Y70400829D01*
X73861000Y70496500D01*
X73861000Y71596500D01*
X73880030Y71692171D01*
X73934223Y71773277D01*
X74015329Y71827470D01*
X74111000Y71846500D01*
X77111000Y71846500D01*
X77206671Y71827470D01*
X77206671Y71827470D01*
G37*
D19*
X75611000Y71046500D03*
D33*
X75261000Y88546500D03*
X72461000Y88546500D03*
X75361000Y75796500D03*
X72561000Y75796500D03*
D32*
X46061000Y58046500D03*
X46061000Y59621500D03*
X46061000Y50946500D03*
X46061000Y52521500D03*
X61761000Y85646500D03*
X61761000Y87221500D03*
D14*
X58736000Y89046500D03*
X57161000Y89046500D03*
D32*
X52261000Y91721500D03*
X52261000Y93296500D03*
X65561000Y91459000D03*
X65561000Y93034000D03*
D14*
X65336000Y95946500D03*
X63761000Y95946500D03*
D32*
X52561000Y85446500D03*
X52561000Y87021500D03*
D14*
X58536000Y69046500D03*
X56961000Y69046500D03*
X58286000Y86546500D03*
X59861000Y86546500D03*
D18*
G36*
X40856671Y71927470D02*
G01*
X40937777Y71873277D01*
X40991970Y71792171D01*
X41011000Y71696500D01*
X41011000Y70596500D01*
X40991970Y70500829D01*
X40937777Y70419723D01*
X40856671Y70365530D01*
X40761000Y70346500D01*
X37761000Y70346500D01*
X37665329Y70365530D01*
X37584223Y70419723D01*
X37530030Y70500829D01*
X37511000Y70596500D01*
X37511000Y71696500D01*
X37530030Y71792171D01*
X37584223Y71873277D01*
X37665329Y71927470D01*
X37761000Y71946500D01*
X40761000Y71946500D01*
X40856671Y71927470D01*
X40856671Y71927470D01*
G37*
D19*
X39261000Y71146500D03*
D18*
G36*
X46256671Y71927470D02*
G01*
X46337777Y71873277D01*
X46391970Y71792171D01*
X46411000Y71696500D01*
X46411000Y70596500D01*
X46391970Y70500829D01*
X46337777Y70419723D01*
X46256671Y70365530D01*
X46161000Y70346500D01*
X43161000Y70346500D01*
X43065329Y70365530D01*
X42984223Y70419723D01*
X42930030Y70500829D01*
X42911000Y70596500D01*
X42911000Y71696500D01*
X42930030Y71792171D01*
X42984223Y71873277D01*
X43065329Y71927470D01*
X43161000Y71946500D01*
X46161000Y71946500D01*
X46256671Y71927470D01*
X46256671Y71927470D01*
G37*
D19*
X44661000Y71146500D03*
D34*
X63361000Y71646500D03*
X63361000Y68846500D03*
X51361000Y71546500D03*
X51361000Y68746500D03*
D32*
X52961000Y58071500D03*
X52961000Y59646500D03*
X52961000Y50946500D03*
X52961000Y52521500D03*
D14*
X89536000Y34046500D03*
X91111000Y34046500D03*
D32*
X91611000Y41371500D03*
X91611000Y39796500D03*
D14*
X93536000Y44221500D03*
X95111000Y44221500D03*
X93536000Y30796500D03*
X95111000Y30796500D03*
D32*
X91611000Y37296500D03*
X91611000Y35721500D03*
D14*
X89611000Y43046500D03*
X91186000Y43046500D03*
D32*
X73111000Y37296500D03*
X73111000Y38871500D03*
X90111000Y37371500D03*
X90111000Y35796500D03*
D18*
G36*
X71756671Y6827470D02*
G01*
X71837777Y6773277D01*
X71891970Y6692171D01*
X71911000Y6596500D01*
X71911000Y5496500D01*
X71891970Y5400829D01*
X71837777Y5319723D01*
X71756671Y5265530D01*
X71661000Y5246500D01*
X68661000Y5246500D01*
X68565329Y5265530D01*
X68484223Y5319723D01*
X68430030Y5400829D01*
X68411000Y5496500D01*
X68411000Y6596500D01*
X68430030Y6692171D01*
X68484223Y6773277D01*
X68565329Y6827470D01*
X68661000Y6846500D01*
X71661000Y6846500D01*
X71756671Y6827470D01*
X71756671Y6827470D01*
G37*
D19*
X70161000Y6046500D03*
D18*
G36*
X77156671Y6827470D02*
G01*
X77237777Y6773277D01*
X77291970Y6692171D01*
X77311000Y6596500D01*
X77311000Y5496500D01*
X77291970Y5400829D01*
X77237777Y5319723D01*
X77156671Y5265530D01*
X77061000Y5246500D01*
X74061000Y5246500D01*
X73965329Y5265530D01*
X73884223Y5319723D01*
X73830030Y5400829D01*
X73811000Y5496500D01*
X73811000Y6596500D01*
X73830030Y6692171D01*
X73884223Y6773277D01*
X73965329Y6827470D01*
X74061000Y6846500D01*
X77061000Y6846500D01*
X77156671Y6827470D01*
X77156671Y6827470D01*
G37*
D19*
X75561000Y6046500D03*
D33*
X75111000Y44246500D03*
X72311000Y44246500D03*
X75111000Y32296500D03*
X72311000Y32296500D03*
D32*
X59861000Y58046500D03*
X59861000Y59621500D03*
X59861000Y50959000D03*
X59861000Y52534000D03*
D14*
X89611000Y11796500D03*
X91186000Y11796500D03*
D32*
X91611000Y20046500D03*
X91611000Y18471500D03*
D14*
X93536000Y22796500D03*
X95111000Y22796500D03*
X93573500Y9296500D03*
X95148500Y9296500D03*
D32*
X91611000Y15871500D03*
X91611000Y14296500D03*
D14*
X89611000Y21796500D03*
X91186000Y21796500D03*
D32*
X73611000Y15796500D03*
X73611000Y17371500D03*
X90111000Y15796500D03*
X90111000Y14221500D03*
D33*
X75111000Y10796500D03*
X72311000Y10796500D03*
X75111000Y22796500D03*
X72311000Y22796500D03*
D34*
X31061000Y89146500D03*
X31061000Y86346500D03*
D32*
X56261000Y22871500D03*
X56261000Y24446500D03*
X59761000Y41846500D03*
X59761000Y43421500D03*
D14*
X89561000Y55346500D03*
X91136000Y55346500D03*
D32*
X92361000Y62546500D03*
X92361000Y60971500D03*
D14*
X93111000Y66296500D03*
X94686000Y66296500D03*
X93361000Y52296500D03*
X94936000Y52296500D03*
D32*
X91861000Y59046500D03*
X91861000Y57471500D03*
D14*
X89561000Y64346500D03*
X91136000Y64346500D03*
D32*
X73361000Y58759000D03*
X73361000Y60334000D03*
X90161000Y59121500D03*
X90161000Y57546500D03*
D18*
G36*
X71756671Y49727470D02*
G01*
X71837777Y49673277D01*
X71891970Y49592171D01*
X71911000Y49496500D01*
X71911000Y48396500D01*
X71891970Y48300829D01*
X71837777Y48219723D01*
X71756671Y48165530D01*
X71661000Y48146500D01*
X68661000Y48146500D01*
X68565329Y48165530D01*
X68484223Y48219723D01*
X68430030Y48300829D01*
X68411000Y48396500D01*
X68411000Y49496500D01*
X68430030Y49592171D01*
X68484223Y49673277D01*
X68565329Y49727470D01*
X68661000Y49746500D01*
X71661000Y49746500D01*
X71756671Y49727470D01*
X71756671Y49727470D01*
G37*
D19*
X70161000Y48946500D03*
D18*
G36*
X77156671Y49727470D02*
G01*
X77237777Y49673277D01*
X77291970Y49592171D01*
X77311000Y49496500D01*
X77311000Y48396500D01*
X77291970Y48300829D01*
X77237777Y48219723D01*
X77156671Y48165530D01*
X77061000Y48146500D01*
X74061000Y48146500D01*
X73965329Y48165530D01*
X73884223Y48219723D01*
X73830030Y48300829D01*
X73811000Y48396500D01*
X73811000Y49496500D01*
X73830030Y49592171D01*
X73884223Y49673277D01*
X73965329Y49727470D01*
X74061000Y49746500D01*
X77061000Y49746500D01*
X77156671Y49727470D01*
X77156671Y49727470D01*
G37*
D19*
X75561000Y48946500D03*
D33*
X75361000Y53746500D03*
X72561000Y53746500D03*
X75361000Y66146500D03*
X72561000Y66146500D03*
D14*
X45261000Y35746500D03*
X43686000Y35746500D03*
X45248500Y37246500D03*
X43673500Y37246500D03*
X37336000Y50546500D03*
X35761000Y50546500D03*
X37336000Y49046500D03*
X35761000Y49046500D03*
D32*
X7461000Y46521500D03*
X7461000Y44946500D03*
D14*
X57648500Y35646500D03*
X56073500Y35646500D03*
D32*
X10961000Y87746500D03*
X10961000Y86171500D03*
D18*
G36*
X4256671Y88427470D02*
G01*
X4337777Y88373277D01*
X4391970Y88292171D01*
X4411000Y88196500D01*
X4411000Y87096500D01*
X4391970Y87000829D01*
X4337777Y86919723D01*
X4256671Y86865530D01*
X4161000Y86846500D01*
X1161000Y86846500D01*
X1065329Y86865530D01*
X984223Y86919723D01*
X930030Y87000829D01*
X911000Y87096500D01*
X911000Y88196500D01*
X930030Y88292171D01*
X984223Y88373277D01*
X1065329Y88427470D01*
X1161000Y88446500D01*
X4161000Y88446500D01*
X4256671Y88427470D01*
X4256671Y88427470D01*
G37*
D19*
X2661000Y87646500D03*
D18*
G36*
X9656671Y88427470D02*
G01*
X9737777Y88373277D01*
X9791970Y88292171D01*
X9811000Y88196500D01*
X9811000Y87096500D01*
X9791970Y87000829D01*
X9737777Y86919723D01*
X9656671Y86865530D01*
X9561000Y86846500D01*
X6561000Y86846500D01*
X6465329Y86865530D01*
X6384223Y86919723D01*
X6330030Y87000829D01*
X6311000Y87096500D01*
X6311000Y88196500D01*
X6330030Y88292171D01*
X6384223Y88373277D01*
X6465329Y88427470D01*
X6561000Y88446500D01*
X9561000Y88446500D01*
X9656671Y88427470D01*
X9656671Y88427470D01*
G37*
D19*
X8061000Y87646500D03*
D14*
X62148500Y36846500D03*
X60573500Y36846500D03*
D36*
X97336000Y97296500D03*
D37*
X97336000Y97296500D03*
D36*
X97336000Y1746500D03*
D37*
X97336000Y1746500D03*
D36*
X1786000Y97296500D03*
D37*
X1786000Y97296500D03*
D36*
X1786000Y1746500D03*
D37*
X1786000Y1746500D03*
M02*
