%TF.GenerationSoftware,KiCad,Pcbnew,6.0.0-rc1-unknown-4cf4600~66~ubuntu18.10.1*%
%TF.CreationDate,2019-01-21T14:15:00-08:00*%
%TF.ProjectId,PrntrBoardV1,50726e74-7242-46f6-9172-6456312e6b69,rev?*%
%TF.SameCoordinates,PX1303eb8PY7093f24*%
%TF.FileFunction,Legend,Top*%
%TF.FilePolarity,Positive*%
%FSLAX46Y46*%
G04 Gerber Fmt 4.6, Leading zero omitted, Abs format (unit mm)*
G04 Created by KiCad (PCBNEW 6.0.0-rc1-unknown-4cf4600~66~ubuntu18.10.1) date Mon 21 Jan 2019 02:15:00 PM PST*
%MOMM*%
%LPD*%
G04 APERTURE LIST*
%ADD10C,0.150000*%
%ADD11C,0.250000*%
%ADD12C,0.200000*%
%ADD13C,0.010000*%
%ADD14C,0.120000*%
%ADD15C,0.100000*%
%ADD16C,0.152400*%
G04 APERTURE END LIST*
D10*
X60968142Y7600072D02*
X60718142Y7600072D01*
X60718142Y7207215D02*
X60718142Y7957215D01*
X61075285Y7957215D01*
X61682428Y7207215D02*
X61682428Y7600072D01*
X61646714Y7671500D01*
X61575285Y7707215D01*
X61432428Y7707215D01*
X61361000Y7671500D01*
X61682428Y7242929D02*
X61611000Y7207215D01*
X61432428Y7207215D01*
X61361000Y7242929D01*
X61325285Y7314358D01*
X61325285Y7385786D01*
X61361000Y7457215D01*
X61432428Y7492929D01*
X61611000Y7492929D01*
X61682428Y7528643D01*
X62039571Y7707215D02*
X62039571Y7207215D01*
X62039571Y7635786D02*
X62075285Y7671500D01*
X62146714Y7707215D01*
X62253857Y7707215D01*
X62325285Y7671500D01*
X62361000Y7600072D01*
X62361000Y7207215D01*
X63218142Y7707215D02*
X63396714Y7207215D01*
X63575285Y7707215D01*
X63968142Y7207215D02*
X63896714Y7242929D01*
X63861000Y7278643D01*
X63825285Y7350072D01*
X63825285Y7564358D01*
X63861000Y7635786D01*
X63896714Y7671500D01*
X63968142Y7707215D01*
X64075285Y7707215D01*
X64146714Y7671500D01*
X64182428Y7635786D01*
X64218142Y7564358D01*
X64218142Y7350072D01*
X64182428Y7278643D01*
X64146714Y7242929D01*
X64075285Y7207215D01*
X63968142Y7207215D01*
X64646714Y7207215D02*
X64575285Y7242929D01*
X64539571Y7314358D01*
X64539571Y7957215D01*
X64825285Y7707215D02*
X65111000Y7707215D01*
X64932428Y7957215D02*
X64932428Y7314358D01*
X64968142Y7242929D01*
X65039571Y7207215D01*
X65111000Y7207215D01*
X65682428Y7207215D02*
X65682428Y7600072D01*
X65646714Y7671500D01*
X65575285Y7707215D01*
X65432428Y7707215D01*
X65361000Y7671500D01*
X65682428Y7242929D02*
X65611000Y7207215D01*
X65432428Y7207215D01*
X65361000Y7242929D01*
X65325285Y7314358D01*
X65325285Y7385786D01*
X65361000Y7457215D01*
X65432428Y7492929D01*
X65611000Y7492929D01*
X65682428Y7528643D01*
X66361000Y7707215D02*
X66361000Y7100072D01*
X66325285Y7028643D01*
X66289571Y6992929D01*
X66218142Y6957215D01*
X66111000Y6957215D01*
X66039571Y6992929D01*
X66361000Y7242929D02*
X66289571Y7207215D01*
X66146714Y7207215D01*
X66075285Y7242929D01*
X66039571Y7278643D01*
X66003857Y7350072D01*
X66003857Y7564358D01*
X66039571Y7635786D01*
X66075285Y7671500D01*
X66146714Y7707215D01*
X66289571Y7707215D01*
X66361000Y7671500D01*
X67003857Y7242929D02*
X66932428Y7207215D01*
X66789571Y7207215D01*
X66718142Y7242929D01*
X66682428Y7314358D01*
X66682428Y7600072D01*
X66718142Y7671500D01*
X66789571Y7707215D01*
X66932428Y7707215D01*
X67003857Y7671500D01*
X67039571Y7600072D01*
X67039571Y7528643D01*
X66682428Y7457215D01*
D11*
X13175285Y70267929D02*
X13175285Y71767929D01*
X13746714Y71767929D01*
X13889571Y71696500D01*
X13961000Y71625072D01*
X14032428Y71482215D01*
X14032428Y71267929D01*
X13961000Y71125072D01*
X13889571Y71053643D01*
X13746714Y70982215D01*
X13175285Y70982215D01*
X14675285Y70267929D02*
X14675285Y71267929D01*
X14675285Y70982215D02*
X14746714Y71125072D01*
X14818142Y71196500D01*
X14961000Y71267929D01*
X15103857Y71267929D01*
X15603857Y71267929D02*
X15603857Y70267929D01*
X15603857Y71125072D02*
X15675285Y71196500D01*
X15818142Y71267929D01*
X16032428Y71267929D01*
X16175285Y71196500D01*
X16246714Y71053643D01*
X16246714Y70267929D01*
X16746714Y71267929D02*
X17318142Y71267929D01*
X16961000Y71767929D02*
X16961000Y70482215D01*
X17032428Y70339358D01*
X17175285Y70267929D01*
X17318142Y70267929D01*
X17818142Y70267929D02*
X17818142Y71267929D01*
X17818142Y70982215D02*
X17889571Y71125072D01*
X17961000Y71196500D01*
X18103857Y71267929D01*
X18246714Y71267929D01*
X19246714Y71053643D02*
X19461000Y70982215D01*
X19532428Y70910786D01*
X19603857Y70767929D01*
X19603857Y70553643D01*
X19532428Y70410786D01*
X19461000Y70339358D01*
X19318142Y70267929D01*
X18746714Y70267929D01*
X18746714Y71767929D01*
X19246714Y71767929D01*
X19389571Y71696500D01*
X19461000Y71625072D01*
X19532428Y71482215D01*
X19532428Y71339358D01*
X19461000Y71196500D01*
X19389571Y71125072D01*
X19246714Y71053643D01*
X18746714Y71053643D01*
X20461000Y70267929D02*
X20318142Y70339358D01*
X20246714Y70410786D01*
X20175285Y70553643D01*
X20175285Y70982215D01*
X20246714Y71125072D01*
X20318142Y71196500D01*
X20461000Y71267929D01*
X20675285Y71267929D01*
X20818142Y71196500D01*
X20889571Y71125072D01*
X20961000Y70982215D01*
X20961000Y70553643D01*
X20889571Y70410786D01*
X20818142Y70339358D01*
X20675285Y70267929D01*
X20461000Y70267929D01*
X22246714Y70267929D02*
X22246714Y71053643D01*
X22175285Y71196500D01*
X22032428Y71267929D01*
X21746714Y71267929D01*
X21603857Y71196500D01*
X22246714Y70339358D02*
X22103857Y70267929D01*
X21746714Y70267929D01*
X21603857Y70339358D01*
X21532428Y70482215D01*
X21532428Y70625072D01*
X21603857Y70767929D01*
X21746714Y70839358D01*
X22103857Y70839358D01*
X22246714Y70910786D01*
X22961000Y70267929D02*
X22961000Y71267929D01*
X22961000Y70982215D02*
X23032428Y71125072D01*
X23103857Y71196500D01*
X23246714Y71267929D01*
X23389571Y71267929D01*
X24532428Y70267929D02*
X24532428Y71767929D01*
X24532428Y70339358D02*
X24389571Y70267929D01*
X24103857Y70267929D01*
X23961000Y70339358D01*
X23889571Y70410786D01*
X23818142Y70553643D01*
X23818142Y70982215D01*
X23889571Y71125072D01*
X23961000Y71196500D01*
X24103857Y71267929D01*
X24389571Y71267929D01*
X24532428Y71196500D01*
X26175285Y71767929D02*
X27032428Y71767929D01*
X26603857Y70267929D02*
X26603857Y71767929D01*
X27532428Y70267929D02*
X27532428Y71767929D01*
X28032428Y70696500D01*
X28532428Y71767929D01*
X28532428Y70267929D01*
X30103857Y70410786D02*
X30032428Y70339358D01*
X29818142Y70267929D01*
X29675285Y70267929D01*
X29461000Y70339358D01*
X29318142Y70482215D01*
X29246714Y70625072D01*
X29175285Y70910786D01*
X29175285Y71125072D01*
X29246714Y71410786D01*
X29318142Y71553643D01*
X29461000Y71696500D01*
X29675285Y71767929D01*
X29818142Y71767929D01*
X30032428Y71696500D01*
X30103857Y71625072D01*
X30675285Y71625072D02*
X30746714Y71696500D01*
X30889571Y71767929D01*
X31246714Y71767929D01*
X31389571Y71696500D01*
X31461000Y71625072D01*
X31532428Y71482215D01*
X31532428Y71339358D01*
X31461000Y71125072D01*
X30603857Y70267929D01*
X31532428Y70267929D01*
X32818142Y71767929D02*
X32532428Y71767929D01*
X32389571Y71696500D01*
X32318142Y71625072D01*
X32175285Y71410786D01*
X32103857Y71125072D01*
X32103857Y70553643D01*
X32175285Y70410786D01*
X32246714Y70339358D01*
X32389571Y70267929D01*
X32675285Y70267929D01*
X32818142Y70339358D01*
X32889571Y70410786D01*
X32961000Y70553643D01*
X32961000Y70910786D01*
X32889571Y71053643D01*
X32818142Y71125072D01*
X32675285Y71196500D01*
X32389571Y71196500D01*
X32246714Y71125072D01*
X32175285Y71053643D01*
X32103857Y70910786D01*
X34246714Y71767929D02*
X33961000Y71767929D01*
X33818142Y71696500D01*
X33746714Y71625072D01*
X33603857Y71410786D01*
X33532428Y71125072D01*
X33532428Y70553643D01*
X33603857Y70410786D01*
X33675285Y70339358D01*
X33818142Y70267929D01*
X34103857Y70267929D01*
X34246714Y70339358D01*
X34318142Y70410786D01*
X34389571Y70553643D01*
X34389571Y70910786D01*
X34318142Y71053643D01*
X34246714Y71125072D01*
X34103857Y71196500D01*
X33818142Y71196500D01*
X33675285Y71125072D01*
X33603857Y71053643D01*
X33532428Y70910786D01*
X35318142Y71767929D02*
X35461000Y71767929D01*
X35603857Y71696500D01*
X35675285Y71625072D01*
X35746714Y71482215D01*
X35818142Y71196500D01*
X35818142Y70839358D01*
X35746714Y70553643D01*
X35675285Y70410786D01*
X35603857Y70339358D01*
X35461000Y70267929D01*
X35318142Y70267929D01*
X35175285Y70339358D01*
X35103857Y70410786D01*
X35032428Y70553643D01*
X34961000Y70839358D01*
X34961000Y71196500D01*
X35032428Y71482215D01*
X35103857Y71625072D01*
X35175285Y71696500D01*
X35318142Y71767929D01*
D10*
X13246714Y68107215D02*
X13246714Y68857215D01*
X13568142Y68107215D02*
X13568142Y68500072D01*
X13532428Y68571500D01*
X13461000Y68607215D01*
X13353857Y68607215D01*
X13282428Y68571500D01*
X13246714Y68535786D01*
X13818142Y68607215D02*
X14103857Y68607215D01*
X13925285Y68857215D02*
X13925285Y68214358D01*
X13961000Y68142929D01*
X14032428Y68107215D01*
X14103857Y68107215D01*
X14246714Y68607215D02*
X14532428Y68607215D01*
X14353857Y68857215D02*
X14353857Y68214358D01*
X14389571Y68142929D01*
X14461000Y68107215D01*
X14532428Y68107215D01*
X14782428Y68607215D02*
X14782428Y67857215D01*
X14782428Y68571500D02*
X14853857Y68607215D01*
X14996714Y68607215D01*
X15068142Y68571500D01*
X15103857Y68535786D01*
X15139571Y68464358D01*
X15139571Y68250072D01*
X15103857Y68178643D01*
X15068142Y68142929D01*
X14996714Y68107215D01*
X14853857Y68107215D01*
X14782428Y68142929D01*
X15461000Y68178643D02*
X15496714Y68142929D01*
X15461000Y68107215D01*
X15425285Y68142929D01*
X15461000Y68178643D01*
X15461000Y68107215D01*
X15461000Y68571500D02*
X15496714Y68535786D01*
X15461000Y68500072D01*
X15425285Y68535786D01*
X15461000Y68571500D01*
X15461000Y68500072D01*
X16353857Y68892929D02*
X15711000Y67928643D01*
X17139571Y68892929D02*
X16496714Y67928643D01*
X17389571Y68107215D02*
X17389571Y68857215D01*
X17389571Y68571500D02*
X17461000Y68607215D01*
X17603857Y68607215D01*
X17675285Y68571500D01*
X17711000Y68535786D01*
X17746714Y68464358D01*
X17746714Y68250072D01*
X17711000Y68178643D01*
X17675285Y68142929D01*
X17603857Y68107215D01*
X17461000Y68107215D01*
X17389571Y68142929D01*
X18175285Y68107215D02*
X18103857Y68142929D01*
X18068142Y68214358D01*
X18068142Y68857215D01*
X18568142Y68107215D02*
X18496714Y68142929D01*
X18461000Y68178643D01*
X18425285Y68250072D01*
X18425285Y68464358D01*
X18461000Y68535786D01*
X18496714Y68571500D01*
X18568142Y68607215D01*
X18675285Y68607215D01*
X18746714Y68571500D01*
X18782428Y68535786D01*
X18818142Y68464358D01*
X18818142Y68250072D01*
X18782428Y68178643D01*
X18746714Y68142929D01*
X18675285Y68107215D01*
X18568142Y68107215D01*
X19461000Y68607215D02*
X19461000Y68000072D01*
X19425285Y67928643D01*
X19389571Y67892929D01*
X19318142Y67857215D01*
X19211000Y67857215D01*
X19139571Y67892929D01*
X19461000Y68142929D02*
X19389571Y68107215D01*
X19246714Y68107215D01*
X19175285Y68142929D01*
X19139571Y68178643D01*
X19103857Y68250072D01*
X19103857Y68464358D01*
X19139571Y68535786D01*
X19175285Y68571500D01*
X19246714Y68607215D01*
X19389571Y68607215D01*
X19461000Y68571500D01*
X19818142Y68178643D02*
X19853857Y68142929D01*
X19818142Y68107215D01*
X19782428Y68142929D01*
X19818142Y68178643D01*
X19818142Y68107215D01*
X20175285Y68607215D02*
X20175285Y67857215D01*
X20175285Y68571500D02*
X20246714Y68607215D01*
X20389571Y68607215D01*
X20461000Y68571500D01*
X20496714Y68535786D01*
X20532428Y68464358D01*
X20532428Y68250072D01*
X20496714Y68178643D01*
X20461000Y68142929D01*
X20389571Y68107215D01*
X20246714Y68107215D01*
X20175285Y68142929D01*
X21175285Y68142929D02*
X21103857Y68107215D01*
X20961000Y68107215D01*
X20889571Y68142929D01*
X20853857Y68178643D01*
X20818142Y68250072D01*
X20818142Y68464358D01*
X20853857Y68535786D01*
X20889571Y68571500D01*
X20961000Y68607215D01*
X21103857Y68607215D01*
X21175285Y68571500D01*
X21496714Y68107215D02*
X21496714Y68857215D01*
X21496714Y68571500D02*
X21568142Y68607215D01*
X21711000Y68607215D01*
X21782428Y68571500D01*
X21818142Y68535786D01*
X21853857Y68464358D01*
X21853857Y68250072D01*
X21818142Y68178643D01*
X21782428Y68142929D01*
X21711000Y68107215D01*
X21568142Y68107215D01*
X21496714Y68142929D01*
X22103857Y68107215D02*
X22496714Y68607215D01*
X22103857Y68607215D02*
X22496714Y68107215D01*
X22782428Y68607215D02*
X22782428Y67857215D01*
X22782428Y68571500D02*
X22853857Y68607215D01*
X22996714Y68607215D01*
X23068142Y68571500D01*
X23103857Y68535786D01*
X23139571Y68464358D01*
X23139571Y68250072D01*
X23103857Y68178643D01*
X23068142Y68142929D01*
X22996714Y68107215D01*
X22853857Y68107215D01*
X22782428Y68142929D01*
X23461000Y68107215D02*
X23461000Y68607215D01*
X23461000Y68464358D02*
X23496714Y68535786D01*
X23532428Y68571500D01*
X23603857Y68607215D01*
X23675285Y68607215D01*
X23818142Y68607215D02*
X24103857Y68607215D01*
X23925285Y68857215D02*
X23925285Y68214358D01*
X23961000Y68142929D01*
X24032428Y68107215D01*
X24103857Y68107215D01*
X24353857Y68178643D02*
X24389571Y68142929D01*
X24353857Y68107215D01*
X24318142Y68142929D01*
X24353857Y68178643D01*
X24353857Y68107215D01*
X25032428Y68142929D02*
X24961000Y68107215D01*
X24818142Y68107215D01*
X24746714Y68142929D01*
X24711000Y68178643D01*
X24675285Y68250072D01*
X24675285Y68464358D01*
X24711000Y68535786D01*
X24746714Y68571500D01*
X24818142Y68607215D01*
X24961000Y68607215D01*
X25032428Y68571500D01*
X25461000Y68107215D02*
X25389571Y68142929D01*
X25353857Y68178643D01*
X25318142Y68250072D01*
X25318142Y68464358D01*
X25353857Y68535786D01*
X25389571Y68571500D01*
X25461000Y68607215D01*
X25568142Y68607215D01*
X25639571Y68571500D01*
X25675285Y68535786D01*
X25711000Y68464358D01*
X25711000Y68250072D01*
X25675285Y68178643D01*
X25639571Y68142929D01*
X25568142Y68107215D01*
X25461000Y68107215D01*
X26032428Y68107215D02*
X26032428Y68607215D01*
X26032428Y68535786D02*
X26068142Y68571500D01*
X26139571Y68607215D01*
X26246714Y68607215D01*
X26318142Y68571500D01*
X26353857Y68500072D01*
X26353857Y68107215D01*
X26353857Y68500072D02*
X26389571Y68571500D01*
X26461000Y68607215D01*
X26568142Y68607215D01*
X26639571Y68571500D01*
X26675285Y68500072D01*
X26675285Y68107215D01*
D12*
X56270523Y45017929D02*
X56603857Y45017929D01*
X56746714Y44494120D02*
X56270523Y44494120D01*
X56270523Y45494120D01*
X56746714Y45494120D01*
X57699095Y44494120D02*
X57127666Y44494120D01*
X57413380Y44494120D02*
X57413380Y45494120D01*
X57318142Y45351262D01*
X57222904Y45256024D01*
X57127666Y45208405D01*
X49670523Y45017929D02*
X50003857Y45017929D01*
X50146714Y44494120D02*
X49670523Y44494120D01*
X49670523Y45494120D01*
X50146714Y45494120D01*
X50527666Y45398881D02*
X50575285Y45446500D01*
X50670523Y45494120D01*
X50908619Y45494120D01*
X51003857Y45446500D01*
X51051476Y45398881D01*
X51099095Y45303643D01*
X51099095Y45208405D01*
X51051476Y45065548D01*
X50480047Y44494120D01*
X51099095Y44494120D01*
X42218142Y41867929D02*
X41884809Y41867929D01*
X41884809Y41344120D02*
X41884809Y42344120D01*
X42361000Y42344120D01*
X42741952Y41344120D02*
X42741952Y42010786D01*
X42741952Y42344120D02*
X42694333Y42296500D01*
X42741952Y42248881D01*
X42789571Y42296500D01*
X42741952Y42344120D01*
X42741952Y42248881D01*
X43361000Y41344120D02*
X43265761Y41391739D01*
X43218142Y41486977D01*
X43218142Y42344120D01*
X44170523Y41344120D02*
X44170523Y41867929D01*
X44122904Y41963167D01*
X44027666Y42010786D01*
X43837190Y42010786D01*
X43741952Y41963167D01*
X44170523Y41391739D02*
X44075285Y41344120D01*
X43837190Y41344120D01*
X43741952Y41391739D01*
X43694333Y41486977D01*
X43694333Y41582215D01*
X43741952Y41677453D01*
X43837190Y41725072D01*
X44075285Y41725072D01*
X44170523Y41772691D01*
X44646714Y41344120D02*
X44646714Y42010786D01*
X44646714Y41915548D02*
X44694333Y41963167D01*
X44789571Y42010786D01*
X44932428Y42010786D01*
X45027666Y41963167D01*
X45075285Y41867929D01*
X45075285Y41344120D01*
X45075285Y41867929D02*
X45122904Y41963167D01*
X45218142Y42010786D01*
X45361000Y42010786D01*
X45456238Y41963167D01*
X45503857Y41867929D01*
X45503857Y41344120D01*
X46361000Y41391739D02*
X46265761Y41344120D01*
X46075285Y41344120D01*
X45980047Y41391739D01*
X45932428Y41486977D01*
X45932428Y41867929D01*
X45980047Y41963167D01*
X46075285Y42010786D01*
X46265761Y42010786D01*
X46361000Y41963167D01*
X46408619Y41867929D01*
X46408619Y41772691D01*
X45932428Y41677453D01*
X46837190Y42010786D02*
X46837190Y41344120D01*
X46837190Y41915548D02*
X46884809Y41963167D01*
X46980047Y42010786D01*
X47122904Y42010786D01*
X47218142Y41963167D01*
X47265761Y41867929D01*
X47265761Y41344120D01*
X47599095Y42010786D02*
X47980047Y42010786D01*
X47741952Y42344120D02*
X47741952Y41486977D01*
X47789571Y41391739D01*
X47884809Y41344120D01*
X47980047Y41344120D01*
X42146714Y39691739D02*
X42051476Y39644120D01*
X41861000Y39644120D01*
X41765761Y39691739D01*
X41718142Y39786977D01*
X41718142Y40167929D01*
X41765761Y40263167D01*
X41861000Y40310786D01*
X42051476Y40310786D01*
X42146714Y40263167D01*
X42194333Y40167929D01*
X42194333Y40072691D01*
X41718142Y39977453D01*
X42622904Y40310786D02*
X42622904Y39644120D01*
X42622904Y40215548D02*
X42670523Y40263167D01*
X42765761Y40310786D01*
X42908619Y40310786D01*
X43003857Y40263167D01*
X43051476Y40167929D01*
X43051476Y39644120D01*
X43956238Y39644120D02*
X43956238Y40644120D01*
X43956238Y39691739D02*
X43861000Y39644120D01*
X43670523Y39644120D01*
X43575285Y39691739D01*
X43527666Y39739358D01*
X43480047Y39834596D01*
X43480047Y40120310D01*
X43527666Y40215548D01*
X43575285Y40263167D01*
X43670523Y40310786D01*
X43861000Y40310786D01*
X43956238Y40263167D01*
X44384809Y39691739D02*
X44480047Y39644120D01*
X44670523Y39644120D01*
X44765761Y39691739D01*
X44813380Y39786977D01*
X44813380Y39834596D01*
X44765761Y39929834D01*
X44670523Y39977453D01*
X44527666Y39977453D01*
X44432428Y40025072D01*
X44384809Y40120310D01*
X44384809Y40167929D01*
X44432428Y40263167D01*
X44527666Y40310786D01*
X44670523Y40310786D01*
X44765761Y40263167D01*
X45099095Y40310786D02*
X45480047Y40310786D01*
X45241952Y40644120D02*
X45241952Y39786977D01*
X45289571Y39691739D01*
X45384809Y39644120D01*
X45480047Y39644120D01*
X45956238Y39644120D02*
X45861000Y39691739D01*
X45813380Y39739358D01*
X45765761Y39834596D01*
X45765761Y40120310D01*
X45813380Y40215548D01*
X45861000Y40263167D01*
X45956238Y40310786D01*
X46099095Y40310786D01*
X46194333Y40263167D01*
X46241952Y40215548D01*
X46289571Y40120310D01*
X46289571Y39834596D01*
X46241952Y39739358D01*
X46194333Y39691739D01*
X46099095Y39644120D01*
X45956238Y39644120D01*
X46718142Y40310786D02*
X46718142Y39310786D01*
X46718142Y40263167D02*
X46813380Y40310786D01*
X47003857Y40310786D01*
X47099095Y40263167D01*
X47146714Y40215548D01*
X47194333Y40120310D01*
X47194333Y39834596D01*
X47146714Y39739358D01*
X47099095Y39691739D01*
X47003857Y39644120D01*
X46813380Y39644120D01*
X46718142Y39691739D01*
X47575285Y39691739D02*
X47670523Y39644120D01*
X47861000Y39644120D01*
X47956238Y39691739D01*
X48003857Y39786977D01*
X48003857Y39834596D01*
X47956238Y39929834D01*
X47861000Y39977453D01*
X47718142Y39977453D01*
X47622904Y40025072D01*
X47575285Y40120310D01*
X47575285Y40167929D01*
X47622904Y40263167D01*
X47718142Y40310786D01*
X47861000Y40310786D01*
X47956238Y40263167D01*
D10*
X16257428Y19494715D02*
X16686000Y19494715D01*
X16471714Y18744715D02*
X16471714Y19494715D01*
X16936000Y18744715D02*
X16936000Y19494715D01*
X17257428Y18744715D02*
X17257428Y19137572D01*
X17221714Y19209000D01*
X17150285Y19244715D01*
X17043142Y19244715D01*
X16971714Y19209000D01*
X16936000Y19173286D01*
X17900285Y18780429D02*
X17828857Y18744715D01*
X17686000Y18744715D01*
X17614571Y18780429D01*
X17578857Y18851858D01*
X17578857Y19137572D01*
X17614571Y19209000D01*
X17686000Y19244715D01*
X17828857Y19244715D01*
X17900285Y19209000D01*
X17936000Y19137572D01*
X17936000Y19066143D01*
X17578857Y18994715D01*
X18257428Y18744715D02*
X18257428Y19244715D01*
X18257428Y19101858D02*
X18293142Y19173286D01*
X18328857Y19209000D01*
X18400285Y19244715D01*
X18471714Y19244715D01*
X18721714Y18744715D02*
X18721714Y19244715D01*
X18721714Y19173286D02*
X18757428Y19209000D01*
X18828857Y19244715D01*
X18936000Y19244715D01*
X19007428Y19209000D01*
X19043142Y19137572D01*
X19043142Y18744715D01*
X19043142Y19137572D02*
X19078857Y19209000D01*
X19150285Y19244715D01*
X19257428Y19244715D01*
X19328857Y19209000D01*
X19364571Y19137572D01*
X19364571Y18744715D01*
X19828857Y18744715D02*
X19757428Y18780429D01*
X19721714Y18816143D01*
X19686000Y18887572D01*
X19686000Y19101858D01*
X19721714Y19173286D01*
X19757428Y19209000D01*
X19828857Y19244715D01*
X19936000Y19244715D01*
X20007428Y19209000D01*
X20043142Y19173286D01*
X20078857Y19101858D01*
X20078857Y18887572D01*
X20043142Y18816143D01*
X20007428Y18780429D01*
X19936000Y18744715D01*
X19828857Y18744715D01*
X20721714Y18780429D02*
X20650285Y18744715D01*
X20507428Y18744715D01*
X20436000Y18780429D01*
X20400285Y18816143D01*
X20364571Y18887572D01*
X20364571Y19101858D01*
X20400285Y19173286D01*
X20436000Y19209000D01*
X20507428Y19244715D01*
X20650285Y19244715D01*
X20721714Y19209000D01*
X21150285Y18744715D02*
X21078857Y18780429D01*
X21043142Y18816143D01*
X21007428Y18887572D01*
X21007428Y19101858D01*
X21043142Y19173286D01*
X21078857Y19209000D01*
X21150285Y19244715D01*
X21257428Y19244715D01*
X21328857Y19209000D01*
X21364571Y19173286D01*
X21400285Y19101858D01*
X21400285Y18887572D01*
X21364571Y18816143D01*
X21328857Y18780429D01*
X21257428Y18744715D01*
X21150285Y18744715D01*
X22043142Y19244715D02*
X22043142Y18744715D01*
X21721714Y19244715D02*
X21721714Y18851858D01*
X21757428Y18780429D01*
X21828857Y18744715D01*
X21936000Y18744715D01*
X22007428Y18780429D01*
X22043142Y18816143D01*
X22400285Y19244715D02*
X22400285Y18494715D01*
X22400285Y19209000D02*
X22471714Y19244715D01*
X22614571Y19244715D01*
X22686000Y19209000D01*
X22721714Y19173286D01*
X22757428Y19101858D01*
X22757428Y18887572D01*
X22721714Y18816143D01*
X22686000Y18780429D01*
X22614571Y18744715D01*
X22471714Y18744715D01*
X22400285Y18780429D01*
X23186000Y18744715D02*
X23114571Y18780429D01*
X23078857Y18851858D01*
X23078857Y19494715D01*
X23757428Y18780429D02*
X23686000Y18744715D01*
X23543142Y18744715D01*
X23471714Y18780429D01*
X23436000Y18851858D01*
X23436000Y19137572D01*
X23471714Y19209000D01*
X23543142Y19244715D01*
X23686000Y19244715D01*
X23757428Y19209000D01*
X23793142Y19137572D01*
X23793142Y19066143D01*
X23436000Y18994715D01*
X18525285Y17469715D02*
X18525285Y17969715D01*
X18525285Y18219715D02*
X18489571Y18184000D01*
X18525285Y18148286D01*
X18561000Y18184000D01*
X18525285Y18219715D01*
X18525285Y18148286D01*
X18882428Y17969715D02*
X18882428Y17469715D01*
X18882428Y17898286D02*
X18918142Y17934000D01*
X18989571Y17969715D01*
X19096714Y17969715D01*
X19168142Y17934000D01*
X19203857Y17862572D01*
X19203857Y17469715D01*
X19561000Y17969715D02*
X19561000Y17219715D01*
X19561000Y17934000D02*
X19632428Y17969715D01*
X19775285Y17969715D01*
X19846714Y17934000D01*
X19882428Y17898286D01*
X19918142Y17826858D01*
X19918142Y17612572D01*
X19882428Y17541143D01*
X19846714Y17505429D01*
X19775285Y17469715D01*
X19632428Y17469715D01*
X19561000Y17505429D01*
X20561000Y17969715D02*
X20561000Y17469715D01*
X20239571Y17969715D02*
X20239571Y17576858D01*
X20275285Y17505429D01*
X20346714Y17469715D01*
X20453857Y17469715D01*
X20525285Y17505429D01*
X20561000Y17541143D01*
X20811000Y17969715D02*
X21096714Y17969715D01*
X20918142Y18219715D02*
X20918142Y17576858D01*
X20953857Y17505429D01*
X21025285Y17469715D01*
X21096714Y17469715D01*
X21311000Y17505429D02*
X21382428Y17469715D01*
X21525285Y17469715D01*
X21596714Y17505429D01*
X21632428Y17576858D01*
X21632428Y17612572D01*
X21596714Y17684000D01*
X21525285Y17719715D01*
X21418142Y17719715D01*
X21346714Y17755429D01*
X21311000Y17826858D01*
X21311000Y17862572D01*
X21346714Y17934000D01*
X21418142Y17969715D01*
X21525285Y17969715D01*
X21596714Y17934000D01*
X38861000Y35557215D02*
X38861000Y35378643D01*
X38682428Y35450072D02*
X38861000Y35378643D01*
X39039571Y35450072D01*
X38753857Y35235786D02*
X38861000Y35378643D01*
X38968142Y35235786D01*
X42000285Y30410786D02*
X42000285Y30053643D01*
X41250285Y30053643D01*
X41250285Y30553643D02*
X42000285Y30803643D01*
X41250285Y31053643D01*
X41928857Y31732215D02*
X41964571Y31696500D01*
X42000285Y31589358D01*
X42000285Y31517929D01*
X41964571Y31410786D01*
X41893142Y31339358D01*
X41821714Y31303643D01*
X41678857Y31267929D01*
X41571714Y31267929D01*
X41428857Y31303643D01*
X41357428Y31339358D01*
X41286000Y31410786D01*
X41250285Y31517929D01*
X41250285Y31589358D01*
X41286000Y31696500D01*
X41321714Y31732215D01*
X42000285Y32446500D02*
X42000285Y32017929D01*
X42000285Y32232215D02*
X41250285Y32232215D01*
X41357428Y32160786D01*
X41428857Y32089358D01*
X41464571Y32017929D01*
X41321714Y32732215D02*
X41286000Y32767929D01*
X41250285Y32839358D01*
X41250285Y33017929D01*
X41286000Y33089358D01*
X41321714Y33125072D01*
X41393142Y33160786D01*
X41464571Y33160786D01*
X41571714Y33125072D01*
X42000285Y32696500D01*
X42000285Y33160786D01*
X41250285Y33839358D02*
X41250285Y33482215D01*
X41607428Y33446500D01*
X41571714Y33482215D01*
X41536000Y33553643D01*
X41536000Y33732215D01*
X41571714Y33803643D01*
X41607428Y33839358D01*
X41678857Y33875072D01*
X41857428Y33875072D01*
X41928857Y33839358D01*
X41964571Y33803643D01*
X42000285Y33732215D01*
X42000285Y33553643D01*
X41964571Y33482215D01*
X41928857Y33446500D01*
X51261000Y35457215D02*
X51261000Y35278643D01*
X51082428Y35350072D02*
X51261000Y35278643D01*
X51439571Y35350072D01*
X51153857Y35135786D02*
X51261000Y35278643D01*
X51368142Y35135786D01*
X54400285Y31017929D02*
X54900285Y31017929D01*
X54114571Y30839358D02*
X54650285Y30660786D01*
X54650285Y31125072D01*
X54150285Y31553643D02*
X54150285Y31625072D01*
X54186000Y31696500D01*
X54221714Y31732215D01*
X54293142Y31767929D01*
X54436000Y31803643D01*
X54614571Y31803643D01*
X54757428Y31767929D01*
X54828857Y31732215D01*
X54864571Y31696500D01*
X54900285Y31625072D01*
X54900285Y31553643D01*
X54864571Y31482215D01*
X54828857Y31446500D01*
X54757428Y31410786D01*
X54614571Y31375072D01*
X54436000Y31375072D01*
X54293142Y31410786D01*
X54221714Y31446500D01*
X54186000Y31482215D01*
X54150285Y31553643D01*
X54150285Y32053643D02*
X54150285Y32553643D01*
X54900285Y32232215D01*
X54471714Y32946500D02*
X54436000Y32875072D01*
X54400285Y32839358D01*
X54328857Y32803643D01*
X54293142Y32803643D01*
X54221714Y32839358D01*
X54186000Y32875072D01*
X54150285Y32946500D01*
X54150285Y33089358D01*
X54186000Y33160786D01*
X54221714Y33196500D01*
X54293142Y33232215D01*
X54328857Y33232215D01*
X54400285Y33196500D01*
X54436000Y33160786D01*
X54471714Y33089358D01*
X54471714Y32946500D01*
X54507428Y32875072D01*
X54543142Y32839358D01*
X54614571Y32803643D01*
X54757428Y32803643D01*
X54828857Y32839358D01*
X54864571Y32875072D01*
X54900285Y32946500D01*
X54900285Y33089358D01*
X54864571Y33160786D01*
X54828857Y33196500D01*
X54757428Y33232215D01*
X54614571Y33232215D01*
X54543142Y33196500D01*
X54507428Y33160786D01*
X54471714Y33089358D01*
X30861000Y48657215D02*
X30861000Y48478643D01*
X30682428Y48550072D02*
X30861000Y48478643D01*
X31039571Y48550072D01*
X30753857Y48335786D02*
X30861000Y48478643D01*
X30968142Y48335786D01*
X34300285Y43642929D02*
X33550285Y43642929D01*
X33907428Y43642929D02*
X33907428Y44071500D01*
X34300285Y44071500D02*
X33550285Y44071500D01*
X34228857Y44857215D02*
X34264571Y44821500D01*
X34300285Y44714358D01*
X34300285Y44642929D01*
X34264571Y44535786D01*
X34193142Y44464358D01*
X34121714Y44428643D01*
X33978857Y44392929D01*
X33871714Y44392929D01*
X33728857Y44428643D01*
X33657428Y44464358D01*
X33586000Y44535786D01*
X33550285Y44642929D01*
X33550285Y44714358D01*
X33586000Y44821500D01*
X33621714Y44857215D01*
X33550285Y45321500D02*
X33550285Y45392929D01*
X33586000Y45464358D01*
X33621714Y45500072D01*
X33693142Y45535786D01*
X33836000Y45571500D01*
X34014571Y45571500D01*
X34157428Y45535786D01*
X34228857Y45500072D01*
X34264571Y45464358D01*
X34300285Y45392929D01*
X34300285Y45321500D01*
X34264571Y45250072D01*
X34228857Y45214358D01*
X34157428Y45178643D01*
X34014571Y45142929D01*
X33836000Y45142929D01*
X33693142Y45178643D01*
X33621714Y45214358D01*
X33586000Y45250072D01*
X33550285Y45321500D01*
X33621714Y45857215D02*
X33586000Y45892929D01*
X33550285Y45964358D01*
X33550285Y46142929D01*
X33586000Y46214358D01*
X33621714Y46250072D01*
X33693142Y46285786D01*
X33764571Y46285786D01*
X33871714Y46250072D01*
X34300285Y45821500D01*
X34300285Y46285786D01*
X68421714Y15894715D02*
X68421714Y15287572D01*
X68457428Y15216143D01*
X68493142Y15180429D01*
X68564571Y15144715D01*
X68707428Y15144715D01*
X68778857Y15180429D01*
X68814571Y15216143D01*
X68850285Y15287572D01*
X68850285Y15894715D01*
X69171714Y15180429D02*
X69243142Y15144715D01*
X69386000Y15144715D01*
X69457428Y15180429D01*
X69493142Y15251858D01*
X69493142Y15287572D01*
X69457428Y15359000D01*
X69386000Y15394715D01*
X69278857Y15394715D01*
X69207428Y15430429D01*
X69171714Y15501858D01*
X69171714Y15537572D01*
X69207428Y15609000D01*
X69278857Y15644715D01*
X69386000Y15644715D01*
X69457428Y15609000D01*
X70100285Y15180429D02*
X70028857Y15144715D01*
X69886000Y15144715D01*
X69814571Y15180429D01*
X69778857Y15251858D01*
X69778857Y15537572D01*
X69814571Y15609000D01*
X69886000Y15644715D01*
X70028857Y15644715D01*
X70100285Y15609000D01*
X70136000Y15537572D01*
X70136000Y15466143D01*
X69778857Y15394715D01*
X68153857Y13869715D02*
X68153857Y14619715D01*
X68403857Y14084000D01*
X68653857Y14619715D01*
X68653857Y13869715D01*
X69332428Y13869715D02*
X69332428Y14262572D01*
X69296714Y14334000D01*
X69225285Y14369715D01*
X69082428Y14369715D01*
X69011000Y14334000D01*
X69332428Y13905429D02*
X69261000Y13869715D01*
X69082428Y13869715D01*
X69011000Y13905429D01*
X68975285Y13976858D01*
X68975285Y14048286D01*
X69011000Y14119715D01*
X69082428Y14155429D01*
X69261000Y14155429D01*
X69332428Y14191143D01*
X69689571Y13869715D02*
X69689571Y14369715D01*
X69689571Y14619715D02*
X69653857Y14584000D01*
X69689571Y14548286D01*
X69725285Y14584000D01*
X69689571Y14619715D01*
X69689571Y14548286D01*
X70046714Y14369715D02*
X70046714Y13869715D01*
X70046714Y14298286D02*
X70082428Y14334000D01*
X70153857Y14369715D01*
X70261000Y14369715D01*
X70332428Y14334000D01*
X70368142Y14262572D01*
X70368142Y13869715D01*
D12*
X47141952Y63117929D02*
X47475285Y63117929D01*
X47618142Y62594120D02*
X47141952Y62594120D01*
X47141952Y63594120D01*
X47618142Y63594120D01*
X48046714Y63260786D02*
X48046714Y62594120D01*
X48046714Y63165548D02*
X48094333Y63213167D01*
X48189571Y63260786D01*
X48332428Y63260786D01*
X48427666Y63213167D01*
X48475285Y63117929D01*
X48475285Y62594120D01*
X49380047Y62594120D02*
X49380047Y63594120D01*
X49380047Y62641739D02*
X49284809Y62594120D01*
X49094333Y62594120D01*
X48999095Y62641739D01*
X48951476Y62689358D01*
X48903857Y62784596D01*
X48903857Y63070310D01*
X48951476Y63165548D01*
X48999095Y63213167D01*
X49094333Y63260786D01*
X49284809Y63260786D01*
X49380047Y63213167D01*
X49808619Y62641739D02*
X49903857Y62594120D01*
X50094333Y62594120D01*
X50189571Y62641739D01*
X50237190Y62736977D01*
X50237190Y62784596D01*
X50189571Y62879834D01*
X50094333Y62927453D01*
X49951476Y62927453D01*
X49856238Y62975072D01*
X49808619Y63070310D01*
X49808619Y63117929D01*
X49856238Y63213167D01*
X49951476Y63260786D01*
X50094333Y63260786D01*
X50189571Y63213167D01*
X50522904Y63260786D02*
X50903857Y63260786D01*
X50665761Y63594120D02*
X50665761Y62736977D01*
X50713380Y62641739D01*
X50808619Y62594120D01*
X50903857Y62594120D01*
X51380047Y62594120D02*
X51284809Y62641739D01*
X51237190Y62689358D01*
X51189571Y62784596D01*
X51189571Y63070310D01*
X51237190Y63165548D01*
X51284809Y63213167D01*
X51380047Y63260786D01*
X51522904Y63260786D01*
X51618142Y63213167D01*
X51665761Y63165548D01*
X51713380Y63070310D01*
X51713380Y62784596D01*
X51665761Y62689358D01*
X51618142Y62641739D01*
X51522904Y62594120D01*
X51380047Y62594120D01*
X52141952Y63260786D02*
X52141952Y62260786D01*
X52141952Y63213167D02*
X52237190Y63260786D01*
X52427666Y63260786D01*
X52522904Y63213167D01*
X52570523Y63165548D01*
X52618142Y63070310D01*
X52618142Y62784596D01*
X52570523Y62689358D01*
X52522904Y62641739D01*
X52427666Y62594120D01*
X52237190Y62594120D01*
X52141952Y62641739D01*
X52999095Y62641739D02*
X53094333Y62594120D01*
X53284809Y62594120D01*
X53380047Y62641739D01*
X53427666Y62736977D01*
X53427666Y62784596D01*
X53380047Y62879834D01*
X53284809Y62927453D01*
X53141952Y62927453D01*
X53046714Y62975072D01*
X52999095Y63070310D01*
X52999095Y63117929D01*
X53046714Y63213167D01*
X53141952Y63260786D01*
X53284809Y63260786D01*
X53380047Y63213167D01*
X40689571Y47827453D02*
X40689571Y48160786D01*
X41213380Y48303643D02*
X41213380Y47827453D01*
X40213380Y47827453D01*
X40213380Y48303643D01*
X40546714Y48732215D02*
X41213380Y48732215D01*
X40641952Y48732215D02*
X40594333Y48779834D01*
X40546714Y48875072D01*
X40546714Y49017929D01*
X40594333Y49113167D01*
X40689571Y49160786D01*
X41213380Y49160786D01*
X41213380Y50065548D02*
X40213380Y50065548D01*
X41165761Y50065548D02*
X41213380Y49970310D01*
X41213380Y49779834D01*
X41165761Y49684596D01*
X41118142Y49636977D01*
X41022904Y49589358D01*
X40737190Y49589358D01*
X40641952Y49636977D01*
X40594333Y49684596D01*
X40546714Y49779834D01*
X40546714Y49970310D01*
X40594333Y50065548D01*
X41165761Y55427453D02*
X41213380Y55570310D01*
X41213380Y55808405D01*
X41165761Y55903643D01*
X41118142Y55951262D01*
X41022904Y55998881D01*
X40927666Y55998881D01*
X40832428Y55951262D01*
X40784809Y55903643D01*
X40737190Y55808405D01*
X40689571Y55617929D01*
X40641952Y55522691D01*
X40594333Y55475072D01*
X40499095Y55427453D01*
X40403857Y55427453D01*
X40308619Y55475072D01*
X40261000Y55522691D01*
X40213380Y55617929D01*
X40213380Y55856024D01*
X40261000Y55998881D01*
X40546714Y56284596D02*
X40546714Y56665548D01*
X40213380Y56427453D02*
X41070523Y56427453D01*
X41165761Y56475072D01*
X41213380Y56570310D01*
X41213380Y56665548D01*
X41213380Y57427453D02*
X40689571Y57427453D01*
X40594333Y57379834D01*
X40546714Y57284596D01*
X40546714Y57094120D01*
X40594333Y56998881D01*
X41165761Y57427453D02*
X41213380Y57332215D01*
X41213380Y57094120D01*
X41165761Y56998881D01*
X41070523Y56951262D01*
X40975285Y56951262D01*
X40880047Y56998881D01*
X40832428Y57094120D01*
X40832428Y57332215D01*
X40784809Y57427453D01*
X41213380Y57903643D02*
X40546714Y57903643D01*
X40737190Y57903643D02*
X40641952Y57951262D01*
X40594333Y57998881D01*
X40546714Y58094120D01*
X40546714Y58189358D01*
X40546714Y58379834D02*
X40546714Y58760786D01*
X40213380Y58522691D02*
X41070523Y58522691D01*
X41165761Y58570310D01*
X41213380Y58665548D01*
X41213380Y58760786D01*
X56927666Y61994120D02*
X57594333Y61994120D01*
X56927666Y60994120D01*
X57594333Y60994120D01*
X50361000Y61470310D02*
X50361000Y60994120D01*
X50027666Y61994120D02*
X50361000Y61470310D01*
X50694333Y61994120D01*
X43327666Y62094120D02*
X43994333Y61094120D01*
X43994333Y62094120D02*
X43327666Y61094120D01*
D10*
X23718142Y56357215D02*
X24218142Y56357215D01*
X23718142Y55607215D01*
X24218142Y55607215D01*
X25075285Y55607215D02*
X25075285Y56357215D01*
X25361000Y56357215D01*
X25432428Y56321500D01*
X25468142Y56285786D01*
X25503857Y56214358D01*
X25503857Y56107215D01*
X25468142Y56035786D01*
X25432428Y56000072D01*
X25361000Y55964358D01*
X25075285Y55964358D01*
X25825285Y55607215D02*
X25825285Y56107215D01*
X25825285Y55964358D02*
X25861000Y56035786D01*
X25896714Y56071500D01*
X25968142Y56107215D01*
X26039571Y56107215D01*
X26396714Y55607215D02*
X26325285Y55642929D01*
X26289571Y55678643D01*
X26253857Y55750072D01*
X26253857Y55964358D01*
X26289571Y56035786D01*
X26325285Y56071500D01*
X26396714Y56107215D01*
X26503857Y56107215D01*
X26575285Y56071500D01*
X26611000Y56035786D01*
X26646714Y55964358D01*
X26646714Y55750072D01*
X26611000Y55678643D01*
X26575285Y55642929D01*
X26503857Y55607215D01*
X26396714Y55607215D01*
X26968142Y55607215D02*
X26968142Y56357215D01*
X26968142Y56071500D02*
X27039571Y56107215D01*
X27182428Y56107215D01*
X27253857Y56071500D01*
X27289571Y56035786D01*
X27325285Y55964358D01*
X27325285Y55750072D01*
X27289571Y55678643D01*
X27253857Y55642929D01*
X27182428Y55607215D01*
X27039571Y55607215D01*
X26968142Y55642929D01*
X27932428Y55642929D02*
X27861000Y55607215D01*
X27718142Y55607215D01*
X27646714Y55642929D01*
X27611000Y55714358D01*
X27611000Y56000072D01*
X27646714Y56071500D01*
X27718142Y56107215D01*
X27861000Y56107215D01*
X27932428Y56071500D01*
X27968142Y56000072D01*
X27968142Y55928643D01*
X27611000Y55857215D01*
D12*
X3384809Y90144120D02*
X3384809Y91144120D01*
X3718142Y90429834D01*
X4051476Y91144120D01*
X4051476Y90144120D01*
X4956238Y90144120D02*
X4956238Y90667929D01*
X4908619Y90763167D01*
X4813380Y90810786D01*
X4622904Y90810786D01*
X4527666Y90763167D01*
X4956238Y90191739D02*
X4861000Y90144120D01*
X4622904Y90144120D01*
X4527666Y90191739D01*
X4480047Y90286977D01*
X4480047Y90382215D01*
X4527666Y90477453D01*
X4622904Y90525072D01*
X4861000Y90525072D01*
X4956238Y90572691D01*
X5432428Y90144120D02*
X5432428Y90810786D01*
X5432428Y91144120D02*
X5384809Y91096500D01*
X5432428Y91048881D01*
X5480047Y91096500D01*
X5432428Y91144120D01*
X5432428Y91048881D01*
X5908619Y90810786D02*
X5908619Y90144120D01*
X5908619Y90715548D02*
X5956238Y90763167D01*
X6051476Y90810786D01*
X6194333Y90810786D01*
X6289571Y90763167D01*
X6337190Y90667929D01*
X6337190Y90144120D01*
X3218142Y88444120D02*
X3218142Y89444120D01*
X3694333Y89110786D02*
X3694333Y88444120D01*
X3694333Y89015548D02*
X3741952Y89063167D01*
X3837190Y89110786D01*
X3980047Y89110786D01*
X4075285Y89063167D01*
X4122904Y88967929D01*
X4122904Y88444120D01*
X4599095Y89110786D02*
X4599095Y88110786D01*
X4599095Y89063167D02*
X4694333Y89110786D01*
X4884809Y89110786D01*
X4980047Y89063167D01*
X5027666Y89015548D01*
X5075285Y88920310D01*
X5075285Y88634596D01*
X5027666Y88539358D01*
X4980047Y88491739D01*
X4884809Y88444120D01*
X4694333Y88444120D01*
X4599095Y88491739D01*
X5932428Y89110786D02*
X5932428Y88444120D01*
X5503857Y89110786D02*
X5503857Y88586977D01*
X5551476Y88491739D01*
X5646714Y88444120D01*
X5789571Y88444120D01*
X5884809Y88491739D01*
X5932428Y88539358D01*
X6265761Y89110786D02*
X6646714Y89110786D01*
X6408619Y89444120D02*
X6408619Y88586977D01*
X6456238Y88491739D01*
X6551476Y88444120D01*
X6646714Y88444120D01*
D10*
X3321714Y76557215D02*
X2964571Y76557215D01*
X2928857Y76200072D01*
X2964571Y76235786D01*
X3036000Y76271500D01*
X3214571Y76271500D01*
X3286000Y76235786D01*
X3321714Y76200072D01*
X3357428Y76128643D01*
X3357428Y75950072D01*
X3321714Y75878643D01*
X3286000Y75842929D01*
X3214571Y75807215D01*
X3036000Y75807215D01*
X2964571Y75842929D01*
X2928857Y75878643D01*
X3571714Y76557215D02*
X3821714Y75807215D01*
X4071714Y76557215D01*
X4893142Y75807215D02*
X4893142Y76307215D01*
X4893142Y76557215D02*
X4857428Y76521500D01*
X4893142Y76485786D01*
X4928857Y76521500D01*
X4893142Y76557215D01*
X4893142Y76485786D01*
X5250285Y76307215D02*
X5250285Y75807215D01*
X5250285Y76235786D02*
X5286000Y76271500D01*
X5357428Y76307215D01*
X5464571Y76307215D01*
X5536000Y76271500D01*
X5571714Y76200072D01*
X5571714Y75807215D01*
X5928857Y76307215D02*
X5928857Y75557215D01*
X5928857Y76271500D02*
X6000285Y76307215D01*
X6143142Y76307215D01*
X6214571Y76271500D01*
X6250285Y76235786D01*
X6286000Y76164358D01*
X6286000Y75950072D01*
X6250285Y75878643D01*
X6214571Y75842929D01*
X6143142Y75807215D01*
X6000285Y75807215D01*
X5928857Y75842929D01*
X6928857Y76307215D02*
X6928857Y75807215D01*
X6607428Y76307215D02*
X6607428Y75914358D01*
X6643142Y75842929D01*
X6714571Y75807215D01*
X6821714Y75807215D01*
X6893142Y75842929D01*
X6928857Y75878643D01*
X7178857Y76307215D02*
X7464571Y76307215D01*
X7286000Y76557215D02*
X7286000Y75914358D01*
X7321714Y75842929D01*
X7393142Y75807215D01*
X7464571Y75807215D01*
D12*
X29265761Y74844120D02*
X29265761Y75844120D01*
X29265761Y75367929D02*
X29837190Y75367929D01*
X29837190Y74844120D02*
X29837190Y75844120D01*
X30694333Y74891739D02*
X30599095Y74844120D01*
X30408619Y74844120D01*
X30313380Y74891739D01*
X30265761Y74986977D01*
X30265761Y75367929D01*
X30313380Y75463167D01*
X30408619Y75510786D01*
X30599095Y75510786D01*
X30694333Y75463167D01*
X30741952Y75367929D01*
X30741952Y75272691D01*
X30265761Y75177453D01*
X31599095Y74844120D02*
X31599095Y75367929D01*
X31551476Y75463167D01*
X31456238Y75510786D01*
X31265761Y75510786D01*
X31170523Y75463167D01*
X31599095Y74891739D02*
X31503857Y74844120D01*
X31265761Y74844120D01*
X31170523Y74891739D01*
X31122904Y74986977D01*
X31122904Y75082215D01*
X31170523Y75177453D01*
X31265761Y75225072D01*
X31503857Y75225072D01*
X31599095Y75272691D01*
X31932428Y75510786D02*
X32313380Y75510786D01*
X32075285Y75844120D02*
X32075285Y74986977D01*
X32122904Y74891739D01*
X32218142Y74844120D01*
X32313380Y74844120D01*
X33027666Y74891739D02*
X32932428Y74844120D01*
X32741952Y74844120D01*
X32646714Y74891739D01*
X32599095Y74986977D01*
X32599095Y75367929D01*
X32646714Y75463167D01*
X32741952Y75510786D01*
X32932428Y75510786D01*
X33027666Y75463167D01*
X33075285Y75367929D01*
X33075285Y75272691D01*
X32599095Y75177453D01*
X33503857Y74844120D02*
X33503857Y75510786D01*
X33503857Y75320310D02*
X33551476Y75415548D01*
X33599095Y75463167D01*
X33694333Y75510786D01*
X33789571Y75510786D01*
X34075285Y74891739D02*
X34170523Y74844120D01*
X34361000Y74844120D01*
X34456238Y74891739D01*
X34503857Y74986977D01*
X34503857Y75034596D01*
X34456238Y75129834D01*
X34361000Y75177453D01*
X34218142Y75177453D01*
X34122904Y75225072D01*
X34075285Y75320310D01*
X34075285Y75367929D01*
X34122904Y75463167D01*
X34218142Y75510786D01*
X34361000Y75510786D01*
X34456238Y75463167D01*
X29718142Y73525072D02*
X30480047Y73525072D01*
X30099095Y73144120D02*
X30099095Y73906024D01*
X33241952Y73525072D02*
X34003857Y73525072D01*
X41970523Y77517929D02*
X42303857Y77517929D01*
X42446714Y76994120D02*
X41970523Y76994120D01*
X41970523Y77994120D01*
X42446714Y77994120D01*
X42827666Y77898881D02*
X42875285Y77946500D01*
X42970523Y77994120D01*
X43208619Y77994120D01*
X43303857Y77946500D01*
X43351476Y77898881D01*
X43399095Y77803643D01*
X43399095Y77708405D01*
X43351476Y77565548D01*
X42780047Y76994120D01*
X43399095Y76994120D01*
X34270523Y77517929D02*
X34603857Y77517929D01*
X34746714Y76994120D02*
X34270523Y76994120D01*
X34270523Y77994120D01*
X34746714Y77994120D01*
X35699095Y76994120D02*
X35127666Y76994120D01*
X35413380Y76994120D02*
X35413380Y77994120D01*
X35318142Y77851262D01*
X35222904Y77756024D01*
X35127666Y77708405D01*
X23780047Y77817929D02*
X23922904Y77770310D01*
X23970523Y77722691D01*
X24018142Y77627453D01*
X24018142Y77484596D01*
X23970523Y77389358D01*
X23922904Y77341739D01*
X23827666Y77294120D01*
X23446714Y77294120D01*
X23446714Y78294120D01*
X23780047Y78294120D01*
X23875285Y78246500D01*
X23922904Y78198881D01*
X23970523Y78103643D01*
X23970523Y78008405D01*
X23922904Y77913167D01*
X23875285Y77865548D01*
X23780047Y77817929D01*
X23446714Y77817929D01*
X24446714Y77817929D02*
X24780047Y77817929D01*
X24922904Y77294120D02*
X24446714Y77294120D01*
X24446714Y78294120D01*
X24922904Y78294120D01*
X25351476Y77294120D02*
X25351476Y78294120D01*
X25589571Y78294120D01*
X25732428Y78246500D01*
X25827666Y78151262D01*
X25875285Y78056024D01*
X25922904Y77865548D01*
X25922904Y77722691D01*
X25875285Y77532215D01*
X25827666Y77436977D01*
X25732428Y77341739D01*
X25589571Y77294120D01*
X25351476Y77294120D01*
D10*
X2111000Y65557215D02*
X2111000Y64950072D01*
X2146714Y64878643D01*
X2182428Y64842929D01*
X2253857Y64807215D01*
X2396714Y64807215D01*
X2468142Y64842929D01*
X2503857Y64878643D01*
X2539571Y64950072D01*
X2539571Y65557215D01*
X2861000Y64842929D02*
X2932428Y64807215D01*
X3075285Y64807215D01*
X3146714Y64842929D01*
X3182428Y64914358D01*
X3182428Y64950072D01*
X3146714Y65021500D01*
X3075285Y65057215D01*
X2968142Y65057215D01*
X2896714Y65092929D01*
X2861000Y65164358D01*
X2861000Y65200072D01*
X2896714Y65271500D01*
X2968142Y65307215D01*
X3075285Y65307215D01*
X3146714Y65271500D01*
X3789571Y64842929D02*
X3718142Y64807215D01*
X3575285Y64807215D01*
X3503857Y64842929D01*
X3468142Y64914358D01*
X3468142Y65200072D01*
X3503857Y65271500D01*
X3575285Y65307215D01*
X3718142Y65307215D01*
X3789571Y65271500D01*
X3825285Y65200072D01*
X3825285Y65128643D01*
X3468142Y65057215D01*
X4718142Y65557215D02*
X4718142Y64950072D01*
X4753857Y64878643D01*
X4789571Y64842929D01*
X4861000Y64807215D01*
X5003857Y64807215D01*
X5075285Y64842929D01*
X5111000Y64878643D01*
X5146714Y64950072D01*
X5146714Y65557215D01*
X5468142Y64842929D02*
X5575285Y64807215D01*
X5753857Y64807215D01*
X5825285Y64842929D01*
X5861000Y64878643D01*
X5896714Y64950072D01*
X5896714Y65021500D01*
X5861000Y65092929D01*
X5825285Y65128643D01*
X5753857Y65164358D01*
X5611000Y65200072D01*
X5539571Y65235786D01*
X5503857Y65271500D01*
X5468142Y65342929D01*
X5468142Y65414358D01*
X5503857Y65485786D01*
X5539571Y65521500D01*
X5611000Y65557215D01*
X5789571Y65557215D01*
X5896714Y65521500D01*
X6468142Y65200072D02*
X6575285Y65164358D01*
X6611000Y65128643D01*
X6646714Y65057215D01*
X6646714Y64950072D01*
X6611000Y64878643D01*
X6575285Y64842929D01*
X6503857Y64807215D01*
X6218142Y64807215D01*
X6218142Y65557215D01*
X6468142Y65557215D01*
X6539571Y65521500D01*
X6575285Y65485786D01*
X6611000Y65414358D01*
X6611000Y65342929D01*
X6575285Y65271500D01*
X6539571Y65235786D01*
X6468142Y65200072D01*
X6218142Y65200072D01*
X13246714Y11321500D02*
X13603857Y11321500D01*
X13175285Y11107215D02*
X13425285Y11857215D01*
X13675285Y11107215D01*
X14032428Y11107215D02*
X13961000Y11142929D01*
X13925285Y11214358D01*
X13925285Y11857215D01*
X14246714Y11607215D02*
X14389571Y11107215D01*
X14532428Y11464358D01*
X14675285Y11107215D01*
X14818142Y11607215D01*
X15425285Y11107215D02*
X15425285Y11500072D01*
X15389571Y11571500D01*
X15318142Y11607215D01*
X15175285Y11607215D01*
X15103857Y11571500D01*
X15425285Y11142929D02*
X15353857Y11107215D01*
X15175285Y11107215D01*
X15103857Y11142929D01*
X15068142Y11214358D01*
X15068142Y11285786D01*
X15103857Y11357215D01*
X15175285Y11392929D01*
X15353857Y11392929D01*
X15425285Y11428643D01*
X15711000Y11607215D02*
X15889571Y11107215D01*
X16068142Y11607215D02*
X15889571Y11107215D01*
X15818142Y10928643D01*
X15782428Y10892929D01*
X15711000Y10857215D01*
X16318142Y11142929D02*
X16389571Y11107215D01*
X16532428Y11107215D01*
X16603857Y11142929D01*
X16639571Y11214358D01*
X16639571Y11250072D01*
X16603857Y11321500D01*
X16532428Y11357215D01*
X16425285Y11357215D01*
X16353857Y11392929D01*
X16318142Y11464358D01*
X16318142Y11500072D01*
X16353857Y11571500D01*
X16425285Y11607215D01*
X16532428Y11607215D01*
X16603857Y11571500D01*
X17675285Y11857215D02*
X17818142Y11857215D01*
X17889571Y11821500D01*
X17961000Y11750072D01*
X17996714Y11607215D01*
X17996714Y11357215D01*
X17961000Y11214358D01*
X17889571Y11142929D01*
X17818142Y11107215D01*
X17675285Y11107215D01*
X17603857Y11142929D01*
X17532428Y11214358D01*
X17496714Y11357215D01*
X17496714Y11607215D01*
X17532428Y11750072D01*
X17603857Y11821500D01*
X17675285Y11857215D01*
X18318142Y11607215D02*
X18318142Y11107215D01*
X18318142Y11535786D02*
X18353857Y11571500D01*
X18425285Y11607215D01*
X18532428Y11607215D01*
X18603857Y11571500D01*
X18639571Y11500072D01*
X18639571Y11107215D01*
X50296714Y14800072D02*
X50546714Y14800072D01*
X50653857Y14407215D02*
X50296714Y14407215D01*
X50296714Y15157215D01*
X50653857Y15157215D01*
X50939571Y15085786D02*
X50975285Y15121500D01*
X51046714Y15157215D01*
X51225285Y15157215D01*
X51296714Y15121500D01*
X51332428Y15085786D01*
X51368142Y15014358D01*
X51368142Y14942929D01*
X51332428Y14835786D01*
X50903857Y14407215D01*
X51368142Y14407215D01*
X52261000Y14407215D02*
X52261000Y15157215D01*
X52546714Y15157215D01*
X52618142Y15121500D01*
X52653857Y15085786D01*
X52689571Y15014358D01*
X52689571Y14907215D01*
X52653857Y14835786D01*
X52618142Y14800072D01*
X52546714Y14764358D01*
X52261000Y14764358D01*
X53332428Y14407215D02*
X53332428Y14800072D01*
X53296714Y14871500D01*
X53225285Y14907215D01*
X53082428Y14907215D01*
X53011000Y14871500D01*
X53332428Y14442929D02*
X53261000Y14407215D01*
X53082428Y14407215D01*
X53011000Y14442929D01*
X52975285Y14514358D01*
X52975285Y14585786D01*
X53011000Y14657215D01*
X53082428Y14692929D01*
X53261000Y14692929D01*
X53332428Y14728643D01*
X53689571Y14407215D02*
X53689571Y14907215D01*
X53689571Y14764358D02*
X53725285Y14835786D01*
X53761000Y14871500D01*
X53832428Y14907215D01*
X53903857Y14907215D01*
X54046714Y14907215D02*
X54332428Y14907215D01*
X54153857Y15157215D02*
X54153857Y14514358D01*
X54189571Y14442929D01*
X54261000Y14407215D01*
X54332428Y14407215D01*
X42396714Y14700072D02*
X42646714Y14700072D01*
X42753857Y14307215D02*
X42396714Y14307215D01*
X42396714Y15057215D01*
X42753857Y15057215D01*
X43468142Y14307215D02*
X43039571Y14307215D01*
X43253857Y14307215D02*
X43253857Y15057215D01*
X43182428Y14950072D01*
X43111000Y14878643D01*
X43039571Y14842929D01*
X44361000Y14307215D02*
X44361000Y15057215D01*
X44646714Y15057215D01*
X44718142Y15021500D01*
X44753857Y14985786D01*
X44789571Y14914358D01*
X44789571Y14807215D01*
X44753857Y14735786D01*
X44718142Y14700072D01*
X44646714Y14664358D01*
X44361000Y14664358D01*
X45432428Y14307215D02*
X45432428Y14700072D01*
X45396714Y14771500D01*
X45325285Y14807215D01*
X45182428Y14807215D01*
X45111000Y14771500D01*
X45432428Y14342929D02*
X45361000Y14307215D01*
X45182428Y14307215D01*
X45111000Y14342929D01*
X45075285Y14414358D01*
X45075285Y14485786D01*
X45111000Y14557215D01*
X45182428Y14592929D01*
X45361000Y14592929D01*
X45432428Y14628643D01*
X45789571Y14307215D02*
X45789571Y14807215D01*
X45789571Y14664358D02*
X45825285Y14735786D01*
X45861000Y14771500D01*
X45932428Y14807215D01*
X46003857Y14807215D01*
X46146714Y14807215D02*
X46432428Y14807215D01*
X46253857Y15057215D02*
X46253857Y14414358D01*
X46289571Y14342929D01*
X46361000Y14307215D01*
X46432428Y14307215D01*
X34607428Y14700072D02*
X34857428Y14700072D01*
X34964571Y14307215D02*
X34607428Y14307215D01*
X34607428Y15057215D01*
X34964571Y15057215D01*
X35678857Y14307215D02*
X35250285Y14307215D01*
X35464571Y14307215D02*
X35464571Y15057215D01*
X35393142Y14950072D01*
X35321714Y14878643D01*
X35250285Y14842929D01*
X37000285Y14378643D02*
X36964571Y14342929D01*
X36857428Y14307215D01*
X36786000Y14307215D01*
X36678857Y14342929D01*
X36607428Y14414358D01*
X36571714Y14485786D01*
X36536000Y14628643D01*
X36536000Y14735786D01*
X36571714Y14878643D01*
X36607428Y14950072D01*
X36678857Y15021500D01*
X36786000Y15057215D01*
X36857428Y15057215D01*
X36964571Y15021500D01*
X37000285Y14985786D01*
X37428857Y14307215D02*
X37357428Y14342929D01*
X37321714Y14378643D01*
X37286000Y14450072D01*
X37286000Y14664358D01*
X37321714Y14735786D01*
X37357428Y14771500D01*
X37428857Y14807215D01*
X37536000Y14807215D01*
X37607428Y14771500D01*
X37643142Y14735786D01*
X37678857Y14664358D01*
X37678857Y14450072D01*
X37643142Y14378643D01*
X37607428Y14342929D01*
X37536000Y14307215D01*
X37428857Y14307215D01*
X38107428Y14307215D02*
X38036000Y14342929D01*
X38000285Y14378643D01*
X37964571Y14450072D01*
X37964571Y14664358D01*
X38000285Y14735786D01*
X38036000Y14771500D01*
X38107428Y14807215D01*
X38214571Y14807215D01*
X38286000Y14771500D01*
X38321714Y14735786D01*
X38357428Y14664358D01*
X38357428Y14450072D01*
X38321714Y14378643D01*
X38286000Y14342929D01*
X38214571Y14307215D01*
X38107428Y14307215D01*
X38786000Y14307215D02*
X38714571Y14342929D01*
X38678857Y14414358D01*
X38678857Y15057215D01*
X26107428Y14800072D02*
X26357428Y14800072D01*
X26464571Y14407215D02*
X26107428Y14407215D01*
X26107428Y15157215D01*
X26464571Y15157215D01*
X26750285Y15085786D02*
X26786000Y15121500D01*
X26857428Y15157215D01*
X27036000Y15157215D01*
X27107428Y15121500D01*
X27143142Y15085786D01*
X27178857Y15014358D01*
X27178857Y14942929D01*
X27143142Y14835786D01*
X26714571Y14407215D01*
X27178857Y14407215D01*
X28500285Y14478643D02*
X28464571Y14442929D01*
X28357428Y14407215D01*
X28286000Y14407215D01*
X28178857Y14442929D01*
X28107428Y14514358D01*
X28071714Y14585786D01*
X28036000Y14728643D01*
X28036000Y14835786D01*
X28071714Y14978643D01*
X28107428Y15050072D01*
X28178857Y15121500D01*
X28286000Y15157215D01*
X28357428Y15157215D01*
X28464571Y15121500D01*
X28500285Y15085786D01*
X28928857Y14407215D02*
X28857428Y14442929D01*
X28821714Y14478643D01*
X28786000Y14550072D01*
X28786000Y14764358D01*
X28821714Y14835786D01*
X28857428Y14871500D01*
X28928857Y14907215D01*
X29036000Y14907215D01*
X29107428Y14871500D01*
X29143142Y14835786D01*
X29178857Y14764358D01*
X29178857Y14550072D01*
X29143142Y14478643D01*
X29107428Y14442929D01*
X29036000Y14407215D01*
X28928857Y14407215D01*
X29607428Y14407215D02*
X29536000Y14442929D01*
X29500285Y14478643D01*
X29464571Y14550072D01*
X29464571Y14764358D01*
X29500285Y14835786D01*
X29536000Y14871500D01*
X29607428Y14907215D01*
X29714571Y14907215D01*
X29786000Y14871500D01*
X29821714Y14835786D01*
X29857428Y14764358D01*
X29857428Y14550072D01*
X29821714Y14478643D01*
X29786000Y14442929D01*
X29714571Y14407215D01*
X29607428Y14407215D01*
X30286000Y14407215D02*
X30214571Y14442929D01*
X30178857Y14514358D01*
X30178857Y15157215D01*
D12*
X43122904Y26094120D02*
X43694333Y26094120D01*
X43408619Y25094120D02*
X43408619Y26094120D01*
X44027666Y25094120D02*
X44027666Y26094120D01*
X44456238Y25094120D02*
X44456238Y25617929D01*
X44408619Y25713167D01*
X44313380Y25760786D01*
X44170523Y25760786D01*
X44075285Y25713167D01*
X44027666Y25665548D01*
X45313380Y25141739D02*
X45218142Y25094120D01*
X45027666Y25094120D01*
X44932428Y25141739D01*
X44884809Y25236977D01*
X44884809Y25617929D01*
X44932428Y25713167D01*
X45027666Y25760786D01*
X45218142Y25760786D01*
X45313380Y25713167D01*
X45361000Y25617929D01*
X45361000Y25522691D01*
X44884809Y25427453D01*
X45789571Y25094120D02*
X45789571Y25760786D01*
X45789571Y25570310D02*
X45837190Y25665548D01*
X45884809Y25713167D01*
X45980047Y25760786D01*
X46075285Y25760786D01*
X46408619Y25094120D02*
X46408619Y25760786D01*
X46408619Y25665548D02*
X46456238Y25713167D01*
X46551476Y25760786D01*
X46694333Y25760786D01*
X46789571Y25713167D01*
X46837190Y25617929D01*
X46837190Y25094120D01*
X46837190Y25617929D02*
X46884809Y25713167D01*
X46980047Y25760786D01*
X47122904Y25760786D01*
X47218142Y25713167D01*
X47265761Y25617929D01*
X47265761Y25094120D01*
X47741952Y25094120D02*
X47741952Y25760786D01*
X47741952Y26094120D02*
X47694333Y26046500D01*
X47741952Y25998881D01*
X47789571Y26046500D01*
X47741952Y26094120D01*
X47741952Y25998881D01*
X48170523Y25141739D02*
X48265761Y25094120D01*
X48456238Y25094120D01*
X48551476Y25141739D01*
X48599095Y25236977D01*
X48599095Y25284596D01*
X48551476Y25379834D01*
X48456238Y25427453D01*
X48313380Y25427453D01*
X48218142Y25475072D01*
X48170523Y25570310D01*
X48170523Y25617929D01*
X48218142Y25713167D01*
X48313380Y25760786D01*
X48456238Y25760786D01*
X48551476Y25713167D01*
X48884809Y25760786D02*
X49265761Y25760786D01*
X49027666Y26094120D02*
X49027666Y25236977D01*
X49075285Y25141739D01*
X49170523Y25094120D01*
X49265761Y25094120D01*
X49741952Y25094120D02*
X49646714Y25141739D01*
X49599095Y25189358D01*
X49551476Y25284596D01*
X49551476Y25570310D01*
X49599095Y25665548D01*
X49646714Y25713167D01*
X49741952Y25760786D01*
X49884809Y25760786D01*
X49980047Y25713167D01*
X50027666Y25665548D01*
X50075285Y25570310D01*
X50075285Y25284596D01*
X50027666Y25189358D01*
X49980047Y25141739D01*
X49884809Y25094120D01*
X49741952Y25094120D01*
X50503857Y25094120D02*
X50503857Y25760786D01*
X50503857Y25570310D02*
X50551476Y25665548D01*
X50599095Y25713167D01*
X50694333Y25760786D01*
X50789571Y25760786D01*
X51075285Y25141739D02*
X51170523Y25094120D01*
X51361000Y25094120D01*
X51456238Y25141739D01*
X51503857Y25236977D01*
X51503857Y25284596D01*
X51456238Y25379834D01*
X51361000Y25427453D01*
X51218142Y25427453D01*
X51122904Y25475072D01*
X51075285Y25570310D01*
X51075285Y25617929D01*
X51122904Y25713167D01*
X51218142Y25760786D01*
X51361000Y25760786D01*
X51456238Y25713167D01*
X59689571Y24656024D02*
X59689571Y24989358D01*
X60213380Y25132215D02*
X60213380Y24656024D01*
X59213380Y24656024D01*
X59213380Y25132215D01*
X60213380Y26084596D02*
X60213380Y25513167D01*
X60213380Y25798881D02*
X59213380Y25798881D01*
X59356238Y25703643D01*
X59451476Y25608405D01*
X59499095Y25513167D01*
X59689571Y18056024D02*
X59689571Y18389358D01*
X60213380Y18532215D02*
X60213380Y18056024D01*
X59213380Y18056024D01*
X59213380Y18532215D01*
X59308619Y18913167D02*
X59261000Y18960786D01*
X59213380Y19056024D01*
X59213380Y19294120D01*
X59261000Y19389358D01*
X59308619Y19436977D01*
X59403857Y19484596D01*
X59499095Y19484596D01*
X59641952Y19436977D01*
X60213380Y18865548D01*
X60213380Y19484596D01*
X43189571Y17565548D02*
X43237190Y17708405D01*
X43284809Y17756024D01*
X43380047Y17803643D01*
X43522904Y17803643D01*
X43618142Y17756024D01*
X43665761Y17708405D01*
X43713380Y17613167D01*
X43713380Y17232215D01*
X42713380Y17232215D01*
X42713380Y17565548D01*
X42761000Y17660786D01*
X42808619Y17708405D01*
X42903857Y17756024D01*
X42999095Y17756024D01*
X43094333Y17708405D01*
X43141952Y17660786D01*
X43189571Y17565548D01*
X43189571Y17232215D01*
X43189571Y18232215D02*
X43189571Y18565548D01*
X43713380Y18708405D02*
X43713380Y18232215D01*
X42713380Y18232215D01*
X42713380Y18708405D01*
X43713380Y19136977D02*
X42713380Y19136977D01*
X42713380Y19375072D01*
X42761000Y19517929D01*
X42856238Y19613167D01*
X42951476Y19660786D01*
X43141952Y19708405D01*
X43284809Y19708405D01*
X43475285Y19660786D01*
X43570523Y19613167D01*
X43665761Y19517929D01*
X43713380Y19375072D01*
X43713380Y19136977D01*
D10*
X86293142Y6557215D02*
X86543142Y5807215D01*
X86793142Y6557215D01*
X87043142Y5807215D02*
X87043142Y6307215D01*
X87043142Y6557215D02*
X87007428Y6521500D01*
X87043142Y6485786D01*
X87078857Y6521500D01*
X87043142Y6557215D01*
X87043142Y6485786D01*
X87400285Y6307215D02*
X87400285Y5807215D01*
X87400285Y6235786D02*
X87436000Y6271500D01*
X87507428Y6307215D01*
X87614571Y6307215D01*
X87686000Y6271500D01*
X87721714Y6200072D01*
X87721714Y5807215D01*
X80218142Y6457215D02*
X79861000Y6457215D01*
X79825285Y6100072D01*
X79861000Y6135786D01*
X79932428Y6171500D01*
X80111000Y6171500D01*
X80182428Y6135786D01*
X80218142Y6100072D01*
X80253857Y6028643D01*
X80253857Y5850072D01*
X80218142Y5778643D01*
X80182428Y5742929D01*
X80111000Y5707215D01*
X79932428Y5707215D01*
X79861000Y5742929D01*
X79825285Y5778643D01*
X80468142Y6457215D02*
X80718142Y5707215D01*
X80968142Y6457215D01*
X86593142Y96357215D02*
X86843142Y95607215D01*
X87093142Y96357215D01*
X87343142Y95607215D02*
X87343142Y96107215D01*
X87343142Y96357215D02*
X87307428Y96321500D01*
X87343142Y96285786D01*
X87378857Y96321500D01*
X87343142Y96357215D01*
X87343142Y96285786D01*
X87700285Y96107215D02*
X87700285Y95607215D01*
X87700285Y96035786D02*
X87736000Y96071500D01*
X87807428Y96107215D01*
X87914571Y96107215D01*
X87986000Y96071500D01*
X88021714Y96000072D01*
X88021714Y95607215D01*
X75518142Y92857215D02*
X75161000Y92857215D01*
X75125285Y92500072D01*
X75161000Y92535786D01*
X75232428Y92571500D01*
X75411000Y92571500D01*
X75482428Y92535786D01*
X75518142Y92500072D01*
X75553857Y92428643D01*
X75553857Y92250072D01*
X75518142Y92178643D01*
X75482428Y92142929D01*
X75411000Y92107215D01*
X75232428Y92107215D01*
X75161000Y92142929D01*
X75125285Y92178643D01*
X75768142Y92857215D02*
X76018142Y92107215D01*
X76268142Y92857215D01*
X81253857Y93592929D02*
X81825285Y93592929D01*
X81539571Y93307215D02*
X81539571Y93878643D01*
X83896714Y93592929D02*
X84468142Y93592929D01*
X74053857Y93492929D02*
X74625285Y93492929D01*
X74339571Y93207215D02*
X74339571Y93778643D01*
X76696714Y93492929D02*
X77268142Y93492929D01*
X69693142Y95957215D02*
X69943142Y95207215D01*
X70193142Y95957215D01*
X70443142Y95207215D02*
X70443142Y95707215D01*
X70443142Y95957215D02*
X70407428Y95921500D01*
X70443142Y95885786D01*
X70478857Y95921500D01*
X70443142Y95957215D01*
X70443142Y95885786D01*
X70800285Y95707215D02*
X70800285Y95207215D01*
X70800285Y95635786D02*
X70836000Y95671500D01*
X70907428Y95707215D01*
X71014571Y95707215D01*
X71086000Y95671500D01*
X71121714Y95600072D01*
X71121714Y95207215D01*
X17718142Y79257215D02*
X17361000Y79257215D01*
X17325285Y78900072D01*
X17361000Y78935786D01*
X17432428Y78971500D01*
X17611000Y78971500D01*
X17682428Y78935786D01*
X17718142Y78900072D01*
X17753857Y78828643D01*
X17753857Y78650072D01*
X17718142Y78578643D01*
X17682428Y78542929D01*
X17611000Y78507215D01*
X17432428Y78507215D01*
X17361000Y78542929D01*
X17325285Y78578643D01*
X17968142Y79257215D02*
X18218142Y78507215D01*
X18468142Y79257215D01*
X9553857Y59957215D02*
X10018142Y59957215D01*
X9768142Y59671500D01*
X9875285Y59671500D01*
X9946714Y59635786D01*
X9982428Y59600072D01*
X10018142Y59528643D01*
X10018142Y59350072D01*
X9982428Y59278643D01*
X9946714Y59242929D01*
X9875285Y59207215D01*
X9661000Y59207215D01*
X9589571Y59242929D01*
X9553857Y59278643D01*
X10339571Y59278643D02*
X10375285Y59242929D01*
X10339571Y59207215D01*
X10303857Y59242929D01*
X10339571Y59278643D01*
X10339571Y59207215D01*
X10625285Y59957215D02*
X11089571Y59957215D01*
X10839571Y59671500D01*
X10946714Y59671500D01*
X11018142Y59635786D01*
X11053857Y59600072D01*
X11089571Y59528643D01*
X11089571Y59350072D01*
X11053857Y59278643D01*
X11018142Y59242929D01*
X10946714Y59207215D01*
X10732428Y59207215D01*
X10661000Y59242929D01*
X10625285Y59278643D01*
X11303857Y59957215D02*
X11553857Y59207215D01*
X11803857Y59957215D01*
X15050285Y42000072D02*
X15050285Y42428643D01*
X15800285Y42214358D02*
X15050285Y42214358D01*
X15728857Y43107215D02*
X15764571Y43071500D01*
X15800285Y42964358D01*
X15800285Y42892929D01*
X15764571Y42785786D01*
X15693142Y42714358D01*
X15621714Y42678643D01*
X15478857Y42642929D01*
X15371714Y42642929D01*
X15228857Y42678643D01*
X15157428Y42714358D01*
X15086000Y42785786D01*
X15050285Y42892929D01*
X15050285Y42964358D01*
X15086000Y43071500D01*
X15121714Y43107215D01*
X15407428Y45392929D02*
X15407428Y45142929D01*
X15800285Y45142929D02*
X15050285Y45142929D01*
X15050285Y45500072D01*
X15800285Y46107215D02*
X15407428Y46107215D01*
X15336000Y46071500D01*
X15300285Y46000072D01*
X15300285Y45857215D01*
X15336000Y45785786D01*
X15764571Y46107215D02*
X15800285Y46035786D01*
X15800285Y45857215D01*
X15764571Y45785786D01*
X15693142Y45750072D01*
X15621714Y45750072D01*
X15550285Y45785786D01*
X15514571Y45857215D01*
X15514571Y46035786D01*
X15478857Y46107215D01*
X15300285Y46464358D02*
X15800285Y46464358D01*
X15371714Y46464358D02*
X15336000Y46500072D01*
X15300285Y46571500D01*
X15300285Y46678643D01*
X15336000Y46750072D01*
X15407428Y46785786D01*
X15800285Y46785786D01*
X29543142Y40607215D02*
X29186000Y40607215D01*
X29186000Y41357215D01*
X30221714Y40678643D02*
X30186000Y40642929D01*
X30078857Y40607215D01*
X30007428Y40607215D01*
X29900285Y40642929D01*
X29828857Y40714358D01*
X29793142Y40785786D01*
X29757428Y40928643D01*
X29757428Y41035786D01*
X29793142Y41178643D01*
X29828857Y41250072D01*
X29900285Y41321500D01*
X30007428Y41357215D01*
X30078857Y41357215D01*
X30186000Y41321500D01*
X30221714Y41285786D01*
X30543142Y40607215D02*
X30543142Y41357215D01*
X30721714Y41357215D01*
X30828857Y41321500D01*
X30900285Y41250072D01*
X30936000Y41178643D01*
X30971714Y41035786D01*
X30971714Y40928643D01*
X30936000Y40785786D01*
X30900285Y40714358D01*
X30828857Y40642929D01*
X30721714Y40607215D01*
X30543142Y40607215D01*
X18250285Y21300072D02*
X18250285Y21728643D01*
X19000285Y21514358D02*
X18250285Y21514358D01*
X18928857Y22407215D02*
X18964571Y22371500D01*
X19000285Y22264358D01*
X19000285Y22192929D01*
X18964571Y22085786D01*
X18893142Y22014358D01*
X18821714Y21978643D01*
X18678857Y21942929D01*
X18571714Y21942929D01*
X18428857Y21978643D01*
X18357428Y22014358D01*
X18286000Y22085786D01*
X18250285Y22192929D01*
X18250285Y22264358D01*
X18286000Y22371500D01*
X18321714Y22407215D01*
X18321714Y22692929D02*
X18286000Y22728643D01*
X18250285Y22800072D01*
X18250285Y22978643D01*
X18286000Y23050072D01*
X18321714Y23085786D01*
X18393142Y23121500D01*
X18464571Y23121500D01*
X18571714Y23085786D01*
X19000285Y22657215D01*
X19000285Y23121500D01*
X22050285Y21300072D02*
X22050285Y21728643D01*
X22800285Y21514358D02*
X22050285Y21514358D01*
X22728857Y22407215D02*
X22764571Y22371500D01*
X22800285Y22264358D01*
X22800285Y22192929D01*
X22764571Y22085786D01*
X22693142Y22014358D01*
X22621714Y21978643D01*
X22478857Y21942929D01*
X22371714Y21942929D01*
X22228857Y21978643D01*
X22157428Y22014358D01*
X22086000Y22085786D01*
X22050285Y22192929D01*
X22050285Y22264358D01*
X22086000Y22371500D01*
X22121714Y22407215D01*
X22800285Y23121500D02*
X22800285Y22692929D01*
X22800285Y22907215D02*
X22050285Y22907215D01*
X22157428Y22835786D01*
X22228857Y22764358D01*
X22264571Y22692929D01*
X17582428Y9592929D02*
X18153857Y9592929D01*
X17868142Y9307215D02*
X17868142Y9878643D01*
X21368142Y9592929D02*
X21939571Y9592929D01*
X9582428Y9592929D02*
X10153857Y9592929D01*
X9868142Y9307215D02*
X9868142Y9878643D01*
X13368142Y9592929D02*
X13939571Y9592929D01*
X61007428Y1457215D02*
X60650285Y1457215D01*
X60614571Y1100072D01*
X60650285Y1135786D01*
X60721714Y1171500D01*
X60900285Y1171500D01*
X60971714Y1135786D01*
X61007428Y1100072D01*
X61043142Y1028643D01*
X61043142Y850072D01*
X61007428Y778643D01*
X60971714Y742929D01*
X60900285Y707215D01*
X60721714Y707215D01*
X60650285Y742929D01*
X60614571Y778643D01*
X61257428Y1457215D02*
X61507428Y707215D01*
X61757428Y1457215D01*
X63043142Y1457215D02*
X63293142Y707215D01*
X63543142Y1457215D01*
X63793142Y707215D02*
X63793142Y1207215D01*
X63793142Y1457215D02*
X63757428Y1421500D01*
X63793142Y1385786D01*
X63828857Y1421500D01*
X63793142Y1457215D01*
X63793142Y1385786D01*
X64150285Y1207215D02*
X64150285Y707215D01*
X64150285Y1135786D02*
X64186000Y1171500D01*
X64257428Y1207215D01*
X64364571Y1207215D01*
X64436000Y1171500D01*
X64471714Y1100072D01*
X64471714Y707215D01*
X85739571Y5192929D02*
X86311000Y5192929D01*
X86025285Y4907215D02*
X86025285Y5478643D01*
X87811000Y5192929D02*
X88382428Y5192929D01*
X79239571Y5192929D02*
X79811000Y5192929D01*
X79525285Y4907215D02*
X79525285Y5478643D01*
X81311000Y5192929D02*
X81882428Y5192929D01*
D11*
X96539571Y8646500D02*
X98039571Y9646500D01*
X96539571Y9646500D02*
X98039571Y8646500D01*
X97125285Y30746500D02*
X97839571Y30746500D01*
X96339571Y30246500D02*
X97125285Y30746500D01*
X96339571Y31246500D01*
X96953857Y51310786D02*
X96953857Y51810786D01*
X97739571Y52025072D02*
X97739571Y51310786D01*
X96239571Y51310786D01*
X96239571Y52025072D01*
X97739571Y53453643D02*
X97739571Y52596500D01*
X97739571Y53025072D02*
X96239571Y53025072D01*
X96453857Y52882215D01*
X96596714Y52739358D01*
X96668142Y52596500D01*
X96653857Y71810786D02*
X96653857Y72310786D01*
X97439571Y72525072D02*
X97439571Y71810786D01*
X95939571Y71810786D01*
X95939571Y72525072D01*
X96082428Y73096500D02*
X96011000Y73167929D01*
X95939571Y73310786D01*
X95939571Y73667929D01*
X96011000Y73810786D01*
X96082428Y73882215D01*
X96225285Y73953643D01*
X96368142Y73953643D01*
X96582428Y73882215D01*
X97439571Y73025072D01*
X97439571Y73953643D01*
X50261000Y96425072D02*
X49261000Y96425072D01*
X50261000Y97925072D01*
X49261000Y97925072D01*
D10*
X5114571Y77360786D02*
X5114571Y77932215D01*
X5400285Y77646500D02*
X4828857Y77646500D01*
X5014571Y86860786D02*
X5014571Y87432215D01*
X15175285Y87292929D02*
X15746714Y87292929D01*
X15461000Y87007215D02*
X15461000Y87578643D01*
X9675285Y87292929D02*
X10246714Y87292929D01*
D13*
G36*
X4564910Y72204152D02*
G01*
X4643454Y72203722D01*
X4700298Y72202558D01*
X4739105Y72200293D01*
X4763538Y72196560D01*
X4777262Y72190994D01*
X4783940Y72183227D01*
X4787236Y72172895D01*
X4787556Y72171557D01*
X4792562Y72147421D01*
X4801829Y72099799D01*
X4814392Y72033759D01*
X4829287Y71954372D01*
X4845551Y71866704D01*
X4846119Y71863625D01*
X4862410Y71777711D01*
X4877652Y71701804D01*
X4890861Y71640455D01*
X4901054Y71598218D01*
X4907248Y71579645D01*
X4907543Y71579316D01*
X4925788Y71570247D01*
X4963405Y71555133D01*
X5012271Y71537238D01*
X5012543Y71537142D01*
X5074093Y71514007D01*
X5146657Y71484535D01*
X5215057Y71454903D01*
X5218294Y71453438D01*
X5329702Y71402874D01*
X5576399Y71571340D01*
X5652077Y71622697D01*
X5720631Y71668611D01*
X5778088Y71706470D01*
X5820476Y71733663D01*
X5843825Y71747579D01*
X5846042Y71748611D01*
X5863010Y71744016D01*
X5894701Y71721845D01*
X5942352Y71681053D01*
X6007198Y71620595D01*
X6073397Y71556273D01*
X6137214Y71492888D01*
X6194329Y71435049D01*
X6241305Y71386325D01*
X6274703Y71350290D01*
X6291085Y71330516D01*
X6291694Y71329498D01*
X6293505Y71315928D01*
X6286683Y71293767D01*
X6269540Y71260022D01*
X6240393Y71211700D01*
X6197555Y71145808D01*
X6140448Y71060983D01*
X6089766Y70986323D01*
X6044461Y70919360D01*
X6007150Y70863984D01*
X5980452Y70824080D01*
X5966985Y70803538D01*
X5966137Y70802144D01*
X5967781Y70782462D01*
X5980245Y70744207D01*
X6001048Y70694611D01*
X6008462Y70678772D01*
X6040814Y70608210D01*
X6075328Y70528147D01*
X6103365Y70458871D01*
X6123568Y70407455D01*
X6139615Y70368381D01*
X6148888Y70347959D01*
X6150041Y70346386D01*
X6167096Y70343779D01*
X6207298Y70336637D01*
X6265302Y70325977D01*
X6335763Y70312815D01*
X6413335Y70298167D01*
X6492672Y70283051D01*
X6568431Y70268482D01*
X6635264Y70255478D01*
X6687828Y70245055D01*
X6720776Y70238230D01*
X6728857Y70236301D01*
X6737205Y70231538D01*
X6743506Y70220782D01*
X6748045Y70200402D01*
X6751104Y70166766D01*
X6752967Y70116245D01*
X6753918Y70045208D01*
X6754240Y69950024D01*
X6754257Y69911008D01*
X6754257Y69593701D01*
X6678057Y69578661D01*
X6635663Y69570505D01*
X6572400Y69558601D01*
X6495962Y69544384D01*
X6414043Y69529290D01*
X6391400Y69525145D01*
X6315806Y69510447D01*
X6249953Y69495995D01*
X6199366Y69483125D01*
X6169574Y69473178D01*
X6164612Y69470213D01*
X6152426Y69449217D01*
X6134953Y69408533D01*
X6115577Y69356178D01*
X6111734Y69344900D01*
X6086339Y69274977D01*
X6054817Y69196082D01*
X6023969Y69125234D01*
X6023817Y69124905D01*
X5972447Y69013767D01*
X6141399Y68765247D01*
X6310352Y68516728D01*
X6093429Y68299442D01*
X6027819Y68234774D01*
X5967979Y68177767D01*
X5917267Y68131467D01*
X5879046Y68098916D01*
X5856675Y68083157D01*
X5853466Y68082157D01*
X5834626Y68090031D01*
X5796180Y68111922D01*
X5742330Y68145233D01*
X5677276Y68187369D01*
X5606940Y68234557D01*
X5535555Y68282690D01*
X5471908Y68324572D01*
X5420041Y68357629D01*
X5383995Y68379282D01*
X5367867Y68386957D01*
X5348189Y68380463D01*
X5310875Y68363350D01*
X5263621Y68339174D01*
X5258612Y68336487D01*
X5194977Y68304573D01*
X5151341Y68288921D01*
X5124202Y68288755D01*
X5110057Y68303296D01*
X5109975Y68303500D01*
X5102905Y68320721D01*
X5086042Y68361601D01*
X5060695Y68422975D01*
X5028171Y68501681D01*
X4989778Y68594553D01*
X4946822Y68698428D01*
X4905222Y68798998D01*
X4859504Y68909984D01*
X4817526Y69012797D01*
X4780548Y69104285D01*
X4749827Y69181299D01*
X4726622Y69240685D01*
X4712190Y69279291D01*
X4707743Y69293700D01*
X4718896Y69310228D01*
X4748069Y69336570D01*
X4786971Y69365613D01*
X4897757Y69457461D01*
X4984351Y69562741D01*
X5045716Y69679234D01*
X5080815Y69804724D01*
X5088608Y69936993D01*
X5082943Y69998043D01*
X5052078Y70124705D01*
X4998920Y70236559D01*
X4926767Y70332499D01*
X4838917Y70411424D01*
X4738665Y70472230D01*
X4629310Y70513813D01*
X4514147Y70535072D01*
X4396475Y70534901D01*
X4279590Y70512199D01*
X4166789Y70465862D01*
X4061369Y70394787D01*
X4017368Y70354589D01*
X3932979Y70251371D01*
X3874222Y70138575D01*
X3840704Y70019490D01*
X3832035Y69897405D01*
X3847823Y69775607D01*
X3887678Y69657384D01*
X3951207Y69546025D01*
X4038021Y69444816D01*
X4135029Y69365613D01*
X4175437Y69335338D01*
X4203982Y69309281D01*
X4214257Y69293675D01*
X4208877Y69276657D01*
X4193575Y69236000D01*
X4169612Y69174858D01*
X4138244Y69096381D01*
X4100732Y69003720D01*
X4058333Y68900028D01*
X4016663Y68798974D01*
X3970690Y68687893D01*
X3928107Y68584959D01*
X3890221Y68493335D01*
X3858340Y68416184D01*
X3833771Y68356669D01*
X3817820Y68317956D01*
X3811910Y68303500D01*
X3797948Y68288815D01*
X3770940Y68288858D01*
X3727413Y68304401D01*
X3663890Y68336216D01*
X3663388Y68336487D01*
X3615560Y68361177D01*
X3576897Y68379162D01*
X3555095Y68386886D01*
X3554133Y68386957D01*
X3537721Y68379122D01*
X3501487Y68357335D01*
X3449474Y68324172D01*
X3385725Y68282209D01*
X3315060Y68234557D01*
X3243116Y68186309D01*
X3178274Y68144349D01*
X3124735Y68111273D01*
X3086697Y68089679D01*
X3068533Y68082157D01*
X3051808Y68092043D01*
X3018180Y68119674D01*
X2971010Y68162005D01*
X2913658Y68215995D01*
X2849484Y68278601D01*
X2828497Y68299517D01*
X2611499Y68516877D01*
X2776668Y68759280D01*
X2826864Y68833719D01*
X2870919Y68900528D01*
X2906362Y68955835D01*
X2930719Y68995771D01*
X2941522Y69016464D01*
X2941838Y69017937D01*
X2936143Y69037442D01*
X2920826Y69076678D01*
X2898537Y69129070D01*
X2882893Y69164145D01*
X2853641Y69231299D01*
X2826094Y69299142D01*
X2804737Y69356466D01*
X2798935Y69373928D01*
X2782452Y69420562D01*
X2766340Y69456595D01*
X2757490Y69470213D01*
X2737960Y69478548D01*
X2695334Y69490363D01*
X2635145Y69504319D01*
X2562922Y69519078D01*
X2530600Y69525145D01*
X2448522Y69540227D01*
X2369795Y69554831D01*
X2302109Y69567520D01*
X2253160Y69576858D01*
X2243943Y69578661D01*
X2167743Y69593701D01*
X2167743Y69911008D01*
X2167914Y70015346D01*
X2168616Y70094287D01*
X2170134Y70151462D01*
X2172749Y70190501D01*
X2176746Y70215035D01*
X2182409Y70228695D01*
X2190020Y70235111D01*
X2193143Y70236301D01*
X2211978Y70240520D01*
X2253588Y70248938D01*
X2312630Y70260539D01*
X2383757Y70274305D01*
X2461625Y70289220D01*
X2540887Y70304268D01*
X2616198Y70318431D01*
X2682213Y70330694D01*
X2733587Y70340039D01*
X2764975Y70345450D01*
X2771959Y70346386D01*
X2778285Y70358904D01*
X2792290Y70392254D01*
X2811355Y70440123D01*
X2818634Y70458871D01*
X2847996Y70531305D01*
X2882571Y70611330D01*
X2913537Y70678772D01*
X2936323Y70730341D01*
X2951482Y70772715D01*
X2956542Y70798666D01*
X2955736Y70802144D01*
X2945041Y70818564D01*
X2920620Y70855083D01*
X2885095Y70907813D01*
X2841087Y70972865D01*
X2791217Y71046349D01*
X2781356Y71060855D01*
X2723492Y71146796D01*
X2680956Y71212239D01*
X2652054Y71260196D01*
X2635090Y71293680D01*
X2628367Y71315705D01*
X2630190Y71329283D01*
X2630236Y71329369D01*
X2644586Y71347203D01*
X2676323Y71381683D01*
X2722010Y71429232D01*
X2778204Y71486278D01*
X2841468Y71549245D01*
X2848602Y71556273D01*
X2928330Y71633480D01*
X2989857Y71690170D01*
X3034421Y71727390D01*
X3063257Y71746185D01*
X3075958Y71748611D01*
X3094494Y71738029D01*
X3132961Y71713584D01*
X3187386Y71677888D01*
X3253798Y71633553D01*
X3328225Y71583189D01*
X3345601Y71571340D01*
X3592297Y71402874D01*
X3703706Y71453438D01*
X3771457Y71482905D01*
X3844183Y71512541D01*
X3906703Y71536170D01*
X3909457Y71537142D01*
X3958360Y71555043D01*
X3996057Y71570180D01*
X4014425Y71579290D01*
X4014456Y71579316D01*
X4020285Y71595783D01*
X4030192Y71636281D01*
X4043195Y71696258D01*
X4058309Y71771160D01*
X4074552Y71856436D01*
X4075881Y71863625D01*
X4092175Y71951486D01*
X4107133Y72031240D01*
X4119791Y72097819D01*
X4129186Y72146153D01*
X4134354Y72171175D01*
X4134444Y72171557D01*
X4137589Y72182201D01*
X4143704Y72190238D01*
X4156453Y72196033D01*
X4179500Y72199953D01*
X4216509Y72202365D01*
X4271144Y72203635D01*
X4347067Y72204129D01*
X4447944Y72204214D01*
X4461000Y72204214D01*
X4564910Y72204152D01*
X4564910Y72204152D01*
G37*
X4564910Y72204152D02*
X4643454Y72203722D01*
X4700298Y72202558D01*
X4739105Y72200293D01*
X4763538Y72196560D01*
X4777262Y72190994D01*
X4783940Y72183227D01*
X4787236Y72172895D01*
X4787556Y72171557D01*
X4792562Y72147421D01*
X4801829Y72099799D01*
X4814392Y72033759D01*
X4829287Y71954372D01*
X4845551Y71866704D01*
X4846119Y71863625D01*
X4862410Y71777711D01*
X4877652Y71701804D01*
X4890861Y71640455D01*
X4901054Y71598218D01*
X4907248Y71579645D01*
X4907543Y71579316D01*
X4925788Y71570247D01*
X4963405Y71555133D01*
X5012271Y71537238D01*
X5012543Y71537142D01*
X5074093Y71514007D01*
X5146657Y71484535D01*
X5215057Y71454903D01*
X5218294Y71453438D01*
X5329702Y71402874D01*
X5576399Y71571340D01*
X5652077Y71622697D01*
X5720631Y71668611D01*
X5778088Y71706470D01*
X5820476Y71733663D01*
X5843825Y71747579D01*
X5846042Y71748611D01*
X5863010Y71744016D01*
X5894701Y71721845D01*
X5942352Y71681053D01*
X6007198Y71620595D01*
X6073397Y71556273D01*
X6137214Y71492888D01*
X6194329Y71435049D01*
X6241305Y71386325D01*
X6274703Y71350290D01*
X6291085Y71330516D01*
X6291694Y71329498D01*
X6293505Y71315928D01*
X6286683Y71293767D01*
X6269540Y71260022D01*
X6240393Y71211700D01*
X6197555Y71145808D01*
X6140448Y71060983D01*
X6089766Y70986323D01*
X6044461Y70919360D01*
X6007150Y70863984D01*
X5980452Y70824080D01*
X5966985Y70803538D01*
X5966137Y70802144D01*
X5967781Y70782462D01*
X5980245Y70744207D01*
X6001048Y70694611D01*
X6008462Y70678772D01*
X6040814Y70608210D01*
X6075328Y70528147D01*
X6103365Y70458871D01*
X6123568Y70407455D01*
X6139615Y70368381D01*
X6148888Y70347959D01*
X6150041Y70346386D01*
X6167096Y70343779D01*
X6207298Y70336637D01*
X6265302Y70325977D01*
X6335763Y70312815D01*
X6413335Y70298167D01*
X6492672Y70283051D01*
X6568431Y70268482D01*
X6635264Y70255478D01*
X6687828Y70245055D01*
X6720776Y70238230D01*
X6728857Y70236301D01*
X6737205Y70231538D01*
X6743506Y70220782D01*
X6748045Y70200402D01*
X6751104Y70166766D01*
X6752967Y70116245D01*
X6753918Y70045208D01*
X6754240Y69950024D01*
X6754257Y69911008D01*
X6754257Y69593701D01*
X6678057Y69578661D01*
X6635663Y69570505D01*
X6572400Y69558601D01*
X6495962Y69544384D01*
X6414043Y69529290D01*
X6391400Y69525145D01*
X6315806Y69510447D01*
X6249953Y69495995D01*
X6199366Y69483125D01*
X6169574Y69473178D01*
X6164612Y69470213D01*
X6152426Y69449217D01*
X6134953Y69408533D01*
X6115577Y69356178D01*
X6111734Y69344900D01*
X6086339Y69274977D01*
X6054817Y69196082D01*
X6023969Y69125234D01*
X6023817Y69124905D01*
X5972447Y69013767D01*
X6141399Y68765247D01*
X6310352Y68516728D01*
X6093429Y68299442D01*
X6027819Y68234774D01*
X5967979Y68177767D01*
X5917267Y68131467D01*
X5879046Y68098916D01*
X5856675Y68083157D01*
X5853466Y68082157D01*
X5834626Y68090031D01*
X5796180Y68111922D01*
X5742330Y68145233D01*
X5677276Y68187369D01*
X5606940Y68234557D01*
X5535555Y68282690D01*
X5471908Y68324572D01*
X5420041Y68357629D01*
X5383995Y68379282D01*
X5367867Y68386957D01*
X5348189Y68380463D01*
X5310875Y68363350D01*
X5263621Y68339174D01*
X5258612Y68336487D01*
X5194977Y68304573D01*
X5151341Y68288921D01*
X5124202Y68288755D01*
X5110057Y68303296D01*
X5109975Y68303500D01*
X5102905Y68320721D01*
X5086042Y68361601D01*
X5060695Y68422975D01*
X5028171Y68501681D01*
X4989778Y68594553D01*
X4946822Y68698428D01*
X4905222Y68798998D01*
X4859504Y68909984D01*
X4817526Y69012797D01*
X4780548Y69104285D01*
X4749827Y69181299D01*
X4726622Y69240685D01*
X4712190Y69279291D01*
X4707743Y69293700D01*
X4718896Y69310228D01*
X4748069Y69336570D01*
X4786971Y69365613D01*
X4897757Y69457461D01*
X4984351Y69562741D01*
X5045716Y69679234D01*
X5080815Y69804724D01*
X5088608Y69936993D01*
X5082943Y69998043D01*
X5052078Y70124705D01*
X4998920Y70236559D01*
X4926767Y70332499D01*
X4838917Y70411424D01*
X4738665Y70472230D01*
X4629310Y70513813D01*
X4514147Y70535072D01*
X4396475Y70534901D01*
X4279590Y70512199D01*
X4166789Y70465862D01*
X4061369Y70394787D01*
X4017368Y70354589D01*
X3932979Y70251371D01*
X3874222Y70138575D01*
X3840704Y70019490D01*
X3832035Y69897405D01*
X3847823Y69775607D01*
X3887678Y69657384D01*
X3951207Y69546025D01*
X4038021Y69444816D01*
X4135029Y69365613D01*
X4175437Y69335338D01*
X4203982Y69309281D01*
X4214257Y69293675D01*
X4208877Y69276657D01*
X4193575Y69236000D01*
X4169612Y69174858D01*
X4138244Y69096381D01*
X4100732Y69003720D01*
X4058333Y68900028D01*
X4016663Y68798974D01*
X3970690Y68687893D01*
X3928107Y68584959D01*
X3890221Y68493335D01*
X3858340Y68416184D01*
X3833771Y68356669D01*
X3817820Y68317956D01*
X3811910Y68303500D01*
X3797948Y68288815D01*
X3770940Y68288858D01*
X3727413Y68304401D01*
X3663890Y68336216D01*
X3663388Y68336487D01*
X3615560Y68361177D01*
X3576897Y68379162D01*
X3555095Y68386886D01*
X3554133Y68386957D01*
X3537721Y68379122D01*
X3501487Y68357335D01*
X3449474Y68324172D01*
X3385725Y68282209D01*
X3315060Y68234557D01*
X3243116Y68186309D01*
X3178274Y68144349D01*
X3124735Y68111273D01*
X3086697Y68089679D01*
X3068533Y68082157D01*
X3051808Y68092043D01*
X3018180Y68119674D01*
X2971010Y68162005D01*
X2913658Y68215995D01*
X2849484Y68278601D01*
X2828497Y68299517D01*
X2611499Y68516877D01*
X2776668Y68759280D01*
X2826864Y68833719D01*
X2870919Y68900528D01*
X2906362Y68955835D01*
X2930719Y68995771D01*
X2941522Y69016464D01*
X2941838Y69017937D01*
X2936143Y69037442D01*
X2920826Y69076678D01*
X2898537Y69129070D01*
X2882893Y69164145D01*
X2853641Y69231299D01*
X2826094Y69299142D01*
X2804737Y69356466D01*
X2798935Y69373928D01*
X2782452Y69420562D01*
X2766340Y69456595D01*
X2757490Y69470213D01*
X2737960Y69478548D01*
X2695334Y69490363D01*
X2635145Y69504319D01*
X2562922Y69519078D01*
X2530600Y69525145D01*
X2448522Y69540227D01*
X2369795Y69554831D01*
X2302109Y69567520D01*
X2253160Y69576858D01*
X2243943Y69578661D01*
X2167743Y69593701D01*
X2167743Y69911008D01*
X2167914Y70015346D01*
X2168616Y70094287D01*
X2170134Y70151462D01*
X2172749Y70190501D01*
X2176746Y70215035D01*
X2182409Y70228695D01*
X2190020Y70235111D01*
X2193143Y70236301D01*
X2211978Y70240520D01*
X2253588Y70248938D01*
X2312630Y70260539D01*
X2383757Y70274305D01*
X2461625Y70289220D01*
X2540887Y70304268D01*
X2616198Y70318431D01*
X2682213Y70330694D01*
X2733587Y70340039D01*
X2764975Y70345450D01*
X2771959Y70346386D01*
X2778285Y70358904D01*
X2792290Y70392254D01*
X2811355Y70440123D01*
X2818634Y70458871D01*
X2847996Y70531305D01*
X2882571Y70611330D01*
X2913537Y70678772D01*
X2936323Y70730341D01*
X2951482Y70772715D01*
X2956542Y70798666D01*
X2955736Y70802144D01*
X2945041Y70818564D01*
X2920620Y70855083D01*
X2885095Y70907813D01*
X2841087Y70972865D01*
X2791217Y71046349D01*
X2781356Y71060855D01*
X2723492Y71146796D01*
X2680956Y71212239D01*
X2652054Y71260196D01*
X2635090Y71293680D01*
X2628367Y71315705D01*
X2630190Y71329283D01*
X2630236Y71329369D01*
X2644586Y71347203D01*
X2676323Y71381683D01*
X2722010Y71429232D01*
X2778204Y71486278D01*
X2841468Y71549245D01*
X2848602Y71556273D01*
X2928330Y71633480D01*
X2989857Y71690170D01*
X3034421Y71727390D01*
X3063257Y71746185D01*
X3075958Y71748611D01*
X3094494Y71738029D01*
X3132961Y71713584D01*
X3187386Y71677888D01*
X3253798Y71633553D01*
X3328225Y71583189D01*
X3345601Y71571340D01*
X3592297Y71402874D01*
X3703706Y71453438D01*
X3771457Y71482905D01*
X3844183Y71512541D01*
X3906703Y71536170D01*
X3909457Y71537142D01*
X3958360Y71555043D01*
X3996057Y71570180D01*
X4014425Y71579290D01*
X4014456Y71579316D01*
X4020285Y71595783D01*
X4030192Y71636281D01*
X4043195Y71696258D01*
X4058309Y71771160D01*
X4074552Y71856436D01*
X4075881Y71863625D01*
X4092175Y71951486D01*
X4107133Y72031240D01*
X4119791Y72097819D01*
X4129186Y72146153D01*
X4134354Y72171175D01*
X4134444Y72171557D01*
X4137589Y72182201D01*
X4143704Y72190238D01*
X4156453Y72196033D01*
X4179500Y72199953D01*
X4216509Y72202365D01*
X4271144Y72203635D01*
X4347067Y72204129D01*
X4447944Y72204214D01*
X4461000Y72204214D01*
X4564910Y72204152D01*
G36*
X7614595Y67479534D02*
G01*
X7672021Y67442003D01*
X7699719Y67408404D01*
X7721662Y67347436D01*
X7723405Y67299192D01*
X7719457Y67234684D01*
X7570686Y67169566D01*
X7498349Y67136298D01*
X7451084Y67109536D01*
X7426507Y67086356D01*
X7422237Y67063833D01*
X7435889Y67039045D01*
X7450943Y67022614D01*
X7494746Y66996265D01*
X7542389Y66994419D01*
X7586145Y67014954D01*
X7618289Y67055748D01*
X7624038Y67070153D01*
X7651576Y67115144D01*
X7683258Y67134318D01*
X7726714Y67150721D01*
X7726714Y67088534D01*
X7722872Y67046217D01*
X7707823Y67010531D01*
X7676280Y66969557D01*
X7671592Y66964233D01*
X7636506Y66927780D01*
X7606347Y66908217D01*
X7568615Y66899217D01*
X7537335Y66896270D01*
X7481385Y66895535D01*
X7441555Y66904840D01*
X7416708Y66918654D01*
X7377656Y66949033D01*
X7350625Y66981887D01*
X7333517Y67023206D01*
X7324238Y67078979D01*
X7320693Y67155195D01*
X7320410Y67193878D01*
X7321372Y67240253D01*
X7409007Y67240253D01*
X7410023Y67215374D01*
X7412556Y67211300D01*
X7429274Y67216835D01*
X7465249Y67231483D01*
X7513331Y67252310D01*
X7523386Y67256786D01*
X7584152Y67287686D01*
X7617632Y67314843D01*
X7624990Y67340280D01*
X7607391Y67366019D01*
X7592856Y67377391D01*
X7540410Y67400136D01*
X7491322Y67396378D01*
X7450227Y67368616D01*
X7421758Y67319348D01*
X7412631Y67280243D01*
X7409007Y67240253D01*
X7321372Y67240253D01*
X7322285Y67284251D01*
X7329196Y67351116D01*
X7342884Y67399805D01*
X7365096Y67435651D01*
X7397574Y67463987D01*
X7411733Y67473145D01*
X7476053Y67496993D01*
X7546473Y67498494D01*
X7614595Y67479534D01*
X7614595Y67479534D01*
G37*
X7614595Y67479534D02*
X7672021Y67442003D01*
X7699719Y67408404D01*
X7721662Y67347436D01*
X7723405Y67299192D01*
X7719457Y67234684D01*
X7570686Y67169566D01*
X7498349Y67136298D01*
X7451084Y67109536D01*
X7426507Y67086356D01*
X7422237Y67063833D01*
X7435889Y67039045D01*
X7450943Y67022614D01*
X7494746Y66996265D01*
X7542389Y66994419D01*
X7586145Y67014954D01*
X7618289Y67055748D01*
X7624038Y67070153D01*
X7651576Y67115144D01*
X7683258Y67134318D01*
X7726714Y67150721D01*
X7726714Y67088534D01*
X7722872Y67046217D01*
X7707823Y67010531D01*
X7676280Y66969557D01*
X7671592Y66964233D01*
X7636506Y66927780D01*
X7606347Y66908217D01*
X7568615Y66899217D01*
X7537335Y66896270D01*
X7481385Y66895535D01*
X7441555Y66904840D01*
X7416708Y66918654D01*
X7377656Y66949033D01*
X7350625Y66981887D01*
X7333517Y67023206D01*
X7324238Y67078979D01*
X7320693Y67155195D01*
X7320410Y67193878D01*
X7321372Y67240253D01*
X7409007Y67240253D01*
X7410023Y67215374D01*
X7412556Y67211300D01*
X7429274Y67216835D01*
X7465249Y67231483D01*
X7513331Y67252310D01*
X7523386Y67256786D01*
X7584152Y67287686D01*
X7617632Y67314843D01*
X7624990Y67340280D01*
X7607391Y67366019D01*
X7592856Y67377391D01*
X7540410Y67400136D01*
X7491322Y67396378D01*
X7450227Y67368616D01*
X7421758Y67319348D01*
X7412631Y67280243D01*
X7409007Y67240253D01*
X7321372Y67240253D01*
X7322285Y67284251D01*
X7329196Y67351116D01*
X7342884Y67399805D01*
X7365096Y67435651D01*
X7397574Y67463987D01*
X7411733Y67473145D01*
X7476053Y67496993D01*
X7546473Y67498494D01*
X7614595Y67479534D01*
G36*
X7113600Y67487748D02*
G01*
X7130948Y67480166D01*
X7172356Y67447372D01*
X7207765Y67399953D01*
X7229664Y67349349D01*
X7233229Y67324402D01*
X7221279Y67289573D01*
X7195067Y67271143D01*
X7166964Y67259984D01*
X7154095Y67257928D01*
X7147829Y67272851D01*
X7135456Y67305325D01*
X7130028Y67319998D01*
X7099590Y67370756D01*
X7055520Y67396073D01*
X6999010Y67395294D01*
X6994825Y67394297D01*
X6964655Y67379993D01*
X6942476Y67352107D01*
X6927327Y67307213D01*
X6918250Y67241885D01*
X6914286Y67152696D01*
X6913914Y67105239D01*
X6913730Y67030429D01*
X6912522Y66979431D01*
X6909309Y66947029D01*
X6903109Y66928005D01*
X6892940Y66917144D01*
X6877819Y66909228D01*
X6876946Y66908830D01*
X6847828Y66896519D01*
X6833403Y66891986D01*
X6831186Y66905691D01*
X6829289Y66943575D01*
X6827847Y67000785D01*
X6826998Y67072473D01*
X6826829Y67124935D01*
X6827692Y67226453D01*
X6831070Y67303468D01*
X6838142Y67360477D01*
X6850088Y67401974D01*
X6868090Y67432457D01*
X6893327Y67456420D01*
X6918247Y67473145D01*
X6978171Y67495403D01*
X7047911Y67500424D01*
X7113600Y67487748D01*
X7113600Y67487748D01*
G37*
X7113600Y67487748D02*
X7130948Y67480166D01*
X7172356Y67447372D01*
X7207765Y67399953D01*
X7229664Y67349349D01*
X7233229Y67324402D01*
X7221279Y67289573D01*
X7195067Y67271143D01*
X7166964Y67259984D01*
X7154095Y67257928D01*
X7147829Y67272851D01*
X7135456Y67305325D01*
X7130028Y67319998D01*
X7099590Y67370756D01*
X7055520Y67396073D01*
X6999010Y67395294D01*
X6994825Y67394297D01*
X6964655Y67379993D01*
X6942476Y67352107D01*
X6927327Y67307213D01*
X6918250Y67241885D01*
X6914286Y67152696D01*
X6913914Y67105239D01*
X6913730Y67030429D01*
X6912522Y66979431D01*
X6909309Y66947029D01*
X6903109Y66928005D01*
X6892940Y66917144D01*
X6877819Y66909228D01*
X6876946Y66908830D01*
X6847828Y66896519D01*
X6833403Y66891986D01*
X6831186Y66905691D01*
X6829289Y66943575D01*
X6827847Y67000785D01*
X6826998Y67072473D01*
X6826829Y67124935D01*
X6827692Y67226453D01*
X6831070Y67303468D01*
X6838142Y67360477D01*
X6850088Y67401974D01*
X6868090Y67432457D01*
X6893327Y67456420D01*
X6918247Y67473145D01*
X6978171Y67495403D01*
X7047911Y67500424D01*
X7113600Y67487748D01*
G36*
X6605876Y67490165D02*
G01*
X6647667Y67471156D01*
X6680469Y67448122D01*
X6704503Y67422367D01*
X6721097Y67389142D01*
X6731577Y67343700D01*
X6737271Y67281293D01*
X6739507Y67197173D01*
X6739743Y67141779D01*
X6739743Y66925674D01*
X6702774Y66908830D01*
X6673656Y66896519D01*
X6659231Y66891986D01*
X6656472Y66905475D01*
X6654282Y66941847D01*
X6652942Y66994958D01*
X6652657Y67037128D01*
X6651434Y67098053D01*
X6648136Y67146385D01*
X6643321Y67175982D01*
X6639496Y67182271D01*
X6613783Y67175848D01*
X6573418Y67159375D01*
X6526679Y67137042D01*
X6481845Y67113043D01*
X6447193Y67091570D01*
X6431002Y67076815D01*
X6430938Y67076655D01*
X6432330Y67049348D01*
X6444818Y67023281D01*
X6466743Y67002108D01*
X6498743Y66995026D01*
X6526092Y66995851D01*
X6564826Y66996458D01*
X6585158Y66987384D01*
X6597369Y66963408D01*
X6598909Y66958887D01*
X6604203Y66924694D01*
X6590047Y66903932D01*
X6553148Y66894038D01*
X6513289Y66892208D01*
X6441562Y66905773D01*
X6404432Y66925145D01*
X6358576Y66970655D01*
X6334256Y67026517D01*
X6332073Y67085543D01*
X6352629Y67140547D01*
X6383549Y67175014D01*
X6414420Y67194311D01*
X6462942Y67218741D01*
X6519485Y67243515D01*
X6528910Y67247301D01*
X6591019Y67274709D01*
X6626822Y67298866D01*
X6638337Y67322881D01*
X6627580Y67349865D01*
X6609114Y67370957D01*
X6565469Y67396928D01*
X6517446Y67398876D01*
X6473406Y67378863D01*
X6441709Y67338949D01*
X6437549Y67328652D01*
X6413327Y67290776D01*
X6377965Y67262658D01*
X6333343Y67239583D01*
X6333343Y67305015D01*
X6335969Y67344994D01*
X6347230Y67376503D01*
X6372199Y67410122D01*
X6396169Y67436016D01*
X6433441Y67472683D01*
X6462401Y67492379D01*
X6493505Y67500280D01*
X6528713Y67501586D01*
X6605876Y67490165D01*
X6605876Y67490165D01*
G37*
X6605876Y67490165D02*
X6647667Y67471156D01*
X6680469Y67448122D01*
X6704503Y67422367D01*
X6721097Y67389142D01*
X6731577Y67343700D01*
X6737271Y67281293D01*
X6739507Y67197173D01*
X6739743Y67141779D01*
X6739743Y66925674D01*
X6702774Y66908830D01*
X6673656Y66896519D01*
X6659231Y66891986D01*
X6656472Y66905475D01*
X6654282Y66941847D01*
X6652942Y66994958D01*
X6652657Y67037128D01*
X6651434Y67098053D01*
X6648136Y67146385D01*
X6643321Y67175982D01*
X6639496Y67182271D01*
X6613783Y67175848D01*
X6573418Y67159375D01*
X6526679Y67137042D01*
X6481845Y67113043D01*
X6447193Y67091570D01*
X6431002Y67076815D01*
X6430938Y67076655D01*
X6432330Y67049348D01*
X6444818Y67023281D01*
X6466743Y67002108D01*
X6498743Y66995026D01*
X6526092Y66995851D01*
X6564826Y66996458D01*
X6585158Y66987384D01*
X6597369Y66963408D01*
X6598909Y66958887D01*
X6604203Y66924694D01*
X6590047Y66903932D01*
X6553148Y66894038D01*
X6513289Y66892208D01*
X6441562Y66905773D01*
X6404432Y66925145D01*
X6358576Y66970655D01*
X6334256Y67026517D01*
X6332073Y67085543D01*
X6352629Y67140547D01*
X6383549Y67175014D01*
X6414420Y67194311D01*
X6462942Y67218741D01*
X6519485Y67243515D01*
X6528910Y67247301D01*
X6591019Y67274709D01*
X6626822Y67298866D01*
X6638337Y67322881D01*
X6627580Y67349865D01*
X6609114Y67370957D01*
X6565469Y67396928D01*
X6517446Y67398876D01*
X6473406Y67378863D01*
X6441709Y67338949D01*
X6437549Y67328652D01*
X6413327Y67290776D01*
X6377965Y67262658D01*
X6333343Y67239583D01*
X6333343Y67305015D01*
X6335969Y67344994D01*
X6347230Y67376503D01*
X6372199Y67410122D01*
X6396169Y67436016D01*
X6433441Y67472683D01*
X6462401Y67492379D01*
X6493505Y67500280D01*
X6528713Y67501586D01*
X6605876Y67490165D01*
G36*
X6240833Y67487837D02*
G01*
X6243048Y67449650D01*
X6244784Y67391614D01*
X6245899Y67318320D01*
X6246257Y67241445D01*
X6246257Y66981304D01*
X6200326Y66935373D01*
X6168675Y66907071D01*
X6140890Y66895607D01*
X6102915Y66896332D01*
X6087840Y66898179D01*
X6040726Y66903552D01*
X6001756Y66906631D01*
X5992257Y66906915D01*
X5960233Y66905055D01*
X5914432Y66900386D01*
X5896674Y66898179D01*
X5853057Y66894765D01*
X5823745Y66902180D01*
X5794680Y66925073D01*
X5784188Y66935373D01*
X5738257Y66981304D01*
X5738257Y67467898D01*
X5775226Y67484742D01*
X5807059Y67497218D01*
X5825683Y67501586D01*
X5830458Y67487782D01*
X5834921Y67449214D01*
X5838775Y67390144D01*
X5841722Y67314837D01*
X5843143Y67251214D01*
X5847114Y67000843D01*
X5881759Y66995944D01*
X5913268Y66999369D01*
X5928708Y67010459D01*
X5933023Y67031192D01*
X5936708Y67075355D01*
X5939469Y67137354D01*
X5941012Y67211591D01*
X5941235Y67249794D01*
X5941457Y67469717D01*
X5987166Y67485651D01*
X6019518Y67496485D01*
X6037115Y67501538D01*
X6037623Y67501586D01*
X6039388Y67487852D01*
X6041329Y67449770D01*
X6043282Y67392018D01*
X6045084Y67319273D01*
X6046343Y67251214D01*
X6050314Y67000843D01*
X6137400Y67000843D01*
X6141396Y67229260D01*
X6145392Y67457678D01*
X6187847Y67479632D01*
X6219192Y67494707D01*
X6237744Y67501549D01*
X6238279Y67501586D01*
X6240833Y67487837D01*
X6240833Y67487837D01*
G37*
X6240833Y67487837D02*
X6243048Y67449650D01*
X6244784Y67391614D01*
X6245899Y67318320D01*
X6246257Y67241445D01*
X6246257Y66981304D01*
X6200326Y66935373D01*
X6168675Y66907071D01*
X6140890Y66895607D01*
X6102915Y66896332D01*
X6087840Y66898179D01*
X6040726Y66903552D01*
X6001756Y66906631D01*
X5992257Y66906915D01*
X5960233Y66905055D01*
X5914432Y66900386D01*
X5896674Y66898179D01*
X5853057Y66894765D01*
X5823745Y66902180D01*
X5794680Y66925073D01*
X5784188Y66935373D01*
X5738257Y66981304D01*
X5738257Y67467898D01*
X5775226Y67484742D01*
X5807059Y67497218D01*
X5825683Y67501586D01*
X5830458Y67487782D01*
X5834921Y67449214D01*
X5838775Y67390144D01*
X5841722Y67314837D01*
X5843143Y67251214D01*
X5847114Y67000843D01*
X5881759Y66995944D01*
X5913268Y66999369D01*
X5928708Y67010459D01*
X5933023Y67031192D01*
X5936708Y67075355D01*
X5939469Y67137354D01*
X5941012Y67211591D01*
X5941235Y67249794D01*
X5941457Y67469717D01*
X5987166Y67485651D01*
X6019518Y67496485D01*
X6037115Y67501538D01*
X6037623Y67501586D01*
X6039388Y67487852D01*
X6041329Y67449770D01*
X6043282Y67392018D01*
X6045084Y67319273D01*
X6046343Y67251214D01*
X6050314Y67000843D01*
X6137400Y67000843D01*
X6141396Y67229260D01*
X6145392Y67457678D01*
X6187847Y67479632D01*
X6219192Y67494707D01*
X6237744Y67501549D01*
X6238279Y67501586D01*
X6240833Y67487837D01*
G36*
X5651117Y67381142D02*
G01*
X5650933Y67272663D01*
X5650219Y67189213D01*
X5648675Y67126796D01*
X5646001Y67081415D01*
X5641894Y67049071D01*
X5636055Y67025767D01*
X5628182Y67007505D01*
X5622221Y66997082D01*
X5572855Y66940555D01*
X5510264Y66905123D01*
X5441013Y66892410D01*
X5371668Y66904037D01*
X5330375Y66924932D01*
X5287025Y66961078D01*
X5257481Y67005224D01*
X5239655Y67063038D01*
X5231463Y67140187D01*
X5230302Y67196786D01*
X5230458Y67200853D01*
X5331857Y67200853D01*
X5332476Y67135950D01*
X5335314Y67092986D01*
X5341840Y67064878D01*
X5353523Y67044547D01*
X5367483Y67029212D01*
X5414365Y66999610D01*
X5464701Y66997081D01*
X5512276Y67021795D01*
X5515979Y67025144D01*
X5531783Y67042565D01*
X5541693Y67063291D01*
X5547058Y67094138D01*
X5549228Y67141923D01*
X5549571Y67194752D01*
X5548827Y67261119D01*
X5545748Y67305394D01*
X5539061Y67334491D01*
X5527496Y67355327D01*
X5518013Y67366393D01*
X5473960Y67394302D01*
X5423224Y67397657D01*
X5374796Y67376341D01*
X5365450Y67368427D01*
X5349540Y67350853D01*
X5339610Y67329913D01*
X5334278Y67298718D01*
X5332163Y67250378D01*
X5331857Y67200853D01*
X5230458Y67200853D01*
X5233810Y67287932D01*
X5245726Y67356414D01*
X5268135Y67407900D01*
X5303124Y67448057D01*
X5330375Y67468639D01*
X5379907Y67490875D01*
X5437316Y67501196D01*
X5490682Y67498433D01*
X5520543Y67487288D01*
X5532261Y67484117D01*
X5540037Y67495943D01*
X5545465Y67527634D01*
X5549571Y67575907D01*
X5554067Y67629671D01*
X5560313Y67662018D01*
X5571676Y67680515D01*
X5591528Y67692730D01*
X5604000Y67698138D01*
X5651171Y67717899D01*
X5651117Y67381142D01*
X5651117Y67381142D01*
G37*
X5651117Y67381142D02*
X5650933Y67272663D01*
X5650219Y67189213D01*
X5648675Y67126796D01*
X5646001Y67081415D01*
X5641894Y67049071D01*
X5636055Y67025767D01*
X5628182Y67007505D01*
X5622221Y66997082D01*
X5572855Y66940555D01*
X5510264Y66905123D01*
X5441013Y66892410D01*
X5371668Y66904037D01*
X5330375Y66924932D01*
X5287025Y66961078D01*
X5257481Y67005224D01*
X5239655Y67063038D01*
X5231463Y67140187D01*
X5230302Y67196786D01*
X5230458Y67200853D01*
X5331857Y67200853D01*
X5332476Y67135950D01*
X5335314Y67092986D01*
X5341840Y67064878D01*
X5353523Y67044547D01*
X5367483Y67029212D01*
X5414365Y66999610D01*
X5464701Y66997081D01*
X5512276Y67021795D01*
X5515979Y67025144D01*
X5531783Y67042565D01*
X5541693Y67063291D01*
X5547058Y67094138D01*
X5549228Y67141923D01*
X5549571Y67194752D01*
X5548827Y67261119D01*
X5545748Y67305394D01*
X5539061Y67334491D01*
X5527496Y67355327D01*
X5518013Y67366393D01*
X5473960Y67394302D01*
X5423224Y67397657D01*
X5374796Y67376341D01*
X5365450Y67368427D01*
X5349540Y67350853D01*
X5339610Y67329913D01*
X5334278Y67298718D01*
X5332163Y67250378D01*
X5331857Y67200853D01*
X5230458Y67200853D01*
X5233810Y67287932D01*
X5245726Y67356414D01*
X5268135Y67407900D01*
X5303124Y67448057D01*
X5330375Y67468639D01*
X5379907Y67490875D01*
X5437316Y67501196D01*
X5490682Y67498433D01*
X5520543Y67487288D01*
X5532261Y67484117D01*
X5540037Y67495943D01*
X5545465Y67527634D01*
X5549571Y67575907D01*
X5554067Y67629671D01*
X5560313Y67662018D01*
X5571676Y67680515D01*
X5591528Y67692730D01*
X5604000Y67698138D01*
X5651171Y67717899D01*
X5651117Y67381142D01*
G36*
X4990926Y67496745D02*
G01*
X5056858Y67472416D01*
X5110273Y67429383D01*
X5131164Y67399091D01*
X5153939Y67343506D01*
X5153466Y67303314D01*
X5129562Y67276283D01*
X5120717Y67271687D01*
X5082530Y67257356D01*
X5063028Y67261028D01*
X5056422Y67285093D01*
X5056086Y67298386D01*
X5043992Y67347290D01*
X5012471Y67381501D01*
X4968659Y67398024D01*
X4919695Y67393866D01*
X4879894Y67372273D01*
X4866450Y67359956D01*
X4856921Y67345013D01*
X4850485Y67322425D01*
X4846317Y67287172D01*
X4843597Y67234234D01*
X4841502Y67158593D01*
X4840960Y67134643D01*
X4838981Y67052710D01*
X4836731Y66995045D01*
X4833357Y66956892D01*
X4828006Y66933496D01*
X4819824Y66920102D01*
X4807959Y66911955D01*
X4800362Y66908356D01*
X4768102Y66896048D01*
X4749111Y66891986D01*
X4742836Y66905552D01*
X4739006Y66946566D01*
X4737600Y67015501D01*
X4738598Y67112831D01*
X4738908Y67127843D01*
X4741101Y67216641D01*
X4743693Y67281481D01*
X4747382Y67327433D01*
X4752864Y67359565D01*
X4760835Y67382947D01*
X4771993Y67402648D01*
X4777830Y67411090D01*
X4811296Y67448443D01*
X4848727Y67477497D01*
X4853309Y67480033D01*
X4920426Y67500057D01*
X4990926Y67496745D01*
X4990926Y67496745D01*
G37*
X4990926Y67496745D02*
X5056858Y67472416D01*
X5110273Y67429383D01*
X5131164Y67399091D01*
X5153939Y67343506D01*
X5153466Y67303314D01*
X5129562Y67276283D01*
X5120717Y67271687D01*
X5082530Y67257356D01*
X5063028Y67261028D01*
X5056422Y67285093D01*
X5056086Y67298386D01*
X5043992Y67347290D01*
X5012471Y67381501D01*
X4968659Y67398024D01*
X4919695Y67393866D01*
X4879894Y67372273D01*
X4866450Y67359956D01*
X4856921Y67345013D01*
X4850485Y67322425D01*
X4846317Y67287172D01*
X4843597Y67234234D01*
X4841502Y67158593D01*
X4840960Y67134643D01*
X4838981Y67052710D01*
X4836731Y66995045D01*
X4833357Y66956892D01*
X4828006Y66933496D01*
X4819824Y66920102D01*
X4807959Y66911955D01*
X4800362Y66908356D01*
X4768102Y66896048D01*
X4749111Y66891986D01*
X4742836Y66905552D01*
X4739006Y66946566D01*
X4737600Y67015501D01*
X4738598Y67112831D01*
X4738908Y67127843D01*
X4741101Y67216641D01*
X4743693Y67281481D01*
X4747382Y67327433D01*
X4752864Y67359565D01*
X4760835Y67382947D01*
X4771993Y67402648D01*
X4777830Y67411090D01*
X4811296Y67448443D01*
X4848727Y67477497D01*
X4853309Y67480033D01*
X4920426Y67500057D01*
X4990926Y67496745D01*
G36*
X4500744Y67495532D02*
G01*
X4557616Y67474413D01*
X4558267Y67474007D01*
X4593440Y67448120D01*
X4619407Y67417867D01*
X4637670Y67378442D01*
X4649732Y67325038D01*
X4657096Y67252849D01*
X4661264Y67157068D01*
X4661629Y67143422D01*
X4666876Y66937658D01*
X4622716Y66914822D01*
X4590763Y66899390D01*
X4571470Y66892077D01*
X4570578Y66891986D01*
X4567239Y66905478D01*
X4564587Y66941874D01*
X4562956Y66995048D01*
X4562600Y67038107D01*
X4562592Y67107859D01*
X4559403Y67151663D01*
X4548288Y67172556D01*
X4524501Y67173575D01*
X4483296Y67157759D01*
X4421086Y67128685D01*
X4375341Y67104537D01*
X4351813Y67083587D01*
X4344896Y67060753D01*
X4344886Y67059623D01*
X4356299Y67020288D01*
X4390092Y66999038D01*
X4441809Y66995961D01*
X4479061Y66996494D01*
X4498703Y66985765D01*
X4510952Y66959995D01*
X4518002Y66927163D01*
X4507842Y66908534D01*
X4504017Y66905868D01*
X4468001Y66895160D01*
X4417566Y66893644D01*
X4365626Y66900741D01*
X4328822Y66913712D01*
X4277938Y66956915D01*
X4249014Y67017054D01*
X4243286Y67064038D01*
X4247657Y67106418D01*
X4263475Y67141012D01*
X4294797Y67171737D01*
X4345678Y67202510D01*
X4420176Y67237248D01*
X4424714Y67239212D01*
X4491821Y67270213D01*
X4533232Y67295638D01*
X4550981Y67318486D01*
X4547107Y67341755D01*
X4523643Y67368444D01*
X4516627Y67374586D01*
X4469630Y67398400D01*
X4420933Y67397397D01*
X4378522Y67374049D01*
X4350384Y67330825D01*
X4347769Y67322340D01*
X4322308Y67281192D01*
X4290001Y67261372D01*
X4243286Y67241730D01*
X4243286Y67292550D01*
X4257496Y67366418D01*
X4299675Y67434173D01*
X4321624Y67456839D01*
X4371517Y67485931D01*
X4434967Y67499100D01*
X4500744Y67495532D01*
X4500744Y67495532D01*
G37*
X4500744Y67495532D02*
X4557616Y67474413D01*
X4558267Y67474007D01*
X4593440Y67448120D01*
X4619407Y67417867D01*
X4637670Y67378442D01*
X4649732Y67325038D01*
X4657096Y67252849D01*
X4661264Y67157068D01*
X4661629Y67143422D01*
X4666876Y66937658D01*
X4622716Y66914822D01*
X4590763Y66899390D01*
X4571470Y66892077D01*
X4570578Y66891986D01*
X4567239Y66905478D01*
X4564587Y66941874D01*
X4562956Y66995048D01*
X4562600Y67038107D01*
X4562592Y67107859D01*
X4559403Y67151663D01*
X4548288Y67172556D01*
X4524501Y67173575D01*
X4483296Y67157759D01*
X4421086Y67128685D01*
X4375341Y67104537D01*
X4351813Y67083587D01*
X4344896Y67060753D01*
X4344886Y67059623D01*
X4356299Y67020288D01*
X4390092Y66999038D01*
X4441809Y66995961D01*
X4479061Y66996494D01*
X4498703Y66985765D01*
X4510952Y66959995D01*
X4518002Y66927163D01*
X4507842Y66908534D01*
X4504017Y66905868D01*
X4468001Y66895160D01*
X4417566Y66893644D01*
X4365626Y66900741D01*
X4328822Y66913712D01*
X4277938Y66956915D01*
X4249014Y67017054D01*
X4243286Y67064038D01*
X4247657Y67106418D01*
X4263475Y67141012D01*
X4294797Y67171737D01*
X4345678Y67202510D01*
X4420176Y67237248D01*
X4424714Y67239212D01*
X4491821Y67270213D01*
X4533232Y67295638D01*
X4550981Y67318486D01*
X4547107Y67341755D01*
X4523643Y67368444D01*
X4516627Y67374586D01*
X4469630Y67398400D01*
X4420933Y67397397D01*
X4378522Y67374049D01*
X4350384Y67330825D01*
X4347769Y67322340D01*
X4322308Y67281192D01*
X4290001Y67261372D01*
X4243286Y67241730D01*
X4243286Y67292550D01*
X4257496Y67366418D01*
X4299675Y67434173D01*
X4321624Y67456839D01*
X4371517Y67485931D01*
X4434967Y67499100D01*
X4500744Y67495532D01*
G36*
X3836886Y67595211D02*
G01*
X3841139Y67535887D01*
X3846025Y67500928D01*
X3852795Y67485680D01*
X3862702Y67485485D01*
X3865914Y67487305D01*
X3908644Y67500485D01*
X3964227Y67499715D01*
X4020737Y67486167D01*
X4056082Y67468639D01*
X4092321Y67440639D01*
X4118813Y67408951D01*
X4136999Y67368687D01*
X4148322Y67314957D01*
X4154222Y67242874D01*
X4156143Y67147549D01*
X4156177Y67129263D01*
X4156200Y66923854D01*
X4110491Y66907920D01*
X4078027Y66897080D01*
X4060215Y66892032D01*
X4059691Y66891986D01*
X4057937Y66905672D01*
X4056444Y66943424D01*
X4055326Y67000276D01*
X4054697Y67071266D01*
X4054600Y67114427D01*
X4054398Y67199527D01*
X4053358Y67260519D01*
X4050831Y67302323D01*
X4046164Y67329858D01*
X4038707Y67348044D01*
X4027811Y67361802D01*
X4021007Y67368427D01*
X3974272Y67395125D01*
X3923272Y67397125D01*
X3877001Y67374545D01*
X3868444Y67366393D01*
X3855893Y67351064D01*
X3847188Y67332882D01*
X3841631Y67306591D01*
X3838526Y67266938D01*
X3837176Y67208668D01*
X3836886Y67128327D01*
X3836886Y66923854D01*
X3791177Y66907920D01*
X3758713Y66897080D01*
X3740901Y66892032D01*
X3740377Y66891986D01*
X3739037Y66905877D01*
X3737828Y66945061D01*
X3736801Y67005800D01*
X3736002Y67084359D01*
X3735481Y67177002D01*
X3735286Y67279991D01*
X3735286Y67677158D01*
X3782457Y67697056D01*
X3829629Y67716953D01*
X3836886Y67595211D01*
X3836886Y67595211D01*
G37*
X3836886Y67595211D02*
X3841139Y67535887D01*
X3846025Y67500928D01*
X3852795Y67485680D01*
X3862702Y67485485D01*
X3865914Y67487305D01*
X3908644Y67500485D01*
X3964227Y67499715D01*
X4020737Y67486167D01*
X4056082Y67468639D01*
X4092321Y67440639D01*
X4118813Y67408951D01*
X4136999Y67368687D01*
X4148322Y67314957D01*
X4154222Y67242874D01*
X4156143Y67147549D01*
X4156177Y67129263D01*
X4156200Y66923854D01*
X4110491Y66907920D01*
X4078027Y66897080D01*
X4060215Y66892032D01*
X4059691Y66891986D01*
X4057937Y66905672D01*
X4056444Y66943424D01*
X4055326Y67000276D01*
X4054697Y67071266D01*
X4054600Y67114427D01*
X4054398Y67199527D01*
X4053358Y67260519D01*
X4050831Y67302323D01*
X4046164Y67329858D01*
X4038707Y67348044D01*
X4027811Y67361802D01*
X4021007Y67368427D01*
X3974272Y67395125D01*
X3923272Y67397125D01*
X3877001Y67374545D01*
X3868444Y67366393D01*
X3855893Y67351064D01*
X3847188Y67332882D01*
X3841631Y67306591D01*
X3838526Y67266938D01*
X3837176Y67208668D01*
X3836886Y67128327D01*
X3836886Y66923854D01*
X3791177Y66907920D01*
X3758713Y66897080D01*
X3740901Y66892032D01*
X3740377Y66891986D01*
X3739037Y66905877D01*
X3737828Y66945061D01*
X3736801Y67005800D01*
X3736002Y67084359D01*
X3735481Y67177002D01*
X3735286Y67279991D01*
X3735286Y67677158D01*
X3782457Y67697056D01*
X3829629Y67716953D01*
X3836886Y67595211D01*
G36*
X2629303Y67515261D02*
G01*
X2686527Y67476765D01*
X2730749Y67421165D01*
X2757167Y67350414D01*
X2762510Y67298338D01*
X2761903Y67276607D01*
X2756822Y67259969D01*
X2742855Y67245063D01*
X2715589Y67228527D01*
X2670612Y67207002D01*
X2603511Y67177126D01*
X2603171Y67176976D01*
X2541407Y67148687D01*
X2490759Y67123567D01*
X2456404Y67104321D01*
X2443518Y67093652D01*
X2443514Y67093566D01*
X2454872Y67070334D01*
X2481431Y67044726D01*
X2511923Y67026279D01*
X2527370Y67022614D01*
X2569515Y67035288D01*
X2605808Y67067029D01*
X2623517Y67101928D01*
X2640552Y67127655D01*
X2673922Y67156954D01*
X2713149Y67182265D01*
X2747756Y67196029D01*
X2754993Y67196786D01*
X2763139Y67184340D01*
X2763630Y67152528D01*
X2757643Y67109634D01*
X2746357Y67063942D01*
X2730950Y67023739D01*
X2730171Y67022178D01*
X2683804Y66957438D01*
X2623711Y66913403D01*
X2555465Y66891789D01*
X2484638Y66894315D01*
X2416804Y66922696D01*
X2413788Y66924692D01*
X2360427Y66973052D01*
X2325340Y67036148D01*
X2305922Y67119113D01*
X2303316Y67142422D01*
X2298701Y67252445D01*
X2304233Y67303752D01*
X2443514Y67303752D01*
X2445324Y67271747D01*
X2455222Y67262407D01*
X2479898Y67269395D01*
X2518795Y67285913D01*
X2562275Y67306619D01*
X2563356Y67307167D01*
X2600209Y67326551D01*
X2615000Y67339487D01*
X2611353Y67353049D01*
X2595995Y67370868D01*
X2556923Y67396655D01*
X2514846Y67398550D01*
X2477103Y67379783D01*
X2451034Y67343585D01*
X2443514Y67303752D01*
X2304233Y67303752D01*
X2308194Y67340473D01*
X2332550Y67410288D01*
X2366456Y67459198D01*
X2427653Y67508622D01*
X2495063Y67533141D01*
X2563880Y67534703D01*
X2629303Y67515261D01*
X2629303Y67515261D01*
G37*
X2629303Y67515261D02*
X2686527Y67476765D01*
X2730749Y67421165D01*
X2757167Y67350414D01*
X2762510Y67298338D01*
X2761903Y67276607D01*
X2756822Y67259969D01*
X2742855Y67245063D01*
X2715589Y67228527D01*
X2670612Y67207002D01*
X2603511Y67177126D01*
X2603171Y67176976D01*
X2541407Y67148687D01*
X2490759Y67123567D01*
X2456404Y67104321D01*
X2443518Y67093652D01*
X2443514Y67093566D01*
X2454872Y67070334D01*
X2481431Y67044726D01*
X2511923Y67026279D01*
X2527370Y67022614D01*
X2569515Y67035288D01*
X2605808Y67067029D01*
X2623517Y67101928D01*
X2640552Y67127655D01*
X2673922Y67156954D01*
X2713149Y67182265D01*
X2747756Y67196029D01*
X2754993Y67196786D01*
X2763139Y67184340D01*
X2763630Y67152528D01*
X2757643Y67109634D01*
X2746357Y67063942D01*
X2730950Y67023739D01*
X2730171Y67022178D01*
X2683804Y66957438D01*
X2623711Y66913403D01*
X2555465Y66891789D01*
X2484638Y66894315D01*
X2416804Y66922696D01*
X2413788Y66924692D01*
X2360427Y66973052D01*
X2325340Y67036148D01*
X2305922Y67119113D01*
X2303316Y67142422D01*
X2298701Y67252445D01*
X2304233Y67303752D01*
X2443514Y67303752D01*
X2445324Y67271747D01*
X2455222Y67262407D01*
X2479898Y67269395D01*
X2518795Y67285913D01*
X2562275Y67306619D01*
X2563356Y67307167D01*
X2600209Y67326551D01*
X2615000Y67339487D01*
X2611353Y67353049D01*
X2595995Y67370868D01*
X2556923Y67396655D01*
X2514846Y67398550D01*
X2477103Y67379783D01*
X2451034Y67343585D01*
X2443514Y67303752D01*
X2304233Y67303752D01*
X2308194Y67340473D01*
X2332550Y67410288D01*
X2366456Y67459198D01*
X2427653Y67508622D01*
X2495063Y67533141D01*
X2563880Y67534703D01*
X2629303Y67515261D01*
G36*
X1502115Y67524538D02*
G01*
X1570145Y67488767D01*
X1620351Y67431199D01*
X1638185Y67394188D01*
X1652063Y67338618D01*
X1659167Y67268404D01*
X1659840Y67191773D01*
X1654427Y67116948D01*
X1643270Y67052158D01*
X1626714Y67005627D01*
X1621626Y66997613D01*
X1561355Y66937793D01*
X1489769Y66901965D01*
X1412092Y66891480D01*
X1333548Y66907690D01*
X1311689Y66917408D01*
X1269122Y66947357D01*
X1231763Y66987067D01*
X1228232Y66992103D01*
X1213881Y67016376D01*
X1204394Y67042322D01*
X1198790Y67076478D01*
X1196086Y67125381D01*
X1195299Y67195565D01*
X1195286Y67211300D01*
X1195322Y67216308D01*
X1340429Y67216308D01*
X1341273Y67150070D01*
X1344596Y67106114D01*
X1351583Y67077721D01*
X1363416Y67058175D01*
X1369457Y67051643D01*
X1404186Y67026820D01*
X1437903Y67027952D01*
X1471995Y67049484D01*
X1492329Y67072471D01*
X1504371Y67106022D01*
X1511134Y67158931D01*
X1511598Y67165101D01*
X1512752Y67260987D01*
X1500688Y67332201D01*
X1475570Y67378306D01*
X1437560Y67398865D01*
X1423992Y67399986D01*
X1388364Y67394348D01*
X1363994Y67374814D01*
X1349093Y67337458D01*
X1341875Y67278350D01*
X1340429Y67216308D01*
X1195322Y67216308D01*
X1195826Y67286087D01*
X1198096Y67338341D01*
X1203068Y67374551D01*
X1211713Y67401201D01*
X1225005Y67424778D01*
X1227943Y67429162D01*
X1277313Y67488251D01*
X1331109Y67522553D01*
X1396602Y67536169D01*
X1418842Y67536835D01*
X1502115Y67524538D01*
X1502115Y67524538D01*
G37*
X1502115Y67524538D02*
X1570145Y67488767D01*
X1620351Y67431199D01*
X1638185Y67394188D01*
X1652063Y67338618D01*
X1659167Y67268404D01*
X1659840Y67191773D01*
X1654427Y67116948D01*
X1643270Y67052158D01*
X1626714Y67005627D01*
X1621626Y66997613D01*
X1561355Y66937793D01*
X1489769Y66901965D01*
X1412092Y66891480D01*
X1333548Y66907690D01*
X1311689Y66917408D01*
X1269122Y66947357D01*
X1231763Y66987067D01*
X1228232Y66992103D01*
X1213881Y67016376D01*
X1204394Y67042322D01*
X1198790Y67076478D01*
X1196086Y67125381D01*
X1195299Y67195565D01*
X1195286Y67211300D01*
X1195322Y67216308D01*
X1340429Y67216308D01*
X1341273Y67150070D01*
X1344596Y67106114D01*
X1351583Y67077721D01*
X1363416Y67058175D01*
X1369457Y67051643D01*
X1404186Y67026820D01*
X1437903Y67027952D01*
X1471995Y67049484D01*
X1492329Y67072471D01*
X1504371Y67106022D01*
X1511134Y67158931D01*
X1511598Y67165101D01*
X1512752Y67260987D01*
X1500688Y67332201D01*
X1475570Y67378306D01*
X1437560Y67398865D01*
X1423992Y67399986D01*
X1388364Y67394348D01*
X1363994Y67374814D01*
X1349093Y67337458D01*
X1341875Y67278350D01*
X1340429Y67216308D01*
X1195322Y67216308D01*
X1195826Y67286087D01*
X1198096Y67338341D01*
X1203068Y67374551D01*
X1211713Y67401201D01*
X1225005Y67424778D01*
X1227943Y67429162D01*
X1277313Y67488251D01*
X1331109Y67522553D01*
X1396602Y67536169D01*
X1418842Y67536835D01*
X1502115Y67524538D01*
G36*
X3177093Y67518720D02*
G01*
X3223672Y67491777D01*
X3256057Y67465034D01*
X3279742Y67437016D01*
X3296059Y67402752D01*
X3306339Y67357273D01*
X3311914Y67295608D01*
X3314116Y67212789D01*
X3314371Y67153254D01*
X3314371Y66934109D01*
X3252686Y66906456D01*
X3191000Y66878803D01*
X3183743Y67118830D01*
X3180744Y67208472D01*
X3177598Y67273538D01*
X3173701Y67318474D01*
X3168447Y67347730D01*
X3161231Y67365752D01*
X3151450Y67376989D01*
X3148312Y67379421D01*
X3100761Y67398417D01*
X3052697Y67390900D01*
X3024086Y67370957D01*
X3012447Y67356825D01*
X3004391Y67338280D01*
X2999271Y67310166D01*
X2996441Y67267327D01*
X2995256Y67204605D01*
X2995057Y67139239D01*
X2995018Y67057232D01*
X2993614Y66999184D01*
X2988914Y66960035D01*
X2978987Y66934720D01*
X2961903Y66918177D01*
X2935732Y66905344D01*
X2900775Y66892009D01*
X2862596Y66877493D01*
X2867141Y67135111D01*
X2868971Y67227981D01*
X2871112Y67296611D01*
X2874181Y67345789D01*
X2878794Y67380302D01*
X2885568Y67404938D01*
X2895119Y67424484D01*
X2906634Y67441730D01*
X2962190Y67496820D01*
X3029980Y67528678D01*
X3103713Y67536309D01*
X3177093Y67518720D01*
X3177093Y67518720D01*
G37*
X3177093Y67518720D02*
X3223672Y67491777D01*
X3256057Y67465034D01*
X3279742Y67437016D01*
X3296059Y67402752D01*
X3306339Y67357273D01*
X3311914Y67295608D01*
X3314116Y67212789D01*
X3314371Y67153254D01*
X3314371Y66934109D01*
X3252686Y66906456D01*
X3191000Y66878803D01*
X3183743Y67118830D01*
X3180744Y67208472D01*
X3177598Y67273538D01*
X3173701Y67318474D01*
X3168447Y67347730D01*
X3161231Y67365752D01*
X3151450Y67376989D01*
X3148312Y67379421D01*
X3100761Y67398417D01*
X3052697Y67390900D01*
X3024086Y67370957D01*
X3012447Y67356825D01*
X3004391Y67338280D01*
X2999271Y67310166D01*
X2996441Y67267327D01*
X2995256Y67204605D01*
X2995057Y67139239D01*
X2995018Y67057232D01*
X2993614Y66999184D01*
X2988914Y66960035D01*
X2978987Y66934720D01*
X2961903Y66918177D01*
X2935732Y66905344D01*
X2900775Y66892009D01*
X2862596Y66877493D01*
X2867141Y67135111D01*
X2868971Y67227981D01*
X2871112Y67296611D01*
X2874181Y67345789D01*
X2878794Y67380302D01*
X2885568Y67404938D01*
X2895119Y67424484D01*
X2906634Y67441730D01*
X2962190Y67496820D01*
X3029980Y67528678D01*
X3103713Y67536309D01*
X3177093Y67518720D01*
G36*
X2060744Y67526582D02*
G01*
X2116201Y67498932D01*
X2165148Y67448020D01*
X2178629Y67429162D01*
X2193314Y67404485D01*
X2202842Y67377684D01*
X2208293Y67341913D01*
X2210747Y67290331D01*
X2211286Y67222233D01*
X2208852Y67128912D01*
X2200394Y67058843D01*
X2184174Y67006569D01*
X2158454Y66966631D01*
X2121497Y66933571D01*
X2118782Y66931614D01*
X2082360Y66911592D01*
X2038502Y66901685D01*
X1982724Y66899243D01*
X1892048Y66899243D01*
X1892010Y66811217D01*
X1891166Y66762192D01*
X1886024Y66733435D01*
X1872587Y66716189D01*
X1846858Y66701692D01*
X1840679Y66698731D01*
X1811764Y66684852D01*
X1789376Y66676086D01*
X1772729Y66675329D01*
X1761036Y66685477D01*
X1753510Y66709427D01*
X1749366Y66750074D01*
X1747815Y66810314D01*
X1748071Y66893045D01*
X1749349Y67001161D01*
X1749748Y67033500D01*
X1751185Y67144976D01*
X1752472Y67217897D01*
X1891971Y67217897D01*
X1892755Y67156001D01*
X1896240Y67115503D01*
X1904124Y67088792D01*
X1918105Y67068256D01*
X1927597Y67058240D01*
X1966404Y67028933D01*
X2000763Y67026548D01*
X2036216Y67050750D01*
X2037114Y67051643D01*
X2051539Y67070347D01*
X2060313Y67095768D01*
X2064739Y67134916D01*
X2066118Y67194803D01*
X2066143Y67208070D01*
X2062812Y67290599D01*
X2051969Y67347809D01*
X2032340Y67382734D01*
X2002650Y67398406D01*
X1985491Y67399986D01*
X1944766Y67392574D01*
X1916832Y67368170D01*
X1900017Y67323520D01*
X1892650Y67255370D01*
X1891971Y67217897D01*
X1752472Y67217897D01*
X1752708Y67231255D01*
X1754677Y67296167D01*
X1757450Y67343542D01*
X1761388Y67377210D01*
X1766849Y67401002D01*
X1774192Y67418747D01*
X1783777Y67434276D01*
X1787887Y67440119D01*
X1842405Y67495315D01*
X1911336Y67526610D01*
X1991072Y67535335D01*
X2060744Y67526582D01*
X2060744Y67526582D01*
G37*
X2060744Y67526582D02*
X2116201Y67498932D01*
X2165148Y67448020D01*
X2178629Y67429162D01*
X2193314Y67404485D01*
X2202842Y67377684D01*
X2208293Y67341913D01*
X2210747Y67290331D01*
X2211286Y67222233D01*
X2208852Y67128912D01*
X2200394Y67058843D01*
X2184174Y67006569D01*
X2158454Y66966631D01*
X2121497Y66933571D01*
X2118782Y66931614D01*
X2082360Y66911592D01*
X2038502Y66901685D01*
X1982724Y66899243D01*
X1892048Y66899243D01*
X1892010Y66811217D01*
X1891166Y66762192D01*
X1886024Y66733435D01*
X1872587Y66716189D01*
X1846858Y66701692D01*
X1840679Y66698731D01*
X1811764Y66684852D01*
X1789376Y66676086D01*
X1772729Y66675329D01*
X1761036Y66685477D01*
X1753510Y66709427D01*
X1749366Y66750074D01*
X1747815Y66810314D01*
X1748071Y66893045D01*
X1749349Y67001161D01*
X1749748Y67033500D01*
X1751185Y67144976D01*
X1752472Y67217897D01*
X1891971Y67217897D01*
X1892755Y67156001D01*
X1896240Y67115503D01*
X1904124Y67088792D01*
X1918105Y67068256D01*
X1927597Y67058240D01*
X1966404Y67028933D01*
X2000763Y67026548D01*
X2036216Y67050750D01*
X2037114Y67051643D01*
X2051539Y67070347D01*
X2060313Y67095768D01*
X2064739Y67134916D01*
X2066118Y67194803D01*
X2066143Y67208070D01*
X2062812Y67290599D01*
X2051969Y67347809D01*
X2032340Y67382734D01*
X2002650Y67398406D01*
X1985491Y67399986D01*
X1944766Y67392574D01*
X1916832Y67368170D01*
X1900017Y67323520D01*
X1892650Y67255370D01*
X1891971Y67217897D01*
X1752472Y67217897D01*
X1752708Y67231255D01*
X1754677Y67296167D01*
X1757450Y67343542D01*
X1761388Y67377210D01*
X1766849Y67401002D01*
X1774192Y67418747D01*
X1783777Y67434276D01*
X1787887Y67440119D01*
X1842405Y67495315D01*
X1911336Y67526610D01*
X1991072Y67535335D01*
X2060744Y67526582D01*
D14*
X69451000Y30956500D02*
X69451000Y28606500D01*
X69451000Y24136500D02*
X69451000Y26486500D01*
X75206563Y24136500D02*
X69451000Y24136500D01*
X75206563Y30956500D02*
X69451000Y30956500D01*
X76271000Y29892063D02*
X76271000Y28606500D01*
X76271000Y25200937D02*
X76271000Y26486500D01*
X76271000Y25200937D02*
X75206563Y24136500D01*
X76271000Y29892063D02*
X75206563Y30956500D01*
X77298500Y25699000D02*
X76511000Y25699000D01*
X76904750Y25305250D02*
X76904750Y26092750D01*
D15*
X77551000Y77046500D02*
X76701000Y77896500D01*
X86701000Y77046500D02*
X77551000Y77046500D01*
X76701000Y77896500D02*
X76701000Y87046500D01*
X76701000Y87046500D02*
X86701000Y87046500D01*
X86701000Y77046500D02*
X86701000Y87046500D01*
D16*
X78390206Y78277140D02*
G75*
G03X78390206Y78277140I-463646J0D01*
G01*
D15*
X62361000Y73596500D02*
X61511000Y72746500D01*
X62361000Y82746500D02*
X62361000Y73596500D01*
X61511000Y72746500D02*
X52361000Y72746500D01*
X52361000Y72746500D02*
X52361000Y82746500D01*
X62361000Y82746500D02*
X52361000Y82746500D01*
D16*
X61594006Y73972060D02*
G75*
G03X61594006Y73972060I-463646J0D01*
G01*
D15*
X77551000Y33366500D02*
X76701000Y34216500D01*
X86701000Y33366500D02*
X77551000Y33366500D01*
X76701000Y34216500D02*
X76701000Y43366500D01*
X76701000Y43366500D02*
X86701000Y43366500D01*
X86701000Y33366500D02*
X86701000Y43366500D01*
D16*
X78390206Y34597140D02*
G75*
G03X78390206Y34597140I-463646J0D01*
G01*
D15*
X77551000Y11856500D02*
X76701000Y12706500D01*
X86701000Y11856500D02*
X77551000Y11856500D01*
X76701000Y12706500D02*
X76701000Y21856500D01*
X76701000Y21856500D02*
X86701000Y21856500D01*
X86701000Y11856500D02*
X86701000Y21856500D01*
D16*
X78390206Y13087140D02*
G75*
G03X78390206Y13087140I-463646J0D01*
G01*
D15*
X77551000Y54956500D02*
X76701000Y55806500D01*
X86701000Y54956500D02*
X77551000Y54956500D01*
X76701000Y55806500D02*
X76701000Y64956500D01*
X76701000Y64956500D02*
X86701000Y64956500D01*
X86701000Y54956500D02*
X86701000Y64956500D01*
D16*
X78390206Y56187140D02*
G75*
G03X78390206Y56187140I-463646J0D01*
G01*
D10*
X39601001Y34631499D02*
X38251001Y34631499D01*
X39601001Y29506499D02*
X44251001Y29506499D01*
X39601001Y34756499D02*
X44251001Y34756499D01*
X39601001Y29506499D02*
X39601001Y29731499D01*
X44251001Y29506499D02*
X44251001Y29731499D01*
X44251001Y34756499D02*
X44251001Y34531499D01*
X39601001Y34756499D02*
X39601001Y34631499D01*
X31661001Y47721499D02*
X30311001Y47721499D01*
X31661001Y42596499D02*
X36311001Y42596499D01*
X31661001Y47846499D02*
X36311001Y47846499D01*
X31661001Y42596499D02*
X31661001Y42821499D01*
X36311001Y42596499D02*
X36311001Y42821499D01*
X36311001Y47846499D02*
X36311001Y47621499D01*
X31661001Y47846499D02*
X31661001Y47721499D01*
X52111001Y34571499D02*
X50761001Y34571499D01*
X52111001Y29446499D02*
X56761001Y29446499D01*
X52111001Y34696499D02*
X56761001Y34696499D01*
X52111001Y29446499D02*
X52111001Y29671499D01*
X56761001Y29446499D02*
X56761001Y29671499D01*
X56761001Y34696499D02*
X56761001Y34471499D01*
X52111001Y34696499D02*
X52111001Y34571499D01*
D14*
X52681000Y9886500D02*
X53611000Y9886500D01*
X55841000Y9886500D02*
X54911000Y9886500D01*
X55841000Y9886500D02*
X55841000Y12046500D01*
X52681000Y9886500D02*
X52681000Y11346500D01*
X28431000Y9886500D02*
X29361000Y9886500D01*
X31591000Y9886500D02*
X30661000Y9886500D01*
X31591000Y9886500D02*
X31591000Y12046500D01*
X28431000Y9886500D02*
X28431000Y11346500D01*
X44681000Y9886500D02*
X45611000Y9886500D01*
X47841000Y9886500D02*
X46911000Y9886500D01*
X47841000Y9886500D02*
X47841000Y12046500D01*
X44681000Y9886500D02*
X44681000Y11346500D01*
X36531000Y9886500D02*
X37461000Y9886500D01*
X39691000Y9886500D02*
X38761000Y9886500D01*
X39691000Y9886500D02*
X39691000Y12046500D01*
X36531000Y9886500D02*
X36531000Y11346500D01*
X45641000Y84046500D02*
X45841000Y84046500D01*
X45841000Y84046500D02*
X45841000Y88346500D01*
X45841000Y88346500D02*
X45691000Y88346500D01*
X40791000Y88346500D02*
X40641000Y88346500D01*
X40641000Y88346500D02*
X40641000Y84046500D01*
X40641000Y84046500D02*
X40841000Y84046500D01*
X37461000Y84031500D02*
X37661000Y84031500D01*
X37661000Y84031500D02*
X37661000Y88331500D01*
X37661000Y88331500D02*
X37511000Y88331500D01*
X32611000Y88331500D02*
X32461000Y88331500D01*
X32461000Y88331500D02*
X32461000Y84031500D01*
X32461000Y84031500D02*
X32661000Y84031500D01*
X54611279Y12636500D02*
X54285721Y12636500D01*
X54611279Y13656500D02*
X54285721Y13656500D01*
X50210721Y12156500D02*
X50536279Y12156500D01*
X50210721Y11136500D02*
X50536279Y11136500D01*
X30411279Y12636500D02*
X30085721Y12636500D01*
X30411279Y13656500D02*
X30085721Y13656500D01*
X26110721Y12256500D02*
X26436279Y12256500D01*
X26110721Y11236500D02*
X26436279Y11236500D01*
X46611279Y12636500D02*
X46285721Y12636500D01*
X46611279Y13656500D02*
X46285721Y13656500D01*
X42185721Y12156500D02*
X42511279Y12156500D01*
X42185721Y11136500D02*
X42511279Y11136500D01*
X38511279Y12636500D02*
X38185721Y12636500D01*
X38511279Y13656500D02*
X38185721Y13656500D01*
X34110721Y12156500D02*
X34436279Y12156500D01*
X34110721Y11136500D02*
X34436279Y11136500D01*
X21871000Y84096779D02*
X21871000Y83771221D01*
X20851000Y84096779D02*
X20851000Y83771221D01*
X29571000Y78521779D02*
X29571000Y78196221D01*
X28551000Y78521779D02*
X28551000Y78196221D01*
X50151000Y17171221D02*
X50151000Y17496779D01*
X51171000Y17171221D02*
X51171000Y17496779D01*
X49671000Y20521779D02*
X49671000Y20196221D01*
X48651000Y20521779D02*
X48651000Y20196221D01*
X41698221Y79856500D02*
X42023779Y79856500D01*
X41698221Y78836500D02*
X42023779Y78836500D01*
X45771000Y80296779D02*
X45771000Y79971221D01*
X44751000Y80296779D02*
X44751000Y79971221D01*
X57251000Y17271221D02*
X57251000Y17596779D01*
X58271000Y17271221D02*
X58271000Y17596779D01*
X56771000Y20521779D02*
X56771000Y20196221D01*
X55751000Y20521779D02*
X55751000Y20196221D01*
X53911279Y38236500D02*
X53585721Y38236500D01*
X53911279Y39256500D02*
X53585721Y39256500D01*
X54971000Y42821779D02*
X54971000Y42496221D01*
X53951000Y42821779D02*
X53951000Y42496221D01*
X85408936Y74456500D02*
X86613064Y74456500D01*
X85408936Y72636500D02*
X86613064Y72636500D01*
X88486279Y75536500D02*
X88160721Y75536500D01*
X88486279Y76556500D02*
X88160721Y76556500D01*
X85358936Y91456500D02*
X86563064Y91456500D01*
X85358936Y89636500D02*
X86563064Y89636500D01*
X88736279Y87786500D02*
X88410721Y87786500D01*
X88736279Y88806500D02*
X88410721Y88806500D01*
X47011279Y54436500D02*
X46685721Y54436500D01*
X47011279Y55456500D02*
X46685721Y55456500D01*
X48071000Y58996779D02*
X48071000Y58671221D01*
X47051000Y58996779D02*
X47051000Y58671221D01*
X47036279Y47236500D02*
X46710721Y47236500D01*
X47036279Y48256500D02*
X46710721Y48256500D01*
X48071000Y51921779D02*
X48071000Y51596221D01*
X47051000Y51921779D02*
X47051000Y51596221D01*
X64751000Y81644436D02*
X64751000Y82848564D01*
X66571000Y81644436D02*
X66571000Y82848564D01*
X63771000Y84896779D02*
X63771000Y84571221D01*
X62751000Y84896779D02*
X62751000Y84571221D01*
X47951000Y81444436D02*
X47951000Y82648564D01*
X49771000Y81444436D02*
X49771000Y82648564D01*
X51571000Y84309279D02*
X51571000Y83983721D01*
X50551000Y84309279D02*
X50551000Y83983721D01*
X53936279Y54436500D02*
X53610721Y54436500D01*
X53936279Y55456500D02*
X53610721Y55456500D01*
X54971000Y58996779D02*
X54971000Y58671221D01*
X53951000Y58996779D02*
X53951000Y58671221D01*
X53911279Y47236500D02*
X53585721Y47236500D01*
X53911279Y48256500D02*
X53585721Y48256500D01*
X54971000Y51896779D02*
X54971000Y51571221D01*
X53951000Y51896779D02*
X53951000Y51571221D01*
X85408936Y30956500D02*
X86613064Y30956500D01*
X85408936Y29136500D02*
X86613064Y29136500D01*
X88561279Y31786500D02*
X88235721Y31786500D01*
X88561279Y32806500D02*
X88235721Y32806500D01*
X85408936Y47706500D02*
X86613064Y47706500D01*
X85408936Y45886500D02*
X86613064Y45886500D01*
X88736279Y44036500D02*
X88410721Y44036500D01*
X88736279Y45056500D02*
X88410721Y45056500D01*
X60811279Y54436500D02*
X60485721Y54436500D01*
X60811279Y55456500D02*
X60485721Y55456500D01*
X61871000Y58996779D02*
X61871000Y58671221D01*
X60851000Y58996779D02*
X60851000Y58671221D01*
X60811279Y47236500D02*
X60485721Y47236500D01*
X60811279Y48256500D02*
X60485721Y48256500D01*
X61871000Y51921779D02*
X61871000Y51596221D01*
X60851000Y51921779D02*
X60851000Y51596221D01*
X85508936Y9206500D02*
X86713064Y9206500D01*
X85508936Y7386500D02*
X86713064Y7386500D01*
X88486279Y9786500D02*
X88160721Y9786500D01*
X88486279Y10806500D02*
X88160721Y10806500D01*
X85408936Y26206500D02*
X86613064Y26206500D01*
X85408936Y24386500D02*
X86613064Y24386500D01*
X88561279Y22786500D02*
X88235721Y22786500D01*
X88561279Y23806500D02*
X88235721Y23806500D01*
X33585721Y79856500D02*
X33911279Y79856500D01*
X33585721Y78836500D02*
X33911279Y78836500D01*
X37571000Y80296779D02*
X37571000Y79971221D01*
X36551000Y80296779D02*
X36551000Y79971221D01*
X57251000Y23471221D02*
X57251000Y23796779D01*
X58271000Y23471221D02*
X58271000Y23796779D01*
X56771000Y26821779D02*
X56771000Y26496221D01*
X55751000Y26821779D02*
X55751000Y26496221D01*
X60723779Y38236500D02*
X60398221Y38236500D01*
X60723779Y39256500D02*
X60398221Y39256500D01*
X61771000Y42796779D02*
X61771000Y42471221D01*
X60751000Y42796779D02*
X60751000Y42471221D01*
X85358936Y52456500D02*
X86563064Y52456500D01*
X85358936Y50636500D02*
X86563064Y50636500D01*
X88723779Y53236500D02*
X88398221Y53236500D01*
X88723779Y54256500D02*
X88398221Y54256500D01*
X85358936Y69056500D02*
X86563064Y69056500D01*
X85358936Y67236500D02*
X86563064Y67236500D01*
X88736279Y65436500D02*
X88410721Y65436500D01*
X88736279Y66456500D02*
X88410721Y66456500D01*
X58851000Y6771221D02*
X58851000Y7096779D01*
X59871000Y6771221D02*
X59871000Y7096779D01*
X23436279Y50136500D02*
X23110721Y50136500D01*
X23436279Y51156500D02*
X23110721Y51156500D01*
X18211279Y74836500D02*
X17885721Y74836500D01*
X18211279Y75856500D02*
X17885721Y75856500D01*
X27685721Y45056500D02*
X28011279Y45056500D01*
X27685721Y44036500D02*
X28011279Y44036500D01*
X40436279Y45336500D02*
X40110721Y45336500D01*
X40436279Y46356500D02*
X40110721Y46356500D01*
X40436279Y43236500D02*
X40110721Y43236500D01*
X40436279Y44256500D02*
X40110721Y44256500D01*
X27685721Y46756500D02*
X28011279Y46756500D01*
X27685721Y45736500D02*
X28011279Y45736500D01*
X4110721Y60156500D02*
X4436279Y60156500D01*
X4110721Y59136500D02*
X4436279Y59136500D01*
X69171000Y92496779D02*
X69171000Y92171221D01*
X68151000Y92496779D02*
X68151000Y92171221D01*
X66291000Y4876500D02*
X66291000Y3546500D01*
X64961000Y4876500D02*
X66291000Y4876500D01*
X63691000Y4876500D02*
X63691000Y2216500D01*
X63691000Y2216500D02*
X58551000Y2216500D01*
X63691000Y4876500D02*
X58551000Y4876500D01*
X58551000Y4876500D02*
X58551000Y2216500D01*
X21031000Y48456500D02*
X22361000Y48456500D01*
X21031000Y47126500D02*
X21031000Y48456500D01*
X21031000Y45856500D02*
X23691000Y45856500D01*
X23691000Y45856500D02*
X23691000Y40716500D01*
X21031000Y45856500D02*
X21031000Y40716500D01*
X21031000Y40716500D02*
X23691000Y40716500D01*
X1731000Y61416500D02*
X1731000Y62746500D01*
X3061000Y61416500D02*
X1731000Y61416500D01*
X4331000Y61416500D02*
X4331000Y64076500D01*
X4331000Y64076500D02*
X6931000Y64076500D01*
X4331000Y61416500D02*
X6931000Y61416500D01*
X6931000Y61416500D02*
X6931000Y64076500D01*
X70591000Y16916500D02*
X69261000Y16916500D01*
X70591000Y18246500D02*
X70591000Y16916500D01*
X70591000Y19516500D02*
X67931000Y19516500D01*
X67931000Y19516500D02*
X67931000Y22116500D01*
X70591000Y19516500D02*
X70591000Y22116500D01*
X70591000Y22116500D02*
X67931000Y22116500D01*
X17131000Y48476500D02*
X18461000Y48476500D01*
X17131000Y47146500D02*
X17131000Y48476500D01*
X17131000Y45876500D02*
X19791000Y45876500D01*
X19791000Y45876500D02*
X19791000Y40736500D01*
X17131000Y45876500D02*
X17131000Y40736500D01*
X17131000Y40736500D02*
X19791000Y40736500D01*
X25106000Y40046500D02*
X27646000Y40046500D01*
X25106000Y40046500D02*
X25106000Y37506500D01*
X25356000Y39796500D02*
X34706000Y39796500D01*
X25356000Y16396500D02*
X25356000Y39796500D01*
X34706000Y16396500D02*
X25356000Y16396500D01*
X34706000Y39796500D02*
X34706000Y16396500D01*
X45231000Y21416500D02*
X46561000Y21416500D01*
X45231000Y20086500D02*
X45231000Y21416500D01*
X45231000Y18816500D02*
X47891000Y18816500D01*
X47891000Y18816500D02*
X47891000Y16216500D01*
X45231000Y18816500D02*
X45231000Y16216500D01*
X45231000Y16216500D02*
X47891000Y16216500D01*
X52296001Y21481499D02*
X53626001Y21481499D01*
X52296001Y20151499D02*
X52296001Y21481499D01*
X52296001Y18881499D02*
X54956001Y18881499D01*
X54956001Y18881499D02*
X54956001Y16281499D01*
X52296001Y18881499D02*
X52296001Y16281499D01*
X52296001Y16281499D02*
X54956001Y16281499D01*
X94281000Y85126500D02*
X95611000Y85126500D01*
X94281000Y83796500D02*
X94281000Y85126500D01*
X94281000Y82526500D02*
X96941000Y82526500D01*
X96941000Y82526500D02*
X96941000Y74846500D01*
X94281000Y82526500D02*
X94281000Y74846500D01*
X94281000Y74846500D02*
X96941000Y74846500D01*
X41151264Y93721779D02*
G75*
G02X40261000Y93466500I-890264J1424721D01*
G01*
X41686505Y96036693D02*
G75*
G02X41686000Y94255500I-1425505J-890193D01*
G01*
X39371106Y96571858D02*
G75*
G02X41127000Y96586500I889894J-1425358D01*
G01*
X38835642Y94256606D02*
G75*
G02X38821000Y96012500I1425358J889894D01*
G01*
X40289674Y93466401D02*
G75*
G02X39395000Y93706500I-28674J1680099D01*
G01*
X45441000Y95146500D02*
G75*
G03X45441000Y95146500I-1680000J0D01*
G01*
X38451000Y91046500D02*
X45571000Y91046500D01*
X38451000Y92146500D02*
X45571000Y92146500D01*
X38451000Y98306500D02*
X45571000Y98306500D01*
X38451000Y90586500D02*
X45571000Y90586500D01*
X38451000Y98306500D02*
X38451000Y90586500D01*
X45571000Y98306500D02*
X45571000Y90586500D01*
X45036000Y96215500D02*
X44907000Y96087500D01*
X42786000Y93965500D02*
X42692000Y93872500D01*
X44831000Y96421500D02*
X44737000Y96327500D01*
X42616000Y94205500D02*
X42487000Y94077500D01*
X38211000Y90986500D02*
X38211000Y90346500D01*
X38211000Y90346500D02*
X38611000Y90346500D01*
X51691000Y38516500D02*
X50361000Y38516500D01*
X51691000Y39846500D02*
X51691000Y38516500D01*
X51691000Y41116500D02*
X49031000Y41116500D01*
X49031000Y41116500D02*
X49031000Y43716500D01*
X51691000Y41116500D02*
X51691000Y43716500D01*
X51691000Y43716500D02*
X49031000Y43716500D01*
X51431000Y94616500D02*
X51431000Y95946500D01*
X52761000Y94616500D02*
X51431000Y94616500D01*
X54031000Y94616500D02*
X54031000Y97276500D01*
X54031000Y97276500D02*
X61711000Y97276500D01*
X54031000Y94616500D02*
X61711000Y94616500D01*
X61711000Y94616500D02*
X61711000Y97276500D01*
X53631000Y90716500D02*
X53631000Y92046500D01*
X54961000Y90716500D02*
X53631000Y90716500D01*
X56231000Y90716500D02*
X56231000Y93376500D01*
X56231000Y93376500D02*
X63911000Y93376500D01*
X56231000Y90716500D02*
X63911000Y90716500D01*
X63911000Y90716500D02*
X63911000Y93376500D01*
X94281000Y42746500D02*
X95611000Y42746500D01*
X94281000Y41416500D02*
X94281000Y42746500D01*
X94281000Y40146500D02*
X96941000Y40146500D01*
X96941000Y40146500D02*
X96941000Y32466500D01*
X94281000Y40146500D02*
X94281000Y32466500D01*
X94281000Y32466500D02*
X96941000Y32466500D01*
X94281000Y21126500D02*
X95611000Y21126500D01*
X94281000Y19796500D02*
X94281000Y21126500D01*
X94281000Y18526500D02*
X96941000Y18526500D01*
X96941000Y18526500D02*
X96941000Y10846500D01*
X94281000Y18526500D02*
X94281000Y10846500D01*
X94281000Y10846500D02*
X96941000Y10846500D01*
X44791000Y54616500D02*
X43461000Y54616500D01*
X44791000Y55946500D02*
X44791000Y54616500D01*
X44791000Y57216500D02*
X42131000Y57216500D01*
X42131000Y57216500D02*
X42131000Y59816500D01*
X44791000Y57216500D02*
X44791000Y59816500D01*
X44791000Y59816500D02*
X42131000Y59816500D01*
X44791000Y47516500D02*
X43461000Y47516500D01*
X44791000Y48846500D02*
X44791000Y47516500D01*
X44791000Y50116500D02*
X42131000Y50116500D01*
X42131000Y50116500D02*
X42131000Y52716500D01*
X44791000Y50116500D02*
X44791000Y52716500D01*
X44791000Y52716500D02*
X42131000Y52716500D01*
X51691000Y54616500D02*
X50361000Y54616500D01*
X51691000Y55946500D02*
X51691000Y54616500D01*
X51691000Y57216500D02*
X49031000Y57216500D01*
X49031000Y57216500D02*
X49031000Y59816500D01*
X51691000Y57216500D02*
X51691000Y59816500D01*
X51691000Y59816500D02*
X49031000Y59816500D01*
X51691000Y47516500D02*
X50361000Y47516500D01*
X51691000Y48846500D02*
X51691000Y47516500D01*
X51691000Y50116500D02*
X49031000Y50116500D01*
X49031000Y50116500D02*
X49031000Y52716500D01*
X51691000Y50116500D02*
X51691000Y52716500D01*
X51691000Y52716500D02*
X49031000Y52716500D01*
X58591000Y54616500D02*
X57261000Y54616500D01*
X58591000Y55946500D02*
X58591000Y54616500D01*
X58591000Y57216500D02*
X55931000Y57216500D01*
X55931000Y57216500D02*
X55931000Y59816500D01*
X58591000Y57216500D02*
X58591000Y59816500D01*
X58591000Y59816500D02*
X55931000Y59816500D01*
X58591000Y47516500D02*
X57261000Y47516500D01*
X58591000Y48846500D02*
X58591000Y47516500D01*
X58591000Y50116500D02*
X55931000Y50116500D01*
X55931000Y50116500D02*
X55931000Y52716500D01*
X58591000Y50116500D02*
X58591000Y52716500D01*
X58591000Y52716500D02*
X55931000Y52716500D01*
X52331000Y27776500D02*
X53661000Y27776500D01*
X52331000Y26446500D02*
X52331000Y27776500D01*
X52331000Y25176500D02*
X54991000Y25176500D01*
X54991000Y25176500D02*
X54991000Y22576500D01*
X52331000Y25176500D02*
X52331000Y22576500D01*
X52331000Y22576500D02*
X54991000Y22576500D01*
X94281000Y64496500D02*
X95611000Y64496500D01*
X94281000Y63166500D02*
X94281000Y64496500D01*
X94281000Y61896500D02*
X96941000Y61896500D01*
X96941000Y61896500D02*
X96941000Y54216500D01*
X94281000Y61896500D02*
X94281000Y54216500D01*
X94281000Y54216500D02*
X96941000Y54216500D01*
X33051264Y93721779D02*
G75*
G02X32161000Y93466500I-890264J1424721D01*
G01*
X33586505Y96036693D02*
G75*
G02X33586000Y94255500I-1425505J-890193D01*
G01*
X31271106Y96571858D02*
G75*
G02X33027000Y96586500I889894J-1425358D01*
G01*
X30735642Y94256606D02*
G75*
G02X30721000Y96012500I1425358J889894D01*
G01*
X32189674Y93466401D02*
G75*
G02X31295000Y93706500I-28674J1680099D01*
G01*
X37341000Y95146500D02*
G75*
G03X37341000Y95146500I-1680000J0D01*
G01*
X30351000Y91046500D02*
X37471000Y91046500D01*
X30351000Y92146500D02*
X37471000Y92146500D01*
X30351000Y98306500D02*
X37471000Y98306500D01*
X30351000Y90586500D02*
X37471000Y90586500D01*
X30351000Y98306500D02*
X30351000Y90586500D01*
X37471000Y98306500D02*
X37471000Y90586500D01*
X36936000Y96215500D02*
X36807000Y96087500D01*
X34686000Y93965500D02*
X34592000Y93872500D01*
X36731000Y96421500D02*
X36637000Y96327500D01*
X34516000Y94205500D02*
X34387000Y94077500D01*
X30111000Y90986500D02*
X30111000Y90346500D01*
X30111000Y90346500D02*
X30511000Y90346500D01*
X58491000Y38516500D02*
X57161000Y38516500D01*
X58491000Y39846500D02*
X58491000Y38516500D01*
X58491000Y41116500D02*
X55831000Y41116500D01*
X55831000Y41116500D02*
X55831000Y43716500D01*
X58491000Y41116500D02*
X58491000Y43716500D01*
X58491000Y43716500D02*
X55831000Y43716500D01*
X19791000Y24216500D02*
X18461000Y24216500D01*
X19791000Y25546500D02*
X19791000Y24216500D01*
X19791000Y26816500D02*
X17131000Y26816500D01*
X17131000Y26816500D02*
X17131000Y39576500D01*
X19791000Y26816500D02*
X19791000Y39576500D01*
X19791000Y39576500D02*
X17131000Y39576500D01*
X23691000Y24216500D02*
X22361000Y24216500D01*
X23691000Y25546500D02*
X23691000Y24216500D01*
X23691000Y26816500D02*
X21031000Y26816500D01*
X21031000Y26816500D02*
X21031000Y39576500D01*
X23691000Y26816500D02*
X23691000Y39576500D01*
X23691000Y39576500D02*
X21031000Y39576500D01*
X10751264Y3821779D02*
G75*
G02X9861000Y3566500I-890264J1424721D01*
G01*
X11286505Y6136693D02*
G75*
G02X11286000Y4355500I-1425505J-890193D01*
G01*
X8971106Y6671858D02*
G75*
G02X10727000Y6686500I889894J-1425358D01*
G01*
X8435642Y4356606D02*
G75*
G02X8421000Y6112500I1425358J889894D01*
G01*
X9889674Y3566401D02*
G75*
G02X8995000Y3806500I-28674J1680099D01*
G01*
X15041000Y5246500D02*
G75*
G03X15041000Y5246500I-1680000J0D01*
G01*
X8051000Y1146500D02*
X15171000Y1146500D01*
X8051000Y2246500D02*
X15171000Y2246500D01*
X8051000Y8406500D02*
X15171000Y8406500D01*
X8051000Y686500D02*
X15171000Y686500D01*
X8051000Y8406500D02*
X8051000Y686500D01*
X15171000Y8406500D02*
X15171000Y686500D01*
X14636000Y6315500D02*
X14507000Y6187500D01*
X12386000Y4065500D02*
X12292000Y3972500D01*
X14431000Y6521500D02*
X14337000Y6427500D01*
X12216000Y4305500D02*
X12087000Y4177500D01*
X7811000Y1086500D02*
X7811000Y446500D01*
X7811000Y446500D02*
X8211000Y446500D01*
X18851264Y3821779D02*
G75*
G02X17961000Y3566500I-890264J1424721D01*
G01*
X19386505Y6136693D02*
G75*
G02X19386000Y4355500I-1425505J-890193D01*
G01*
X17071106Y6671858D02*
G75*
G02X18827000Y6686500I889894J-1425358D01*
G01*
X16535642Y4356606D02*
G75*
G02X16521000Y6112500I1425358J889894D01*
G01*
X17989674Y3566401D02*
G75*
G02X17095000Y3806500I-28674J1680099D01*
G01*
X23141000Y5246500D02*
G75*
G03X23141000Y5246500I-1680000J0D01*
G01*
X16151000Y1146500D02*
X23271000Y1146500D01*
X16151000Y2246500D02*
X23271000Y2246500D01*
X16151000Y8406500D02*
X23271000Y8406500D01*
X16151000Y686500D02*
X23271000Y686500D01*
X16151000Y8406500D02*
X16151000Y686500D01*
X23271000Y8406500D02*
X23271000Y686500D01*
X22736000Y6315500D02*
X22607000Y6187500D01*
X20486000Y4065500D02*
X20392000Y3972500D01*
X22531000Y6521500D02*
X22437000Y6427500D01*
X20316000Y4305500D02*
X20187000Y4177500D01*
X15911000Y1086500D02*
X15911000Y446500D01*
X15911000Y446500D02*
X16311000Y446500D01*
X51251264Y3821779D02*
G75*
G02X50361000Y3566500I-890264J1424721D01*
G01*
X51786505Y6136693D02*
G75*
G02X51786000Y4355500I-1425505J-890193D01*
G01*
X49471106Y6671858D02*
G75*
G02X51227000Y6686500I889894J-1425358D01*
G01*
X48935642Y4356606D02*
G75*
G02X48921000Y6112500I1425358J889894D01*
G01*
X50389674Y3566401D02*
G75*
G02X49495000Y3806500I-28674J1680099D01*
G01*
X55541000Y5246500D02*
G75*
G03X55541000Y5246500I-1680000J0D01*
G01*
X48551000Y1146500D02*
X55671000Y1146500D01*
X48551000Y2246500D02*
X55671000Y2246500D01*
X48551000Y8406500D02*
X55671000Y8406500D01*
X48551000Y686500D02*
X55671000Y686500D01*
X48551000Y8406500D02*
X48551000Y686500D01*
X55671000Y8406500D02*
X55671000Y686500D01*
X55136000Y6315500D02*
X55007000Y6187500D01*
X52886000Y4065500D02*
X52792000Y3972500D01*
X54931000Y6521500D02*
X54837000Y6427500D01*
X52716000Y4305500D02*
X52587000Y4177500D01*
X48311000Y1086500D02*
X48311000Y446500D01*
X48311000Y446500D02*
X48711000Y446500D01*
X26951264Y3821779D02*
G75*
G02X26061000Y3566500I-890264J1424721D01*
G01*
X27486505Y6136693D02*
G75*
G02X27486000Y4355500I-1425505J-890193D01*
G01*
X25171106Y6671858D02*
G75*
G02X26927000Y6686500I889894J-1425358D01*
G01*
X24635642Y4356606D02*
G75*
G02X24621000Y6112500I1425358J889894D01*
G01*
X26089674Y3566401D02*
G75*
G02X25195000Y3806500I-28674J1680099D01*
G01*
X31241000Y5246500D02*
G75*
G03X31241000Y5246500I-1680000J0D01*
G01*
X24251000Y1146500D02*
X31371000Y1146500D01*
X24251000Y2246500D02*
X31371000Y2246500D01*
X24251000Y8406500D02*
X31371000Y8406500D01*
X24251000Y686500D02*
X31371000Y686500D01*
X24251000Y8406500D02*
X24251000Y686500D01*
X31371000Y8406500D02*
X31371000Y686500D01*
X30836000Y6315500D02*
X30707000Y6187500D01*
X28586000Y4065500D02*
X28492000Y3972500D01*
X30631000Y6521500D02*
X30537000Y6427500D01*
X28416000Y4305500D02*
X28287000Y4177500D01*
X24011000Y1086500D02*
X24011000Y446500D01*
X24011000Y446500D02*
X24411000Y446500D01*
X43151264Y3821779D02*
G75*
G02X42261000Y3566500I-890264J1424721D01*
G01*
X43686505Y6136693D02*
G75*
G02X43686000Y4355500I-1425505J-890193D01*
G01*
X41371106Y6671858D02*
G75*
G02X43127000Y6686500I889894J-1425358D01*
G01*
X40835642Y4356606D02*
G75*
G02X40821000Y6112500I1425358J889894D01*
G01*
X42289674Y3566401D02*
G75*
G02X41395000Y3806500I-28674J1680099D01*
G01*
X47441000Y5246500D02*
G75*
G03X47441000Y5246500I-1680000J0D01*
G01*
X40451000Y1146500D02*
X47571000Y1146500D01*
X40451000Y2246500D02*
X47571000Y2246500D01*
X40451000Y8406500D02*
X47571000Y8406500D01*
X40451000Y686500D02*
X47571000Y686500D01*
X40451000Y8406500D02*
X40451000Y686500D01*
X47571000Y8406500D02*
X47571000Y686500D01*
X47036000Y6315500D02*
X46907000Y6187500D01*
X44786000Y4065500D02*
X44692000Y3972500D01*
X46831000Y6521500D02*
X46737000Y6427500D01*
X44616000Y4305500D02*
X44487000Y4177500D01*
X40211000Y1086500D02*
X40211000Y446500D01*
X40211000Y446500D02*
X40611000Y446500D01*
X35051264Y3821779D02*
G75*
G02X34161000Y3566500I-890264J1424721D01*
G01*
X35586505Y6136693D02*
G75*
G02X35586000Y4355500I-1425505J-890193D01*
G01*
X33271106Y6671858D02*
G75*
G02X35027000Y6686500I889894J-1425358D01*
G01*
X32735642Y4356606D02*
G75*
G02X32721000Y6112500I1425358J889894D01*
G01*
X34189674Y3566401D02*
G75*
G02X33295000Y3806500I-28674J1680099D01*
G01*
X39341000Y5246500D02*
G75*
G03X39341000Y5246500I-1680000J0D01*
G01*
X32351000Y1146500D02*
X39471000Y1146500D01*
X32351000Y2246500D02*
X39471000Y2246500D01*
X32351000Y8406500D02*
X39471000Y8406500D01*
X32351000Y686500D02*
X39471000Y686500D01*
X32351000Y8406500D02*
X32351000Y686500D01*
X39471000Y8406500D02*
X39471000Y686500D01*
X38936000Y6315500D02*
X38807000Y6187500D01*
X36686000Y4065500D02*
X36592000Y3972500D01*
X38731000Y6521500D02*
X38637000Y6427500D01*
X36516000Y4305500D02*
X36387000Y4177500D01*
X32111000Y1086500D02*
X32111000Y446500D01*
X32111000Y446500D02*
X32511000Y446500D01*
X21156001Y51941501D02*
X21156001Y53271501D01*
X22486001Y51941501D02*
X21156001Y51941501D01*
X23756001Y51941501D02*
X23756001Y54601501D01*
X23756001Y54601501D02*
X31436001Y54601501D01*
X23756001Y51941501D02*
X31436001Y51941501D01*
X31436001Y51941501D02*
X31436001Y54601501D01*
X22244318Y91511744D02*
G75*
G02X21561000Y91366500I-683318J1534756D01*
G01*
X23096426Y93729542D02*
G75*
G02X23096000Y92362500I-1535426J-683042D01*
G01*
X20877958Y94581926D02*
G75*
G02X22245000Y94581500I683042J-1535426D01*
G01*
X20025574Y92363458D02*
G75*
G02X20026000Y93730500I1535426J683042D01*
G01*
X21589805Y91366247D02*
G75*
G02X20877000Y91511500I-28805J1680253D01*
G01*
X28321000Y93046500D02*
G75*
G03X28321000Y93046500I-1680000J0D01*
G01*
X18961000Y88946500D02*
X29241000Y88946500D01*
X18961000Y90446500D02*
X29241000Y90446500D01*
X18961000Y95347500D02*
X29241000Y95347500D01*
X18961000Y98307500D02*
X29241000Y98307500D01*
X18961000Y88386500D02*
X29241000Y88386500D01*
X18961000Y98307500D02*
X18961000Y88386500D01*
X29241000Y98307500D02*
X29241000Y88386500D01*
X27916000Y94115500D02*
X27869000Y94069500D01*
X25607000Y91807500D02*
X25572000Y91772500D01*
X27711000Y94321500D02*
X27676000Y94285500D01*
X25414000Y92023500D02*
X25367000Y91977500D01*
X18721000Y88886500D02*
X18721000Y88146500D01*
X18721000Y88146500D02*
X19221000Y88146500D01*
X78091000Y1316500D02*
X78091000Y2646500D01*
X79421000Y1316500D02*
X78091000Y1316500D01*
X80691000Y1316500D02*
X80691000Y3976500D01*
X80691000Y3976500D02*
X83291000Y3976500D01*
X80691000Y1316500D02*
X83291000Y1316500D01*
X83291000Y1316500D02*
X83291000Y3976500D01*
X73191000Y94616500D02*
X73191000Y95946500D01*
X74521000Y94616500D02*
X73191000Y94616500D01*
X75791000Y94616500D02*
X75791000Y97276500D01*
X75791000Y97276500D02*
X78391000Y97276500D01*
X75791000Y94616500D02*
X78391000Y94616500D01*
X78391000Y94616500D02*
X78391000Y97276500D01*
X84491000Y1316500D02*
X84491000Y2646500D01*
X85821000Y1316500D02*
X84491000Y1316500D01*
X87091000Y1316500D02*
X87091000Y3976500D01*
X87091000Y3976500D02*
X89691000Y3976500D01*
X87091000Y1316500D02*
X89691000Y1316500D01*
X89691000Y1316500D02*
X89691000Y3976500D01*
X80191000Y94616500D02*
X80191000Y95946500D01*
X81521000Y94616500D02*
X80191000Y94616500D01*
X82791000Y94616500D02*
X82791000Y97276500D01*
X82791000Y97276500D02*
X85391000Y97276500D01*
X82791000Y94616500D02*
X85391000Y94616500D01*
X85391000Y94616500D02*
X85391000Y97276500D01*
X3636279Y83056236D02*
G75*
G02X3381000Y83946500I1424721J890264D01*
G01*
X5951193Y82520995D02*
G75*
G02X4170000Y82521500I-890193J1425505D01*
G01*
X6486358Y84836394D02*
G75*
G02X6501000Y83080500I-1425358J-889894D01*
G01*
X4171106Y85371858D02*
G75*
G02X5927000Y85386500I889894J-1425358D01*
G01*
X3380901Y83917826D02*
G75*
G02X3621000Y84812500I1680099J28674D01*
G01*
X6741000Y80446500D02*
G75*
G03X6741000Y80446500I-1680000J0D01*
G01*
X961000Y85756500D02*
X961000Y78636500D01*
X2061000Y85756500D02*
X2061000Y78636500D01*
X8221000Y85756500D02*
X8221000Y78636500D01*
X501000Y85756500D02*
X501000Y78636500D01*
X8221000Y85756500D02*
X501000Y85756500D01*
X8221000Y78636500D02*
X501000Y78636500D01*
X6130000Y79171500D02*
X6002000Y79300500D01*
X3880000Y81421500D02*
X3787000Y81515500D01*
X6336000Y79376500D02*
X6242000Y79470500D01*
X4120000Y81591500D02*
X3992000Y81720500D01*
X901000Y85996500D02*
X261000Y85996500D01*
X261000Y85996500D02*
X261000Y85596500D01*
X10844318Y91511744D02*
G75*
G02X10161000Y91366500I-683318J1534756D01*
G01*
X11696426Y93729542D02*
G75*
G02X11696000Y92362500I-1535426J-683042D01*
G01*
X9477958Y94581926D02*
G75*
G02X10845000Y94581500I683042J-1535426D01*
G01*
X8625574Y92363458D02*
G75*
G02X8626000Y93730500I1535426J683042D01*
G01*
X10189805Y91366247D02*
G75*
G02X9477000Y91511500I-28805J1680253D01*
G01*
X16921000Y93046500D02*
G75*
G03X16921000Y93046500I-1680000J0D01*
G01*
X7561000Y88946500D02*
X17841000Y88946500D01*
X7561000Y90446500D02*
X17841000Y90446500D01*
X7561000Y95347500D02*
X17841000Y95347500D01*
X7561000Y98307500D02*
X17841000Y98307500D01*
X7561000Y88386500D02*
X17841000Y88386500D01*
X7561000Y98307500D02*
X7561000Y88386500D01*
X17841000Y98307500D02*
X17841000Y88386500D01*
X16516000Y94115500D02*
X16469000Y94069500D01*
X14207000Y91807500D02*
X14172000Y91772500D01*
X16311000Y94321500D02*
X16276000Y94285500D01*
X14014000Y92023500D02*
X13967000Y91977500D01*
X7321000Y88886500D02*
X7321000Y88146500D01*
X7321000Y88146500D02*
X7821000Y88146500D01*
X48511000Y10696500D02*
X51661000Y10696500D01*
X48511000Y8996500D02*
X51661000Y8996500D01*
X48511000Y10696500D02*
X48511000Y8996500D01*
X24211000Y10796500D02*
X27361000Y10796500D01*
X24211000Y9096500D02*
X27361000Y9096500D01*
X24211000Y10796500D02*
X24211000Y9096500D01*
X40511000Y10696500D02*
X43661000Y10696500D01*
X40511000Y8996500D02*
X43661000Y8996500D01*
X40511000Y10696500D02*
X40511000Y8996500D01*
X32311000Y10696500D02*
X35461000Y10696500D01*
X32311000Y8996500D02*
X35461000Y8996500D01*
X32311000Y10696500D02*
X32311000Y8996500D01*
X24111000Y87396500D02*
X24111000Y84246500D01*
X22411000Y87396500D02*
X22411000Y84246500D01*
X24111000Y87396500D02*
X22411000Y87396500D01*
X21561000Y80786500D02*
X23831000Y80786500D01*
X23831000Y80786500D02*
X23831000Y82306500D01*
X23831000Y82306500D02*
X21561000Y82306500D01*
X38311000Y80746500D02*
X38311000Y83896500D01*
X40011000Y80746500D02*
X40011000Y83896500D01*
X38311000Y80746500D02*
X40011000Y80746500D01*
X42661000Y81706500D02*
X40391000Y81706500D01*
X40391000Y81706500D02*
X40391000Y80186500D01*
X40391000Y80186500D02*
X42661000Y80186500D01*
X54561000Y41106500D02*
X52291000Y41106500D01*
X52291000Y41106500D02*
X52291000Y39586500D01*
X52291000Y39586500D02*
X54561000Y39586500D01*
X47661000Y57306500D02*
X45391000Y57306500D01*
X45391000Y57306500D02*
X45391000Y55786500D01*
X45391000Y55786500D02*
X47661000Y55786500D01*
X47661000Y50106500D02*
X45391000Y50106500D01*
X45391000Y50106500D02*
X45391000Y48586500D01*
X45391000Y48586500D02*
X47661000Y48586500D01*
X54561000Y57306500D02*
X52291000Y57306500D01*
X52291000Y57306500D02*
X52291000Y55786500D01*
X52291000Y55786500D02*
X54561000Y55786500D01*
X54561000Y50106500D02*
X52291000Y50106500D01*
X52291000Y50106500D02*
X52291000Y48586500D01*
X52291000Y48586500D02*
X54561000Y48586500D01*
X61461000Y57306500D02*
X59191000Y57306500D01*
X59191000Y57306500D02*
X59191000Y55786500D01*
X59191000Y55786500D02*
X61461000Y55786500D01*
X61461000Y50106500D02*
X59191000Y50106500D01*
X59191000Y50106500D02*
X59191000Y48586500D01*
X59191000Y48586500D02*
X61461000Y48586500D01*
X30211000Y80896500D02*
X30211000Y84046500D01*
X31911000Y80896500D02*
X31911000Y84046500D01*
X30211000Y80896500D02*
X31911000Y80896500D01*
X34561000Y81706500D02*
X32291000Y81706500D01*
X32291000Y81706500D02*
X32291000Y80186500D01*
X32291000Y80186500D02*
X34561000Y80186500D01*
X61361000Y41106500D02*
X59091000Y41106500D01*
X59091000Y41106500D02*
X59091000Y39586500D01*
X59091000Y39586500D02*
X61361000Y39586500D01*
X62461000Y7006500D02*
X60191000Y7006500D01*
X60191000Y7006500D02*
X60191000Y5486500D01*
X60191000Y5486500D02*
X62461000Y5486500D01*
X16961000Y76486500D02*
X19231000Y76486500D01*
X19231000Y76486500D02*
X19231000Y78006500D01*
X19231000Y78006500D02*
X16961000Y78006500D01*
X8461000Y60406500D02*
X6191000Y60406500D01*
X6191000Y60406500D02*
X6191000Y58886500D01*
X6191000Y58886500D02*
X8461000Y58886500D01*
X67901000Y96446500D02*
X67901000Y94176500D01*
X67901000Y94176500D02*
X69421000Y94176500D01*
X69421000Y94176500D02*
X69421000Y96446500D01*
X20463064Y85736500D02*
X19258936Y85736500D01*
X20463064Y87556500D02*
X19258936Y87556500D01*
X48651000Y17171221D02*
X48651000Y17496779D01*
X49671000Y17171221D02*
X49671000Y17496779D01*
X40071000Y88348564D02*
X40071000Y87144436D01*
X38251000Y88348564D02*
X38251000Y87144436D01*
X55751000Y17196221D02*
X55751000Y17521779D01*
X56771000Y17196221D02*
X56771000Y17521779D01*
X52451000Y42483721D02*
X52451000Y42809279D01*
X53471000Y42483721D02*
X53471000Y42809279D01*
X90235721Y78056500D02*
X90561279Y78056500D01*
X90235721Y77036500D02*
X90561279Y77036500D01*
X92871000Y84421779D02*
X92871000Y84096221D01*
X91851000Y84421779D02*
X91851000Y84096221D01*
X94448221Y87306500D02*
X94773779Y87306500D01*
X94448221Y86286500D02*
X94773779Y86286500D01*
X93698221Y73556500D02*
X94023779Y73556500D01*
X93698221Y72536500D02*
X94023779Y72536500D01*
X92871000Y80671779D02*
X92871000Y80346221D01*
X91851000Y80671779D02*
X91851000Y80346221D01*
X90198221Y87306500D02*
X90523779Y87306500D01*
X90198221Y86286500D02*
X90523779Y86286500D01*
X72601000Y81421221D02*
X72601000Y81746779D01*
X73621000Y81421221D02*
X73621000Y81746779D01*
X91121000Y80709279D02*
X91121000Y80383721D01*
X90101000Y80709279D02*
X90101000Y80383721D01*
X72601000Y85133721D02*
X72601000Y85459279D01*
X73621000Y85133721D02*
X73621000Y85459279D01*
X76954750Y68805250D02*
X76954750Y69592750D01*
X77348500Y69199000D02*
X76561000Y69199000D01*
X76321000Y73392063D02*
X75256563Y74456500D01*
X76321000Y68700937D02*
X75256563Y67636500D01*
X76321000Y68700937D02*
X76321000Y69986500D01*
X76321000Y73392063D02*
X76321000Y72106500D01*
X75256563Y74456500D02*
X69501000Y74456500D01*
X75256563Y67636500D02*
X69501000Y67636500D01*
X69501000Y67636500D02*
X69501000Y69986500D01*
X69501000Y74456500D02*
X69501000Y72106500D01*
X74463064Y87636500D02*
X73258936Y87636500D01*
X74463064Y89456500D02*
X73258936Y89456500D01*
X74563064Y74886500D02*
X73358936Y74886500D01*
X74563064Y76706500D02*
X73358936Y76706500D01*
X45551000Y58671221D02*
X45551000Y58996779D01*
X46571000Y58671221D02*
X46571000Y58996779D01*
X45551000Y51571221D02*
X45551000Y51896779D01*
X46571000Y51571221D02*
X46571000Y51896779D01*
X61251000Y86271221D02*
X61251000Y86596779D01*
X62271000Y86271221D02*
X62271000Y86596779D01*
X58111279Y88536500D02*
X57785721Y88536500D01*
X58111279Y89556500D02*
X57785721Y89556500D01*
X49051000Y94383721D02*
X49051000Y94709279D01*
X50071000Y94383721D02*
X50071000Y94709279D01*
X65051000Y92083721D02*
X65051000Y92409279D01*
X66071000Y92083721D02*
X66071000Y92409279D01*
X64711279Y95436500D02*
X64385721Y95436500D01*
X64711279Y96456500D02*
X64385721Y96456500D01*
X52051000Y86071221D02*
X52051000Y86396779D01*
X53071000Y86071221D02*
X53071000Y86396779D01*
X57911279Y68536500D02*
X57585721Y68536500D01*
X57911279Y69556500D02*
X57585721Y69556500D01*
X58910721Y87056500D02*
X59236279Y87056500D01*
X58910721Y86036500D02*
X59236279Y86036500D01*
X54423779Y68536500D02*
X54098221Y68536500D01*
X54423779Y69556500D02*
X54098221Y69556500D01*
X46004750Y68905250D02*
X46004750Y69692750D01*
X46398500Y69299000D02*
X45611000Y69299000D01*
X45371000Y73492063D02*
X44306563Y74556500D01*
X45371000Y68800937D02*
X44306563Y67736500D01*
X45371000Y68800937D02*
X45371000Y70086500D01*
X45371000Y73492063D02*
X45371000Y72206500D01*
X44306563Y74556500D02*
X38551000Y74556500D01*
X44306563Y67736500D02*
X38551000Y67736500D01*
X38551000Y67736500D02*
X38551000Y70086500D01*
X38551000Y74556500D02*
X38551000Y72206500D01*
X64271000Y70848564D02*
X64271000Y69644436D01*
X62451000Y70848564D02*
X62451000Y69644436D01*
X52271000Y70748564D02*
X52271000Y69544436D01*
X50451000Y70748564D02*
X50451000Y69544436D01*
X52451000Y58696221D02*
X52451000Y59021779D01*
X53471000Y58696221D02*
X53471000Y59021779D01*
X52451000Y51571221D02*
X52451000Y51896779D01*
X53471000Y51571221D02*
X53471000Y51896779D01*
X90160721Y34556500D02*
X90486279Y34556500D01*
X90160721Y33536500D02*
X90486279Y33536500D01*
X92121000Y40746779D02*
X92121000Y40421221D01*
X91101000Y40746779D02*
X91101000Y40421221D01*
X94160721Y44731500D02*
X94486279Y44731500D01*
X94160721Y43711500D02*
X94486279Y43711500D01*
X94160721Y31306500D02*
X94486279Y31306500D01*
X94160721Y30286500D02*
X94486279Y30286500D01*
X92121000Y36671779D02*
X92121000Y36346221D01*
X91101000Y36671779D02*
X91101000Y36346221D01*
X90235721Y43556500D02*
X90561279Y43556500D01*
X90235721Y42536500D02*
X90561279Y42536500D01*
X72601000Y37921221D02*
X72601000Y38246779D01*
X73621000Y37921221D02*
X73621000Y38246779D01*
X90621000Y36746779D02*
X90621000Y36421221D01*
X89601000Y36746779D02*
X89601000Y36421221D01*
X73176000Y41346221D02*
X73176000Y41671779D01*
X74196000Y41346221D02*
X74196000Y41671779D01*
X76904750Y3805250D02*
X76904750Y4592750D01*
X77298500Y4199000D02*
X76511000Y4199000D01*
X76271000Y8392063D02*
X75206563Y9456500D01*
X76271000Y3700937D02*
X75206563Y2636500D01*
X76271000Y3700937D02*
X76271000Y4986500D01*
X76271000Y8392063D02*
X76271000Y7106500D01*
X75206563Y9456500D02*
X69451000Y9456500D01*
X75206563Y2636500D02*
X69451000Y2636500D01*
X69451000Y2636500D02*
X69451000Y4986500D01*
X69451000Y9456500D02*
X69451000Y7106500D01*
X74313064Y45156500D02*
X73108936Y45156500D01*
X74313064Y43336500D02*
X73108936Y43336500D01*
X74313064Y31386500D02*
X73108936Y31386500D01*
X74313064Y33206500D02*
X73108936Y33206500D01*
X59351000Y58671221D02*
X59351000Y58996779D01*
X60371000Y58671221D02*
X60371000Y58996779D01*
X59351000Y51583721D02*
X59351000Y51909279D01*
X60371000Y51583721D02*
X60371000Y51909279D01*
X90235721Y12306500D02*
X90561279Y12306500D01*
X90235721Y11286500D02*
X90561279Y11286500D01*
X92121000Y19421779D02*
X92121000Y19096221D01*
X91101000Y19421779D02*
X91101000Y19096221D01*
X94160721Y23306500D02*
X94486279Y23306500D01*
X94160721Y22286500D02*
X94486279Y22286500D01*
X94198221Y9806500D02*
X94523779Y9806500D01*
X94198221Y8786500D02*
X94523779Y8786500D01*
X92121000Y15246779D02*
X92121000Y14921221D01*
X91101000Y15246779D02*
X91101000Y14921221D01*
X90235721Y22306500D02*
X90561279Y22306500D01*
X90235721Y21286500D02*
X90561279Y21286500D01*
X73101000Y16421221D02*
X73101000Y16746779D01*
X74121000Y16421221D02*
X74121000Y16746779D01*
X90621000Y15171779D02*
X90621000Y14846221D01*
X89601000Y15171779D02*
X89601000Y14846221D01*
X73101000Y19921221D02*
X73101000Y20246779D01*
X74121000Y19921221D02*
X74121000Y20246779D01*
X74313064Y9886500D02*
X73108936Y9886500D01*
X74313064Y11706500D02*
X73108936Y11706500D01*
X74313064Y21886500D02*
X73108936Y21886500D01*
X74313064Y23706500D02*
X73108936Y23706500D01*
X31971000Y88348564D02*
X31971000Y87144436D01*
X30151000Y88348564D02*
X30151000Y87144436D01*
X55751000Y23496221D02*
X55751000Y23821779D01*
X56771000Y23496221D02*
X56771000Y23821779D01*
X59251000Y42471221D02*
X59251000Y42796779D01*
X60271000Y42471221D02*
X60271000Y42796779D01*
X90185721Y55856500D02*
X90511279Y55856500D01*
X90185721Y54836500D02*
X90511279Y54836500D01*
X92871000Y61921779D02*
X92871000Y61596221D01*
X91851000Y61921779D02*
X91851000Y61596221D01*
X93735721Y66806500D02*
X94061279Y66806500D01*
X93735721Y65786500D02*
X94061279Y65786500D01*
X93985721Y52806500D02*
X94311279Y52806500D01*
X93985721Y51786500D02*
X94311279Y51786500D01*
X92371000Y58421779D02*
X92371000Y58096221D01*
X91351000Y58421779D02*
X91351000Y58096221D01*
X90185721Y64856500D02*
X90511279Y64856500D01*
X90185721Y63836500D02*
X90511279Y63836500D01*
X72851000Y59383721D02*
X72851000Y59709279D01*
X73871000Y59383721D02*
X73871000Y59709279D01*
X90671000Y58496779D02*
X90671000Y58171221D01*
X89651000Y58496779D02*
X89651000Y58171221D01*
X72851000Y62971221D02*
X72851000Y63296779D01*
X73871000Y62971221D02*
X73871000Y63296779D01*
X76904750Y46705250D02*
X76904750Y47492750D01*
X77298500Y47099000D02*
X76511000Y47099000D01*
X76271000Y51292063D02*
X75206563Y52356500D01*
X76271000Y46600937D02*
X75206563Y45536500D01*
X76271000Y46600937D02*
X76271000Y47886500D01*
X76271000Y51292063D02*
X76271000Y50006500D01*
X75206563Y52356500D02*
X69451000Y52356500D01*
X75206563Y45536500D02*
X69451000Y45536500D01*
X69451000Y45536500D02*
X69451000Y47886500D01*
X69451000Y52356500D02*
X69451000Y50006500D01*
X74563064Y52836500D02*
X73358936Y52836500D01*
X74563064Y54656500D02*
X73358936Y54656500D01*
X74563064Y65236500D02*
X73358936Y65236500D01*
X74563064Y67056500D02*
X73358936Y67056500D01*
X44636279Y35236500D02*
X44310721Y35236500D01*
X44636279Y36256500D02*
X44310721Y36256500D01*
X44623779Y36736500D02*
X44298221Y36736500D01*
X44623779Y37756500D02*
X44298221Y37756500D01*
X36711279Y50036500D02*
X36385721Y50036500D01*
X36711279Y51056500D02*
X36385721Y51056500D01*
X36711279Y48536500D02*
X36385721Y48536500D01*
X36711279Y49556500D02*
X36385721Y49556500D01*
X7971000Y45896779D02*
X7971000Y45571221D01*
X6951000Y45896779D02*
X6951000Y45571221D01*
X57023779Y35136500D02*
X56698221Y35136500D01*
X57023779Y36156500D02*
X56698221Y36156500D01*
X15471000Y75909279D02*
X15471000Y75583721D01*
X14451000Y75909279D02*
X14451000Y75583721D01*
X10719750Y77202750D02*
X11507250Y77202750D01*
X11113500Y76809000D02*
X11113500Y77596500D01*
X15306563Y77836500D02*
X16371000Y78900937D01*
X10615437Y77836500D02*
X9551000Y78900937D01*
X10615437Y77836500D02*
X11901000Y77836500D01*
X15306563Y77836500D02*
X14021000Y77836500D01*
X16371000Y78900937D02*
X16371000Y84656500D01*
X9551000Y78900937D02*
X9551000Y84656500D01*
X9551000Y84656500D02*
X11901000Y84656500D01*
X16371000Y84656500D02*
X14021000Y84656500D01*
X61523779Y36336500D02*
X61198221Y36336500D01*
X61523779Y37356500D02*
X61198221Y37356500D01*
M02*
