%TF.GenerationSoftware,KiCad,Pcbnew,6.0.0-unknown-a0ed408~86~ubuntu19.04.1*%
%TF.CreationDate,2019-08-18T20:16:58-07:00*%
%TF.ProjectId,PrntrBoardV1,50726e74-7242-46f6-9172-6456312e6b69,rev?*%
%TF.SameCoordinates,PX1303eb8PY7093f24*%
%TF.FileFunction,Paste,Top*%
%TF.FilePolarity,Positive*%
%FSLAX46Y46*%
G04 Gerber Fmt 4.6, Leading zero omitted, Abs format (unit mm)*
G04 Created by KiCad (PCBNEW 6.0.0-unknown-a0ed408~86~ubuntu19.04.1) date 2019-08-18 20:16:58*
%MOMM*%
%LPD*%
G04 APERTURE LIST*
%ADD10R,0.950000X0.875000*%
%ADD11R,0.875000X0.950000*%
%ADD12R,0.640000X0.590000*%
%ADD13R,0.900000X1.750000*%
%ADD14R,3.098800X3.098800*%
%ADD15R,0.909599X0.224800*%
%ADD16R,0.224800X0.909599*%
%ADD17R,1.450000X0.450000*%
%ADD18R,0.800000X0.900000*%
%ADD19R,1.500000X1.500000*%
%ADD20R,0.700000X0.500000*%
%ADD21R,0.650000X1.200000*%
%ADD22R,0.900000X0.600000*%
%ADD23R,0.600000X0.900000*%
%ADD24R,0.600000X1.050000*%
%ADD25C,0.100000*%
%ADD26C,1.250000*%
%ADD27R,3.000000X0.127000*%
%ADD28R,0.127000X3.000000*%
%ADD29R,5.740000X3.810000*%
%ADD30R,3.810000X5.740000*%
%ADD31R,3.300000X2.500000*%
%ADD32R,1.000000X1.000000*%
%ADD33R,1.000000X0.820000*%
%ADD34R,0.820000X1.000000*%
%ADD35C,1.600000*%
%ADD36R,1.250000X1.750000*%
%ADD37R,1.750000X1.250000*%
G04 APERTURE END LIST*
D10*
X54330600Y80047900D03*
X54330600Y81622900D03*
X17602200Y17030600D03*
X17602200Y18605600D03*
X15062200Y17030600D03*
X15062200Y18605600D03*
X12522200Y17030600D03*
X12522200Y18605600D03*
X10541000Y49479000D03*
X10541000Y51054000D03*
X8966200Y19024600D03*
X8966200Y17449600D03*
D11*
X88023600Y90601800D03*
X89598600Y90601800D03*
X78536600Y71361300D03*
X80111600Y71361300D03*
X80124500Y33274000D03*
X78549500Y33274000D03*
X78562000Y52209700D03*
X80137000Y52209700D03*
X80061000Y13716000D03*
X78486000Y13716000D03*
D10*
X8974300Y49441000D03*
X8974300Y51016000D03*
X8966200Y20535800D03*
X8966200Y22110800D03*
D12*
X89712800Y21397100D03*
X89712800Y22367100D03*
D13*
X51409600Y22944500D03*
X51409600Y25844500D03*
X49859600Y25844500D03*
X49859600Y22944500D03*
D14*
X84048600Y73393300D03*
D15*
X86395700Y74893300D03*
X86395700Y74393301D03*
X86395700Y73893299D03*
X86395700Y73393300D03*
X86395700Y72893301D03*
X86395700Y72393299D03*
X86395700Y71893300D03*
D16*
X85548600Y71046200D03*
X85048601Y71046200D03*
X84548599Y71046200D03*
X84048600Y71046200D03*
X83548601Y71046200D03*
X83048599Y71046200D03*
X82548600Y71046200D03*
D15*
X81701500Y71893300D03*
X81701500Y72393299D03*
X81701500Y72893301D03*
X81701500Y73393300D03*
X81701500Y73893299D03*
X81701500Y74393301D03*
X81701500Y74893300D03*
D16*
X82548600Y75740400D03*
X83048599Y75740400D03*
X83548601Y75740400D03*
X84048600Y75740400D03*
X84548599Y75740400D03*
X85048601Y75740400D03*
X85548600Y75740400D03*
X82548600Y86286200D03*
X83048599Y86286200D03*
X83548601Y86286200D03*
X84048600Y86286200D03*
X84548599Y86286200D03*
X85048601Y86286200D03*
X85548600Y86286200D03*
D15*
X86395700Y87133300D03*
X86395700Y87633299D03*
X86395700Y88133301D03*
X86395700Y88633300D03*
X86395700Y89133299D03*
X86395700Y89633301D03*
X86395700Y90133300D03*
D16*
X85548600Y90980400D03*
X85048601Y90980400D03*
X84548599Y90980400D03*
X84048600Y90980400D03*
X83548601Y90980400D03*
X83048599Y90980400D03*
X82548600Y90980400D03*
D15*
X81701500Y90133300D03*
X81701500Y89633301D03*
X81701500Y89133299D03*
X81701500Y88633300D03*
X81701500Y88133301D03*
X81701500Y87633299D03*
X81701500Y87133300D03*
D14*
X84048600Y88633300D03*
X84074000Y35153600D03*
D15*
X86421100Y36653600D03*
X86421100Y36153601D03*
X86421100Y35653599D03*
X86421100Y35153600D03*
X86421100Y34653601D03*
X86421100Y34153599D03*
X86421100Y33653600D03*
D16*
X85574000Y32806500D03*
X85074001Y32806500D03*
X84573999Y32806500D03*
X84074000Y32806500D03*
X83574001Y32806500D03*
X83073999Y32806500D03*
X82574000Y32806500D03*
D15*
X81726900Y33653600D03*
X81726900Y34153599D03*
X81726900Y34653601D03*
X81726900Y35153600D03*
X81726900Y35653599D03*
X81726900Y36153601D03*
X81726900Y36653600D03*
D16*
X82574000Y37500700D03*
X83073999Y37500700D03*
X83574001Y37500700D03*
X84074000Y37500700D03*
X84573999Y37500700D03*
X85074001Y37500700D03*
X85574000Y37500700D03*
D14*
X84081401Y15818401D03*
D15*
X86428501Y17318401D03*
X86428501Y16818402D03*
X86428501Y16318400D03*
X86428501Y15818401D03*
X86428501Y15318402D03*
X86428501Y14818400D03*
X86428501Y14318401D03*
D16*
X85581401Y13471301D03*
X85081402Y13471301D03*
X84581400Y13471301D03*
X84081401Y13471301D03*
X83581402Y13471301D03*
X83081400Y13471301D03*
X82581401Y13471301D03*
D15*
X81734301Y14318401D03*
X81734301Y14818400D03*
X81734301Y15318402D03*
X81734301Y15818401D03*
X81734301Y16318400D03*
X81734301Y16818402D03*
X81734301Y17318401D03*
D16*
X82581401Y18165501D03*
X83081400Y18165501D03*
X83581402Y18165501D03*
X84081401Y18165501D03*
X84581400Y18165501D03*
X85081402Y18165501D03*
X85581401Y18165501D03*
D14*
X84074000Y54241700D03*
D15*
X86421100Y55741700D03*
X86421100Y55241701D03*
X86421100Y54741699D03*
X86421100Y54241700D03*
X86421100Y53741701D03*
X86421100Y53241699D03*
X86421100Y52741700D03*
D16*
X85574000Y51894600D03*
X85074001Y51894600D03*
X84573999Y51894600D03*
X84074000Y51894600D03*
X83574001Y51894600D03*
X83073999Y51894600D03*
X82574000Y51894600D03*
D15*
X81726900Y52741700D03*
X81726900Y53241699D03*
X81726900Y53741701D03*
X81726900Y54241700D03*
X81726900Y54741699D03*
X81726900Y55241701D03*
X81726900Y55741700D03*
D16*
X82574000Y56588800D03*
X83073999Y56588800D03*
X83574001Y56588800D03*
X84074000Y56588800D03*
X84573999Y56588800D03*
X85074001Y56588800D03*
X85574000Y56588800D03*
D17*
X44835100Y25924600D03*
X44835100Y25274600D03*
X44835100Y24624600D03*
X44835100Y23974600D03*
X44835100Y23324600D03*
X44835100Y22674600D03*
X44835100Y22024600D03*
X38935100Y22024600D03*
X38935100Y22674600D03*
X38935100Y23324600D03*
X38935100Y23974600D03*
X38935100Y24624600D03*
X38935100Y25274600D03*
X38935100Y25924600D03*
X24907500Y38711800D03*
X24907500Y38061800D03*
X24907500Y37411800D03*
X24907500Y36761800D03*
X24907500Y36111800D03*
X24907500Y35461800D03*
X24907500Y34811800D03*
X19007500Y34811800D03*
X19007500Y35461800D03*
X19007500Y36111800D03*
X19007500Y36761800D03*
X19007500Y37411800D03*
X19007500Y38061800D03*
X19007500Y38711800D03*
X50002500Y36217800D03*
X50002500Y35567800D03*
X50002500Y34917800D03*
X50002500Y34267800D03*
X50002500Y33617800D03*
X50002500Y32967800D03*
X50002500Y32317800D03*
X44102500Y32317800D03*
X44102500Y32967800D03*
X44102500Y33617800D03*
X44102500Y34267800D03*
X44102500Y34917800D03*
X44102500Y35567800D03*
X44102500Y36217800D03*
D18*
X55534600Y11706100D03*
X53634600Y11706100D03*
X54584600Y9706100D03*
X47406600Y11706100D03*
X45506600Y11706100D03*
X46456600Y9706100D03*
X39253200Y11690100D03*
X37353200Y11690100D03*
X38303200Y9690100D03*
X31074400Y11680700D03*
X29174400Y11680700D03*
X30124400Y9680700D03*
D19*
X29454600Y83358100D03*
X31454600Y83358100D03*
X31454600Y85358100D03*
X29454600Y85358100D03*
D20*
X28454600Y87033100D03*
X29789600Y87033100D03*
X31119600Y87033100D03*
X32454600Y87033100D03*
D21*
X28549600Y81033100D03*
X29819600Y81033100D03*
X31089600Y81033100D03*
X32359600Y81033100D03*
D22*
X47135400Y86430700D03*
X47135400Y85580700D03*
X47135400Y87280700D03*
X49435400Y86430700D03*
X49435400Y85580700D03*
X49435400Y87280700D03*
X48285400Y87280700D03*
X48285400Y85580700D03*
D23*
X46405400Y89130700D03*
X50165400Y89130700D03*
X47685400Y89130700D03*
D24*
X47645400Y83410700D03*
X46375400Y83410700D03*
X48925400Y83410700D03*
X50195400Y83410700D03*
D23*
X48885400Y89130700D03*
D22*
X48285400Y86430700D03*
X38093000Y86450000D03*
X38093000Y85600000D03*
X38093000Y87300000D03*
X40393000Y86450000D03*
X40393000Y85600000D03*
X40393000Y87300000D03*
X39243000Y87300000D03*
X39243000Y85600000D03*
D23*
X37363000Y89150000D03*
X41123000Y89150000D03*
X38643000Y89150000D03*
D24*
X38603000Y83430000D03*
X37333000Y83430000D03*
X39883000Y83430000D03*
X41153000Y83430000D03*
D23*
X39843000Y89150000D03*
D22*
X39243000Y86450000D03*
D11*
X55626100Y13246100D03*
X54051100Y13246100D03*
D10*
X51841400Y13297100D03*
X51841400Y11722100D03*
D11*
X47472800Y13246100D03*
X45897800Y13246100D03*
D10*
X43713400Y13271600D03*
X43713400Y11696600D03*
D11*
X39344700Y13195300D03*
X37769700Y13195300D03*
D10*
X35585400Y13246200D03*
X35585400Y11671200D03*
D11*
X31165900Y13195300D03*
X29590900Y13195300D03*
D10*
X27457400Y13220900D03*
X27457400Y11645900D03*
X16941800Y48043900D03*
X16941800Y49618900D03*
X32448500Y79083000D03*
X32448500Y77508000D03*
X55956200Y89827000D03*
X55956200Y91402000D03*
D11*
X59029700Y91376500D03*
X57454700Y91376500D03*
D10*
X20294600Y48018600D03*
X20294600Y49593600D03*
X50266600Y81673700D03*
X50266600Y80098700D03*
X55702200Y70243500D03*
X55702200Y71818500D03*
D11*
X58775700Y71818500D03*
X57200700Y71818500D03*
D10*
X62052200Y65849400D03*
X62052200Y67424400D03*
X60477400Y64274800D03*
X60477400Y62699800D03*
D25*
G36*
X92966271Y70065270D02*
G01*
X93047377Y70011077D01*
X93101570Y69929971D01*
X93120600Y69834300D01*
X93120600Y69084300D01*
X93101570Y68988629D01*
X93047377Y68907523D01*
X92966271Y68853330D01*
X92870600Y68834300D01*
X90720600Y68834300D01*
X90624929Y68853330D01*
X90543823Y68907523D01*
X90489630Y68988629D01*
X90470600Y69084300D01*
X90470600Y69834300D01*
X90489630Y69929971D01*
X90543823Y70011077D01*
X90624929Y70065270D01*
X90720600Y70084300D01*
X92870600Y70084300D01*
X92966271Y70065270D01*
X92966271Y70065270D01*
G37*
D26*
X91795600Y69459300D03*
D25*
G36*
X92966271Y67265270D02*
G01*
X93047377Y67211077D01*
X93101570Y67129971D01*
X93120600Y67034300D01*
X93120600Y66284300D01*
X93101570Y66188629D01*
X93047377Y66107523D01*
X92966271Y66053330D01*
X92870600Y66034300D01*
X90720600Y66034300D01*
X90624929Y66053330D01*
X90543823Y66107523D01*
X90489630Y66188629D01*
X90470600Y66284300D01*
X90470600Y67034300D01*
X90489630Y67129971D01*
X90543823Y67211077D01*
X90624929Y67265270D01*
X90720600Y67284300D01*
X92870600Y67284300D01*
X92966271Y67265270D01*
X92966271Y67265270D01*
G37*
D26*
X91795600Y66659300D03*
D25*
G36*
X92966271Y77936270D02*
G01*
X93047377Y77882077D01*
X93101570Y77800971D01*
X93120600Y77705300D01*
X93120600Y76955300D01*
X93101570Y76859629D01*
X93047377Y76778523D01*
X92966271Y76724330D01*
X92870600Y76705300D01*
X90720600Y76705300D01*
X90624929Y76724330D01*
X90543823Y76778523D01*
X90489630Y76859629D01*
X90470600Y76955300D01*
X90470600Y77705300D01*
X90489630Y77800971D01*
X90543823Y77882077D01*
X90624929Y77936270D01*
X90720600Y77955300D01*
X92870600Y77955300D01*
X92966271Y77936270D01*
X92966271Y77936270D01*
G37*
D26*
X91795600Y77330300D03*
D25*
G36*
X92966271Y80736270D02*
G01*
X93047377Y80682077D01*
X93101570Y80600971D01*
X93120600Y80505300D01*
X93120600Y79755300D01*
X93101570Y79659629D01*
X93047377Y79578523D01*
X92966271Y79524330D01*
X92870600Y79505300D01*
X90720600Y79505300D01*
X90624929Y79524330D01*
X90543823Y79578523D01*
X90489630Y79659629D01*
X90470600Y79755300D01*
X90470600Y80505300D01*
X90489630Y80600971D01*
X90543823Y80682077D01*
X90624929Y80736270D01*
X90720600Y80755300D01*
X92870600Y80755300D01*
X92966271Y80736270D01*
X92966271Y80736270D01*
G37*
D26*
X91795600Y80130300D03*
D10*
X44069000Y57061000D03*
X44069000Y58636000D03*
D11*
X48336400Y51244500D03*
X46761400Y51244500D03*
D10*
X42189400Y62293600D03*
X42189400Y60718600D03*
D11*
X37591900Y51244500D03*
X39166900Y51244500D03*
D25*
G36*
X77345271Y93176270D02*
G01*
X77426377Y93122077D01*
X77480570Y93040971D01*
X77499600Y92945300D01*
X77499600Y92195300D01*
X77480570Y92099629D01*
X77426377Y92018523D01*
X77345271Y91964330D01*
X77249600Y91945300D01*
X75099600Y91945300D01*
X75003929Y91964330D01*
X74922823Y92018523D01*
X74868630Y92099629D01*
X74849600Y92195300D01*
X74849600Y92945300D01*
X74868630Y93040971D01*
X74922823Y93122077D01*
X75003929Y93176270D01*
X75099600Y93195300D01*
X77249600Y93195300D01*
X77345271Y93176270D01*
X77345271Y93176270D01*
G37*
D26*
X76174600Y92570300D03*
D25*
G36*
X77345271Y95976270D02*
G01*
X77426377Y95922077D01*
X77480570Y95840971D01*
X77499600Y95745300D01*
X77499600Y94995300D01*
X77480570Y94899629D01*
X77426377Y94818523D01*
X77345271Y94764330D01*
X77249600Y94745300D01*
X75099600Y94745300D01*
X75003929Y94764330D01*
X74922823Y94818523D01*
X74868630Y94899629D01*
X74849600Y94995300D01*
X74849600Y95745300D01*
X74868630Y95840971D01*
X74922823Y95922077D01*
X75003929Y95976270D01*
X75099600Y95995300D01*
X77249600Y95995300D01*
X77345271Y95976270D01*
X77345271Y95976270D01*
G37*
D26*
X76174600Y95370300D03*
D25*
G36*
X77408771Y85302270D02*
G01*
X77489877Y85248077D01*
X77544070Y85166971D01*
X77563100Y85071300D01*
X77563100Y84321300D01*
X77544070Y84225629D01*
X77489877Y84144523D01*
X77408771Y84090330D01*
X77313100Y84071300D01*
X75163100Y84071300D01*
X75067429Y84090330D01*
X74986323Y84144523D01*
X74932130Y84225629D01*
X74913100Y84321300D01*
X74913100Y85071300D01*
X74932130Y85166971D01*
X74986323Y85248077D01*
X75067429Y85302270D01*
X75163100Y85321300D01*
X77313100Y85321300D01*
X77408771Y85302270D01*
X77408771Y85302270D01*
G37*
D26*
X76238100Y84696300D03*
D25*
G36*
X77408771Y82502270D02*
G01*
X77489877Y82448077D01*
X77544070Y82366971D01*
X77563100Y82271300D01*
X77563100Y81521300D01*
X77544070Y81425629D01*
X77489877Y81344523D01*
X77408771Y81290330D01*
X77313100Y81271300D01*
X75163100Y81271300D01*
X75067429Y81290330D01*
X74986323Y81344523D01*
X74932130Y81425629D01*
X74913100Y81521300D01*
X74913100Y82271300D01*
X74932130Y82366971D01*
X74986323Y82448077D01*
X75067429Y82502270D01*
X75163100Y82521300D01*
X77313100Y82521300D01*
X77408771Y82502270D01*
X77408771Y82502270D01*
G37*
D26*
X76238100Y81896300D03*
D10*
X44018200Y64833400D03*
X44018200Y66408400D03*
D11*
X48361700Y52920900D03*
X46786700Y52920900D03*
D10*
X42189400Y69862800D03*
X42189400Y68287800D03*
D11*
X37591900Y52920900D03*
X39166900Y52920900D03*
D25*
G36*
X93118671Y31670170D02*
G01*
X93199777Y31615977D01*
X93253970Y31534871D01*
X93273000Y31439200D01*
X93273000Y30689200D01*
X93253970Y30593529D01*
X93199777Y30512423D01*
X93118671Y30458230D01*
X93023000Y30439200D01*
X90873000Y30439200D01*
X90777329Y30458230D01*
X90696223Y30512423D01*
X90642030Y30593529D01*
X90623000Y30689200D01*
X90623000Y31439200D01*
X90642030Y31534871D01*
X90696223Y31615977D01*
X90777329Y31670170D01*
X90873000Y31689200D01*
X93023000Y31689200D01*
X93118671Y31670170D01*
X93118671Y31670170D01*
G37*
D26*
X91948000Y31064200D03*
D25*
G36*
X93118671Y28870170D02*
G01*
X93199777Y28815977D01*
X93253970Y28734871D01*
X93273000Y28639200D01*
X93273000Y27889200D01*
X93253970Y27793529D01*
X93199777Y27712423D01*
X93118671Y27658230D01*
X93023000Y27639200D01*
X90873000Y27639200D01*
X90777329Y27658230D01*
X90696223Y27712423D01*
X90642030Y27793529D01*
X90623000Y27889200D01*
X90623000Y28639200D01*
X90642030Y28734871D01*
X90696223Y28815977D01*
X90777329Y28870170D01*
X90873000Y28889200D01*
X93023000Y28889200D01*
X93118671Y28870170D01*
X93118671Y28870170D01*
G37*
D26*
X91948000Y28264200D03*
D25*
G36*
X93067871Y39772770D02*
G01*
X93148977Y39718577D01*
X93203170Y39637471D01*
X93222200Y39541800D01*
X93222200Y38791800D01*
X93203170Y38696129D01*
X93148977Y38615023D01*
X93067871Y38560830D01*
X92972200Y38541800D01*
X90822200Y38541800D01*
X90726529Y38560830D01*
X90645423Y38615023D01*
X90591230Y38696129D01*
X90572200Y38791800D01*
X90572200Y39541800D01*
X90591230Y39637471D01*
X90645423Y39718577D01*
X90726529Y39772770D01*
X90822200Y39791800D01*
X92972200Y39791800D01*
X93067871Y39772770D01*
X93067871Y39772770D01*
G37*
D26*
X91897200Y39166800D03*
D25*
G36*
X93067871Y42572770D02*
G01*
X93148977Y42518577D01*
X93203170Y42437471D01*
X93222200Y42341800D01*
X93222200Y41591800D01*
X93203170Y41496129D01*
X93148977Y41415023D01*
X93067871Y41360830D01*
X92972200Y41341800D01*
X90822200Y41341800D01*
X90726529Y41360830D01*
X90645423Y41415023D01*
X90591230Y41496129D01*
X90572200Y41591800D01*
X90572200Y42341800D01*
X90591230Y42437471D01*
X90645423Y42518577D01*
X90726529Y42572770D01*
X90822200Y42591800D01*
X92972200Y42591800D01*
X93067871Y42572770D01*
X93067871Y42572770D01*
G37*
D26*
X91897200Y41966800D03*
D10*
X44018200Y72605800D03*
X44018200Y74180800D03*
D11*
X48361700Y54597300D03*
X46786700Y54597300D03*
D10*
X42138600Y77482800D03*
X42138600Y75907800D03*
D11*
X37591900Y54597300D03*
X39166900Y54597300D03*
D25*
G36*
X93067871Y12378870D02*
G01*
X93148977Y12324677D01*
X93203170Y12243571D01*
X93222200Y12147900D01*
X93222200Y11397900D01*
X93203170Y11302229D01*
X93148977Y11221123D01*
X93067871Y11166930D01*
X92972200Y11147900D01*
X90822200Y11147900D01*
X90726529Y11166930D01*
X90645423Y11221123D01*
X90591230Y11302229D01*
X90572200Y11397900D01*
X90572200Y12147900D01*
X90591230Y12243571D01*
X90645423Y12324677D01*
X90726529Y12378870D01*
X90822200Y12397900D01*
X92972200Y12397900D01*
X93067871Y12378870D01*
X93067871Y12378870D01*
G37*
D26*
X91897200Y11772900D03*
D25*
G36*
X93067871Y9578870D02*
G01*
X93148977Y9524677D01*
X93203170Y9443571D01*
X93222200Y9347900D01*
X93222200Y8597900D01*
X93203170Y8502229D01*
X93148977Y8421123D01*
X93067871Y8366930D01*
X92972200Y8347900D01*
X90822200Y8347900D01*
X90726529Y8366930D01*
X90645423Y8421123D01*
X90591230Y8502229D01*
X90572200Y8597900D01*
X90572200Y9347900D01*
X90591230Y9443571D01*
X90645423Y9524677D01*
X90726529Y9578870D01*
X90822200Y9597900D01*
X92972200Y9597900D01*
X93067871Y9578870D01*
X93067871Y9578870D01*
G37*
D26*
X91897200Y8972900D03*
D25*
G36*
X92991671Y20450070D02*
G01*
X93072777Y20395877D01*
X93126970Y20314771D01*
X93146000Y20219100D01*
X93146000Y19469100D01*
X93126970Y19373429D01*
X93072777Y19292323D01*
X92991671Y19238130D01*
X92896000Y19219100D01*
X90746000Y19219100D01*
X90650329Y19238130D01*
X90569223Y19292323D01*
X90515030Y19373429D01*
X90496000Y19469100D01*
X90496000Y20219100D01*
X90515030Y20314771D01*
X90569223Y20395877D01*
X90650329Y20450070D01*
X90746000Y20469100D01*
X92896000Y20469100D01*
X92991671Y20450070D01*
X92991671Y20450070D01*
G37*
D26*
X91821000Y19844100D03*
D25*
G36*
X92991671Y23250070D02*
G01*
X93072777Y23195877D01*
X93126970Y23114771D01*
X93146000Y23019100D01*
X93146000Y22269100D01*
X93126970Y22173429D01*
X93072777Y22092323D01*
X92991671Y22038130D01*
X92896000Y22019100D01*
X90746000Y22019100D01*
X90650329Y22038130D01*
X90569223Y22092323D01*
X90515030Y22173429D01*
X90496000Y22269100D01*
X90496000Y23019100D01*
X90515030Y23114771D01*
X90569223Y23195877D01*
X90650329Y23250070D01*
X90746000Y23269100D01*
X92896000Y23269100D01*
X92991671Y23250070D01*
X92991671Y23250070D01*
G37*
D26*
X91821000Y22644100D03*
D10*
X18618200Y48018600D03*
X18618200Y49593600D03*
X41211500Y81750000D03*
X41211500Y80175000D03*
X55854600Y80022600D03*
X55854600Y81597600D03*
D11*
X58928100Y81572100D03*
X57353100Y81572100D03*
D10*
X62052200Y73469400D03*
X62052200Y75044400D03*
X65354200Y64274800D03*
X65354200Y62699800D03*
D25*
G36*
X93118671Y50783670D02*
G01*
X93199777Y50729477D01*
X93253970Y50648371D01*
X93273000Y50552700D01*
X93273000Y49802700D01*
X93253970Y49707029D01*
X93199777Y49625923D01*
X93118671Y49571730D01*
X93023000Y49552700D01*
X90873000Y49552700D01*
X90777329Y49571730D01*
X90696223Y49625923D01*
X90642030Y49707029D01*
X90623000Y49802700D01*
X90623000Y50552700D01*
X90642030Y50648371D01*
X90696223Y50729477D01*
X90777329Y50783670D01*
X90873000Y50802700D01*
X93023000Y50802700D01*
X93118671Y50783670D01*
X93118671Y50783670D01*
G37*
D26*
X91948000Y50177700D03*
D25*
G36*
X93118671Y47983670D02*
G01*
X93199777Y47929477D01*
X93253970Y47848371D01*
X93273000Y47752700D01*
X93273000Y47002700D01*
X93253970Y46907029D01*
X93199777Y46825923D01*
X93118671Y46771730D01*
X93023000Y46752700D01*
X90873000Y46752700D01*
X90777329Y46771730D01*
X90696223Y46825923D01*
X90642030Y46907029D01*
X90623000Y47002700D01*
X90623000Y47752700D01*
X90642030Y47848371D01*
X90696223Y47929477D01*
X90777329Y47983670D01*
X90873000Y48002700D01*
X93023000Y48002700D01*
X93118671Y47983670D01*
X93118671Y47983670D01*
G37*
D26*
X91948000Y47377700D03*
D25*
G36*
X92991671Y58778670D02*
G01*
X93072777Y58724477D01*
X93126970Y58643371D01*
X93146000Y58547700D01*
X93146000Y57797700D01*
X93126970Y57702029D01*
X93072777Y57620923D01*
X92991671Y57566730D01*
X92896000Y57547700D01*
X90746000Y57547700D01*
X90650329Y57566730D01*
X90569223Y57620923D01*
X90515030Y57702029D01*
X90496000Y57797700D01*
X90496000Y58547700D01*
X90515030Y58643371D01*
X90569223Y58724477D01*
X90650329Y58778670D01*
X90746000Y58797700D01*
X92896000Y58797700D01*
X92991671Y58778670D01*
X92991671Y58778670D01*
G37*
D26*
X91821000Y58172700D03*
D25*
G36*
X92991671Y61578670D02*
G01*
X93072777Y61524477D01*
X93126970Y61443371D01*
X93146000Y61347700D01*
X93146000Y60597700D01*
X93126970Y60502029D01*
X93072777Y60420923D01*
X92991671Y60366730D01*
X92896000Y60347700D01*
X90746000Y60347700D01*
X90650329Y60366730D01*
X90569223Y60420923D01*
X90515030Y60502029D01*
X90496000Y60597700D01*
X90496000Y61347700D01*
X90515030Y61443371D01*
X90569223Y61524477D01*
X90650329Y61578670D01*
X90746000Y61597700D01*
X92896000Y61597700D01*
X92991671Y61578670D01*
X92991671Y61578670D01*
G37*
D26*
X91821000Y60972700D03*
D11*
X4267100Y63842900D03*
X5842100Y63842900D03*
X48577500Y42291000D03*
X47002500Y42291000D03*
X4267100Y62166500D03*
X5842100Y62166500D03*
X14452500Y36182300D03*
X16027500Y36182300D03*
X29591100Y37401500D03*
X28016100Y37401500D03*
X29540300Y35267900D03*
X27965300Y35267900D03*
X14452500Y37909500D03*
X16027500Y37909500D03*
X5842100Y60515500D03*
X4267100Y60515500D03*
X4267100Y65557400D03*
X5842100Y65557400D03*
D27*
X97336000Y97296500D03*
D28*
X97336000Y97296500D03*
D27*
X1786000Y1746500D03*
D28*
X1786000Y1746500D03*
D27*
X97336000Y1746500D03*
D28*
X97336000Y1746500D03*
D27*
X1786000Y97296500D03*
D28*
X1786000Y97296500D03*
D29*
X24280400Y82003900D03*
X16410400Y82003900D03*
D30*
X3733800Y88123300D03*
X3733800Y80253300D03*
D31*
X3683000Y68672500D03*
X3683000Y75472500D03*
D32*
X51821400Y9944100D03*
X49321400Y9944100D03*
X43718800Y9944100D03*
X41218800Y9944100D03*
X35590800Y9944100D03*
X33090800Y9944100D03*
X27462800Y9918700D03*
X24962800Y9918700D03*
X26459500Y78232000D03*
X23959500Y78232000D03*
D33*
X16941800Y52654100D03*
X16941800Y51054100D03*
D32*
X44069000Y86824500D03*
X44069000Y89324500D03*
D33*
X20294600Y52654100D03*
X20294600Y51054100D03*
X62052200Y64287300D03*
X62052200Y62687300D03*
D34*
X43726200Y51244500D03*
X45326200Y51244500D03*
X42227400Y51244500D03*
X40627400Y51244500D03*
X43749900Y52909400D03*
X45349900Y52909400D03*
X42227400Y52920900D03*
X40627400Y52920900D03*
X43726200Y54597300D03*
X45326200Y54597300D03*
X42227400Y54597300D03*
X40627400Y54597300D03*
D32*
X34988500Y86824500D03*
X34988500Y89324500D03*
D33*
X18618200Y52654100D03*
X18618200Y51054100D03*
X63728600Y64287300D03*
X63728600Y62687300D03*
D34*
X2755800Y63842900D03*
X1155800Y63842900D03*
X2755800Y62166500D03*
X1155800Y62166500D03*
X2755800Y60464700D03*
X1155800Y60464700D03*
X2755800Y65557400D03*
X1155800Y65557400D03*
D25*
G36*
X98369671Y87140970D02*
G01*
X98450777Y87086777D01*
X98504970Y87005671D01*
X98524000Y86910000D01*
X98524000Y85810000D01*
X98504970Y85714329D01*
X98450777Y85633223D01*
X98369671Y85579030D01*
X98274000Y85560000D01*
X95274000Y85560000D01*
X95178329Y85579030D01*
X95097223Y85633223D01*
X95043030Y85714329D01*
X95024000Y85810000D01*
X95024000Y86910000D01*
X95043030Y87005671D01*
X95097223Y87086777D01*
X95178329Y87140970D01*
X95274000Y87160000D01*
X98274000Y87160000D01*
X98369671Y87140970D01*
X98369671Y87140970D01*
G37*
D35*
X96774000Y86360000D03*
D25*
G36*
X92969671Y87140970D02*
G01*
X93050777Y87086777D01*
X93104970Y87005671D01*
X93124000Y86910000D01*
X93124000Y85810000D01*
X93104970Y85714329D01*
X93050777Y85633223D01*
X92969671Y85579030D01*
X92874000Y85560000D01*
X89874000Y85560000D01*
X89778329Y85579030D01*
X89697223Y85633223D01*
X89643030Y85714329D01*
X89624000Y85810000D01*
X89624000Y86910000D01*
X89643030Y87005671D01*
X89697223Y87086777D01*
X89778329Y87140970D01*
X89874000Y87160000D01*
X92874000Y87160000D01*
X92969671Y87140970D01*
X92969671Y87140970D01*
G37*
D35*
X91374000Y86360000D03*
D36*
X88245600Y79616300D03*
X85445600Y79616300D03*
X88245600Y67170300D03*
X85445600Y67170300D03*
D12*
X89636600Y79027300D03*
X89636600Y79997300D03*
X89636600Y67632300D03*
X89636600Y66662300D03*
D10*
X48323500Y22695000D03*
X48323500Y21120000D03*
D11*
X49822000Y20955000D03*
X51397000Y20955000D03*
D36*
X25098200Y86525100D03*
X22298200Y86525100D03*
D10*
X54432200Y89827000D03*
X54432200Y91402000D03*
D37*
X44018200Y84953300D03*
X44018200Y82153300D03*
D10*
X54127400Y70269000D03*
X54127400Y71844000D03*
X62052200Y70319800D03*
X62052200Y71894800D03*
D11*
X80822600Y77330300D03*
X82397600Y77330300D03*
X97942600Y80632300D03*
X96367600Y80632300D03*
X91059000Y82054700D03*
X92634000Y82054700D03*
X97942600Y66154300D03*
X96367600Y66154300D03*
X91109700Y64554100D03*
X92684700Y64554100D03*
X82118100Y79108300D03*
X83693100Y79108300D03*
D10*
X80111600Y73837800D03*
X80111600Y75412800D03*
D11*
X82473600Y69329300D03*
X84048600Y69329300D03*
D25*
G36*
X73261771Y77476270D02*
G01*
X73342877Y77422077D01*
X73397070Y77340971D01*
X73416100Y77245300D01*
X73416100Y76145300D01*
X73397070Y76049629D01*
X73342877Y75968523D01*
X73261771Y75914330D01*
X73166100Y75895300D01*
X70166100Y75895300D01*
X70070429Y75914330D01*
X69989323Y75968523D01*
X69935130Y76049629D01*
X69916100Y76145300D01*
X69916100Y77245300D01*
X69935130Y77340971D01*
X69989323Y77422077D01*
X70070429Y77476270D01*
X70166100Y77495300D01*
X73166100Y77495300D01*
X73261771Y77476270D01*
X73261771Y77476270D01*
G37*
D35*
X71666100Y76695300D03*
D25*
G36*
X78661771Y77476270D02*
G01*
X78742877Y77422077D01*
X78797070Y77340971D01*
X78816100Y77245300D01*
X78816100Y76145300D01*
X78797070Y76049629D01*
X78742877Y75968523D01*
X78661771Y75914330D01*
X78566100Y75895300D01*
X75566100Y75895300D01*
X75470429Y75914330D01*
X75389323Y75968523D01*
X75335130Y76049629D01*
X75316100Y76145300D01*
X75316100Y77245300D01*
X75335130Y77340971D01*
X75389323Y77422077D01*
X75470429Y77476270D01*
X75566100Y77495300D01*
X78566100Y77495300D01*
X78661771Y77476270D01*
X78661771Y77476270D01*
G37*
D35*
X77066100Y76695300D03*
D36*
X79791100Y82410300D03*
X82591100Y82410300D03*
X79794100Y94792800D03*
X82594100Y94792800D03*
D12*
X78333600Y94457800D03*
X78333600Y95427800D03*
D10*
X44069000Y60515400D03*
X44069000Y62090400D03*
X42189400Y58864700D03*
X42189400Y57289700D03*
D12*
X78397100Y83062800D03*
X78397100Y82092800D03*
D11*
X70116600Y81330800D03*
X71691600Y81330800D03*
X65252600Y81267300D03*
X63677600Y81267300D03*
X70154600Y95872300D03*
X71729600Y95872300D03*
X65252600Y95935800D03*
X63677600Y95935800D03*
X87312600Y84569300D03*
X85737600Y84569300D03*
X85877600Y82918300D03*
X84302600Y82918300D03*
D10*
X87985600Y88112800D03*
X87985600Y86537800D03*
D11*
X85636100Y92633800D03*
X84061100Y92633800D03*
D25*
G36*
X73261771Y42055970D02*
G01*
X73342877Y42001777D01*
X73397070Y41920671D01*
X73416100Y41825000D01*
X73416100Y40725000D01*
X73397070Y40629329D01*
X73342877Y40548223D01*
X73261771Y40494030D01*
X73166100Y40475000D01*
X70166100Y40475000D01*
X70070429Y40494030D01*
X69989323Y40548223D01*
X69935130Y40629329D01*
X69916100Y40725000D01*
X69916100Y41825000D01*
X69935130Y41920671D01*
X69989323Y42001777D01*
X70070429Y42055970D01*
X70166100Y42075000D01*
X73166100Y42075000D01*
X73261771Y42055970D01*
X73261771Y42055970D01*
G37*
D35*
X71666100Y41275000D03*
D25*
G36*
X78661771Y42055970D02*
G01*
X78742877Y42001777D01*
X78797070Y41920671D01*
X78816100Y41825000D01*
X78816100Y40725000D01*
X78797070Y40629329D01*
X78742877Y40548223D01*
X78661771Y40494030D01*
X78566100Y40475000D01*
X75566100Y40475000D01*
X75470429Y40494030D01*
X75389323Y40548223D01*
X75335130Y40629329D01*
X75316100Y40725000D01*
X75316100Y41825000D01*
X75335130Y41920671D01*
X75389323Y42001777D01*
X75470429Y42055970D01*
X75566100Y42075000D01*
X78566100Y42075000D01*
X78661771Y42055970D01*
X78661771Y42055970D01*
G37*
D35*
X77066100Y41275000D03*
D36*
X88369600Y41402000D03*
X85569600Y41402000D03*
X88344200Y28981400D03*
X85544200Y28981400D03*
D10*
X44018200Y68186200D03*
X44018200Y69761200D03*
X42189400Y66357600D03*
X42189400Y64782600D03*
D12*
X89789000Y40713800D03*
X89789000Y41683800D03*
D11*
X97968000Y42545000D03*
X96393000Y42545000D03*
X91185900Y43878500D03*
X92760900Y43878500D03*
X97968000Y27990800D03*
X96393000Y27990800D03*
X91198500Y26225500D03*
X92773500Y26225500D03*
D12*
X89738200Y29415600D03*
X89738200Y28445600D03*
D11*
X80644900Y39217600D03*
X82219900Y39217600D03*
X82346600Y40817800D03*
X83921600Y40817800D03*
D10*
X80124300Y35712300D03*
X80124300Y37287300D03*
D11*
X82448300Y31165800D03*
X84023300Y31165800D03*
D25*
G36*
X73261771Y22764670D02*
G01*
X73342877Y22710477D01*
X73397070Y22629371D01*
X73416100Y22533700D01*
X73416100Y21433700D01*
X73397070Y21338029D01*
X73342877Y21256923D01*
X73261771Y21202730D01*
X73166100Y21183700D01*
X70166100Y21183700D01*
X70070429Y21202730D01*
X69989323Y21256923D01*
X69935130Y21338029D01*
X69916100Y21433700D01*
X69916100Y22533700D01*
X69935130Y22629371D01*
X69989323Y22710477D01*
X70070429Y22764670D01*
X70166100Y22783700D01*
X73166100Y22783700D01*
X73261771Y22764670D01*
X73261771Y22764670D01*
G37*
D35*
X71666100Y21983700D03*
D25*
G36*
X78661771Y22764670D02*
G01*
X78742877Y22710477D01*
X78797070Y22629371D01*
X78816100Y22533700D01*
X78816100Y21433700D01*
X78797070Y21338029D01*
X78742877Y21256923D01*
X78661771Y21202730D01*
X78566100Y21183700D01*
X75566100Y21183700D01*
X75470429Y21202730D01*
X75389323Y21256923D01*
X75335130Y21338029D01*
X75316100Y21433700D01*
X75316100Y22533700D01*
X75335130Y22629371D01*
X75389323Y22710477D01*
X75470429Y22764670D01*
X75566100Y22783700D01*
X78566100Y22783700D01*
X78661771Y22764670D01*
X78661771Y22764670D01*
G37*
D35*
X77066100Y21983700D03*
D36*
X88318800Y22059900D03*
X85518800Y22059900D03*
D10*
X44018200Y75958600D03*
X44018200Y77533600D03*
X42189400Y74231600D03*
X42189400Y72656600D03*
D36*
X88417400Y9563100D03*
X85617400Y9563100D03*
D11*
X97993400Y23101300D03*
X96418400Y23101300D03*
X91224000Y24638000D03*
X92799000Y24638000D03*
X97993400Y8547100D03*
X96418400Y8547100D03*
X89789000Y6731000D03*
X91364000Y6731000D03*
D12*
X89789000Y10071100D03*
X89789000Y9101100D03*
D11*
X80797200Y19850100D03*
X82372200Y19850100D03*
X82321200Y21424900D03*
X83896200Y21424900D03*
D10*
X80137000Y16395500D03*
X80137000Y17970500D03*
D11*
X82550000Y11811000D03*
X84125000Y11811000D03*
D25*
G36*
X73261771Y61118670D02*
G01*
X73342877Y61064477D01*
X73397070Y60983371D01*
X73416100Y60887700D01*
X73416100Y59787700D01*
X73397070Y59692029D01*
X73342877Y59610923D01*
X73261771Y59556730D01*
X73166100Y59537700D01*
X70166100Y59537700D01*
X70070429Y59556730D01*
X69989323Y59610923D01*
X69935130Y59692029D01*
X69916100Y59787700D01*
X69916100Y60887700D01*
X69935130Y60983371D01*
X69989323Y61064477D01*
X70070429Y61118670D01*
X70166100Y61137700D01*
X73166100Y61137700D01*
X73261771Y61118670D01*
X73261771Y61118670D01*
G37*
D35*
X71666100Y60337700D03*
D25*
G36*
X78661771Y61118670D02*
G01*
X78742877Y61064477D01*
X78797070Y60983371D01*
X78816100Y60887700D01*
X78816100Y59787700D01*
X78797070Y59692029D01*
X78742877Y59610923D01*
X78661771Y59556730D01*
X78566100Y59537700D01*
X75566100Y59537700D01*
X75470429Y59556730D01*
X75389323Y59610923D01*
X75335130Y59692029D01*
X75316100Y59787700D01*
X75316100Y60887700D01*
X75335130Y60983371D01*
X75389323Y61064477D01*
X75470429Y61118670D01*
X75566100Y61137700D01*
X78566100Y61137700D01*
X78661771Y61118670D01*
X78661771Y61118670D01*
G37*
D35*
X77066100Y60337700D03*
D37*
X34925000Y84966000D03*
X34925000Y82166000D03*
D10*
X62052200Y77939800D03*
X62052200Y79514800D03*
D36*
X88268000Y60464700D03*
X85468000Y60464700D03*
D11*
X97968000Y61607700D03*
X96393000Y61607700D03*
X91135100Y62979300D03*
X92710100Y62979300D03*
X97968000Y47002700D03*
X96393000Y47002700D03*
X91211200Y45453300D03*
X92786200Y45453300D03*
D36*
X88395000Y48018700D03*
X85595000Y48018700D03*
D12*
X89789000Y48376700D03*
X89789000Y47406700D03*
X89662000Y59852700D03*
X89662000Y60822700D03*
D11*
X80772000Y58305700D03*
X82347000Y58305700D03*
X82143500Y59956700D03*
X83718500Y59956700D03*
D10*
X80010000Y54825700D03*
X80010000Y56400700D03*
D11*
X82550000Y50177700D03*
X84125000Y50177700D03*
X45135900Y29171900D03*
X43560900Y29171900D03*
X45135900Y27597100D03*
X43560900Y27597100D03*
X25133500Y41973500D03*
X23558500Y41973500D03*
X25146000Y40449500D03*
X23571000Y40449500D03*
X57963000Y68580000D03*
X56388000Y68580000D03*
X50292100Y37960300D03*
X48717100Y37960300D03*
D10*
X60883800Y49111100D03*
X60883800Y47536100D03*
D25*
G36*
X56347871Y47125870D02*
G01*
X56428977Y47071677D01*
X56483170Y46990571D01*
X56502200Y46894900D01*
X56502200Y43894900D01*
X56483170Y43799229D01*
X56428977Y43718123D01*
X56347871Y43663930D01*
X56252200Y43644900D01*
X55152200Y43644900D01*
X55056529Y43663930D01*
X54975423Y43718123D01*
X54921230Y43799229D01*
X54902200Y43894900D01*
X54902200Y46894900D01*
X54921230Y46990571D01*
X54975423Y47071677D01*
X55056529Y47125870D01*
X55152200Y47144900D01*
X56252200Y47144900D01*
X56347871Y47125870D01*
X56347871Y47125870D01*
G37*
D35*
X55702200Y45394900D03*
D25*
G36*
X56347871Y52525870D02*
G01*
X56428977Y52471677D01*
X56483170Y52390571D01*
X56502200Y52294900D01*
X56502200Y49294900D01*
X56483170Y49199229D01*
X56428977Y49118123D01*
X56347871Y49063930D01*
X56252200Y49044900D01*
X55152200Y49044900D01*
X55056529Y49063930D01*
X54975423Y49118123D01*
X54921230Y49199229D01*
X54902200Y49294900D01*
X54902200Y52294900D01*
X54921230Y52390571D01*
X54975423Y52471677D01*
X55056529Y52525870D01*
X55152200Y52544900D01*
X56252200Y52544900D01*
X56347871Y52525870D01*
X56347871Y52525870D01*
G37*
D35*
X55702200Y50794900D03*
D10*
X61036200Y34988700D03*
X61036200Y33413700D03*
M02*
