%TF.GenerationSoftware,KiCad,Pcbnew,5.0.0-rc3-unknown-eaf938c~65~ubuntu18.04.1*%
%TF.CreationDate,2018-07-14T20:59:02-07:00*%
%TF.ProjectId,PrntrBoardV1,50726E7472426F61726456312E6B6963,rev?*%
%TF.SameCoordinates,Original*%
%TF.FileFunction,Soldermask,Bot*%
%TF.FilePolarity,Negative*%
%FSLAX46Y46*%
G04 Gerber Fmt 4.6, Leading zero omitted, Abs format (unit mm)*
G04 Created by KiCad (PCBNEW 5.0.0-rc3-unknown-eaf938c~65~ubuntu18.04.1) date Sat Jul 14 20:59:02 2018*
%MOMM*%
%LPD*%
G01*
G04 APERTURE LIST*
%ADD10O,1.700000X1.700000*%
%ADD11R,1.700000X1.700000*%
%ADD12C,1.524000*%
%ADD13R,1.524000X1.524000*%
%ADD14O,1.727200X1.727200*%
%ADD15R,1.727200X1.727200*%
%ADD16C,3.200000*%
%ADD17R,2.600000X2.600000*%
%ADD18C,2.600000*%
%ADD19R,2.400000X2.400000*%
%ADD20C,2.400000*%
G04 APERTURE END LIST*
D10*
X91650000Y-48550000D03*
D11*
X91650000Y-46010000D03*
D10*
X103100000Y-115300000D03*
D11*
X100560000Y-115300000D03*
D10*
X91700000Y-107360000D03*
D11*
X91700000Y-109900000D03*
D10*
X22950000Y-39500000D03*
D11*
X22950000Y-36960000D03*
D12*
X83920000Y-63430000D03*
X83920000Y-65970000D03*
X83920000Y-68510000D03*
X83920000Y-71050000D03*
X83920000Y-73590000D03*
X83920000Y-76130000D03*
X83920000Y-78670000D03*
X83920000Y-81210000D03*
X83920000Y-83750000D03*
X83920000Y-86290000D03*
X83920000Y-88830000D03*
X83920000Y-91370000D03*
X83920000Y-93910000D03*
X83920000Y-96450000D03*
X83920000Y-98990000D03*
X83920000Y-101530000D03*
X83920000Y-104070000D03*
X83920000Y-106610000D03*
D13*
X86460000Y-63430000D03*
D12*
X86460000Y-65970000D03*
X86460000Y-68510000D03*
X86460000Y-71050000D03*
X86460000Y-73590000D03*
X86460000Y-76130000D03*
X86460000Y-78670000D03*
X86460000Y-81210000D03*
X86460000Y-83750000D03*
X86460000Y-86290000D03*
X86460000Y-88830000D03*
X86460000Y-91370000D03*
X86460000Y-93910000D03*
X86460000Y-96450000D03*
X86460000Y-98990000D03*
X86460000Y-101530000D03*
X86460000Y-104070000D03*
X86460000Y-106610000D03*
D13*
X25500000Y-63430000D03*
D12*
X25500000Y-65970000D03*
X25500000Y-68510000D03*
X25500000Y-71050000D03*
X25500000Y-73590000D03*
X25500000Y-76130000D03*
X25500000Y-78670000D03*
X25500000Y-81210000D03*
X25500000Y-83750000D03*
X25500000Y-86290000D03*
X25500000Y-88830000D03*
X25500000Y-91370000D03*
X25500000Y-93910000D03*
X25500000Y-96450000D03*
X25500000Y-98990000D03*
X25500000Y-101530000D03*
X25500000Y-104070000D03*
X25500000Y-106610000D03*
X22960000Y-63430000D03*
X22960000Y-65970000D03*
X22960000Y-68510000D03*
X22960000Y-71050000D03*
X22960000Y-73590000D03*
X22960000Y-76130000D03*
X22960000Y-78670000D03*
X22960000Y-81210000D03*
X22960000Y-83750000D03*
X22960000Y-86290000D03*
X22960000Y-88830000D03*
X22960000Y-91370000D03*
X22960000Y-93910000D03*
X22960000Y-96450000D03*
X22960000Y-98990000D03*
X22960000Y-101530000D03*
X22960000Y-104070000D03*
X22960000Y-106610000D03*
X25500000Y-109150000D03*
X22960000Y-109150000D03*
X83920000Y-109150000D03*
X86460000Y-109150000D03*
D10*
X75488800Y-56464200D03*
X72948800Y-56464200D03*
D11*
X70408800Y-56464200D03*
D10*
X85191600Y-56413400D03*
X82651600Y-56413400D03*
D11*
X80111600Y-56413400D03*
D10*
X85902800Y-50215800D03*
X83362800Y-50215800D03*
X80822800Y-50215800D03*
X78282800Y-50215800D03*
X75742800Y-50215800D03*
D11*
X73202800Y-50215800D03*
D10*
X85852000Y-46075600D03*
X83312000Y-46075600D03*
X80772000Y-46075600D03*
X78232000Y-46075600D03*
X75692000Y-46075600D03*
D11*
X73152000Y-46075600D03*
D14*
X50393600Y-94792800D03*
X50393600Y-92252800D03*
X52933600Y-94792800D03*
X52933600Y-92252800D03*
X55473600Y-94792800D03*
X55473600Y-92252800D03*
X58013600Y-94792800D03*
X58013600Y-92252800D03*
X60553600Y-94792800D03*
D15*
X60553600Y-92252800D03*
D10*
X66300000Y-59550000D03*
D11*
X63760000Y-59550000D03*
D10*
X89000000Y-93150000D03*
D11*
X89000000Y-90610000D03*
D16*
X23558500Y-114427000D03*
D17*
X105435400Y-24307800D03*
D18*
X100355400Y-24307800D03*
D17*
X89649300Y-24130000D03*
D18*
X84569300Y-24130000D03*
D19*
X64033400Y-24155400D03*
D20*
X60533400Y-24155400D03*
D19*
X76238100Y-24307800D03*
D20*
X72738100Y-24307800D03*
D19*
X32904600Y-112877600D03*
D20*
X36404600Y-112877600D03*
D19*
X66235500Y-112889500D03*
D20*
X69735500Y-112889500D03*
D19*
X74561500Y-112889500D03*
D20*
X78061500Y-112889500D03*
D19*
X57823600Y-112889500D03*
D20*
X61323600Y-112889500D03*
D19*
X41272699Y-112880900D03*
D20*
X44772699Y-112880900D03*
D19*
X33100000Y-24130000D03*
D20*
X29600000Y-24130000D03*
D19*
X49605100Y-112877600D03*
D20*
X53105100Y-112877600D03*
D10*
X71641000Y-73658500D03*
D11*
X69101000Y-73658500D03*
D10*
X71653700Y-82078600D03*
D11*
X69113700Y-82078600D03*
D10*
X76696400Y-96511800D03*
D11*
X76696400Y-99051800D03*
D10*
X76696400Y-103090400D03*
D11*
X76696400Y-105630400D03*
D10*
X79375300Y-73683900D03*
D11*
X76835300Y-73683900D03*
D10*
X71641000Y-65276500D03*
D11*
X69101000Y-65276500D03*
D10*
X35217600Y-85944600D03*
D11*
X32677600Y-85944600D03*
D10*
X79413400Y-65276500D03*
D11*
X76873400Y-65276500D03*
D10*
X76721800Y-89971300D03*
D11*
X76721800Y-92511300D03*
D10*
X35255700Y-77422900D03*
D11*
X32715700Y-77422900D03*
D10*
X35331900Y-94529800D03*
D11*
X32791900Y-94529800D03*
D10*
X91694000Y-113601500D03*
X94234000Y-113601500D03*
D11*
X96774000Y-113601500D03*
D10*
X112877600Y-78536800D03*
X112877600Y-75996800D03*
X112877600Y-73456800D03*
D11*
X112877600Y-70916800D03*
D10*
X111500000Y-55140000D03*
X111500000Y-52600000D03*
X111500000Y-50060000D03*
D11*
X111500000Y-47520000D03*
D10*
X116700000Y-57590000D03*
X116700000Y-55050000D03*
X116700000Y-52510000D03*
D11*
X116700000Y-49970000D03*
D10*
X112877600Y-103581200D03*
X112877600Y-101041200D03*
X112877600Y-98501200D03*
D11*
X112877600Y-95961200D03*
D10*
X24844800Y-46181600D03*
X24844800Y-48721600D03*
X24844800Y-51261600D03*
D11*
X24844800Y-53801600D03*
D10*
X42600000Y-81330000D03*
X42600000Y-83870000D03*
X42600000Y-86410000D03*
D11*
X42600000Y-88950000D03*
D10*
X48696800Y-22832000D03*
X46156800Y-22832000D03*
X43616800Y-22832000D03*
D11*
X41076800Y-22832000D03*
D16*
X115000000Y-23000000D03*
X23558500Y-23000000D03*
X115000000Y-114000000D03*
M02*
