%TF.GenerationSoftware,KiCad,Pcbnew,6.0.0-unknown-0ba0c17~86~ubuntu19.04.1*%
%TF.CreationDate,2019-08-27T02:54:08-07:00*%
%TF.ProjectId,PrntrBoardV1,50726e74-7242-46f6-9172-6456312e6b69,rev?*%
%TF.SameCoordinates,PX1303eb8PY7093f24*%
%TF.FileFunction,Paste,Top*%
%TF.FilePolarity,Positive*%
%FSLAX46Y46*%
G04 Gerber Fmt 4.6, Leading zero omitted, Abs format (unit mm)*
G04 Created by KiCad (PCBNEW 6.0.0-unknown-0ba0c17~86~ubuntu19.04.1) date 2019-08-27 02:54:08*
%MOMM*%
%LPD*%
G04 APERTURE LIST*
%ADD10R,5.740000X3.810000*%
%ADD11R,2.500000X3.300000*%
%ADD12R,3.810000X5.740000*%
%ADD13C,0.100000*%
%ADD14C,1.250000*%
%ADD15R,0.820000X1.000000*%
%ADD16R,1.750000X0.900000*%
%ADD17R,0.875000X0.950000*%
%ADD18R,0.640000X0.590000*%
%ADD19R,0.590000X0.640000*%
%ADD20C,1.600000*%
%ADD21R,0.500000X1.600000*%
%ADD22R,1.300000X1.600000*%
%ADD23R,1.600000X0.500000*%
%ADD24R,1.600000X1.300000*%
%ADD25R,1.450000X0.450000*%
%ADD26R,0.800000X0.900000*%
%ADD27R,1.500000X1.500000*%
%ADD28R,0.700000X0.500000*%
%ADD29R,0.650000X1.200000*%
%ADD30R,0.900000X0.600000*%
%ADD31R,0.600000X0.900000*%
%ADD32R,0.600000X1.050000*%
%ADD33R,0.950000X0.875000*%
%ADD34R,1.000000X1.000000*%
%ADD35R,1.000000X0.820000*%
%ADD36R,1.250000X1.750000*%
%ADD37R,1.750000X1.250000*%
%ADD38R,3.000000X0.127000*%
%ADD39R,0.127000X3.000000*%
G04 APERTURE END LIST*
D10*
X17602200Y72224900D03*
X25472200Y72224900D03*
D11*
X38579000Y66840100D03*
X31779000Y66840100D03*
D12*
X11486000Y79821500D03*
X11486000Y71951500D03*
D10*
X19102800Y66992500D03*
X26972800Y66992500D03*
D13*
G36*
X87881671Y74652470D02*
G01*
X87962777Y74598277D01*
X88016970Y74517171D01*
X88036000Y74421500D01*
X88036000Y72271500D01*
X88016970Y72175829D01*
X87962777Y72094723D01*
X87881671Y72040530D01*
X87786000Y72021500D01*
X87036000Y72021500D01*
X86940329Y72040530D01*
X86859223Y72094723D01*
X86805030Y72175829D01*
X86786000Y72271500D01*
X86786000Y74421500D01*
X86805030Y74517171D01*
X86859223Y74598277D01*
X86940329Y74652470D01*
X87036000Y74671500D01*
X87786000Y74671500D01*
X87881671Y74652470D01*
X87881671Y74652470D01*
G37*
D14*
X87411000Y73346500D03*
D13*
G36*
X85081671Y74652470D02*
G01*
X85162777Y74598277D01*
X85216970Y74517171D01*
X85236000Y74421500D01*
X85236000Y72271500D01*
X85216970Y72175829D01*
X85162777Y72094723D01*
X85081671Y72040530D01*
X84986000Y72021500D01*
X84236000Y72021500D01*
X84140329Y72040530D01*
X84059223Y72094723D01*
X84005030Y72175829D01*
X83986000Y72271500D01*
X83986000Y74421500D01*
X84005030Y74517171D01*
X84059223Y74598277D01*
X84140329Y74652470D01*
X84236000Y74671500D01*
X84986000Y74671500D01*
X85081671Y74652470D01*
X85081671Y74652470D01*
G37*
D14*
X84611000Y73346500D03*
D13*
G36*
X87831671Y92052470D02*
G01*
X87912777Y91998277D01*
X87966970Y91917171D01*
X87986000Y91821500D01*
X87986000Y89671500D01*
X87966970Y89575829D01*
X87912777Y89494723D01*
X87831671Y89440530D01*
X87736000Y89421500D01*
X86986000Y89421500D01*
X86890329Y89440530D01*
X86809223Y89494723D01*
X86755030Y89575829D01*
X86736000Y89671500D01*
X86736000Y91821500D01*
X86755030Y91917171D01*
X86809223Y91998277D01*
X86890329Y92052470D01*
X86986000Y92071500D01*
X87736000Y92071500D01*
X87831671Y92052470D01*
X87831671Y92052470D01*
G37*
D14*
X87361000Y90746500D03*
D13*
G36*
X85031671Y92052470D02*
G01*
X85112777Y91998277D01*
X85166970Y91917171D01*
X85186000Y91821500D01*
X85186000Y89671500D01*
X85166970Y89575829D01*
X85112777Y89494723D01*
X85031671Y89440530D01*
X84936000Y89421500D01*
X84186000Y89421500D01*
X84090329Y89440530D01*
X84009223Y89494723D01*
X83955030Y89575829D01*
X83936000Y89671500D01*
X83936000Y91821500D01*
X83955030Y91917171D01*
X84009223Y91998277D01*
X84090329Y92052470D01*
X84186000Y92071500D01*
X84936000Y92071500D01*
X85031671Y92052470D01*
X85031671Y92052470D01*
G37*
D14*
X84561000Y90746500D03*
D13*
G36*
X67031671Y84252470D02*
G01*
X67112777Y84198277D01*
X67166970Y84117171D01*
X67186000Y84021500D01*
X67186000Y83271500D01*
X67166970Y83175829D01*
X67112777Y83094723D01*
X67031671Y83040530D01*
X66936000Y83021500D01*
X64786000Y83021500D01*
X64690329Y83040530D01*
X64609223Y83094723D01*
X64555030Y83175829D01*
X64536000Y83271500D01*
X64536000Y84021500D01*
X64555030Y84117171D01*
X64609223Y84198277D01*
X64690329Y84252470D01*
X64786000Y84271500D01*
X66936000Y84271500D01*
X67031671Y84252470D01*
X67031671Y84252470D01*
G37*
D14*
X65861000Y83646500D03*
D13*
G36*
X67031671Y81452470D02*
G01*
X67112777Y81398277D01*
X67166970Y81317171D01*
X67186000Y81221500D01*
X67186000Y80471500D01*
X67166970Y80375829D01*
X67112777Y80294723D01*
X67031671Y80240530D01*
X66936000Y80221500D01*
X64786000Y80221500D01*
X64690329Y80240530D01*
X64609223Y80294723D01*
X64555030Y80375829D01*
X64536000Y80471500D01*
X64536000Y81221500D01*
X64555030Y81317171D01*
X64609223Y81398277D01*
X64690329Y81452470D01*
X64786000Y81471500D01*
X66936000Y81471500D01*
X67031671Y81452470D01*
X67031671Y81452470D01*
G37*
D14*
X65861000Y80846500D03*
D13*
G36*
X49831671Y84052470D02*
G01*
X49912777Y83998277D01*
X49966970Y83917171D01*
X49986000Y83821500D01*
X49986000Y83071500D01*
X49966970Y82975829D01*
X49912777Y82894723D01*
X49831671Y82840530D01*
X49736000Y82821500D01*
X47586000Y82821500D01*
X47490329Y82840530D01*
X47409223Y82894723D01*
X47355030Y82975829D01*
X47336000Y83071500D01*
X47336000Y83821500D01*
X47355030Y83917171D01*
X47409223Y83998277D01*
X47490329Y84052470D01*
X47586000Y84071500D01*
X49736000Y84071500D01*
X49831671Y84052470D01*
X49831671Y84052470D01*
G37*
D14*
X48661000Y83446500D03*
D13*
G36*
X49831671Y81252470D02*
G01*
X49912777Y81198277D01*
X49966970Y81117171D01*
X49986000Y81021500D01*
X49986000Y80271500D01*
X49966970Y80175829D01*
X49912777Y80094723D01*
X49831671Y80040530D01*
X49736000Y80021500D01*
X47586000Y80021500D01*
X47490329Y80040530D01*
X47409223Y80094723D01*
X47355030Y80175829D01*
X47336000Y80271500D01*
X47336000Y81021500D01*
X47355030Y81117171D01*
X47409223Y81198277D01*
X47490329Y81252470D01*
X47586000Y81271500D01*
X49736000Y81271500D01*
X49831671Y81252470D01*
X49831671Y81252470D01*
G37*
D14*
X48661000Y80646500D03*
D13*
G36*
X87881671Y31152470D02*
G01*
X87962777Y31098277D01*
X88016970Y31017171D01*
X88036000Y30921500D01*
X88036000Y28771500D01*
X88016970Y28675829D01*
X87962777Y28594723D01*
X87881671Y28540530D01*
X87786000Y28521500D01*
X87036000Y28521500D01*
X86940329Y28540530D01*
X86859223Y28594723D01*
X86805030Y28675829D01*
X86786000Y28771500D01*
X86786000Y30921500D01*
X86805030Y31017171D01*
X86859223Y31098277D01*
X86940329Y31152470D01*
X87036000Y31171500D01*
X87786000Y31171500D01*
X87881671Y31152470D01*
X87881671Y31152470D01*
G37*
D14*
X87411000Y29846500D03*
D13*
G36*
X85081671Y31152470D02*
G01*
X85162777Y31098277D01*
X85216970Y31017171D01*
X85236000Y30921500D01*
X85236000Y28771500D01*
X85216970Y28675829D01*
X85162777Y28594723D01*
X85081671Y28540530D01*
X84986000Y28521500D01*
X84236000Y28521500D01*
X84140329Y28540530D01*
X84059223Y28594723D01*
X84005030Y28675829D01*
X83986000Y28771500D01*
X83986000Y30921500D01*
X84005030Y31017171D01*
X84059223Y31098277D01*
X84140329Y31152470D01*
X84236000Y31171500D01*
X84986000Y31171500D01*
X85081671Y31152470D01*
X85081671Y31152470D01*
G37*
D14*
X84611000Y29846500D03*
D13*
G36*
X87831671Y48252470D02*
G01*
X87912777Y48198277D01*
X87966970Y48117171D01*
X87986000Y48021500D01*
X87986000Y45871500D01*
X87966970Y45775829D01*
X87912777Y45694723D01*
X87831671Y45640530D01*
X87736000Y45621500D01*
X86986000Y45621500D01*
X86890329Y45640530D01*
X86809223Y45694723D01*
X86755030Y45775829D01*
X86736000Y45871500D01*
X86736000Y48021500D01*
X86755030Y48117171D01*
X86809223Y48198277D01*
X86890329Y48252470D01*
X86986000Y48271500D01*
X87736000Y48271500D01*
X87831671Y48252470D01*
X87831671Y48252470D01*
G37*
D14*
X87361000Y46946500D03*
D13*
G36*
X85031671Y48252470D02*
G01*
X85112777Y48198277D01*
X85166970Y48117171D01*
X85186000Y48021500D01*
X85186000Y45871500D01*
X85166970Y45775829D01*
X85112777Y45694723D01*
X85031671Y45640530D01*
X84936000Y45621500D01*
X84186000Y45621500D01*
X84090329Y45640530D01*
X84009223Y45694723D01*
X83955030Y45775829D01*
X83936000Y45871500D01*
X83936000Y48021500D01*
X83955030Y48117171D01*
X84009223Y48198277D01*
X84090329Y48252470D01*
X84186000Y48271500D01*
X84936000Y48271500D01*
X85031671Y48252470D01*
X85031671Y48252470D01*
G37*
D14*
X84561000Y46946500D03*
D13*
G36*
X87981671Y9152470D02*
G01*
X88062777Y9098277D01*
X88116970Y9017171D01*
X88136000Y8921500D01*
X88136000Y6771500D01*
X88116970Y6675829D01*
X88062777Y6594723D01*
X87981671Y6540530D01*
X87886000Y6521500D01*
X87136000Y6521500D01*
X87040329Y6540530D01*
X86959223Y6594723D01*
X86905030Y6675829D01*
X86886000Y6771500D01*
X86886000Y8921500D01*
X86905030Y9017171D01*
X86959223Y9098277D01*
X87040329Y9152470D01*
X87136000Y9171500D01*
X87886000Y9171500D01*
X87981671Y9152470D01*
X87981671Y9152470D01*
G37*
D14*
X87511000Y7846500D03*
D13*
G36*
X85181671Y9152470D02*
G01*
X85262777Y9098277D01*
X85316970Y9017171D01*
X85336000Y8921500D01*
X85336000Y6771500D01*
X85316970Y6675829D01*
X85262777Y6594723D01*
X85181671Y6540530D01*
X85086000Y6521500D01*
X84336000Y6521500D01*
X84240329Y6540530D01*
X84159223Y6594723D01*
X84105030Y6675829D01*
X84086000Y6771500D01*
X84086000Y8921500D01*
X84105030Y9017171D01*
X84159223Y9098277D01*
X84240329Y9152470D01*
X84336000Y9171500D01*
X85086000Y9171500D01*
X85181671Y9152470D01*
X85181671Y9152470D01*
G37*
D14*
X84711000Y7846500D03*
D13*
G36*
X87881671Y27052470D02*
G01*
X87962777Y26998277D01*
X88016970Y26917171D01*
X88036000Y26821500D01*
X88036000Y24671500D01*
X88016970Y24575829D01*
X87962777Y24494723D01*
X87881671Y24440530D01*
X87786000Y24421500D01*
X87036000Y24421500D01*
X86940329Y24440530D01*
X86859223Y24494723D01*
X86805030Y24575829D01*
X86786000Y24671500D01*
X86786000Y26821500D01*
X86805030Y26917171D01*
X86859223Y26998277D01*
X86940329Y27052470D01*
X87036000Y27071500D01*
X87786000Y27071500D01*
X87881671Y27052470D01*
X87881671Y27052470D01*
G37*
D14*
X87411000Y25746500D03*
D13*
G36*
X85081671Y27052470D02*
G01*
X85162777Y26998277D01*
X85216970Y26917171D01*
X85236000Y26821500D01*
X85236000Y24671500D01*
X85216970Y24575829D01*
X85162777Y24494723D01*
X85081671Y24440530D01*
X84986000Y24421500D01*
X84236000Y24421500D01*
X84140329Y24440530D01*
X84059223Y24494723D01*
X84005030Y24575829D01*
X83986000Y24671500D01*
X83986000Y26821500D01*
X84005030Y26917171D01*
X84059223Y26998277D01*
X84140329Y27052470D01*
X84236000Y27071500D01*
X84986000Y27071500D01*
X85081671Y27052470D01*
X85081671Y27052470D01*
G37*
D14*
X84611000Y25746500D03*
D13*
G36*
X87931671Y52652470D02*
G01*
X88012777Y52598277D01*
X88066970Y52517171D01*
X88086000Y52421500D01*
X88086000Y50271500D01*
X88066970Y50175829D01*
X88012777Y50094723D01*
X87931671Y50040530D01*
X87836000Y50021500D01*
X87086000Y50021500D01*
X86990329Y50040530D01*
X86909223Y50094723D01*
X86855030Y50175829D01*
X86836000Y50271500D01*
X86836000Y52421500D01*
X86855030Y52517171D01*
X86909223Y52598277D01*
X86990329Y52652470D01*
X87086000Y52671500D01*
X87836000Y52671500D01*
X87931671Y52652470D01*
X87931671Y52652470D01*
G37*
D14*
X87461000Y51346500D03*
D13*
G36*
X85131671Y52652470D02*
G01*
X85212777Y52598277D01*
X85266970Y52517171D01*
X85286000Y52421500D01*
X85286000Y50271500D01*
X85266970Y50175829D01*
X85212777Y50094723D01*
X85131671Y50040530D01*
X85036000Y50021500D01*
X84286000Y50021500D01*
X84190329Y50040530D01*
X84109223Y50094723D01*
X84055030Y50175829D01*
X84036000Y50271500D01*
X84036000Y52421500D01*
X84055030Y52517171D01*
X84109223Y52598277D01*
X84190329Y52652470D01*
X84286000Y52671500D01*
X85036000Y52671500D01*
X85131671Y52652470D01*
X85131671Y52652470D01*
G37*
D14*
X84661000Y51346500D03*
D13*
G36*
X87831671Y69852470D02*
G01*
X87912777Y69798277D01*
X87966970Y69717171D01*
X87986000Y69621500D01*
X87986000Y67471500D01*
X87966970Y67375829D01*
X87912777Y67294723D01*
X87831671Y67240530D01*
X87736000Y67221500D01*
X86986000Y67221500D01*
X86890329Y67240530D01*
X86809223Y67294723D01*
X86755030Y67375829D01*
X86736000Y67471500D01*
X86736000Y69621500D01*
X86755030Y69717171D01*
X86809223Y69798277D01*
X86890329Y69852470D01*
X86986000Y69871500D01*
X87736000Y69871500D01*
X87831671Y69852470D01*
X87831671Y69852470D01*
G37*
D14*
X87361000Y68546500D03*
D13*
G36*
X85031671Y69852470D02*
G01*
X85112777Y69798277D01*
X85166970Y69717171D01*
X85186000Y69621500D01*
X85186000Y67471500D01*
X85166970Y67375829D01*
X85112777Y67294723D01*
X85031671Y67240530D01*
X84936000Y67221500D01*
X84186000Y67221500D01*
X84090329Y67240530D01*
X84009223Y67294723D01*
X83955030Y67375829D01*
X83936000Y67471500D01*
X83936000Y69621500D01*
X83955030Y69717171D01*
X84009223Y69798277D01*
X84090329Y69852470D01*
X84186000Y69871500D01*
X84936000Y69871500D01*
X85031671Y69852470D01*
X85031671Y69852470D01*
G37*
D14*
X84561000Y68546500D03*
D15*
X36836000Y56246500D03*
X38436000Y56246500D03*
D16*
X43761000Y43646500D03*
X46661000Y43646500D03*
X46661000Y45196500D03*
X43761000Y45196500D03*
D17*
X44886000Y42046500D03*
X46461000Y42046500D03*
X43436000Y42046500D03*
X41861000Y42046500D03*
D18*
X73111000Y84811500D03*
X73111000Y85781500D03*
D19*
X54746000Y69046500D03*
X53776000Y69046500D03*
D18*
X73686000Y41024000D03*
X73686000Y41994000D03*
X73611000Y19599000D03*
X73611000Y20569000D03*
X73361000Y62649000D03*
X73361000Y63619000D03*
D13*
G36*
X71756671Y28327470D02*
G01*
X71837777Y28273277D01*
X71891970Y28192171D01*
X71911000Y28096500D01*
X71911000Y26996500D01*
X71891970Y26900829D01*
X71837777Y26819723D01*
X71756671Y26765530D01*
X71661000Y26746500D01*
X68661000Y26746500D01*
X68565329Y26765530D01*
X68484223Y26819723D01*
X68430030Y26900829D01*
X68411000Y26996500D01*
X68411000Y28096500D01*
X68430030Y28192171D01*
X68484223Y28273277D01*
X68565329Y28327470D01*
X68661000Y28346500D01*
X71661000Y28346500D01*
X71756671Y28327470D01*
X71756671Y28327470D01*
G37*
D20*
X70161000Y27546500D03*
D13*
G36*
X77156671Y28327470D02*
G01*
X77237777Y28273277D01*
X77291970Y28192171D01*
X77311000Y28096500D01*
X77311000Y26996500D01*
X77291970Y26900829D01*
X77237777Y26819723D01*
X77156671Y26765530D01*
X77061000Y26746500D01*
X74061000Y26746500D01*
X73965329Y26765530D01*
X73884223Y26819723D01*
X73830030Y26900829D01*
X73811000Y26996500D01*
X73811000Y28096500D01*
X73830030Y28192171D01*
X73884223Y28273277D01*
X73965329Y28327470D01*
X74061000Y28346500D01*
X77061000Y28346500D01*
X77156671Y28327470D01*
X77156671Y28327470D01*
G37*
D20*
X75561000Y27546500D03*
D21*
X77701000Y76196500D03*
D22*
X78901000Y76196500D03*
X81301000Y76196500D03*
X82901000Y76196500D03*
X85301000Y76196500D03*
X85301000Y87896500D03*
X82901000Y87896500D03*
X81301000Y87896500D03*
X78901000Y87896500D03*
D21*
X80101000Y76196500D03*
X84101000Y76196500D03*
X84101000Y87896500D03*
X80101000Y87896500D03*
X77701000Y87896500D03*
D23*
X87551000Y78046500D03*
X87551000Y78846500D03*
X87551000Y79646500D03*
X87551000Y80446500D03*
X87551000Y81246500D03*
X87551000Y82046500D03*
X87551000Y82846500D03*
X87551000Y83646500D03*
X87551000Y84446500D03*
X87551000Y85246500D03*
X87551000Y86046500D03*
X75851000Y86046500D03*
X75851000Y85246500D03*
X75851000Y84446500D03*
X75851000Y83646500D03*
X75851000Y82846500D03*
X75851000Y82046500D03*
X75851000Y81246500D03*
X75851000Y80446500D03*
X75851000Y79646500D03*
X75851000Y78846500D03*
X75851000Y78046500D03*
X63211000Y73746500D03*
D24*
X63211000Y74946500D03*
X63211000Y77346500D03*
X63211000Y78946500D03*
X63211000Y81346500D03*
X51511000Y81346500D03*
X51511000Y78946500D03*
X51511000Y77346500D03*
X51511000Y74946500D03*
D23*
X63211000Y76146500D03*
X63211000Y80146500D03*
X51511000Y80146500D03*
X51511000Y76146500D03*
X51511000Y73746500D03*
D21*
X61361000Y83596500D03*
X60561000Y83596500D03*
X59761000Y83596500D03*
X58961000Y83596500D03*
X58161000Y83596500D03*
X57361000Y83596500D03*
X56561000Y83596500D03*
X55761000Y83596500D03*
X54961000Y83596500D03*
X54161000Y83596500D03*
X53361000Y83596500D03*
X53361000Y71896500D03*
X54161000Y71896500D03*
X54961000Y71896500D03*
X55761000Y71896500D03*
X56561000Y71896500D03*
X57361000Y71896500D03*
X58161000Y71896500D03*
X58961000Y71896500D03*
X59761000Y71896500D03*
X60561000Y71896500D03*
X61361000Y71896500D03*
X77701000Y32516500D03*
D22*
X78901000Y32516500D03*
X81301000Y32516500D03*
X82901000Y32516500D03*
X85301000Y32516500D03*
X85301000Y44216500D03*
X82901000Y44216500D03*
X81301000Y44216500D03*
X78901000Y44216500D03*
D21*
X80101000Y32516500D03*
X84101000Y32516500D03*
X84101000Y44216500D03*
X80101000Y44216500D03*
X77701000Y44216500D03*
D23*
X87551000Y34366500D03*
X87551000Y35166500D03*
X87551000Y35966500D03*
X87551000Y36766500D03*
X87551000Y37566500D03*
X87551000Y38366500D03*
X87551000Y39166500D03*
X87551000Y39966500D03*
X87551000Y40766500D03*
X87551000Y41566500D03*
X87551000Y42366500D03*
X75851000Y42366500D03*
X75851000Y41566500D03*
X75851000Y40766500D03*
X75851000Y39966500D03*
X75851000Y39166500D03*
X75851000Y38366500D03*
X75851000Y37566500D03*
X75851000Y36766500D03*
X75851000Y35966500D03*
X75851000Y35166500D03*
X75851000Y34366500D03*
D21*
X77701000Y11006500D03*
D22*
X78901000Y11006500D03*
X81301000Y11006500D03*
X82901000Y11006500D03*
X85301000Y11006500D03*
X85301000Y22706500D03*
X82901000Y22706500D03*
X81301000Y22706500D03*
X78901000Y22706500D03*
D21*
X80101000Y11006500D03*
X84101000Y11006500D03*
X84101000Y22706500D03*
X80101000Y22706500D03*
X77701000Y22706500D03*
D23*
X87551000Y12856500D03*
X87551000Y13656500D03*
X87551000Y14456500D03*
X87551000Y15256500D03*
X87551000Y16056500D03*
X87551000Y16856500D03*
X87551000Y17656500D03*
X87551000Y18456500D03*
X87551000Y19256500D03*
X87551000Y20056500D03*
X87551000Y20856500D03*
X75851000Y20856500D03*
X75851000Y20056500D03*
X75851000Y19256500D03*
X75851000Y18456500D03*
X75851000Y17656500D03*
X75851000Y16856500D03*
X75851000Y16056500D03*
X75851000Y15256500D03*
X75851000Y14456500D03*
X75851000Y13656500D03*
X75851000Y12856500D03*
D21*
X77701000Y54106500D03*
D22*
X78901000Y54106500D03*
X81301000Y54106500D03*
X82901000Y54106500D03*
X85301000Y54106500D03*
X85301000Y65806500D03*
X82901000Y65806500D03*
X81301000Y65806500D03*
X78901000Y65806500D03*
D21*
X80101000Y54106500D03*
X84101000Y54106500D03*
X84101000Y65806500D03*
X80101000Y65806500D03*
X77701000Y65806500D03*
D23*
X87551000Y55956500D03*
X87551000Y56756500D03*
X87551000Y57556500D03*
X87551000Y58356500D03*
X87551000Y59156500D03*
X87551000Y59956500D03*
X87551000Y60756500D03*
X87551000Y61556500D03*
X87551000Y62356500D03*
X87551000Y63156500D03*
X87551000Y63956500D03*
X75851000Y63956500D03*
X75851000Y63156500D03*
X75851000Y62356500D03*
X75851000Y61556500D03*
X75851000Y60756500D03*
X75851000Y59956500D03*
X75851000Y59156500D03*
X75851000Y58356500D03*
X75851000Y57556500D03*
X75851000Y56756500D03*
X75851000Y55956500D03*
D25*
X44876001Y34081499D03*
X44876001Y33431499D03*
X44876001Y32781499D03*
X44876001Y32131499D03*
X44876001Y31481499D03*
X44876001Y30831499D03*
X44876001Y30181499D03*
X38976001Y30181499D03*
X38976001Y30831499D03*
X38976001Y31481499D03*
X38976001Y32131499D03*
X38976001Y32781499D03*
X38976001Y33431499D03*
X38976001Y34081499D03*
X36936001Y47171499D03*
X36936001Y46521499D03*
X36936001Y45871499D03*
X36936001Y45221499D03*
X36936001Y44571499D03*
X36936001Y43921499D03*
X36936001Y43271499D03*
X31036001Y43271499D03*
X31036001Y43921499D03*
X31036001Y44571499D03*
X31036001Y45221499D03*
X31036001Y45871499D03*
X31036001Y46521499D03*
X31036001Y47171499D03*
X57386001Y34021499D03*
X57386001Y33371499D03*
X57386001Y32721499D03*
X57386001Y32071499D03*
X57386001Y31421499D03*
X57386001Y30771499D03*
X57386001Y30121499D03*
X51486001Y30121499D03*
X51486001Y30771499D03*
X51486001Y31421499D03*
X51486001Y32071499D03*
X51486001Y32721499D03*
X51486001Y33371499D03*
X51486001Y34021499D03*
D26*
X55211000Y11646500D03*
X53311000Y11646500D03*
X54261000Y9646500D03*
X30961000Y11646500D03*
X29061000Y11646500D03*
X30011000Y9646500D03*
X47211000Y11646500D03*
X45311000Y11646500D03*
X46261000Y9646500D03*
X39061000Y11646500D03*
X37161000Y11646500D03*
X38111000Y9646500D03*
D27*
X26016001Y83251499D03*
X28016001Y83251499D03*
X28016001Y85251499D03*
X26016001Y85251499D03*
D28*
X25016001Y86926499D03*
X26351001Y86926499D03*
X27681001Y86926499D03*
X29016001Y86926499D03*
D29*
X25111001Y80926499D03*
X26381001Y80926499D03*
X27651001Y80926499D03*
X28921001Y80926499D03*
D30*
X42091000Y86546500D03*
X42091000Y85696500D03*
X42091000Y87396500D03*
X44391000Y86546500D03*
X44391000Y85696500D03*
X44391000Y87396500D03*
X43241000Y87396500D03*
X43241000Y85696500D03*
D31*
X41361000Y89246500D03*
X45121000Y89246500D03*
X42641000Y89246500D03*
D32*
X42601000Y83526500D03*
X41331000Y83526500D03*
X43881000Y83526500D03*
X45151000Y83526500D03*
D31*
X43841000Y89246500D03*
D30*
X43241000Y86546500D03*
X33911000Y86531500D03*
X33911000Y85681500D03*
X33911000Y87381500D03*
X36211000Y86531500D03*
X36211000Y85681500D03*
X36211000Y87381500D03*
X35061000Y87381500D03*
X35061000Y85681500D03*
D31*
X33181000Y89231500D03*
X36941000Y89231500D03*
X34461000Y89231500D03*
D32*
X34421000Y83511500D03*
X33151000Y83511500D03*
X35701000Y83511500D03*
X36971000Y83511500D03*
D31*
X35661000Y89231500D03*
D30*
X35061000Y86531500D03*
D17*
X55236000Y13146500D03*
X53661000Y13146500D03*
X49586000Y11646500D03*
X51161000Y11646500D03*
X31036000Y13146500D03*
X29461000Y13146500D03*
X25486000Y11746500D03*
X27061000Y11746500D03*
X47236000Y13146500D03*
X45661000Y13146500D03*
X41561000Y11646500D03*
X43136000Y11646500D03*
X39136000Y13146500D03*
X37561000Y13146500D03*
X33486000Y11646500D03*
X35061000Y11646500D03*
D33*
X31623000Y59626500D03*
X31623000Y58051500D03*
X29061000Y79146500D03*
X29061000Y77571500D03*
X50661000Y16546500D03*
X50661000Y18121500D03*
X49161000Y21146500D03*
X49161000Y19571500D03*
D17*
X23507500Y58420000D03*
X25082500Y58420000D03*
X44061000Y80846500D03*
X42486000Y80846500D03*
D33*
X57761000Y16646500D03*
X57761000Y18221500D03*
X56261000Y21146500D03*
X56261000Y19571500D03*
D17*
X54536000Y38746500D03*
X52961000Y38746500D03*
D33*
X54461000Y43446500D03*
X54461000Y41871500D03*
D17*
X89111000Y76046500D03*
X87536000Y76046500D03*
X89361000Y88296500D03*
X87786000Y88296500D03*
X47636000Y54946500D03*
X46061000Y54946500D03*
D33*
X47561000Y59621500D03*
X47561000Y58046500D03*
D17*
X47661000Y47746500D03*
X46086000Y47746500D03*
D33*
X47561000Y52546500D03*
X47561000Y50971500D03*
X63261000Y85521500D03*
X63261000Y83946500D03*
X51061000Y84934000D03*
X51061000Y83359000D03*
D17*
X54561000Y54946500D03*
X52986000Y54946500D03*
D33*
X54461000Y59621500D03*
X54461000Y58046500D03*
D17*
X54536000Y47746500D03*
X52961000Y47746500D03*
D33*
X54461000Y52521500D03*
X54461000Y50946500D03*
D17*
X89186000Y32296500D03*
X87611000Y32296500D03*
X89361000Y44546500D03*
X87786000Y44546500D03*
X61436000Y54946500D03*
X59861000Y54946500D03*
D33*
X61361000Y59621500D03*
X61361000Y58046500D03*
D17*
X61436000Y47746500D03*
X59861000Y47746500D03*
D33*
X61361000Y52546500D03*
X61361000Y50971500D03*
D17*
X89111000Y10296500D03*
X87536000Y10296500D03*
X89186000Y23296500D03*
X87611000Y23296500D03*
X29845000Y56832500D03*
X28270000Y56832500D03*
D33*
X37061000Y80921500D03*
X37061000Y79346500D03*
X57761000Y22846500D03*
X57761000Y24421500D03*
X56261000Y27446500D03*
X56261000Y25871500D03*
D17*
X61348500Y38746500D03*
X59773500Y38746500D03*
D33*
X61261000Y43421500D03*
X61261000Y41846500D03*
D17*
X89348500Y53746500D03*
X87773500Y53746500D03*
X89361000Y65946500D03*
X87786000Y65946500D03*
X35061000Y57846500D03*
X33486000Y57846500D03*
D33*
X18996660Y53291540D03*
X18996660Y54866540D03*
D17*
X35086000Y54521500D03*
X33511000Y54521500D03*
X27061000Y44546500D03*
X28636000Y44546500D03*
X41061000Y45846500D03*
X39486000Y45846500D03*
X41061000Y43746500D03*
X39486000Y43746500D03*
X27061000Y46246500D03*
X28636000Y46246500D03*
X33486000Y52946500D03*
X35061000Y52946500D03*
X35086000Y56196500D03*
X33511000Y56196500D03*
D34*
X51661000Y9846500D03*
X49161000Y9846500D03*
X27361000Y9946500D03*
X24861000Y9946500D03*
X43661000Y9846500D03*
X41161000Y9846500D03*
X35461000Y9846500D03*
X32961000Y9846500D03*
X23261000Y84246500D03*
X23261000Y86746500D03*
D35*
X29999000Y59904000D03*
X29999000Y58304000D03*
D34*
X39161000Y83896500D03*
X39161000Y81396500D03*
D35*
X26599000Y59904000D03*
X26599000Y58304000D03*
D15*
X52961000Y40346500D03*
X54561000Y40346500D03*
X46061000Y56546500D03*
X47661000Y56546500D03*
X46061000Y49346500D03*
X47661000Y49346500D03*
X52961000Y56546500D03*
X54561000Y56546500D03*
X52961000Y49346500D03*
X54561000Y49346500D03*
X59861000Y56546500D03*
X61461000Y56546500D03*
X59861000Y49346500D03*
X61461000Y49346500D03*
D34*
X31061000Y84046500D03*
X31061000Y81546500D03*
D35*
X28299000Y59904000D03*
X28299000Y58304000D03*
D15*
X59761000Y40346500D03*
X61361000Y40346500D03*
X36836000Y57896500D03*
X38436000Y57896500D03*
X36836000Y54596500D03*
X38436000Y54596500D03*
X36861000Y52946500D03*
X38461000Y52946500D03*
D36*
X21261000Y86646500D03*
X18461000Y86646500D03*
D33*
X49161000Y16546500D03*
X49161000Y18121500D03*
D37*
X39161000Y89146500D03*
X39161000Y86346500D03*
D33*
X56261000Y16571500D03*
X56261000Y18146500D03*
X52961000Y41859000D03*
X52961000Y43434000D03*
D17*
X89611000Y77546500D03*
X91186000Y77546500D03*
D33*
X91761000Y85046500D03*
X91761000Y83471500D03*
D17*
X93686000Y87946500D03*
X95261000Y87946500D03*
X93486000Y72546500D03*
X95061000Y72546500D03*
D33*
X92361000Y81296500D03*
X92361000Y79721500D03*
D17*
X89573500Y86796500D03*
X91148500Y86796500D03*
D33*
X73111000Y80796500D03*
X73111000Y82371500D03*
X90611000Y81334000D03*
X90611000Y79759000D03*
D13*
G36*
X71806671Y71827470D02*
G01*
X71887777Y71773277D01*
X71941970Y71692171D01*
X71961000Y71596500D01*
X71961000Y70496500D01*
X71941970Y70400829D01*
X71887777Y70319723D01*
X71806671Y70265530D01*
X71711000Y70246500D01*
X68711000Y70246500D01*
X68615329Y70265530D01*
X68534223Y70319723D01*
X68480030Y70400829D01*
X68461000Y70496500D01*
X68461000Y71596500D01*
X68480030Y71692171D01*
X68534223Y71773277D01*
X68615329Y71827470D01*
X68711000Y71846500D01*
X71711000Y71846500D01*
X71806671Y71827470D01*
X71806671Y71827470D01*
G37*
D20*
X70211000Y71046500D03*
D13*
G36*
X77206671Y71827470D02*
G01*
X77287777Y71773277D01*
X77341970Y71692171D01*
X77361000Y71596500D01*
X77361000Y70496500D01*
X77341970Y70400829D01*
X77287777Y70319723D01*
X77206671Y70265530D01*
X77111000Y70246500D01*
X74111000Y70246500D01*
X74015329Y70265530D01*
X73934223Y70319723D01*
X73880030Y70400829D01*
X73861000Y70496500D01*
X73861000Y71596500D01*
X73880030Y71692171D01*
X73934223Y71773277D01*
X74015329Y71827470D01*
X74111000Y71846500D01*
X77111000Y71846500D01*
X77206671Y71827470D01*
X77206671Y71827470D01*
G37*
D20*
X75611000Y71046500D03*
D36*
X75261000Y88546500D03*
X72461000Y88546500D03*
X75361000Y75796500D03*
X72561000Y75796500D03*
D33*
X46061000Y58046500D03*
X46061000Y59621500D03*
X46061000Y50946500D03*
X46061000Y52521500D03*
X61761000Y85646500D03*
X61761000Y87221500D03*
D17*
X56136000Y87246500D03*
X54561000Y87246500D03*
D33*
X66961000Y94146500D03*
X66961000Y95721500D03*
X52161000Y91321500D03*
X52161000Y89746500D03*
X52161000Y92759000D03*
X52161000Y94334000D03*
X52561000Y85446500D03*
X52561000Y87021500D03*
D17*
X58536000Y69046500D03*
X56961000Y69046500D03*
X58286000Y86546500D03*
X59861000Y86546500D03*
D13*
G36*
X71506671Y94827470D02*
G01*
X71587777Y94773277D01*
X71641970Y94692171D01*
X71661000Y94596500D01*
X71661000Y93496500D01*
X71641970Y93400829D01*
X71587777Y93319723D01*
X71506671Y93265530D01*
X71411000Y93246500D01*
X68411000Y93246500D01*
X68315329Y93265530D01*
X68234223Y93319723D01*
X68180030Y93400829D01*
X68161000Y93496500D01*
X68161000Y94596500D01*
X68180030Y94692171D01*
X68234223Y94773277D01*
X68315329Y94827470D01*
X68411000Y94846500D01*
X71411000Y94846500D01*
X71506671Y94827470D01*
X71506671Y94827470D01*
G37*
D20*
X69911000Y94046500D03*
D13*
G36*
X76906671Y94827470D02*
G01*
X76987777Y94773277D01*
X77041970Y94692171D01*
X77061000Y94596500D01*
X77061000Y93496500D01*
X77041970Y93400829D01*
X76987777Y93319723D01*
X76906671Y93265530D01*
X76811000Y93246500D01*
X73811000Y93246500D01*
X73715329Y93265530D01*
X73634223Y93319723D01*
X73580030Y93400829D01*
X73561000Y93496500D01*
X73561000Y94596500D01*
X73580030Y94692171D01*
X73634223Y94773277D01*
X73715329Y94827470D01*
X73811000Y94846500D01*
X76811000Y94846500D01*
X76906671Y94827470D01*
X76906671Y94827470D01*
G37*
D20*
X75311000Y94046500D03*
D37*
X63361000Y71646500D03*
X63361000Y68846500D03*
X51361000Y71546500D03*
X51361000Y68746500D03*
D33*
X52961000Y58071500D03*
X52961000Y59646500D03*
X52961000Y50946500D03*
X52961000Y52521500D03*
D17*
X89536000Y34046500D03*
X91111000Y34046500D03*
D33*
X91611000Y41371500D03*
X91611000Y39796500D03*
D17*
X93695320Y44670980D03*
X95270320Y44670980D03*
X93436240Y29733240D03*
X95011240Y29733240D03*
D33*
X91611000Y37296500D03*
X91611000Y35721500D03*
D17*
X89611000Y43046500D03*
X91186000Y43046500D03*
D33*
X73111000Y37296500D03*
X73111000Y38871500D03*
X90111000Y37371500D03*
X90111000Y35796500D03*
D13*
G36*
X71756671Y6827470D02*
G01*
X71837777Y6773277D01*
X71891970Y6692171D01*
X71911000Y6596500D01*
X71911000Y5496500D01*
X71891970Y5400829D01*
X71837777Y5319723D01*
X71756671Y5265530D01*
X71661000Y5246500D01*
X68661000Y5246500D01*
X68565329Y5265530D01*
X68484223Y5319723D01*
X68430030Y5400829D01*
X68411000Y5496500D01*
X68411000Y6596500D01*
X68430030Y6692171D01*
X68484223Y6773277D01*
X68565329Y6827470D01*
X68661000Y6846500D01*
X71661000Y6846500D01*
X71756671Y6827470D01*
X71756671Y6827470D01*
G37*
D20*
X70161000Y6046500D03*
D13*
G36*
X77156671Y6827470D02*
G01*
X77237777Y6773277D01*
X77291970Y6692171D01*
X77311000Y6596500D01*
X77311000Y5496500D01*
X77291970Y5400829D01*
X77237777Y5319723D01*
X77156671Y5265530D01*
X77061000Y5246500D01*
X74061000Y5246500D01*
X73965329Y5265530D01*
X73884223Y5319723D01*
X73830030Y5400829D01*
X73811000Y5496500D01*
X73811000Y6596500D01*
X73830030Y6692171D01*
X73884223Y6773277D01*
X73965329Y6827470D01*
X74061000Y6846500D01*
X77061000Y6846500D01*
X77156671Y6827470D01*
X77156671Y6827470D01*
G37*
D20*
X75561000Y6046500D03*
D36*
X75111000Y44246500D03*
X72311000Y44246500D03*
X75111000Y32296500D03*
X72311000Y32296500D03*
D33*
X59861000Y58046500D03*
X59861000Y59621500D03*
X59861000Y50959000D03*
X59861000Y52534000D03*
D17*
X89611000Y11796500D03*
X91186000Y11796500D03*
D33*
X91611000Y20046500D03*
X91611000Y18471500D03*
D17*
X93512640Y23451820D03*
X95087640Y23451820D03*
X93611500Y8554720D03*
X95186500Y8554720D03*
D33*
X91611000Y15871500D03*
X91611000Y14296500D03*
D17*
X89611000Y21796500D03*
X91186000Y21796500D03*
D33*
X73611000Y15796500D03*
X73611000Y17371500D03*
X90111000Y15796500D03*
X90111000Y14221500D03*
D36*
X75111000Y10796500D03*
X72311000Y10796500D03*
X75111000Y22796500D03*
X72311000Y22796500D03*
D37*
X31061000Y89146500D03*
X31061000Y86346500D03*
D33*
X56261000Y22871500D03*
X56261000Y24446500D03*
X59761000Y41846500D03*
X59761000Y43421500D03*
D17*
X89561000Y55346500D03*
X91136000Y55346500D03*
D33*
X91506040Y62821820D03*
X91506040Y61246820D03*
D17*
X93156840Y66911220D03*
X94731840Y66911220D03*
X93438780Y51782980D03*
X95013780Y51782980D03*
D33*
X91861000Y59046500D03*
X91861000Y57471500D03*
D17*
X89561000Y64346500D03*
X91136000Y64346500D03*
D33*
X73361000Y58759000D03*
X73361000Y60334000D03*
X90161000Y59121500D03*
X90161000Y57546500D03*
D13*
G36*
X71756671Y49727470D02*
G01*
X71837777Y49673277D01*
X71891970Y49592171D01*
X71911000Y49496500D01*
X71911000Y48396500D01*
X71891970Y48300829D01*
X71837777Y48219723D01*
X71756671Y48165530D01*
X71661000Y48146500D01*
X68661000Y48146500D01*
X68565329Y48165530D01*
X68484223Y48219723D01*
X68430030Y48300829D01*
X68411000Y48396500D01*
X68411000Y49496500D01*
X68430030Y49592171D01*
X68484223Y49673277D01*
X68565329Y49727470D01*
X68661000Y49746500D01*
X71661000Y49746500D01*
X71756671Y49727470D01*
X71756671Y49727470D01*
G37*
D20*
X70161000Y48946500D03*
D13*
G36*
X77156671Y49727470D02*
G01*
X77237777Y49673277D01*
X77291970Y49592171D01*
X77311000Y49496500D01*
X77311000Y48396500D01*
X77291970Y48300829D01*
X77237777Y48219723D01*
X77156671Y48165530D01*
X77061000Y48146500D01*
X74061000Y48146500D01*
X73965329Y48165530D01*
X73884223Y48219723D01*
X73830030Y48300829D01*
X73811000Y48396500D01*
X73811000Y49496500D01*
X73830030Y49592171D01*
X73884223Y49673277D01*
X73965329Y49727470D01*
X74061000Y49746500D01*
X77061000Y49746500D01*
X77156671Y49727470D01*
X77156671Y49727470D01*
G37*
D20*
X75561000Y48946500D03*
D36*
X75361000Y53746500D03*
X72561000Y53746500D03*
X75361000Y66146500D03*
X72561000Y66146500D03*
D17*
X45261000Y35746500D03*
X43686000Y35746500D03*
X45248500Y37246500D03*
X43673500Y37246500D03*
X37336000Y50546500D03*
X35761000Y50546500D03*
X37336000Y49046500D03*
X35761000Y49046500D03*
D33*
X7461000Y46521500D03*
X7461000Y44946500D03*
D17*
X57648500Y35646500D03*
X56073500Y35646500D03*
D33*
X10961000Y87746500D03*
X10961000Y86171500D03*
D13*
G36*
X4256671Y88427470D02*
G01*
X4337777Y88373277D01*
X4391970Y88292171D01*
X4411000Y88196500D01*
X4411000Y87096500D01*
X4391970Y87000829D01*
X4337777Y86919723D01*
X4256671Y86865530D01*
X4161000Y86846500D01*
X1161000Y86846500D01*
X1065329Y86865530D01*
X984223Y86919723D01*
X930030Y87000829D01*
X911000Y87096500D01*
X911000Y88196500D01*
X930030Y88292171D01*
X984223Y88373277D01*
X1065329Y88427470D01*
X1161000Y88446500D01*
X4161000Y88446500D01*
X4256671Y88427470D01*
X4256671Y88427470D01*
G37*
D20*
X2661000Y87646500D03*
D13*
G36*
X9656671Y88427470D02*
G01*
X9737777Y88373277D01*
X9791970Y88292171D01*
X9811000Y88196500D01*
X9811000Y87096500D01*
X9791970Y87000829D01*
X9737777Y86919723D01*
X9656671Y86865530D01*
X9561000Y86846500D01*
X6561000Y86846500D01*
X6465329Y86865530D01*
X6384223Y86919723D01*
X6330030Y87000829D01*
X6311000Y87096500D01*
X6311000Y88196500D01*
X6330030Y88292171D01*
X6384223Y88373277D01*
X6465329Y88427470D01*
X6561000Y88446500D01*
X9561000Y88446500D01*
X9656671Y88427470D01*
X9656671Y88427470D01*
G37*
D20*
X8061000Y87646500D03*
D17*
X62148500Y36846500D03*
X60573500Y36846500D03*
D38*
X97336000Y97296500D03*
D39*
X97336000Y97296500D03*
D38*
X97336000Y1746500D03*
D39*
X97336000Y1746500D03*
D38*
X1786000Y97296500D03*
D39*
X1786000Y97296500D03*
D38*
X1786000Y1746500D03*
D39*
X1786000Y1746500D03*
M02*
