%TF.GenerationSoftware,KiCad,Pcbnew,6.0.0-rc1-unknown-4cf4600~66~ubuntu18.10.1*%
%TF.CreationDate,2019-01-21T14:15:00-08:00*%
%TF.ProjectId,PrntrBoardV1,50726e74-7242-46f6-9172-6456312e6b69,rev?*%
%TF.SameCoordinates,PX1303eb8PY7093f24*%
%TF.FileFunction,Legend,Bot*%
%TF.FilePolarity,Positive*%
%FSLAX46Y46*%
G04 Gerber Fmt 4.6, Leading zero omitted, Abs format (unit mm)*
G04 Created by KiCad (PCBNEW 6.0.0-rc1-unknown-4cf4600~66~ubuntu18.10.1) date Mon 21 Jan 2019 02:15:00 PM PST*
%MOMM*%
%LPD*%
G04 APERTURE LIST*
%ADD10C,0.150000*%
%ADD11C,0.200000*%
%ADD12C,0.250000*%
G04 APERTURE END LIST*
D10*
X80968142Y98000072D02*
X81539571Y98000072D01*
X81253857Y98285786D02*
X81253857Y97714358D01*
X84182428Y98000072D02*
X84753857Y98000072D01*
X73768142Y98000072D02*
X74339571Y98000072D01*
X74053857Y98285786D02*
X74053857Y97714358D01*
X76982428Y98000072D02*
X77553857Y98000072D01*
X85268142Y1000072D02*
X85839571Y1000072D01*
X85553857Y1285786D02*
X85553857Y714358D01*
X88482428Y1000072D02*
X89053857Y1000072D01*
X78768142Y900072D02*
X79339571Y900072D01*
X79053857Y1185786D02*
X79053857Y614358D01*
X81982428Y900072D02*
X82553857Y900072D01*
X50168142Y1800072D02*
X50739571Y1800072D01*
X50453857Y2085786D02*
X50453857Y1514358D01*
X53382428Y1800072D02*
X53953857Y1800072D01*
X42268142Y1700072D02*
X42839571Y1700072D01*
X42553857Y1985786D02*
X42553857Y1414358D01*
X45482428Y1700072D02*
X46053857Y1700072D01*
X34068142Y1700072D02*
X34639571Y1700072D01*
X34353857Y1985786D02*
X34353857Y1414358D01*
X37282428Y1700072D02*
X37853857Y1700072D01*
X25968142Y1800072D02*
X26539571Y1800072D01*
X26253857Y2085786D02*
X26253857Y1514358D01*
X29182428Y1800072D02*
X29753857Y1800072D01*
X17468142Y1800072D02*
X18039571Y1800072D01*
X17753857Y2085786D02*
X17753857Y1514358D01*
X20682428Y1800072D02*
X21253857Y1800072D01*
X9568142Y1700072D02*
X10139571Y1700072D01*
X9853857Y1985786D02*
X9853857Y1414358D01*
X12782428Y1700072D02*
X13353857Y1700072D01*
X37611000Y56075072D02*
X37718142Y56110786D01*
X37896714Y56110786D01*
X37968142Y56075072D01*
X38003857Y56039358D01*
X38039571Y55967929D01*
X38039571Y55896500D01*
X38003857Y55825072D01*
X37968142Y55789358D01*
X37896714Y55753643D01*
X37753857Y55717929D01*
X37682428Y55682215D01*
X37646714Y55646500D01*
X37611000Y55575072D01*
X37611000Y55503643D01*
X37646714Y55432215D01*
X37682428Y55396500D01*
X37753857Y55360786D01*
X37932428Y55360786D01*
X38039571Y55396500D01*
X38646714Y56075072D02*
X38575285Y56110786D01*
X38432428Y56110786D01*
X38361000Y56075072D01*
X38325285Y56003643D01*
X38325285Y55717929D01*
X38361000Y55646500D01*
X38432428Y55610786D01*
X38575285Y55610786D01*
X38646714Y55646500D01*
X38682428Y55717929D01*
X38682428Y55789358D01*
X38325285Y55860786D01*
X39003857Y55610786D02*
X39003857Y56110786D01*
X39003857Y55682215D02*
X39039571Y55646500D01*
X39111000Y55610786D01*
X39218142Y55610786D01*
X39289571Y55646500D01*
X39325285Y55717929D01*
X39325285Y56110786D01*
X39646714Y56075072D02*
X39718142Y56110786D01*
X39861000Y56110786D01*
X39932428Y56075072D01*
X39968142Y56003643D01*
X39968142Y55967929D01*
X39932428Y55896500D01*
X39861000Y55860786D01*
X39753857Y55860786D01*
X39682428Y55825072D01*
X39646714Y55753643D01*
X39646714Y55717929D01*
X39682428Y55646500D01*
X39753857Y55610786D01*
X39861000Y55610786D01*
X39932428Y55646500D01*
X40396714Y56110786D02*
X40325285Y56075072D01*
X40289571Y56039358D01*
X40253857Y55967929D01*
X40253857Y55753643D01*
X40289571Y55682215D01*
X40325285Y55646500D01*
X40396714Y55610786D01*
X40503857Y55610786D01*
X40575285Y55646500D01*
X40611000Y55682215D01*
X40646714Y55753643D01*
X40646714Y55967929D01*
X40611000Y56039358D01*
X40575285Y56075072D01*
X40503857Y56110786D01*
X40396714Y56110786D01*
X40968142Y56110786D02*
X40968142Y55610786D01*
X40968142Y55753643D02*
X41003857Y55682215D01*
X41039571Y55646500D01*
X41111000Y55610786D01*
X41182428Y55610786D01*
X38789571Y57946500D02*
X38718142Y57910786D01*
X38611000Y57910786D01*
X38503857Y57946500D01*
X38432428Y58017929D01*
X38396714Y58089358D01*
X38361000Y58232215D01*
X38361000Y58339358D01*
X38396714Y58482215D01*
X38432428Y58553643D01*
X38503857Y58625072D01*
X38611000Y58660786D01*
X38682428Y58660786D01*
X38789571Y58625072D01*
X38825285Y58589358D01*
X38825285Y58339358D01*
X38682428Y58339358D01*
X39146714Y58660786D02*
X39146714Y57910786D01*
X39575285Y58660786D01*
X39575285Y57910786D01*
X39932428Y58660786D02*
X39932428Y57910786D01*
X40111000Y57910786D01*
X40218142Y57946500D01*
X40289571Y58017929D01*
X40325285Y58089358D01*
X40361000Y58232215D01*
X40361000Y58339358D01*
X40325285Y58482215D01*
X40289571Y58553643D01*
X40218142Y58625072D01*
X40111000Y58660786D01*
X39932428Y58660786D01*
X45411000Y55975072D02*
X45518142Y56010786D01*
X45696714Y56010786D01*
X45768142Y55975072D01*
X45803857Y55939358D01*
X45839571Y55867929D01*
X45839571Y55796500D01*
X45803857Y55725072D01*
X45768142Y55689358D01*
X45696714Y55653643D01*
X45553857Y55617929D01*
X45482428Y55582215D01*
X45446714Y55546500D01*
X45411000Y55475072D01*
X45411000Y55403643D01*
X45446714Y55332215D01*
X45482428Y55296500D01*
X45553857Y55260786D01*
X45732428Y55260786D01*
X45839571Y55296500D01*
X46446714Y55975072D02*
X46375285Y56010786D01*
X46232428Y56010786D01*
X46161000Y55975072D01*
X46125285Y55903643D01*
X46125285Y55617929D01*
X46161000Y55546500D01*
X46232428Y55510786D01*
X46375285Y55510786D01*
X46446714Y55546500D01*
X46482428Y55617929D01*
X46482428Y55689358D01*
X46125285Y55760786D01*
X46803857Y55510786D02*
X46803857Y56010786D01*
X46803857Y55582215D02*
X46839571Y55546500D01*
X46911000Y55510786D01*
X47018142Y55510786D01*
X47089571Y55546500D01*
X47125285Y55617929D01*
X47125285Y56010786D01*
X47446714Y55975072D02*
X47518142Y56010786D01*
X47661000Y56010786D01*
X47732428Y55975072D01*
X47768142Y55903643D01*
X47768142Y55867929D01*
X47732428Y55796500D01*
X47661000Y55760786D01*
X47553857Y55760786D01*
X47482428Y55725072D01*
X47446714Y55653643D01*
X47446714Y55617929D01*
X47482428Y55546500D01*
X47553857Y55510786D01*
X47661000Y55510786D01*
X47732428Y55546500D01*
X48196714Y56010786D02*
X48125285Y55975072D01*
X48089571Y55939358D01*
X48053857Y55867929D01*
X48053857Y55653643D01*
X48089571Y55582215D01*
X48125285Y55546500D01*
X48196714Y55510786D01*
X48303857Y55510786D01*
X48375285Y55546500D01*
X48411000Y55582215D01*
X48446714Y55653643D01*
X48446714Y55867929D01*
X48411000Y55939358D01*
X48375285Y55975072D01*
X48303857Y56010786D01*
X48196714Y56010786D01*
X48768142Y56010786D02*
X48768142Y55510786D01*
X48768142Y55653643D02*
X48803857Y55582215D01*
X48839571Y55546500D01*
X48911000Y55510786D01*
X48982428Y55510786D01*
X46589571Y57846500D02*
X46518142Y57810786D01*
X46411000Y57810786D01*
X46303857Y57846500D01*
X46232428Y57917929D01*
X46196714Y57989358D01*
X46161000Y58132215D01*
X46161000Y58239358D01*
X46196714Y58382215D01*
X46232428Y58453643D01*
X46303857Y58525072D01*
X46411000Y58560786D01*
X46482428Y58560786D01*
X46589571Y58525072D01*
X46625285Y58489358D01*
X46625285Y58239358D01*
X46482428Y58239358D01*
X46946714Y58560786D02*
X46946714Y57810786D01*
X47375285Y58560786D01*
X47375285Y57810786D01*
X47732428Y58560786D02*
X47732428Y57810786D01*
X47911000Y57810786D01*
X48018142Y57846500D01*
X48089571Y57917929D01*
X48125285Y57989358D01*
X48161000Y58132215D01*
X48161000Y58239358D01*
X48125285Y58382215D01*
X48089571Y58453643D01*
X48018142Y58525072D01*
X47911000Y58560786D01*
X47732428Y58560786D01*
X52211000Y56075072D02*
X52318142Y56110786D01*
X52496714Y56110786D01*
X52568142Y56075072D01*
X52603857Y56039358D01*
X52639571Y55967929D01*
X52639571Y55896500D01*
X52603857Y55825072D01*
X52568142Y55789358D01*
X52496714Y55753643D01*
X52353857Y55717929D01*
X52282428Y55682215D01*
X52246714Y55646500D01*
X52211000Y55575072D01*
X52211000Y55503643D01*
X52246714Y55432215D01*
X52282428Y55396500D01*
X52353857Y55360786D01*
X52532428Y55360786D01*
X52639571Y55396500D01*
X53246714Y56075072D02*
X53175285Y56110786D01*
X53032428Y56110786D01*
X52961000Y56075072D01*
X52925285Y56003643D01*
X52925285Y55717929D01*
X52961000Y55646500D01*
X53032428Y55610786D01*
X53175285Y55610786D01*
X53246714Y55646500D01*
X53282428Y55717929D01*
X53282428Y55789358D01*
X52925285Y55860786D01*
X53603857Y55610786D02*
X53603857Y56110786D01*
X53603857Y55682215D02*
X53639571Y55646500D01*
X53711000Y55610786D01*
X53818142Y55610786D01*
X53889571Y55646500D01*
X53925285Y55717929D01*
X53925285Y56110786D01*
X54246714Y56075072D02*
X54318142Y56110786D01*
X54461000Y56110786D01*
X54532428Y56075072D01*
X54568142Y56003643D01*
X54568142Y55967929D01*
X54532428Y55896500D01*
X54461000Y55860786D01*
X54353857Y55860786D01*
X54282428Y55825072D01*
X54246714Y55753643D01*
X54246714Y55717929D01*
X54282428Y55646500D01*
X54353857Y55610786D01*
X54461000Y55610786D01*
X54532428Y55646500D01*
X54996714Y56110786D02*
X54925285Y56075072D01*
X54889571Y56039358D01*
X54853857Y55967929D01*
X54853857Y55753643D01*
X54889571Y55682215D01*
X54925285Y55646500D01*
X54996714Y55610786D01*
X55103857Y55610786D01*
X55175285Y55646500D01*
X55211000Y55682215D01*
X55246714Y55753643D01*
X55246714Y55967929D01*
X55211000Y56039358D01*
X55175285Y56075072D01*
X55103857Y56110786D01*
X54996714Y56110786D01*
X55568142Y56110786D02*
X55568142Y55610786D01*
X55568142Y55753643D02*
X55603857Y55682215D01*
X55639571Y55646500D01*
X55711000Y55610786D01*
X55782428Y55610786D01*
X53389571Y57946500D02*
X53318142Y57910786D01*
X53211000Y57910786D01*
X53103857Y57946500D01*
X53032428Y58017929D01*
X52996714Y58089358D01*
X52961000Y58232215D01*
X52961000Y58339358D01*
X52996714Y58482215D01*
X53032428Y58553643D01*
X53103857Y58625072D01*
X53211000Y58660786D01*
X53282428Y58660786D01*
X53389571Y58625072D01*
X53425285Y58589358D01*
X53425285Y58339358D01*
X53282428Y58339358D01*
X53746714Y58660786D02*
X53746714Y57910786D01*
X54175285Y58660786D01*
X54175285Y57910786D01*
X54532428Y58660786D02*
X54532428Y57910786D01*
X54711000Y57910786D01*
X54818142Y57946500D01*
X54889571Y58017929D01*
X54925285Y58089358D01*
X54961000Y58232215D01*
X54961000Y58339358D01*
X54925285Y58482215D01*
X54889571Y58553643D01*
X54818142Y58625072D01*
X54711000Y58660786D01*
X54532428Y58660786D01*
X52411000Y48975072D02*
X52518142Y49010786D01*
X52696714Y49010786D01*
X52768142Y48975072D01*
X52803857Y48939358D01*
X52839571Y48867929D01*
X52839571Y48796500D01*
X52803857Y48725072D01*
X52768142Y48689358D01*
X52696714Y48653643D01*
X52553857Y48617929D01*
X52482428Y48582215D01*
X52446714Y48546500D01*
X52411000Y48475072D01*
X52411000Y48403643D01*
X52446714Y48332215D01*
X52482428Y48296500D01*
X52553857Y48260786D01*
X52732428Y48260786D01*
X52839571Y48296500D01*
X53446714Y48975072D02*
X53375285Y49010786D01*
X53232428Y49010786D01*
X53161000Y48975072D01*
X53125285Y48903643D01*
X53125285Y48617929D01*
X53161000Y48546500D01*
X53232428Y48510786D01*
X53375285Y48510786D01*
X53446714Y48546500D01*
X53482428Y48617929D01*
X53482428Y48689358D01*
X53125285Y48760786D01*
X53803857Y48510786D02*
X53803857Y49010786D01*
X53803857Y48582215D02*
X53839571Y48546500D01*
X53911000Y48510786D01*
X54018142Y48510786D01*
X54089571Y48546500D01*
X54125285Y48617929D01*
X54125285Y49010786D01*
X54446714Y48975072D02*
X54518142Y49010786D01*
X54661000Y49010786D01*
X54732428Y48975072D01*
X54768142Y48903643D01*
X54768142Y48867929D01*
X54732428Y48796500D01*
X54661000Y48760786D01*
X54553857Y48760786D01*
X54482428Y48725072D01*
X54446714Y48653643D01*
X54446714Y48617929D01*
X54482428Y48546500D01*
X54553857Y48510786D01*
X54661000Y48510786D01*
X54732428Y48546500D01*
X55196714Y49010786D02*
X55125285Y48975072D01*
X55089571Y48939358D01*
X55053857Y48867929D01*
X55053857Y48653643D01*
X55089571Y48582215D01*
X55125285Y48546500D01*
X55196714Y48510786D01*
X55303857Y48510786D01*
X55375285Y48546500D01*
X55411000Y48582215D01*
X55446714Y48653643D01*
X55446714Y48867929D01*
X55411000Y48939358D01*
X55375285Y48975072D01*
X55303857Y49010786D01*
X55196714Y49010786D01*
X55768142Y49010786D02*
X55768142Y48510786D01*
X55768142Y48653643D02*
X55803857Y48582215D01*
X55839571Y48546500D01*
X55911000Y48510786D01*
X55982428Y48510786D01*
X53589571Y50846500D02*
X53518142Y50810786D01*
X53411000Y50810786D01*
X53303857Y50846500D01*
X53232428Y50917929D01*
X53196714Y50989358D01*
X53161000Y51132215D01*
X53161000Y51239358D01*
X53196714Y51382215D01*
X53232428Y51453643D01*
X53303857Y51525072D01*
X53411000Y51560786D01*
X53482428Y51560786D01*
X53589571Y51525072D01*
X53625285Y51489358D01*
X53625285Y51239358D01*
X53482428Y51239358D01*
X53946714Y51560786D02*
X53946714Y50810786D01*
X54375285Y51560786D01*
X54375285Y50810786D01*
X54732428Y51560786D02*
X54732428Y50810786D01*
X54911000Y50810786D01*
X55018142Y50846500D01*
X55089571Y50917929D01*
X55125285Y50989358D01*
X55161000Y51132215D01*
X55161000Y51239358D01*
X55125285Y51382215D01*
X55089571Y51453643D01*
X55018142Y51525072D01*
X54911000Y51560786D01*
X54732428Y51560786D01*
X45511000Y48875072D02*
X45618142Y48910786D01*
X45796714Y48910786D01*
X45868142Y48875072D01*
X45903857Y48839358D01*
X45939571Y48767929D01*
X45939571Y48696500D01*
X45903857Y48625072D01*
X45868142Y48589358D01*
X45796714Y48553643D01*
X45653857Y48517929D01*
X45582428Y48482215D01*
X45546714Y48446500D01*
X45511000Y48375072D01*
X45511000Y48303643D01*
X45546714Y48232215D01*
X45582428Y48196500D01*
X45653857Y48160786D01*
X45832428Y48160786D01*
X45939571Y48196500D01*
X46546714Y48875072D02*
X46475285Y48910786D01*
X46332428Y48910786D01*
X46261000Y48875072D01*
X46225285Y48803643D01*
X46225285Y48517929D01*
X46261000Y48446500D01*
X46332428Y48410786D01*
X46475285Y48410786D01*
X46546714Y48446500D01*
X46582428Y48517929D01*
X46582428Y48589358D01*
X46225285Y48660786D01*
X46903857Y48410786D02*
X46903857Y48910786D01*
X46903857Y48482215D02*
X46939571Y48446500D01*
X47011000Y48410786D01*
X47118142Y48410786D01*
X47189571Y48446500D01*
X47225285Y48517929D01*
X47225285Y48910786D01*
X47546714Y48875072D02*
X47618142Y48910786D01*
X47761000Y48910786D01*
X47832428Y48875072D01*
X47868142Y48803643D01*
X47868142Y48767929D01*
X47832428Y48696500D01*
X47761000Y48660786D01*
X47653857Y48660786D01*
X47582428Y48625072D01*
X47546714Y48553643D01*
X47546714Y48517929D01*
X47582428Y48446500D01*
X47653857Y48410786D01*
X47761000Y48410786D01*
X47832428Y48446500D01*
X48296714Y48910786D02*
X48225285Y48875072D01*
X48189571Y48839358D01*
X48153857Y48767929D01*
X48153857Y48553643D01*
X48189571Y48482215D01*
X48225285Y48446500D01*
X48296714Y48410786D01*
X48403857Y48410786D01*
X48475285Y48446500D01*
X48511000Y48482215D01*
X48546714Y48553643D01*
X48546714Y48767929D01*
X48511000Y48839358D01*
X48475285Y48875072D01*
X48403857Y48910786D01*
X48296714Y48910786D01*
X48868142Y48910786D02*
X48868142Y48410786D01*
X48868142Y48553643D02*
X48903857Y48482215D01*
X48939571Y48446500D01*
X49011000Y48410786D01*
X49082428Y48410786D01*
X46689571Y50746500D02*
X46618142Y50710786D01*
X46511000Y50710786D01*
X46403857Y50746500D01*
X46332428Y50817929D01*
X46296714Y50889358D01*
X46261000Y51032215D01*
X46261000Y51139358D01*
X46296714Y51282215D01*
X46332428Y51353643D01*
X46403857Y51425072D01*
X46511000Y51460786D01*
X46582428Y51460786D01*
X46689571Y51425072D01*
X46725285Y51389358D01*
X46725285Y51139358D01*
X46582428Y51139358D01*
X47046714Y51460786D02*
X47046714Y50710786D01*
X47475285Y51460786D01*
X47475285Y50710786D01*
X47832428Y51460786D02*
X47832428Y50710786D01*
X48011000Y50710786D01*
X48118142Y50746500D01*
X48189571Y50817929D01*
X48225285Y50889358D01*
X48261000Y51032215D01*
X48261000Y51139358D01*
X48225285Y51282215D01*
X48189571Y51353643D01*
X48118142Y51425072D01*
X48011000Y51460786D01*
X47832428Y51460786D01*
X38511000Y48775072D02*
X38618142Y48810786D01*
X38796714Y48810786D01*
X38868142Y48775072D01*
X38903857Y48739358D01*
X38939571Y48667929D01*
X38939571Y48596500D01*
X38903857Y48525072D01*
X38868142Y48489358D01*
X38796714Y48453643D01*
X38653857Y48417929D01*
X38582428Y48382215D01*
X38546714Y48346500D01*
X38511000Y48275072D01*
X38511000Y48203643D01*
X38546714Y48132215D01*
X38582428Y48096500D01*
X38653857Y48060786D01*
X38832428Y48060786D01*
X38939571Y48096500D01*
X39546714Y48775072D02*
X39475285Y48810786D01*
X39332428Y48810786D01*
X39261000Y48775072D01*
X39225285Y48703643D01*
X39225285Y48417929D01*
X39261000Y48346500D01*
X39332428Y48310786D01*
X39475285Y48310786D01*
X39546714Y48346500D01*
X39582428Y48417929D01*
X39582428Y48489358D01*
X39225285Y48560786D01*
X39903857Y48310786D02*
X39903857Y48810786D01*
X39903857Y48382215D02*
X39939571Y48346500D01*
X40011000Y48310786D01*
X40118142Y48310786D01*
X40189571Y48346500D01*
X40225285Y48417929D01*
X40225285Y48810786D01*
X40546714Y48775072D02*
X40618142Y48810786D01*
X40761000Y48810786D01*
X40832428Y48775072D01*
X40868142Y48703643D01*
X40868142Y48667929D01*
X40832428Y48596500D01*
X40761000Y48560786D01*
X40653857Y48560786D01*
X40582428Y48525072D01*
X40546714Y48453643D01*
X40546714Y48417929D01*
X40582428Y48346500D01*
X40653857Y48310786D01*
X40761000Y48310786D01*
X40832428Y48346500D01*
X41296714Y48810786D02*
X41225285Y48775072D01*
X41189571Y48739358D01*
X41153857Y48667929D01*
X41153857Y48453643D01*
X41189571Y48382215D01*
X41225285Y48346500D01*
X41296714Y48310786D01*
X41403857Y48310786D01*
X41475285Y48346500D01*
X41511000Y48382215D01*
X41546714Y48453643D01*
X41546714Y48667929D01*
X41511000Y48739358D01*
X41475285Y48775072D01*
X41403857Y48810786D01*
X41296714Y48810786D01*
X41868142Y48810786D02*
X41868142Y48310786D01*
X41868142Y48453643D02*
X41903857Y48382215D01*
X41939571Y48346500D01*
X42011000Y48310786D01*
X42082428Y48310786D01*
X39689571Y50646500D02*
X39618142Y50610786D01*
X39511000Y50610786D01*
X39403857Y50646500D01*
X39332428Y50717929D01*
X39296714Y50789358D01*
X39261000Y50932215D01*
X39261000Y51039358D01*
X39296714Y51182215D01*
X39332428Y51253643D01*
X39403857Y51325072D01*
X39511000Y51360786D01*
X39582428Y51360786D01*
X39689571Y51325072D01*
X39725285Y51289358D01*
X39725285Y51039358D01*
X39582428Y51039358D01*
X40046714Y51360786D02*
X40046714Y50610786D01*
X40475285Y51360786D01*
X40475285Y50610786D01*
X40832428Y51360786D02*
X40832428Y50610786D01*
X41011000Y50610786D01*
X41118142Y50646500D01*
X41189571Y50717929D01*
X41225285Y50789358D01*
X41261000Y50932215D01*
X41261000Y51039358D01*
X41225285Y51182215D01*
X41189571Y51253643D01*
X41118142Y51325072D01*
X41011000Y51360786D01*
X40832428Y51360786D01*
X52411000Y39975072D02*
X52518142Y40010786D01*
X52696714Y40010786D01*
X52768142Y39975072D01*
X52803857Y39939358D01*
X52839571Y39867929D01*
X52839571Y39796500D01*
X52803857Y39725072D01*
X52768142Y39689358D01*
X52696714Y39653643D01*
X52553857Y39617929D01*
X52482428Y39582215D01*
X52446714Y39546500D01*
X52411000Y39475072D01*
X52411000Y39403643D01*
X52446714Y39332215D01*
X52482428Y39296500D01*
X52553857Y39260786D01*
X52732428Y39260786D01*
X52839571Y39296500D01*
X53446714Y39975072D02*
X53375285Y40010786D01*
X53232428Y40010786D01*
X53161000Y39975072D01*
X53125285Y39903643D01*
X53125285Y39617929D01*
X53161000Y39546500D01*
X53232428Y39510786D01*
X53375285Y39510786D01*
X53446714Y39546500D01*
X53482428Y39617929D01*
X53482428Y39689358D01*
X53125285Y39760786D01*
X53803857Y39510786D02*
X53803857Y40010786D01*
X53803857Y39582215D02*
X53839571Y39546500D01*
X53911000Y39510786D01*
X54018142Y39510786D01*
X54089571Y39546500D01*
X54125285Y39617929D01*
X54125285Y40010786D01*
X54446714Y39975072D02*
X54518142Y40010786D01*
X54661000Y40010786D01*
X54732428Y39975072D01*
X54768142Y39903643D01*
X54768142Y39867929D01*
X54732428Y39796500D01*
X54661000Y39760786D01*
X54553857Y39760786D01*
X54482428Y39725072D01*
X54446714Y39653643D01*
X54446714Y39617929D01*
X54482428Y39546500D01*
X54553857Y39510786D01*
X54661000Y39510786D01*
X54732428Y39546500D01*
X55196714Y40010786D02*
X55125285Y39975072D01*
X55089571Y39939358D01*
X55053857Y39867929D01*
X55053857Y39653643D01*
X55089571Y39582215D01*
X55125285Y39546500D01*
X55196714Y39510786D01*
X55303857Y39510786D01*
X55375285Y39546500D01*
X55411000Y39582215D01*
X55446714Y39653643D01*
X55446714Y39867929D01*
X55411000Y39939358D01*
X55375285Y39975072D01*
X55303857Y40010786D01*
X55196714Y40010786D01*
X55768142Y40010786D02*
X55768142Y39510786D01*
X55768142Y39653643D02*
X55803857Y39582215D01*
X55839571Y39546500D01*
X55911000Y39510786D01*
X55982428Y39510786D01*
X53589571Y41846500D02*
X53518142Y41810786D01*
X53411000Y41810786D01*
X53303857Y41846500D01*
X53232428Y41917929D01*
X53196714Y41989358D01*
X53161000Y42132215D01*
X53161000Y42239358D01*
X53196714Y42382215D01*
X53232428Y42453643D01*
X53303857Y42525072D01*
X53411000Y42560786D01*
X53482428Y42560786D01*
X53589571Y42525072D01*
X53625285Y42489358D01*
X53625285Y42239358D01*
X53482428Y42239358D01*
X53946714Y42560786D02*
X53946714Y41810786D01*
X54375285Y42560786D01*
X54375285Y41810786D01*
X54732428Y42560786D02*
X54732428Y41810786D01*
X54911000Y41810786D01*
X55018142Y41846500D01*
X55089571Y41917929D01*
X55125285Y41989358D01*
X55161000Y42132215D01*
X55161000Y42239358D01*
X55125285Y42382215D01*
X55089571Y42453643D01*
X55018142Y42525072D01*
X54911000Y42560786D01*
X54732428Y42560786D01*
X44611000Y39875072D02*
X44718142Y39910786D01*
X44896714Y39910786D01*
X44968142Y39875072D01*
X45003857Y39839358D01*
X45039571Y39767929D01*
X45039571Y39696500D01*
X45003857Y39625072D01*
X44968142Y39589358D01*
X44896714Y39553643D01*
X44753857Y39517929D01*
X44682428Y39482215D01*
X44646714Y39446500D01*
X44611000Y39375072D01*
X44611000Y39303643D01*
X44646714Y39232215D01*
X44682428Y39196500D01*
X44753857Y39160786D01*
X44932428Y39160786D01*
X45039571Y39196500D01*
X45646714Y39875072D02*
X45575285Y39910786D01*
X45432428Y39910786D01*
X45361000Y39875072D01*
X45325285Y39803643D01*
X45325285Y39517929D01*
X45361000Y39446500D01*
X45432428Y39410786D01*
X45575285Y39410786D01*
X45646714Y39446500D01*
X45682428Y39517929D01*
X45682428Y39589358D01*
X45325285Y39660786D01*
X46003857Y39410786D02*
X46003857Y39910786D01*
X46003857Y39482215D02*
X46039571Y39446500D01*
X46111000Y39410786D01*
X46218142Y39410786D01*
X46289571Y39446500D01*
X46325285Y39517929D01*
X46325285Y39910786D01*
X46646714Y39875072D02*
X46718142Y39910786D01*
X46861000Y39910786D01*
X46932428Y39875072D01*
X46968142Y39803643D01*
X46968142Y39767929D01*
X46932428Y39696500D01*
X46861000Y39660786D01*
X46753857Y39660786D01*
X46682428Y39625072D01*
X46646714Y39553643D01*
X46646714Y39517929D01*
X46682428Y39446500D01*
X46753857Y39410786D01*
X46861000Y39410786D01*
X46932428Y39446500D01*
X47396714Y39910786D02*
X47325285Y39875072D01*
X47289571Y39839358D01*
X47253857Y39767929D01*
X47253857Y39553643D01*
X47289571Y39482215D01*
X47325285Y39446500D01*
X47396714Y39410786D01*
X47503857Y39410786D01*
X47575285Y39446500D01*
X47611000Y39482215D01*
X47646714Y39553643D01*
X47646714Y39767929D01*
X47611000Y39839358D01*
X47575285Y39875072D01*
X47503857Y39910786D01*
X47396714Y39910786D01*
X47968142Y39910786D02*
X47968142Y39410786D01*
X47968142Y39553643D02*
X48003857Y39482215D01*
X48039571Y39446500D01*
X48111000Y39410786D01*
X48182428Y39410786D01*
X45789571Y41746500D02*
X45718142Y41710786D01*
X45611000Y41710786D01*
X45503857Y41746500D01*
X45432428Y41817929D01*
X45396714Y41889358D01*
X45361000Y42032215D01*
X45361000Y42139358D01*
X45396714Y42282215D01*
X45432428Y42353643D01*
X45503857Y42425072D01*
X45611000Y42460786D01*
X45682428Y42460786D01*
X45789571Y42425072D01*
X45825285Y42389358D01*
X45825285Y42139358D01*
X45682428Y42139358D01*
X46146714Y42460786D02*
X46146714Y41710786D01*
X46575285Y42460786D01*
X46575285Y41710786D01*
X46932428Y42460786D02*
X46932428Y41710786D01*
X47111000Y41710786D01*
X47218142Y41746500D01*
X47289571Y41817929D01*
X47325285Y41889358D01*
X47361000Y42032215D01*
X47361000Y42139358D01*
X47325285Y42282215D01*
X47289571Y42353643D01*
X47218142Y42425072D01*
X47111000Y42460786D01*
X46932428Y42460786D01*
X51611000Y26017929D02*
X51503857Y25982215D01*
X51325285Y25982215D01*
X51253857Y26017929D01*
X51218142Y26053643D01*
X51182428Y26125072D01*
X51182428Y26196500D01*
X51218142Y26267929D01*
X51253857Y26303643D01*
X51325285Y26339358D01*
X51468142Y26375072D01*
X51539571Y26410786D01*
X51575285Y26446500D01*
X51611000Y26517929D01*
X51611000Y26589358D01*
X51575285Y26660786D01*
X51539571Y26696500D01*
X51468142Y26732215D01*
X51289571Y26732215D01*
X51182428Y26696500D01*
X50575285Y26017929D02*
X50646714Y25982215D01*
X50789571Y25982215D01*
X50861000Y26017929D01*
X50896714Y26089358D01*
X50896714Y26375072D01*
X50861000Y26446500D01*
X50789571Y26482215D01*
X50646714Y26482215D01*
X50575285Y26446500D01*
X50539571Y26375072D01*
X50539571Y26303643D01*
X50896714Y26232215D01*
X50218142Y26482215D02*
X50218142Y25982215D01*
X50218142Y26410786D02*
X50182428Y26446500D01*
X50111000Y26482215D01*
X50003857Y26482215D01*
X49932428Y26446500D01*
X49896714Y26375072D01*
X49896714Y25982215D01*
X49575285Y26017929D02*
X49503857Y25982215D01*
X49361000Y25982215D01*
X49289571Y26017929D01*
X49253857Y26089358D01*
X49253857Y26125072D01*
X49289571Y26196500D01*
X49361000Y26232215D01*
X49468142Y26232215D01*
X49539571Y26267929D01*
X49575285Y26339358D01*
X49575285Y26375072D01*
X49539571Y26446500D01*
X49468142Y26482215D01*
X49361000Y26482215D01*
X49289571Y26446500D01*
X48825285Y25982215D02*
X48896714Y26017929D01*
X48932428Y26053643D01*
X48968142Y26125072D01*
X48968142Y26339358D01*
X48932428Y26410786D01*
X48896714Y26446500D01*
X48825285Y26482215D01*
X48718142Y26482215D01*
X48646714Y26446500D01*
X48611000Y26410786D01*
X48575285Y26339358D01*
X48575285Y26125072D01*
X48611000Y26053643D01*
X48646714Y26017929D01*
X48718142Y25982215D01*
X48825285Y25982215D01*
X48253857Y25982215D02*
X48253857Y26482215D01*
X48253857Y26339358D02*
X48218142Y26410786D01*
X48182428Y26446500D01*
X48111000Y26482215D01*
X48039571Y26482215D01*
X50432428Y24146500D02*
X50503857Y24182215D01*
X50611000Y24182215D01*
X50718142Y24146500D01*
X50789571Y24075072D01*
X50825285Y24003643D01*
X50861000Y23860786D01*
X50861000Y23753643D01*
X50825285Y23610786D01*
X50789571Y23539358D01*
X50718142Y23467929D01*
X50611000Y23432215D01*
X50539571Y23432215D01*
X50432428Y23467929D01*
X50396714Y23503643D01*
X50396714Y23753643D01*
X50539571Y23753643D01*
X50075285Y23432215D02*
X50075285Y24182215D01*
X49646714Y23432215D01*
X49646714Y24182215D01*
X49289571Y23432215D02*
X49289571Y24182215D01*
X49111000Y24182215D01*
X49003857Y24146500D01*
X48932428Y24075072D01*
X48896714Y24003643D01*
X48861000Y23860786D01*
X48861000Y23753643D01*
X48896714Y23610786D01*
X48932428Y23539358D01*
X49003857Y23467929D01*
X49111000Y23432215D01*
X49289571Y23432215D01*
X52411000Y19817929D02*
X52303857Y19782215D01*
X52125285Y19782215D01*
X52053857Y19817929D01*
X52018142Y19853643D01*
X51982428Y19925072D01*
X51982428Y19996500D01*
X52018142Y20067929D01*
X52053857Y20103643D01*
X52125285Y20139358D01*
X52268142Y20175072D01*
X52339571Y20210786D01*
X52375285Y20246500D01*
X52411000Y20317929D01*
X52411000Y20389358D01*
X52375285Y20460786D01*
X52339571Y20496500D01*
X52268142Y20532215D01*
X52089571Y20532215D01*
X51982428Y20496500D01*
X51375285Y19817929D02*
X51446714Y19782215D01*
X51589571Y19782215D01*
X51661000Y19817929D01*
X51696714Y19889358D01*
X51696714Y20175072D01*
X51661000Y20246500D01*
X51589571Y20282215D01*
X51446714Y20282215D01*
X51375285Y20246500D01*
X51339571Y20175072D01*
X51339571Y20103643D01*
X51696714Y20032215D01*
X51018142Y20282215D02*
X51018142Y19782215D01*
X51018142Y20210786D02*
X50982428Y20246500D01*
X50911000Y20282215D01*
X50803857Y20282215D01*
X50732428Y20246500D01*
X50696714Y20175072D01*
X50696714Y19782215D01*
X50375285Y19817929D02*
X50303857Y19782215D01*
X50161000Y19782215D01*
X50089571Y19817929D01*
X50053857Y19889358D01*
X50053857Y19925072D01*
X50089571Y19996500D01*
X50161000Y20032215D01*
X50268142Y20032215D01*
X50339571Y20067929D01*
X50375285Y20139358D01*
X50375285Y20175072D01*
X50339571Y20246500D01*
X50268142Y20282215D01*
X50161000Y20282215D01*
X50089571Y20246500D01*
X49625285Y19782215D02*
X49696714Y19817929D01*
X49732428Y19853643D01*
X49768142Y19925072D01*
X49768142Y20139358D01*
X49732428Y20210786D01*
X49696714Y20246500D01*
X49625285Y20282215D01*
X49518142Y20282215D01*
X49446714Y20246500D01*
X49411000Y20210786D01*
X49375285Y20139358D01*
X49375285Y19925072D01*
X49411000Y19853643D01*
X49446714Y19817929D01*
X49518142Y19782215D01*
X49625285Y19782215D01*
X49053857Y19782215D02*
X49053857Y20282215D01*
X49053857Y20139358D02*
X49018142Y20210786D01*
X48982428Y20246500D01*
X48911000Y20282215D01*
X48839571Y20282215D01*
X51232428Y17946500D02*
X51303857Y17982215D01*
X51411000Y17982215D01*
X51518142Y17946500D01*
X51589571Y17875072D01*
X51625285Y17803643D01*
X51661000Y17660786D01*
X51661000Y17553643D01*
X51625285Y17410786D01*
X51589571Y17339358D01*
X51518142Y17267929D01*
X51411000Y17232215D01*
X51339571Y17232215D01*
X51232428Y17267929D01*
X51196714Y17303643D01*
X51196714Y17553643D01*
X51339571Y17553643D01*
X50875285Y17232215D02*
X50875285Y17982215D01*
X50446714Y17232215D01*
X50446714Y17982215D01*
X50089571Y17232215D02*
X50089571Y17982215D01*
X49911000Y17982215D01*
X49803857Y17946500D01*
X49732428Y17875072D01*
X49696714Y17803643D01*
X49661000Y17660786D01*
X49661000Y17553643D01*
X49696714Y17410786D01*
X49732428Y17339358D01*
X49803857Y17267929D01*
X49911000Y17232215D01*
X50089571Y17232215D01*
X44711000Y19717929D02*
X44603857Y19682215D01*
X44425285Y19682215D01*
X44353857Y19717929D01*
X44318142Y19753643D01*
X44282428Y19825072D01*
X44282428Y19896500D01*
X44318142Y19967929D01*
X44353857Y20003643D01*
X44425285Y20039358D01*
X44568142Y20075072D01*
X44639571Y20110786D01*
X44675285Y20146500D01*
X44711000Y20217929D01*
X44711000Y20289358D01*
X44675285Y20360786D01*
X44639571Y20396500D01*
X44568142Y20432215D01*
X44389571Y20432215D01*
X44282428Y20396500D01*
X43675285Y19717929D02*
X43746714Y19682215D01*
X43889571Y19682215D01*
X43961000Y19717929D01*
X43996714Y19789358D01*
X43996714Y20075072D01*
X43961000Y20146500D01*
X43889571Y20182215D01*
X43746714Y20182215D01*
X43675285Y20146500D01*
X43639571Y20075072D01*
X43639571Y20003643D01*
X43996714Y19932215D01*
X43318142Y20182215D02*
X43318142Y19682215D01*
X43318142Y20110786D02*
X43282428Y20146500D01*
X43211000Y20182215D01*
X43103857Y20182215D01*
X43032428Y20146500D01*
X42996714Y20075072D01*
X42996714Y19682215D01*
X42675285Y19717929D02*
X42603857Y19682215D01*
X42461000Y19682215D01*
X42389571Y19717929D01*
X42353857Y19789358D01*
X42353857Y19825072D01*
X42389571Y19896500D01*
X42461000Y19932215D01*
X42568142Y19932215D01*
X42639571Y19967929D01*
X42675285Y20039358D01*
X42675285Y20075072D01*
X42639571Y20146500D01*
X42568142Y20182215D01*
X42461000Y20182215D01*
X42389571Y20146500D01*
X41925285Y19682215D02*
X41996714Y19717929D01*
X42032428Y19753643D01*
X42068142Y19825072D01*
X42068142Y20039358D01*
X42032428Y20110786D01*
X41996714Y20146500D01*
X41925285Y20182215D01*
X41818142Y20182215D01*
X41746714Y20146500D01*
X41711000Y20110786D01*
X41675285Y20039358D01*
X41675285Y19825072D01*
X41711000Y19753643D01*
X41746714Y19717929D01*
X41818142Y19682215D01*
X41925285Y19682215D01*
X41353857Y19682215D02*
X41353857Y20182215D01*
X41353857Y20039358D02*
X41318142Y20110786D01*
X41282428Y20146500D01*
X41211000Y20182215D01*
X41139571Y20182215D01*
X43532428Y17846500D02*
X43603857Y17882215D01*
X43711000Y17882215D01*
X43818142Y17846500D01*
X43889571Y17775072D01*
X43925285Y17703643D01*
X43961000Y17560786D01*
X43961000Y17453643D01*
X43925285Y17310786D01*
X43889571Y17239358D01*
X43818142Y17167929D01*
X43711000Y17132215D01*
X43639571Y17132215D01*
X43532428Y17167929D01*
X43496714Y17203643D01*
X43496714Y17453643D01*
X43639571Y17453643D01*
X43175285Y17132215D02*
X43175285Y17882215D01*
X42746714Y17132215D01*
X42746714Y17882215D01*
X42389571Y17132215D02*
X42389571Y17882215D01*
X42211000Y17882215D01*
X42103857Y17846500D01*
X42032428Y17775072D01*
X41996714Y17703643D01*
X41961000Y17560786D01*
X41961000Y17453643D01*
X41996714Y17310786D01*
X42032428Y17239358D01*
X42103857Y17167929D01*
X42211000Y17132215D01*
X42389571Y17132215D01*
X36150285Y21500072D02*
X35900285Y21500072D01*
X35793142Y21107215D02*
X36150285Y21107215D01*
X36150285Y21857215D01*
X35793142Y21857215D01*
X35471714Y21107215D02*
X35471714Y21857215D01*
X35043142Y21107215D01*
X35043142Y21857215D01*
X34257428Y21178643D02*
X34293142Y21142929D01*
X34400285Y21107215D01*
X34471714Y21107215D01*
X34578857Y21142929D01*
X34650285Y21214358D01*
X34686000Y21285786D01*
X34721714Y21428643D01*
X34721714Y21535786D01*
X34686000Y21678643D01*
X34650285Y21750072D01*
X34578857Y21821500D01*
X34471714Y21857215D01*
X34400285Y21857215D01*
X34293142Y21821500D01*
X34257428Y21785786D01*
X34114571Y21035786D02*
X33543142Y21035786D01*
X33114571Y21500072D02*
X33007428Y21464358D01*
X32971714Y21428643D01*
X32936000Y21357215D01*
X32936000Y21250072D01*
X32971714Y21178643D01*
X33007428Y21142929D01*
X33078857Y21107215D01*
X33364571Y21107215D01*
X33364571Y21857215D01*
X33114571Y21857215D01*
X33043142Y21821500D01*
X33007428Y21785786D01*
X32971714Y21714358D01*
X32971714Y21642929D01*
X33007428Y21571500D01*
X33043142Y21535786D01*
X33114571Y21500072D01*
X33364571Y21500072D01*
X36096714Y24200072D02*
X35846714Y24200072D01*
X35739571Y23807215D02*
X36096714Y23807215D01*
X36096714Y24557215D01*
X35739571Y24557215D01*
X35418142Y23807215D02*
X35418142Y24557215D01*
X34989571Y23807215D01*
X34989571Y24557215D01*
X34203857Y23878643D02*
X34239571Y23842929D01*
X34346714Y23807215D01*
X34418142Y23807215D01*
X34525285Y23842929D01*
X34596714Y23914358D01*
X34632428Y23985786D01*
X34668142Y24128643D01*
X34668142Y24235786D01*
X34632428Y24378643D01*
X34596714Y24450072D01*
X34525285Y24521500D01*
X34418142Y24557215D01*
X34346714Y24557215D01*
X34239571Y24521500D01*
X34203857Y24485786D01*
X34061000Y23735786D02*
X33489571Y23735786D01*
X33346714Y24021500D02*
X32989571Y24021500D01*
X33418142Y23807215D02*
X33168142Y24557215D01*
X32918142Y23807215D01*
X37557428Y26800072D02*
X37450285Y26764358D01*
X37414571Y26728643D01*
X37378857Y26657215D01*
X37378857Y26550072D01*
X37414571Y26478643D01*
X37450285Y26442929D01*
X37521714Y26407215D01*
X37807428Y26407215D01*
X37807428Y27157215D01*
X37557428Y27157215D01*
X37486000Y27121500D01*
X37450285Y27085786D01*
X37414571Y27014358D01*
X37414571Y26942929D01*
X37450285Y26871500D01*
X37486000Y26835786D01*
X37557428Y26800072D01*
X37807428Y26800072D01*
X36736000Y26907215D02*
X36736000Y26407215D01*
X37057428Y26907215D02*
X37057428Y26514358D01*
X37021714Y26442929D01*
X36950285Y26407215D01*
X36843142Y26407215D01*
X36771714Y26442929D01*
X36736000Y26478643D01*
X36486000Y26907215D02*
X36200285Y26907215D01*
X36378857Y27157215D02*
X36378857Y26514358D01*
X36343142Y26442929D01*
X36271714Y26407215D01*
X36200285Y26407215D01*
X36057428Y26907215D02*
X35771714Y26907215D01*
X35950285Y27157215D02*
X35950285Y26514358D01*
X35914571Y26442929D01*
X35843142Y26407215D01*
X35771714Y26407215D01*
X35414571Y26407215D02*
X35486000Y26442929D01*
X35521714Y26478643D01*
X35557428Y26550072D01*
X35557428Y26764358D01*
X35521714Y26835786D01*
X35486000Y26871500D01*
X35414571Y26907215D01*
X35307428Y26907215D01*
X35236000Y26871500D01*
X35200285Y26835786D01*
X35164571Y26764358D01*
X35164571Y26550072D01*
X35200285Y26478643D01*
X35236000Y26442929D01*
X35307428Y26407215D01*
X35414571Y26407215D01*
X34843142Y26907215D02*
X34843142Y26407215D01*
X34843142Y26835786D02*
X34807428Y26871500D01*
X34736000Y26907215D01*
X34628857Y26907215D01*
X34557428Y26871500D01*
X34521714Y26800072D01*
X34521714Y26407215D01*
X33593142Y26407215D02*
X33593142Y27157215D01*
X33236000Y26907215D02*
X33236000Y26407215D01*
X33236000Y26835786D02*
X33200285Y26871500D01*
X33128857Y26907215D01*
X33021714Y26907215D01*
X32950285Y26871500D01*
X32914571Y26800072D01*
X32914571Y26407215D01*
X34332428Y29621500D02*
X34403857Y29657215D01*
X34511000Y29657215D01*
X34618142Y29621500D01*
X34689571Y29550072D01*
X34725285Y29478643D01*
X34761000Y29335786D01*
X34761000Y29228643D01*
X34725285Y29085786D01*
X34689571Y29014358D01*
X34618142Y28942929D01*
X34511000Y28907215D01*
X34439571Y28907215D01*
X34332428Y28942929D01*
X34296714Y28978643D01*
X34296714Y29228643D01*
X34439571Y29228643D01*
X33975285Y28907215D02*
X33975285Y29657215D01*
X33546714Y28907215D01*
X33546714Y29657215D01*
X33189571Y28907215D02*
X33189571Y29657215D01*
X33011000Y29657215D01*
X32903857Y29621500D01*
X32832428Y29550072D01*
X32796714Y29478643D01*
X32761000Y29335786D01*
X32761000Y29228643D01*
X32796714Y29085786D01*
X32832428Y29014358D01*
X32903857Y28942929D01*
X33011000Y28907215D01*
X33189571Y28907215D01*
X34968142Y32257215D02*
X34503857Y32257215D01*
X34753857Y31971500D01*
X34646714Y31971500D01*
X34575285Y31935786D01*
X34539571Y31900072D01*
X34503857Y31828643D01*
X34503857Y31650072D01*
X34539571Y31578643D01*
X34575285Y31542929D01*
X34646714Y31507215D01*
X34861000Y31507215D01*
X34932428Y31542929D01*
X34968142Y31578643D01*
X34182428Y31578643D02*
X34146714Y31542929D01*
X34182428Y31507215D01*
X34218142Y31542929D01*
X34182428Y31578643D01*
X34182428Y31507215D01*
X33896714Y32257215D02*
X33432428Y32257215D01*
X33682428Y31971500D01*
X33575285Y31971500D01*
X33503857Y31935786D01*
X33468142Y31900072D01*
X33432428Y31828643D01*
X33432428Y31650072D01*
X33468142Y31578643D01*
X33503857Y31542929D01*
X33575285Y31507215D01*
X33789571Y31507215D01*
X33861000Y31542929D01*
X33896714Y31578643D01*
X33218142Y32257215D02*
X32968142Y31507215D01*
X32718142Y32257215D01*
X33503857Y34857215D02*
X33861000Y34857215D01*
X33896714Y34500072D01*
X33861000Y34535786D01*
X33789571Y34571500D01*
X33611000Y34571500D01*
X33539571Y34535786D01*
X33503857Y34500072D01*
X33468142Y34428643D01*
X33468142Y34250072D01*
X33503857Y34178643D01*
X33539571Y34142929D01*
X33611000Y34107215D01*
X33789571Y34107215D01*
X33861000Y34142929D01*
X33896714Y34178643D01*
X33253857Y34857215D02*
X33003857Y34107215D01*
X32753857Y34857215D01*
X26732428Y21821500D02*
X26803857Y21857215D01*
X26911000Y21857215D01*
X27018142Y21821500D01*
X27089571Y21750072D01*
X27125285Y21678643D01*
X27161000Y21535786D01*
X27161000Y21428643D01*
X27125285Y21285786D01*
X27089571Y21214358D01*
X27018142Y21142929D01*
X26911000Y21107215D01*
X26839571Y21107215D01*
X26732428Y21142929D01*
X26696714Y21178643D01*
X26696714Y21428643D01*
X26839571Y21428643D01*
X26375285Y21107215D02*
X26375285Y21857215D01*
X25946714Y21107215D01*
X25946714Y21857215D01*
X25589571Y21107215D02*
X25589571Y21857215D01*
X25411000Y21857215D01*
X25303857Y21821500D01*
X25232428Y21750072D01*
X25196714Y21678643D01*
X25161000Y21535786D01*
X25161000Y21428643D01*
X25196714Y21285786D01*
X25232428Y21214358D01*
X25303857Y21142929D01*
X25411000Y21107215D01*
X25589571Y21107215D01*
X26678857Y24144715D02*
X27036000Y24144715D01*
X27036000Y24894715D01*
X26000285Y24216143D02*
X26036000Y24180429D01*
X26143142Y24144715D01*
X26214571Y24144715D01*
X26321714Y24180429D01*
X26393142Y24251858D01*
X26428857Y24323286D01*
X26464571Y24466143D01*
X26464571Y24573286D01*
X26428857Y24716143D01*
X26393142Y24787572D01*
X26321714Y24859000D01*
X26214571Y24894715D01*
X26143142Y24894715D01*
X26036000Y24859000D01*
X26000285Y24823286D01*
X25678857Y24144715D02*
X25678857Y24894715D01*
X25500285Y24894715D01*
X25393142Y24859000D01*
X25321714Y24787572D01*
X25286000Y24716143D01*
X25250285Y24573286D01*
X25250285Y24466143D01*
X25286000Y24323286D01*
X25321714Y24251858D01*
X25393142Y24180429D01*
X25500285Y24144715D01*
X25678857Y24144715D01*
X26893142Y23944000D02*
X26143142Y23944000D01*
X26286000Y22941143D02*
X26321714Y22905429D01*
X26428857Y22869715D01*
X26500285Y22869715D01*
X26607428Y22905429D01*
X26678857Y22976858D01*
X26714571Y23048286D01*
X26750285Y23191143D01*
X26750285Y23298286D01*
X26714571Y23441143D01*
X26678857Y23512572D01*
X26607428Y23584000D01*
X26500285Y23619715D01*
X26428857Y23619715D01*
X26321714Y23584000D01*
X26286000Y23548286D01*
X26143142Y23944000D02*
X25428857Y23944000D01*
X26000285Y22905429D02*
X25893142Y22869715D01*
X25714571Y22869715D01*
X25643142Y22905429D01*
X25607428Y22941143D01*
X25571714Y23012572D01*
X25571714Y23084000D01*
X25607428Y23155429D01*
X25643142Y23191143D01*
X25714571Y23226858D01*
X25857428Y23262572D01*
X25928857Y23298286D01*
X25964571Y23334000D01*
X26000285Y23405429D01*
X26000285Y23476858D01*
X25964571Y23548286D01*
X25928857Y23584000D01*
X25857428Y23619715D01*
X25678857Y23619715D01*
X25571714Y23584000D01*
X26478857Y26544715D02*
X26836000Y26544715D01*
X26836000Y27294715D01*
X25800285Y26616143D02*
X25836000Y26580429D01*
X25943142Y26544715D01*
X26014571Y26544715D01*
X26121714Y26580429D01*
X26193142Y26651858D01*
X26228857Y26723286D01*
X26264571Y26866143D01*
X26264571Y26973286D01*
X26228857Y27116143D01*
X26193142Y27187572D01*
X26121714Y27259000D01*
X26014571Y27294715D01*
X25943142Y27294715D01*
X25836000Y27259000D01*
X25800285Y27223286D01*
X25478857Y26544715D02*
X25478857Y27294715D01*
X25300285Y27294715D01*
X25193142Y27259000D01*
X25121714Y27187572D01*
X25086000Y27116143D01*
X25050285Y26973286D01*
X25050285Y26866143D01*
X25086000Y26723286D01*
X25121714Y26651858D01*
X25193142Y26580429D01*
X25300285Y26544715D01*
X25478857Y26544715D01*
X27657428Y26344000D02*
X26907428Y26344000D01*
X27050285Y25269715D02*
X27300285Y25626858D01*
X27478857Y25269715D02*
X27478857Y26019715D01*
X27193142Y26019715D01*
X27121714Y25984000D01*
X27086000Y25948286D01*
X27050285Y25876858D01*
X27050285Y25769715D01*
X27086000Y25698286D01*
X27121714Y25662572D01*
X27193142Y25626858D01*
X27478857Y25626858D01*
X26907428Y26344000D02*
X26228857Y26344000D01*
X26728857Y25662572D02*
X26478857Y25662572D01*
X26371714Y25269715D02*
X26728857Y25269715D01*
X26728857Y26019715D01*
X26371714Y26019715D01*
X26228857Y26344000D02*
X25514571Y26344000D01*
X26086000Y25305429D02*
X25978857Y25269715D01*
X25800285Y25269715D01*
X25728857Y25305429D01*
X25693142Y25341143D01*
X25657428Y25412572D01*
X25657428Y25484000D01*
X25693142Y25555429D01*
X25728857Y25591143D01*
X25800285Y25626858D01*
X25943142Y25662572D01*
X26014571Y25698286D01*
X26050285Y25734000D01*
X26086000Y25805429D01*
X26086000Y25876858D01*
X26050285Y25948286D01*
X26014571Y25984000D01*
X25943142Y26019715D01*
X25764571Y26019715D01*
X25657428Y25984000D01*
X25514571Y26344000D02*
X24836000Y26344000D01*
X25336000Y25662572D02*
X25086000Y25662572D01*
X24978857Y25269715D02*
X25336000Y25269715D01*
X25336000Y26019715D01*
X24978857Y26019715D01*
X24836000Y26344000D02*
X24264571Y26344000D01*
X24764571Y26019715D02*
X24336000Y26019715D01*
X24550285Y25269715D02*
X24550285Y26019715D01*
X26396714Y29959000D02*
X26039571Y29959000D01*
X26468142Y29744715D02*
X26218142Y30494715D01*
X25968142Y29744715D01*
X25575285Y30494715D02*
X25503857Y30494715D01*
X25432428Y30459000D01*
X25396714Y30423286D01*
X25361000Y30351858D01*
X25325285Y30209000D01*
X25325285Y30030429D01*
X25361000Y29887572D01*
X25396714Y29816143D01*
X25432428Y29780429D01*
X25503857Y29744715D01*
X25575285Y29744715D01*
X25646714Y29780429D01*
X25682428Y29816143D01*
X25718142Y29887572D01*
X25753857Y30030429D01*
X25753857Y30209000D01*
X25718142Y30351858D01*
X25682428Y30423286D01*
X25646714Y30459000D01*
X25575285Y30494715D01*
X27450285Y28505429D02*
X27343142Y28469715D01*
X27164571Y28469715D01*
X27093142Y28505429D01*
X27057428Y28541143D01*
X27021714Y28612572D01*
X27021714Y28684000D01*
X27057428Y28755429D01*
X27093142Y28791143D01*
X27164571Y28826858D01*
X27307428Y28862572D01*
X27378857Y28898286D01*
X27414571Y28934000D01*
X27450285Y29005429D01*
X27450285Y29076858D01*
X27414571Y29148286D01*
X27378857Y29184000D01*
X27307428Y29219715D01*
X27128857Y29219715D01*
X27021714Y29184000D01*
X26414571Y28505429D02*
X26486000Y28469715D01*
X26628857Y28469715D01*
X26700285Y28505429D01*
X26736000Y28576858D01*
X26736000Y28862572D01*
X26700285Y28934000D01*
X26628857Y28969715D01*
X26486000Y28969715D01*
X26414571Y28934000D01*
X26378857Y28862572D01*
X26378857Y28791143D01*
X26736000Y28719715D01*
X25950285Y28469715D02*
X26021714Y28505429D01*
X26057428Y28576858D01*
X26057428Y29219715D01*
X25378857Y28505429D02*
X25450285Y28469715D01*
X25593142Y28469715D01*
X25664571Y28505429D01*
X25700285Y28576858D01*
X25700285Y28862572D01*
X25664571Y28934000D01*
X25593142Y28969715D01*
X25450285Y28969715D01*
X25378857Y28934000D01*
X25343142Y28862572D01*
X25343142Y28791143D01*
X25700285Y28719715D01*
X24700285Y28505429D02*
X24771714Y28469715D01*
X24914571Y28469715D01*
X24986000Y28505429D01*
X25021714Y28541143D01*
X25057428Y28612572D01*
X25057428Y28826858D01*
X25021714Y28898286D01*
X24986000Y28934000D01*
X24914571Y28969715D01*
X24771714Y28969715D01*
X24700285Y28934000D01*
X24486000Y28969715D02*
X24200285Y28969715D01*
X24378857Y29219715D02*
X24378857Y28576858D01*
X24343142Y28505429D01*
X24271714Y28469715D01*
X24200285Y28469715D01*
X26989571Y31478643D02*
X27025285Y31442929D01*
X27132428Y31407215D01*
X27203857Y31407215D01*
X27311000Y31442929D01*
X27382428Y31514358D01*
X27418142Y31585786D01*
X27453857Y31728643D01*
X27453857Y31835786D01*
X27418142Y31978643D01*
X27382428Y32050072D01*
X27311000Y32121500D01*
X27203857Y32157215D01*
X27132428Y32157215D01*
X27025285Y32121500D01*
X26989571Y32085786D01*
X26561000Y31407215D02*
X26632428Y31442929D01*
X26668142Y31514358D01*
X26668142Y32157215D01*
X26168142Y31407215D02*
X26239571Y31442929D01*
X26275285Y31478643D01*
X26311000Y31550072D01*
X26311000Y31764358D01*
X26275285Y31835786D01*
X26239571Y31871500D01*
X26168142Y31907215D01*
X26061000Y31907215D01*
X25989571Y31871500D01*
X25953857Y31835786D01*
X25918142Y31764358D01*
X25918142Y31550072D01*
X25953857Y31478643D01*
X25989571Y31442929D01*
X26061000Y31407215D01*
X26168142Y31407215D01*
X25275285Y31442929D02*
X25346714Y31407215D01*
X25489571Y31407215D01*
X25561000Y31442929D01*
X25596714Y31478643D01*
X25632428Y31550072D01*
X25632428Y31764358D01*
X25596714Y31835786D01*
X25561000Y31871500D01*
X25489571Y31907215D01*
X25346714Y31907215D01*
X25275285Y31871500D01*
X24953857Y31407215D02*
X24953857Y32157215D01*
X24882428Y31692929D02*
X24668142Y31407215D01*
X24668142Y31907215D02*
X24953857Y31621500D01*
X27350285Y34744715D02*
X27350285Y35494715D01*
X27171714Y35494715D01*
X27064571Y35459000D01*
X26993142Y35387572D01*
X26957428Y35316143D01*
X26921714Y35173286D01*
X26921714Y35066143D01*
X26957428Y34923286D01*
X26993142Y34851858D01*
X27064571Y34780429D01*
X27171714Y34744715D01*
X27350285Y34744715D01*
X26278857Y34744715D02*
X26278857Y35137572D01*
X26314571Y35209000D01*
X26386000Y35244715D01*
X26528857Y35244715D01*
X26600285Y35209000D01*
X26278857Y34780429D02*
X26350285Y34744715D01*
X26528857Y34744715D01*
X26600285Y34780429D01*
X26636000Y34851858D01*
X26636000Y34923286D01*
X26600285Y34994715D01*
X26528857Y35030429D01*
X26350285Y35030429D01*
X26278857Y35066143D01*
X26028857Y35244715D02*
X25743142Y35244715D01*
X25921714Y35494715D02*
X25921714Y34851858D01*
X25886000Y34780429D01*
X25814571Y34744715D01*
X25743142Y34744715D01*
X25171714Y34744715D02*
X25171714Y35137572D01*
X25207428Y35209000D01*
X25278857Y35244715D01*
X25421714Y35244715D01*
X25493142Y35209000D01*
X25171714Y34780429D02*
X25243142Y34744715D01*
X25421714Y34744715D01*
X25493142Y34780429D01*
X25528857Y34851858D01*
X25528857Y34923286D01*
X25493142Y34994715D01*
X25421714Y35030429D01*
X25243142Y35030429D01*
X25171714Y35066143D01*
X26886000Y34219715D02*
X26743142Y34219715D01*
X26671714Y34184000D01*
X26600285Y34112572D01*
X26564571Y33969715D01*
X26564571Y33719715D01*
X26600285Y33576858D01*
X26671714Y33505429D01*
X26743142Y33469715D01*
X26886000Y33469715D01*
X26957428Y33505429D01*
X27028857Y33576858D01*
X27064571Y33719715D01*
X27064571Y33969715D01*
X27028857Y34112572D01*
X26957428Y34184000D01*
X26886000Y34219715D01*
X25921714Y33969715D02*
X25921714Y33469715D01*
X26243142Y33969715D02*
X26243142Y33576858D01*
X26207428Y33505429D01*
X26136000Y33469715D01*
X26028857Y33469715D01*
X25957428Y33505429D01*
X25921714Y33541143D01*
X25671714Y33969715D02*
X25386000Y33969715D01*
X25564571Y34219715D02*
X25564571Y33576858D01*
X25528857Y33505429D01*
X25457428Y33469715D01*
X25386000Y33469715D01*
X15803857Y25757215D02*
X16161000Y25757215D01*
X16196714Y25400072D01*
X16161000Y25435786D01*
X16089571Y25471500D01*
X15911000Y25471500D01*
X15839571Y25435786D01*
X15803857Y25400072D01*
X15768142Y25328643D01*
X15768142Y25150072D01*
X15803857Y25078643D01*
X15839571Y25042929D01*
X15911000Y25007215D01*
X16089571Y25007215D01*
X16161000Y25042929D01*
X16196714Y25078643D01*
X15553857Y25757215D02*
X15303857Y25007215D01*
X15053857Y25757215D01*
X15632428Y28321500D02*
X15703857Y28357215D01*
X15811000Y28357215D01*
X15918142Y28321500D01*
X15989571Y28250072D01*
X16025285Y28178643D01*
X16061000Y28035786D01*
X16061000Y27928643D01*
X16025285Y27785786D01*
X15989571Y27714358D01*
X15918142Y27642929D01*
X15811000Y27607215D01*
X15739571Y27607215D01*
X15632428Y27642929D01*
X15596714Y27678643D01*
X15596714Y27928643D01*
X15739571Y27928643D01*
X15275285Y27607215D02*
X15275285Y28357215D01*
X14846714Y27607215D01*
X14846714Y28357215D01*
X14489571Y27607215D02*
X14489571Y28357215D01*
X14311000Y28357215D01*
X14203857Y28321500D01*
X14132428Y28250072D01*
X14096714Y28178643D01*
X14061000Y28035786D01*
X14061000Y27928643D01*
X14096714Y27785786D01*
X14132428Y27714358D01*
X14203857Y27642929D01*
X14311000Y27607215D01*
X14489571Y27607215D01*
X15689571Y30278643D02*
X15725285Y30242929D01*
X15832428Y30207215D01*
X15903857Y30207215D01*
X16011000Y30242929D01*
X16082428Y30314358D01*
X16118142Y30385786D01*
X16153857Y30528643D01*
X16153857Y30635786D01*
X16118142Y30778643D01*
X16082428Y30850072D01*
X16011000Y30921500D01*
X15903857Y30957215D01*
X15832428Y30957215D01*
X15725285Y30921500D01*
X15689571Y30885786D01*
X15261000Y30207215D02*
X15332428Y30242929D01*
X15368142Y30314358D01*
X15368142Y30957215D01*
X14868142Y30207215D02*
X14939571Y30242929D01*
X14975285Y30278643D01*
X15011000Y30350072D01*
X15011000Y30564358D01*
X14975285Y30635786D01*
X14939571Y30671500D01*
X14868142Y30707215D01*
X14761000Y30707215D01*
X14689571Y30671500D01*
X14653857Y30635786D01*
X14618142Y30564358D01*
X14618142Y30350072D01*
X14653857Y30278643D01*
X14689571Y30242929D01*
X14761000Y30207215D01*
X14868142Y30207215D01*
X13975285Y30242929D02*
X14046714Y30207215D01*
X14189571Y30207215D01*
X14261000Y30242929D01*
X14296714Y30278643D01*
X14332428Y30350072D01*
X14332428Y30564358D01*
X14296714Y30635786D01*
X14261000Y30671500D01*
X14189571Y30707215D01*
X14046714Y30707215D01*
X13975285Y30671500D01*
X13653857Y30207215D02*
X13653857Y30957215D01*
X13582428Y30492929D02*
X13368142Y30207215D01*
X13368142Y30707215D02*
X13653857Y30421500D01*
X16082428Y32907215D02*
X16082428Y33657215D01*
X15903857Y33657215D01*
X15796714Y33621500D01*
X15725285Y33550072D01*
X15689571Y33478643D01*
X15653857Y33335786D01*
X15653857Y33228643D01*
X15689571Y33085786D01*
X15725285Y33014358D01*
X15796714Y32942929D01*
X15903857Y32907215D01*
X16082428Y32907215D01*
X15011000Y32907215D02*
X15011000Y33300072D01*
X15046714Y33371500D01*
X15118142Y33407215D01*
X15261000Y33407215D01*
X15332428Y33371500D01*
X15011000Y32942929D02*
X15082428Y32907215D01*
X15261000Y32907215D01*
X15332428Y32942929D01*
X15368142Y33014358D01*
X15368142Y33085786D01*
X15332428Y33157215D01*
X15261000Y33192929D01*
X15082428Y33192929D01*
X15011000Y33228643D01*
X14761000Y33407215D02*
X14475285Y33407215D01*
X14653857Y33657215D02*
X14653857Y33014358D01*
X14618142Y32942929D01*
X14546714Y32907215D01*
X14475285Y32907215D01*
X13903857Y32907215D02*
X13903857Y33300072D01*
X13939571Y33371500D01*
X14011000Y33407215D01*
X14153857Y33407215D01*
X14225285Y33371500D01*
X13903857Y32942929D02*
X13975285Y32907215D01*
X14153857Y32907215D01*
X14225285Y32942929D01*
X14261000Y33014358D01*
X14261000Y33085786D01*
X14225285Y33157215D01*
X14153857Y33192929D01*
X13975285Y33192929D01*
X13903857Y33228643D01*
X12832428Y33657215D02*
X12689571Y33657215D01*
X12618142Y33621500D01*
X12546714Y33550072D01*
X12511000Y33407215D01*
X12511000Y33157215D01*
X12546714Y33014358D01*
X12618142Y32942929D01*
X12689571Y32907215D01*
X12832428Y32907215D01*
X12903857Y32942929D01*
X12975285Y33014358D01*
X13011000Y33157215D01*
X13011000Y33407215D01*
X12975285Y33550072D01*
X12903857Y33621500D01*
X12832428Y33657215D01*
X11868142Y33407215D02*
X11868142Y32907215D01*
X12189571Y33407215D02*
X12189571Y33014358D01*
X12153857Y32942929D01*
X12082428Y32907215D01*
X11975285Y32907215D01*
X11903857Y32942929D01*
X11868142Y32978643D01*
X11618142Y33407215D02*
X11332428Y33407215D01*
X11511000Y33657215D02*
X11511000Y33014358D01*
X11475285Y32942929D01*
X11403857Y32907215D01*
X11332428Y32907215D01*
X15953857Y35407215D02*
X15953857Y36157215D01*
X15775285Y36157215D01*
X15668142Y36121500D01*
X15596714Y36050072D01*
X15561000Y35978643D01*
X15525285Y35835786D01*
X15525285Y35728643D01*
X15561000Y35585786D01*
X15596714Y35514358D01*
X15668142Y35442929D01*
X15775285Y35407215D01*
X15953857Y35407215D01*
X14882428Y35407215D02*
X14882428Y35800072D01*
X14918142Y35871500D01*
X14989571Y35907215D01*
X15132428Y35907215D01*
X15203857Y35871500D01*
X14882428Y35442929D02*
X14953857Y35407215D01*
X15132428Y35407215D01*
X15203857Y35442929D01*
X15239571Y35514358D01*
X15239571Y35585786D01*
X15203857Y35657215D01*
X15132428Y35692929D01*
X14953857Y35692929D01*
X14882428Y35728643D01*
X14632428Y35907215D02*
X14346714Y35907215D01*
X14525285Y36157215D02*
X14525285Y35514358D01*
X14489571Y35442929D01*
X14418142Y35407215D01*
X14346714Y35407215D01*
X13775285Y35407215D02*
X13775285Y35800072D01*
X13811000Y35871500D01*
X13882428Y35907215D01*
X14025285Y35907215D01*
X14096714Y35871500D01*
X13775285Y35442929D02*
X13846714Y35407215D01*
X14025285Y35407215D01*
X14096714Y35442929D01*
X14132428Y35514358D01*
X14132428Y35585786D01*
X14096714Y35657215D01*
X14025285Y35692929D01*
X13846714Y35692929D01*
X13775285Y35728643D01*
X12846714Y35407215D02*
X12846714Y36157215D01*
X12489571Y35907215D02*
X12489571Y35407215D01*
X12489571Y35835786D02*
X12453857Y35871500D01*
X12382428Y35907215D01*
X12275285Y35907215D01*
X12203857Y35871500D01*
X12168142Y35800072D01*
X12168142Y35407215D01*
X15993142Y38981500D02*
X15243142Y38981500D01*
X15386000Y37978643D02*
X15421714Y37942929D01*
X15528857Y37907215D01*
X15600285Y37907215D01*
X15707428Y37942929D01*
X15778857Y38014358D01*
X15814571Y38085786D01*
X15850285Y38228643D01*
X15850285Y38335786D01*
X15814571Y38478643D01*
X15778857Y38550072D01*
X15707428Y38621500D01*
X15600285Y38657215D01*
X15528857Y38657215D01*
X15421714Y38621500D01*
X15386000Y38585786D01*
X15243142Y38981500D02*
X14528857Y38981500D01*
X15100285Y37942929D02*
X14993142Y37907215D01*
X14814571Y37907215D01*
X14743142Y37942929D01*
X14707428Y37978643D01*
X14671714Y38050072D01*
X14671714Y38121500D01*
X14707428Y38192929D01*
X14743142Y38228643D01*
X14814571Y38264358D01*
X14957428Y38300072D01*
X15028857Y38335786D01*
X15064571Y38371500D01*
X15100285Y38442929D01*
X15100285Y38514358D01*
X15064571Y38585786D01*
X15028857Y38621500D01*
X14957428Y38657215D01*
X14778857Y38657215D01*
X14671714Y38621500D01*
X13112785Y48750072D02*
X13112785Y48321500D01*
X13862785Y48535786D02*
X13112785Y48535786D01*
X13862785Y48071500D02*
X13112785Y48071500D01*
X13862785Y47750072D02*
X13469928Y47750072D01*
X13398500Y47785786D01*
X13362785Y47857215D01*
X13362785Y47964358D01*
X13398500Y48035786D01*
X13434214Y48071500D01*
X13827071Y47107215D02*
X13862785Y47178643D01*
X13862785Y47321500D01*
X13827071Y47392929D01*
X13755642Y47428643D01*
X13469928Y47428643D01*
X13398500Y47392929D01*
X13362785Y47321500D01*
X13362785Y47178643D01*
X13398500Y47107215D01*
X13469928Y47071500D01*
X13541357Y47071500D01*
X13612785Y47428643D01*
X13862785Y46750072D02*
X13362785Y46750072D01*
X13505642Y46750072D02*
X13434214Y46714358D01*
X13398500Y46678643D01*
X13362785Y46607215D01*
X13362785Y46535786D01*
X13862785Y46285786D02*
X13362785Y46285786D01*
X13434214Y46285786D02*
X13398500Y46250072D01*
X13362785Y46178643D01*
X13362785Y46071500D01*
X13398500Y46000072D01*
X13469928Y45964358D01*
X13862785Y45964358D01*
X13469928Y45964358D02*
X13398500Y45928643D01*
X13362785Y45857215D01*
X13362785Y45750072D01*
X13398500Y45678643D01*
X13469928Y45642929D01*
X13862785Y45642929D01*
X13862785Y45178643D02*
X13827071Y45250072D01*
X13791357Y45285786D01*
X13719928Y45321500D01*
X13505642Y45321500D01*
X13434214Y45285786D01*
X13398500Y45250072D01*
X13362785Y45178643D01*
X13362785Y45071500D01*
X13398500Y45000072D01*
X13434214Y44964358D01*
X13505642Y44928643D01*
X13719928Y44928643D01*
X13791357Y44964358D01*
X13827071Y45000072D01*
X13862785Y45071500D01*
X13862785Y45178643D01*
X13827071Y44285786D02*
X13862785Y44357215D01*
X13862785Y44500072D01*
X13827071Y44571500D01*
X13791357Y44607215D01*
X13719928Y44642929D01*
X13505642Y44642929D01*
X13434214Y44607215D01*
X13398500Y44571500D01*
X13362785Y44500072D01*
X13362785Y44357215D01*
X13398500Y44285786D01*
X13862785Y43857215D02*
X13827071Y43928643D01*
X13791357Y43964358D01*
X13719928Y44000072D01*
X13505642Y44000072D01*
X13434214Y43964358D01*
X13398500Y43928643D01*
X13362785Y43857215D01*
X13362785Y43750072D01*
X13398500Y43678643D01*
X13434214Y43642929D01*
X13505642Y43607215D01*
X13719928Y43607215D01*
X13791357Y43642929D01*
X13827071Y43678643D01*
X13862785Y43750072D01*
X13862785Y43857215D01*
X13362785Y42964358D02*
X13862785Y42964358D01*
X13362785Y43285786D02*
X13755642Y43285786D01*
X13827071Y43250072D01*
X13862785Y43178643D01*
X13862785Y43071500D01*
X13827071Y43000072D01*
X13791357Y42964358D01*
X13362785Y42607215D02*
X14112785Y42607215D01*
X13398500Y42607215D02*
X13362785Y42535786D01*
X13362785Y42392929D01*
X13398500Y42321500D01*
X13434214Y42285786D01*
X13505642Y42250072D01*
X13719928Y42250072D01*
X13791357Y42285786D01*
X13827071Y42321500D01*
X13862785Y42392929D01*
X13862785Y42535786D01*
X13827071Y42607215D01*
X13862785Y41821500D02*
X13827071Y41892929D01*
X13755642Y41928643D01*
X13112785Y41928643D01*
X13827071Y41250072D02*
X13862785Y41321500D01*
X13862785Y41464358D01*
X13827071Y41535786D01*
X13755642Y41571500D01*
X13469928Y41571500D01*
X13398500Y41535786D01*
X13362785Y41464358D01*
X13362785Y41321500D01*
X13398500Y41250072D01*
X13469928Y41214358D01*
X13541357Y41214358D01*
X13612785Y41571500D01*
X15137785Y48553643D02*
X15102071Y48625072D01*
X15066357Y48660786D01*
X14994928Y48696500D01*
X14780642Y48696500D01*
X14709214Y48660786D01*
X14673500Y48625072D01*
X14637785Y48553643D01*
X14637785Y48446500D01*
X14673500Y48375072D01*
X14709214Y48339358D01*
X14780642Y48303643D01*
X14994928Y48303643D01*
X15066357Y48339358D01*
X15102071Y48375072D01*
X15137785Y48446500D01*
X15137785Y48553643D01*
X15137785Y47982215D02*
X14637785Y47982215D01*
X14780642Y47982215D02*
X14709214Y47946500D01*
X14673500Y47910786D01*
X14637785Y47839358D01*
X14637785Y47767929D01*
X14637785Y47053643D02*
X14637785Y46767929D01*
X15137785Y46946500D02*
X14494928Y46946500D01*
X14423500Y46910786D01*
X14387785Y46839358D01*
X14387785Y46767929D01*
X15137785Y46196500D02*
X14744928Y46196500D01*
X14673500Y46232215D01*
X14637785Y46303643D01*
X14637785Y46446500D01*
X14673500Y46517929D01*
X15102071Y46196500D02*
X15137785Y46267929D01*
X15137785Y46446500D01*
X15102071Y46517929D01*
X15030642Y46553643D01*
X14959214Y46553643D01*
X14887785Y46517929D01*
X14852071Y46446500D01*
X14852071Y46267929D01*
X14816357Y46196500D01*
X14637785Y45839358D02*
X15137785Y45839358D01*
X14709214Y45839358D02*
X14673500Y45803643D01*
X14637785Y45732215D01*
X14637785Y45625072D01*
X14673500Y45553643D01*
X14744928Y45517929D01*
X15137785Y45517929D01*
X15102071Y44303643D02*
X15137785Y44375072D01*
X15137785Y44517929D01*
X15102071Y44589358D01*
X15030642Y44625072D01*
X14744928Y44625072D01*
X14673500Y44589358D01*
X14637785Y44517929D01*
X14637785Y44375072D01*
X14673500Y44303643D01*
X14744928Y44267929D01*
X14816357Y44267929D01*
X14887785Y44625072D01*
X14637785Y43946500D02*
X15137785Y43946500D01*
X14709214Y43946500D02*
X14673500Y43910786D01*
X14637785Y43839358D01*
X14637785Y43732215D01*
X14673500Y43660786D01*
X14744928Y43625072D01*
X15137785Y43625072D01*
X15137785Y42946500D02*
X14744928Y42946500D01*
X14673500Y42982215D01*
X14637785Y43053643D01*
X14637785Y43196500D01*
X14673500Y43267929D01*
X15102071Y42946500D02*
X15137785Y43017929D01*
X15137785Y43196500D01*
X15102071Y43267929D01*
X15030642Y43303643D01*
X14959214Y43303643D01*
X14887785Y43267929D01*
X14852071Y43196500D01*
X14852071Y43017929D01*
X14816357Y42946500D01*
X15137785Y42589358D02*
X14387785Y42589358D01*
X14673500Y42589358D02*
X14637785Y42517929D01*
X14637785Y42375072D01*
X14673500Y42303643D01*
X14709214Y42267929D01*
X14780642Y42232215D01*
X14994928Y42232215D01*
X15066357Y42267929D01*
X15102071Y42303643D01*
X15137785Y42375072D01*
X15137785Y42517929D01*
X15102071Y42589358D01*
X15137785Y41803643D02*
X15102071Y41875072D01*
X15030642Y41910786D01*
X14387785Y41910786D01*
X15102071Y41232215D02*
X15137785Y41303643D01*
X15137785Y41446500D01*
X15102071Y41517929D01*
X15030642Y41553643D01*
X14744928Y41553643D01*
X14673500Y41517929D01*
X14637785Y41446500D01*
X14637785Y41303643D01*
X14673500Y41232215D01*
X14744928Y41196500D01*
X14816357Y41196500D01*
X14887785Y41553643D01*
X21412785Y58989358D02*
X21412785Y58489358D01*
X22162785Y58989358D01*
X22162785Y58489358D01*
X22162785Y57632215D02*
X21412785Y57632215D01*
X21412785Y57346500D01*
X21448500Y57275072D01*
X21484214Y57239358D01*
X21555642Y57203643D01*
X21662785Y57203643D01*
X21734214Y57239358D01*
X21769928Y57275072D01*
X21805642Y57346500D01*
X21805642Y57632215D01*
X22162785Y56882215D02*
X21662785Y56882215D01*
X21805642Y56882215D02*
X21734214Y56846500D01*
X21698500Y56810786D01*
X21662785Y56739358D01*
X21662785Y56667929D01*
X22162785Y56310786D02*
X22127071Y56382215D01*
X22091357Y56417929D01*
X22019928Y56453643D01*
X21805642Y56453643D01*
X21734214Y56417929D01*
X21698500Y56382215D01*
X21662785Y56310786D01*
X21662785Y56203643D01*
X21698500Y56132215D01*
X21734214Y56096500D01*
X21805642Y56060786D01*
X22019928Y56060786D01*
X22091357Y56096500D01*
X22127071Y56132215D01*
X22162785Y56203643D01*
X22162785Y56310786D01*
X22162785Y55739358D02*
X21412785Y55739358D01*
X21698500Y55739358D02*
X21662785Y55667929D01*
X21662785Y55525072D01*
X21698500Y55453643D01*
X21734214Y55417929D01*
X21805642Y55382215D01*
X22019928Y55382215D01*
X22091357Y55417929D01*
X22127071Y55453643D01*
X22162785Y55525072D01*
X22162785Y55667929D01*
X22127071Y55739358D01*
X22127071Y54775072D02*
X22162785Y54846500D01*
X22162785Y54989358D01*
X22127071Y55060786D01*
X22055642Y55096500D01*
X21769928Y55096500D01*
X21698500Y55060786D01*
X21662785Y54989358D01*
X21662785Y54846500D01*
X21698500Y54775072D01*
X21769928Y54739358D01*
X21841357Y54739358D01*
X21912785Y55096500D01*
X23437785Y58078643D02*
X22687785Y58078643D01*
X22937785Y57721500D02*
X23437785Y57721500D01*
X23009214Y57721500D02*
X22973500Y57685786D01*
X22937785Y57614358D01*
X22937785Y57507215D01*
X22973500Y57435786D01*
X23044928Y57400072D01*
X23437785Y57400072D01*
X22937785Y57042929D02*
X23687785Y57042929D01*
X22973500Y57042929D02*
X22937785Y56971500D01*
X22937785Y56828643D01*
X22973500Y56757215D01*
X23009214Y56721500D01*
X23080642Y56685786D01*
X23294928Y56685786D01*
X23366357Y56721500D01*
X23402071Y56757215D01*
X23437785Y56828643D01*
X23437785Y56971500D01*
X23402071Y57042929D01*
X22937785Y56042929D02*
X23437785Y56042929D01*
X22937785Y56364358D02*
X23330642Y56364358D01*
X23402071Y56328643D01*
X23437785Y56257215D01*
X23437785Y56150072D01*
X23402071Y56078643D01*
X23366357Y56042929D01*
X22937785Y55792929D02*
X22937785Y55507215D01*
X22687785Y55685786D02*
X23330642Y55685786D01*
X23402071Y55650072D01*
X23437785Y55578643D01*
X23437785Y55507215D01*
X24686000Y56517929D02*
X24650285Y56589358D01*
X24650285Y56696500D01*
X24686000Y56803643D01*
X24757428Y56875072D01*
X24828857Y56910786D01*
X24971714Y56946500D01*
X25078857Y56946500D01*
X25221714Y56910786D01*
X25293142Y56875072D01*
X25364571Y56803643D01*
X25400285Y56696500D01*
X25400285Y56625072D01*
X25364571Y56517929D01*
X25328857Y56482215D01*
X25078857Y56482215D01*
X25078857Y56625072D01*
X25400285Y56160786D02*
X24650285Y56160786D01*
X25400285Y55732215D01*
X24650285Y55732215D01*
X25400285Y55375072D02*
X24650285Y55375072D01*
X24650285Y55196500D01*
X24686000Y55089358D01*
X24757428Y55017929D01*
X24828857Y54982215D01*
X24971714Y54946500D01*
X25078857Y54946500D01*
X25221714Y54982215D01*
X25293142Y55017929D01*
X25364571Y55089358D01*
X25400285Y55196500D01*
X25400285Y55375072D01*
X26712785Y58989358D02*
X26712785Y58489358D01*
X27462785Y58989358D01*
X27462785Y58489358D01*
X27462785Y57632215D02*
X26712785Y57632215D01*
X26712785Y57346500D01*
X26748500Y57275072D01*
X26784214Y57239358D01*
X26855642Y57203643D01*
X26962785Y57203643D01*
X27034214Y57239358D01*
X27069928Y57275072D01*
X27105642Y57346500D01*
X27105642Y57632215D01*
X27462785Y56882215D02*
X26962785Y56882215D01*
X27105642Y56882215D02*
X27034214Y56846500D01*
X26998500Y56810786D01*
X26962785Y56739358D01*
X26962785Y56667929D01*
X27462785Y56310786D02*
X27427071Y56382215D01*
X27391357Y56417929D01*
X27319928Y56453643D01*
X27105642Y56453643D01*
X27034214Y56417929D01*
X26998500Y56382215D01*
X26962785Y56310786D01*
X26962785Y56203643D01*
X26998500Y56132215D01*
X27034214Y56096500D01*
X27105642Y56060786D01*
X27319928Y56060786D01*
X27391357Y56096500D01*
X27427071Y56132215D01*
X27462785Y56203643D01*
X27462785Y56310786D01*
X27462785Y55739358D02*
X26712785Y55739358D01*
X26998500Y55739358D02*
X26962785Y55667929D01*
X26962785Y55525072D01*
X26998500Y55453643D01*
X27034214Y55417929D01*
X27105642Y55382215D01*
X27319928Y55382215D01*
X27391357Y55417929D01*
X27427071Y55453643D01*
X27462785Y55525072D01*
X27462785Y55667929D01*
X27427071Y55739358D01*
X27427071Y54775072D02*
X27462785Y54846500D01*
X27462785Y54989358D01*
X27427071Y55060786D01*
X27355642Y55096500D01*
X27069928Y55096500D01*
X26998500Y55060786D01*
X26962785Y54989358D01*
X26962785Y54846500D01*
X26998500Y54775072D01*
X27069928Y54739358D01*
X27141357Y54739358D01*
X27212785Y55096500D01*
X28737785Y57453643D02*
X28702071Y57525072D01*
X28666357Y57560786D01*
X28594928Y57596500D01*
X28380642Y57596500D01*
X28309214Y57560786D01*
X28273500Y57525072D01*
X28237785Y57453643D01*
X28237785Y57346500D01*
X28273500Y57275072D01*
X28309214Y57239358D01*
X28380642Y57203643D01*
X28594928Y57203643D01*
X28666357Y57239358D01*
X28702071Y57275072D01*
X28737785Y57346500D01*
X28737785Y57453643D01*
X28237785Y56560786D02*
X28737785Y56560786D01*
X28237785Y56882215D02*
X28630642Y56882215D01*
X28702071Y56846500D01*
X28737785Y56775072D01*
X28737785Y56667929D01*
X28702071Y56596500D01*
X28666357Y56560786D01*
X28237785Y56310786D02*
X28237785Y56025072D01*
X27987785Y56203643D02*
X28630642Y56203643D01*
X28702071Y56167929D01*
X28737785Y56096500D01*
X28737785Y56025072D01*
X29950285Y56089358D02*
X29950285Y56446500D01*
X30307428Y56482215D01*
X30271714Y56446500D01*
X30236000Y56375072D01*
X30236000Y56196500D01*
X30271714Y56125072D01*
X30307428Y56089358D01*
X30378857Y56053643D01*
X30557428Y56053643D01*
X30628857Y56089358D01*
X30664571Y56125072D01*
X30700285Y56196500D01*
X30700285Y56375072D01*
X30664571Y56446500D01*
X30628857Y56482215D01*
X29950285Y55839358D02*
X30700285Y55589358D01*
X29950285Y55339358D01*
X20189571Y13200072D02*
X20439571Y13200072D01*
X20439571Y12807215D02*
X20439571Y13557215D01*
X20082428Y13557215D01*
X19475285Y12807215D02*
X19475285Y13200072D01*
X19511000Y13271500D01*
X19582428Y13307215D01*
X19725285Y13307215D01*
X19796714Y13271500D01*
X19475285Y12842929D02*
X19546714Y12807215D01*
X19725285Y12807215D01*
X19796714Y12842929D01*
X19832428Y12914358D01*
X19832428Y12985786D01*
X19796714Y13057215D01*
X19725285Y13092929D01*
X19546714Y13092929D01*
X19475285Y13128643D01*
X19118142Y13307215D02*
X19118142Y12807215D01*
X19118142Y13235786D02*
X19082428Y13271500D01*
X19011000Y13307215D01*
X18903857Y13307215D01*
X18832428Y13271500D01*
X18796714Y13200072D01*
X18796714Y12807215D01*
X17546714Y12842929D02*
X17618142Y12807215D01*
X17761000Y12807215D01*
X17832428Y12842929D01*
X17868142Y12878643D01*
X17903857Y12950072D01*
X17903857Y13164358D01*
X17868142Y13235786D01*
X17832428Y13271500D01*
X17761000Y13307215D01*
X17618142Y13307215D01*
X17546714Y13271500D01*
X17118142Y12807215D02*
X17189571Y12842929D01*
X17225285Y12878643D01*
X17261000Y12950072D01*
X17261000Y13164358D01*
X17225285Y13235786D01*
X17189571Y13271500D01*
X17118142Y13307215D01*
X17011000Y13307215D01*
X16939571Y13271500D01*
X16903857Y13235786D01*
X16868142Y13164358D01*
X16868142Y12950072D01*
X16903857Y12878643D01*
X16939571Y12842929D01*
X17011000Y12807215D01*
X17118142Y12807215D01*
X16546714Y13307215D02*
X16546714Y12807215D01*
X16546714Y13235786D02*
X16511000Y13271500D01*
X16439571Y13307215D01*
X16332428Y13307215D01*
X16261000Y13271500D01*
X16225285Y13200072D01*
X16225285Y12807215D01*
X15868142Y13307215D02*
X15868142Y12807215D01*
X15868142Y13235786D02*
X15832428Y13271500D01*
X15761000Y13307215D01*
X15653857Y13307215D01*
X15582428Y13271500D01*
X15546714Y13200072D01*
X15546714Y12807215D01*
X14903857Y12842929D02*
X14975285Y12807215D01*
X15118142Y12807215D01*
X15189571Y12842929D01*
X15225285Y12914358D01*
X15225285Y13200072D01*
X15189571Y13271500D01*
X15118142Y13307215D01*
X14975285Y13307215D01*
X14903857Y13271500D01*
X14868142Y13200072D01*
X14868142Y13128643D01*
X15225285Y13057215D01*
X14225285Y12842929D02*
X14296714Y12807215D01*
X14439571Y12807215D01*
X14511000Y12842929D01*
X14546714Y12878643D01*
X14582428Y12950072D01*
X14582428Y13164358D01*
X14546714Y13235786D01*
X14511000Y13271500D01*
X14439571Y13307215D01*
X14296714Y13307215D01*
X14225285Y13271500D01*
X14011000Y13307215D02*
X13725285Y13307215D01*
X13903857Y13557215D02*
X13903857Y12914358D01*
X13868142Y12842929D01*
X13796714Y12807215D01*
X13725285Y12807215D01*
X13368142Y12807215D02*
X13439571Y12842929D01*
X13475285Y12878643D01*
X13511000Y12950072D01*
X13511000Y13164358D01*
X13475285Y13235786D01*
X13439571Y13271500D01*
X13368142Y13307215D01*
X13261000Y13307215D01*
X13189571Y13271500D01*
X13153857Y13235786D01*
X13118142Y13164358D01*
X13118142Y12950072D01*
X13153857Y12878643D01*
X13189571Y12842929D01*
X13261000Y12807215D01*
X13368142Y12807215D01*
X12796714Y12807215D02*
X12796714Y13307215D01*
X12796714Y13164358D02*
X12761000Y13235786D01*
X12725285Y13271500D01*
X12653857Y13307215D01*
X12582428Y13307215D01*
X12368142Y12842929D02*
X12296714Y12807215D01*
X12153857Y12807215D01*
X12082428Y12842929D01*
X12046714Y12914358D01*
X12046714Y12950072D01*
X12082428Y13021500D01*
X12153857Y13057215D01*
X12261000Y13057215D01*
X12332428Y13092929D01*
X12368142Y13164358D01*
X12368142Y13200072D01*
X12332428Y13271500D01*
X12261000Y13307215D01*
X12153857Y13307215D01*
X12082428Y13271500D01*
X67318142Y6400072D02*
X67568142Y6400072D01*
X67568142Y6007215D02*
X67568142Y6757215D01*
X67211000Y6757215D01*
X66603857Y6007215D02*
X66603857Y6400072D01*
X66639571Y6471500D01*
X66711000Y6507215D01*
X66853857Y6507215D01*
X66925285Y6471500D01*
X66603857Y6042929D02*
X66675285Y6007215D01*
X66853857Y6007215D01*
X66925285Y6042929D01*
X66961000Y6114358D01*
X66961000Y6185786D01*
X66925285Y6257215D01*
X66853857Y6292929D01*
X66675285Y6292929D01*
X66603857Y6328643D01*
X66246714Y6507215D02*
X66246714Y6007215D01*
X66246714Y6435786D02*
X66211000Y6471500D01*
X66139571Y6507215D01*
X66032428Y6507215D01*
X65961000Y6471500D01*
X65925285Y6400072D01*
X65925285Y6007215D01*
X65068142Y6507215D02*
X64889571Y6007215D01*
X64711000Y6507215D01*
X64318142Y6007215D02*
X64389571Y6042929D01*
X64425285Y6078643D01*
X64461000Y6150072D01*
X64461000Y6364358D01*
X64425285Y6435786D01*
X64389571Y6471500D01*
X64318142Y6507215D01*
X64211000Y6507215D01*
X64139571Y6471500D01*
X64103857Y6435786D01*
X64068142Y6364358D01*
X64068142Y6150072D01*
X64103857Y6078643D01*
X64139571Y6042929D01*
X64211000Y6007215D01*
X64318142Y6007215D01*
X63639571Y6007215D02*
X63711000Y6042929D01*
X63746714Y6114358D01*
X63746714Y6757215D01*
X63461000Y6507215D02*
X63175285Y6507215D01*
X63353857Y6757215D02*
X63353857Y6114358D01*
X63318142Y6042929D01*
X63246714Y6007215D01*
X63175285Y6007215D01*
X62603857Y6007215D02*
X62603857Y6400072D01*
X62639571Y6471500D01*
X62711000Y6507215D01*
X62853857Y6507215D01*
X62925285Y6471500D01*
X62603857Y6042929D02*
X62675285Y6007215D01*
X62853857Y6007215D01*
X62925285Y6042929D01*
X62961000Y6114358D01*
X62961000Y6185786D01*
X62925285Y6257215D01*
X62853857Y6292929D01*
X62675285Y6292929D01*
X62603857Y6328643D01*
X61925285Y6507215D02*
X61925285Y5900072D01*
X61961000Y5828643D01*
X61996714Y5792929D01*
X62068142Y5757215D01*
X62175285Y5757215D01*
X62246714Y5792929D01*
X61925285Y6042929D02*
X61996714Y6007215D01*
X62139571Y6007215D01*
X62211000Y6042929D01*
X62246714Y6078643D01*
X62282428Y6150072D01*
X62282428Y6364358D01*
X62246714Y6435786D01*
X62211000Y6471500D01*
X62139571Y6507215D01*
X61996714Y6507215D01*
X61925285Y6471500D01*
X61282428Y6042929D02*
X61353857Y6007215D01*
X61496714Y6007215D01*
X61568142Y6042929D01*
X61603857Y6114358D01*
X61603857Y6400072D01*
X61568142Y6471500D01*
X61496714Y6507215D01*
X61353857Y6507215D01*
X61282428Y6471500D01*
X61246714Y6400072D01*
X61246714Y6328643D01*
X61603857Y6257215D01*
X60389571Y6042929D02*
X60318142Y6007215D01*
X60175285Y6007215D01*
X60103857Y6042929D01*
X60068142Y6114358D01*
X60068142Y6150072D01*
X60103857Y6221500D01*
X60175285Y6257215D01*
X60282428Y6257215D01*
X60353857Y6292929D01*
X60389571Y6364358D01*
X60389571Y6400072D01*
X60353857Y6471500D01*
X60282428Y6507215D01*
X60175285Y6507215D01*
X60103857Y6471500D01*
X59461000Y6042929D02*
X59532428Y6007215D01*
X59675285Y6007215D01*
X59746714Y6042929D01*
X59782428Y6114358D01*
X59782428Y6400072D01*
X59746714Y6471500D01*
X59675285Y6507215D01*
X59532428Y6507215D01*
X59461000Y6471500D01*
X59425285Y6400072D01*
X59425285Y6328643D01*
X59782428Y6257215D01*
X58996714Y6007215D02*
X59068142Y6042929D01*
X59103857Y6114358D01*
X59103857Y6757215D01*
X58425285Y6042929D02*
X58496714Y6007215D01*
X58639571Y6007215D01*
X58711000Y6042929D01*
X58746714Y6114358D01*
X58746714Y6400072D01*
X58711000Y6471500D01*
X58639571Y6507215D01*
X58496714Y6507215D01*
X58425285Y6471500D01*
X58389571Y6400072D01*
X58389571Y6328643D01*
X58746714Y6257215D01*
X57746714Y6042929D02*
X57818142Y6007215D01*
X57961000Y6007215D01*
X58032428Y6042929D01*
X58068142Y6078643D01*
X58103857Y6150072D01*
X58103857Y6364358D01*
X58068142Y6435786D01*
X58032428Y6471500D01*
X57961000Y6507215D01*
X57818142Y6507215D01*
X57746714Y6471500D01*
X57532428Y6507215D02*
X57246714Y6507215D01*
X57425285Y6757215D02*
X57425285Y6114358D01*
X57389571Y6042929D01*
X57318142Y6007215D01*
X57246714Y6007215D01*
X88964571Y6444715D02*
X88964571Y5694715D01*
X88964571Y6409000D02*
X88893142Y6444715D01*
X88750285Y6444715D01*
X88678857Y6409000D01*
X88643142Y6373286D01*
X88607428Y6301858D01*
X88607428Y6087572D01*
X88643142Y6016143D01*
X88678857Y5980429D01*
X88750285Y5944715D01*
X88893142Y5944715D01*
X88964571Y5980429D01*
X88178857Y5944715D02*
X88250285Y5980429D01*
X88286000Y6016143D01*
X88321714Y6087572D01*
X88321714Y6301858D01*
X88286000Y6373286D01*
X88250285Y6409000D01*
X88178857Y6444715D01*
X88071714Y6444715D01*
X88000285Y6409000D01*
X87964571Y6373286D01*
X87928857Y6301858D01*
X87928857Y6087572D01*
X87964571Y6016143D01*
X88000285Y5980429D01*
X88071714Y5944715D01*
X88178857Y5944715D01*
X87678857Y6444715D02*
X87536000Y5944715D01*
X87393142Y6301858D01*
X87250285Y5944715D01*
X87107428Y6444715D01*
X86536000Y5980429D02*
X86607428Y5944715D01*
X86750285Y5944715D01*
X86821714Y5980429D01*
X86857428Y6051858D01*
X86857428Y6337572D01*
X86821714Y6409000D01*
X86750285Y6444715D01*
X86607428Y6444715D01*
X86536000Y6409000D01*
X86500285Y6337572D01*
X86500285Y6266143D01*
X86857428Y6194715D01*
X86178857Y5944715D02*
X86178857Y6444715D01*
X86178857Y6301858D02*
X86143142Y6373286D01*
X86107428Y6409000D01*
X86036000Y6444715D01*
X85964571Y6444715D01*
X84821714Y5980429D02*
X84893142Y5944715D01*
X85036000Y5944715D01*
X85107428Y5980429D01*
X85143142Y6016143D01*
X85178857Y6087572D01*
X85178857Y6301858D01*
X85143142Y6373286D01*
X85107428Y6409000D01*
X85036000Y6444715D01*
X84893142Y6444715D01*
X84821714Y6409000D01*
X84393142Y5944715D02*
X84464571Y5980429D01*
X84500285Y6016143D01*
X84536000Y6087572D01*
X84536000Y6301858D01*
X84500285Y6373286D01*
X84464571Y6409000D01*
X84393142Y6444715D01*
X84286000Y6444715D01*
X84214571Y6409000D01*
X84178857Y6373286D01*
X84143142Y6301858D01*
X84143142Y6087572D01*
X84178857Y6016143D01*
X84214571Y5980429D01*
X84286000Y5944715D01*
X84393142Y5944715D01*
X83821714Y6444715D02*
X83821714Y5944715D01*
X83821714Y6373286D02*
X83786000Y6409000D01*
X83714571Y6444715D01*
X83607428Y6444715D01*
X83536000Y6409000D01*
X83500285Y6337572D01*
X83500285Y5944715D01*
X83143142Y6444715D02*
X83143142Y5944715D01*
X83143142Y6373286D02*
X83107428Y6409000D01*
X83036000Y6444715D01*
X82928857Y6444715D01*
X82857428Y6409000D01*
X82821714Y6337572D01*
X82821714Y5944715D01*
X82178857Y5980429D02*
X82250285Y5944715D01*
X82393142Y5944715D01*
X82464571Y5980429D01*
X82500285Y6051858D01*
X82500285Y6337572D01*
X82464571Y6409000D01*
X82393142Y6444715D01*
X82250285Y6444715D01*
X82178857Y6409000D01*
X82143142Y6337572D01*
X82143142Y6266143D01*
X82500285Y6194715D01*
X81500285Y5980429D02*
X81571714Y5944715D01*
X81714571Y5944715D01*
X81786000Y5980429D01*
X81821714Y6016143D01*
X81857428Y6087572D01*
X81857428Y6301858D01*
X81821714Y6373286D01*
X81786000Y6409000D01*
X81714571Y6444715D01*
X81571714Y6444715D01*
X81500285Y6409000D01*
X81286000Y6444715D02*
X81000285Y6444715D01*
X81178857Y6694715D02*
X81178857Y6051858D01*
X81143142Y5980429D01*
X81071714Y5944715D01*
X81000285Y5944715D01*
X80643142Y5944715D02*
X80714571Y5980429D01*
X80750285Y6016143D01*
X80786000Y6087572D01*
X80786000Y6301858D01*
X80750285Y6373286D01*
X80714571Y6409000D01*
X80643142Y6444715D01*
X80536000Y6444715D01*
X80464571Y6409000D01*
X80428857Y6373286D01*
X80393142Y6301858D01*
X80393142Y6087572D01*
X80428857Y6016143D01*
X80464571Y5980429D01*
X80536000Y5944715D01*
X80643142Y5944715D01*
X80071714Y5944715D02*
X80071714Y6444715D01*
X80071714Y6301858D02*
X80036000Y6373286D01*
X80000285Y6409000D01*
X79928857Y6444715D01*
X79857428Y6444715D01*
X79643142Y5980429D02*
X79571714Y5944715D01*
X79428857Y5944715D01*
X79357428Y5980429D01*
X79321714Y6051858D01*
X79321714Y6087572D01*
X79357428Y6159000D01*
X79428857Y6194715D01*
X79536000Y6194715D01*
X79607428Y6230429D01*
X79643142Y6301858D01*
X79643142Y6337572D01*
X79607428Y6409000D01*
X79536000Y6444715D01*
X79428857Y6444715D01*
X79357428Y6409000D01*
X87446714Y5169715D02*
X87161000Y5169715D01*
X87339571Y4669715D02*
X87339571Y5312572D01*
X87303857Y5384000D01*
X87232428Y5419715D01*
X87161000Y5419715D01*
X86589571Y4669715D02*
X86589571Y5062572D01*
X86625285Y5134000D01*
X86696714Y5169715D01*
X86839571Y5169715D01*
X86911000Y5134000D01*
X86589571Y4705429D02*
X86661000Y4669715D01*
X86839571Y4669715D01*
X86911000Y4705429D01*
X86946714Y4776858D01*
X86946714Y4848286D01*
X86911000Y4919715D01*
X86839571Y4955429D01*
X86661000Y4955429D01*
X86589571Y4991143D01*
X86232428Y5169715D02*
X86232428Y4669715D01*
X86232428Y5098286D02*
X86196714Y5134000D01*
X86125285Y5169715D01*
X86018142Y5169715D01*
X85946714Y5134000D01*
X85911000Y5062572D01*
X85911000Y4669715D01*
X84875285Y4669715D02*
X84946714Y4705429D01*
X84982428Y4741143D01*
X85018142Y4812572D01*
X85018142Y5026858D01*
X84982428Y5098286D01*
X84946714Y5134000D01*
X84875285Y5169715D01*
X84768142Y5169715D01*
X84696714Y5134000D01*
X84661000Y5098286D01*
X84625285Y5026858D01*
X84625285Y4812572D01*
X84661000Y4741143D01*
X84696714Y4705429D01*
X84768142Y4669715D01*
X84875285Y4669715D01*
X84303857Y4669715D02*
X84303857Y5169715D01*
X84303857Y5026858D02*
X84268142Y5098286D01*
X84232428Y5134000D01*
X84161000Y5169715D01*
X84089571Y5169715D01*
X82911000Y4669715D02*
X83268142Y4669715D01*
X83268142Y5419715D01*
X82661000Y5062572D02*
X82411000Y5062572D01*
X82303857Y4669715D02*
X82661000Y4669715D01*
X82661000Y5419715D01*
X82303857Y5419715D01*
X81982428Y4669715D02*
X81982428Y5419715D01*
X81803857Y5419715D01*
X81696714Y5384000D01*
X81625285Y5312572D01*
X81589571Y5241143D01*
X81553857Y5098286D01*
X81553857Y4991143D01*
X81589571Y4848286D01*
X81625285Y4776858D01*
X81696714Y4705429D01*
X81803857Y4669715D01*
X81982428Y4669715D01*
X81268142Y4705429D02*
X81196714Y4669715D01*
X81053857Y4669715D01*
X80982428Y4705429D01*
X80946714Y4776858D01*
X80946714Y4812572D01*
X80982428Y4884000D01*
X81053857Y4919715D01*
X81161000Y4919715D01*
X81232428Y4955429D01*
X81268142Y5026858D01*
X81268142Y5062572D01*
X81232428Y5134000D01*
X81161000Y5169715D01*
X81053857Y5169715D01*
X80982428Y5134000D01*
X91850285Y17789358D02*
X92600285Y17289358D01*
X91850285Y17289358D02*
X92600285Y17789358D01*
X92386000Y16467929D02*
X92386000Y16110786D01*
X92600285Y16539358D02*
X91850285Y16289358D01*
X92600285Y16039358D01*
X92564571Y15825072D02*
X92600285Y15753643D01*
X92600285Y15610786D01*
X92564571Y15539358D01*
X92493142Y15503643D01*
X92457428Y15503643D01*
X92386000Y15539358D01*
X92350285Y15610786D01*
X92350285Y15717929D01*
X92314571Y15789358D01*
X92243142Y15825072D01*
X92207428Y15825072D01*
X92136000Y15789358D01*
X92100285Y15717929D01*
X92100285Y15610786D01*
X92136000Y15539358D01*
X92600285Y15182215D02*
X92100285Y15182215D01*
X91850285Y15182215D02*
X91886000Y15217929D01*
X91921714Y15182215D01*
X91886000Y15146500D01*
X91850285Y15182215D01*
X91921714Y15182215D01*
X92600285Y14896500D02*
X92100285Y14503643D01*
X92100285Y14896500D02*
X92600285Y14503643D01*
X92443142Y38439358D02*
X92800285Y38439358D01*
X92050285Y38689358D02*
X92443142Y38439358D01*
X92050285Y38189358D01*
X92586000Y37403643D02*
X92586000Y37046500D01*
X92800285Y37475072D02*
X92050285Y37225072D01*
X92800285Y36975072D01*
X92800285Y36796500D02*
X92300285Y36403643D01*
X92300285Y36796500D02*
X92800285Y36403643D01*
X92800285Y36117929D02*
X92300285Y36117929D01*
X92050285Y36117929D02*
X92086000Y36153643D01*
X92121714Y36117929D01*
X92086000Y36082215D01*
X92050285Y36117929D01*
X92121714Y36117929D01*
X92764571Y35796500D02*
X92800285Y35725072D01*
X92800285Y35582215D01*
X92764571Y35510786D01*
X92693142Y35475072D01*
X92657428Y35475072D01*
X92586000Y35510786D01*
X92550285Y35582215D01*
X92550285Y35689358D01*
X92514571Y35760786D01*
X92443142Y35796500D01*
X92407428Y35796500D01*
X92336000Y35760786D01*
X92300285Y35689358D01*
X92300285Y35582215D01*
X92336000Y35510786D01*
X92607428Y61532215D02*
X92607428Y61282215D01*
X93000285Y61175072D02*
X93000285Y61532215D01*
X92250285Y61532215D01*
X92250285Y61175072D01*
X93000285Y60925072D02*
X92500285Y60532215D01*
X92500285Y60925072D02*
X93000285Y60532215D01*
X92500285Y60353643D02*
X92500285Y60067929D01*
X92250285Y60246500D02*
X92893142Y60246500D01*
X92964571Y60210786D01*
X93000285Y60139358D01*
X93000285Y60067929D01*
X93000285Y59817929D02*
X92500285Y59817929D01*
X92643142Y59817929D02*
X92571714Y59782215D01*
X92536000Y59746500D01*
X92500285Y59675072D01*
X92500285Y59603643D01*
X92500285Y59032215D02*
X93000285Y59032215D01*
X92500285Y59353643D02*
X92893142Y59353643D01*
X92964571Y59317929D01*
X93000285Y59246500D01*
X93000285Y59139358D01*
X92964571Y59067929D01*
X92928857Y59032215D01*
X93000285Y58353643D02*
X92250285Y58353643D01*
X92964571Y58353643D02*
X93000285Y58425072D01*
X93000285Y58567929D01*
X92964571Y58639358D01*
X92928857Y58675072D01*
X92857428Y58710786D01*
X92643142Y58710786D01*
X92571714Y58675072D01*
X92536000Y58639358D01*
X92500285Y58567929D01*
X92500285Y58425072D01*
X92536000Y58353643D01*
X92964571Y57710786D02*
X93000285Y57782215D01*
X93000285Y57925072D01*
X92964571Y57996500D01*
X92893142Y58032215D01*
X92607428Y58032215D01*
X92536000Y57996500D01*
X92500285Y57925072D01*
X92500285Y57782215D01*
X92536000Y57710786D01*
X92607428Y57675072D01*
X92678857Y57675072D01*
X92750285Y58032215D01*
X93000285Y57353643D02*
X92500285Y57353643D01*
X92643142Y57353643D02*
X92571714Y57317929D01*
X92536000Y57282215D01*
X92500285Y57210786D01*
X92500285Y57139358D01*
X93000285Y55925072D02*
X93000285Y56353643D01*
X93000285Y56139358D02*
X92250285Y56139358D01*
X92357428Y56210786D01*
X92428857Y56282215D01*
X92464571Y56353643D01*
X92307428Y83632215D02*
X92307428Y83382215D01*
X92700285Y83275072D02*
X92700285Y83632215D01*
X91950285Y83632215D01*
X91950285Y83275072D01*
X92700285Y83025072D02*
X92200285Y82632215D01*
X92200285Y83025072D02*
X92700285Y82632215D01*
X92200285Y82453643D02*
X92200285Y82167929D01*
X91950285Y82346500D02*
X92593142Y82346500D01*
X92664571Y82310786D01*
X92700285Y82239358D01*
X92700285Y82167929D01*
X92700285Y81917929D02*
X92200285Y81917929D01*
X92343142Y81917929D02*
X92271714Y81882215D01*
X92236000Y81846500D01*
X92200285Y81775072D01*
X92200285Y81703643D01*
X92200285Y81132215D02*
X92700285Y81132215D01*
X92200285Y81453643D02*
X92593142Y81453643D01*
X92664571Y81417929D01*
X92700285Y81346500D01*
X92700285Y81239358D01*
X92664571Y81167929D01*
X92628857Y81132215D01*
X92700285Y80453643D02*
X91950285Y80453643D01*
X92664571Y80453643D02*
X92700285Y80525072D01*
X92700285Y80667929D01*
X92664571Y80739358D01*
X92628857Y80775072D01*
X92557428Y80810786D01*
X92343142Y80810786D01*
X92271714Y80775072D01*
X92236000Y80739358D01*
X92200285Y80667929D01*
X92200285Y80525072D01*
X92236000Y80453643D01*
X92664571Y79810786D02*
X92700285Y79882215D01*
X92700285Y80025072D01*
X92664571Y80096500D01*
X92593142Y80132215D01*
X92307428Y80132215D01*
X92236000Y80096500D01*
X92200285Y80025072D01*
X92200285Y79882215D01*
X92236000Y79810786D01*
X92307428Y79775072D01*
X92378857Y79775072D01*
X92450285Y80132215D01*
X92700285Y79453643D02*
X92200285Y79453643D01*
X92343142Y79453643D02*
X92271714Y79417929D01*
X92236000Y79382215D01*
X92200285Y79310786D01*
X92200285Y79239358D01*
X92021714Y78453643D02*
X91986000Y78417929D01*
X91950285Y78346500D01*
X91950285Y78167929D01*
X91986000Y78096500D01*
X92021714Y78060786D01*
X92093142Y78025072D01*
X92164571Y78025072D01*
X92271714Y78060786D01*
X92700285Y78489358D01*
X92700285Y78025072D01*
X59203857Y89857215D02*
X58703857Y89857215D01*
X59203857Y89107215D01*
X58703857Y89107215D01*
X57882428Y89321500D02*
X57525285Y89321500D01*
X57953857Y89107215D02*
X57703857Y89857215D01*
X57453857Y89107215D01*
X57275285Y89107215D02*
X56882428Y89607215D01*
X57275285Y89607215D02*
X56882428Y89107215D01*
X56596714Y89107215D02*
X56596714Y89607215D01*
X56596714Y89857215D02*
X56632428Y89821500D01*
X56596714Y89785786D01*
X56561000Y89821500D01*
X56596714Y89857215D01*
X56596714Y89785786D01*
X56275285Y89142929D02*
X56203857Y89107215D01*
X56061000Y89107215D01*
X55989571Y89142929D01*
X55953857Y89214358D01*
X55953857Y89250072D01*
X55989571Y89321500D01*
X56061000Y89357215D01*
X56168142Y89357215D01*
X56239571Y89392929D01*
X56275285Y89464358D01*
X56275285Y89500072D01*
X56239571Y89571500D01*
X56168142Y89607215D01*
X56061000Y89607215D01*
X55989571Y89571500D01*
X2007428Y80353643D02*
X2007428Y80925072D01*
X1721714Y80639358D02*
X2293142Y80639358D01*
X2007428Y83567929D02*
X2007428Y84139358D01*
X7012785Y81989358D02*
X7012785Y82346500D01*
X7369928Y82382215D01*
X7334214Y82346500D01*
X7298500Y82275072D01*
X7298500Y82096500D01*
X7334214Y82025072D01*
X7369928Y81989358D01*
X7441357Y81953643D01*
X7619928Y81953643D01*
X7691357Y81989358D01*
X7727071Y82025072D01*
X7762785Y82096500D01*
X7762785Y82275072D01*
X7727071Y82346500D01*
X7691357Y82382215D01*
X7012785Y81739358D02*
X7762785Y81489358D01*
X7012785Y81239358D01*
X9037785Y83078643D02*
X8287785Y83078643D01*
X8537785Y82721500D02*
X9037785Y82721500D01*
X8609214Y82721500D02*
X8573500Y82685786D01*
X8537785Y82614358D01*
X8537785Y82507215D01*
X8573500Y82435786D01*
X8644928Y82400072D01*
X9037785Y82400072D01*
X8537785Y82042929D02*
X9287785Y82042929D01*
X8573500Y82042929D02*
X8537785Y81971500D01*
X8537785Y81828643D01*
X8573500Y81757215D01*
X8609214Y81721500D01*
X8680642Y81685786D01*
X8894928Y81685786D01*
X8966357Y81721500D01*
X9002071Y81757215D01*
X9037785Y81828643D01*
X9037785Y81971500D01*
X9002071Y82042929D01*
X8537785Y81042929D02*
X9037785Y81042929D01*
X8537785Y81364358D02*
X8930642Y81364358D01*
X9002071Y81328643D01*
X9037785Y81257215D01*
X9037785Y81150072D01*
X9002071Y81078643D01*
X8966357Y81042929D01*
X8537785Y80792929D02*
X8537785Y80507215D01*
X8287785Y80685786D02*
X8930642Y80685786D01*
X9002071Y80650072D01*
X9037785Y80578643D01*
X9037785Y80507215D01*
X39968142Y97700072D02*
X40539571Y97700072D01*
X40253857Y97985786D02*
X40253857Y97414358D01*
X43182428Y97700072D02*
X43753857Y97700072D01*
X31868142Y97700072D02*
X32439571Y97700072D01*
X32153857Y97985786D02*
X32153857Y97414358D01*
X35082428Y97700072D02*
X35653857Y97700072D01*
X21025285Y96200072D02*
X21596714Y96200072D01*
X21311000Y96485786D02*
X21311000Y95914358D01*
X26525285Y96200072D02*
X27096714Y96200072D01*
X15496714Y96292929D02*
X14925285Y96292929D01*
X15211000Y96007215D02*
X15211000Y96578643D01*
X9996714Y96292929D02*
X9425285Y96292929D01*
X42478857Y92037572D02*
X42228857Y92037572D01*
X42121714Y91644715D02*
X42478857Y91644715D01*
X42478857Y92394715D01*
X42121714Y92394715D01*
X41836000Y92323286D02*
X41800285Y92359000D01*
X41728857Y92394715D01*
X41550285Y92394715D01*
X41478857Y92359000D01*
X41443142Y92323286D01*
X41407428Y92251858D01*
X41407428Y92180429D01*
X41443142Y92073286D01*
X41871714Y91644715D01*
X41407428Y91644715D01*
X43603857Y90369715D02*
X43603857Y91119715D01*
X43603857Y90762572D02*
X43175285Y90762572D01*
X43175285Y90369715D02*
X43175285Y91119715D01*
X42532428Y90405429D02*
X42603857Y90369715D01*
X42746714Y90369715D01*
X42818142Y90405429D01*
X42853857Y90476858D01*
X42853857Y90762572D01*
X42818142Y90834000D01*
X42746714Y90869715D01*
X42603857Y90869715D01*
X42532428Y90834000D01*
X42496714Y90762572D01*
X42496714Y90691143D01*
X42853857Y90619715D01*
X41853857Y90369715D02*
X41853857Y90762572D01*
X41889571Y90834000D01*
X41961000Y90869715D01*
X42103857Y90869715D01*
X42175285Y90834000D01*
X41853857Y90405429D02*
X41925285Y90369715D01*
X42103857Y90369715D01*
X42175285Y90405429D01*
X42211000Y90476858D01*
X42211000Y90548286D01*
X42175285Y90619715D01*
X42103857Y90655429D01*
X41925285Y90655429D01*
X41853857Y90691143D01*
X41603857Y90869715D02*
X41318142Y90869715D01*
X41496714Y91119715D02*
X41496714Y90476858D01*
X41461000Y90405429D01*
X41389571Y90369715D01*
X41318142Y90369715D01*
X40782428Y90405429D02*
X40853857Y90369715D01*
X40996714Y90369715D01*
X41068142Y90405429D01*
X41103857Y90476858D01*
X41103857Y90762572D01*
X41068142Y90834000D01*
X40996714Y90869715D01*
X40853857Y90869715D01*
X40782428Y90834000D01*
X40746714Y90762572D01*
X40746714Y90691143D01*
X41103857Y90619715D01*
X40425285Y90369715D02*
X40425285Y90869715D01*
X40425285Y90726858D02*
X40389571Y90798286D01*
X40353857Y90834000D01*
X40282428Y90869715D01*
X40211000Y90869715D01*
X34478857Y92037572D02*
X34228857Y92037572D01*
X34121714Y91644715D02*
X34478857Y91644715D01*
X34478857Y92394715D01*
X34121714Y92394715D01*
X33407428Y91644715D02*
X33836000Y91644715D01*
X33621714Y91644715D02*
X33621714Y92394715D01*
X33693142Y92287572D01*
X33764571Y92216143D01*
X33836000Y92180429D01*
X35603857Y90369715D02*
X35603857Y91119715D01*
X35603857Y90762572D02*
X35175285Y90762572D01*
X35175285Y90369715D02*
X35175285Y91119715D01*
X34532428Y90405429D02*
X34603857Y90369715D01*
X34746714Y90369715D01*
X34818142Y90405429D01*
X34853857Y90476858D01*
X34853857Y90762572D01*
X34818142Y90834000D01*
X34746714Y90869715D01*
X34603857Y90869715D01*
X34532428Y90834000D01*
X34496714Y90762572D01*
X34496714Y90691143D01*
X34853857Y90619715D01*
X33853857Y90369715D02*
X33853857Y90762572D01*
X33889571Y90834000D01*
X33961000Y90869715D01*
X34103857Y90869715D01*
X34175285Y90834000D01*
X33853857Y90405429D02*
X33925285Y90369715D01*
X34103857Y90369715D01*
X34175285Y90405429D01*
X34211000Y90476858D01*
X34211000Y90548286D01*
X34175285Y90619715D01*
X34103857Y90655429D01*
X33925285Y90655429D01*
X33853857Y90691143D01*
X33603857Y90869715D02*
X33318142Y90869715D01*
X33496714Y91119715D02*
X33496714Y90476858D01*
X33461000Y90405429D01*
X33389571Y90369715D01*
X33318142Y90369715D01*
X32782428Y90405429D02*
X32853857Y90369715D01*
X32996714Y90369715D01*
X33068142Y90405429D01*
X33103857Y90476858D01*
X33103857Y90762572D01*
X33068142Y90834000D01*
X32996714Y90869715D01*
X32853857Y90869715D01*
X32782428Y90834000D01*
X32746714Y90762572D01*
X32746714Y90691143D01*
X33103857Y90619715D01*
X32425285Y90369715D02*
X32425285Y90869715D01*
X32425285Y90726858D02*
X32389571Y90798286D01*
X32353857Y90834000D01*
X32282428Y90869715D01*
X32211000Y90869715D01*
X24721714Y89737572D02*
X24614571Y89701858D01*
X24578857Y89666143D01*
X24543142Y89594715D01*
X24543142Y89487572D01*
X24578857Y89416143D01*
X24614571Y89380429D01*
X24686000Y89344715D01*
X24971714Y89344715D01*
X24971714Y90094715D01*
X24721714Y90094715D01*
X24650285Y90059000D01*
X24614571Y90023286D01*
X24578857Y89951858D01*
X24578857Y89880429D01*
X24614571Y89809000D01*
X24650285Y89773286D01*
X24721714Y89737572D01*
X24971714Y89737572D01*
X24221714Y89737572D02*
X23971714Y89737572D01*
X23864571Y89344715D02*
X24221714Y89344715D01*
X24221714Y90094715D01*
X23864571Y90094715D01*
X23543142Y89344715D02*
X23543142Y90094715D01*
X23364571Y90094715D01*
X23257428Y90059000D01*
X23186000Y89987572D01*
X23150285Y89916143D01*
X23114571Y89773286D01*
X23114571Y89666143D01*
X23150285Y89523286D01*
X23186000Y89451858D01*
X23257428Y89380429D01*
X23364571Y89344715D01*
X23543142Y89344715D01*
X25703857Y88069715D02*
X25703857Y88819715D01*
X25703857Y88462572D02*
X25275285Y88462572D01*
X25275285Y88069715D02*
X25275285Y88819715D01*
X24632428Y88105429D02*
X24703857Y88069715D01*
X24846714Y88069715D01*
X24918142Y88105429D01*
X24953857Y88176858D01*
X24953857Y88462572D01*
X24918142Y88534000D01*
X24846714Y88569715D01*
X24703857Y88569715D01*
X24632428Y88534000D01*
X24596714Y88462572D01*
X24596714Y88391143D01*
X24953857Y88319715D01*
X23953857Y88069715D02*
X23953857Y88462572D01*
X23989571Y88534000D01*
X24061000Y88569715D01*
X24203857Y88569715D01*
X24275285Y88534000D01*
X23953857Y88105429D02*
X24025285Y88069715D01*
X24203857Y88069715D01*
X24275285Y88105429D01*
X24311000Y88176858D01*
X24311000Y88248286D01*
X24275285Y88319715D01*
X24203857Y88355429D01*
X24025285Y88355429D01*
X23953857Y88391143D01*
X23703857Y88569715D02*
X23418142Y88569715D01*
X23596714Y88819715D02*
X23596714Y88176858D01*
X23561000Y88105429D01*
X23489571Y88069715D01*
X23418142Y88069715D01*
X22882428Y88105429D02*
X22953857Y88069715D01*
X23096714Y88069715D01*
X23168142Y88105429D01*
X23203857Y88176858D01*
X23203857Y88462572D01*
X23168142Y88534000D01*
X23096714Y88569715D01*
X22953857Y88569715D01*
X22882428Y88534000D01*
X22846714Y88462572D01*
X22846714Y88391143D01*
X23203857Y88319715D01*
X22525285Y88069715D02*
X22525285Y88569715D01*
X22525285Y88426858D02*
X22489571Y88498286D01*
X22453857Y88534000D01*
X22382428Y88569715D01*
X22311000Y88569715D01*
X14178857Y89682215D02*
X14178857Y90432215D01*
X13821714Y90182215D02*
X13821714Y89682215D01*
X13821714Y90110786D02*
X13786000Y90146500D01*
X13714571Y90182215D01*
X13607428Y90182215D01*
X13536000Y90146500D01*
X13500285Y90075072D01*
X13500285Y89682215D01*
X13143142Y90182215D02*
X13143142Y89432215D01*
X13143142Y90146500D02*
X13071714Y90182215D01*
X12928857Y90182215D01*
X12857428Y90146500D01*
X12821714Y90110786D01*
X12786000Y90039358D01*
X12786000Y89825072D01*
X12821714Y89753643D01*
X12857428Y89717929D01*
X12928857Y89682215D01*
X13071714Y89682215D01*
X13143142Y89717929D01*
X12143142Y90182215D02*
X12143142Y89682215D01*
X12464571Y90182215D02*
X12464571Y89789358D01*
X12428857Y89717929D01*
X12357428Y89682215D01*
X12250285Y89682215D01*
X12178857Y89717929D01*
X12143142Y89753643D01*
X11893142Y90182215D02*
X11607428Y90182215D01*
X11786000Y90432215D02*
X11786000Y89789358D01*
X11750285Y89717929D01*
X11678857Y89682215D01*
X11607428Y89682215D01*
X14661000Y89157215D02*
X14411000Y88407215D01*
X14161000Y89157215D01*
X13803857Y88407215D02*
X13875285Y88442929D01*
X13911000Y88478643D01*
X13946714Y88550072D01*
X13946714Y88764358D01*
X13911000Y88835786D01*
X13875285Y88871500D01*
X13803857Y88907215D01*
X13696714Y88907215D01*
X13625285Y88871500D01*
X13589571Y88835786D01*
X13553857Y88764358D01*
X13553857Y88550072D01*
X13589571Y88478643D01*
X13625285Y88442929D01*
X13696714Y88407215D01*
X13803857Y88407215D01*
X13125285Y88407215D02*
X13196714Y88442929D01*
X13232428Y88514358D01*
X13232428Y89157215D01*
X12946714Y88907215D02*
X12661000Y88907215D01*
X12839571Y89157215D02*
X12839571Y88514358D01*
X12803857Y88442929D01*
X12732428Y88407215D01*
X12661000Y88407215D01*
X12089571Y88407215D02*
X12089571Y88800072D01*
X12125285Y88871500D01*
X12196714Y88907215D01*
X12339571Y88907215D01*
X12411000Y88871500D01*
X12089571Y88442929D02*
X12161000Y88407215D01*
X12339571Y88407215D01*
X12411000Y88442929D01*
X12446714Y88514358D01*
X12446714Y88585786D01*
X12411000Y88657215D01*
X12339571Y88692929D01*
X12161000Y88692929D01*
X12089571Y88728643D01*
X11411000Y88907215D02*
X11411000Y88300072D01*
X11446714Y88228643D01*
X11482428Y88192929D01*
X11553857Y88157215D01*
X11661000Y88157215D01*
X11732428Y88192929D01*
X11411000Y88442929D02*
X11482428Y88407215D01*
X11625285Y88407215D01*
X11696714Y88442929D01*
X11732428Y88478643D01*
X11768142Y88550072D01*
X11768142Y88764358D01*
X11732428Y88835786D01*
X11696714Y88871500D01*
X11625285Y88907215D01*
X11482428Y88907215D01*
X11411000Y88871500D01*
X10768142Y88442929D02*
X10839571Y88407215D01*
X10982428Y88407215D01*
X11053857Y88442929D01*
X11089571Y88514358D01*
X11089571Y88800072D01*
X11053857Y88871500D01*
X10982428Y88907215D01*
X10839571Y88907215D01*
X10768142Y88871500D01*
X10732428Y88800072D01*
X10732428Y88728643D01*
X11089571Y88657215D01*
X14303857Y87132215D02*
X14732428Y87132215D01*
X14518142Y87132215D02*
X14518142Y87882215D01*
X14589571Y87775072D01*
X14661000Y87703643D01*
X14732428Y87667929D01*
X14018142Y87810786D02*
X13982428Y87846500D01*
X13911000Y87882215D01*
X13732428Y87882215D01*
X13661000Y87846500D01*
X13625285Y87810786D01*
X13589571Y87739358D01*
X13589571Y87667929D01*
X13625285Y87560786D01*
X14053857Y87132215D01*
X13589571Y87132215D01*
X13268142Y87417929D02*
X12696714Y87417929D01*
X12375285Y87810786D02*
X12339571Y87846500D01*
X12268142Y87882215D01*
X12089571Y87882215D01*
X12018142Y87846500D01*
X11982428Y87810786D01*
X11946714Y87739358D01*
X11946714Y87667929D01*
X11982428Y87560786D01*
X12411000Y87132215D01*
X11946714Y87132215D01*
X11303857Y87632215D02*
X11303857Y87132215D01*
X11482428Y87917929D02*
X11661000Y87382215D01*
X11196714Y87382215D01*
X11018142Y87882215D02*
X10768142Y87132215D01*
X10518142Y87882215D01*
D11*
X6718142Y69894120D02*
X6718142Y70560786D01*
X6718142Y70370310D02*
X6670523Y70465548D01*
X6622904Y70513167D01*
X6527666Y70560786D01*
X6432428Y70560786D01*
X5718142Y69941739D02*
X5813380Y69894120D01*
X6003857Y69894120D01*
X6099095Y69941739D01*
X6146714Y70036977D01*
X6146714Y70417929D01*
X6099095Y70513167D01*
X6003857Y70560786D01*
X5813380Y70560786D01*
X5718142Y70513167D01*
X5670523Y70417929D01*
X5670523Y70322691D01*
X6146714Y70227453D01*
X5337190Y70560786D02*
X5099095Y69894120D01*
X4861000Y70560786D01*
X4575285Y70894120D02*
X3956238Y70894120D01*
X4289571Y70513167D01*
X4146714Y70513167D01*
X4051476Y70465548D01*
X4003857Y70417929D01*
X3956238Y70322691D01*
X3956238Y70084596D01*
X4003857Y69989358D01*
X4051476Y69941739D01*
X4146714Y69894120D01*
X4432428Y69894120D01*
X4527666Y69941739D01*
X4575285Y69989358D01*
D12*
X26589571Y63446500D02*
X26661000Y63517929D01*
X26803857Y63732215D01*
X26875285Y63875072D01*
X26946714Y64089358D01*
X27018142Y64446500D01*
X27018142Y64732215D01*
X26946714Y65089358D01*
X26875285Y65303643D01*
X26803857Y65446500D01*
X26661000Y65660786D01*
X26589571Y65732215D01*
X25375285Y64089358D02*
X25518142Y64017929D01*
X25803857Y64017929D01*
X25946714Y64089358D01*
X26018142Y64160786D01*
X26089571Y64303643D01*
X26089571Y64732215D01*
X26018142Y64875072D01*
X25946714Y64946500D01*
X25803857Y65017929D01*
X25518142Y65017929D01*
X25375285Y64946500D01*
X24875285Y63446500D02*
X24803857Y63517929D01*
X24661000Y63732215D01*
X24589571Y63875072D01*
X24518142Y64089358D01*
X24446714Y64446500D01*
X24446714Y64732215D01*
X24518142Y65089358D01*
X24589571Y65303643D01*
X24661000Y65446500D01*
X24803857Y65660786D01*
X24875285Y65732215D01*
X22589571Y64017929D02*
X22589571Y65017929D01*
X22589571Y65517929D02*
X22661000Y65446500D01*
X22589571Y65375072D01*
X22518142Y65446500D01*
X22589571Y65517929D01*
X22589571Y65375072D01*
X20875285Y63875072D02*
X21018142Y63946500D01*
X21161000Y64089358D01*
X21375285Y64303643D01*
X21518142Y64375072D01*
X21661000Y64375072D01*
X21589571Y64017929D02*
X21732428Y64089358D01*
X21875285Y64232215D01*
X21946714Y64517929D01*
X21946714Y65017929D01*
X21875285Y65303643D01*
X21732428Y65446500D01*
X21589571Y65517929D01*
X21303857Y65517929D01*
X21161000Y65446500D01*
X21018142Y65303643D01*
X20946714Y65017929D01*
X20946714Y64517929D01*
X21018142Y64232215D01*
X21161000Y64089358D01*
X21303857Y64017929D01*
X21589571Y64017929D01*
X19661000Y65017929D02*
X19661000Y64017929D01*
X20303857Y65017929D02*
X20303857Y64232215D01*
X20232428Y64089358D01*
X20089571Y64017929D01*
X19875285Y64017929D01*
X19732428Y64089358D01*
X19661000Y64160786D01*
X18946714Y64017929D02*
X18946714Y65017929D01*
X18946714Y64732215D02*
X18875285Y64875072D01*
X18803857Y64946500D01*
X18661000Y65017929D01*
X18518142Y65017929D01*
X18161000Y65017929D02*
X17803857Y64017929D01*
X17446714Y65017929D02*
X17803857Y64017929D01*
X17946714Y63660786D01*
X18018142Y63589358D01*
X18161000Y63517929D01*
X16875285Y64160786D02*
X16803857Y64089358D01*
X16875285Y64017929D01*
X16946714Y64089358D01*
X16875285Y64160786D01*
X16875285Y64017929D01*
X15518142Y65017929D02*
X15518142Y64017929D01*
X16161000Y65017929D02*
X16161000Y64232215D01*
X16089571Y64089358D01*
X15946714Y64017929D01*
X15732428Y64017929D01*
X15589571Y64089358D01*
X15518142Y64160786D01*
X14875285Y64089358D02*
X14732428Y64017929D01*
X14446714Y64017929D01*
X14303857Y64089358D01*
X14232428Y64232215D01*
X14232428Y64303643D01*
X14303857Y64446500D01*
X14446714Y64517929D01*
X14661000Y64517929D01*
X14803857Y64589358D01*
X14875285Y64732215D01*
X14875285Y64803643D01*
X14803857Y64946500D01*
X14661000Y65017929D01*
X14446714Y65017929D01*
X14303857Y64946500D01*
X25232428Y63017929D02*
X25232428Y61946500D01*
X25303857Y61732215D01*
X25446714Y61589358D01*
X25661000Y61517929D01*
X25803857Y61517929D01*
X23875285Y61517929D02*
X23875285Y62303643D01*
X23946714Y62446500D01*
X24089571Y62517929D01*
X24375285Y62517929D01*
X24518142Y62446500D01*
X23875285Y61589358D02*
X24018142Y61517929D01*
X24375285Y61517929D01*
X24518142Y61589358D01*
X24589571Y61732215D01*
X24589571Y61875072D01*
X24518142Y62017929D01*
X24375285Y62089358D01*
X24018142Y62089358D01*
X23875285Y62160786D01*
X23161000Y62517929D02*
X23161000Y61517929D01*
X23161000Y62375072D02*
X23089571Y62446500D01*
X22946714Y62517929D01*
X22732428Y62517929D01*
X22589571Y62446500D01*
X22518142Y62303643D01*
X22518142Y61517929D01*
X20732428Y62875072D02*
X20661000Y62946500D01*
X20518142Y63017929D01*
X20161000Y63017929D01*
X20018142Y62946500D01*
X19946714Y62875072D01*
X19875285Y62732215D01*
X19875285Y62589358D01*
X19946714Y62375072D01*
X20803857Y61517929D01*
X19875285Y61517929D01*
X18946714Y63017929D02*
X18803857Y63017929D01*
X18661000Y62946500D01*
X18589571Y62875072D01*
X18518142Y62732215D01*
X18446714Y62446500D01*
X18446714Y62089358D01*
X18518142Y61803643D01*
X18589571Y61660786D01*
X18661000Y61589358D01*
X18803857Y61517929D01*
X18946714Y61517929D01*
X19089571Y61589358D01*
X19161000Y61660786D01*
X19232428Y61803643D01*
X19303857Y62089358D01*
X19303857Y62446500D01*
X19232428Y62732215D01*
X19161000Y62875072D01*
X19089571Y62946500D01*
X18946714Y63017929D01*
X17018142Y61517929D02*
X17875285Y61517929D01*
X17446714Y61517929D02*
X17446714Y63017929D01*
X17589571Y62803643D01*
X17732428Y62660786D01*
X17875285Y62589358D01*
X16303857Y61517929D02*
X16018142Y61517929D01*
X15875285Y61589358D01*
X15803857Y61660786D01*
X15661000Y61875072D01*
X15589571Y62160786D01*
X15589571Y62732215D01*
X15661000Y62875072D01*
X15732428Y62946500D01*
X15875285Y63017929D01*
X16161000Y63017929D01*
X16303857Y62946500D01*
X16375285Y62875072D01*
X16446714Y62732215D01*
X16446714Y62375072D01*
X16375285Y62232215D01*
X16303857Y62160786D01*
X16161000Y62089358D01*
X15875285Y62089358D01*
X15732428Y62160786D01*
X15661000Y62232215D01*
X15589571Y62375072D01*
X28268142Y71317929D02*
X28268142Y72817929D01*
X27696714Y72817929D01*
X27553857Y72746500D01*
X27482428Y72675072D01*
X27411000Y72532215D01*
X27411000Y72317929D01*
X27482428Y72175072D01*
X27553857Y72103643D01*
X27696714Y72032215D01*
X28268142Y72032215D01*
X26768142Y71317929D02*
X26768142Y72317929D01*
X26768142Y72032215D02*
X26696714Y72175072D01*
X26625285Y72246500D01*
X26482428Y72317929D01*
X26339571Y72317929D01*
X25839571Y72317929D02*
X25839571Y71317929D01*
X25839571Y72175072D02*
X25768142Y72246500D01*
X25625285Y72317929D01*
X25411000Y72317929D01*
X25268142Y72246500D01*
X25196714Y72103643D01*
X25196714Y71317929D01*
X24696714Y72317929D02*
X24125285Y72317929D01*
X24482428Y72817929D02*
X24482428Y71532215D01*
X24411000Y71389358D01*
X24268142Y71317929D01*
X24125285Y71317929D01*
X23625285Y71317929D02*
X23625285Y72317929D01*
X23625285Y72032215D02*
X23553857Y72175072D01*
X23482428Y72246500D01*
X23339571Y72317929D01*
X23196714Y72317929D01*
X22196714Y72103643D02*
X21982428Y72032215D01*
X21911000Y71960786D01*
X21839571Y71817929D01*
X21839571Y71603643D01*
X21911000Y71460786D01*
X21982428Y71389358D01*
X22125285Y71317929D01*
X22696714Y71317929D01*
X22696714Y72817929D01*
X22196714Y72817929D01*
X22053857Y72746500D01*
X21982428Y72675072D01*
X21911000Y72532215D01*
X21911000Y72389358D01*
X21982428Y72246500D01*
X22053857Y72175072D01*
X22196714Y72103643D01*
X22696714Y72103643D01*
X20982428Y71317929D02*
X21125285Y71389358D01*
X21196714Y71460786D01*
X21268142Y71603643D01*
X21268142Y72032215D01*
X21196714Y72175072D01*
X21125285Y72246500D01*
X20982428Y72317929D01*
X20768142Y72317929D01*
X20625285Y72246500D01*
X20553857Y72175072D01*
X20482428Y72032215D01*
X20482428Y71603643D01*
X20553857Y71460786D01*
X20625285Y71389358D01*
X20768142Y71317929D01*
X20982428Y71317929D01*
X19196714Y71317929D02*
X19196714Y72103643D01*
X19268142Y72246500D01*
X19411000Y72317929D01*
X19696714Y72317929D01*
X19839571Y72246500D01*
X19196714Y71389358D02*
X19339571Y71317929D01*
X19696714Y71317929D01*
X19839571Y71389358D01*
X19911000Y71532215D01*
X19911000Y71675072D01*
X19839571Y71817929D01*
X19696714Y71889358D01*
X19339571Y71889358D01*
X19196714Y71960786D01*
X18482428Y71317929D02*
X18482428Y72317929D01*
X18482428Y72032215D02*
X18411000Y72175072D01*
X18339571Y72246500D01*
X18196714Y72317929D01*
X18053857Y72317929D01*
X16911000Y71317929D02*
X16911000Y72817929D01*
X16911000Y71389358D02*
X17053857Y71317929D01*
X17339571Y71317929D01*
X17482428Y71389358D01*
X17553857Y71460786D01*
X17625285Y71603643D01*
X17625285Y72032215D01*
X17553857Y72175072D01*
X17482428Y72246500D01*
X17339571Y72317929D01*
X17053857Y72317929D01*
X16911000Y72246500D01*
X15268142Y72817929D02*
X14768142Y71317929D01*
X14268142Y72817929D01*
X12982428Y71317929D02*
X13839571Y71317929D01*
X13411000Y71317929D02*
X13411000Y72817929D01*
X13553857Y72603643D01*
X13696714Y72460786D01*
X13839571Y72389358D01*
X25446714Y69817929D02*
X24875285Y69817929D01*
X25232428Y70317929D02*
X25232428Y69032215D01*
X25161000Y68889358D01*
X25018142Y68817929D01*
X24875285Y68817929D01*
X24375285Y68817929D02*
X24375285Y69817929D01*
X24375285Y69675072D02*
X24303857Y69746500D01*
X24161000Y69817929D01*
X23946714Y69817929D01*
X23803857Y69746500D01*
X23732428Y69603643D01*
X23732428Y68817929D01*
X23732428Y69603643D02*
X23661000Y69746500D01*
X23518142Y69817929D01*
X23303857Y69817929D01*
X23161000Y69746500D01*
X23089571Y69603643D01*
X23089571Y68817929D01*
X21732428Y68889358D02*
X21875285Y68817929D01*
X22161000Y68817929D01*
X22303857Y68889358D01*
X22375285Y68960786D01*
X22446714Y69103643D01*
X22446714Y69532215D01*
X22375285Y69675072D01*
X22303857Y69746500D01*
X22161000Y69817929D01*
X21875285Y69817929D01*
X21732428Y69746500D01*
X21161000Y70175072D02*
X21089571Y70246500D01*
X20946714Y70317929D01*
X20589571Y70317929D01*
X20446714Y70246500D01*
X20375285Y70175072D01*
X20303857Y70032215D01*
X20303857Y69889358D01*
X20375285Y69675072D01*
X21232428Y68817929D01*
X20303857Y68817929D01*
X19018142Y70317929D02*
X19303857Y70317929D01*
X19446714Y70246500D01*
X19518142Y70175072D01*
X19661000Y69960786D01*
X19732428Y69675072D01*
X19732428Y69103643D01*
X19661000Y68960786D01*
X19589571Y68889358D01*
X19446714Y68817929D01*
X19161000Y68817929D01*
X19018142Y68889358D01*
X18946714Y68960786D01*
X18875285Y69103643D01*
X18875285Y69460786D01*
X18946714Y69603643D01*
X19018142Y69675072D01*
X19161000Y69746500D01*
X19446714Y69746500D01*
X19589571Y69675072D01*
X19661000Y69603643D01*
X19732428Y69460786D01*
X17589571Y70317929D02*
X17875285Y70317929D01*
X18018142Y70246500D01*
X18089571Y70175072D01*
X18232428Y69960786D01*
X18303857Y69675072D01*
X18303857Y69103643D01*
X18232428Y68960786D01*
X18161000Y68889358D01*
X18018142Y68817929D01*
X17732428Y68817929D01*
X17589571Y68889358D01*
X17518142Y68960786D01*
X17446714Y69103643D01*
X17446714Y69460786D01*
X17518142Y69603643D01*
X17589571Y69675072D01*
X17732428Y69746500D01*
X18018142Y69746500D01*
X18161000Y69675072D01*
X18232428Y69603643D01*
X18303857Y69460786D01*
X16518142Y70317929D02*
X16375285Y70317929D01*
X16232428Y70246500D01*
X16161000Y70175072D01*
X16089571Y70032215D01*
X16018142Y69746500D01*
X16018142Y69389358D01*
X16089571Y69103643D01*
X16161000Y68960786D01*
X16232428Y68889358D01*
X16375285Y68817929D01*
X16518142Y68817929D01*
X16661000Y68889358D01*
X16732428Y68960786D01*
X16803857Y69103643D01*
X16875285Y69389358D01*
X16875285Y69746500D01*
X16803857Y70032215D01*
X16732428Y70175072D01*
X16661000Y70246500D01*
X16518142Y70317929D01*
D10*
X69061000Y60896514D02*
X69061000Y5896487D01*
X53821000Y60896500D02*
X69061000Y60896500D01*
X53771000Y61896500D02*
X53771000Y60896500D01*
X69021000Y61896500D02*
X53771000Y61896500D01*
X69061000Y86396537D02*
X69061000Y61896468D01*
X-229011Y86356500D02*
X69061000Y86356500D01*
X-229000Y61896500D02*
X-229000Y86396500D01*
X14521000Y61896500D02*
X-229000Y61896500D01*
X14521000Y60896500D02*
X14521000Y61896500D01*
X-229000Y60896500D02*
X14521000Y60896500D01*
X-229000Y5896500D02*
X-229000Y60896500D01*
X21271037Y5856500D02*
X-229026Y5856500D01*
X23291000Y3876500D02*
X21271000Y5896500D01*
X56271024Y3856500D02*
X23270978Y3856500D01*
X58271000Y5896500D02*
X56271000Y3896500D01*
X69061000Y5856500D02*
X58270926Y5856500D01*
X27620483Y6356500D02*
G75*
G03X27620483Y6356500I-1739483J0D01*
G01*
M02*
