M48
; DRILL file {KiCad 6.0.0-unknown-b9898e2~86~ubuntu19.04.1} date Fri 24 May 2019 09:22:55 PM PDT
; FORMAT={-:-/ absolute / metric / decimal}
; #@! TF.CreationDate,2019-05-24T21:22:55-07:00
; #@! TF.GenerationSoftware,Kicad,Pcbnew,6.0.0-unknown-b9898e2~86~ubuntu19.04.1
; #@! TF.FileFunction,Plated,1,4,PTH
FMAT,2
METRIC
T1C0.305
T2C0.381
T3C0.508
T4C0.762
T5C1.000
T6C1.016
T7C1.200
T8C1.300
%
G90
G05
T1
X7.761Y39.746
X8.061Y20.746
X8.061Y14.446
X8.661Y48.447
X8.661Y38.947
X9.661Y41.746
X9.661Y39.947
X11.361Y65.346
X11.461Y25.746
X11.761Y20.546
X11.944Y64.647
X12.361Y42.746
X12.461Y63.846
X12.861Y27.646
X12.961Y63.146
X13.161Y24.046
X13.161Y20.447
X13.461Y63.629
X13.461Y29.746
X13.961Y62.646
X13.961Y54.646
X14.561Y62.046
X14.561Y16.546
X14.905Y31.846
X15.044Y61.531
X15.461Y46.947
X15.536Y61.048
X15.561Y56.246
X16.161Y20.746
X24.761Y38.447
X24.761Y35.146
X24.961Y50.646
X26.717Y47.128
X26.861Y13.464
X27.661Y49.447
X29.061Y76.746
X29.461Y45.246
X29.561Y44.571
X29.661Y41.646
X29.961Y51.447
X29.961Y47.046
X32.261Y45.646
X32.461Y22.646
X32.961Y35.746
X33.061Y30.846
X34.061Y47.046
X34.061Y13.446
X35.761Y43.846
X35.761Y40.346
X36.361Y23.129
X36.361Y20.447
X37.061Y78.346
X37.261Y22.246
X37.261Y19.846
X37.361Y39.246
X37.361Y34.146
X37.761Y14.846
X37.861Y44.546
X37.961Y41.546
X38.261Y49.046
X38.261Y45.746
X38.561Y39.746
X39.086Y54.646
X40.161Y31.246
X40.561Y37.646
X40.561Y32.947
X41.147Y27.309
X41.161Y50.646
X41.561Y12.446
X41.644Y29.146
X42.578Y30.799
X42.761Y28.746
X43.161Y33.447
X43.661Y30.046
X44.385Y79.569
X45.061Y8.046
X45.082Y46.491
X46.444Y28.201
X46.961Y30.246
X47.061Y64.846
X47.761Y18.746
X47.944Y35.047
X47.944Y30.846
X47.944Y23.129
X48.061Y38.947
X48.061Y21.746
X48.248Y35.947
X48.261Y47.146
X48.809Y37.129
X49.161Y24.447
X51.061Y22.729
X51.261Y13.946
X52.656Y14.124
X52.661Y34.047
X53.152Y29.071
X53.261Y31.447
X54.561Y46.947
X54.661Y22.146
X55.526Y38.929
X55.761Y86.046
X56.261Y64.346
X56.561Y84.647
X56.561Y70.746
X56.844Y31.44
X57.788Y28.114
X58.061Y25.546
X58.067Y27.152
X58.161Y84.647
X58.561Y67.947
X58.561Y60.581
X58.761Y85.447
X58.761Y37.345
X58.861Y15.746
X58.861Y8.947
X58.961Y87.746
X58.961Y70.346
X58.961Y33.947
X58.961Y30.746
X59.561Y65.647
X59.561Y33.346
X59.761Y89.346
X59.786Y70.621
X60.061Y31.447
X60.061Y29.246
X60.111Y65.147
X61.061Y30.046
X61.061Y29.046
X61.761Y30.546
X61.761Y28.746
X61.961Y38.646
X62.161Y34.047
X62.278Y32.746
X62.361Y40.246
X62.561Y17.746
X62.761Y31.447
X62.774Y40.762
X63.161Y35.346
X66.861Y61.064
X66.861Y57.447
X67.761Y62.046
X67.761Y58.947
X67.861Y64.846
X67.961Y19.646
X67.961Y16.246
X68.161Y89.346
X68.461Y63.746
X68.461Y62.664
X68.661Y79.346
X68.961Y61.546
X68.961Y56.846
X69.261Y79.846
X69.261Y36.447
X69.761Y81.546
X69.861Y62.447
X69.95Y30.207
X70.061Y40.746
X70.161Y39.764
X70.161Y32.646
X70.307Y30.8
X70.507Y15.59
X70.661Y82.947
X70.661Y40.447
X70.761Y33.346
X70.761Y14.446
X70.961Y61.146
X71.361Y37.964
X71.461Y81.546
X71.661Y13.546
X71.712Y16.624
X72.317Y58.947
X73.561Y12.246
X88.661Y60.746
X88.661Y39.947
X88.661Y39.146
X88.661Y37.646
X88.661Y27.846
X88.661Y17.646
X88.761Y82.846
X88.761Y81.246
X88.761Y59.146
X88.761Y16.046
X89.205Y36.885
X89.23Y15.345
X89.261Y80.546
X89.265Y58.633
X89.761Y27.447
X90.361Y61.546
X90.361Y39.947
X90.461Y18.546
X90.561Y83.647
X93.161Y15.446
X93.361Y58.046
X93.361Y36.447
X93.461Y80.246
T2
X31.061Y42.546
X32.108Y46.501
X34.761Y49.646
X35.86Y45.245
X36.961Y42.646
X38.961Y34.646
X39.061Y29.546
X40.023Y32.131
X40.561Y42.046
X42.761Y37.056
X43.771Y31.447
X48.161Y43.447
X48.561Y45.246
X49.461Y32.947
X50.361Y32.646
X51.451Y29.763
X54.161Y89.596
X55.18Y35.656
X59.011Y26.621
X59.211Y29.871
X59.661Y36.846
X72.611Y25.671
X88.561Y20.046
X89.011Y26.646
X91.411Y26.596
X92.761Y40.697
X93.611Y61.697
X93.861Y83.971
T3
X2.361Y86.246
X2.461Y89.046
X2.661Y75.746
X2.661Y74.846
X2.661Y73.947
X3.261Y73.246
X3.811Y71.296
X4.161Y73.246
X4.811Y71.296
X5.061Y73.246
X5.811Y71.296
X5.961Y73.246
X6.811Y71.296
X6.861Y75.746
X6.861Y74.846
X6.861Y73.947
X7.811Y71.296
X8.811Y81.796
X8.811Y80.796
X8.811Y79.796
X8.811Y78.796
X8.811Y77.796
X8.811Y76.796
X8.811Y74.296
X8.811Y73.296
X8.811Y72.296
X8.811Y71.296
X8.811Y70.296
X8.886Y12.546
X9.811Y81.796
X10.761Y44.746
X10.761Y26.746
X10.811Y83.796
X10.811Y82.796
X10.811Y81.796
X10.961Y85.246
X14.061Y74.296
X14.061Y73.296
X14.061Y72.296
X14.061Y71.296
X14.061Y70.296
X16.161Y52.947
X16.183Y46.046
X16.561Y74.296
X17.061Y69.296
X17.061Y65.546
X17.561Y74.296
X18.061Y69.296
X18.061Y65.546
X18.461Y85.346
X18.561Y74.296
X19.061Y69.296
X19.061Y65.546
X19.561Y74.296
X20.061Y69.296
X20.061Y65.546
X20.561Y74.296
X21.061Y69.296
X21.561Y50.646
X21.761Y16.646
X21.861Y12.146
X23.861Y8.046
X24.861Y9.046
X25.061Y79.647
X25.561Y84.846
X25.561Y83.046
X26.161Y51.646
X26.161Y26.846
X26.361Y79.647
X26.461Y85.746
X26.461Y83.947
X27.361Y84.846
X27.361Y83.046
X27.661Y79.647
X27.661Y59.846
X27.661Y58.947
X27.661Y58.046
X28.061Y11.646
X28.261Y85.746
X28.261Y83.947
X28.261Y57.346
X29.061Y7.246
X29.161Y57.346
X30.061Y57.346
X30.561Y9.447
X30.961Y57.346
X31.061Y85.346
X31.861Y59.846
X31.861Y58.947
X31.861Y58.046
X33.061Y9.046
X33.161Y82.346
X33.361Y51.947
X33.761Y87.646
X33.761Y85.846
X34.361Y82.346
X34.661Y88.546
X34.661Y86.746
X35.561Y87.646
X35.561Y85.846
X35.661Y82.346
X36.161Y11.646
X36.461Y88.546
X36.461Y86.746
X38.461Y72.447
X38.461Y69.846
X38.561Y8.947
X39.161Y85.346
X39.361Y56.221
X39.386Y66.796
X39.961Y8.947
X40.261Y72.447
X40.261Y69.846
X41.361Y82.346
X41.461Y9.594
X42.061Y87.546
X42.061Y85.746
X42.561Y82.346
X42.861Y75.447
X42.961Y88.447
X42.961Y86.647
X43.861Y87.546
X43.861Y85.746
X43.861Y82.447
X43.861Y75.447
X44.261Y74.647
X44.261Y11.646
X44.361Y76.346
X44.761Y88.447
X44.761Y86.647
X46.461Y86.546
X46.861Y9.594
X47.261Y87.346
X47.561Y90.346
X47.561Y89.346
X47.561Y88.346
X48.259Y77.338
X48.259Y74.798
X48.259Y71.242
X48.361Y84.546
X49.461Y84.546
X49.783Y78.862
X49.783Y75.814
X49.783Y72.766
X49.861Y9.746
X51.361Y67.647
X52.261Y88.346
X52.261Y11.646
X52.461Y90.796
X54.061Y80.311
X54.061Y77.572
X54.185Y74.215
X54.961Y9.646
X55.161Y81.835
X55.161Y78.787
X55.161Y75.739
X56.237Y80.311
X56.237Y77.572
X56.237Y74.215
X56.913Y68.046
X57.46Y82.446
X57.461Y87.346
X58.402Y80.411
X58.402Y77.364
X58.402Y74.316
X59.418Y81.935
X59.418Y78.888
X59.418Y75.84
X60.434Y80.411
X60.434Y77.364
X60.434Y74.316
X60.961Y73.147
X60.961Y70.647
X61.161Y19.046
X61.161Y12.546
X62.761Y87.246
X63.461Y67.746
X64.923Y78.92
X64.923Y75.873
X64.923Y72.825
X65.061Y84.746
X66.161Y84.746
X66.261Y95.846
X66.447Y77.397
X66.447Y74.349
X66.447Y71.3
X66.561Y91.346
X67.547Y28.033
X68.061Y36.947
X68.061Y34.947
X68.061Y14.046
X68.061Y10.346
X68.161Y42.146
X68.161Y39.047
X68.161Y31.746
X69.018Y49.895
X69.018Y47.645
X69.211Y4.796
X69.261Y7.296
X69.361Y28.796
X69.361Y26.346
X69.418Y72.296
X69.418Y69.796
X70.313Y50.046
X70.313Y47.796
X70.961Y28.796
X70.961Y26.346
X70.961Y4.796
X71.011Y7.296
X71.111Y22.796
X71.361Y88.546
X71.361Y72.296
X71.361Y69.796
X71.361Y32.297
X71.361Y10.796
X71.609Y44.296
X71.611Y75.796
X71.611Y66.046
X71.611Y53.796
X71.661Y56.046
X72.111Y82.296
X72.361Y80.846
X72.361Y39.094
X72.483Y60.331
X72.611Y17.296
X74.361Y78.546
X74.611Y56.296
X74.611Y34.797
X74.611Y13.296
X75.057Y26.098
X75.207Y69.048
X75.207Y47.398
X75.215Y50.761
X75.257Y91.048
X75.265Y72.861
X75.265Y7.71
X75.365Y29.31
X76.581Y24.575
X76.731Y67.525
X76.731Y45.874
X76.739Y52.284
X76.781Y89.524
X76.789Y74.385
X76.789Y9.234
X76.889Y30.834
X77.111Y56.296
X77.111Y34.797
X77.111Y13.296
X77.361Y78.546
X78.105Y20.146
X78.105Y17.97
X78.105Y15.43
X78.105Y13.398
X78.155Y63.371
X78.155Y61.195
X78.255Y58.805
X78.255Y56.773
X78.255Y37.206
X78.255Y35.173
X78.263Y50.761
X78.28Y41.596
X78.28Y39.42
X78.313Y72.861
X78.313Y7.71
X78.362Y85.25
X78.405Y83.195
X78.413Y29.31
X78.455Y81.005
X78.455Y78.974
X78.613Y26.098
X78.763Y69.048
X78.763Y47.398
X78.813Y91.048
X79.629Y24.575
X79.629Y19.046
X79.629Y14.414
X79.679Y62.271
X79.779Y67.525
X79.779Y57.789
X79.779Y45.874
X79.779Y36.189
X79.787Y52.284
X79.804Y40.496
X79.829Y89.524
X79.837Y74.385
X79.837Y9.234
X79.929Y84.272
X79.937Y30.834
X79.979Y79.989
X81.153Y26.098
X81.153Y15.43
X81.153Y13.398
X81.303Y69.048
X81.303Y58.805
X81.303Y56.773
X81.303Y47.398
X81.303Y37.206
X81.303Y35.173
X81.311Y50.761
X81.353Y91.048
X81.361Y72.861
X81.361Y7.71
X81.461Y29.31
X81.461Y20.146
X81.461Y17.97
X81.503Y81.005
X81.503Y78.974
X81.511Y63.371
X81.511Y61.195
X81.636Y41.596
X81.636Y39.42
X81.761Y85.371
X81.761Y83.195
X82.677Y24.575
X82.677Y19.046
X82.677Y14.414
X82.727Y62.271
X82.827Y67.525
X82.827Y57.789
X82.827Y45.874
X82.827Y36.189
X82.835Y52.284
X82.852Y40.496
X82.877Y89.524
X82.885Y74.385
X82.885Y9.234
X82.977Y84.272
X82.985Y30.834
X83.027Y79.989
X84.201Y20.146
X84.201Y17.97
X84.201Y15.43
X84.201Y13.398
X84.251Y63.371
X84.251Y61.195
X84.351Y58.805
X84.351Y56.773
X84.351Y37.206
X84.351Y35.173
X84.376Y41.596
X84.376Y39.42
X84.501Y85.371
X84.501Y83.195
X84.551Y81.005
X84.551Y78.974
X85.725Y19.046
X85.725Y14.414
X85.775Y62.271
X85.875Y57.789
X85.875Y36.189
X85.9Y40.496
X86.025Y84.272
X86.075Y79.989
X86.189Y38.266
X86.291Y59.746
X86.38Y16.741
X86.386Y81.937
X88.361Y68.546
X88.361Y67.546
X88.361Y52.046
X88.361Y51.046
X88.611Y91.046
X88.611Y90.046
X88.611Y74.046
X88.611Y73.046
X88.611Y47.296
X88.611Y46.296
X88.611Y30.546
X88.611Y29.546
X88.611Y25.796
X88.611Y24.796
X88.611Y8.796
X88.611Y7.796
X89.111Y85.296
X90.861Y16.796
X91.034Y38.047
X91.111Y60.046
X91.111Y33.047
X91.111Y10.796
X91.169Y76.546
X91.361Y82.046
X91.361Y54.296
X92.111Y73.046
X92.361Y86.546
X92.361Y52.296
X92.361Y21.546
X92.611Y64.546
X92.611Y42.796
X92.611Y30.796
X92.611Y9.296
T4
X3.021Y54.616
X3.021Y52.076
X3.021Y49.536
X3.021Y46.996
X3.021Y44.456
X3.021Y41.916
X3.021Y39.377
X3.021Y36.837
X3.021Y34.297
X3.021Y31.756
X3.021Y29.216
X3.021Y26.676
X3.021Y24.136
X3.021Y21.596
X3.021Y19.056
X3.021Y16.517
X3.021Y13.976
X3.021Y11.436
X3.021Y8.896
X5.561Y54.616
X5.561Y52.076
X5.561Y49.536
X5.561Y46.996
X5.561Y44.456
X5.561Y41.916
X5.561Y39.377
X5.561Y36.837
X5.561Y34.297
X5.561Y31.756
X5.561Y29.216
X5.561Y26.676
X5.561Y24.136
X5.561Y21.596
X5.561Y19.056
X5.561Y16.517
X5.561Y13.976
X5.561Y11.436
X5.561Y8.896
X63.981Y54.616
X63.981Y52.076
X63.981Y49.536
X63.981Y46.996
X63.981Y44.456
X63.981Y41.916
X63.981Y39.377
X63.981Y36.837
X63.981Y34.297
X63.981Y31.756
X63.981Y29.216
X63.981Y26.676
X63.981Y24.136
X63.981Y21.596
X63.981Y19.056
X63.981Y16.517
X63.981Y13.976
X63.981Y11.436
X63.981Y8.896
X66.521Y54.616
X66.521Y52.076
X66.521Y49.536
X66.521Y46.996
X66.521Y44.456
X66.521Y41.916
X66.521Y39.377
X66.521Y36.837
X66.521Y34.297
X66.521Y31.756
X66.521Y29.216
X66.521Y26.676
X66.521Y24.136
X66.521Y21.596
X66.521Y19.056
X66.521Y16.517
X66.521Y13.976
X66.521Y11.436
X66.521Y8.896
T5
X52.761Y95.947
X55.301Y95.947
X57.841Y95.947
X60.381Y95.947
X22.486Y53.272
X25.026Y53.272
X27.566Y53.272
X30.106Y53.272
X43.461Y58.486
X43.461Y55.947
X22.361Y47.127
X22.361Y44.587
X22.361Y42.046
X57.161Y42.386
X57.161Y39.846
X18.461Y38.246
X18.461Y35.706
X18.461Y33.166
X18.461Y30.627
X18.461Y28.086
X18.461Y25.546
X18.461Y47.146
X18.461Y44.606
X18.461Y42.066
X95.611Y41.416
X95.611Y38.877
X95.611Y36.337
X95.611Y33.797
X50.361Y58.486
X50.361Y55.947
X22.361Y38.246
X22.361Y35.706
X22.361Y33.166
X22.361Y30.627
X22.361Y28.086
X22.361Y25.546
X46.561Y20.086
X46.561Y17.546
X50.361Y42.386
X50.361Y39.846
X17.246Y56.971
X19.786Y56.971
X53.626Y20.151
X53.626Y17.611
X69.261Y20.787
X69.261Y18.246
X35.161Y72.162
X35.161Y69.621
X57.261Y58.486
X57.261Y55.947
X53.661Y26.447
X53.661Y23.906
X95.611Y19.796
X95.611Y17.256
X95.611Y14.716
X95.611Y12.176
X16.686Y17.197
X19.226Y17.197
X50.361Y51.386
X50.361Y48.846
X59.261Y7.396
X59.261Y4.856
X59.261Y2.317
X95.611Y83.796
X95.611Y81.257
X95.611Y78.716
X95.611Y76.176
X54.961Y92.046
X57.501Y92.046
X60.041Y92.046
X62.581Y92.046
X48.311Y96.736
X48.311Y94.197
X57.261Y51.386
X57.261Y48.846
X8.861Y53.486
X8.861Y50.947
X43.461Y51.386
X43.461Y48.846
X95.611Y63.166
X95.611Y60.627
X95.611Y58.087
X95.611Y55.546
T6
X28.761Y34.447
X28.761Y31.906
X28.761Y29.366
X28.761Y26.826
X28.761Y24.287
X28.761Y21.746
X31.301Y34.447
X31.301Y31.906
X31.301Y29.366
X31.301Y26.826
X31.301Y24.287
X31.301Y21.746
T7
X9.861Y5.247
X13.361Y5.247
X26.061Y5.247
X29.561Y5.247
X32.061Y93.746
X35.561Y93.746
X50.361Y5.247
X53.861Y5.247
X42.261Y5.247
X45.761Y5.247
X40.261Y93.746
X43.761Y93.746
X11.361Y93.746
X14.861Y93.746
X34.161Y5.247
X37.661Y5.247
X17.961Y5.247
X21.461Y5.247
T8
X21.581Y93.646
X26.661Y93.646
X5.361Y64.647
X5.361Y59.566
T0
M30
