G04 #@! TF.GenerationSoftware,KiCad,Pcbnew,5.0.0-rc2-unknown-7d66dc0~65~ubuntu18.04.1*
G04 #@! TF.CreationDate,2018-06-15T23:21:21-07:00*
G04 #@! TF.ProjectId,PrntrBoardV1,50726E7472426F61726456312E6B6963,rev?*
G04 #@! TF.SameCoordinates,Original*
G04 #@! TF.FileFunction,Soldermask,Bot*
G04 #@! TF.FilePolarity,Negative*
%FSLAX46Y46*%
G04 Gerber Fmt 4.6, Leading zero omitted, Abs format (unit mm)*
G04 Created by KiCad (PCBNEW 5.0.0-rc2-unknown-7d66dc0~65~ubuntu18.04.1) date Fri Jun 15 23:21:21 2018*
%MOMM*%
%LPD*%
G01*
G04 APERTURE LIST*
%ADD10R,2.400000X2.400000*%
%ADD11C,2.400000*%
%ADD12R,2.600000X2.600000*%
%ADD13C,2.600000*%
%ADD14O,1.700000X1.700000*%
%ADD15R,1.700000X1.700000*%
%ADD16O,1.727200X1.727200*%
%ADD17R,1.727200X1.727200*%
%ADD18C,3.200000*%
%ADD19C,1.524000*%
%ADD20R,1.524000X1.524000*%
G04 APERTURE END LIST*
D10*
G04 #@! TO.C,J1*
X89300000Y-55400000D03*
D11*
X85800000Y-55400000D03*
G04 #@! TD*
D12*
G04 #@! TO.C,J2*
X122080000Y-55400000D03*
D13*
X117000000Y-55400000D03*
G04 #@! TD*
D14*
G04 #@! TO.C,J3*
X72800000Y-112200000D03*
X70260000Y-112200000D03*
X67720000Y-112200000D03*
D15*
X65180000Y-112200000D03*
G04 #@! TD*
D10*
G04 #@! TO.C,J4*
X88300000Y-143800000D03*
D11*
X91800000Y-143800000D03*
G04 #@! TD*
D10*
G04 #@! TO.C,J5*
X79600000Y-143800000D03*
D11*
X83100000Y-143800000D03*
G04 #@! TD*
D10*
G04 #@! TO.C,J6*
X105700000Y-143800000D03*
D11*
X109200000Y-143800000D03*
G04 #@! TD*
D10*
G04 #@! TO.C,J7*
X97000000Y-143800000D03*
D11*
X100500000Y-143800000D03*
G04 #@! TD*
D10*
G04 #@! TO.C,J8*
X70900000Y-143800000D03*
D11*
X74400000Y-143800000D03*
G04 #@! TD*
D10*
G04 #@! TO.C,J9*
X62100000Y-143800000D03*
D11*
X65600000Y-143800000D03*
G04 #@! TD*
D14*
G04 #@! TO.C,J10*
X104400000Y-121340000D03*
D15*
X104400000Y-118800000D03*
G04 #@! TD*
D10*
G04 #@! TO.C,J11*
X98000000Y-55400000D03*
D11*
X94500000Y-55400000D03*
G04 #@! TD*
D14*
G04 #@! TO.C,J12*
X54000000Y-78230000D03*
X54000000Y-80770000D03*
X54000000Y-83310000D03*
D15*
X54000000Y-85850000D03*
G04 #@! TD*
D14*
G04 #@! TO.C,J13*
X65200000Y-105400000D03*
D15*
X65200000Y-107940000D03*
G04 #@! TD*
D14*
G04 #@! TO.C,J14*
X75000000Y-127400000D03*
D15*
X75000000Y-129940000D03*
G04 #@! TD*
D14*
G04 #@! TO.C,J15*
X64980999Y-134550500D03*
D15*
X64980999Y-137090500D03*
G04 #@! TD*
D14*
G04 #@! TO.C,J16*
X104400000Y-108740000D03*
D15*
X104400000Y-106200000D03*
G04 #@! TD*
D14*
G04 #@! TO.C,J17*
X75000000Y-134600000D03*
D15*
X75000000Y-137140000D03*
G04 #@! TD*
D14*
G04 #@! TO.C,J18*
X104400000Y-102200000D03*
D15*
X104400000Y-99660000D03*
G04 #@! TD*
D14*
G04 #@! TO.C,J19*
X65000000Y-127260000D03*
D15*
X65000000Y-129800000D03*
G04 #@! TD*
D14*
G04 #@! TO.C,J20*
X144700000Y-133570000D03*
X144700000Y-131030000D03*
X144700000Y-128490000D03*
D15*
X144700000Y-125950000D03*
G04 #@! TD*
D14*
G04 #@! TO.C,J21*
X144750000Y-108420000D03*
X144750000Y-105880000D03*
X144750000Y-103340000D03*
D15*
X144750000Y-100800000D03*
G04 #@! TD*
D14*
G04 #@! TO.C,J22*
X142600000Y-87740000D03*
X142600000Y-85200000D03*
X142600000Y-82660000D03*
D15*
X142600000Y-80120000D03*
G04 #@! TD*
D14*
G04 #@! TO.C,J23*
X146350000Y-85320000D03*
X146350000Y-82780000D03*
X146350000Y-80240000D03*
D15*
X146350000Y-77700000D03*
G04 #@! TD*
D14*
G04 #@! TO.C,J24*
X65000000Y-119600000D03*
D15*
X65000000Y-122140000D03*
G04 #@! TD*
D10*
G04 #@! TO.C,J25*
X108800000Y-55400000D03*
D11*
X105300000Y-55400000D03*
G04 #@! TD*
D14*
G04 #@! TO.C,J26*
X76880000Y-53500000D03*
X74340000Y-53500000D03*
X71800000Y-53500000D03*
D15*
X69260000Y-53500000D03*
G04 #@! TD*
D14*
G04 #@! TO.C,J27*
X65262429Y-98710500D03*
D15*
X65262429Y-101250500D03*
G04 #@! TD*
D14*
G04 #@! TO.C,J28*
X72400000Y-94260000D03*
D15*
X72400000Y-96800000D03*
G04 #@! TD*
D12*
G04 #@! TO.C,J29*
X136000000Y-55400000D03*
D13*
X130920000Y-55400000D03*
G04 #@! TD*
D16*
G04 #@! TO.C,J30*
X82640000Y-113440000D03*
X82640000Y-110900000D03*
X85180000Y-113440000D03*
X85180000Y-110900000D03*
X87720000Y-113440000D03*
X87720000Y-110900000D03*
X90260000Y-113440000D03*
X90260000Y-110900000D03*
X92800000Y-113440000D03*
D17*
X92800000Y-110900000D03*
G04 #@! TD*
D14*
G04 #@! TO.C,J31*
X90189500Y-123400999D03*
X87649500Y-123400999D03*
X85109500Y-123400999D03*
X82569500Y-123400999D03*
X80029500Y-123400999D03*
D15*
X77489500Y-123400999D03*
G04 #@! TD*
D14*
G04 #@! TO.C,J32*
X90189500Y-119350999D03*
X87649500Y-119350999D03*
X85109500Y-119350999D03*
X82569500Y-119350999D03*
X80029500Y-119350999D03*
D15*
X77489500Y-119350999D03*
G04 #@! TD*
D14*
G04 #@! TO.C,JP1*
X114170500Y-144091857D03*
X116710500Y-144091857D03*
D15*
X119250500Y-144091857D03*
G04 #@! TD*
D14*
G04 #@! TO.C,JP2*
X94420000Y-119400000D03*
X96960000Y-119400000D03*
D15*
X99500000Y-119400000D03*
G04 #@! TD*
D14*
G04 #@! TO.C,JP3*
X94400000Y-123400000D03*
X96940000Y-123400000D03*
D15*
X99480000Y-123400000D03*
G04 #@! TD*
D14*
G04 #@! TO.C,JP8*
X78800000Y-93340000D03*
D15*
X78800000Y-90800000D03*
G04 #@! TD*
D14*
G04 #@! TO.C,JP9*
X119400000Y-133800000D03*
D15*
X119400000Y-131260000D03*
G04 #@! TD*
D18*
G04 #@! TO.C,MK1*
X144400000Y-144400000D03*
G04 #@! TD*
G04 #@! TO.C,MK2*
X144400000Y-54600000D03*
G04 #@! TD*
G04 #@! TO.C,MK3*
X54000000Y-54600000D03*
G04 #@! TD*
G04 #@! TO.C,MK4*
X54000000Y-144400000D03*
G04 #@! TD*
D19*
G04 #@! TO.C,U11*
X55400000Y-139020000D03*
X55400000Y-136480000D03*
X55400000Y-133940000D03*
X55400000Y-131400000D03*
X55400000Y-128860000D03*
X55400000Y-126320000D03*
X55400000Y-123780000D03*
X55400000Y-121240000D03*
X55400000Y-118700000D03*
X55400000Y-116160000D03*
X55400000Y-113620000D03*
X55400000Y-111080000D03*
X55400000Y-108540000D03*
X55400000Y-106000000D03*
X55400000Y-103460000D03*
X55400000Y-100920000D03*
X55400000Y-98380000D03*
X55400000Y-95840000D03*
D20*
X52860000Y-139020000D03*
D19*
X52860000Y-136480000D03*
X52860000Y-133940000D03*
X52860000Y-131400000D03*
X52860000Y-128860000D03*
X52860000Y-126320000D03*
X52860000Y-123780000D03*
X52860000Y-121240000D03*
X52860000Y-118700000D03*
X52860000Y-116160000D03*
X52860000Y-113620000D03*
X52860000Y-111080000D03*
X52860000Y-108540000D03*
X52860000Y-106000000D03*
X52860000Y-103460000D03*
X52860000Y-100920000D03*
X52860000Y-98380000D03*
X52860000Y-95840000D03*
D20*
X113820000Y-139020000D03*
D19*
X113820000Y-136480000D03*
X113820000Y-133940000D03*
X113820000Y-131400000D03*
X113820000Y-128860000D03*
X113820000Y-126320000D03*
X113820000Y-123780000D03*
X113820000Y-121240000D03*
X113820000Y-118700000D03*
X113820000Y-116160000D03*
X113820000Y-113620000D03*
X113820000Y-111080000D03*
X113820000Y-108540000D03*
X113820000Y-106000000D03*
X113820000Y-103460000D03*
X113820000Y-100920000D03*
X113820000Y-98380000D03*
X113820000Y-95840000D03*
X116360000Y-139020000D03*
X116360000Y-136480000D03*
X116360000Y-133940000D03*
X116360000Y-131400000D03*
X116360000Y-128860000D03*
X116360000Y-126320000D03*
X116360000Y-123780000D03*
X116360000Y-121240000D03*
X116360000Y-118700000D03*
X116360000Y-116160000D03*
X116360000Y-113620000D03*
X116360000Y-111080000D03*
X116360000Y-108540000D03*
X116360000Y-106000000D03*
X116360000Y-103460000D03*
X116360000Y-100920000D03*
X116360000Y-98380000D03*
X116360000Y-95840000D03*
X113820000Y-93300000D03*
X116360000Y-93300000D03*
X55400000Y-93300000D03*
X52860000Y-93300000D03*
G04 #@! TD*
M02*
