%TF.GenerationSoftware,KiCad,Pcbnew,6.0.0-rc1-unknown-ff9d814~66~ubuntu18.10.1*%
%TF.CreationDate,2019-01-26T13:03:51-08:00*%
%TF.ProjectId,PrntrBoardV1,50726e74-7242-46f6-9172-6456312e6b69,rev?*%
%TF.SameCoordinates,PX1303eb8PY7093f24*%
%TF.FileFunction,Soldermask,Bot*%
%TF.FilePolarity,Negative*%
%FSLAX46Y46*%
G04 Gerber Fmt 4.6, Leading zero omitted, Abs format (unit mm)*
G04 Created by KiCad (PCBNEW 6.0.0-rc1-unknown-ff9d814~66~ubuntu18.10.1) date Sat 26 Jan 2019 01:03:51 PM PST*
%MOMM*%
%LPD*%
G04 APERTURE LIST*
%ADD10C,0.100000*%
G04 APERTURE END LIST*
D10*
G36*
X82127627Y3484201D02*
G01*
X82201098Y3461914D01*
X82287855Y3435597D01*
X82287857Y3435596D01*
X82435518Y3356669D01*
X82564949Y3250449D01*
X82671169Y3121018D01*
X82750096Y2973357D01*
X82798701Y2813127D01*
X82815112Y2646500D01*
X82798701Y2479873D01*
X82750096Y2319643D01*
X82671169Y2171982D01*
X82564949Y2042551D01*
X82435518Y1936331D01*
X82287857Y1857404D01*
X82287855Y1857403D01*
X82207742Y1833101D01*
X82127627Y1808799D01*
X82002752Y1796500D01*
X81919248Y1796500D01*
X81794373Y1808799D01*
X81714258Y1833101D01*
X81634145Y1857403D01*
X81634143Y1857404D01*
X81486482Y1936331D01*
X81357051Y2042551D01*
X81250831Y2171982D01*
X81171904Y2319643D01*
X81123299Y2479873D01*
X81106888Y2646500D01*
X81123299Y2813127D01*
X81171904Y2973357D01*
X81250831Y3121018D01*
X81357051Y3250449D01*
X81486482Y3356669D01*
X81634143Y3435596D01*
X81634145Y3435597D01*
X81720902Y3461914D01*
X81794373Y3484201D01*
X81919248Y3496500D01*
X82002752Y3496500D01*
X82127627Y3484201D01*
X82127627Y3484201D01*
G37*
G36*
X86671000Y1796500D02*
G01*
X84971000Y1796500D01*
X84971000Y3496500D01*
X86671000Y3496500D01*
X86671000Y1796500D01*
X86671000Y1796500D01*
G37*
G36*
X88527627Y3484201D02*
G01*
X88601098Y3461914D01*
X88687855Y3435597D01*
X88687857Y3435596D01*
X88835518Y3356669D01*
X88964949Y3250449D01*
X89071169Y3121018D01*
X89150096Y2973357D01*
X89198701Y2813127D01*
X89215112Y2646500D01*
X89198701Y2479873D01*
X89150096Y2319643D01*
X89071169Y2171982D01*
X88964949Y2042551D01*
X88835518Y1936331D01*
X88687857Y1857404D01*
X88687855Y1857403D01*
X88607742Y1833101D01*
X88527627Y1808799D01*
X88402752Y1796500D01*
X88319248Y1796500D01*
X88194373Y1808799D01*
X88114258Y1833101D01*
X88034145Y1857403D01*
X88034143Y1857404D01*
X87886482Y1936331D01*
X87757051Y2042551D01*
X87650831Y2171982D01*
X87571904Y2319643D01*
X87523299Y2479873D01*
X87506888Y2646500D01*
X87523299Y2813127D01*
X87571904Y2973357D01*
X87650831Y3121018D01*
X87757051Y3250449D01*
X87886482Y3356669D01*
X88034143Y3435596D01*
X88034145Y3435597D01*
X88120902Y3461914D01*
X88194373Y3484201D01*
X88319248Y3496500D01*
X88402752Y3496500D01*
X88527627Y3484201D01*
X88527627Y3484201D01*
G37*
G36*
X80271000Y1796500D02*
G01*
X78571000Y1796500D01*
X78571000Y3496500D01*
X80271000Y3496500D01*
X80271000Y1796500D01*
X80271000Y1796500D01*
G37*
G36*
X4086203Y5158014D02*
G01*
X4377383Y5037403D01*
X4639440Y4862302D01*
X4862302Y4639440D01*
X5037403Y4377383D01*
X5158014Y4086203D01*
X5219500Y3777088D01*
X5219500Y3461912D01*
X5158014Y3152797D01*
X5037403Y2861617D01*
X4862302Y2599560D01*
X4639440Y2376698D01*
X4377383Y2201597D01*
X4086203Y2080986D01*
X3777088Y2019500D01*
X3461912Y2019500D01*
X3152797Y2080986D01*
X2861617Y2201597D01*
X2599560Y2376698D01*
X2376698Y2599560D01*
X2201597Y2861617D01*
X2080986Y3152797D01*
X2019500Y3461912D01*
X2019500Y3777088D01*
X2080986Y4086203D01*
X2201597Y4377383D01*
X2376698Y4639440D01*
X2599560Y4862302D01*
X2861617Y5037403D01*
X3152797Y5158014D01*
X3461912Y5219500D01*
X3777088Y5219500D01*
X4086203Y5158014D01*
X4086203Y5158014D01*
G37*
G36*
X95527703Y5585014D02*
G01*
X95818883Y5464403D01*
X96080940Y5289302D01*
X96303802Y5066440D01*
X96478903Y4804383D01*
X96599514Y4513203D01*
X96661000Y4204088D01*
X96661000Y3888912D01*
X96599514Y3579797D01*
X96478903Y3288617D01*
X96303802Y3026560D01*
X96080940Y2803698D01*
X95818883Y2628597D01*
X95527703Y2507986D01*
X95218588Y2446500D01*
X94903412Y2446500D01*
X94594297Y2507986D01*
X94303117Y2628597D01*
X94041060Y2803698D01*
X93818198Y3026560D01*
X93643097Y3288617D01*
X93522486Y3579797D01*
X93461000Y3888912D01*
X93461000Y4204088D01*
X93522486Y4513203D01*
X93643097Y4804383D01*
X93818198Y5066440D01*
X94041060Y5289302D01*
X94303117Y5464403D01*
X94594297Y5585014D01*
X94903412Y5646500D01*
X95218588Y5646500D01*
X95527703Y5585014D01*
X95527703Y5585014D01*
G37*
G36*
X60047627Y4384201D02*
G01*
X60127742Y4359898D01*
X60207855Y4335597D01*
X60207857Y4335596D01*
X60355518Y4256669D01*
X60484949Y4150449D01*
X60591169Y4021018D01*
X60670096Y3873357D01*
X60718701Y3713127D01*
X60735112Y3546500D01*
X60718701Y3379873D01*
X60670096Y3219643D01*
X60591169Y3071982D01*
X60484949Y2942551D01*
X60355518Y2836331D01*
X60294468Y2803699D01*
X60207855Y2757403D01*
X60127742Y2733101D01*
X60047627Y2708799D01*
X59922752Y2696500D01*
X59839248Y2696500D01*
X59714373Y2708799D01*
X59634258Y2733101D01*
X59554145Y2757403D01*
X59467532Y2803699D01*
X59406482Y2836331D01*
X59277051Y2942551D01*
X59170831Y3071982D01*
X59091904Y3219643D01*
X59043299Y3379873D01*
X59026888Y3546500D01*
X59043299Y3713127D01*
X59091904Y3873357D01*
X59170831Y4021018D01*
X59277051Y4150449D01*
X59406482Y4256669D01*
X59554143Y4335596D01*
X59554145Y4335597D01*
X59634258Y4359898D01*
X59714373Y4384201D01*
X59839248Y4396500D01*
X59922752Y4396500D01*
X60047627Y4384201D01*
X60047627Y4384201D01*
G37*
G36*
X62587627Y4384201D02*
G01*
X62667742Y4359898D01*
X62747855Y4335597D01*
X62747857Y4335596D01*
X62895518Y4256669D01*
X63024949Y4150449D01*
X63131169Y4021018D01*
X63210096Y3873357D01*
X63258701Y3713127D01*
X63275112Y3546500D01*
X63258701Y3379873D01*
X63210096Y3219643D01*
X63131169Y3071982D01*
X63024949Y2942551D01*
X62895518Y2836331D01*
X62834468Y2803699D01*
X62747855Y2757403D01*
X62667742Y2733101D01*
X62587627Y2708799D01*
X62462752Y2696500D01*
X62379248Y2696500D01*
X62254373Y2708799D01*
X62174258Y2733101D01*
X62094145Y2757403D01*
X62007532Y2803699D01*
X61946482Y2836331D01*
X61817051Y2942551D01*
X61710831Y3071982D01*
X61631904Y3219643D01*
X61583299Y3379873D01*
X61566888Y3546500D01*
X61583299Y3713127D01*
X61631904Y3873357D01*
X61710831Y4021018D01*
X61817051Y4150449D01*
X61946482Y4256669D01*
X62094143Y4335596D01*
X62094145Y4335597D01*
X62174258Y4359898D01*
X62254373Y4384201D01*
X62379248Y4396500D01*
X62462752Y4396500D01*
X62587627Y4384201D01*
X62587627Y4384201D01*
G37*
G36*
X65811000Y2696500D02*
G01*
X64111000Y2696500D01*
X64111000Y4396500D01*
X65811000Y4396500D01*
X65811000Y2696500D01*
X65811000Y2696500D01*
G37*
G36*
X51561000Y4046500D02*
G01*
X49161000Y4046500D01*
X49161000Y6446500D01*
X51561000Y6446500D01*
X51561000Y4046500D01*
X51561000Y4046500D01*
G37*
G36*
X38011026Y6400385D02*
G01*
X38229411Y6309927D01*
X38229413Y6309926D01*
X38425955Y6178601D01*
X38593101Y6011455D01*
X38724427Y5814911D01*
X38814885Y5596526D01*
X38861000Y5364691D01*
X38861000Y5128309D01*
X38814885Y4896474D01*
X38724427Y4678089D01*
X38724426Y4678087D01*
X38593101Y4481545D01*
X38425955Y4314399D01*
X38229413Y4183074D01*
X38229412Y4183073D01*
X38229411Y4183073D01*
X38011026Y4092615D01*
X37779191Y4046500D01*
X37542809Y4046500D01*
X37310974Y4092615D01*
X37092589Y4183073D01*
X37092588Y4183073D01*
X37092587Y4183074D01*
X36896045Y4314399D01*
X36728899Y4481545D01*
X36597574Y4678087D01*
X36597573Y4678089D01*
X36507115Y4896474D01*
X36461000Y5128309D01*
X36461000Y5364691D01*
X36507115Y5596526D01*
X36597573Y5814911D01*
X36728899Y6011455D01*
X36896045Y6178601D01*
X37092587Y6309926D01*
X37092589Y6309927D01*
X37310974Y6400385D01*
X37542809Y6446500D01*
X37779191Y6446500D01*
X38011026Y6400385D01*
X38011026Y6400385D01*
G37*
G36*
X35361000Y4046500D02*
G01*
X32961000Y4046500D01*
X32961000Y6446500D01*
X35361000Y6446500D01*
X35361000Y4046500D01*
X35361000Y4046500D01*
G37*
G36*
X46111026Y6400385D02*
G01*
X46329411Y6309927D01*
X46329413Y6309926D01*
X46525955Y6178601D01*
X46693101Y6011455D01*
X46824427Y5814911D01*
X46914885Y5596526D01*
X46961000Y5364691D01*
X46961000Y5128309D01*
X46914885Y4896474D01*
X46824427Y4678089D01*
X46824426Y4678087D01*
X46693101Y4481545D01*
X46525955Y4314399D01*
X46329413Y4183074D01*
X46329412Y4183073D01*
X46329411Y4183073D01*
X46111026Y4092615D01*
X45879191Y4046500D01*
X45642809Y4046500D01*
X45410974Y4092615D01*
X45192589Y4183073D01*
X45192588Y4183073D01*
X45192587Y4183074D01*
X44996045Y4314399D01*
X44828899Y4481545D01*
X44697574Y4678087D01*
X44697573Y4678089D01*
X44607115Y4896474D01*
X44561000Y5128309D01*
X44561000Y5364691D01*
X44607115Y5596526D01*
X44697573Y5814911D01*
X44828899Y6011455D01*
X44996045Y6178601D01*
X45192587Y6309926D01*
X45192589Y6309927D01*
X45410974Y6400385D01*
X45642809Y6446500D01*
X45879191Y6446500D01*
X46111026Y6400385D01*
X46111026Y6400385D01*
G37*
G36*
X29911026Y6400385D02*
G01*
X30129411Y6309927D01*
X30129413Y6309926D01*
X30325955Y6178601D01*
X30493101Y6011455D01*
X30624427Y5814911D01*
X30714885Y5596526D01*
X30761000Y5364691D01*
X30761000Y5128309D01*
X30714885Y4896474D01*
X30624427Y4678089D01*
X30624426Y4678087D01*
X30493101Y4481545D01*
X30325955Y4314399D01*
X30129413Y4183074D01*
X30129412Y4183073D01*
X30129411Y4183073D01*
X29911026Y4092615D01*
X29679191Y4046500D01*
X29442809Y4046500D01*
X29210974Y4092615D01*
X28992589Y4183073D01*
X28992588Y4183073D01*
X28992587Y4183074D01*
X28796045Y4314399D01*
X28628899Y4481545D01*
X28497574Y4678087D01*
X28497573Y4678089D01*
X28407115Y4896474D01*
X28361000Y5128309D01*
X28361000Y5364691D01*
X28407115Y5596526D01*
X28497573Y5814911D01*
X28628899Y6011455D01*
X28796045Y6178601D01*
X28992587Y6309926D01*
X28992589Y6309927D01*
X29210974Y6400385D01*
X29442809Y6446500D01*
X29679191Y6446500D01*
X29911026Y6400385D01*
X29911026Y6400385D01*
G37*
G36*
X27261000Y4046500D02*
G01*
X24861000Y4046500D01*
X24861000Y6446500D01*
X27261000Y6446500D01*
X27261000Y4046500D01*
X27261000Y4046500D01*
G37*
G36*
X21811026Y6400385D02*
G01*
X22029411Y6309927D01*
X22029413Y6309926D01*
X22225955Y6178601D01*
X22393101Y6011455D01*
X22524427Y5814911D01*
X22614885Y5596526D01*
X22661000Y5364691D01*
X22661000Y5128309D01*
X22614885Y4896474D01*
X22524427Y4678089D01*
X22524426Y4678087D01*
X22393101Y4481545D01*
X22225955Y4314399D01*
X22029413Y4183074D01*
X22029412Y4183073D01*
X22029411Y4183073D01*
X21811026Y4092615D01*
X21579191Y4046500D01*
X21342809Y4046500D01*
X21110974Y4092615D01*
X20892589Y4183073D01*
X20892588Y4183073D01*
X20892587Y4183074D01*
X20696045Y4314399D01*
X20528899Y4481545D01*
X20397574Y4678087D01*
X20397573Y4678089D01*
X20307115Y4896474D01*
X20261000Y5128309D01*
X20261000Y5364691D01*
X20307115Y5596526D01*
X20397573Y5814911D01*
X20528899Y6011455D01*
X20696045Y6178601D01*
X20892587Y6309926D01*
X20892589Y6309927D01*
X21110974Y6400385D01*
X21342809Y6446500D01*
X21579191Y6446500D01*
X21811026Y6400385D01*
X21811026Y6400385D01*
G37*
G36*
X19161000Y4046500D02*
G01*
X16761000Y4046500D01*
X16761000Y6446500D01*
X19161000Y6446500D01*
X19161000Y4046500D01*
X19161000Y4046500D01*
G37*
G36*
X13711026Y6400385D02*
G01*
X13929411Y6309927D01*
X13929413Y6309926D01*
X14125955Y6178601D01*
X14293101Y6011455D01*
X14424427Y5814911D01*
X14514885Y5596526D01*
X14561000Y5364691D01*
X14561000Y5128309D01*
X14514885Y4896474D01*
X14424427Y4678089D01*
X14424426Y4678087D01*
X14293101Y4481545D01*
X14125955Y4314399D01*
X13929413Y4183074D01*
X13929412Y4183073D01*
X13929411Y4183073D01*
X13711026Y4092615D01*
X13479191Y4046500D01*
X13242809Y4046500D01*
X13010974Y4092615D01*
X12792589Y4183073D01*
X12792588Y4183073D01*
X12792587Y4183074D01*
X12596045Y4314399D01*
X12428899Y4481545D01*
X12297574Y4678087D01*
X12297573Y4678089D01*
X12207115Y4896474D01*
X12161000Y5128309D01*
X12161000Y5364691D01*
X12207115Y5596526D01*
X12297573Y5814911D01*
X12428899Y6011455D01*
X12596045Y6178601D01*
X12792587Y6309926D01*
X12792589Y6309927D01*
X13010974Y6400385D01*
X13242809Y6446500D01*
X13479191Y6446500D01*
X13711026Y6400385D01*
X13711026Y6400385D01*
G37*
G36*
X11061000Y4046500D02*
G01*
X8661000Y4046500D01*
X8661000Y6446500D01*
X11061000Y6446500D01*
X11061000Y4046500D01*
X11061000Y4046500D01*
G37*
G36*
X43461000Y4046500D02*
G01*
X41061000Y4046500D01*
X41061000Y6446500D01*
X43461000Y6446500D01*
X43461000Y4046500D01*
X43461000Y4046500D01*
G37*
G36*
X54211026Y6400385D02*
G01*
X54429411Y6309927D01*
X54429413Y6309926D01*
X54625955Y6178601D01*
X54793101Y6011455D01*
X54924427Y5814911D01*
X55014885Y5596526D01*
X55061000Y5364691D01*
X55061000Y5128309D01*
X55014885Y4896474D01*
X54924427Y4678089D01*
X54924426Y4678087D01*
X54793101Y4481545D01*
X54625955Y4314399D01*
X54429413Y4183074D01*
X54429412Y4183073D01*
X54429411Y4183073D01*
X54211026Y4092615D01*
X53979191Y4046500D01*
X53742809Y4046500D01*
X53510974Y4092615D01*
X53292589Y4183073D01*
X53292588Y4183073D01*
X53292587Y4183074D01*
X53096045Y4314399D01*
X52928899Y4481545D01*
X52797574Y4678087D01*
X52797573Y4678089D01*
X52707115Y4896474D01*
X52661000Y5128309D01*
X52661000Y5364691D01*
X52707115Y5596526D01*
X52797573Y5814911D01*
X52928899Y6011455D01*
X53096045Y6178601D01*
X53292587Y6309926D01*
X53292589Y6309927D01*
X53510974Y6400385D01*
X53742809Y6446500D01*
X53979191Y6446500D01*
X54211026Y6400385D01*
X54211026Y6400385D01*
G37*
G36*
X3194195Y9638978D02*
G01*
X3243267Y9629217D01*
X3381942Y9571776D01*
X3506747Y9488384D01*
X3612884Y9382247D01*
X3696276Y9257442D01*
X3753717Y9118767D01*
X3783000Y8971550D01*
X3783000Y8821450D01*
X3753717Y8674233D01*
X3696276Y8535558D01*
X3612884Y8410753D01*
X3506747Y8304616D01*
X3381942Y8221224D01*
X3243267Y8163783D01*
X3194195Y8154022D01*
X3096052Y8134500D01*
X2945948Y8134500D01*
X2847805Y8154022D01*
X2798733Y8163783D01*
X2660058Y8221224D01*
X2535253Y8304616D01*
X2429116Y8410753D01*
X2345724Y8535558D01*
X2288283Y8674233D01*
X2259000Y8821450D01*
X2259000Y8971550D01*
X2288283Y9118767D01*
X2345724Y9257442D01*
X2429116Y9382247D01*
X2535253Y9488384D01*
X2660058Y9571776D01*
X2798733Y9629217D01*
X2847805Y9638978D01*
X2945948Y9658500D01*
X3096052Y9658500D01*
X3194195Y9638978D01*
X3194195Y9638978D01*
G37*
G36*
X66694195Y9638978D02*
G01*
X66743267Y9629217D01*
X66881942Y9571776D01*
X67006747Y9488384D01*
X67112884Y9382247D01*
X67196276Y9257442D01*
X67253717Y9118767D01*
X67283000Y8971550D01*
X67283000Y8821450D01*
X67253717Y8674233D01*
X67196276Y8535558D01*
X67112884Y8410753D01*
X67006747Y8304616D01*
X66881942Y8221224D01*
X66743267Y8163783D01*
X66694195Y8154022D01*
X66596052Y8134500D01*
X66445948Y8134500D01*
X66347805Y8154022D01*
X66298733Y8163783D01*
X66160058Y8221224D01*
X66035253Y8304616D01*
X65929116Y8410753D01*
X65845724Y8535558D01*
X65788283Y8674233D01*
X65759000Y8821450D01*
X65759000Y8971550D01*
X65788283Y9118767D01*
X65845724Y9257442D01*
X65929116Y9382247D01*
X66035253Y9488384D01*
X66160058Y9571776D01*
X66298733Y9629217D01*
X66347805Y9638978D01*
X66445948Y9658500D01*
X66596052Y9658500D01*
X66694195Y9638978D01*
X66694195Y9638978D01*
G37*
G36*
X64154195Y9638978D02*
G01*
X64203267Y9629217D01*
X64341942Y9571776D01*
X64466747Y9488384D01*
X64572884Y9382247D01*
X64656276Y9257442D01*
X64713717Y9118767D01*
X64743000Y8971550D01*
X64743000Y8821450D01*
X64713717Y8674233D01*
X64656276Y8535558D01*
X64572884Y8410753D01*
X64466747Y8304616D01*
X64341942Y8221224D01*
X64203267Y8163783D01*
X64154195Y8154022D01*
X64056052Y8134500D01*
X63905948Y8134500D01*
X63807805Y8154022D01*
X63758733Y8163783D01*
X63620058Y8221224D01*
X63495253Y8304616D01*
X63389116Y8410753D01*
X63305724Y8535558D01*
X63248283Y8674233D01*
X63219000Y8821450D01*
X63219000Y8971550D01*
X63248283Y9118767D01*
X63305724Y9257442D01*
X63389116Y9382247D01*
X63495253Y9488384D01*
X63620058Y9571776D01*
X63758733Y9629217D01*
X63807805Y9638978D01*
X63905948Y9658500D01*
X64056052Y9658500D01*
X64154195Y9638978D01*
X64154195Y9638978D01*
G37*
G36*
X5734195Y9638978D02*
G01*
X5783267Y9629217D01*
X5921942Y9571776D01*
X6046747Y9488384D01*
X6152884Y9382247D01*
X6236276Y9257442D01*
X6293717Y9118767D01*
X6323000Y8971550D01*
X6323000Y8821450D01*
X6293717Y8674233D01*
X6236276Y8535558D01*
X6152884Y8410753D01*
X6046747Y8304616D01*
X5921942Y8221224D01*
X5783267Y8163783D01*
X5734195Y8154022D01*
X5636052Y8134500D01*
X5485948Y8134500D01*
X5387805Y8154022D01*
X5338733Y8163783D01*
X5200058Y8221224D01*
X5075253Y8304616D01*
X4969116Y8410753D01*
X4885724Y8535558D01*
X4828283Y8674233D01*
X4799000Y8821450D01*
X4799000Y8971550D01*
X4828283Y9118767D01*
X4885724Y9257442D01*
X4969116Y9382247D01*
X5075253Y9488384D01*
X5200058Y9571776D01*
X5338733Y9629217D01*
X5387805Y9638978D01*
X5485948Y9658500D01*
X5636052Y9658500D01*
X5734195Y9638978D01*
X5734195Y9638978D01*
G37*
G36*
X5734195Y12178978D02*
G01*
X5783267Y12169217D01*
X5921942Y12111776D01*
X6046747Y12028384D01*
X6152884Y11922247D01*
X6236276Y11797442D01*
X6275817Y11701981D01*
X6293717Y11658766D01*
X6323000Y11511552D01*
X6323000Y11361448D01*
X6316048Y11326500D01*
X6293717Y11214233D01*
X6236276Y11075558D01*
X6152884Y10950753D01*
X6046747Y10844616D01*
X5921942Y10761224D01*
X5783267Y10703783D01*
X5734195Y10694022D01*
X5636052Y10674500D01*
X5485948Y10674500D01*
X5387805Y10694022D01*
X5338733Y10703783D01*
X5200058Y10761224D01*
X5075253Y10844616D01*
X4969116Y10950753D01*
X4885724Y11075558D01*
X4828283Y11214233D01*
X4805952Y11326500D01*
X4799000Y11361448D01*
X4799000Y11511552D01*
X4828283Y11658766D01*
X4846183Y11701981D01*
X4885724Y11797442D01*
X4969116Y11922247D01*
X5075253Y12028384D01*
X5200058Y12111776D01*
X5338733Y12169217D01*
X5387805Y12178978D01*
X5485948Y12198500D01*
X5636052Y12198500D01*
X5734195Y12178978D01*
X5734195Y12178978D01*
G37*
G36*
X64154195Y12178978D02*
G01*
X64203267Y12169217D01*
X64341942Y12111776D01*
X64466747Y12028384D01*
X64572884Y11922247D01*
X64656276Y11797442D01*
X64695817Y11701981D01*
X64713717Y11658766D01*
X64743000Y11511552D01*
X64743000Y11361448D01*
X64736048Y11326500D01*
X64713717Y11214233D01*
X64656276Y11075558D01*
X64572884Y10950753D01*
X64466747Y10844616D01*
X64341942Y10761224D01*
X64203267Y10703783D01*
X64154195Y10694022D01*
X64056052Y10674500D01*
X63905948Y10674500D01*
X63807805Y10694022D01*
X63758733Y10703783D01*
X63620058Y10761224D01*
X63495253Y10844616D01*
X63389116Y10950753D01*
X63305724Y11075558D01*
X63248283Y11214233D01*
X63225952Y11326500D01*
X63219000Y11361448D01*
X63219000Y11511552D01*
X63248283Y11658766D01*
X63266183Y11701981D01*
X63305724Y11797442D01*
X63389116Y11922247D01*
X63495253Y12028384D01*
X63620058Y12111776D01*
X63758733Y12169217D01*
X63807805Y12178978D01*
X63905948Y12198500D01*
X64056052Y12198500D01*
X64154195Y12178978D01*
X64154195Y12178978D01*
G37*
G36*
X66694195Y12178978D02*
G01*
X66743267Y12169217D01*
X66881942Y12111776D01*
X67006747Y12028384D01*
X67112884Y11922247D01*
X67196276Y11797442D01*
X67235817Y11701981D01*
X67253717Y11658766D01*
X67283000Y11511552D01*
X67283000Y11361448D01*
X67276048Y11326500D01*
X67253717Y11214233D01*
X67196276Y11075558D01*
X67112884Y10950753D01*
X67006747Y10844616D01*
X66881942Y10761224D01*
X66743267Y10703783D01*
X66694195Y10694022D01*
X66596052Y10674500D01*
X66445948Y10674500D01*
X66347805Y10694022D01*
X66298733Y10703783D01*
X66160058Y10761224D01*
X66035253Y10844616D01*
X65929116Y10950753D01*
X65845724Y11075558D01*
X65788283Y11214233D01*
X65765952Y11326500D01*
X65759000Y11361448D01*
X65759000Y11511552D01*
X65788283Y11658766D01*
X65806183Y11701981D01*
X65845724Y11797442D01*
X65929116Y11922247D01*
X66035253Y12028384D01*
X66160058Y12111776D01*
X66298733Y12169217D01*
X66347805Y12178978D01*
X66445948Y12198500D01*
X66596052Y12198500D01*
X66694195Y12178978D01*
X66694195Y12178978D01*
G37*
G36*
X3194195Y12178978D02*
G01*
X3243267Y12169217D01*
X3381942Y12111776D01*
X3506747Y12028384D01*
X3612884Y11922247D01*
X3696276Y11797442D01*
X3735817Y11701981D01*
X3753717Y11658766D01*
X3783000Y11511552D01*
X3783000Y11361448D01*
X3776048Y11326500D01*
X3753717Y11214233D01*
X3696276Y11075558D01*
X3612884Y10950753D01*
X3506747Y10844616D01*
X3381942Y10761224D01*
X3243267Y10703783D01*
X3194195Y10694022D01*
X3096052Y10674500D01*
X2945948Y10674500D01*
X2847805Y10694022D01*
X2798733Y10703783D01*
X2660058Y10761224D01*
X2535253Y10844616D01*
X2429116Y10950753D01*
X2345724Y11075558D01*
X2288283Y11214233D01*
X2265952Y11326500D01*
X2259000Y11361448D01*
X2259000Y11511552D01*
X2288283Y11658766D01*
X2306183Y11701981D01*
X2345724Y11797442D01*
X2429116Y11922247D01*
X2535253Y12028384D01*
X2660058Y12111776D01*
X2798733Y12169217D01*
X2847805Y12178978D01*
X2945948Y12198500D01*
X3096052Y12198500D01*
X3194195Y12178978D01*
X3194195Y12178978D01*
G37*
G36*
X95777627Y13014201D02*
G01*
X95857742Y12989898D01*
X95937855Y12965597D01*
X95937857Y12965596D01*
X96085518Y12886669D01*
X96214949Y12780449D01*
X96321169Y12651018D01*
X96400096Y12503357D01*
X96448701Y12343127D01*
X96465112Y12176500D01*
X96448701Y12009873D01*
X96400096Y11849643D01*
X96321169Y11701982D01*
X96214949Y11572551D01*
X96085518Y11466331D01*
X95937857Y11387404D01*
X95937855Y11387403D01*
X95857742Y11363102D01*
X95777627Y11338799D01*
X95652752Y11326500D01*
X95569248Y11326500D01*
X95444373Y11338799D01*
X95364258Y11363102D01*
X95284145Y11387403D01*
X95284143Y11387404D01*
X95136482Y11466331D01*
X95007051Y11572551D01*
X94900831Y11701982D01*
X94821904Y11849643D01*
X94773299Y12009873D01*
X94756888Y12176500D01*
X94773299Y12343127D01*
X94821904Y12503357D01*
X94900831Y12651018D01*
X95007051Y12780449D01*
X95136482Y12886669D01*
X95284143Y12965596D01*
X95284145Y12965597D01*
X95364258Y12989898D01*
X95444373Y13014201D01*
X95569248Y13026500D01*
X95652752Y13026500D01*
X95777627Y13014201D01*
X95777627Y13014201D01*
G37*
G36*
X5734195Y14718978D02*
G01*
X5783267Y14709217D01*
X5921942Y14651776D01*
X6046747Y14568384D01*
X6152884Y14462247D01*
X6236276Y14337442D01*
X6275817Y14241981D01*
X6293717Y14198766D01*
X6323000Y14051552D01*
X6323000Y13901448D01*
X6316048Y13866500D01*
X6293717Y13754233D01*
X6236276Y13615558D01*
X6152884Y13490753D01*
X6046747Y13384616D01*
X5921942Y13301224D01*
X5783267Y13243783D01*
X5734195Y13234022D01*
X5636052Y13214500D01*
X5485948Y13214500D01*
X5387805Y13234022D01*
X5338733Y13243783D01*
X5200058Y13301224D01*
X5075253Y13384616D01*
X4969116Y13490753D01*
X4885724Y13615558D01*
X4828283Y13754233D01*
X4805952Y13866500D01*
X4799000Y13901448D01*
X4799000Y14051552D01*
X4828283Y14198766D01*
X4846183Y14241981D01*
X4885724Y14337442D01*
X4969116Y14462247D01*
X5075253Y14568384D01*
X5200058Y14651776D01*
X5338733Y14709217D01*
X5387805Y14718978D01*
X5485948Y14738500D01*
X5636052Y14738500D01*
X5734195Y14718978D01*
X5734195Y14718978D01*
G37*
G36*
X66694195Y14718978D02*
G01*
X66743267Y14709217D01*
X66881942Y14651776D01*
X67006747Y14568384D01*
X67112884Y14462247D01*
X67196276Y14337442D01*
X67235817Y14241981D01*
X67253717Y14198766D01*
X67283000Y14051552D01*
X67283000Y13901448D01*
X67276048Y13866500D01*
X67253717Y13754233D01*
X67196276Y13615558D01*
X67112884Y13490753D01*
X67006747Y13384616D01*
X66881942Y13301224D01*
X66743267Y13243783D01*
X66694195Y13234022D01*
X66596052Y13214500D01*
X66445948Y13214500D01*
X66347805Y13234022D01*
X66298733Y13243783D01*
X66160058Y13301224D01*
X66035253Y13384616D01*
X65929116Y13490753D01*
X65845724Y13615558D01*
X65788283Y13754233D01*
X65765952Y13866500D01*
X65759000Y13901448D01*
X65759000Y14051552D01*
X65788283Y14198766D01*
X65806183Y14241981D01*
X65845724Y14337442D01*
X65929116Y14462247D01*
X66035253Y14568384D01*
X66160058Y14651776D01*
X66298733Y14709217D01*
X66347805Y14718978D01*
X66445948Y14738500D01*
X66596052Y14738500D01*
X66694195Y14718978D01*
X66694195Y14718978D01*
G37*
G36*
X64154195Y14718978D02*
G01*
X64203267Y14709217D01*
X64341942Y14651776D01*
X64466747Y14568384D01*
X64572884Y14462247D01*
X64656276Y14337442D01*
X64695817Y14241981D01*
X64713717Y14198766D01*
X64743000Y14051552D01*
X64743000Y13901448D01*
X64736048Y13866500D01*
X64713717Y13754233D01*
X64656276Y13615558D01*
X64572884Y13490753D01*
X64466747Y13384616D01*
X64341942Y13301224D01*
X64203267Y13243783D01*
X64154195Y13234022D01*
X64056052Y13214500D01*
X63905948Y13214500D01*
X63807805Y13234022D01*
X63758733Y13243783D01*
X63620058Y13301224D01*
X63495253Y13384616D01*
X63389116Y13490753D01*
X63305724Y13615558D01*
X63248283Y13754233D01*
X63225952Y13866500D01*
X63219000Y13901448D01*
X63219000Y14051552D01*
X63248283Y14198766D01*
X63266183Y14241981D01*
X63305724Y14337442D01*
X63389116Y14462247D01*
X63495253Y14568384D01*
X63620058Y14651776D01*
X63758733Y14709217D01*
X63807805Y14718978D01*
X63905948Y14738500D01*
X64056052Y14738500D01*
X64154195Y14718978D01*
X64154195Y14718978D01*
G37*
G36*
X3194195Y14718978D02*
G01*
X3243267Y14709217D01*
X3381942Y14651776D01*
X3506747Y14568384D01*
X3612884Y14462247D01*
X3696276Y14337442D01*
X3735817Y14241981D01*
X3753717Y14198766D01*
X3783000Y14051552D01*
X3783000Y13901448D01*
X3776048Y13866500D01*
X3753717Y13754233D01*
X3696276Y13615558D01*
X3612884Y13490753D01*
X3506747Y13384616D01*
X3381942Y13301224D01*
X3243267Y13243783D01*
X3194195Y13234022D01*
X3096052Y13214500D01*
X2945948Y13214500D01*
X2847805Y13234022D01*
X2798733Y13243783D01*
X2660058Y13301224D01*
X2535253Y13384616D01*
X2429116Y13490753D01*
X2345724Y13615558D01*
X2288283Y13754233D01*
X2265952Y13866500D01*
X2259000Y13901448D01*
X2259000Y14051552D01*
X2288283Y14198766D01*
X2306183Y14241981D01*
X2345724Y14337442D01*
X2429116Y14462247D01*
X2535253Y14568384D01*
X2660058Y14651776D01*
X2798733Y14709217D01*
X2847805Y14718978D01*
X2945948Y14738500D01*
X3096052Y14738500D01*
X3194195Y14718978D01*
X3194195Y14718978D01*
G37*
G36*
X95777627Y15554201D02*
G01*
X95857742Y15529899D01*
X95937855Y15505597D01*
X95937857Y15505596D01*
X96085518Y15426669D01*
X96214949Y15320449D01*
X96321169Y15191018D01*
X96400096Y15043357D01*
X96448701Y14883127D01*
X96465112Y14716500D01*
X96448701Y14549873D01*
X96400096Y14389643D01*
X96321169Y14241982D01*
X96214949Y14112551D01*
X96085518Y14006331D01*
X95937857Y13927404D01*
X95937855Y13927403D01*
X95857742Y13903102D01*
X95777627Y13878799D01*
X95652752Y13866500D01*
X95569248Y13866500D01*
X95444373Y13878799D01*
X95364258Y13903102D01*
X95284145Y13927403D01*
X95284143Y13927404D01*
X95136482Y14006331D01*
X95007051Y14112551D01*
X94900831Y14241982D01*
X94821904Y14389643D01*
X94773299Y14549873D01*
X94756888Y14716500D01*
X94773299Y14883127D01*
X94821904Y15043357D01*
X94900831Y15191018D01*
X95007051Y15320449D01*
X95136482Y15426669D01*
X95284143Y15505596D01*
X95284145Y15505597D01*
X95364258Y15529899D01*
X95444373Y15554201D01*
X95569248Y15566500D01*
X95652752Y15566500D01*
X95777627Y15554201D01*
X95777627Y15554201D01*
G37*
G36*
X66694195Y17258978D02*
G01*
X66743267Y17249217D01*
X66881942Y17191776D01*
X67006747Y17108384D01*
X67112884Y17002247D01*
X67196276Y16877442D01*
X67253717Y16738767D01*
X67253717Y16738766D01*
X67283000Y16591552D01*
X67283000Y16441448D01*
X67276048Y16406500D01*
X67253717Y16294233D01*
X67196276Y16155558D01*
X67112884Y16030753D01*
X67006747Y15924616D01*
X66881942Y15841224D01*
X66743267Y15783783D01*
X66694195Y15774022D01*
X66596052Y15754500D01*
X66445948Y15754500D01*
X66347805Y15774022D01*
X66298733Y15783783D01*
X66160058Y15841224D01*
X66035253Y15924616D01*
X65929116Y16030753D01*
X65845724Y16155558D01*
X65788283Y16294233D01*
X65765952Y16406500D01*
X65759000Y16441448D01*
X65759000Y16591552D01*
X65788283Y16738766D01*
X65788283Y16738767D01*
X65845724Y16877442D01*
X65929116Y17002247D01*
X66035253Y17108384D01*
X66160058Y17191776D01*
X66298733Y17249217D01*
X66347805Y17258978D01*
X66445948Y17278500D01*
X66596052Y17278500D01*
X66694195Y17258978D01*
X66694195Y17258978D01*
G37*
G36*
X64154195Y17258978D02*
G01*
X64203267Y17249217D01*
X64341942Y17191776D01*
X64466747Y17108384D01*
X64572884Y17002247D01*
X64656276Y16877442D01*
X64713717Y16738767D01*
X64713717Y16738766D01*
X64743000Y16591552D01*
X64743000Y16441448D01*
X64736048Y16406500D01*
X64713717Y16294233D01*
X64656276Y16155558D01*
X64572884Y16030753D01*
X64466747Y15924616D01*
X64341942Y15841224D01*
X64203267Y15783783D01*
X64154195Y15774022D01*
X64056052Y15754500D01*
X63905948Y15754500D01*
X63807805Y15774022D01*
X63758733Y15783783D01*
X63620058Y15841224D01*
X63495253Y15924616D01*
X63389116Y16030753D01*
X63305724Y16155558D01*
X63248283Y16294233D01*
X63225952Y16406500D01*
X63219000Y16441448D01*
X63219000Y16591552D01*
X63248283Y16738766D01*
X63248283Y16738767D01*
X63305724Y16877442D01*
X63389116Y17002247D01*
X63495253Y17108384D01*
X63620058Y17191776D01*
X63758733Y17249217D01*
X63807805Y17258978D01*
X63905948Y17278500D01*
X64056052Y17278500D01*
X64154195Y17258978D01*
X64154195Y17258978D01*
G37*
G36*
X5734195Y17258978D02*
G01*
X5783267Y17249217D01*
X5921942Y17191776D01*
X6046747Y17108384D01*
X6152884Y17002247D01*
X6236276Y16877442D01*
X6293717Y16738767D01*
X6293717Y16738766D01*
X6323000Y16591552D01*
X6323000Y16441448D01*
X6316048Y16406500D01*
X6293717Y16294233D01*
X6236276Y16155558D01*
X6152884Y16030753D01*
X6046747Y15924616D01*
X5921942Y15841224D01*
X5783267Y15783783D01*
X5734195Y15774022D01*
X5636052Y15754500D01*
X5485948Y15754500D01*
X5387805Y15774022D01*
X5338733Y15783783D01*
X5200058Y15841224D01*
X5075253Y15924616D01*
X4969116Y16030753D01*
X4885724Y16155558D01*
X4828283Y16294233D01*
X4805952Y16406500D01*
X4799000Y16441448D01*
X4799000Y16591552D01*
X4828283Y16738766D01*
X4828283Y16738767D01*
X4885724Y16877442D01*
X4969116Y17002247D01*
X5075253Y17108384D01*
X5200058Y17191776D01*
X5338733Y17249217D01*
X5387805Y17258978D01*
X5485948Y17278500D01*
X5636052Y17278500D01*
X5734195Y17258978D01*
X5734195Y17258978D01*
G37*
G36*
X3194195Y17258978D02*
G01*
X3243267Y17249217D01*
X3381942Y17191776D01*
X3506747Y17108384D01*
X3612884Y17002247D01*
X3696276Y16877442D01*
X3753717Y16738767D01*
X3753717Y16738766D01*
X3783000Y16591552D01*
X3783000Y16441448D01*
X3776048Y16406500D01*
X3753717Y16294233D01*
X3696276Y16155558D01*
X3612884Y16030753D01*
X3506747Y15924616D01*
X3381942Y15841224D01*
X3243267Y15783783D01*
X3194195Y15774022D01*
X3096052Y15754500D01*
X2945948Y15754500D01*
X2847805Y15774022D01*
X2798733Y15783783D01*
X2660058Y15841224D01*
X2535253Y15924616D01*
X2429116Y16030753D01*
X2345724Y16155558D01*
X2288283Y16294233D01*
X2265952Y16406500D01*
X2259000Y16441448D01*
X2259000Y16591552D01*
X2288283Y16738766D01*
X2288283Y16738767D01*
X2345724Y16877442D01*
X2429116Y17002247D01*
X2535253Y17108384D01*
X2660058Y17191776D01*
X2798733Y17249217D01*
X2847805Y17258978D01*
X2945948Y17278500D01*
X3096052Y17278500D01*
X3194195Y17258978D01*
X3194195Y17258978D01*
G37*
G36*
X95777627Y18094201D02*
G01*
X95857742Y18069898D01*
X95937855Y18045597D01*
X95937857Y18045596D01*
X96085518Y17966669D01*
X96214949Y17860449D01*
X96321168Y17731019D01*
X96400097Y17583355D01*
X96424398Y17503242D01*
X96448701Y17423127D01*
X96465112Y17256500D01*
X96448701Y17089873D01*
X96400096Y16929643D01*
X96321169Y16781982D01*
X96214949Y16652551D01*
X96085518Y16546331D01*
X95937857Y16467404D01*
X95937855Y16467403D01*
X95857742Y16443101D01*
X95777627Y16418799D01*
X95652752Y16406500D01*
X95569248Y16406500D01*
X95444373Y16418799D01*
X95364258Y16443101D01*
X95284145Y16467403D01*
X95284143Y16467404D01*
X95136482Y16546331D01*
X95007051Y16652551D01*
X94900831Y16781982D01*
X94821904Y16929643D01*
X94773299Y17089873D01*
X94756888Y17256500D01*
X94773299Y17423127D01*
X94797601Y17503242D01*
X94821903Y17583355D01*
X94900832Y17731019D01*
X95007051Y17860449D01*
X95136482Y17966669D01*
X95284143Y18045596D01*
X95284145Y18045597D01*
X95364258Y18069898D01*
X95444373Y18094201D01*
X95569248Y18106500D01*
X95652752Y18106500D01*
X95777627Y18094201D01*
X95777627Y18094201D01*
G37*
G36*
X46727627Y18384201D02*
G01*
X46807742Y18359899D01*
X46887855Y18335597D01*
X46887857Y18335596D01*
X47035518Y18256669D01*
X47164949Y18150449D01*
X47271169Y18021018D01*
X47350096Y17873357D01*
X47398701Y17713127D01*
X47415112Y17546500D01*
X47398701Y17379873D01*
X47398700Y17379871D01*
X47361277Y17256500D01*
X47350096Y17219643D01*
X47271169Y17071982D01*
X47164949Y16942551D01*
X47035518Y16836331D01*
X46918528Y16773798D01*
X46887855Y16757403D01*
X46807742Y16733102D01*
X46727627Y16708799D01*
X46602752Y16696500D01*
X46519248Y16696500D01*
X46394373Y16708799D01*
X46314258Y16733102D01*
X46234145Y16757403D01*
X46203472Y16773798D01*
X46086482Y16836331D01*
X45957051Y16942551D01*
X45850831Y17071982D01*
X45771904Y17219643D01*
X45760724Y17256500D01*
X45723300Y17379871D01*
X45723299Y17379873D01*
X45706888Y17546500D01*
X45723299Y17713127D01*
X45771904Y17873357D01*
X45850831Y18021018D01*
X45957051Y18150449D01*
X46086482Y18256669D01*
X46234143Y18335596D01*
X46234145Y18335597D01*
X46314258Y18359899D01*
X46394373Y18384201D01*
X46519248Y18396500D01*
X46602752Y18396500D01*
X46727627Y18384201D01*
X46727627Y18384201D01*
G37*
G36*
X53792628Y18449200D02*
G01*
X53872743Y18424897D01*
X53952856Y18400596D01*
X53952858Y18400595D01*
X54100519Y18321668D01*
X54229950Y18215448D01*
X54336170Y18086017D01*
X54415097Y17938356D01*
X54463702Y17778126D01*
X54480113Y17611499D01*
X54463702Y17444872D01*
X54415097Y17284642D01*
X54336170Y17136981D01*
X54229950Y17007550D01*
X54100519Y16901330D01*
X53978917Y16836332D01*
X53952856Y16822402D01*
X53872743Y16798100D01*
X53792628Y16773798D01*
X53667753Y16761499D01*
X53584249Y16761499D01*
X53459374Y16773798D01*
X53379259Y16798100D01*
X53299146Y16822402D01*
X53273085Y16836332D01*
X53151483Y16901330D01*
X53022052Y17007550D01*
X52915832Y17136981D01*
X52836905Y17284642D01*
X52788300Y17444872D01*
X52771889Y17611499D01*
X52788300Y17778126D01*
X52836905Y17938356D01*
X52915832Y18086017D01*
X53022052Y18215448D01*
X53151483Y18321668D01*
X53299144Y18400595D01*
X53299146Y18400596D01*
X53379259Y18424897D01*
X53459374Y18449200D01*
X53584249Y18461499D01*
X53667753Y18461499D01*
X53792628Y18449200D01*
X53792628Y18449200D01*
G37*
G36*
X70111000Y17396500D02*
G01*
X68411000Y17396500D01*
X68411000Y19096500D01*
X70111000Y19096500D01*
X70111000Y17396500D01*
X70111000Y17396500D01*
G37*
G36*
X64154195Y19798978D02*
G01*
X64203267Y19789217D01*
X64341942Y19731776D01*
X64466747Y19648384D01*
X64572884Y19542247D01*
X64656276Y19417442D01*
X64713717Y19278767D01*
X64743000Y19131550D01*
X64743000Y18981450D01*
X64713717Y18834233D01*
X64656276Y18695558D01*
X64572884Y18570753D01*
X64466747Y18464616D01*
X64341942Y18381224D01*
X64203267Y18323783D01*
X64154195Y18314022D01*
X64056052Y18294500D01*
X63905948Y18294500D01*
X63807805Y18314022D01*
X63758733Y18323783D01*
X63620058Y18381224D01*
X63495253Y18464616D01*
X63389116Y18570753D01*
X63305724Y18695558D01*
X63248283Y18834233D01*
X63219000Y18981450D01*
X63219000Y19131550D01*
X63248283Y19278767D01*
X63305724Y19417442D01*
X63389116Y19542247D01*
X63495253Y19648384D01*
X63620058Y19731776D01*
X63758733Y19789217D01*
X63807805Y19798978D01*
X63905948Y19818500D01*
X64056052Y19818500D01*
X64154195Y19798978D01*
X64154195Y19798978D01*
G37*
G36*
X66694195Y19798978D02*
G01*
X66743267Y19789217D01*
X66881942Y19731776D01*
X67006747Y19648384D01*
X67112884Y19542247D01*
X67196276Y19417442D01*
X67253717Y19278767D01*
X67283000Y19131550D01*
X67283000Y18981450D01*
X67253717Y18834233D01*
X67196276Y18695558D01*
X67112884Y18570753D01*
X67006747Y18464616D01*
X66881942Y18381224D01*
X66743267Y18323783D01*
X66694195Y18314022D01*
X66596052Y18294500D01*
X66445948Y18294500D01*
X66347805Y18314022D01*
X66298733Y18323783D01*
X66160058Y18381224D01*
X66035253Y18464616D01*
X65929116Y18570753D01*
X65845724Y18695558D01*
X65788283Y18834233D01*
X65759000Y18981450D01*
X65759000Y19131550D01*
X65788283Y19278767D01*
X65845724Y19417442D01*
X65929116Y19542247D01*
X66035253Y19648384D01*
X66160058Y19731776D01*
X66298733Y19789217D01*
X66347805Y19798978D01*
X66445948Y19818500D01*
X66596052Y19818500D01*
X66694195Y19798978D01*
X66694195Y19798978D01*
G37*
G36*
X5734195Y19798978D02*
G01*
X5783267Y19789217D01*
X5921942Y19731776D01*
X6046747Y19648384D01*
X6152884Y19542247D01*
X6236276Y19417442D01*
X6293717Y19278767D01*
X6323000Y19131550D01*
X6323000Y18981450D01*
X6293717Y18834233D01*
X6236276Y18695558D01*
X6152884Y18570753D01*
X6046747Y18464616D01*
X5921942Y18381224D01*
X5783267Y18323783D01*
X5734195Y18314022D01*
X5636052Y18294500D01*
X5485948Y18294500D01*
X5387805Y18314022D01*
X5338733Y18323783D01*
X5200058Y18381224D01*
X5075253Y18464616D01*
X4969116Y18570753D01*
X4885724Y18695558D01*
X4828283Y18834233D01*
X4799000Y18981450D01*
X4799000Y19131550D01*
X4828283Y19278767D01*
X4885724Y19417442D01*
X4969116Y19542247D01*
X5075253Y19648384D01*
X5200058Y19731776D01*
X5338733Y19789217D01*
X5387805Y19798978D01*
X5485948Y19818500D01*
X5636052Y19818500D01*
X5734195Y19798978D01*
X5734195Y19798978D01*
G37*
G36*
X3194195Y19798978D02*
G01*
X3243267Y19789217D01*
X3381942Y19731776D01*
X3506747Y19648384D01*
X3612884Y19542247D01*
X3696276Y19417442D01*
X3753717Y19278767D01*
X3783000Y19131550D01*
X3783000Y18981450D01*
X3753717Y18834233D01*
X3696276Y18695558D01*
X3612884Y18570753D01*
X3506747Y18464616D01*
X3381942Y18381224D01*
X3243267Y18323783D01*
X3194195Y18314022D01*
X3096052Y18294500D01*
X2945948Y18294500D01*
X2847805Y18314022D01*
X2798733Y18323783D01*
X2660058Y18381224D01*
X2535253Y18464616D01*
X2429116Y18570753D01*
X2345724Y18695558D01*
X2288283Y18834233D01*
X2259000Y18981450D01*
X2259000Y19131550D01*
X2288283Y19278767D01*
X2345724Y19417442D01*
X2429116Y19542247D01*
X2535253Y19648384D01*
X2660058Y19731776D01*
X2798733Y19789217D01*
X2847805Y19798978D01*
X2945948Y19818500D01*
X3096052Y19818500D01*
X3194195Y19798978D01*
X3194195Y19798978D01*
G37*
G36*
X96461000Y18946500D02*
G01*
X94761000Y18946500D01*
X94761000Y20646500D01*
X96461000Y20646500D01*
X96461000Y18946500D01*
X96461000Y18946500D01*
G37*
G36*
X47411000Y19236500D02*
G01*
X45711000Y19236500D01*
X45711000Y20936500D01*
X47411000Y20936500D01*
X47411000Y19236500D01*
X47411000Y19236500D01*
G37*
G36*
X54476001Y19301499D02*
G01*
X52776001Y19301499D01*
X52776001Y21001499D01*
X54476001Y21001499D01*
X54476001Y19301499D01*
X54476001Y19301499D01*
G37*
G36*
X69427627Y21624201D02*
G01*
X69507742Y21599898D01*
X69587855Y21575597D01*
X69587857Y21575596D01*
X69735518Y21496669D01*
X69864949Y21390449D01*
X69971169Y21261018D01*
X70050096Y21113357D01*
X70098701Y20953127D01*
X70115112Y20786500D01*
X70098701Y20619873D01*
X70050096Y20459643D01*
X69971169Y20311982D01*
X69864949Y20182551D01*
X69735518Y20076331D01*
X69587857Y19997404D01*
X69587855Y19997403D01*
X69507742Y19973102D01*
X69427627Y19948799D01*
X69302752Y19936500D01*
X69219248Y19936500D01*
X69094373Y19948799D01*
X69014258Y19973102D01*
X68934145Y19997403D01*
X68934143Y19997404D01*
X68786482Y20076331D01*
X68657051Y20182551D01*
X68550831Y20311982D01*
X68471904Y20459643D01*
X68423299Y20619873D01*
X68406888Y20786500D01*
X68423299Y20953127D01*
X68471904Y21113357D01*
X68550831Y21261018D01*
X68657051Y21390449D01*
X68786482Y21496669D01*
X68934143Y21575596D01*
X68934145Y21575597D01*
X69014258Y21599898D01*
X69094373Y21624201D01*
X69219248Y21636500D01*
X69302752Y21636500D01*
X69427627Y21624201D01*
X69427627Y21624201D01*
G37*
G36*
X66694195Y22338978D02*
G01*
X66743267Y22329217D01*
X66881942Y22271776D01*
X67006747Y22188384D01*
X67112884Y22082247D01*
X67196276Y21957442D01*
X67253717Y21818767D01*
X67283000Y21671550D01*
X67283000Y21521450D01*
X67253717Y21374233D01*
X67196276Y21235558D01*
X67112884Y21110753D01*
X67006747Y21004616D01*
X66881942Y20921224D01*
X66743267Y20863783D01*
X66694195Y20854022D01*
X66596052Y20834500D01*
X66445948Y20834500D01*
X66347805Y20854022D01*
X66298733Y20863783D01*
X66160058Y20921224D01*
X66035253Y21004616D01*
X65929116Y21110753D01*
X65845724Y21235558D01*
X65788283Y21374233D01*
X65759000Y21521450D01*
X65759000Y21671550D01*
X65788283Y21818767D01*
X65845724Y21957442D01*
X65929116Y22082247D01*
X66035253Y22188384D01*
X66160058Y22271776D01*
X66298733Y22329217D01*
X66347805Y22338978D01*
X66445948Y22358500D01*
X66596052Y22358500D01*
X66694195Y22338978D01*
X66694195Y22338978D01*
G37*
G36*
X5734195Y22338978D02*
G01*
X5783267Y22329217D01*
X5921942Y22271776D01*
X6046747Y22188384D01*
X6152884Y22082247D01*
X6236276Y21957442D01*
X6293717Y21818767D01*
X6323000Y21671550D01*
X6323000Y21521450D01*
X6293717Y21374233D01*
X6236276Y21235558D01*
X6152884Y21110753D01*
X6046747Y21004616D01*
X5921942Y20921224D01*
X5783267Y20863783D01*
X5734195Y20854022D01*
X5636052Y20834500D01*
X5485948Y20834500D01*
X5387805Y20854022D01*
X5338733Y20863783D01*
X5200058Y20921224D01*
X5075253Y21004616D01*
X4969116Y21110753D01*
X4885724Y21235558D01*
X4828283Y21374233D01*
X4799000Y21521450D01*
X4799000Y21671550D01*
X4828283Y21818767D01*
X4885724Y21957442D01*
X4969116Y22082247D01*
X5075253Y22188384D01*
X5200058Y22271776D01*
X5338733Y22329217D01*
X5387805Y22338978D01*
X5485948Y22358500D01*
X5636052Y22358500D01*
X5734195Y22338978D01*
X5734195Y22338978D01*
G37*
G36*
X3194195Y22338978D02*
G01*
X3243267Y22329217D01*
X3381942Y22271776D01*
X3506747Y22188384D01*
X3612884Y22082247D01*
X3696276Y21957442D01*
X3753717Y21818767D01*
X3783000Y21671550D01*
X3783000Y21521450D01*
X3753717Y21374233D01*
X3696276Y21235558D01*
X3612884Y21110753D01*
X3506747Y21004616D01*
X3381942Y20921224D01*
X3243267Y20863783D01*
X3194195Y20854022D01*
X3096052Y20834500D01*
X2945948Y20834500D01*
X2847805Y20854022D01*
X2798733Y20863783D01*
X2660058Y20921224D01*
X2535253Y21004616D01*
X2429116Y21110753D01*
X2345724Y21235558D01*
X2288283Y21374233D01*
X2259000Y21521450D01*
X2259000Y21671550D01*
X2288283Y21818767D01*
X2345724Y21957442D01*
X2429116Y22082247D01*
X2535253Y22188384D01*
X2660058Y22271776D01*
X2798733Y22329217D01*
X2847805Y22338978D01*
X2945948Y22358500D01*
X3096052Y22358500D01*
X3194195Y22338978D01*
X3194195Y22338978D01*
G37*
G36*
X64154195Y22338978D02*
G01*
X64203267Y22329217D01*
X64341942Y22271776D01*
X64466747Y22188384D01*
X64572884Y22082247D01*
X64656276Y21957442D01*
X64713717Y21818767D01*
X64743000Y21671550D01*
X64743000Y21521450D01*
X64713717Y21374233D01*
X64656276Y21235558D01*
X64572884Y21110753D01*
X64466747Y21004616D01*
X64341942Y20921224D01*
X64203267Y20863783D01*
X64154195Y20854022D01*
X64056052Y20834500D01*
X63905948Y20834500D01*
X63807805Y20854022D01*
X63758733Y20863783D01*
X63620058Y20921224D01*
X63495253Y21004616D01*
X63389116Y21110753D01*
X63305724Y21235558D01*
X63248283Y21374233D01*
X63219000Y21521450D01*
X63219000Y21671550D01*
X63248283Y21818767D01*
X63305724Y21957442D01*
X63389116Y22082247D01*
X63495253Y22188384D01*
X63620058Y22271776D01*
X63758733Y22329217D01*
X63807805Y22338978D01*
X63905948Y22358500D01*
X64056052Y22358500D01*
X64154195Y22338978D01*
X64154195Y22338978D01*
G37*
G36*
X28845712Y22605935D02*
G01*
X28930295Y22597604D01*
X29093084Y22548222D01*
X29093087Y22548221D01*
X29243107Y22468034D01*
X29243108Y22468033D01*
X29243112Y22468031D01*
X29374612Y22360112D01*
X29482531Y22228612D01*
X29482533Y22228608D01*
X29482534Y22228607D01*
X29562721Y22078587D01*
X29562722Y22078584D01*
X29612104Y21915795D01*
X29628778Y21746500D01*
X29612104Y21577205D01*
X29595190Y21521448D01*
X29562721Y21414413D01*
X29541244Y21374233D01*
X29482531Y21264388D01*
X29374612Y21132888D01*
X29243112Y21024969D01*
X29243108Y21024967D01*
X29243107Y21024966D01*
X29093087Y20944779D01*
X29093084Y20944778D01*
X28930295Y20895396D01*
X28845712Y20887065D01*
X28803421Y20882900D01*
X28718579Y20882900D01*
X28676288Y20887065D01*
X28591705Y20895396D01*
X28428916Y20944778D01*
X28428913Y20944779D01*
X28278893Y21024966D01*
X28278892Y21024967D01*
X28278888Y21024969D01*
X28147388Y21132888D01*
X28039469Y21264388D01*
X27980756Y21374233D01*
X27959279Y21414413D01*
X27926810Y21521448D01*
X27909896Y21577205D01*
X27893222Y21746500D01*
X27909896Y21915795D01*
X27959278Y22078584D01*
X27959279Y22078587D01*
X28039466Y22228607D01*
X28039467Y22228608D01*
X28039469Y22228612D01*
X28147388Y22360112D01*
X28278888Y22468031D01*
X28278892Y22468033D01*
X28278893Y22468034D01*
X28428913Y22548221D01*
X28428916Y22548222D01*
X28591705Y22597604D01*
X28676288Y22605935D01*
X28718579Y22610100D01*
X28803421Y22610100D01*
X28845712Y22605935D01*
X28845712Y22605935D01*
G37*
G36*
X31385712Y22605935D02*
G01*
X31470295Y22597604D01*
X31633084Y22548222D01*
X31633087Y22548221D01*
X31783107Y22468034D01*
X31783108Y22468033D01*
X31783112Y22468031D01*
X31914612Y22360112D01*
X32022531Y22228612D01*
X32022533Y22228608D01*
X32022534Y22228607D01*
X32102721Y22078587D01*
X32102722Y22078584D01*
X32152104Y21915795D01*
X32168778Y21746500D01*
X32152104Y21577205D01*
X32135190Y21521448D01*
X32102721Y21414413D01*
X32081244Y21374233D01*
X32022531Y21264388D01*
X31914612Y21132888D01*
X31783112Y21024969D01*
X31783108Y21024967D01*
X31783107Y21024966D01*
X31633087Y20944779D01*
X31633084Y20944778D01*
X31470295Y20895396D01*
X31385712Y20887065D01*
X31343421Y20882900D01*
X31258579Y20882900D01*
X31216288Y20887065D01*
X31131705Y20895396D01*
X30968916Y20944778D01*
X30968913Y20944779D01*
X30818893Y21024966D01*
X30818892Y21024967D01*
X30818888Y21024969D01*
X30687388Y21132888D01*
X30579469Y21264388D01*
X30520756Y21374233D01*
X30499279Y21414413D01*
X30466810Y21521448D01*
X30449896Y21577205D01*
X30433222Y21746500D01*
X30449896Y21915795D01*
X30499278Y22078584D01*
X30499279Y22078587D01*
X30579466Y22228607D01*
X30579467Y22228608D01*
X30579469Y22228612D01*
X30687388Y22360112D01*
X30818888Y22468031D01*
X30818892Y22468033D01*
X30818893Y22468034D01*
X30968913Y22548221D01*
X30968916Y22548222D01*
X31131705Y22597604D01*
X31216288Y22605935D01*
X31258579Y22610100D01*
X31343421Y22610100D01*
X31385712Y22605935D01*
X31385712Y22605935D01*
G37*
G36*
X53827627Y24744201D02*
G01*
X53907742Y24719898D01*
X53987855Y24695597D01*
X53987857Y24695596D01*
X54135518Y24616669D01*
X54264949Y24510449D01*
X54371168Y24381019D01*
X54450097Y24233355D01*
X54456711Y24211550D01*
X54498701Y24073127D01*
X54515112Y23906500D01*
X54498701Y23739873D01*
X54450096Y23579643D01*
X54371169Y23431982D01*
X54264949Y23302551D01*
X54135518Y23196331D01*
X53987857Y23117404D01*
X53987855Y23117403D01*
X53907742Y23093101D01*
X53827627Y23068799D01*
X53702752Y23056500D01*
X53619248Y23056500D01*
X53494373Y23068799D01*
X53414258Y23093101D01*
X53334145Y23117403D01*
X53334143Y23117404D01*
X53186482Y23196331D01*
X53057051Y23302551D01*
X52950831Y23431982D01*
X52871904Y23579643D01*
X52823299Y23739873D01*
X52806888Y23906500D01*
X52823299Y24073127D01*
X52865289Y24211550D01*
X52871903Y24233355D01*
X52950832Y24381019D01*
X53057051Y24510449D01*
X53186482Y24616669D01*
X53334143Y24695596D01*
X53334145Y24695597D01*
X53414258Y24719898D01*
X53494373Y24744201D01*
X53619248Y24756500D01*
X53702752Y24756500D01*
X53827627Y24744201D01*
X53827627Y24744201D01*
G37*
G36*
X66694195Y24878978D02*
G01*
X66743267Y24869217D01*
X66881942Y24811776D01*
X67006747Y24728384D01*
X67112884Y24622247D01*
X67196276Y24497442D01*
X67244500Y24381019D01*
X67253717Y24358766D01*
X67278663Y24233357D01*
X67283000Y24211550D01*
X67283000Y24061450D01*
X67253717Y23914233D01*
X67196276Y23775558D01*
X67112884Y23650753D01*
X67006747Y23544616D01*
X66881942Y23461224D01*
X66743267Y23403783D01*
X66694195Y23394022D01*
X66596052Y23374500D01*
X66445948Y23374500D01*
X66347805Y23394022D01*
X66298733Y23403783D01*
X66160058Y23461224D01*
X66035253Y23544616D01*
X65929116Y23650753D01*
X65845724Y23775558D01*
X65788283Y23914233D01*
X65759000Y24061450D01*
X65759000Y24211550D01*
X65763338Y24233357D01*
X65788283Y24358766D01*
X65797500Y24381019D01*
X65845724Y24497442D01*
X65929116Y24622247D01*
X66035253Y24728384D01*
X66160058Y24811776D01*
X66298733Y24869217D01*
X66347805Y24878978D01*
X66445948Y24898500D01*
X66596052Y24898500D01*
X66694195Y24878978D01*
X66694195Y24878978D01*
G37*
G36*
X64154195Y24878978D02*
G01*
X64203267Y24869217D01*
X64341942Y24811776D01*
X64466747Y24728384D01*
X64572884Y24622247D01*
X64656276Y24497442D01*
X64704500Y24381019D01*
X64713717Y24358766D01*
X64738663Y24233357D01*
X64743000Y24211550D01*
X64743000Y24061450D01*
X64713717Y23914233D01*
X64656276Y23775558D01*
X64572884Y23650753D01*
X64466747Y23544616D01*
X64341942Y23461224D01*
X64203267Y23403783D01*
X64154195Y23394022D01*
X64056052Y23374500D01*
X63905948Y23374500D01*
X63807805Y23394022D01*
X63758733Y23403783D01*
X63620058Y23461224D01*
X63495253Y23544616D01*
X63389116Y23650753D01*
X63305724Y23775558D01*
X63248283Y23914233D01*
X63219000Y24061450D01*
X63219000Y24211550D01*
X63223338Y24233357D01*
X63248283Y24358766D01*
X63257500Y24381019D01*
X63305724Y24497442D01*
X63389116Y24622247D01*
X63495253Y24728384D01*
X63620058Y24811776D01*
X63758733Y24869217D01*
X63807805Y24878978D01*
X63905948Y24898500D01*
X64056052Y24898500D01*
X64154195Y24878978D01*
X64154195Y24878978D01*
G37*
G36*
X5734195Y24878978D02*
G01*
X5783267Y24869217D01*
X5921942Y24811776D01*
X6046747Y24728384D01*
X6152884Y24622247D01*
X6236276Y24497442D01*
X6284500Y24381019D01*
X6293717Y24358766D01*
X6318663Y24233357D01*
X6323000Y24211550D01*
X6323000Y24061450D01*
X6293717Y23914233D01*
X6236276Y23775558D01*
X6152884Y23650753D01*
X6046747Y23544616D01*
X5921942Y23461224D01*
X5783267Y23403783D01*
X5734195Y23394022D01*
X5636052Y23374500D01*
X5485948Y23374500D01*
X5387805Y23394022D01*
X5338733Y23403783D01*
X5200058Y23461224D01*
X5075253Y23544616D01*
X4969116Y23650753D01*
X4885724Y23775558D01*
X4828283Y23914233D01*
X4799000Y24061450D01*
X4799000Y24211550D01*
X4803338Y24233357D01*
X4828283Y24358766D01*
X4837500Y24381019D01*
X4885724Y24497442D01*
X4969116Y24622247D01*
X5075253Y24728384D01*
X5200058Y24811776D01*
X5338733Y24869217D01*
X5387805Y24878978D01*
X5485948Y24898500D01*
X5636052Y24898500D01*
X5734195Y24878978D01*
X5734195Y24878978D01*
G37*
G36*
X3194195Y24878978D02*
G01*
X3243267Y24869217D01*
X3381942Y24811776D01*
X3506747Y24728384D01*
X3612884Y24622247D01*
X3696276Y24497442D01*
X3744500Y24381019D01*
X3753717Y24358766D01*
X3778663Y24233357D01*
X3783000Y24211550D01*
X3783000Y24061450D01*
X3753717Y23914233D01*
X3696276Y23775558D01*
X3612884Y23650753D01*
X3506747Y23544616D01*
X3381942Y23461224D01*
X3243267Y23403783D01*
X3194195Y23394022D01*
X3096052Y23374500D01*
X2945948Y23374500D01*
X2847805Y23394022D01*
X2798733Y23403783D01*
X2660058Y23461224D01*
X2535253Y23544616D01*
X2429116Y23650753D01*
X2345724Y23775558D01*
X2288283Y23914233D01*
X2259000Y24061450D01*
X2259000Y24211550D01*
X2263338Y24233357D01*
X2288283Y24358766D01*
X2297500Y24381019D01*
X2345724Y24497442D01*
X2429116Y24622247D01*
X2535253Y24728384D01*
X2660058Y24811776D01*
X2798733Y24869217D01*
X2847805Y24878978D01*
X2945948Y24898500D01*
X3096052Y24898500D01*
X3194195Y24878978D01*
X3194195Y24878978D01*
G37*
G36*
X31385712Y25145935D02*
G01*
X31470295Y25137604D01*
X31633084Y25088222D01*
X31633087Y25088221D01*
X31783107Y25008034D01*
X31783108Y25008033D01*
X31783112Y25008031D01*
X31914612Y24900112D01*
X32022531Y24768612D01*
X32022533Y24768608D01*
X32022534Y24768607D01*
X32102721Y24618587D01*
X32102722Y24618584D01*
X32152104Y24455795D01*
X32168778Y24286500D01*
X32152104Y24117205D01*
X32135190Y24061448D01*
X32102721Y23954413D01*
X32081244Y23914233D01*
X32022531Y23804388D01*
X31914612Y23672888D01*
X31783112Y23564969D01*
X31783108Y23564967D01*
X31783107Y23564966D01*
X31633087Y23484779D01*
X31633084Y23484778D01*
X31470295Y23435396D01*
X31385712Y23427065D01*
X31343421Y23422900D01*
X31258579Y23422900D01*
X31216288Y23427065D01*
X31131705Y23435396D01*
X30968916Y23484778D01*
X30968913Y23484779D01*
X30818893Y23564966D01*
X30818892Y23564967D01*
X30818888Y23564969D01*
X30687388Y23672888D01*
X30579469Y23804388D01*
X30520756Y23914233D01*
X30499279Y23954413D01*
X30466810Y24061448D01*
X30449896Y24117205D01*
X30433222Y24286500D01*
X30449896Y24455795D01*
X30499278Y24618584D01*
X30499279Y24618587D01*
X30579466Y24768607D01*
X30579467Y24768608D01*
X30579469Y24768612D01*
X30687388Y24900112D01*
X30818888Y25008031D01*
X30818892Y25008033D01*
X30818893Y25008034D01*
X30968913Y25088221D01*
X30968916Y25088222D01*
X31131705Y25137604D01*
X31216288Y25145935D01*
X31258579Y25150100D01*
X31343421Y25150100D01*
X31385712Y25145935D01*
X31385712Y25145935D01*
G37*
G36*
X28845712Y25145935D02*
G01*
X28930295Y25137604D01*
X29093084Y25088222D01*
X29093087Y25088221D01*
X29243107Y25008034D01*
X29243108Y25008033D01*
X29243112Y25008031D01*
X29374612Y24900112D01*
X29482531Y24768612D01*
X29482533Y24768608D01*
X29482534Y24768607D01*
X29562721Y24618587D01*
X29562722Y24618584D01*
X29612104Y24455795D01*
X29628778Y24286500D01*
X29612104Y24117205D01*
X29595190Y24061448D01*
X29562721Y23954413D01*
X29541244Y23914233D01*
X29482531Y23804388D01*
X29374612Y23672888D01*
X29243112Y23564969D01*
X29243108Y23564967D01*
X29243107Y23564966D01*
X29093087Y23484779D01*
X29093084Y23484778D01*
X28930295Y23435396D01*
X28845712Y23427065D01*
X28803421Y23422900D01*
X28718579Y23422900D01*
X28676288Y23427065D01*
X28591705Y23435396D01*
X28428916Y23484778D01*
X28428913Y23484779D01*
X28278893Y23564966D01*
X28278892Y23564967D01*
X28278888Y23564969D01*
X28147388Y23672888D01*
X28039469Y23804388D01*
X27980756Y23914233D01*
X27959279Y23954413D01*
X27926810Y24061448D01*
X27909896Y24117205D01*
X27893222Y24286500D01*
X27909896Y24455795D01*
X27959278Y24618584D01*
X27959279Y24618587D01*
X28039466Y24768607D01*
X28039467Y24768608D01*
X28039469Y24768612D01*
X28147388Y24900112D01*
X28278888Y25008031D01*
X28278892Y25008033D01*
X28278893Y25008034D01*
X28428913Y25088221D01*
X28428916Y25088222D01*
X28591705Y25137604D01*
X28676288Y25145935D01*
X28718579Y25150100D01*
X28803421Y25150100D01*
X28845712Y25145935D01*
X28845712Y25145935D01*
G37*
G36*
X19311000Y24696500D02*
G01*
X17611000Y24696500D01*
X17611000Y26396500D01*
X19311000Y26396500D01*
X19311000Y24696500D01*
X19311000Y24696500D01*
G37*
G36*
X23211000Y24696500D02*
G01*
X21511000Y24696500D01*
X21511000Y26396500D01*
X23211000Y26396500D01*
X23211000Y24696500D01*
X23211000Y24696500D01*
G37*
G36*
X54511000Y25596500D02*
G01*
X52811000Y25596500D01*
X52811000Y27296500D01*
X54511000Y27296500D01*
X54511000Y25596500D01*
X54511000Y25596500D01*
G37*
G36*
X66694195Y27418978D02*
G01*
X66743267Y27409217D01*
X66881942Y27351776D01*
X67006747Y27268384D01*
X67112884Y27162247D01*
X67196276Y27037442D01*
X67253717Y26898767D01*
X67283000Y26751550D01*
X67283000Y26601450D01*
X67253717Y26454233D01*
X67196276Y26315558D01*
X67112884Y26190753D01*
X67006747Y26084616D01*
X66881942Y26001224D01*
X66743267Y25943783D01*
X66694195Y25934022D01*
X66596052Y25914500D01*
X66445948Y25914500D01*
X66347805Y25934022D01*
X66298733Y25943783D01*
X66160058Y26001224D01*
X66035253Y26084616D01*
X65929116Y26190753D01*
X65845724Y26315558D01*
X65788283Y26454233D01*
X65759000Y26601450D01*
X65759000Y26751550D01*
X65788283Y26898767D01*
X65845724Y27037442D01*
X65929116Y27162247D01*
X66035253Y27268384D01*
X66160058Y27351776D01*
X66298733Y27409217D01*
X66347805Y27418978D01*
X66445948Y27438500D01*
X66596052Y27438500D01*
X66694195Y27418978D01*
X66694195Y27418978D01*
G37*
G36*
X64154195Y27418978D02*
G01*
X64203267Y27409217D01*
X64341942Y27351776D01*
X64466747Y27268384D01*
X64572884Y27162247D01*
X64656276Y27037442D01*
X64713717Y26898767D01*
X64743000Y26751550D01*
X64743000Y26601450D01*
X64713717Y26454233D01*
X64656276Y26315558D01*
X64572884Y26190753D01*
X64466747Y26084616D01*
X64341942Y26001224D01*
X64203267Y25943783D01*
X64154195Y25934022D01*
X64056052Y25914500D01*
X63905948Y25914500D01*
X63807805Y25934022D01*
X63758733Y25943783D01*
X63620058Y26001224D01*
X63495253Y26084616D01*
X63389116Y26190753D01*
X63305724Y26315558D01*
X63248283Y26454233D01*
X63219000Y26601450D01*
X63219000Y26751550D01*
X63248283Y26898767D01*
X63305724Y27037442D01*
X63389116Y27162247D01*
X63495253Y27268384D01*
X63620058Y27351776D01*
X63758733Y27409217D01*
X63807805Y27418978D01*
X63905948Y27438500D01*
X64056052Y27438500D01*
X64154195Y27418978D01*
X64154195Y27418978D01*
G37*
G36*
X5734195Y27418978D02*
G01*
X5783267Y27409217D01*
X5921942Y27351776D01*
X6046747Y27268384D01*
X6152884Y27162247D01*
X6236276Y27037442D01*
X6293717Y26898767D01*
X6323000Y26751550D01*
X6323000Y26601450D01*
X6293717Y26454233D01*
X6236276Y26315558D01*
X6152884Y26190753D01*
X6046747Y26084616D01*
X5921942Y26001224D01*
X5783267Y25943783D01*
X5734195Y25934022D01*
X5636052Y25914500D01*
X5485948Y25914500D01*
X5387805Y25934022D01*
X5338733Y25943783D01*
X5200058Y26001224D01*
X5075253Y26084616D01*
X4969116Y26190753D01*
X4885724Y26315558D01*
X4828283Y26454233D01*
X4799000Y26601450D01*
X4799000Y26751550D01*
X4828283Y26898767D01*
X4885724Y27037442D01*
X4969116Y27162247D01*
X5075253Y27268384D01*
X5200058Y27351776D01*
X5338733Y27409217D01*
X5387805Y27418978D01*
X5485948Y27438500D01*
X5636052Y27438500D01*
X5734195Y27418978D01*
X5734195Y27418978D01*
G37*
G36*
X3194195Y27418978D02*
G01*
X3243267Y27409217D01*
X3381942Y27351776D01*
X3506747Y27268384D01*
X3612884Y27162247D01*
X3696276Y27037442D01*
X3753717Y26898767D01*
X3783000Y26751550D01*
X3783000Y26601450D01*
X3753717Y26454233D01*
X3696276Y26315558D01*
X3612884Y26190753D01*
X3506747Y26084616D01*
X3381942Y26001224D01*
X3243267Y25943783D01*
X3194195Y25934022D01*
X3096052Y25914500D01*
X2945948Y25914500D01*
X2847805Y25934022D01*
X2798733Y25943783D01*
X2660058Y26001224D01*
X2535253Y26084616D01*
X2429116Y26190753D01*
X2345724Y26315558D01*
X2288283Y26454233D01*
X2259000Y26601450D01*
X2259000Y26751550D01*
X2288283Y26898767D01*
X2345724Y27037442D01*
X2429116Y27162247D01*
X2535253Y27268384D01*
X2660058Y27351776D01*
X2798733Y27409217D01*
X2847805Y27418978D01*
X2945948Y27438500D01*
X3096052Y27438500D01*
X3194195Y27418978D01*
X3194195Y27418978D01*
G37*
G36*
X31385712Y27685935D02*
G01*
X31470295Y27677604D01*
X31633084Y27628222D01*
X31633087Y27628221D01*
X31783107Y27548034D01*
X31783108Y27548033D01*
X31783112Y27548031D01*
X31914612Y27440112D01*
X32022531Y27308612D01*
X32022533Y27308608D01*
X32022534Y27308607D01*
X32102721Y27158587D01*
X32102722Y27158584D01*
X32152104Y26995795D01*
X32168778Y26826500D01*
X32152104Y26657205D01*
X32135190Y26601448D01*
X32102721Y26494413D01*
X32022534Y26344393D01*
X32022531Y26344388D01*
X31914612Y26212888D01*
X31783112Y26104969D01*
X31783108Y26104967D01*
X31783107Y26104966D01*
X31633087Y26024779D01*
X31633084Y26024778D01*
X31470295Y25975396D01*
X31385712Y25967065D01*
X31343421Y25962900D01*
X31258579Y25962900D01*
X31216288Y25967065D01*
X31131705Y25975396D01*
X30968916Y26024778D01*
X30968913Y26024779D01*
X30818893Y26104966D01*
X30818892Y26104967D01*
X30818888Y26104969D01*
X30687388Y26212888D01*
X30579469Y26344388D01*
X30579466Y26344393D01*
X30499279Y26494413D01*
X30466810Y26601448D01*
X30449896Y26657205D01*
X30433222Y26826500D01*
X30449896Y26995795D01*
X30499278Y27158584D01*
X30499279Y27158587D01*
X30579466Y27308607D01*
X30579467Y27308608D01*
X30579469Y27308612D01*
X30687388Y27440112D01*
X30818888Y27548031D01*
X30818892Y27548033D01*
X30818893Y27548034D01*
X30968913Y27628221D01*
X30968916Y27628222D01*
X31131705Y27677604D01*
X31216288Y27685935D01*
X31258579Y27690100D01*
X31343421Y27690100D01*
X31385712Y27685935D01*
X31385712Y27685935D01*
G37*
G36*
X28845712Y27685935D02*
G01*
X28930295Y27677604D01*
X29093084Y27628222D01*
X29093087Y27628221D01*
X29243107Y27548034D01*
X29243108Y27548033D01*
X29243112Y27548031D01*
X29374612Y27440112D01*
X29482531Y27308612D01*
X29482533Y27308608D01*
X29482534Y27308607D01*
X29562721Y27158587D01*
X29562722Y27158584D01*
X29612104Y26995795D01*
X29628778Y26826500D01*
X29612104Y26657205D01*
X29595190Y26601448D01*
X29562721Y26494413D01*
X29482534Y26344393D01*
X29482531Y26344388D01*
X29374612Y26212888D01*
X29243112Y26104969D01*
X29243108Y26104967D01*
X29243107Y26104966D01*
X29093087Y26024779D01*
X29093084Y26024778D01*
X28930295Y25975396D01*
X28845712Y25967065D01*
X28803421Y25962900D01*
X28718579Y25962900D01*
X28676288Y25967065D01*
X28591705Y25975396D01*
X28428916Y26024778D01*
X28428913Y26024779D01*
X28278893Y26104966D01*
X28278892Y26104967D01*
X28278888Y26104969D01*
X28147388Y26212888D01*
X28039469Y26344388D01*
X28039466Y26344393D01*
X27959279Y26494413D01*
X27926810Y26601448D01*
X27909896Y26657205D01*
X27893222Y26826500D01*
X27909896Y26995795D01*
X27959278Y27158584D01*
X27959279Y27158587D01*
X28039466Y27308607D01*
X28039467Y27308608D01*
X28039469Y27308612D01*
X28147388Y27440112D01*
X28278888Y27548031D01*
X28278892Y27548033D01*
X28278893Y27548034D01*
X28428913Y27628221D01*
X28428916Y27628222D01*
X28591705Y27677604D01*
X28676288Y27685935D01*
X28718579Y27690100D01*
X28803421Y27690100D01*
X28845712Y27685935D01*
X28845712Y27685935D01*
G37*
G36*
X22527627Y28924201D02*
G01*
X22607742Y28899899D01*
X22687855Y28875597D01*
X22687857Y28875596D01*
X22835518Y28796669D01*
X22964949Y28690449D01*
X23071169Y28561018D01*
X23150096Y28413357D01*
X23198701Y28253127D01*
X23215112Y28086500D01*
X23198701Y27919873D01*
X23150096Y27759643D01*
X23071169Y27611982D01*
X22964949Y27482551D01*
X22835518Y27376331D01*
X22708816Y27308607D01*
X22687855Y27297403D01*
X22607742Y27273101D01*
X22527627Y27248799D01*
X22402752Y27236500D01*
X22319248Y27236500D01*
X22194373Y27248799D01*
X22114258Y27273101D01*
X22034145Y27297403D01*
X22013184Y27308607D01*
X21886482Y27376331D01*
X21757051Y27482551D01*
X21650831Y27611982D01*
X21571904Y27759643D01*
X21523299Y27919873D01*
X21506888Y28086500D01*
X21523299Y28253127D01*
X21571904Y28413357D01*
X21650831Y28561018D01*
X21757051Y28690449D01*
X21886482Y28796669D01*
X22034143Y28875596D01*
X22034145Y28875597D01*
X22114258Y28899899D01*
X22194373Y28924201D01*
X22319248Y28936500D01*
X22402752Y28936500D01*
X22527627Y28924201D01*
X22527627Y28924201D01*
G37*
G36*
X18627627Y28924201D02*
G01*
X18707742Y28899899D01*
X18787855Y28875597D01*
X18787857Y28875596D01*
X18935518Y28796669D01*
X19064949Y28690449D01*
X19171169Y28561018D01*
X19250096Y28413357D01*
X19298701Y28253127D01*
X19315112Y28086500D01*
X19298701Y27919873D01*
X19250096Y27759643D01*
X19171169Y27611982D01*
X19064949Y27482551D01*
X18935518Y27376331D01*
X18808816Y27308607D01*
X18787855Y27297403D01*
X18707742Y27273101D01*
X18627627Y27248799D01*
X18502752Y27236500D01*
X18419248Y27236500D01*
X18294373Y27248799D01*
X18214258Y27273101D01*
X18134145Y27297403D01*
X18113184Y27308607D01*
X17986482Y27376331D01*
X17857051Y27482551D01*
X17750831Y27611982D01*
X17671904Y27759643D01*
X17623299Y27919873D01*
X17606888Y28086500D01*
X17623299Y28253127D01*
X17671904Y28413357D01*
X17750831Y28561018D01*
X17857051Y28690449D01*
X17986482Y28796669D01*
X18134143Y28875596D01*
X18134145Y28875597D01*
X18214258Y28899899D01*
X18294373Y28924201D01*
X18419248Y28936500D01*
X18502752Y28936500D01*
X18627627Y28924201D01*
X18627627Y28924201D01*
G37*
G36*
X3194195Y29958978D02*
G01*
X3243267Y29949217D01*
X3381942Y29891776D01*
X3506747Y29808384D01*
X3612884Y29702247D01*
X3696276Y29577442D01*
X3753717Y29438767D01*
X3783000Y29291550D01*
X3783000Y29141450D01*
X3753717Y28994233D01*
X3696276Y28855558D01*
X3612884Y28730753D01*
X3506747Y28624616D01*
X3381942Y28541224D01*
X3243267Y28483783D01*
X3194195Y28474022D01*
X3096052Y28454500D01*
X2945948Y28454500D01*
X2847805Y28474022D01*
X2798733Y28483783D01*
X2660058Y28541224D01*
X2535253Y28624616D01*
X2429116Y28730753D01*
X2345724Y28855558D01*
X2288283Y28994233D01*
X2259000Y29141450D01*
X2259000Y29291550D01*
X2288283Y29438767D01*
X2345724Y29577442D01*
X2429116Y29702247D01*
X2535253Y29808384D01*
X2660058Y29891776D01*
X2798733Y29949217D01*
X2847805Y29958978D01*
X2945948Y29978500D01*
X3096052Y29978500D01*
X3194195Y29958978D01*
X3194195Y29958978D01*
G37*
G36*
X64154195Y29958978D02*
G01*
X64203267Y29949217D01*
X64341942Y29891776D01*
X64466747Y29808384D01*
X64572884Y29702247D01*
X64656276Y29577442D01*
X64713717Y29438767D01*
X64743000Y29291550D01*
X64743000Y29141450D01*
X64713717Y28994233D01*
X64656276Y28855558D01*
X64572884Y28730753D01*
X64466747Y28624616D01*
X64341942Y28541224D01*
X64203267Y28483783D01*
X64154195Y28474022D01*
X64056052Y28454500D01*
X63905948Y28454500D01*
X63807805Y28474022D01*
X63758733Y28483783D01*
X63620058Y28541224D01*
X63495253Y28624616D01*
X63389116Y28730753D01*
X63305724Y28855558D01*
X63248283Y28994233D01*
X63219000Y29141450D01*
X63219000Y29291550D01*
X63248283Y29438767D01*
X63305724Y29577442D01*
X63389116Y29702247D01*
X63495253Y29808384D01*
X63620058Y29891776D01*
X63758733Y29949217D01*
X63807805Y29958978D01*
X63905948Y29978500D01*
X64056052Y29978500D01*
X64154195Y29958978D01*
X64154195Y29958978D01*
G37*
G36*
X66694195Y29958978D02*
G01*
X66743267Y29949217D01*
X66881942Y29891776D01*
X67006747Y29808384D01*
X67112884Y29702247D01*
X67196276Y29577442D01*
X67253717Y29438767D01*
X67283000Y29291550D01*
X67283000Y29141450D01*
X67253717Y28994233D01*
X67196276Y28855558D01*
X67112884Y28730753D01*
X67006747Y28624616D01*
X66881942Y28541224D01*
X66743267Y28483783D01*
X66694195Y28474022D01*
X66596052Y28454500D01*
X66445948Y28454500D01*
X66347805Y28474022D01*
X66298733Y28483783D01*
X66160058Y28541224D01*
X66035253Y28624616D01*
X65929116Y28730753D01*
X65845724Y28855558D01*
X65788283Y28994233D01*
X65759000Y29141450D01*
X65759000Y29291550D01*
X65788283Y29438767D01*
X65845724Y29577442D01*
X65929116Y29702247D01*
X66035253Y29808384D01*
X66160058Y29891776D01*
X66298733Y29949217D01*
X66347805Y29958978D01*
X66445948Y29978500D01*
X66596052Y29978500D01*
X66694195Y29958978D01*
X66694195Y29958978D01*
G37*
G36*
X5734195Y29958978D02*
G01*
X5783267Y29949217D01*
X5921942Y29891776D01*
X6046747Y29808384D01*
X6152884Y29702247D01*
X6236276Y29577442D01*
X6293717Y29438767D01*
X6323000Y29291550D01*
X6323000Y29141450D01*
X6293717Y28994233D01*
X6236276Y28855558D01*
X6152884Y28730753D01*
X6046747Y28624616D01*
X5921942Y28541224D01*
X5783267Y28483783D01*
X5734195Y28474022D01*
X5636052Y28454500D01*
X5485948Y28454500D01*
X5387805Y28474022D01*
X5338733Y28483783D01*
X5200058Y28541224D01*
X5075253Y28624616D01*
X4969116Y28730753D01*
X4885724Y28855558D01*
X4828283Y28994233D01*
X4799000Y29141450D01*
X4799000Y29291550D01*
X4828283Y29438767D01*
X4885724Y29577442D01*
X4969116Y29702247D01*
X5075253Y29808384D01*
X5200058Y29891776D01*
X5338733Y29949217D01*
X5387805Y29958978D01*
X5485948Y29978500D01*
X5636052Y29978500D01*
X5734195Y29958978D01*
X5734195Y29958978D01*
G37*
G36*
X28845712Y30225935D02*
G01*
X28930295Y30217604D01*
X29093084Y30168222D01*
X29093087Y30168221D01*
X29243107Y30088034D01*
X29243108Y30088033D01*
X29243112Y30088031D01*
X29374612Y29980112D01*
X29482531Y29848612D01*
X29482533Y29848608D01*
X29482534Y29848607D01*
X29562721Y29698587D01*
X29562722Y29698584D01*
X29612104Y29535795D01*
X29628778Y29366500D01*
X29612104Y29197205D01*
X29595190Y29141448D01*
X29562721Y29034413D01*
X29503811Y28924200D01*
X29482531Y28884388D01*
X29374612Y28752888D01*
X29243112Y28644969D01*
X29243108Y28644967D01*
X29243107Y28644966D01*
X29093087Y28564779D01*
X29093084Y28564778D01*
X28930295Y28515396D01*
X28845712Y28507065D01*
X28803421Y28502900D01*
X28718579Y28502900D01*
X28676288Y28507065D01*
X28591705Y28515396D01*
X28428916Y28564778D01*
X28428913Y28564779D01*
X28278893Y28644966D01*
X28278892Y28644967D01*
X28278888Y28644969D01*
X28147388Y28752888D01*
X28039469Y28884388D01*
X28018189Y28924200D01*
X27959279Y29034413D01*
X27926810Y29141448D01*
X27909896Y29197205D01*
X27893222Y29366500D01*
X27909896Y29535795D01*
X27959278Y29698584D01*
X27959279Y29698587D01*
X28039466Y29848607D01*
X28039467Y29848608D01*
X28039469Y29848612D01*
X28147388Y29980112D01*
X28278888Y30088031D01*
X28278892Y30088033D01*
X28278893Y30088034D01*
X28428913Y30168221D01*
X28428916Y30168222D01*
X28591705Y30217604D01*
X28676288Y30225935D01*
X28718579Y30230100D01*
X28803421Y30230100D01*
X28845712Y30225935D01*
X28845712Y30225935D01*
G37*
G36*
X31385712Y30225935D02*
G01*
X31470295Y30217604D01*
X31633084Y30168222D01*
X31633087Y30168221D01*
X31783107Y30088034D01*
X31783108Y30088033D01*
X31783112Y30088031D01*
X31914612Y29980112D01*
X32022531Y29848612D01*
X32022533Y29848608D01*
X32022534Y29848607D01*
X32102721Y29698587D01*
X32102722Y29698584D01*
X32152104Y29535795D01*
X32168778Y29366500D01*
X32152104Y29197205D01*
X32135190Y29141448D01*
X32102721Y29034413D01*
X32043811Y28924200D01*
X32022531Y28884388D01*
X31914612Y28752888D01*
X31783112Y28644969D01*
X31783108Y28644967D01*
X31783107Y28644966D01*
X31633087Y28564779D01*
X31633084Y28564778D01*
X31470295Y28515396D01*
X31385712Y28507065D01*
X31343421Y28502900D01*
X31258579Y28502900D01*
X31216288Y28507065D01*
X31131705Y28515396D01*
X30968916Y28564778D01*
X30968913Y28564779D01*
X30818893Y28644966D01*
X30818892Y28644967D01*
X30818888Y28644969D01*
X30687388Y28752888D01*
X30579469Y28884388D01*
X30558189Y28924200D01*
X30499279Y29034413D01*
X30466810Y29141448D01*
X30449896Y29197205D01*
X30433222Y29366500D01*
X30449896Y29535795D01*
X30499278Y29698584D01*
X30499279Y29698587D01*
X30579466Y29848607D01*
X30579467Y29848608D01*
X30579469Y29848612D01*
X30687388Y29980112D01*
X30818888Y30088031D01*
X30818892Y30088033D01*
X30818893Y30088034D01*
X30968913Y30168221D01*
X30968916Y30168222D01*
X31131705Y30217604D01*
X31216288Y30225935D01*
X31258579Y30230100D01*
X31343421Y30230100D01*
X31385712Y30225935D01*
X31385712Y30225935D01*
G37*
G36*
X22527627Y31464201D02*
G01*
X22607742Y31439898D01*
X22687855Y31415597D01*
X22687857Y31415596D01*
X22835518Y31336669D01*
X22964949Y31230449D01*
X23071169Y31101018D01*
X23150096Y30953357D01*
X23198701Y30793127D01*
X23215112Y30626500D01*
X23198701Y30459873D01*
X23150096Y30299643D01*
X23071169Y30151982D01*
X22964949Y30022551D01*
X22835518Y29916331D01*
X22708816Y29848607D01*
X22687855Y29837403D01*
X22607742Y29813102D01*
X22527627Y29788799D01*
X22402752Y29776500D01*
X22319248Y29776500D01*
X22194373Y29788799D01*
X22114258Y29813102D01*
X22034145Y29837403D01*
X22013184Y29848607D01*
X21886482Y29916331D01*
X21757051Y30022551D01*
X21650831Y30151982D01*
X21571904Y30299643D01*
X21523299Y30459873D01*
X21506888Y30626500D01*
X21523299Y30793127D01*
X21571904Y30953357D01*
X21650831Y31101018D01*
X21757051Y31230449D01*
X21886482Y31336669D01*
X22034143Y31415596D01*
X22034145Y31415597D01*
X22114258Y31439898D01*
X22194373Y31464201D01*
X22319248Y31476500D01*
X22402752Y31476500D01*
X22527627Y31464201D01*
X22527627Y31464201D01*
G37*
G36*
X18627627Y31464201D02*
G01*
X18707742Y31439898D01*
X18787855Y31415597D01*
X18787857Y31415596D01*
X18935518Y31336669D01*
X19064949Y31230449D01*
X19171169Y31101018D01*
X19250096Y30953357D01*
X19298701Y30793127D01*
X19315112Y30626500D01*
X19298701Y30459873D01*
X19250096Y30299643D01*
X19171169Y30151982D01*
X19064949Y30022551D01*
X18935518Y29916331D01*
X18808816Y29848607D01*
X18787855Y29837403D01*
X18707742Y29813102D01*
X18627627Y29788799D01*
X18502752Y29776500D01*
X18419248Y29776500D01*
X18294373Y29788799D01*
X18214258Y29813102D01*
X18134145Y29837403D01*
X18113184Y29848607D01*
X17986482Y29916331D01*
X17857051Y30022551D01*
X17750831Y30151982D01*
X17671904Y30299643D01*
X17623299Y30459873D01*
X17606888Y30626500D01*
X17623299Y30793127D01*
X17671904Y30953357D01*
X17750831Y31101018D01*
X17857051Y31230449D01*
X17986482Y31336669D01*
X18134143Y31415596D01*
X18134145Y31415597D01*
X18214258Y31439898D01*
X18294373Y31464201D01*
X18419248Y31476500D01*
X18502752Y31476500D01*
X18627627Y31464201D01*
X18627627Y31464201D01*
G37*
G36*
X66694195Y32498978D02*
G01*
X66743267Y32489217D01*
X66881942Y32431776D01*
X67006747Y32348384D01*
X67112884Y32242247D01*
X67196276Y32117442D01*
X67253717Y31978767D01*
X67283000Y31831550D01*
X67283000Y31681450D01*
X67253717Y31534233D01*
X67196276Y31395558D01*
X67112884Y31270753D01*
X67006747Y31164616D01*
X66881942Y31081224D01*
X66743267Y31023783D01*
X66694195Y31014022D01*
X66596052Y30994500D01*
X66445948Y30994500D01*
X66347805Y31014022D01*
X66298733Y31023783D01*
X66160058Y31081224D01*
X66035253Y31164616D01*
X65929116Y31270753D01*
X65845724Y31395558D01*
X65788283Y31534233D01*
X65759000Y31681450D01*
X65759000Y31831550D01*
X65788283Y31978767D01*
X65845724Y32117442D01*
X65929116Y32242247D01*
X66035253Y32348384D01*
X66160058Y32431776D01*
X66298733Y32489217D01*
X66347805Y32498978D01*
X66445948Y32518500D01*
X66596052Y32518500D01*
X66694195Y32498978D01*
X66694195Y32498978D01*
G37*
G36*
X3194195Y32498978D02*
G01*
X3243267Y32489217D01*
X3381942Y32431776D01*
X3506747Y32348384D01*
X3612884Y32242247D01*
X3696276Y32117442D01*
X3753717Y31978767D01*
X3783000Y31831550D01*
X3783000Y31681450D01*
X3753717Y31534233D01*
X3696276Y31395558D01*
X3612884Y31270753D01*
X3506747Y31164616D01*
X3381942Y31081224D01*
X3243267Y31023783D01*
X3194195Y31014022D01*
X3096052Y30994500D01*
X2945948Y30994500D01*
X2847805Y31014022D01*
X2798733Y31023783D01*
X2660058Y31081224D01*
X2535253Y31164616D01*
X2429116Y31270753D01*
X2345724Y31395558D01*
X2288283Y31534233D01*
X2259000Y31681450D01*
X2259000Y31831550D01*
X2288283Y31978767D01*
X2345724Y32117442D01*
X2429116Y32242247D01*
X2535253Y32348384D01*
X2660058Y32431776D01*
X2798733Y32489217D01*
X2847805Y32498978D01*
X2945948Y32518500D01*
X3096052Y32518500D01*
X3194195Y32498978D01*
X3194195Y32498978D01*
G37*
G36*
X64154195Y32498978D02*
G01*
X64203267Y32489217D01*
X64341942Y32431776D01*
X64466747Y32348384D01*
X64572884Y32242247D01*
X64656276Y32117442D01*
X64713717Y31978767D01*
X64743000Y31831550D01*
X64743000Y31681450D01*
X64713717Y31534233D01*
X64656276Y31395558D01*
X64572884Y31270753D01*
X64466747Y31164616D01*
X64341942Y31081224D01*
X64203267Y31023783D01*
X64154195Y31014022D01*
X64056052Y30994500D01*
X63905948Y30994500D01*
X63807805Y31014022D01*
X63758733Y31023783D01*
X63620058Y31081224D01*
X63495253Y31164616D01*
X63389116Y31270753D01*
X63305724Y31395558D01*
X63248283Y31534233D01*
X63219000Y31681450D01*
X63219000Y31831550D01*
X63248283Y31978767D01*
X63305724Y32117442D01*
X63389116Y32242247D01*
X63495253Y32348384D01*
X63620058Y32431776D01*
X63758733Y32489217D01*
X63807805Y32498978D01*
X63905948Y32518500D01*
X64056052Y32518500D01*
X64154195Y32498978D01*
X64154195Y32498978D01*
G37*
G36*
X5734195Y32498978D02*
G01*
X5783267Y32489217D01*
X5921942Y32431776D01*
X6046747Y32348384D01*
X6152884Y32242247D01*
X6236276Y32117442D01*
X6293717Y31978767D01*
X6323000Y31831550D01*
X6323000Y31681450D01*
X6293717Y31534233D01*
X6236276Y31395558D01*
X6152884Y31270753D01*
X6046747Y31164616D01*
X5921942Y31081224D01*
X5783267Y31023783D01*
X5734195Y31014022D01*
X5636052Y30994500D01*
X5485948Y30994500D01*
X5387805Y31014022D01*
X5338733Y31023783D01*
X5200058Y31081224D01*
X5075253Y31164616D01*
X4969116Y31270753D01*
X4885724Y31395558D01*
X4828283Y31534233D01*
X4799000Y31681450D01*
X4799000Y31831550D01*
X4828283Y31978767D01*
X4885724Y32117442D01*
X4969116Y32242247D01*
X5075253Y32348384D01*
X5200058Y32431776D01*
X5338733Y32489217D01*
X5387805Y32498978D01*
X5485948Y32518500D01*
X5636052Y32518500D01*
X5734195Y32498978D01*
X5734195Y32498978D01*
G37*
G36*
X28845712Y32765935D02*
G01*
X28930295Y32757604D01*
X29093084Y32708222D01*
X29093087Y32708221D01*
X29243107Y32628034D01*
X29243108Y32628033D01*
X29243112Y32628031D01*
X29374612Y32520112D01*
X29482531Y32388612D01*
X29482533Y32388608D01*
X29482534Y32388607D01*
X29562721Y32238587D01*
X29562722Y32238584D01*
X29612104Y32075795D01*
X29628778Y31906500D01*
X29612104Y31737205D01*
X29595190Y31681448D01*
X29562721Y31574413D01*
X29503811Y31464200D01*
X29482531Y31424388D01*
X29374612Y31292888D01*
X29243112Y31184969D01*
X29243108Y31184967D01*
X29243107Y31184966D01*
X29093087Y31104779D01*
X29093084Y31104778D01*
X28930295Y31055396D01*
X28845712Y31047065D01*
X28803421Y31042900D01*
X28718579Y31042900D01*
X28676288Y31047065D01*
X28591705Y31055396D01*
X28428916Y31104778D01*
X28428913Y31104779D01*
X28278893Y31184966D01*
X28278892Y31184967D01*
X28278888Y31184969D01*
X28147388Y31292888D01*
X28039469Y31424388D01*
X28018189Y31464200D01*
X27959279Y31574413D01*
X27926810Y31681448D01*
X27909896Y31737205D01*
X27893222Y31906500D01*
X27909896Y32075795D01*
X27959278Y32238584D01*
X27959279Y32238587D01*
X28039466Y32388607D01*
X28039467Y32388608D01*
X28039469Y32388612D01*
X28147388Y32520112D01*
X28278888Y32628031D01*
X28278892Y32628033D01*
X28278893Y32628034D01*
X28428913Y32708221D01*
X28428916Y32708222D01*
X28591705Y32757604D01*
X28676288Y32765935D01*
X28718579Y32770100D01*
X28803421Y32770100D01*
X28845712Y32765935D01*
X28845712Y32765935D01*
G37*
G36*
X31385712Y32765935D02*
G01*
X31470295Y32757604D01*
X31633084Y32708222D01*
X31633087Y32708221D01*
X31783107Y32628034D01*
X31783108Y32628033D01*
X31783112Y32628031D01*
X31914612Y32520112D01*
X32022531Y32388612D01*
X32022533Y32388608D01*
X32022534Y32388607D01*
X32102721Y32238587D01*
X32102722Y32238584D01*
X32152104Y32075795D01*
X32168778Y31906500D01*
X32152104Y31737205D01*
X32135190Y31681448D01*
X32102721Y31574413D01*
X32043811Y31464200D01*
X32022531Y31424388D01*
X31914612Y31292888D01*
X31783112Y31184969D01*
X31783108Y31184967D01*
X31783107Y31184966D01*
X31633087Y31104779D01*
X31633084Y31104778D01*
X31470295Y31055396D01*
X31385712Y31047065D01*
X31343421Y31042900D01*
X31258579Y31042900D01*
X31216288Y31047065D01*
X31131705Y31055396D01*
X30968916Y31104778D01*
X30968913Y31104779D01*
X30818893Y31184966D01*
X30818892Y31184967D01*
X30818888Y31184969D01*
X30687388Y31292888D01*
X30579469Y31424388D01*
X30558189Y31464200D01*
X30499279Y31574413D01*
X30466810Y31681448D01*
X30449896Y31737205D01*
X30433222Y31906500D01*
X30449896Y32075795D01*
X30499278Y32238584D01*
X30499279Y32238587D01*
X30579466Y32388607D01*
X30579467Y32388608D01*
X30579469Y32388612D01*
X30687388Y32520112D01*
X30818888Y32628031D01*
X30818892Y32628033D01*
X30818893Y32628034D01*
X30968913Y32708221D01*
X30968916Y32708222D01*
X31131705Y32757604D01*
X31216288Y32765935D01*
X31258579Y32770100D01*
X31343421Y32770100D01*
X31385712Y32765935D01*
X31385712Y32765935D01*
G37*
G36*
X18627627Y34004201D02*
G01*
X18707742Y33979898D01*
X18787855Y33955597D01*
X18787857Y33955596D01*
X18935518Y33876669D01*
X19064949Y33770449D01*
X19171169Y33641018D01*
X19250096Y33493357D01*
X19298701Y33333127D01*
X19315112Y33166500D01*
X19298701Y32999873D01*
X19250096Y32839643D01*
X19171169Y32691982D01*
X19064949Y32562551D01*
X18935518Y32456331D01*
X18808816Y32388607D01*
X18787855Y32377403D01*
X18707742Y32353102D01*
X18627627Y32328799D01*
X18502752Y32316500D01*
X18419248Y32316500D01*
X18294373Y32328799D01*
X18214258Y32353102D01*
X18134145Y32377403D01*
X18113184Y32388607D01*
X17986482Y32456331D01*
X17857051Y32562551D01*
X17750831Y32691982D01*
X17671904Y32839643D01*
X17623299Y32999873D01*
X17606888Y33166500D01*
X17623299Y33333127D01*
X17671904Y33493357D01*
X17750831Y33641018D01*
X17857051Y33770449D01*
X17986482Y33876669D01*
X18134143Y33955596D01*
X18134145Y33955597D01*
X18214258Y33979898D01*
X18294373Y34004201D01*
X18419248Y34016500D01*
X18502752Y34016500D01*
X18627627Y34004201D01*
X18627627Y34004201D01*
G37*
G36*
X22527627Y34004201D02*
G01*
X22607742Y33979898D01*
X22687855Y33955597D01*
X22687857Y33955596D01*
X22835518Y33876669D01*
X22964949Y33770449D01*
X23071169Y33641018D01*
X23150096Y33493357D01*
X23198701Y33333127D01*
X23215112Y33166500D01*
X23198701Y32999873D01*
X23150096Y32839643D01*
X23071169Y32691982D01*
X22964949Y32562551D01*
X22835518Y32456331D01*
X22708816Y32388607D01*
X22687855Y32377403D01*
X22607742Y32353102D01*
X22527627Y32328799D01*
X22402752Y32316500D01*
X22319248Y32316500D01*
X22194373Y32328799D01*
X22114258Y32353102D01*
X22034145Y32377403D01*
X22013184Y32388607D01*
X21886482Y32456331D01*
X21757051Y32562551D01*
X21650831Y32691982D01*
X21571904Y32839643D01*
X21523299Y32999873D01*
X21506888Y33166500D01*
X21523299Y33333127D01*
X21571904Y33493357D01*
X21650831Y33641018D01*
X21757051Y33770449D01*
X21886482Y33876669D01*
X22034143Y33955596D01*
X22034145Y33955597D01*
X22114258Y33979898D01*
X22194373Y34004201D01*
X22319248Y34016500D01*
X22402752Y34016500D01*
X22527627Y34004201D01*
X22527627Y34004201D01*
G37*
G36*
X95777627Y34634201D02*
G01*
X95838310Y34615793D01*
X95937855Y34585597D01*
X95937857Y34585596D01*
X96085518Y34506669D01*
X96214949Y34400449D01*
X96321168Y34271019D01*
X96400097Y34123355D01*
X96402809Y34114413D01*
X96448701Y33963127D01*
X96465112Y33796500D01*
X96448701Y33629873D01*
X96400096Y33469643D01*
X96321169Y33321982D01*
X96214949Y33192551D01*
X96085518Y33086331D01*
X95937857Y33007404D01*
X95937855Y33007403D01*
X95857742Y32983101D01*
X95777627Y32958799D01*
X95652752Y32946500D01*
X95569248Y32946500D01*
X95444373Y32958799D01*
X95364258Y32983101D01*
X95284145Y33007403D01*
X95284143Y33007404D01*
X95136482Y33086331D01*
X95007051Y33192551D01*
X94900831Y33321982D01*
X94821904Y33469643D01*
X94773299Y33629873D01*
X94756888Y33796500D01*
X94773299Y33963127D01*
X94819191Y34114413D01*
X94821903Y34123355D01*
X94900832Y34271019D01*
X95007051Y34400449D01*
X95136482Y34506669D01*
X95284143Y34585596D01*
X95284145Y34585597D01*
X95383690Y34615793D01*
X95444373Y34634201D01*
X95569248Y34646500D01*
X95652752Y34646500D01*
X95777627Y34634201D01*
X95777627Y34634201D01*
G37*
G36*
X64154195Y35038978D02*
G01*
X64203267Y35029217D01*
X64341942Y34971776D01*
X64466747Y34888384D01*
X64572884Y34782247D01*
X64656276Y34657442D01*
X64713717Y34518767D01*
X64743000Y34371550D01*
X64743000Y34221450D01*
X64713717Y34074233D01*
X64656276Y33935558D01*
X64572884Y33810753D01*
X64466747Y33704616D01*
X64341942Y33621224D01*
X64203267Y33563783D01*
X64154195Y33554022D01*
X64056052Y33534500D01*
X63905948Y33534500D01*
X63807805Y33554022D01*
X63758733Y33563783D01*
X63620058Y33621224D01*
X63495253Y33704616D01*
X63389116Y33810753D01*
X63305724Y33935558D01*
X63248283Y34074233D01*
X63219000Y34221450D01*
X63219000Y34371550D01*
X63248283Y34518767D01*
X63305724Y34657442D01*
X63389116Y34782247D01*
X63495253Y34888384D01*
X63620058Y34971776D01*
X63758733Y35029217D01*
X63807805Y35038978D01*
X63905948Y35058500D01*
X64056052Y35058500D01*
X64154195Y35038978D01*
X64154195Y35038978D01*
G37*
G36*
X5734195Y35038978D02*
G01*
X5783267Y35029217D01*
X5921942Y34971776D01*
X6046747Y34888384D01*
X6152884Y34782247D01*
X6236276Y34657442D01*
X6293717Y34518767D01*
X6323000Y34371550D01*
X6323000Y34221450D01*
X6293717Y34074233D01*
X6236276Y33935558D01*
X6152884Y33810753D01*
X6046747Y33704616D01*
X5921942Y33621224D01*
X5783267Y33563783D01*
X5734195Y33554022D01*
X5636052Y33534500D01*
X5485948Y33534500D01*
X5387805Y33554022D01*
X5338733Y33563783D01*
X5200058Y33621224D01*
X5075253Y33704616D01*
X4969116Y33810753D01*
X4885724Y33935558D01*
X4828283Y34074233D01*
X4799000Y34221450D01*
X4799000Y34371550D01*
X4828283Y34518767D01*
X4885724Y34657442D01*
X4969116Y34782247D01*
X5075253Y34888384D01*
X5200058Y34971776D01*
X5338733Y35029217D01*
X5387805Y35038978D01*
X5485948Y35058500D01*
X5636052Y35058500D01*
X5734195Y35038978D01*
X5734195Y35038978D01*
G37*
G36*
X66694195Y35038978D02*
G01*
X66743267Y35029217D01*
X66881942Y34971776D01*
X67006747Y34888384D01*
X67112884Y34782247D01*
X67196276Y34657442D01*
X67253717Y34518767D01*
X67283000Y34371550D01*
X67283000Y34221450D01*
X67253717Y34074233D01*
X67196276Y33935558D01*
X67112884Y33810753D01*
X67006747Y33704616D01*
X66881942Y33621224D01*
X66743267Y33563783D01*
X66694195Y33554022D01*
X66596052Y33534500D01*
X66445948Y33534500D01*
X66347805Y33554022D01*
X66298733Y33563783D01*
X66160058Y33621224D01*
X66035253Y33704616D01*
X65929116Y33810753D01*
X65845724Y33935558D01*
X65788283Y34074233D01*
X65759000Y34221450D01*
X65759000Y34371550D01*
X65788283Y34518767D01*
X65845724Y34657442D01*
X65929116Y34782247D01*
X66035253Y34888384D01*
X66160058Y34971776D01*
X66298733Y35029217D01*
X66347805Y35038978D01*
X66445948Y35058500D01*
X66596052Y35058500D01*
X66694195Y35038978D01*
X66694195Y35038978D01*
G37*
G36*
X3194195Y35038978D02*
G01*
X3243267Y35029217D01*
X3381942Y34971776D01*
X3506747Y34888384D01*
X3612884Y34782247D01*
X3696276Y34657442D01*
X3753717Y34518767D01*
X3783000Y34371550D01*
X3783000Y34221450D01*
X3753717Y34074233D01*
X3696276Y33935558D01*
X3612884Y33810753D01*
X3506747Y33704616D01*
X3381942Y33621224D01*
X3243267Y33563783D01*
X3194195Y33554022D01*
X3096052Y33534500D01*
X2945948Y33534500D01*
X2847805Y33554022D01*
X2798733Y33563783D01*
X2660058Y33621224D01*
X2535253Y33704616D01*
X2429116Y33810753D01*
X2345724Y33935558D01*
X2288283Y34074233D01*
X2259000Y34221450D01*
X2259000Y34371550D01*
X2288283Y34518767D01*
X2345724Y34657442D01*
X2429116Y34782247D01*
X2535253Y34888384D01*
X2660058Y34971776D01*
X2798733Y35029217D01*
X2847805Y35038978D01*
X2945948Y35058500D01*
X3096052Y35058500D01*
X3194195Y35038978D01*
X3194195Y35038978D01*
G37*
G36*
X29624600Y33582900D02*
G01*
X27897400Y33582900D01*
X27897400Y35310100D01*
X29624600Y35310100D01*
X29624600Y33582900D01*
X29624600Y33582900D01*
G37*
G36*
X31385712Y35305935D02*
G01*
X31470295Y35297604D01*
X31633084Y35248222D01*
X31633087Y35248221D01*
X31783107Y35168034D01*
X31783108Y35168033D01*
X31783112Y35168031D01*
X31914612Y35060112D01*
X32022531Y34928612D01*
X32022533Y34928608D01*
X32022534Y34928607D01*
X32102721Y34778587D01*
X32102722Y34778584D01*
X32152104Y34615795D01*
X32168778Y34446500D01*
X32152104Y34277205D01*
X32135190Y34221448D01*
X32102721Y34114413D01*
X32043811Y34004200D01*
X32022531Y33964388D01*
X31914612Y33832888D01*
X31783112Y33724969D01*
X31783108Y33724967D01*
X31783107Y33724966D01*
X31633087Y33644779D01*
X31633084Y33644778D01*
X31470295Y33595396D01*
X31385712Y33587065D01*
X31343421Y33582900D01*
X31258579Y33582900D01*
X31216288Y33587065D01*
X31131705Y33595396D01*
X30968916Y33644778D01*
X30968913Y33644779D01*
X30818893Y33724966D01*
X30818892Y33724967D01*
X30818888Y33724969D01*
X30687388Y33832888D01*
X30579469Y33964388D01*
X30558189Y34004200D01*
X30499279Y34114413D01*
X30466810Y34221448D01*
X30449896Y34277205D01*
X30433222Y34446500D01*
X30449896Y34615795D01*
X30499278Y34778584D01*
X30499279Y34778587D01*
X30579466Y34928607D01*
X30579467Y34928608D01*
X30579469Y34928612D01*
X30687388Y35060112D01*
X30818888Y35168031D01*
X30818892Y35168033D01*
X30818893Y35168034D01*
X30968913Y35248221D01*
X30968916Y35248222D01*
X31131705Y35297604D01*
X31216288Y35305935D01*
X31258579Y35310100D01*
X31343421Y35310100D01*
X31385712Y35305935D01*
X31385712Y35305935D01*
G37*
G36*
X18627627Y36544201D02*
G01*
X18707742Y36519899D01*
X18787855Y36495597D01*
X18787857Y36495596D01*
X18935518Y36416669D01*
X19064949Y36310449D01*
X19171169Y36181018D01*
X19250096Y36033357D01*
X19298701Y35873127D01*
X19315112Y35706500D01*
X19298701Y35539873D01*
X19250096Y35379643D01*
X19171169Y35231982D01*
X19064949Y35102551D01*
X18935518Y34996331D01*
X18808816Y34928607D01*
X18787855Y34917403D01*
X18707742Y34893101D01*
X18627627Y34868799D01*
X18502752Y34856500D01*
X18419248Y34856500D01*
X18294373Y34868799D01*
X18214258Y34893101D01*
X18134145Y34917403D01*
X18113184Y34928607D01*
X17986482Y34996331D01*
X17857051Y35102551D01*
X17750831Y35231982D01*
X17671904Y35379643D01*
X17623299Y35539873D01*
X17606888Y35706500D01*
X17623299Y35873127D01*
X17671904Y36033357D01*
X17750831Y36181018D01*
X17857051Y36310449D01*
X17986482Y36416669D01*
X18134143Y36495596D01*
X18134145Y36495597D01*
X18214258Y36519899D01*
X18294373Y36544201D01*
X18419248Y36556500D01*
X18502752Y36556500D01*
X18627627Y36544201D01*
X18627627Y36544201D01*
G37*
G36*
X22527627Y36544201D02*
G01*
X22607742Y36519899D01*
X22687855Y36495597D01*
X22687857Y36495596D01*
X22835518Y36416669D01*
X22964949Y36310449D01*
X23071169Y36181018D01*
X23150096Y36033357D01*
X23198701Y35873127D01*
X23215112Y35706500D01*
X23198701Y35539873D01*
X23150096Y35379643D01*
X23071169Y35231982D01*
X22964949Y35102551D01*
X22835518Y34996331D01*
X22708816Y34928607D01*
X22687855Y34917403D01*
X22607742Y34893101D01*
X22527627Y34868799D01*
X22402752Y34856500D01*
X22319248Y34856500D01*
X22194373Y34868799D01*
X22114258Y34893101D01*
X22034145Y34917403D01*
X22013184Y34928607D01*
X21886482Y34996331D01*
X21757051Y35102551D01*
X21650831Y35231982D01*
X21571904Y35379643D01*
X21523299Y35539873D01*
X21506888Y35706500D01*
X21523299Y35873127D01*
X21571904Y36033357D01*
X21650831Y36181018D01*
X21757051Y36310449D01*
X21886482Y36416669D01*
X22034143Y36495596D01*
X22034145Y36495597D01*
X22114258Y36519899D01*
X22194373Y36544201D01*
X22319248Y36556500D01*
X22402752Y36556500D01*
X22527627Y36544201D01*
X22527627Y36544201D01*
G37*
G36*
X95777627Y37174201D02*
G01*
X95857742Y37149898D01*
X95937855Y37125597D01*
X95937857Y37125596D01*
X96085518Y37046669D01*
X96214949Y36940449D01*
X96321169Y36811018D01*
X96400096Y36663357D01*
X96448701Y36503127D01*
X96465112Y36336500D01*
X96448701Y36169873D01*
X96400096Y36009643D01*
X96321169Y35861982D01*
X96214949Y35732551D01*
X96085518Y35626331D01*
X95937857Y35547404D01*
X95937855Y35547403D01*
X95857742Y35523102D01*
X95777627Y35498799D01*
X95652752Y35486500D01*
X95569248Y35486500D01*
X95444373Y35498799D01*
X95364258Y35523102D01*
X95284145Y35547403D01*
X95284143Y35547404D01*
X95136482Y35626331D01*
X95007051Y35732551D01*
X94900831Y35861982D01*
X94821904Y36009643D01*
X94773299Y36169873D01*
X94756888Y36336500D01*
X94773299Y36503127D01*
X94821904Y36663357D01*
X94900831Y36811018D01*
X95007051Y36940449D01*
X95136482Y37046669D01*
X95284143Y37125596D01*
X95284145Y37125597D01*
X95364258Y37149898D01*
X95444373Y37174201D01*
X95569248Y37186500D01*
X95652752Y37186500D01*
X95777627Y37174201D01*
X95777627Y37174201D01*
G37*
G36*
X3194195Y37578978D02*
G01*
X3243267Y37569217D01*
X3381942Y37511776D01*
X3506747Y37428384D01*
X3612884Y37322247D01*
X3696276Y37197442D01*
X3753717Y37058767D01*
X3783000Y36911550D01*
X3783000Y36761450D01*
X3753717Y36614233D01*
X3696276Y36475558D01*
X3612884Y36350753D01*
X3506747Y36244616D01*
X3381942Y36161224D01*
X3243267Y36103783D01*
X3194195Y36094022D01*
X3096052Y36074500D01*
X2945948Y36074500D01*
X2847805Y36094022D01*
X2798733Y36103783D01*
X2660058Y36161224D01*
X2535253Y36244616D01*
X2429116Y36350753D01*
X2345724Y36475558D01*
X2288283Y36614233D01*
X2259000Y36761450D01*
X2259000Y36911550D01*
X2288283Y37058767D01*
X2345724Y37197442D01*
X2429116Y37322247D01*
X2535253Y37428384D01*
X2660058Y37511776D01*
X2798733Y37569217D01*
X2847805Y37578978D01*
X2945948Y37598500D01*
X3096052Y37598500D01*
X3194195Y37578978D01*
X3194195Y37578978D01*
G37*
G36*
X66694195Y37578978D02*
G01*
X66743267Y37569217D01*
X66881942Y37511776D01*
X67006747Y37428384D01*
X67112884Y37322247D01*
X67196276Y37197442D01*
X67253717Y37058767D01*
X67283000Y36911550D01*
X67283000Y36761450D01*
X67253717Y36614233D01*
X67196276Y36475558D01*
X67112884Y36350753D01*
X67006747Y36244616D01*
X66881942Y36161224D01*
X66743267Y36103783D01*
X66694195Y36094022D01*
X66596052Y36074500D01*
X66445948Y36074500D01*
X66347805Y36094022D01*
X66298733Y36103783D01*
X66160058Y36161224D01*
X66035253Y36244616D01*
X65929116Y36350753D01*
X65845724Y36475558D01*
X65788283Y36614233D01*
X65759000Y36761450D01*
X65759000Y36911550D01*
X65788283Y37058767D01*
X65845724Y37197442D01*
X65929116Y37322247D01*
X66035253Y37428384D01*
X66160058Y37511776D01*
X66298733Y37569217D01*
X66347805Y37578978D01*
X66445948Y37598500D01*
X66596052Y37598500D01*
X66694195Y37578978D01*
X66694195Y37578978D01*
G37*
G36*
X64154195Y37578978D02*
G01*
X64203267Y37569217D01*
X64341942Y37511776D01*
X64466747Y37428384D01*
X64572884Y37322247D01*
X64656276Y37197442D01*
X64713717Y37058767D01*
X64743000Y36911550D01*
X64743000Y36761450D01*
X64713717Y36614233D01*
X64656276Y36475558D01*
X64572884Y36350753D01*
X64466747Y36244616D01*
X64341942Y36161224D01*
X64203267Y36103783D01*
X64154195Y36094022D01*
X64056052Y36074500D01*
X63905948Y36074500D01*
X63807805Y36094022D01*
X63758733Y36103783D01*
X63620058Y36161224D01*
X63495253Y36244616D01*
X63389116Y36350753D01*
X63305724Y36475558D01*
X63248283Y36614233D01*
X63219000Y36761450D01*
X63219000Y36911550D01*
X63248283Y37058767D01*
X63305724Y37197442D01*
X63389116Y37322247D01*
X63495253Y37428384D01*
X63620058Y37511776D01*
X63758733Y37569217D01*
X63807805Y37578978D01*
X63905948Y37598500D01*
X64056052Y37598500D01*
X64154195Y37578978D01*
X64154195Y37578978D01*
G37*
G36*
X5734195Y37578978D02*
G01*
X5783267Y37569217D01*
X5921942Y37511776D01*
X6046747Y37428384D01*
X6152884Y37322247D01*
X6236276Y37197442D01*
X6293717Y37058767D01*
X6323000Y36911550D01*
X6323000Y36761450D01*
X6293717Y36614233D01*
X6236276Y36475558D01*
X6152884Y36350753D01*
X6046747Y36244616D01*
X5921942Y36161224D01*
X5783267Y36103783D01*
X5734195Y36094022D01*
X5636052Y36074500D01*
X5485948Y36074500D01*
X5387805Y36094022D01*
X5338733Y36103783D01*
X5200058Y36161224D01*
X5075253Y36244616D01*
X4969116Y36350753D01*
X4885724Y36475558D01*
X4828283Y36614233D01*
X4799000Y36761450D01*
X4799000Y36911550D01*
X4828283Y37058767D01*
X4885724Y37197442D01*
X4969116Y37322247D01*
X5075253Y37428384D01*
X5200058Y37511776D01*
X5338733Y37569217D01*
X5387805Y37578978D01*
X5485948Y37598500D01*
X5636052Y37598500D01*
X5734195Y37578978D01*
X5734195Y37578978D01*
G37*
G36*
X22527627Y39084201D02*
G01*
X22607742Y39059899D01*
X22687855Y39035597D01*
X22687857Y39035596D01*
X22835518Y38956669D01*
X22964949Y38850449D01*
X23071169Y38721018D01*
X23150096Y38573357D01*
X23198701Y38413127D01*
X23215112Y38246500D01*
X23198701Y38079873D01*
X23150096Y37919643D01*
X23071169Y37771982D01*
X22964949Y37642551D01*
X22835518Y37536331D01*
X22789579Y37511776D01*
X22687855Y37457403D01*
X22607742Y37433101D01*
X22527627Y37408799D01*
X22402752Y37396500D01*
X22319248Y37396500D01*
X22194373Y37408799D01*
X22114258Y37433102D01*
X22034145Y37457403D01*
X21932421Y37511776D01*
X21886482Y37536331D01*
X21757051Y37642551D01*
X21650831Y37771982D01*
X21571904Y37919643D01*
X21523299Y38079873D01*
X21506888Y38246500D01*
X21523299Y38413127D01*
X21571904Y38573357D01*
X21650831Y38721018D01*
X21757051Y38850449D01*
X21886482Y38956669D01*
X22034143Y39035596D01*
X22034145Y39035597D01*
X22114258Y39059899D01*
X22194373Y39084201D01*
X22319248Y39096500D01*
X22402752Y39096500D01*
X22527627Y39084201D01*
X22527627Y39084201D01*
G37*
G36*
X18627627Y39084201D02*
G01*
X18707742Y39059899D01*
X18787855Y39035597D01*
X18787857Y39035596D01*
X18935518Y38956669D01*
X19064949Y38850449D01*
X19171169Y38721018D01*
X19250096Y38573357D01*
X19298701Y38413127D01*
X19315112Y38246500D01*
X19298701Y38079873D01*
X19250096Y37919643D01*
X19171169Y37771982D01*
X19064949Y37642551D01*
X18935518Y37536331D01*
X18889579Y37511776D01*
X18787855Y37457403D01*
X18707742Y37433101D01*
X18627627Y37408799D01*
X18502752Y37396500D01*
X18419248Y37396500D01*
X18294373Y37408799D01*
X18214258Y37433102D01*
X18134145Y37457403D01*
X18032421Y37511776D01*
X17986482Y37536331D01*
X17857051Y37642551D01*
X17750831Y37771982D01*
X17671904Y37919643D01*
X17623299Y38079873D01*
X17606888Y38246500D01*
X17623299Y38413127D01*
X17671904Y38573357D01*
X17750831Y38721018D01*
X17857051Y38850449D01*
X17986482Y38956669D01*
X18134143Y39035596D01*
X18134145Y39035597D01*
X18214258Y39059899D01*
X18294373Y39084201D01*
X18419248Y39096500D01*
X18502752Y39096500D01*
X18627627Y39084201D01*
X18627627Y39084201D01*
G37*
G36*
X95777627Y39714201D02*
G01*
X95857742Y39689899D01*
X95937855Y39665597D01*
X95937857Y39665596D01*
X96085518Y39586669D01*
X96214949Y39480449D01*
X96321169Y39351018D01*
X96400096Y39203357D01*
X96448701Y39043127D01*
X96465112Y38876500D01*
X96448701Y38709873D01*
X96400096Y38549643D01*
X96321169Y38401982D01*
X96214949Y38272551D01*
X96085518Y38166331D01*
X95937857Y38087404D01*
X95937855Y38087403D01*
X95857742Y38063102D01*
X95777627Y38038799D01*
X95652752Y38026500D01*
X95569248Y38026500D01*
X95444373Y38038799D01*
X95364258Y38063101D01*
X95284145Y38087403D01*
X95284143Y38087404D01*
X95136482Y38166331D01*
X95007051Y38272551D01*
X94900831Y38401982D01*
X94821904Y38549643D01*
X94773299Y38709873D01*
X94756888Y38876500D01*
X94773299Y39043127D01*
X94821904Y39203357D01*
X94900831Y39351018D01*
X95007051Y39480449D01*
X95136482Y39586669D01*
X95284143Y39665596D01*
X95284145Y39665597D01*
X95364258Y39689898D01*
X95444373Y39714201D01*
X95569248Y39726500D01*
X95652752Y39726500D01*
X95777627Y39714201D01*
X95777627Y39714201D01*
G37*
G36*
X3194195Y40118978D02*
G01*
X3243267Y40109217D01*
X3381942Y40051776D01*
X3506747Y39968384D01*
X3612884Y39862247D01*
X3696276Y39737442D01*
X3753717Y39598767D01*
X3783000Y39451550D01*
X3783000Y39301450D01*
X3753717Y39154233D01*
X3696276Y39015558D01*
X3612884Y38890753D01*
X3506747Y38784616D01*
X3381942Y38701224D01*
X3243267Y38643783D01*
X3194195Y38634022D01*
X3096052Y38614500D01*
X2945948Y38614500D01*
X2847805Y38634022D01*
X2798733Y38643783D01*
X2660058Y38701224D01*
X2535253Y38784616D01*
X2429116Y38890753D01*
X2345724Y39015558D01*
X2288283Y39154233D01*
X2259000Y39301450D01*
X2259000Y39451550D01*
X2288283Y39598767D01*
X2345724Y39737442D01*
X2429116Y39862247D01*
X2535253Y39968384D01*
X2660058Y40051776D01*
X2798733Y40109217D01*
X2847805Y40118978D01*
X2945948Y40138500D01*
X3096052Y40138500D01*
X3194195Y40118978D01*
X3194195Y40118978D01*
G37*
G36*
X64154195Y40118978D02*
G01*
X64203267Y40109217D01*
X64341942Y40051776D01*
X64466747Y39968384D01*
X64572884Y39862247D01*
X64656276Y39737442D01*
X64713717Y39598767D01*
X64743000Y39451550D01*
X64743000Y39301450D01*
X64713717Y39154233D01*
X64656276Y39015558D01*
X64572884Y38890753D01*
X64466747Y38784616D01*
X64341942Y38701224D01*
X64203267Y38643783D01*
X64154195Y38634022D01*
X64056052Y38614500D01*
X63905948Y38614500D01*
X63807805Y38634022D01*
X63758733Y38643783D01*
X63620058Y38701224D01*
X63495253Y38784616D01*
X63389116Y38890753D01*
X63305724Y39015558D01*
X63248283Y39154233D01*
X63219000Y39301450D01*
X63219000Y39451550D01*
X63248283Y39598767D01*
X63305724Y39737442D01*
X63389116Y39862247D01*
X63495253Y39968384D01*
X63620058Y40051776D01*
X63758733Y40109217D01*
X63807805Y40118978D01*
X63905948Y40138500D01*
X64056052Y40138500D01*
X64154195Y40118978D01*
X64154195Y40118978D01*
G37*
G36*
X66694195Y40118978D02*
G01*
X66743267Y40109217D01*
X66881942Y40051776D01*
X67006747Y39968384D01*
X67112884Y39862247D01*
X67196276Y39737442D01*
X67253717Y39598767D01*
X67283000Y39451550D01*
X67283000Y39301450D01*
X67253717Y39154233D01*
X67196276Y39015558D01*
X67112884Y38890753D01*
X67006747Y38784616D01*
X66881942Y38701224D01*
X66743267Y38643783D01*
X66694195Y38634022D01*
X66596052Y38614500D01*
X66445948Y38614500D01*
X66347805Y38634022D01*
X66298733Y38643783D01*
X66160058Y38701224D01*
X66035253Y38784616D01*
X65929116Y38890753D01*
X65845724Y39015558D01*
X65788283Y39154233D01*
X65759000Y39301450D01*
X65759000Y39451550D01*
X65788283Y39598767D01*
X65845724Y39737442D01*
X65929116Y39862247D01*
X66035253Y39968384D01*
X66160058Y40051776D01*
X66298733Y40109217D01*
X66347805Y40118978D01*
X66445948Y40138500D01*
X66596052Y40138500D01*
X66694195Y40118978D01*
X66694195Y40118978D01*
G37*
G36*
X5734195Y40118978D02*
G01*
X5783267Y40109217D01*
X5921942Y40051776D01*
X6046747Y39968384D01*
X6152884Y39862247D01*
X6236276Y39737442D01*
X6293717Y39598767D01*
X6323000Y39451550D01*
X6323000Y39301450D01*
X6293717Y39154233D01*
X6236276Y39015558D01*
X6152884Y38890753D01*
X6046747Y38784616D01*
X5921942Y38701224D01*
X5783267Y38643783D01*
X5734195Y38634022D01*
X5636052Y38614500D01*
X5485948Y38614500D01*
X5387805Y38634022D01*
X5338733Y38643783D01*
X5200058Y38701224D01*
X5075253Y38784616D01*
X4969116Y38890753D01*
X4885724Y39015558D01*
X4828283Y39154233D01*
X4799000Y39301450D01*
X4799000Y39451550D01*
X4828283Y39598767D01*
X4885724Y39737442D01*
X4969116Y39862247D01*
X5075253Y39968384D01*
X5200058Y40051776D01*
X5338733Y40109217D01*
X5387805Y40118978D01*
X5485948Y40138500D01*
X5636052Y40138500D01*
X5734195Y40118978D01*
X5734195Y40118978D01*
G37*
G36*
X51211000Y38996500D02*
G01*
X49511000Y38996500D01*
X49511000Y40696500D01*
X51211000Y40696500D01*
X51211000Y38996500D01*
X51211000Y38996500D01*
G37*
G36*
X58011000Y38996500D02*
G01*
X56311000Y38996500D01*
X56311000Y40696500D01*
X58011000Y40696500D01*
X58011000Y38996500D01*
X58011000Y38996500D01*
G37*
G36*
X96461000Y40566500D02*
G01*
X94761000Y40566500D01*
X94761000Y42266500D01*
X96461000Y42266500D01*
X96461000Y40566500D01*
X96461000Y40566500D01*
G37*
G36*
X5734195Y42658978D02*
G01*
X5783267Y42649217D01*
X5921942Y42591776D01*
X6046747Y42508384D01*
X6152884Y42402247D01*
X6236276Y42277442D01*
X6262915Y42213129D01*
X6293717Y42138766D01*
X6323000Y41991552D01*
X6323000Y41841448D01*
X6303478Y41743305D01*
X6293717Y41694233D01*
X6236276Y41555558D01*
X6152884Y41430753D01*
X6046747Y41324616D01*
X5921942Y41241224D01*
X5783267Y41183783D01*
X5734195Y41174022D01*
X5636052Y41154500D01*
X5485948Y41154500D01*
X5387805Y41174022D01*
X5338733Y41183783D01*
X5200058Y41241224D01*
X5075253Y41324616D01*
X4969116Y41430753D01*
X4885724Y41555558D01*
X4828283Y41694233D01*
X4818522Y41743305D01*
X4799000Y41841448D01*
X4799000Y41991552D01*
X4828283Y42138766D01*
X4859085Y42213129D01*
X4885724Y42277442D01*
X4969116Y42402247D01*
X5075253Y42508384D01*
X5200058Y42591776D01*
X5338733Y42649217D01*
X5387805Y42658978D01*
X5485948Y42678500D01*
X5636052Y42678500D01*
X5734195Y42658978D01*
X5734195Y42658978D01*
G37*
G36*
X66694195Y42658978D02*
G01*
X66743267Y42649217D01*
X66881942Y42591776D01*
X67006747Y42508384D01*
X67112884Y42402247D01*
X67196276Y42277442D01*
X67222915Y42213129D01*
X67253717Y42138766D01*
X67283000Y41991552D01*
X67283000Y41841448D01*
X67263478Y41743305D01*
X67253717Y41694233D01*
X67196276Y41555558D01*
X67112884Y41430753D01*
X67006747Y41324616D01*
X66881942Y41241224D01*
X66743267Y41183783D01*
X66694195Y41174022D01*
X66596052Y41154500D01*
X66445948Y41154500D01*
X66347805Y41174022D01*
X66298733Y41183783D01*
X66160058Y41241224D01*
X66035253Y41324616D01*
X65929116Y41430753D01*
X65845724Y41555558D01*
X65788283Y41694233D01*
X65778522Y41743305D01*
X65759000Y41841448D01*
X65759000Y41991552D01*
X65788283Y42138766D01*
X65819085Y42213129D01*
X65845724Y42277442D01*
X65929116Y42402247D01*
X66035253Y42508384D01*
X66160058Y42591776D01*
X66298733Y42649217D01*
X66347805Y42658978D01*
X66445948Y42678500D01*
X66596052Y42678500D01*
X66694195Y42658978D01*
X66694195Y42658978D01*
G37*
G36*
X64154195Y42658978D02*
G01*
X64203267Y42649217D01*
X64341942Y42591776D01*
X64466747Y42508384D01*
X64572884Y42402247D01*
X64656276Y42277442D01*
X64682915Y42213129D01*
X64713717Y42138766D01*
X64743000Y41991552D01*
X64743000Y41841448D01*
X64723478Y41743305D01*
X64713717Y41694233D01*
X64656276Y41555558D01*
X64572884Y41430753D01*
X64466747Y41324616D01*
X64341942Y41241224D01*
X64203267Y41183783D01*
X64154195Y41174022D01*
X64056052Y41154500D01*
X63905948Y41154500D01*
X63807805Y41174022D01*
X63758733Y41183783D01*
X63620058Y41241224D01*
X63495253Y41324616D01*
X63389116Y41430753D01*
X63305724Y41555558D01*
X63248283Y41694233D01*
X63238522Y41743305D01*
X63219000Y41841448D01*
X63219000Y41991552D01*
X63248283Y42138766D01*
X63279085Y42213129D01*
X63305724Y42277442D01*
X63389116Y42402247D01*
X63495253Y42508384D01*
X63620058Y42591776D01*
X63758733Y42649217D01*
X63807805Y42658978D01*
X63905948Y42678500D01*
X64056052Y42678500D01*
X64154195Y42658978D01*
X64154195Y42658978D01*
G37*
G36*
X3194195Y42658978D02*
G01*
X3243267Y42649217D01*
X3381942Y42591776D01*
X3506747Y42508384D01*
X3612884Y42402247D01*
X3696276Y42277442D01*
X3722915Y42213129D01*
X3753717Y42138766D01*
X3783000Y41991552D01*
X3783000Y41841448D01*
X3763478Y41743305D01*
X3753717Y41694233D01*
X3696276Y41555558D01*
X3612884Y41430753D01*
X3506747Y41324616D01*
X3381942Y41241224D01*
X3243267Y41183783D01*
X3194195Y41174022D01*
X3096052Y41154500D01*
X2945948Y41154500D01*
X2847805Y41174022D01*
X2798733Y41183783D01*
X2660058Y41241224D01*
X2535253Y41324616D01*
X2429116Y41430753D01*
X2345724Y41555558D01*
X2288283Y41694233D01*
X2278522Y41743305D01*
X2259000Y41841448D01*
X2259000Y41991552D01*
X2288283Y42138766D01*
X2319085Y42213129D01*
X2345724Y42277442D01*
X2429116Y42402247D01*
X2535253Y42508384D01*
X2660058Y42591776D01*
X2798733Y42649217D01*
X2847805Y42658978D01*
X2945948Y42678500D01*
X3096052Y42678500D01*
X3194195Y42658978D01*
X3194195Y42658978D01*
G37*
G36*
X22527627Y42884201D02*
G01*
X22604048Y42861019D01*
X22687855Y42835597D01*
X22687857Y42835596D01*
X22835518Y42756669D01*
X22964949Y42650449D01*
X23071169Y42521018D01*
X23150096Y42373357D01*
X23198701Y42213127D01*
X23215112Y42046500D01*
X23198701Y41879873D01*
X23150096Y41719643D01*
X23071169Y41571982D01*
X22964949Y41442551D01*
X22835518Y41336331D01*
X22725274Y41277404D01*
X22687855Y41257403D01*
X22607742Y41233102D01*
X22527627Y41208799D01*
X22402752Y41196500D01*
X22319248Y41196500D01*
X22194373Y41208799D01*
X22114258Y41233102D01*
X22034145Y41257403D01*
X21996726Y41277404D01*
X21886482Y41336331D01*
X21757051Y41442551D01*
X21650831Y41571982D01*
X21571904Y41719643D01*
X21523299Y41879873D01*
X21506888Y42046500D01*
X21523299Y42213127D01*
X21571904Y42373357D01*
X21650831Y42521018D01*
X21757051Y42650449D01*
X21886482Y42756669D01*
X22034143Y42835596D01*
X22034145Y42835597D01*
X22117952Y42861019D01*
X22194373Y42884201D01*
X22319248Y42896500D01*
X22402752Y42896500D01*
X22527627Y42884201D01*
X22527627Y42884201D01*
G37*
G36*
X18627627Y42904201D02*
G01*
X18693558Y42884201D01*
X18787855Y42855597D01*
X18787857Y42855596D01*
X18935518Y42776669D01*
X19064949Y42670449D01*
X19171169Y42541018D01*
X19250096Y42393357D01*
X19298701Y42233127D01*
X19315112Y42066500D01*
X19298701Y41899873D01*
X19250096Y41739643D01*
X19171169Y41591982D01*
X19064949Y41462551D01*
X18935518Y41356331D01*
X18787857Y41277404D01*
X18787855Y41277403D01*
X18721926Y41257404D01*
X18627627Y41228799D01*
X18502752Y41216500D01*
X18419248Y41216500D01*
X18294373Y41228799D01*
X18200074Y41257404D01*
X18134145Y41277403D01*
X18134143Y41277404D01*
X17986482Y41356331D01*
X17857051Y41462551D01*
X17750831Y41591982D01*
X17671904Y41739643D01*
X17623299Y41899873D01*
X17606888Y42066500D01*
X17623299Y42233127D01*
X17671904Y42393357D01*
X17750831Y42541018D01*
X17857051Y42670449D01*
X17986482Y42776669D01*
X18134143Y42855596D01*
X18134145Y42855597D01*
X18228442Y42884201D01*
X18294373Y42904201D01*
X18419248Y42916500D01*
X18502752Y42916500D01*
X18627627Y42904201D01*
X18627627Y42904201D01*
G37*
G36*
X57327627Y43224201D02*
G01*
X57407742Y43199899D01*
X57487855Y43175597D01*
X57487857Y43175596D01*
X57635518Y43096669D01*
X57764949Y42990449D01*
X57871169Y42861018D01*
X57950096Y42713357D01*
X57998701Y42553127D01*
X58015112Y42386500D01*
X57998701Y42219873D01*
X57950096Y42059643D01*
X57871169Y41911982D01*
X57764949Y41782551D01*
X57635518Y41676331D01*
X57487857Y41597404D01*
X57487855Y41597403D01*
X57407742Y41573101D01*
X57327627Y41548799D01*
X57202752Y41536500D01*
X57119248Y41536500D01*
X56994373Y41548799D01*
X56914258Y41573101D01*
X56834145Y41597403D01*
X56834143Y41597404D01*
X56686482Y41676331D01*
X56557051Y41782551D01*
X56450831Y41911982D01*
X56371904Y42059643D01*
X56323299Y42219873D01*
X56306888Y42386500D01*
X56323299Y42553127D01*
X56371904Y42713357D01*
X56450831Y42861018D01*
X56557051Y42990449D01*
X56686482Y43096669D01*
X56834143Y43175596D01*
X56834145Y43175597D01*
X56914258Y43199899D01*
X56994373Y43224201D01*
X57119248Y43236500D01*
X57202752Y43236500D01*
X57327627Y43224201D01*
X57327627Y43224201D01*
G37*
G36*
X50527627Y43224201D02*
G01*
X50607742Y43199899D01*
X50687855Y43175597D01*
X50687857Y43175596D01*
X50835518Y43096669D01*
X50964949Y42990449D01*
X51071169Y42861018D01*
X51150096Y42713357D01*
X51198701Y42553127D01*
X51215112Y42386500D01*
X51198701Y42219873D01*
X51150096Y42059643D01*
X51071169Y41911982D01*
X50964949Y41782551D01*
X50835518Y41676331D01*
X50687857Y41597404D01*
X50687855Y41597403D01*
X50607742Y41573101D01*
X50527627Y41548799D01*
X50402752Y41536500D01*
X50319248Y41536500D01*
X50194373Y41548799D01*
X50114258Y41573101D01*
X50034145Y41597403D01*
X50034143Y41597404D01*
X49886482Y41676331D01*
X49757051Y41782551D01*
X49650831Y41911982D01*
X49571904Y42059643D01*
X49523299Y42219873D01*
X49506888Y42386500D01*
X49523299Y42553127D01*
X49571904Y42713357D01*
X49650831Y42861018D01*
X49757051Y42990449D01*
X49886482Y43096669D01*
X50034143Y43175596D01*
X50034145Y43175597D01*
X50114258Y43199899D01*
X50194373Y43224201D01*
X50319248Y43236500D01*
X50402752Y43236500D01*
X50527627Y43224201D01*
X50527627Y43224201D01*
G37*
G36*
X3194195Y45198978D02*
G01*
X3243267Y45189217D01*
X3381942Y45131776D01*
X3506747Y45048384D01*
X3612884Y44942247D01*
X3696276Y44817442D01*
X3753717Y44678767D01*
X3783000Y44531550D01*
X3783000Y44381450D01*
X3753717Y44234233D01*
X3696276Y44095558D01*
X3612884Y43970753D01*
X3506747Y43864616D01*
X3381942Y43781224D01*
X3243267Y43723783D01*
X3194195Y43714022D01*
X3096052Y43694500D01*
X2945948Y43694500D01*
X2847805Y43714022D01*
X2798733Y43723783D01*
X2660058Y43781224D01*
X2535253Y43864616D01*
X2429116Y43970753D01*
X2345724Y44095558D01*
X2288283Y44234233D01*
X2259000Y44381450D01*
X2259000Y44531550D01*
X2288283Y44678767D01*
X2345724Y44817442D01*
X2429116Y44942247D01*
X2535253Y45048384D01*
X2660058Y45131776D01*
X2798733Y45189217D01*
X2847805Y45198978D01*
X2945948Y45218500D01*
X3096052Y45218500D01*
X3194195Y45198978D01*
X3194195Y45198978D01*
G37*
G36*
X5734195Y45198978D02*
G01*
X5783267Y45189217D01*
X5921942Y45131776D01*
X6046747Y45048384D01*
X6152884Y44942247D01*
X6236276Y44817442D01*
X6293717Y44678767D01*
X6323000Y44531550D01*
X6323000Y44381450D01*
X6293717Y44234233D01*
X6236276Y44095558D01*
X6152884Y43970753D01*
X6046747Y43864616D01*
X5921942Y43781224D01*
X5783267Y43723783D01*
X5734195Y43714022D01*
X5636052Y43694500D01*
X5485948Y43694500D01*
X5387805Y43714022D01*
X5338733Y43723783D01*
X5200058Y43781224D01*
X5075253Y43864616D01*
X4969116Y43970753D01*
X4885724Y44095558D01*
X4828283Y44234233D01*
X4799000Y44381450D01*
X4799000Y44531550D01*
X4828283Y44678767D01*
X4885724Y44817442D01*
X4969116Y44942247D01*
X5075253Y45048384D01*
X5200058Y45131776D01*
X5338733Y45189217D01*
X5387805Y45198978D01*
X5485948Y45218500D01*
X5636052Y45218500D01*
X5734195Y45198978D01*
X5734195Y45198978D01*
G37*
G36*
X64154195Y45198978D02*
G01*
X64203267Y45189217D01*
X64341942Y45131776D01*
X64466747Y45048384D01*
X64572884Y44942247D01*
X64656276Y44817442D01*
X64713717Y44678767D01*
X64743000Y44531550D01*
X64743000Y44381450D01*
X64713717Y44234233D01*
X64656276Y44095558D01*
X64572884Y43970753D01*
X64466747Y43864616D01*
X64341942Y43781224D01*
X64203267Y43723783D01*
X64154195Y43714022D01*
X64056052Y43694500D01*
X63905948Y43694500D01*
X63807805Y43714022D01*
X63758733Y43723783D01*
X63620058Y43781224D01*
X63495253Y43864616D01*
X63389116Y43970753D01*
X63305724Y44095558D01*
X63248283Y44234233D01*
X63219000Y44381450D01*
X63219000Y44531550D01*
X63248283Y44678767D01*
X63305724Y44817442D01*
X63389116Y44942247D01*
X63495253Y45048384D01*
X63620058Y45131776D01*
X63758733Y45189217D01*
X63807805Y45198978D01*
X63905948Y45218500D01*
X64056052Y45218500D01*
X64154195Y45198978D01*
X64154195Y45198978D01*
G37*
G36*
X66694195Y45198978D02*
G01*
X66743267Y45189217D01*
X66881942Y45131776D01*
X67006747Y45048384D01*
X67112884Y44942247D01*
X67196276Y44817442D01*
X67253717Y44678767D01*
X67283000Y44531550D01*
X67283000Y44381450D01*
X67253717Y44234233D01*
X67196276Y44095558D01*
X67112884Y43970753D01*
X67006747Y43864616D01*
X66881942Y43781224D01*
X66743267Y43723783D01*
X66694195Y43714022D01*
X66596052Y43694500D01*
X66445948Y43694500D01*
X66347805Y43714022D01*
X66298733Y43723783D01*
X66160058Y43781224D01*
X66035253Y43864616D01*
X65929116Y43970753D01*
X65845724Y44095558D01*
X65788283Y44234233D01*
X65759000Y44381450D01*
X65759000Y44531550D01*
X65788283Y44678767D01*
X65845724Y44817442D01*
X65929116Y44942247D01*
X66035253Y45048384D01*
X66160058Y45131776D01*
X66298733Y45189217D01*
X66347805Y45198978D01*
X66445948Y45218500D01*
X66596052Y45218500D01*
X66694195Y45198978D01*
X66694195Y45198978D01*
G37*
G36*
X22527627Y45424201D02*
G01*
X22607742Y45399899D01*
X22687855Y45375597D01*
X22687857Y45375596D01*
X22835518Y45296669D01*
X22964949Y45190449D01*
X23071169Y45061018D01*
X23150096Y44913357D01*
X23198701Y44753127D01*
X23215112Y44586500D01*
X23198701Y44419873D01*
X23150096Y44259643D01*
X23071169Y44111982D01*
X22964949Y43982551D01*
X22835518Y43876331D01*
X22725274Y43817404D01*
X22687855Y43797403D01*
X22607742Y43773102D01*
X22527627Y43748799D01*
X22402752Y43736500D01*
X22319248Y43736500D01*
X22194373Y43748799D01*
X22114258Y43773101D01*
X22034145Y43797403D01*
X21996726Y43817404D01*
X21886482Y43876331D01*
X21757051Y43982551D01*
X21650831Y44111982D01*
X21571904Y44259643D01*
X21523299Y44419873D01*
X21506888Y44586500D01*
X21523299Y44753127D01*
X21571904Y44913357D01*
X21650831Y45061018D01*
X21757051Y45190449D01*
X21886482Y45296669D01*
X22034143Y45375596D01*
X22034145Y45375597D01*
X22114258Y45399899D01*
X22194373Y45424201D01*
X22319248Y45436500D01*
X22402752Y45436500D01*
X22527627Y45424201D01*
X22527627Y45424201D01*
G37*
G36*
X18627627Y45444201D02*
G01*
X18693558Y45424201D01*
X18787855Y45395597D01*
X18787857Y45395596D01*
X18935518Y45316669D01*
X19064949Y45210449D01*
X19171169Y45081018D01*
X19250096Y44933357D01*
X19298701Y44773127D01*
X19315112Y44606500D01*
X19298701Y44439873D01*
X19250096Y44279643D01*
X19171169Y44131982D01*
X19064949Y44002551D01*
X18935518Y43896331D01*
X18787857Y43817404D01*
X18787855Y43817403D01*
X18721926Y43797404D01*
X18627627Y43768799D01*
X18502752Y43756500D01*
X18419248Y43756500D01*
X18294373Y43768799D01*
X18200074Y43797404D01*
X18134145Y43817403D01*
X18134143Y43817404D01*
X17986482Y43896331D01*
X17857051Y44002551D01*
X17750831Y44131982D01*
X17671904Y44279643D01*
X17623299Y44439873D01*
X17606888Y44606500D01*
X17623299Y44773127D01*
X17671904Y44933357D01*
X17750831Y45081018D01*
X17857051Y45210449D01*
X17986482Y45316669D01*
X18134143Y45395596D01*
X18134145Y45395597D01*
X18228442Y45424201D01*
X18294373Y45444201D01*
X18419248Y45456500D01*
X18502752Y45456500D01*
X18627627Y45444201D01*
X18627627Y45444201D01*
G37*
G36*
X66694195Y47738978D02*
G01*
X66743267Y47729217D01*
X66881942Y47671776D01*
X67006747Y47588384D01*
X67112884Y47482247D01*
X67196276Y47357442D01*
X67253717Y47218767D01*
X67283000Y47071550D01*
X67283000Y46921450D01*
X67253717Y46774233D01*
X67196276Y46635558D01*
X67112884Y46510753D01*
X67006747Y46404616D01*
X66881942Y46321224D01*
X66743267Y46263783D01*
X66694195Y46254022D01*
X66596052Y46234500D01*
X66445948Y46234500D01*
X66347805Y46254022D01*
X66298733Y46263783D01*
X66160058Y46321224D01*
X66035253Y46404616D01*
X65929116Y46510753D01*
X65845724Y46635558D01*
X65788283Y46774233D01*
X65759000Y46921450D01*
X65759000Y47071550D01*
X65788283Y47218767D01*
X65845724Y47357442D01*
X65929116Y47482247D01*
X66035253Y47588384D01*
X66160058Y47671776D01*
X66298733Y47729217D01*
X66347805Y47738978D01*
X66445948Y47758500D01*
X66596052Y47758500D01*
X66694195Y47738978D01*
X66694195Y47738978D01*
G37*
G36*
X64154195Y47738978D02*
G01*
X64203267Y47729217D01*
X64341942Y47671776D01*
X64466747Y47588384D01*
X64572884Y47482247D01*
X64656276Y47357442D01*
X64713717Y47218767D01*
X64743000Y47071550D01*
X64743000Y46921450D01*
X64713717Y46774233D01*
X64656276Y46635558D01*
X64572884Y46510753D01*
X64466747Y46404616D01*
X64341942Y46321224D01*
X64203267Y46263783D01*
X64154195Y46254022D01*
X64056052Y46234500D01*
X63905948Y46234500D01*
X63807805Y46254022D01*
X63758733Y46263783D01*
X63620058Y46321224D01*
X63495253Y46404616D01*
X63389116Y46510753D01*
X63305724Y46635558D01*
X63248283Y46774233D01*
X63219000Y46921450D01*
X63219000Y47071550D01*
X63248283Y47218767D01*
X63305724Y47357442D01*
X63389116Y47482247D01*
X63495253Y47588384D01*
X63620058Y47671776D01*
X63758733Y47729217D01*
X63807805Y47738978D01*
X63905948Y47758500D01*
X64056052Y47758500D01*
X64154195Y47738978D01*
X64154195Y47738978D01*
G37*
G36*
X5734195Y47738978D02*
G01*
X5783267Y47729217D01*
X5921942Y47671776D01*
X6046747Y47588384D01*
X6152884Y47482247D01*
X6236276Y47357442D01*
X6293717Y47218767D01*
X6323000Y47071550D01*
X6323000Y46921450D01*
X6293717Y46774233D01*
X6236276Y46635558D01*
X6152884Y46510753D01*
X6046747Y46404616D01*
X5921942Y46321224D01*
X5783267Y46263783D01*
X5734195Y46254022D01*
X5636052Y46234500D01*
X5485948Y46234500D01*
X5387805Y46254022D01*
X5338733Y46263783D01*
X5200058Y46321224D01*
X5075253Y46404616D01*
X4969116Y46510753D01*
X4885724Y46635558D01*
X4828283Y46774233D01*
X4799000Y46921450D01*
X4799000Y47071550D01*
X4828283Y47218767D01*
X4885724Y47357442D01*
X4969116Y47482247D01*
X5075253Y47588384D01*
X5200058Y47671776D01*
X5338733Y47729217D01*
X5387805Y47738978D01*
X5485948Y47758500D01*
X5636052Y47758500D01*
X5734195Y47738978D01*
X5734195Y47738978D01*
G37*
G36*
X3194195Y47738978D02*
G01*
X3243267Y47729217D01*
X3381942Y47671776D01*
X3506747Y47588384D01*
X3612884Y47482247D01*
X3696276Y47357442D01*
X3753717Y47218767D01*
X3783000Y47071550D01*
X3783000Y46921450D01*
X3753717Y46774233D01*
X3696276Y46635558D01*
X3612884Y46510753D01*
X3506747Y46404616D01*
X3381942Y46321224D01*
X3243267Y46263783D01*
X3194195Y46254022D01*
X3096052Y46234500D01*
X2945948Y46234500D01*
X2847805Y46254022D01*
X2798733Y46263783D01*
X2660058Y46321224D01*
X2535253Y46404616D01*
X2429116Y46510753D01*
X2345724Y46635558D01*
X2288283Y46774233D01*
X2259000Y46921450D01*
X2259000Y47071550D01*
X2288283Y47218767D01*
X2345724Y47357442D01*
X2429116Y47482247D01*
X2535253Y47588384D01*
X2660058Y47671776D01*
X2798733Y47729217D01*
X2847805Y47738978D01*
X2945948Y47758500D01*
X3096052Y47758500D01*
X3194195Y47738978D01*
X3194195Y47738978D01*
G37*
G36*
X23211000Y46276500D02*
G01*
X21511000Y46276500D01*
X21511000Y47976500D01*
X23211000Y47976500D01*
X23211000Y46276500D01*
X23211000Y46276500D01*
G37*
G36*
X19311000Y46296500D02*
G01*
X17611000Y46296500D01*
X17611000Y47996500D01*
X19311000Y47996500D01*
X19311000Y46296500D01*
X19311000Y46296500D01*
G37*
G36*
X44311000Y47996500D02*
G01*
X42611000Y47996500D01*
X42611000Y49696500D01*
X44311000Y49696500D01*
X44311000Y47996500D01*
X44311000Y47996500D01*
G37*
G36*
X51211000Y47996500D02*
G01*
X49511000Y47996500D01*
X49511000Y49696500D01*
X51211000Y49696500D01*
X51211000Y47996500D01*
X51211000Y47996500D01*
G37*
G36*
X58111000Y47996500D02*
G01*
X56411000Y47996500D01*
X56411000Y49696500D01*
X58111000Y49696500D01*
X58111000Y47996500D01*
X58111000Y47996500D01*
G37*
G36*
X3194195Y50278978D02*
G01*
X3243267Y50269217D01*
X3381942Y50211776D01*
X3506747Y50128384D01*
X3612884Y50022247D01*
X3696276Y49897442D01*
X3753717Y49758767D01*
X3783000Y49611550D01*
X3783000Y49461450D01*
X3753717Y49314233D01*
X3696276Y49175558D01*
X3612884Y49050753D01*
X3506747Y48944616D01*
X3381942Y48861224D01*
X3243267Y48803783D01*
X3194195Y48794022D01*
X3096052Y48774500D01*
X2945948Y48774500D01*
X2847805Y48794022D01*
X2798733Y48803783D01*
X2660058Y48861224D01*
X2535253Y48944616D01*
X2429116Y49050753D01*
X2345724Y49175558D01*
X2288283Y49314233D01*
X2259000Y49461450D01*
X2259000Y49611550D01*
X2288283Y49758767D01*
X2345724Y49897442D01*
X2429116Y50022247D01*
X2535253Y50128384D01*
X2660058Y50211776D01*
X2798733Y50269217D01*
X2847805Y50278978D01*
X2945948Y50298500D01*
X3096052Y50298500D01*
X3194195Y50278978D01*
X3194195Y50278978D01*
G37*
G36*
X66694195Y50278978D02*
G01*
X66743267Y50269217D01*
X66881942Y50211776D01*
X67006747Y50128384D01*
X67112884Y50022247D01*
X67196276Y49897442D01*
X67253717Y49758767D01*
X67283000Y49611550D01*
X67283000Y49461450D01*
X67253717Y49314233D01*
X67196276Y49175558D01*
X67112884Y49050753D01*
X67006747Y48944616D01*
X66881942Y48861224D01*
X66743267Y48803783D01*
X66694195Y48794022D01*
X66596052Y48774500D01*
X66445948Y48774500D01*
X66347805Y48794022D01*
X66298733Y48803783D01*
X66160058Y48861224D01*
X66035253Y48944616D01*
X65929116Y49050753D01*
X65845724Y49175558D01*
X65788283Y49314233D01*
X65759000Y49461450D01*
X65759000Y49611550D01*
X65788283Y49758767D01*
X65845724Y49897442D01*
X65929116Y50022247D01*
X66035253Y50128384D01*
X66160058Y50211776D01*
X66298733Y50269217D01*
X66347805Y50278978D01*
X66445948Y50298500D01*
X66596052Y50298500D01*
X66694195Y50278978D01*
X66694195Y50278978D01*
G37*
G36*
X5734195Y50278978D02*
G01*
X5783267Y50269217D01*
X5921942Y50211776D01*
X6046747Y50128384D01*
X6152884Y50022247D01*
X6236276Y49897442D01*
X6293717Y49758767D01*
X6323000Y49611550D01*
X6323000Y49461450D01*
X6293717Y49314233D01*
X6236276Y49175558D01*
X6152884Y49050753D01*
X6046747Y48944616D01*
X5921942Y48861224D01*
X5783267Y48803783D01*
X5734195Y48794022D01*
X5636052Y48774500D01*
X5485948Y48774500D01*
X5387805Y48794022D01*
X5338733Y48803783D01*
X5200058Y48861224D01*
X5075253Y48944616D01*
X4969116Y49050753D01*
X4885724Y49175558D01*
X4828283Y49314233D01*
X4799000Y49461450D01*
X4799000Y49611550D01*
X4828283Y49758767D01*
X4885724Y49897442D01*
X4969116Y50022247D01*
X5075253Y50128384D01*
X5200058Y50211776D01*
X5338733Y50269217D01*
X5387805Y50278978D01*
X5485948Y50298500D01*
X5636052Y50298500D01*
X5734195Y50278978D01*
X5734195Y50278978D01*
G37*
G36*
X64154195Y50278978D02*
G01*
X64203267Y50269217D01*
X64341942Y50211776D01*
X64466747Y50128384D01*
X64572884Y50022247D01*
X64656276Y49897442D01*
X64713717Y49758767D01*
X64743000Y49611550D01*
X64743000Y49461450D01*
X64713717Y49314233D01*
X64656276Y49175558D01*
X64572884Y49050753D01*
X64466747Y48944616D01*
X64341942Y48861224D01*
X64203267Y48803783D01*
X64154195Y48794022D01*
X64056052Y48774500D01*
X63905948Y48774500D01*
X63807805Y48794022D01*
X63758733Y48803783D01*
X63620058Y48861224D01*
X63495253Y48944616D01*
X63389116Y49050753D01*
X63305724Y49175558D01*
X63248283Y49314233D01*
X63219000Y49461450D01*
X63219000Y49611550D01*
X63248283Y49758767D01*
X63305724Y49897442D01*
X63389116Y50022247D01*
X63495253Y50128384D01*
X63620058Y50211776D01*
X63758733Y50269217D01*
X63807805Y50278978D01*
X63905948Y50298500D01*
X64056052Y50298500D01*
X64154195Y50278978D01*
X64154195Y50278978D01*
G37*
G36*
X43627627Y52224201D02*
G01*
X43707742Y52199898D01*
X43787855Y52175597D01*
X43787857Y52175596D01*
X43935518Y52096669D01*
X44064949Y51990449D01*
X44171169Y51861018D01*
X44250096Y51713357D01*
X44298701Y51553127D01*
X44315112Y51386500D01*
X44298701Y51219873D01*
X44250096Y51059643D01*
X44171169Y50911982D01*
X44064949Y50782551D01*
X43935518Y50676331D01*
X43787857Y50597404D01*
X43787855Y50597403D01*
X43707742Y50573101D01*
X43627627Y50548799D01*
X43502752Y50536500D01*
X43419248Y50536500D01*
X43294373Y50548799D01*
X43214258Y50573102D01*
X43134145Y50597403D01*
X43134143Y50597404D01*
X42986482Y50676331D01*
X42857051Y50782551D01*
X42750831Y50911982D01*
X42671904Y51059643D01*
X42623299Y51219873D01*
X42606888Y51386500D01*
X42623299Y51553127D01*
X42671904Y51713357D01*
X42750831Y51861018D01*
X42857051Y51990449D01*
X42986482Y52096669D01*
X43134143Y52175596D01*
X43134145Y52175597D01*
X43214258Y52199898D01*
X43294373Y52224201D01*
X43419248Y52236500D01*
X43502752Y52236500D01*
X43627627Y52224201D01*
X43627627Y52224201D01*
G37*
G36*
X50527627Y52224201D02*
G01*
X50607742Y52199898D01*
X50687855Y52175597D01*
X50687857Y52175596D01*
X50835518Y52096669D01*
X50964949Y51990449D01*
X51071169Y51861018D01*
X51150096Y51713357D01*
X51198701Y51553127D01*
X51215112Y51386500D01*
X51198701Y51219873D01*
X51150096Y51059643D01*
X51071169Y50911982D01*
X50964949Y50782551D01*
X50835518Y50676331D01*
X50687857Y50597404D01*
X50687855Y50597403D01*
X50607742Y50573101D01*
X50527627Y50548799D01*
X50402752Y50536500D01*
X50319248Y50536500D01*
X50194373Y50548799D01*
X50114258Y50573102D01*
X50034145Y50597403D01*
X50034143Y50597404D01*
X49886482Y50676331D01*
X49757051Y50782551D01*
X49650831Y50911982D01*
X49571904Y51059643D01*
X49523299Y51219873D01*
X49506888Y51386500D01*
X49523299Y51553127D01*
X49571904Y51713357D01*
X49650831Y51861018D01*
X49757051Y51990449D01*
X49886482Y52096669D01*
X50034143Y52175596D01*
X50034145Y52175597D01*
X50114258Y52199898D01*
X50194373Y52224201D01*
X50319248Y52236500D01*
X50402752Y52236500D01*
X50527627Y52224201D01*
X50527627Y52224201D01*
G37*
G36*
X57427627Y52224201D02*
G01*
X57507742Y52199898D01*
X57587855Y52175597D01*
X57587857Y52175596D01*
X57735518Y52096669D01*
X57864949Y51990449D01*
X57971169Y51861018D01*
X58050096Y51713357D01*
X58098701Y51553127D01*
X58115112Y51386500D01*
X58098701Y51219873D01*
X58050096Y51059643D01*
X57971169Y50911982D01*
X57864949Y50782551D01*
X57735518Y50676331D01*
X57587857Y50597404D01*
X57587855Y50597403D01*
X57507742Y50573101D01*
X57427627Y50548799D01*
X57302752Y50536500D01*
X57219248Y50536500D01*
X57094373Y50548799D01*
X57014258Y50573102D01*
X56934145Y50597403D01*
X56934143Y50597404D01*
X56786482Y50676331D01*
X56657051Y50782551D01*
X56550831Y50911982D01*
X56471904Y51059643D01*
X56423299Y51219873D01*
X56406888Y51386500D01*
X56423299Y51553127D01*
X56471904Y51713357D01*
X56550831Y51861018D01*
X56657051Y51990449D01*
X56786482Y52096669D01*
X56934143Y52175596D01*
X56934145Y52175597D01*
X57014258Y52199898D01*
X57094373Y52224201D01*
X57219248Y52236500D01*
X57302752Y52236500D01*
X57427627Y52224201D01*
X57427627Y52224201D01*
G37*
G36*
X5734195Y52818978D02*
G01*
X5783267Y52809217D01*
X5921942Y52751776D01*
X6046747Y52668384D01*
X6152884Y52562247D01*
X6236276Y52437442D01*
X6293717Y52298767D01*
X6323000Y52151550D01*
X6323000Y52001450D01*
X6293717Y51854233D01*
X6236276Y51715558D01*
X6152884Y51590753D01*
X6046747Y51484616D01*
X5921942Y51401224D01*
X5783267Y51343783D01*
X5734195Y51334022D01*
X5636052Y51314500D01*
X5485948Y51314500D01*
X5387805Y51334022D01*
X5338733Y51343783D01*
X5200058Y51401224D01*
X5075253Y51484616D01*
X4969116Y51590753D01*
X4885724Y51715558D01*
X4828283Y51854233D01*
X4799000Y52001450D01*
X4799000Y52151550D01*
X4828283Y52298767D01*
X4885724Y52437442D01*
X4969116Y52562247D01*
X5075253Y52668384D01*
X5200058Y52751776D01*
X5338733Y52809217D01*
X5387805Y52818978D01*
X5485948Y52838500D01*
X5636052Y52838500D01*
X5734195Y52818978D01*
X5734195Y52818978D01*
G37*
G36*
X64154195Y52818978D02*
G01*
X64203267Y52809217D01*
X64341942Y52751776D01*
X64466747Y52668384D01*
X64572884Y52562247D01*
X64656276Y52437442D01*
X64713717Y52298767D01*
X64743000Y52151550D01*
X64743000Y52001450D01*
X64713717Y51854233D01*
X64656276Y51715558D01*
X64572884Y51590753D01*
X64466747Y51484616D01*
X64341942Y51401224D01*
X64203267Y51343783D01*
X64154195Y51334022D01*
X64056052Y51314500D01*
X63905948Y51314500D01*
X63807805Y51334022D01*
X63758733Y51343783D01*
X63620058Y51401224D01*
X63495253Y51484616D01*
X63389116Y51590753D01*
X63305724Y51715558D01*
X63248283Y51854233D01*
X63219000Y52001450D01*
X63219000Y52151550D01*
X63248283Y52298767D01*
X63305724Y52437442D01*
X63389116Y52562247D01*
X63495253Y52668384D01*
X63620058Y52751776D01*
X63758733Y52809217D01*
X63807805Y52818978D01*
X63905948Y52838500D01*
X64056052Y52838500D01*
X64154195Y52818978D01*
X64154195Y52818978D01*
G37*
G36*
X66694195Y52818978D02*
G01*
X66743267Y52809217D01*
X66881942Y52751776D01*
X67006747Y52668384D01*
X67112884Y52562247D01*
X67196276Y52437442D01*
X67253717Y52298767D01*
X67283000Y52151550D01*
X67283000Y52001450D01*
X67253717Y51854233D01*
X67196276Y51715558D01*
X67112884Y51590753D01*
X67006747Y51484616D01*
X66881942Y51401224D01*
X66743267Y51343783D01*
X66694195Y51334022D01*
X66596052Y51314500D01*
X66445948Y51314500D01*
X66347805Y51334022D01*
X66298733Y51343783D01*
X66160058Y51401224D01*
X66035253Y51484616D01*
X65929116Y51590753D01*
X65845724Y51715558D01*
X65788283Y51854233D01*
X65759000Y52001450D01*
X65759000Y52151550D01*
X65788283Y52298767D01*
X65845724Y52437442D01*
X65929116Y52562247D01*
X66035253Y52668384D01*
X66160058Y52751776D01*
X66298733Y52809217D01*
X66347805Y52818978D01*
X66445948Y52838500D01*
X66596052Y52838500D01*
X66694195Y52818978D01*
X66694195Y52818978D01*
G37*
G36*
X3194195Y52818978D02*
G01*
X3243267Y52809217D01*
X3381942Y52751776D01*
X3506747Y52668384D01*
X3612884Y52562247D01*
X3696276Y52437442D01*
X3753717Y52298767D01*
X3783000Y52151550D01*
X3783000Y52001450D01*
X3753717Y51854233D01*
X3696276Y51715558D01*
X3612884Y51590753D01*
X3506747Y51484616D01*
X3381942Y51401224D01*
X3243267Y51343783D01*
X3194195Y51334022D01*
X3096052Y51314500D01*
X2945948Y51314500D01*
X2847805Y51334022D01*
X2798733Y51343783D01*
X2660058Y51401224D01*
X2535253Y51484616D01*
X2429116Y51590753D01*
X2345724Y51715558D01*
X2288283Y51854233D01*
X2259000Y52001450D01*
X2259000Y52151550D01*
X2288283Y52298767D01*
X2345724Y52437442D01*
X2429116Y52562247D01*
X2535253Y52668384D01*
X2660058Y52751776D01*
X2798733Y52809217D01*
X2847805Y52818978D01*
X2945948Y52838500D01*
X3096052Y52838500D01*
X3194195Y52818978D01*
X3194195Y52818978D01*
G37*
G36*
X27732628Y54109202D02*
G01*
X27812743Y54084899D01*
X27892856Y54060598D01*
X27892858Y54060597D01*
X28040519Y53981670D01*
X28169950Y53875450D01*
X28276170Y53746019D01*
X28355097Y53598358D01*
X28403702Y53438128D01*
X28420113Y53271501D01*
X28403702Y53104874D01*
X28355097Y52944644D01*
X28276170Y52796983D01*
X28169950Y52667552D01*
X28040519Y52561332D01*
X27892858Y52482405D01*
X27892856Y52482404D01*
X27812743Y52458102D01*
X27732628Y52433800D01*
X27607753Y52421501D01*
X27524249Y52421501D01*
X27399374Y52433800D01*
X27319259Y52458102D01*
X27239146Y52482404D01*
X27239144Y52482405D01*
X27091483Y52561332D01*
X26962052Y52667552D01*
X26855832Y52796983D01*
X26776905Y52944644D01*
X26728300Y53104874D01*
X26711889Y53271501D01*
X26728300Y53438128D01*
X26776905Y53598358D01*
X26855832Y53746019D01*
X26962052Y53875450D01*
X27091483Y53981670D01*
X27239144Y54060597D01*
X27239146Y54060598D01*
X27319259Y54084899D01*
X27399374Y54109202D01*
X27524249Y54121501D01*
X27607753Y54121501D01*
X27732628Y54109202D01*
X27732628Y54109202D01*
G37*
G36*
X25192628Y54109202D02*
G01*
X25272743Y54084899D01*
X25352856Y54060598D01*
X25352858Y54060597D01*
X25500519Y53981670D01*
X25629950Y53875450D01*
X25736170Y53746019D01*
X25815097Y53598358D01*
X25863702Y53438128D01*
X25880113Y53271501D01*
X25863702Y53104874D01*
X25815097Y52944644D01*
X25736170Y52796983D01*
X25629950Y52667552D01*
X25500519Y52561332D01*
X25352858Y52482405D01*
X25352856Y52482404D01*
X25272743Y52458102D01*
X25192628Y52433800D01*
X25067753Y52421501D01*
X24984249Y52421501D01*
X24859374Y52433800D01*
X24779259Y52458102D01*
X24699146Y52482404D01*
X24699144Y52482405D01*
X24551483Y52561332D01*
X24422052Y52667552D01*
X24315832Y52796983D01*
X24236905Y52944644D01*
X24188300Y53104874D01*
X24171889Y53271501D01*
X24188300Y53438128D01*
X24236905Y53598358D01*
X24315832Y53746019D01*
X24422052Y53875450D01*
X24551483Y53981670D01*
X24699144Y54060597D01*
X24699146Y54060598D01*
X24779259Y54084899D01*
X24859374Y54109202D01*
X24984249Y54121501D01*
X25067753Y54121501D01*
X25192628Y54109202D01*
X25192628Y54109202D01*
G37*
G36*
X23336001Y52421501D02*
G01*
X21636001Y52421501D01*
X21636001Y54121501D01*
X23336001Y54121501D01*
X23336001Y52421501D01*
X23336001Y52421501D01*
G37*
G36*
X30272628Y54109202D02*
G01*
X30352743Y54084899D01*
X30432856Y54060598D01*
X30432858Y54060597D01*
X30580519Y53981670D01*
X30709950Y53875450D01*
X30816170Y53746019D01*
X30895097Y53598358D01*
X30943702Y53438128D01*
X30960113Y53271501D01*
X30943702Y53104874D01*
X30895097Y52944644D01*
X30816170Y52796983D01*
X30709950Y52667552D01*
X30580519Y52561332D01*
X30432858Y52482405D01*
X30432856Y52482404D01*
X30352743Y52458102D01*
X30272628Y52433800D01*
X30147753Y52421501D01*
X30064249Y52421501D01*
X29939374Y52433800D01*
X29859259Y52458102D01*
X29779146Y52482404D01*
X29779144Y52482405D01*
X29631483Y52561332D01*
X29502052Y52667552D01*
X29395832Y52796983D01*
X29316905Y52944644D01*
X29268300Y53104874D01*
X29251889Y53271501D01*
X29268300Y53438128D01*
X29316905Y53598358D01*
X29395832Y53746019D01*
X29502052Y53875450D01*
X29631483Y53981670D01*
X29779144Y54060597D01*
X29779146Y54060598D01*
X29859259Y54084899D01*
X29939374Y54109202D01*
X30064249Y54121501D01*
X30147753Y54121501D01*
X30272628Y54109202D01*
X30272628Y54109202D01*
G37*
G36*
X64154195Y55358978D02*
G01*
X64203267Y55349217D01*
X64341942Y55291776D01*
X64466747Y55208384D01*
X64572884Y55102247D01*
X64656276Y54977442D01*
X64713717Y54838767D01*
X64723478Y54789695D01*
X64742016Y54696500D01*
X64743000Y54691550D01*
X64743000Y54541450D01*
X64713717Y54394233D01*
X64656276Y54255558D01*
X64572884Y54130753D01*
X64466747Y54024616D01*
X64341942Y53941224D01*
X64203267Y53883783D01*
X64161374Y53875450D01*
X64056052Y53854500D01*
X63905948Y53854500D01*
X63800626Y53875450D01*
X63758733Y53883783D01*
X63620058Y53941224D01*
X63495253Y54024616D01*
X63389116Y54130753D01*
X63305724Y54255558D01*
X63248283Y54394233D01*
X63219000Y54541450D01*
X63219000Y54691550D01*
X63219985Y54696500D01*
X63238522Y54789695D01*
X63248283Y54838767D01*
X63305724Y54977442D01*
X63389116Y55102247D01*
X63495253Y55208384D01*
X63620058Y55291776D01*
X63758733Y55349217D01*
X63807805Y55358978D01*
X63905948Y55378500D01*
X64056052Y55378500D01*
X64154195Y55358978D01*
X64154195Y55358978D01*
G37*
G36*
X3194195Y55358978D02*
G01*
X3243267Y55349217D01*
X3381942Y55291776D01*
X3506747Y55208384D01*
X3612884Y55102247D01*
X3696276Y54977442D01*
X3753717Y54838767D01*
X3763478Y54789695D01*
X3782016Y54696500D01*
X3783000Y54691550D01*
X3783000Y54541450D01*
X3753717Y54394233D01*
X3696276Y54255558D01*
X3612884Y54130753D01*
X3506747Y54024616D01*
X3381942Y53941224D01*
X3243267Y53883783D01*
X3201374Y53875450D01*
X3096052Y53854500D01*
X2945948Y53854500D01*
X2840626Y53875450D01*
X2798733Y53883783D01*
X2660058Y53941224D01*
X2535253Y54024616D01*
X2429116Y54130753D01*
X2345724Y54255558D01*
X2288283Y54394233D01*
X2259000Y54541450D01*
X2259000Y54691550D01*
X2259985Y54696500D01*
X2278522Y54789695D01*
X2288283Y54838767D01*
X2345724Y54977442D01*
X2429116Y55102247D01*
X2535253Y55208384D01*
X2660058Y55291776D01*
X2798733Y55349217D01*
X2847805Y55358978D01*
X2945948Y55378500D01*
X3096052Y55378500D01*
X3194195Y55358978D01*
X3194195Y55358978D01*
G37*
G36*
X6323000Y53854500D02*
G01*
X4799000Y53854500D01*
X4799000Y55378500D01*
X6323000Y55378500D01*
X6323000Y53854500D01*
X6323000Y53854500D01*
G37*
G36*
X67283000Y53854500D02*
G01*
X65759000Y53854500D01*
X65759000Y55378500D01*
X67283000Y55378500D01*
X67283000Y53854500D01*
X67283000Y53854500D01*
G37*
G36*
X95777627Y56384201D02*
G01*
X95857742Y56359898D01*
X95937855Y56335597D01*
X95937857Y56335596D01*
X96085518Y56256669D01*
X96214949Y56150449D01*
X96321169Y56021018D01*
X96400096Y55873357D01*
X96448701Y55713127D01*
X96465112Y55546500D01*
X96448701Y55379873D01*
X96400096Y55219643D01*
X96321169Y55071982D01*
X96214949Y54942551D01*
X96085518Y54836331D01*
X95937857Y54757404D01*
X95937855Y54757403D01*
X95857742Y54733102D01*
X95777627Y54708799D01*
X95652752Y54696500D01*
X95569248Y54696500D01*
X95444373Y54708799D01*
X95364258Y54733101D01*
X95284145Y54757403D01*
X95284143Y54757404D01*
X95136482Y54836331D01*
X95007051Y54942551D01*
X94900831Y55071982D01*
X94821904Y55219643D01*
X94773299Y55379873D01*
X94756888Y55546500D01*
X94773299Y55713127D01*
X94821904Y55873357D01*
X94900831Y56021018D01*
X95007051Y56150449D01*
X95136482Y56256669D01*
X95284143Y56335596D01*
X95284145Y56335597D01*
X95364258Y56359898D01*
X95444373Y56384201D01*
X95569248Y56396500D01*
X95652752Y56396500D01*
X95777627Y56384201D01*
X95777627Y56384201D01*
G37*
G36*
X58111000Y55096500D02*
G01*
X56411000Y55096500D01*
X56411000Y56796500D01*
X58111000Y56796500D01*
X58111000Y55096500D01*
X58111000Y55096500D01*
G37*
G36*
X51211000Y55096500D02*
G01*
X49511000Y55096500D01*
X49511000Y56796500D01*
X51211000Y56796500D01*
X51211000Y55096500D01*
X51211000Y55096500D01*
G37*
G36*
X44311000Y55096500D02*
G01*
X42611000Y55096500D01*
X42611000Y56796500D01*
X44311000Y56796500D01*
X44311000Y55096500D01*
X44311000Y55096500D01*
G37*
G36*
X95777627Y58924201D02*
G01*
X95857742Y58899898D01*
X95937855Y58875597D01*
X95937857Y58875596D01*
X96085518Y58796669D01*
X96214949Y58690449D01*
X96321169Y58561018D01*
X96400096Y58413357D01*
X96448701Y58253127D01*
X96465112Y58086500D01*
X96448701Y57919873D01*
X96424399Y57839758D01*
X96405159Y57776331D01*
X96400096Y57759643D01*
X96321169Y57611982D01*
X96214949Y57482551D01*
X96085518Y57376331D01*
X95937857Y57297404D01*
X95937855Y57297403D01*
X95857742Y57273101D01*
X95777627Y57248799D01*
X95652752Y57236500D01*
X95569248Y57236500D01*
X95444373Y57248799D01*
X95364258Y57273101D01*
X95284145Y57297403D01*
X95284143Y57297404D01*
X95136482Y57376331D01*
X95007051Y57482551D01*
X94900831Y57611982D01*
X94821904Y57759643D01*
X94816842Y57776331D01*
X94797601Y57839758D01*
X94773299Y57919873D01*
X94756888Y58086500D01*
X94773299Y58253127D01*
X94821904Y58413357D01*
X94900831Y58561018D01*
X95007051Y58690449D01*
X95136482Y58796669D01*
X95284143Y58875596D01*
X95284145Y58875597D01*
X95364258Y58899899D01*
X95444373Y58924201D01*
X95569248Y58936500D01*
X95652752Y58936500D01*
X95777627Y58924201D01*
X95777627Y58924201D01*
G37*
G36*
X43627627Y59324201D02*
G01*
X43707742Y59299899D01*
X43787855Y59275597D01*
X43787857Y59275596D01*
X43935518Y59196669D01*
X44064949Y59090449D01*
X44171169Y58961018D01*
X44216828Y58875597D01*
X44250097Y58813355D01*
X44255159Y58796668D01*
X44298701Y58653127D01*
X44315112Y58486500D01*
X44298701Y58319873D01*
X44250096Y58159643D01*
X44171169Y58011982D01*
X44064949Y57882551D01*
X43935518Y57776331D01*
X43787857Y57697404D01*
X43787855Y57697403D01*
X43707742Y57673101D01*
X43627627Y57648799D01*
X43502752Y57636500D01*
X43419248Y57636500D01*
X43294373Y57648799D01*
X43214258Y57673101D01*
X43134145Y57697403D01*
X43134143Y57697404D01*
X42986482Y57776331D01*
X42857051Y57882551D01*
X42750831Y58011982D01*
X42671904Y58159643D01*
X42623299Y58319873D01*
X42606888Y58486500D01*
X42623299Y58653127D01*
X42666841Y58796668D01*
X42671903Y58813355D01*
X42705172Y58875597D01*
X42750831Y58961018D01*
X42857051Y59090449D01*
X42986482Y59196669D01*
X43134143Y59275596D01*
X43134145Y59275597D01*
X43214258Y59299899D01*
X43294373Y59324201D01*
X43419248Y59336500D01*
X43502752Y59336500D01*
X43627627Y59324201D01*
X43627627Y59324201D01*
G37*
G36*
X57427627Y59324201D02*
G01*
X57507742Y59299899D01*
X57587855Y59275597D01*
X57587857Y59275596D01*
X57735518Y59196669D01*
X57864949Y59090449D01*
X57971169Y58961018D01*
X58016828Y58875597D01*
X58050097Y58813355D01*
X58055159Y58796668D01*
X58098701Y58653127D01*
X58115112Y58486500D01*
X58098701Y58319873D01*
X58050096Y58159643D01*
X57971169Y58011982D01*
X57864949Y57882551D01*
X57735518Y57776331D01*
X57587857Y57697404D01*
X57587855Y57697403D01*
X57507742Y57673101D01*
X57427627Y57648799D01*
X57302752Y57636500D01*
X57219248Y57636500D01*
X57094373Y57648799D01*
X57014258Y57673101D01*
X56934145Y57697403D01*
X56934143Y57697404D01*
X56786482Y57776331D01*
X56657051Y57882551D01*
X56550831Y58011982D01*
X56471904Y58159643D01*
X56423299Y58319873D01*
X56406888Y58486500D01*
X56423299Y58653127D01*
X56466841Y58796668D01*
X56471903Y58813355D01*
X56505172Y58875597D01*
X56550831Y58961018D01*
X56657051Y59090449D01*
X56786482Y59196669D01*
X56934143Y59275596D01*
X56934145Y59275597D01*
X57014258Y59299899D01*
X57094373Y59324201D01*
X57219248Y59336500D01*
X57302752Y59336500D01*
X57427627Y59324201D01*
X57427627Y59324201D01*
G37*
G36*
X50527627Y59324201D02*
G01*
X50607742Y59299899D01*
X50687855Y59275597D01*
X50687857Y59275596D01*
X50835518Y59196669D01*
X50964949Y59090449D01*
X51071169Y58961018D01*
X51116828Y58875597D01*
X51150097Y58813355D01*
X51155159Y58796668D01*
X51198701Y58653127D01*
X51215112Y58486500D01*
X51198701Y58319873D01*
X51150096Y58159643D01*
X51071169Y58011982D01*
X50964949Y57882551D01*
X50835518Y57776331D01*
X50687857Y57697404D01*
X50687855Y57697403D01*
X50607742Y57673101D01*
X50527627Y57648799D01*
X50402752Y57636500D01*
X50319248Y57636500D01*
X50194373Y57648799D01*
X50114258Y57673101D01*
X50034145Y57697403D01*
X50034143Y57697404D01*
X49886482Y57776331D01*
X49757051Y57882551D01*
X49650831Y58011982D01*
X49571904Y58159643D01*
X49523299Y58319873D01*
X49506888Y58486500D01*
X49523299Y58653127D01*
X49566841Y58796668D01*
X49571903Y58813355D01*
X49605172Y58875597D01*
X49650831Y58961018D01*
X49757051Y59090449D01*
X49886482Y59196669D01*
X50034143Y59275596D01*
X50034145Y59275597D01*
X50114258Y59299899D01*
X50194373Y59324201D01*
X50319248Y59336500D01*
X50402752Y59336500D01*
X50527627Y59324201D01*
X50527627Y59324201D01*
G37*
G36*
X95777627Y61464201D02*
G01*
X95857742Y61439899D01*
X95937855Y61415597D01*
X95937857Y61415596D01*
X96085518Y61336669D01*
X96214949Y61230449D01*
X96321169Y61101018D01*
X96400096Y60953357D01*
X96448701Y60793127D01*
X96465112Y60626500D01*
X96448701Y60459873D01*
X96400096Y60299643D01*
X96321169Y60151982D01*
X96214949Y60022551D01*
X96085518Y59916331D01*
X95937857Y59837404D01*
X95937855Y59837403D01*
X95857742Y59813101D01*
X95777627Y59788799D01*
X95652752Y59776500D01*
X95569248Y59776500D01*
X95444373Y59788799D01*
X95364258Y59813101D01*
X95284145Y59837403D01*
X95284143Y59837404D01*
X95136482Y59916331D01*
X95007051Y60022551D01*
X94900831Y60151982D01*
X94821904Y60299643D01*
X94773299Y60459873D01*
X94756888Y60626500D01*
X94773299Y60793127D01*
X94821904Y60953357D01*
X94900831Y61101018D01*
X95007051Y61230449D01*
X95136482Y61336669D01*
X95284143Y61415596D01*
X95284145Y61415597D01*
X95364258Y61439899D01*
X95444373Y61464201D01*
X95569248Y61476500D01*
X95652752Y61476500D01*
X95777627Y61464201D01*
X95777627Y61464201D01*
G37*
G36*
X3911000Y61896500D02*
G01*
X2211000Y61896500D01*
X2211000Y63596500D01*
X3911000Y63596500D01*
X3911000Y61896500D01*
X3911000Y61896500D01*
G37*
G36*
X5767627Y63584201D02*
G01*
X5847742Y63559899D01*
X5927855Y63535597D01*
X5927857Y63535596D01*
X6075518Y63456669D01*
X6204949Y63350449D01*
X6311169Y63221018D01*
X6390096Y63073357D01*
X6438701Y62913127D01*
X6455112Y62746500D01*
X6438701Y62579873D01*
X6390096Y62419643D01*
X6311169Y62271982D01*
X6204949Y62142551D01*
X6075518Y62036331D01*
X5927857Y61957404D01*
X5927855Y61957403D01*
X5847742Y61933102D01*
X5767627Y61908799D01*
X5642752Y61896500D01*
X5559248Y61896500D01*
X5434373Y61908799D01*
X5354258Y61933102D01*
X5274145Y61957403D01*
X5274143Y61957404D01*
X5126482Y62036331D01*
X4997051Y62142551D01*
X4890831Y62271982D01*
X4811904Y62419643D01*
X4763299Y62579873D01*
X4746888Y62746500D01*
X4763299Y62913127D01*
X4811904Y63073357D01*
X4890831Y63221018D01*
X4997051Y63350449D01*
X5126482Y63456669D01*
X5274143Y63535596D01*
X5274145Y63535597D01*
X5354258Y63559899D01*
X5434373Y63584201D01*
X5559248Y63596500D01*
X5642752Y63596500D01*
X5767627Y63584201D01*
X5767627Y63584201D01*
G37*
G36*
X96461000Y62316500D02*
G01*
X94761000Y62316500D01*
X94761000Y64016500D01*
X96461000Y64016500D01*
X96461000Y62316500D01*
X96461000Y62316500D01*
G37*
G36*
X95777627Y77014201D02*
G01*
X95857742Y76989898D01*
X95937855Y76965597D01*
X95937857Y76965596D01*
X96085518Y76886669D01*
X96214949Y76780449D01*
X96321169Y76651018D01*
X96400096Y76503357D01*
X96448701Y76343127D01*
X96465112Y76176500D01*
X96448701Y76009873D01*
X96400096Y75849643D01*
X96321169Y75701982D01*
X96214949Y75572551D01*
X96085518Y75466331D01*
X95937857Y75387404D01*
X95937855Y75387403D01*
X95857742Y75363102D01*
X95777627Y75338799D01*
X95652752Y75326500D01*
X95569248Y75326500D01*
X95444373Y75338799D01*
X95364258Y75363102D01*
X95284145Y75387403D01*
X95284143Y75387404D01*
X95136482Y75466331D01*
X95007051Y75572551D01*
X94900831Y75701982D01*
X94821904Y75849643D01*
X94773299Y76009873D01*
X94756888Y76176500D01*
X94773299Y76343127D01*
X94821904Y76503357D01*
X94900831Y76651018D01*
X95007051Y76780449D01*
X95136482Y76886669D01*
X95284143Y76965596D01*
X95284145Y76965597D01*
X95364258Y76989898D01*
X95444373Y77014201D01*
X95569248Y77026500D01*
X95652752Y77026500D01*
X95777627Y77014201D01*
X95777627Y77014201D01*
G37*
G36*
X95777627Y79554201D02*
G01*
X95857742Y79529899D01*
X95937855Y79505597D01*
X95937857Y79505596D01*
X96085518Y79426669D01*
X96214949Y79320449D01*
X96321169Y79191018D01*
X96400096Y79043357D01*
X96448701Y78883127D01*
X96465112Y78716500D01*
X96448701Y78549873D01*
X96400096Y78389643D01*
X96321169Y78241982D01*
X96214949Y78112551D01*
X96085518Y78006331D01*
X95937857Y77927404D01*
X95937855Y77927403D01*
X95857742Y77903101D01*
X95777627Y77878799D01*
X95652752Y77866500D01*
X95569248Y77866500D01*
X95444373Y77878799D01*
X95364258Y77903101D01*
X95284145Y77927403D01*
X95284143Y77927404D01*
X95136482Y78006331D01*
X95007051Y78112551D01*
X94900831Y78241982D01*
X94821904Y78389643D01*
X94773299Y78549873D01*
X94756888Y78716500D01*
X94773299Y78883127D01*
X94821904Y79043357D01*
X94900831Y79191018D01*
X95007051Y79320449D01*
X95136482Y79426669D01*
X95284143Y79505596D01*
X95284145Y79505597D01*
X95364258Y79529898D01*
X95444373Y79554201D01*
X95569248Y79566500D01*
X95652752Y79566500D01*
X95777627Y79554201D01*
X95777627Y79554201D01*
G37*
G36*
X5411026Y81600385D02*
G01*
X5629411Y81509927D01*
X5629413Y81509926D01*
X5759314Y81423129D01*
X5825955Y81378601D01*
X5993101Y81211455D01*
X6124427Y81014911D01*
X6214885Y80796526D01*
X6261000Y80564691D01*
X6261000Y80328309D01*
X6214885Y80096474D01*
X6124427Y79878089D01*
X6124426Y79878087D01*
X5993101Y79681545D01*
X5825955Y79514399D01*
X5629413Y79383074D01*
X5629412Y79383073D01*
X5629411Y79383073D01*
X5411026Y79292615D01*
X5179191Y79246500D01*
X4942809Y79246500D01*
X4710974Y79292615D01*
X4492589Y79383073D01*
X4492588Y79383073D01*
X4492587Y79383074D01*
X4296045Y79514399D01*
X4128899Y79681545D01*
X3997574Y79878087D01*
X3997573Y79878089D01*
X3907115Y80096474D01*
X3861000Y80328309D01*
X3861000Y80564691D01*
X3907115Y80796526D01*
X3997573Y81014911D01*
X4128899Y81211455D01*
X4296045Y81378601D01*
X4362686Y81423129D01*
X4492587Y81509926D01*
X4492589Y81509927D01*
X4710974Y81600385D01*
X4942809Y81646500D01*
X5179191Y81646500D01*
X5411026Y81600385D01*
X5411026Y81600385D01*
G37*
G36*
X95777627Y82094201D02*
G01*
X95857742Y82069899D01*
X95937855Y82045597D01*
X95937857Y82045596D01*
X96085518Y81966669D01*
X96214949Y81860449D01*
X96321169Y81731018D01*
X96400096Y81583357D01*
X96448701Y81423127D01*
X96465112Y81256500D01*
X96448701Y81089873D01*
X96400096Y80929643D01*
X96321169Y80781982D01*
X96214949Y80652551D01*
X96085518Y80546331D01*
X95937857Y80467404D01*
X95937855Y80467403D01*
X95857742Y80443101D01*
X95777627Y80418799D01*
X95652752Y80406500D01*
X95569248Y80406500D01*
X95444373Y80418799D01*
X95364258Y80443101D01*
X95284145Y80467403D01*
X95284143Y80467404D01*
X95136482Y80546331D01*
X95007051Y80652551D01*
X94900831Y80781982D01*
X94821904Y80929643D01*
X94773299Y81089873D01*
X94756888Y81256500D01*
X94773299Y81423127D01*
X94821904Y81583357D01*
X94900831Y81731018D01*
X95007051Y81860449D01*
X95136482Y81966669D01*
X95284143Y82045596D01*
X95284145Y82045597D01*
X95364258Y82069899D01*
X95444373Y82094201D01*
X95569248Y82106500D01*
X95652752Y82106500D01*
X95777627Y82094201D01*
X95777627Y82094201D01*
G37*
G36*
X6261000Y82746500D02*
G01*
X3861000Y82746500D01*
X3861000Y85146500D01*
X6261000Y85146500D01*
X6261000Y82746500D01*
X6261000Y82746500D01*
G37*
G36*
X96461000Y82946500D02*
G01*
X94761000Y82946500D01*
X94761000Y84646500D01*
X96461000Y84646500D01*
X96461000Y82946500D01*
X96461000Y82946500D01*
G37*
G36*
X62747627Y92884201D02*
G01*
X62827742Y92859898D01*
X62907855Y92835597D01*
X62907857Y92835596D01*
X63055518Y92756669D01*
X63184949Y92650449D01*
X63291169Y92521018D01*
X63370096Y92373357D01*
X63418701Y92213127D01*
X63435112Y92046500D01*
X63418701Y91879873D01*
X63370096Y91719643D01*
X63291169Y91571982D01*
X63184949Y91442551D01*
X63055518Y91336331D01*
X62907857Y91257404D01*
X62907855Y91257403D01*
X62827742Y91233102D01*
X62747627Y91208799D01*
X62622752Y91196500D01*
X62539248Y91196500D01*
X62414373Y91208799D01*
X62334258Y91233102D01*
X62254145Y91257403D01*
X62254143Y91257404D01*
X62106482Y91336331D01*
X61977051Y91442551D01*
X61870831Y91571982D01*
X61791904Y91719643D01*
X61743299Y91879873D01*
X61726888Y92046500D01*
X61743299Y92213127D01*
X61791904Y92373357D01*
X61870831Y92521018D01*
X61977051Y92650449D01*
X62106482Y92756669D01*
X62254143Y92835596D01*
X62254145Y92835597D01*
X62334258Y92859898D01*
X62414373Y92884201D01*
X62539248Y92896500D01*
X62622752Y92896500D01*
X62747627Y92884201D01*
X62747627Y92884201D01*
G37*
G36*
X60207627Y92884201D02*
G01*
X60287742Y92859898D01*
X60367855Y92835597D01*
X60367857Y92835596D01*
X60515518Y92756669D01*
X60644949Y92650449D01*
X60751169Y92521018D01*
X60830096Y92373357D01*
X60878701Y92213127D01*
X60895112Y92046500D01*
X60878701Y91879873D01*
X60830096Y91719643D01*
X60751169Y91571982D01*
X60644949Y91442551D01*
X60515518Y91336331D01*
X60367857Y91257404D01*
X60367855Y91257403D01*
X60287742Y91233102D01*
X60207627Y91208799D01*
X60082752Y91196500D01*
X59999248Y91196500D01*
X59874373Y91208799D01*
X59794258Y91233102D01*
X59714145Y91257403D01*
X59714143Y91257404D01*
X59566482Y91336331D01*
X59437051Y91442551D01*
X59330831Y91571982D01*
X59251904Y91719643D01*
X59203299Y91879873D01*
X59186888Y92046500D01*
X59203299Y92213127D01*
X59251904Y92373357D01*
X59330831Y92521018D01*
X59437051Y92650449D01*
X59566482Y92756669D01*
X59714143Y92835596D01*
X59714145Y92835597D01*
X59794258Y92859898D01*
X59874373Y92884201D01*
X59999248Y92896500D01*
X60082752Y92896500D01*
X60207627Y92884201D01*
X60207627Y92884201D01*
G37*
G36*
X57667627Y92884201D02*
G01*
X57747742Y92859898D01*
X57827855Y92835597D01*
X57827857Y92835596D01*
X57975518Y92756669D01*
X58104949Y92650449D01*
X58211169Y92521018D01*
X58290096Y92373357D01*
X58338701Y92213127D01*
X58355112Y92046500D01*
X58338701Y91879873D01*
X58290096Y91719643D01*
X58211169Y91571982D01*
X58104949Y91442551D01*
X57975518Y91336331D01*
X57827857Y91257404D01*
X57827855Y91257403D01*
X57747742Y91233102D01*
X57667627Y91208799D01*
X57542752Y91196500D01*
X57459248Y91196500D01*
X57334373Y91208799D01*
X57254258Y91233102D01*
X57174145Y91257403D01*
X57174143Y91257404D01*
X57026482Y91336331D01*
X56897051Y91442551D01*
X56790831Y91571982D01*
X56711904Y91719643D01*
X56663299Y91879873D01*
X56646888Y92046500D01*
X56663299Y92213127D01*
X56711904Y92373357D01*
X56790831Y92521018D01*
X56897051Y92650449D01*
X57026482Y92756669D01*
X57174143Y92835596D01*
X57174145Y92835597D01*
X57254258Y92859898D01*
X57334373Y92884201D01*
X57459248Y92896500D01*
X57542752Y92896500D01*
X57667627Y92884201D01*
X57667627Y92884201D01*
G37*
G36*
X55811000Y91196500D02*
G01*
X54111000Y91196500D01*
X54111000Y92896500D01*
X55811000Y92896500D01*
X55811000Y91196500D01*
X55811000Y91196500D01*
G37*
G36*
X11461000Y91746500D02*
G01*
X8861000Y91746500D01*
X8861000Y94346500D01*
X11461000Y94346500D01*
X11461000Y91746500D01*
X11461000Y91746500D01*
G37*
G36*
X27020196Y94296542D02*
G01*
X27256781Y94198545D01*
X27469702Y94056276D01*
X27650776Y93875202D01*
X27793045Y93662281D01*
X27891042Y93425696D01*
X27941000Y93174539D01*
X27941000Y92918461D01*
X27891042Y92667304D01*
X27793045Y92430719D01*
X27650776Y92217798D01*
X27469702Y92036724D01*
X27256781Y91894455D01*
X27020196Y91796458D01*
X26894617Y91771479D01*
X26769040Y91746500D01*
X26512960Y91746500D01*
X26387383Y91771479D01*
X26261804Y91796458D01*
X26025219Y91894455D01*
X25812298Y92036724D01*
X25631224Y92217798D01*
X25488955Y92430719D01*
X25390958Y92667304D01*
X25341000Y92918461D01*
X25341000Y93174539D01*
X25390958Y93425696D01*
X25488955Y93662281D01*
X25631224Y93875202D01*
X25812298Y94056276D01*
X26025219Y94198545D01*
X26261804Y94296542D01*
X26512960Y94346500D01*
X26769040Y94346500D01*
X27020196Y94296542D01*
X27020196Y94296542D01*
G37*
G36*
X22861000Y91746500D02*
G01*
X20261000Y91746500D01*
X20261000Y94346500D01*
X22861000Y94346500D01*
X22861000Y91746500D01*
X22861000Y91746500D01*
G37*
G36*
X15620196Y94296542D02*
G01*
X15856781Y94198545D01*
X16069702Y94056276D01*
X16250776Y93875202D01*
X16393045Y93662281D01*
X16491042Y93425696D01*
X16541000Y93174539D01*
X16541000Y92918461D01*
X16491042Y92667304D01*
X16393045Y92430719D01*
X16250776Y92217798D01*
X16069702Y92036724D01*
X15856781Y91894455D01*
X15620196Y91796458D01*
X15494617Y91771479D01*
X15369040Y91746500D01*
X15112960Y91746500D01*
X14987383Y91771479D01*
X14861804Y91796458D01*
X14625219Y91894455D01*
X14412298Y92036724D01*
X14231224Y92217798D01*
X14088955Y92430719D01*
X13990958Y92667304D01*
X13941000Y92918461D01*
X13941000Y93174539D01*
X13990958Y93425696D01*
X14088955Y93662281D01*
X14231224Y93875202D01*
X14412298Y94056276D01*
X14625219Y94198545D01*
X14861804Y94296542D01*
X15112960Y94346500D01*
X15369040Y94346500D01*
X15620196Y94296542D01*
X15620196Y94296542D01*
G37*
G36*
X95527703Y96585014D02*
G01*
X95818883Y96464403D01*
X96080940Y96289302D01*
X96303802Y96066440D01*
X96478903Y95804383D01*
X96599514Y95513203D01*
X96661000Y95204088D01*
X96661000Y94888912D01*
X96599514Y94579797D01*
X96478903Y94288617D01*
X96303802Y94026560D01*
X96080940Y93803698D01*
X95818883Y93628597D01*
X95527703Y93507986D01*
X95218588Y93446500D01*
X94903412Y93446500D01*
X94594297Y93507986D01*
X94303117Y93628597D01*
X94041060Y93803698D01*
X93818198Y94026560D01*
X93643097Y94288617D01*
X93522486Y94579797D01*
X93461000Y94888912D01*
X93461000Y95204088D01*
X93522486Y95513203D01*
X93643097Y95804383D01*
X93818198Y96066440D01*
X94041060Y96289302D01*
X94303117Y96464403D01*
X94594297Y96585014D01*
X94903412Y96646500D01*
X95218588Y96646500D01*
X95527703Y96585014D01*
X95527703Y96585014D01*
G37*
G36*
X4086203Y96585014D02*
G01*
X4377383Y96464403D01*
X4639440Y96289302D01*
X4862302Y96066440D01*
X5037403Y95804383D01*
X5158014Y95513203D01*
X5219500Y95204088D01*
X5219500Y94888912D01*
X5158014Y94579797D01*
X5037403Y94288617D01*
X4862302Y94026560D01*
X4639440Y93803698D01*
X4377383Y93628597D01*
X4086203Y93507986D01*
X3777088Y93446500D01*
X3461912Y93446500D01*
X3152797Y93507986D01*
X2861617Y93628597D01*
X2599560Y93803698D01*
X2376698Y94026560D01*
X2201597Y94288617D01*
X2080986Y94579797D01*
X2019500Y94888912D01*
X2019500Y95204088D01*
X2080986Y95513203D01*
X2201597Y95804383D01*
X2376698Y96066440D01*
X2599560Y96289302D01*
X2861617Y96464403D01*
X3152797Y96585014D01*
X3461912Y96646500D01*
X3777088Y96646500D01*
X4086203Y96585014D01*
X4086203Y96585014D01*
G37*
G36*
X33361000Y93946500D02*
G01*
X30961000Y93946500D01*
X30961000Y96346500D01*
X33361000Y96346500D01*
X33361000Y93946500D01*
X33361000Y93946500D01*
G37*
G36*
X44111026Y96300385D02*
G01*
X44329411Y96209927D01*
X44329413Y96209926D01*
X44525955Y96078601D01*
X44693101Y95911455D01*
X44781023Y95779871D01*
X44824427Y95714911D01*
X44914885Y95496526D01*
X44961000Y95264691D01*
X44961000Y95028309D01*
X44914885Y94796474D01*
X44825134Y94579797D01*
X44824426Y94578087D01*
X44693101Y94381545D01*
X44525955Y94214399D01*
X44329413Y94083074D01*
X44329412Y94083073D01*
X44329411Y94083073D01*
X44111026Y93992615D01*
X43879191Y93946500D01*
X43642809Y93946500D01*
X43410974Y93992615D01*
X43192589Y94083073D01*
X43192588Y94083073D01*
X43192587Y94083074D01*
X42996045Y94214399D01*
X42828899Y94381545D01*
X42697574Y94578087D01*
X42696866Y94579797D01*
X42607115Y94796474D01*
X42561000Y95028309D01*
X42561000Y95264691D01*
X42607115Y95496526D01*
X42697573Y95714911D01*
X42740978Y95779871D01*
X42828899Y95911455D01*
X42996045Y96078601D01*
X43192587Y96209926D01*
X43192589Y96209927D01*
X43410974Y96300385D01*
X43642809Y96346500D01*
X43879191Y96346500D01*
X44111026Y96300385D01*
X44111026Y96300385D01*
G37*
G36*
X41461000Y93946500D02*
G01*
X39061000Y93946500D01*
X39061000Y96346500D01*
X41461000Y96346500D01*
X41461000Y93946500D01*
X41461000Y93946500D01*
G37*
G36*
X36011026Y96300385D02*
G01*
X36229411Y96209927D01*
X36229413Y96209926D01*
X36425955Y96078601D01*
X36593101Y95911455D01*
X36681023Y95779871D01*
X36724427Y95714911D01*
X36814885Y95496526D01*
X36861000Y95264691D01*
X36861000Y95028309D01*
X36814885Y94796474D01*
X36725134Y94579797D01*
X36724426Y94578087D01*
X36593101Y94381545D01*
X36425955Y94214399D01*
X36229413Y94083074D01*
X36229412Y94083073D01*
X36229411Y94083073D01*
X36011026Y93992615D01*
X35779191Y93946500D01*
X35542809Y93946500D01*
X35310974Y93992615D01*
X35092589Y94083073D01*
X35092588Y94083073D01*
X35092587Y94083074D01*
X34896045Y94214399D01*
X34728899Y94381545D01*
X34597574Y94578087D01*
X34596866Y94579797D01*
X34507115Y94796474D01*
X34461000Y95028309D01*
X34461000Y95264691D01*
X34507115Y95496526D01*
X34597573Y95714911D01*
X34640978Y95779871D01*
X34728899Y95911455D01*
X34896045Y96078601D01*
X35092587Y96209926D01*
X35092589Y96209927D01*
X35310974Y96300385D01*
X35542809Y96346500D01*
X35779191Y96346500D01*
X36011026Y96300385D01*
X36011026Y96300385D01*
G37*
G36*
X77227627Y96784201D02*
G01*
X77307742Y96759899D01*
X77387855Y96735597D01*
X77387857Y96735596D01*
X77535518Y96656669D01*
X77664949Y96550449D01*
X77771168Y96421019D01*
X77850097Y96273355D01*
X77874399Y96193242D01*
X77898701Y96113127D01*
X77915112Y95946500D01*
X77898701Y95779873D01*
X77850096Y95619643D01*
X77771169Y95471982D01*
X77664949Y95342551D01*
X77535518Y95236331D01*
X77475192Y95204086D01*
X77387855Y95157403D01*
X77307742Y95133101D01*
X77227627Y95108799D01*
X77102752Y95096500D01*
X77019248Y95096500D01*
X76894373Y95108799D01*
X76814258Y95133101D01*
X76734145Y95157403D01*
X76646808Y95204086D01*
X76586482Y95236331D01*
X76457051Y95342551D01*
X76350831Y95471982D01*
X76271904Y95619643D01*
X76223299Y95779873D01*
X76206888Y95946500D01*
X76223299Y96113127D01*
X76247601Y96193242D01*
X76271903Y96273355D01*
X76350832Y96421019D01*
X76457051Y96550449D01*
X76586482Y96656669D01*
X76734143Y96735596D01*
X76734145Y96735597D01*
X76814258Y96759899D01*
X76894373Y96784201D01*
X77019248Y96796500D01*
X77102752Y96796500D01*
X77227627Y96784201D01*
X77227627Y96784201D01*
G37*
G36*
X75371000Y95096500D02*
G01*
X73671000Y95096500D01*
X73671000Y96796500D01*
X75371000Y96796500D01*
X75371000Y95096500D01*
X75371000Y95096500D01*
G37*
G36*
X84227627Y96784201D02*
G01*
X84307742Y96759899D01*
X84387855Y96735597D01*
X84387857Y96735596D01*
X84535518Y96656669D01*
X84664949Y96550449D01*
X84771168Y96421019D01*
X84850097Y96273355D01*
X84874399Y96193242D01*
X84898701Y96113127D01*
X84915112Y95946500D01*
X84898701Y95779873D01*
X84850096Y95619643D01*
X84771169Y95471982D01*
X84664949Y95342551D01*
X84535518Y95236331D01*
X84475192Y95204086D01*
X84387855Y95157403D01*
X84307742Y95133101D01*
X84227627Y95108799D01*
X84102752Y95096500D01*
X84019248Y95096500D01*
X83894373Y95108799D01*
X83814258Y95133101D01*
X83734145Y95157403D01*
X83646808Y95204086D01*
X83586482Y95236331D01*
X83457051Y95342551D01*
X83350831Y95471982D01*
X83271904Y95619643D01*
X83223299Y95779873D01*
X83206888Y95946500D01*
X83223299Y96113127D01*
X83247601Y96193242D01*
X83271903Y96273355D01*
X83350832Y96421019D01*
X83457051Y96550449D01*
X83586482Y96656669D01*
X83734143Y96735596D01*
X83734145Y96735597D01*
X83814258Y96759899D01*
X83894373Y96784201D01*
X84019248Y96796500D01*
X84102752Y96796500D01*
X84227627Y96784201D01*
X84227627Y96784201D01*
G37*
G36*
X82371000Y95096500D02*
G01*
X80671000Y95096500D01*
X80671000Y96796500D01*
X82371000Y96796500D01*
X82371000Y95096500D01*
X82371000Y95096500D01*
G37*
G36*
X53611000Y95096500D02*
G01*
X51911000Y95096500D01*
X51911000Y96796500D01*
X53611000Y96796500D01*
X53611000Y95096500D01*
X53611000Y95096500D01*
G37*
G36*
X55467627Y96784201D02*
G01*
X55547742Y96759899D01*
X55627855Y96735597D01*
X55627857Y96735596D01*
X55775518Y96656669D01*
X55904949Y96550449D01*
X56011168Y96421019D01*
X56090097Y96273355D01*
X56114399Y96193242D01*
X56138701Y96113127D01*
X56155112Y95946500D01*
X56138701Y95779873D01*
X56090096Y95619643D01*
X56011169Y95471982D01*
X55904949Y95342551D01*
X55775518Y95236331D01*
X55715192Y95204086D01*
X55627855Y95157403D01*
X55547742Y95133101D01*
X55467627Y95108799D01*
X55342752Y95096500D01*
X55259248Y95096500D01*
X55134373Y95108799D01*
X55054258Y95133101D01*
X54974145Y95157403D01*
X54886808Y95204086D01*
X54826482Y95236331D01*
X54697051Y95342551D01*
X54590831Y95471982D01*
X54511904Y95619643D01*
X54463299Y95779873D01*
X54446888Y95946500D01*
X54463299Y96113127D01*
X54487601Y96193242D01*
X54511903Y96273355D01*
X54590832Y96421019D01*
X54697051Y96550449D01*
X54826482Y96656669D01*
X54974143Y96735596D01*
X54974145Y96735597D01*
X55054258Y96759899D01*
X55134373Y96784201D01*
X55259248Y96796500D01*
X55342752Y96796500D01*
X55467627Y96784201D01*
X55467627Y96784201D01*
G37*
G36*
X58007627Y96784201D02*
G01*
X58087742Y96759899D01*
X58167855Y96735597D01*
X58167857Y96735596D01*
X58315518Y96656669D01*
X58444949Y96550449D01*
X58551168Y96421019D01*
X58630097Y96273355D01*
X58654399Y96193242D01*
X58678701Y96113127D01*
X58695112Y95946500D01*
X58678701Y95779873D01*
X58630096Y95619643D01*
X58551169Y95471982D01*
X58444949Y95342551D01*
X58315518Y95236331D01*
X58255192Y95204086D01*
X58167855Y95157403D01*
X58087742Y95133101D01*
X58007627Y95108799D01*
X57882752Y95096500D01*
X57799248Y95096500D01*
X57674373Y95108799D01*
X57594258Y95133101D01*
X57514145Y95157403D01*
X57426808Y95204086D01*
X57366482Y95236331D01*
X57237051Y95342551D01*
X57130831Y95471982D01*
X57051904Y95619643D01*
X57003299Y95779873D01*
X56986888Y95946500D01*
X57003299Y96113127D01*
X57027601Y96193242D01*
X57051903Y96273355D01*
X57130832Y96421019D01*
X57237051Y96550449D01*
X57366482Y96656669D01*
X57514143Y96735596D01*
X57514145Y96735597D01*
X57594258Y96759899D01*
X57674373Y96784201D01*
X57799248Y96796500D01*
X57882752Y96796500D01*
X58007627Y96784201D01*
X58007627Y96784201D01*
G37*
G36*
X60547627Y96784201D02*
G01*
X60627742Y96759899D01*
X60707855Y96735597D01*
X60707857Y96735596D01*
X60855518Y96656669D01*
X60984949Y96550449D01*
X61091168Y96421019D01*
X61170097Y96273355D01*
X61194399Y96193242D01*
X61218701Y96113127D01*
X61235112Y95946500D01*
X61218701Y95779873D01*
X61170096Y95619643D01*
X61091169Y95471982D01*
X60984949Y95342551D01*
X60855518Y95236331D01*
X60795192Y95204086D01*
X60707855Y95157403D01*
X60627742Y95133101D01*
X60547627Y95108799D01*
X60422752Y95096500D01*
X60339248Y95096500D01*
X60214373Y95108799D01*
X60134258Y95133101D01*
X60054145Y95157403D01*
X59966808Y95204086D01*
X59906482Y95236331D01*
X59777051Y95342551D01*
X59670831Y95471982D01*
X59591904Y95619643D01*
X59543299Y95779873D01*
X59526888Y95946500D01*
X59543299Y96113127D01*
X59567601Y96193242D01*
X59591903Y96273355D01*
X59670832Y96421019D01*
X59777051Y96550449D01*
X59906482Y96656669D01*
X60054143Y96735596D01*
X60054145Y96735597D01*
X60134258Y96759899D01*
X60214373Y96784201D01*
X60339248Y96796500D01*
X60422752Y96796500D01*
X60547627Y96784201D01*
X60547627Y96784201D01*
G37*
M02*
