%TF.GenerationSoftware,KiCad,Pcbnew,5.0.0-rc2-unknown-6090f90~65~ubuntu18.04.1*%
%TF.CreationDate,2018-05-27T17:44:10-07:00*%
%TF.ProjectId,PrntrBoardV1,50726E7472426F61726456312E6B6963,rev?*%
%TF.SameCoordinates,Original*%
%TF.FileFunction,Legend,Bot*%
%TF.FilePolarity,Positive*%
%FSLAX46Y46*%
G04 Gerber Fmt 4.6, Leading zero omitted, Abs format (unit mm)*
G04 Created by KiCad (PCBNEW 5.0.0-rc2-unknown-6090f90~65~ubuntu18.04.1) date Sun May 27 17:44:10 2018*
%MOMM*%
%LPD*%
G01*
G04 APERTURE LIST*
%ADD10C,0.150000*%
%ADD11C,0.300000*%
G04 APERTURE END LIST*
D10*
X67841095Y-57221380D02*
X67841095Y-56221380D01*
X67269666Y-57221380D01*
X67269666Y-56221380D01*
X66364904Y-56554714D02*
X66364904Y-57221380D01*
X66793476Y-56554714D02*
X66793476Y-57078523D01*
X66745857Y-57173761D01*
X66650619Y-57221380D01*
X66507761Y-57221380D01*
X66412523Y-57173761D01*
X66364904Y-57126142D01*
X65460142Y-57173761D02*
X65555380Y-57221380D01*
X65745857Y-57221380D01*
X65841095Y-57173761D01*
X65888714Y-57126142D01*
X65936333Y-57030904D01*
X65936333Y-56745190D01*
X65888714Y-56649952D01*
X65841095Y-56602333D01*
X65745857Y-56554714D01*
X65555380Y-56554714D01*
X65460142Y-56602333D01*
X64888714Y-57221380D02*
X64983952Y-57173761D01*
X65031571Y-57078523D01*
X65031571Y-56221380D01*
X64126809Y-57173761D02*
X64222047Y-57221380D01*
X64412523Y-57221380D01*
X64507761Y-57173761D01*
X64555380Y-57078523D01*
X64555380Y-56697571D01*
X64507761Y-56602333D01*
X64412523Y-56554714D01*
X64222047Y-56554714D01*
X64126809Y-56602333D01*
X64079190Y-56697571D01*
X64079190Y-56792809D01*
X64555380Y-56888047D01*
X63507761Y-57221380D02*
X63603000Y-57173761D01*
X63650619Y-57126142D01*
X63698238Y-57030904D01*
X63698238Y-56745190D01*
X63650619Y-56649952D01*
X63603000Y-56602333D01*
X63507761Y-56554714D01*
X63364904Y-56554714D01*
X63269666Y-56602333D01*
X63222047Y-56649952D01*
X63174428Y-56745190D01*
X63174428Y-57030904D01*
X63222047Y-57126142D01*
X63269666Y-57173761D01*
X63364904Y-57221380D01*
X63507761Y-57221380D01*
X62745857Y-56840428D02*
X61983952Y-56840428D01*
X61174428Y-56697571D02*
X61507761Y-56697571D01*
X61507761Y-57221380D02*
X61507761Y-56221380D01*
X61031571Y-56221380D01*
X60222047Y-56554714D02*
X60222047Y-57221380D01*
X60460142Y-56173761D02*
X60698238Y-56888047D01*
X60079190Y-56888047D01*
X59269666Y-56554714D02*
X59269666Y-57221380D01*
X59507761Y-56173761D02*
X59745857Y-56888047D01*
X59126809Y-56888047D01*
X58317285Y-56221380D02*
X58507761Y-56221380D01*
X58603000Y-56269000D01*
X58650619Y-56316619D01*
X58745857Y-56459476D01*
X58793476Y-56649952D01*
X58793476Y-57030904D01*
X58745857Y-57126142D01*
X58698238Y-57173761D01*
X58603000Y-57221380D01*
X58412523Y-57221380D01*
X58317285Y-57173761D01*
X58269666Y-57126142D01*
X58222047Y-57030904D01*
X58222047Y-56792809D01*
X58269666Y-56697571D01*
X58317285Y-56649952D01*
X58412523Y-56602333D01*
X58603000Y-56602333D01*
X58698238Y-56649952D01*
X58745857Y-56697571D01*
X58793476Y-56792809D01*
X57222047Y-57221380D02*
X57555380Y-56745190D01*
X57793476Y-57221380D02*
X57793476Y-56221380D01*
X57412523Y-56221380D01*
X57317285Y-56269000D01*
X57269666Y-56316619D01*
X57222047Y-56411857D01*
X57222047Y-56554714D01*
X57269666Y-56649952D01*
X57317285Y-56697571D01*
X57412523Y-56745190D01*
X57793476Y-56745190D01*
X56793476Y-56697571D02*
X56460142Y-56697571D01*
X56317285Y-57221380D02*
X56793476Y-57221380D01*
X56793476Y-56221380D01*
X56317285Y-56221380D01*
D11*
X107204342Y-38422971D02*
X107204342Y-37422971D01*
X107204342Y-37708685D02*
X107132914Y-37565828D01*
X107061485Y-37494400D01*
X106918628Y-37422971D01*
X106775771Y-37422971D01*
X105704342Y-38351542D02*
X105847200Y-38422971D01*
X106132914Y-38422971D01*
X106275771Y-38351542D01*
X106347200Y-38208685D01*
X106347200Y-37637257D01*
X106275771Y-37494400D01*
X106132914Y-37422971D01*
X105847200Y-37422971D01*
X105704342Y-37494400D01*
X105632914Y-37637257D01*
X105632914Y-37780114D01*
X106347200Y-37922971D01*
X105132914Y-37422971D02*
X104775771Y-38422971D01*
X104418628Y-37422971D01*
X101918628Y-38422971D02*
X102775771Y-38422971D01*
X102347200Y-38422971D02*
X102347200Y-36922971D01*
X102490057Y-37137257D01*
X102632914Y-37280114D01*
X102775771Y-37351542D01*
D10*
X113324780Y-40749933D02*
X113372400Y-40702314D01*
X113467638Y-40559457D01*
X113515257Y-40464219D01*
X113562876Y-40321361D01*
X113610495Y-40083266D01*
X113610495Y-39892790D01*
X113562876Y-39654695D01*
X113515257Y-39511838D01*
X113467638Y-39416600D01*
X113372400Y-39273742D01*
X113324780Y-39226123D01*
X112515257Y-40321361D02*
X112610495Y-40368980D01*
X112800971Y-40368980D01*
X112896209Y-40321361D01*
X112943828Y-40273742D01*
X112991447Y-40178504D01*
X112991447Y-39892790D01*
X112943828Y-39797552D01*
X112896209Y-39749933D01*
X112800971Y-39702314D01*
X112610495Y-39702314D01*
X112515257Y-39749933D01*
X112181923Y-40749933D02*
X112134304Y-40702314D01*
X112039066Y-40559457D01*
X111991447Y-40464219D01*
X111943828Y-40321361D01*
X111896209Y-40083266D01*
X111896209Y-39892790D01*
X111943828Y-39654695D01*
X111991447Y-39511838D01*
X112039066Y-39416600D01*
X112134304Y-39273742D01*
X112181923Y-39226123D01*
X110658114Y-40368980D02*
X110658114Y-39702314D01*
X110658114Y-39368980D02*
X110705733Y-39416600D01*
X110658114Y-39464219D01*
X110610495Y-39416600D01*
X110658114Y-39368980D01*
X110658114Y-39464219D01*
X109515257Y-40464219D02*
X109610495Y-40416600D01*
X109705733Y-40321361D01*
X109848590Y-40178504D01*
X109943828Y-40130885D01*
X110039066Y-40130885D01*
X109991447Y-40368980D02*
X110086685Y-40321361D01*
X110181923Y-40226123D01*
X110229542Y-40035647D01*
X110229542Y-39702314D01*
X110181923Y-39511838D01*
X110086685Y-39416600D01*
X109991447Y-39368980D01*
X109800971Y-39368980D01*
X109705733Y-39416600D01*
X109610495Y-39511838D01*
X109562876Y-39702314D01*
X109562876Y-40035647D01*
X109610495Y-40226123D01*
X109705733Y-40321361D01*
X109800971Y-40368980D01*
X109991447Y-40368980D01*
X108705733Y-39702314D02*
X108705733Y-40368980D01*
X109134304Y-39702314D02*
X109134304Y-40226123D01*
X109086685Y-40321361D01*
X108991447Y-40368980D01*
X108848590Y-40368980D01*
X108753352Y-40321361D01*
X108705733Y-40273742D01*
X108229542Y-40368980D02*
X108229542Y-39702314D01*
X108229542Y-39892790D02*
X108181923Y-39797552D01*
X108134304Y-39749933D01*
X108039066Y-39702314D01*
X107943828Y-39702314D01*
X107705733Y-39702314D02*
X107467638Y-40368980D01*
X107229542Y-39702314D02*
X107467638Y-40368980D01*
X107562876Y-40607076D01*
X107610495Y-40654695D01*
X107705733Y-40702314D01*
X106848590Y-40273742D02*
X106800971Y-40321361D01*
X106848590Y-40368980D01*
X106896209Y-40321361D01*
X106848590Y-40273742D01*
X106848590Y-40368980D01*
X105943828Y-39702314D02*
X105943828Y-40368980D01*
X106372400Y-39702314D02*
X106372400Y-40226123D01*
X106324780Y-40321361D01*
X106229542Y-40368980D01*
X106086685Y-40368980D01*
X105991447Y-40321361D01*
X105943828Y-40273742D01*
X105515257Y-40321361D02*
X105420019Y-40368980D01*
X105229542Y-40368980D01*
X105134304Y-40321361D01*
X105086685Y-40226123D01*
X105086685Y-40178504D01*
X105134304Y-40083266D01*
X105229542Y-40035647D01*
X105372400Y-40035647D01*
X105467638Y-39988028D01*
X105515257Y-39892790D01*
X105515257Y-39845171D01*
X105467638Y-39749933D01*
X105372400Y-39702314D01*
X105229542Y-39702314D01*
X105134304Y-39749933D01*
X112824780Y-42018980D02*
X112824780Y-41018980D01*
X112491447Y-41733266D01*
X112158114Y-41018980D01*
X112158114Y-42018980D01*
X111253352Y-42018980D02*
X111253352Y-41495171D01*
X111300971Y-41399933D01*
X111396209Y-41352314D01*
X111586685Y-41352314D01*
X111681923Y-41399933D01*
X111253352Y-41971361D02*
X111348590Y-42018980D01*
X111586685Y-42018980D01*
X111681923Y-41971361D01*
X111729542Y-41876123D01*
X111729542Y-41780885D01*
X111681923Y-41685647D01*
X111586685Y-41638028D01*
X111348590Y-41638028D01*
X111253352Y-41590409D01*
X110872400Y-41352314D02*
X110634304Y-42018980D01*
X110396209Y-41352314D02*
X110634304Y-42018980D01*
X110729542Y-42257076D01*
X110777161Y-42304695D01*
X110872400Y-42352314D01*
X109300971Y-41114219D02*
X109253352Y-41066600D01*
X109158114Y-41018980D01*
X108920019Y-41018980D01*
X108824780Y-41066600D01*
X108777161Y-41114219D01*
X108729542Y-41209457D01*
X108729542Y-41304695D01*
X108777161Y-41447552D01*
X109348590Y-42018980D01*
X108729542Y-42018980D01*
X108110495Y-41018980D02*
X108015257Y-41018980D01*
X107920019Y-41066600D01*
X107872400Y-41114219D01*
X107824780Y-41209457D01*
X107777161Y-41399933D01*
X107777161Y-41638028D01*
X107824780Y-41828504D01*
X107872400Y-41923742D01*
X107920019Y-41971361D01*
X108015257Y-42018980D01*
X108110495Y-42018980D01*
X108205733Y-41971361D01*
X108253352Y-41923742D01*
X108300971Y-41828504D01*
X108348590Y-41638028D01*
X108348590Y-41399933D01*
X108300971Y-41209457D01*
X108253352Y-41114219D01*
X108205733Y-41066600D01*
X108110495Y-41018980D01*
X106824780Y-42018980D02*
X107396209Y-42018980D01*
X107110495Y-42018980D02*
X107110495Y-41018980D01*
X107205733Y-41161838D01*
X107300971Y-41257076D01*
X107396209Y-41304695D01*
X106253352Y-41447552D02*
X106348590Y-41399933D01*
X106396209Y-41352314D01*
X106443828Y-41257076D01*
X106443828Y-41209457D01*
X106396209Y-41114219D01*
X106348590Y-41066600D01*
X106253352Y-41018980D01*
X106062876Y-41018980D01*
X105967638Y-41066600D01*
X105920019Y-41114219D01*
X105872400Y-41209457D01*
X105872400Y-41257076D01*
X105920019Y-41352314D01*
X105967638Y-41399933D01*
X106062876Y-41447552D01*
X106253352Y-41447552D01*
X106348590Y-41495171D01*
X106396209Y-41542790D01*
X106443828Y-41638028D01*
X106443828Y-41828504D01*
X106396209Y-41923742D01*
X106348590Y-41971361D01*
X106253352Y-42018980D01*
X106062876Y-42018980D01*
X105967638Y-41971361D01*
X105920019Y-41923742D01*
X105872400Y-41828504D01*
X105872400Y-41638028D01*
X105920019Y-41542790D01*
X105967638Y-41495171D01*
X106062876Y-41447552D01*
D11*
X64690071Y-80532857D02*
X64475785Y-80604285D01*
X64404357Y-80675714D01*
X64332928Y-80818571D01*
X64332928Y-81032857D01*
X64404357Y-81175714D01*
X64475785Y-81247142D01*
X64618642Y-81318571D01*
X65190071Y-81318571D01*
X65190071Y-79818571D01*
X64690071Y-79818571D01*
X64547214Y-79890000D01*
X64475785Y-79961428D01*
X64404357Y-80104285D01*
X64404357Y-80247142D01*
X64475785Y-80390000D01*
X64547214Y-80461428D01*
X64690071Y-80532857D01*
X65190071Y-80532857D01*
X63118642Y-81247142D02*
X63261500Y-81318571D01*
X63547214Y-81318571D01*
X63690071Y-81247142D01*
X63761500Y-81104285D01*
X63761500Y-80532857D01*
X63690071Y-80390000D01*
X63547214Y-80318571D01*
X63261500Y-80318571D01*
X63118642Y-80390000D01*
X63047214Y-80532857D01*
X63047214Y-80675714D01*
X63761500Y-80818571D01*
X61761500Y-81318571D02*
X61761500Y-79818571D01*
X61761500Y-81247142D02*
X61904357Y-81318571D01*
X62190071Y-81318571D01*
X62332928Y-81247142D01*
X62404357Y-81175714D01*
X62475785Y-81032857D01*
X62475785Y-80604285D01*
X62404357Y-80461428D01*
X62332928Y-80390000D01*
X62190071Y-80318571D01*
X61904357Y-80318571D01*
X61761500Y-80390000D01*
X59690071Y-81318571D02*
X59832928Y-81247142D01*
X59904357Y-81104285D01*
X59904357Y-79818571D01*
X58547214Y-81247142D02*
X58690071Y-81318571D01*
X58975785Y-81318571D01*
X59118642Y-81247142D01*
X59190071Y-81104285D01*
X59190071Y-80532857D01*
X59118642Y-80390000D01*
X58975785Y-80318571D01*
X58690071Y-80318571D01*
X58547214Y-80390000D01*
X58475785Y-80532857D01*
X58475785Y-80675714D01*
X59190071Y-80818571D01*
X57975785Y-80318571D02*
X57618642Y-81318571D01*
X57261500Y-80318571D01*
X56118642Y-81247142D02*
X56261500Y-81318571D01*
X56547214Y-81318571D01*
X56690071Y-81247142D01*
X56761500Y-81104285D01*
X56761500Y-80532857D01*
X56690071Y-80390000D01*
X56547214Y-80318571D01*
X56261500Y-80318571D01*
X56118642Y-80390000D01*
X56047214Y-80532857D01*
X56047214Y-80675714D01*
X56761500Y-80818571D01*
X55190071Y-81318571D02*
X55332928Y-81247142D01*
X55404357Y-81104285D01*
X55404357Y-79818571D01*
X63047214Y-82868571D02*
X63047214Y-84368571D01*
X63047214Y-82940000D02*
X62904357Y-82868571D01*
X62618642Y-82868571D01*
X62475785Y-82940000D01*
X62404357Y-83011428D01*
X62332928Y-83154285D01*
X62332928Y-83582857D01*
X62404357Y-83725714D01*
X62475785Y-83797142D01*
X62618642Y-83868571D01*
X62904357Y-83868571D01*
X63047214Y-83797142D01*
X61690071Y-83868571D02*
X61690071Y-82868571D01*
X61690071Y-83154285D02*
X61618642Y-83011428D01*
X61547214Y-82940000D01*
X61404357Y-82868571D01*
X61261500Y-82868571D01*
X60547214Y-83868571D02*
X60690071Y-83797142D01*
X60761500Y-83725714D01*
X60832928Y-83582857D01*
X60832928Y-83154285D01*
X60761500Y-83011428D01*
X60690071Y-82940000D01*
X60547214Y-82868571D01*
X60332928Y-82868571D01*
X60190071Y-82940000D01*
X60118642Y-83011428D01*
X60047214Y-83154285D01*
X60047214Y-83582857D01*
X60118642Y-83725714D01*
X60190071Y-83797142D01*
X60332928Y-83868571D01*
X60547214Y-83868571D01*
X59404357Y-83868571D02*
X59404357Y-82368571D01*
X59404357Y-82940000D02*
X59261500Y-82868571D01*
X58975785Y-82868571D01*
X58832928Y-82940000D01*
X58761500Y-83011428D01*
X58690071Y-83154285D01*
X58690071Y-83582857D01*
X58761500Y-83725714D01*
X58832928Y-83797142D01*
X58975785Y-83868571D01*
X59261500Y-83868571D01*
X59404357Y-83797142D01*
X57475785Y-83797142D02*
X57618642Y-83868571D01*
X57904357Y-83868571D01*
X58047214Y-83797142D01*
X58118642Y-83654285D01*
X58118642Y-83082857D01*
X58047214Y-82940000D01*
X57904357Y-82868571D01*
X57618642Y-82868571D01*
X57475785Y-82940000D01*
X57404357Y-83082857D01*
X57404357Y-83225714D01*
X58118642Y-83368571D01*
X41929500Y-79945571D02*
X41072357Y-79945571D01*
X41500928Y-81445571D02*
X41500928Y-79945571D01*
X40000928Y-81374142D02*
X40143785Y-81445571D01*
X40429500Y-81445571D01*
X40572357Y-81374142D01*
X40643785Y-81231285D01*
X40643785Y-80659857D01*
X40572357Y-80517000D01*
X40429500Y-80445571D01*
X40143785Y-80445571D01*
X40000928Y-80517000D01*
X39929500Y-80659857D01*
X39929500Y-80802714D01*
X40643785Y-80945571D01*
X39286642Y-81445571D02*
X39286642Y-80445571D01*
X39286642Y-80588428D02*
X39215214Y-80517000D01*
X39072357Y-80445571D01*
X38858071Y-80445571D01*
X38715214Y-80517000D01*
X38643785Y-80659857D01*
X38643785Y-81445571D01*
X38643785Y-80659857D02*
X38572357Y-80517000D01*
X38429500Y-80445571D01*
X38215214Y-80445571D01*
X38072357Y-80517000D01*
X38000928Y-80659857D01*
X38000928Y-81445571D01*
X37286642Y-80445571D02*
X37286642Y-81945571D01*
X37286642Y-80517000D02*
X37143785Y-80445571D01*
X36858071Y-80445571D01*
X36715214Y-80517000D01*
X36643785Y-80588428D01*
X36572357Y-80731285D01*
X36572357Y-81159857D01*
X36643785Y-81302714D01*
X36715214Y-81374142D01*
X36858071Y-81445571D01*
X37143785Y-81445571D01*
X37286642Y-81374142D01*
X40215214Y-83209857D02*
X39715214Y-83209857D01*
X39500928Y-83995571D02*
X40215214Y-83995571D01*
X40215214Y-82495571D01*
X39500928Y-82495571D01*
X38572357Y-82495571D02*
X38429500Y-82495571D01*
X38286642Y-82567000D01*
X38215214Y-82638428D01*
X38143785Y-82781285D01*
X38072357Y-83067000D01*
X38072357Y-83424142D01*
X38143785Y-83709857D01*
X38215214Y-83852714D01*
X38286642Y-83924142D01*
X38429500Y-83995571D01*
X38572357Y-83995571D01*
X38715214Y-83924142D01*
X38786642Y-83852714D01*
X38858071Y-83709857D01*
X38929500Y-83424142D01*
X38929500Y-83067000D01*
X38858071Y-82781285D01*
X38786642Y-82638428D01*
X38715214Y-82567000D01*
X38572357Y-82495571D01*
X41929500Y-73405071D02*
X41072357Y-73405071D01*
X41500928Y-74905071D02*
X41500928Y-73405071D01*
X40000928Y-74833642D02*
X40143785Y-74905071D01*
X40429500Y-74905071D01*
X40572357Y-74833642D01*
X40643785Y-74690785D01*
X40643785Y-74119357D01*
X40572357Y-73976500D01*
X40429500Y-73905071D01*
X40143785Y-73905071D01*
X40000928Y-73976500D01*
X39929500Y-74119357D01*
X39929500Y-74262214D01*
X40643785Y-74405071D01*
X39286642Y-74905071D02*
X39286642Y-73905071D01*
X39286642Y-74047928D02*
X39215214Y-73976500D01*
X39072357Y-73905071D01*
X38858071Y-73905071D01*
X38715214Y-73976500D01*
X38643785Y-74119357D01*
X38643785Y-74905071D01*
X38643785Y-74119357D02*
X38572357Y-73976500D01*
X38429500Y-73905071D01*
X38215214Y-73905071D01*
X38072357Y-73976500D01*
X38000928Y-74119357D01*
X38000928Y-74905071D01*
X37286642Y-73905071D02*
X37286642Y-75405071D01*
X37286642Y-73976500D02*
X37143785Y-73905071D01*
X36858071Y-73905071D01*
X36715214Y-73976500D01*
X36643785Y-74047928D01*
X36572357Y-74190785D01*
X36572357Y-74619357D01*
X36643785Y-74762214D01*
X36715214Y-74833642D01*
X36858071Y-74905071D01*
X37143785Y-74905071D01*
X37286642Y-74833642D01*
X40215214Y-76669357D02*
X39715214Y-76669357D01*
X39500928Y-77455071D02*
X40215214Y-77455071D01*
X40215214Y-75955071D01*
X39500928Y-75955071D01*
X38072357Y-77455071D02*
X38929500Y-77455071D01*
X38500928Y-77455071D02*
X38500928Y-75955071D01*
X38643785Y-76169357D01*
X38786642Y-76312214D01*
X38929500Y-76383642D01*
X41231000Y-65213571D02*
X40373857Y-65213571D01*
X40802428Y-66713571D02*
X40802428Y-65213571D01*
X39302428Y-66642142D02*
X39445285Y-66713571D01*
X39731000Y-66713571D01*
X39873857Y-66642142D01*
X39945285Y-66499285D01*
X39945285Y-65927857D01*
X39873857Y-65785000D01*
X39731000Y-65713571D01*
X39445285Y-65713571D01*
X39302428Y-65785000D01*
X39231000Y-65927857D01*
X39231000Y-66070714D01*
X39945285Y-66213571D01*
X38588142Y-66713571D02*
X38588142Y-65713571D01*
X38588142Y-65856428D02*
X38516714Y-65785000D01*
X38373857Y-65713571D01*
X38159571Y-65713571D01*
X38016714Y-65785000D01*
X37945285Y-65927857D01*
X37945285Y-66713571D01*
X37945285Y-65927857D02*
X37873857Y-65785000D01*
X37731000Y-65713571D01*
X37516714Y-65713571D01*
X37373857Y-65785000D01*
X37302428Y-65927857D01*
X37302428Y-66713571D01*
X36588142Y-65713571D02*
X36588142Y-67213571D01*
X36588142Y-65785000D02*
X36445285Y-65713571D01*
X36159571Y-65713571D01*
X36016714Y-65785000D01*
X35945285Y-65856428D01*
X35873857Y-65999285D01*
X35873857Y-66427857D01*
X35945285Y-66570714D01*
X36016714Y-66642142D01*
X36159571Y-66713571D01*
X36445285Y-66713571D01*
X36588142Y-66642142D01*
X39695285Y-68477857D02*
X39481000Y-68549285D01*
X39409571Y-68620714D01*
X39338142Y-68763571D01*
X39338142Y-68977857D01*
X39409571Y-69120714D01*
X39481000Y-69192142D01*
X39623857Y-69263571D01*
X40195285Y-69263571D01*
X40195285Y-67763571D01*
X39695285Y-67763571D01*
X39552428Y-67835000D01*
X39481000Y-67906428D01*
X39409571Y-68049285D01*
X39409571Y-68192142D01*
X39481000Y-68335000D01*
X39552428Y-68406428D01*
X39695285Y-68477857D01*
X40195285Y-68477857D01*
X38123857Y-69192142D02*
X38266714Y-69263571D01*
X38552428Y-69263571D01*
X38695285Y-69192142D01*
X38766714Y-69049285D01*
X38766714Y-68477857D01*
X38695285Y-68335000D01*
X38552428Y-68263571D01*
X38266714Y-68263571D01*
X38123857Y-68335000D01*
X38052428Y-68477857D01*
X38052428Y-68620714D01*
X38766714Y-68763571D01*
X37409571Y-69263571D02*
X37409571Y-67763571D01*
X37409571Y-68335000D02*
X37266714Y-68263571D01*
X36981000Y-68263571D01*
X36838142Y-68335000D01*
X36766714Y-68406428D01*
X36695285Y-68549285D01*
X36695285Y-68977857D01*
X36766714Y-69120714D01*
X36838142Y-69192142D01*
X36981000Y-69263571D01*
X37266714Y-69263571D01*
X37409571Y-69192142D01*
X76342071Y-93042357D02*
X75842071Y-93042357D01*
X75627785Y-93828071D02*
X76342071Y-93828071D01*
X76342071Y-92328071D01*
X75627785Y-92328071D01*
X74199214Y-93828071D02*
X75056357Y-93828071D01*
X74627785Y-93828071D02*
X74627785Y-92328071D01*
X74770642Y-92542357D01*
X74913500Y-92685214D01*
X75056357Y-92756642D01*
X71913500Y-93042357D02*
X72413500Y-93042357D01*
X72413500Y-93828071D02*
X72413500Y-92328071D01*
X71699214Y-92328071D01*
X71127785Y-93828071D02*
X71127785Y-92828071D01*
X71127785Y-92328071D02*
X71199214Y-92399500D01*
X71127785Y-92470928D01*
X71056357Y-92399500D01*
X71127785Y-92328071D01*
X71127785Y-92470928D01*
X70199214Y-93828071D02*
X70342071Y-93756642D01*
X70413500Y-93613785D01*
X70413500Y-92328071D01*
X68984928Y-93828071D02*
X68984928Y-93042357D01*
X69056357Y-92899500D01*
X69199214Y-92828071D01*
X69484928Y-92828071D01*
X69627785Y-92899500D01*
X68984928Y-93756642D02*
X69127785Y-93828071D01*
X69484928Y-93828071D01*
X69627785Y-93756642D01*
X69699214Y-93613785D01*
X69699214Y-93470928D01*
X69627785Y-93328071D01*
X69484928Y-93256642D01*
X69127785Y-93256642D01*
X68984928Y-93185214D01*
X68270642Y-93828071D02*
X68270642Y-92828071D01*
X68270642Y-92970928D02*
X68199214Y-92899500D01*
X68056357Y-92828071D01*
X67842071Y-92828071D01*
X67699214Y-92899500D01*
X67627785Y-93042357D01*
X67627785Y-93828071D01*
X67627785Y-93042357D02*
X67556357Y-92899500D01*
X67413500Y-92828071D01*
X67199214Y-92828071D01*
X67056357Y-92899500D01*
X66984928Y-93042357D01*
X66984928Y-93828071D01*
X65699214Y-93756642D02*
X65842071Y-93828071D01*
X66127785Y-93828071D01*
X66270642Y-93756642D01*
X66342071Y-93613785D01*
X66342071Y-93042357D01*
X66270642Y-92899500D01*
X66127785Y-92828071D01*
X65842071Y-92828071D01*
X65699214Y-92899500D01*
X65627785Y-93042357D01*
X65627785Y-93185214D01*
X66342071Y-93328071D01*
X64984928Y-92828071D02*
X64984928Y-93828071D01*
X64984928Y-92970928D02*
X64913500Y-92899500D01*
X64770642Y-92828071D01*
X64556357Y-92828071D01*
X64413500Y-92899500D01*
X64342071Y-93042357D01*
X64342071Y-93828071D01*
X63842071Y-92828071D02*
X63270642Y-92828071D01*
X63627785Y-92328071D02*
X63627785Y-93613785D01*
X63556357Y-93756642D01*
X63413500Y-93828071D01*
X63270642Y-93828071D01*
X73092071Y-96378071D02*
X73092071Y-94878071D01*
X72734928Y-94878071D01*
X72520642Y-94949500D01*
X72377785Y-95092357D01*
X72306357Y-95235214D01*
X72234928Y-95520928D01*
X72234928Y-95735214D01*
X72306357Y-96020928D01*
X72377785Y-96163785D01*
X72520642Y-96306642D01*
X72734928Y-96378071D01*
X73092071Y-96378071D01*
X71020642Y-96306642D02*
X71163500Y-96378071D01*
X71449214Y-96378071D01*
X71592071Y-96306642D01*
X71663500Y-96163785D01*
X71663500Y-95592357D01*
X71592071Y-95449500D01*
X71449214Y-95378071D01*
X71163500Y-95378071D01*
X71020642Y-95449500D01*
X70949214Y-95592357D01*
X70949214Y-95735214D01*
X71663500Y-95878071D01*
X70520642Y-95378071D02*
X69949214Y-95378071D01*
X70306357Y-94878071D02*
X70306357Y-96163785D01*
X70234928Y-96306642D01*
X70092071Y-96378071D01*
X69949214Y-96378071D01*
X68877785Y-96306642D02*
X69020642Y-96378071D01*
X69306357Y-96378071D01*
X69449214Y-96306642D01*
X69520642Y-96163785D01*
X69520642Y-95592357D01*
X69449214Y-95449500D01*
X69306357Y-95378071D01*
X69020642Y-95378071D01*
X68877785Y-95449500D01*
X68806357Y-95592357D01*
X68806357Y-95735214D01*
X69520642Y-95878071D01*
X67520642Y-96306642D02*
X67663500Y-96378071D01*
X67949214Y-96378071D01*
X68092071Y-96306642D01*
X68163500Y-96235214D01*
X68234928Y-96092357D01*
X68234928Y-95663785D01*
X68163500Y-95520928D01*
X68092071Y-95449500D01*
X67949214Y-95378071D01*
X67663500Y-95378071D01*
X67520642Y-95449500D01*
X67092071Y-95378071D02*
X66520642Y-95378071D01*
X66877785Y-94878071D02*
X66877785Y-96163785D01*
X66806357Y-96306642D01*
X66663500Y-96378071D01*
X66520642Y-96378071D01*
X78787285Y-85054285D02*
X78787285Y-85768571D01*
X79287285Y-84268571D02*
X78787285Y-85054285D01*
X78287285Y-84268571D01*
X76644428Y-85768571D02*
X76644428Y-84268571D01*
X76144428Y-85340000D01*
X75644428Y-84268571D01*
X75644428Y-85768571D01*
X74287285Y-85768571D02*
X74287285Y-84982857D01*
X74358714Y-84840000D01*
X74501571Y-84768571D01*
X74787285Y-84768571D01*
X74930142Y-84840000D01*
X74287285Y-85697142D02*
X74430142Y-85768571D01*
X74787285Y-85768571D01*
X74930142Y-85697142D01*
X75001571Y-85554285D01*
X75001571Y-85411428D01*
X74930142Y-85268571D01*
X74787285Y-85197142D01*
X74430142Y-85197142D01*
X74287285Y-85125714D01*
X73715857Y-85768571D02*
X72930142Y-84768571D01*
X73715857Y-84768571D02*
X72930142Y-85768571D01*
X79160285Y-74870571D02*
X78160285Y-74870571D01*
X79160285Y-76370571D01*
X78160285Y-76370571D01*
X76446000Y-76370571D02*
X76446000Y-74870571D01*
X75946000Y-75942000D01*
X75446000Y-74870571D01*
X75446000Y-76370571D01*
X74088857Y-76370571D02*
X74088857Y-75584857D01*
X74160285Y-75442000D01*
X74303142Y-75370571D01*
X74588857Y-75370571D01*
X74731714Y-75442000D01*
X74088857Y-76299142D02*
X74231714Y-76370571D01*
X74588857Y-76370571D01*
X74731714Y-76299142D01*
X74803142Y-76156285D01*
X74803142Y-76013428D01*
X74731714Y-75870571D01*
X74588857Y-75799142D01*
X74231714Y-75799142D01*
X74088857Y-75727714D01*
X73517428Y-76370571D02*
X72731714Y-75370571D01*
X73517428Y-75370571D02*
X72731714Y-76370571D01*
X54409171Y-85943057D02*
X53909171Y-85943057D01*
X53694885Y-86728771D02*
X54409171Y-86728771D01*
X54409171Y-85228771D01*
X53694885Y-85228771D01*
X52766314Y-85228771D02*
X52623457Y-85228771D01*
X52480600Y-85300200D01*
X52409171Y-85371628D01*
X52337742Y-85514485D01*
X52266314Y-85800200D01*
X52266314Y-86157342D01*
X52337742Y-86443057D01*
X52409171Y-86585914D01*
X52480600Y-86657342D01*
X52623457Y-86728771D01*
X52766314Y-86728771D01*
X52909171Y-86657342D01*
X52980600Y-86585914D01*
X53052028Y-86443057D01*
X53123457Y-86157342D01*
X53123457Y-85800200D01*
X53052028Y-85514485D01*
X52980600Y-85371628D01*
X52909171Y-85300200D01*
X52766314Y-85228771D01*
X49980600Y-85943057D02*
X50480600Y-85943057D01*
X50480600Y-86728771D02*
X50480600Y-85228771D01*
X49766314Y-85228771D01*
X49194885Y-86728771D02*
X49194885Y-85728771D01*
X49194885Y-85228771D02*
X49266314Y-85300200D01*
X49194885Y-85371628D01*
X49123457Y-85300200D01*
X49194885Y-85228771D01*
X49194885Y-85371628D01*
X48266314Y-86728771D02*
X48409171Y-86657342D01*
X48480600Y-86514485D01*
X48480600Y-85228771D01*
X47052028Y-86728771D02*
X47052028Y-85943057D01*
X47123457Y-85800200D01*
X47266314Y-85728771D01*
X47552028Y-85728771D01*
X47694885Y-85800200D01*
X47052028Y-86657342D02*
X47194885Y-86728771D01*
X47552028Y-86728771D01*
X47694885Y-86657342D01*
X47766314Y-86514485D01*
X47766314Y-86371628D01*
X47694885Y-86228771D01*
X47552028Y-86157342D01*
X47194885Y-86157342D01*
X47052028Y-86085914D01*
X46337742Y-86728771D02*
X46337742Y-85728771D01*
X46337742Y-85871628D02*
X46266314Y-85800200D01*
X46123457Y-85728771D01*
X45909171Y-85728771D01*
X45766314Y-85800200D01*
X45694885Y-85943057D01*
X45694885Y-86728771D01*
X45694885Y-85943057D02*
X45623457Y-85800200D01*
X45480600Y-85728771D01*
X45266314Y-85728771D01*
X45123457Y-85800200D01*
X45052028Y-85943057D01*
X45052028Y-86728771D01*
X43766314Y-86657342D02*
X43909171Y-86728771D01*
X44194885Y-86728771D01*
X44337742Y-86657342D01*
X44409171Y-86514485D01*
X44409171Y-85943057D01*
X44337742Y-85800200D01*
X44194885Y-85728771D01*
X43909171Y-85728771D01*
X43766314Y-85800200D01*
X43694885Y-85943057D01*
X43694885Y-86085914D01*
X44409171Y-86228771D01*
X43052028Y-85728771D02*
X43052028Y-86728771D01*
X43052028Y-85871628D02*
X42980600Y-85800200D01*
X42837742Y-85728771D01*
X42623457Y-85728771D01*
X42480600Y-85800200D01*
X42409171Y-85943057D01*
X42409171Y-86728771D01*
X41909171Y-85728771D02*
X41337742Y-85728771D01*
X41694885Y-85228771D02*
X41694885Y-86514485D01*
X41623457Y-86657342D01*
X41480600Y-86728771D01*
X41337742Y-86728771D01*
X51159171Y-89278771D02*
X51159171Y-87778771D01*
X50802028Y-87778771D01*
X50587742Y-87850200D01*
X50444885Y-87993057D01*
X50373457Y-88135914D01*
X50302028Y-88421628D01*
X50302028Y-88635914D01*
X50373457Y-88921628D01*
X50444885Y-89064485D01*
X50587742Y-89207342D01*
X50802028Y-89278771D01*
X51159171Y-89278771D01*
X49087742Y-89207342D02*
X49230600Y-89278771D01*
X49516314Y-89278771D01*
X49659171Y-89207342D01*
X49730600Y-89064485D01*
X49730600Y-88493057D01*
X49659171Y-88350200D01*
X49516314Y-88278771D01*
X49230600Y-88278771D01*
X49087742Y-88350200D01*
X49016314Y-88493057D01*
X49016314Y-88635914D01*
X49730600Y-88778771D01*
X48587742Y-88278771D02*
X48016314Y-88278771D01*
X48373457Y-87778771D02*
X48373457Y-89064485D01*
X48302028Y-89207342D01*
X48159171Y-89278771D01*
X48016314Y-89278771D01*
X46944885Y-89207342D02*
X47087742Y-89278771D01*
X47373457Y-89278771D01*
X47516314Y-89207342D01*
X47587742Y-89064485D01*
X47587742Y-88493057D01*
X47516314Y-88350200D01*
X47373457Y-88278771D01*
X47087742Y-88278771D01*
X46944885Y-88350200D01*
X46873457Y-88493057D01*
X46873457Y-88635914D01*
X47587742Y-88778771D01*
X45587742Y-89207342D02*
X45730600Y-89278771D01*
X46016314Y-89278771D01*
X46159171Y-89207342D01*
X46230600Y-89135914D01*
X46302028Y-88993057D01*
X46302028Y-88564485D01*
X46230600Y-88421628D01*
X46159171Y-88350200D01*
X46016314Y-88278771D01*
X45730600Y-88278771D01*
X45587742Y-88350200D01*
X45159171Y-88278771D02*
X44587742Y-88278771D01*
X44944885Y-87778771D02*
X44944885Y-89064485D01*
X44873457Y-89207342D01*
X44730600Y-89278771D01*
X44587742Y-89278771D01*
X45251285Y-93666571D02*
X44251285Y-95166571D01*
X44251285Y-93666571D02*
X45251285Y-95166571D01*
X42537000Y-95166571D02*
X42537000Y-93666571D01*
X42037000Y-94738000D01*
X41537000Y-93666571D01*
X41537000Y-95166571D01*
X40179857Y-95166571D02*
X40179857Y-94380857D01*
X40251285Y-94238000D01*
X40394142Y-94166571D01*
X40679857Y-94166571D01*
X40822714Y-94238000D01*
X40179857Y-95095142D02*
X40322714Y-95166571D01*
X40679857Y-95166571D01*
X40822714Y-95095142D01*
X40894142Y-94952285D01*
X40894142Y-94809428D01*
X40822714Y-94666571D01*
X40679857Y-94595142D01*
X40322714Y-94595142D01*
X40179857Y-94523714D01*
X39608428Y-95166571D02*
X38822714Y-94166571D01*
X39608428Y-94166571D02*
X38822714Y-95166571D01*
X36555785Y-93730071D02*
X35555785Y-93730071D01*
X36555785Y-95230071D01*
X35555785Y-95230071D01*
X33841500Y-95230071D02*
X33841500Y-93730071D01*
X33341500Y-94801500D01*
X32841500Y-93730071D01*
X32841500Y-95230071D01*
X32127214Y-95230071D02*
X32127214Y-94230071D01*
X32127214Y-93730071D02*
X32198642Y-93801500D01*
X32127214Y-93872928D01*
X32055785Y-93801500D01*
X32127214Y-93730071D01*
X32127214Y-93872928D01*
X31412928Y-94230071D02*
X31412928Y-95230071D01*
X31412928Y-94372928D02*
X31341500Y-94301500D01*
X31198642Y-94230071D01*
X30984357Y-94230071D01*
X30841500Y-94301500D01*
X30770071Y-94444357D01*
X30770071Y-95230071D01*
X44183785Y-102961285D02*
X44183785Y-103675571D01*
X44683785Y-102175571D02*
X44183785Y-102961285D01*
X43683785Y-102175571D01*
X42040928Y-103675571D02*
X42040928Y-102175571D01*
X41540928Y-103247000D01*
X41040928Y-102175571D01*
X41040928Y-103675571D01*
X40326642Y-103675571D02*
X40326642Y-102675571D01*
X40326642Y-102175571D02*
X40398071Y-102247000D01*
X40326642Y-102318428D01*
X40255214Y-102247000D01*
X40326642Y-102175571D01*
X40326642Y-102318428D01*
X39612357Y-102675571D02*
X39612357Y-103675571D01*
X39612357Y-102818428D02*
X39540928Y-102747000D01*
X39398071Y-102675571D01*
X39183785Y-102675571D01*
X39040928Y-102747000D01*
X38969500Y-102889857D01*
X38969500Y-103675571D01*
X36746285Y-102239071D02*
X35746285Y-103739071D01*
X35746285Y-102239071D02*
X36746285Y-103739071D01*
X34032000Y-103739071D02*
X34032000Y-102239071D01*
X33532000Y-103310500D01*
X33032000Y-102239071D01*
X33032000Y-103739071D01*
X32317714Y-103739071D02*
X32317714Y-102739071D01*
X32317714Y-102239071D02*
X32389142Y-102310500D01*
X32317714Y-102381928D01*
X32246285Y-102310500D01*
X32317714Y-102239071D01*
X32317714Y-102381928D01*
X31603428Y-102739071D02*
X31603428Y-103739071D01*
X31603428Y-102881928D02*
X31532000Y-102810500D01*
X31389142Y-102739071D01*
X31174857Y-102739071D01*
X31032000Y-102810500D01*
X30960571Y-102953357D01*
X30960571Y-103739071D01*
X44163571Y-108195000D02*
X43449285Y-108195000D01*
X44306428Y-108623571D02*
X43806428Y-107123571D01*
X43306428Y-108623571D01*
X42592142Y-108623571D02*
X42735000Y-108552142D01*
X42806428Y-108409285D01*
X42806428Y-107123571D01*
X42163571Y-107623571D02*
X41877857Y-108623571D01*
X41592142Y-107909285D01*
X41306428Y-108623571D01*
X41020714Y-107623571D01*
X39806428Y-108623571D02*
X39806428Y-107837857D01*
X39877857Y-107695000D01*
X40020714Y-107623571D01*
X40306428Y-107623571D01*
X40449285Y-107695000D01*
X39806428Y-108552142D02*
X39949285Y-108623571D01*
X40306428Y-108623571D01*
X40449285Y-108552142D01*
X40520714Y-108409285D01*
X40520714Y-108266428D01*
X40449285Y-108123571D01*
X40306428Y-108052142D01*
X39949285Y-108052142D01*
X39806428Y-107980714D01*
X39235000Y-107623571D02*
X38877857Y-108623571D01*
X38520714Y-107623571D02*
X38877857Y-108623571D01*
X39020714Y-108980714D01*
X39092142Y-109052142D01*
X39235000Y-109123571D01*
X38020714Y-108552142D02*
X37877857Y-108623571D01*
X37592142Y-108623571D01*
X37449285Y-108552142D01*
X37377857Y-108409285D01*
X37377857Y-108337857D01*
X37449285Y-108195000D01*
X37592142Y-108123571D01*
X37806428Y-108123571D01*
X37949285Y-108052142D01*
X38020714Y-107909285D01*
X38020714Y-107837857D01*
X37949285Y-107695000D01*
X37806428Y-107623571D01*
X37592142Y-107623571D01*
X37449285Y-107695000D01*
X35306428Y-107123571D02*
X35020714Y-107123571D01*
X34877857Y-107195000D01*
X34735000Y-107337857D01*
X34663571Y-107623571D01*
X34663571Y-108123571D01*
X34735000Y-108409285D01*
X34877857Y-108552142D01*
X35020714Y-108623571D01*
X35306428Y-108623571D01*
X35449285Y-108552142D01*
X35592142Y-108409285D01*
X35663571Y-108123571D01*
X35663571Y-107623571D01*
X35592142Y-107337857D01*
X35449285Y-107195000D01*
X35306428Y-107123571D01*
X34020714Y-107623571D02*
X34020714Y-108623571D01*
X34020714Y-107766428D02*
X33949285Y-107695000D01*
X33806428Y-107623571D01*
X33592142Y-107623571D01*
X33449285Y-107695000D01*
X33377857Y-107837857D01*
X33377857Y-108623571D01*
X45520714Y-110602142D02*
X44377857Y-110602142D01*
X41377857Y-110602142D02*
X40235000Y-110602142D01*
X40806428Y-111173571D02*
X40806428Y-110030714D01*
X37235000Y-110602142D02*
X36092142Y-110602142D01*
X33092142Y-110602142D02*
X31949285Y-110602142D01*
X32520714Y-111173571D02*
X32520714Y-110030714D01*
X52470714Y-104213357D02*
X51970714Y-104213357D01*
X51756428Y-104999071D02*
X52470714Y-104999071D01*
X52470714Y-103499071D01*
X51756428Y-103499071D01*
X50327857Y-104999071D02*
X51185000Y-104999071D01*
X50756428Y-104999071D02*
X50756428Y-103499071D01*
X50899285Y-103713357D01*
X51042142Y-103856214D01*
X51185000Y-103927642D01*
X53399285Y-107549071D02*
X53399285Y-106049071D01*
X52827857Y-106049071D01*
X52685000Y-106120500D01*
X52613571Y-106191928D01*
X52542142Y-106334785D01*
X52542142Y-106549071D01*
X52613571Y-106691928D01*
X52685000Y-106763357D01*
X52827857Y-106834785D01*
X53399285Y-106834785D01*
X51256428Y-107549071D02*
X51256428Y-106763357D01*
X51327857Y-106620500D01*
X51470714Y-106549071D01*
X51756428Y-106549071D01*
X51899285Y-106620500D01*
X51256428Y-107477642D02*
X51399285Y-107549071D01*
X51756428Y-107549071D01*
X51899285Y-107477642D01*
X51970714Y-107334785D01*
X51970714Y-107191928D01*
X51899285Y-107049071D01*
X51756428Y-106977642D01*
X51399285Y-106977642D01*
X51256428Y-106906214D01*
X50542142Y-107549071D02*
X50542142Y-106549071D01*
X50542142Y-106834785D02*
X50470714Y-106691928D01*
X50399285Y-106620500D01*
X50256428Y-106549071D01*
X50113571Y-106549071D01*
X49827857Y-106549071D02*
X49256428Y-106549071D01*
X49613571Y-106049071D02*
X49613571Y-107334785D01*
X49542142Y-107477642D01*
X49399285Y-107549071D01*
X49256428Y-107549071D01*
X54077857Y-109527642D02*
X52935000Y-109527642D01*
X49935000Y-109527642D02*
X48792142Y-109527642D01*
X49363571Y-110099071D02*
X49363571Y-108956214D01*
X60789214Y-104149857D02*
X60289214Y-104149857D01*
X60074928Y-104935571D02*
X60789214Y-104935571D01*
X60789214Y-103435571D01*
X60074928Y-103435571D01*
X59146357Y-103435571D02*
X59003500Y-103435571D01*
X58860642Y-103507000D01*
X58789214Y-103578428D01*
X58717785Y-103721285D01*
X58646357Y-104007000D01*
X58646357Y-104364142D01*
X58717785Y-104649857D01*
X58789214Y-104792714D01*
X58860642Y-104864142D01*
X59003500Y-104935571D01*
X59146357Y-104935571D01*
X59289214Y-104864142D01*
X59360642Y-104792714D01*
X59432071Y-104649857D01*
X59503500Y-104364142D01*
X59503500Y-104007000D01*
X59432071Y-103721285D01*
X59360642Y-103578428D01*
X59289214Y-103507000D01*
X59146357Y-103435571D01*
X61717785Y-107485571D02*
X61717785Y-105985571D01*
X61146357Y-105985571D01*
X61003500Y-106057000D01*
X60932071Y-106128428D01*
X60860642Y-106271285D01*
X60860642Y-106485571D01*
X60932071Y-106628428D01*
X61003500Y-106699857D01*
X61146357Y-106771285D01*
X61717785Y-106771285D01*
X59574928Y-107485571D02*
X59574928Y-106699857D01*
X59646357Y-106557000D01*
X59789214Y-106485571D01*
X60074928Y-106485571D01*
X60217785Y-106557000D01*
X59574928Y-107414142D02*
X59717785Y-107485571D01*
X60074928Y-107485571D01*
X60217785Y-107414142D01*
X60289214Y-107271285D01*
X60289214Y-107128428D01*
X60217785Y-106985571D01*
X60074928Y-106914142D01*
X59717785Y-106914142D01*
X59574928Y-106842714D01*
X58860642Y-107485571D02*
X58860642Y-106485571D01*
X58860642Y-106771285D02*
X58789214Y-106628428D01*
X58717785Y-106557000D01*
X58574928Y-106485571D01*
X58432071Y-106485571D01*
X58146357Y-106485571D02*
X57574928Y-106485571D01*
X57932071Y-105985571D02*
X57932071Y-107271285D01*
X57860642Y-107414142D01*
X57717785Y-107485571D01*
X57574928Y-107485571D01*
X62396357Y-109464142D02*
X61253500Y-109464142D01*
X58253500Y-109464142D02*
X57110642Y-109464142D01*
X57682071Y-110035571D02*
X57682071Y-108892714D01*
X69298214Y-104276857D02*
X68798214Y-104276857D01*
X68583928Y-105062571D02*
X69298214Y-105062571D01*
X69298214Y-103562571D01*
X68583928Y-103562571D01*
X67155357Y-105062571D02*
X68012500Y-105062571D01*
X67583928Y-105062571D02*
X67583928Y-103562571D01*
X67726785Y-103776857D01*
X67869642Y-103919714D01*
X68012500Y-103991142D01*
X69548214Y-107469714D02*
X69619642Y-107541142D01*
X69833928Y-107612571D01*
X69976785Y-107612571D01*
X70191071Y-107541142D01*
X70333928Y-107398285D01*
X70405357Y-107255428D01*
X70476785Y-106969714D01*
X70476785Y-106755428D01*
X70405357Y-106469714D01*
X70333928Y-106326857D01*
X70191071Y-106184000D01*
X69976785Y-106112571D01*
X69833928Y-106112571D01*
X69619642Y-106184000D01*
X69548214Y-106255428D01*
X68691071Y-107612571D02*
X68833928Y-107541142D01*
X68905357Y-107469714D01*
X68976785Y-107326857D01*
X68976785Y-106898285D01*
X68905357Y-106755428D01*
X68833928Y-106684000D01*
X68691071Y-106612571D01*
X68476785Y-106612571D01*
X68333928Y-106684000D01*
X68262500Y-106755428D01*
X68191071Y-106898285D01*
X68191071Y-107326857D01*
X68262500Y-107469714D01*
X68333928Y-107541142D01*
X68476785Y-107612571D01*
X68691071Y-107612571D01*
X67333928Y-107612571D02*
X67476785Y-107541142D01*
X67548214Y-107469714D01*
X67619642Y-107326857D01*
X67619642Y-106898285D01*
X67548214Y-106755428D01*
X67476785Y-106684000D01*
X67333928Y-106612571D01*
X67119642Y-106612571D01*
X66976785Y-106684000D01*
X66905357Y-106755428D01*
X66833928Y-106898285D01*
X66833928Y-107326857D01*
X66905357Y-107469714D01*
X66976785Y-107541142D01*
X67119642Y-107612571D01*
X67333928Y-107612571D01*
X65976785Y-107612571D02*
X66119642Y-107541142D01*
X66191071Y-107398285D01*
X66191071Y-106112571D01*
X70905357Y-109591142D02*
X69762500Y-109591142D01*
X66762500Y-109591142D02*
X65619642Y-109591142D01*
X66191071Y-110162571D02*
X66191071Y-109019714D01*
X77426214Y-104276857D02*
X76926214Y-104276857D01*
X76711928Y-105062571D02*
X77426214Y-105062571D01*
X77426214Y-103562571D01*
X76711928Y-103562571D01*
X75783357Y-103562571D02*
X75640500Y-103562571D01*
X75497642Y-103634000D01*
X75426214Y-103705428D01*
X75354785Y-103848285D01*
X75283357Y-104134000D01*
X75283357Y-104491142D01*
X75354785Y-104776857D01*
X75426214Y-104919714D01*
X75497642Y-104991142D01*
X75640500Y-105062571D01*
X75783357Y-105062571D01*
X75926214Y-104991142D01*
X75997642Y-104919714D01*
X76069071Y-104776857D01*
X76140500Y-104491142D01*
X76140500Y-104134000D01*
X76069071Y-103848285D01*
X75997642Y-103705428D01*
X75926214Y-103634000D01*
X75783357Y-103562571D01*
X77676214Y-107469714D02*
X77747642Y-107541142D01*
X77961928Y-107612571D01*
X78104785Y-107612571D01*
X78319071Y-107541142D01*
X78461928Y-107398285D01*
X78533357Y-107255428D01*
X78604785Y-106969714D01*
X78604785Y-106755428D01*
X78533357Y-106469714D01*
X78461928Y-106326857D01*
X78319071Y-106184000D01*
X78104785Y-106112571D01*
X77961928Y-106112571D01*
X77747642Y-106184000D01*
X77676214Y-106255428D01*
X76819071Y-107612571D02*
X76961928Y-107541142D01*
X77033357Y-107469714D01*
X77104785Y-107326857D01*
X77104785Y-106898285D01*
X77033357Y-106755428D01*
X76961928Y-106684000D01*
X76819071Y-106612571D01*
X76604785Y-106612571D01*
X76461928Y-106684000D01*
X76390500Y-106755428D01*
X76319071Y-106898285D01*
X76319071Y-107326857D01*
X76390500Y-107469714D01*
X76461928Y-107541142D01*
X76604785Y-107612571D01*
X76819071Y-107612571D01*
X75461928Y-107612571D02*
X75604785Y-107541142D01*
X75676214Y-107469714D01*
X75747642Y-107326857D01*
X75747642Y-106898285D01*
X75676214Y-106755428D01*
X75604785Y-106684000D01*
X75461928Y-106612571D01*
X75247642Y-106612571D01*
X75104785Y-106684000D01*
X75033357Y-106755428D01*
X74961928Y-106898285D01*
X74961928Y-107326857D01*
X75033357Y-107469714D01*
X75104785Y-107541142D01*
X75247642Y-107612571D01*
X75461928Y-107612571D01*
X74104785Y-107612571D02*
X74247642Y-107541142D01*
X74319071Y-107398285D01*
X74319071Y-106112571D01*
X79033357Y-109591142D02*
X77890500Y-109591142D01*
X74890500Y-109591142D02*
X73747642Y-109591142D01*
X74319071Y-110162571D02*
X74319071Y-109019714D01*
X65948500Y-100794357D02*
X66448500Y-100794357D01*
X66448500Y-101580071D02*
X66448500Y-100080071D01*
X65734214Y-100080071D01*
X64519928Y-101580071D02*
X64519928Y-100794357D01*
X64591357Y-100651500D01*
X64734214Y-100580071D01*
X65019928Y-100580071D01*
X65162785Y-100651500D01*
X64519928Y-101508642D02*
X64662785Y-101580071D01*
X65019928Y-101580071D01*
X65162785Y-101508642D01*
X65234214Y-101365785D01*
X65234214Y-101222928D01*
X65162785Y-101080071D01*
X65019928Y-101008642D01*
X64662785Y-101008642D01*
X64519928Y-100937214D01*
X63805642Y-100580071D02*
X63805642Y-101580071D01*
X63805642Y-100722928D02*
X63734214Y-100651500D01*
X63591357Y-100580071D01*
X63377071Y-100580071D01*
X63234214Y-100651500D01*
X63162785Y-100794357D01*
X63162785Y-101580071D01*
X62519928Y-101508642D02*
X62377071Y-101580071D01*
X62091357Y-101580071D01*
X61948500Y-101508642D01*
X61877071Y-101365785D01*
X61877071Y-101294357D01*
X61948500Y-101151500D01*
X62091357Y-101080071D01*
X62305642Y-101080071D01*
X62448500Y-101008642D01*
X62519928Y-100865785D01*
X62519928Y-100794357D01*
X62448500Y-100651500D01*
X62305642Y-100580071D01*
X62091357Y-100580071D01*
X61948500Y-100651500D01*
X42183714Y-22435357D02*
X41683714Y-22435357D01*
X41469428Y-23221071D02*
X42183714Y-23221071D01*
X42183714Y-21721071D01*
X41469428Y-21721071D01*
X40040857Y-23221071D02*
X40898000Y-23221071D01*
X40469428Y-23221071D02*
X40469428Y-21721071D01*
X40612285Y-21935357D01*
X40755142Y-22078214D01*
X40898000Y-22149642D01*
X22117857Y-48811785D02*
X22117857Y-49311785D01*
X22903571Y-49526071D02*
X22903571Y-48811785D01*
X21403571Y-48811785D01*
X21403571Y-49526071D01*
X21403571Y-50454642D02*
X21403571Y-50597500D01*
X21475000Y-50740357D01*
X21546428Y-50811785D01*
X21689285Y-50883214D01*
X21975000Y-50954642D01*
X22332142Y-50954642D01*
X22617857Y-50883214D01*
X22760714Y-50811785D01*
X22832142Y-50740357D01*
X22903571Y-50597500D01*
X22903571Y-50454642D01*
X22832142Y-50311785D01*
X22760714Y-50240357D01*
X22617857Y-50168928D01*
X22332142Y-50097500D01*
X21975000Y-50097500D01*
X21689285Y-50168928D01*
X21546428Y-50240357D01*
X21475000Y-50311785D01*
X21403571Y-50454642D01*
X115383571Y-96536285D02*
X116883571Y-97536285D01*
X115383571Y-97536285D02*
X116883571Y-96536285D01*
X116455000Y-99179142D02*
X116455000Y-99893428D01*
X116883571Y-99036285D02*
X115383571Y-99536285D01*
X116883571Y-100036285D01*
X116883571Y-100393428D02*
X115883571Y-101179142D01*
X115883571Y-100393428D02*
X116883571Y-101179142D01*
X116883571Y-101750571D02*
X115883571Y-101750571D01*
X115383571Y-101750571D02*
X115455000Y-101679142D01*
X115526428Y-101750571D01*
X115455000Y-101822000D01*
X115383571Y-101750571D01*
X115526428Y-101750571D01*
X116812142Y-102393428D02*
X116883571Y-102536285D01*
X116883571Y-102822000D01*
X116812142Y-102964857D01*
X116669285Y-103036285D01*
X116597857Y-103036285D01*
X116455000Y-102964857D01*
X116383571Y-102822000D01*
X116383571Y-102607714D01*
X116312142Y-102464857D01*
X116169285Y-102393428D01*
X116097857Y-102393428D01*
X115955000Y-102464857D01*
X115883571Y-102607714D01*
X115883571Y-102822000D01*
X115955000Y-102964857D01*
X116232785Y-72144285D02*
X116947071Y-72144285D01*
X115447071Y-71644285D02*
X116232785Y-72144285D01*
X115447071Y-72644285D01*
X116518500Y-74215714D02*
X116518500Y-74930000D01*
X116947071Y-74072857D02*
X115447071Y-74572857D01*
X116947071Y-75072857D01*
X116947071Y-75430000D02*
X115947071Y-76215714D01*
X115947071Y-75430000D02*
X116947071Y-76215714D01*
X116947071Y-76787142D02*
X115947071Y-76787142D01*
X115447071Y-76787142D02*
X115518500Y-76715714D01*
X115589928Y-76787142D01*
X115518500Y-76858571D01*
X115447071Y-76787142D01*
X115589928Y-76787142D01*
X116875642Y-77430000D02*
X116947071Y-77572857D01*
X116947071Y-77858571D01*
X116875642Y-78001428D01*
X116732785Y-78072857D01*
X116661357Y-78072857D01*
X116518500Y-78001428D01*
X116447071Y-77858571D01*
X116447071Y-77644285D01*
X116375642Y-77501428D01*
X116232785Y-77430000D01*
X116161357Y-77430000D01*
X116018500Y-77501428D01*
X115947071Y-77644285D01*
X115947071Y-77858571D01*
X116018500Y-78001428D01*
X115891571Y-35576285D02*
X115891571Y-36576285D01*
X117391571Y-35576285D01*
X117391571Y-36576285D01*
X116963000Y-38219142D02*
X116963000Y-38933428D01*
X117391571Y-38076285D02*
X115891571Y-38576285D01*
X117391571Y-39076285D01*
X117391571Y-39433428D02*
X116391571Y-40219142D01*
X116391571Y-39433428D02*
X117391571Y-40219142D01*
X117391571Y-40790571D02*
X116391571Y-40790571D01*
X115891571Y-40790571D02*
X115963000Y-40719142D01*
X116034428Y-40790571D01*
X115963000Y-40862000D01*
X115891571Y-40790571D01*
X116034428Y-40790571D01*
X117320142Y-41433428D02*
X117391571Y-41576285D01*
X117391571Y-41862000D01*
X117320142Y-42004857D01*
X117177285Y-42076285D01*
X117105857Y-42076285D01*
X116963000Y-42004857D01*
X116891571Y-41862000D01*
X116891571Y-41647714D01*
X116820142Y-41504857D01*
X116677285Y-41433428D01*
X116605857Y-41433428D01*
X116463000Y-41504857D01*
X116391571Y-41647714D01*
X116391571Y-41862000D01*
X116463000Y-42004857D01*
X78632357Y-36429071D02*
X78632357Y-34929071D01*
X78632357Y-35643357D02*
X77775214Y-35643357D01*
X77775214Y-36429071D02*
X77775214Y-34929071D01*
X76489500Y-36357642D02*
X76632357Y-36429071D01*
X76918071Y-36429071D01*
X77060928Y-36357642D01*
X77132357Y-36214785D01*
X77132357Y-35643357D01*
X77060928Y-35500500D01*
X76918071Y-35429071D01*
X76632357Y-35429071D01*
X76489500Y-35500500D01*
X76418071Y-35643357D01*
X76418071Y-35786214D01*
X77132357Y-35929071D01*
X75132357Y-36429071D02*
X75132357Y-35643357D01*
X75203785Y-35500500D01*
X75346642Y-35429071D01*
X75632357Y-35429071D01*
X75775214Y-35500500D01*
X75132357Y-36357642D02*
X75275214Y-36429071D01*
X75632357Y-36429071D01*
X75775214Y-36357642D01*
X75846642Y-36214785D01*
X75846642Y-36071928D01*
X75775214Y-35929071D01*
X75632357Y-35857642D01*
X75275214Y-35857642D01*
X75132357Y-35786214D01*
X74632357Y-35429071D02*
X74060928Y-35429071D01*
X74418071Y-34929071D02*
X74418071Y-36214785D01*
X74346642Y-36357642D01*
X74203785Y-36429071D01*
X74060928Y-36429071D01*
X72989500Y-36357642D02*
X73132357Y-36429071D01*
X73418071Y-36429071D01*
X73560928Y-36357642D01*
X73632357Y-36214785D01*
X73632357Y-35643357D01*
X73560928Y-35500500D01*
X73418071Y-35429071D01*
X73132357Y-35429071D01*
X72989500Y-35500500D01*
X72918071Y-35643357D01*
X72918071Y-35786214D01*
X73632357Y-35929071D01*
X72275214Y-36429071D02*
X72275214Y-35429071D01*
X72275214Y-35714785D02*
X72203785Y-35571928D01*
X72132357Y-35500500D01*
X71989500Y-35429071D01*
X71846642Y-35429071D01*
X71418071Y-36357642D02*
X71275214Y-36429071D01*
X70989500Y-36429071D01*
X70846642Y-36357642D01*
X70775214Y-36214785D01*
X70775214Y-36143357D01*
X70846642Y-36000500D01*
X70989500Y-35929071D01*
X71203785Y-35929071D01*
X71346642Y-35857642D01*
X71418071Y-35714785D01*
X71418071Y-35643357D01*
X71346642Y-35500500D01*
X71203785Y-35429071D01*
X70989500Y-35429071D01*
X70846642Y-35500500D01*
X54153357Y-26669071D02*
X54867642Y-26669071D01*
X54939071Y-27383357D01*
X54867642Y-27311928D01*
X54724785Y-27240500D01*
X54367642Y-27240500D01*
X54224785Y-27311928D01*
X54153357Y-27383357D01*
X54081928Y-27526214D01*
X54081928Y-27883357D01*
X54153357Y-28026214D01*
X54224785Y-28097642D01*
X54367642Y-28169071D01*
X54724785Y-28169071D01*
X54867642Y-28097642D01*
X54939071Y-28026214D01*
X53653357Y-26669071D02*
X53153357Y-28169071D01*
X52653357Y-26669071D01*
X51010500Y-28169071D02*
X51010500Y-26669071D01*
X50296214Y-27169071D02*
X50296214Y-28169071D01*
X50296214Y-27311928D02*
X50224785Y-27240500D01*
X50081928Y-27169071D01*
X49867642Y-27169071D01*
X49724785Y-27240500D01*
X49653357Y-27383357D01*
X49653357Y-28169071D01*
X54903357Y-30147642D02*
X53760500Y-30147642D01*
X50760500Y-30147642D02*
X49617642Y-30147642D01*
X50189071Y-30719071D02*
X50189071Y-29576214D01*
X63138714Y-26748357D02*
X62638714Y-26748357D01*
X62424428Y-27534071D02*
X63138714Y-27534071D01*
X63138714Y-26034071D01*
X62424428Y-26034071D01*
X60995857Y-27534071D02*
X61853000Y-27534071D01*
X61424428Y-27534071D02*
X61424428Y-26034071D01*
X61567285Y-26248357D01*
X61710142Y-26391214D01*
X61853000Y-26462642D01*
X64745857Y-29512642D02*
X63603000Y-29512642D01*
X64174428Y-30084071D02*
X64174428Y-28941214D01*
X60603000Y-29512642D02*
X59460142Y-29512642D01*
X75584714Y-26811857D02*
X75084714Y-26811857D01*
X74870428Y-27597571D02*
X75584714Y-27597571D01*
X75584714Y-26097571D01*
X74870428Y-26097571D01*
X73941857Y-26097571D02*
X73799000Y-26097571D01*
X73656142Y-26169000D01*
X73584714Y-26240428D01*
X73513285Y-26383285D01*
X73441857Y-26669000D01*
X73441857Y-27026142D01*
X73513285Y-27311857D01*
X73584714Y-27454714D01*
X73656142Y-27526142D01*
X73799000Y-27597571D01*
X73941857Y-27597571D01*
X74084714Y-27526142D01*
X74156142Y-27454714D01*
X74227571Y-27311857D01*
X74299000Y-27026142D01*
X74299000Y-26669000D01*
X74227571Y-26383285D01*
X74156142Y-26240428D01*
X74084714Y-26169000D01*
X73941857Y-26097571D01*
X77191857Y-29576142D02*
X76049000Y-29576142D01*
X76620428Y-30147571D02*
X76620428Y-29004714D01*
X73049000Y-29576142D02*
X71906142Y-29576142D01*
X88590285Y-26748357D02*
X88376000Y-26819785D01*
X88304571Y-26891214D01*
X88233142Y-27034071D01*
X88233142Y-27248357D01*
X88304571Y-27391214D01*
X88376000Y-27462642D01*
X88518857Y-27534071D01*
X89090285Y-27534071D01*
X89090285Y-26034071D01*
X88590285Y-26034071D01*
X88447428Y-26105500D01*
X88376000Y-26176928D01*
X88304571Y-26319785D01*
X88304571Y-26462642D01*
X88376000Y-26605500D01*
X88447428Y-26676928D01*
X88590285Y-26748357D01*
X89090285Y-26748357D01*
X87018857Y-27462642D02*
X87161714Y-27534071D01*
X87447428Y-27534071D01*
X87590285Y-27462642D01*
X87661714Y-27319785D01*
X87661714Y-26748357D01*
X87590285Y-26605500D01*
X87447428Y-26534071D01*
X87161714Y-26534071D01*
X87018857Y-26605500D01*
X86947428Y-26748357D01*
X86947428Y-26891214D01*
X87661714Y-27034071D01*
X85661714Y-27534071D02*
X85661714Y-26034071D01*
X85661714Y-27462642D02*
X85804571Y-27534071D01*
X86090285Y-27534071D01*
X86233142Y-27462642D01*
X86304571Y-27391214D01*
X86376000Y-27248357D01*
X86376000Y-26819785D01*
X86304571Y-26676928D01*
X86233142Y-26605500D01*
X86090285Y-26534071D01*
X85804571Y-26534071D01*
X85661714Y-26605500D01*
X90018857Y-29512642D02*
X88876000Y-29512642D01*
X89447428Y-30084071D02*
X89447428Y-28941214D01*
X85876000Y-29512642D02*
X84733142Y-29512642D01*
X108279628Y-28633971D02*
X108279628Y-27133971D01*
X107708200Y-27133971D01*
X107565342Y-27205400D01*
X107493914Y-27276828D01*
X107422485Y-27419685D01*
X107422485Y-27633971D01*
X107493914Y-27776828D01*
X107565342Y-27848257D01*
X107708200Y-27919685D01*
X108279628Y-27919685D01*
X106565342Y-28633971D02*
X106708200Y-28562542D01*
X106779628Y-28491114D01*
X106851057Y-28348257D01*
X106851057Y-27919685D01*
X106779628Y-27776828D01*
X106708200Y-27705400D01*
X106565342Y-27633971D01*
X106351057Y-27633971D01*
X106208200Y-27705400D01*
X106136771Y-27776828D01*
X106065342Y-27919685D01*
X106065342Y-28348257D01*
X106136771Y-28491114D01*
X106208200Y-28562542D01*
X106351057Y-28633971D01*
X106565342Y-28633971D01*
X105565342Y-27633971D02*
X105279628Y-28633971D01*
X104993914Y-27919685D01*
X104708200Y-28633971D01*
X104422485Y-27633971D01*
X103279628Y-28562542D02*
X103422485Y-28633971D01*
X103708200Y-28633971D01*
X103851057Y-28562542D01*
X103922485Y-28419685D01*
X103922485Y-27848257D01*
X103851057Y-27705400D01*
X103708200Y-27633971D01*
X103422485Y-27633971D01*
X103279628Y-27705400D01*
X103208200Y-27848257D01*
X103208200Y-27991114D01*
X103922485Y-28133971D01*
X102565342Y-28633971D02*
X102565342Y-27633971D01*
X102565342Y-27919685D02*
X102493914Y-27776828D01*
X102422485Y-27705400D01*
X102279628Y-27633971D01*
X102136771Y-27633971D01*
X100493914Y-28633971D02*
X100493914Y-27133971D01*
X99779628Y-27633971D02*
X99779628Y-28633971D01*
X99779628Y-27776828D02*
X99708200Y-27705400D01*
X99565342Y-27633971D01*
X99351057Y-27633971D01*
X99208200Y-27705400D01*
X99136771Y-27848257D01*
X99136771Y-28633971D01*
X106922485Y-30612542D02*
X105779628Y-30612542D01*
X101636771Y-30612542D02*
X100493914Y-30612542D01*
X101065342Y-31183971D02*
X101065342Y-30041114D01*
X107636771Y-33733971D02*
X108493914Y-33733971D01*
X108065342Y-33733971D02*
X108065342Y-32233971D01*
X108208200Y-32448257D01*
X108351057Y-32591114D01*
X108493914Y-32662542D01*
X107065342Y-32376828D02*
X106993914Y-32305400D01*
X106851057Y-32233971D01*
X106493914Y-32233971D01*
X106351057Y-32305400D01*
X106279628Y-32376828D01*
X106208200Y-32519685D01*
X106208200Y-32662542D01*
X106279628Y-32876828D01*
X107136771Y-33733971D01*
X106208200Y-33733971D01*
X105779628Y-32233971D02*
X105279628Y-33733971D01*
X104779628Y-32233971D01*
X104279628Y-33162542D02*
X103136771Y-33162542D01*
X102493914Y-32376828D02*
X102422485Y-32305400D01*
X102279628Y-32233971D01*
X101922485Y-32233971D01*
X101779628Y-32305400D01*
X101708200Y-32376828D01*
X101636771Y-32519685D01*
X101636771Y-32662542D01*
X101708200Y-32876828D01*
X102565342Y-33733971D01*
X101636771Y-33733971D01*
X100351057Y-32733971D02*
X100351057Y-33733971D01*
X100708200Y-32162542D02*
X101065342Y-33233971D01*
X100136771Y-33233971D01*
X99779628Y-32233971D02*
X99279628Y-33733971D01*
X98779628Y-32233971D01*
D10*
X20383500Y-115436514D02*
X20383500Y-60436487D01*
X35623500Y-115436500D02*
X20383500Y-115436500D01*
X35673500Y-116436500D02*
X35673500Y-115436500D01*
X20423500Y-116436500D02*
X35673500Y-116436500D01*
X20383500Y-140936537D02*
X20383500Y-116436468D01*
X89673511Y-140896500D02*
X20383500Y-140896500D01*
X89673500Y-116436500D02*
X89673500Y-140936500D01*
X74923500Y-116436500D02*
X89673500Y-116436500D01*
X74923500Y-115436500D02*
X74923500Y-116436500D01*
X89673500Y-115436500D02*
X74923500Y-115436500D01*
X89673500Y-60436500D02*
X89673500Y-115436500D01*
X68173463Y-60396500D02*
X89673526Y-60396500D01*
X66153500Y-58416500D02*
X68173500Y-60436500D01*
X33173476Y-58396500D02*
X66173522Y-58396500D01*
X31173500Y-60436500D02*
X33173500Y-58436500D01*
X20383500Y-60396500D02*
X31173574Y-60396500D01*
X65302983Y-60896500D02*
G75*
G03X65302983Y-60896500I-1739483J0D01*
G01*
X52355595Y-55522880D02*
X52355595Y-56332404D01*
X52307976Y-56427642D01*
X52260357Y-56475261D01*
X52165119Y-56522880D01*
X51974642Y-56522880D01*
X51879404Y-56475261D01*
X51831785Y-56427642D01*
X51784166Y-56332404D01*
X51784166Y-55522880D01*
X50784166Y-56522880D02*
X51355595Y-56522880D01*
X51069880Y-56522880D02*
X51069880Y-55522880D01*
X51165119Y-55665738D01*
X51260357Y-55760976D01*
X51355595Y-55808595D01*
X49831785Y-56522880D02*
X50403214Y-56522880D01*
X50117500Y-56522880D02*
X50117500Y-55522880D01*
X50212738Y-55665738D01*
X50307976Y-55760976D01*
X50403214Y-55808595D01*
M02*
