M48
;DRILL file {KiCad 6.0.0-rc1-unknown-3eb3db0~66~ubuntu18.04.1} date Sun Aug 12 11:24:56 2018
;FORMAT={-:-/ absolute / metric / decimal}
FMAT,2
METRIC,TZ
T1C0.305
T2C0.381
T3C0.508
T4C0.762
T5C1.000
T6C1.016
T7C1.200
T8C1.300
%
G90
G05
M71
T1
X6.861Y59.771
X8.161Y76.346
X8.611Y46.646
X8.611Y17.046
X8.886Y59.996
X8.886Y55.621
X9.261Y67.447
X9.261Y64.746
X9.461Y68.546
X9.611Y59.447
X9.611Y41.947
X9.911Y71.147
X9.961Y70.447
X9.961Y69.697
X9.961Y68.996
X10.044Y67.689
X10.411Y71.596
X10.731Y77.153
X11.557Y78.232
X11.611Y86.546
X11.936Y88.671
X12.011Y58.971
X12.124Y70.
X12.124Y68.
X12.511Y73.796
X12.511Y63.996
X12.636Y57.912
X12.886Y78.572
X13.716Y57.023
X14.541Y86.233
X15.161Y88.746
X15.361Y43.246
X15.361Y34.746
X15.361Y26.146
X15.43Y85.09
X15.761Y12.246
X16.011Y20.246
X16.011Y15.096
X16.486Y88.646
X16.861Y17.846
X16.861Y15.746
X17.511Y63.896
X18.036Y90.246
X18.605Y80.264
X18.86Y49.466
X18.86Y26.352
X18.911Y69.246
X19.558Y51.498
X19.558Y25.463
X19.561Y71.697
X19.685Y79.438
X19.939Y78.041
X20.002Y60.96
X20.261Y69.246
X20.32Y49.593
X20.44Y25.844
X20.524Y68.
X20.524Y67.
X20.711Y55.346
X20.764Y76.898
X20.764Y62.103
X21.018Y52.832
X21.018Y16.51
X21.261Y82.796
X21.661Y87.746
X21.761Y63.947
X22.011Y90.871
X22.586Y74.437
X22.911Y55.697
X22.911Y45.796
X23.311Y70.096
X23.561Y42.246
X23.561Y40.246
X23.661Y44.246
X23.922Y28.41
X24.161Y12.246
X24.311Y15.246
X24.407Y79.655
X24.661Y90.846
X24.963Y90.042
X25.019Y73.218
X25.407Y88.055
X25.428Y79.623
X25.473Y27.038
X25.511Y40.947
X25.811Y90.496
X26.011Y69.947
X26.011Y42.896
X26.311Y41.596
X26.411Y90.146
X26.661Y81.246
X26.661Y79.897
X26.861Y76.697
X27.111Y90.197
X27.241Y53.609
X27.407Y88.055
X27.561Y63.396
X27.9Y90.047
X28.461Y76.746
X28.461Y40.947
X28.466Y24.955
X28.561Y73.496
X28.595Y90.134
X28.661Y45.846
X28.702Y72.637
X29.111Y89.046
X29.111Y80.546
X29.561Y51.846
X29.591Y36.005
X30.053Y66.397
X30.161Y31.197
X30.411Y87.746
X30.469Y74.804
X30.561Y70.697
X30.711Y39.885
X30.744Y28.689
X31.061Y50.246
X31.111Y66.996
X31.111Y51.096
X31.261Y43.546
X31.261Y41.646
X31.711Y34.646
X31.811Y31.746
X32.461Y12.246
X32.661Y42.746
X32.761Y50.246
X32.811Y70.096
X32.811Y52.846
X32.956Y39.37
X33.711Y91.796
X33.761Y71.397
X33.761Y42.246
X33.761Y33.346
X33.861Y39.947
X34.211Y32.596
X34.227Y79.502
X34.361Y33.996
X34.461Y16.246
X34.545Y71.231
X34.671Y89.599
X35.242Y80.264
X35.276Y71.483
X35.369Y51.096
X35.369Y47.296
X35.461Y32.096
X35.486Y65.741
X35.511Y38.862
X35.687Y88.773
X35.711Y54.596
X35.961Y16.346
X36.004Y28.473
X36.061Y37.496
X36.061Y34.505
X36.104Y71.374
X36.311Y87.496
X36.547Y50.055
X36.661Y74.496
X36.893Y72.581
X36.927Y73.741
X37.311Y37.746
X37.325Y73.08
X37.561Y74.796
X37.561Y49.546
X38.082Y75.202
X38.111Y46.697
X38.461Y45.346
X38.461Y43.496
X38.761Y42.447
X39.411Y45.947
X39.411Y43.355
X39.411Y33.346
X39.411Y31.346
X39.511Y36.947
X40.576Y28.575
X40.761Y12.196
X41.561Y76.996
X41.561Y39.947
X42.203Y35.447
X42.311Y76.947
X42.711Y33.047
X43.111Y76.947
X43.311Y14.746
X43.561Y48.046
X43.661Y45.746
X43.661Y45.046
X43.811Y55.697
X44.261Y49.697
X44.261Y46.646
X44.511Y44.046
X44.511Y34.297
X44.895Y20.955
X44.911Y33.047
X45.711Y41.646
X45.711Y11.046
X46.355Y22.162
X46.355Y10.414
X46.661Y72.697
X46.661Y64.147
X47.625Y97.472
X48.768Y97.472
X50.461Y14.746
X51.661Y55.197
X51.661Y46.796
X53.261Y32.697
X53.261Y27.546
X54.261Y19.096
X54.285Y35.281
X54.461Y22.346
X54.511Y76.996
X54.944Y35.312
X55.811Y65.746
X57.411Y73.846
X58.311Y30.796
X58.361Y66.346
X58.711Y29.096
X58.711Y22.496
X58.711Y15.896
X59.372Y97.727
X59.461Y55.296
X59.561Y46.896
X60.515Y97.727
X60.561Y17.146
X60.711Y74.397
X60.911Y66.397
X62.061Y38.947
X62.311Y32.697
X64.611Y62.947
X66.361Y77.246
X67.661Y35.197
X67.911Y67.796
X68.361Y66.647
X68.361Y35.746
X68.911Y69.197
X68.911Y67.496
X68.961Y46.096
X68.961Y37.91
X69.011Y66.296
X69.011Y47.646
X69.411Y19.046
X69.511Y42.846
X69.561Y49.396
X69.561Y45.396
X69.811Y71.846
X69.949Y20.122
X70.011Y11.447
X70.08Y60.046
X70.361Y65.746
X70.435Y61.141
X70.548Y38.1
X70.869Y65.147
X70.869Y61.79
X70.911Y39.205
X70.911Y12.946
X71.09Y25.796
X71.361Y14.046
X71.377Y64.096
X71.625Y39.884
X71.811Y14.896
X71.861Y43.419
X72.319Y18.039
X72.345Y66.112
X72.675Y20.146
X73.061Y45.546
X73.183Y21.117
X73.593Y67.123
X74.361Y68.346
X74.486Y97.409
X74.611Y65.447
X74.661Y15.796
X75.629Y97.409
X77.153Y24.257
X77.153Y9.398
X77.279Y73.85
X77.279Y59.118
X77.279Y49.721
X77.279Y34.798
X77.364Y68.49
X77.409Y19.039
X77.409Y18.039
X77.548Y44.419
X77.548Y43.419
X77.561Y67.792
X77.861Y16.746
X77.978Y8.191
X78.011Y66.496
X78.011Y42.197
X78.041Y25.336
X78.168Y74.93
X78.168Y57.975
X78.168Y50.863
X78.168Y33.591
X78.361Y14.396
X78.511Y64.147
X78.511Y39.746
X79.011Y42.197
X79.011Y16.746
X79.161Y66.496
X80.461Y22.197
X80.611Y71.996
X80.611Y47.596
X82.161Y81.471
X82.931Y28.396
X83.185Y78.105
X83.629Y54.927
X84.074Y29.273
X84.264Y54.927
X84.328Y78.994
X84.899Y54.927
X85.09Y32.194
X85.407Y7.175
X85.461Y12.446
X85.561Y71.947
X85.611Y62.197
X85.611Y37.797
X85.611Y22.171
X85.674Y67.441
X85.711Y47.421
X85.809Y18.039
X85.809Y16.039
X85.948Y43.419
X85.948Y41.419
X85.961Y65.792
X86.042Y52.705
X86.061Y27.559
X86.233Y57.023
X86.296Y32.956
X86.361Y76.962
X86.561Y8.064
X87.185Y34.099
X87.411Y14.396
X87.439Y9.207
X87.511Y64.147
X87.661Y58.796
X87.711Y39.796
X87.822Y14.956
X87.882Y15.712
X87.899Y16.373
X87.922Y18.197
X87.961Y75.447
X87.961Y17.046
X88.011Y41.046
X88.061Y64.697
X88.111Y65.397
X88.111Y40.346
X88.156Y68.051
X88.161Y66.096
X88.161Y24.896
X88.268Y17.635
X88.311Y66.746
X88.311Y43.49
X88.311Y42.346
X88.311Y41.646
X88.32Y67.411
X88.561Y21.146
X88.661Y18.346
X88.711Y71.046
X88.711Y42.896
X88.811Y46.396
X88.961Y67.846
X89.011Y43.646
X89.386Y55.822
X89.536Y10.921
X89.686Y50.322
X89.986Y57.871
X90.111Y36.271
X96.136Y73.546
X96.186Y76.296
T2
X13.361Y70.796
X13.361Y69.947
X13.361Y69.096
X13.361Y68.296
X13.361Y67.496
X13.361Y66.697
X14.161Y70.796
X14.161Y69.947
X14.161Y69.096
X14.161Y68.296
X14.161Y67.496
X14.161Y66.697
X14.961Y70.796
X14.961Y69.947
X14.961Y69.096
X14.961Y68.296
X14.961Y67.496
X14.961Y66.697
X15.611Y75.996
X15.611Y75.346
X15.611Y74.697
X15.611Y74.046
X15.661Y63.447
X15.661Y62.796
X15.661Y62.146
X15.661Y61.496
X15.761Y70.796
X15.761Y69.947
X15.761Y69.096
X15.761Y68.296
X15.761Y67.496
X15.761Y66.697
X16.561Y70.796
X16.561Y69.947
X16.561Y69.096
X16.561Y68.296
X16.561Y67.496
X16.561Y66.697
X17.081Y52.642
X17.361Y70.796
X17.361Y69.947
X17.361Y69.096
X17.361Y68.296
X17.361Y67.496
X17.361Y66.697
X18.761Y84.546
X19.411Y84.546
X20.061Y84.546
X20.711Y84.546
X24.161Y86.896
X24.161Y86.046
X24.161Y85.197
X24.161Y84.397
X24.161Y83.596
X24.161Y82.796
X24.961Y86.896
X24.961Y86.046
X24.961Y85.197
X24.961Y84.397
X24.961Y83.596
X24.961Y82.796
X25.761Y86.896
X25.761Y86.046
X25.761Y85.197
X25.761Y84.397
X25.761Y83.596
X25.761Y82.796
X26.561Y86.896
X26.561Y86.046
X26.561Y85.197
X26.561Y84.397
X26.561Y83.596
X26.561Y82.796
X27.361Y86.896
X27.361Y86.046
X27.361Y85.197
X27.361Y84.397
X27.361Y83.596
X27.361Y82.796
X28.161Y86.896
X28.161Y86.046
X28.161Y85.197
X28.161Y84.397
X28.161Y83.596
X28.161Y82.796
X31.461Y84.546
X32.111Y84.546
X32.761Y84.546
X33.411Y84.546
X38.354Y82.042
X38.354Y81.407
X38.661Y88.697
X38.661Y87.846
X38.661Y86.996
X38.661Y86.147
X38.661Y85.296
X39.511Y88.697
X39.511Y87.846
X39.511Y86.996
X39.511Y86.147
X39.511Y85.296
X39.688Y81.407
X39.711Y82.042
X40.361Y88.697
X40.361Y87.846
X40.361Y86.996
X40.361Y86.147
X40.361Y85.296
X40.957Y81.407
X40.961Y82.042
X41.211Y88.697
X41.211Y87.846
X41.211Y86.996
X41.211Y86.147
X41.211Y85.296
X42.061Y88.697
X42.061Y87.846
X42.061Y86.996
X42.061Y86.147
X42.061Y85.296
X50.661Y81.978
X50.661Y81.343
X50.861Y88.447
X50.861Y87.596
X50.861Y86.746
X50.861Y85.897
X50.861Y85.046
X51.711Y88.447
X51.711Y87.596
X51.711Y86.746
X51.711Y85.897
X51.711Y85.046
X51.943Y81.978
X51.943Y81.343
X52.561Y88.447
X52.561Y87.596
X52.561Y86.746
X52.561Y85.897
X52.561Y85.046
X53.213Y81.978
X53.213Y81.343
X53.411Y88.447
X53.411Y87.596
X53.411Y86.746
X53.411Y85.897
X53.411Y85.046
X54.261Y88.447
X54.261Y87.596
X54.261Y86.746
X54.261Y85.897
X54.261Y85.046
X62.611Y80.454
X62.611Y79.819
X62.661Y86.647
X62.661Y85.746
X62.661Y84.846
X62.661Y83.947
X62.661Y83.046
X63.561Y86.647
X63.561Y85.746
X63.561Y84.846
X63.561Y83.947
X63.561Y83.046
X63.881Y80.454
X63.881Y79.819
X64.461Y86.647
X64.461Y85.746
X64.461Y84.846
X64.461Y83.947
X64.461Y83.046
X65.151Y80.454
X65.151Y79.819
X65.361Y86.647
X65.361Y85.746
X65.361Y84.846
X65.361Y83.947
X65.361Y83.046
X66.261Y86.647
X66.261Y85.746
X66.261Y84.846
X66.261Y83.947
X66.261Y83.046
X74.161Y46.746
X80.611Y19.396
X80.611Y18.546
X80.611Y17.697
X80.611Y16.896
X80.611Y16.096
X80.611Y15.296
X80.711Y69.147
X80.711Y68.296
X80.711Y67.447
X80.711Y66.647
X80.711Y65.846
X80.711Y65.046
X80.711Y44.746
X80.711Y43.896
X80.711Y43.046
X80.711Y42.246
X80.711Y41.447
X80.711Y40.646
X81.411Y19.396
X81.411Y18.546
X81.411Y17.697
X81.411Y16.896
X81.411Y16.096
X81.411Y15.296
X81.511Y69.147
X81.511Y68.296
X81.511Y67.447
X81.511Y66.647
X81.511Y65.846
X81.511Y65.046
X81.511Y44.746
X81.511Y43.896
X81.511Y43.046
X81.511Y42.246
X81.511Y41.447
X81.511Y40.646
X82.211Y19.396
X82.211Y18.546
X82.211Y17.697
X82.211Y16.896
X82.211Y16.096
X82.211Y15.296
X82.311Y69.147
X82.311Y68.296
X82.311Y67.447
X82.311Y66.647
X82.311Y65.846
X82.311Y65.046
X82.311Y44.746
X82.311Y43.896
X82.311Y43.046
X82.311Y42.246
X82.311Y41.447
X82.311Y40.646
X82.311Y24.596
X82.311Y23.947
X82.311Y23.296
X82.311Y22.646
X82.311Y11.947
X82.311Y11.296
X82.311Y10.646
X82.311Y9.996
X82.411Y74.346
X82.411Y73.697
X82.411Y73.046
X82.411Y72.397
X82.461Y61.746
X82.461Y61.096
X82.461Y60.447
X82.461Y59.796
X82.461Y49.947
X82.461Y49.296
X82.461Y48.646
X82.461Y47.996
X82.461Y37.297
X82.461Y36.646
X82.461Y35.996
X82.461Y35.346
X83.011Y19.396
X83.011Y18.546
X83.011Y17.697
X83.011Y16.896
X83.011Y16.096
X83.011Y15.296
X83.111Y69.147
X83.111Y68.296
X83.111Y67.447
X83.111Y66.647
X83.111Y65.846
X83.111Y65.046
X83.111Y44.746
X83.111Y43.896
X83.111Y43.046
X83.111Y42.246
X83.111Y41.447
X83.111Y40.646
X83.811Y19.396
X83.811Y18.546
X83.811Y17.697
X83.811Y16.896
X83.811Y16.096
X83.811Y15.296
X83.911Y69.147
X83.911Y68.296
X83.911Y67.447
X83.911Y66.647
X83.911Y65.846
X83.911Y65.046
X83.911Y44.746
X83.911Y43.896
X83.911Y43.046
X83.911Y42.246
X83.911Y41.447
X83.911Y40.646
X84.611Y19.396
X84.611Y18.546
X84.611Y17.697
X84.611Y16.896
X84.611Y16.096
X84.611Y15.296
X84.711Y69.147
X84.711Y68.296
X84.711Y67.447
X84.711Y66.647
X84.711Y65.846
X84.711Y65.046
X84.711Y44.746
X84.711Y43.896
X84.711Y43.046
X84.711Y42.246
X84.711Y41.447
X84.711Y40.646
T3
X1.186Y87.846
X1.211Y85.322
X21.361Y78.471
X23.086Y58.621
X24.311Y58.621
X24.386Y74.096
X29.362Y78.533
X40.836Y67.471
X43.511Y67.471
X69.011Y6.946
X69.361Y58.496
X69.411Y56.146
X69.611Y77.197
X69.611Y74.772
X73.486Y52.546
X74.511Y41.146
X74.736Y37.271
X74.761Y12.246
X76.161Y63.546
T4
X3.021Y54.616
X3.021Y52.076
X3.021Y49.536
X3.021Y46.996
X3.021Y44.456
X3.021Y41.916
X3.021Y39.377
X3.021Y36.837
X3.021Y34.297
X3.021Y31.756
X3.021Y29.216
X3.021Y26.676
X3.021Y24.136
X3.021Y21.596
X3.021Y19.056
X3.021Y16.517
X3.021Y13.976
X3.021Y11.436
X3.021Y8.896
X5.561Y54.616
X5.561Y52.076
X5.561Y49.536
X5.561Y46.996
X5.561Y44.456
X5.561Y41.916
X5.561Y39.377
X5.561Y36.837
X5.561Y34.297
X5.561Y31.756
X5.561Y29.216
X5.561Y26.676
X5.561Y24.136
X5.561Y21.596
X5.561Y19.056
X5.561Y16.517
X5.561Y13.976
X5.561Y11.436
X5.561Y8.896
X63.981Y54.616
X63.981Y52.076
X63.981Y49.536
X63.981Y46.996
X63.981Y44.456
X63.981Y41.916
X63.981Y39.377
X63.981Y36.837
X63.981Y34.297
X63.981Y31.756
X63.981Y29.216
X63.981Y26.676
X63.981Y24.136
X63.981Y21.596
X63.981Y19.056
X63.981Y16.517
X63.981Y13.976
X63.981Y11.436
X63.981Y8.896
X66.521Y54.616
X66.521Y52.076
X66.521Y49.536
X66.521Y46.996
X66.521Y44.456
X66.521Y41.916
X66.521Y39.377
X66.521Y36.837
X66.521Y34.297
X66.521Y31.756
X66.521Y29.216
X66.521Y26.676
X66.521Y24.136
X66.521Y21.596
X66.521Y19.056
X66.521Y16.517
X66.521Y13.976
X66.521Y11.436
X66.521Y8.896
T5
X4.906Y71.865
X4.906Y69.325
X4.906Y66.785
X4.906Y64.245
X49.162Y44.388
X51.702Y44.388
X71.755Y4.445
X74.295Y4.445
X76.835Y4.445
X50.47Y61.582
X53.01Y61.582
X55.55Y61.582
X56.757Y21.535
X56.757Y18.995
X53.264Y67.831
X55.804Y67.831
X58.344Y67.831
X60.884Y67.831
X63.424Y67.831
X65.964Y67.831
X12.739Y32.102
X15.279Y32.102
X56.934Y52.77
X59.474Y52.77
X49.162Y52.77
X51.702Y52.77
X12.777Y40.624
X15.317Y40.624
X96.761Y68.076
X96.761Y65.537
X96.761Y62.996
X96.761Y60.456
X96.71Y87.694
X96.71Y85.153
X91.561Y70.526
X91.561Y67.986
X91.561Y65.447
X91.561Y62.906
X92.939Y47.13
X92.939Y44.59
X92.939Y42.05
X92.939Y39.51
X49.175Y35.968
X51.715Y35.968
X92.939Y22.085
X92.939Y19.545
X92.939Y17.005
X92.939Y14.465
X53.213Y71.971
X55.753Y71.971
X58.293Y71.971
X60.833Y71.971
X63.373Y71.971
X65.913Y71.971
X22.661Y36.716
X22.661Y34.176
X22.661Y31.636
X22.661Y29.096
X43.821Y58.496
X46.361Y58.496
X21.138Y95.215
X23.678Y95.215
X26.218Y95.215
X28.758Y95.215
X12.853Y23.517
X15.393Y23.517
X56.896Y44.363
X59.436Y44.363
X56.757Y14.956
X56.757Y12.416
X80.621Y2.746
X83.161Y2.746
X87.021Y2.746
X89.561Y2.746
X60.173Y61.633
X62.713Y61.633
X65.253Y61.633
X96.71Y81.343
X96.71Y78.803
X69.061Y27.436
X69.061Y24.896
X56.783Y28.075
X56.783Y25.535
T6
X30.416Y25.781
X30.416Y23.241
X32.956Y25.781
X32.956Y23.241
X35.496Y25.781
X35.496Y23.241
X38.036Y25.781
X38.036Y23.241
X40.576Y25.781
X40.576Y23.241
X43.116Y25.781
X43.116Y23.241
T7
X54.622Y5.157
X58.122Y5.157
X12.966Y5.169
X16.466Y5.169
X9.661Y93.916
X13.161Y93.916
X21.334Y5.166
X24.834Y5.166
X46.296Y5.157
X49.796Y5.157
X29.666Y5.169
X33.166Y5.169
X40.594Y93.891
X44.094Y93.891
X52.799Y93.739
X56.299Y93.739
X37.885Y5.157
X41.385Y5.157
T8
X80.416Y93.739
X85.496Y93.739
X64.63Y93.916
X69.71Y93.916
T0
M30
