  0
SECTION
  2
HEADER
  9
$ANGBASE
  50
0.0
  9
$ANGDIR
  70
  1
  9
$MEASUREMENT
  70
0
  0
ENDSEC
  0
SECTION
  2
TABLES
  0
TABLE
  2
LTYPE
  70
4
  0
LTYPE
  5
40F
  2
CONTINUOUS
  70
0
  3
Solid line
  72
65
  73
0
  40
0.0
  0
LTYPE
  5
410
  2
DASHDOT
 70
0
  3
Dash Dot ____ _ ____ _
 72
65
 73
4
 40
2.0
 49
1.25
 49
-0.25
 49
0.25
 49
-0.25
  0
LTYPE
  5
411
  2
DASHED
 70
0
  3
Dashed __ __ __ __ __
 72
65
 73
2
 40
0.75
 49
0.5
 49
-0.25
  0
LTYPE
  5
43B
  2
DOTTED
 70
0
  3
Dotted .  .  .  .
 72
65
 73
2
 40
0.2
 49
0.0
 49
-0.2
  0
ENDTAB
  0
TABLE
  2
STYLE
  70
4
  0
STYLE
  2
KICAD
  70
0
  40
0
  41
1
  42
1
  50
0
  71
0
  3
isocp.shx
  0
STYLE
  2
KICADB
  70
0
  40
0
  41
1
  42
1
  50
0
  71
0
  3
isocp.shx
  0
STYLE
  2
KICADI
  70
0
  40
0
  41
1
  42
1
  50
15
  71
0
  3
isocp.shx
  0
STYLE
  2
KICADBI
  70
0
  40
0
  41
1
  42
1
  50
15
  71
0
  3
isocp.shx
  0
ENDTAB
  0
TABLE
  2
LAYER
  70
30
  0
LAYER
  2
BLACK
  70
0
  62
7
  6
CONTINUOUS
  0
LAYER
  2
GRAY1
  70
0
  62
251
  6
CONTINUOUS
  0
LAYER
  2
GRAY2
  70
0
  62
8
  6
CONTINUOUS
  0
LAYER
  2
GRAY3
  70
0
  62
9
  6
CONTINUOUS
  0
LAYER
  2
WHITE
  70
0
  62
7
  6
CONTINUOUS
  0
LAYER
  2
LYELLOW
  70
0
  62
51
  6
CONTINUOUS
  0
LAYER
  2
BLUE1
  70
0
  62
178
  6
CONTINUOUS
  0
LAYER
  2
GREEN1
  70
0
  62
98
  6
CONTINUOUS
  0
LAYER
  2
CYAN1
  70
0
  62
138
  6
CONTINUOUS
  0
LAYER
  2
RED1
  70
0
  62
18
  6
CONTINUOUS
  0
LAYER
  2
MAGENTA1
  70
0
  62
228
  6
CONTINUOUS
  0
LAYER
  2
BROWN1
  70
0
  62
58
  6
CONTINUOUS
  0
LAYER
  2
BLUE2
  70
0
  62
5
  6
CONTINUOUS
  0
LAYER
  2
GREEN2
  70
0
  62
3
  6
CONTINUOUS
  0
LAYER
  2
CYAN2
  70
0
  62
4
  6
CONTINUOUS
  0
LAYER
  2
RED2
  70
0
  62
1
  6
CONTINUOUS
  0
LAYER
  2
MAGENTA2
  70
0
  62
6
  6
CONTINUOUS
  0
LAYER
  2
BROWN2
  70
0
  62
54
  6
CONTINUOUS
  0
LAYER
  2
BLUE3
  70
0
  62
171
  6
CONTINUOUS
  0
LAYER
  2
GREEN3
  70
0
  62
91
  6
CONTINUOUS
  0
LAYER
  2
CYAN3
  70
0
  62
131
  6
CONTINUOUS
  0
LAYER
  2
RED3
  70
0
  62
11
  6
CONTINUOUS
  0
LAYER
  2
MAGENTA3
  70
0
  62
221
  6
CONTINUOUS
  0
LAYER
  2
YELLOW3
  70
0
  62
2
  6
CONTINUOUS
  0
LAYER
  2
BLUE4
  70
0
  62
5
  6
CONTINUOUS
  0
LAYER
  2
GREEN4
  70
0
  62
3
  6
CONTINUOUS
  0
LAYER
  2
CYAN4
  70
0
  62
4
  6
CONTINUOUS
  0
LAYER
  2
RED4
  70
0
  62
1
  6
CONTINUOUS
  0
LAYER
  2
MAGENTA4
  70
0
  62
6
  6
CONTINUOUS
  0
LAYER
  2
YELLOW4
  70
0
  62
2
  6
CONTINUOUS
  0
ENDTAB
  0
ENDSEC
  0
SECTION
  2
ENTITIES
0
LINE
8
BLACK
6
CONTINUOUS
10
87.7608
20
-114.089
11
86.9408
21
-114.089
0
LINE
8
BLACK
6
CONTINUOUS
10
86.9408
20
-114.089
11
86.9408
21
-113.089
0
LINE
8
BLACK
6
CONTINUOUS
10
86.9408
20
-113.089
11
87.7608
21
-113.089
0
LINE
8
BLACK
6
CONTINUOUS
10
87.7608
20
-113.089
11
87.7608
21
-114.089
0
LINE
8
BLACK
6
CONTINUOUS
10
89.3608
20
-114.089
11
88.5408
21
-114.089
0
LINE
8
BLACK
6
CONTINUOUS
10
88.5408
20
-114.089
11
88.5408
21
-113.089
0
LINE
8
BLACK
6
CONTINUOUS
10
88.5408
20
-113.089
11
89.3608
21
-113.089
0
LINE
8
BLACK
6
CONTINUOUS
10
89.3608
20
-113.089
11
89.3608
21
-114.089
0
LINE
8
BLACK
6
CONTINUOUS
10
89.3606
20
-112.285
11
88.5406
21
-112.285
0
LINE
8
BLACK
6
CONTINUOUS
10
88.5406
20
-112.285
11
88.5406
21
-111.285
0
LINE
8
BLACK
6
CONTINUOUS
10
88.5406
20
-111.285
11
89.3606
21
-111.285
0
LINE
8
BLACK
6
CONTINUOUS
10
89.3606
20
-111.285
11
89.3606
21
-112.285
0
LINE
8
BLACK
6
CONTINUOUS
10
87.7606
20
-112.285
11
86.9406
21
-112.285
0
LINE
8
BLACK
6
CONTINUOUS
10
86.9406
20
-112.285
11
86.9406
21
-111.285
0
LINE
8
BLACK
6
CONTINUOUS
10
86.9406
20
-111.285
11
87.7606
21
-111.285
0
LINE
8
BLACK
6
CONTINUOUS
10
87.7606
20
-111.285
11
87.7606
21
-112.285
0
LINE
8
BLACK
6
CONTINUOUS
10
104.23
20
-111.171
11
103.655
21
-111.171
0
LINE
8
BLACK
6
CONTINUOUS
10
103.655
20
-111.171
11
103.655
21
-110.521
0
LINE
8
BLACK
6
CONTINUOUS
10
103.655
20
-110.521
11
104.23
21
-110.521
0
LINE
8
BLACK
6
CONTINUOUS
10
104.23
20
-110.521
11
104.23
21
-111.171
0
LINE
8
BLACK
6
CONTINUOUS
10
105.005
20
-111.171
11
104.43
21
-111.171
0
LINE
8
BLACK
6
CONTINUOUS
10
104.43
20
-111.171
11
104.43
21
-110.521
0
LINE
8
BLACK
6
CONTINUOUS
10
104.43
20
-110.521
11
105.005
21
-110.521
0
LINE
8
BLACK
6
CONTINUOUS
10
105.005
20
-110.521
11
105.005
21
-111.171
0
LINE
8
BLACK
6
CONTINUOUS
10
107.153
20
-109.764
11
105.933
21
-109.764
0
LINE
8
BLACK
6
CONTINUOUS
10
105.933
20
-109.764
11
105.933
21
-107.964
0
LINE
8
BLACK
6
CONTINUOUS
10
105.933
20
-107.964
11
107.153
21
-107.964
0
LINE
8
BLACK
6
CONTINUOUS
10
107.153
20
-107.964
11
107.153
21
-109.764
0
LINE
8
BLACK
6
CONTINUOUS
10
104.293
20
-109.764
11
103.073
21
-109.764
0
LINE
8
BLACK
6
CONTINUOUS
10
103.073
20
-109.764
11
103.073
21
-107.964
0
LINE
8
BLACK
6
CONTINUOUS
10
103.073
20
-107.964
11
104.293
21
-107.964
0
LINE
8
BLACK
6
CONTINUOUS
10
104.293
20
-107.964
11
104.293
21
-109.764
0
LINE
8
BLACK
6
CONTINUOUS
10
101.397
20
-109.612
11
100.177
21
-109.612
0
LINE
8
BLACK
6
CONTINUOUS
10
100.177
20
-109.612
11
100.177
21
-107.812
0
LINE
8
BLACK
6
CONTINUOUS
10
100.177
20
-107.812
11
101.397
21
-107.812
0
LINE
8
BLACK
6
CONTINUOUS
10
101.397
20
-107.812
11
101.397
21
-109.612
0
LINE
8
BLACK
6
CONTINUOUS
10
98.5372
20
-109.612
11
97.3172
21
-109.612
0
LINE
8
BLACK
6
CONTINUOUS
10
97.3172
20
-109.612
11
97.3172
21
-107.812
0
LINE
8
BLACK
6
CONTINUOUS
10
97.3172
20
-107.812
11
98.5372
21
-107.812
0
LINE
8
BLACK
6
CONTINUOUS
10
98.5372
20
-107.812
11
98.5372
21
-109.612
0
LINE
8
BLACK
6
CONTINUOUS
10
78.505
20
-108.971
11
77.705
21
-108.971
0
LINE
8
BLACK
6
CONTINUOUS
10
77.705
20
-108.971
11
77.705
21
-108.072
0
LINE
8
BLACK
6
CONTINUOUS
10
77.705
20
-108.072
11
78.505
21
-108.072
0
LINE
8
BLACK
6
CONTINUOUS
10
78.505
20
-108.072
11
78.505
21
-108.971
0
LINE
8
BLACK
6
CONTINUOUS
10
53.486
20
-108.971
11
52.686
21
-108.971
0
LINE
8
BLACK
6
CONTINUOUS
10
52.686
20
-108.971
11
52.686
21
-108.072
0
LINE
8
BLACK
6
CONTINUOUS
10
52.686
20
-108.072
11
53.486
21
-108.072
0
LINE
8
BLACK
6
CONTINUOUS
10
53.486
20
-108.072
11
53.486
21
-108.971
0
LINE
8
BLACK
6
CONTINUOUS
10
70.123
20
-108.971
11
69.323
21
-108.971
0
LINE
8
BLACK
6
CONTINUOUS
10
69.323
20
-108.971
11
69.323
21
-108.072
0
LINE
8
BLACK
6
CONTINUOUS
10
69.323
20
-108.072
11
70.123
21
-108.072
0
LINE
8
BLACK
6
CONTINUOUS
10
70.123
20
-108.072
11
70.123
21
-108.971
0
LINE
8
BLACK
6
CONTINUOUS
10
61.807
20
-108.939
11
61.007
21
-108.939
0
LINE
8
BLACK
6
CONTINUOUS
10
61.007
20
-108.939
11
61.007
21
-108.039
0
LINE
8
BLACK
6
CONTINUOUS
10
61.007
20
-108.039
11
61.807
21
-108.039
0
LINE
8
BLACK
6
CONTINUOUS
10
61.807
20
-108.039
11
61.807
21
-108.939
0
LINE
8
BLACK
6
CONTINUOUS
10
74.01
20
-108.767
11
73.01
21
-108.767
0
LINE
8
BLACK
6
CONTINUOUS
10
73.01
20
-108.767
11
73.01
21
-107.767
0
LINE
8
BLACK
6
CONTINUOUS
10
73.01
20
-107.767
11
74.01
21
-107.767
0
LINE
8
BLACK
6
CONTINUOUS
10
74.01
20
-107.767
11
74.01
21
-108.767
0
LINE
8
BLACK
6
CONTINUOUS
10
76.51
20
-108.767
11
75.51
21
-108.767
0
LINE
8
BLACK
6
CONTINUOUS
10
75.51
20
-108.767
11
75.51
21
-107.767
0
LINE
8
BLACK
6
CONTINUOUS
10
75.51
20
-107.767
11
76.51
21
-107.767
0
LINE
8
BLACK
6
CONTINUOUS
10
76.51
20
-107.767
11
76.51
21
-108.767
0
LINE
8
BLACK
6
CONTINUOUS
10
48.9275
20
-108.767
11
47.9275
21
-108.767
0
LINE
8
BLACK
6
CONTINUOUS
10
47.9275
20
-108.767
11
47.9275
21
-107.767
0
LINE
8
BLACK
6
CONTINUOUS
10
47.9275
20
-107.767
11
48.9275
21
-107.767
0
LINE
8
BLACK
6
CONTINUOUS
10
48.9275
20
-107.767
11
48.9275
21
-108.767
0
LINE
8
BLACK
6
CONTINUOUS
10
51.4275
20
-108.767
11
50.4275
21
-108.767
0
LINE
8
BLACK
6
CONTINUOUS
10
50.4275
20
-108.767
11
50.4275
21
-107.767
0
LINE
8
BLACK
6
CONTINUOUS
10
50.4275
20
-107.767
11
51.4275
21
-107.767
0
LINE
8
BLACK
6
CONTINUOUS
10
51.4275
20
-107.767
11
51.4275
21
-108.767
0
LINE
8
BLACK
6
CONTINUOUS
10
57.2685
20
-108.704
11
56.2685
21
-108.704
0
LINE
8
BLACK
6
CONTINUOUS
10
56.2685
20
-108.704
11
56.2685
21
-107.704
0
LINE
8
BLACK
6
CONTINUOUS
10
56.2685
20
-107.704
11
57.2685
21
-107.704
0
LINE
8
BLACK
6
CONTINUOUS
10
57.2685
20
-107.704
11
57.2685
21
-108.704
0
LINE
8
BLACK
6
CONTINUOUS
10
59.7685
20
-108.704
11
58.7685
21
-108.704
0
LINE
8
BLACK
6
CONTINUOUS
10
58.7685
20
-108.704
11
58.7685
21
-107.704
0
LINE
8
BLACK
6
CONTINUOUS
10
58.7685
20
-107.704
11
59.7685
21
-107.704
0
LINE
8
BLACK
6
CONTINUOUS
10
59.7685
20
-107.704
11
59.7685
21
-108.704
0
LINE
8
BLACK
6
CONTINUOUS
10
65.4375
20
-108.704
11
64.4375
21
-108.704
0
LINE
8
BLACK
6
CONTINUOUS
10
64.4375
20
-108.704
11
64.4375
21
-107.704
0
LINE
8
BLACK
6
CONTINUOUS
10
64.4375
20
-107.704
11
65.4375
21
-107.704
0
LINE
8
BLACK
6
CONTINUOUS
10
65.4375
20
-107.704
11
65.4375
21
-108.704
0
LINE
8
BLACK
6
CONTINUOUS
10
67.9375
20
-108.704
11
66.9375
21
-108.704
0
LINE
8
BLACK
6
CONTINUOUS
10
66.9375
20
-108.704
11
66.9375
21
-107.704
0
LINE
8
BLACK
6
CONTINUOUS
10
66.9375
20
-107.704
11
67.9375
21
-107.704
0
LINE
8
BLACK
6
CONTINUOUS
10
67.9375
20
-107.704
11
67.9375
21
-108.704
0
LINE
8
BLACK
6
CONTINUOUS
10
34.9792
20
-108.564
11
34.1592
21
-108.564
0
LINE
8
BLACK
6
CONTINUOUS
10
34.1592
20
-108.564
11
34.1592
21
-107.564
0
LINE
8
BLACK
6
CONTINUOUS
10
34.1592
20
-107.564
11
34.9792
21
-107.564
0
LINE
8
BLACK
6
CONTINUOUS
10
34.9792
20
-107.564
11
34.9792
21
-108.564
0
LINE
8
BLACK
6
CONTINUOUS
10
33.3792
20
-108.564
11
32.5592
21
-108.564
0
LINE
8
BLACK
6
CONTINUOUS
10
32.5592
20
-108.564
11
32.5592
21
-107.564
0
LINE
8
BLACK
6
CONTINUOUS
10
32.5592
20
-107.564
11
33.3792
21
-107.564
0
LINE
8
BLACK
6
CONTINUOUS
10
33.3792
20
-107.564
11
33.3792
21
-108.564
0
LINE
8
BLACK
6
CONTINUOUS
10
42.8534
20
-108.539
11
42.0334
21
-108.539
0
LINE
8
BLACK
6
CONTINUOUS
10
42.0334
20
-108.539
11
42.0334
21
-107.539
0
LINE
8
BLACK
6
CONTINUOUS
10
42.0334
20
-107.539
11
42.8534
21
-107.539
0
LINE
8
BLACK
6
CONTINUOUS
10
42.8534
20
-107.539
11
42.8534
21
-108.539
0
LINE
8
BLACK
6
CONTINUOUS
10
41.2534
20
-108.539
11
40.4334
21
-108.539
0
LINE
8
BLACK
6
CONTINUOUS
10
40.4334
20
-108.539
11
40.4334
21
-107.539
0
LINE
8
BLACK
6
CONTINUOUS
10
40.4334
20
-107.539
11
41.2534
21
-107.539
0
LINE
8
BLACK
6
CONTINUOUS
10
41.2534
20
-107.539
11
41.2534
21
-108.539
0
LINE
8
BLACK
6
CONTINUOUS
10
100.865
20
-107.056
11
100.29
21
-107.056
0
LINE
8
BLACK
6
CONTINUOUS
10
100.29
20
-107.056
11
100.29
21
-106.406
0
LINE
8
BLACK
6
CONTINUOUS
10
100.29
20
-106.406
11
100.865
21
-106.406
0
LINE
8
BLACK
6
CONTINUOUS
10
100.865
20
-106.406
11
100.865
21
-107.056
0
LINE
8
BLACK
6
CONTINUOUS
10
100.09
20
-107.056
11
99.5154
21
-107.056
0
LINE
8
BLACK
6
CONTINUOUS
10
99.5154
20
-107.056
11
99.5154
21
-106.406
0
LINE
8
BLACK
6
CONTINUOUS
10
99.5154
20
-106.406
11
100.09
21
-106.406
0
LINE
8
BLACK
6
CONTINUOUS
10
100.09
20
-106.406
11
100.09
21
-107.056
0
LINE
8
BLACK
6
CONTINUOUS
10
71.073
20
-106.971
11
70.273
21
-106.971
0
LINE
8
BLACK
6
CONTINUOUS
10
70.273
20
-106.971
11
70.273
21
-106.072
0
LINE
8
BLACK
6
CONTINUOUS
10
70.273
20
-106.072
11
71.073
21
-106.072
0
LINE
8
BLACK
6
CONTINUOUS
10
71.073
20
-106.072
11
71.073
21
-106.971
0
LINE
8
BLACK
6
CONTINUOUS
10
69.173
20
-106.971
11
68.373
21
-106.971
0
LINE
8
BLACK
6
CONTINUOUS
10
68.373
20
-106.971
11
68.373
21
-106.072
0
LINE
8
BLACK
6
CONTINUOUS
10
68.373
20
-106.072
11
69.173
21
-106.072
0
LINE
8
BLACK
6
CONTINUOUS
10
69.173
20
-106.072
11
69.173
21
-106.971
0
LINE
8
BLACK
6
CONTINUOUS
10
54.436
20
-106.971
11
53.636
21
-106.971
0
LINE
8
BLACK
6
CONTINUOUS
10
53.636
20
-106.971
11
53.636
21
-106.072
0
LINE
8
BLACK
6
CONTINUOUS
10
53.636
20
-106.072
11
54.436
21
-106.072
0
LINE
8
BLACK
6
CONTINUOUS
10
54.436
20
-106.072
11
54.436
21
-106.971
0
LINE
8
BLACK
6
CONTINUOUS
10
77.555
20
-106.971
11
76.755
21
-106.971
0
LINE
8
BLACK
6
CONTINUOUS
10
76.755
20
-106.971
11
76.755
21
-106.072
0
LINE
8
BLACK
6
CONTINUOUS
10
76.755
20
-106.072
11
77.555
21
-106.072
0
LINE
8
BLACK
6
CONTINUOUS
10
77.555
20
-106.072
11
77.555
21
-106.971
0
LINE
8
BLACK
6
CONTINUOUS
10
79.455
20
-106.971
11
78.655
21
-106.971
0
LINE
8
BLACK
6
CONTINUOUS
10
78.655
20
-106.971
11
78.655
21
-106.072
0
LINE
8
BLACK
6
CONTINUOUS
10
78.655
20
-106.072
11
79.455
21
-106.072
0
LINE
8
BLACK
6
CONTINUOUS
10
79.455
20
-106.072
11
79.455
21
-106.971
0
LINE
8
BLACK
6
CONTINUOUS
10
52.536
20
-106.971
11
51.736
21
-106.971
0
LINE
8
BLACK
6
CONTINUOUS
10
51.736
20
-106.971
11
51.736
21
-106.072
0
LINE
8
BLACK
6
CONTINUOUS
10
51.736
20
-106.072
11
52.536
21
-106.072
0
LINE
8
BLACK
6
CONTINUOUS
10
52.536
20
-106.072
11
52.536
21
-106.971
0
LINE
8
BLACK
6
CONTINUOUS
10
62.757
20
-106.939
11
61.957
21
-106.939
0
LINE
8
BLACK
6
CONTINUOUS
10
61.957
20
-106.939
11
61.957
21
-106.039
0
LINE
8
BLACK
6
CONTINUOUS
10
61.957
20
-106.039
11
62.757
21
-106.039
0
LINE
8
BLACK
6
CONTINUOUS
10
62.757
20
-106.039
11
62.757
21
-106.939
0
LINE
8
BLACK
6
CONTINUOUS
10
60.857
20
-106.939
11
60.057
21
-106.939
0
LINE
8
BLACK
6
CONTINUOUS
10
60.057
20
-106.939
11
60.057
21
-106.039
0
LINE
8
BLACK
6
CONTINUOUS
10
60.057
20
-106.039
11
60.857
21
-106.039
0
LINE
8
BLACK
6
CONTINUOUS
10
60.857
20
-106.039
11
60.857
21
-106.939
0
LINE
8
BLACK
6
CONTINUOUS
10
112.526
20
-106.723
11
111.706
21
-106.723
0
LINE
8
BLACK
6
CONTINUOUS
10
111.706
20
-106.723
11
111.706
21
-105.723
0
LINE
8
BLACK
6
CONTINUOUS
10
111.706
20
-105.723
11
112.526
21
-105.723
0
LINE
8
BLACK
6
CONTINUOUS
10
112.526
20
-105.723
11
112.526
21
-106.723
0
LINE
8
BLACK
6
CONTINUOUS
10
110.926
20
-106.723
11
110.106
21
-106.723
0
LINE
8
BLACK
6
CONTINUOUS
10
110.106
20
-106.723
11
110.106
21
-105.723
0
LINE
8
BLACK
6
CONTINUOUS
10
110.106
20
-105.723
11
110.926
21
-105.723
0
LINE
8
BLACK
6
CONTINUOUS
10
110.926
20
-105.723
11
110.926
21
-106.723
0
LINE
8
BLACK
6
CONTINUOUS
10
98.9923
20
-105.905
11
98.2852
21
-106.612
0
LINE
8
BLACK
6
CONTINUOUS
10
98.2852
20
-106.612
11
97.7053
21
-106.032
0
LINE
8
BLACK
6
CONTINUOUS
10
97.7053
20
-106.032
11
98.4124
21
-105.325
0
LINE
8
BLACK
6
CONTINUOUS
10
98.4124
20
-105.325
11
98.9923
21
-105.905
0
LINE
8
BLACK
6
CONTINUOUS
10
100.405
20
-105.707
11
100.105
21
-105.707
0
LINE
8
BLACK
6
CONTINUOUS
10
100.105
20
-105.707
11
100.105
21
-104.207
0
LINE
8
BLACK
6
CONTINUOUS
10
100.105
20
-104.207
11
100.405
21
-104.207
0
LINE
8
BLACK
6
CONTINUOUS
10
100.405
20
-104.207
11
100.405
21
-105.707
0
LINE
8
BLACK
6
CONTINUOUS
10
100.905
20
-105.707
11
100.605
21
-105.707
0
LINE
8
BLACK
6
CONTINUOUS
10
100.605
20
-105.707
11
100.605
21
-104.207
0
LINE
8
BLACK
6
CONTINUOUS
10
100.605
20
-104.207
11
100.905
21
-104.207
0
LINE
8
BLACK
6
CONTINUOUS
10
100.905
20
-104.207
11
100.905
21
-105.707
0
LINE
8
BLACK
6
CONTINUOUS
10
101.405
20
-105.707
11
101.105
21
-105.707
0
LINE
8
BLACK
6
CONTINUOUS
10
101.105
20
-105.707
11
101.105
21
-104.207
0
LINE
8
BLACK
6
CONTINUOUS
10
101.105
20
-104.207
11
101.405
21
-104.207
0
LINE
8
BLACK
6
CONTINUOUS
10
101.405
20
-104.207
11
101.405
21
-105.707
0
LINE
8
BLACK
6
CONTINUOUS
10
104.405
20
-105.707
11
104.105
21
-105.707
0
LINE
8
BLACK
6
CONTINUOUS
10
104.105
20
-105.707
11
104.105
21
-104.207
0
LINE
8
BLACK
6
CONTINUOUS
10
104.105
20
-104.207
11
104.405
21
-104.207
0
LINE
8
BLACK
6
CONTINUOUS
10
104.405
20
-104.207
11
104.405
21
-105.707
0
LINE
8
BLACK
6
CONTINUOUS
10
105.405
20
-105.707
11
105.105
21
-105.707
0
LINE
8
BLACK
6
CONTINUOUS
10
105.105
20
-105.707
11
105.105
21
-104.207
0
LINE
8
BLACK
6
CONTINUOUS
10
105.105
20
-104.207
11
105.405
21
-104.207
0
LINE
8
BLACK
6
CONTINUOUS
10
105.405
20
-104.207
11
105.405
21
-105.707
0
LINE
8
BLACK
6
CONTINUOUS
10
103.405
20
-105.707
11
103.105
21
-105.707
0
LINE
8
BLACK
6
CONTINUOUS
10
103.105
20
-105.707
11
103.105
21
-104.207
0
LINE
8
BLACK
6
CONTINUOUS
10
103.105
20
-104.207
11
103.405
21
-104.207
0
LINE
8
BLACK
6
CONTINUOUS
10
103.405
20
-104.207
11
103.405
21
-105.707
0
LINE
8
BLACK
6
CONTINUOUS
10
99.9046
20
-105.707
11
99.6046
21
-105.707
0
LINE
8
BLACK
6
CONTINUOUS
10
99.6046
20
-105.707
11
99.6046
21
-104.207
0
LINE
8
BLACK
6
CONTINUOUS
10
99.6046
20
-104.207
11
99.9046
21
-104.207
0
LINE
8
BLACK
6
CONTINUOUS
10
99.9046
20
-104.207
11
99.9046
21
-105.707
0
LINE
8
BLACK
6
CONTINUOUS
10
102.405
20
-105.707
11
102.105
21
-105.707
0
LINE
8
BLACK
6
CONTINUOUS
10
102.105
20
-105.707
11
102.105
21
-104.207
0
LINE
8
BLACK
6
CONTINUOUS
10
102.105
20
-104.207
11
102.405
21
-104.207
0
LINE
8
BLACK
6
CONTINUOUS
10
102.405
20
-104.207
11
102.405
21
-105.707
0
LINE
8
BLACK
6
CONTINUOUS
10
69.715
20
-105.578
11
68.715
21
-105.578
0
LINE
8
BLACK
6
CONTINUOUS
10
68.715
20
-105.578
11
68.715
21
-104.758
0
LINE
8
BLACK
6
CONTINUOUS
10
68.715
20
-104.758
11
69.715
21
-104.758
0
LINE
8
BLACK
6
CONTINUOUS
10
69.715
20
-104.758
11
69.715
21
-105.578
0
LINE
8
BLACK
6
CONTINUOUS
10
53.078
20
-105.566
11
52.078
21
-105.566
0
LINE
8
BLACK
6
CONTINUOUS
10
52.078
20
-105.566
11
52.078
21
-104.746
0
LINE
8
BLACK
6
CONTINUOUS
10
52.078
20
-104.746
11
53.078
21
-104.746
0
LINE
8
BLACK
6
CONTINUOUS
10
53.078
20
-104.746
11
53.078
21
-105.566
0
LINE
8
BLACK
6
CONTINUOUS
10
78.0335
20
-105.566
11
77.0335
21
-105.566
0
LINE
8
BLACK
6
CONTINUOUS
10
77.0335
20
-105.566
11
77.0335
21
-104.746
0
LINE
8
BLACK
6
CONTINUOUS
10
77.0335
20
-104.746
11
78.0335
21
-104.746
0
LINE
8
BLACK
6
CONTINUOUS
10
78.0335
20
-104.746
11
78.0335
21
-105.566
0
LINE
8
BLACK
6
CONTINUOUS
10
71.239
20
-105.566
11
70.239
21
-105.566
0
LINE
8
BLACK
6
CONTINUOUS
10
70.239
20
-105.566
11
70.239
21
-104.746
0
LINE
8
BLACK
6
CONTINUOUS
10
70.239
20
-104.746
11
71.239
21
-104.746
0
LINE
8
BLACK
6
CONTINUOUS
10
71.239
20
-104.746
11
71.239
21
-105.566
0
LINE
8
BLACK
6
CONTINUOUS
10
54.602
20
-105.566
11
53.602
21
-105.566
0
LINE
8
BLACK
6
CONTINUOUS
10
53.602
20
-105.566
11
53.602
21
-104.746
0
LINE
8
BLACK
6
CONTINUOUS
10
53.602
20
-104.746
11
54.602
21
-104.746
0
LINE
8
BLACK
6
CONTINUOUS
10
54.602
20
-104.746
11
54.602
21
-105.566
0
LINE
8
BLACK
6
CONTINUOUS
10
79.5575
20
-105.566
11
78.5575
21
-105.566
0
LINE
8
BLACK
6
CONTINUOUS
10
78.5575
20
-105.566
11
78.5575
21
-104.746
0
LINE
8
BLACK
6
CONTINUOUS
10
78.5575
20
-104.746
11
79.5575
21
-104.746
0
LINE
8
BLACK
6
CONTINUOUS
10
79.5575
20
-104.746
11
79.5575
21
-105.566
0
LINE
8
BLACK
6
CONTINUOUS
10
61.333
20
-105.515
11
60.333
21
-105.515
0
LINE
8
BLACK
6
CONTINUOUS
10
60.333
20
-105.515
11
60.333
21
-104.695
0
LINE
8
BLACK
6
CONTINUOUS
10
60.333
20
-104.695
11
61.333
21
-104.695
0
LINE
8
BLACK
6
CONTINUOUS
10
61.333
20
-104.695
11
61.333
21
-105.515
0
LINE
8
BLACK
6
CONTINUOUS
10
62.9205
20
-105.515
11
61.9205
21
-105.515
0
LINE
8
BLACK
6
CONTINUOUS
10
61.9205
20
-105.515
11
61.9205
21
-104.695
0
LINE
8
BLACK
6
CONTINUOUS
10
61.9205
20
-104.695
11
62.9205
21
-104.695
0
LINE
8
BLACK
6
CONTINUOUS
10
62.9205
20
-104.695
11
62.9205
21
-105.515
0
LINE
8
BLACK
6
CONTINUOUS
10
97.8609
20
-104.774
11
97.1538
21
-105.481
0
LINE
8
BLACK
6
CONTINUOUS
10
97.1538
20
-105.481
11
96.574
21
-104.901
0
LINE
8
BLACK
6
CONTINUOUS
10
96.574
20
-104.901
11
97.2811
21
-104.194
0
LINE
8
BLACK
6
CONTINUOUS
10
97.2811
20
-104.194
11
97.8609
21
-104.774
0
LINE
8
BLACK
6
CONTINUOUS
10
69.715
20
-103.978
11
68.715
21
-103.978
0
LINE
8
BLACK
6
CONTINUOUS
10
68.715
20
-103.978
11
68.715
21
-103.158
0
LINE
8
BLACK
6
CONTINUOUS
10
68.715
20
-103.158
11
69.715
21
-103.158
0
LINE
8
BLACK
6
CONTINUOUS
10
69.715
20
-103.158
11
69.715
21
-103.978
0
LINE
8
BLACK
6
CONTINUOUS
10
79.5575
20
-103.966
11
78.5575
21
-103.966
0
LINE
8
BLACK
6
CONTINUOUS
10
78.5575
20
-103.966
11
78.5575
21
-103.146
0
LINE
8
BLACK
6
CONTINUOUS
10
78.5575
20
-103.146
11
79.5575
21
-103.146
0
LINE
8
BLACK
6
CONTINUOUS
10
79.5575
20
-103.146
11
79.5575
21
-103.966
0
LINE
8
BLACK
6
CONTINUOUS
10
54.602
20
-103.966
11
53.602
21
-103.966
0
LINE
8
BLACK
6
CONTINUOUS
10
53.602
20
-103.966
11
53.602
21
-103.146
0
LINE
8
BLACK
6
CONTINUOUS
10
53.602
20
-103.146
11
54.602
21
-103.146
0
LINE
8
BLACK
6
CONTINUOUS
10
54.602
20
-103.146
11
54.602
21
-103.966
0
LINE
8
BLACK
6
CONTINUOUS
10
78.0335
20
-103.966
11
77.0335
21
-103.966
0
LINE
8
BLACK
6
CONTINUOUS
10
77.0335
20
-103.966
11
77.0335
21
-103.146
0
LINE
8
BLACK
6
CONTINUOUS
10
77.0335
20
-103.146
11
78.0335
21
-103.146
0
LINE
8
BLACK
6
CONTINUOUS
10
78.0335
20
-103.146
11
78.0335
21
-103.966
0
LINE
8
BLACK
6
CONTINUOUS
10
71.239
20
-103.966
11
70.239
21
-103.966
0
LINE
8
BLACK
6
CONTINUOUS
10
70.239
20
-103.966
11
70.239
21
-103.146
0
LINE
8
BLACK
6
CONTINUOUS
10
70.239
20
-103.146
11
71.239
21
-103.146
0
LINE
8
BLACK
6
CONTINUOUS
10
71.239
20
-103.146
11
71.239
21
-103.966
0
LINE
8
BLACK
6
CONTINUOUS
10
53.078
20
-103.966
11
52.078
21
-103.966
0
LINE
8
BLACK
6
CONTINUOUS
10
52.078
20
-103.966
11
52.078
21
-103.146
0
LINE
8
BLACK
6
CONTINUOUS
10
52.078
20
-103.146
11
53.078
21
-103.146
0
LINE
8
BLACK
6
CONTINUOUS
10
53.078
20
-103.146
11
53.078
21
-103.966
0
LINE
8
BLACK
6
CONTINUOUS
10
61.333
20
-103.915
11
60.333
21
-103.915
0
LINE
8
BLACK
6
CONTINUOUS
10
60.333
20
-103.915
11
60.333
21
-103.095
0
LINE
8
BLACK
6
CONTINUOUS
10
60.333
20
-103.095
11
61.333
21
-103.095
0
LINE
8
BLACK
6
CONTINUOUS
10
61.333
20
-103.095
11
61.333
21
-103.915
0
LINE
8
BLACK
6
CONTINUOUS
10
62.9205
20
-103.915
11
61.9205
21
-103.915
0
LINE
8
BLACK
6
CONTINUOUS
10
61.9205
20
-103.915
11
61.9205
21
-103.095
0
LINE
8
BLACK
6
CONTINUOUS
10
61.9205
20
-103.095
11
62.9205
21
-103.095
0
LINE
8
BLACK
6
CONTINUOUS
10
62.9205
20
-103.095
11
62.9205
21
-103.915
0
LINE
8
BLACK
6
CONTINUOUS
10
99.0546
20
-103.657
11
97.5546
21
-103.657
0
LINE
8
BLACK
6
CONTINUOUS
10
97.5546
20
-103.657
11
97.5546
21
-103.357
0
LINE
8
BLACK
6
CONTINUOUS
10
97.5546
20
-103.357
11
99.0546
21
-103.357
0
LINE
8
BLACK
6
CONTINUOUS
10
99.0546
20
-103.357
11
99.0546
21
-103.657
0
LINE
8
BLACK
6
CONTINUOUS
10
107.455
20
-103.657
11
105.955
21
-103.657
0
LINE
8
BLACK
6
CONTINUOUS
10
105.955
20
-103.657
11
105.955
21
-103.357
0
LINE
8
BLACK
6
CONTINUOUS
10
105.955
20
-103.357
11
107.455
21
-103.357
0
LINE
8
BLACK
6
CONTINUOUS
10
107.455
20
-103.357
11
107.455
21
-103.657
0
LINE
8
BLACK
6
CONTINUOUS
10
96.3712
20
-103.522
11
95.5512
21
-103.522
0
LINE
8
BLACK
6
CONTINUOUS
10
95.5512
20
-103.522
11
95.5512
21
-102.522
0
LINE
8
BLACK
6
CONTINUOUS
10
95.5512
20
-102.522
11
96.3712
21
-102.522
0
LINE
8
BLACK
6
CONTINUOUS
10
96.3712
20
-102.522
11
96.3712
21
-103.522
0
LINE
8
BLACK
6
CONTINUOUS
10
94.7712
20
-103.522
11
93.9512
21
-103.522
0
LINE
8
BLACK
6
CONTINUOUS
10
93.9512
20
-103.522
11
93.9512
21
-102.522
0
LINE
8
BLACK
6
CONTINUOUS
10
93.9512
20
-102.522
11
94.7712
21
-102.522
0
LINE
8
BLACK
6
CONTINUOUS
10
94.7712
20
-102.522
11
94.7712
21
-103.522
0
LINE
8
BLACK
6
CONTINUOUS
10
44.3404
20
-103.42
11
43.3404
21
-103.42
0
LINE
8
BLACK
6
CONTINUOUS
10
43.3404
20
-103.42
11
43.3404
21
-102.6
0
LINE
8
BLACK
6
CONTINUOUS
10
43.3404
20
-102.6
11
44.3404
21
-102.6
0
LINE
8
BLACK
6
CONTINUOUS
10
44.3404
20
-102.6
11
44.3404
21
-103.42
0
LINE
8
BLACK
6
CONTINUOUS
10
36.568
20
-103.42
11
35.568
21
-103.42
0
LINE
8
BLACK
6
CONTINUOUS
10
35.568
20
-103.42
11
35.568
21
-102.6
0
LINE
8
BLACK
6
CONTINUOUS
10
35.568
20
-102.6
11
36.568
21
-102.6
0
LINE
8
BLACK
6
CONTINUOUS
10
36.568
20
-102.6
11
36.568
21
-103.42
0
LINE
8
BLACK
6
CONTINUOUS
10
35.0694
20
-103.42
11
34.0694
21
-103.42
0
LINE
8
BLACK
6
CONTINUOUS
10
34.0694
20
-103.42
11
34.0694
21
-102.6
0
LINE
8
BLACK
6
CONTINUOUS
10
34.0694
20
-102.6
11
35.0694
21
-102.6
0
LINE
8
BLACK
6
CONTINUOUS
10
35.0694
20
-102.6
11
35.0694
21
-103.42
0
LINE
8
BLACK
6
CONTINUOUS
10
33.52
20
-103.419
11
32.52
21
-103.419
0
LINE
8
BLACK
6
CONTINUOUS
10
32.52
20
-103.419
11
32.52
21
-102.599
0
LINE
8
BLACK
6
CONTINUOUS
10
32.52
20
-102.599
11
33.52
21
-102.599
0
LINE
8
BLACK
6
CONTINUOUS
10
33.52
20
-102.599
11
33.52
21
-103.419
0
LINE
8
BLACK
6
CONTINUOUS
10
42.791
20
-103.394
11
41.791
21
-103.394
0
LINE
8
BLACK
6
CONTINUOUS
10
41.791
20
-103.394
11
41.791
21
-102.574
0
LINE
8
BLACK
6
CONTINUOUS
10
41.791
20
-102.574
11
42.791
21
-102.574
0
LINE
8
BLACK
6
CONTINUOUS
10
42.791
20
-102.574
11
42.791
21
-103.394
0
LINE
8
BLACK
6
CONTINUOUS
10
41.2924
20
-103.394
11
40.2924
21
-103.394
0
LINE
8
BLACK
6
CONTINUOUS
10
40.2924
20
-103.394
11
40.2924
21
-102.574
0
LINE
8
BLACK
6
CONTINUOUS
10
40.2924
20
-102.574
11
41.2924
21
-102.574
0
LINE
8
BLACK
6
CONTINUOUS
10
41.2924
20
-102.574
11
41.2924
21
-103.394
0
LINE
8
BLACK
6
CONTINUOUS
10
99.0546
20
-103.157
11
97.5546
21
-103.157
0
LINE
8
BLACK
6
CONTINUOUS
10
97.5546
20
-103.157
11
97.5546
21
-102.857
0
LINE
8
BLACK
6
CONTINUOUS
10
97.5546
20
-102.857
11
99.0546
21
-102.857
0
LINE
8
BLACK
6
CONTINUOUS
10
99.0546
20
-102.857
11
99.0546
21
-103.157
0
LINE
8
BLACK
6
CONTINUOUS
10
107.455
20
-103.157
11
105.955
21
-103.157
0
LINE
8
BLACK
6
CONTINUOUS
10
105.955
20
-103.157
11
105.955
21
-102.857
0
LINE
8
BLACK
6
CONTINUOUS
10
105.955
20
-102.857
11
107.455
21
-102.857
0
LINE
8
BLACK
6
CONTINUOUS
10
107.455
20
-102.857
11
107.455
21
-103.157
0
LINE
8
BLACK
6
CONTINUOUS
10
116.006
20
-103.038
11
115.006
21
-103.038
0
LINE
8
BLACK
6
CONTINUOUS
10
115.006
20
-103.038
11
115.006
21
-102.218
0
LINE
8
BLACK
6
CONTINUOUS
10
115.006
20
-102.218
11
116.006
21
-102.218
0
LINE
8
BLACK
6
CONTINUOUS
10
116.006
20
-102.218
11
116.006
21
-103.038
0
LINE
8
BLACK
6
CONTINUOUS
10
99.0546
20
-102.657
11
97.5546
21
-102.657
0
LINE
8
BLACK
6
CONTINUOUS
10
97.5546
20
-102.657
11
97.5546
21
-102.357
0
LINE
8
BLACK
6
CONTINUOUS
10
97.5546
20
-102.357
11
99.0546
21
-102.357
0
LINE
8
BLACK
6
CONTINUOUS
10
99.0546
20
-102.357
11
99.0546
21
-102.657
0
LINE
8
BLACK
6
CONTINUOUS
10
107.455
20
-102.657
11
105.955
21
-102.657
0
LINE
8
BLACK
6
CONTINUOUS
10
105.955
20
-102.657
11
105.955
21
-102.357
0
LINE
8
BLACK
6
CONTINUOUS
10
105.955
20
-102.357
11
107.455
21
-102.357
0
LINE
8
BLACK
6
CONTINUOUS
10
107.455
20
-102.357
11
107.455
21
-102.657
0
LINE
8
BLACK
6
CONTINUOUS
10
104.055
20
-102.307
11
102.705
21
-102.307
0
LINE
8
BLACK
6
CONTINUOUS
10
102.705
20
-102.307
11
102.705
21
-100.957
0
LINE
8
BLACK
6
CONTINUOUS
10
102.705
20
-100.957
11
104.055
21
-100.957
0
LINE
8
BLACK
6
CONTINUOUS
10
104.055
20
-100.957
11
104.055
21
-102.307
0
LINE
8
BLACK
6
CONTINUOUS
10
102.305
20
-102.307
11
100.955
21
-102.307
0
LINE
8
BLACK
6
CONTINUOUS
10
100.955
20
-102.307
11
100.955
21
-100.957
0
LINE
8
BLACK
6
CONTINUOUS
10
100.955
20
-100.957
11
102.305
21
-100.957
0
LINE
8
BLACK
6
CONTINUOUS
10
102.305
20
-100.957
11
102.305
21
-102.307
0
LINE
8
BLACK
6
CONTINUOUS
10
99.0546
20
-102.157
11
97.5546
21
-102.157
0
LINE
8
BLACK
6
CONTINUOUS
10
97.5546
20
-102.157
11
97.5546
21
-101.857
0
LINE
8
BLACK
6
CONTINUOUS
10
97.5546
20
-101.857
11
99.0546
21
-101.857
0
LINE
8
BLACK
6
CONTINUOUS
10
99.0546
20
-101.857
11
99.0546
21
-102.157
0
LINE
8
BLACK
6
CONTINUOUS
10
107.455
20
-102.157
11
105.955
21
-102.157
0
LINE
8
BLACK
6
CONTINUOUS
10
105.955
20
-102.157
11
105.955
21
-101.857
0
LINE
8
BLACK
6
CONTINUOUS
10
105.955
20
-101.857
11
107.455
21
-101.857
0
LINE
8
BLACK
6
CONTINUOUS
10
107.455
20
-101.857
11
107.455
21
-102.157
0
LINE
8
BLACK
6
CONTINUOUS
10
95.3808
20
-101.998
11
94.5608
21
-101.998
0
LINE
8
BLACK
6
CONTINUOUS
10
94.5608
20
-101.998
11
94.5608
21
-100.998
0
LINE
8
BLACK
6
CONTINUOUS
10
94.5608
20
-100.998
11
95.3808
21
-100.998
0
LINE
8
BLACK
6
CONTINUOUS
10
95.3808
20
-100.998
11
95.3808
21
-101.998
0
LINE
8
BLACK
6
CONTINUOUS
10
96.9808
20
-101.998
11
96.1608
21
-101.998
0
LINE
8
BLACK
6
CONTINUOUS
10
96.1608
20
-101.998
11
96.1608
21
-100.998
0
LINE
8
BLACK
6
CONTINUOUS
10
96.1608
20
-100.998
11
96.9808
21
-100.998
0
LINE
8
BLACK
6
CONTINUOUS
10
96.9808
20
-100.998
11
96.9808
21
-101.998
0
LINE
8
BLACK
6
CONTINUOUS
10
36.568
20
-101.82
11
35.568
21
-101.82
0
LINE
8
BLACK
6
CONTINUOUS
10
35.568
20
-101.82
11
35.568
21
-101
0
LINE
8
BLACK
6
CONTINUOUS
10
35.568
20
-101
11
36.568
21
-101
0
LINE
8
BLACK
6
CONTINUOUS
10
36.568
20
-101
11
36.568
21
-101.82
0
LINE
8
BLACK
6
CONTINUOUS
10
35.0694
20
-101.82
11
34.0694
21
-101.82
0
LINE
8
BLACK
6
CONTINUOUS
10
34.0694
20
-101.82
11
34.0694
21
-101
0
LINE
8
BLACK
6
CONTINUOUS
10
34.0694
20
-101
11
35.0694
21
-101
0
LINE
8
BLACK
6
CONTINUOUS
10
35.0694
20
-101
11
35.0694
21
-101.82
0
LINE
8
BLACK
6
CONTINUOUS
10
44.3404
20
-101.82
11
43.3404
21
-101.82
0
LINE
8
BLACK
6
CONTINUOUS
10
43.3404
20
-101.82
11
43.3404
21
-101
0
LINE
8
BLACK
6
CONTINUOUS
10
43.3404
20
-101
11
44.3404
21
-101
0
LINE
8
BLACK
6
CONTINUOUS
10
44.3404
20
-101
11
44.3404
21
-101.82
0
LINE
8
BLACK
6
CONTINUOUS
10
33.52
20
-101.819
11
32.52
21
-101.819
0
LINE
8
BLACK
6
CONTINUOUS
10
32.52
20
-101.819
11
32.52
21
-100.999
0
LINE
8
BLACK
6
CONTINUOUS
10
32.52
20
-100.999
11
33.52
21
-100.999
0
LINE
8
BLACK
6
CONTINUOUS
10
33.52
20
-100.999
11
33.52
21
-101.819
0
LINE
8
BLACK
6
CONTINUOUS
10
41.2924
20
-101.794
11
40.2924
21
-101.794
0
LINE
8
BLACK
6
CONTINUOUS
10
40.2924
20
-101.794
11
40.2924
21
-100.974
0
LINE
8
BLACK
6
CONTINUOUS
10
40.2924
20
-100.974
11
41.2924
21
-100.974
0
LINE
8
BLACK
6
CONTINUOUS
10
41.2924
20
-100.974
11
41.2924
21
-101.794
0
LINE
8
BLACK
6
CONTINUOUS
10
42.791
20
-101.794
11
41.791
21
-101.794
0
LINE
8
BLACK
6
CONTINUOUS
10
41.791
20
-101.794
11
41.791
21
-100.974
0
LINE
8
BLACK
6
CONTINUOUS
10
41.791
20
-100.974
11
42.791
21
-100.974
0
LINE
8
BLACK
6
CONTINUOUS
10
42.791
20
-100.974
11
42.791
21
-101.794
0
LINE
8
BLACK
6
CONTINUOUS
10
107.455
20
-101.657
11
105.955
21
-101.657
0
LINE
8
BLACK
6
CONTINUOUS
10
105.955
20
-101.657
11
105.955
21
-101.357
0
LINE
8
BLACK
6
CONTINUOUS
10
105.955
20
-101.357
11
107.455
21
-101.357
0
LINE
8
BLACK
6
CONTINUOUS
10
107.455
20
-101.357
11
107.455
21
-101.657
0
LINE
8
BLACK
6
CONTINUOUS
10
99.0546
20
-101.657
11
97.5546
21
-101.657
0
LINE
8
BLACK
6
CONTINUOUS
10
97.5546
20
-101.657
11
97.5546
21
-101.357
0
LINE
8
BLACK
6
CONTINUOUS
10
97.5546
20
-101.357
11
99.0546
21
-101.357
0
LINE
8
BLACK
6
CONTINUOUS
10
99.0546
20
-101.357
11
99.0546
21
-101.657
0
LINE
8
BLACK
6
CONTINUOUS
10
116.006
20
-101.438
11
115.006
21
-101.438
0
LINE
8
BLACK
6
CONTINUOUS
10
115.006
20
-101.438
11
115.006
21
-100.618
0
LINE
8
BLACK
6
CONTINUOUS
10
115.006
20
-100.618
11
116.006
21
-100.618
0
LINE
8
BLACK
6
CONTINUOUS
10
116.006
20
-100.618
11
116.006
21
-101.438
0
LINE
8
BLACK
6
CONTINUOUS
10
107.455
20
-101.157
11
105.955
21
-101.157
0
LINE
8
BLACK
6
CONTINUOUS
10
105.955
20
-101.157
11
105.955
21
-100.857
0
LINE
8
BLACK
6
CONTINUOUS
10
105.955
20
-100.857
11
107.455
21
-100.857
0
LINE
8
BLACK
6
CONTINUOUS
10
107.455
20
-100.857
11
107.455
21
-101.157
0
LINE
8
BLACK
6
CONTINUOUS
10
99.0546
20
-101.157
11
97.5546
21
-101.157
0
LINE
8
BLACK
6
CONTINUOUS
10
97.5546
20
-101.157
11
97.5546
21
-100.857
0
LINE
8
BLACK
6
CONTINUOUS
10
97.5546
20
-100.857
11
99.0546
21
-100.857
0
LINE
8
BLACK
6
CONTINUOUS
10
99.0546
20
-100.857
11
99.0546
21
-101.157
0
LINE
8
BLACK
6
CONTINUOUS
10
107.455
20
-100.657
11
105.955
21
-100.657
0
LINE
8
BLACK
6
CONTINUOUS
10
105.955
20
-100.657
11
105.955
21
-100.357
0
LINE
8
BLACK
6
CONTINUOUS
10
105.955
20
-100.357
11
107.455
21
-100.357
0
LINE
8
BLACK
6
CONTINUOUS
10
107.455
20
-100.357
11
107.455
21
-100.657
0
LINE
8
BLACK
6
CONTINUOUS
10
99.0546
20
-100.657
11
97.5546
21
-100.657
0
LINE
8
BLACK
6
CONTINUOUS
10
97.5546
20
-100.657
11
97.5546
21
-100.357
0
LINE
8
BLACK
6
CONTINUOUS
10
97.5546
20
-100.357
11
99.0546
21
-100.357
0
LINE
8
BLACK
6
CONTINUOUS
10
99.0546
20
-100.357
11
99.0546
21
-100.657
0
LINE
8
BLACK
6
CONTINUOUS
10
102.305
20
-100.557
11
100.955
21
-100.557
0
LINE
8
BLACK
6
CONTINUOUS
10
100.955
20
-100.557
11
100.955
21
-99.2073
0
LINE
8
BLACK
6
CONTINUOUS
10
100.955
20
-99.2073
11
102.305
21
-99.2073
0
LINE
8
BLACK
6
CONTINUOUS
10
102.305
20
-99.2073
11
102.305
21
-100.557
0
LINE
8
BLACK
6
CONTINUOUS
10
104.055
20
-100.557
11
102.705
21
-100.557
0
LINE
8
BLACK
6
CONTINUOUS
10
102.705
20
-100.557
11
102.705
21
-99.2073
0
LINE
8
BLACK
6
CONTINUOUS
10
102.705
20
-99.2073
11
104.055
21
-99.2073
0
LINE
8
BLACK
6
CONTINUOUS
10
104.055
20
-99.2073
11
104.055
21
-100.557
0
LINE
8
BLACK
6
CONTINUOUS
10
107.455
20
-100.157
11
105.955
21
-100.157
0
LINE
8
BLACK
6
CONTINUOUS
10
105.955
20
-100.157
11
105.955
21
-99.8573
0
LINE
8
BLACK
6
CONTINUOUS
10
105.955
20
-99.8573
11
107.455
21
-99.8573
0
LINE
8
BLACK
6
CONTINUOUS
10
107.455
20
-99.8573
11
107.455
21
-100.157
0
LINE
8
BLACK
6
CONTINUOUS
10
99.0546
20
-100.157
11
97.5546
21
-100.157
0
LINE
8
BLACK
6
CONTINUOUS
10
97.5546
20
-100.157
11
97.5546
21
-99.8573
0
LINE
8
BLACK
6
CONTINUOUS
10
97.5546
20
-99.8573
11
99.0546
21
-99.8573
0
LINE
8
BLACK
6
CONTINUOUS
10
99.0546
20
-99.8573
11
99.0546
21
-100.157
0
LINE
8
BLACK
6
CONTINUOUS
10
42.777
20
-100.131
11
41.957
21
-100.131
0
LINE
8
BLACK
6
CONTINUOUS
10
41.957
20
-100.131
11
41.957
21
-99.1315
0
LINE
8
BLACK
6
CONTINUOUS
10
41.957
20
-99.1315
11
42.777
21
-99.1315
0
LINE
8
BLACK
6
CONTINUOUS
10
42.777
20
-99.1315
11
42.777
21
-100.131
0
LINE
8
BLACK
6
CONTINUOUS
10
41.177
20
-100.131
11
40.357
21
-100.131
0
LINE
8
BLACK
6
CONTINUOUS
10
40.357
20
-100.131
11
40.357
21
-99.1315
0
LINE
8
BLACK
6
CONTINUOUS
10
40.357
20
-99.1315
11
41.177
21
-99.1315
0
LINE
8
BLACK
6
CONTINUOUS
10
41.177
20
-99.1315
11
41.177
21
-100.131
0
LINE
8
BLACK
6
CONTINUOUS
10
33.3665
20
-100.131
11
32.5465
21
-100.131
0
LINE
8
BLACK
6
CONTINUOUS
10
32.5465
20
-100.131
11
32.5465
21
-99.1315
0
LINE
8
BLACK
6
CONTINUOUS
10
32.5465
20
-99.1315
11
33.3665
21
-99.1315
0
LINE
8
BLACK
6
CONTINUOUS
10
33.3665
20
-99.1315
11
33.3665
21
-100.131
0
LINE
8
BLACK
6
CONTINUOUS
10
34.9665
20
-100.131
11
34.1465
21
-100.131
0
LINE
8
BLACK
6
CONTINUOUS
10
34.1465
20
-100.131
11
34.1465
21
-99.1315
0
LINE
8
BLACK
6
CONTINUOUS
10
34.1465
20
-99.1315
11
34.9665
21
-99.1315
0
LINE
8
BLACK
6
CONTINUOUS
10
34.9665
20
-99.1315
11
34.9665
21
-100.131
0
LINE
8
BLACK
6
CONTINUOUS
10
107.455
20
-99.6573
11
105.955
21
-99.6573
0
LINE
8
BLACK
6
CONTINUOUS
10
105.955
20
-99.6573
11
105.955
21
-99.3573
0
LINE
8
BLACK
6
CONTINUOUS
10
105.955
20
-99.3573
11
107.455
21
-99.3573
0
LINE
8
BLACK
6
CONTINUOUS
10
107.455
20
-99.3573
11
107.455
21
-99.6573
0
LINE
8
BLACK
6
CONTINUOUS
10
99.0546
20
-99.6573
11
97.5546
21
-99.6573
0
LINE
8
BLACK
6
CONTINUOUS
10
97.5546
20
-99.6573
11
97.5546
21
-99.3573
0
LINE
8
BLACK
6
CONTINUOUS
10
97.5546
20
-99.3573
11
99.0546
21
-99.3573
0
LINE
8
BLACK
6
CONTINUOUS
10
99.0546
20
-99.3573
11
99.0546
21
-99.6573
0
LINE
8
BLACK
6
CONTINUOUS
10
109
20
-99.41
11
108
21
-99.41
0
LINE
8
BLACK
6
CONTINUOUS
10
108
20
-99.41
11
108
21
-98.59
0
LINE
8
BLACK
6
CONTINUOUS
10
108
20
-98.59
11
109
21
-98.59
0
LINE
8
BLACK
6
CONTINUOUS
10
109
20
-98.59
11
109
21
-99.41
0
LINE
8
BLACK
6
CONTINUOUS
10
75.899
20
-99.2425
11
75.079
21
-99.2425
0
LINE
8
BLACK
6
CONTINUOUS
10
75.079
20
-99.2425
11
75.079
21
-98.2425
0
LINE
8
BLACK
6
CONTINUOUS
10
75.079
20
-98.2425
11
75.899
21
-98.2425
0
LINE
8
BLACK
6
CONTINUOUS
10
75.899
20
-98.2425
11
75.899
21
-99.2425
0
LINE
8
BLACK
6
CONTINUOUS
10
77.499
20
-99.2425
11
76.679
21
-99.2425
0
LINE
8
BLACK
6
CONTINUOUS
10
76.679
20
-99.2425
11
76.679
21
-98.2425
0
LINE
8
BLACK
6
CONTINUOUS
10
76.679
20
-98.2425
11
77.499
21
-98.2425
0
LINE
8
BLACK
6
CONTINUOUS
10
77.499
20
-98.2425
11
77.499
21
-99.2425
0
LINE
8
BLACK
6
CONTINUOUS
10
99.0546
20
-99.1573
11
97.5546
21
-99.1573
0
LINE
8
BLACK
6
CONTINUOUS
10
97.5546
20
-99.1573
11
97.5546
21
-98.8573
0
LINE
8
BLACK
6
CONTINUOUS
10
97.5546
20
-98.8573
11
99.0546
21
-98.8573
0
LINE
8
BLACK
6
CONTINUOUS
10
99.0546
20
-98.8573
11
99.0546
21
-99.1573
0
LINE
8
BLACK
6
CONTINUOUS
10
107.455
20
-99.1573
11
105.955
21
-99.1573
0
LINE
8
BLACK
6
CONTINUOUS
10
105.955
20
-99.1573
11
105.955
21
-98.8573
0
LINE
8
BLACK
6
CONTINUOUS
10
105.955
20
-98.8573
11
107.455
21
-98.8573
0
LINE
8
BLACK
6
CONTINUOUS
10
107.455
20
-98.8573
11
107.455
21
-99.1573
0
LINE
8
BLACK
6
CONTINUOUS
10
116.006
20
-98.911
11
115.006
21
-98.911
0
LINE
8
BLACK
6
CONTINUOUS
10
115.006
20
-98.911
11
115.006
21
-98.091
0
LINE
8
BLACK
6
CONTINUOUS
10
115.006
20
-98.091
11
116.006
21
-98.091
0
LINE
8
BLACK
6
CONTINUOUS
10
116.006
20
-98.091
11
116.006
21
-98.911
0
LINE
8
BLACK
6
CONTINUOUS
10
99.0546
20
-98.6573
11
97.5546
21
-98.6573
0
LINE
8
BLACK
6
CONTINUOUS
10
97.5546
20
-98.6573
11
97.5546
21
-98.3573
0
LINE
8
BLACK
6
CONTINUOUS
10
97.5546
20
-98.3573
11
99.0546
21
-98.3573
0
LINE
8
BLACK
6
CONTINUOUS
10
99.0546
20
-98.3573
11
99.0546
21
-98.6573
0
LINE
8
BLACK
6
CONTINUOUS
10
107.455
20
-98.6573
11
105.955
21
-98.6573
0
LINE
8
BLACK
6
CONTINUOUS
10
105.955
20
-98.6573
11
105.955
21
-98.3573
0
LINE
8
BLACK
6
CONTINUOUS
10
105.955
20
-98.3573
11
107.455
21
-98.3573
0
LINE
8
BLACK
6
CONTINUOUS
10
107.455
20
-98.3573
11
107.455
21
-98.6573
0
LINE
8
BLACK
6
CONTINUOUS
10
99.0546
20
-98.1573
11
97.5546
21
-98.1573
0
LINE
8
BLACK
6
CONTINUOUS
10
97.5546
20
-98.1573
11
97.5546
21
-97.8573
0
LINE
8
BLACK
6
CONTINUOUS
10
97.5546
20
-97.8573
11
99.0546
21
-97.8573
0
LINE
8
BLACK
6
CONTINUOUS
10
99.0546
20
-97.8573
11
99.0546
21
-98.1573
0
LINE
8
BLACK
6
CONTINUOUS
10
107.455
20
-98.1573
11
105.955
21
-98.1573
0
LINE
8
BLACK
6
CONTINUOUS
10
105.955
20
-98.1573
11
105.955
21
-97.8573
0
LINE
8
BLACK
6
CONTINUOUS
10
105.955
20
-97.8573
11
107.455
21
-97.8573
0
LINE
8
BLACK
6
CONTINUOUS
10
107.455
20
-97.8573
11
107.455
21
-98.1573
0
LINE
8
BLACK
6
CONTINUOUS
10
109
20
-97.81
11
108
21
-97.81
0
LINE
8
BLACK
6
CONTINUOUS
10
108
20
-97.81
11
108
21
-96.99
0
LINE
8
BLACK
6
CONTINUOUS
10
108
20
-96.99
11
109
21
-96.99
0
LINE
8
BLACK
6
CONTINUOUS
10
109
20
-96.99
11
109
21
-97.81
0
LINE
8
BLACK
6
CONTINUOUS
10
116.006
20
-97.311
11
115.006
21
-97.311
0
LINE
8
BLACK
6
CONTINUOUS
10
115.006
20
-97.311
11
115.006
21
-96.491
0
LINE
8
BLACK
6
CONTINUOUS
10
115.006
20
-96.491
11
116.006
21
-96.491
0
LINE
8
BLACK
6
CONTINUOUS
10
116.006
20
-96.491
11
116.006
21
-97.311
0
LINE
8
BLACK
6
CONTINUOUS
10
100.405
20
-97.3073
11
100.105
21
-97.3073
0
LINE
8
BLACK
6
CONTINUOUS
10
100.105
20
-97.3073
11
100.105
21
-95.8073
0
LINE
8
BLACK
6
CONTINUOUS
10
100.105
20
-95.8073
11
100.405
21
-95.8073
0
LINE
8
BLACK
6
CONTINUOUS
10
100.405
20
-95.8073
11
100.405
21
-97.3073
0
LINE
8
BLACK
6
CONTINUOUS
10
101.405
20
-97.3073
11
101.105
21
-97.3073
0
LINE
8
BLACK
6
CONTINUOUS
10
101.105
20
-97.3073
11
101.105
21
-95.8073
0
LINE
8
BLACK
6
CONTINUOUS
10
101.105
20
-95.8073
11
101.405
21
-95.8073
0
LINE
8
BLACK
6
CONTINUOUS
10
101.405
20
-95.8073
11
101.405
21
-97.3073
0
LINE
8
BLACK
6
CONTINUOUS
10
102.405
20
-97.3073
11
102.105
21
-97.3073
0
LINE
8
BLACK
6
CONTINUOUS
10
102.105
20
-97.3073
11
102.105
21
-95.8073
0
LINE
8
BLACK
6
CONTINUOUS
10
102.105
20
-95.8073
11
102.405
21
-95.8073
0
LINE
8
BLACK
6
CONTINUOUS
10
102.405
20
-95.8073
11
102.405
21
-97.3073
0
LINE
8
BLACK
6
CONTINUOUS
10
103.405
20
-97.3073
11
103.105
21
-97.3073
0
LINE
8
BLACK
6
CONTINUOUS
10
103.105
20
-97.3073
11
103.105
21
-95.8073
0
LINE
8
BLACK
6
CONTINUOUS
10
103.105
20
-95.8073
11
103.405
21
-95.8073
0
LINE
8
BLACK
6
CONTINUOUS
10
103.405
20
-95.8073
11
103.405
21
-97.3073
0
LINE
8
BLACK
6
CONTINUOUS
10
104.405
20
-97.3073
11
104.105
21
-97.3073
0
LINE
8
BLACK
6
CONTINUOUS
10
104.105
20
-97.3073
11
104.105
21
-95.8073
0
LINE
8
BLACK
6
CONTINUOUS
10
104.105
20
-95.8073
11
104.405
21
-95.8073
0
LINE
8
BLACK
6
CONTINUOUS
10
104.405
20
-95.8073
11
104.405
21
-97.3073
0
LINE
8
BLACK
6
CONTINUOUS
10
105.405
20
-97.3073
11
105.105
21
-97.3073
0
LINE
8
BLACK
6
CONTINUOUS
10
105.105
20
-97.3073
11
105.105
21
-95.8073
0
LINE
8
BLACK
6
CONTINUOUS
10
105.105
20
-95.8073
11
105.405
21
-95.8073
0
LINE
8
BLACK
6
CONTINUOUS
10
105.405
20
-95.8073
11
105.405
21
-97.3073
0
LINE
8
BLACK
6
CONTINUOUS
10
99.9046
20
-97.3073
11
99.6046
21
-97.3073
0
LINE
8
BLACK
6
CONTINUOUS
10
99.6046
20
-97.3073
11
99.6046
21
-95.8073
0
LINE
8
BLACK
6
CONTINUOUS
10
99.6046
20
-95.8073
11
99.9046
21
-95.8073
0
LINE
8
BLACK
6
CONTINUOUS
10
99.9046
20
-95.8073
11
99.9046
21
-97.3073
0
LINE
8
BLACK
6
CONTINUOUS
10
44.315
20
-95.0375
11
43.315
21
-95.0375
0
LINE
8
BLACK
6
CONTINUOUS
10
43.315
20
-95.0375
11
43.315
21
-94.2175
0
LINE
8
BLACK
6
CONTINUOUS
10
43.315
20
-94.2175
11
44.315
21
-94.2175
0
LINE
8
BLACK
6
CONTINUOUS
10
44.315
20
-94.2175
11
44.315
21
-95.0375
0
LINE
8
BLACK
6
CONTINUOUS
10
42.791
20
-95.025
11
41.791
21
-95.025
0
LINE
8
BLACK
6
CONTINUOUS
10
41.791
20
-95.025
11
41.791
21
-94.205
0
LINE
8
BLACK
6
CONTINUOUS
10
41.791
20
-94.205
11
42.791
21
-94.205
0
LINE
8
BLACK
6
CONTINUOUS
10
42.791
20
-94.205
11
42.791
21
-95.025
0
LINE
8
BLACK
6
CONTINUOUS
10
41.267
20
-95.025
11
40.267
21
-95.025
0
LINE
8
BLACK
6
CONTINUOUS
10
40.267
20
-95.025
11
40.267
21
-94.205
0
LINE
8
BLACK
6
CONTINUOUS
10
40.267
20
-94.205
11
41.267
21
-94.205
0
LINE
8
BLACK
6
CONTINUOUS
10
41.267
20
-94.205
11
41.267
21
-95.025
0
LINE
8
BLACK
6
CONTINUOUS
10
35.1075
20
-94.9995
11
34.1075
21
-94.9995
0
LINE
8
BLACK
6
CONTINUOUS
10
34.1075
20
-94.9995
11
34.1075
21
-94.1795
0
LINE
8
BLACK
6
CONTINUOUS
10
34.1075
20
-94.1795
11
35.1075
21
-94.1795
0
LINE
8
BLACK
6
CONTINUOUS
10
35.1075
20
-94.1795
11
35.1075
21
-94.9995
0
LINE
8
BLACK
6
CONTINUOUS
10
36.6315
20
-94.9615
11
35.6315
21
-94.9615
0
LINE
8
BLACK
6
CONTINUOUS
10
35.6315
20
-94.9615
11
35.6315
21
-94.1415
0
LINE
8
BLACK
6
CONTINUOUS
10
35.6315
20
-94.1415
11
36.6315
21
-94.1415
0
LINE
8
BLACK
6
CONTINUOUS
10
36.6315
20
-94.1415
11
36.6315
21
-94.9615
0
LINE
8
BLACK
6
CONTINUOUS
10
33.5835
20
-94.9615
11
32.5835
21
-94.9615
0
LINE
8
BLACK
6
CONTINUOUS
10
32.5835
20
-94.9615
11
32.5835
21
-94.1415
0
LINE
8
BLACK
6
CONTINUOUS
10
32.5835
20
-94.1415
11
33.5835
21
-94.1415
0
LINE
8
BLACK
6
CONTINUOUS
10
33.5835
20
-94.1415
11
33.5835
21
-94.9615
0
LINE
8
BLACK
6
CONTINUOUS
10
98.5372
20
-94.75
11
97.3172
21
-94.75
0
LINE
8
BLACK
6
CONTINUOUS
10
97.3172
20
-94.75
11
97.3172
21
-92.95
0
LINE
8
BLACK
6
CONTINUOUS
10
97.3172
20
-92.95
11
98.5372
21
-92.95
0
LINE
8
BLACK
6
CONTINUOUS
10
98.5372
20
-92.95
11
98.5372
21
-94.75
0
LINE
8
BLACK
6
CONTINUOUS
10
101.397
20
-94.75
11
100.177
21
-94.75
0
LINE
8
BLACK
6
CONTINUOUS
10
100.177
20
-94.75
11
100.177
21
-92.95
0
LINE
8
BLACK
6
CONTINUOUS
10
100.177
20
-92.95
11
101.397
21
-92.95
0
LINE
8
BLACK
6
CONTINUOUS
10
101.397
20
-92.95
11
101.397
21
-94.75
0
LINE
8
BLACK
6
CONTINUOUS
10
79.113
20
-94.136
11
78.113
21
-94.136
0
LINE
8
BLACK
6
CONTINUOUS
10
78.113
20
-94.136
11
78.113
21
-93.316
0
LINE
8
BLACK
6
CONTINUOUS
10
78.113
20
-93.316
11
79.113
21
-93.316
0
LINE
8
BLACK
6
CONTINUOUS
10
79.113
20
-93.316
11
79.113
21
-94.136
0
LINE
8
BLACK
6
CONTINUOUS
10
77.5255
20
-94.136
11
76.5255
21
-94.136
0
LINE
8
BLACK
6
CONTINUOUS
10
76.5255
20
-94.136
11
76.5255
21
-93.316
0
LINE
8
BLACK
6
CONTINUOUS
10
76.5255
20
-93.316
11
77.5255
21
-93.316
0
LINE
8
BLACK
6
CONTINUOUS
10
77.5255
20
-93.316
11
77.5255
21
-94.136
0
LINE
8
BLACK
6
CONTINUOUS
10
75.938
20
-94.085
11
74.938
21
-94.085
0
LINE
8
BLACK
6
CONTINUOUS
10
74.938
20
-94.085
11
74.938
21
-93.265
0
LINE
8
BLACK
6
CONTINUOUS
10
74.938
20
-93.265
11
75.938
21
-93.265
0
LINE
8
BLACK
6
CONTINUOUS
10
75.938
20
-93.265
11
75.938
21
-94.085
0
LINE
8
BLACK
6
CONTINUOUS
10
110.926
20
-93.8196
11
110.106
21
-93.8196
0
LINE
8
BLACK
6
CONTINUOUS
10
110.106
20
-93.8196
11
110.106
21
-92.8196
0
LINE
8
BLACK
6
CONTINUOUS
10
110.106
20
-92.8196
11
110.926
21
-92.8196
0
LINE
8
BLACK
6
CONTINUOUS
10
110.926
20
-92.8196
11
110.926
21
-93.8196
0
LINE
8
BLACK
6
CONTINUOUS
10
112.526
20
-93.8196
11
111.706
21
-93.8196
0
LINE
8
BLACK
6
CONTINUOUS
10
111.706
20
-93.8196
11
111.706
21
-92.8196
0
LINE
8
BLACK
6
CONTINUOUS
10
111.706
20
-92.8196
11
112.526
21
-92.8196
0
LINE
8
BLACK
6
CONTINUOUS
10
112.526
20
-92.8196
11
112.526
21
-93.8196
0
LINE
8
BLACK
6
CONTINUOUS
10
44.315
20
-93.4375
11
43.315
21
-93.4375
0
LINE
8
BLACK
6
CONTINUOUS
10
43.315
20
-93.4375
11
43.315
21
-92.6175
0
LINE
8
BLACK
6
CONTINUOUS
10
43.315
20
-92.6175
11
44.315
21
-92.6175
0
LINE
8
BLACK
6
CONTINUOUS
10
44.315
20
-92.6175
11
44.315
21
-93.4375
0
LINE
8
BLACK
6
CONTINUOUS
10
41.267
20
-93.425
11
40.267
21
-93.425
0
LINE
8
BLACK
6
CONTINUOUS
10
40.267
20
-93.425
11
40.267
21
-92.605
0
LINE
8
BLACK
6
CONTINUOUS
10
40.267
20
-92.605
11
41.267
21
-92.605
0
LINE
8
BLACK
6
CONTINUOUS
10
41.267
20
-92.605
11
41.267
21
-93.425
0
LINE
8
BLACK
6
CONTINUOUS
10
42.791
20
-93.425
11
41.791
21
-93.425
0
LINE
8
BLACK
6
CONTINUOUS
10
41.791
20
-93.425
11
41.791
21
-92.605
0
LINE
8
BLACK
6
CONTINUOUS
10
41.791
20
-92.605
11
42.791
21
-92.605
0
LINE
8
BLACK
6
CONTINUOUS
10
42.791
20
-92.605
11
42.791
21
-93.425
0
LINE
8
BLACK
6
CONTINUOUS
10
35.1075
20
-93.3995
11
34.1075
21
-93.3995
0
LINE
8
BLACK
6
CONTINUOUS
10
34.1075
20
-93.3995
11
34.1075
21
-92.5795
0
LINE
8
BLACK
6
CONTINUOUS
10
34.1075
20
-92.5795
11
35.1075
21
-92.5795
0
LINE
8
BLACK
6
CONTINUOUS
10
35.1075
20
-92.5795
11
35.1075
21
-93.3995
0
LINE
8
BLACK
6
CONTINUOUS
10
33.5835
20
-93.3615
11
32.5835
21
-93.3615
0
LINE
8
BLACK
6
CONTINUOUS
10
32.5835
20
-93.3615
11
32.5835
21
-92.5415
0
LINE
8
BLACK
6
CONTINUOUS
10
32.5835
20
-92.5415
11
33.5835
21
-92.5415
0
LINE
8
BLACK
6
CONTINUOUS
10
33.5835
20
-92.5415
11
33.5835
21
-93.3615
0
LINE
8
BLACK
6
CONTINUOUS
10
36.6315
20
-93.3615
11
35.6315
21
-93.3615
0
LINE
8
BLACK
6
CONTINUOUS
10
35.6315
20
-93.3615
11
35.6315
21
-92.5415
0
LINE
8
BLACK
6
CONTINUOUS
10
35.6315
20
-92.5415
11
36.6315
21
-92.5415
0
LINE
8
BLACK
6
CONTINUOUS
10
36.6315
20
-92.5415
11
36.6315
21
-93.3615
0
LINE
8
BLACK
6
CONTINUOUS
10
104.888
20
-93.0812
11
103.088
21
-93.0812
0
LINE
8
BLACK
6
CONTINUOUS
10
103.088
20
-93.0812
11
103.088
21
-91.8612
0
LINE
8
BLACK
6
CONTINUOUS
10
103.088
20
-91.8612
11
104.888
21
-91.8612
0
LINE
8
BLACK
6
CONTINUOUS
10
104.888
20
-91.8612
11
104.888
21
-93.0812
0
LINE
8
BLACK
6
CONTINUOUS
10
79.113
20
-92.536
11
78.113
21
-92.536
0
LINE
8
BLACK
6
CONTINUOUS
10
78.113
20
-92.536
11
78.113
21
-91.716
0
LINE
8
BLACK
6
CONTINUOUS
10
78.113
20
-91.716
11
79.113
21
-91.716
0
LINE
8
BLACK
6
CONTINUOUS
10
79.113
20
-91.716
11
79.113
21
-92.536
0
LINE
8
BLACK
6
CONTINUOUS
10
77.5255
20
-92.536
11
76.5255
21
-92.536
0
LINE
8
BLACK
6
CONTINUOUS
10
76.5255
20
-92.536
11
76.5255
21
-91.716
0
LINE
8
BLACK
6
CONTINUOUS
10
76.5255
20
-91.716
11
77.5255
21
-91.716
0
LINE
8
BLACK
6
CONTINUOUS
10
77.5255
20
-91.716
11
77.5255
21
-92.536
0
LINE
8
BLACK
6
CONTINUOUS
10
75.938
20
-92.485
11
74.938
21
-92.485
0
LINE
8
BLACK
6
CONTINUOUS
10
74.938
20
-92.485
11
74.938
21
-91.665
0
LINE
8
BLACK
6
CONTINUOUS
10
74.938
20
-91.665
11
75.938
21
-91.665
0
LINE
8
BLACK
6
CONTINUOUS
10
75.938
20
-91.665
11
75.938
21
-92.485
0
LINE
8
BLACK
6
CONTINUOUS
10
71.0104
20
-92.2818
11
70.0104
21
-92.2818
0
LINE
8
BLACK
6
CONTINUOUS
10
70.0104
20
-92.2818
11
70.0104
21
-91.4618
0
LINE
8
BLACK
6
CONTINUOUS
10
70.0104
20
-91.4618
11
71.0104
21
-91.4618
0
LINE
8
BLACK
6
CONTINUOUS
10
71.0104
20
-91.4618
11
71.0104
21
-92.2818
0
LINE
8
BLACK
6
CONTINUOUS
10
67.8218
20
-92.2702
11
67.0018
21
-92.2702
0
LINE
8
BLACK
6
CONTINUOUS
10
67.0018
20
-92.2702
11
67.0018
21
-91.2702
0
LINE
8
BLACK
6
CONTINUOUS
10
67.0018
20
-91.2702
11
67.8218
21
-91.2702
0
LINE
8
BLACK
6
CONTINUOUS
10
67.8218
20
-91.2702
11
67.8218
21
-92.2702
0
LINE
8
BLACK
6
CONTINUOUS
10
69.4218
20
-92.2702
11
68.6018
21
-92.2702
0
LINE
8
BLACK
6
CONTINUOUS
10
68.6018
20
-92.2702
11
68.6018
21
-91.2702
0
LINE
8
BLACK
6
CONTINUOUS
10
68.6018
20
-91.2702
11
69.4218
21
-91.2702
0
LINE
8
BLACK
6
CONTINUOUS
10
69.4218
20
-91.2702
11
69.4218
21
-92.2702
0
LINE
8
BLACK
6
CONTINUOUS
10
106.294
20
-92.1786
11
105.644
21
-92.1786
0
LINE
8
BLACK
6
CONTINUOUS
10
105.644
20
-92.1786
11
105.644
21
-91.6036
0
LINE
8
BLACK
6
CONTINUOUS
10
105.644
20
-91.6036
11
106.294
21
-91.6036
0
LINE
8
BLACK
6
CONTINUOUS
10
106.294
20
-91.6036
11
106.294
21
-92.1786
0
LINE
8
BLACK
6
CONTINUOUS
10
42.7645
20
-91.7495
11
41.9445
21
-91.7495
0
LINE
8
BLACK
6
CONTINUOUS
10
41.9445
20
-91.7495
11
41.9445
21
-90.7495
0
LINE
8
BLACK
6
CONTINUOUS
10
41.9445
20
-90.7495
11
42.7645
21
-90.7495
0
LINE
8
BLACK
6
CONTINUOUS
10
42.7645
20
-90.7495
11
42.7645
21
-91.7495
0
LINE
8
BLACK
6
CONTINUOUS
10
41.1645
20
-91.7495
11
40.3445
21
-91.7495
0
LINE
8
BLACK
6
CONTINUOUS
10
40.3445
20
-91.7495
11
40.3445
21
-90.7495
0
LINE
8
BLACK
6
CONTINUOUS
10
40.3445
20
-90.7495
11
41.1645
21
-90.7495
0
LINE
8
BLACK
6
CONTINUOUS
10
41.1645
20
-90.7495
11
41.1645
21
-91.7495
0
LINE
8
BLACK
6
CONTINUOUS
10
106.294
20
-91.4036
11
105.644
21
-91.4036
0
LINE
8
BLACK
6
CONTINUOUS
10
105.644
20
-91.4036
11
105.644
21
-90.8286
0
LINE
8
BLACK
6
CONTINUOUS
10
105.644
20
-90.8286
11
106.294
21
-90.8286
0
LINE
8
BLACK
6
CONTINUOUS
10
106.294
20
-90.8286
11
106.294
21
-91.4036
0
LINE
8
BLACK
6
CONTINUOUS
10
75.975
20
-90.797
11
75.155
21
-90.797
0
LINE
8
BLACK
6
CONTINUOUS
10
75.155
20
-90.797
11
75.155
21
-89.797
0
LINE
8
BLACK
6
CONTINUOUS
10
75.155
20
-89.797
11
75.975
21
-89.797
0
LINE
8
BLACK
6
CONTINUOUS
10
75.975
20
-89.797
11
75.975
21
-90.797
0
LINE
8
BLACK
6
CONTINUOUS
10
77.575
20
-90.797
11
76.755
21
-90.797
0
LINE
8
BLACK
6
CONTINUOUS
10
76.755
20
-90.797
11
76.755
21
-89.797
0
LINE
8
BLACK
6
CONTINUOUS
10
76.755
20
-89.797
11
77.575
21
-89.797
0
LINE
8
BLACK
6
CONTINUOUS
10
77.575
20
-89.797
11
77.575
21
-90.797
0
LINE
8
BLACK
6
CONTINUOUS
10
71.0104
20
-90.6818
11
70.0104
21
-90.6818
0
LINE
8
BLACK
6
CONTINUOUS
10
70.0104
20
-90.6818
11
70.0104
21
-89.8618
0
LINE
8
BLACK
6
CONTINUOUS
10
70.0104
20
-89.8618
11
71.0104
21
-89.8618
0
LINE
8
BLACK
6
CONTINUOUS
10
71.0104
20
-89.8618
11
71.0104
21
-90.6818
0
LINE
8
BLACK
6
CONTINUOUS
10
69.4218
20
-90.67
11
68.6018
21
-90.67
0
LINE
8
BLACK
6
CONTINUOUS
10
68.6018
20
-90.67
11
68.6018
21
-89.67
0
LINE
8
BLACK
6
CONTINUOUS
10
68.6018
20
-89.67
11
69.4218
21
-89.67
0
LINE
8
BLACK
6
CONTINUOUS
10
69.4218
20
-89.67
11
69.4218
21
-90.67
0
LINE
8
BLACK
6
CONTINUOUS
10
67.8218
20
-90.67
11
67.0018
21
-90.67
0
LINE
8
BLACK
6
CONTINUOUS
10
67.0018
20
-90.67
11
67.0018
21
-89.67
0
LINE
8
BLACK
6
CONTINUOUS
10
67.0018
20
-89.67
11
67.8218
21
-89.67
0
LINE
8
BLACK
6
CONTINUOUS
10
67.8218
20
-89.67
11
67.8218
21
-90.67
0
LINE
8
BLACK
6
CONTINUOUS
10
104.888
20
-90.2212
11
103.088
21
-90.2212
0
LINE
8
BLACK
6
CONTINUOUS
10
103.088
20
-90.2212
11
103.088
21
-89.0012
0
LINE
8
BLACK
6
CONTINUOUS
10
103.088
20
-89.0012
11
104.888
21
-89.0012
0
LINE
8
BLACK
6
CONTINUOUS
10
104.888
20
-89.0012
11
104.888
21
-90.2212
0
LINE
8
BLACK
6
CONTINUOUS
10
101.4
20
-90
11
97.9
21
-90
0
LINE
8
BLACK
6
CONTINUOUS
10
97.9
20
-90
11
97.9
21
-88.4
0
LINE
8
BLACK
6
CONTINUOUS
10
97.9
20
-88.4
11
101.4
21
-88.4
0
LINE
8
BLACK
6
CONTINUOUS
10
101.4
20
-88.4
11
101.4
21
-90
0
LINE
8
BLACK
6
CONTINUOUS
10
96
20
-90
11
92.5
21
-90
0
LINE
8
BLACK
6
CONTINUOUS
10
92.5
20
-90
11
92.5
21
-88.4
0
LINE
8
BLACK
6
CONTINUOUS
10
92.5
20
-88.4
11
96
21
-88.4
0
LINE
8
BLACK
6
CONTINUOUS
10
96
20
-88.4
11
96
21
-90
0
LINE
8
BLACK
6
CONTINUOUS
10
69.0916
20
-89.0952
11
68.2716
21
-89.0952
0
LINE
8
BLACK
6
CONTINUOUS
10
68.2716
20
-89.0952
11
68.2716
21
-88.0952
0
LINE
8
BLACK
6
CONTINUOUS
10
68.2716
20
-88.0952
11
69.0916
21
-88.0952
0
LINE
8
BLACK
6
CONTINUOUS
10
69.0916
20
-88.0952
11
69.0916
21
-89.0952
0
LINE
8
BLACK
6
CONTINUOUS
10
67.4916
20
-89.0952
11
66.6716
21
-89.0952
0
LINE
8
BLACK
6
CONTINUOUS
10
66.6716
20
-89.0952
11
66.6716
21
-88.0952
0
LINE
8
BLACK
6
CONTINUOUS
10
66.6716
20
-88.0952
11
67.4916
21
-88.0952
0
LINE
8
BLACK
6
CONTINUOUS
10
67.4916
20
-88.0952
11
67.4916
21
-89.0952
0
LINE
8
BLACK
6
CONTINUOUS
10
31.3345
20
-88.1935
11
30.5145
21
-88.1935
0
LINE
8
BLACK
6
CONTINUOUS
10
30.5145
20
-88.1935
11
30.5145
21
-87.1935
0
LINE
8
BLACK
6
CONTINUOUS
10
30.5145
20
-87.1935
11
31.3345
21
-87.1935
0
LINE
8
BLACK
6
CONTINUOUS
10
31.3345
20
-87.1935
11
31.3345
21
-88.1935
0
LINE
8
BLACK
6
CONTINUOUS
10
32.9345
20
-88.1935
11
32.1145
21
-88.1935
0
LINE
8
BLACK
6
CONTINUOUS
10
32.1145
20
-88.1935
11
32.1145
21
-87.1935
0
LINE
8
BLACK
6
CONTINUOUS
10
32.1145
20
-87.1935
11
32.9345
21
-87.1935
0
LINE
8
BLACK
6
CONTINUOUS
10
32.9345
20
-87.1935
11
32.9345
21
-88.1935
0
LINE
8
BLACK
6
CONTINUOUS
10
63.4483
20
-86.9586
11
61.9983
21
-86.9586
0
LINE
8
BLACK
6
CONTINUOUS
10
61.9983
20
-86.9586
11
61.9983
21
-86.5086
0
LINE
8
BLACK
6
CONTINUOUS
10
61.9983
20
-86.5086
11
63.4483
21
-86.5086
0
LINE
8
BLACK
6
CONTINUOUS
10
63.4483
20
-86.5086
11
63.4483
21
-86.9586
0
LINE
8
BLACK
6
CONTINUOUS
10
57.5483
20
-86.9586
11
56.0983
21
-86.9586
0
LINE
8
BLACK
6
CONTINUOUS
10
56.0983
20
-86.9586
11
56.0983
21
-86.5086
0
LINE
8
BLACK
6
CONTINUOUS
10
56.0983
20
-86.5086
11
57.5483
21
-86.5086
0
LINE
8
BLACK
6
CONTINUOUS
10
57.5483
20
-86.5086
11
57.5483
21
-86.9586
0
LINE
8
BLACK
6
CONTINUOUS
10
42.791
20
-86.592
11
41.791
21
-86.592
0
LINE
8
BLACK
6
CONTINUOUS
10
41.791
20
-86.592
11
41.791
21
-85.772
0
LINE
8
BLACK
6
CONTINUOUS
10
41.791
20
-85.772
11
42.791
21
-85.772
0
LINE
8
BLACK
6
CONTINUOUS
10
42.791
20
-85.772
11
42.791
21
-86.592
0
LINE
8
BLACK
6
CONTINUOUS
10
44.315
20
-86.5795
11
43.315
21
-86.5795
0
LINE
8
BLACK
6
CONTINUOUS
10
43.315
20
-86.5795
11
43.315
21
-85.7595
0
LINE
8
BLACK
6
CONTINUOUS
10
43.315
20
-85.7595
11
44.315
21
-85.7595
0
LINE
8
BLACK
6
CONTINUOUS
10
44.315
20
-85.7595
11
44.315
21
-86.5795
0
LINE
8
BLACK
6
CONTINUOUS
10
41.267
20
-86.5795
11
40.267
21
-86.5795
0
LINE
8
BLACK
6
CONTINUOUS
10
40.267
20
-86.5795
11
40.267
21
-85.7595
0
LINE
8
BLACK
6
CONTINUOUS
10
40.267
20
-85.7595
11
41.267
21
-85.7595
0
LINE
8
BLACK
6
CONTINUOUS
10
41.267
20
-85.7595
11
41.267
21
-86.5795
0
LINE
8
BLACK
6
CONTINUOUS
10
63.4483
20
-86.3086
11
61.9983
21
-86.3086
0
LINE
8
BLACK
6
CONTINUOUS
10
61.9983
20
-86.3086
11
61.9983
21
-85.8586
0
LINE
8
BLACK
6
CONTINUOUS
10
61.9983
20
-85.8586
11
63.4483
21
-85.8586
0
LINE
8
BLACK
6
CONTINUOUS
10
63.4483
20
-85.8586
11
63.4483
21
-86.3086
0
LINE
8
BLACK
6
CONTINUOUS
10
57.5483
20
-86.3086
11
56.0983
21
-86.3086
0
LINE
8
BLACK
6
CONTINUOUS
10
56.0983
20
-86.3086
11
56.0983
21
-85.8586
0
LINE
8
BLACK
6
CONTINUOUS
10
56.0983
20
-85.8586
11
57.5483
21
-85.8586
0
LINE
8
BLACK
6
CONTINUOUS
10
57.5483
20
-85.8586
11
57.5483
21
-86.3086
0
LINE
8
BLACK
6
CONTINUOUS
10
104.701
20
-86.177
11
104.126
21
-86.177
0
LINE
8
BLACK
6
CONTINUOUS
10
104.126
20
-86.177
11
104.126
21
-85.527
0
LINE
8
BLACK
6
CONTINUOUS
10
104.126
20
-85.527
11
104.701
21
-85.527
0
LINE
8
BLACK
6
CONTINUOUS
10
104.701
20
-85.527
11
104.701
21
-86.177
0
LINE
8
BLACK
6
CONTINUOUS
10
103.926
20
-86.177
11
103.351
21
-86.177
0
LINE
8
BLACK
6
CONTINUOUS
10
103.351
20
-86.177
11
103.351
21
-85.527
0
LINE
8
BLACK
6
CONTINUOUS
10
103.351
20
-85.527
11
103.926
21
-85.527
0
LINE
8
BLACK
6
CONTINUOUS
10
103.926
20
-85.527
11
103.926
21
-86.177
0
LINE
8
BLACK
6
CONTINUOUS
10
63.4483
20
-85.6586
11
61.9983
21
-85.6586
0
LINE
8
BLACK
6
CONTINUOUS
10
61.9983
20
-85.6586
11
61.9983
21
-85.2086
0
LINE
8
BLACK
6
CONTINUOUS
10
61.9983
20
-85.2086
11
63.4483
21
-85.2086
0
LINE
8
BLACK
6
CONTINUOUS
10
63.4483
20
-85.2086
11
63.4483
21
-85.6586
0
LINE
8
BLACK
6
CONTINUOUS
10
57.5483
20
-85.6586
11
56.0983
21
-85.6586
0
LINE
8
BLACK
6
CONTINUOUS
10
56.0983
20
-85.6586
11
56.0983
21
-85.2086
0
LINE
8
BLACK
6
CONTINUOUS
10
56.0983
20
-85.2086
11
57.5483
21
-85.2086
0
LINE
8
BLACK
6
CONTINUOUS
10
57.5483
20
-85.2086
11
57.5483
21
-85.6586
0
LINE
8
BLACK
6
CONTINUOUS
10
76.065
20
-85.627
11
75.065
21
-85.627
0
LINE
8
BLACK
6
CONTINUOUS
10
75.065
20
-85.627
11
75.065
21
-84.807
0
LINE
8
BLACK
6
CONTINUOUS
10
75.065
20
-84.807
11
76.065
21
-84.807
0
LINE
8
BLACK
6
CONTINUOUS
10
76.065
20
-84.807
11
76.065
21
-85.627
0
LINE
8
BLACK
6
CONTINUOUS
10
79.113
20
-85.576
11
78.113
21
-85.576
0
LINE
8
BLACK
6
CONTINUOUS
10
78.113
20
-85.576
11
78.113
21
-84.756
0
LINE
8
BLACK
6
CONTINUOUS
10
78.113
20
-84.756
11
79.113
21
-84.756
0
LINE
8
BLACK
6
CONTINUOUS
10
79.113
20
-84.756
11
79.113
21
-85.576
0
LINE
8
BLACK
6
CONTINUOUS
10
77.589
20
-85.538
11
76.589
21
-85.538
0
LINE
8
BLACK
6
CONTINUOUS
10
76.589
20
-85.538
11
76.589
21
-84.718
0
LINE
8
BLACK
6
CONTINUOUS
10
76.589
20
-84.718
11
77.589
21
-84.718
0
LINE
8
BLACK
6
CONTINUOUS
10
77.589
20
-84.718
11
77.589
21
-85.538
0
LINE
8
BLACK
6
CONTINUOUS
10
57.5483
20
-85.0086
11
56.0983
21
-85.0086
0
LINE
8
BLACK
6
CONTINUOUS
10
56.0983
20
-85.0086
11
56.0983
21
-84.5586
0
LINE
8
BLACK
6
CONTINUOUS
10
56.0983
20
-84.5586
11
57.5483
21
-84.5586
0
LINE
8
BLACK
6
CONTINUOUS
10
57.5483
20
-84.5586
11
57.5483
21
-85.0086
0
LINE
8
BLACK
6
CONTINUOUS
10
63.4483
20
-85.0086
11
61.9983
21
-85.0086
0
LINE
8
BLACK
6
CONTINUOUS
10
61.9983
20
-85.0086
11
61.9983
21
-84.5586
0
LINE
8
BLACK
6
CONTINUOUS
10
61.9983
20
-84.5586
11
63.4483
21
-84.5586
0
LINE
8
BLACK
6
CONTINUOUS
10
63.4483
20
-84.5586
11
63.4483
21
-85.0086
0
LINE
8
BLACK
6
CONTINUOUS
10
42.791
20
-84.992
11
41.791
21
-84.992
0
LINE
8
BLACK
6
CONTINUOUS
10
41.791
20
-84.992
11
41.791
21
-84.172
0
LINE
8
BLACK
6
CONTINUOUS
10
41.791
20
-84.172
11
42.791
21
-84.172
0
LINE
8
BLACK
6
CONTINUOUS
10
42.791
20
-84.172
11
42.791
21
-84.992
0
LINE
8
BLACK
6
CONTINUOUS
10
41.267
20
-84.9795
11
40.267
21
-84.9795
0
LINE
8
BLACK
6
CONTINUOUS
10
40.267
20
-84.9795
11
40.267
21
-84.1595
0
LINE
8
BLACK
6
CONTINUOUS
10
40.267
20
-84.1595
11
41.267
21
-84.1595
0
LINE
8
BLACK
6
CONTINUOUS
10
41.267
20
-84.1595
11
41.267
21
-84.9795
0
LINE
8
BLACK
6
CONTINUOUS
10
44.315
20
-84.9795
11
43.315
21
-84.9795
0
LINE
8
BLACK
6
CONTINUOUS
10
43.315
20
-84.9795
11
43.315
21
-84.1595
0
LINE
8
BLACK
6
CONTINUOUS
10
43.315
20
-84.1595
11
44.315
21
-84.1595
0
LINE
8
BLACK
6
CONTINUOUS
10
44.315
20
-84.1595
11
44.315
21
-84.9795
0
LINE
8
BLACK
6
CONTINUOUS
10
33.049
20
-84.9423
11
32.229
21
-84.9423
0
LINE
8
BLACK
6
CONTINUOUS
10
32.229
20
-84.9423
11
32.229
21
-83.9423
0
LINE
8
BLACK
6
CONTINUOUS
10
32.229
20
-83.9423
11
33.049
21
-83.9423
0
LINE
8
BLACK
6
CONTINUOUS
10
33.049
20
-83.9423
11
33.049
21
-84.9423
0
LINE
8
BLACK
6
CONTINUOUS
10
31.449
20
-84.9423
11
30.629
21
-84.9423
0
LINE
8
BLACK
6
CONTINUOUS
10
30.629
20
-84.9423
11
30.629
21
-83.9423
0
LINE
8
BLACK
6
CONTINUOUS
10
30.629
20
-83.9423
11
31.449
21
-83.9423
0
LINE
8
BLACK
6
CONTINUOUS
10
31.449
20
-83.9423
11
31.449
21
-84.9423
0
LINE
8
BLACK
6
CONTINUOUS
10
104.024
20
-84.8216
11
102.804
21
-84.8216
0
LINE
8
BLACK
6
CONTINUOUS
10
102.804
20
-84.8216
11
102.804
21
-83.0216
0
LINE
8
BLACK
6
CONTINUOUS
10
102.804
20
-83.0216
11
104.024
21
-83.0216
0
LINE
8
BLACK
6
CONTINUOUS
10
104.024
20
-83.0216
11
104.024
21
-84.8216
0
LINE
8
BLACK
6
CONTINUOUS
10
106.884
20
-84.8216
11
105.664
21
-84.8216
0
LINE
8
BLACK
6
CONTINUOUS
10
105.664
20
-84.8216
11
105.664
21
-83.0216
0
LINE
8
BLACK
6
CONTINUOUS
10
105.664
20
-83.0216
11
106.884
21
-83.0216
0
LINE
8
BLACK
6
CONTINUOUS
10
106.884
20
-83.0216
11
106.884
21
-84.8216
0
LINE
8
BLACK
6
CONTINUOUS
10
57.5483
20
-84.3586
11
56.0983
21
-84.3586
0
LINE
8
BLACK
6
CONTINUOUS
10
56.0983
20
-84.3586
11
56.0983
21
-83.9086
0
LINE
8
BLACK
6
CONTINUOUS
10
56.0983
20
-83.9086
11
57.5483
21
-83.9086
0
LINE
8
BLACK
6
CONTINUOUS
10
57.5483
20
-83.9086
11
57.5483
21
-84.3586
0
LINE
8
BLACK
6
CONTINUOUS
10
63.4483
20
-84.3586
11
61.9983
21
-84.3586
0
LINE
8
BLACK
6
CONTINUOUS
10
61.9983
20
-84.3586
11
61.9983
21
-83.9086
0
LINE
8
BLACK
6
CONTINUOUS
10
61.9983
20
-83.9086
11
63.4483
21
-83.9086
0
LINE
8
BLACK
6
CONTINUOUS
10
63.4483
20
-83.9086
11
63.4483
21
-84.3586
0
LINE
8
BLACK
6
CONTINUOUS
10
98.6896
20
-84.212
11
97.4696
21
-84.212
0
LINE
8
BLACK
6
CONTINUOUS
10
97.4696
20
-84.212
11
97.4696
21
-82.412
0
LINE
8
BLACK
6
CONTINUOUS
10
97.4696
20
-82.412
11
98.6896
21
-82.412
0
LINE
8
BLACK
6
CONTINUOUS
10
98.6896
20
-82.412
11
98.6896
21
-84.212
0
LINE
8
BLACK
6
CONTINUOUS
10
101.55
20
-84.212
11
100.33
21
-84.212
0
LINE
8
BLACK
6
CONTINUOUS
10
100.33
20
-84.212
11
100.33
21
-82.412
0
LINE
8
BLACK
6
CONTINUOUS
10
100.33
20
-82.412
11
101.55
21
-82.412
0
LINE
8
BLACK
6
CONTINUOUS
10
101.55
20
-82.412
11
101.55
21
-84.212
0
LINE
8
BLACK
6
CONTINUOUS
10
76.065
20
-84.027
11
75.065
21
-84.027
0
LINE
8
BLACK
6
CONTINUOUS
10
75.065
20
-84.027
11
75.065
21
-83.207
0
LINE
8
BLACK
6
CONTINUOUS
10
75.065
20
-83.207
11
76.065
21
-83.207
0
LINE
8
BLACK
6
CONTINUOUS
10
76.065
20
-83.207
11
76.065
21
-84.027
0
LINE
8
BLACK
6
CONTINUOUS
10
79.113
20
-83.976
11
78.113
21
-83.976
0
LINE
8
BLACK
6
CONTINUOUS
10
78.113
20
-83.976
11
78.113
21
-83.156
0
LINE
8
BLACK
6
CONTINUOUS
10
78.113
20
-83.156
11
79.113
21
-83.156
0
LINE
8
BLACK
6
CONTINUOUS
10
79.113
20
-83.156
11
79.113
21
-83.976
0
LINE
8
BLACK
6
CONTINUOUS
10
77.589
20
-83.938
11
76.589
21
-83.938
0
LINE
8
BLACK
6
CONTINUOUS
10
76.589
20
-83.938
11
76.589
21
-83.118
0
LINE
8
BLACK
6
CONTINUOUS
10
76.589
20
-83.118
11
77.589
21
-83.118
0
LINE
8
BLACK
6
CONTINUOUS
10
77.589
20
-83.118
11
77.589
21
-83.938
0
LINE
8
BLACK
6
CONTINUOUS
10
63.4483
20
-83.7086
11
61.9983
21
-83.7086
0
LINE
8
BLACK
6
CONTINUOUS
10
61.9983
20
-83.7086
11
61.9983
21
-83.2586
0
LINE
8
BLACK
6
CONTINUOUS
10
61.9983
20
-83.2586
11
63.4483
21
-83.2586
0
LINE
8
BLACK
6
CONTINUOUS
10
63.4483
20
-83.2586
11
63.4483
21
-83.7086
0
LINE
8
BLACK
6
CONTINUOUS
10
57.5483
20
-83.7086
11
56.0983
21
-83.7086
0
LINE
8
BLACK
6
CONTINUOUS
10
56.0983
20
-83.7086
11
56.0983
21
-83.2586
0
LINE
8
BLACK
6
CONTINUOUS
10
56.0983
20
-83.2586
11
57.5483
21
-83.2586
0
LINE
8
BLACK
6
CONTINUOUS
10
57.5483
20
-83.2586
11
57.5483
21
-83.7086
0
LINE
8
BLACK
6
CONTINUOUS
10
33.049
20
-83.4183
11
32.229
21
-83.4183
0
LINE
8
BLACK
6
CONTINUOUS
10
32.229
20
-83.4183
11
32.229
21
-82.4183
0
LINE
8
BLACK
6
CONTINUOUS
10
32.229
20
-82.4183
11
33.049
21
-82.4183
0
LINE
8
BLACK
6
CONTINUOUS
10
33.049
20
-82.4183
11
33.049
21
-83.4183
0
LINE
8
BLACK
6
CONTINUOUS
10
31.449
20
-83.4183
11
30.629
21
-83.4183
0
LINE
8
BLACK
6
CONTINUOUS
10
30.629
20
-83.4183
11
30.629
21
-82.4183
0
LINE
8
BLACK
6
CONTINUOUS
10
30.629
20
-82.4183
11
31.449
21
-82.4183
0
LINE
8
BLACK
6
CONTINUOUS
10
31.449
20
-82.4183
11
31.449
21
-83.4183
0
LINE
8
BLACK
6
CONTINUOUS
10
63.4483
20
-83.0586
11
61.9983
21
-83.0586
0
LINE
8
BLACK
6
CONTINUOUS
10
61.9983
20
-83.0586
11
61.9983
21
-82.6086
0
LINE
8
BLACK
6
CONTINUOUS
10
61.9983
20
-82.6086
11
63.4483
21
-82.6086
0
LINE
8
BLACK
6
CONTINUOUS
10
63.4483
20
-82.6086
11
63.4483
21
-83.0586
0
LINE
8
BLACK
6
CONTINUOUS
10
57.5483
20
-83.0586
11
56.0983
21
-83.0586
0
LINE
8
BLACK
6
CONTINUOUS
10
56.0983
20
-83.0586
11
56.0983
21
-82.6086
0
LINE
8
BLACK
6
CONTINUOUS
10
56.0983
20
-82.6086
11
57.5483
21
-82.6086
0
LINE
8
BLACK
6
CONTINUOUS
10
57.5483
20
-82.6086
11
57.5483
21
-83.0586
0
LINE
8
BLACK
6
CONTINUOUS
10
77.5115
20
-82.161
11
76.6915
21
-82.161
0
LINE
8
BLACK
6
CONTINUOUS
10
76.6915
20
-82.161
11
76.6915
21
-81.161
0
LINE
8
BLACK
6
CONTINUOUS
10
76.6915
20
-81.161
11
77.5115
21
-81.161
0
LINE
8
BLACK
6
CONTINUOUS
10
77.5115
20
-81.161
11
77.5115
21
-82.161
0
LINE
8
BLACK
6
CONTINUOUS
10
75.9115
20
-82.161
11
75.0915
21
-82.161
0
LINE
8
BLACK
6
CONTINUOUS
10
75.0915
20
-82.161
11
75.0915
21
-81.161
0
LINE
8
BLACK
6
CONTINUOUS
10
75.0915
20
-81.161
11
75.9115
21
-81.161
0
LINE
8
BLACK
6
CONTINUOUS
10
75.9115
20
-81.161
11
75.9115
21
-82.161
0
LINE
8
BLACK
6
CONTINUOUS
10
33.0882
20
-81.9059
11
32.0882
21
-81.9059
0
LINE
8
BLACK
6
CONTINUOUS
10
32.0882
20
-81.9059
11
32.0882
21
-81.0859
0
LINE
8
BLACK
6
CONTINUOUS
10
32.0882
20
-81.0859
11
33.0882
21
-81.0859
0
LINE
8
BLACK
6
CONTINUOUS
10
33.0882
20
-81.0859
11
33.0882
21
-81.9059
0
LINE
8
BLACK
6
CONTINUOUS
10
100.268
20
-81.7066
11
99.693
21
-81.7066
0
LINE
8
BLACK
6
CONTINUOUS
10
99.693
20
-81.7066
11
99.693
21
-81.0566
0
LINE
8
BLACK
6
CONTINUOUS
10
99.693
20
-81.0566
11
100.268
21
-81.0566
0
LINE
8
BLACK
6
CONTINUOUS
10
100.268
20
-81.0566
11
100.268
21
-81.7066
0
LINE
8
BLACK
6
CONTINUOUS
10
101.043
20
-81.7066
11
100.468
21
-81.7066
0
LINE
8
BLACK
6
CONTINUOUS
10
100.468
20
-81.7066
11
100.468
21
-81.0566
0
LINE
8
BLACK
6
CONTINUOUS
10
100.468
20
-81.0566
11
101.043
21
-81.0566
0
LINE
8
BLACK
6
CONTINUOUS
10
101.043
20
-81.0566
11
101.043
21
-81.7066
0
LINE
8
BLACK
6
CONTINUOUS
10
63.4655
20
-81.653
11
62.6455
21
-81.653
0
LINE
8
BLACK
6
CONTINUOUS
10
62.6455
20
-81.653
11
62.6455
21
-80.653
0
LINE
8
BLACK
6
CONTINUOUS
10
62.6455
20
-80.653
11
63.4655
21
-80.653
0
LINE
8
BLACK
6
CONTINUOUS
10
63.4655
20
-80.653
11
63.4655
21
-81.653
0
LINE
8
BLACK
6
CONTINUOUS
10
61.8655
20
-81.653
11
61.0455
21
-81.653
0
LINE
8
BLACK
6
CONTINUOUS
10
61.0455
20
-81.653
11
61.0455
21
-80.653
0
LINE
8
BLACK
6
CONTINUOUS
10
61.0455
20
-80.653
11
61.8655
21
-80.653
0
LINE
8
BLACK
6
CONTINUOUS
10
61.8655
20
-80.653
11
61.8655
21
-81.653
0
LINE
8
BLACK
6
CONTINUOUS
10
111.332
20
-81.6276
11
110.512
21
-81.6276
0
LINE
8
BLACK
6
CONTINUOUS
10
110.512
20
-81.6276
11
110.512
21
-80.6276
0
LINE
8
BLACK
6
CONTINUOUS
10
110.512
20
-80.6276
11
111.332
21
-80.6276
0
LINE
8
BLACK
6
CONTINUOUS
10
111.332
20
-80.6276
11
111.332
21
-81.6276
0
LINE
8
BLACK
6
CONTINUOUS
10
112.932
20
-81.6276
11
112.112
21
-81.6276
0
LINE
8
BLACK
6
CONTINUOUS
10
112.112
20
-81.6276
11
112.112
21
-80.6276
0
LINE
8
BLACK
6
CONTINUOUS
10
112.112
20
-80.6276
11
112.932
21
-80.6276
0
LINE
8
BLACK
6
CONTINUOUS
10
112.932
20
-80.6276
11
112.932
21
-81.6276
0
LINE
8
BLACK
6
CONTINUOUS
10
99.0939
20
-80.4036
11
98.3868
21
-81.1107
0
LINE
8
BLACK
6
CONTINUOUS
10
98.3868
20
-81.1107
11
97.8069
21
-80.5308
0
LINE
8
BLACK
6
CONTINUOUS
10
97.8069
20
-80.5308
11
98.514
21
-79.8237
0
LINE
8
BLACK
6
CONTINUOUS
10
98.514
20
-79.8237
11
99.0939
21
-80.4036
0
LINE
8
BLACK
6
CONTINUOUS
10
101.543
20
-80.3273
11
101.243
21
-80.3273
0
LINE
8
BLACK
6
CONTINUOUS
10
101.243
20
-80.3273
11
101.243
21
-78.8273
0
LINE
8
BLACK
6
CONTINUOUS
10
101.243
20
-78.8273
11
101.543
21
-78.8273
0
LINE
8
BLACK
6
CONTINUOUS
10
101.543
20
-78.8273
11
101.543
21
-80.3273
0
LINE
8
BLACK
6
CONTINUOUS
10
102.543
20
-80.3273
11
102.243
21
-80.3273
0
LINE
8
BLACK
6
CONTINUOUS
10
102.243
20
-80.3273
11
102.243
21
-78.8273
0
LINE
8
BLACK
6
CONTINUOUS
10
102.243
20
-78.8273
11
102.543
21
-78.8273
0
LINE
8
BLACK
6
CONTINUOUS
10
102.543
20
-78.8273
11
102.543
21
-80.3273
0
LINE
8
BLACK
6
CONTINUOUS
10
103.543
20
-80.3273
11
103.243
21
-80.3273
0
LINE
8
BLACK
6
CONTINUOUS
10
103.243
20
-80.3273
11
103.243
21
-78.8273
0
LINE
8
BLACK
6
CONTINUOUS
10
103.243
20
-78.8273
11
103.543
21
-78.8273
0
LINE
8
BLACK
6
CONTINUOUS
10
103.543
20
-78.8273
11
103.543
21
-80.3273
0
LINE
8
BLACK
6
CONTINUOUS
10
104.543
20
-80.3273
11
104.243
21
-80.3273
0
LINE
8
BLACK
6
CONTINUOUS
10
104.243
20
-80.3273
11
104.243
21
-78.8273
0
LINE
8
BLACK
6
CONTINUOUS
10
104.243
20
-78.8273
11
104.543
21
-78.8273
0
LINE
8
BLACK
6
CONTINUOUS
10
104.543
20
-78.8273
11
104.543
21
-80.3273
0
LINE
8
BLACK
6
CONTINUOUS
10
105.543
20
-80.3273
11
105.243
21
-80.3273
0
LINE
8
BLACK
6
CONTINUOUS
10
105.243
20
-80.3273
11
105.243
21
-78.8273
0
LINE
8
BLACK
6
CONTINUOUS
10
105.243
20
-78.8273
11
105.543
21
-78.8273
0
LINE
8
BLACK
6
CONTINUOUS
10
105.543
20
-78.8273
11
105.543
21
-80.3273
0
LINE
8
BLACK
6
CONTINUOUS
10
101.043
20
-80.3273
11
100.743
21
-80.3273
0
LINE
8
BLACK
6
CONTINUOUS
10
100.743
20
-80.3273
11
100.743
21
-78.8273
0
LINE
8
BLACK
6
CONTINUOUS
10
100.743
20
-78.8273
11
101.043
21
-78.8273
0
LINE
8
BLACK
6
CONTINUOUS
10
101.043
20
-78.8273
11
101.043
21
-80.3273
0
LINE
8
BLACK
6
CONTINUOUS
10
100.543
20
-80.3273
11
100.243
21
-80.3273
0
LINE
8
BLACK
6
CONTINUOUS
10
100.243
20
-80.3273
11
100.243
21
-78.8273
0
LINE
8
BLACK
6
CONTINUOUS
10
100.243
20
-78.8273
11
100.543
21
-78.8273
0
LINE
8
BLACK
6
CONTINUOUS
10
100.543
20
-78.8273
11
100.543
21
-80.3273
0
LINE
8
BLACK
6
CONTINUOUS
10
100.043
20
-80.3273
11
99.7434
21
-80.3273
0
LINE
8
BLACK
6
CONTINUOUS
10
99.7434
20
-80.3273
11
99.7434
21
-78.8273
0
LINE
8
BLACK
6
CONTINUOUS
10
99.7434
20
-78.8273
11
100.043
21
-78.8273
0
LINE
8
BLACK
6
CONTINUOUS
10
100.043
20
-78.8273
11
100.043
21
-80.3273
0
LINE
8
BLACK
6
CONTINUOUS
10
33.0882
20
-80.3059
11
32.0882
21
-80.3059
0
LINE
8
BLACK
6
CONTINUOUS
10
32.0882
20
-80.3059
11
32.0882
21
-79.4859
0
LINE
8
BLACK
6
CONTINUOUS
10
32.0882
20
-79.4859
11
33.0882
21
-79.4859
0
LINE
8
BLACK
6
CONTINUOUS
10
33.0882
20
-79.4859
11
33.0882
21
-80.3059
0
LINE
8
BLACK
6
CONTINUOUS
10
97.9625
20
-79.2722
11
97.2554
21
-79.9793
0
LINE
8
BLACK
6
CONTINUOUS
10
97.2554
20
-79.9793
11
96.6756
21
-79.3995
0
LINE
8
BLACK
6
CONTINUOUS
10
96.6756
20
-79.3995
11
97.3827
21
-78.6924
0
LINE
8
BLACK
6
CONTINUOUS
10
97.3827
20
-78.6924
11
97.9625
21
-79.2722
0
LINE
8
BLACK
6
CONTINUOUS
10
31.4744
20
-78.4526
11
30.6544
21
-78.4526
0
LINE
8
BLACK
6
CONTINUOUS
10
30.6544
20
-78.4526
11
30.6544
21
-77.4526
0
LINE
8
BLACK
6
CONTINUOUS
10
30.6544
20
-77.4526
11
31.4744
21
-77.4526
0
LINE
8
BLACK
6
CONTINUOUS
10
31.4744
20
-77.4526
11
31.4744
21
-78.4526
0
LINE
8
BLACK
6
CONTINUOUS
10
33.0744
20
-78.4526
11
32.2544
21
-78.4526
0
LINE
8
BLACK
6
CONTINUOUS
10
32.2544
20
-78.4526
11
32.2544
21
-77.4526
0
LINE
8
BLACK
6
CONTINUOUS
10
32.2544
20
-77.4526
11
33.0744
21
-77.4526
0
LINE
8
BLACK
6
CONTINUOUS
10
33.0744
20
-77.4526
11
33.0744
21
-78.4526
0
LINE
8
BLACK
6
CONTINUOUS
10
99.1934
20
-78.2773
11
97.6934
21
-78.2773
0
LINE
8
BLACK
6
CONTINUOUS
10
97.6934
20
-78.2773
11
97.6934
21
-77.9773
0
LINE
8
BLACK
6
CONTINUOUS
10
97.6934
20
-77.9773
11
99.1934
21
-77.9773
0
LINE
8
BLACK
6
CONTINUOUS
10
99.1934
20
-77.9773
11
99.1934
21
-78.2773
0
LINE
8
BLACK
6
CONTINUOUS
10
107.593
20
-78.2773
11
106.093
21
-78.2773
0
LINE
8
BLACK
6
CONTINUOUS
10
106.093
20
-78.2773
11
106.093
21
-77.9773
0
LINE
8
BLACK
6
CONTINUOUS
10
106.093
20
-77.9773
11
107.593
21
-77.9773
0
LINE
8
BLACK
6
CONTINUOUS
10
107.593
20
-77.9773
11
107.593
21
-78.2773
0
LINE
8
BLACK
6
CONTINUOUS
10
96.3712
20
-78.2748
11
95.5512
21
-78.2748
0
LINE
8
BLACK
6
CONTINUOUS
10
95.5512
20
-78.2748
11
95.5512
21
-77.2748
0
LINE
8
BLACK
6
CONTINUOUS
10
95.5512
20
-77.2748
11
96.3712
21
-77.2748
0
LINE
8
BLACK
6
CONTINUOUS
10
96.3712
20
-77.2748
11
96.3712
21
-78.2748
0
LINE
8
BLACK
6
CONTINUOUS
10
94.7712
20
-78.2748
11
93.9512
21
-78.2748
0
LINE
8
BLACK
6
CONTINUOUS
10
93.9512
20
-78.2748
11
93.9512
21
-77.2748
0
LINE
8
BLACK
6
CONTINUOUS
10
93.9512
20
-77.2748
11
94.7712
21
-77.2748
0
LINE
8
BLACK
6
CONTINUOUS
10
94.7712
20
-77.2748
11
94.7712
21
-78.2748
0
LINE
8
BLACK
6
CONTINUOUS
10
116.006
20
-78.0195
11
115.006
21
-78.0195
0
LINE
8
BLACK
6
CONTINUOUS
10
115.006
20
-78.0195
11
115.006
21
-77.1995
0
LINE
8
BLACK
6
CONTINUOUS
10
115.006
20
-77.1995
11
116.006
21
-77.1995
0
LINE
8
BLACK
6
CONTINUOUS
10
116.006
20
-77.1995
11
116.006
21
-78.0195
0
LINE
8
BLACK
6
CONTINUOUS
10
51.0379
20
-77.9679
11
49.5879
21
-77.9679
0
LINE
8
BLACK
6
CONTINUOUS
10
49.5879
20
-77.9679
11
49.5879
21
-77.5179
0
LINE
8
BLACK
6
CONTINUOUS
10
49.5879
20
-77.5179
11
51.0379
21
-77.5179
0
LINE
8
BLACK
6
CONTINUOUS
10
51.0379
20
-77.5179
11
51.0379
21
-77.9679
0
LINE
8
BLACK
6
CONTINUOUS
10
45.1379
20
-77.9679
11
43.6879
21
-77.9679
0
LINE
8
BLACK
6
CONTINUOUS
10
43.6879
20
-77.9679
11
43.6879
21
-77.5179
0
LINE
8
BLACK
6
CONTINUOUS
10
43.6879
20
-77.5179
11
45.1379
21
-77.5179
0
LINE
8
BLACK
6
CONTINUOUS
10
45.1379
20
-77.5179
11
45.1379
21
-77.9679
0
LINE
8
BLACK
6
CONTINUOUS
10
99.1934
20
-77.7773
11
97.6934
21
-77.7773
0
LINE
8
BLACK
6
CONTINUOUS
10
97.6934
20
-77.7773
11
97.6934
21
-77.4773
0
LINE
8
BLACK
6
CONTINUOUS
10
97.6934
20
-77.4773
11
99.1934
21
-77.4773
0
LINE
8
BLACK
6
CONTINUOUS
10
99.1934
20
-77.4773
11
99.1934
21
-77.7773
0
LINE
8
BLACK
6
CONTINUOUS
10
107.593
20
-77.7773
11
106.093
21
-77.7773
0
LINE
8
BLACK
6
CONTINUOUS
10
106.093
20
-77.7773
11
106.093
21
-77.4773
0
LINE
8
BLACK
6
CONTINUOUS
10
106.093
20
-77.4773
11
107.593
21
-77.4773
0
LINE
8
BLACK
6
CONTINUOUS
10
107.593
20
-77.4773
11
107.593
21
-77.7773
0
LINE
8
BLACK
6
CONTINUOUS
10
51.0379
20
-77.3179
11
49.5879
21
-77.3179
0
LINE
8
BLACK
6
CONTINUOUS
10
49.5879
20
-77.3179
11
49.5879
21
-76.8679
0
LINE
8
BLACK
6
CONTINUOUS
10
49.5879
20
-76.8679
11
51.0379
21
-76.8679
0
LINE
8
BLACK
6
CONTINUOUS
10
51.0379
20
-76.8679
11
51.0379
21
-77.3179
0
LINE
8
BLACK
6
CONTINUOUS
10
45.1379
20
-77.3179
11
43.6879
21
-77.3179
0
LINE
8
BLACK
6
CONTINUOUS
10
43.6879
20
-77.3179
11
43.6879
21
-76.8679
0
LINE
8
BLACK
6
CONTINUOUS
10
43.6879
20
-76.8679
11
45.1379
21
-76.8679
0
LINE
8
BLACK
6
CONTINUOUS
10
45.1379
20
-76.8679
11
45.1379
21
-77.3179
0
LINE
8
BLACK
6
CONTINUOUS
10
99.1934
20
-77.2773
11
97.6934
21
-77.2773
0
LINE
8
BLACK
6
CONTINUOUS
10
97.6934
20
-77.2773
11
97.6934
21
-76.9773
0
LINE
8
BLACK
6
CONTINUOUS
10
97.6934
20
-76.9773
11
99.1934
21
-76.9773
0
LINE
8
BLACK
6
CONTINUOUS
10
99.1934
20
-76.9773
11
99.1934
21
-77.2773
0
LINE
8
BLACK
6
CONTINUOUS
10
107.593
20
-77.2773
11
106.093
21
-77.2773
0
LINE
8
BLACK
6
CONTINUOUS
10
106.093
20
-77.2773
11
106.093
21
-76.9773
0
LINE
8
BLACK
6
CONTINUOUS
10
106.093
20
-76.9773
11
107.593
21
-76.9773
0
LINE
8
BLACK
6
CONTINUOUS
10
107.593
20
-76.9773
11
107.593
21
-77.2773
0
LINE
8
BLACK
6
CONTINUOUS
10
79.0495
20
-77.0173
11
78.0495
21
-77.0173
0
LINE
8
BLACK
6
CONTINUOUS
10
78.0495
20
-77.0173
11
78.0495
21
-76.1973
0
LINE
8
BLACK
6
CONTINUOUS
10
78.0495
20
-76.1973
11
79.0495
21
-76.1973
0
LINE
8
BLACK
6
CONTINUOUS
10
79.0495
20
-76.1973
11
79.0495
21
-77.0173
0
LINE
8
BLACK
6
CONTINUOUS
10
77.5255
20
-76.991
11
76.5255
21
-76.991
0
LINE
8
BLACK
6
CONTINUOUS
10
76.5255
20
-76.991
11
76.5255
21
-76.171
0
LINE
8
BLACK
6
CONTINUOUS
10
76.5255
20
-76.171
11
77.5255
21
-76.171
0
LINE
8
BLACK
6
CONTINUOUS
10
77.5255
20
-76.171
11
77.5255
21
-76.991
0
LINE
8
BLACK
6
CONTINUOUS
10
76.0015
20
-76.991
11
75.0015
21
-76.991
0
LINE
8
BLACK
6
CONTINUOUS
10
75.0015
20
-76.991
11
75.0015
21
-76.171
0
LINE
8
BLACK
6
CONTINUOUS
10
75.0015
20
-76.171
11
76.0015
21
-76.171
0
LINE
8
BLACK
6
CONTINUOUS
10
76.0015
20
-76.171
11
76.0015
21
-76.991
0
LINE
8
BLACK
6
CONTINUOUS
10
33.0744
20
-76.9286
11
32.2544
21
-76.9286
0
LINE
8
BLACK
6
CONTINUOUS
10
32.2544
20
-76.9286
11
32.2544
21
-75.9286
0
LINE
8
BLACK
6
CONTINUOUS
10
32.2544
20
-75.9286
11
33.0744
21
-75.9286
0
LINE
8
BLACK
6
CONTINUOUS
10
33.0744
20
-75.9286
11
33.0744
21
-76.9286
0
LINE
8
BLACK
6
CONTINUOUS
10
31.4744
20
-76.9286
11
30.6544
21
-76.9286
0
LINE
8
BLACK
6
CONTINUOUS
10
30.6544
20
-76.9286
11
30.6544
21
-75.9286
0
LINE
8
BLACK
6
CONTINUOUS
10
30.6544
20
-75.9286
11
31.4744
21
-75.9286
0
LINE
8
BLACK
6
CONTINUOUS
10
31.4744
20
-75.9286
11
31.4744
21
-76.9286
0
LINE
8
BLACK
6
CONTINUOUS
10
102.443
20
-76.9273
11
101.093
21
-76.9273
0
LINE
8
BLACK
6
CONTINUOUS
10
101.093
20
-76.9273
11
101.093
21
-75.5773
0
LINE
8
BLACK
6
CONTINUOUS
10
101.093
20
-75.5773
11
102.443
21
-75.5773
0
LINE
8
BLACK
6
CONTINUOUS
10
102.443
20
-75.5773
11
102.443
21
-76.9273
0
LINE
8
BLACK
6
CONTINUOUS
10
104.193
20
-76.9273
11
102.843
21
-76.9273
0
LINE
8
BLACK
6
CONTINUOUS
10
102.843
20
-76.9273
11
102.843
21
-75.5773
0
LINE
8
BLACK
6
CONTINUOUS
10
102.843
20
-75.5773
11
104.193
21
-75.5773
0
LINE
8
BLACK
6
CONTINUOUS
10
104.193
20
-75.5773
11
104.193
21
-76.9273
0
LINE
8
BLACK
6
CONTINUOUS
10
107.593
20
-76.7773
11
106.093
21
-76.7773
0
LINE
8
BLACK
6
CONTINUOUS
10
106.093
20
-76.7773
11
106.093
21
-76.4773
0
LINE
8
BLACK
6
CONTINUOUS
10
106.093
20
-76.4773
11
107.593
21
-76.4773
0
LINE
8
BLACK
6
CONTINUOUS
10
107.593
20
-76.4773
11
107.593
21
-76.7773
0
LINE
8
BLACK
6
CONTINUOUS
10
99.1934
20
-76.7773
11
97.6934
21
-76.7773
0
LINE
8
BLACK
6
CONTINUOUS
10
97.6934
20
-76.7773
11
97.6934
21
-76.4773
0
LINE
8
BLACK
6
CONTINUOUS
10
97.6934
20
-76.4773
11
99.1934
21
-76.4773
0
LINE
8
BLACK
6
CONTINUOUS
10
99.1934
20
-76.4773
11
99.1934
21
-76.7773
0
LINE
8
BLACK
6
CONTINUOUS
10
97.1332
20
-76.7
11
96.3132
21
-76.7
0
LINE
8
BLACK
6
CONTINUOUS
10
96.3132
20
-76.7
11
96.3132
21
-75.7
0
LINE
8
BLACK
6
CONTINUOUS
10
96.3132
20
-75.7
11
97.1332
21
-75.7
0
LINE
8
BLACK
6
CONTINUOUS
10
97.1332
20
-75.7
11
97.1332
21
-76.7
0
LINE
8
BLACK
6
CONTINUOUS
10
95.5332
20
-76.7
11
94.7132
21
-76.7
0
LINE
8
BLACK
6
CONTINUOUS
10
94.7132
20
-76.7
11
94.7132
21
-75.7
0
LINE
8
BLACK
6
CONTINUOUS
10
94.7132
20
-75.7
11
95.5332
21
-75.7
0
LINE
8
BLACK
6
CONTINUOUS
10
95.5332
20
-75.7
11
95.5332
21
-76.7
0
LINE
8
BLACK
6
CONTINUOUS
10
51.0379
20
-76.6679
11
49.5879
21
-76.6679
0
LINE
8
BLACK
6
CONTINUOUS
10
49.5879
20
-76.6679
11
49.5879
21
-76.2179
0
LINE
8
BLACK
6
CONTINUOUS
10
49.5879
20
-76.2179
11
51.0379
21
-76.2179
0
LINE
8
BLACK
6
CONTINUOUS
10
51.0379
20
-76.2179
11
51.0379
21
-76.6679
0
LINE
8
BLACK
6
CONTINUOUS
10
45.1379
20
-76.6679
11
43.6879
21
-76.6679
0
LINE
8
BLACK
6
CONTINUOUS
10
43.6879
20
-76.6679
11
43.6879
21
-76.2179
0
LINE
8
BLACK
6
CONTINUOUS
10
43.6879
20
-76.2179
11
45.1379
21
-76.2179
0
LINE
8
BLACK
6
CONTINUOUS
10
45.1379
20
-76.2179
11
45.1379
21
-76.6679
0
LINE
8
BLACK
6
CONTINUOUS
10
116.006
20
-76.4195
11
115.006
21
-76.4195
0
LINE
8
BLACK
6
CONTINUOUS
10
115.006
20
-76.4195
11
115.006
21
-75.5995
0
LINE
8
BLACK
6
CONTINUOUS
10
115.006
20
-75.5995
11
116.006
21
-75.5995
0
LINE
8
BLACK
6
CONTINUOUS
10
116.006
20
-75.5995
11
116.006
21
-76.4195
0
LINE
8
BLACK
6
CONTINUOUS
10
99.1934
20
-76.2773
11
97.6934
21
-76.2773
0
LINE
8
BLACK
6
CONTINUOUS
10
97.6934
20
-76.2773
11
97.6934
21
-75.9773
0
LINE
8
BLACK
6
CONTINUOUS
10
97.6934
20
-75.9773
11
99.1934
21
-75.9773
0
LINE
8
BLACK
6
CONTINUOUS
10
99.1934
20
-75.9773
11
99.1934
21
-76.2773
0
LINE
8
BLACK
6
CONTINUOUS
10
107.593
20
-76.2773
11
106.093
21
-76.2773
0
LINE
8
BLACK
6
CONTINUOUS
10
106.093
20
-76.2773
11
106.093
21
-75.9773
0
LINE
8
BLACK
6
CONTINUOUS
10
106.093
20
-75.9773
11
107.593
21
-75.9773
0
LINE
8
BLACK
6
CONTINUOUS
10
107.593
20
-75.9773
11
107.593
21
-76.2773
0
LINE
8
BLACK
6
CONTINUOUS
10
58.652
20
-76.1285
11
57.832
21
-76.1285
0
LINE
8
BLACK
6
CONTINUOUS
10
57.832
20
-76.1285
11
57.832
21
-75.1285
0
LINE
8
BLACK
6
CONTINUOUS
10
57.832
20
-75.1285
11
58.652
21
-75.1285
0
LINE
8
BLACK
6
CONTINUOUS
10
58.652
20
-75.1285
11
58.652
21
-76.1285
0
LINE
8
BLACK
6
CONTINUOUS
10
57.052
20
-76.1285
11
56.232
21
-76.1285
0
LINE
8
BLACK
6
CONTINUOUS
10
56.232
20
-76.1285
11
56.232
21
-75.1285
0
LINE
8
BLACK
6
CONTINUOUS
10
56.232
20
-75.1285
11
57.052
21
-75.1285
0
LINE
8
BLACK
6
CONTINUOUS
10
57.052
20
-75.1285
11
57.052
21
-76.1285
0
LINE
8
BLACK
6
CONTINUOUS
10
45.1379
20
-76.0179
11
43.6879
21
-76.0179
0
LINE
8
BLACK
6
CONTINUOUS
10
43.6879
20
-76.0179
11
43.6879
21
-75.5679
0
LINE
8
BLACK
6
CONTINUOUS
10
43.6879
20
-75.5679
11
45.1379
21
-75.5679
0
LINE
8
BLACK
6
CONTINUOUS
10
45.1379
20
-75.5679
11
45.1379
21
-76.0179
0
LINE
8
BLACK
6
CONTINUOUS
10
51.0379
20
-76.0179
11
49.5879
21
-76.0179
0
LINE
8
BLACK
6
CONTINUOUS
10
49.5879
20
-76.0179
11
49.5879
21
-75.5679
0
LINE
8
BLACK
6
CONTINUOUS
10
49.5879
20
-75.5679
11
51.0379
21
-75.5679
0
LINE
8
BLACK
6
CONTINUOUS
10
51.0379
20
-75.5679
11
51.0379
21
-76.0179
0
LINE
8
BLACK
6
CONTINUOUS
10
107.593
20
-75.7773
11
106.093
21
-75.7773
0
LINE
8
BLACK
6
CONTINUOUS
10
106.093
20
-75.7773
11
106.093
21
-75.4773
0
LINE
8
BLACK
6
CONTINUOUS
10
106.093
20
-75.4773
11
107.593
21
-75.4773
0
LINE
8
BLACK
6
CONTINUOUS
10
107.593
20
-75.4773
11
107.593
21
-75.7773
0
LINE
8
BLACK
6
CONTINUOUS
10
99.1934
20
-75.7773
11
97.6934
21
-75.7773
0
LINE
8
BLACK
6
CONTINUOUS
10
97.6934
20
-75.7773
11
97.6934
21
-75.4773
0
LINE
8
BLACK
6
CONTINUOUS
10
97.6934
20
-75.4773
11
99.1934
21
-75.4773
0
LINE
8
BLACK
6
CONTINUOUS
10
99.1934
20
-75.4773
11
99.1934
21
-75.7773
0
LINE
8
BLACK
6
CONTINUOUS
10
79.0495
20
-75.4173
11
78.0495
21
-75.4173
0
LINE
8
BLACK
6
CONTINUOUS
10
78.0495
20
-75.4173
11
78.0495
21
-74.5973
0
LINE
8
BLACK
6
CONTINUOUS
10
78.0495
20
-74.5973
11
79.0495
21
-74.5973
0
LINE
8
BLACK
6
CONTINUOUS
10
79.0495
20
-74.5973
11
79.0495
21
-75.4173
0
LINE
8
BLACK
6
CONTINUOUS
10
33.0628
20
-75.4162
11
32.0628
21
-75.4162
0
LINE
8
BLACK
6
CONTINUOUS
10
32.0628
20
-75.4162
11
32.0628
21
-74.5962
0
LINE
8
BLACK
6
CONTINUOUS
10
32.0628
20
-74.5962
11
33.0628
21
-74.5962
0
LINE
8
BLACK
6
CONTINUOUS
10
33.0628
20
-74.5962
11
33.0628
21
-75.4162
0
LINE
8
BLACK
6
CONTINUOUS
10
77.5255
20
-75.391
11
76.5255
21
-75.391
0
LINE
8
BLACK
6
CONTINUOUS
10
76.5255
20
-75.391
11
76.5255
21
-74.571
0
LINE
8
BLACK
6
CONTINUOUS
10
76.5255
20
-74.571
11
77.5255
21
-74.571
0
LINE
8
BLACK
6
CONTINUOUS
10
77.5255
20
-74.571
11
77.5255
21
-75.391
0
LINE
8
BLACK
6
CONTINUOUS
10
76.0015
20
-75.391
11
75.0015
21
-75.391
0
LINE
8
BLACK
6
CONTINUOUS
10
75.0015
20
-75.391
11
75.0015
21
-74.571
0
LINE
8
BLACK
6
CONTINUOUS
10
75.0015
20
-74.571
11
76.0015
21
-74.571
0
LINE
8
BLACK
6
CONTINUOUS
10
76.0015
20
-74.571
11
76.0015
21
-75.391
0
LINE
8
BLACK
6
CONTINUOUS
10
45.1379
20
-75.3679
11
43.6879
21
-75.3679
0
LINE
8
BLACK
6
CONTINUOUS
10
43.6879
20
-75.3679
11
43.6879
21
-74.9179
0
LINE
8
BLACK
6
CONTINUOUS
10
43.6879
20
-74.9179
11
45.1379
21
-74.9179
0
LINE
8
BLACK
6
CONTINUOUS
10
45.1379
20
-74.9179
11
45.1379
21
-75.3679
0
LINE
8
BLACK
6
CONTINUOUS
10
51.0379
20
-75.3679
11
49.5879
21
-75.3679
0
LINE
8
BLACK
6
CONTINUOUS
10
49.5879
20
-75.3679
11
49.5879
21
-74.9179
0
LINE
8
BLACK
6
CONTINUOUS
10
49.5879
20
-74.9179
11
51.0379
21
-74.9179
0
LINE
8
BLACK
6
CONTINUOUS
10
51.0379
20
-74.9179
11
51.0379
21
-75.3679
0
LINE
8
BLACK
6
CONTINUOUS
10
107.593
20
-75.2773
11
106.093
21
-75.2773
0
LINE
8
BLACK
6
CONTINUOUS
10
106.093
20
-75.2773
11
106.093
21
-74.9773
0
LINE
8
BLACK
6
CONTINUOUS
10
106.093
20
-74.9773
11
107.593
21
-74.9773
0
LINE
8
BLACK
6
CONTINUOUS
10
107.593
20
-74.9773
11
107.593
21
-75.2773
0
LINE
8
BLACK
6
CONTINUOUS
10
99.1934
20
-75.2773
11
97.6934
21
-75.2773
0
LINE
8
BLACK
6
CONTINUOUS
10
97.6934
20
-75.2773
11
97.6934
21
-74.9773
0
LINE
8
BLACK
6
CONTINUOUS
10
97.6934
20
-74.9773
11
99.1934
21
-74.9773
0
LINE
8
BLACK
6
CONTINUOUS
10
99.1934
20
-74.9773
11
99.1934
21
-75.2773
0
LINE
8
BLACK
6
CONTINUOUS
10
102.443
20
-75.1773
11
101.093
21
-75.1773
0
LINE
8
BLACK
6
CONTINUOUS
10
101.093
20
-75.1773
11
101.093
21
-73.8273
0
LINE
8
BLACK
6
CONTINUOUS
10
101.093
20
-73.8273
11
102.443
21
-73.8273
0
LINE
8
BLACK
6
CONTINUOUS
10
102.443
20
-73.8273
11
102.443
21
-75.1773
0
LINE
8
BLACK
6
CONTINUOUS
10
104.193
20
-75.1773
11
102.843
21
-75.1773
0
LINE
8
BLACK
6
CONTINUOUS
10
102.843
20
-75.1773
11
102.843
21
-73.8273
0
LINE
8
BLACK
6
CONTINUOUS
10
102.843
20
-73.8273
11
104.193
21
-73.8273
0
LINE
8
BLACK
6
CONTINUOUS
10
104.193
20
-73.8273
11
104.193
21
-75.1773
0
LINE
8
BLACK
6
CONTINUOUS
10
99.1934
20
-74.7773
11
97.6934
21
-74.7773
0
LINE
8
BLACK
6
CONTINUOUS
10
97.6934
20
-74.7773
11
97.6934
21
-74.4773
0
LINE
8
BLACK
6
CONTINUOUS
10
97.6934
20
-74.4773
11
99.1934
21
-74.4773
0
LINE
8
BLACK
6
CONTINUOUS
10
99.1934
20
-74.4773
11
99.1934
21
-74.7773
0
LINE
8
BLACK
6
CONTINUOUS
10
107.593
20
-74.7773
11
106.093
21
-74.7773
0
LINE
8
BLACK
6
CONTINUOUS
10
106.093
20
-74.7773
11
106.093
21
-74.4773
0
LINE
8
BLACK
6
CONTINUOUS
10
106.093
20
-74.4773
11
107.593
21
-74.4773
0
LINE
8
BLACK
6
CONTINUOUS
10
107.593
20
-74.4773
11
107.593
21
-74.7773
0
LINE
8
BLACK
6
CONTINUOUS
10
51.0379
20
-74.7179
11
49.5879
21
-74.7179
0
LINE
8
BLACK
6
CONTINUOUS
10
49.5879
20
-74.7179
11
49.5879
21
-74.2679
0
LINE
8
BLACK
6
CONTINUOUS
10
49.5879
20
-74.2679
11
51.0379
21
-74.2679
0
LINE
8
BLACK
6
CONTINUOUS
10
51.0379
20
-74.2679
11
51.0379
21
-74.7179
0
LINE
8
BLACK
6
CONTINUOUS
10
45.1379
20
-74.7179
11
43.6879
21
-74.7179
0
LINE
8
BLACK
6
CONTINUOUS
10
43.6879
20
-74.7179
11
43.6879
21
-74.2679
0
LINE
8
BLACK
6
CONTINUOUS
10
43.6879
20
-74.2679
11
45.1379
21
-74.2679
0
LINE
8
BLACK
6
CONTINUOUS
10
45.1379
20
-74.2679
11
45.1379
21
-74.7179
0
LINE
8
BLACK
6
CONTINUOUS
10
99.1934
20
-74.2773
11
97.6934
21
-74.2773
0
LINE
8
BLACK
6
CONTINUOUS
10
97.6934
20
-74.2773
11
97.6934
21
-73.9773
0
LINE
8
BLACK
6
CONTINUOUS
10
97.6934
20
-73.9773
11
99.1934
21
-73.9773
0
LINE
8
BLACK
6
CONTINUOUS
10
99.1934
20
-73.9773
11
99.1934
21
-74.2773
0
LINE
8
BLACK
6
CONTINUOUS
10
107.593
20
-74.2773
11
106.093
21
-74.2773
0
LINE
8
BLACK
6
CONTINUOUS
10
106.093
20
-74.2773
11
106.093
21
-73.9773
0
LINE
8
BLACK
6
CONTINUOUS
10
106.093
20
-73.9773
11
107.593
21
-73.9773
0
LINE
8
BLACK
6
CONTINUOUS
10
107.593
20
-73.9773
11
107.593
21
-74.2773
0
LINE
8
BLACK
6
CONTINUOUS
10
63.4007
20
-74.2104
11
61.9507
21
-74.2104
0
LINE
8
BLACK
6
CONTINUOUS
10
61.9507
20
-74.2104
11
61.9507
21
-73.7604
0
LINE
8
BLACK
6
CONTINUOUS
10
61.9507
20
-73.7604
11
63.4007
21
-73.7604
0
LINE
8
BLACK
6
CONTINUOUS
10
63.4007
20
-73.7604
11
63.4007
21
-74.2104
0
LINE
8
BLACK
6
CONTINUOUS
10
57.5007
20
-74.2104
11
56.0507
21
-74.2104
0
LINE
8
BLACK
6
CONTINUOUS
10
56.0507
20
-74.2104
11
56.0507
21
-73.7604
0
LINE
8
BLACK
6
CONTINUOUS
10
56.0507
20
-73.7604
11
57.5007
21
-73.7604
0
LINE
8
BLACK
6
CONTINUOUS
10
57.5007
20
-73.7604
11
57.5007
21
-74.2104
0
LINE
8
BLACK
6
CONTINUOUS
10
109.2
20
-74.146
11
108.2
21
-74.146
0
LINE
8
BLACK
6
CONTINUOUS
10
108.2
20
-74.146
11
108.2
21
-73.326
0
LINE
8
BLACK
6
CONTINUOUS
10
108.2
20
-73.326
11
109.2
21
-73.326
0
LINE
8
BLACK
6
CONTINUOUS
10
109.2
20
-73.326
11
109.2
21
-74.146
0
LINE
8
BLACK
6
CONTINUOUS
10
45.1379
20
-74.0679
11
43.6879
21
-74.0679
0
LINE
8
BLACK
6
CONTINUOUS
10
43.6879
20
-74.0679
11
43.6879
21
-73.6179
0
LINE
8
BLACK
6
CONTINUOUS
10
43.6879
20
-73.6179
11
45.1379
21
-73.6179
0
LINE
8
BLACK
6
CONTINUOUS
10
45.1379
20
-73.6179
11
45.1379
21
-74.0679
0
LINE
8
BLACK
6
CONTINUOUS
10
51.0379
20
-74.0679
11
49.5879
21
-74.0679
0
LINE
8
BLACK
6
CONTINUOUS
10
49.5879
20
-74.0679
11
49.5879
21
-73.6179
0
LINE
8
BLACK
6
CONTINUOUS
10
49.5879
20
-73.6179
11
51.0379
21
-73.6179
0
LINE
8
BLACK
6
CONTINUOUS
10
51.0379
20
-73.6179
11
51.0379
21
-74.0679
0
LINE
8
BLACK
6
CONTINUOUS
10
116.006
20
-73.8795
11
115.006
21
-73.8795
0
LINE
8
BLACK
6
CONTINUOUS
10
115.006
20
-73.8795
11
115.006
21
-73.0595
0
LINE
8
BLACK
6
CONTINUOUS
10
115.006
20
-73.0595
11
116.006
21
-73.0595
0
LINE
8
BLACK
6
CONTINUOUS
10
116.006
20
-73.0595
11
116.006
21
-73.8795
0
LINE
8
BLACK
6
CONTINUOUS
10
33.0628
20
-73.8162
11
32.0628
21
-73.8162
0
LINE
8
BLACK
6
CONTINUOUS
10
32.0628
20
-73.8162
11
32.0628
21
-72.9962
0
LINE
8
BLACK
6
CONTINUOUS
10
32.0628
20
-72.9962
11
33.0628
21
-72.9962
0
LINE
8
BLACK
6
CONTINUOUS
10
33.0628
20
-72.9962
11
33.0628
21
-73.8162
0
LINE
8
BLACK
6
CONTINUOUS
10
99.1934
20
-73.7773
11
97.6934
21
-73.7773
0
LINE
8
BLACK
6
CONTINUOUS
10
97.6934
20
-73.7773
11
97.6934
21
-73.4773
0
LINE
8
BLACK
6
CONTINUOUS
10
97.6934
20
-73.4773
11
99.1934
21
-73.4773
0
LINE
8
BLACK
6
CONTINUOUS
10
99.1934
20
-73.4773
11
99.1934
21
-73.7773
0
LINE
8
BLACK
6
CONTINUOUS
10
107.593
20
-73.7773
11
106.093
21
-73.7773
0
LINE
8
BLACK
6
CONTINUOUS
10
106.093
20
-73.7773
11
106.093
21
-73.4773
0
LINE
8
BLACK
6
CONTINUOUS
10
106.093
20
-73.4773
11
107.593
21
-73.4773
0
LINE
8
BLACK
6
CONTINUOUS
10
107.593
20
-73.4773
11
107.593
21
-73.7773
0
LINE
8
BLACK
6
CONTINUOUS
10
63.4007
20
-73.5604
11
61.9507
21
-73.5604
0
LINE
8
BLACK
6
CONTINUOUS
10
61.9507
20
-73.5604
11
61.9507
21
-73.1104
0
LINE
8
BLACK
6
CONTINUOUS
10
61.9507
20
-73.1104
11
63.4007
21
-73.1104
0
LINE
8
BLACK
6
CONTINUOUS
10
63.4007
20
-73.1104
11
63.4007
21
-73.5604
0
LINE
8
BLACK
6
CONTINUOUS
10
57.5007
20
-73.5604
11
56.0507
21
-73.5604
0
LINE
8
BLACK
6
CONTINUOUS
10
56.0507
20
-73.5604
11
56.0507
21
-73.1104
0
LINE
8
BLACK
6
CONTINUOUS
10
56.0507
20
-73.1104
11
57.5007
21
-73.1104
0
LINE
8
BLACK
6
CONTINUOUS
10
57.5007
20
-73.1104
11
57.5007
21
-73.5604
0
LINE
8
BLACK
6
CONTINUOUS
10
107.593
20
-73.2773
11
106.093
21
-73.2773
0
LINE
8
BLACK
6
CONTINUOUS
10
106.093
20
-73.2773
11
106.093
21
-72.9773
0
LINE
8
BLACK
6
CONTINUOUS
10
106.093
20
-72.9773
11
107.593
21
-72.9773
0
LINE
8
BLACK
6
CONTINUOUS
10
107.593
20
-72.9773
11
107.593
21
-73.2773
0
LINE
8
BLACK
6
CONTINUOUS
10
99.1934
20
-73.2773
11
97.6934
21
-73.2773
0
LINE
8
BLACK
6
CONTINUOUS
10
97.6934
20
-73.2773
11
97.6934
21
-72.9773
0
LINE
8
BLACK
6
CONTINUOUS
10
97.6934
20
-72.9773
11
99.1934
21
-72.9773
0
LINE
8
BLACK
6
CONTINUOUS
10
99.1934
20
-72.9773
11
99.1934
21
-73.2773
0
LINE
8
BLACK
6
CONTINUOUS
10
63.4007
20
-72.9104
11
61.9507
21
-72.9104
0
LINE
8
BLACK
6
CONTINUOUS
10
61.9507
20
-72.9104
11
61.9507
21
-72.4604
0
LINE
8
BLACK
6
CONTINUOUS
10
61.9507
20
-72.4604
11
63.4007
21
-72.4604
0
LINE
8
BLACK
6
CONTINUOUS
10
63.4007
20
-72.4604
11
63.4007
21
-72.9104
0
LINE
8
BLACK
6
CONTINUOUS
10
57.5007
20
-72.9104
11
56.0507
21
-72.9104
0
LINE
8
BLACK
6
CONTINUOUS
10
56.0507
20
-72.9104
11
56.0507
21
-72.4604
0
LINE
8
BLACK
6
CONTINUOUS
10
56.0507
20
-72.4604
11
57.5007
21
-72.4604
0
LINE
8
BLACK
6
CONTINUOUS
10
57.5007
20
-72.4604
11
57.5007
21
-72.9104
0
LINE
8
BLACK
6
CONTINUOUS
10
107.593
20
-72.7773
11
106.093
21
-72.7773
0
LINE
8
BLACK
6
CONTINUOUS
10
106.093
20
-72.7773
11
106.093
21
-72.4773
0
LINE
8
BLACK
6
CONTINUOUS
10
106.093
20
-72.4773
11
107.593
21
-72.4773
0
LINE
8
BLACK
6
CONTINUOUS
10
107.593
20
-72.4773
11
107.593
21
-72.7773
0
LINE
8
BLACK
6
CONTINUOUS
10
99.1934
20
-72.7773
11
97.6934
21
-72.7773
0
LINE
8
BLACK
6
CONTINUOUS
10
97.6934
20
-72.7773
11
97.6934
21
-72.4773
0
LINE
8
BLACK
6
CONTINUOUS
10
97.6934
20
-72.4773
11
99.1934
21
-72.4773
0
LINE
8
BLACK
6
CONTINUOUS
10
99.1934
20
-72.4773
11
99.1934
21
-72.7773
0
LINE
8
BLACK
6
CONTINUOUS
10
51.083
20
-72.6995
11
50.263
21
-72.6995
0
LINE
8
BLACK
6
CONTINUOUS
10
50.263
20
-72.6995
11
50.263
21
-71.6995
0
LINE
8
BLACK
6
CONTINUOUS
10
50.263
20
-71.6995
11
51.083
21
-71.6995
0
LINE
8
BLACK
6
CONTINUOUS
10
51.083
20
-71.6995
11
51.083
21
-72.6995
0
LINE
8
BLACK
6
CONTINUOUS
10
49.483
20
-72.6995
11
48.663
21
-72.6995
0
LINE
8
BLACK
6
CONTINUOUS
10
48.663
20
-72.6995
11
48.663
21
-71.6995
0
LINE
8
BLACK
6
CONTINUOUS
10
48.663
20
-71.6995
11
49.483
21
-71.6995
0
LINE
8
BLACK
6
CONTINUOUS
10
49.483
20
-71.6995
11
49.483
21
-72.6995
0
LINE
8
BLACK
6
CONTINUOUS
10
109.2
20
-72.546
11
108.2
21
-72.546
0
LINE
8
BLACK
6
CONTINUOUS
10
108.2
20
-72.546
11
108.2
21
-71.726
0
LINE
8
BLACK
6
CONTINUOUS
10
108.2
20
-71.726
11
109.2
21
-71.726
0
LINE
8
BLACK
6
CONTINUOUS
10
109.2
20
-71.726
11
109.2
21
-72.546
0
LINE
8
BLACK
6
CONTINUOUS
10
116.006
20
-72.2795
11
115.006
21
-72.2795
0
LINE
8
BLACK
6
CONTINUOUS
10
115.006
20
-72.2795
11
115.006
21
-71.4595
0
LINE
8
BLACK
6
CONTINUOUS
10
115.006
20
-71.4595
11
116.006
21
-71.4595
0
LINE
8
BLACK
6
CONTINUOUS
10
116.006
20
-71.4595
11
116.006
21
-72.2795
0
LINE
8
BLACK
6
CONTINUOUS
10
63.4007
20
-72.2604
11
61.9507
21
-72.2604
0
LINE
8
BLACK
6
CONTINUOUS
10
61.9507
20
-72.2604
11
61.9507
21
-71.8104
0
LINE
8
BLACK
6
CONTINUOUS
10
61.9507
20
-71.8104
11
63.4007
21
-71.8104
0
LINE
8
BLACK
6
CONTINUOUS
10
63.4007
20
-71.8104
11
63.4007
21
-72.2604
0
LINE
8
BLACK
6
CONTINUOUS
10
57.5007
20
-72.2604
11
56.0507
21
-72.2604
0
LINE
8
BLACK
6
CONTINUOUS
10
56.0507
20
-72.2604
11
56.0507
21
-71.8104
0
LINE
8
BLACK
6
CONTINUOUS
10
56.0507
20
-71.8104
11
57.5007
21
-71.8104
0
LINE
8
BLACK
6
CONTINUOUS
10
57.5007
20
-71.8104
11
57.5007
21
-72.2604
0
LINE
8
BLACK
6
CONTINUOUS
10
103.543
20
-71.9273
11
103.243
21
-71.9273
0
LINE
8
BLACK
6
CONTINUOUS
10
103.243
20
-71.9273
11
103.243
21
-70.4273
0
LINE
8
BLACK
6
CONTINUOUS
10
103.243
20
-70.4273
11
103.543
21
-70.4273
0
LINE
8
BLACK
6
CONTINUOUS
10
103.543
20
-70.4273
11
103.543
21
-71.9273
0
LINE
8
BLACK
6
CONTINUOUS
10
100.043
20
-71.9273
11
99.7434
21
-71.9273
0
LINE
8
BLACK
6
CONTINUOUS
10
99.7434
20
-71.9273
11
99.7434
21
-70.4273
0
LINE
8
BLACK
6
CONTINUOUS
10
99.7434
20
-70.4273
11
100.043
21
-70.4273
0
LINE
8
BLACK
6
CONTINUOUS
10
100.043
20
-70.4273
11
100.043
21
-71.9273
0
LINE
8
BLACK
6
CONTINUOUS
10
100.543
20
-71.9273
11
100.243
21
-71.9273
0
LINE
8
BLACK
6
CONTINUOUS
10
100.243
20
-71.9273
11
100.243
21
-70.4273
0
LINE
8
BLACK
6
CONTINUOUS
10
100.243
20
-70.4273
11
100.543
21
-70.4273
0
LINE
8
BLACK
6
CONTINUOUS
10
100.543
20
-70.4273
11
100.543
21
-71.9273
0
LINE
8
BLACK
6
CONTINUOUS
10
101.543
20
-71.9273
11
101.243
21
-71.9273
0
LINE
8
BLACK
6
CONTINUOUS
10
101.243
20
-71.9273
11
101.243
21
-70.4273
0
LINE
8
BLACK
6
CONTINUOUS
10
101.243
20
-70.4273
11
101.543
21
-70.4273
0
LINE
8
BLACK
6
CONTINUOUS
10
101.543
20
-70.4273
11
101.543
21
-71.9273
0
LINE
8
BLACK
6
CONTINUOUS
10
102.543
20
-71.9273
11
102.243
21
-71.9273
0
LINE
8
BLACK
6
CONTINUOUS
10
102.243
20
-71.9273
11
102.243
21
-70.4273
0
LINE
8
BLACK
6
CONTINUOUS
10
102.243
20
-70.4273
11
102.543
21
-70.4273
0
LINE
8
BLACK
6
CONTINUOUS
10
102.543
20
-70.4273
11
102.543
21
-71.9273
0
LINE
8
BLACK
6
CONTINUOUS
10
104.543
20
-71.9273
11
104.243
21
-71.9273
0
LINE
8
BLACK
6
CONTINUOUS
10
104.243
20
-71.9273
11
104.243
21
-70.4273
0
LINE
8
BLACK
6
CONTINUOUS
10
104.243
20
-70.4273
11
104.543
21
-70.4273
0
LINE
8
BLACK
6
CONTINUOUS
10
104.543
20
-70.4273
11
104.543
21
-71.9273
0
LINE
8
BLACK
6
CONTINUOUS
10
105.543
20
-71.9273
11
105.243
21
-71.9273
0
LINE
8
BLACK
6
CONTINUOUS
10
105.243
20
-71.9273
11
105.243
21
-70.4273
0
LINE
8
BLACK
6
CONTINUOUS
10
105.243
20
-70.4273
11
105.543
21
-70.4273
0
LINE
8
BLACK
6
CONTINUOUS
10
105.543
20
-70.4273
11
105.543
21
-71.9273
0
LINE
8
BLACK
6
CONTINUOUS
10
33.0744
20
-71.8232
11
32.2544
21
-71.8232
0
LINE
8
BLACK
6
CONTINUOUS
10
32.2544
20
-71.8232
11
32.2544
21
-70.8232
0
LINE
8
BLACK
6
CONTINUOUS
10
32.2544
20
-70.8232
11
33.0744
21
-70.8232
0
LINE
8
BLACK
6
CONTINUOUS
10
33.0744
20
-70.8232
11
33.0744
21
-71.8232
0
LINE
8
BLACK
6
CONTINUOUS
10
31.4744
20
-71.8232
11
30.6544
21
-71.8232
0
LINE
8
BLACK
6
CONTINUOUS
10
30.6544
20
-71.8232
11
30.6544
21
-70.8232
0
LINE
8
BLACK
6
CONTINUOUS
10
30.6544
20
-70.8232
11
31.4744
21
-70.8232
0
LINE
8
BLACK
6
CONTINUOUS
10
31.4744
20
-70.8232
11
31.4744
21
-71.8232
0
LINE
8
BLACK
6
CONTINUOUS
10
63.4007
20
-71.6104
11
61.9507
21
-71.6104
0
LINE
8
BLACK
6
CONTINUOUS
10
61.9507
20
-71.6104
11
61.9507
21
-71.1604
0
LINE
8
BLACK
6
CONTINUOUS
10
61.9507
20
-71.1604
11
63.4007
21
-71.1604
0
LINE
8
BLACK
6
CONTINUOUS
10
63.4007
20
-71.1604
11
63.4007
21
-71.6104
0
LINE
8
BLACK
6
CONTINUOUS
10
57.5007
20
-71.6104
11
56.0507
21
-71.6104
0
LINE
8
BLACK
6
CONTINUOUS
10
56.0507
20
-71.6104
11
56.0507
21
-71.1604
0
LINE
8
BLACK
6
CONTINUOUS
10
56.0507
20
-71.1604
11
57.5007
21
-71.1604
0
LINE
8
BLACK
6
CONTINUOUS
10
57.5007
20
-71.1604
11
57.5007
21
-71.6104
0
LINE
8
BLACK
6
CONTINUOUS
10
63.4007
20
-70.9604
11
61.9507
21
-70.9604
0
LINE
8
BLACK
6
CONTINUOUS
10
61.9507
20
-70.9604
11
61.9507
21
-70.5104
0
LINE
8
BLACK
6
CONTINUOUS
10
61.9507
20
-70.5104
11
63.4007
21
-70.5104
0
LINE
8
BLACK
6
CONTINUOUS
10
63.4007
20
-70.5104
11
63.4007
21
-70.9604
0
LINE
8
BLACK
6
CONTINUOUS
10
57.5007
20
-70.9604
11
56.0507
21
-70.9604
0
LINE
8
BLACK
6
CONTINUOUS
10
56.0507
20
-70.9604
11
56.0507
21
-70.5104
0
LINE
8
BLACK
6
CONTINUOUS
10
56.0507
20
-70.5104
11
57.5007
21
-70.5104
0
LINE
8
BLACK
6
CONTINUOUS
10
57.5007
20
-70.5104
11
57.5007
21
-70.9604
0
LINE
8
BLACK
6
CONTINUOUS
10
48.3795
20
-70.905
11
47.4795
21
-70.905
0
LINE
8
BLACK
6
CONTINUOUS
10
47.4795
20
-70.905
11
47.4795
21
-69.155
0
LINE
8
BLACK
6
CONTINUOUS
10
47.4795
20
-69.155
11
48.3795
21
-69.155
0
LINE
8
BLACK
6
CONTINUOUS
10
48.3795
20
-69.155
11
48.3795
21
-70.905
0
LINE
8
BLACK
6
CONTINUOUS
10
49.9295
20
-70.905
11
49.0295
21
-70.905
0
LINE
8
BLACK
6
CONTINUOUS
10
49.0295
20
-70.905
11
49.0295
21
-69.155
0
LINE
8
BLACK
6
CONTINUOUS
10
49.0295
20
-69.155
11
49.9295
21
-69.155
0
LINE
8
BLACK
6
CONTINUOUS
10
49.9295
20
-69.155
11
49.9295
21
-70.905
0
LINE
8
BLACK
6
CONTINUOUS
10
51.6175
20
-70.336
11
50.6175
21
-70.336
0
LINE
8
BLACK
6
CONTINUOUS
10
50.6175
20
-70.336
11
50.6175
21
-69.516
0
LINE
8
BLACK
6
CONTINUOUS
10
50.6175
20
-69.516
11
51.6175
21
-69.516
0
LINE
8
BLACK
6
CONTINUOUS
10
51.6175
20
-69.516
11
51.6175
21
-70.336
0
LINE
8
BLACK
6
CONTINUOUS
10
57.5007
20
-70.3104
11
56.0507
21
-70.3104
0
LINE
8
BLACK
6
CONTINUOUS
10
56.0507
20
-70.3104
11
56.0507
21
-69.8604
0
LINE
8
BLACK
6
CONTINUOUS
10
56.0507
20
-69.8604
11
57.5007
21
-69.8604
0
LINE
8
BLACK
6
CONTINUOUS
10
57.5007
20
-69.8604
11
57.5007
21
-70.3104
0
LINE
8
BLACK
6
CONTINUOUS
10
63.4007
20
-70.3104
11
61.9507
21
-70.3104
0
LINE
8
BLACK
6
CONTINUOUS
10
61.9507
20
-70.3104
11
61.9507
21
-69.8604
0
LINE
8
BLACK
6
CONTINUOUS
10
61.9507
20
-69.8604
11
63.4007
21
-69.8604
0
LINE
8
BLACK
6
CONTINUOUS
10
63.4007
20
-69.8604
11
63.4007
21
-70.3104
0
LINE
8
BLACK
6
CONTINUOUS
10
33.0744
20
-70.2992
11
32.2544
21
-70.2992
0
LINE
8
BLACK
6
CONTINUOUS
10
32.2544
20
-70.2992
11
32.2544
21
-69.2992
0
LINE
8
BLACK
6
CONTINUOUS
10
32.2544
20
-69.2992
11
33.0744
21
-69.2992
0
LINE
8
BLACK
6
CONTINUOUS
10
33.0744
20
-69.2992
11
33.0744
21
-70.2992
0
LINE
8
BLACK
6
CONTINUOUS
10
31.4744
20
-70.2992
11
30.6544
21
-70.2992
0
LINE
8
BLACK
6
CONTINUOUS
10
30.6544
20
-70.2992
11
30.6544
21
-69.2992
0
LINE
8
BLACK
6
CONTINUOUS
10
30.6544
20
-69.2992
11
31.4744
21
-69.2992
0
LINE
8
BLACK
6
CONTINUOUS
10
31.4744
20
-69.2992
11
31.4744
21
-70.2992
0
LINE
8
BLACK
6
CONTINUOUS
10
98.6896
20
-69.25
11
97.4696
21
-69.25
0
LINE
8
BLACK
6
CONTINUOUS
10
97.4696
20
-69.25
11
97.4696
21
-67.45
0
LINE
8
BLACK
6
CONTINUOUS
10
97.4696
20
-67.45
11
98.6896
21
-67.45
0
LINE
8
BLACK
6
CONTINUOUS
10
98.6896
20
-67.45
11
98.6896
21
-69.25
0
LINE
8
BLACK
6
CONTINUOUS
10
101.55
20
-69.25
11
100.33
21
-69.25
0
LINE
8
BLACK
6
CONTINUOUS
10
100.33
20
-69.25
11
100.33
21
-67.45
0
LINE
8
BLACK
6
CONTINUOUS
10
100.33
20
-67.45
11
101.55
21
-67.45
0
LINE
8
BLACK
6
CONTINUOUS
10
101.55
20
-67.45
11
101.55
21
-69.25
0
LINE
8
BLACK
6
CONTINUOUS
10
111.281
20
-68.826
11
110.461
21
-68.826
0
LINE
8
BLACK
6
CONTINUOUS
10
110.461
20
-68.826
11
110.461
21
-67.826
0
LINE
8
BLACK
6
CONTINUOUS
10
110.461
20
-67.826
11
111.281
21
-67.826
0
LINE
8
BLACK
6
CONTINUOUS
10
111.281
20
-67.826
11
111.281
21
-68.826
0
LINE
8
BLACK
6
CONTINUOUS
10
112.881
20
-68.826
11
112.061
21
-68.826
0
LINE
8
BLACK
6
CONTINUOUS
10
112.061
20
-68.826
11
112.061
21
-67.826
0
LINE
8
BLACK
6
CONTINUOUS
10
112.061
20
-67.826
11
112.881
21
-67.826
0
LINE
8
BLACK
6
CONTINUOUS
10
112.881
20
-67.826
11
112.881
21
-68.826
0
LINE
8
BLACK
6
CONTINUOUS
10
33.1136
20
-68.7868
11
32.1136
21
-68.7868
0
LINE
8
BLACK
6
CONTINUOUS
10
32.1136
20
-68.7868
11
32.1136
21
-67.9668
0
LINE
8
BLACK
6
CONTINUOUS
10
32.1136
20
-67.9668
11
33.1136
21
-67.9668
0
LINE
8
BLACK
6
CONTINUOUS
10
33.1136
20
-67.9668
11
33.1136
21
-68.7868
0
LINE
8
BLACK
6
CONTINUOUS
10
51.6175
20
-68.736
11
50.6175
21
-68.736
0
LINE
8
BLACK
6
CONTINUOUS
10
50.6175
20
-68.736
11
50.6175
21
-67.916
0
LINE
8
BLACK
6
CONTINUOUS
10
50.6175
20
-67.916
11
51.6175
21
-67.916
0
LINE
8
BLACK
6
CONTINUOUS
10
51.6175
20
-67.916
11
51.6175
21
-68.736
0
LINE
8
BLACK
6
CONTINUOUS
10
48.3795
20
-68.005
11
47.4795
21
-68.005
0
LINE
8
BLACK
6
CONTINUOUS
10
47.4795
20
-68.005
11
47.4795
21
-66.255
0
LINE
8
BLACK
6
CONTINUOUS
10
47.4795
20
-66.255
11
48.3795
21
-66.255
0
LINE
8
BLACK
6
CONTINUOUS
10
48.3795
20
-66.255
11
48.3795
21
-68.005
0
LINE
8
BLACK
6
CONTINUOUS
10
49.9295
20
-68.005
11
49.0295
21
-68.005
0
LINE
8
BLACK
6
CONTINUOUS
10
49.0295
20
-68.005
11
49.0295
21
-66.255
0
LINE
8
BLACK
6
CONTINUOUS
10
49.0295
20
-66.255
11
49.9295
21
-66.255
0
LINE
8
BLACK
6
CONTINUOUS
10
49.9295
20
-66.255
11
49.9295
21
-68.005
0
LINE
8
BLACK
6
CONTINUOUS
10
104.989
20
-67.666
11
103.189
21
-67.666
0
LINE
8
BLACK
6
CONTINUOUS
10
103.189
20
-67.666
11
103.189
21
-66.446
0
LINE
8
BLACK
6
CONTINUOUS
10
103.189
20
-66.446
11
104.989
21
-66.446
0
LINE
8
BLACK
6
CONTINUOUS
10
104.989
20
-66.446
11
104.989
21
-67.666
0
LINE
8
BLACK
6
CONTINUOUS
10
33.1136
20
-67.1868
11
32.1136
21
-67.1868
0
LINE
8
BLACK
6
CONTINUOUS
10
32.1136
20
-67.1868
11
32.1136
21
-66.3668
0
LINE
8
BLACK
6
CONTINUOUS
10
32.1136
20
-66.3668
11
33.1136
21
-66.3668
0
LINE
8
BLACK
6
CONTINUOUS
10
33.1136
20
-66.3668
11
33.1136
21
-67.1868
0
LINE
8
BLACK
6
CONTINUOUS
10
106.294
20
-67.0706
11
105.644
21
-67.0706
0
LINE
8
BLACK
6
CONTINUOUS
10
105.644
20
-67.0706
11
105.644
21
-66.4956
0
LINE
8
BLACK
6
CONTINUOUS
10
105.644
20
-66.4956
11
106.294
21
-66.4956
0
LINE
8
BLACK
6
CONTINUOUS
10
106.294
20
-66.4956
11
106.294
21
-67.0706
0
LINE
8
BLACK
6
CONTINUOUS
10
106.294
20
-66.2956
11
105.644
21
-66.2956
0
LINE
8
BLACK
6
CONTINUOUS
10
105.644
20
-66.2956
11
105.644
21
-65.7206
0
LINE
8
BLACK
6
CONTINUOUS
10
105.644
20
-65.7206
11
106.294
21
-65.7206
0
LINE
8
BLACK
6
CONTINUOUS
10
106.294
20
-65.7206
11
106.294
21
-66.2956
0
LINE
8
BLACK
6
CONTINUOUS
10
104.989
20
-64.806
11
103.189
21
-64.806
0
LINE
8
BLACK
6
CONTINUOUS
10
103.189
20
-64.806
11
103.189
21
-63.586
0
LINE
8
BLACK
6
CONTINUOUS
10
103.189
20
-63.586
11
104.989
21
-63.586
0
LINE
8
BLACK
6
CONTINUOUS
10
104.989
20
-63.586
11
104.989
21
-64.806
0
LINE
8
BLACK
6
CONTINUOUS
10
101.55
20
-64.55
11
98.05
21
-64.55
0
LINE
8
BLACK
6
CONTINUOUS
10
98.05
20
-64.55
11
98.05
21
-62.95
0
LINE
8
BLACK
6
CONTINUOUS
10
98.05
20
-62.95
11
101.55
21
-62.95
0
LINE
8
BLACK
6
CONTINUOUS
10
101.55
20
-62.95
11
101.55
21
-64.55
0
LINE
8
BLACK
6
CONTINUOUS
10
96.15
20
-64.55
11
92.65
21
-64.55
0
LINE
8
BLACK
6
CONTINUOUS
10
92.65
20
-64.55
11
92.65
21
-62.95
0
LINE
8
BLACK
6
CONTINUOUS
10
92.65
20
-62.95
11
96.15
21
-62.95
0
LINE
8
BLACK
6
CONTINUOUS
10
96.15
20
-62.95
11
96.15
21
-64.55
0
LINE
8
BLACK
6
CONTINUOUS
10
105.04
20
-62.779
11
103.24
21
-62.779
0
LINE
8
BLACK
6
CONTINUOUS
10
103.24
20
-62.779
11
103.24
21
-61.559
0
LINE
8
BLACK
6
CONTINUOUS
10
103.24
20
-61.559
11
105.04
21
-61.559
0
LINE
8
BLACK
6
CONTINUOUS
10
105.04
20
-61.559
11
105.04
21
-62.779
0
LINE
8
BLACK
6
CONTINUOUS
10
39.91
20
-61.44
11
36.41
21
-61.44
0
LINE
8
BLACK
6
CONTINUOUS
10
36.41
20
-61.44
11
36.41
21
-59.84
0
LINE
8
BLACK
6
CONTINUOUS
10
36.41
20
-59.84
11
39.91
21
-59.84
0
LINE
8
BLACK
6
CONTINUOUS
10
39.91
20
-59.84
11
39.91
21
-61.44
0
LINE
8
BLACK
6
CONTINUOUS
10
45.31
20
-61.44
11
41.81
21
-61.44
0
LINE
8
BLACK
6
CONTINUOUS
10
41.81
20
-61.44
11
41.81
21
-59.84
0
LINE
8
BLACK
6
CONTINUOUS
10
41.81
20
-59.84
11
45.31
21
-59.84
0
LINE
8
BLACK
6
CONTINUOUS
10
45.31
20
-59.84
11
45.31
21
-61.44
0
LINE
8
BLACK
6
CONTINUOUS
10
34.5804
20
-60.7724
11
32.7804
21
-60.7724
0
LINE
8
BLACK
6
CONTINUOUS
10
32.7804
20
-60.7724
11
32.7804
21
-59.5524
0
LINE
8
BLACK
6
CONTINUOUS
10
32.7804
20
-59.5524
11
34.5804
21
-59.5524
0
LINE
8
BLACK
6
CONTINUOUS
10
34.5804
20
-59.5524
11
34.5804
21
-60.7724
0
LINE
8
BLACK
6
CONTINUOUS
10
106.497
20
-60.657
11
105.847
21
-60.657
0
LINE
8
BLACK
6
CONTINUOUS
10
105.847
20
-60.657
11
105.847
21
-60.082
0
LINE
8
BLACK
6
CONTINUOUS
10
105.847
20
-60.082
11
106.497
21
-60.082
0
LINE
8
BLACK
6
CONTINUOUS
10
106.497
20
-60.082
11
106.497
21
-60.657
0
LINE
8
BLACK
6
CONTINUOUS
10
105.04
20
-59.919
11
103.24
21
-59.919
0
LINE
8
BLACK
6
CONTINUOUS
10
103.24
20
-59.919
11
103.24
21
-58.699
0
LINE
8
BLACK
6
CONTINUOUS
10
103.24
20
-58.699
11
105.04
21
-58.699
0
LINE
8
BLACK
6
CONTINUOUS
10
105.04
20
-58.699
11
105.04
21
-59.919
0
LINE
8
BLACK
6
CONTINUOUS
10
106.497
20
-59.882
11
105.847
21
-59.882
0
LINE
8
BLACK
6
CONTINUOUS
10
105.847
20
-59.882
11
105.847
21
-59.307
0
LINE
8
BLACK
6
CONTINUOUS
10
105.847
20
-59.307
11
106.497
21
-59.307
0
LINE
8
BLACK
6
CONTINUOUS
10
106.497
20
-59.307
11
106.497
21
-59.882
0
LINE
8
BLACK
6
CONTINUOUS
10
98.6972
20
-59.828
11
97.4772
21
-59.828
0
LINE
8
BLACK
6
CONTINUOUS
10
97.4772
20
-59.828
11
97.4772
21
-58.028
0
LINE
8
BLACK
6
CONTINUOUS
10
97.4772
20
-58.028
11
98.6972
21
-58.028
0
LINE
8
BLACK
6
CONTINUOUS
10
98.6972
20
-58.028
11
98.6972
21
-59.828
0
LINE
8
BLACK
6
CONTINUOUS
10
101.557
20
-59.828
11
100.337
21
-59.828
0
LINE
8
BLACK
6
CONTINUOUS
10
100.337
20
-59.828
11
100.337
21
-58.028
0
LINE
8
BLACK
6
CONTINUOUS
10
100.337
20
-58.028
11
101.557
21
-58.028
0
LINE
8
BLACK
6
CONTINUOUS
10
101.557
20
-58.028
11
101.557
21
-59.828
0
LINE
8
BLACK
6
CONTINUOUS
10
31.9226
20
-58.7774
11
31.2726
21
-58.7774
0
LINE
8
BLACK
6
CONTINUOUS
10
31.2726
20
-58.7774
11
31.2726
21
-58.2024
0
LINE
8
BLACK
6
CONTINUOUS
10
31.2726
20
-58.2024
11
31.9226
21
-58.2024
0
LINE
8
BLACK
6
CONTINUOUS
10
31.9226
20
-58.2024
11
31.9226
21
-58.7774
0
LINE
8
BLACK
6
CONTINUOUS
10
31.9226
20
-58.0024
11
31.2726
21
-58.0024
0
LINE
8
BLACK
6
CONTINUOUS
10
31.2726
20
-58.0024
11
31.2726
21
-57.4274
0
LINE
8
BLACK
6
CONTINUOUS
10
31.2726
20
-57.4274
11
31.9226
21
-57.4274
0
LINE
8
BLACK
6
CONTINUOUS
10
31.9226
20
-57.4274
11
31.9226
21
-58.0024
0
LINE
8
BLACK
6
CONTINUOUS
10
34.5804
20
-57.9124
11
32.7804
21
-57.9124
0
LINE
8
BLACK
6
CONTINUOUS
10
32.7804
20
-57.9124
11
32.7804
21
-56.6924
0
LINE
8
BLACK
6
CONTINUOUS
10
32.7804
20
-56.6924
11
34.5804
21
-56.6924
0
LINE
8
BLACK
6
CONTINUOUS
10
34.5804
20
-56.6924
11
34.5804
21
-57.9124
0
LINE
8
BLACK
6
CONTINUOUS
10
100.243
20
-57.3226
11
99.6678
21
-57.3226
0
LINE
8
BLACK
6
CONTINUOUS
10
99.6678
20
-57.3226
11
99.6678
21
-56.6726
0
LINE
8
BLACK
6
CONTINUOUS
10
99.6678
20
-56.6726
11
100.243
21
-56.6726
0
LINE
8
BLACK
6
CONTINUOUS
10
100.243
20
-56.6726
11
100.243
21
-57.3226
0
LINE
8
BLACK
6
CONTINUOUS
10
101.018
20
-57.3226
11
100.443
21
-57.3226
0
LINE
8
BLACK
6
CONTINUOUS
10
100.443
20
-57.3226
11
100.443
21
-56.6726
0
LINE
8
BLACK
6
CONTINUOUS
10
100.443
20
-56.6726
11
101.018
21
-56.6726
0
LINE
8
BLACK
6
CONTINUOUS
10
101.018
20
-56.6726
11
101.018
21
-57.3226
0
LINE
8
BLACK
6
CONTINUOUS
10
26.7496
20
-56.9896
11
25.9296
21
-56.9896
0
LINE
8
BLACK
6
CONTINUOUS
10
25.9296
20
-56.9896
11
25.9296
21
-55.9896
0
LINE
8
BLACK
6
CONTINUOUS
10
25.9296
20
-55.9896
11
26.7496
21
-55.9896
0
LINE
8
BLACK
6
CONTINUOUS
10
26.7496
20
-55.9896
11
26.7496
21
-56.9896
0
LINE
8
BLACK
6
CONTINUOUS
10
25.1496
20
-56.9896
11
24.3296
21
-56.9896
0
LINE
8
BLACK
6
CONTINUOUS
10
24.3296
20
-56.9896
11
24.3296
21
-55.9896
0
LINE
8
BLACK
6
CONTINUOUS
10
24.3296
20
-55.9896
11
25.1496
21
-55.9896
0
LINE
8
BLACK
6
CONTINUOUS
10
25.1496
20
-55.9896
11
25.1496
21
-56.9896
0
LINE
8
BLACK
6
CONTINUOUS
10
40.48
20
-56.84
11
39.26
21
-56.84
0
LINE
8
BLACK
6
CONTINUOUS
10
39.26
20
-56.84
11
39.26
21
-55.04
0
LINE
8
BLACK
6
CONTINUOUS
10
39.26
20
-55.04
11
40.48
21
-55.04
0
LINE
8
BLACK
6
CONTINUOUS
10
40.48
20
-55.04
11
40.48
21
-56.84
0
LINE
8
BLACK
6
CONTINUOUS
10
37.62
20
-56.84
11
36.4
21
-56.84
0
LINE
8
BLACK
6
CONTINUOUS
10
36.4
20
-56.84
11
36.4
21
-55.04
0
LINE
8
BLACK
6
CONTINUOUS
10
36.4
20
-55.04
11
37.62
21
-55.04
0
LINE
8
BLACK
6
CONTINUOUS
10
37.62
20
-55.04
11
37.62
21
-56.84
0
LINE
8
BLACK
6
CONTINUOUS
10
99.1447
20
-56.1212
11
98.4376
21
-56.8283
0
LINE
8
BLACK
6
CONTINUOUS
10
98.4376
20
-56.8283
11
97.8577
21
-56.2484
0
LINE
8
BLACK
6
CONTINUOUS
10
97.8577
20
-56.2484
11
98.5648
21
-55.5413
0
LINE
8
BLACK
6
CONTINUOUS
10
98.5648
20
-55.5413
11
99.1447
21
-56.1212
0
LINE
8
BLACK
6
CONTINUOUS
10
103.557
20
-55.9545
11
103.257
21
-55.9545
0
LINE
8
BLACK
6
CONTINUOUS
10
103.257
20
-55.9545
11
103.257
21
-54.4545
0
LINE
8
BLACK
6
CONTINUOUS
10
103.257
20
-54.4545
11
103.557
21
-54.4545
0
LINE
8
BLACK
6
CONTINUOUS
10
103.557
20
-54.4545
11
103.557
21
-55.9545
0
LINE
8
BLACK
6
CONTINUOUS
10
101.557
20
-55.9545
11
101.257
21
-55.9545
0
LINE
8
BLACK
6
CONTINUOUS
10
101.257
20
-55.9545
11
101.257
21
-54.4545
0
LINE
8
BLACK
6
CONTINUOUS
10
101.257
20
-54.4545
11
101.557
21
-54.4545
0
LINE
8
BLACK
6
CONTINUOUS
10
101.557
20
-54.4545
11
101.557
21
-55.9545
0
LINE
8
BLACK
6
CONTINUOUS
10
101.057
20
-55.9545
11
100.757
21
-55.9545
0
LINE
8
BLACK
6
CONTINUOUS
10
100.757
20
-55.9545
11
100.757
21
-54.4545
0
LINE
8
BLACK
6
CONTINUOUS
10
100.757
20
-54.4545
11
101.057
21
-54.4545
0
LINE
8
BLACK
6
CONTINUOUS
10
101.057
20
-54.4545
11
101.057
21
-55.9545
0
LINE
8
BLACK
6
CONTINUOUS
10
100.557
20
-55.9545
11
100.257
21
-55.9545
0
LINE
8
BLACK
6
CONTINUOUS
10
100.257
20
-55.9545
11
100.257
21
-54.4545
0
LINE
8
BLACK
6
CONTINUOUS
10
100.257
20
-54.4545
11
100.557
21
-54.4545
0
LINE
8
BLACK
6
CONTINUOUS
10
100.557
20
-54.4545
11
100.557
21
-55.9545
0
LINE
8
BLACK
6
CONTINUOUS
10
100.057
20
-55.9545
11
99.757
21
-55.9545
0
LINE
8
BLACK
6
CONTINUOUS
10
99.757
20
-55.9545
11
99.757
21
-54.4545
0
LINE
8
BLACK
6
CONTINUOUS
10
99.757
20
-54.4545
11
100.057
21
-54.4545
0
LINE
8
BLACK
6
CONTINUOUS
10
100.057
20
-54.4545
11
100.057
21
-55.9545
0
LINE
8
BLACK
6
CONTINUOUS
10
105.557
20
-55.9545
11
105.257
21
-55.9545
0
LINE
8
BLACK
6
CONTINUOUS
10
105.257
20
-55.9545
11
105.257
21
-54.4545
0
LINE
8
BLACK
6
CONTINUOUS
10
105.257
20
-54.4545
11
105.557
21
-54.4545
0
LINE
8
BLACK
6
CONTINUOUS
10
105.557
20
-54.4545
11
105.557
21
-55.9545
0
LINE
8
BLACK
6
CONTINUOUS
10
104.557
20
-55.9545
11
104.257
21
-55.9545
0
LINE
8
BLACK
6
CONTINUOUS
10
104.257
20
-55.9545
11
104.257
21
-54.4545
0
LINE
8
BLACK
6
CONTINUOUS
10
104.257
20
-54.4545
11
104.557
21
-54.4545
0
LINE
8
BLACK
6
CONTINUOUS
10
104.557
20
-54.4545
11
104.557
21
-55.9545
0
LINE
8
BLACK
6
CONTINUOUS
10
102.557
20
-55.9545
11
102.257
21
-55.9545
0
LINE
8
BLACK
6
CONTINUOUS
10
102.257
20
-55.9545
11
102.257
21
-54.4545
0
LINE
8
BLACK
6
CONTINUOUS
10
102.257
20
-54.4545
11
102.557
21
-54.4545
0
LINE
8
BLACK
6
CONTINUOUS
10
102.557
20
-54.4545
11
102.557
21
-55.9545
0
LINE
8
BLACK
6
CONTINUOUS
10
98.0133
20
-54.9898
11
97.3062
21
-55.6969
0
LINE
8
BLACK
6
CONTINUOUS
10
97.3062
20
-55.6969
11
96.7264
21
-55.1171
0
LINE
8
BLACK
6
CONTINUOUS
10
96.7264
20
-55.1171
11
97.4335
21
-54.41
0
LINE
8
BLACK
6
CONTINUOUS
10
97.4335
20
-54.41
11
98.0133
21
-54.9898
0
LINE
8
BLACK
6
CONTINUOUS
10
61.9794
20
-55.5926
11
61.1594
21
-55.5926
0
LINE
8
BLACK
6
CONTINUOUS
10
61.1594
20
-55.5926
11
61.1594
21
-54.5926
0
LINE
8
BLACK
6
CONTINUOUS
10
61.1594
20
-54.5926
11
61.9794
21
-54.5926
0
LINE
8
BLACK
6
CONTINUOUS
10
61.9794
20
-54.5926
11
61.9794
21
-55.5926
0
LINE
8
BLACK
6
CONTINUOUS
10
60.3794
20
-55.5926
11
59.5594
21
-55.5926
0
LINE
8
BLACK
6
CONTINUOUS
10
59.5594
20
-55.5926
11
59.5594
21
-54.5926
0
LINE
8
BLACK
6
CONTINUOUS
10
59.5594
20
-54.5926
11
60.3794
21
-54.5926
0
LINE
8
BLACK
6
CONTINUOUS
10
60.3794
20
-54.5926
11
60.3794
21
-55.5926
0
LINE
8
BLACK
6
CONTINUOUS
10
115.993
20
-55.5672
11
115.173
21
-55.5672
0
LINE
8
BLACK
6
CONTINUOUS
10
115.173
20
-55.5672
11
115.173
21
-54.5672
0
LINE
8
BLACK
6
CONTINUOUS
10
115.173
20
-54.5672
11
115.993
21
-54.5672
0
LINE
8
BLACK
6
CONTINUOUS
10
115.993
20
-54.5672
11
115.993
21
-55.5672
0
LINE
8
BLACK
6
CONTINUOUS
10
117.593
20
-55.5672
11
116.773
21
-55.5672
0
LINE
8
BLACK
6
CONTINUOUS
10
116.773
20
-55.5672
11
116.773
21
-54.5672
0
LINE
8
BLACK
6
CONTINUOUS
10
116.773
20
-54.5672
11
117.593
21
-54.5672
0
LINE
8
BLACK
6
CONTINUOUS
10
117.593
20
-54.5672
11
117.593
21
-55.5672
0
LINE
8
BLACK
6
CONTINUOUS
10
34.7062
20
-54.2467
11
34.4062
21
-54.2467
0
LINE
8
BLACK
6
CONTINUOUS
10
34.4062
20
-54.2467
11
34.4062
21
-52.7467
0
LINE
8
BLACK
6
CONTINUOUS
10
34.4062
20
-52.7467
11
34.7062
21
-52.7467
0
LINE
8
BLACK
6
CONTINUOUS
10
34.7062
20
-52.7467
11
34.7062
21
-54.2467
0
LINE
8
BLACK
6
CONTINUOUS
10
33.7062
20
-54.2467
11
33.4062
21
-54.2467
0
LINE
8
BLACK
6
CONTINUOUS
10
33.4062
20
-54.2467
11
33.4062
21
-52.7467
0
LINE
8
BLACK
6
CONTINUOUS
10
33.4062
20
-52.7467
11
33.7062
21
-52.7467
0
LINE
8
BLACK
6
CONTINUOUS
10
33.7062
20
-52.7467
11
33.7062
21
-54.2467
0
LINE
8
BLACK
6
CONTINUOUS
10
32.7062
20
-54.2467
11
32.4062
21
-54.2467
0
LINE
8
BLACK
6
CONTINUOUS
10
32.4062
20
-54.2467
11
32.4062
21
-52.7467
0
LINE
8
BLACK
6
CONTINUOUS
10
32.4062
20
-52.7467
11
32.7062
21
-52.7467
0
LINE
8
BLACK
6
CONTINUOUS
10
32.7062
20
-52.7467
11
32.7062
21
-54.2467
0
LINE
8
BLACK
6
CONTINUOUS
10
35.7062
20
-54.2467
11
35.4062
21
-54.2467
0
LINE
8
BLACK
6
CONTINUOUS
10
35.4062
20
-54.2467
11
35.4062
21
-52.7467
0
LINE
8
BLACK
6
CONTINUOUS
10
35.4062
20
-52.7467
11
35.7062
21
-52.7467
0
LINE
8
BLACK
6
CONTINUOUS
10
35.7062
20
-52.7467
11
35.7062
21
-54.2467
0
LINE
8
BLACK
6
CONTINUOUS
10
36.7062
20
-54.2467
11
36.4062
21
-54.2467
0
LINE
8
BLACK
6
CONTINUOUS
10
36.4062
20
-54.2467
11
36.4062
21
-52.7467
0
LINE
8
BLACK
6
CONTINUOUS
10
36.4062
20
-52.7467
11
36.7062
21
-52.7467
0
LINE
8
BLACK
6
CONTINUOUS
10
36.7062
20
-52.7467
11
36.7062
21
-54.2467
0
LINE
8
BLACK
6
CONTINUOUS
10
37.7062
20
-54.2467
11
37.4062
21
-54.2467
0
LINE
8
BLACK
6
CONTINUOUS
10
37.4062
20
-54.2467
11
37.4062
21
-52.7467
0
LINE
8
BLACK
6
CONTINUOUS
10
37.4062
20
-52.7467
11
37.7062
21
-52.7467
0
LINE
8
BLACK
6
CONTINUOUS
10
37.7062
20
-52.7467
11
37.7062
21
-54.2467
0
LINE
8
BLACK
6
CONTINUOUS
10
38.2062
20
-54.2467
11
37.9062
21
-54.2467
0
LINE
8
BLACK
6
CONTINUOUS
10
37.9062
20
-54.2467
11
37.9062
21
-52.7467
0
LINE
8
BLACK
6
CONTINUOUS
10
37.9062
20
-52.7467
11
38.2062
21
-52.7467
0
LINE
8
BLACK
6
CONTINUOUS
10
38.2062
20
-52.7467
11
38.2062
21
-54.2467
0
LINE
8
BLACK
6
CONTINUOUS
10
94.9996
20
-53.9924
11
94.1796
21
-53.9924
0
LINE
8
BLACK
6
CONTINUOUS
10
94.1796
20
-53.9924
11
94.1796
21
-52.9924
0
LINE
8
BLACK
6
CONTINUOUS
10
94.1796
20
-52.9924
11
94.9996
21
-52.9924
0
LINE
8
BLACK
6
CONTINUOUS
10
94.9996
20
-52.9924
11
94.9996
21
-53.9924
0
LINE
8
BLACK
6
CONTINUOUS
10
96.5996
20
-53.9924
11
95.7796
21
-53.9924
0
LINE
8
BLACK
6
CONTINUOUS
10
95.7796
20
-53.9924
11
95.7796
21
-52.9924
0
LINE
8
BLACK
6
CONTINUOUS
10
95.7796
20
-52.9924
11
96.5996
21
-52.9924
0
LINE
8
BLACK
6
CONTINUOUS
10
96.5996
20
-52.9924
11
96.5996
21
-53.9924
0
LINE
8
BLACK
6
CONTINUOUS
10
61.9934
20
-53.9786
11
60.9934
21
-53.9786
0
LINE
8
BLACK
6
CONTINUOUS
10
60.9934
20
-53.9786
11
60.9934
21
-53.1586
0
LINE
8
BLACK
6
CONTINUOUS
10
60.9934
20
-53.1586
11
61.9934
21
-53.1586
0
LINE
8
BLACK
6
CONTINUOUS
10
61.9934
20
-53.1586
11
61.9934
21
-53.9786
0
LINE
8
BLACK
6
CONTINUOUS
10
107.607
20
-53.9045
11
106.107
21
-53.9045
0
LINE
8
BLACK
6
CONTINUOUS
10
106.107
20
-53.9045
11
106.107
21
-53.6045
0
LINE
8
BLACK
6
CONTINUOUS
10
106.107
20
-53.6045
11
107.607
21
-53.6045
0
LINE
8
BLACK
6
CONTINUOUS
10
107.607
20
-53.6045
11
107.607
21
-53.9045
0
LINE
8
BLACK
6
CONTINUOUS
10
99.207
20
-53.9045
11
97.707
21
-53.9045
0
LINE
8
BLACK
6
CONTINUOUS
10
97.707
20
-53.9045
11
97.707
21
-53.6045
0
LINE
8
BLACK
6
CONTINUOUS
10
97.707
20
-53.6045
11
99.207
21
-53.6045
0
LINE
8
BLACK
6
CONTINUOUS
10
99.207
20
-53.6045
11
99.207
21
-53.9045
0
LINE
8
BLACK
6
CONTINUOUS
10
110.99
20
-53.699
11
109.99
21
-53.699
0
LINE
8
BLACK
6
CONTINUOUS
10
109.99
20
-53.699
11
109.99
21
-52.879
0
LINE
8
BLACK
6
CONTINUOUS
10
109.99
20
-52.879
11
110.99
21
-52.879
0
LINE
8
BLACK
6
CONTINUOUS
10
110.99
20
-52.879
11
110.99
21
-53.699
0
LINE
8
BLACK
6
CONTINUOUS
10
107.607
20
-53.4045
11
106.107
21
-53.4045
0
LINE
8
BLACK
6
CONTINUOUS
10
106.107
20
-53.4045
11
106.107
21
-53.1045
0
LINE
8
BLACK
6
CONTINUOUS
10
106.107
20
-53.1045
11
107.607
21
-53.1045
0
LINE
8
BLACK
6
CONTINUOUS
10
107.607
20
-53.1045
11
107.607
21
-53.4045
0
LINE
8
BLACK
6
CONTINUOUS
10
99.207
20
-53.4045
11
97.707
21
-53.4045
0
LINE
8
BLACK
6
CONTINUOUS
10
97.707
20
-53.4045
11
97.707
21
-53.1045
0
LINE
8
BLACK
6
CONTINUOUS
10
97.707
20
-53.1045
11
99.207
21
-53.1045
0
LINE
8
BLACK
6
CONTINUOUS
10
99.207
20
-53.1045
11
99.207
21
-53.4045
0
LINE
8
BLACK
6
CONTINUOUS
10
22.725
20
-53.318
11
21.725
21
-53.318
0
LINE
8
BLACK
6
CONTINUOUS
10
21.725
20
-53.318
11
21.725
21
-52.498
0
LINE
8
BLACK
6
CONTINUOUS
10
21.725
20
-52.498
11
22.725
21
-52.498
0
LINE
8
BLACK
6
CONTINUOUS
10
22.725
20
-52.498
11
22.725
21
-53.318
0
LINE
8
BLACK
6
CONTINUOUS
10
29.71
20
-53.2545
11
28.71
21
-53.2545
0
LINE
8
BLACK
6
CONTINUOUS
10
28.71
20
-53.2545
11
28.71
21
-52.4345
0
LINE
8
BLACK
6
CONTINUOUS
10
28.71
20
-52.4345
11
29.71
21
-52.4345
0
LINE
8
BLACK
6
CONTINUOUS
10
29.71
20
-52.4345
11
29.71
21
-53.2545
0
LINE
8
BLACK
6
CONTINUOUS
10
99.207
20
-52.9045
11
97.707
21
-52.9045
0
LINE
8
BLACK
6
CONTINUOUS
10
97.707
20
-52.9045
11
97.707
21
-52.6045
0
LINE
8
BLACK
6
CONTINUOUS
10
97.707
20
-52.6045
11
99.207
21
-52.6045
0
LINE
8
BLACK
6
CONTINUOUS
10
99.207
20
-52.6045
11
99.207
21
-52.9045
0
LINE
8
BLACK
6
CONTINUOUS
10
107.607
20
-52.9045
11
106.107
21
-52.9045
0
LINE
8
BLACK
6
CONTINUOUS
10
106.107
20
-52.9045
11
106.107
21
-52.6045
0
LINE
8
BLACK
6
CONTINUOUS
10
106.107
20
-52.6045
11
107.607
21
-52.6045
0
LINE
8
BLACK
6
CONTINUOUS
10
107.607
20
-52.6045
11
107.607
21
-52.9045
0
LINE
8
BLACK
6
CONTINUOUS
10
102.457
20
-52.5545
11
101.107
21
-52.5545
0
LINE
8
BLACK
6
CONTINUOUS
10
101.107
20
-52.5545
11
101.107
21
-51.2045
0
LINE
8
BLACK
6
CONTINUOUS
10
101.107
20
-51.2045
11
102.457
21
-51.2045
0
LINE
8
BLACK
6
CONTINUOUS
10
102.457
20
-51.2045
11
102.457
21
-52.5545
0
LINE
8
BLACK
6
CONTINUOUS
10
104.207
20
-52.5545
11
102.857
21
-52.5545
0
LINE
8
BLACK
6
CONTINUOUS
10
102.857
20
-52.5545
11
102.857
21
-51.2045
0
LINE
8
BLACK
6
CONTINUOUS
10
102.857
20
-51.2045
11
104.207
21
-51.2045
0
LINE
8
BLACK
6
CONTINUOUS
10
104.207
20
-51.2045
11
104.207
21
-52.5545
0
LINE
8
BLACK
6
CONTINUOUS
10
99.207
20
-52.4045
11
97.707
21
-52.4045
0
LINE
8
BLACK
6
CONTINUOUS
10
97.707
20
-52.4045
11
97.707
21
-52.1045
0
LINE
8
BLACK
6
CONTINUOUS
10
97.707
20
-52.1045
11
99.207
21
-52.1045
0
LINE
8
BLACK
6
CONTINUOUS
10
99.207
20
-52.1045
11
99.207
21
-52.4045
0
LINE
8
BLACK
6
CONTINUOUS
10
107.607
20
-52.4045
11
106.107
21
-52.4045
0
LINE
8
BLACK
6
CONTINUOUS
10
106.107
20
-52.4045
11
106.107
21
-52.1045
0
LINE
8
BLACK
6
CONTINUOUS
10
106.107
20
-52.1045
11
107.607
21
-52.1045
0
LINE
8
BLACK
6
CONTINUOUS
10
107.607
20
-52.1045
11
107.607
21
-52.4045
0
LINE
8
BLACK
6
CONTINUOUS
10
61.9934
20
-52.3786
11
60.9934
21
-52.3786
0
LINE
8
BLACK
6
CONTINUOUS
10
60.9934
20
-52.3786
11
60.9934
21
-51.5586
0
LINE
8
BLACK
6
CONTINUOUS
10
60.9934
20
-51.5586
11
61.9934
21
-51.5586
0
LINE
8
BLACK
6
CONTINUOUS
10
61.9934
20
-51.5586
11
61.9934
21
-52.3786
0
LINE
8
BLACK
6
CONTINUOUS
10
95.2792
20
-52.3668
11
94.4592
21
-52.3668
0
LINE
8
BLACK
6
CONTINUOUS
10
94.4592
20
-52.3668
11
94.4592
21
-51.3668
0
LINE
8
BLACK
6
CONTINUOUS
10
94.4592
20
-51.3668
11
95.2792
21
-51.3668
0
LINE
8
BLACK
6
CONTINUOUS
10
95.2792
20
-51.3668
11
95.2792
21
-52.3668
0
LINE
8
BLACK
6
CONTINUOUS
10
96.8792
20
-52.3668
11
96.0592
21
-52.3668
0
LINE
8
BLACK
6
CONTINUOUS
10
96.0592
20
-52.3668
11
96.0592
21
-51.3668
0
LINE
8
BLACK
6
CONTINUOUS
10
96.0592
20
-51.3668
11
96.8792
21
-51.3668
0
LINE
8
BLACK
6
CONTINUOUS
10
96.8792
20
-51.3668
11
96.8792
21
-52.3668
0
LINE
8
BLACK
6
CONTINUOUS
10
31.8562
20
-52.1967
11
30.3562
21
-52.1967
0
LINE
8
BLACK
6
CONTINUOUS
10
30.3562
20
-52.1967
11
30.3562
21
-51.8967
0
LINE
8
BLACK
6
CONTINUOUS
10
30.3562
20
-51.8967
11
31.8562
21
-51.8967
0
LINE
8
BLACK
6
CONTINUOUS
10
31.8562
20
-51.8967
11
31.8562
21
-52.1967
0
LINE
8
BLACK
6
CONTINUOUS
10
40.2562
20
-52.1967
11
38.7562
21
-52.1967
0
LINE
8
BLACK
6
CONTINUOUS
10
38.7562
20
-52.1967
11
38.7562
21
-51.8967
0
LINE
8
BLACK
6
CONTINUOUS
10
38.7562
20
-51.8967
11
40.2562
21
-51.8967
0
LINE
8
BLACK
6
CONTINUOUS
10
40.2562
20
-51.8967
11
40.2562
21
-52.1967
0
LINE
8
BLACK
6
CONTINUOUS
10
110.99
20
-52.099
11
109.99
21
-52.099
0
LINE
8
BLACK
6
CONTINUOUS
10
109.99
20
-52.099
11
109.99
21
-51.279
0
LINE
8
BLACK
6
CONTINUOUS
10
109.99
20
-51.279
11
110.99
21
-51.279
0
LINE
8
BLACK
6
CONTINUOUS
10
110.99
20
-51.279
11
110.99
21
-52.099
0
LINE
8
BLACK
6
CONTINUOUS
10
99.207
20
-51.9045
11
97.707
21
-51.9045
0
LINE
8
BLACK
6
CONTINUOUS
10
97.707
20
-51.9045
11
97.707
21
-51.6045
0
LINE
8
BLACK
6
CONTINUOUS
10
97.707
20
-51.6045
11
99.207
21
-51.6045
0
LINE
8
BLACK
6
CONTINUOUS
10
99.207
20
-51.6045
11
99.207
21
-51.9045
0
LINE
8
BLACK
6
CONTINUOUS
10
107.607
20
-51.9045
11
106.107
21
-51.9045
0
LINE
8
BLACK
6
CONTINUOUS
10
106.107
20
-51.9045
11
106.107
21
-51.6045
0
LINE
8
BLACK
6
CONTINUOUS
10
106.107
20
-51.6045
11
107.607
21
-51.6045
0
LINE
8
BLACK
6
CONTINUOUS
10
107.607
20
-51.6045
11
107.607
21
-51.9045
0
LINE
8
BLACK
6
CONTINUOUS
10
22.725
20
-51.718
11
21.725
21
-51.718
0
LINE
8
BLACK
6
CONTINUOUS
10
21.725
20
-51.718
11
21.725
21
-50.898
0
LINE
8
BLACK
6
CONTINUOUS
10
21.725
20
-50.898
11
22.725
21
-50.898
0
LINE
8
BLACK
6
CONTINUOUS
10
22.725
20
-50.898
11
22.725
21
-51.718
0
LINE
8
BLACK
6
CONTINUOUS
10
31.8562
20
-51.6967
11
30.3562
21
-51.6967
0
LINE
8
BLACK
6
CONTINUOUS
10
30.3562
20
-51.6967
11
30.3562
21
-51.3967
0
LINE
8
BLACK
6
CONTINUOUS
10
30.3562
20
-51.3967
11
31.8562
21
-51.3967
0
LINE
8
BLACK
6
CONTINUOUS
10
31.8562
20
-51.3967
11
31.8562
21
-51.6967
0
LINE
8
BLACK
6
CONTINUOUS
10
40.2562
20
-51.6967
11
38.7562
21
-51.6967
0
LINE
8
BLACK
6
CONTINUOUS
10
38.7562
20
-51.6967
11
38.7562
21
-51.3967
0
LINE
8
BLACK
6
CONTINUOUS
10
38.7562
20
-51.3967
11
40.2562
21
-51.3967
0
LINE
8
BLACK
6
CONTINUOUS
10
40.2562
20
-51.3967
11
40.2562
21
-51.6967
0
LINE
8
BLACK
6
CONTINUOUS
10
29.71
20
-51.6545
11
28.71
21
-51.6545
0
LINE
8
BLACK
6
CONTINUOUS
10
28.71
20
-51.6545
11
28.71
21
-50.8345
0
LINE
8
BLACK
6
CONTINUOUS
10
28.71
20
-50.8345
11
29.71
21
-50.8345
0
LINE
8
BLACK
6
CONTINUOUS
10
29.71
20
-50.8345
11
29.71
21
-51.6545
0
LINE
8
BLACK
6
CONTINUOUS
10
107.607
20
-51.4045
11
106.107
21
-51.4045
0
LINE
8
BLACK
6
CONTINUOUS
10
106.107
20
-51.4045
11
106.107
21
-51.1045
0
LINE
8
BLACK
6
CONTINUOUS
10
106.107
20
-51.1045
11
107.607
21
-51.1045
0
LINE
8
BLACK
6
CONTINUOUS
10
107.607
20
-51.1045
11
107.607
21
-51.4045
0
LINE
8
BLACK
6
CONTINUOUS
10
99.207
20
-51.4045
11
97.707
21
-51.4045
0
LINE
8
BLACK
6
CONTINUOUS
10
97.707
20
-51.4045
11
97.707
21
-51.1045
0
LINE
8
BLACK
6
CONTINUOUS
10
97.707
20
-51.1045
11
99.207
21
-51.1045
0
LINE
8
BLACK
6
CONTINUOUS
10
99.207
20
-51.1045
11
99.207
21
-51.4045
0
LINE
8
BLACK
6
CONTINUOUS
10
31.8562
20
-51.1967
11
30.3562
21
-51.1967
0
LINE
8
BLACK
6
CONTINUOUS
10
30.3562
20
-51.1967
11
30.3562
21
-50.8967
0
LINE
8
BLACK
6
CONTINUOUS
10
30.3562
20
-50.8967
11
31.8562
21
-50.8967
0
LINE
8
BLACK
6
CONTINUOUS
10
31.8562
20
-50.8967
11
31.8562
21
-51.1967
0
LINE
8
BLACK
6
CONTINUOUS
10
40.2562
20
-51.1967
11
38.7562
21
-51.1967
0
LINE
8
BLACK
6
CONTINUOUS
10
38.7562
20
-51.1967
11
38.7562
21
-50.8967
0
LINE
8
BLACK
6
CONTINUOUS
10
38.7562
20
-50.8967
11
40.2562
21
-50.8967
0
LINE
8
BLACK
6
CONTINUOUS
10
40.2562
20
-50.8967
11
40.2562
21
-51.1967
0
LINE
8
BLACK
6
CONTINUOUS
10
107.607
20
-50.9045
11
106.107
21
-50.9045
0
LINE
8
BLACK
6
CONTINUOUS
10
106.107
20
-50.9045
11
106.107
21
-50.6045
0
LINE
8
BLACK
6
CONTINUOUS
10
106.107
20
-50.6045
11
107.607
21
-50.6045
0
LINE
8
BLACK
6
CONTINUOUS
10
107.607
20
-50.6045
11
107.607
21
-50.9045
0
LINE
8
BLACK
6
CONTINUOUS
10
99.207
20
-50.9045
11
97.707
21
-50.9045
0
LINE
8
BLACK
6
CONTINUOUS
10
97.707
20
-50.9045
11
97.707
21
-50.6045
0
LINE
8
BLACK
6
CONTINUOUS
10
97.707
20
-50.6045
11
99.207
21
-50.6045
0
LINE
8
BLACK
6
CONTINUOUS
10
99.207
20
-50.6045
11
99.207
21
-50.9045
0
LINE
8
BLACK
6
CONTINUOUS
10
36.8562
20
-50.8467
11
35.5062
21
-50.8467
0
LINE
8
BLACK
6
CONTINUOUS
10
35.5062
20
-50.8467
11
35.5062
21
-49.4967
0
LINE
8
BLACK
6
CONTINUOUS
10
35.5062
20
-49.4967
11
36.8562
21
-49.4967
0
LINE
8
BLACK
6
CONTINUOUS
10
36.8562
20
-49.4967
11
36.8562
21
-50.8467
0
LINE
8
BLACK
6
CONTINUOUS
10
35.1062
20
-50.8467
11
33.7562
21
-50.8467
0
LINE
8
BLACK
6
CONTINUOUS
10
33.7562
20
-50.8467
11
33.7562
21
-49.4967
0
LINE
8
BLACK
6
CONTINUOUS
10
33.7562
20
-49.4967
11
35.1062
21
-49.4967
0
LINE
8
BLACK
6
CONTINUOUS
10
35.1062
20
-49.4967
11
35.1062
21
-50.8467
0
LINE
8
BLACK
6
CONTINUOUS
10
104.207
20
-50.8045
11
102.857
21
-50.8045
0
LINE
8
BLACK
6
CONTINUOUS
10
102.857
20
-50.8045
11
102.857
21
-49.4545
0
LINE
8
BLACK
6
CONTINUOUS
10
102.857
20
-49.4545
11
104.207
21
-49.4545
0
LINE
8
BLACK
6
CONTINUOUS
10
104.207
20
-49.4545
11
104.207
21
-50.8045
0
LINE
8
BLACK
6
CONTINUOUS
10
102.457
20
-50.8045
11
101.107
21
-50.8045
0
LINE
8
BLACK
6
CONTINUOUS
10
101.107
20
-50.8045
11
101.107
21
-49.4545
0
LINE
8
BLACK
6
CONTINUOUS
10
101.107
20
-49.4545
11
102.457
21
-49.4545
0
LINE
8
BLACK
6
CONTINUOUS
10
102.457
20
-49.4545
11
102.457
21
-50.8045
0
LINE
8
BLACK
6
CONTINUOUS
10
40.2562
20
-50.6967
11
38.7562
21
-50.6967
0
LINE
8
BLACK
6
CONTINUOUS
10
38.7562
20
-50.6967
11
38.7562
21
-50.3967
0
LINE
8
BLACK
6
CONTINUOUS
10
38.7562
20
-50.3967
11
40.2562
21
-50.3967
0
LINE
8
BLACK
6
CONTINUOUS
10
40.2562
20
-50.3967
11
40.2562
21
-50.6967
0
LINE
8
BLACK
6
CONTINUOUS
10
31.8562
20
-50.6967
11
30.3562
21
-50.6967
0
LINE
8
BLACK
6
CONTINUOUS
10
30.3562
20
-50.6967
11
30.3562
21
-50.3967
0
LINE
8
BLACK
6
CONTINUOUS
10
30.3562
20
-50.3967
11
31.8562
21
-50.3967
0
LINE
8
BLACK
6
CONTINUOUS
10
31.8562
20
-50.3967
11
31.8562
21
-50.6967
0
LINE
8
BLACK
6
CONTINUOUS
10
99.207
20
-50.4045
11
97.707
21
-50.4045
0
LINE
8
BLACK
6
CONTINUOUS
10
97.707
20
-50.4045
11
97.707
21
-50.1045
0
LINE
8
BLACK
6
CONTINUOUS
10
97.707
20
-50.1045
11
99.207
21
-50.1045
0
LINE
8
BLACK
6
CONTINUOUS
10
99.207
20
-50.1045
11
99.207
21
-50.4045
0
LINE
8
BLACK
6
CONTINUOUS
10
107.607
20
-50.4045
11
106.107
21
-50.4045
0
LINE
8
BLACK
6
CONTINUOUS
10
106.107
20
-50.4045
11
106.107
21
-50.1045
0
LINE
8
BLACK
6
CONTINUOUS
10
106.107
20
-50.1045
11
107.607
21
-50.1045
0
LINE
8
BLACK
6
CONTINUOUS
10
107.607
20
-50.1045
11
107.607
21
-50.4045
0
LINE
8
BLACK
6
CONTINUOUS
10
40.2562
20
-50.1967
11
38.7562
21
-50.1967
0
LINE
8
BLACK
6
CONTINUOUS
10
38.7562
20
-50.1967
11
38.7562
21
-49.8967
0
LINE
8
BLACK
6
CONTINUOUS
10
38.7562
20
-49.8967
11
40.2562
21
-49.8967
0
LINE
8
BLACK
6
CONTINUOUS
10
40.2562
20
-49.8967
11
40.2562
21
-50.1967
0
LINE
8
BLACK
6
CONTINUOUS
10
31.8562
20
-50.1967
11
30.3562
21
-50.1967
0
LINE
8
BLACK
6
CONTINUOUS
10
30.3562
20
-50.1967
11
30.3562
21
-49.8967
0
LINE
8
BLACK
6
CONTINUOUS
10
30.3562
20
-49.8967
11
31.8562
21
-49.8967
0
LINE
8
BLACK
6
CONTINUOUS
10
31.8562
20
-49.8967
11
31.8562
21
-50.1967
0
LINE
8
BLACK
6
CONTINUOUS
10
107.607
20
-49.9045
11
106.107
21
-49.9045
0
LINE
8
BLACK
6
CONTINUOUS
10
106.107
20
-49.9045
11
106.107
21
-49.6045
0
LINE
8
BLACK
6
CONTINUOUS
10
106.107
20
-49.6045
11
107.607
21
-49.6045
0
LINE
8
BLACK
6
CONTINUOUS
10
107.607
20
-49.6045
11
107.607
21
-49.9045
0
LINE
8
BLACK
6
CONTINUOUS
10
99.207
20
-49.9045
11
97.707
21
-49.9045
0
LINE
8
BLACK
6
CONTINUOUS
10
97.707
20
-49.9045
11
97.707
21
-49.6045
0
LINE
8
BLACK
6
CONTINUOUS
10
97.707
20
-49.6045
11
99.207
21
-49.6045
0
LINE
8
BLACK
6
CONTINUOUS
10
99.207
20
-49.6045
11
99.207
21
-49.9045
0
LINE
8
BLACK
6
CONTINUOUS
10
40.2562
20
-49.6967
11
38.7562
21
-49.6967
0
LINE
8
BLACK
6
CONTINUOUS
10
38.7562
20
-49.6967
11
38.7562
21
-49.3967
0
LINE
8
BLACK
6
CONTINUOUS
10
38.7562
20
-49.3967
11
40.2562
21
-49.3967
0
LINE
8
BLACK
6
CONTINUOUS
10
40.2562
20
-49.3967
11
40.2562
21
-49.6967
0
LINE
8
BLACK
6
CONTINUOUS
10
31.8562
20
-49.6967
11
30.3562
21
-49.6967
0
LINE
8
BLACK
6
CONTINUOUS
10
30.3562
20
-49.6967
11
30.3562
21
-49.3967
0
LINE
8
BLACK
6
CONTINUOUS
10
30.3562
20
-49.3967
11
31.8562
21
-49.3967
0
LINE
8
BLACK
6
CONTINUOUS
10
31.8562
20
-49.3967
11
31.8562
21
-49.6967
0
LINE
8
BLACK
6
CONTINUOUS
10
109.15
20
-49.56
11
108.15
21
-49.56
0
LINE
8
BLACK
6
CONTINUOUS
10
108.15
20
-49.56
11
108.15
21
-48.74
0
LINE
8
BLACK
6
CONTINUOUS
10
108.15
20
-48.74
11
109.15
21
-48.74
0
LINE
8
BLACK
6
CONTINUOUS
10
109.15
20
-48.74
11
109.15
21
-49.56
0
LINE
8
BLACK
6
CONTINUOUS
10
110.926
20
-49.559
11
109.926
21
-49.559
0
LINE
8
BLACK
6
CONTINUOUS
10
109.926
20
-49.559
11
109.926
21
-48.739
0
LINE
8
BLACK
6
CONTINUOUS
10
109.926
20
-48.739
11
110.926
21
-48.739
0
LINE
8
BLACK
6
CONTINUOUS
10
110.926
20
-48.739
11
110.926
21
-49.559
0
LINE
8
BLACK
6
CONTINUOUS
10
107.607
20
-49.4045
11
106.107
21
-49.4045
0
LINE
8
BLACK
6
CONTINUOUS
10
106.107
20
-49.4045
11
106.107
21
-49.1045
0
LINE
8
BLACK
6
CONTINUOUS
10
106.107
20
-49.1045
11
107.607
21
-49.1045
0
LINE
8
BLACK
6
CONTINUOUS
10
107.607
20
-49.1045
11
107.607
21
-49.4045
0
LINE
8
BLACK
6
CONTINUOUS
10
99.207
20
-49.4045
11
97.707
21
-49.4045
0
LINE
8
BLACK
6
CONTINUOUS
10
97.707
20
-49.4045
11
97.707
21
-49.1045
0
LINE
8
BLACK
6
CONTINUOUS
10
97.707
20
-49.1045
11
99.207
21
-49.1045
0
LINE
8
BLACK
6
CONTINUOUS
10
99.207
20
-49.1045
11
99.207
21
-49.4045
0
LINE
8
BLACK
6
CONTINUOUS
10
43.4628
20
-49.2172
11
42.6428
21
-49.2172
0
LINE
8
BLACK
6
CONTINUOUS
10
42.6428
20
-49.2172
11
42.6428
21
-48.2172
0
LINE
8
BLACK
6
CONTINUOUS
10
42.6428
20
-48.2172
11
43.4628
21
-48.2172
0
LINE
8
BLACK
6
CONTINUOUS
10
43.4628
20
-48.2172
11
43.4628
21
-49.2172
0
LINE
8
BLACK
6
CONTINUOUS
10
41.8628
20
-49.2172
11
41.0428
21
-49.2172
0
LINE
8
BLACK
6
CONTINUOUS
10
41.0428
20
-49.2172
11
41.0428
21
-48.2172
0
LINE
8
BLACK
6
CONTINUOUS
10
41.0428
20
-48.2172
11
41.8628
21
-48.2172
0
LINE
8
BLACK
6
CONTINUOUS
10
41.8628
20
-48.2172
11
41.8628
21
-49.2172
0
LINE
8
BLACK
6
CONTINUOUS
10
40.2562
20
-49.1967
11
38.7562
21
-49.1967
0
LINE
8
BLACK
6
CONTINUOUS
10
38.7562
20
-49.1967
11
38.7562
21
-48.8967
0
LINE
8
BLACK
6
CONTINUOUS
10
38.7562
20
-48.8967
11
40.2562
21
-48.8967
0
LINE
8
BLACK
6
CONTINUOUS
10
40.2562
20
-48.8967
11
40.2562
21
-49.1967
0
LINE
8
BLACK
6
CONTINUOUS
10
31.8562
20
-49.1967
11
30.3562
21
-49.1967
0
LINE
8
BLACK
6
CONTINUOUS
10
30.3562
20
-49.1967
11
30.3562
21
-48.8967
0
LINE
8
BLACK
6
CONTINUOUS
10
30.3562
20
-48.8967
11
31.8562
21
-48.8967
0
LINE
8
BLACK
6
CONTINUOUS
10
31.8562
20
-48.8967
11
31.8562
21
-49.1967
0
LINE
8
BLACK
6
CONTINUOUS
10
22.725
20
-49.1145
11
21.725
21
-49.1145
0
LINE
8
BLACK
6
CONTINUOUS
10
21.725
20
-49.1145
11
21.725
21
-48.2945
0
LINE
8
BLACK
6
CONTINUOUS
10
21.725
20
-48.2945
11
22.725
21
-48.2945
0
LINE
8
BLACK
6
CONTINUOUS
10
22.725
20
-48.2945
11
22.725
21
-49.1145
0
LINE
8
BLACK
6
CONTINUOUS
10
35.1062
20
-49.0967
11
33.7562
21
-49.0967
0
LINE
8
BLACK
6
CONTINUOUS
10
33.7562
20
-49.0967
11
33.7562
21
-47.7467
0
LINE
8
BLACK
6
CONTINUOUS
10
33.7562
20
-47.7467
11
35.1062
21
-47.7467
0
LINE
8
BLACK
6
CONTINUOUS
10
35.1062
20
-47.7467
11
35.1062
21
-49.0967
0
LINE
8
BLACK
6
CONTINUOUS
10
36.8562
20
-49.0967
11
35.5062
21
-49.0967
0
LINE
8
BLACK
6
CONTINUOUS
10
35.5062
20
-49.0967
11
35.5062
21
-47.7467
0
LINE
8
BLACK
6
CONTINUOUS
10
35.5062
20
-47.7467
11
36.8562
21
-47.7467
0
LINE
8
BLACK
6
CONTINUOUS
10
36.8562
20
-47.7467
11
36.8562
21
-49.0967
0
LINE
8
BLACK
6
CONTINUOUS
10
107.607
20
-48.9045
11
106.107
21
-48.9045
0
LINE
8
BLACK
6
CONTINUOUS
10
106.107
20
-48.9045
11
106.107
21
-48.6045
0
LINE
8
BLACK
6
CONTINUOUS
10
106.107
20
-48.6045
11
107.607
21
-48.6045
0
LINE
8
BLACK
6
CONTINUOUS
10
107.607
20
-48.6045
11
107.607
21
-48.9045
0
LINE
8
BLACK
6
CONTINUOUS
10
99.207
20
-48.9045
11
97.707
21
-48.9045
0
LINE
8
BLACK
6
CONTINUOUS
10
97.707
20
-48.9045
11
97.707
21
-48.6045
0
LINE
8
BLACK
6
CONTINUOUS
10
97.707
20
-48.6045
11
99.207
21
-48.6045
0
LINE
8
BLACK
6
CONTINUOUS
10
99.207
20
-48.6045
11
99.207
21
-48.9045
0
LINE
8
BLACK
6
CONTINUOUS
10
40.2562
20
-48.6967
11
38.7562
21
-48.6967
0
LINE
8
BLACK
6
CONTINUOUS
10
38.7562
20
-48.6967
11
38.7562
21
-48.3967
0
LINE
8
BLACK
6
CONTINUOUS
10
38.7562
20
-48.3967
11
40.2562
21
-48.3967
0
LINE
8
BLACK
6
CONTINUOUS
10
40.2562
20
-48.3967
11
40.2562
21
-48.6967
0
LINE
8
BLACK
6
CONTINUOUS
10
31.8562
20
-48.6967
11
30.3562
21
-48.6967
0
LINE
8
BLACK
6
CONTINUOUS
10
30.3562
20
-48.6967
11
30.3562
21
-48.3967
0
LINE
8
BLACK
6
CONTINUOUS
10
30.3562
20
-48.3967
11
31.8562
21
-48.3967
0
LINE
8
BLACK
6
CONTINUOUS
10
31.8562
20
-48.3967
11
31.8562
21
-48.6967
0
LINE
8
BLACK
6
CONTINUOUS
10
99.207
20
-48.4045
11
97.707
21
-48.4045
0
LINE
8
BLACK
6
CONTINUOUS
10
97.707
20
-48.4045
11
97.707
21
-48.1045
0
LINE
8
BLACK
6
CONTINUOUS
10
97.707
20
-48.1045
11
99.207
21
-48.1045
0
LINE
8
BLACK
6
CONTINUOUS
10
99.207
20
-48.1045
11
99.207
21
-48.4045
0
LINE
8
BLACK
6
CONTINUOUS
10
107.607
20
-48.4045
11
106.107
21
-48.4045
0
LINE
8
BLACK
6
CONTINUOUS
10
106.107
20
-48.4045
11
106.107
21
-48.1045
0
LINE
8
BLACK
6
CONTINUOUS
10
106.107
20
-48.1045
11
107.607
21
-48.1045
0
LINE
8
BLACK
6
CONTINUOUS
10
107.607
20
-48.1045
11
107.607
21
-48.4045
0
LINE
8
BLACK
6
CONTINUOUS
10
40.2562
20
-48.1967
11
38.7562
21
-48.1967
0
LINE
8
BLACK
6
CONTINUOUS
10
38.7562
20
-48.1967
11
38.7562
21
-47.8967
0
LINE
8
BLACK
6
CONTINUOUS
10
38.7562
20
-47.8967
11
40.2562
21
-47.8967
0
LINE
8
BLACK
6
CONTINUOUS
10
40.2562
20
-47.8967
11
40.2562
21
-48.1967
0
LINE
8
BLACK
6
CONTINUOUS
10
31.8562
20
-48.1967
11
30.3562
21
-48.1967
0
LINE
8
BLACK
6
CONTINUOUS
10
30.3562
20
-48.1967
11
30.3562
21
-47.8967
0
LINE
8
BLACK
6
CONTINUOUS
10
30.3562
20
-47.8967
11
31.8562
21
-47.8967
0
LINE
8
BLACK
6
CONTINUOUS
10
31.8562
20
-47.8967
11
31.8562
21
-48.1967
0
LINE
8
BLACK
6
CONTINUOUS
10
109.15
20
-47.96
11
108.15
21
-47.96
0
LINE
8
BLACK
6
CONTINUOUS
10
108.15
20
-47.96
11
108.15
21
-47.14
0
LINE
8
BLACK
6
CONTINUOUS
10
108.15
20
-47.14
11
109.15
21
-47.14
0
LINE
8
BLACK
6
CONTINUOUS
10
109.15
20
-47.14
11
109.15
21
-47.96
0
LINE
8
BLACK
6
CONTINUOUS
10
110.926
20
-47.959
11
109.926
21
-47.959
0
LINE
8
BLACK
6
CONTINUOUS
10
109.926
20
-47.959
11
109.926
21
-47.139
0
LINE
8
BLACK
6
CONTINUOUS
10
109.926
20
-47.139
11
110.926
21
-47.139
0
LINE
8
BLACK
6
CONTINUOUS
10
110.926
20
-47.139
11
110.926
21
-47.959
0
LINE
8
BLACK
6
CONTINUOUS
10
31.8562
20
-47.6967
11
30.3562
21
-47.6967
0
LINE
8
BLACK
6
CONTINUOUS
10
30.3562
20
-47.6967
11
30.3562
21
-47.3967
0
LINE
8
BLACK
6
CONTINUOUS
10
30.3562
20
-47.3967
11
31.8562
21
-47.3967
0
LINE
8
BLACK
6
CONTINUOUS
10
31.8562
20
-47.3967
11
31.8562
21
-47.6967
0
LINE
8
BLACK
6
CONTINUOUS
10
40.2562
20
-47.6967
11
38.7562
21
-47.6967
0
LINE
8
BLACK
6
CONTINUOUS
10
38.7562
20
-47.6967
11
38.7562
21
-47.3967
0
LINE
8
BLACK
6
CONTINUOUS
10
38.7562
20
-47.3967
11
40.2562
21
-47.3967
0
LINE
8
BLACK
6
CONTINUOUS
10
40.2562
20
-47.3967
11
40.2562
21
-47.6967
0
LINE
8
BLACK
6
CONTINUOUS
10
42.1295
20
-47.6805
11
41.3095
21
-47.6805
0
LINE
8
BLACK
6
CONTINUOUS
10
41.3095
20
-47.6805
11
41.3095
21
-46.6805
0
LINE
8
BLACK
6
CONTINUOUS
10
41.3095
20
-46.6805
11
42.1295
21
-46.6805
0
LINE
8
BLACK
6
CONTINUOUS
10
42.1295
20
-46.6805
11
42.1295
21
-47.6805
0
LINE
8
BLACK
6
CONTINUOUS
10
43.7295
20
-47.6805
11
42.9095
21
-47.6805
0
LINE
8
BLACK
6
CONTINUOUS
10
42.9095
20
-47.6805
11
42.9095
21
-46.6805
0
LINE
8
BLACK
6
CONTINUOUS
10
42.9095
20
-46.6805
11
43.7295
21
-46.6805
0
LINE
8
BLACK
6
CONTINUOUS
10
43.7295
20
-46.6805
11
43.7295
21
-47.6805
0
LINE
8
BLACK
6
CONTINUOUS
10
104.557
20
-47.5545
11
104.257
21
-47.5545
0
LINE
8
BLACK
6
CONTINUOUS
10
104.257
20
-47.5545
11
104.257
21
-46.0545
0
LINE
8
BLACK
6
CONTINUOUS
10
104.257
20
-46.0545
11
104.557
21
-46.0545
0
LINE
8
BLACK
6
CONTINUOUS
10
104.557
20
-46.0545
11
104.557
21
-47.5545
0
LINE
8
BLACK
6
CONTINUOUS
10
102.557
20
-47.5545
11
102.257
21
-47.5545
0
LINE
8
BLACK
6
CONTINUOUS
10
102.257
20
-47.5545
11
102.257
21
-46.0545
0
LINE
8
BLACK
6
CONTINUOUS
10
102.257
20
-46.0545
11
102.557
21
-46.0545
0
LINE
8
BLACK
6
CONTINUOUS
10
102.557
20
-46.0545
11
102.557
21
-47.5545
0
LINE
8
BLACK
6
CONTINUOUS
10
101.557
20
-47.5545
11
101.257
21
-47.5545
0
LINE
8
BLACK
6
CONTINUOUS
10
101.257
20
-47.5545
11
101.257
21
-46.0545
0
LINE
8
BLACK
6
CONTINUOUS
10
101.257
20
-46.0545
11
101.557
21
-46.0545
0
LINE
8
BLACK
6
CONTINUOUS
10
101.557
20
-46.0545
11
101.557
21
-47.5545
0
LINE
8
BLACK
6
CONTINUOUS
10
100.557
20
-47.5545
11
100.257
21
-47.5545
0
LINE
8
BLACK
6
CONTINUOUS
10
100.257
20
-47.5545
11
100.257
21
-46.0545
0
LINE
8
BLACK
6
CONTINUOUS
10
100.257
20
-46.0545
11
100.557
21
-46.0545
0
LINE
8
BLACK
6
CONTINUOUS
10
100.557
20
-46.0545
11
100.557
21
-47.5545
0
LINE
8
BLACK
6
CONTINUOUS
10
100.057
20
-47.5545
11
99.757
21
-47.5545
0
LINE
8
BLACK
6
CONTINUOUS
10
99.757
20
-47.5545
11
99.757
21
-46.0545
0
LINE
8
BLACK
6
CONTINUOUS
10
99.757
20
-46.0545
11
100.057
21
-46.0545
0
LINE
8
BLACK
6
CONTINUOUS
10
100.057
20
-46.0545
11
100.057
21
-47.5545
0
LINE
8
BLACK
6
CONTINUOUS
10
105.557
20
-47.5545
11
105.257
21
-47.5545
0
LINE
8
BLACK
6
CONTINUOUS
10
105.257
20
-47.5545
11
105.257
21
-46.0545
0
LINE
8
BLACK
6
CONTINUOUS
10
105.257
20
-46.0545
11
105.557
21
-46.0545
0
LINE
8
BLACK
6
CONTINUOUS
10
105.557
20
-46.0545
11
105.557
21
-47.5545
0
LINE
8
BLACK
6
CONTINUOUS
10
103.557
20
-47.5545
11
103.257
21
-47.5545
0
LINE
8
BLACK
6
CONTINUOUS
10
103.257
20
-47.5545
11
103.257
21
-46.0545
0
LINE
8
BLACK
6
CONTINUOUS
10
103.257
20
-46.0545
11
103.557
21
-46.0545
0
LINE
8
BLACK
6
CONTINUOUS
10
103.557
20
-46.0545
11
103.557
21
-47.5545
0
LINE
8
BLACK
6
CONTINUOUS
10
22.725
20
-47.5145
11
21.725
21
-47.5145
0
LINE
8
BLACK
6
CONTINUOUS
10
21.725
20
-47.5145
11
21.725
21
-46.6945
0
LINE
8
BLACK
6
CONTINUOUS
10
21.725
20
-46.6945
11
22.725
21
-46.6945
0
LINE
8
BLACK
6
CONTINUOUS
10
22.725
20
-46.6945
11
22.725
21
-47.5145
0
LINE
8
BLACK
6
CONTINUOUS
10
31.8562
20
-47.1967
11
30.3562
21
-47.1967
0
LINE
8
BLACK
6
CONTINUOUS
10
30.3562
20
-47.1967
11
30.3562
21
-46.8967
0
LINE
8
BLACK
6
CONTINUOUS
10
30.3562
20
-46.8967
11
31.8562
21
-46.8967
0
LINE
8
BLACK
6
CONTINUOUS
10
31.8562
20
-46.8967
11
31.8562
21
-47.1967
0
LINE
8
BLACK
6
CONTINUOUS
10
40.2562
20
-47.1967
11
38.7562
21
-47.1967
0
LINE
8
BLACK
6
CONTINUOUS
10
38.7562
20
-47.1967
11
38.7562
21
-46.8967
0
LINE
8
BLACK
6
CONTINUOUS
10
38.7562
20
-46.8967
11
40.2562
21
-46.8967
0
LINE
8
BLACK
6
CONTINUOUS
10
40.2562
20
-46.8967
11
40.2562
21
-47.1967
0
LINE
8
BLACK
6
CONTINUOUS
10
40.2562
20
-46.6967
11
38.7562
21
-46.6967
0
LINE
8
BLACK
6
CONTINUOUS
10
38.7562
20
-46.6967
11
38.7562
21
-46.3967
0
LINE
8
BLACK
6
CONTINUOUS
10
38.7562
20
-46.3967
11
40.2562
21
-46.3967
0
LINE
8
BLACK
6
CONTINUOUS
10
40.2562
20
-46.3967
11
40.2562
21
-46.6967
0
LINE
8
BLACK
6
CONTINUOUS
10
31.8562
20
-46.6967
11
30.3562
21
-46.6967
0
LINE
8
BLACK
6
CONTINUOUS
10
30.3562
20
-46.6967
11
30.3562
21
-46.3967
0
LINE
8
BLACK
6
CONTINUOUS
10
30.3562
20
-46.3967
11
31.8562
21
-46.3967
0
LINE
8
BLACK
6
CONTINUOUS
10
31.8562
20
-46.3967
11
31.8562
21
-46.6967
0
LINE
8
BLACK
6
CONTINUOUS
10
37.7062
20
-45.8467
11
37.4062
21
-45.8467
0
LINE
8
BLACK
6
CONTINUOUS
10
37.4062
20
-45.8467
11
37.4062
21
-44.3467
0
LINE
8
BLACK
6
CONTINUOUS
10
37.4062
20
-44.3467
11
37.7062
21
-44.3467
0
LINE
8
BLACK
6
CONTINUOUS
10
37.7062
20
-44.3467
11
37.7062
21
-45.8467
0
LINE
8
BLACK
6
CONTINUOUS
10
37.2062
20
-45.8467
11
36.9062
21
-45.8467
0
LINE
8
BLACK
6
CONTINUOUS
10
36.9062
20
-45.8467
11
36.9062
21
-44.3467
0
LINE
8
BLACK
6
CONTINUOUS
10
36.9062
20
-44.3467
11
37.2062
21
-44.3467
0
LINE
8
BLACK
6
CONTINUOUS
10
37.2062
20
-44.3467
11
37.2062
21
-45.8467
0
LINE
8
BLACK
6
CONTINUOUS
10
32.7062
20
-45.8467
11
32.4062
21
-45.8467
0
LINE
8
BLACK
6
CONTINUOUS
10
32.4062
20
-45.8467
11
32.4062
21
-44.3467
0
LINE
8
BLACK
6
CONTINUOUS
10
32.4062
20
-44.3467
11
32.7062
21
-44.3467
0
LINE
8
BLACK
6
CONTINUOUS
10
32.7062
20
-44.3467
11
32.7062
21
-45.8467
0
LINE
8
BLACK
6
CONTINUOUS
10
36.7062
20
-45.8467
11
36.4062
21
-45.8467
0
LINE
8
BLACK
6
CONTINUOUS
10
36.4062
20
-45.8467
11
36.4062
21
-44.3467
0
LINE
8
BLACK
6
CONTINUOUS
10
36.4062
20
-44.3467
11
36.7062
21
-44.3467
0
LINE
8
BLACK
6
CONTINUOUS
10
36.7062
20
-44.3467
11
36.7062
21
-45.8467
0
LINE
8
BLACK
6
CONTINUOUS
10
35.7062
20
-45.8467
11
35.4062
21
-45.8467
0
LINE
8
BLACK
6
CONTINUOUS
10
35.4062
20
-45.8467
11
35.4062
21
-44.3467
0
LINE
8
BLACK
6
CONTINUOUS
10
35.4062
20
-44.3467
11
35.7062
21
-44.3467
0
LINE
8
BLACK
6
CONTINUOUS
10
35.7062
20
-44.3467
11
35.7062
21
-45.8467
0
LINE
8
BLACK
6
CONTINUOUS
10
34.7062
20
-45.8467
11
34.4062
21
-45.8467
0
LINE
8
BLACK
6
CONTINUOUS
10
34.4062
20
-45.8467
11
34.4062
21
-44.3467
0
LINE
8
BLACK
6
CONTINUOUS
10
34.4062
20
-44.3467
11
34.7062
21
-44.3467
0
LINE
8
BLACK
6
CONTINUOUS
10
34.7062
20
-44.3467
11
34.7062
21
-45.8467
0
LINE
8
BLACK
6
CONTINUOUS
10
33.7062
20
-45.8467
11
33.4062
21
-45.8467
0
LINE
8
BLACK
6
CONTINUOUS
10
33.4062
20
-45.8467
11
33.4062
21
-44.3467
0
LINE
8
BLACK
6
CONTINUOUS
10
33.4062
20
-44.3467
11
33.7062
21
-44.3467
0
LINE
8
BLACK
6
CONTINUOUS
10
33.7062
20
-44.3467
11
33.7062
21
-45.8467
0
LINE
8
BLACK
6
CONTINUOUS
10
38.2062
20
-45.8467
11
37.9062
21
-45.8467
0
LINE
8
BLACK
6
CONTINUOUS
10
37.9062
20
-45.8467
11
37.9062
21
-44.3467
0
LINE
8
BLACK
6
CONTINUOUS
10
37.9062
20
-44.3467
11
38.2062
21
-44.3467
0
LINE
8
BLACK
6
CONTINUOUS
10
38.2062
20
-44.3467
11
38.2062
21
-45.8467
0
LINE
8
BLACK
6
CONTINUOUS
10
41.347
20
-45.0849
11
40.6399
21
-45.792
0
LINE
8
BLACK
6
CONTINUOUS
10
40.6399
20
-45.792
11
40.06
21
-45.2121
0
LINE
8
BLACK
6
CONTINUOUS
10
40.06
20
-45.2121
11
40.7671
21
-44.505
0
LINE
8
BLACK
6
CONTINUOUS
10
40.7671
20
-44.505
11
41.347
21
-45.0849
0
LINE
8
BLACK
6
CONTINUOUS
10
114.597
20
-45.2536
11
113.597
21
-45.2536
0
LINE
8
BLACK
6
CONTINUOUS
10
113.597
20
-45.2536
11
113.597
21
-44.4336
0
LINE
8
BLACK
6
CONTINUOUS
10
113.597
20
-44.4336
11
114.597
21
-44.4336
0
LINE
8
BLACK
6
CONTINUOUS
10
114.597
20
-44.4336
11
114.597
21
-45.2536
0
LINE
8
BLACK
6
CONTINUOUS
10
101.55
20
-45.15
11
100.33
21
-45.15
0
LINE
8
BLACK
6
CONTINUOUS
10
100.33
20
-45.15
11
100.33
21
-43.35
0
LINE
8
BLACK
6
CONTINUOUS
10
100.33
20
-43.35
11
101.55
21
-43.35
0
LINE
8
BLACK
6
CONTINUOUS
10
101.55
20
-43.35
11
101.55
21
-45.15
0
LINE
8
BLACK
6
CONTINUOUS
10
98.6896
20
-45.15
11
97.4696
21
-45.15
0
LINE
8
BLACK
6
CONTINUOUS
10
97.4696
20
-45.15
11
97.4696
21
-43.35
0
LINE
8
BLACK
6
CONTINUOUS
10
97.4696
20
-43.35
11
98.6896
21
-43.35
0
LINE
8
BLACK
6
CONTINUOUS
10
98.6896
20
-43.35
11
98.6896
21
-45.15
0
LINE
8
BLACK
6
CONTINUOUS
10
40.2156
20
-43.9535
11
39.5085
21
-44.6606
0
LINE
8
BLACK
6
CONTINUOUS
10
39.5085
20
-44.6606
11
38.9287
21
-44.0808
0
LINE
8
BLACK
6
CONTINUOUS
10
38.9287
20
-44.0808
11
39.6358
21
-43.3737
0
LINE
8
BLACK
6
CONTINUOUS
10
39.6358
20
-43.3737
11
40.2156
21
-43.9535
0
LINE
8
BLACK
6
CONTINUOUS
10
25.302
20
-44.0356
11
24.482
21
-44.0356
0
LINE
8
BLACK
6
CONTINUOUS
10
24.482
20
-44.0356
11
24.482
21
-43.0356
0
LINE
8
BLACK
6
CONTINUOUS
10
24.482
20
-43.0356
11
25.302
21
-43.0356
0
LINE
8
BLACK
6
CONTINUOUS
10
25.302
20
-43.0356
11
25.302
21
-44.0356
0
LINE
8
BLACK
6
CONTINUOUS
10
26.902
20
-44.0356
11
26.082
21
-44.0356
0
LINE
8
BLACK
6
CONTINUOUS
10
26.082
20
-44.0356
11
26.082
21
-43.0356
0
LINE
8
BLACK
6
CONTINUOUS
10
26.082
20
-43.0356
11
26.902
21
-43.0356
0
LINE
8
BLACK
6
CONTINUOUS
10
26.902
20
-43.0356
11
26.902
21
-44.0356
0
LINE
8
BLACK
6
CONTINUOUS
10
114.597
20
-43.6536
11
113.597
21
-43.6536
0
LINE
8
BLACK
6
CONTINUOUS
10
113.597
20
-43.6536
11
113.597
21
-42.8336
0
LINE
8
BLACK
6
CONTINUOUS
10
113.597
20
-42.8336
11
114.597
21
-42.8336
0
LINE
8
BLACK
6
CONTINUOUS
10
114.597
20
-42.8336
11
114.597
21
-43.6536
0
LINE
8
BLACK
6
CONTINUOUS
10
37.53
20
-43.505
11
36.955
21
-43.505
0
LINE
8
BLACK
6
CONTINUOUS
10
36.955
20
-43.505
11
36.955
21
-42.855
0
LINE
8
BLACK
6
CONTINUOUS
10
36.955
20
-42.855
11
37.53
21
-42.855
0
LINE
8
BLACK
6
CONTINUOUS
10
37.53
20
-42.855
11
37.53
21
-43.505
0
LINE
8
BLACK
6
CONTINUOUS
10
38.305
20
-43.505
11
37.73
21
-43.505
0
LINE
8
BLACK
6
CONTINUOUS
10
37.73
20
-43.505
11
37.73
21
-42.855
0
LINE
8
BLACK
6
CONTINUOUS
10
37.73
20
-42.855
11
38.305
21
-42.855
0
LINE
8
BLACK
6
CONTINUOUS
10
38.305
20
-42.855
11
38.305
21
-43.505
0
LINE
8
BLACK
6
CONTINUOUS
10
105.167
20
-43.409
11
103.367
21
-43.409
0
LINE
8
BLACK
6
CONTINUOUS
10
103.367
20
-43.409
11
103.367
21
-42.189
0
LINE
8
BLACK
6
CONTINUOUS
10
103.367
20
-42.189
11
105.167
21
-42.189
0
LINE
8
BLACK
6
CONTINUOUS
10
105.167
20
-42.189
11
105.167
21
-43.409
0
LINE
8
BLACK
6
CONTINUOUS
10
106.624
20
-42.801
11
105.974
21
-42.801
0
LINE
8
BLACK
6
CONTINUOUS
10
105.974
20
-42.801
11
105.974
21
-42.226
0
LINE
8
BLACK
6
CONTINUOUS
10
105.974
20
-42.226
11
106.624
21
-42.226
0
LINE
8
BLACK
6
CONTINUOUS
10
106.624
20
-42.226
11
106.624
21
-42.801
0
LINE
8
BLACK
6
CONTINUOUS
10
37.6432
20
-42.048
11
36.4232
21
-42.048
0
LINE
8
BLACK
6
CONTINUOUS
10
36.4232
20
-42.048
11
36.4232
21
-40.248
0
LINE
8
BLACK
6
CONTINUOUS
10
36.4232
20
-40.248
11
37.6432
21
-40.248
0
LINE
8
BLACK
6
CONTINUOUS
10
37.6432
20
-40.248
11
37.6432
21
-42.048
0
LINE
8
BLACK
6
CONTINUOUS
10
40.5032
20
-42.048
11
39.2832
21
-42.048
0
LINE
8
BLACK
6
CONTINUOUS
10
39.2832
20
-42.048
11
39.2832
21
-40.248
0
LINE
8
BLACK
6
CONTINUOUS
10
39.2832
20
-40.248
11
40.5032
21
-40.248
0
LINE
8
BLACK
6
CONTINUOUS
10
40.5032
20
-40.248
11
40.5032
21
-42.048
0
LINE
8
BLACK
6
CONTINUOUS
10
106.624
20
-42.026
11
105.974
21
-42.026
0
LINE
8
BLACK
6
CONTINUOUS
10
105.974
20
-42.026
11
105.974
21
-41.451
0
LINE
8
BLACK
6
CONTINUOUS
10
105.974
20
-41.451
11
106.624
21
-41.451
0
LINE
8
BLACK
6
CONTINUOUS
10
106.624
20
-41.451
11
106.624
21
-42.026
0
LINE
8
BLACK
6
CONTINUOUS
10
32.2432
20
-41.8448
11
31.0232
21
-41.8448
0
LINE
8
BLACK
6
CONTINUOUS
10
31.0232
20
-41.8448
11
31.0232
21
-40.0448
0
LINE
8
BLACK
6
CONTINUOUS
10
31.0232
20
-40.0448
11
32.2432
21
-40.0448
0
LINE
8
BLACK
6
CONTINUOUS
10
32.2432
20
-40.0448
11
32.2432
21
-41.8448
0
LINE
8
BLACK
6
CONTINUOUS
10
35.1032
20
-41.8448
11
33.8832
21
-41.8448
0
LINE
8
BLACK
6
CONTINUOUS
10
33.8832
20
-41.8448
11
33.8832
21
-40.0448
0
LINE
8
BLACK
6
CONTINUOUS
10
33.8832
20
-40.0448
11
35.1032
21
-40.0448
0
LINE
8
BLACK
6
CONTINUOUS
10
35.1032
20
-40.0448
11
35.1032
21
-41.8448
0
LINE
8
BLACK
6
CONTINUOUS
10
25.0316
20
-41.44
11
23.4316
21
-41.44
0
LINE
8
BLACK
6
CONTINUOUS
10
23.4316
20
-41.44
11
23.4316
21
-37.94
0
LINE
8
BLACK
6
CONTINUOUS
10
23.4316
20
-37.94
11
25.0316
21
-37.94
0
LINE
8
BLACK
6
CONTINUOUS
10
25.0316
20
-37.94
11
25.0316
21
-41.44
0
LINE
8
BLACK
6
CONTINUOUS
10
105.167
20
-40.549
11
103.367
21
-40.549
0
LINE
8
BLACK
6
CONTINUOUS
10
103.367
20
-40.549
11
103.367
21
-39.329
0
LINE
8
BLACK
6
CONTINUOUS
10
103.367
20
-39.329
11
105.167
21
-39.329
0
LINE
8
BLACK
6
CONTINUOUS
10
105.167
20
-39.329
11
105.167
21
-40.549
0
LINE
8
BLACK
6
CONTINUOUS
10
96.15
20
-40.45
11
92.65
21
-40.45
0
LINE
8
BLACK
6
CONTINUOUS
10
92.65
20
-40.45
11
92.65
21
-38.85
0
LINE
8
BLACK
6
CONTINUOUS
10
92.65
20
-38.85
11
96.15
21
-38.85
0
LINE
8
BLACK
6
CONTINUOUS
10
96.15
20
-38.85
11
96.15
21
-40.45
0
LINE
8
BLACK
6
CONTINUOUS
10
101.55
20
-40.45
11
98.05
21
-40.45
0
LINE
8
BLACK
6
CONTINUOUS
10
98.05
20
-40.45
11
98.05
21
-38.85
0
LINE
8
BLACK
6
CONTINUOUS
10
98.05
20
-38.85
11
101.55
21
-38.85
0
LINE
8
BLACK
6
CONTINUOUS
10
101.55
20
-38.85
11
101.55
21
-40.45
0
LINE
8
BLACK
6
CONTINUOUS
10
86.7838
20
-40.288
11
85.7838
21
-40.288
0
LINE
8
BLACK
6
CONTINUOUS
10
85.7838
20
-40.288
11
85.7838
21
-39.468
0
LINE
8
BLACK
6
CONTINUOUS
10
85.7838
20
-39.468
11
86.7838
21
-39.468
0
LINE
8
BLACK
6
CONTINUOUS
10
86.7838
20
-39.468
11
86.7838
21
-40.288
0
LINE
8
BLACK
6
CONTINUOUS
10
37.965
20
-39.653
11
36.965
21
-39.653
0
LINE
8
BLACK
6
CONTINUOUS
10
36.965
20
-39.653
11
36.965
21
-38.833
0
LINE
8
BLACK
6
CONTINUOUS
10
36.965
20
-38.833
11
37.965
21
-38.833
0
LINE
8
BLACK
6
CONTINUOUS
10
37.965
20
-38.833
11
37.965
21
-39.653
0
LINE
8
BLACK
6
CONTINUOUS
10
33.7964
20
-39.2886
11
33.2214
21
-39.2886
0
LINE
8
BLACK
6
CONTINUOUS
10
33.2214
20
-39.2886
11
33.2214
21
-38.6386
0
LINE
8
BLACK
6
CONTINUOUS
10
33.2214
20
-38.6386
11
33.7964
21
-38.6386
0
LINE
8
BLACK
6
CONTINUOUS
10
33.7964
20
-38.6386
11
33.7964
21
-39.2886
0
LINE
8
BLACK
6
CONTINUOUS
10
34.5714
20
-39.2886
11
33.9964
21
-39.2886
0
LINE
8
BLACK
6
CONTINUOUS
10
33.9964
20
-39.2886
11
33.9964
21
-38.6386
0
LINE
8
BLACK
6
CONTINUOUS
10
33.9964
20
-38.6386
11
34.5714
21
-38.6386
0
LINE
8
BLACK
6
CONTINUOUS
10
34.5714
20
-38.6386
11
34.5714
21
-39.2886
0
LINE
8
BLACK
6
CONTINUOUS
10
74.9601
20
-38.7894
11
73.9601
21
-38.7894
0
LINE
8
BLACK
6
CONTINUOUS
10
73.9601
20
-38.7894
11
73.9601
21
-37.9694
0
LINE
8
BLACK
6
CONTINUOUS
10
73.9601
20
-37.9694
11
74.9601
21
-37.9694
0
LINE
8
BLACK
6
CONTINUOUS
10
74.9601
20
-37.9694
11
74.9601
21
-38.7894
0
LINE
8
BLACK
6
CONTINUOUS
10
86.7838
20
-38.688
11
85.7838
21
-38.688
0
LINE
8
BLACK
6
CONTINUOUS
10
85.7838
20
-38.688
11
85.7838
21
-37.868
0
LINE
8
BLACK
6
CONTINUOUS
10
85.7838
20
-37.868
11
86.7838
21
-37.868
0
LINE
8
BLACK
6
CONTINUOUS
10
86.7838
20
-37.868
11
86.7838
21
-38.688
0
LINE
8
BLACK
6
CONTINUOUS
10
62.7554
20
-38.637
11
61.7554
21
-38.637
0
LINE
8
BLACK
6
CONTINUOUS
10
61.7554
20
-38.637
11
61.7554
21
-37.817
0
LINE
8
BLACK
6
CONTINUOUS
10
61.7554
20
-37.817
11
62.7554
21
-37.817
0
LINE
8
BLACK
6
CONTINUOUS
10
62.7554
20
-37.817
11
62.7554
21
-38.637
0
LINE
8
BLACK
6
CONTINUOUS
10
37.965
20
-38.053
11
36.965
21
-38.053
0
LINE
8
BLACK
6
CONTINUOUS
10
36.965
20
-38.053
11
36.965
21
-37.233
0
LINE
8
BLACK
6
CONTINUOUS
10
36.965
20
-37.233
11
37.965
21
-37.233
0
LINE
8
BLACK
6
CONTINUOUS
10
37.965
20
-37.233
11
37.965
21
-38.053
0
LINE
8
BLACK
6
CONTINUOUS
10
36.478
20
-37.9396
11
35.658
21
-37.9396
0
LINE
8
BLACK
6
CONTINUOUS
10
35.658
20
-37.9396
11
35.658
21
-36.9396
0
LINE
8
BLACK
6
CONTINUOUS
10
35.658
20
-36.9396
11
36.478
21
-36.9396
0
LINE
8
BLACK
6
CONTINUOUS
10
36.478
20
-36.9396
11
36.478
21
-37.9396
0
LINE
8
BLACK
6
CONTINUOUS
10
34.878
20
-37.9396
11
34.058
21
-37.9396
0
LINE
8
BLACK
6
CONTINUOUS
10
34.058
20
-37.9396
11
34.058
21
-36.9396
0
LINE
8
BLACK
6
CONTINUOUS
10
34.058
20
-36.9396
11
34.878
21
-36.9396
0
LINE
8
BLACK
6
CONTINUOUS
10
34.878
20
-36.9396
11
34.878
21
-37.9396
0
LINE
8
BLACK
6
CONTINUOUS
10
53.1404
20
-37.8126
11
52.3204
21
-37.8126
0
LINE
8
BLACK
6
CONTINUOUS
10
52.3204
20
-37.8126
11
52.3204
21
-36.8126
0
LINE
8
BLACK
6
CONTINUOUS
10
52.3204
20
-36.8126
11
53.1404
21
-36.8126
0
LINE
8
BLACK
6
CONTINUOUS
10
53.1404
20
-36.8126
11
53.1404
21
-37.8126
0
LINE
8
BLACK
6
CONTINUOUS
10
54.7404
20
-37.8126
11
53.9204
21
-37.8126
0
LINE
8
BLACK
6
CONTINUOUS
10
53.9204
20
-37.8126
11
53.9204
21
-36.8126
0
LINE
8
BLACK
6
CONTINUOUS
10
53.9204
20
-36.8126
11
54.7404
21
-36.8126
0
LINE
8
BLACK
6
CONTINUOUS
10
54.7404
20
-36.8126
11
54.7404
21
-37.8126
0
LINE
8
BLACK
6
CONTINUOUS
10
88.5872
20
-37.6462
11
87.5872
21
-37.6462
0
LINE
8
BLACK
6
CONTINUOUS
10
87.5872
20
-37.6462
11
87.5872
21
-36.8262
0
LINE
8
BLACK
6
CONTINUOUS
10
87.5872
20
-36.8262
11
88.5872
21
-36.8262
0
LINE
8
BLACK
6
CONTINUOUS
10
88.5872
20
-36.8262
11
88.5872
21
-37.6462
0
LINE
8
BLACK
6
CONTINUOUS
10
40.0886
20
-36.9455
11
39.5088
21
-37.5253
0
LINE
8
BLACK
6
CONTINUOUS
10
39.5088
20
-37.5253
11
38.8017
21
-36.8182
0
LINE
8
BLACK
6
CONTINUOUS
10
38.8017
20
-36.8182
11
39.3815
21
-36.2384
0
LINE
8
BLACK
6
CONTINUOUS
10
39.3815
20
-36.2384
11
40.0886
21
-36.9455
0
LINE
8
BLACK
6
CONTINUOUS
10
85.415
20
-37.1962
11
84.765
21
-37.1962
0
LINE
8
BLACK
6
CONTINUOUS
10
84.765
20
-37.1962
11
84.765
21
-35.9962
0
LINE
8
BLACK
6
CONTINUOUS
10
84.765
20
-35.9962
11
85.415
21
-35.9962
0
LINE
8
BLACK
6
CONTINUOUS
10
85.415
20
-35.9962
11
85.415
21
-37.1962
0
LINE
8
BLACK
6
CONTINUOUS
10
86.685
20
-37.1962
11
86.035
21
-37.1962
0
LINE
8
BLACK
6
CONTINUOUS
10
86.035
20
-37.1962
11
86.035
21
-35.9962
0
LINE
8
BLACK
6
CONTINUOUS
10
86.035
20
-35.9962
11
86.685
21
-35.9962
0
LINE
8
BLACK
6
CONTINUOUS
10
86.685
20
-35.9962
11
86.685
21
-37.1962
0
LINE
8
BLACK
6
CONTINUOUS
10
82.875
20
-37.1962
11
82.225
21
-37.1962
0
LINE
8
BLACK
6
CONTINUOUS
10
82.225
20
-37.1962
11
82.225
21
-35.9962
0
LINE
8
BLACK
6
CONTINUOUS
10
82.225
20
-35.9962
11
82.875
21
-35.9962
0
LINE
8
BLACK
6
CONTINUOUS
10
82.875
20
-35.9962
11
82.875
21
-37.1962
0
LINE
8
BLACK
6
CONTINUOUS
10
84.145
20
-37.1962
11
83.495
21
-37.1962
0
LINE
8
BLACK
6
CONTINUOUS
10
83.495
20
-37.1962
11
83.495
21
-35.9962
0
LINE
8
BLACK
6
CONTINUOUS
10
83.495
20
-35.9962
11
84.145
21
-35.9962
0
LINE
8
BLACK
6
CONTINUOUS
10
84.145
20
-35.9962
11
84.145
21
-37.1962
0
LINE
8
BLACK
6
CONTINUOUS
10
74.9601
20
-37.1894
11
73.9601
21
-37.1894
0
LINE
8
BLACK
6
CONTINUOUS
10
73.9601
20
-37.1894
11
73.9601
21
-36.3694
0
LINE
8
BLACK
6
CONTINUOUS
10
73.9601
20
-36.3694
11
74.9601
21
-36.3694
0
LINE
8
BLACK
6
CONTINUOUS
10
74.9601
20
-36.3694
11
74.9601
21
-37.1894
0
LINE
8
BLACK
6
CONTINUOUS
10
62.7554
20
-37.037
11
61.7554
21
-37.037
0
LINE
8
BLACK
6
CONTINUOUS
10
61.7554
20
-37.037
11
61.7554
21
-36.217
0
LINE
8
BLACK
6
CONTINUOUS
10
61.7554
20
-36.217
11
62.7554
21
-36.217
0
LINE
8
BLACK
6
CONTINUOUS
10
62.7554
20
-36.217
11
62.7554
21
-37.037
0
LINE
8
BLACK
6
CONTINUOUS
10
44.1816
20
-36.6424
11
42.3816
21
-36.6424
0
LINE
8
BLACK
6
CONTINUOUS
10
42.3816
20
-36.6424
11
42.3816
21
-35.4224
0
LINE
8
BLACK
6
CONTINUOUS
10
42.3816
20
-35.4224
11
44.1816
21
-35.4224
0
LINE
8
BLACK
6
CONTINUOUS
10
44.1816
20
-35.4224
11
44.1816
21
-36.6424
0
LINE
8
BLACK
6
CONTINUOUS
10
29.7544
20
-36.6424
11
27.9544
21
-36.6424
0
LINE
8
BLACK
6
CONTINUOUS
10
27.9544
20
-36.6424
11
27.9544
21
-35.4224
0
LINE
8
BLACK
6
CONTINUOUS
10
27.9544
20
-35.4224
11
29.7544
21
-35.4224
0
LINE
8
BLACK
6
CONTINUOUS
10
29.7544
20
-35.4224
11
29.7544
21
-36.6424
0
LINE
8
BLACK
6
CONTINUOUS
10
102.633
20
-36.4398
11
101.633
21
-36.4398
0
LINE
8
BLACK
6
CONTINUOUS
10
101.633
20
-36.4398
11
101.633
21
-35.6198
0
LINE
8
BLACK
6
CONTINUOUS
10
101.633
20
-35.6198
11
102.633
21
-35.6198
0
LINE
8
BLACK
6
CONTINUOUS
10
102.633
20
-35.6198
11
102.633
21
-36.4398
0
LINE
8
BLACK
6
CONTINUOUS
10
35.6961
20
-36.4354
11
35.3961
21
-36.4354
0
LINE
8
BLACK
6
CONTINUOUS
10
35.3961
20
-36.4354
11
35.3961
21
-34.9354
0
LINE
8
BLACK
6
CONTINUOUS
10
35.3961
20
-34.9354
11
35.6961
21
-34.9354
0
LINE
8
BLACK
6
CONTINUOUS
10
35.6961
20
-34.9354
11
35.6961
21
-36.4354
0
LINE
8
BLACK
6
CONTINUOUS
10
32.6961
20
-36.4354
11
32.3961
21
-36.4354
0
LINE
8
BLACK
6
CONTINUOUS
10
32.3961
20
-36.4354
11
32.3961
21
-34.9354
0
LINE
8
BLACK
6
CONTINUOUS
10
32.3961
20
-34.9354
11
32.6961
21
-34.9354
0
LINE
8
BLACK
6
CONTINUOUS
10
32.6961
20
-34.9354
11
32.6961
21
-36.4354
0
LINE
8
BLACK
6
CONTINUOUS
10
33.1961
20
-36.4354
11
32.8961
21
-36.4354
0
LINE
8
BLACK
6
CONTINUOUS
10
32.8961
20
-36.4354
11
32.8961
21
-34.9354
0
LINE
8
BLACK
6
CONTINUOUS
10
32.8961
20
-34.9354
11
33.1961
21
-34.9354
0
LINE
8
BLACK
6
CONTINUOUS
10
33.1961
20
-34.9354
11
33.1961
21
-36.4354
0
LINE
8
BLACK
6
CONTINUOUS
10
33.6961
20
-36.4354
11
33.3961
21
-36.4354
0
LINE
8
BLACK
6
CONTINUOUS
10
33.3961
20
-36.4354
11
33.3961
21
-34.9354
0
LINE
8
BLACK
6
CONTINUOUS
10
33.3961
20
-34.9354
11
33.6961
21
-34.9354
0
LINE
8
BLACK
6
CONTINUOUS
10
33.6961
20
-34.9354
11
33.6961
21
-36.4354
0
LINE
8
BLACK
6
CONTINUOUS
10
34.1961
20
-36.4354
11
33.8961
21
-36.4354
0
LINE
8
BLACK
6
CONTINUOUS
10
33.8961
20
-36.4354
11
33.8961
21
-34.9354
0
LINE
8
BLACK
6
CONTINUOUS
10
33.8961
20
-34.9354
11
34.1961
21
-34.9354
0
LINE
8
BLACK
6
CONTINUOUS
10
34.1961
20
-34.9354
11
34.1961
21
-36.4354
0
LINE
8
BLACK
6
CONTINUOUS
10
34.6961
20
-36.4354
11
34.3961
21
-36.4354
0
LINE
8
BLACK
6
CONTINUOUS
10
34.3961
20
-36.4354
11
34.3961
21
-34.9354
0
LINE
8
BLACK
6
CONTINUOUS
10
34.3961
20
-34.9354
11
34.6961
21
-34.9354
0
LINE
8
BLACK
6
CONTINUOUS
10
34.6961
20
-34.9354
11
34.6961
21
-36.4354
0
LINE
8
BLACK
6
CONTINUOUS
10
35.1961
20
-36.4354
11
34.8961
21
-36.4354
0
LINE
8
BLACK
6
CONTINUOUS
10
34.8961
20
-36.4354
11
34.8961
21
-34.9354
0
LINE
8
BLACK
6
CONTINUOUS
10
34.8961
20
-34.9354
11
35.1961
21
-34.9354
0
LINE
8
BLACK
6
CONTINUOUS
10
35.1961
20
-34.9354
11
35.1961
21
-36.4354
0
LINE
8
BLACK
6
CONTINUOUS
10
36.1961
20
-36.4354
11
35.8961
21
-36.4354
0
LINE
8
BLACK
6
CONTINUOUS
10
35.8961
20
-36.4354
11
35.8961
21
-34.9354
0
LINE
8
BLACK
6
CONTINUOUS
10
35.8961
20
-34.9354
11
36.1961
21
-34.9354
0
LINE
8
BLACK
6
CONTINUOUS
10
36.1961
20
-34.9354
11
36.1961
21
-36.4354
0
LINE
8
BLACK
6
CONTINUOUS
10
36.6961
20
-36.4354
11
36.3961
21
-36.4354
0
LINE
8
BLACK
6
CONTINUOUS
10
36.3961
20
-36.4354
11
36.3961
21
-34.9354
0
LINE
8
BLACK
6
CONTINUOUS
10
36.3961
20
-34.9354
11
36.6961
21
-34.9354
0
LINE
8
BLACK
6
CONTINUOUS
10
36.6961
20
-34.9354
11
36.6961
21
-36.4354
0
LINE
8
BLACK
6
CONTINUOUS
10
37.1961
20
-36.4354
11
36.8961
21
-36.4354
0
LINE
8
BLACK
6
CONTINUOUS
10
36.8961
20
-36.4354
11
36.8961
21
-34.9354
0
LINE
8
BLACK
6
CONTINUOUS
10
36.8961
20
-34.9354
11
37.1961
21
-34.9354
0
LINE
8
BLACK
6
CONTINUOUS
10
37.1961
20
-34.9354
11
37.1961
21
-36.4354
0
LINE
8
BLACK
6
CONTINUOUS
10
38.1961
20
-36.4354
11
37.8961
21
-36.4354
0
LINE
8
BLACK
6
CONTINUOUS
10
37.8961
20
-36.4354
11
37.8961
21
-34.9354
0
LINE
8
BLACK
6
CONTINUOUS
10
37.8961
20
-34.9354
11
38.1961
21
-34.9354
0
LINE
8
BLACK
6
CONTINUOUS
10
38.1961
20
-34.9354
11
38.1961
21
-36.4354
0
LINE
8
BLACK
6
CONTINUOUS
10
37.6961
20
-36.4354
11
37.3961
21
-36.4354
0
LINE
8
BLACK
6
CONTINUOUS
10
37.3961
20
-36.4354
11
37.3961
21
-34.9354
0
LINE
8
BLACK
6
CONTINUOUS
10
37.3961
20
-34.9354
11
37.6961
21
-34.9354
0
LINE
8
BLACK
6
CONTINUOUS
10
37.6961
20
-34.9354
11
37.6961
21
-36.4354
0
LINE
8
BLACK
6
CONTINUOUS
10
41.22
20
-35.8141
11
40.6401
21
-36.394
0
LINE
8
BLACK
6
CONTINUOUS
10
40.6401
20
-36.394
11
39.933
21
-35.6869
0
LINE
8
BLACK
6
CONTINUOUS
10
39.933
20
-35.6869
11
40.5129
21
-35.107
0
LINE
8
BLACK
6
CONTINUOUS
10
40.5129
20
-35.107
11
41.22
21
-35.8141
0
LINE
8
BLACK
6
CONTINUOUS
10
53.242
20
-36.2505
11
52.422
21
-36.2505
0
LINE
8
BLACK
6
CONTINUOUS
10
52.422
20
-36.2505
11
52.422
21
-35.2505
0
LINE
8
BLACK
6
CONTINUOUS
10
52.422
20
-35.2505
11
53.242
21
-35.2505
0
LINE
8
BLACK
6
CONTINUOUS
10
53.242
20
-35.2505
11
53.242
21
-36.2505
0
LINE
8
BLACK
6
CONTINUOUS
10
51.642
20
-36.2505
11
50.822
21
-36.2505
0
LINE
8
BLACK
6
CONTINUOUS
10
50.822
20
-36.2505
11
50.822
21
-35.2505
0
LINE
8
BLACK
6
CONTINUOUS
10
50.822
20
-35.2505
11
51.642
21
-35.2505
0
LINE
8
BLACK
6
CONTINUOUS
10
51.642
20
-35.2505
11
51.642
21
-36.2505
0
LINE
8
BLACK
6
CONTINUOUS
10
56.3662
20
-36.2378
11
55.5462
21
-36.2378
0
LINE
8
BLACK
6
CONTINUOUS
10
55.5462
20
-36.2378
11
55.5462
21
-35.2378
0
LINE
8
BLACK
6
CONTINUOUS
10
55.5462
20
-35.2378
11
56.3662
21
-35.2378
0
LINE
8
BLACK
6
CONTINUOUS
10
56.3662
20
-35.2378
11
56.3662
21
-36.2378
0
LINE
8
BLACK
6
CONTINUOUS
10
54.7662
20
-36.2378
11
53.9462
21
-36.2378
0
LINE
8
BLACK
6
CONTINUOUS
10
53.9462
20
-36.2378
11
53.9462
21
-35.2378
0
LINE
8
BLACK
6
CONTINUOUS
10
53.9462
20
-35.2378
11
54.7662
21
-35.2378
0
LINE
8
BLACK
6
CONTINUOUS
10
54.7662
20
-35.2378
11
54.7662
21
-36.2378
0
LINE
8
BLACK
6
CONTINUOUS
10
88.5872
20
-36.0462
11
87.5872
21
-36.0462
0
LINE
8
BLACK
6
CONTINUOUS
10
87.5872
20
-36.0462
11
87.5872
21
-35.2262
0
LINE
8
BLACK
6
CONTINUOUS
10
87.5872
20
-35.2262
11
88.5872
21
-35.2262
0
LINE
8
BLACK
6
CONTINUOUS
10
88.5872
20
-35.2262
11
88.5872
21
-36.0462
0
LINE
8
BLACK
6
CONTINUOUS
10
25.0316
20
-36.04
11
23.4316
21
-36.04
0
LINE
8
BLACK
6
CONTINUOUS
10
23.4316
20
-36.04
11
23.4316
21
-32.54
0
LINE
8
BLACK
6
CONTINUOUS
10
23.4316
20
-32.54
11
25.0316
21
-32.54
0
LINE
8
BLACK
6
CONTINUOUS
10
25.0316
20
-32.54
11
25.0316
21
-36.04
0
LINE
8
BLACK
6
CONTINUOUS
10
73.4284
20
-35.8012
11
72.8284
21
-35.8012
0
LINE
8
BLACK
6
CONTINUOUS
10
72.8284
20
-35.8012
11
72.8284
21
-34.7512
0
LINE
8
BLACK
6
CONTINUOUS
10
72.8284
20
-34.7512
11
73.4284
21
-34.7512
0
LINE
8
BLACK
6
CONTINUOUS
10
73.4284
20
-34.7512
11
73.4284
21
-35.8012
0
LINE
8
BLACK
6
CONTINUOUS
10
74.6984
20
-35.8012
11
74.0984
21
-35.8012
0
LINE
8
BLACK
6
CONTINUOUS
10
74.0984
20
-35.8012
11
74.0984
21
-34.7512
0
LINE
8
BLACK
6
CONTINUOUS
10
74.0984
20
-34.7512
11
74.6984
21
-34.7512
0
LINE
8
BLACK
6
CONTINUOUS
10
74.6984
20
-34.7512
11
74.6984
21
-35.8012
0
LINE
8
BLACK
6
CONTINUOUS
10
70.8784
20
-35.8012
11
70.2784
21
-35.8012
0
LINE
8
BLACK
6
CONTINUOUS
10
70.2784
20
-35.8012
11
70.2784
21
-34.7512
0
LINE
8
BLACK
6
CONTINUOUS
10
70.2784
20
-34.7512
11
70.8784
21
-34.7512
0
LINE
8
BLACK
6
CONTINUOUS
10
70.8784
20
-34.7512
11
70.8784
21
-35.8012
0
LINE
8
BLACK
6
CONTINUOUS
10
72.1484
20
-35.8012
11
71.5484
21
-35.8012
0
LINE
8
BLACK
6
CONTINUOUS
10
71.5484
20
-35.8012
11
71.5484
21
-34.7512
0
LINE
8
BLACK
6
CONTINUOUS
10
71.5484
20
-34.7512
11
72.1484
21
-34.7512
0
LINE
8
BLACK
6
CONTINUOUS
10
72.1484
20
-34.7512
11
72.1484
21
-35.8012
0
LINE
8
BLACK
6
CONTINUOUS
10
61.2237
20
-35.5956
11
60.6237
21
-35.5956
0
LINE
8
BLACK
6
CONTINUOUS
10
60.6237
20
-35.5956
11
60.6237
21
-34.5456
0
LINE
8
BLACK
6
CONTINUOUS
10
60.6237
20
-34.5456
11
61.2237
21
-34.5456
0
LINE
8
BLACK
6
CONTINUOUS
10
61.2237
20
-34.5456
11
61.2237
21
-35.5956
0
LINE
8
BLACK
6
CONTINUOUS
10
62.4937
20
-35.5956
11
61.8937
21
-35.5956
0
LINE
8
BLACK
6
CONTINUOUS
10
61.8937
20
-35.5956
11
61.8937
21
-34.5456
0
LINE
8
BLACK
6
CONTINUOUS
10
61.8937
20
-34.5456
11
62.4937
21
-34.5456
0
LINE
8
BLACK
6
CONTINUOUS
10
62.4937
20
-34.5456
11
62.4937
21
-35.5956
0
LINE
8
BLACK
6
CONTINUOUS
10
58.6737
20
-35.5956
11
58.0737
21
-35.5956
0
LINE
8
BLACK
6
CONTINUOUS
10
58.0737
20
-35.5956
11
58.0737
21
-34.5456
0
LINE
8
BLACK
6
CONTINUOUS
10
58.0737
20
-34.5456
11
58.6737
21
-34.5456
0
LINE
8
BLACK
6
CONTINUOUS
10
58.6737
20
-34.5456
11
58.6737
21
-35.5956
0
LINE
8
BLACK
6
CONTINUOUS
10
59.9437
20
-35.5956
11
59.3437
21
-35.5956
0
LINE
8
BLACK
6
CONTINUOUS
10
59.3437
20
-35.5956
11
59.3437
21
-34.5456
0
LINE
8
BLACK
6
CONTINUOUS
10
59.3437
20
-34.5456
11
59.9437
21
-34.5456
0
LINE
8
BLACK
6
CONTINUOUS
10
59.9437
20
-34.5456
11
59.9437
21
-35.5956
0
LINE
8
BLACK
6
CONTINUOUS
10
76.5349
20
-35.589
11
75.5349
21
-35.589
0
LINE
8
BLACK
6
CONTINUOUS
10
75.5349
20
-35.589
11
75.5349
21
-34.769
0
LINE
8
BLACK
6
CONTINUOUS
10
75.5349
20
-34.769
11
76.5349
21
-34.769
0
LINE
8
BLACK
6
CONTINUOUS
10
76.5349
20
-34.769
11
76.5349
21
-35.589
0
LINE
8
BLACK
6
CONTINUOUS
10
64.3302
20
-35.3858
11
63.3302
21
-35.3858
0
LINE
8
BLACK
6
CONTINUOUS
10
63.3302
20
-35.3858
11
63.3302
21
-34.5658
0
LINE
8
BLACK
6
CONTINUOUS
10
63.3302
20
-34.5658
11
64.3302
21
-34.5658
0
LINE
8
BLACK
6
CONTINUOUS
10
64.3302
20
-34.5658
11
64.3302
21
-35.3858
0
LINE
8
BLACK
6
CONTINUOUS
10
86.382
20
-34.9412
11
82.528
21
-34.9412
0
LINE
8
BLACK
6
CONTINUOUS
10
82.528
20
-34.9412
11
82.528
21
-31.2512
0
LINE
8
BLACK
6
CONTINUOUS
10
82.528
20
-31.2512
11
86.382
21
-31.2512
0
LINE
8
BLACK
6
CONTINUOUS
10
86.382
20
-31.2512
11
86.382
21
-34.9412
0
LINE
8
BLACK
6
CONTINUOUS
10
102.633
20
-34.8398
11
101.633
21
-34.8398
0
LINE
8
BLACK
6
CONTINUOUS
10
101.633
20
-34.8398
11
101.633
21
-34.0198
0
LINE
8
BLACK
6
CONTINUOUS
10
101.633
20
-34.0198
11
102.633
21
-34.0198
0
LINE
8
BLACK
6
CONTINUOUS
10
102.633
20
-34.0198
11
102.633
21
-34.8398
0
LINE
8
BLACK
6
CONTINUOUS
10
88.5872
20
-34.649
11
87.5872
21
-34.649
0
LINE
8
BLACK
6
CONTINUOUS
10
87.5872
20
-34.649
11
87.5872
21
-33.829
0
LINE
8
BLACK
6
CONTINUOUS
10
87.5872
20
-33.829
11
88.5872
21
-33.829
0
LINE
8
BLACK
6
CONTINUOUS
10
88.5872
20
-33.829
11
88.5872
21
-34.649
0
LINE
8
BLACK
6
CONTINUOUS
10
41.6254
20
-34.4698
11
40.9754
21
-34.4698
0
LINE
8
BLACK
6
CONTINUOUS
10
40.9754
20
-34.4698
11
40.9754
21
-33.8948
0
LINE
8
BLACK
6
CONTINUOUS
10
40.9754
20
-33.8948
11
41.6254
21
-33.8948
0
LINE
8
BLACK
6
CONTINUOUS
10
41.6254
20
-33.8948
11
41.6254
21
-34.4698
0
LINE
8
BLACK
6
CONTINUOUS
10
31.8461
20
-34.3854
11
30.3461
21
-34.3854
0
LINE
8
BLACK
6
CONTINUOUS
10
30.3461
20
-34.3854
11
30.3461
21
-34.0854
0
LINE
8
BLACK
6
CONTINUOUS
10
30.3461
20
-34.0854
11
31.8461
21
-34.0854
0
LINE
8
BLACK
6
CONTINUOUS
10
31.8461
20
-34.0854
11
31.8461
21
-34.3854
0
LINE
8
BLACK
6
CONTINUOUS
10
40.2461
20
-34.3854
11
38.7461
21
-34.3854
0
LINE
8
BLACK
6
CONTINUOUS
10
38.7461
20
-34.3854
11
38.7461
21
-34.0854
0
LINE
8
BLACK
6
CONTINUOUS
10
38.7461
20
-34.0854
11
40.2461
21
-34.0854
0
LINE
8
BLACK
6
CONTINUOUS
10
40.2461
20
-34.0854
11
40.2461
21
-34.3854
0
LINE
8
BLACK
6
CONTINUOUS
10
76.5349
20
-33.989
11
75.5349
21
-33.989
0
LINE
8
BLACK
6
CONTINUOUS
10
75.5349
20
-33.989
11
75.5349
21
-33.169
0
LINE
8
BLACK
6
CONTINUOUS
10
75.5349
20
-33.169
11
76.5349
21
-33.169
0
LINE
8
BLACK
6
CONTINUOUS
10
76.5349
20
-33.169
11
76.5349
21
-33.989
0
LINE
8
BLACK
6
CONTINUOUS
10
31.8461
20
-33.8854
11
30.3461
21
-33.8854
0
LINE
8
BLACK
6
CONTINUOUS
10
30.3461
20
-33.8854
11
30.3461
21
-33.5854
0
LINE
8
BLACK
6
CONTINUOUS
10
30.3461
20
-33.5854
11
31.8461
21
-33.5854
0
LINE
8
BLACK
6
CONTINUOUS
10
31.8461
20
-33.5854
11
31.8461
21
-33.8854
0
LINE
8
BLACK
6
CONTINUOUS
10
40.2461
20
-33.8854
11
38.7461
21
-33.8854
0
LINE
8
BLACK
6
CONTINUOUS
10
38.7461
20
-33.8854
11
38.7461
21
-33.5854
0
LINE
8
BLACK
6
CONTINUOUS
10
38.7461
20
-33.5854
11
40.2461
21
-33.5854
0
LINE
8
BLACK
6
CONTINUOUS
10
40.2461
20
-33.5854
11
40.2461
21
-33.8854
0
LINE
8
BLACK
6
CONTINUOUS
10
64.3302
20
-33.7858
11
63.3302
21
-33.7858
0
LINE
8
BLACK
6
CONTINUOUS
10
63.3302
20
-33.7858
11
63.3302
21
-32.9658
0
LINE
8
BLACK
6
CONTINUOUS
10
63.3302
20
-32.9658
11
64.3302
21
-32.9658
0
LINE
8
BLACK
6
CONTINUOUS
10
64.3302
20
-32.9658
11
64.3302
21
-33.7858
0
LINE
8
BLACK
6
CONTINUOUS
10
29.7544
20
-33.7824
11
27.9544
21
-33.7824
0
LINE
8
BLACK
6
CONTINUOUS
10
27.9544
20
-33.7824
11
27.9544
21
-32.5624
0
LINE
8
BLACK
6
CONTINUOUS
10
27.9544
20
-32.5624
11
29.7544
21
-32.5624
0
LINE
8
BLACK
6
CONTINUOUS
10
29.7544
20
-32.5624
11
29.7544
21
-33.7824
0
LINE
8
BLACK
6
CONTINUOUS
10
44.1816
20
-33.7824
11
42.3816
21
-33.7824
0
LINE
8
BLACK
6
CONTINUOUS
10
42.3816
20
-33.7824
11
42.3816
21
-32.5624
0
LINE
8
BLACK
6
CONTINUOUS
10
42.3816
20
-32.5624
11
44.1816
21
-32.5624
0
LINE
8
BLACK
6
CONTINUOUS
10
44.1816
20
-32.5624
11
44.1816
21
-33.7824
0
LINE
8
BLACK
6
CONTINUOUS
10
41.6254
20
-33.6948
11
40.9754
21
-33.6948
0
LINE
8
BLACK
6
CONTINUOUS
10
40.9754
20
-33.6948
11
40.9754
21
-33.1198
0
LINE
8
BLACK
6
CONTINUOUS
10
40.9754
20
-33.1198
11
41.6254
21
-33.1198
0
LINE
8
BLACK
6
CONTINUOUS
10
41.6254
20
-33.1198
11
41.6254
21
-33.6948
0
LINE
8
BLACK
6
CONTINUOUS
10
101.007
20
-33.4184
11
100.187
21
-33.4184
0
LINE
8
BLACK
6
CONTINUOUS
10
100.187
20
-33.4184
11
100.187
21
-32.4184
0
LINE
8
BLACK
6
CONTINUOUS
10
100.187
20
-32.4184
11
101.007
21
-32.4184
0
LINE
8
BLACK
6
CONTINUOUS
10
101.007
20
-32.4184
11
101.007
21
-33.4184
0
LINE
8
BLACK
6
CONTINUOUS
10
102.607
20
-33.4184
11
101.787
21
-33.4184
0
LINE
8
BLACK
6
CONTINUOUS
10
101.787
20
-33.4184
11
101.787
21
-32.4184
0
LINE
8
BLACK
6
CONTINUOUS
10
101.787
20
-32.4184
11
102.607
21
-32.4184
0
LINE
8
BLACK
6
CONTINUOUS
10
102.607
20
-32.4184
11
102.607
21
-33.4184
0
LINE
8
BLACK
6
CONTINUOUS
10
71.7884
20
-33.4062
11
70.8884
21
-33.4062
0
LINE
8
BLACK
6
CONTINUOUS
10
70.8884
20
-33.4062
11
70.8884
21
-32.8062
0
LINE
8
BLACK
6
CONTINUOUS
10
70.8884
20
-32.8062
11
71.7884
21
-32.8062
0
LINE
8
BLACK
6
CONTINUOUS
10
71.7884
20
-32.8062
11
71.7884
21
-33.4062
0
LINE
8
BLACK
6
CONTINUOUS
10
72.9384
20
-33.4062
11
72.0384
21
-33.4062
0
LINE
8
BLACK
6
CONTINUOUS
10
72.0384
20
-33.4062
11
72.0384
21
-32.8062
0
LINE
8
BLACK
6
CONTINUOUS
10
72.0384
20
-32.8062
11
72.9384
21
-32.8062
0
LINE
8
BLACK
6
CONTINUOUS
10
72.9384
20
-32.8062
11
72.9384
21
-33.4062
0
LINE
8
BLACK
6
CONTINUOUS
10
74.0884
20
-33.4062
11
73.1884
21
-33.4062
0
LINE
8
BLACK
6
CONTINUOUS
10
73.1884
20
-33.4062
11
73.1884
21
-32.8062
0
LINE
8
BLACK
6
CONTINUOUS
10
73.1884
20
-32.8062
11
74.0884
21
-32.8062
0
LINE
8
BLACK
6
CONTINUOUS
10
74.0884
20
-32.8062
11
74.0884
21
-33.4062
0
LINE
8
BLACK
6
CONTINUOUS
10
40.2461
20
-33.3854
11
38.7461
21
-33.3854
0
LINE
8
BLACK
6
CONTINUOUS
10
38.7461
20
-33.3854
11
38.7461
21
-33.0854
0
LINE
8
BLACK
6
CONTINUOUS
10
38.7461
20
-33.0854
11
40.2461
21
-33.0854
0
LINE
8
BLACK
6
CONTINUOUS
10
40.2461
20
-33.0854
11
40.2461
21
-33.3854
0
LINE
8
BLACK
6
CONTINUOUS
10
61.8837
20
-33.2006
11
60.9837
21
-33.2006
0
LINE
8
BLACK
6
CONTINUOUS
10
60.9837
20
-33.2006
11
60.9837
21
-32.6006
0
LINE
8
BLACK
6
CONTINUOUS
10
60.9837
20
-32.6006
11
61.8837
21
-32.6006
0
LINE
8
BLACK
6
CONTINUOUS
10
61.8837
20
-32.6006
11
61.8837
21
-33.2006
0
LINE
8
BLACK
6
CONTINUOUS
10
59.5837
20
-33.2006
11
58.6837
21
-33.2006
0
LINE
8
BLACK
6
CONTINUOUS
10
58.6837
20
-33.2006
11
58.6837
21
-32.6006
0
LINE
8
BLACK
6
CONTINUOUS
10
58.6837
20
-32.6006
11
59.5837
21
-32.6006
0
LINE
8
BLACK
6
CONTINUOUS
10
59.5837
20
-32.6006
11
59.5837
21
-33.2006
0
LINE
8
BLACK
6
CONTINUOUS
10
60.7337
20
-33.2006
11
59.8337
21
-33.2006
0
LINE
8
BLACK
6
CONTINUOUS
10
59.8337
20
-33.2006
11
59.8337
21
-32.6006
0
LINE
8
BLACK
6
CONTINUOUS
10
59.8337
20
-32.6006
11
60.7337
21
-32.6006
0
LINE
8
BLACK
6
CONTINUOUS
10
60.7337
20
-32.6006
11
60.7337
21
-33.2006
0
LINE
8
BLACK
6
CONTINUOUS
10
88.5872
20
-33.049
11
87.5872
21
-33.049
0
LINE
8
BLACK
6
CONTINUOUS
10
87.5872
20
-33.049
11
87.5872
21
-32.229
0
LINE
8
BLACK
6
CONTINUOUS
10
87.5872
20
-32.229
11
88.5872
21
-32.229
0
LINE
8
BLACK
6
CONTINUOUS
10
88.5872
20
-32.229
11
88.5872
21
-33.049
0
LINE
8
BLACK
6
CONTINUOUS
10
35.0961
20
-33.0354
11
33.7461
21
-33.0354
0
LINE
8
BLACK
6
CONTINUOUS
10
33.7461
20
-33.0354
11
33.7461
21
-31.6854
0
LINE
8
BLACK
6
CONTINUOUS
10
33.7461
20
-31.6854
11
35.0961
21
-31.6854
0
LINE
8
BLACK
6
CONTINUOUS
10
35.0961
20
-31.6854
11
35.0961
21
-33.0354
0
LINE
8
BLACK
6
CONTINUOUS
10
36.8461
20
-33.0354
11
35.4961
21
-33.0354
0
LINE
8
BLACK
6
CONTINUOUS
10
35.4961
20
-33.0354
11
35.4961
21
-31.6854
0
LINE
8
BLACK
6
CONTINUOUS
10
35.4961
20
-31.6854
11
36.8461
21
-31.6854
0
LINE
8
BLACK
6
CONTINUOUS
10
36.8461
20
-31.6854
11
36.8461
21
-33.0354
0
LINE
8
BLACK
6
CONTINUOUS
10
40.2461
20
-32.8854
11
38.7461
21
-32.8854
0
LINE
8
BLACK
6
CONTINUOUS
10
38.7461
20
-32.8854
11
38.7461
21
-32.5854
0
LINE
8
BLACK
6
CONTINUOUS
10
38.7461
20
-32.5854
11
40.2461
21
-32.5854
0
LINE
8
BLACK
6
CONTINUOUS
10
40.2461
20
-32.5854
11
40.2461
21
-32.8854
0
LINE
8
BLACK
6
CONTINUOUS
10
31.8461
20
-32.8854
11
30.3461
21
-32.8854
0
LINE
8
BLACK
6
CONTINUOUS
10
30.3461
20
-32.8854
11
30.3461
21
-32.5854
0
LINE
8
BLACK
6
CONTINUOUS
10
30.3461
20
-32.5854
11
31.8461
21
-32.5854
0
LINE
8
BLACK
6
CONTINUOUS
10
31.8461
20
-32.5854
11
31.8461
21
-32.8854
0
LINE
8
BLACK
6
CONTINUOUS
10
76.5349
20
-32.617
11
75.5349
21
-32.617
0
LINE
8
BLACK
6
CONTINUOUS
10
75.5349
20
-32.617
11
75.5349
21
-31.797
0
LINE
8
BLACK
6
CONTINUOUS
10
75.5349
20
-31.797
11
76.5349
21
-31.797
0
LINE
8
BLACK
6
CONTINUOUS
10
76.5349
20
-31.797
11
76.5349
21
-32.617
0
LINE
8
BLACK
6
CONTINUOUS
10
72.9384
20
-32.5562
11
72.0384
21
-32.5562
0
LINE
8
BLACK
6
CONTINUOUS
10
72.0384
20
-32.5562
11
72.0384
21
-31.9562
0
LINE
8
BLACK
6
CONTINUOUS
10
72.0384
20
-31.9562
11
72.9384
21
-31.9562
0
LINE
8
BLACK
6
CONTINUOUS
10
72.9384
20
-31.9562
11
72.9384
21
-32.5562
0
LINE
8
BLACK
6
CONTINUOUS
10
74.0884
20
-32.5562
11
73.1884
21
-32.5562
0
LINE
8
BLACK
6
CONTINUOUS
10
73.1884
20
-32.5562
11
73.1884
21
-31.9562
0
LINE
8
BLACK
6
CONTINUOUS
10
73.1884
20
-31.9562
11
74.0884
21
-31.9562
0
LINE
8
BLACK
6
CONTINUOUS
10
74.0884
20
-31.9562
11
74.0884
21
-32.5562
0
LINE
8
BLACK
6
CONTINUOUS
10
71.7884
20
-32.5562
11
70.8884
21
-32.5562
0
LINE
8
BLACK
6
CONTINUOUS
10
70.8884
20
-32.5562
11
70.8884
21
-31.9562
0
LINE
8
BLACK
6
CONTINUOUS
10
70.8884
20
-31.9562
11
71.7884
21
-31.9562
0
LINE
8
BLACK
6
CONTINUOUS
10
71.7884
20
-31.9562
11
71.7884
21
-32.5562
0
LINE
8
BLACK
6
CONTINUOUS
10
64.3302
20
-32.4394
11
63.3302
21
-32.4394
0
LINE
8
BLACK
6
CONTINUOUS
10
63.3302
20
-32.4394
11
63.3302
21
-31.6194
0
LINE
8
BLACK
6
CONTINUOUS
10
63.3302
20
-31.6194
11
64.3302
21
-31.6194
0
LINE
8
BLACK
6
CONTINUOUS
10
64.3302
20
-31.6194
11
64.3302
21
-32.4394
0
LINE
8
BLACK
6
CONTINUOUS
10
60.7337
20
-32.3506
11
59.8337
21
-32.3506
0
LINE
8
BLACK
6
CONTINUOUS
10
59.8337
20
-32.3506
11
59.8337
21
-31.7506
0
LINE
8
BLACK
6
CONTINUOUS
10
59.8337
20
-31.7506
11
60.7337
21
-31.7506
0
LINE
8
BLACK
6
CONTINUOUS
10
60.7337
20
-31.7506
11
60.7337
21
-32.3506
0
LINE
8
BLACK
6
CONTINUOUS
10
59.5837
20
-32.3506
11
58.6837
21
-32.3506
0
LINE
8
BLACK
6
CONTINUOUS
10
58.6837
20
-32.3506
11
58.6837
21
-31.7506
0
LINE
8
BLACK
6
CONTINUOUS
10
58.6837
20
-31.7506
11
59.5837
21
-31.7506
0
LINE
8
BLACK
6
CONTINUOUS
10
59.5837
20
-31.7506
11
59.5837
21
-32.3506
0
LINE
8
BLACK
6
CONTINUOUS
10
61.8837
20
-32.3506
11
60.9837
21
-32.3506
0
LINE
8
BLACK
6
CONTINUOUS
10
60.9837
20
-32.3506
11
60.9837
21
-31.7506
0
LINE
8
BLACK
6
CONTINUOUS
10
60.9837
20
-31.7506
11
61.8837
21
-31.7506
0
LINE
8
BLACK
6
CONTINUOUS
10
61.8837
20
-31.7506
11
61.8837
21
-32.3506
0
LINE
8
BLACK
6
CONTINUOUS
10
56.614
20
-32.169
11
53.114
21
-32.169
0
LINE
8
BLACK
6
CONTINUOUS
10
53.114
20
-32.169
11
53.114
21
-30.569
0
LINE
8
BLACK
6
CONTINUOUS
10
53.114
20
-30.569
11
56.614
21
-30.569
0
LINE
8
BLACK
6
CONTINUOUS
10
56.614
20
-30.569
11
56.614
21
-32.169
0
LINE
8
BLACK
6
CONTINUOUS
10
51.214
20
-32.169
11
47.714
21
-32.169
0
LINE
8
BLACK
6
CONTINUOUS
10
47.714
20
-32.169
11
47.714
21
-30.569
0
LINE
8
BLACK
6
CONTINUOUS
10
47.714
20
-30.569
11
51.214
21
-30.569
0
LINE
8
BLACK
6
CONTINUOUS
10
51.214
20
-30.569
11
51.214
21
-32.169
0
LINE
8
BLACK
6
CONTINUOUS
10
31.8461
20
-31.8854
11
30.3461
21
-31.8854
0
LINE
8
BLACK
6
CONTINUOUS
10
30.3461
20
-31.8854
11
30.3461
21
-31.5854
0
LINE
8
BLACK
6
CONTINUOUS
10
30.3461
20
-31.5854
11
31.8461
21
-31.5854
0
LINE
8
BLACK
6
CONTINUOUS
10
31.8461
20
-31.5854
11
31.8461
21
-31.8854
0
LINE
8
BLACK
6
CONTINUOUS
10
40.2461
20
-31.8854
11
38.7461
21
-31.8854
0
LINE
8
BLACK
6
CONTINUOUS
10
38.7461
20
-31.8854
11
38.7461
21
-31.5854
0
LINE
8
BLACK
6
CONTINUOUS
10
38.7461
20
-31.5854
11
40.2461
21
-31.5854
0
LINE
8
BLACK
6
CONTINUOUS
10
40.2461
20
-31.5854
11
40.2461
21
-31.8854
0
LINE
8
BLACK
6
CONTINUOUS
10
72.9384
20
-31.7062
11
72.0384
21
-31.7062
0
LINE
8
BLACK
6
CONTINUOUS
10
72.0384
20
-31.7062
11
72.0384
21
-31.1062
0
LINE
8
BLACK
6
CONTINUOUS
10
72.0384
20
-31.1062
11
72.9384
21
-31.1062
0
LINE
8
BLACK
6
CONTINUOUS
10
72.9384
20
-31.1062
11
72.9384
21
-31.7062
0
LINE
8
BLACK
6
CONTINUOUS
10
74.0884
20
-31.7062
11
73.1884
21
-31.7062
0
LINE
8
BLACK
6
CONTINUOUS
10
73.1884
20
-31.7062
11
73.1884
21
-31.1062
0
LINE
8
BLACK
6
CONTINUOUS
10
73.1884
20
-31.1062
11
74.0884
21
-31.1062
0
LINE
8
BLACK
6
CONTINUOUS
10
74.0884
20
-31.1062
11
74.0884
21
-31.7062
0
LINE
8
BLACK
6
CONTINUOUS
10
71.7884
20
-31.7062
11
70.8884
21
-31.7062
0
LINE
8
BLACK
6
CONTINUOUS
10
70.8884
20
-31.7062
11
70.8884
21
-31.1062
0
LINE
8
BLACK
6
CONTINUOUS
10
70.8884
20
-31.1062
11
71.7884
21
-31.1062
0
LINE
8
BLACK
6
CONTINUOUS
10
71.7884
20
-31.1062
11
71.7884
21
-31.7062
0
LINE
8
BLACK
6
CONTINUOUS
10
61.8837
20
-31.5006
11
60.9837
21
-31.5006
0
LINE
8
BLACK
6
CONTINUOUS
10
60.9837
20
-31.5006
11
60.9837
21
-30.9006
0
LINE
8
BLACK
6
CONTINUOUS
10
60.9837
20
-30.9006
11
61.8837
21
-30.9006
0
LINE
8
BLACK
6
CONTINUOUS
10
61.8837
20
-30.9006
11
61.8837
21
-31.5006
0
LINE
8
BLACK
6
CONTINUOUS
10
60.7337
20
-31.5006
11
59.8337
21
-31.5006
0
LINE
8
BLACK
6
CONTINUOUS
10
59.8337
20
-31.5006
11
59.8337
21
-30.9006
0
LINE
8
BLACK
6
CONTINUOUS
10
59.8337
20
-30.9006
11
60.7337
21
-30.9006
0
LINE
8
BLACK
6
CONTINUOUS
10
60.7337
20
-30.9006
11
60.7337
21
-31.5006
0
LINE
8
BLACK
6
CONTINUOUS
10
59.5837
20
-31.5006
11
58.6837
21
-31.5006
0
LINE
8
BLACK
6
CONTINUOUS
10
58.6837
20
-31.5006
11
58.6837
21
-30.9006
0
LINE
8
BLACK
6
CONTINUOUS
10
58.6837
20
-30.9006
11
59.5837
21
-30.9006
0
LINE
8
BLACK
6
CONTINUOUS
10
59.5837
20
-30.9006
11
59.5837
21
-31.5006
0
LINE
8
BLACK
6
CONTINUOUS
10
88.5764
20
-31.4626
11
87.5764
21
-31.4626
0
LINE
8
BLACK
6
CONTINUOUS
10
87.5764
20
-31.4626
11
87.5764
21
-30.4626
0
LINE
8
BLACK
6
CONTINUOUS
10
87.5764
20
-30.4626
11
88.5764
21
-30.4626
0
LINE
8
BLACK
6
CONTINUOUS
10
88.5764
20
-30.4626
11
88.5764
21
-31.4626
0
LINE
8
BLACK
6
CONTINUOUS
10
91.0764
20
-31.4626
11
90.0764
21
-31.4626
0
LINE
8
BLACK
6
CONTINUOUS
10
90.0764
20
-31.4626
11
90.0764
21
-30.4626
0
LINE
8
BLACK
6
CONTINUOUS
10
90.0764
20
-30.4626
11
91.0764
21
-30.4626
0
LINE
8
BLACK
6
CONTINUOUS
10
91.0764
20
-30.4626
11
91.0764
21
-31.4626
0
LINE
8
BLACK
6
CONTINUOUS
10
35.0961
20
-31.2854
11
33.7461
21
-31.2854
0
LINE
8
BLACK
6
CONTINUOUS
10
33.7461
20
-31.2854
11
33.7461
21
-29.9354
0
LINE
8
BLACK
6
CONTINUOUS
10
33.7461
20
-29.9354
11
35.0961
21
-29.9354
0
LINE
8
BLACK
6
CONTINUOUS
10
35.0961
20
-29.9354
11
35.0961
21
-31.2854
0
LINE
8
BLACK
6
CONTINUOUS
10
36.8461
20
-31.2854
11
35.4961
21
-31.2854
0
LINE
8
BLACK
6
CONTINUOUS
10
35.4961
20
-31.2854
11
35.4961
21
-29.9354
0
LINE
8
BLACK
6
CONTINUOUS
10
35.4961
20
-29.9354
11
36.8461
21
-29.9354
0
LINE
8
BLACK
6
CONTINUOUS
10
36.8461
20
-29.9354
11
36.8461
21
-31.2854
0
LINE
8
BLACK
6
CONTINUOUS
10
76.5349
20
-31.017
11
75.5349
21
-31.017
0
LINE
8
BLACK
6
CONTINUOUS
10
75.5349
20
-31.017
11
75.5349
21
-30.197
0
LINE
8
BLACK
6
CONTINUOUS
10
75.5349
20
-30.197
11
76.5349
21
-30.197
0
LINE
8
BLACK
6
CONTINUOUS
10
76.5349
20
-30.197
11
76.5349
21
-31.017
0
LINE
8
BLACK
6
CONTINUOUS
10
25.1312
20
-30.9736
11
23.9112
21
-30.9736
0
LINE
8
BLACK
6
CONTINUOUS
10
23.9112
20
-30.9736
11
23.9112
21
-29.1736
0
LINE
8
BLACK
6
CONTINUOUS
10
23.9112
20
-29.1736
11
25.1312
21
-29.1736
0
LINE
8
BLACK
6
CONTINUOUS
10
25.1312
20
-29.1736
11
25.1312
21
-30.9736
0
LINE
8
BLACK
6
CONTINUOUS
10
27.9912
20
-30.9736
11
26.7712
21
-30.9736
0
LINE
8
BLACK
6
CONTINUOUS
10
26.7712
20
-30.9736
11
26.7712
21
-29.1736
0
LINE
8
BLACK
6
CONTINUOUS
10
26.7712
20
-29.1736
11
27.9912
21
-29.1736
0
LINE
8
BLACK
6
CONTINUOUS
10
27.9912
20
-29.1736
11
27.9912
21
-30.9736
0
LINE
8
BLACK
6
CONTINUOUS
10
44.6896
20
-30.9376
11
42.8896
21
-30.9376
0
LINE
8
BLACK
6
CONTINUOUS
10
42.8896
20
-30.9376
11
42.8896
21
-29.7176
0
LINE
8
BLACK
6
CONTINUOUS
10
42.8896
20
-29.7176
11
44.6896
21
-29.7176
0
LINE
8
BLACK
6
CONTINUOUS
10
44.6896
20
-29.7176
11
44.6896
21
-30.9376
0
LINE
8
BLACK
6
CONTINUOUS
10
31.8461
20
-30.8854
11
30.3461
21
-30.8854
0
LINE
8
BLACK
6
CONTINUOUS
10
30.3461
20
-30.8854
11
30.3461
21
-30.5854
0
LINE
8
BLACK
6
CONTINUOUS
10
30.3461
20
-30.5854
11
31.8461
21
-30.5854
0
LINE
8
BLACK
6
CONTINUOUS
10
31.8461
20
-30.5854
11
31.8461
21
-30.8854
0
LINE
8
BLACK
6
CONTINUOUS
10
40.2461
20
-30.8854
11
38.7461
21
-30.8854
0
LINE
8
BLACK
6
CONTINUOUS
10
38.7461
20
-30.8854
11
38.7461
21
-30.5854
0
LINE
8
BLACK
6
CONTINUOUS
10
38.7461
20
-30.5854
11
40.2461
21
-30.5854
0
LINE
8
BLACK
6
CONTINUOUS
10
40.2461
20
-30.5854
11
40.2461
21
-30.8854
0
LINE
8
BLACK
6
CONTINUOUS
10
86.805
20
-30.8462
11
86.105
21
-30.8462
0
LINE
8
BLACK
6
CONTINUOUS
10
86.105
20
-30.8462
11
86.105
21
-30.3462
0
LINE
8
BLACK
6
CONTINUOUS
10
86.105
20
-30.3462
11
86.805
21
-30.3462
0
LINE
8
BLACK
6
CONTINUOUS
10
86.805
20
-30.3462
11
86.805
21
-30.8462
0
LINE
8
BLACK
6
CONTINUOUS
10
85.47
20
-30.8462
11
84.77
21
-30.8462
0
LINE
8
BLACK
6
CONTINUOUS
10
84.77
20
-30.8462
11
84.77
21
-30.3462
0
LINE
8
BLACK
6
CONTINUOUS
10
84.77
20
-30.3462
11
85.47
21
-30.3462
0
LINE
8
BLACK
6
CONTINUOUS
10
85.47
20
-30.3462
11
85.47
21
-30.8462
0
LINE
8
BLACK
6
CONTINUOUS
10
84.14
20
-30.8462
11
83.44
21
-30.8462
0
LINE
8
BLACK
6
CONTINUOUS
10
83.44
20
-30.8462
11
83.44
21
-30.3462
0
LINE
8
BLACK
6
CONTINUOUS
10
83.44
20
-30.3462
11
84.14
21
-30.3462
0
LINE
8
BLACK
6
CONTINUOUS
10
84.14
20
-30.3462
11
84.14
21
-30.8462
0
LINE
8
BLACK
6
CONTINUOUS
10
82.805
20
-30.8462
11
82.105
21
-30.8462
0
LINE
8
BLACK
6
CONTINUOUS
10
82.105
20
-30.8462
11
82.105
21
-30.3462
0
LINE
8
BLACK
6
CONTINUOUS
10
82.105
20
-30.3462
11
82.805
21
-30.3462
0
LINE
8
BLACK
6
CONTINUOUS
10
82.805
20
-30.3462
11
82.805
21
-30.8462
0
LINE
8
BLACK
6
CONTINUOUS
10
64.3302
20
-30.8394
11
63.3302
21
-30.8394
0
LINE
8
BLACK
6
CONTINUOUS
10
63.3302
20
-30.8394
11
63.3302
21
-30.0194
0
LINE
8
BLACK
6
CONTINUOUS
10
63.3302
20
-30.0194
11
64.3302
21
-30.0194
0
LINE
8
BLACK
6
CONTINUOUS
10
64.3302
20
-30.0194
11
64.3302
21
-30.8394
0
LINE
8
BLACK
6
CONTINUOUS
10
46.0958
20
-30.4058
11
45.4458
21
-30.4058
0
LINE
8
BLACK
6
CONTINUOUS
10
45.4458
20
-30.4058
11
45.4458
21
-29.8308
0
LINE
8
BLACK
6
CONTINUOUS
10
45.4458
20
-29.8308
11
46.0958
21
-29.8308
0
LINE
8
BLACK
6
CONTINUOUS
10
46.0958
20
-29.8308
11
46.0958
21
-30.4058
0
LINE
8
BLACK
6
CONTINUOUS
10
72.1884
20
-30.0062
11
71.5884
21
-30.0062
0
LINE
8
BLACK
6
CONTINUOUS
10
71.5884
20
-30.0062
11
71.5884
21
-29.1062
0
LINE
8
BLACK
6
CONTINUOUS
10
71.5884
20
-29.1062
11
72.1884
21
-29.1062
0
LINE
8
BLACK
6
CONTINUOUS
10
72.1884
20
-29.1062
11
72.1884
21
-30.0062
0
LINE
8
BLACK
6
CONTINUOUS
10
70.9084
20
-30.0062
11
70.3084
21
-30.0062
0
LINE
8
BLACK
6
CONTINUOUS
10
70.3084
20
-30.0062
11
70.3084
21
-29.1062
0
LINE
8
BLACK
6
CONTINUOUS
10
70.3084
20
-29.1062
11
70.9084
21
-29.1062
0
LINE
8
BLACK
6
CONTINUOUS
10
70.9084
20
-29.1062
11
70.9084
21
-30.0062
0
LINE
8
BLACK
6
CONTINUOUS
10
74.6684
20
-30.0062
11
74.0684
21
-30.0062
0
LINE
8
BLACK
6
CONTINUOUS
10
74.0684
20
-30.0062
11
74.0684
21
-29.1062
0
LINE
8
BLACK
6
CONTINUOUS
10
74.0684
20
-29.1062
11
74.6684
21
-29.1062
0
LINE
8
BLACK
6
CONTINUOUS
10
74.6684
20
-29.1062
11
74.6684
21
-30.0062
0
LINE
8
BLACK
6
CONTINUOUS
10
73.3884
20
-30.0062
11
72.7884
21
-30.0062
0
LINE
8
BLACK
6
CONTINUOUS
10
72.7884
20
-30.0062
11
72.7884
21
-29.1062
0
LINE
8
BLACK
6
CONTINUOUS
10
72.7884
20
-29.1062
11
73.3884
21
-29.1062
0
LINE
8
BLACK
6
CONTINUOUS
10
73.3884
20
-29.1062
11
73.3884
21
-30.0062
0
LINE
8
BLACK
6
CONTINUOUS
10
31.8461
20
-29.8854
11
30.3461
21
-29.8854
0
LINE
8
BLACK
6
CONTINUOUS
10
30.3461
20
-29.8854
11
30.3461
21
-29.5854
0
LINE
8
BLACK
6
CONTINUOUS
10
30.3461
20
-29.5854
11
31.8461
21
-29.5854
0
LINE
8
BLACK
6
CONTINUOUS
10
31.8461
20
-29.5854
11
31.8461
21
-29.8854
0
LINE
8
BLACK
6
CONTINUOUS
10
40.2461
20
-29.8854
11
38.7461
21
-29.8854
0
LINE
8
BLACK
6
CONTINUOUS
10
38.7461
20
-29.8854
11
38.7461
21
-29.5854
0
LINE
8
BLACK
6
CONTINUOUS
10
38.7461
20
-29.5854
11
40.2461
21
-29.5854
0
LINE
8
BLACK
6
CONTINUOUS
10
40.2461
20
-29.5854
11
40.2461
21
-29.8854
0
LINE
8
BLACK
6
CONTINUOUS
10
61.1837
20
-29.8006
11
60.5837
21
-29.8006
0
LINE
8
BLACK
6
CONTINUOUS
10
60.5837
20
-29.8006
11
60.5837
21
-28.9006
0
LINE
8
BLACK
6
CONTINUOUS
10
60.5837
20
-28.9006
11
61.1837
21
-28.9006
0
LINE
8
BLACK
6
CONTINUOUS
10
61.1837
20
-28.9006
11
61.1837
21
-29.8006
0
LINE
8
BLACK
6
CONTINUOUS
10
59.9837
20
-29.8006
11
59.3837
21
-29.8006
0
LINE
8
BLACK
6
CONTINUOUS
10
59.3837
20
-29.8006
11
59.3837
21
-28.9006
0
LINE
8
BLACK
6
CONTINUOUS
10
59.3837
20
-28.9006
11
59.9837
21
-28.9006
0
LINE
8
BLACK
6
CONTINUOUS
10
59.9837
20
-28.9006
11
59.9837
21
-29.8006
0
LINE
8
BLACK
6
CONTINUOUS
10
62.4637
20
-29.8006
11
61.8637
21
-29.8006
0
LINE
8
BLACK
6
CONTINUOUS
10
61.8637
20
-29.8006
11
61.8637
21
-28.9006
0
LINE
8
BLACK
6
CONTINUOUS
10
61.8637
20
-28.9006
11
62.4637
21
-28.9006
0
LINE
8
BLACK
6
CONTINUOUS
10
62.4637
20
-28.9006
11
62.4637
21
-29.8006
0
LINE
8
BLACK
6
CONTINUOUS
10
58.7037
20
-29.8006
11
58.1037
21
-29.8006
0
LINE
8
BLACK
6
CONTINUOUS
10
58.1037
20
-29.8006
11
58.1037
21
-28.9006
0
LINE
8
BLACK
6
CONTINUOUS
10
58.1037
20
-28.9006
11
58.7037
21
-28.9006
0
LINE
8
BLACK
6
CONTINUOUS
10
58.7037
20
-28.9006
11
58.7037
21
-29.8006
0
LINE
8
BLACK
6
CONTINUOUS
10
46.0958
20
-29.6308
11
45.4458
21
-29.6308
0
LINE
8
BLACK
6
CONTINUOUS
10
45.4458
20
-29.6308
11
45.4458
21
-29.0558
0
LINE
8
BLACK
6
CONTINUOUS
10
45.4458
20
-29.0558
11
46.0958
21
-29.0558
0
LINE
8
BLACK
6
CONTINUOUS
10
46.0958
20
-29.0558
11
46.0958
21
-29.6308
0
LINE
8
BLACK
6
CONTINUOUS
10
78.6153
20
-29.4306
11
77.6153
21
-29.4306
0
LINE
8
BLACK
6
CONTINUOUS
10
77.6153
20
-29.4306
11
77.6153
21
-28.4306
0
LINE
8
BLACK
6
CONTINUOUS
10
77.6153
20
-28.4306
11
78.6153
21
-28.4306
0
LINE
8
BLACK
6
CONTINUOUS
10
78.6153
20
-28.4306
11
78.6153
21
-29.4306
0
LINE
8
BLACK
6
CONTINUOUS
10
76.1153
20
-29.4306
11
75.1153
21
-29.4306
0
LINE
8
BLACK
6
CONTINUOUS
10
75.1153
20
-29.4306
11
75.1153
21
-28.4306
0
LINE
8
BLACK
6
CONTINUOUS
10
75.1153
20
-28.4306
11
76.1153
21
-28.4306
0
LINE
8
BLACK
6
CONTINUOUS
10
76.1153
20
-28.4306
11
76.1153
21
-29.4306
0
LINE
8
BLACK
6
CONTINUOUS
10
66.4106
20
-29.2782
11
65.4106
21
-29.2782
0
LINE
8
BLACK
6
CONTINUOUS
10
65.4106
20
-29.2782
11
65.4106
21
-28.2782
0
LINE
8
BLACK
6
CONTINUOUS
10
65.4106
20
-28.2782
11
66.4106
21
-28.2782
0
LINE
8
BLACK
6
CONTINUOUS
10
66.4106
20
-28.2782
11
66.4106
21
-29.2782
0
LINE
8
BLACK
6
CONTINUOUS
10
63.9106
20
-29.2782
11
62.9106
21
-29.2782
0
LINE
8
BLACK
6
CONTINUOUS
10
62.9106
20
-29.2782
11
62.9106
21
-28.2782
0
LINE
8
BLACK
6
CONTINUOUS
10
62.9106
20
-28.2782
11
63.9106
21
-28.2782
0
LINE
8
BLACK
6
CONTINUOUS
10
63.9106
20
-28.2782
11
63.9106
21
-29.2782
0
LINE
8
BLACK
6
CONTINUOUS
10
31.8461
20
-28.8854
11
30.3461
21
-28.8854
0
LINE
8
BLACK
6
CONTINUOUS
10
30.3461
20
-28.8854
11
30.3461
21
-28.5854
0
LINE
8
BLACK
6
CONTINUOUS
10
30.3461
20
-28.5854
11
31.8461
21
-28.5854
0
LINE
8
BLACK
6
CONTINUOUS
10
31.8461
20
-28.5854
11
31.8461
21
-28.8854
0
LINE
8
BLACK
6
CONTINUOUS
10
40.2461
20
-28.8854
11
38.7461
21
-28.8854
0
LINE
8
BLACK
6
CONTINUOUS
10
38.7461
20
-28.8854
11
38.7461
21
-28.5854
0
LINE
8
BLACK
6
CONTINUOUS
10
38.7461
20
-28.5854
11
40.2461
21
-28.5854
0
LINE
8
BLACK
6
CONTINUOUS
10
40.2461
20
-28.5854
11
40.2461
21
-28.8854
0
LINE
8
BLACK
6
CONTINUOUS
10
96.0992
20
-28.6414
11
94.2992
21
-28.6414
0
LINE
8
BLACK
6
CONTINUOUS
10
94.2992
20
-28.6414
11
94.2992
21
-27.4214
0
LINE
8
BLACK
6
CONTINUOUS
10
94.2992
20
-27.4214
11
96.0992
21
-27.4214
0
LINE
8
BLACK
6
CONTINUOUS
10
96.0992
20
-27.4214
11
96.0992
21
-28.6414
0
LINE
8
BLACK
6
CONTINUOUS
10
26.3796
20
-28.4174
11
25.8046
21
-28.4174
0
LINE
8
BLACK
6
CONTINUOUS
10
25.8046
20
-28.4174
11
25.8046
21
-27.7674
0
LINE
8
BLACK
6
CONTINUOUS
10
25.8046
20
-27.7674
11
26.3796
21
-27.7674
0
LINE
8
BLACK
6
CONTINUOUS
10
26.3796
20
-27.7674
11
26.3796
21
-28.4174
0
LINE
8
BLACK
6
CONTINUOUS
10
27.1546
20
-28.4174
11
26.5796
21
-28.4174
0
LINE
8
BLACK
6
CONTINUOUS
10
26.5796
20
-28.4174
11
26.5796
21
-27.7674
0
LINE
8
BLACK
6
CONTINUOUS
10
26.5796
20
-27.7674
11
27.1546
21
-27.7674
0
LINE
8
BLACK
6
CONTINUOUS
10
27.1546
20
-27.7674
11
27.1546
21
-28.4174
0
LINE
8
BLACK
6
CONTINUOUS
10
44.6896
20
-28.0776
11
42.8896
21
-28.0776
0
LINE
8
BLACK
6
CONTINUOUS
10
42.8896
20
-28.0776
11
42.8896
21
-26.8576
0
LINE
8
BLACK
6
CONTINUOUS
10
42.8896
20
-26.8576
11
44.6896
21
-26.8576
0
LINE
8
BLACK
6
CONTINUOUS
10
44.6896
20
-26.8576
11
44.6896
21
-28.0776
0
LINE
8
BLACK
6
CONTINUOUS
10
32.6961
20
-28.0354
11
32.3961
21
-28.0354
0
LINE
8
BLACK
6
CONTINUOUS
10
32.3961
20
-28.0354
11
32.3961
21
-26.5354
0
LINE
8
BLACK
6
CONTINUOUS
10
32.3961
20
-26.5354
11
32.6961
21
-26.5354
0
LINE
8
BLACK
6
CONTINUOUS
10
32.6961
20
-26.5354
11
32.6961
21
-28.0354
0
LINE
8
BLACK
6
CONTINUOUS
10
33.1961
20
-28.0354
11
32.8961
21
-28.0354
0
LINE
8
BLACK
6
CONTINUOUS
10
32.8961
20
-28.0354
11
32.8961
21
-26.5354
0
LINE
8
BLACK
6
CONTINUOUS
10
32.8961
20
-26.5354
11
33.1961
21
-26.5354
0
LINE
8
BLACK
6
CONTINUOUS
10
33.1961
20
-26.5354
11
33.1961
21
-28.0354
0
LINE
8
BLACK
6
CONTINUOUS
10
33.6961
20
-28.0354
11
33.3961
21
-28.0354
0
LINE
8
BLACK
6
CONTINUOUS
10
33.3961
20
-28.0354
11
33.3961
21
-26.5354
0
LINE
8
BLACK
6
CONTINUOUS
10
33.3961
20
-26.5354
11
33.6961
21
-26.5354
0
LINE
8
BLACK
6
CONTINUOUS
10
33.6961
20
-26.5354
11
33.6961
21
-28.0354
0
LINE
8
BLACK
6
CONTINUOUS
10
34.1961
20
-28.0354
11
33.8961
21
-28.0354
0
LINE
8
BLACK
6
CONTINUOUS
10
33.8961
20
-28.0354
11
33.8961
21
-26.5354
0
LINE
8
BLACK
6
CONTINUOUS
10
33.8961
20
-26.5354
11
34.1961
21
-26.5354
0
LINE
8
BLACK
6
CONTINUOUS
10
34.1961
20
-26.5354
11
34.1961
21
-28.0354
0
LINE
8
BLACK
6
CONTINUOUS
10
34.6961
20
-28.0354
11
34.3961
21
-28.0354
0
LINE
8
BLACK
6
CONTINUOUS
10
34.3961
20
-28.0354
11
34.3961
21
-26.5354
0
LINE
8
BLACK
6
CONTINUOUS
10
34.3961
20
-26.5354
11
34.6961
21
-26.5354
0
LINE
8
BLACK
6
CONTINUOUS
10
34.6961
20
-26.5354
11
34.6961
21
-28.0354
0
LINE
8
BLACK
6
CONTINUOUS
10
35.1961
20
-28.0354
11
34.8961
21
-28.0354
0
LINE
8
BLACK
6
CONTINUOUS
10
34.8961
20
-28.0354
11
34.8961
21
-26.5354
0
LINE
8
BLACK
6
CONTINUOUS
10
34.8961
20
-26.5354
11
35.1961
21
-26.5354
0
LINE
8
BLACK
6
CONTINUOUS
10
35.1961
20
-26.5354
11
35.1961
21
-28.0354
0
LINE
8
BLACK
6
CONTINUOUS
10
35.6961
20
-28.0354
11
35.3961
21
-28.0354
0
LINE
8
BLACK
6
CONTINUOUS
10
35.3961
20
-28.0354
11
35.3961
21
-26.5354
0
LINE
8
BLACK
6
CONTINUOUS
10
35.3961
20
-26.5354
11
35.6961
21
-26.5354
0
LINE
8
BLACK
6
CONTINUOUS
10
35.6961
20
-26.5354
11
35.6961
21
-28.0354
0
LINE
8
BLACK
6
CONTINUOUS
10
36.1961
20
-28.0354
11
35.8961
21
-28.0354
0
LINE
8
BLACK
6
CONTINUOUS
10
35.8961
20
-28.0354
11
35.8961
21
-26.5354
0
LINE
8
BLACK
6
CONTINUOUS
10
35.8961
20
-26.5354
11
36.1961
21
-26.5354
0
LINE
8
BLACK
6
CONTINUOUS
10
36.1961
20
-26.5354
11
36.1961
21
-28.0354
0
LINE
8
BLACK
6
CONTINUOUS
10
36.6961
20
-28.0354
11
36.3961
21
-28.0354
0
LINE
8
BLACK
6
CONTINUOUS
10
36.3961
20
-28.0354
11
36.3961
21
-26.5354
0
LINE
8
BLACK
6
CONTINUOUS
10
36.3961
20
-26.5354
11
36.6961
21
-26.5354
0
LINE
8
BLACK
6
CONTINUOUS
10
36.6961
20
-26.5354
11
36.6961
21
-28.0354
0
LINE
8
BLACK
6
CONTINUOUS
10
37.1961
20
-28.0354
11
36.8961
21
-28.0354
0
LINE
8
BLACK
6
CONTINUOUS
10
36.8961
20
-28.0354
11
36.8961
21
-26.5354
0
LINE
8
BLACK
6
CONTINUOUS
10
36.8961
20
-26.5354
11
37.1961
21
-26.5354
0
LINE
8
BLACK
6
CONTINUOUS
10
37.1961
20
-26.5354
11
37.1961
21
-28.0354
0
LINE
8
BLACK
6
CONTINUOUS
10
38.1961
20
-28.0354
11
37.8961
21
-28.0354
0
LINE
8
BLACK
6
CONTINUOUS
10
37.8961
20
-28.0354
11
37.8961
21
-26.5354
0
LINE
8
BLACK
6
CONTINUOUS
10
37.8961
20
-26.5354
11
38.1961
21
-26.5354
0
LINE
8
BLACK
6
CONTINUOUS
10
38.1961
20
-26.5354
11
38.1961
21
-28.0354
0
LINE
8
BLACK
6
CONTINUOUS
10
37.6961
20
-28.0354
11
37.3961
21
-28.0354
0
LINE
8
BLACK
6
CONTINUOUS
10
37.3961
20
-28.0354
11
37.3961
21
-26.5354
0
LINE
8
BLACK
6
CONTINUOUS
10
37.3961
20
-26.5354
11
37.6961
21
-26.5354
0
LINE
8
BLACK
6
CONTINUOUS
10
37.6961
20
-26.5354
11
37.6961
21
-28.0354
0
LINE
8
BLACK
6
CONTINUOUS
10
33.684
20
-25.9
11
32.864
21
-25.9
0
LINE
8
BLACK
6
CONTINUOUS
10
32.864
20
-25.9
11
32.864
21
-24.9
0
LINE
8
BLACK
6
CONTINUOUS
10
32.864
20
-24.9
11
33.684
21
-24.9
0
LINE
8
BLACK
6
CONTINUOUS
10
33.684
20
-24.9
11
33.684
21
-25.9
0
LINE
8
BLACK
6
CONTINUOUS
10
32.084
20
-25.9
11
31.264
21
-25.9
0
LINE
8
BLACK
6
CONTINUOUS
10
31.264
20
-25.9
11
31.264
21
-24.9
0
LINE
8
BLACK
6
CONTINUOUS
10
31.264
20
-24.9
11
32.084
21
-24.9
0
LINE
8
BLACK
6
CONTINUOUS
10
32.084
20
-24.9
11
32.084
21
-25.9
0
LINE
8
BLACK
6
CONTINUOUS
10
96.0992
20
-25.7814
11
94.2992
21
-25.7814
0
LINE
8
BLACK
6
CONTINUOUS
10
94.2992
20
-25.7814
11
94.2992
21
-24.5614
0
LINE
8
BLACK
6
CONTINUOUS
10
94.2992
20
-24.5614
11
96.0992
21
-24.5614
0
LINE
8
BLACK
6
CONTINUOUS
10
96.0992
20
-24.5614
11
96.0992
21
-25.7814
0
LINE
8
BLACK
6
CONTINUOUS
10
69.353
20
-24.6536
11
67.553
21
-24.6536
0
LINE
8
BLACK
6
CONTINUOUS
10
67.553
20
-24.6536
11
67.553
21
-23.4336
0
LINE
8
BLACK
6
CONTINUOUS
10
67.553
20
-23.4336
11
69.353
21
-23.4336
0
LINE
8
BLACK
6
CONTINUOUS
10
69.353
20
-23.4336
11
69.353
21
-24.6536
0
LINE
8
BLACK
6
CONTINUOUS
10
80.783
20
-24.6282
11
78.983
21
-24.6282
0
LINE
8
BLACK
6
CONTINUOUS
10
78.983
20
-24.6282
11
78.983
21
-23.4082
0
LINE
8
BLACK
6
CONTINUOUS
10
78.983
20
-23.4082
11
80.783
21
-23.4082
0
LINE
8
BLACK
6
CONTINUOUS
10
80.783
20
-23.4082
11
80.783
21
-24.6282
0
LINE
8
BLACK
6
CONTINUOUS
10
32.0205
20
-24.249
11
31.2005
21
-24.249
0
LINE
8
BLACK
6
CONTINUOUS
10
31.2005
20
-24.249
11
31.2005
21
-23.249
0
LINE
8
BLACK
6
CONTINUOUS
10
31.2005
20
-23.249
11
32.0205
21
-23.249
0
LINE
8
BLACK
6
CONTINUOUS
10
32.0205
20
-23.249
11
32.0205
21
-24.249
0
LINE
8
BLACK
6
CONTINUOUS
10
33.6205
20
-24.249
11
32.8005
21
-24.249
0
LINE
8
BLACK
6
CONTINUOUS
10
32.8005
20
-24.249
11
32.8005
21
-23.249
0
LINE
8
BLACK
6
CONTINUOUS
10
32.8005
20
-23.249
11
33.6205
21
-23.249
0
LINE
8
BLACK
6
CONTINUOUS
10
33.6205
20
-23.249
11
33.6205
21
-24.249
0
LINE
8
BLACK
6
CONTINUOUS
10
38.2685
20
-24.249
11
37.4485
21
-24.249
0
LINE
8
BLACK
6
CONTINUOUS
10
37.4485
20
-24.249
11
37.4485
21
-23.249
0
LINE
8
BLACK
6
CONTINUOUS
10
37.4485
20
-23.249
11
38.2685
21
-23.249
0
LINE
8
BLACK
6
CONTINUOUS
10
38.2685
20
-23.249
11
38.2685
21
-24.249
0
LINE
8
BLACK
6
CONTINUOUS
10
36.6685
20
-24.249
11
35.8485
21
-24.249
0
LINE
8
BLACK
6
CONTINUOUS
10
35.8485
20
-24.249
11
35.8485
21
-23.249
0
LINE
8
BLACK
6
CONTINUOUS
10
35.8485
20
-23.249
11
36.6685
21
-23.249
0
LINE
8
BLACK
6
CONTINUOUS
10
36.6685
20
-23.249
11
36.6685
21
-24.249
0
LINE
8
BLACK
6
CONTINUOUS
10
28.7056
20
-24.2236
11
27.8856
21
-24.2236
0
LINE
8
BLACK
6
CONTINUOUS
10
27.8856
20
-24.2236
11
27.8856
21
-23.2236
0
LINE
8
BLACK
6
CONTINUOUS
10
27.8856
20
-23.2236
11
28.7056
21
-23.2236
0
LINE
8
BLACK
6
CONTINUOUS
10
28.7056
20
-23.2236
11
28.7056
21
-24.2236
0
LINE
8
BLACK
6
CONTINUOUS
10
30.3056
20
-24.2236
11
29.4856
21
-24.2236
0
LINE
8
BLACK
6
CONTINUOUS
10
29.4856
20
-24.2236
11
29.4856
21
-23.2236
0
LINE
8
BLACK
6
CONTINUOUS
10
29.4856
20
-23.2236
11
30.3056
21
-23.2236
0
LINE
8
BLACK
6
CONTINUOUS
10
30.3056
20
-23.2236
11
30.3056
21
-24.2236
0
LINE
8
BLACK
6
CONTINUOUS
10
41.0384
20
-23.6508
11
40.0384
21
-23.6508
0
LINE
8
BLACK
6
CONTINUOUS
10
40.0384
20
-23.6508
11
40.0384
21
-22.8308
0
LINE
8
BLACK
6
CONTINUOUS
10
40.0384
20
-22.8308
11
41.0384
21
-22.8308
0
LINE
8
BLACK
6
CONTINUOUS
10
41.0384
20
-22.8308
11
41.0384
21
-23.6508
0
LINE
8
BLACK
6
CONTINUOUS
10
41.0384
20
-22.0508
11
40.0384
21
-22.0508
0
LINE
8
BLACK
6
CONTINUOUS
10
40.0384
20
-22.0508
11
40.0384
21
-21.2308
0
LINE
8
BLACK
6
CONTINUOUS
10
40.0384
20
-21.2308
11
41.0384
21
-21.2308
0
LINE
8
BLACK
6
CONTINUOUS
10
41.0384
20
-21.2308
11
41.0384
21
-22.0508
0
LINE
8
BLACK
6
CONTINUOUS
10
69.353
20
-21.7936
11
67.553
21
-21.7936
0
LINE
8
BLACK
6
CONTINUOUS
10
67.553
20
-21.7936
11
67.553
21
-20.5736
0
LINE
8
BLACK
6
CONTINUOUS
10
67.553
20
-20.5736
11
69.353
21
-20.5736
0
LINE
8
BLACK
6
CONTINUOUS
10
69.353
20
-20.5736
11
69.353
21
-21.7936
0
LINE
8
BLACK
6
CONTINUOUS
10
80.783
20
-21.7682
11
78.983
21
-21.7682
0
LINE
8
BLACK
6
CONTINUOUS
10
78.983
20
-21.7682
11
78.983
21
-20.5482
0
LINE
8
BLACK
6
CONTINUOUS
10
78.983
20
-20.5482
11
80.783
21
-20.5482
0
LINE
8
BLACK
6
CONTINUOUS
10
80.783
20
-20.5482
11
80.783
21
-21.7682
  0
ENDSEC
  0
EOF
