%TF.GenerationSoftware,KiCad,Pcbnew,6.0.0-unknown-952108d~86~ubuntu19.04.1*%
%TF.CreationDate,2019-05-19T01:34:38-07:00*%
%TF.ProjectId,PrntrBoardV1,50726e74-7242-46f6-9172-6456312e6b69,rev?*%
%TF.SameCoordinates,PX1303eb8PY7093f24*%
%TF.FileFunction,Legend,Top*%
%TF.FilePolarity,Positive*%
%FSLAX46Y46*%
G04 Gerber Fmt 4.6, Leading zero omitted, Abs format (unit mm)*
G04 Created by KiCad (PCBNEW 6.0.0-unknown-952108d~86~ubuntu19.04.1) date 2019-05-19 01:34:38*
%MOMM*%
%LPD*%
G04 APERTURE LIST*
%ADD10C,0.200000*%
%ADD11C,0.150000*%
%ADD12C,0.300000*%
%ADD13C,0.250000*%
%ADD14C,0.100000*%
%ADD15C,0.120000*%
G04 APERTURE END LIST*
D10*
X12170523Y50794120D02*
X11694333Y50794120D01*
X11646714Y50317929D01*
X11694333Y50365548D01*
X11789571Y50413167D01*
X12027666Y50413167D01*
X12122904Y50365548D01*
X12170523Y50317929D01*
X12218142Y50222691D01*
X12218142Y49984596D01*
X12170523Y49889358D01*
X12122904Y49841739D01*
X12027666Y49794120D01*
X11789571Y49794120D01*
X11694333Y49841739D01*
X11646714Y49889358D01*
X12503857Y50794120D02*
X12837190Y49794120D01*
X13170523Y50794120D01*
D11*
X56250285Y2278643D02*
X57000285Y2528643D01*
X56250285Y2778643D01*
X57000285Y3028643D02*
X56500285Y3028643D01*
X56250285Y3028643D02*
X56286000Y2992929D01*
X56321714Y3028643D01*
X56286000Y3064358D01*
X56250285Y3028643D01*
X56321714Y3028643D01*
X56500285Y3385786D02*
X57000285Y3385786D01*
X56571714Y3385786D02*
X56536000Y3421500D01*
X56500285Y3492929D01*
X56500285Y3600072D01*
X56536000Y3671500D01*
X56607428Y3707215D01*
X57000285Y3707215D01*
X56250285Y5903643D02*
X56250285Y5546500D01*
X56607428Y5510786D01*
X56571714Y5546500D01*
X56536000Y5617929D01*
X56536000Y5796500D01*
X56571714Y5867929D01*
X56607428Y5903643D01*
X56678857Y5939358D01*
X56857428Y5939358D01*
X56928857Y5903643D01*
X56964571Y5867929D01*
X57000285Y5796500D01*
X57000285Y5617929D01*
X56964571Y5546500D01*
X56928857Y5510786D01*
X56250285Y6153643D02*
X57000285Y6403643D01*
X56250285Y6653643D01*
X27705285Y42779215D02*
X27705285Y42422072D01*
X26955285Y42422072D01*
X26955285Y42922072D02*
X27705285Y43172072D01*
X26955285Y43422072D01*
X27633857Y44100643D02*
X27669571Y44064929D01*
X27705285Y43957786D01*
X27705285Y43886358D01*
X27669571Y43779215D01*
X27598142Y43707786D01*
X27526714Y43672072D01*
X27383857Y43636358D01*
X27276714Y43636358D01*
X27133857Y43672072D01*
X27062428Y43707786D01*
X26991000Y43779215D01*
X26955285Y43886358D01*
X26955285Y43957786D01*
X26991000Y44064929D01*
X27026714Y44100643D01*
X28980285Y42743500D02*
X28980285Y42314929D01*
X28980285Y42529215D02*
X28230285Y42529215D01*
X28337428Y42457786D01*
X28408857Y42386358D01*
X28444571Y42314929D01*
X28301714Y43029215D02*
X28266000Y43064929D01*
X28230285Y43136358D01*
X28230285Y43314929D01*
X28266000Y43386358D01*
X28301714Y43422072D01*
X28373142Y43457786D01*
X28444571Y43457786D01*
X28551714Y43422072D01*
X28980285Y42993500D01*
X28980285Y43457786D01*
X28230285Y44136358D02*
X28230285Y43779215D01*
X28587428Y43743500D01*
X28551714Y43779215D01*
X28516000Y43850643D01*
X28516000Y44029215D01*
X28551714Y44100643D01*
X28587428Y44136358D01*
X28658857Y44172072D01*
X28837428Y44172072D01*
X28908857Y44136358D01*
X28944571Y44100643D01*
X28980285Y44029215D01*
X28980285Y43850643D01*
X28944571Y43779215D01*
X28908857Y43743500D01*
X40733285Y44410429D02*
X41233285Y44410429D01*
X40447571Y44231858D02*
X40983285Y44053286D01*
X40983285Y44517572D01*
X40483285Y44946143D02*
X40483285Y45017572D01*
X40519000Y45089000D01*
X40554714Y45124715D01*
X40626142Y45160429D01*
X40769000Y45196143D01*
X40947571Y45196143D01*
X41090428Y45160429D01*
X41161857Y45124715D01*
X41197571Y45089000D01*
X41233285Y45017572D01*
X41233285Y44946143D01*
X41197571Y44874715D01*
X41161857Y44839000D01*
X41090428Y44803286D01*
X40947571Y44767572D01*
X40769000Y44767572D01*
X40626142Y44803286D01*
X40554714Y44839000D01*
X40519000Y44874715D01*
X40483285Y44946143D01*
X40483285Y45446143D02*
X40483285Y45946143D01*
X41233285Y45624715D01*
X40804714Y46339000D02*
X40769000Y46267572D01*
X40733285Y46231858D01*
X40661857Y46196143D01*
X40626142Y46196143D01*
X40554714Y46231858D01*
X40519000Y46267572D01*
X40483285Y46339000D01*
X40483285Y46481858D01*
X40519000Y46553286D01*
X40554714Y46589000D01*
X40626142Y46624715D01*
X40661857Y46624715D01*
X40733285Y46589000D01*
X40769000Y46553286D01*
X40804714Y46481858D01*
X40804714Y46339000D01*
X40840428Y46267572D01*
X40876142Y46231858D01*
X40947571Y46196143D01*
X41090428Y46196143D01*
X41161857Y46231858D01*
X41197571Y46267572D01*
X41233285Y46339000D01*
X41233285Y46481858D01*
X41197571Y46553286D01*
X41161857Y46589000D01*
X41090428Y46624715D01*
X40947571Y46624715D01*
X40876142Y46589000D01*
X40840428Y46553286D01*
X40804714Y46481858D01*
X37169285Y30986215D02*
X36419285Y30986215D01*
X36776428Y30986215D02*
X36776428Y31414786D01*
X37169285Y31414786D02*
X36419285Y31414786D01*
X37097857Y32200500D02*
X37133571Y32164786D01*
X37169285Y32057643D01*
X37169285Y31986215D01*
X37133571Y31879072D01*
X37062142Y31807643D01*
X36990714Y31771929D01*
X36847857Y31736215D01*
X36740714Y31736215D01*
X36597857Y31771929D01*
X36526428Y31807643D01*
X36455000Y31879072D01*
X36419285Y31986215D01*
X36419285Y32057643D01*
X36455000Y32164786D01*
X36490714Y32200500D01*
X36419285Y32414786D02*
X36419285Y32843358D01*
X37169285Y32629072D02*
X36419285Y32629072D01*
X36419285Y33236215D02*
X36419285Y33307643D01*
X36455000Y33379072D01*
X36490714Y33414786D01*
X36562142Y33450500D01*
X36705000Y33486215D01*
X36883571Y33486215D01*
X37026428Y33450500D01*
X37097857Y33414786D01*
X37133571Y33379072D01*
X37169285Y33307643D01*
X37169285Y33236215D01*
X37133571Y33164786D01*
X37097857Y33129072D01*
X37026428Y33093358D01*
X36883571Y33057643D01*
X36705000Y33057643D01*
X36562142Y33093358D01*
X36490714Y33129072D01*
X36455000Y33164786D01*
X36419285Y33236215D01*
X36490714Y33771929D02*
X36455000Y33807643D01*
X36419285Y33879072D01*
X36419285Y34057643D01*
X36455000Y34129072D01*
X36490714Y34164786D01*
X36562142Y34200500D01*
X36633571Y34200500D01*
X36740714Y34164786D01*
X37169285Y33736215D01*
X37169285Y34200500D01*
D12*
X93999857Y88431429D02*
X93999857Y87288572D01*
X93428428Y87860000D02*
X94571285Y87860000D01*
X93999857Y85431429D02*
X93999857Y84288572D01*
D13*
X80965761Y81213167D02*
X80918142Y81260786D01*
X80822904Y81403643D01*
X80775285Y81498881D01*
X80727666Y81641739D01*
X80680047Y81879834D01*
X80680047Y82070310D01*
X80727666Y82308405D01*
X80775285Y82451262D01*
X80822904Y82546500D01*
X80918142Y82689358D01*
X80965761Y82736977D01*
X81870523Y81594120D02*
X81299095Y81594120D01*
X81584809Y81594120D02*
X81584809Y82594120D01*
X81489571Y82451262D01*
X81394333Y82356024D01*
X81299095Y82308405D01*
X82251476Y82498881D02*
X82299095Y82546500D01*
X82394333Y82594120D01*
X82632428Y82594120D01*
X82727666Y82546500D01*
X82775285Y82498881D01*
X82822904Y82403643D01*
X82822904Y82308405D01*
X82775285Y82165548D01*
X82203857Y81594120D01*
X82822904Y81594120D01*
X83251476Y81975072D02*
X84013380Y81975072D01*
X84441952Y82498881D02*
X84489571Y82546500D01*
X84584809Y82594120D01*
X84822904Y82594120D01*
X84918142Y82546500D01*
X84965761Y82498881D01*
X85013380Y82403643D01*
X85013380Y82308405D01*
X84965761Y82165548D01*
X84394333Y81594120D01*
X85013380Y81594120D01*
X85870523Y82260786D02*
X85870523Y81594120D01*
X85632428Y82641739D02*
X85394333Y81927453D01*
X86013380Y81927453D01*
X86251476Y82594120D02*
X86584809Y81594120D01*
X86918142Y82594120D01*
X87156238Y81213167D02*
X87203857Y81260786D01*
X87299095Y81403643D01*
X87346714Y81498881D01*
X87394333Y81641739D01*
X87441952Y81879834D01*
X87441952Y82070310D01*
X87394333Y82308405D01*
X87346714Y82451262D01*
X87299095Y82546500D01*
X87203857Y82689358D01*
X87156238Y82736977D01*
D12*
X97139571Y73510786D02*
X98639571Y74010786D01*
X97139571Y74510786D01*
X98639571Y75010786D02*
X97639571Y75010786D01*
X97139571Y75010786D02*
X97211000Y74939358D01*
X97282428Y75010786D01*
X97211000Y75082215D01*
X97139571Y75010786D01*
X97282428Y75010786D01*
X97639571Y75725072D02*
X98639571Y75725072D01*
X97782428Y75725072D02*
X97711000Y75796500D01*
X97639571Y75939358D01*
X97639571Y76153643D01*
X97711000Y76296500D01*
X97853857Y76367929D01*
X98639571Y76367929D01*
X93936357Y82081429D02*
X93936357Y80938572D01*
X93364928Y81510000D02*
X94507785Y81510000D01*
X93936357Y79081429D02*
X93936357Y77938572D01*
X96675285Y91267929D02*
X95961000Y91267929D01*
X95889571Y90553643D01*
X95961000Y90625072D01*
X96103857Y90696500D01*
X96461000Y90696500D01*
X96603857Y90625072D01*
X96675285Y90553643D01*
X96746714Y90410786D01*
X96746714Y90053643D01*
X96675285Y89910786D01*
X96603857Y89839358D01*
X96461000Y89767929D01*
X96103857Y89767929D01*
X95961000Y89839358D01*
X95889571Y89910786D01*
X97175285Y91267929D02*
X97675285Y89767929D01*
X98175285Y91267929D01*
X46703857Y71367929D02*
X46703857Y70225072D01*
X46132428Y70796500D02*
X47275285Y70796500D01*
X46703857Y68367929D02*
X46703857Y67225072D01*
X49025285Y74367929D02*
X48311000Y74367929D01*
X48239571Y73653643D01*
X48311000Y73725072D01*
X48453857Y73796500D01*
X48811000Y73796500D01*
X48953857Y73725072D01*
X49025285Y73653643D01*
X49096714Y73510786D01*
X49096714Y73153643D01*
X49025285Y73010786D01*
X48953857Y72939358D01*
X48811000Y72867929D01*
X48453857Y72867929D01*
X48311000Y72939358D01*
X48239571Y73010786D01*
X49525285Y74367929D02*
X50025285Y72867929D01*
X50525285Y74367929D01*
X42703857Y61617929D02*
X42703857Y60475072D01*
X42132428Y61046500D02*
X43275285Y61046500D01*
X42703857Y58617929D02*
X42703857Y57475072D01*
X39989571Y58260786D02*
X41489571Y58760786D01*
X39989571Y59260786D01*
X41489571Y59760786D02*
X40489571Y59760786D01*
X39989571Y59760786D02*
X40061000Y59689358D01*
X40132428Y59760786D01*
X40061000Y59832215D01*
X39989571Y59760786D01*
X40132428Y59760786D01*
X40489571Y60475072D02*
X41489571Y60475072D01*
X40632428Y60475072D02*
X40561000Y60546500D01*
X40489571Y60689358D01*
X40489571Y60903643D01*
X40561000Y61046500D01*
X40703857Y61117929D01*
X41489571Y61117929D01*
X70039571Y81667929D02*
X70039571Y83167929D01*
X70039571Y82453643D02*
X70896714Y82453643D01*
X70896714Y81667929D02*
X70896714Y83167929D01*
X71611000Y82453643D02*
X72111000Y82453643D01*
X72325285Y81667929D02*
X71611000Y81667929D01*
X71611000Y83167929D01*
X72325285Y83167929D01*
X72896714Y82096500D02*
X73611000Y82096500D01*
X72753857Y81667929D02*
X73253857Y83167929D01*
X73753857Y81667929D01*
X74039571Y83167929D02*
X74896714Y83167929D01*
X74468142Y81667929D02*
X74468142Y83167929D01*
D11*
X53864333Y64746120D02*
X54435761Y64746120D01*
X54150047Y63746120D02*
X54150047Y64746120D01*
X55340523Y63841358D02*
X55292904Y63793739D01*
X55150047Y63746120D01*
X55054809Y63746120D01*
X54911952Y63793739D01*
X54816714Y63888977D01*
X54769095Y63984215D01*
X54721476Y64174691D01*
X54721476Y64317548D01*
X54769095Y64508024D01*
X54816714Y64603262D01*
X54911952Y64698500D01*
X55054809Y64746120D01*
X55150047Y64746120D01*
X55292904Y64698500D01*
X55340523Y64650881D01*
X56531000Y64269929D02*
X56864333Y64269929D01*
X57007190Y63746120D02*
X56531000Y63746120D01*
X56531000Y64746120D01*
X57007190Y64746120D01*
X57435761Y64412786D02*
X57435761Y63746120D01*
X57435761Y64317548D02*
X57483380Y64365167D01*
X57578619Y64412786D01*
X57721476Y64412786D01*
X57816714Y64365167D01*
X57864333Y64269929D01*
X57864333Y63746120D01*
X58769095Y63746120D02*
X58769095Y64269929D01*
X58721476Y64365167D01*
X58626238Y64412786D01*
X58435761Y64412786D01*
X58340523Y64365167D01*
X58769095Y63793739D02*
X58673857Y63746120D01*
X58435761Y63746120D01*
X58340523Y63793739D01*
X58292904Y63888977D01*
X58292904Y63984215D01*
X58340523Y64079453D01*
X58435761Y64127072D01*
X58673857Y64127072D01*
X58769095Y64174691D01*
X59245285Y63746120D02*
X59245285Y64746120D01*
X59245285Y64365167D02*
X59340523Y64412786D01*
X59531000Y64412786D01*
X59626238Y64365167D01*
X59673857Y64317548D01*
X59721476Y64222310D01*
X59721476Y63936596D01*
X59673857Y63841358D01*
X59626238Y63793739D01*
X59531000Y63746120D01*
X59340523Y63746120D01*
X59245285Y63793739D01*
X60292904Y63746120D02*
X60197666Y63793739D01*
X60150047Y63888977D01*
X60150047Y64746120D01*
X61054809Y63793739D02*
X60959571Y63746120D01*
X60769095Y63746120D01*
X60673857Y63793739D01*
X60626238Y63888977D01*
X60626238Y64269929D01*
X60673857Y64365167D01*
X60769095Y64412786D01*
X60959571Y64412786D01*
X61054809Y64365167D01*
X61102428Y64269929D01*
X61102428Y64174691D01*
X60626238Y64079453D01*
X61715761Y76669120D02*
X62287190Y76669120D01*
X62001476Y75669120D02*
X62001476Y76669120D01*
X62620523Y75669120D02*
X62620523Y76669120D01*
X63049095Y75669120D02*
X63049095Y76192929D01*
X63001476Y76288167D01*
X62906238Y76335786D01*
X62763380Y76335786D01*
X62668142Y76288167D01*
X62620523Y76240548D01*
X63906238Y75716739D02*
X63811000Y75669120D01*
X63620523Y75669120D01*
X63525285Y75716739D01*
X63477666Y75811977D01*
X63477666Y76192929D01*
X63525285Y76288167D01*
X63620523Y76335786D01*
X63811000Y76335786D01*
X63906238Y76288167D01*
X63953857Y76192929D01*
X63953857Y76097691D01*
X63477666Y76002453D01*
X64382428Y75669120D02*
X64382428Y76335786D01*
X64382428Y76145310D02*
X64430047Y76240548D01*
X64477666Y76288167D01*
X64572904Y76335786D01*
X64668142Y76335786D01*
X65001476Y75669120D02*
X65001476Y76335786D01*
X65001476Y76240548D02*
X65049095Y76288167D01*
X65144333Y76335786D01*
X65287190Y76335786D01*
X65382428Y76288167D01*
X65430047Y76192929D01*
X65430047Y75669120D01*
X65430047Y76192929D02*
X65477666Y76288167D01*
X65572904Y76335786D01*
X65715761Y76335786D01*
X65811000Y76288167D01*
X65858619Y76192929D01*
X65858619Y75669120D01*
X66477666Y75669120D02*
X66382428Y75716739D01*
X66334809Y75764358D01*
X66287190Y75859596D01*
X66287190Y76145310D01*
X66334809Y76240548D01*
X66382428Y76288167D01*
X66477666Y76335786D01*
X66620523Y76335786D01*
X66715761Y76288167D01*
X66763380Y76240548D01*
X66811000Y76145310D01*
X66811000Y75859596D01*
X66763380Y75764358D01*
X66715761Y75716739D01*
X66620523Y75669120D01*
X66477666Y75669120D01*
X62096714Y74066739D02*
X62001476Y74019120D01*
X61811000Y74019120D01*
X61715761Y74066739D01*
X61668142Y74114358D01*
X61620523Y74209596D01*
X61620523Y74495310D01*
X61668142Y74590548D01*
X61715761Y74638167D01*
X61811000Y74685786D01*
X62001476Y74685786D01*
X62096714Y74638167D01*
X62668142Y74019120D02*
X62572904Y74066739D01*
X62525285Y74114358D01*
X62477666Y74209596D01*
X62477666Y74495310D01*
X62525285Y74590548D01*
X62572904Y74638167D01*
X62668142Y74685786D01*
X62811000Y74685786D01*
X62906238Y74638167D01*
X62953857Y74590548D01*
X63001476Y74495310D01*
X63001476Y74209596D01*
X62953857Y74114358D01*
X62906238Y74066739D01*
X62811000Y74019120D01*
X62668142Y74019120D01*
X63858619Y74685786D02*
X63858619Y74019120D01*
X63430047Y74685786D02*
X63430047Y74161977D01*
X63477666Y74066739D01*
X63572904Y74019120D01*
X63715761Y74019120D01*
X63811000Y74066739D01*
X63858619Y74114358D01*
X64334809Y74685786D02*
X64334809Y73685786D01*
X64334809Y74638167D02*
X64430047Y74685786D01*
X64620523Y74685786D01*
X64715761Y74638167D01*
X64763380Y74590548D01*
X64810999Y74495310D01*
X64810999Y74209596D01*
X64763380Y74114358D01*
X64715761Y74066739D01*
X64620523Y74019120D01*
X64430047Y74019120D01*
X64334809Y74066739D01*
X65382428Y74019120D02*
X65287190Y74066739D01*
X65239571Y74161977D01*
X65239571Y75019120D01*
X66144333Y74066739D02*
X66049095Y74019120D01*
X65858619Y74019120D01*
X65763380Y74066739D01*
X65715761Y74161977D01*
X65715761Y74542929D01*
X65763380Y74638167D01*
X65858619Y74685786D01*
X66049095Y74685786D01*
X66144333Y74638167D01*
X66191952Y74542929D01*
X66191952Y74447691D01*
X65715761Y74352453D01*
X66572904Y74066739D02*
X66668142Y74019120D01*
X66858619Y74019120D01*
X66953857Y74066739D01*
X67001476Y74161977D01*
X67001476Y74209596D01*
X66953857Y74304834D01*
X66858619Y74352453D01*
X66715761Y74352453D01*
X66620523Y74400072D01*
X66572904Y74495310D01*
X66572904Y74542929D01*
X66620523Y74638167D01*
X66715761Y74685786D01*
X66858619Y74685786D01*
X66953857Y74638167D01*
X50451476Y58919120D02*
X50356238Y58966739D01*
X50308619Y59014358D01*
X50261000Y59109596D01*
X50261000Y59395310D01*
X50308619Y59490548D01*
X50356238Y59538167D01*
X50451476Y59585786D01*
X50594333Y59585786D01*
X50689571Y59538167D01*
X50737190Y59490548D01*
X50784809Y59395310D01*
X50784809Y59109596D01*
X50737190Y59014358D01*
X50689571Y58966739D01*
X50594333Y58919120D01*
X50451476Y58919120D01*
X51070523Y59585786D02*
X51451476Y59585786D01*
X51213380Y58919120D02*
X51213380Y59776262D01*
X51261000Y59871500D01*
X51356238Y59919120D01*
X51451476Y59919120D01*
X51641952Y59585786D02*
X52022904Y59585786D01*
X51784809Y58919120D02*
X51784809Y59776262D01*
X51832428Y59871500D01*
X51927666Y59919120D01*
X52022904Y59919120D01*
X54022904Y58919120D02*
X53927666Y58966739D01*
X53880047Y59014358D01*
X53832428Y59109596D01*
X53832428Y59395310D01*
X53880047Y59490548D01*
X53927666Y59538167D01*
X54022904Y59585786D01*
X54165761Y59585786D01*
X54261000Y59538167D01*
X54308619Y59490548D01*
X54356238Y59395310D01*
X54356238Y59109596D01*
X54308619Y59014358D01*
X54261000Y58966739D01*
X54165761Y58919120D01*
X54022904Y58919120D01*
X54784809Y59585786D02*
X54784809Y58919120D01*
X54784809Y59490548D02*
X54832428Y59538167D01*
X54927666Y59585786D01*
X55070523Y59585786D01*
X55165761Y59538167D01*
X55213380Y59442929D01*
X55213380Y58919120D01*
X51499095Y58269120D02*
X52070523Y58269120D01*
X51784809Y57269120D02*
X51784809Y58269120D01*
X52975285Y57364358D02*
X52927666Y57316739D01*
X52784809Y57269120D01*
X52689571Y57269120D01*
X52546714Y57316739D01*
X52451476Y57411977D01*
X52403857Y57507215D01*
X52356238Y57697691D01*
X52356238Y57840548D01*
X52403857Y58031024D01*
X52451476Y58126262D01*
X52546714Y58221500D01*
X52689571Y58269120D01*
X52784809Y58269120D01*
X52927666Y58221500D01*
X52975285Y58173881D01*
X53927666Y57269120D02*
X53356238Y57269120D01*
X53641952Y57269120D02*
X53641952Y58269120D01*
X53546714Y58126262D01*
X53451476Y58031024D01*
X53356238Y57983405D01*
X60151476Y59019120D02*
X60056238Y59066739D01*
X60008619Y59114358D01*
X59961000Y59209596D01*
X59961000Y59495310D01*
X60008619Y59590548D01*
X60056238Y59638167D01*
X60151476Y59685786D01*
X60294333Y59685786D01*
X60389571Y59638167D01*
X60437190Y59590548D01*
X60484809Y59495310D01*
X60484809Y59209596D01*
X60437190Y59114358D01*
X60389571Y59066739D01*
X60294333Y59019120D01*
X60151476Y59019120D01*
X60770523Y59685786D02*
X61151476Y59685786D01*
X60913380Y59019120D02*
X60913380Y59876262D01*
X60961000Y59971500D01*
X61056238Y60019120D01*
X61151476Y60019120D01*
X61341952Y59685786D02*
X61722904Y59685786D01*
X61484809Y59019120D02*
X61484809Y59876262D01*
X61532428Y59971500D01*
X61627666Y60019120D01*
X61722904Y60019120D01*
X63722904Y59019120D02*
X63627666Y59066739D01*
X63580047Y59114358D01*
X63532428Y59209596D01*
X63532428Y59495310D01*
X63580047Y59590548D01*
X63627666Y59638167D01*
X63722904Y59685786D01*
X63865761Y59685786D01*
X63961000Y59638167D01*
X64008619Y59590548D01*
X64056238Y59495310D01*
X64056238Y59209596D01*
X64008619Y59114358D01*
X63961000Y59066739D01*
X63865761Y59019120D01*
X63722904Y59019120D01*
X64484809Y59685786D02*
X64484809Y59019120D01*
X64484809Y59590548D02*
X64532428Y59638167D01*
X64627666Y59685786D01*
X64770523Y59685786D01*
X64865761Y59638167D01*
X64913380Y59542929D01*
X64913380Y59019120D01*
X61199095Y58369120D02*
X61770523Y58369120D01*
X61484809Y57369120D02*
X61484809Y58369120D01*
X62675285Y57464358D02*
X62627666Y57416739D01*
X62484809Y57369120D01*
X62389571Y57369120D01*
X62246714Y57416739D01*
X62151476Y57511977D01*
X62103857Y57607215D01*
X62056238Y57797691D01*
X62056238Y57940548D01*
X62103857Y58131024D01*
X62151476Y58226262D01*
X62246714Y58321500D01*
X62389571Y58369120D01*
X62484809Y58369120D01*
X62627666Y58321500D01*
X62675285Y58273881D01*
X63056238Y58273881D02*
X63103857Y58321500D01*
X63199095Y58369120D01*
X63437190Y58369120D01*
X63532428Y58321500D01*
X63580047Y58273881D01*
X63627666Y58178643D01*
X63627666Y58083405D01*
X63580047Y57940548D01*
X63008619Y57369120D01*
X63627666Y57369120D01*
D12*
X69168142Y68367929D02*
X70025285Y68367929D01*
X69596714Y66867929D02*
X69596714Y68367929D01*
X71382428Y67010786D02*
X71311000Y66939358D01*
X71096714Y66867929D01*
X70953857Y66867929D01*
X70739571Y66939358D01*
X70596714Y67082215D01*
X70525285Y67225072D01*
X70453857Y67510786D01*
X70453857Y67725072D01*
X70525285Y68010786D01*
X70596714Y68153643D01*
X70739571Y68296500D01*
X70953857Y68367929D01*
X71096714Y68367929D01*
X71311000Y68296500D01*
X71382428Y68225072D01*
X71953857Y68225072D02*
X72025285Y68296500D01*
X72168142Y68367929D01*
X72525285Y68367929D01*
X72668142Y68296500D01*
X72739571Y68225072D01*
X72811000Y68082215D01*
X72811000Y67939358D01*
X72739571Y67725072D01*
X71882428Y66867929D01*
X72811000Y66867929D01*
X69168142Y71367929D02*
X70025285Y71367929D01*
X69596714Y69867929D02*
X69596714Y71367929D01*
X71382428Y70010786D02*
X71311000Y69939358D01*
X71096714Y69867929D01*
X70953857Y69867929D01*
X70739571Y69939358D01*
X70596714Y70082215D01*
X70525285Y70225072D01*
X70453857Y70510786D01*
X70453857Y70725072D01*
X70525285Y71010786D01*
X70596714Y71153643D01*
X70739571Y71296500D01*
X70953857Y71367929D01*
X71096714Y71367929D01*
X71311000Y71296500D01*
X71382428Y71225072D01*
X72811000Y69867929D02*
X71953857Y69867929D01*
X72382428Y69867929D02*
X72382428Y71367929D01*
X72239571Y71153643D01*
X72096714Y71010786D01*
X71953857Y70939358D01*
D10*
X32639571Y53082215D02*
X33039571Y53082215D01*
X33211000Y52453643D02*
X32639571Y52453643D01*
X32639571Y53653643D01*
X33211000Y53653643D01*
X33725285Y53253643D02*
X33725285Y52453643D01*
X33725285Y53139358D02*
X33782428Y53196500D01*
X33896714Y53253643D01*
X34068142Y53253643D01*
X34182428Y53196500D01*
X34239571Y53082215D01*
X34239571Y52453643D01*
X35325285Y52453643D02*
X35325285Y53653643D01*
X35325285Y52510786D02*
X35211000Y52453643D01*
X34982428Y52453643D01*
X34868142Y52510786D01*
X34811000Y52567929D01*
X34753857Y52682215D01*
X34753857Y53025072D01*
X34811000Y53139358D01*
X34868142Y53196500D01*
X34982428Y53253643D01*
X35211000Y53253643D01*
X35325285Y53196500D01*
X36753857Y52510786D02*
X36925285Y52453643D01*
X37211000Y52453643D01*
X37325285Y52510786D01*
X37382428Y52567929D01*
X37439571Y52682215D01*
X37439571Y52796500D01*
X37382428Y52910786D01*
X37325285Y52967929D01*
X37211000Y53025072D01*
X36982428Y53082215D01*
X36868142Y53139358D01*
X36811000Y53196500D01*
X36753857Y53310786D01*
X36753857Y53425072D01*
X36811000Y53539358D01*
X36868142Y53596500D01*
X36982428Y53653643D01*
X37268142Y53653643D01*
X37439571Y53596500D01*
X37782428Y53253643D02*
X38239571Y53253643D01*
X37953857Y53653643D02*
X37953857Y52625072D01*
X38011000Y52510786D01*
X38125285Y52453643D01*
X38239571Y52453643D01*
X38811000Y52453643D02*
X38696714Y52510786D01*
X38639571Y52567929D01*
X38582428Y52682215D01*
X38582428Y53025072D01*
X38639571Y53139358D01*
X38696714Y53196500D01*
X38811000Y53253643D01*
X38982428Y53253643D01*
X39096714Y53196500D01*
X39153857Y53139358D01*
X39211000Y53025072D01*
X39211000Y52682215D01*
X39153857Y52567929D01*
X39096714Y52510786D01*
X38982428Y52453643D01*
X38811000Y52453643D01*
X39725285Y53253643D02*
X39725285Y52053643D01*
X39725285Y53196500D02*
X39839571Y53253643D01*
X40068142Y53253643D01*
X40182428Y53196500D01*
X40239571Y53139358D01*
X40296714Y53025072D01*
X40296714Y52682215D01*
X40239571Y52567929D01*
X40182428Y52510786D01*
X40068142Y52453643D01*
X39839571Y52453643D01*
X39725285Y52510786D01*
X40753857Y52510786D02*
X40868142Y52453643D01*
X41096714Y52453643D01*
X41211000Y52510786D01*
X41268142Y52625072D01*
X41268142Y52682215D01*
X41211000Y52796500D01*
X41096714Y52853643D01*
X40925285Y52853643D01*
X40811000Y52910786D01*
X40753857Y53025072D01*
X40753857Y53082215D01*
X40811000Y53196500D01*
X40925285Y53253643D01*
X41096714Y53253643D01*
X41211000Y53196500D01*
X41782428Y52910786D02*
X42696714Y52910786D01*
X43268142Y53253643D02*
X44182428Y52910786D01*
X43268142Y52567929D01*
D12*
X20218142Y36653643D02*
X20218142Y36153643D01*
X19432428Y35939358D02*
X19432428Y36653643D01*
X20932428Y36653643D01*
X20932428Y35939358D01*
X20432428Y35296500D02*
X19432428Y35296500D01*
X20289571Y35296500D02*
X20361000Y35225072D01*
X20432428Y35082215D01*
X20432428Y34867929D01*
X20361000Y34725072D01*
X20218142Y34653643D01*
X19432428Y34653643D01*
X19432428Y33296500D02*
X20932428Y33296500D01*
X19503857Y33296500D02*
X19432428Y33439358D01*
X19432428Y33725072D01*
X19503857Y33867929D01*
X19575285Y33939358D01*
X19718142Y34010786D01*
X20146714Y34010786D01*
X20289571Y33939358D01*
X20361000Y33867929D01*
X20432428Y33725072D01*
X20432428Y33439358D01*
X20361000Y33296500D01*
X19503857Y31510786D02*
X19432428Y31296500D01*
X19432428Y30939358D01*
X19503857Y30796500D01*
X19575285Y30725072D01*
X19718142Y30653643D01*
X19861000Y30653643D01*
X20003857Y30725072D01*
X20075285Y30796500D01*
X20146714Y30939358D01*
X20218142Y31225072D01*
X20289571Y31367929D01*
X20361000Y31439358D01*
X20503857Y31510786D01*
X20646714Y31510786D01*
X20789571Y31439358D01*
X20861000Y31367929D01*
X20932428Y31225072D01*
X20932428Y30867929D01*
X20861000Y30653643D01*
X20432428Y30225072D02*
X20432428Y29653643D01*
X20932428Y30010786D02*
X19646714Y30010786D01*
X19503857Y29939358D01*
X19432428Y29796500D01*
X19432428Y29653643D01*
X19432428Y28939358D02*
X19503857Y29082215D01*
X19575285Y29153643D01*
X19718142Y29225072D01*
X20146714Y29225072D01*
X20289571Y29153643D01*
X20361000Y29082215D01*
X20432428Y28939358D01*
X20432428Y28725072D01*
X20361000Y28582215D01*
X20289571Y28510786D01*
X20146714Y28439358D01*
X19718142Y28439358D01*
X19575285Y28510786D01*
X19503857Y28582215D01*
X19432428Y28725072D01*
X19432428Y28939358D01*
X20432428Y27796500D02*
X18932428Y27796500D01*
X20361000Y27796500D02*
X20432428Y27653643D01*
X20432428Y27367929D01*
X20361000Y27225072D01*
X20289571Y27153643D01*
X20146714Y27082215D01*
X19718142Y27082215D01*
X19575285Y27153643D01*
X19503857Y27225072D01*
X19432428Y27367929D01*
X19432428Y27653643D01*
X19503857Y27796500D01*
X19503857Y26510786D02*
X19432428Y26367929D01*
X19432428Y26082215D01*
X19503857Y25939358D01*
X19646714Y25867929D01*
X19718142Y25867929D01*
X19861000Y25939358D01*
X19932428Y26082215D01*
X19932428Y26296500D01*
X20003857Y26439358D01*
X20146714Y26510786D01*
X20218142Y26510786D01*
X20361000Y26439358D01*
X20432428Y26296500D01*
X20432428Y26082215D01*
X20361000Y25939358D01*
X48962571Y15613858D02*
X48962571Y16471000D01*
X50462571Y16042429D02*
X48962571Y16042429D01*
X50462571Y16971000D02*
X48962571Y16971000D01*
X50462571Y17613858D02*
X49676857Y17613858D01*
X49534000Y17542429D01*
X49462571Y17399572D01*
X49462571Y17185286D01*
X49534000Y17042429D01*
X49605428Y16971000D01*
X50391142Y18899572D02*
X50462571Y18756715D01*
X50462571Y18471000D01*
X50391142Y18328143D01*
X50248285Y18256715D01*
X49676857Y18256715D01*
X49534000Y18328143D01*
X49462571Y18471000D01*
X49462571Y18756715D01*
X49534000Y18899572D01*
X49676857Y18971000D01*
X49819714Y18971000D01*
X49962571Y18256715D01*
X50462571Y19613858D02*
X49462571Y19613858D01*
X49748285Y19613858D02*
X49605428Y19685286D01*
X49534000Y19756715D01*
X49462571Y19899572D01*
X49462571Y20042429D01*
X50462571Y20542429D02*
X49462571Y20542429D01*
X49605428Y20542429D02*
X49534000Y20613858D01*
X49462571Y20756715D01*
X49462571Y20971000D01*
X49534000Y21113858D01*
X49676857Y21185286D01*
X50462571Y21185286D01*
X49676857Y21185286D02*
X49534000Y21256715D01*
X49462571Y21399572D01*
X49462571Y21613858D01*
X49534000Y21756715D01*
X49676857Y21828143D01*
X50462571Y21828143D01*
X50462571Y22542429D02*
X49462571Y22542429D01*
X48962571Y22542429D02*
X49034000Y22471000D01*
X49105428Y22542429D01*
X49034000Y22613858D01*
X48962571Y22542429D01*
X49105428Y22542429D01*
X50391142Y23185286D02*
X50462571Y23328143D01*
X50462571Y23613858D01*
X50391142Y23756715D01*
X50248285Y23828143D01*
X50176857Y23828143D01*
X50034000Y23756715D01*
X49962571Y23613858D01*
X49962571Y23399572D01*
X49891142Y23256715D01*
X49748285Y23185286D01*
X49676857Y23185286D01*
X49534000Y23256715D01*
X49462571Y23399572D01*
X49462571Y23613858D01*
X49534000Y23756715D01*
X49462571Y24256715D02*
X49462571Y24828143D01*
X48962571Y24471000D02*
X50248285Y24471000D01*
X50391142Y24542429D01*
X50462571Y24685286D01*
X50462571Y24828143D01*
X50462571Y25542429D02*
X50391142Y25399572D01*
X50319714Y25328143D01*
X50176857Y25256715D01*
X49748285Y25256715D01*
X49605428Y25328143D01*
X49534000Y25399572D01*
X49462571Y25542429D01*
X49462571Y25756715D01*
X49534000Y25899572D01*
X49605428Y25971000D01*
X49748285Y26042429D01*
X50176857Y26042429D01*
X50319714Y25971000D01*
X50391142Y25899572D01*
X50462571Y25756715D01*
X50462571Y25542429D01*
X50462571Y26685286D02*
X49462571Y26685286D01*
X49748285Y26685286D02*
X49605428Y26756715D01*
X49534000Y26828143D01*
X49462571Y26971000D01*
X49462571Y27113858D01*
X50391142Y27542429D02*
X50462571Y27685286D01*
X50462571Y27971000D01*
X50391142Y28113858D01*
X50248285Y28185286D01*
X50176857Y28185286D01*
X50034000Y28113858D01*
X49962571Y27971000D01*
X49962571Y27756715D01*
X49891142Y27613858D01*
X49748285Y27542429D01*
X49676857Y27542429D01*
X49534000Y27613858D01*
X49462571Y27756715D01*
X49462571Y27971000D01*
X49534000Y28113858D01*
X24639571Y23410786D02*
X24639571Y22696500D01*
X23139571Y22696500D01*
X24496714Y24767929D02*
X24568142Y24696500D01*
X24639571Y24482215D01*
X24639571Y24339358D01*
X24568142Y24125072D01*
X24425285Y23982215D01*
X24282428Y23910786D01*
X23996714Y23839358D01*
X23782428Y23839358D01*
X23496714Y23910786D01*
X23353857Y23982215D01*
X23211000Y24125072D01*
X23139571Y24339358D01*
X23139571Y24482215D01*
X23211000Y24696500D01*
X23282428Y24767929D01*
X24639571Y25410786D02*
X23139571Y25410786D01*
X23139571Y25767929D01*
X23211000Y25982215D01*
X23353857Y26125072D01*
X23496714Y26196500D01*
X23782428Y26267929D01*
X23996714Y26267929D01*
X24282428Y26196500D01*
X24425285Y26125072D01*
X24568142Y25982215D01*
X24639571Y25767929D01*
X24639571Y25410786D01*
X11650285Y84817929D02*
X10936000Y84817929D01*
X10864571Y84103643D01*
X10936000Y84175072D01*
X11078857Y84246500D01*
X11436000Y84246500D01*
X11578857Y84175072D01*
X11650285Y84103643D01*
X11721714Y83960786D01*
X11721714Y83603643D01*
X11650285Y83460786D01*
X11578857Y83389358D01*
X11436000Y83317929D01*
X11078857Y83317929D01*
X10936000Y83389358D01*
X10864571Y83460786D01*
X12150285Y84817929D02*
X12650285Y83317929D01*
X13150285Y84817929D01*
D10*
X11537190Y52294120D02*
X11870523Y51294120D01*
X12203857Y52294120D01*
X12537190Y51294120D02*
X12537190Y51960786D01*
X12537190Y52294120D02*
X12489571Y52246500D01*
X12537190Y52198881D01*
X12584809Y52246500D01*
X12537190Y52294120D01*
X12537190Y52198881D01*
X13013380Y51960786D02*
X13013380Y51294120D01*
X13013380Y51865548D02*
X13061000Y51913167D01*
X13156238Y51960786D01*
X13299095Y51960786D01*
X13394333Y51913167D01*
X13441952Y51817929D01*
X13441952Y51294120D01*
X11584809Y49294120D02*
X12203857Y49294120D01*
X11870523Y48913167D01*
X12013380Y48913167D01*
X12108619Y48865548D01*
X12156238Y48817929D01*
X12203857Y48722691D01*
X12203857Y48484596D01*
X12156238Y48389358D01*
X12108619Y48341739D01*
X12013380Y48294120D01*
X11727666Y48294120D01*
X11632428Y48341739D01*
X11584809Y48389358D01*
X12632428Y48389358D02*
X12680047Y48341739D01*
X12632428Y48294120D01*
X12584809Y48341739D01*
X12632428Y48389358D01*
X12632428Y48294120D01*
X13013380Y49294120D02*
X13632428Y49294120D01*
X13299095Y48913167D01*
X13441952Y48913167D01*
X13537190Y48865548D01*
X13584809Y48817929D01*
X13632428Y48722691D01*
X13632428Y48484596D01*
X13584809Y48389358D01*
X13537190Y48341739D01*
X13441952Y48294120D01*
X13156238Y48294120D01*
X13061000Y48341739D01*
X13013380Y48389358D01*
X13918142Y49294120D02*
X14251476Y48294120D01*
X14584809Y49294120D01*
D12*
X15557571Y98000358D02*
X16700428Y98000358D01*
X6159571Y97936858D02*
X7302428Y97936858D01*
X6731000Y97365429D02*
X6731000Y98508286D01*
X74732428Y90839358D02*
X75875285Y90839358D01*
X75303857Y90267929D02*
X75303857Y91410786D01*
X91446714Y90839358D02*
X92589571Y90839358D01*
X41168142Y9439358D02*
X42311000Y9439358D01*
X41739571Y8867929D02*
X41739571Y10010786D01*
X45311000Y9439358D02*
X46453857Y9439358D01*
X49168142Y9589358D02*
X50311000Y9589358D01*
X49739571Y9017929D02*
X49739571Y10160786D01*
X53311000Y9589358D02*
X54453857Y9589358D01*
X9168142Y15689358D02*
X10311000Y15689358D01*
X9739571Y15117929D02*
X9739571Y16260786D01*
X13311000Y15689358D02*
X14453857Y15689358D01*
X17668142Y15689358D02*
X18811000Y15689358D01*
X18239571Y15117929D02*
X18239571Y16260786D01*
X21811000Y15689358D02*
X22953857Y15689358D01*
X25418142Y15689358D02*
X26561000Y15689358D01*
X25989571Y15117929D02*
X25989571Y16260786D01*
X29561000Y15689358D02*
X30703857Y15689358D01*
X33168142Y15689358D02*
X34311000Y15689358D01*
X33739571Y15117929D02*
X33739571Y16260786D01*
X37311000Y15689358D02*
X38453857Y15689358D01*
X45632428Y12653643D02*
X45132428Y12653643D01*
X45132428Y11867929D02*
X45132428Y13367929D01*
X45846714Y13367929D01*
X46346714Y12296500D02*
X47061000Y12296500D01*
X46203857Y11867929D02*
X46703857Y13367929D01*
X47203857Y11867929D01*
X47703857Y11867929D02*
X47703857Y13367929D01*
X48561000Y11867929D01*
X48561000Y13367929D01*
X49203857Y11939358D02*
X49418142Y11867929D01*
X49775285Y11867929D01*
X49918142Y11939358D01*
X49989571Y12010786D01*
X50061000Y12153643D01*
X50061000Y12296500D01*
X49989571Y12439358D01*
X49918142Y12510786D01*
X49775285Y12582215D01*
X49489571Y12653643D01*
X49346714Y12725072D01*
X49275285Y12796500D01*
X49203857Y12939358D01*
X49203857Y13082215D01*
X49275285Y13225072D01*
X49346714Y13296500D01*
X49489571Y13367929D01*
X49846714Y13367929D01*
X50061000Y13296500D01*
D10*
X8870523Y13217929D02*
X9203857Y13217929D01*
X9346714Y12694120D02*
X8870523Y12694120D01*
X8870523Y13694120D01*
X9346714Y13694120D01*
X9727666Y13598881D02*
X9775285Y13646500D01*
X9870523Y13694120D01*
X10108619Y13694120D01*
X10203857Y13646500D01*
X10251476Y13598881D01*
X10299095Y13503643D01*
X10299095Y13408405D01*
X10251476Y13265548D01*
X9680047Y12694120D01*
X10299095Y12694120D01*
X8251476Y10994120D02*
X8251476Y11994120D01*
X8632428Y11994120D01*
X8727666Y11946500D01*
X8775285Y11898881D01*
X8822904Y11803643D01*
X8822904Y11660786D01*
X8775285Y11565548D01*
X8727666Y11517929D01*
X8632428Y11470310D01*
X8251476Y11470310D01*
X9680047Y10994120D02*
X9680047Y11517929D01*
X9632428Y11613167D01*
X9537190Y11660786D01*
X9346714Y11660786D01*
X9251476Y11613167D01*
X9680047Y11041739D02*
X9584809Y10994120D01*
X9346714Y10994120D01*
X9251476Y11041739D01*
X9203857Y11136977D01*
X9203857Y11232215D01*
X9251476Y11327453D01*
X9346714Y11375072D01*
X9584809Y11375072D01*
X9680047Y11422691D01*
X10156238Y10994120D02*
X10156238Y11660786D01*
X10156238Y11470310D02*
X10203857Y11565548D01*
X10251476Y11613167D01*
X10346714Y11660786D01*
X10441952Y11660786D01*
X10632428Y11660786D02*
X11013380Y11660786D01*
X10775285Y11994120D02*
X10775285Y11136977D01*
X10822904Y11041739D01*
X10918142Y10994120D01*
X11013380Y10994120D01*
X16620523Y13217929D02*
X16953857Y13217929D01*
X17096714Y12694120D02*
X16620523Y12694120D01*
X16620523Y13694120D01*
X17096714Y13694120D01*
X18049095Y12694120D02*
X17477666Y12694120D01*
X17763380Y12694120D02*
X17763380Y13694120D01*
X17668142Y13551262D01*
X17572904Y13456024D01*
X17477666Y13408405D01*
X16001476Y10994120D02*
X16001476Y11994120D01*
X16382428Y11994120D01*
X16477666Y11946500D01*
X16525285Y11898881D01*
X16572904Y11803643D01*
X16572904Y11660786D01*
X16525285Y11565548D01*
X16477666Y11517929D01*
X16382428Y11470310D01*
X16001476Y11470310D01*
X17430047Y10994120D02*
X17430047Y11517929D01*
X17382428Y11613167D01*
X17287190Y11660786D01*
X17096714Y11660786D01*
X17001476Y11613167D01*
X17430047Y11041739D02*
X17334809Y10994120D01*
X17096714Y10994120D01*
X17001476Y11041739D01*
X16953857Y11136977D01*
X16953857Y11232215D01*
X17001476Y11327453D01*
X17096714Y11375072D01*
X17334809Y11375072D01*
X17430047Y11422691D01*
X17906238Y10994120D02*
X17906238Y11660786D01*
X17906238Y11470310D02*
X17953857Y11565548D01*
X18001476Y11613167D01*
X18096714Y11660786D01*
X18191952Y11660786D01*
X18382428Y11660786D02*
X18763380Y11660786D01*
X18525285Y11994120D02*
X18525285Y11136977D01*
X18572904Y11041739D01*
X18668142Y10994120D01*
X18763380Y10994120D01*
X24870523Y13217929D02*
X25203857Y13217929D01*
X25346714Y12694120D02*
X24870523Y12694120D01*
X24870523Y13694120D01*
X25346714Y13694120D01*
X25727666Y13598881D02*
X25775285Y13646500D01*
X25870523Y13694120D01*
X26108619Y13694120D01*
X26203857Y13646500D01*
X26251476Y13598881D01*
X26299095Y13503643D01*
X26299095Y13408405D01*
X26251476Y13265548D01*
X25680047Y12694120D01*
X26299095Y12694120D01*
X24703857Y11089358D02*
X24656238Y11041739D01*
X24513380Y10994120D01*
X24418142Y10994120D01*
X24275285Y11041739D01*
X24180047Y11136977D01*
X24132428Y11232215D01*
X24084809Y11422691D01*
X24084809Y11565548D01*
X24132428Y11756024D01*
X24180047Y11851262D01*
X24275285Y11946500D01*
X24418142Y11994120D01*
X24513380Y11994120D01*
X24656238Y11946500D01*
X24703857Y11898881D01*
X25275285Y10994120D02*
X25180047Y11041739D01*
X25132428Y11089358D01*
X25084809Y11184596D01*
X25084809Y11470310D01*
X25132428Y11565548D01*
X25180047Y11613167D01*
X25275285Y11660786D01*
X25418142Y11660786D01*
X25513380Y11613167D01*
X25561000Y11565548D01*
X25608619Y11470310D01*
X25608619Y11184596D01*
X25561000Y11089358D01*
X25513380Y11041739D01*
X25418142Y10994120D01*
X25275285Y10994120D01*
X26180047Y10994120D02*
X26084809Y11041739D01*
X26037190Y11089358D01*
X25989571Y11184596D01*
X25989571Y11470310D01*
X26037190Y11565548D01*
X26084809Y11613167D01*
X26180047Y11660786D01*
X26322904Y11660786D01*
X26418142Y11613167D01*
X26465761Y11565548D01*
X26513380Y11470310D01*
X26513380Y11184596D01*
X26465761Y11089358D01*
X26418142Y11041739D01*
X26322904Y10994120D01*
X26180047Y10994120D01*
X27084809Y10994120D02*
X26989571Y11041739D01*
X26941952Y11136977D01*
X26941952Y11994120D01*
X32620523Y13217929D02*
X32953857Y13217929D01*
X33096714Y12694120D02*
X32620523Y12694120D01*
X32620523Y13694120D01*
X33096714Y13694120D01*
X34049095Y12694120D02*
X33477666Y12694120D01*
X33763380Y12694120D02*
X33763380Y13694120D01*
X33668142Y13551262D01*
X33572904Y13456024D01*
X33477666Y13408405D01*
X32453857Y11089358D02*
X32406238Y11041739D01*
X32263380Y10994120D01*
X32168142Y10994120D01*
X32025285Y11041739D01*
X31930047Y11136977D01*
X31882428Y11232215D01*
X31834809Y11422691D01*
X31834809Y11565548D01*
X31882428Y11756024D01*
X31930047Y11851262D01*
X32025285Y11946500D01*
X32168142Y11994120D01*
X32263380Y11994120D01*
X32406238Y11946500D01*
X32453857Y11898881D01*
X33025285Y10994120D02*
X32930047Y11041739D01*
X32882428Y11089358D01*
X32834809Y11184596D01*
X32834809Y11470310D01*
X32882428Y11565548D01*
X32930047Y11613167D01*
X33025285Y11660786D01*
X33168142Y11660786D01*
X33263380Y11613167D01*
X33311000Y11565548D01*
X33358619Y11470310D01*
X33358619Y11184596D01*
X33311000Y11089358D01*
X33263380Y11041739D01*
X33168142Y10994120D01*
X33025285Y10994120D01*
X33930047Y10994120D02*
X33834809Y11041739D01*
X33787190Y11089358D01*
X33739571Y11184596D01*
X33739571Y11470310D01*
X33787190Y11565548D01*
X33834809Y11613167D01*
X33930047Y11660786D01*
X34072904Y11660786D01*
X34168142Y11613167D01*
X34215761Y11565548D01*
X34263380Y11470310D01*
X34263380Y11184596D01*
X34215761Y11089358D01*
X34168142Y11041739D01*
X34072904Y10994120D01*
X33930047Y10994120D01*
X34834809Y10994120D02*
X34739571Y11041739D01*
X34691952Y11136977D01*
X34691952Y11994120D01*
D12*
X82325285Y84967929D02*
X82825285Y83467929D01*
X83325285Y84967929D01*
X83825285Y83467929D02*
X83825285Y84467929D01*
X83825285Y84967929D02*
X83753857Y84896500D01*
X83825285Y84825072D01*
X83896714Y84896500D01*
X83825285Y84967929D01*
X83825285Y84825072D01*
X84539571Y84467929D02*
X84539571Y83467929D01*
X84539571Y84325072D02*
X84611000Y84396500D01*
X84753857Y84467929D01*
X84968142Y84467929D01*
X85111000Y84396500D01*
X85182428Y84253643D01*
X85182428Y83467929D01*
X71139571Y84653643D02*
X71353857Y84582215D01*
X71425285Y84510786D01*
X71496714Y84367929D01*
X71496714Y84153643D01*
X71425285Y84010786D01*
X71353857Y83939358D01*
X71211000Y83867929D01*
X70639571Y83867929D01*
X70639571Y85367929D01*
X71139571Y85367929D01*
X71282428Y85296500D01*
X71353857Y85225072D01*
X71425285Y85082215D01*
X71425285Y84939358D01*
X71353857Y84796500D01*
X71282428Y84725072D01*
X71139571Y84653643D01*
X70639571Y84653643D01*
X72139571Y84653643D02*
X72639571Y84653643D01*
X72853857Y83867929D02*
X72139571Y83867929D01*
X72139571Y85367929D01*
X72853857Y85367929D01*
X73496714Y83867929D02*
X73496714Y85367929D01*
X73853857Y85367929D01*
X74068142Y85296500D01*
X74211000Y85153643D01*
X74282428Y85010786D01*
X74353857Y84725072D01*
X74353857Y84510786D01*
X74282428Y84225072D01*
X74211000Y84082215D01*
X74068142Y83939358D01*
X73853857Y83867929D01*
X73496714Y83867929D01*
X57675285Y82703643D02*
X58175285Y82703643D01*
X58389571Y81917929D02*
X57675285Y81917929D01*
X57675285Y83417929D01*
X58389571Y83417929D01*
X59818142Y81917929D02*
X58961000Y81917929D01*
X59389571Y81917929D02*
X59389571Y83417929D01*
X59246714Y83203643D01*
X59103857Y83060786D01*
X58961000Y82989358D01*
X56389571Y79367929D02*
X56389571Y80867929D01*
X56389571Y80153643D02*
X57246714Y80153643D01*
X57246714Y79367929D02*
X57246714Y80867929D01*
X57961000Y80153643D02*
X58461000Y80153643D01*
X58675285Y79367929D02*
X57961000Y79367929D01*
X57961000Y80867929D01*
X58675285Y80867929D01*
X59246714Y79796500D02*
X59961000Y79796500D01*
X59103857Y79367929D02*
X59603857Y80867929D01*
X60103857Y79367929D01*
X60389571Y80867929D02*
X61246714Y80867929D01*
X60818142Y79367929D02*
X60818142Y80867929D01*
X45475285Y82578643D02*
X45975285Y82578643D01*
X46189571Y81792929D02*
X45475285Y81792929D01*
X45475285Y83292929D01*
X46189571Y83292929D01*
X46761000Y83150072D02*
X46832428Y83221500D01*
X46975285Y83292929D01*
X47332428Y83292929D01*
X47475285Y83221500D01*
X47546714Y83150072D01*
X47618142Y83007215D01*
X47618142Y82864358D01*
X47546714Y82650072D01*
X46689571Y81792929D01*
X47618142Y81792929D01*
X44189571Y79242929D02*
X44189571Y80742929D01*
X44189571Y80028643D02*
X45046714Y80028643D01*
X45046714Y79242929D02*
X45046714Y80742929D01*
X45761000Y80028643D02*
X46261000Y80028643D01*
X46475285Y79242929D02*
X45761000Y79242929D01*
X45761000Y80742929D01*
X46475285Y80742929D01*
X47046714Y79671500D02*
X47761000Y79671500D01*
X46903857Y79242929D02*
X47403857Y80742929D01*
X47903857Y79242929D01*
X48189571Y80742929D02*
X49046714Y80742929D01*
X48618142Y79242929D02*
X48618142Y80742929D01*
X16605285Y96388929D02*
X15891000Y96388929D01*
X15819571Y95674643D01*
X15891000Y95746072D01*
X16033857Y95817500D01*
X16391000Y95817500D01*
X16533857Y95746072D01*
X16605285Y95674643D01*
X16676714Y95531786D01*
X16676714Y95174643D01*
X16605285Y95031786D01*
X16533857Y94960358D01*
X16391000Y94888929D01*
X16033857Y94888929D01*
X15891000Y94960358D01*
X15819571Y95031786D01*
X17105285Y96388929D02*
X17605285Y94888929D01*
X18105285Y96388929D01*
X31475285Y96128643D02*
X31975285Y96128643D01*
X32189571Y95342929D02*
X31475285Y95342929D01*
X31475285Y96842929D01*
X32189571Y96842929D01*
X32761000Y96700072D02*
X32832428Y96771500D01*
X32975285Y96842929D01*
X33332428Y96842929D01*
X33475285Y96771500D01*
X33546714Y96700072D01*
X33618142Y96557215D01*
X33618142Y96414358D01*
X33546714Y96200072D01*
X32689571Y95342929D01*
X33618142Y95342929D01*
X1553857Y67010786D02*
X1553857Y67510786D01*
X2339571Y67725072D02*
X2339571Y67010786D01*
X839571Y67010786D01*
X839571Y67725072D01*
X2339571Y69153643D02*
X2339571Y68296500D01*
X2339571Y68725072D02*
X839571Y68725072D01*
X1053857Y68582215D01*
X1196714Y68439358D01*
X1268142Y68296500D01*
X95339571Y55896500D02*
X95339571Y56896500D01*
X96839571Y55896500D01*
X96839571Y56896500D01*
X96325285Y36946500D02*
X97039571Y36946500D01*
X95539571Y36446500D02*
X96325285Y36946500D01*
X95539571Y37446500D01*
X95639571Y10696500D02*
X97139571Y11696500D01*
X95639571Y11696500D02*
X97139571Y10696500D01*
D11*
X17064571Y46457215D02*
X17064571Y45850072D01*
X17100285Y45778643D01*
X17136000Y45742929D01*
X17207428Y45707215D01*
X17350285Y45707215D01*
X17421714Y45742929D01*
X17457428Y45778643D01*
X17493142Y45850072D01*
X17493142Y46457215D01*
X17814571Y45742929D02*
X17921714Y45707215D01*
X18100285Y45707215D01*
X18171714Y45742929D01*
X18207428Y45778643D01*
X18243142Y45850072D01*
X18243142Y45921500D01*
X18207428Y45992929D01*
X18171714Y46028643D01*
X18100285Y46064358D01*
X17957428Y46100072D01*
X17886000Y46135786D01*
X17850285Y46171500D01*
X17814571Y46242929D01*
X17814571Y46314358D01*
X17850285Y46385786D01*
X17886000Y46421500D01*
X17957428Y46457215D01*
X18136000Y46457215D01*
X18243142Y46421500D01*
X18814571Y46100072D02*
X18921714Y46064358D01*
X18957428Y46028643D01*
X18993142Y45957215D01*
X18993142Y45850072D01*
X18957428Y45778643D01*
X18921714Y45742929D01*
X18850285Y45707215D01*
X18564571Y45707215D01*
X18564571Y46457215D01*
X18814571Y46457215D01*
X18886000Y46421500D01*
X18921714Y46385786D01*
X18957428Y46314358D01*
X18957428Y46242929D01*
X18921714Y46171500D01*
X18886000Y46135786D01*
X18814571Y46100072D01*
X18564571Y46100072D01*
X19886000Y46207215D02*
X19886000Y45457215D01*
X19886000Y46171500D02*
X19957428Y46207215D01*
X20100285Y46207215D01*
X20171714Y46171500D01*
X20207428Y46135786D01*
X20243142Y46064358D01*
X20243142Y45850072D01*
X20207428Y45778643D01*
X20171714Y45742929D01*
X20100285Y45707215D01*
X19957428Y45707215D01*
X19886000Y45742929D01*
X20493142Y46207215D02*
X20636000Y45707215D01*
X20778857Y46064358D01*
X20921714Y45707215D01*
X21064571Y46207215D01*
X21350285Y45707215D02*
X21350285Y46207215D01*
X21350285Y46064358D02*
X21386000Y46135786D01*
X21421714Y46171500D01*
X21493142Y46207215D01*
X21564571Y46207215D01*
D10*
X67791952Y22794120D02*
X67791952Y21984596D01*
X67839571Y21889358D01*
X67887190Y21841739D01*
X67982428Y21794120D01*
X68172904Y21794120D01*
X68268142Y21841739D01*
X68315761Y21889358D01*
X68363380Y21984596D01*
X68363380Y22794120D01*
X68791952Y21841739D02*
X68887190Y21794120D01*
X69077666Y21794120D01*
X69172904Y21841739D01*
X69220523Y21936977D01*
X69220523Y21984596D01*
X69172904Y22079834D01*
X69077666Y22127453D01*
X68934809Y22127453D01*
X68839571Y22175072D01*
X68791952Y22270310D01*
X68791952Y22317929D01*
X68839571Y22413167D01*
X68934809Y22460786D01*
X69077666Y22460786D01*
X69172904Y22413167D01*
X70030047Y21841739D02*
X69934809Y21794120D01*
X69744333Y21794120D01*
X69649095Y21841739D01*
X69601476Y21936977D01*
X69601476Y22317929D01*
X69649095Y22413167D01*
X69744333Y22460786D01*
X69934809Y22460786D01*
X70030047Y22413167D01*
X70077666Y22317929D01*
X70077666Y22222691D01*
X69601476Y22127453D01*
X71125285Y22794120D02*
X71458619Y21794120D01*
X71791952Y22794120D01*
X72125285Y21794120D02*
X72125285Y22460786D01*
X72125285Y22794120D02*
X72077666Y22746500D01*
X72125285Y22698881D01*
X72172904Y22746500D01*
X72125285Y22794120D01*
X72125285Y22698881D01*
X72601476Y22460786D02*
X72601476Y21794120D01*
X72601476Y22365548D02*
X72649095Y22413167D01*
X72744333Y22460786D01*
X72887190Y22460786D01*
X72982428Y22413167D01*
X73030047Y22317929D01*
X73030047Y21794120D01*
X18658619Y26289358D02*
X18658619Y25622691D01*
X17658619Y26289358D01*
X17658619Y25622691D01*
X17658619Y24479834D02*
X18658619Y24479834D01*
X17944333Y24146500D01*
X18658619Y23813167D01*
X17658619Y23813167D01*
X17658619Y22908405D02*
X18182428Y22908405D01*
X18277666Y22956024D01*
X18325285Y23051262D01*
X18325285Y23241739D01*
X18277666Y23336977D01*
X17706238Y22908405D02*
X17658619Y23003643D01*
X17658619Y23241739D01*
X17706238Y23336977D01*
X17801476Y23384596D01*
X17896714Y23384596D01*
X17991952Y23336977D01*
X18039571Y23241739D01*
X18039571Y23003643D01*
X18087190Y22908405D01*
X17658619Y22527453D02*
X18325285Y22003643D01*
X18325285Y22527453D02*
X17658619Y22003643D01*
X18034809Y34756024D02*
X17558619Y34756024D01*
X18558619Y35089358D02*
X18034809Y34756024D01*
X18558619Y34422691D01*
X17558619Y33327453D02*
X18558619Y33327453D01*
X17844333Y32994120D01*
X18558619Y32660786D01*
X17558619Y32660786D01*
X17558619Y31756024D02*
X18082428Y31756024D01*
X18177666Y31803643D01*
X18225285Y31898881D01*
X18225285Y32089358D01*
X18177666Y32184596D01*
X17606238Y31756024D02*
X17558619Y31851262D01*
X17558619Y32089358D01*
X17606238Y32184596D01*
X17701476Y32232215D01*
X17796714Y32232215D01*
X17891952Y32184596D01*
X17939571Y32089358D01*
X17939571Y31851262D01*
X17987190Y31756024D01*
X17558619Y31375072D02*
X18225285Y30851262D01*
X18225285Y31375072D02*
X17558619Y30851262D01*
X18182428Y44260786D02*
X18182428Y43927453D01*
X17658619Y43784596D02*
X17658619Y44260786D01*
X18658619Y44260786D01*
X18658619Y43784596D01*
X18563380Y43403643D02*
X18611000Y43356024D01*
X18658619Y43260786D01*
X18658619Y43022691D01*
X18611000Y42927453D01*
X18563380Y42879834D01*
X18468142Y42832215D01*
X18372904Y42832215D01*
X18230047Y42879834D01*
X17658619Y43451262D01*
X17658619Y42832215D01*
X18182428Y41308405D02*
X18182428Y41641739D01*
X17658619Y41641739D02*
X18658619Y41641739D01*
X18658619Y41165548D01*
X17658619Y40641739D02*
X17706238Y40736977D01*
X17801476Y40784596D01*
X18658619Y40784596D01*
X17658619Y40260786D02*
X18325285Y40260786D01*
X18230047Y40260786D02*
X18277666Y40213167D01*
X18325285Y40117929D01*
X18325285Y39975072D01*
X18277666Y39879834D01*
X18182428Y39832215D01*
X17658619Y39832215D01*
X18182428Y39832215D02*
X18277666Y39784596D01*
X18325285Y39689358D01*
X18325285Y39546500D01*
X18277666Y39451262D01*
X18182428Y39403643D01*
X17658619Y39403643D01*
X18325285Y39070310D02*
X18325285Y38689358D01*
X18658619Y38927453D02*
X17801476Y38927453D01*
X17706238Y38879834D01*
X17658619Y38784596D01*
X17658619Y38689358D01*
X54046714Y33717929D02*
X54380047Y33717929D01*
X54522904Y33194120D02*
X54046714Y33194120D01*
X54046714Y34194120D01*
X54522904Y34194120D01*
X55475285Y33194120D02*
X54903857Y33194120D01*
X55189571Y33194120D02*
X55189571Y34194120D01*
X55094333Y34051262D01*
X54999095Y33956024D01*
X54903857Y33908405D01*
X56999095Y33717929D02*
X56665761Y33717929D01*
X56665761Y33194120D02*
X56665761Y34194120D01*
X57141952Y34194120D01*
X57665761Y33194120D02*
X57570523Y33241739D01*
X57522904Y33336977D01*
X57522904Y34194120D01*
X58046714Y33194120D02*
X58046714Y33860786D01*
X58046714Y33765548D02*
X58094333Y33813167D01*
X58189571Y33860786D01*
X58332428Y33860786D01*
X58427666Y33813167D01*
X58475285Y33717929D01*
X58475285Y33194120D01*
X58475285Y33717929D02*
X58522904Y33813167D01*
X58618142Y33860786D01*
X58761000Y33860786D01*
X58856238Y33813167D01*
X58903857Y33717929D01*
X58903857Y33194120D01*
X59237190Y33860786D02*
X59618142Y33860786D01*
X59380047Y34194120D02*
X59380047Y33336977D01*
X59427666Y33241739D01*
X59522904Y33194120D01*
X59618142Y33194120D01*
X45663380Y42103643D02*
X46663380Y42770310D01*
X45663380Y42770310D02*
X46663380Y42103643D01*
X46663380Y43913167D02*
X45663380Y43913167D01*
X46377666Y44246500D01*
X45663380Y44579834D01*
X46663380Y44579834D01*
X46663380Y45484596D02*
X46139571Y45484596D01*
X46044333Y45436977D01*
X45996714Y45341739D01*
X45996714Y45151262D01*
X46044333Y45056024D01*
X46615761Y45484596D02*
X46663380Y45389358D01*
X46663380Y45151262D01*
X46615761Y45056024D01*
X46520523Y45008405D01*
X46425285Y45008405D01*
X46330047Y45056024D01*
X46282428Y45151262D01*
X46282428Y45389358D01*
X46234809Y45484596D01*
X46663380Y45865548D02*
X45996714Y46389358D01*
X45996714Y45865548D02*
X46663380Y46389358D01*
X46337190Y51503643D02*
X46813380Y51503643D01*
X45813380Y51170310D02*
X46337190Y51503643D01*
X45813380Y51836977D01*
X46813380Y52932215D02*
X45813380Y52932215D01*
X46527666Y53265548D01*
X45813380Y53598881D01*
X46813380Y53598881D01*
X46813380Y54075072D02*
X46146714Y54075072D01*
X45813380Y54075072D02*
X45861000Y54027453D01*
X45908619Y54075072D01*
X45861000Y54122691D01*
X45813380Y54075072D01*
X45908619Y54075072D01*
X46146714Y54551262D02*
X46813380Y54551262D01*
X46241952Y54551262D02*
X46194333Y54598881D01*
X46146714Y54694120D01*
X46146714Y54836977D01*
X46194333Y54932215D01*
X46289571Y54979834D01*
X46813380Y54979834D01*
X62508619Y45772691D02*
X62508619Y45106024D01*
X61508619Y45772691D01*
X61508619Y45106024D01*
X61508619Y43963167D02*
X62508619Y43963167D01*
X61794333Y43629834D01*
X62508619Y43296500D01*
X61508619Y43296500D01*
X61508619Y42820310D02*
X62175285Y42820310D01*
X62508619Y42820310D02*
X62461000Y42867929D01*
X62413380Y42820310D01*
X62461000Y42772691D01*
X62508619Y42820310D01*
X62413380Y42820310D01*
X62175285Y42344120D02*
X61508619Y42344120D01*
X62080047Y42344120D02*
X62127666Y42296500D01*
X62175285Y42201262D01*
X62175285Y42058405D01*
X62127666Y41963167D01*
X62032428Y41915548D01*
X61508619Y41915548D01*
X62658619Y54972691D02*
X61658619Y54306024D01*
X62658619Y54306024D02*
X61658619Y54972691D01*
X61658619Y53163167D02*
X62658619Y53163167D01*
X61944333Y52829834D01*
X62658619Y52496500D01*
X61658619Y52496500D01*
X61658619Y52020310D02*
X62325285Y52020310D01*
X62658619Y52020310D02*
X62611000Y52067929D01*
X62563380Y52020310D01*
X62611000Y51972691D01*
X62658619Y52020310D01*
X62563380Y52020310D01*
X62325285Y51544120D02*
X61658619Y51544120D01*
X62230047Y51544120D02*
X62277666Y51496500D01*
X62325285Y51401262D01*
X62325285Y51258405D01*
X62277666Y51163167D01*
X62182428Y51115548D01*
X61658619Y51115548D01*
D11*
X24763380Y31789358D02*
X24763380Y32456024D01*
X25763380Y31789358D01*
X25763380Y32456024D01*
X25763380Y33598881D02*
X24763380Y33598881D01*
X24763380Y33979834D01*
X24811000Y34075072D01*
X24858619Y34122691D01*
X24953857Y34170310D01*
X25096714Y34170310D01*
X25191952Y34122691D01*
X25239571Y34075072D01*
X25287190Y33979834D01*
X25287190Y33598881D01*
X25763380Y34598881D02*
X25096714Y34598881D01*
X25287190Y34598881D02*
X25191952Y34646500D01*
X25144333Y34694120D01*
X25096714Y34789358D01*
X25096714Y34884596D01*
X25763380Y35360786D02*
X25715761Y35265548D01*
X25668142Y35217929D01*
X25572904Y35170310D01*
X25287190Y35170310D01*
X25191952Y35217929D01*
X25144333Y35265548D01*
X25096714Y35360786D01*
X25096714Y35503643D01*
X25144333Y35598881D01*
X25191952Y35646500D01*
X25287190Y35694120D01*
X25572904Y35694120D01*
X25668142Y35646500D01*
X25715761Y35598881D01*
X25763380Y35503643D01*
X25763380Y35360786D01*
X25763380Y36122691D02*
X24763380Y36122691D01*
X25144333Y36122691D02*
X25096714Y36217929D01*
X25096714Y36408405D01*
X25144333Y36503643D01*
X25191952Y36551262D01*
X25287190Y36598881D01*
X25572904Y36598881D01*
X25668142Y36551262D01*
X25715761Y36503643D01*
X25763380Y36408405D01*
X25763380Y36217929D01*
X25715761Y36122691D01*
X25715761Y37408405D02*
X25763380Y37313167D01*
X25763380Y37122691D01*
X25715761Y37027453D01*
X25620523Y36979834D01*
X25239571Y36979834D01*
X25144333Y37027453D01*
X25096714Y37122691D01*
X25096714Y37313167D01*
X25144333Y37408405D01*
X25239571Y37456024D01*
X25334809Y37456024D01*
X25430047Y36979834D01*
D12*
X52425285Y22303643D02*
X52925285Y22303643D01*
X53139571Y21517929D02*
X52425285Y21517929D01*
X52425285Y23017929D01*
X53139571Y23017929D01*
X53711000Y22875072D02*
X53782428Y22946500D01*
X53925285Y23017929D01*
X54282428Y23017929D01*
X54425285Y22946500D01*
X54496714Y22875072D01*
X54568142Y22732215D01*
X54568142Y22589358D01*
X54496714Y22375072D01*
X53639571Y21517929D01*
X54568142Y21517929D01*
X52525285Y28853643D02*
X53025285Y28853643D01*
X53239571Y28067929D02*
X52525285Y28067929D01*
X52525285Y29567929D01*
X53239571Y29567929D01*
X54668142Y28067929D02*
X53811000Y28067929D01*
X54239571Y28067929D02*
X54239571Y29567929D01*
X54096714Y29353643D01*
X53953857Y29210786D01*
X53811000Y29139358D01*
X51596714Y15553643D02*
X51811000Y15482215D01*
X51882428Y15410786D01*
X51953857Y15267929D01*
X51953857Y15053643D01*
X51882428Y14910786D01*
X51811000Y14839358D01*
X51668142Y14767929D01*
X51096714Y14767929D01*
X51096714Y16267929D01*
X51596714Y16267929D01*
X51739571Y16196500D01*
X51811000Y16125072D01*
X51882428Y15982215D01*
X51882428Y15839358D01*
X51811000Y15696500D01*
X51739571Y15625072D01*
X51596714Y15553643D01*
X51096714Y15553643D01*
X53168142Y14839358D02*
X53025285Y14767929D01*
X52739571Y14767929D01*
X52596714Y14839358D01*
X52525285Y14982215D01*
X52525285Y15553643D01*
X52596714Y15696500D01*
X52739571Y15767929D01*
X53025285Y15767929D01*
X53168142Y15696500D01*
X53239571Y15553643D01*
X53239571Y15410786D01*
X52525285Y15267929D01*
X54525285Y14767929D02*
X54525285Y16267929D01*
X54525285Y14839358D02*
X54382428Y14767929D01*
X54096714Y14767929D01*
X53953857Y14839358D01*
X53882428Y14910786D01*
X53811000Y15053643D01*
X53811000Y15482215D01*
X53882428Y15625072D01*
X53953857Y15696500D01*
X54096714Y15767929D01*
X54382428Y15767929D01*
X54525285Y15696500D01*
X24253857Y61442929D02*
X24253857Y62942929D01*
X24825285Y62942929D01*
X24968142Y62871500D01*
X25039571Y62800072D01*
X25111000Y62657215D01*
X25111000Y62442929D01*
X25039571Y62300072D01*
X24968142Y62228643D01*
X24825285Y62157215D01*
X24253857Y62157215D01*
X25753857Y61442929D02*
X25753857Y62442929D01*
X25753857Y62157215D02*
X25825285Y62300072D01*
X25896714Y62371500D01*
X26039571Y62442929D01*
X26182428Y62442929D01*
X26682428Y62442929D02*
X26682428Y61442929D01*
X26682428Y62300072D02*
X26753857Y62371500D01*
X26896714Y62442929D01*
X27111000Y62442929D01*
X27253857Y62371500D01*
X27325285Y62228643D01*
X27325285Y61442929D01*
X27825285Y62442929D02*
X28396714Y62442929D01*
X28039571Y62942929D02*
X28039571Y61657215D01*
X28111000Y61514358D01*
X28253857Y61442929D01*
X28396714Y61442929D01*
X28896714Y61442929D02*
X28896714Y62442929D01*
X28896714Y62157215D02*
X28968142Y62300072D01*
X29039571Y62371500D01*
X29182428Y62442929D01*
X29325285Y62442929D01*
X30325285Y62228643D02*
X30539571Y62157215D01*
X30611000Y62085786D01*
X30682428Y61942929D01*
X30682428Y61728643D01*
X30611000Y61585786D01*
X30539571Y61514358D01*
X30396714Y61442929D01*
X29825285Y61442929D01*
X29825285Y62942929D01*
X30325285Y62942929D01*
X30468142Y62871500D01*
X30539571Y62800072D01*
X30611000Y62657215D01*
X30611000Y62514358D01*
X30539571Y62371500D01*
X30468142Y62300072D01*
X30325285Y62228643D01*
X29825285Y62228643D01*
X31539571Y61442929D02*
X31396714Y61514358D01*
X31325285Y61585786D01*
X31253857Y61728643D01*
X31253857Y62157215D01*
X31325285Y62300072D01*
X31396714Y62371500D01*
X31539571Y62442929D01*
X31753857Y62442929D01*
X31896714Y62371500D01*
X31968142Y62300072D01*
X32039571Y62157215D01*
X32039571Y61728643D01*
X31968142Y61585786D01*
X31896714Y61514358D01*
X31753857Y61442929D01*
X31539571Y61442929D01*
X33325285Y61442929D02*
X33325285Y62228643D01*
X33253857Y62371500D01*
X33111000Y62442929D01*
X32825285Y62442929D01*
X32682428Y62371500D01*
X33325285Y61514358D02*
X33182428Y61442929D01*
X32825285Y61442929D01*
X32682428Y61514358D01*
X32611000Y61657215D01*
X32611000Y61800072D01*
X32682428Y61942929D01*
X32825285Y62014358D01*
X33182428Y62014358D01*
X33325285Y62085786D01*
X34039571Y61442929D02*
X34039571Y62442929D01*
X34039571Y62157215D02*
X34111000Y62300072D01*
X34182428Y62371500D01*
X34325285Y62442929D01*
X34468142Y62442929D01*
X35611000Y61442929D02*
X35611000Y62942929D01*
X35611000Y61514358D02*
X35468142Y61442929D01*
X35182428Y61442929D01*
X35039571Y61514358D01*
X34968142Y61585786D01*
X34896714Y61728643D01*
X34896714Y62157215D01*
X34968142Y62300072D01*
X35039571Y62371500D01*
X35182428Y62442929D01*
X35468142Y62442929D01*
X35611000Y62371500D01*
X37253857Y62942929D02*
X37753857Y61442929D01*
X38253857Y62942929D01*
X39539571Y61442929D02*
X38682428Y61442929D01*
X39111000Y61442929D02*
X39111000Y62942929D01*
X38968142Y62728643D01*
X38825285Y62585786D01*
X38682428Y62514358D01*
X26968142Y60392929D02*
X27825285Y60392929D01*
X27396714Y58892929D02*
X27396714Y60392929D01*
X28325285Y58892929D02*
X28325285Y60392929D01*
X28825285Y59321500D01*
X29325285Y60392929D01*
X29325285Y58892929D01*
X30896714Y59035786D02*
X30825285Y58964358D01*
X30611000Y58892929D01*
X30468142Y58892929D01*
X30253857Y58964358D01*
X30111000Y59107215D01*
X30039571Y59250072D01*
X29968142Y59535786D01*
X29968142Y59750072D01*
X30039571Y60035786D01*
X30111000Y60178643D01*
X30253857Y60321500D01*
X30468142Y60392929D01*
X30611000Y60392929D01*
X30825285Y60321500D01*
X30896714Y60250072D01*
X31468142Y60250072D02*
X31539571Y60321500D01*
X31682428Y60392929D01*
X32039571Y60392929D01*
X32182428Y60321500D01*
X32253857Y60250072D01*
X32325285Y60107215D01*
X32325285Y59964358D01*
X32253857Y59750072D01*
X31396714Y58892929D01*
X32325285Y58892929D01*
X33753857Y58892929D02*
X32896714Y58892929D01*
X33325285Y58892929D02*
X33325285Y60392929D01*
X33182428Y60178643D01*
X33039571Y60035786D01*
X32896714Y59964358D01*
X34253857Y60392929D02*
X35182428Y60392929D01*
X34682428Y59821500D01*
X34896714Y59821500D01*
X35039571Y59750072D01*
X35111000Y59678643D01*
X35182428Y59535786D01*
X35182428Y59178643D01*
X35111000Y59035786D01*
X35039571Y58964358D01*
X34896714Y58892929D01*
X34468142Y58892929D01*
X34325285Y58964358D01*
X34253857Y59035786D01*
X36111000Y60392929D02*
X36253857Y60392929D01*
X36396714Y60321500D01*
X36468142Y60250072D01*
X36539571Y60107215D01*
X36611000Y59821500D01*
X36611000Y59464358D01*
X36539571Y59178643D01*
X36468142Y59035786D01*
X36396714Y58964358D01*
X36253857Y58892929D01*
X36111000Y58892929D01*
X35968142Y58964358D01*
X35896714Y59035786D01*
X35825285Y59178643D01*
X35753857Y59464358D01*
X35753857Y59821500D01*
X35825285Y60107215D01*
X35896714Y60250072D01*
X35968142Y60321500D01*
X36111000Y60392929D01*
D14*
X61553857Y1560786D02*
X61553857Y1294120D01*
X61972904Y1294120D02*
X61172904Y1294120D01*
X61172904Y1675072D01*
X61972904Y2322691D02*
X61553857Y2322691D01*
X61477666Y2284596D01*
X61439571Y2208405D01*
X61439571Y2056024D01*
X61477666Y1979834D01*
X61934809Y2322691D02*
X61972904Y2246500D01*
X61972904Y2056024D01*
X61934809Y1979834D01*
X61858619Y1941739D01*
X61782428Y1941739D01*
X61706238Y1979834D01*
X61668142Y2056024D01*
X61668142Y2246500D01*
X61630047Y2322691D01*
X61439571Y2703643D02*
X61972904Y2703643D01*
X61515761Y2703643D02*
X61477666Y2741739D01*
X61439571Y2817929D01*
X61439571Y2932215D01*
X61477666Y3008405D01*
X61553857Y3046500D01*
X61972904Y3046500D01*
X61439571Y3960786D02*
X61972904Y4151262D01*
X61439571Y4341739D01*
X61972904Y4760786D02*
X61934809Y4684596D01*
X61896714Y4646500D01*
X61820523Y4608405D01*
X61591952Y4608405D01*
X61515761Y4646500D01*
X61477666Y4684596D01*
X61439571Y4760786D01*
X61439571Y4875072D01*
X61477666Y4951262D01*
X61515761Y4989358D01*
X61591952Y5027453D01*
X61820523Y5027453D01*
X61896714Y4989358D01*
X61934809Y4951262D01*
X61972904Y4875072D01*
X61972904Y4760786D01*
X61972904Y5484596D02*
X61934809Y5408405D01*
X61858619Y5370310D01*
X61172904Y5370310D01*
X61439571Y5675072D02*
X61439571Y5979834D01*
X61172904Y5789358D02*
X61858619Y5789358D01*
X61934809Y5827453D01*
X61972904Y5903643D01*
X61972904Y5979834D01*
X61972904Y6589358D02*
X61553857Y6589358D01*
X61477666Y6551262D01*
X61439571Y6475072D01*
X61439571Y6322691D01*
X61477666Y6246500D01*
X61934809Y6589358D02*
X61972904Y6513167D01*
X61972904Y6322691D01*
X61934809Y6246500D01*
X61858619Y6208405D01*
X61782428Y6208405D01*
X61706238Y6246500D01*
X61668142Y6322691D01*
X61668142Y6513167D01*
X61630047Y6589358D01*
X61439571Y7313167D02*
X62087190Y7313167D01*
X62163380Y7275072D01*
X62201476Y7236977D01*
X62239571Y7160786D01*
X62239571Y7046500D01*
X62201476Y6970310D01*
X61934809Y7313167D02*
X61972904Y7236977D01*
X61972904Y7084596D01*
X61934809Y7008405D01*
X61896714Y6970310D01*
X61820523Y6932215D01*
X61591952Y6932215D01*
X61515761Y6970310D01*
X61477666Y7008405D01*
X61439571Y7084596D01*
X61439571Y7236977D01*
X61477666Y7313167D01*
X61934809Y7998881D02*
X61972904Y7922691D01*
X61972904Y7770310D01*
X61934809Y7694120D01*
X61858619Y7656024D01*
X61553857Y7656024D01*
X61477666Y7694120D01*
X61439571Y7770310D01*
X61439571Y7922691D01*
X61477666Y7998881D01*
X61553857Y8036977D01*
X61630047Y8036977D01*
X61706238Y7656024D01*
X63234809Y3008405D02*
X63272904Y3084596D01*
X63272904Y3236977D01*
X63234809Y3313167D01*
X63158619Y3351262D01*
X63120523Y3351262D01*
X63044333Y3313167D01*
X63006238Y3236977D01*
X63006238Y3122691D01*
X62968142Y3046500D01*
X62891952Y3008405D01*
X62853857Y3008405D01*
X62777666Y3046500D01*
X62739571Y3122691D01*
X62739571Y3236977D01*
X62777666Y3313167D01*
X63234809Y3998881D02*
X63272904Y3922691D01*
X63272904Y3770310D01*
X63234809Y3694120D01*
X63158619Y3656024D01*
X62853857Y3656024D01*
X62777666Y3694120D01*
X62739571Y3770310D01*
X62739571Y3922691D01*
X62777666Y3998881D01*
X62853857Y4036977D01*
X62930047Y4036977D01*
X63006238Y3656024D01*
X63272904Y4494120D02*
X63234809Y4417929D01*
X63158619Y4379834D01*
X62472904Y4379834D01*
X63234809Y5103643D02*
X63272904Y5027453D01*
X63272904Y4875072D01*
X63234809Y4798881D01*
X63158619Y4760786D01*
X62853857Y4760786D01*
X62777666Y4798881D01*
X62739571Y4875072D01*
X62739571Y5027453D01*
X62777666Y5103643D01*
X62853857Y5141739D01*
X62930047Y5141739D01*
X63006238Y4760786D01*
X63234809Y5827453D02*
X63272904Y5751262D01*
X63272904Y5598881D01*
X63234809Y5522691D01*
X63196714Y5484596D01*
X63120523Y5446500D01*
X62891952Y5446500D01*
X62815761Y5484596D01*
X62777666Y5522691D01*
X62739571Y5598881D01*
X62739571Y5751262D01*
X62777666Y5827453D01*
X62739571Y6056024D02*
X62739571Y6360786D01*
X62472904Y6170310D02*
X63158619Y6170310D01*
X63234809Y6208405D01*
X63272904Y6284596D01*
X63272904Y6360786D01*
D15*
X47981000Y71916500D02*
X49311000Y71916500D01*
X47981000Y70586500D02*
X47981000Y71916500D01*
X47981000Y69316500D02*
X50641000Y69316500D01*
X50641000Y69316500D02*
X50641000Y66716500D01*
X47981000Y69316500D02*
X47981000Y66716500D01*
X47981000Y66716500D02*
X50641000Y66716500D01*
X43981000Y62166500D02*
X45311000Y62166500D01*
X43981000Y60836500D02*
X43981000Y62166500D01*
X43981000Y59566500D02*
X46641000Y59566500D01*
X46641000Y59566500D02*
X46641000Y56966500D01*
X43981000Y59566500D02*
X43981000Y56966500D01*
X43981000Y56966500D02*
X46641000Y56966500D01*
X90336000Y99046500D02*
X89836000Y99046500D01*
X90336000Y98306500D02*
X90336000Y99046500D01*
X79511000Y86246500D02*
X79511000Y87246500D01*
X81511000Y86246500D02*
X81511000Y87246500D01*
X81511000Y87246500D02*
X79511000Y87246500D01*
X81511000Y86246500D02*
X79511000Y86246500D01*
X81738000Y91708500D02*
X82164000Y92134500D01*
X79123000Y89092500D02*
X79549000Y89518500D01*
X81472000Y91974500D02*
X81898000Y92400500D01*
X78857000Y89358500D02*
X79298000Y89799500D01*
X85861000Y86246500D02*
X85861000Y87246500D01*
X87861000Y86246500D02*
X87861000Y87246500D01*
X87861000Y87246500D02*
X85861000Y87246500D01*
X87861000Y86246500D02*
X85861000Y86246500D01*
X88363000Y91981500D02*
X88515000Y92134500D01*
X85473000Y89092500D02*
X85625000Y89244500D01*
X88097000Y92248500D02*
X88249000Y92400500D01*
X85207000Y89358500D02*
X85359000Y89510500D01*
X77276000Y86186500D02*
X77276000Y98806500D01*
X90096000Y86186500D02*
X90096000Y98806500D01*
X90096000Y98806500D02*
X77276000Y98806500D01*
X90096000Y86186500D02*
X77276000Y86186500D01*
X90096000Y88246500D02*
X77276000Y88246500D01*
X90096000Y93246500D02*
X77276000Y93246500D01*
X90096000Y98246500D02*
X77276000Y98246500D01*
X82691000Y90746500D02*
G75*
G03X82691000Y90746500I-2180000J0D01*
G01*
X89041000Y90746500D02*
G75*
G03X89041000Y90746500I-2180000J0D01*
G01*
X37340221Y42928000D02*
X37665779Y42928000D01*
X37340221Y41908000D02*
X37665779Y41908000D01*
X31347542Y79734793D02*
X31117337Y79504588D01*
X30626293Y80456042D02*
X30396088Y80225837D01*
X60209379Y15309700D02*
X59883821Y15309700D01*
X60209379Y16329700D02*
X59883821Y16329700D01*
X10498221Y89756500D02*
X10823779Y89756500D01*
X10498221Y88736500D02*
X10823779Y88736500D01*
X88807500Y36949221D02*
X88807500Y37274779D01*
X89827500Y36949221D02*
X89827500Y37274779D01*
X50243721Y39056000D02*
X50569279Y39056000D01*
X50243721Y38036000D02*
X50569279Y38036000D01*
X26301000Y77783721D02*
X26301000Y78109279D01*
X27321000Y77783721D02*
X27321000Y78109279D01*
X88467800Y74315679D02*
X88467800Y73990121D01*
X87447800Y74315679D02*
X87447800Y73990121D01*
X75567421Y66689700D02*
X75892979Y66689700D01*
X75567421Y65669700D02*
X75892979Y65669700D01*
X77750993Y61951658D02*
X77520788Y62181863D01*
X78472242Y62672907D02*
X78242037Y62903112D01*
X30668500Y48757721D02*
X30668500Y49083279D01*
X31688500Y48757721D02*
X31688500Y49083279D01*
X61551000Y37471221D02*
X61551000Y37796779D01*
X62571000Y37471221D02*
X62571000Y37796779D01*
X7921000Y45846779D02*
X7921000Y45521221D01*
X6901000Y45846779D02*
X6901000Y45521221D01*
X38223779Y38036500D02*
X37898221Y38036500D01*
X38223779Y39056500D02*
X37898221Y39056500D01*
X89345000Y49638079D02*
X89345000Y49312521D01*
X88325000Y49638079D02*
X88325000Y49312521D01*
X7883500Y75809279D02*
X7883500Y75483721D01*
X6863500Y75809279D02*
X6863500Y75483721D01*
X5456779Y59336500D02*
X5131221Y59336500D01*
X5456779Y60356500D02*
X5131221Y60356500D01*
X22476579Y68819300D02*
X22151021Y68819300D01*
X22476579Y69839300D02*
X22151021Y69839300D01*
X13909221Y43699000D02*
X14234779Y43699000D01*
X13909221Y42679000D02*
X14234779Y42679000D01*
X60234779Y28428800D02*
X59909221Y28428800D01*
X60234779Y29448800D02*
X59909221Y29448800D01*
X91495221Y36803900D02*
X91820779Y36803900D01*
X91495221Y35783900D02*
X91820779Y35783900D01*
X88051000Y19683721D02*
X88051000Y20009279D01*
X89071000Y19683721D02*
X89071000Y20009279D01*
X90938821Y11458700D02*
X91264379Y11458700D01*
X90938821Y10438700D02*
X91264379Y10438700D01*
X89535721Y26506500D02*
X89861279Y26506500D01*
X89535721Y25486500D02*
X89861279Y25486500D01*
X50231221Y47438000D02*
X50556779Y47438000D01*
X50231221Y46418000D02*
X50556779Y46418000D01*
X58029021Y55870800D02*
X58354579Y55870800D01*
X58029021Y54850800D02*
X58354579Y54850800D01*
X75059421Y40781700D02*
X75384979Y40781700D01*
X75059421Y39761700D02*
X75384979Y39761700D01*
X88251000Y44947721D02*
X88251000Y45273279D01*
X89271000Y44947721D02*
X89271000Y45273279D01*
X33171000Y44296779D02*
X33171000Y43971221D01*
X32151000Y44296779D02*
X32151000Y43971221D01*
X88232500Y11605221D02*
X88232500Y11930779D01*
X89252500Y11605221D02*
X89252500Y11930779D01*
X17351000Y91696221D02*
X17351000Y92021779D01*
X18371000Y91696221D02*
X18371000Y92021779D01*
X32201000Y48746221D02*
X32201000Y49071779D01*
X33221000Y48746221D02*
X33221000Y49071779D01*
X75821421Y42356500D02*
X76146979Y42356500D01*
X75821421Y41336500D02*
X76146979Y41336500D01*
X33214400Y93242921D02*
X33214400Y93568479D01*
X34234400Y93242921D02*
X34234400Y93568479D01*
X33073779Y90461500D02*
X32748221Y90461500D01*
X33073779Y91481500D02*
X32748221Y91481500D01*
X77700193Y37669258D02*
X77469988Y37899463D01*
X78421442Y38390507D02*
X78191237Y38620712D01*
X60209379Y21939100D02*
X59883821Y21939100D01*
X60209379Y22959100D02*
X59883821Y22959100D01*
X87876400Y24268679D02*
X87876400Y23943121D01*
X86856400Y24268679D02*
X86856400Y23943121D01*
X75059421Y15534100D02*
X75384979Y15534100D01*
X75059421Y14514100D02*
X75384979Y14514100D01*
X38229279Y36483500D02*
X37903721Y36483500D01*
X38229279Y37503500D02*
X37903721Y37503500D01*
X30096779Y45337000D02*
X29771221Y45337000D01*
X30096779Y46357000D02*
X29771221Y46357000D01*
X22743279Y70356000D02*
X22417721Y70356000D01*
X22743279Y71376000D02*
X22417721Y71376000D01*
X9781000Y66164779D02*
X9781000Y65839221D01*
X8761000Y66164779D02*
X8761000Y65839221D01*
X20444337Y73939412D02*
X20674542Y73709207D01*
X19723088Y73218163D02*
X19953293Y72987958D01*
X7161400Y60519121D02*
X7161400Y60844679D01*
X8181400Y60519121D02*
X8181400Y60844679D01*
X18743821Y89982900D02*
X19069379Y89982900D01*
X18743821Y88962900D02*
X19069379Y88962900D01*
X91135721Y51481500D02*
X91461279Y51481500D01*
X91135721Y50461500D02*
X91461279Y50461500D01*
X9446000Y75204779D02*
X9446000Y74879221D01*
X8426000Y75204779D02*
X8426000Y74879221D01*
X50154821Y55845400D02*
X50480379Y55845400D01*
X50154821Y54825400D02*
X50480379Y54825400D01*
X13833221Y35253500D02*
X14158779Y35253500D01*
X13833221Y34233500D02*
X14158779Y34233500D01*
X75669021Y17058100D02*
X75994579Y17058100D01*
X75669021Y16038100D02*
X75994579Y16038100D01*
X75287821Y65064100D02*
X75613379Y65064100D01*
X75287821Y64044100D02*
X75613379Y64044100D01*
X77598593Y12167658D02*
X77368388Y12397863D01*
X78319842Y12888907D02*
X78089637Y13119112D01*
X88201000Y69533721D02*
X88201000Y69859279D01*
X89221000Y69533721D02*
X89221000Y69859279D01*
X87141000Y59894721D02*
X87141000Y60220279D01*
X88161000Y59894721D02*
X88161000Y60220279D01*
X88826000Y56908721D02*
X88826000Y57234279D01*
X89846000Y56908721D02*
X89846000Y57234279D01*
X96646000Y75109279D02*
X96646000Y74783721D01*
X95626000Y75109279D02*
X95626000Y74783721D01*
X13896721Y26617500D02*
X14222279Y26617500D01*
X13896721Y25597500D02*
X14222279Y25597500D01*
X58041721Y47438000D02*
X58367279Y47438000D01*
X58041721Y46418000D02*
X58367279Y46418000D01*
X27951000Y77783721D02*
X27951000Y78109279D01*
X28971000Y77783721D02*
X28971000Y78109279D01*
X23497779Y90386500D02*
X23172221Y90386500D01*
X23497779Y91406500D02*
X23172221Y91406500D01*
X17898936Y63016500D02*
X19103064Y63016500D01*
X17898936Y61196500D02*
X19103064Y61196500D01*
X17922136Y77808500D02*
X19126264Y77808500D01*
X17922136Y75988500D02*
X19126264Y75988500D01*
X80020264Y23286500D02*
X78816136Y23286500D01*
X80020264Y25106500D02*
X78816136Y25106500D01*
X80172664Y33824500D02*
X78968536Y33824500D01*
X80172664Y35644500D02*
X78968536Y35644500D01*
X80172664Y72886500D02*
X78968536Y72886500D01*
X80172664Y74706500D02*
X78968536Y74706500D01*
X20625400Y82296164D02*
X20625400Y81092036D01*
X18805400Y82296164D02*
X18805400Y81092036D01*
X80180264Y58208500D02*
X78976136Y58208500D01*
X80180264Y60028500D02*
X78976136Y60028500D01*
X35052600Y82296164D02*
X35052600Y81092036D01*
X33232600Y82296164D02*
X33232600Y81092036D01*
X59018000Y94857636D02*
X59018000Y96061764D01*
X60838000Y94857636D02*
X60838000Y96061764D01*
X80020264Y8424500D02*
X78816136Y8424500D01*
X80020264Y10244500D02*
X78816136Y10244500D01*
X80172664Y48786500D02*
X78968536Y48786500D01*
X80172664Y50606500D02*
X78968536Y50606500D01*
X74101800Y94520836D02*
X74101800Y95724964D01*
X75921800Y94520836D02*
X75921800Y95724964D01*
X47248000Y94658036D02*
X47248000Y95862164D01*
X49068000Y94658036D02*
X49068000Y95862164D01*
X50701000Y49296221D02*
X50701000Y49621779D01*
X51721000Y49296221D02*
X51721000Y49621779D01*
X19611279Y47736500D02*
X19285721Y47736500D01*
X19611279Y48756500D02*
X19285721Y48756500D01*
X41636279Y11136500D02*
X41310721Y11136500D01*
X41636279Y12156500D02*
X41310721Y12156500D01*
X56321000Y41209279D02*
X56321000Y40883721D01*
X55301000Y41209279D02*
X55301000Y40883721D01*
X58401000Y40885221D02*
X58401000Y41210779D01*
X59421000Y40885221D02*
X59421000Y41210779D01*
X11301000Y20046221D02*
X11301000Y20371779D01*
X12321000Y20046221D02*
X12321000Y20371779D01*
X19410721Y51256500D02*
X19736279Y51256500D01*
X19410721Y50236500D02*
X19736279Y50236500D01*
X19185721Y52956500D02*
X19511279Y52956500D01*
X19185721Y51936500D02*
X19511279Y51936500D01*
X29448221Y33006500D02*
X29773779Y33006500D01*
X29448221Y31986500D02*
X29773779Y31986500D01*
X41673779Y33486500D02*
X41348221Y33486500D01*
X41673779Y34506500D02*
X41348221Y34506500D01*
X48671000Y49621779D02*
X48671000Y49296221D01*
X47651000Y49621779D02*
X47651000Y49296221D01*
X11238000Y28649721D02*
X11238000Y28975279D01*
X12258000Y28649721D02*
X12258000Y28975279D01*
X50701000Y32503221D02*
X50701000Y32828779D01*
X51721000Y32503221D02*
X51721000Y32828779D01*
X58838200Y18539921D02*
X58838200Y18865479D01*
X59858200Y18539921D02*
X59858200Y18865479D01*
X60209379Y20415100D02*
X59883821Y20415100D01*
X60209379Y21435100D02*
X59883821Y21435100D01*
X66854800Y79131279D02*
X66854800Y78805721D01*
X65834800Y79131279D02*
X65834800Y78805721D01*
X42826400Y80782279D02*
X42826400Y80456721D01*
X41806400Y80782279D02*
X41806400Y80456721D01*
X44401200Y86979879D02*
X44401200Y86654321D01*
X43381200Y86979879D02*
X43381200Y86654321D01*
X58787400Y11910521D02*
X58787400Y12236079D01*
X59807400Y11910521D02*
X59807400Y12236079D01*
X60209379Y13785700D02*
X59883821Y13785700D01*
X60209379Y14805700D02*
X59883821Y14805700D01*
X15369500Y20390279D02*
X15369500Y20064721D01*
X14349500Y20390279D02*
X14349500Y20064721D01*
X37321000Y13996779D02*
X37321000Y13671221D01*
X36301000Y13996779D02*
X36301000Y13671221D01*
X48621000Y32809279D02*
X48621000Y32483721D01*
X47601000Y32809279D02*
X47601000Y32483721D01*
X58812800Y25029621D02*
X58812800Y25355179D01*
X59832800Y25029621D02*
X59832800Y25355179D01*
X38301000Y13671221D02*
X38301000Y13996779D01*
X39321000Y13671221D02*
X39321000Y13996779D01*
X21321000Y13996779D02*
X21321000Y13671221D01*
X20301000Y13996779D02*
X20301000Y13671221D01*
X22301000Y13671221D02*
X22301000Y13996779D01*
X23321000Y13671221D02*
X23321000Y13996779D01*
X29321000Y13996779D02*
X29321000Y13671221D01*
X28301000Y13996779D02*
X28301000Y13671221D01*
X13321000Y13921779D02*
X13321000Y13596221D01*
X12301000Y13921779D02*
X12301000Y13596221D01*
X15306000Y28971779D02*
X15306000Y28646221D01*
X14286000Y28971779D02*
X14286000Y28646221D01*
X60273779Y30336500D02*
X59948221Y30336500D01*
X60273779Y31356500D02*
X59948221Y31356500D01*
X11238000Y37146221D02*
X11238000Y37471779D01*
X12258000Y37146221D02*
X12258000Y37471779D01*
X15433000Y37484279D02*
X15433000Y37158721D01*
X14413000Y37484279D02*
X14413000Y37158721D01*
X60234779Y26904800D02*
X59909221Y26904800D01*
X60234779Y27924800D02*
X59909221Y27924800D01*
X55021000Y80546779D02*
X55021000Y80221221D01*
X54001000Y80546779D02*
X54001000Y80221221D01*
X56605900Y86802279D02*
X56605900Y86476721D01*
X55585900Y86802279D02*
X55585900Y86476721D01*
X50701000Y40921221D02*
X50701000Y41246779D01*
X51721000Y40921221D02*
X51721000Y41246779D01*
X29448221Y34506500D02*
X29773779Y34506500D01*
X29448221Y33486500D02*
X29773779Y33486500D01*
X41673779Y31536500D02*
X41348221Y31536500D01*
X41673779Y32556500D02*
X41348221Y32556500D01*
X14301000Y13596221D02*
X14301000Y13921779D01*
X15321000Y13596221D02*
X15321000Y13921779D01*
X48621000Y41259279D02*
X48621000Y40933721D01*
X47601000Y41259279D02*
X47601000Y40933721D01*
X58451000Y49296221D02*
X58451000Y49621779D01*
X59471000Y49296221D02*
X59471000Y49621779D01*
X56371000Y49621779D02*
X56371000Y49296221D01*
X55351000Y49621779D02*
X55351000Y49296221D01*
X30301000Y13596221D02*
X30301000Y13921779D01*
X31321000Y13596221D02*
X31321000Y13921779D01*
X68658200Y84770279D02*
X68658200Y84444721D01*
X67638200Y84770279D02*
X67638200Y84444721D01*
X33740600Y86796836D02*
X33740600Y88000964D01*
X35560600Y86796836D02*
X35560600Y88000964D01*
X14651400Y59916164D02*
X14651400Y58712036D01*
X12831400Y59916164D02*
X12831400Y58712036D01*
X13583064Y76191700D02*
X12378936Y76191700D01*
X13583064Y78011700D02*
X12378936Y78011700D01*
X83138600Y26403236D02*
X83138600Y27607364D01*
X84958600Y26403236D02*
X84958600Y27607364D01*
X84571736Y10092100D02*
X85775864Y10092100D01*
X84571736Y8272100D02*
X85775864Y8272100D01*
X83240200Y51818436D02*
X83240200Y53022564D01*
X85060200Y51818436D02*
X85060200Y53022564D01*
X84302536Y35034900D02*
X85506664Y35034900D01*
X84302536Y33214900D02*
X85506664Y33214900D01*
X83418000Y76075436D02*
X83418000Y77279564D01*
X85238000Y76075436D02*
X85238000Y77279564D01*
X85111000Y57909564D02*
X85111000Y56705436D01*
X83291000Y57909564D02*
X83291000Y56705436D01*
X17414264Y85312900D02*
X16210136Y85312900D01*
X17414264Y87132900D02*
X16210136Y87132900D01*
X48716500Y29436000D02*
X48716500Y26896000D01*
X48716500Y29436000D02*
X46176500Y29436000D01*
X48466500Y29186000D02*
X48466500Y19836000D01*
X25066500Y29186000D02*
X48466500Y29186000D01*
X25066500Y19836000D02*
X25066500Y29186000D01*
X48466500Y19836000D02*
X25066500Y19836000D01*
X95380500Y82673500D02*
X96710500Y82673500D01*
X95380500Y81343500D02*
X95380500Y82673500D01*
X95380500Y80073500D02*
X98040500Y80073500D01*
X98040500Y80073500D02*
X98040500Y77473500D01*
X95380500Y80073500D02*
X95380500Y77473500D01*
X95380500Y77473500D02*
X98040500Y77473500D01*
X95380500Y89023500D02*
X96710500Y89023500D01*
X95380500Y87693500D02*
X95380500Y89023500D01*
X95380500Y86423500D02*
X98040500Y86423500D01*
X98040500Y86423500D02*
X98040500Y83823500D01*
X95380500Y86423500D02*
X95380500Y83823500D01*
X95380500Y83823500D02*
X98040500Y83823500D01*
X27340500Y47666500D02*
X27315500Y47666500D01*
X27315500Y47666500D02*
X27315500Y51266500D01*
X27315500Y51266500D02*
X27340500Y51266500D01*
X30190500Y46941500D02*
X30190500Y47666500D01*
X30190500Y47666500D02*
X30215500Y47666500D01*
X30215500Y47666500D02*
X30215500Y51266500D01*
X30215500Y51266500D02*
X30190500Y51266500D01*
X28890500Y46941500D02*
X28890500Y47666500D01*
X28890500Y47666500D02*
X28640500Y47666500D01*
X28640500Y51266500D02*
X28890500Y51266500D01*
X49139800Y60252300D02*
X49139800Y61582300D01*
X50469800Y60252300D02*
X49139800Y60252300D01*
X51739800Y60252300D02*
X51739800Y62912300D01*
X51739800Y62912300D02*
X56879800Y62912300D01*
X51739800Y60252300D02*
X56879800Y60252300D01*
X56879800Y60252300D02*
X56879800Y62912300D01*
X58842600Y60303100D02*
X58842600Y61633100D01*
X60172600Y60303100D02*
X58842600Y60303100D01*
X61442600Y60303100D02*
X61442600Y62963100D01*
X61442600Y62963100D02*
X66582600Y62963100D01*
X61442600Y60303100D02*
X66582600Y60303100D01*
X66582600Y60303100D02*
X66582600Y62963100D01*
X51933800Y66500700D02*
X51933800Y67830700D01*
X53263800Y66500700D02*
X51933800Y66500700D01*
X54533800Y66500700D02*
X54533800Y69160700D01*
X54533800Y69160700D02*
X67293800Y69160700D01*
X54533800Y66500700D02*
X67293800Y66500700D01*
X67293800Y66500700D02*
X67293800Y69160700D01*
X51883000Y70640900D02*
X51883000Y71970900D01*
X53213000Y70640900D02*
X51883000Y70640900D01*
X54483000Y70640900D02*
X54483000Y73300900D01*
X54483000Y73300900D02*
X67243000Y73300900D01*
X54483000Y70640900D02*
X67243000Y70640900D01*
X67243000Y70640900D02*
X67243000Y73300900D01*
X15580400Y47993900D02*
X17850400Y47993900D01*
X17850400Y47993900D02*
X17850400Y49513900D01*
X17850400Y49513900D02*
X15580400Y49513900D01*
X15561000Y51186500D02*
X17831000Y51186500D01*
X17831000Y51186500D02*
X17831000Y52706500D01*
X17831000Y52706500D02*
X15561000Y52706500D01*
X15561000Y49586500D02*
X17831000Y49586500D01*
X17831000Y49586500D02*
X17831000Y51106500D01*
X17831000Y51106500D02*
X15561000Y51106500D01*
X44621000Y9846500D02*
X44621000Y12116500D01*
X44621000Y12116500D02*
X43101000Y12116500D01*
X43101000Y12116500D02*
X43101000Y9846500D01*
X71287400Y86233900D02*
X68137400Y86233900D01*
X71287400Y87933900D02*
X68137400Y87933900D01*
X71287400Y86233900D02*
X71287400Y87933900D01*
X47061000Y88446500D02*
X43911000Y88446500D01*
X47061000Y90146500D02*
X43911000Y90146500D01*
X47061000Y88446500D02*
X47061000Y90146500D01*
X59261000Y88265900D02*
X56111000Y88265900D01*
X59261000Y89965900D02*
X56111000Y89965900D01*
X59261000Y88265900D02*
X59261000Y89965900D01*
X7911000Y10646500D02*
X11061000Y10646500D01*
X7911000Y8946500D02*
X11061000Y8946500D01*
X7911000Y10646500D02*
X7911000Y8946500D01*
X23911000Y10646500D02*
X27061000Y10646500D01*
X23911000Y8946500D02*
X27061000Y8946500D01*
X23911000Y10646500D02*
X23911000Y8946500D01*
X15911000Y10692500D02*
X19061000Y10692500D01*
X15911000Y8992500D02*
X19061000Y8992500D01*
X15911000Y10692500D02*
X15911000Y8992500D01*
X31911000Y10646500D02*
X35061000Y10646500D01*
X31911000Y8946500D02*
X35061000Y8946500D01*
X31911000Y10646500D02*
X31911000Y8946500D01*
X10731000Y44716500D02*
X10731000Y46046500D01*
X12061000Y44716500D02*
X10731000Y44716500D01*
X13331000Y44716500D02*
X13331000Y47376500D01*
X13331000Y47376500D02*
X15931000Y47376500D01*
X13331000Y44716500D02*
X15931000Y44716500D01*
X15931000Y44716500D02*
X15931000Y47376500D01*
X67731000Y28766500D02*
X69061000Y28766500D01*
X67731000Y27436500D02*
X67731000Y28766500D01*
X67731000Y26166500D02*
X70391000Y26166500D01*
X70391000Y26166500D02*
X70391000Y23566500D01*
X67731000Y26166500D02*
X67731000Y23566500D01*
X67731000Y23566500D02*
X70391000Y23566500D01*
D11*
X86240599Y13614200D02*
X86240599Y14064200D01*
X78890599Y13614200D02*
X78890599Y14164200D01*
X78890599Y20964200D02*
X78890599Y20414200D01*
X86240599Y20964200D02*
X86240599Y20414200D01*
X86240599Y13614200D02*
X85690599Y13614200D01*
X86240599Y20964200D02*
X85690599Y20964200D01*
X78890599Y20964200D02*
X79440599Y20964200D01*
X78890599Y13614200D02*
X79440599Y13614200D01*
X86240599Y14064200D02*
X87515599Y14064200D01*
X11692201Y72424800D02*
X11692201Y71974800D01*
X19042201Y72424800D02*
X19042201Y71874800D01*
X19042201Y65074800D02*
X19042201Y65624800D01*
X11692201Y65074800D02*
X11692201Y65624800D01*
X11692201Y72424800D02*
X12242201Y72424800D01*
X11692201Y65074800D02*
X12242201Y65074800D01*
X19042201Y65074800D02*
X18492201Y65074800D01*
X19042201Y72424800D02*
X18492201Y72424800D01*
X11692201Y71974800D02*
X10417201Y71974800D01*
X86379399Y38994200D02*
X86379399Y39444200D01*
X79029399Y38994200D02*
X79029399Y39544200D01*
X79029399Y46344200D02*
X79029399Y45794200D01*
X86379399Y46344200D02*
X86379399Y45794200D01*
X86379399Y38994200D02*
X85829399Y38994200D01*
X86379399Y46344200D02*
X85829399Y46344200D01*
X79029399Y46344200D02*
X79579399Y46344200D01*
X79029399Y38994200D02*
X79579399Y38994200D01*
X86379399Y39444200D02*
X87654399Y39444200D01*
X86392999Y63367000D02*
X86392999Y63817000D01*
X79042999Y63367000D02*
X79042999Y63917000D01*
X79042999Y70717000D02*
X79042999Y70167000D01*
X86392999Y70717000D02*
X86392999Y70167000D01*
X86392999Y63367000D02*
X85842999Y63367000D01*
X86392999Y70717000D02*
X85842999Y70717000D01*
X79042999Y70717000D02*
X79592999Y70717000D01*
X79042999Y63367000D02*
X79592999Y63367000D01*
X86392999Y63817000D02*
X87667999Y63817000D01*
X29832100Y88486099D02*
X29382100Y88486099D01*
X29832100Y81136099D02*
X29282100Y81136099D01*
X22482100Y81136099D02*
X23032100Y81136099D01*
X22482100Y88486099D02*
X23032100Y88486099D01*
X29832100Y88486099D02*
X29832100Y87936099D01*
X22482100Y88486099D02*
X22482100Y87936099D01*
X22482100Y81136099D02*
X22482100Y81686099D01*
X29832100Y81136099D02*
X29832100Y81686099D01*
X29382100Y88486099D02*
X29382100Y89761099D01*
D15*
X8954750Y84355250D02*
X8954750Y85142750D01*
X9348500Y84749000D02*
X8561000Y84749000D01*
X8321000Y88942063D02*
X7256563Y90006500D01*
X8321000Y84250937D02*
X7256563Y83186500D01*
X8321000Y84250937D02*
X8321000Y85536500D01*
X8321000Y88942063D02*
X8321000Y87656500D01*
X7256563Y90006500D02*
X1501000Y90006500D01*
X7256563Y83186500D02*
X1501000Y83186500D01*
X1501000Y83186500D02*
X1501000Y85536500D01*
X1501000Y90006500D02*
X1501000Y87656500D01*
X43131200Y84670700D02*
X43131200Y82400700D01*
X43131200Y82400700D02*
X44651200Y82400700D01*
X44651200Y82400700D02*
X44651200Y84670700D01*
X14095500Y36496500D02*
X14095500Y38766500D01*
X14095500Y38766500D02*
X12575500Y38766500D01*
X12575500Y38766500D02*
X12575500Y36496500D01*
X67388200Y82410300D02*
X67388200Y80140300D01*
X67388200Y80140300D02*
X68908200Y80140300D01*
X68908200Y80140300D02*
X68908200Y82410300D01*
X50430000Y40311500D02*
X50430000Y42581500D01*
X50430000Y42581500D02*
X48910000Y42581500D01*
X48910000Y42581500D02*
X48910000Y40311500D01*
X58171000Y48696500D02*
X58171000Y50966500D01*
X58171000Y50966500D02*
X56651000Y50966500D01*
X56651000Y50966500D02*
X56651000Y48696500D01*
X14032000Y27974500D02*
X14032000Y30244500D01*
X14032000Y30244500D02*
X12512000Y30244500D01*
X12512000Y30244500D02*
X12512000Y27974500D01*
X50430000Y48680600D02*
X50430000Y50950600D01*
X50430000Y50950600D02*
X48910000Y50950600D01*
X48910000Y50950600D02*
X48910000Y48680600D01*
X14095500Y19427500D02*
X14095500Y21697500D01*
X14095500Y21697500D02*
X12575500Y21697500D01*
X12575500Y21697500D02*
X12575500Y19427500D01*
X58121000Y40246500D02*
X58121000Y42516500D01*
X58121000Y42516500D02*
X56601000Y42516500D01*
X56601000Y42516500D02*
X56601000Y40246500D01*
X50430000Y31878500D02*
X50430000Y34148500D01*
X50430000Y34148500D02*
X48910000Y34148500D01*
X48910000Y34148500D02*
X48910000Y31878500D01*
X55335900Y84467500D02*
X55335900Y82197500D01*
X55335900Y82197500D02*
X56855900Y82197500D01*
X56855900Y82197500D02*
X56855900Y84467500D01*
X69026982Y95451256D02*
G75*
G02X69710300Y95596500I683318J-1534756D01*
G01*
X68174874Y93233458D02*
G75*
G02X68175300Y94600500I1535426J683042D01*
G01*
X70393342Y92381074D02*
G75*
G02X69026300Y92381500I-683042J1535426D01*
G01*
X71245726Y94599542D02*
G75*
G02X71245300Y93232500I-1535426J-683042D01*
G01*
X69681495Y95596753D02*
G75*
G02X70394300Y95451500I28805J-1680253D01*
G01*
X66310300Y93916500D02*
G75*
G03X66310300Y93916500I-1680000J0D01*
G01*
X72310300Y98016500D02*
X62030300Y98016500D01*
X72310300Y96516500D02*
X62030300Y96516500D01*
X72310300Y91615500D02*
X62030300Y91615500D01*
X72310300Y88655500D02*
X62030300Y88655500D01*
X72310300Y98576500D02*
X62030300Y98576500D01*
X72310300Y88655500D02*
X72310300Y98576500D01*
X62030300Y88655500D02*
X62030300Y98576500D01*
X63355300Y92847500D02*
X63402300Y92893500D01*
X65664300Y95155500D02*
X65699300Y95190500D01*
X63560300Y92641500D02*
X63595300Y92677500D01*
X65857300Y94939500D02*
X65904300Y94985500D01*
X72550300Y98076500D02*
X72550300Y98816500D01*
X72550300Y98816500D02*
X72050300Y98816500D01*
X43204136Y95315821D02*
G75*
G02X44094400Y95571100I890264J-1424721D01*
G01*
X42668895Y93000907D02*
G75*
G02X42669400Y94782100I1425505J890193D01*
G01*
X44984294Y92465742D02*
G75*
G02X43228400Y92451100I-889894J1425358D01*
G01*
X45519758Y94780994D02*
G75*
G02X45534400Y93025100I-1425358J-889894D01*
G01*
X44065726Y95571199D02*
G75*
G02X44960400Y95331100I28674J-1680099D01*
G01*
X42274400Y93891100D02*
G75*
G03X42274400Y93891100I-1680000J0D01*
G01*
X45904400Y97991100D02*
X38784400Y97991100D01*
X45904400Y96891100D02*
X38784400Y96891100D01*
X45904400Y90731100D02*
X38784400Y90731100D01*
X45904400Y98451100D02*
X38784400Y98451100D01*
X45904400Y90731100D02*
X45904400Y98451100D01*
X38784400Y90731100D02*
X38784400Y98451100D01*
X39319400Y92822100D02*
X39448400Y92950100D01*
X41569400Y95072100D02*
X41663400Y95165100D01*
X39524400Y92616100D02*
X39618400Y92710100D01*
X41739400Y94832100D02*
X41868400Y94960100D01*
X46144400Y98051100D02*
X46144400Y98691100D01*
X46144400Y98691100D02*
X45744400Y98691100D01*
X55408836Y95163421D02*
G75*
G02X56299100Y95418700I890264J-1424721D01*
G01*
X54873595Y92848507D02*
G75*
G02X54874100Y94629700I1425505J890193D01*
G01*
X57188994Y92313342D02*
G75*
G02X55433100Y92298700I-889894J1425358D01*
G01*
X57724458Y94628594D02*
G75*
G02X57739100Y92872700I-1425358J-889894D01*
G01*
X56270426Y95418799D02*
G75*
G02X57165100Y95178700I28674J-1680099D01*
G01*
X54479100Y93738700D02*
G75*
G03X54479100Y93738700I-1680000J0D01*
G01*
X58109100Y97838700D02*
X50989100Y97838700D01*
X58109100Y96738700D02*
X50989100Y96738700D01*
X58109100Y90578700D02*
X50989100Y90578700D01*
X58109100Y98298700D02*
X50989100Y98298700D01*
X58109100Y90578700D02*
X58109100Y98298700D01*
X50989100Y90578700D02*
X50989100Y98298700D01*
X51524100Y92669700D02*
X51653100Y92797700D01*
X53774100Y94919700D02*
X53868100Y95012700D01*
X51729100Y92463700D02*
X51823100Y92557700D01*
X53944100Y94679700D02*
X54073100Y94807700D01*
X58349100Y97898700D02*
X58349100Y98538700D01*
X58349100Y98538700D02*
X57949100Y98538700D01*
X10951264Y3744179D02*
G75*
G02X10061000Y3488900I-890264J1424721D01*
G01*
X11486505Y6059093D02*
G75*
G02X11486000Y4277900I-1425505J-890193D01*
G01*
X9171106Y6594258D02*
G75*
G02X10927000Y6608900I889894J-1425358D01*
G01*
X8635642Y4279006D02*
G75*
G02X8621000Y6034900I1425358J889894D01*
G01*
X10089674Y3488801D02*
G75*
G02X9195000Y3728900I-28674J1680099D01*
G01*
X15241000Y5168900D02*
G75*
G03X15241000Y5168900I-1680000J0D01*
G01*
X8251000Y1068900D02*
X15371000Y1068900D01*
X8251000Y2168900D02*
X15371000Y2168900D01*
X8251000Y8328900D02*
X15371000Y8328900D01*
X8251000Y608900D02*
X15371000Y608900D01*
X8251000Y8328900D02*
X8251000Y608900D01*
X15371000Y8328900D02*
X15371000Y608900D01*
X14836000Y6237900D02*
X14707000Y6109900D01*
X12586000Y3987900D02*
X12492000Y3894900D01*
X14631000Y6443900D02*
X14537000Y6349900D01*
X12416000Y4227900D02*
X12287000Y4099900D01*
X8011000Y1008900D02*
X8011000Y368900D01*
X8011000Y368900D02*
X8411000Y368900D01*
X42951264Y3732279D02*
G75*
G02X42061000Y3477000I-890264J1424721D01*
G01*
X43486505Y6047193D02*
G75*
G02X43486000Y4266000I-1425505J-890193D01*
G01*
X41171106Y6582358D02*
G75*
G02X42927000Y6597000I889894J-1425358D01*
G01*
X40635642Y4267106D02*
G75*
G02X40621000Y6023000I1425358J889894D01*
G01*
X42089674Y3476901D02*
G75*
G02X41195000Y3717000I-28674J1680099D01*
G01*
X47241000Y5157000D02*
G75*
G03X47241000Y5157000I-1680000J0D01*
G01*
X40251000Y1057000D02*
X47371000Y1057000D01*
X40251000Y2157000D02*
X47371000Y2157000D01*
X40251000Y8317000D02*
X47371000Y8317000D01*
X40251000Y597000D02*
X47371000Y597000D01*
X40251000Y8317000D02*
X40251000Y597000D01*
X47371000Y8317000D02*
X47371000Y597000D01*
X46836000Y6226000D02*
X46707000Y6098000D01*
X44586000Y3976000D02*
X44492000Y3883000D01*
X46631000Y6432000D02*
X46537000Y6338000D01*
X44416000Y4216000D02*
X44287000Y4088000D01*
X40011000Y997000D02*
X40011000Y357000D01*
X40011000Y357000D02*
X40411000Y357000D01*
X50951264Y3732279D02*
G75*
G02X50061000Y3477000I-890264J1424721D01*
G01*
X51486505Y6047193D02*
G75*
G02X51486000Y4266000I-1425505J-890193D01*
G01*
X49171106Y6582358D02*
G75*
G02X50927000Y6597000I889894J-1425358D01*
G01*
X48635642Y4267106D02*
G75*
G02X48621000Y6023000I1425358J889894D01*
G01*
X50089674Y3476901D02*
G75*
G02X49195000Y3717000I-28674J1680099D01*
G01*
X55241000Y5157000D02*
G75*
G03X55241000Y5157000I-1680000J0D01*
G01*
X48251000Y1057000D02*
X55371000Y1057000D01*
X48251000Y2157000D02*
X55371000Y2157000D01*
X48251000Y8317000D02*
X55371000Y8317000D01*
X48251000Y597000D02*
X55371000Y597000D01*
X48251000Y8317000D02*
X48251000Y597000D01*
X55371000Y8317000D02*
X55371000Y597000D01*
X54836000Y6226000D02*
X54707000Y6098000D01*
X52586000Y3976000D02*
X52492000Y3883000D01*
X54631000Y6432000D02*
X54537000Y6338000D01*
X52416000Y4216000D02*
X52287000Y4088000D01*
X48011000Y997000D02*
X48011000Y357000D01*
X48011000Y357000D02*
X48411000Y357000D01*
X34951264Y3732279D02*
G75*
G02X34061000Y3477000I-890264J1424721D01*
G01*
X35486505Y6047193D02*
G75*
G02X35486000Y4266000I-1425505J-890193D01*
G01*
X33171106Y6582358D02*
G75*
G02X34927000Y6597000I889894J-1425358D01*
G01*
X32635642Y4267106D02*
G75*
G02X32621000Y6023000I1425358J889894D01*
G01*
X34089674Y3476901D02*
G75*
G02X33195000Y3717000I-28674J1680099D01*
G01*
X39241000Y5157000D02*
G75*
G03X39241000Y5157000I-1680000J0D01*
G01*
X32251000Y1057000D02*
X39371000Y1057000D01*
X32251000Y2157000D02*
X39371000Y2157000D01*
X32251000Y8317000D02*
X39371000Y8317000D01*
X32251000Y597000D02*
X39371000Y597000D01*
X32251000Y8317000D02*
X32251000Y597000D01*
X39371000Y8317000D02*
X39371000Y597000D01*
X38836000Y6226000D02*
X38707000Y6098000D01*
X36586000Y3976000D02*
X36492000Y3883000D01*
X38631000Y6432000D02*
X38537000Y6338000D01*
X36416000Y4216000D02*
X36287000Y4088000D01*
X32011000Y997000D02*
X32011000Y357000D01*
X32011000Y357000D02*
X32411000Y357000D01*
X18951264Y3740879D02*
G75*
G02X18061000Y3485600I-890264J1424721D01*
G01*
X19486505Y6055793D02*
G75*
G02X19486000Y4274600I-1425505J-890193D01*
G01*
X17171106Y6590958D02*
G75*
G02X18927000Y6605600I889894J-1425358D01*
G01*
X16635642Y4275706D02*
G75*
G02X16621000Y6031600I1425358J889894D01*
G01*
X18089674Y3485501D02*
G75*
G02X17195000Y3725600I-28674J1680099D01*
G01*
X23241000Y5165600D02*
G75*
G03X23241000Y5165600I-1680000J0D01*
G01*
X16251000Y1065600D02*
X23371000Y1065600D01*
X16251000Y2165600D02*
X23371000Y2165600D01*
X16251000Y8325600D02*
X23371000Y8325600D01*
X16251000Y605600D02*
X23371000Y605600D01*
X16251000Y8325600D02*
X16251000Y605600D01*
X23371000Y8325600D02*
X23371000Y605600D01*
X22836000Y6234600D02*
X22707000Y6106600D01*
X20586000Y3984600D02*
X20492000Y3891600D01*
X22631000Y6440600D02*
X22537000Y6346600D01*
X20416000Y4224600D02*
X20287000Y4096600D01*
X16011000Y1005600D02*
X16011000Y365600D01*
X16011000Y365600D02*
X16411000Y365600D01*
X12270736Y95341221D02*
G75*
G02X13161000Y95596500I890264J-1424721D01*
G01*
X11735495Y93026307D02*
G75*
G02X11736000Y94807500I1425505J890193D01*
G01*
X14050894Y92491142D02*
G75*
G02X12295000Y92476500I-889894J1425358D01*
G01*
X14586358Y94806394D02*
G75*
G02X14601000Y93050500I-1425358J-889894D01*
G01*
X13132326Y95596599D02*
G75*
G02X14027000Y95356500I28674J-1680099D01*
G01*
X11341000Y93916500D02*
G75*
G03X11341000Y93916500I-1680000J0D01*
G01*
X14971000Y98016500D02*
X7851000Y98016500D01*
X14971000Y96916500D02*
X7851000Y96916500D01*
X14971000Y90756500D02*
X7851000Y90756500D01*
X14971000Y98476500D02*
X7851000Y98476500D01*
X14971000Y90756500D02*
X14971000Y98476500D01*
X7851000Y90756500D02*
X7851000Y98476500D01*
X8386000Y92847500D02*
X8515000Y92975500D01*
X10636000Y95097500D02*
X10730000Y95190500D01*
X8591000Y92641500D02*
X8685000Y92735500D01*
X10806000Y94857500D02*
X10935000Y94985500D01*
X15211000Y98076500D02*
X15211000Y98716500D01*
X15211000Y98716500D02*
X14811000Y98716500D01*
X26951264Y3744179D02*
G75*
G02X26061000Y3488900I-890264J1424721D01*
G01*
X27486505Y6059093D02*
G75*
G02X27486000Y4277900I-1425505J-890193D01*
G01*
X25171106Y6594258D02*
G75*
G02X26927000Y6608900I889894J-1425358D01*
G01*
X24635642Y4279006D02*
G75*
G02X24621000Y6034900I1425358J889894D01*
G01*
X26089674Y3488801D02*
G75*
G02X25195000Y3728900I-28674J1680099D01*
G01*
X31241000Y5168900D02*
G75*
G03X31241000Y5168900I-1680000J0D01*
G01*
X24251000Y1068900D02*
X31371000Y1068900D01*
X24251000Y2168900D02*
X31371000Y2168900D01*
X24251000Y8328900D02*
X31371000Y8328900D01*
X24251000Y608900D02*
X31371000Y608900D01*
X24251000Y8328900D02*
X24251000Y608900D01*
X31371000Y8328900D02*
X31371000Y608900D01*
X30836000Y6237900D02*
X30707000Y6109900D01*
X28586000Y3987900D02*
X28492000Y3894900D01*
X30631000Y6443900D02*
X30537000Y6349900D01*
X28416000Y4227900D02*
X28287000Y4099900D01*
X24011000Y1008900D02*
X24011000Y368900D01*
X24011000Y368900D02*
X24411000Y368900D01*
X76329750Y73755250D02*
X76329750Y74542750D01*
X76723500Y74149000D02*
X75936000Y74149000D01*
X75696000Y78342063D02*
X74631563Y79406500D01*
X75696000Y73650937D02*
X74631563Y72586500D01*
X75696000Y73650937D02*
X75696000Y74936500D01*
X75696000Y78342063D02*
X75696000Y77056500D01*
X74631563Y79406500D02*
X68876000Y79406500D01*
X74631563Y72586500D02*
X68876000Y72586500D01*
X68876000Y72586500D02*
X68876000Y74936500D01*
X68876000Y79406500D02*
X68876000Y77056500D01*
X16877250Y59647750D02*
X16877250Y58860250D01*
X16483500Y59254000D02*
X17271000Y59254000D01*
X17511000Y55060937D02*
X18575437Y53996500D01*
X17511000Y59752063D02*
X18575437Y60816500D01*
X17511000Y59752063D02*
X17511000Y58466500D01*
X17511000Y55060937D02*
X17511000Y56346500D01*
X18575437Y53996500D02*
X24331000Y53996500D01*
X18575437Y60816500D02*
X24331000Y60816500D01*
X24331000Y60816500D02*
X24331000Y58466500D01*
X24331000Y53996500D02*
X24331000Y56346500D01*
X76454750Y30780250D02*
X76454750Y31567750D01*
X76848500Y31174000D02*
X76061000Y31174000D01*
X75821000Y35367063D02*
X74756563Y36431500D01*
X75821000Y30675937D02*
X74756563Y29611500D01*
X75821000Y30675937D02*
X75821000Y31961500D01*
X75821000Y35367063D02*
X75821000Y34081500D01*
X74756563Y36431500D02*
X69001000Y36431500D01*
X74756563Y29611500D02*
X69001000Y29611500D01*
X69001000Y29611500D02*
X69001000Y31961500D01*
X69001000Y36431500D02*
X69001000Y34081500D01*
X44452250Y75440250D02*
X43664750Y75440250D01*
X44058500Y75834000D02*
X44058500Y75046500D01*
X39865437Y74806500D02*
X38801000Y73742063D01*
X44556563Y74806500D02*
X45621000Y73742063D01*
X44556563Y74806500D02*
X43271000Y74806500D01*
X39865437Y74806500D02*
X41151000Y74806500D01*
X38801000Y73742063D02*
X38801000Y67986500D01*
X45621000Y73742063D02*
X45621000Y67986500D01*
X45621000Y67986500D02*
X43271000Y67986500D01*
X38801000Y67986500D02*
X41151000Y67986500D01*
X76404750Y55105250D02*
X76404750Y55892750D01*
X76798500Y55499000D02*
X76011000Y55499000D01*
X75771000Y59692063D02*
X74706563Y60756500D01*
X75771000Y55000937D02*
X74706563Y53936500D01*
X75771000Y55000937D02*
X75771000Y56286500D01*
X75771000Y59692063D02*
X75771000Y58406500D01*
X74706563Y60756500D02*
X68951000Y60756500D01*
X74706563Y53936500D02*
X68951000Y53936500D01*
X68951000Y53936500D02*
X68951000Y56286500D01*
X68951000Y60756500D02*
X68951000Y58406500D01*
X47832000Y43058000D02*
X47832000Y44388000D01*
X49162000Y43058000D02*
X47832000Y43058000D01*
X50432000Y43058000D02*
X50432000Y45718000D01*
X50432000Y45718000D02*
X53032000Y45718000D01*
X50432000Y43058000D02*
X53032000Y43058000D01*
X53032000Y43058000D02*
X53032000Y45718000D01*
X47844700Y34637900D02*
X47844700Y35967900D01*
X49174700Y34637900D02*
X47844700Y34637900D01*
X50444700Y34637900D02*
X50444700Y37297900D01*
X50444700Y37297900D02*
X53044700Y37297900D01*
X50444700Y34637900D02*
X53044700Y34637900D01*
X53044700Y34637900D02*
X53044700Y37297900D01*
X58087400Y17664700D02*
X56757400Y17664700D01*
X58087400Y18994700D02*
X58087400Y17664700D01*
X58087400Y20264700D02*
X55427400Y20264700D01*
X55427400Y20264700D02*
X55427400Y22864700D01*
X58087400Y20264700D02*
X58087400Y22864700D01*
X58087400Y22864700D02*
X55427400Y22864700D01*
X58087400Y11086100D02*
X56757400Y11086100D01*
X58087400Y12416100D02*
X58087400Y11086100D01*
X58087400Y13686100D02*
X55427400Y13686100D01*
X55427400Y13686100D02*
X55427400Y16286100D01*
X58087400Y13686100D02*
X58087400Y16286100D01*
X58087400Y16286100D02*
X55427400Y16286100D01*
X55566300Y43032600D02*
X55566300Y44362600D01*
X56896300Y43032600D02*
X55566300Y43032600D01*
X58166300Y43032600D02*
X58166300Y45692600D01*
X58166300Y45692600D02*
X60766300Y45692600D01*
X58166300Y43032600D02*
X60766300Y43032600D01*
X60766300Y43032600D02*
X60766300Y45692600D01*
X47832000Y51440000D02*
X47832000Y52770000D01*
X49162000Y51440000D02*
X47832000Y51440000D01*
X50432000Y51440000D02*
X50432000Y54100000D01*
X50432000Y54100000D02*
X53032000Y54100000D01*
X50432000Y51440000D02*
X53032000Y51440000D01*
X53032000Y51440000D02*
X53032000Y54100000D01*
X11408600Y30771900D02*
X11408600Y32101900D01*
X12738600Y30771900D02*
X11408600Y30771900D01*
X14008600Y30771900D02*
X14008600Y33431900D01*
X14008600Y33431900D02*
X16608600Y33431900D01*
X14008600Y30771900D02*
X16608600Y30771900D01*
X16608600Y30771900D02*
X16608600Y33431900D01*
X55604400Y51440000D02*
X55604400Y52770000D01*
X56934400Y51440000D02*
X55604400Y51440000D01*
X58204400Y51440000D02*
X58204400Y54100000D01*
X58204400Y54100000D02*
X60804400Y54100000D01*
X58204400Y51440000D02*
X60804400Y51440000D01*
X60804400Y51440000D02*
X60804400Y54100000D01*
X58112800Y24205200D02*
X56782800Y24205200D01*
X58112800Y25535200D02*
X58112800Y24205200D01*
X58112800Y26805200D02*
X55452800Y26805200D01*
X55452800Y26805200D02*
X55452800Y29405200D01*
X58112800Y26805200D02*
X58112800Y29405200D01*
X58112800Y29405200D02*
X55452800Y29405200D01*
X11446700Y39293600D02*
X11446700Y40623600D01*
X12776700Y39293600D02*
X11446700Y39293600D01*
X14046700Y39293600D02*
X14046700Y41953600D01*
X14046700Y41953600D02*
X16646700Y41953600D01*
X14046700Y39293600D02*
X16646700Y39293600D01*
X16646700Y39293600D02*
X16646700Y41953600D01*
X11522900Y22186700D02*
X11522900Y23516700D01*
X12852900Y22186700D02*
X11522900Y22186700D01*
X14122900Y22186700D02*
X14122900Y24846700D01*
X14122900Y24846700D02*
X16722900Y24846700D01*
X14122900Y22186700D02*
X16722900Y22186700D01*
X16722900Y22186700D02*
X16722900Y24846700D01*
X60391000Y676500D02*
X59061000Y676500D01*
X60391000Y2006500D02*
X60391000Y676500D01*
X60391000Y3276500D02*
X57731000Y3276500D01*
X57731000Y3276500D02*
X57731000Y8416500D01*
X60391000Y3276500D02*
X60391000Y8416500D01*
X60391000Y8416500D02*
X57731000Y8416500D01*
X91608600Y48459700D02*
X92938600Y48459700D01*
X91608600Y47129700D02*
X91608600Y48459700D01*
X91608600Y45859700D02*
X94268600Y45859700D01*
X94268600Y45859700D02*
X94268600Y38179700D01*
X91608600Y45859700D02*
X91608600Y38179700D01*
X91608600Y38179700D02*
X94268600Y38179700D01*
X90231000Y71856500D02*
X91561000Y71856500D01*
X90231000Y70526500D02*
X90231000Y71856500D01*
X90231000Y69256500D02*
X92891000Y69256500D01*
X92891000Y69256500D02*
X92891000Y61576500D01*
X90231000Y69256500D02*
X90231000Y61576500D01*
X90231000Y61576500D02*
X92891000Y61576500D01*
X95431000Y69406500D02*
X96761000Y69406500D01*
X95431000Y68076500D02*
X95431000Y69406500D01*
X95431000Y66806500D02*
X98091000Y66806500D01*
X98091000Y66806500D02*
X98091000Y59126500D01*
X95431000Y66806500D02*
X95431000Y59126500D01*
X95431000Y59126500D02*
X98091000Y59126500D01*
X91608600Y23415300D02*
X92938600Y23415300D01*
X91608600Y22085300D02*
X91608600Y23415300D01*
X91608600Y20815300D02*
X94268600Y20815300D01*
X94268600Y20815300D02*
X94268600Y13135300D01*
X91608600Y20815300D02*
X91608600Y13135300D01*
X91608600Y13135300D02*
X94268600Y13135300D01*
X6235800Y62914900D02*
X4905800Y62914900D01*
X6235800Y64244900D02*
X6235800Y62914900D01*
X6235800Y65514900D02*
X3575800Y65514900D01*
X3575800Y65514900D02*
X3575800Y73194900D01*
X6235800Y65514900D02*
X6235800Y73194900D01*
X6235800Y73194900D02*
X3575800Y73194900D01*
X23991000Y27766500D02*
X22661000Y27766500D01*
X23991000Y29096500D02*
X23991000Y27766500D01*
X23991000Y30366500D02*
X21331000Y30366500D01*
X21331000Y30366500D02*
X21331000Y38046500D01*
X23991000Y30366500D02*
X23991000Y38046500D01*
X23991000Y38046500D02*
X21331000Y38046500D01*
X19807800Y93884500D02*
X19807800Y95214500D01*
X21137800Y93884500D02*
X19807800Y93884500D01*
X22407800Y93884500D02*
X22407800Y96544500D01*
X22407800Y96544500D02*
X30087800Y96544500D01*
X22407800Y93884500D02*
X30087800Y93884500D01*
X30087800Y93884500D02*
X30087800Y96544500D01*
D11*
X42111699Y43511100D02*
X43461699Y43511100D01*
X42111699Y48636100D02*
X37461699Y48636100D01*
X42111699Y43386100D02*
X37461699Y43386100D01*
X42111699Y48636100D02*
X42111699Y48411100D01*
X37461699Y48636100D02*
X37461699Y48411100D01*
X37461699Y43386100D02*
X37461699Y43611100D01*
X42111699Y43386100D02*
X42111699Y43511100D01*
X33259301Y35862900D02*
X31909301Y35862900D01*
X33259301Y30737900D02*
X37909301Y30737900D01*
X33259301Y35987900D02*
X37909301Y35987900D01*
X33259301Y30737900D02*
X33259301Y30962900D01*
X37909301Y30737900D02*
X37909301Y30962900D01*
X37909301Y35987900D02*
X37909301Y35762900D01*
X33259301Y35987900D02*
X33259301Y35862900D01*
X25098901Y44753600D02*
X23748901Y44753600D01*
X25098901Y39628600D02*
X29748901Y39628600D01*
X25098901Y44878600D02*
X29748901Y44878600D01*
X25098901Y39628600D02*
X25098901Y39853600D01*
X29748901Y39628600D02*
X29748901Y39853600D01*
X29748901Y44878600D02*
X29748901Y44653600D01*
X25098901Y44878600D02*
X25098901Y44753600D01*
D15*
X28231000Y9786500D02*
X29161000Y9786500D01*
X31391000Y9786500D02*
X30461000Y9786500D01*
X31391000Y9786500D02*
X31391000Y11946500D01*
X28231000Y9786500D02*
X28231000Y11246500D01*
X20231000Y9797000D02*
X21161000Y9797000D01*
X23391000Y9797000D02*
X22461000Y9797000D01*
X23391000Y9797000D02*
X23391000Y11957000D01*
X20231000Y9797000D02*
X20231000Y11257000D01*
X12231000Y9765000D02*
X13161000Y9765000D01*
X15391000Y9765000D02*
X14461000Y9765000D01*
X15391000Y9765000D02*
X15391000Y11925000D01*
X12231000Y9765000D02*
X12231000Y11225000D01*
X36231000Y9786500D02*
X37161000Y9786500D01*
X39391000Y9786500D02*
X38461000Y9786500D01*
X39391000Y9786500D02*
X39391000Y11946500D01*
X36231000Y9786500D02*
X36231000Y11246500D01*
X42744700Y83495871D02*
X42944700Y83495871D01*
X42944700Y83495871D02*
X42944700Y87795871D01*
X42944700Y87795871D02*
X42794700Y87795871D01*
X37894700Y87795871D02*
X37744700Y87795871D01*
X37744700Y87795871D02*
X37744700Y83495871D01*
X37744700Y83495871D02*
X37944700Y83495871D01*
X54949400Y83290271D02*
X55149400Y83290271D01*
X55149400Y83290271D02*
X55149400Y87590271D01*
X55149400Y87590271D02*
X54999400Y87590271D01*
X50099400Y87590271D02*
X49949400Y87590271D01*
X49949400Y87590271D02*
X49949400Y83290271D01*
X49949400Y83290271D02*
X50149400Y83290271D01*
M02*
