%TF.GenerationSoftware,KiCad,Pcbnew,6.0.0-unknown-b9898e2~86~ubuntu19.04.1*%
%TF.CreationDate,2019-05-24T21:22:52-07:00*%
%TF.ProjectId,PrntrBoardV1,50726e74-7242-46f6-9172-6456312e6b69,rev?*%
%TF.SameCoordinates,PX1303eb8PY7093f24*%
%TF.FileFunction,Legend,Bot*%
%TF.FilePolarity,Positive*%
%FSLAX46Y46*%
G04 Gerber Fmt 4.6, Leading zero omitted, Abs format (unit mm)*
G04 Created by KiCad (PCBNEW 6.0.0-unknown-b9898e2~86~ubuntu19.04.1) date 2019-05-24 21:22:52*
%MOMM*%
%LPD*%
G04 APERTURE LIST*
%ADD10C,0.150000*%
%ADD11C,0.200000*%
%ADD12C,0.250000*%
%ADD13C,0.010000*%
G04 APERTURE END LIST*
D10*
X32982428Y69003643D02*
X32982428Y69575072D01*
X32696714Y69289358D02*
X33268142Y69289358D01*
X32982428Y72217929D02*
X32982428Y72789358D01*
X16518142Y54725072D02*
X17089571Y54725072D01*
X16803857Y55010786D02*
X16803857Y54439358D01*
X19732428Y54725072D02*
X20303857Y54725072D01*
X50307428Y93328643D02*
X50307428Y93900072D01*
X50021714Y93614358D02*
X50593142Y93614358D01*
X50307428Y96542929D02*
X50307428Y97114358D01*
X16118142Y19425072D02*
X16689571Y19425072D01*
X16403857Y19710786D02*
X16403857Y19139358D01*
X19332428Y19425072D02*
X19903857Y19425072D01*
X50168142Y1800072D02*
X50739571Y1800072D01*
X50453857Y2085786D02*
X50453857Y1514358D01*
X53382428Y1800072D02*
X53953857Y1800072D01*
X42268142Y1700072D02*
X42839571Y1700072D01*
X42553857Y1985786D02*
X42553857Y1414358D01*
X45482428Y1700072D02*
X46053857Y1700072D01*
X34068142Y1700072D02*
X34639571Y1700072D01*
X34353857Y1985786D02*
X34353857Y1414358D01*
X37282428Y1700072D02*
X37853857Y1700072D01*
X25968142Y1800072D02*
X26539571Y1800072D01*
X26253857Y2085786D02*
X26253857Y1514358D01*
X29182428Y1800072D02*
X29753857Y1800072D01*
X17468142Y1800072D02*
X18039571Y1800072D01*
X17753857Y2085786D02*
X17753857Y1514358D01*
X20682428Y1800072D02*
X21253857Y1800072D01*
X9568142Y1700072D02*
X10139571Y1700072D01*
X9853857Y1985786D02*
X9853857Y1414358D01*
X12782428Y1700072D02*
X13353857Y1700072D01*
X37611000Y56075072D02*
X37718142Y56110786D01*
X37896714Y56110786D01*
X37968142Y56075072D01*
X38003857Y56039358D01*
X38039571Y55967929D01*
X38039571Y55896500D01*
X38003857Y55825072D01*
X37968142Y55789358D01*
X37896714Y55753643D01*
X37753857Y55717929D01*
X37682428Y55682215D01*
X37646714Y55646500D01*
X37611000Y55575072D01*
X37611000Y55503643D01*
X37646714Y55432215D01*
X37682428Y55396500D01*
X37753857Y55360786D01*
X37932428Y55360786D01*
X38039571Y55396500D01*
X38646714Y56075072D02*
X38575285Y56110786D01*
X38432428Y56110786D01*
X38361000Y56075072D01*
X38325285Y56003643D01*
X38325285Y55717929D01*
X38361000Y55646500D01*
X38432428Y55610786D01*
X38575285Y55610786D01*
X38646714Y55646500D01*
X38682428Y55717929D01*
X38682428Y55789358D01*
X38325285Y55860786D01*
X39003857Y55610786D02*
X39003857Y56110786D01*
X39003857Y55682215D02*
X39039571Y55646500D01*
X39111000Y55610786D01*
X39218142Y55610786D01*
X39289571Y55646500D01*
X39325285Y55717929D01*
X39325285Y56110786D01*
X39646714Y56075072D02*
X39718142Y56110786D01*
X39861000Y56110786D01*
X39932428Y56075072D01*
X39968142Y56003643D01*
X39968142Y55967929D01*
X39932428Y55896500D01*
X39861000Y55860786D01*
X39753857Y55860786D01*
X39682428Y55825072D01*
X39646714Y55753643D01*
X39646714Y55717929D01*
X39682428Y55646500D01*
X39753857Y55610786D01*
X39861000Y55610786D01*
X39932428Y55646500D01*
X40396714Y56110786D02*
X40325285Y56075072D01*
X40289571Y56039358D01*
X40253857Y55967929D01*
X40253857Y55753643D01*
X40289571Y55682215D01*
X40325285Y55646500D01*
X40396714Y55610786D01*
X40503857Y55610786D01*
X40575285Y55646500D01*
X40611000Y55682215D01*
X40646714Y55753643D01*
X40646714Y55967929D01*
X40611000Y56039358D01*
X40575285Y56075072D01*
X40503857Y56110786D01*
X40396714Y56110786D01*
X40968142Y56110786D02*
X40968142Y55610786D01*
X40968142Y55753643D02*
X41003857Y55682215D01*
X41039571Y55646500D01*
X41111000Y55610786D01*
X41182428Y55610786D01*
X38789571Y57946500D02*
X38718142Y57910786D01*
X38611000Y57910786D01*
X38503857Y57946500D01*
X38432428Y58017929D01*
X38396714Y58089358D01*
X38361000Y58232215D01*
X38361000Y58339358D01*
X38396714Y58482215D01*
X38432428Y58553643D01*
X38503857Y58625072D01*
X38611000Y58660786D01*
X38682428Y58660786D01*
X38789571Y58625072D01*
X38825285Y58589358D01*
X38825285Y58339358D01*
X38682428Y58339358D01*
X39146714Y58660786D02*
X39146714Y57910786D01*
X39575285Y58660786D01*
X39575285Y57910786D01*
X39932428Y58660786D02*
X39932428Y57910786D01*
X40111000Y57910786D01*
X40218142Y57946500D01*
X40289571Y58017929D01*
X40325285Y58089358D01*
X40361000Y58232215D01*
X40361000Y58339358D01*
X40325285Y58482215D01*
X40289571Y58553643D01*
X40218142Y58625072D01*
X40111000Y58660786D01*
X39932428Y58660786D01*
X45411000Y55975072D02*
X45518142Y56010786D01*
X45696714Y56010786D01*
X45768142Y55975072D01*
X45803857Y55939358D01*
X45839571Y55867929D01*
X45839571Y55796500D01*
X45803857Y55725072D01*
X45768142Y55689358D01*
X45696714Y55653643D01*
X45553857Y55617929D01*
X45482428Y55582215D01*
X45446714Y55546500D01*
X45411000Y55475072D01*
X45411000Y55403643D01*
X45446714Y55332215D01*
X45482428Y55296500D01*
X45553857Y55260786D01*
X45732428Y55260786D01*
X45839571Y55296500D01*
X46446714Y55975072D02*
X46375285Y56010786D01*
X46232428Y56010786D01*
X46161000Y55975072D01*
X46125285Y55903643D01*
X46125285Y55617929D01*
X46161000Y55546500D01*
X46232428Y55510786D01*
X46375285Y55510786D01*
X46446714Y55546500D01*
X46482428Y55617929D01*
X46482428Y55689358D01*
X46125285Y55760786D01*
X46803857Y55510786D02*
X46803857Y56010786D01*
X46803857Y55582215D02*
X46839571Y55546500D01*
X46911000Y55510786D01*
X47018142Y55510786D01*
X47089571Y55546500D01*
X47125285Y55617929D01*
X47125285Y56010786D01*
X47446714Y55975072D02*
X47518142Y56010786D01*
X47661000Y56010786D01*
X47732428Y55975072D01*
X47768142Y55903643D01*
X47768142Y55867929D01*
X47732428Y55796500D01*
X47661000Y55760786D01*
X47553857Y55760786D01*
X47482428Y55725072D01*
X47446714Y55653643D01*
X47446714Y55617929D01*
X47482428Y55546500D01*
X47553857Y55510786D01*
X47661000Y55510786D01*
X47732428Y55546500D01*
X48196714Y56010786D02*
X48125285Y55975072D01*
X48089571Y55939358D01*
X48053857Y55867929D01*
X48053857Y55653643D01*
X48089571Y55582215D01*
X48125285Y55546500D01*
X48196714Y55510786D01*
X48303857Y55510786D01*
X48375285Y55546500D01*
X48411000Y55582215D01*
X48446714Y55653643D01*
X48446714Y55867929D01*
X48411000Y55939358D01*
X48375285Y55975072D01*
X48303857Y56010786D01*
X48196714Y56010786D01*
X48768142Y56010786D02*
X48768142Y55510786D01*
X48768142Y55653643D02*
X48803857Y55582215D01*
X48839571Y55546500D01*
X48911000Y55510786D01*
X48982428Y55510786D01*
X46589571Y57846500D02*
X46518142Y57810786D01*
X46411000Y57810786D01*
X46303857Y57846500D01*
X46232428Y57917929D01*
X46196714Y57989358D01*
X46161000Y58132215D01*
X46161000Y58239358D01*
X46196714Y58382215D01*
X46232428Y58453643D01*
X46303857Y58525072D01*
X46411000Y58560786D01*
X46482428Y58560786D01*
X46589571Y58525072D01*
X46625285Y58489358D01*
X46625285Y58239358D01*
X46482428Y58239358D01*
X46946714Y58560786D02*
X46946714Y57810786D01*
X47375285Y58560786D01*
X47375285Y57810786D01*
X47732428Y58560786D02*
X47732428Y57810786D01*
X47911000Y57810786D01*
X48018142Y57846500D01*
X48089571Y57917929D01*
X48125285Y57989358D01*
X48161000Y58132215D01*
X48161000Y58239358D01*
X48125285Y58382215D01*
X48089571Y58453643D01*
X48018142Y58525072D01*
X47911000Y58560786D01*
X47732428Y58560786D01*
X52211000Y56075072D02*
X52318142Y56110786D01*
X52496714Y56110786D01*
X52568142Y56075072D01*
X52603857Y56039358D01*
X52639571Y55967929D01*
X52639571Y55896500D01*
X52603857Y55825072D01*
X52568142Y55789358D01*
X52496714Y55753643D01*
X52353857Y55717929D01*
X52282428Y55682215D01*
X52246714Y55646500D01*
X52211000Y55575072D01*
X52211000Y55503643D01*
X52246714Y55432215D01*
X52282428Y55396500D01*
X52353857Y55360786D01*
X52532428Y55360786D01*
X52639571Y55396500D01*
X53246714Y56075072D02*
X53175285Y56110786D01*
X53032428Y56110786D01*
X52961000Y56075072D01*
X52925285Y56003643D01*
X52925285Y55717929D01*
X52961000Y55646500D01*
X53032428Y55610786D01*
X53175285Y55610786D01*
X53246714Y55646500D01*
X53282428Y55717929D01*
X53282428Y55789358D01*
X52925285Y55860786D01*
X53603857Y55610786D02*
X53603857Y56110786D01*
X53603857Y55682215D02*
X53639571Y55646500D01*
X53711000Y55610786D01*
X53818142Y55610786D01*
X53889571Y55646500D01*
X53925285Y55717929D01*
X53925285Y56110786D01*
X54246714Y56075072D02*
X54318142Y56110786D01*
X54461000Y56110786D01*
X54532428Y56075072D01*
X54568142Y56003643D01*
X54568142Y55967929D01*
X54532428Y55896500D01*
X54461000Y55860786D01*
X54353857Y55860786D01*
X54282428Y55825072D01*
X54246714Y55753643D01*
X54246714Y55717929D01*
X54282428Y55646500D01*
X54353857Y55610786D01*
X54461000Y55610786D01*
X54532428Y55646500D01*
X54996714Y56110786D02*
X54925285Y56075072D01*
X54889571Y56039358D01*
X54853857Y55967929D01*
X54853857Y55753643D01*
X54889571Y55682215D01*
X54925285Y55646500D01*
X54996714Y55610786D01*
X55103857Y55610786D01*
X55175285Y55646500D01*
X55211000Y55682215D01*
X55246714Y55753643D01*
X55246714Y55967929D01*
X55211000Y56039358D01*
X55175285Y56075072D01*
X55103857Y56110786D01*
X54996714Y56110786D01*
X55568142Y56110786D02*
X55568142Y55610786D01*
X55568142Y55753643D02*
X55603857Y55682215D01*
X55639571Y55646500D01*
X55711000Y55610786D01*
X55782428Y55610786D01*
X53389571Y57946500D02*
X53318142Y57910786D01*
X53211000Y57910786D01*
X53103857Y57946500D01*
X53032428Y58017929D01*
X52996714Y58089358D01*
X52961000Y58232215D01*
X52961000Y58339358D01*
X52996714Y58482215D01*
X53032428Y58553643D01*
X53103857Y58625072D01*
X53211000Y58660786D01*
X53282428Y58660786D01*
X53389571Y58625072D01*
X53425285Y58589358D01*
X53425285Y58339358D01*
X53282428Y58339358D01*
X53746714Y58660786D02*
X53746714Y57910786D01*
X54175285Y58660786D01*
X54175285Y57910786D01*
X54532428Y58660786D02*
X54532428Y57910786D01*
X54711000Y57910786D01*
X54818142Y57946500D01*
X54889571Y58017929D01*
X54925285Y58089358D01*
X54961000Y58232215D01*
X54961000Y58339358D01*
X54925285Y58482215D01*
X54889571Y58553643D01*
X54818142Y58625072D01*
X54711000Y58660786D01*
X54532428Y58660786D01*
X52411000Y48975072D02*
X52518142Y49010786D01*
X52696714Y49010786D01*
X52768142Y48975072D01*
X52803857Y48939358D01*
X52839571Y48867929D01*
X52839571Y48796500D01*
X52803857Y48725072D01*
X52768142Y48689358D01*
X52696714Y48653643D01*
X52553857Y48617929D01*
X52482428Y48582215D01*
X52446714Y48546500D01*
X52411000Y48475072D01*
X52411000Y48403643D01*
X52446714Y48332215D01*
X52482428Y48296500D01*
X52553857Y48260786D01*
X52732428Y48260786D01*
X52839571Y48296500D01*
X53446714Y48975072D02*
X53375285Y49010786D01*
X53232428Y49010786D01*
X53161000Y48975072D01*
X53125285Y48903643D01*
X53125285Y48617929D01*
X53161000Y48546500D01*
X53232428Y48510786D01*
X53375285Y48510786D01*
X53446714Y48546500D01*
X53482428Y48617929D01*
X53482428Y48689358D01*
X53125285Y48760786D01*
X53803857Y48510786D02*
X53803857Y49010786D01*
X53803857Y48582215D02*
X53839571Y48546500D01*
X53911000Y48510786D01*
X54018142Y48510786D01*
X54089571Y48546500D01*
X54125285Y48617929D01*
X54125285Y49010786D01*
X54446714Y48975072D02*
X54518142Y49010786D01*
X54661000Y49010786D01*
X54732428Y48975072D01*
X54768142Y48903643D01*
X54768142Y48867929D01*
X54732428Y48796500D01*
X54661000Y48760786D01*
X54553857Y48760786D01*
X54482428Y48725072D01*
X54446714Y48653643D01*
X54446714Y48617929D01*
X54482428Y48546500D01*
X54553857Y48510786D01*
X54661000Y48510786D01*
X54732428Y48546500D01*
X55196714Y49010786D02*
X55125285Y48975072D01*
X55089571Y48939358D01*
X55053857Y48867929D01*
X55053857Y48653643D01*
X55089571Y48582215D01*
X55125285Y48546500D01*
X55196714Y48510786D01*
X55303857Y48510786D01*
X55375285Y48546500D01*
X55411000Y48582215D01*
X55446714Y48653643D01*
X55446714Y48867929D01*
X55411000Y48939358D01*
X55375285Y48975072D01*
X55303857Y49010786D01*
X55196714Y49010786D01*
X55768142Y49010786D02*
X55768142Y48510786D01*
X55768142Y48653643D02*
X55803857Y48582215D01*
X55839571Y48546500D01*
X55911000Y48510786D01*
X55982428Y48510786D01*
X53589571Y50846500D02*
X53518142Y50810786D01*
X53411000Y50810786D01*
X53303857Y50846500D01*
X53232428Y50917929D01*
X53196714Y50989358D01*
X53161000Y51132215D01*
X53161000Y51239358D01*
X53196714Y51382215D01*
X53232428Y51453643D01*
X53303857Y51525072D01*
X53411000Y51560786D01*
X53482428Y51560786D01*
X53589571Y51525072D01*
X53625285Y51489358D01*
X53625285Y51239358D01*
X53482428Y51239358D01*
X53946714Y51560786D02*
X53946714Y50810786D01*
X54375285Y51560786D01*
X54375285Y50810786D01*
X54732428Y51560786D02*
X54732428Y50810786D01*
X54911000Y50810786D01*
X55018142Y50846500D01*
X55089571Y50917929D01*
X55125285Y50989358D01*
X55161000Y51132215D01*
X55161000Y51239358D01*
X55125285Y51382215D01*
X55089571Y51453643D01*
X55018142Y51525072D01*
X54911000Y51560786D01*
X54732428Y51560786D01*
X45511000Y48875072D02*
X45618142Y48910786D01*
X45796714Y48910786D01*
X45868142Y48875072D01*
X45903857Y48839358D01*
X45939571Y48767929D01*
X45939571Y48696500D01*
X45903857Y48625072D01*
X45868142Y48589358D01*
X45796714Y48553643D01*
X45653857Y48517929D01*
X45582428Y48482215D01*
X45546714Y48446500D01*
X45511000Y48375072D01*
X45511000Y48303643D01*
X45546714Y48232215D01*
X45582428Y48196500D01*
X45653857Y48160786D01*
X45832428Y48160786D01*
X45939571Y48196500D01*
X46546714Y48875072D02*
X46475285Y48910786D01*
X46332428Y48910786D01*
X46261000Y48875072D01*
X46225285Y48803643D01*
X46225285Y48517929D01*
X46261000Y48446500D01*
X46332428Y48410786D01*
X46475285Y48410786D01*
X46546714Y48446500D01*
X46582428Y48517929D01*
X46582428Y48589358D01*
X46225285Y48660786D01*
X46903857Y48410786D02*
X46903857Y48910786D01*
X46903857Y48482215D02*
X46939571Y48446500D01*
X47011000Y48410786D01*
X47118142Y48410786D01*
X47189571Y48446500D01*
X47225285Y48517929D01*
X47225285Y48910786D01*
X47546714Y48875072D02*
X47618142Y48910786D01*
X47761000Y48910786D01*
X47832428Y48875072D01*
X47868142Y48803643D01*
X47868142Y48767929D01*
X47832428Y48696500D01*
X47761000Y48660786D01*
X47653857Y48660786D01*
X47582428Y48625072D01*
X47546714Y48553643D01*
X47546714Y48517929D01*
X47582428Y48446500D01*
X47653857Y48410786D01*
X47761000Y48410786D01*
X47832428Y48446500D01*
X48296714Y48910786D02*
X48225285Y48875072D01*
X48189571Y48839358D01*
X48153857Y48767929D01*
X48153857Y48553643D01*
X48189571Y48482215D01*
X48225285Y48446500D01*
X48296714Y48410786D01*
X48403857Y48410786D01*
X48475285Y48446500D01*
X48511000Y48482215D01*
X48546714Y48553643D01*
X48546714Y48767929D01*
X48511000Y48839358D01*
X48475285Y48875072D01*
X48403857Y48910786D01*
X48296714Y48910786D01*
X48868142Y48910786D02*
X48868142Y48410786D01*
X48868142Y48553643D02*
X48903857Y48482215D01*
X48939571Y48446500D01*
X49011000Y48410786D01*
X49082428Y48410786D01*
X46689571Y50746500D02*
X46618142Y50710786D01*
X46511000Y50710786D01*
X46403857Y50746500D01*
X46332428Y50817929D01*
X46296714Y50889358D01*
X46261000Y51032215D01*
X46261000Y51139358D01*
X46296714Y51282215D01*
X46332428Y51353643D01*
X46403857Y51425072D01*
X46511000Y51460786D01*
X46582428Y51460786D01*
X46689571Y51425072D01*
X46725285Y51389358D01*
X46725285Y51139358D01*
X46582428Y51139358D01*
X47046714Y51460786D02*
X47046714Y50710786D01*
X47475285Y51460786D01*
X47475285Y50710786D01*
X47832428Y51460786D02*
X47832428Y50710786D01*
X48011000Y50710786D01*
X48118142Y50746500D01*
X48189571Y50817929D01*
X48225285Y50889358D01*
X48261000Y51032215D01*
X48261000Y51139358D01*
X48225285Y51282215D01*
X48189571Y51353643D01*
X48118142Y51425072D01*
X48011000Y51460786D01*
X47832428Y51460786D01*
X38511000Y48775072D02*
X38618142Y48810786D01*
X38796714Y48810786D01*
X38868142Y48775072D01*
X38903857Y48739358D01*
X38939571Y48667929D01*
X38939571Y48596500D01*
X38903857Y48525072D01*
X38868142Y48489358D01*
X38796714Y48453643D01*
X38653857Y48417929D01*
X38582428Y48382215D01*
X38546714Y48346500D01*
X38511000Y48275072D01*
X38511000Y48203643D01*
X38546714Y48132215D01*
X38582428Y48096500D01*
X38653857Y48060786D01*
X38832428Y48060786D01*
X38939571Y48096500D01*
X39546714Y48775072D02*
X39475285Y48810786D01*
X39332428Y48810786D01*
X39261000Y48775072D01*
X39225285Y48703643D01*
X39225285Y48417929D01*
X39261000Y48346500D01*
X39332428Y48310786D01*
X39475285Y48310786D01*
X39546714Y48346500D01*
X39582428Y48417929D01*
X39582428Y48489358D01*
X39225285Y48560786D01*
X39903857Y48310786D02*
X39903857Y48810786D01*
X39903857Y48382215D02*
X39939571Y48346500D01*
X40011000Y48310786D01*
X40118142Y48310786D01*
X40189571Y48346500D01*
X40225285Y48417929D01*
X40225285Y48810786D01*
X40546714Y48775072D02*
X40618142Y48810786D01*
X40761000Y48810786D01*
X40832428Y48775072D01*
X40868142Y48703643D01*
X40868142Y48667929D01*
X40832428Y48596500D01*
X40761000Y48560786D01*
X40653857Y48560786D01*
X40582428Y48525072D01*
X40546714Y48453643D01*
X40546714Y48417929D01*
X40582428Y48346500D01*
X40653857Y48310786D01*
X40761000Y48310786D01*
X40832428Y48346500D01*
X41296714Y48810786D02*
X41225285Y48775072D01*
X41189571Y48739358D01*
X41153857Y48667929D01*
X41153857Y48453643D01*
X41189571Y48382215D01*
X41225285Y48346500D01*
X41296714Y48310786D01*
X41403857Y48310786D01*
X41475285Y48346500D01*
X41511000Y48382215D01*
X41546714Y48453643D01*
X41546714Y48667929D01*
X41511000Y48739358D01*
X41475285Y48775072D01*
X41403857Y48810786D01*
X41296714Y48810786D01*
X41868142Y48810786D02*
X41868142Y48310786D01*
X41868142Y48453643D02*
X41903857Y48382215D01*
X41939571Y48346500D01*
X42011000Y48310786D01*
X42082428Y48310786D01*
X39689571Y50646500D02*
X39618142Y50610786D01*
X39511000Y50610786D01*
X39403857Y50646500D01*
X39332428Y50717929D01*
X39296714Y50789358D01*
X39261000Y50932215D01*
X39261000Y51039358D01*
X39296714Y51182215D01*
X39332428Y51253643D01*
X39403857Y51325072D01*
X39511000Y51360786D01*
X39582428Y51360786D01*
X39689571Y51325072D01*
X39725285Y51289358D01*
X39725285Y51039358D01*
X39582428Y51039358D01*
X40046714Y51360786D02*
X40046714Y50610786D01*
X40475285Y51360786D01*
X40475285Y50610786D01*
X40832428Y51360786D02*
X40832428Y50610786D01*
X41011000Y50610786D01*
X41118142Y50646500D01*
X41189571Y50717929D01*
X41225285Y50789358D01*
X41261000Y50932215D01*
X41261000Y51039358D01*
X41225285Y51182215D01*
X41189571Y51253643D01*
X41118142Y51325072D01*
X41011000Y51360786D01*
X40832428Y51360786D01*
X52411000Y39975072D02*
X52518142Y40010786D01*
X52696714Y40010786D01*
X52768142Y39975072D01*
X52803857Y39939358D01*
X52839571Y39867929D01*
X52839571Y39796500D01*
X52803857Y39725072D01*
X52768142Y39689358D01*
X52696714Y39653643D01*
X52553857Y39617929D01*
X52482428Y39582215D01*
X52446714Y39546500D01*
X52411000Y39475072D01*
X52411000Y39403643D01*
X52446714Y39332215D01*
X52482428Y39296500D01*
X52553857Y39260786D01*
X52732428Y39260786D01*
X52839571Y39296500D01*
X53446714Y39975072D02*
X53375285Y40010786D01*
X53232428Y40010786D01*
X53161000Y39975072D01*
X53125285Y39903643D01*
X53125285Y39617929D01*
X53161000Y39546500D01*
X53232428Y39510786D01*
X53375285Y39510786D01*
X53446714Y39546500D01*
X53482428Y39617929D01*
X53482428Y39689358D01*
X53125285Y39760786D01*
X53803857Y39510786D02*
X53803857Y40010786D01*
X53803857Y39582215D02*
X53839571Y39546500D01*
X53911000Y39510786D01*
X54018142Y39510786D01*
X54089571Y39546500D01*
X54125285Y39617929D01*
X54125285Y40010786D01*
X54446714Y39975072D02*
X54518142Y40010786D01*
X54661000Y40010786D01*
X54732428Y39975072D01*
X54768142Y39903643D01*
X54768142Y39867929D01*
X54732428Y39796500D01*
X54661000Y39760786D01*
X54553857Y39760786D01*
X54482428Y39725072D01*
X54446714Y39653643D01*
X54446714Y39617929D01*
X54482428Y39546500D01*
X54553857Y39510786D01*
X54661000Y39510786D01*
X54732428Y39546500D01*
X55196714Y40010786D02*
X55125285Y39975072D01*
X55089571Y39939358D01*
X55053857Y39867929D01*
X55053857Y39653643D01*
X55089571Y39582215D01*
X55125285Y39546500D01*
X55196714Y39510786D01*
X55303857Y39510786D01*
X55375285Y39546500D01*
X55411000Y39582215D01*
X55446714Y39653643D01*
X55446714Y39867929D01*
X55411000Y39939358D01*
X55375285Y39975072D01*
X55303857Y40010786D01*
X55196714Y40010786D01*
X55768142Y40010786D02*
X55768142Y39510786D01*
X55768142Y39653643D02*
X55803857Y39582215D01*
X55839571Y39546500D01*
X55911000Y39510786D01*
X55982428Y39510786D01*
X53589571Y41846500D02*
X53518142Y41810786D01*
X53411000Y41810786D01*
X53303857Y41846500D01*
X53232428Y41917929D01*
X53196714Y41989358D01*
X53161000Y42132215D01*
X53161000Y42239358D01*
X53196714Y42382215D01*
X53232428Y42453643D01*
X53303857Y42525072D01*
X53411000Y42560786D01*
X53482428Y42560786D01*
X53589571Y42525072D01*
X53625285Y42489358D01*
X53625285Y42239358D01*
X53482428Y42239358D01*
X53946714Y42560786D02*
X53946714Y41810786D01*
X54375285Y42560786D01*
X54375285Y41810786D01*
X54732428Y42560786D02*
X54732428Y41810786D01*
X54911000Y41810786D01*
X55018142Y41846500D01*
X55089571Y41917929D01*
X55125285Y41989358D01*
X55161000Y42132215D01*
X55161000Y42239358D01*
X55125285Y42382215D01*
X55089571Y42453643D01*
X55018142Y42525072D01*
X54911000Y42560786D01*
X54732428Y42560786D01*
X44611000Y39875072D02*
X44718142Y39910786D01*
X44896714Y39910786D01*
X44968142Y39875072D01*
X45003857Y39839358D01*
X45039571Y39767929D01*
X45039571Y39696500D01*
X45003857Y39625072D01*
X44968142Y39589358D01*
X44896714Y39553643D01*
X44753857Y39517929D01*
X44682428Y39482215D01*
X44646714Y39446500D01*
X44611000Y39375072D01*
X44611000Y39303643D01*
X44646714Y39232215D01*
X44682428Y39196500D01*
X44753857Y39160786D01*
X44932428Y39160786D01*
X45039571Y39196500D01*
X45646714Y39875072D02*
X45575285Y39910786D01*
X45432428Y39910786D01*
X45361000Y39875072D01*
X45325285Y39803643D01*
X45325285Y39517929D01*
X45361000Y39446500D01*
X45432428Y39410786D01*
X45575285Y39410786D01*
X45646714Y39446500D01*
X45682428Y39517929D01*
X45682428Y39589358D01*
X45325285Y39660786D01*
X46003857Y39410786D02*
X46003857Y39910786D01*
X46003857Y39482215D02*
X46039571Y39446500D01*
X46111000Y39410786D01*
X46218142Y39410786D01*
X46289571Y39446500D01*
X46325285Y39517929D01*
X46325285Y39910786D01*
X46646714Y39875072D02*
X46718142Y39910786D01*
X46861000Y39910786D01*
X46932428Y39875072D01*
X46968142Y39803643D01*
X46968142Y39767929D01*
X46932428Y39696500D01*
X46861000Y39660786D01*
X46753857Y39660786D01*
X46682428Y39625072D01*
X46646714Y39553643D01*
X46646714Y39517929D01*
X46682428Y39446500D01*
X46753857Y39410786D01*
X46861000Y39410786D01*
X46932428Y39446500D01*
X47396714Y39910786D02*
X47325285Y39875072D01*
X47289571Y39839358D01*
X47253857Y39767929D01*
X47253857Y39553643D01*
X47289571Y39482215D01*
X47325285Y39446500D01*
X47396714Y39410786D01*
X47503857Y39410786D01*
X47575285Y39446500D01*
X47611000Y39482215D01*
X47646714Y39553643D01*
X47646714Y39767929D01*
X47611000Y39839358D01*
X47575285Y39875072D01*
X47503857Y39910786D01*
X47396714Y39910786D01*
X47968142Y39910786D02*
X47968142Y39410786D01*
X47968142Y39553643D02*
X48003857Y39482215D01*
X48039571Y39446500D01*
X48111000Y39410786D01*
X48182428Y39410786D01*
X45789571Y41746500D02*
X45718142Y41710786D01*
X45611000Y41710786D01*
X45503857Y41746500D01*
X45432428Y41817929D01*
X45396714Y41889358D01*
X45361000Y42032215D01*
X45361000Y42139358D01*
X45396714Y42282215D01*
X45432428Y42353643D01*
X45503857Y42425072D01*
X45611000Y42460786D01*
X45682428Y42460786D01*
X45789571Y42425072D01*
X45825285Y42389358D01*
X45825285Y42139358D01*
X45682428Y42139358D01*
X46146714Y42460786D02*
X46146714Y41710786D01*
X46575285Y42460786D01*
X46575285Y41710786D01*
X46932428Y42460786D02*
X46932428Y41710786D01*
X47111000Y41710786D01*
X47218142Y41746500D01*
X47289571Y41817929D01*
X47325285Y41889358D01*
X47361000Y42032215D01*
X47361000Y42139358D01*
X47325285Y42282215D01*
X47289571Y42353643D01*
X47218142Y42425072D01*
X47111000Y42460786D01*
X46932428Y42460786D01*
X51611000Y26017929D02*
X51503857Y25982215D01*
X51325285Y25982215D01*
X51253857Y26017929D01*
X51218142Y26053643D01*
X51182428Y26125072D01*
X51182428Y26196500D01*
X51218142Y26267929D01*
X51253857Y26303643D01*
X51325285Y26339358D01*
X51468142Y26375072D01*
X51539571Y26410786D01*
X51575285Y26446500D01*
X51611000Y26517929D01*
X51611000Y26589358D01*
X51575285Y26660786D01*
X51539571Y26696500D01*
X51468142Y26732215D01*
X51289571Y26732215D01*
X51182428Y26696500D01*
X50575285Y26017929D02*
X50646714Y25982215D01*
X50789571Y25982215D01*
X50861000Y26017929D01*
X50896714Y26089358D01*
X50896714Y26375072D01*
X50861000Y26446500D01*
X50789571Y26482215D01*
X50646714Y26482215D01*
X50575285Y26446500D01*
X50539571Y26375072D01*
X50539571Y26303643D01*
X50896714Y26232215D01*
X50218142Y26482215D02*
X50218142Y25982215D01*
X50218142Y26410786D02*
X50182428Y26446500D01*
X50111000Y26482215D01*
X50003857Y26482215D01*
X49932428Y26446500D01*
X49896714Y26375072D01*
X49896714Y25982215D01*
X49575285Y26017929D02*
X49503857Y25982215D01*
X49361000Y25982215D01*
X49289571Y26017929D01*
X49253857Y26089358D01*
X49253857Y26125072D01*
X49289571Y26196500D01*
X49361000Y26232215D01*
X49468142Y26232215D01*
X49539571Y26267929D01*
X49575285Y26339358D01*
X49575285Y26375072D01*
X49539571Y26446500D01*
X49468142Y26482215D01*
X49361000Y26482215D01*
X49289571Y26446500D01*
X48825285Y25982215D02*
X48896714Y26017929D01*
X48932428Y26053643D01*
X48968142Y26125072D01*
X48968142Y26339358D01*
X48932428Y26410786D01*
X48896714Y26446500D01*
X48825285Y26482215D01*
X48718142Y26482215D01*
X48646714Y26446500D01*
X48611000Y26410786D01*
X48575285Y26339358D01*
X48575285Y26125072D01*
X48611000Y26053643D01*
X48646714Y26017929D01*
X48718142Y25982215D01*
X48825285Y25982215D01*
X48253857Y25982215D02*
X48253857Y26482215D01*
X48253857Y26339358D02*
X48218142Y26410786D01*
X48182428Y26446500D01*
X48111000Y26482215D01*
X48039571Y26482215D01*
X50432428Y24146500D02*
X50503857Y24182215D01*
X50611000Y24182215D01*
X50718142Y24146500D01*
X50789571Y24075072D01*
X50825285Y24003643D01*
X50861000Y23860786D01*
X50861000Y23753643D01*
X50825285Y23610786D01*
X50789571Y23539358D01*
X50718142Y23467929D01*
X50611000Y23432215D01*
X50539571Y23432215D01*
X50432428Y23467929D01*
X50396714Y23503643D01*
X50396714Y23753643D01*
X50539571Y23753643D01*
X50075285Y23432215D02*
X50075285Y24182215D01*
X49646714Y23432215D01*
X49646714Y24182215D01*
X49289571Y23432215D02*
X49289571Y24182215D01*
X49111000Y24182215D01*
X49003857Y24146500D01*
X48932428Y24075072D01*
X48896714Y24003643D01*
X48861000Y23860786D01*
X48861000Y23753643D01*
X48896714Y23610786D01*
X48932428Y23539358D01*
X49003857Y23467929D01*
X49111000Y23432215D01*
X49289571Y23432215D01*
X52411000Y19817929D02*
X52303857Y19782215D01*
X52125285Y19782215D01*
X52053857Y19817929D01*
X52018142Y19853643D01*
X51982428Y19925072D01*
X51982428Y19996500D01*
X52018142Y20067929D01*
X52053857Y20103643D01*
X52125285Y20139358D01*
X52268142Y20175072D01*
X52339571Y20210786D01*
X52375285Y20246500D01*
X52411000Y20317929D01*
X52411000Y20389358D01*
X52375285Y20460786D01*
X52339571Y20496500D01*
X52268142Y20532215D01*
X52089571Y20532215D01*
X51982428Y20496500D01*
X51375285Y19817929D02*
X51446714Y19782215D01*
X51589571Y19782215D01*
X51661000Y19817929D01*
X51696714Y19889358D01*
X51696714Y20175072D01*
X51661000Y20246500D01*
X51589571Y20282215D01*
X51446714Y20282215D01*
X51375285Y20246500D01*
X51339571Y20175072D01*
X51339571Y20103643D01*
X51696714Y20032215D01*
X51018142Y20282215D02*
X51018142Y19782215D01*
X51018142Y20210786D02*
X50982428Y20246500D01*
X50911000Y20282215D01*
X50803857Y20282215D01*
X50732428Y20246500D01*
X50696714Y20175072D01*
X50696714Y19782215D01*
X50375285Y19817929D02*
X50303857Y19782215D01*
X50161000Y19782215D01*
X50089571Y19817929D01*
X50053857Y19889358D01*
X50053857Y19925072D01*
X50089571Y19996500D01*
X50161000Y20032215D01*
X50268142Y20032215D01*
X50339571Y20067929D01*
X50375285Y20139358D01*
X50375285Y20175072D01*
X50339571Y20246500D01*
X50268142Y20282215D01*
X50161000Y20282215D01*
X50089571Y20246500D01*
X49625285Y19782215D02*
X49696714Y19817929D01*
X49732428Y19853643D01*
X49768142Y19925072D01*
X49768142Y20139358D01*
X49732428Y20210786D01*
X49696714Y20246500D01*
X49625285Y20282215D01*
X49518142Y20282215D01*
X49446714Y20246500D01*
X49411000Y20210786D01*
X49375285Y20139358D01*
X49375285Y19925072D01*
X49411000Y19853643D01*
X49446714Y19817929D01*
X49518142Y19782215D01*
X49625285Y19782215D01*
X49053857Y19782215D02*
X49053857Y20282215D01*
X49053857Y20139358D02*
X49018142Y20210786D01*
X48982428Y20246500D01*
X48911000Y20282215D01*
X48839571Y20282215D01*
X51232428Y17946500D02*
X51303857Y17982215D01*
X51411000Y17982215D01*
X51518142Y17946500D01*
X51589571Y17875072D01*
X51625285Y17803643D01*
X51661000Y17660786D01*
X51661000Y17553643D01*
X51625285Y17410786D01*
X51589571Y17339358D01*
X51518142Y17267929D01*
X51411000Y17232215D01*
X51339571Y17232215D01*
X51232428Y17267929D01*
X51196714Y17303643D01*
X51196714Y17553643D01*
X51339571Y17553643D01*
X50875285Y17232215D02*
X50875285Y17982215D01*
X50446714Y17232215D01*
X50446714Y17982215D01*
X50089571Y17232215D02*
X50089571Y17982215D01*
X49911000Y17982215D01*
X49803857Y17946500D01*
X49732428Y17875072D01*
X49696714Y17803643D01*
X49661000Y17660786D01*
X49661000Y17553643D01*
X49696714Y17410786D01*
X49732428Y17339358D01*
X49803857Y17267929D01*
X49911000Y17232215D01*
X50089571Y17232215D01*
X44711000Y19717929D02*
X44603857Y19682215D01*
X44425285Y19682215D01*
X44353857Y19717929D01*
X44318142Y19753643D01*
X44282428Y19825072D01*
X44282428Y19896500D01*
X44318142Y19967929D01*
X44353857Y20003643D01*
X44425285Y20039358D01*
X44568142Y20075072D01*
X44639571Y20110786D01*
X44675285Y20146500D01*
X44711000Y20217929D01*
X44711000Y20289358D01*
X44675285Y20360786D01*
X44639571Y20396500D01*
X44568142Y20432215D01*
X44389571Y20432215D01*
X44282428Y20396500D01*
X43675285Y19717929D02*
X43746714Y19682215D01*
X43889571Y19682215D01*
X43961000Y19717929D01*
X43996714Y19789358D01*
X43996714Y20075072D01*
X43961000Y20146500D01*
X43889571Y20182215D01*
X43746714Y20182215D01*
X43675285Y20146500D01*
X43639571Y20075072D01*
X43639571Y20003643D01*
X43996714Y19932215D01*
X43318142Y20182215D02*
X43318142Y19682215D01*
X43318142Y20110786D02*
X43282428Y20146500D01*
X43211000Y20182215D01*
X43103857Y20182215D01*
X43032428Y20146500D01*
X42996714Y20075072D01*
X42996714Y19682215D01*
X42675285Y19717929D02*
X42603857Y19682215D01*
X42461000Y19682215D01*
X42389571Y19717929D01*
X42353857Y19789358D01*
X42353857Y19825072D01*
X42389571Y19896500D01*
X42461000Y19932215D01*
X42568142Y19932215D01*
X42639571Y19967929D01*
X42675285Y20039358D01*
X42675285Y20075072D01*
X42639571Y20146500D01*
X42568142Y20182215D01*
X42461000Y20182215D01*
X42389571Y20146500D01*
X41925285Y19682215D02*
X41996714Y19717929D01*
X42032428Y19753643D01*
X42068142Y19825072D01*
X42068142Y20039358D01*
X42032428Y20110786D01*
X41996714Y20146500D01*
X41925285Y20182215D01*
X41818142Y20182215D01*
X41746714Y20146500D01*
X41711000Y20110786D01*
X41675285Y20039358D01*
X41675285Y19825072D01*
X41711000Y19753643D01*
X41746714Y19717929D01*
X41818142Y19682215D01*
X41925285Y19682215D01*
X41353857Y19682215D02*
X41353857Y20182215D01*
X41353857Y20039358D02*
X41318142Y20110786D01*
X41282428Y20146500D01*
X41211000Y20182215D01*
X41139571Y20182215D01*
X43532428Y17846500D02*
X43603857Y17882215D01*
X43711000Y17882215D01*
X43818142Y17846500D01*
X43889571Y17775072D01*
X43925285Y17703643D01*
X43961000Y17560786D01*
X43961000Y17453643D01*
X43925285Y17310786D01*
X43889571Y17239358D01*
X43818142Y17167929D01*
X43711000Y17132215D01*
X43639571Y17132215D01*
X43532428Y17167929D01*
X43496714Y17203643D01*
X43496714Y17453643D01*
X43639571Y17453643D01*
X43175285Y17132215D02*
X43175285Y17882215D01*
X42746714Y17132215D01*
X42746714Y17882215D01*
X42389571Y17132215D02*
X42389571Y17882215D01*
X42211000Y17882215D01*
X42103857Y17846500D01*
X42032428Y17775072D01*
X41996714Y17703643D01*
X41961000Y17560786D01*
X41961000Y17453643D01*
X41996714Y17310786D01*
X42032428Y17239358D01*
X42103857Y17167929D01*
X42211000Y17132215D01*
X42389571Y17132215D01*
X36150285Y21500072D02*
X35900285Y21500072D01*
X35793142Y21107215D02*
X36150285Y21107215D01*
X36150285Y21857215D01*
X35793142Y21857215D01*
X35471714Y21107215D02*
X35471714Y21857215D01*
X35043142Y21107215D01*
X35043142Y21857215D01*
X34257428Y21178643D02*
X34293142Y21142929D01*
X34400285Y21107215D01*
X34471714Y21107215D01*
X34578857Y21142929D01*
X34650285Y21214358D01*
X34686000Y21285786D01*
X34721714Y21428643D01*
X34721714Y21535786D01*
X34686000Y21678643D01*
X34650285Y21750072D01*
X34578857Y21821500D01*
X34471714Y21857215D01*
X34400285Y21857215D01*
X34293142Y21821500D01*
X34257428Y21785786D01*
X34114571Y21035786D02*
X33543142Y21035786D01*
X33114571Y21500072D02*
X33007428Y21464358D01*
X32971714Y21428643D01*
X32936000Y21357215D01*
X32936000Y21250072D01*
X32971714Y21178643D01*
X33007428Y21142929D01*
X33078857Y21107215D01*
X33364571Y21107215D01*
X33364571Y21857215D01*
X33114571Y21857215D01*
X33043142Y21821500D01*
X33007428Y21785786D01*
X32971714Y21714358D01*
X32971714Y21642929D01*
X33007428Y21571500D01*
X33043142Y21535786D01*
X33114571Y21500072D01*
X33364571Y21500072D01*
X36096714Y24200072D02*
X35846714Y24200072D01*
X35739571Y23807215D02*
X36096714Y23807215D01*
X36096714Y24557215D01*
X35739571Y24557215D01*
X35418142Y23807215D02*
X35418142Y24557215D01*
X34989571Y23807215D01*
X34989571Y24557215D01*
X34203857Y23878643D02*
X34239571Y23842929D01*
X34346714Y23807215D01*
X34418142Y23807215D01*
X34525285Y23842929D01*
X34596714Y23914358D01*
X34632428Y23985786D01*
X34668142Y24128643D01*
X34668142Y24235786D01*
X34632428Y24378643D01*
X34596714Y24450072D01*
X34525285Y24521500D01*
X34418142Y24557215D01*
X34346714Y24557215D01*
X34239571Y24521500D01*
X34203857Y24485786D01*
X34061000Y23735786D02*
X33489571Y23735786D01*
X33346714Y24021500D02*
X32989571Y24021500D01*
X33418142Y23807215D02*
X33168142Y24557215D01*
X32918142Y23807215D01*
X37557428Y26800072D02*
X37450285Y26764358D01*
X37414571Y26728643D01*
X37378857Y26657215D01*
X37378857Y26550072D01*
X37414571Y26478643D01*
X37450285Y26442929D01*
X37521714Y26407215D01*
X37807428Y26407215D01*
X37807428Y27157215D01*
X37557428Y27157215D01*
X37486000Y27121500D01*
X37450285Y27085786D01*
X37414571Y27014358D01*
X37414571Y26942929D01*
X37450285Y26871500D01*
X37486000Y26835786D01*
X37557428Y26800072D01*
X37807428Y26800072D01*
X36736000Y26907215D02*
X36736000Y26407215D01*
X37057428Y26907215D02*
X37057428Y26514358D01*
X37021714Y26442929D01*
X36950285Y26407215D01*
X36843142Y26407215D01*
X36771714Y26442929D01*
X36736000Y26478643D01*
X36486000Y26907215D02*
X36200285Y26907215D01*
X36378857Y27157215D02*
X36378857Y26514358D01*
X36343142Y26442929D01*
X36271714Y26407215D01*
X36200285Y26407215D01*
X36057428Y26907215D02*
X35771714Y26907215D01*
X35950285Y27157215D02*
X35950285Y26514358D01*
X35914571Y26442929D01*
X35843142Y26407215D01*
X35771714Y26407215D01*
X35414571Y26407215D02*
X35486000Y26442929D01*
X35521714Y26478643D01*
X35557428Y26550072D01*
X35557428Y26764358D01*
X35521714Y26835786D01*
X35486000Y26871500D01*
X35414571Y26907215D01*
X35307428Y26907215D01*
X35236000Y26871500D01*
X35200285Y26835786D01*
X35164571Y26764358D01*
X35164571Y26550072D01*
X35200285Y26478643D01*
X35236000Y26442929D01*
X35307428Y26407215D01*
X35414571Y26407215D01*
X34843142Y26907215D02*
X34843142Y26407215D01*
X34843142Y26835786D02*
X34807428Y26871500D01*
X34736000Y26907215D01*
X34628857Y26907215D01*
X34557428Y26871500D01*
X34521714Y26800072D01*
X34521714Y26407215D01*
X33593142Y26407215D02*
X33593142Y27157215D01*
X33236000Y26907215D02*
X33236000Y26407215D01*
X33236000Y26835786D02*
X33200285Y26871500D01*
X33128857Y26907215D01*
X33021714Y26907215D01*
X32950285Y26871500D01*
X32914571Y26800072D01*
X32914571Y26407215D01*
X34332428Y29621500D02*
X34403857Y29657215D01*
X34511000Y29657215D01*
X34618142Y29621500D01*
X34689571Y29550072D01*
X34725285Y29478643D01*
X34761000Y29335786D01*
X34761000Y29228643D01*
X34725285Y29085786D01*
X34689571Y29014358D01*
X34618142Y28942929D01*
X34511000Y28907215D01*
X34439571Y28907215D01*
X34332428Y28942929D01*
X34296714Y28978643D01*
X34296714Y29228643D01*
X34439571Y29228643D01*
X33975285Y28907215D02*
X33975285Y29657215D01*
X33546714Y28907215D01*
X33546714Y29657215D01*
X33189571Y28907215D02*
X33189571Y29657215D01*
X33011000Y29657215D01*
X32903857Y29621500D01*
X32832428Y29550072D01*
X32796714Y29478643D01*
X32761000Y29335786D01*
X32761000Y29228643D01*
X32796714Y29085786D01*
X32832428Y29014358D01*
X32903857Y28942929D01*
X33011000Y28907215D01*
X33189571Y28907215D01*
X34968142Y32257215D02*
X34503857Y32257215D01*
X34753857Y31971500D01*
X34646714Y31971500D01*
X34575285Y31935786D01*
X34539571Y31900072D01*
X34503857Y31828643D01*
X34503857Y31650072D01*
X34539571Y31578643D01*
X34575285Y31542929D01*
X34646714Y31507215D01*
X34861000Y31507215D01*
X34932428Y31542929D01*
X34968142Y31578643D01*
X34182428Y31578643D02*
X34146714Y31542929D01*
X34182428Y31507215D01*
X34218142Y31542929D01*
X34182428Y31578643D01*
X34182428Y31507215D01*
X33896714Y32257215D02*
X33432428Y32257215D01*
X33682428Y31971500D01*
X33575285Y31971500D01*
X33503857Y31935786D01*
X33468142Y31900072D01*
X33432428Y31828643D01*
X33432428Y31650072D01*
X33468142Y31578643D01*
X33503857Y31542929D01*
X33575285Y31507215D01*
X33789571Y31507215D01*
X33861000Y31542929D01*
X33896714Y31578643D01*
X33218142Y32257215D02*
X32968142Y31507215D01*
X32718142Y32257215D01*
X33503857Y34857215D02*
X33861000Y34857215D01*
X33896714Y34500072D01*
X33861000Y34535786D01*
X33789571Y34571500D01*
X33611000Y34571500D01*
X33539571Y34535786D01*
X33503857Y34500072D01*
X33468142Y34428643D01*
X33468142Y34250072D01*
X33503857Y34178643D01*
X33539571Y34142929D01*
X33611000Y34107215D01*
X33789571Y34107215D01*
X33861000Y34142929D01*
X33896714Y34178643D01*
X33253857Y34857215D02*
X33003857Y34107215D01*
X32753857Y34857215D01*
X26732428Y21821500D02*
X26803857Y21857215D01*
X26911000Y21857215D01*
X27018142Y21821500D01*
X27089571Y21750072D01*
X27125285Y21678643D01*
X27161000Y21535786D01*
X27161000Y21428643D01*
X27125285Y21285786D01*
X27089571Y21214358D01*
X27018142Y21142929D01*
X26911000Y21107215D01*
X26839571Y21107215D01*
X26732428Y21142929D01*
X26696714Y21178643D01*
X26696714Y21428643D01*
X26839571Y21428643D01*
X26375285Y21107215D02*
X26375285Y21857215D01*
X25946714Y21107215D01*
X25946714Y21857215D01*
X25589571Y21107215D02*
X25589571Y21857215D01*
X25411000Y21857215D01*
X25303857Y21821500D01*
X25232428Y21750072D01*
X25196714Y21678643D01*
X25161000Y21535786D01*
X25161000Y21428643D01*
X25196714Y21285786D01*
X25232428Y21214358D01*
X25303857Y21142929D01*
X25411000Y21107215D01*
X25589571Y21107215D01*
X26678857Y24144715D02*
X27036000Y24144715D01*
X27036000Y24894715D01*
X26000285Y24216143D02*
X26036000Y24180429D01*
X26143142Y24144715D01*
X26214571Y24144715D01*
X26321714Y24180429D01*
X26393142Y24251858D01*
X26428857Y24323286D01*
X26464571Y24466143D01*
X26464571Y24573286D01*
X26428857Y24716143D01*
X26393142Y24787572D01*
X26321714Y24859000D01*
X26214571Y24894715D01*
X26143142Y24894715D01*
X26036000Y24859000D01*
X26000285Y24823286D01*
X25678857Y24144715D02*
X25678857Y24894715D01*
X25500285Y24894715D01*
X25393142Y24859000D01*
X25321714Y24787572D01*
X25286000Y24716143D01*
X25250285Y24573286D01*
X25250285Y24466143D01*
X25286000Y24323286D01*
X25321714Y24251858D01*
X25393142Y24180429D01*
X25500285Y24144715D01*
X25678857Y24144715D01*
X26893142Y23944000D02*
X26143142Y23944000D01*
X26286000Y22941143D02*
X26321714Y22905429D01*
X26428857Y22869715D01*
X26500285Y22869715D01*
X26607428Y22905429D01*
X26678857Y22976858D01*
X26714571Y23048286D01*
X26750285Y23191143D01*
X26750285Y23298286D01*
X26714571Y23441143D01*
X26678857Y23512572D01*
X26607428Y23584000D01*
X26500285Y23619715D01*
X26428857Y23619715D01*
X26321714Y23584000D01*
X26286000Y23548286D01*
X26143142Y23944000D02*
X25428857Y23944000D01*
X26000285Y22905429D02*
X25893142Y22869715D01*
X25714571Y22869715D01*
X25643142Y22905429D01*
X25607428Y22941143D01*
X25571714Y23012572D01*
X25571714Y23084000D01*
X25607428Y23155429D01*
X25643142Y23191143D01*
X25714571Y23226858D01*
X25857428Y23262572D01*
X25928857Y23298286D01*
X25964571Y23334000D01*
X26000285Y23405429D01*
X26000285Y23476858D01*
X25964571Y23548286D01*
X25928857Y23584000D01*
X25857428Y23619715D01*
X25678857Y23619715D01*
X25571714Y23584000D01*
X26478857Y26544715D02*
X26836000Y26544715D01*
X26836000Y27294715D01*
X25800285Y26616143D02*
X25836000Y26580429D01*
X25943142Y26544715D01*
X26014571Y26544715D01*
X26121714Y26580429D01*
X26193142Y26651858D01*
X26228857Y26723286D01*
X26264571Y26866143D01*
X26264571Y26973286D01*
X26228857Y27116143D01*
X26193142Y27187572D01*
X26121714Y27259000D01*
X26014571Y27294715D01*
X25943142Y27294715D01*
X25836000Y27259000D01*
X25800285Y27223286D01*
X25478857Y26544715D02*
X25478857Y27294715D01*
X25300285Y27294715D01*
X25193142Y27259000D01*
X25121714Y27187572D01*
X25086000Y27116143D01*
X25050285Y26973286D01*
X25050285Y26866143D01*
X25086000Y26723286D01*
X25121714Y26651858D01*
X25193142Y26580429D01*
X25300285Y26544715D01*
X25478857Y26544715D01*
X27657428Y26344000D02*
X26907428Y26344000D01*
X27050285Y25269715D02*
X27300285Y25626858D01*
X27478857Y25269715D02*
X27478857Y26019715D01*
X27193142Y26019715D01*
X27121714Y25984000D01*
X27086000Y25948286D01*
X27050285Y25876858D01*
X27050285Y25769715D01*
X27086000Y25698286D01*
X27121714Y25662572D01*
X27193142Y25626858D01*
X27478857Y25626858D01*
X26907428Y26344000D02*
X26228857Y26344000D01*
X26728857Y25662572D02*
X26478857Y25662572D01*
X26371714Y25269715D02*
X26728857Y25269715D01*
X26728857Y26019715D01*
X26371714Y26019715D01*
X26228857Y26344000D02*
X25514571Y26344000D01*
X26086000Y25305429D02*
X25978857Y25269715D01*
X25800285Y25269715D01*
X25728857Y25305429D01*
X25693142Y25341143D01*
X25657428Y25412572D01*
X25657428Y25484000D01*
X25693142Y25555429D01*
X25728857Y25591143D01*
X25800285Y25626858D01*
X25943142Y25662572D01*
X26014571Y25698286D01*
X26050285Y25734000D01*
X26086000Y25805429D01*
X26086000Y25876858D01*
X26050285Y25948286D01*
X26014571Y25984000D01*
X25943142Y26019715D01*
X25764571Y26019715D01*
X25657428Y25984000D01*
X25514571Y26344000D02*
X24836000Y26344000D01*
X25336000Y25662572D02*
X25086000Y25662572D01*
X24978857Y25269715D02*
X25336000Y25269715D01*
X25336000Y26019715D01*
X24978857Y26019715D01*
X24836000Y26344000D02*
X24264571Y26344000D01*
X24764571Y26019715D02*
X24336000Y26019715D01*
X24550285Y25269715D02*
X24550285Y26019715D01*
X26396714Y29959000D02*
X26039571Y29959000D01*
X26468142Y29744715D02*
X26218142Y30494715D01*
X25968142Y29744715D01*
X25575285Y30494715D02*
X25503857Y30494715D01*
X25432428Y30459000D01*
X25396714Y30423286D01*
X25361000Y30351858D01*
X25325285Y30209000D01*
X25325285Y30030429D01*
X25361000Y29887572D01*
X25396714Y29816143D01*
X25432428Y29780429D01*
X25503857Y29744715D01*
X25575285Y29744715D01*
X25646714Y29780429D01*
X25682428Y29816143D01*
X25718142Y29887572D01*
X25753857Y30030429D01*
X25753857Y30209000D01*
X25718142Y30351858D01*
X25682428Y30423286D01*
X25646714Y30459000D01*
X25575285Y30494715D01*
X27450285Y28505429D02*
X27343142Y28469715D01*
X27164571Y28469715D01*
X27093142Y28505429D01*
X27057428Y28541143D01*
X27021714Y28612572D01*
X27021714Y28684000D01*
X27057428Y28755429D01*
X27093142Y28791143D01*
X27164571Y28826858D01*
X27307428Y28862572D01*
X27378857Y28898286D01*
X27414571Y28934000D01*
X27450285Y29005429D01*
X27450285Y29076858D01*
X27414571Y29148286D01*
X27378857Y29184000D01*
X27307428Y29219715D01*
X27128857Y29219715D01*
X27021714Y29184000D01*
X26414571Y28505429D02*
X26486000Y28469715D01*
X26628857Y28469715D01*
X26700285Y28505429D01*
X26736000Y28576858D01*
X26736000Y28862572D01*
X26700285Y28934000D01*
X26628857Y28969715D01*
X26486000Y28969715D01*
X26414571Y28934000D01*
X26378857Y28862572D01*
X26378857Y28791143D01*
X26736000Y28719715D01*
X25950285Y28469715D02*
X26021714Y28505429D01*
X26057428Y28576858D01*
X26057428Y29219715D01*
X25378857Y28505429D02*
X25450285Y28469715D01*
X25593142Y28469715D01*
X25664571Y28505429D01*
X25700285Y28576858D01*
X25700285Y28862572D01*
X25664571Y28934000D01*
X25593142Y28969715D01*
X25450285Y28969715D01*
X25378857Y28934000D01*
X25343142Y28862572D01*
X25343142Y28791143D01*
X25700285Y28719715D01*
X24700285Y28505429D02*
X24771714Y28469715D01*
X24914571Y28469715D01*
X24986000Y28505429D01*
X25021714Y28541143D01*
X25057428Y28612572D01*
X25057428Y28826858D01*
X25021714Y28898286D01*
X24986000Y28934000D01*
X24914571Y28969715D01*
X24771714Y28969715D01*
X24700285Y28934000D01*
X24486000Y28969715D02*
X24200285Y28969715D01*
X24378857Y29219715D02*
X24378857Y28576858D01*
X24343142Y28505429D01*
X24271714Y28469715D01*
X24200285Y28469715D01*
X26989571Y31478643D02*
X27025285Y31442929D01*
X27132428Y31407215D01*
X27203857Y31407215D01*
X27311000Y31442929D01*
X27382428Y31514358D01*
X27418142Y31585786D01*
X27453857Y31728643D01*
X27453857Y31835786D01*
X27418142Y31978643D01*
X27382428Y32050072D01*
X27311000Y32121500D01*
X27203857Y32157215D01*
X27132428Y32157215D01*
X27025285Y32121500D01*
X26989571Y32085786D01*
X26561000Y31407215D02*
X26632428Y31442929D01*
X26668142Y31514358D01*
X26668142Y32157215D01*
X26168142Y31407215D02*
X26239571Y31442929D01*
X26275285Y31478643D01*
X26311000Y31550072D01*
X26311000Y31764358D01*
X26275285Y31835786D01*
X26239571Y31871500D01*
X26168142Y31907215D01*
X26061000Y31907215D01*
X25989571Y31871500D01*
X25953857Y31835786D01*
X25918142Y31764358D01*
X25918142Y31550072D01*
X25953857Y31478643D01*
X25989571Y31442929D01*
X26061000Y31407215D01*
X26168142Y31407215D01*
X25275285Y31442929D02*
X25346714Y31407215D01*
X25489571Y31407215D01*
X25561000Y31442929D01*
X25596714Y31478643D01*
X25632428Y31550072D01*
X25632428Y31764358D01*
X25596714Y31835786D01*
X25561000Y31871500D01*
X25489571Y31907215D01*
X25346714Y31907215D01*
X25275285Y31871500D01*
X24953857Y31407215D02*
X24953857Y32157215D01*
X24882428Y31692929D02*
X24668142Y31407215D01*
X24668142Y31907215D02*
X24953857Y31621500D01*
X27350285Y34744715D02*
X27350285Y35494715D01*
X27171714Y35494715D01*
X27064571Y35459000D01*
X26993142Y35387572D01*
X26957428Y35316143D01*
X26921714Y35173286D01*
X26921714Y35066143D01*
X26957428Y34923286D01*
X26993142Y34851858D01*
X27064571Y34780429D01*
X27171714Y34744715D01*
X27350285Y34744715D01*
X26278857Y34744715D02*
X26278857Y35137572D01*
X26314571Y35209000D01*
X26386000Y35244715D01*
X26528857Y35244715D01*
X26600285Y35209000D01*
X26278857Y34780429D02*
X26350285Y34744715D01*
X26528857Y34744715D01*
X26600285Y34780429D01*
X26636000Y34851858D01*
X26636000Y34923286D01*
X26600285Y34994715D01*
X26528857Y35030429D01*
X26350285Y35030429D01*
X26278857Y35066143D01*
X26028857Y35244715D02*
X25743142Y35244715D01*
X25921714Y35494715D02*
X25921714Y34851858D01*
X25886000Y34780429D01*
X25814571Y34744715D01*
X25743142Y34744715D01*
X25171714Y34744715D02*
X25171714Y35137572D01*
X25207428Y35209000D01*
X25278857Y35244715D01*
X25421714Y35244715D01*
X25493142Y35209000D01*
X25171714Y34780429D02*
X25243142Y34744715D01*
X25421714Y34744715D01*
X25493142Y34780429D01*
X25528857Y34851858D01*
X25528857Y34923286D01*
X25493142Y34994715D01*
X25421714Y35030429D01*
X25243142Y35030429D01*
X25171714Y35066143D01*
X26886000Y34219715D02*
X26743142Y34219715D01*
X26671714Y34184000D01*
X26600285Y34112572D01*
X26564571Y33969715D01*
X26564571Y33719715D01*
X26600285Y33576858D01*
X26671714Y33505429D01*
X26743142Y33469715D01*
X26886000Y33469715D01*
X26957428Y33505429D01*
X27028857Y33576858D01*
X27064571Y33719715D01*
X27064571Y33969715D01*
X27028857Y34112572D01*
X26957428Y34184000D01*
X26886000Y34219715D01*
X25921714Y33969715D02*
X25921714Y33469715D01*
X26243142Y33969715D02*
X26243142Y33576858D01*
X26207428Y33505429D01*
X26136000Y33469715D01*
X26028857Y33469715D01*
X25957428Y33505429D01*
X25921714Y33541143D01*
X25671714Y33969715D02*
X25386000Y33969715D01*
X25564571Y34219715D02*
X25564571Y33576858D01*
X25528857Y33505429D01*
X25457428Y33469715D01*
X25386000Y33469715D01*
X15803857Y25757215D02*
X16161000Y25757215D01*
X16196714Y25400072D01*
X16161000Y25435786D01*
X16089571Y25471500D01*
X15911000Y25471500D01*
X15839571Y25435786D01*
X15803857Y25400072D01*
X15768142Y25328643D01*
X15768142Y25150072D01*
X15803857Y25078643D01*
X15839571Y25042929D01*
X15911000Y25007215D01*
X16089571Y25007215D01*
X16161000Y25042929D01*
X16196714Y25078643D01*
X15553857Y25757215D02*
X15303857Y25007215D01*
X15053857Y25757215D01*
X15632428Y28321500D02*
X15703857Y28357215D01*
X15811000Y28357215D01*
X15918142Y28321500D01*
X15989571Y28250072D01*
X16025285Y28178643D01*
X16061000Y28035786D01*
X16061000Y27928643D01*
X16025285Y27785786D01*
X15989571Y27714358D01*
X15918142Y27642929D01*
X15811000Y27607215D01*
X15739571Y27607215D01*
X15632428Y27642929D01*
X15596714Y27678643D01*
X15596714Y27928643D01*
X15739571Y27928643D01*
X15275285Y27607215D02*
X15275285Y28357215D01*
X14846714Y27607215D01*
X14846714Y28357215D01*
X14489571Y27607215D02*
X14489571Y28357215D01*
X14311000Y28357215D01*
X14203857Y28321500D01*
X14132428Y28250072D01*
X14096714Y28178643D01*
X14061000Y28035786D01*
X14061000Y27928643D01*
X14096714Y27785786D01*
X14132428Y27714358D01*
X14203857Y27642929D01*
X14311000Y27607215D01*
X14489571Y27607215D01*
X15689571Y30278643D02*
X15725285Y30242929D01*
X15832428Y30207215D01*
X15903857Y30207215D01*
X16011000Y30242929D01*
X16082428Y30314358D01*
X16118142Y30385786D01*
X16153857Y30528643D01*
X16153857Y30635786D01*
X16118142Y30778643D01*
X16082428Y30850072D01*
X16011000Y30921500D01*
X15903857Y30957215D01*
X15832428Y30957215D01*
X15725285Y30921500D01*
X15689571Y30885786D01*
X15261000Y30207215D02*
X15332428Y30242929D01*
X15368142Y30314358D01*
X15368142Y30957215D01*
X14868142Y30207215D02*
X14939571Y30242929D01*
X14975285Y30278643D01*
X15011000Y30350072D01*
X15011000Y30564358D01*
X14975285Y30635786D01*
X14939571Y30671500D01*
X14868142Y30707215D01*
X14761000Y30707215D01*
X14689571Y30671500D01*
X14653857Y30635786D01*
X14618142Y30564358D01*
X14618142Y30350072D01*
X14653857Y30278643D01*
X14689571Y30242929D01*
X14761000Y30207215D01*
X14868142Y30207215D01*
X13975285Y30242929D02*
X14046714Y30207215D01*
X14189571Y30207215D01*
X14261000Y30242929D01*
X14296714Y30278643D01*
X14332428Y30350072D01*
X14332428Y30564358D01*
X14296714Y30635786D01*
X14261000Y30671500D01*
X14189571Y30707215D01*
X14046714Y30707215D01*
X13975285Y30671500D01*
X13653857Y30207215D02*
X13653857Y30957215D01*
X13582428Y30492929D02*
X13368142Y30207215D01*
X13368142Y30707215D02*
X13653857Y30421500D01*
X16082428Y32907215D02*
X16082428Y33657215D01*
X15903857Y33657215D01*
X15796714Y33621500D01*
X15725285Y33550072D01*
X15689571Y33478643D01*
X15653857Y33335786D01*
X15653857Y33228643D01*
X15689571Y33085786D01*
X15725285Y33014358D01*
X15796714Y32942929D01*
X15903857Y32907215D01*
X16082428Y32907215D01*
X15011000Y32907215D02*
X15011000Y33300072D01*
X15046714Y33371500D01*
X15118142Y33407215D01*
X15261000Y33407215D01*
X15332428Y33371500D01*
X15011000Y32942929D02*
X15082428Y32907215D01*
X15261000Y32907215D01*
X15332428Y32942929D01*
X15368142Y33014358D01*
X15368142Y33085786D01*
X15332428Y33157215D01*
X15261000Y33192929D01*
X15082428Y33192929D01*
X15011000Y33228643D01*
X14761000Y33407215D02*
X14475285Y33407215D01*
X14653857Y33657215D02*
X14653857Y33014358D01*
X14618142Y32942929D01*
X14546714Y32907215D01*
X14475285Y32907215D01*
X13903857Y32907215D02*
X13903857Y33300072D01*
X13939571Y33371500D01*
X14011000Y33407215D01*
X14153857Y33407215D01*
X14225285Y33371500D01*
X13903857Y32942929D02*
X13975285Y32907215D01*
X14153857Y32907215D01*
X14225285Y32942929D01*
X14261000Y33014358D01*
X14261000Y33085786D01*
X14225285Y33157215D01*
X14153857Y33192929D01*
X13975285Y33192929D01*
X13903857Y33228643D01*
X12832428Y33657215D02*
X12689571Y33657215D01*
X12618142Y33621500D01*
X12546714Y33550072D01*
X12511000Y33407215D01*
X12511000Y33157215D01*
X12546714Y33014358D01*
X12618142Y32942929D01*
X12689571Y32907215D01*
X12832428Y32907215D01*
X12903857Y32942929D01*
X12975285Y33014358D01*
X13011000Y33157215D01*
X13011000Y33407215D01*
X12975285Y33550072D01*
X12903857Y33621500D01*
X12832428Y33657215D01*
X11868142Y33407215D02*
X11868142Y32907215D01*
X12189571Y33407215D02*
X12189571Y33014358D01*
X12153857Y32942929D01*
X12082428Y32907215D01*
X11975285Y32907215D01*
X11903857Y32942929D01*
X11868142Y32978643D01*
X11618142Y33407215D02*
X11332428Y33407215D01*
X11511000Y33657215D02*
X11511000Y33014358D01*
X11475285Y32942929D01*
X11403857Y32907215D01*
X11332428Y32907215D01*
X15953857Y35407215D02*
X15953857Y36157215D01*
X15775285Y36157215D01*
X15668142Y36121500D01*
X15596714Y36050072D01*
X15561000Y35978643D01*
X15525285Y35835786D01*
X15525285Y35728643D01*
X15561000Y35585786D01*
X15596714Y35514358D01*
X15668142Y35442929D01*
X15775285Y35407215D01*
X15953857Y35407215D01*
X14882428Y35407215D02*
X14882428Y35800072D01*
X14918142Y35871500D01*
X14989571Y35907215D01*
X15132428Y35907215D01*
X15203857Y35871500D01*
X14882428Y35442929D02*
X14953857Y35407215D01*
X15132428Y35407215D01*
X15203857Y35442929D01*
X15239571Y35514358D01*
X15239571Y35585786D01*
X15203857Y35657215D01*
X15132428Y35692929D01*
X14953857Y35692929D01*
X14882428Y35728643D01*
X14632428Y35907215D02*
X14346714Y35907215D01*
X14525285Y36157215D02*
X14525285Y35514358D01*
X14489571Y35442929D01*
X14418142Y35407215D01*
X14346714Y35407215D01*
X13775285Y35407215D02*
X13775285Y35800072D01*
X13811000Y35871500D01*
X13882428Y35907215D01*
X14025285Y35907215D01*
X14096714Y35871500D01*
X13775285Y35442929D02*
X13846714Y35407215D01*
X14025285Y35407215D01*
X14096714Y35442929D01*
X14132428Y35514358D01*
X14132428Y35585786D01*
X14096714Y35657215D01*
X14025285Y35692929D01*
X13846714Y35692929D01*
X13775285Y35728643D01*
X12846714Y35407215D02*
X12846714Y36157215D01*
X12489571Y35907215D02*
X12489571Y35407215D01*
X12489571Y35835786D02*
X12453857Y35871500D01*
X12382428Y35907215D01*
X12275285Y35907215D01*
X12203857Y35871500D01*
X12168142Y35800072D01*
X12168142Y35407215D01*
X15993142Y38981500D02*
X15243142Y38981500D01*
X15386000Y37978643D02*
X15421714Y37942929D01*
X15528857Y37907215D01*
X15600285Y37907215D01*
X15707428Y37942929D01*
X15778857Y38014358D01*
X15814571Y38085786D01*
X15850285Y38228643D01*
X15850285Y38335786D01*
X15814571Y38478643D01*
X15778857Y38550072D01*
X15707428Y38621500D01*
X15600285Y38657215D01*
X15528857Y38657215D01*
X15421714Y38621500D01*
X15386000Y38585786D01*
X15243142Y38981500D02*
X14528857Y38981500D01*
X15100285Y37942929D02*
X14993142Y37907215D01*
X14814571Y37907215D01*
X14743142Y37942929D01*
X14707428Y37978643D01*
X14671714Y38050072D01*
X14671714Y38121500D01*
X14707428Y38192929D01*
X14743142Y38228643D01*
X14814571Y38264358D01*
X14957428Y38300072D01*
X15028857Y38335786D01*
X15064571Y38371500D01*
X15100285Y38442929D01*
X15100285Y38514358D01*
X15064571Y38585786D01*
X15028857Y38621500D01*
X14957428Y38657215D01*
X14778857Y38657215D01*
X14671714Y38621500D01*
X13112785Y48750072D02*
X13112785Y48321500D01*
X13862785Y48535786D02*
X13112785Y48535786D01*
X13862785Y48071500D02*
X13112785Y48071500D01*
X13862785Y47750072D02*
X13469928Y47750072D01*
X13398500Y47785786D01*
X13362785Y47857215D01*
X13362785Y47964358D01*
X13398500Y48035786D01*
X13434214Y48071500D01*
X13827071Y47107215D02*
X13862785Y47178643D01*
X13862785Y47321500D01*
X13827071Y47392929D01*
X13755642Y47428643D01*
X13469928Y47428643D01*
X13398500Y47392929D01*
X13362785Y47321500D01*
X13362785Y47178643D01*
X13398500Y47107215D01*
X13469928Y47071500D01*
X13541357Y47071500D01*
X13612785Y47428643D01*
X13862785Y46750072D02*
X13362785Y46750072D01*
X13505642Y46750072D02*
X13434214Y46714358D01*
X13398500Y46678643D01*
X13362785Y46607215D01*
X13362785Y46535786D01*
X13862785Y46285786D02*
X13362785Y46285786D01*
X13434214Y46285786D02*
X13398500Y46250072D01*
X13362785Y46178643D01*
X13362785Y46071500D01*
X13398500Y46000072D01*
X13469928Y45964358D01*
X13862785Y45964358D01*
X13469928Y45964358D02*
X13398500Y45928643D01*
X13362785Y45857215D01*
X13362785Y45750072D01*
X13398500Y45678643D01*
X13469928Y45642929D01*
X13862785Y45642929D01*
X13862785Y45178643D02*
X13827071Y45250072D01*
X13791357Y45285786D01*
X13719928Y45321500D01*
X13505642Y45321500D01*
X13434214Y45285786D01*
X13398500Y45250072D01*
X13362785Y45178643D01*
X13362785Y45071500D01*
X13398500Y45000072D01*
X13434214Y44964358D01*
X13505642Y44928643D01*
X13719928Y44928643D01*
X13791357Y44964358D01*
X13827071Y45000072D01*
X13862785Y45071500D01*
X13862785Y45178643D01*
X13827071Y44285786D02*
X13862785Y44357215D01*
X13862785Y44500072D01*
X13827071Y44571500D01*
X13791357Y44607215D01*
X13719928Y44642929D01*
X13505642Y44642929D01*
X13434214Y44607215D01*
X13398500Y44571500D01*
X13362785Y44500072D01*
X13362785Y44357215D01*
X13398500Y44285786D01*
X13862785Y43857215D02*
X13827071Y43928643D01*
X13791357Y43964358D01*
X13719928Y44000072D01*
X13505642Y44000072D01*
X13434214Y43964358D01*
X13398500Y43928643D01*
X13362785Y43857215D01*
X13362785Y43750072D01*
X13398500Y43678643D01*
X13434214Y43642929D01*
X13505642Y43607215D01*
X13719928Y43607215D01*
X13791357Y43642929D01*
X13827071Y43678643D01*
X13862785Y43750072D01*
X13862785Y43857215D01*
X13362785Y42964358D02*
X13862785Y42964358D01*
X13362785Y43285786D02*
X13755642Y43285786D01*
X13827071Y43250072D01*
X13862785Y43178643D01*
X13862785Y43071500D01*
X13827071Y43000072D01*
X13791357Y42964358D01*
X13362785Y42607215D02*
X14112785Y42607215D01*
X13398500Y42607215D02*
X13362785Y42535786D01*
X13362785Y42392929D01*
X13398500Y42321500D01*
X13434214Y42285786D01*
X13505642Y42250072D01*
X13719928Y42250072D01*
X13791357Y42285786D01*
X13827071Y42321500D01*
X13862785Y42392929D01*
X13862785Y42535786D01*
X13827071Y42607215D01*
X13862785Y41821500D02*
X13827071Y41892929D01*
X13755642Y41928643D01*
X13112785Y41928643D01*
X13827071Y41250072D02*
X13862785Y41321500D01*
X13862785Y41464358D01*
X13827071Y41535786D01*
X13755642Y41571500D01*
X13469928Y41571500D01*
X13398500Y41535786D01*
X13362785Y41464358D01*
X13362785Y41321500D01*
X13398500Y41250072D01*
X13469928Y41214358D01*
X13541357Y41214358D01*
X13612785Y41571500D01*
X15137785Y48553643D02*
X15102071Y48625072D01*
X15066357Y48660786D01*
X14994928Y48696500D01*
X14780642Y48696500D01*
X14709214Y48660786D01*
X14673500Y48625072D01*
X14637785Y48553643D01*
X14637785Y48446500D01*
X14673500Y48375072D01*
X14709214Y48339358D01*
X14780642Y48303643D01*
X14994928Y48303643D01*
X15066357Y48339358D01*
X15102071Y48375072D01*
X15137785Y48446500D01*
X15137785Y48553643D01*
X15137785Y47982215D02*
X14637785Y47982215D01*
X14780642Y47982215D02*
X14709214Y47946500D01*
X14673500Y47910786D01*
X14637785Y47839358D01*
X14637785Y47767929D01*
X14637785Y47053643D02*
X14637785Y46767929D01*
X15137785Y46946500D02*
X14494928Y46946500D01*
X14423500Y46910786D01*
X14387785Y46839358D01*
X14387785Y46767929D01*
X15137785Y46196500D02*
X14744928Y46196500D01*
X14673500Y46232215D01*
X14637785Y46303643D01*
X14637785Y46446500D01*
X14673500Y46517929D01*
X15102071Y46196500D02*
X15137785Y46267929D01*
X15137785Y46446500D01*
X15102071Y46517929D01*
X15030642Y46553643D01*
X14959214Y46553643D01*
X14887785Y46517929D01*
X14852071Y46446500D01*
X14852071Y46267929D01*
X14816357Y46196500D01*
X14637785Y45839358D02*
X15137785Y45839358D01*
X14709214Y45839358D02*
X14673500Y45803643D01*
X14637785Y45732215D01*
X14637785Y45625072D01*
X14673500Y45553643D01*
X14744928Y45517929D01*
X15137785Y45517929D01*
X15102071Y44303643D02*
X15137785Y44375072D01*
X15137785Y44517929D01*
X15102071Y44589358D01*
X15030642Y44625072D01*
X14744928Y44625072D01*
X14673500Y44589358D01*
X14637785Y44517929D01*
X14637785Y44375072D01*
X14673500Y44303643D01*
X14744928Y44267929D01*
X14816357Y44267929D01*
X14887785Y44625072D01*
X14637785Y43946500D02*
X15137785Y43946500D01*
X14709214Y43946500D02*
X14673500Y43910786D01*
X14637785Y43839358D01*
X14637785Y43732215D01*
X14673500Y43660786D01*
X14744928Y43625072D01*
X15137785Y43625072D01*
X15137785Y42946500D02*
X14744928Y42946500D01*
X14673500Y42982215D01*
X14637785Y43053643D01*
X14637785Y43196500D01*
X14673500Y43267929D01*
X15102071Y42946500D02*
X15137785Y43017929D01*
X15137785Y43196500D01*
X15102071Y43267929D01*
X15030642Y43303643D01*
X14959214Y43303643D01*
X14887785Y43267929D01*
X14852071Y43196500D01*
X14852071Y43017929D01*
X14816357Y42946500D01*
X15137785Y42589358D02*
X14387785Y42589358D01*
X14673500Y42589358D02*
X14637785Y42517929D01*
X14637785Y42375072D01*
X14673500Y42303643D01*
X14709214Y42267929D01*
X14780642Y42232215D01*
X14994928Y42232215D01*
X15066357Y42267929D01*
X15102071Y42303643D01*
X15137785Y42375072D01*
X15137785Y42517929D01*
X15102071Y42589358D01*
X15137785Y41803643D02*
X15102071Y41875072D01*
X15030642Y41910786D01*
X14387785Y41910786D01*
X15102071Y41232215D02*
X15137785Y41303643D01*
X15137785Y41446500D01*
X15102071Y41517929D01*
X15030642Y41553643D01*
X14744928Y41553643D01*
X14673500Y41517929D01*
X14637785Y41446500D01*
X14637785Y41303643D01*
X14673500Y41232215D01*
X14744928Y41196500D01*
X14816357Y41196500D01*
X14887785Y41553643D01*
X18687785Y53514358D02*
X18687785Y53014358D01*
X19437785Y53514358D01*
X19437785Y53014358D01*
X19437785Y52157215D02*
X18687785Y52157215D01*
X18687785Y51871500D01*
X18723500Y51800072D01*
X18759214Y51764358D01*
X18830642Y51728643D01*
X18937785Y51728643D01*
X19009214Y51764358D01*
X19044928Y51800072D01*
X19080642Y51871500D01*
X19080642Y52157215D01*
X19437785Y51407215D02*
X18937785Y51407215D01*
X19080642Y51407215D02*
X19009214Y51371500D01*
X18973500Y51335786D01*
X18937785Y51264358D01*
X18937785Y51192929D01*
X19437785Y50835786D02*
X19402071Y50907215D01*
X19366357Y50942929D01*
X19294928Y50978643D01*
X19080642Y50978643D01*
X19009214Y50942929D01*
X18973500Y50907215D01*
X18937785Y50835786D01*
X18937785Y50728643D01*
X18973500Y50657215D01*
X19009214Y50621500D01*
X19080642Y50585786D01*
X19294928Y50585786D01*
X19366357Y50621500D01*
X19402071Y50657215D01*
X19437785Y50728643D01*
X19437785Y50835786D01*
X19437785Y50264358D02*
X18687785Y50264358D01*
X18973500Y50264358D02*
X18937785Y50192929D01*
X18937785Y50050072D01*
X18973500Y49978643D01*
X19009214Y49942929D01*
X19080642Y49907215D01*
X19294928Y49907215D01*
X19366357Y49942929D01*
X19402071Y49978643D01*
X19437785Y50050072D01*
X19437785Y50192929D01*
X19402071Y50264358D01*
X19402071Y49300072D02*
X19437785Y49371500D01*
X19437785Y49514358D01*
X19402071Y49585786D01*
X19330642Y49621500D01*
X19044928Y49621500D01*
X18973500Y49585786D01*
X18937785Y49514358D01*
X18937785Y49371500D01*
X18973500Y49300072D01*
X19044928Y49264358D01*
X19116357Y49264358D01*
X19187785Y49621500D01*
X20712785Y52603643D02*
X19962785Y52603643D01*
X20212785Y52246500D02*
X20712785Y52246500D01*
X20284214Y52246500D02*
X20248500Y52210786D01*
X20212785Y52139358D01*
X20212785Y52032215D01*
X20248500Y51960786D01*
X20319928Y51925072D01*
X20712785Y51925072D01*
X20212785Y51567929D02*
X20962785Y51567929D01*
X20248500Y51567929D02*
X20212785Y51496500D01*
X20212785Y51353643D01*
X20248500Y51282215D01*
X20284214Y51246500D01*
X20355642Y51210786D01*
X20569928Y51210786D01*
X20641357Y51246500D01*
X20677071Y51282215D01*
X20712785Y51353643D01*
X20712785Y51496500D01*
X20677071Y51567929D01*
X20212785Y50567929D02*
X20712785Y50567929D01*
X20212785Y50889358D02*
X20605642Y50889358D01*
X20677071Y50853643D01*
X20712785Y50782215D01*
X20712785Y50675072D01*
X20677071Y50603643D01*
X20641357Y50567929D01*
X20212785Y50317929D02*
X20212785Y50032215D01*
X19962785Y50210786D02*
X20605642Y50210786D01*
X20677071Y50175072D01*
X20712785Y50103643D01*
X20712785Y50032215D01*
X24561000Y56842929D02*
X24525285Y56914358D01*
X24525285Y57021500D01*
X24561000Y57128643D01*
X24632428Y57200072D01*
X24703857Y57235786D01*
X24846714Y57271500D01*
X24953857Y57271500D01*
X25096714Y57235786D01*
X25168142Y57200072D01*
X25239571Y57128643D01*
X25275285Y57021500D01*
X25275285Y56950072D01*
X25239571Y56842929D01*
X25203857Y56807215D01*
X24953857Y56807215D01*
X24953857Y56950072D01*
X25275285Y56485786D02*
X24525285Y56485786D01*
X25275285Y56057215D01*
X24525285Y56057215D01*
X25275285Y55700072D02*
X24525285Y55700072D01*
X24525285Y55521500D01*
X24561000Y55414358D01*
X24632428Y55342929D01*
X24703857Y55307215D01*
X24846714Y55271500D01*
X24953857Y55271500D01*
X25096714Y55307215D01*
X25168142Y55342929D01*
X25239571Y55414358D01*
X25275285Y55521500D01*
X25275285Y55700072D01*
X26612785Y51889358D02*
X26612785Y51389358D01*
X27362785Y51889358D01*
X27362785Y51389358D01*
X27362785Y50532215D02*
X26612785Y50532215D01*
X26612785Y50246500D01*
X26648500Y50175072D01*
X26684214Y50139358D01*
X26755642Y50103643D01*
X26862785Y50103643D01*
X26934214Y50139358D01*
X26969928Y50175072D01*
X27005642Y50246500D01*
X27005642Y50532215D01*
X27362785Y49782215D02*
X26862785Y49782215D01*
X27005642Y49782215D02*
X26934214Y49746500D01*
X26898500Y49710786D01*
X26862785Y49639358D01*
X26862785Y49567929D01*
X27362785Y49210786D02*
X27327071Y49282215D01*
X27291357Y49317929D01*
X27219928Y49353643D01*
X27005642Y49353643D01*
X26934214Y49317929D01*
X26898500Y49282215D01*
X26862785Y49210786D01*
X26862785Y49103643D01*
X26898500Y49032215D01*
X26934214Y48996500D01*
X27005642Y48960786D01*
X27219928Y48960786D01*
X27291357Y48996500D01*
X27327071Y49032215D01*
X27362785Y49103643D01*
X27362785Y49210786D01*
X27362785Y48639358D02*
X26612785Y48639358D01*
X26898500Y48639358D02*
X26862785Y48567929D01*
X26862785Y48425072D01*
X26898500Y48353643D01*
X26934214Y48317929D01*
X27005642Y48282215D01*
X27219928Y48282215D01*
X27291357Y48317929D01*
X27327071Y48353643D01*
X27362785Y48425072D01*
X27362785Y48567929D01*
X27327071Y48639358D01*
X27327071Y47675072D02*
X27362785Y47746500D01*
X27362785Y47889358D01*
X27327071Y47960786D01*
X27255642Y47996500D01*
X26969928Y47996500D01*
X26898500Y47960786D01*
X26862785Y47889358D01*
X26862785Y47746500D01*
X26898500Y47675072D01*
X26969928Y47639358D01*
X27041357Y47639358D01*
X27112785Y47996500D01*
X28637785Y50353643D02*
X28602071Y50425072D01*
X28566357Y50460786D01*
X28494928Y50496500D01*
X28280642Y50496500D01*
X28209214Y50460786D01*
X28173500Y50425072D01*
X28137785Y50353643D01*
X28137785Y50246500D01*
X28173500Y50175072D01*
X28209214Y50139358D01*
X28280642Y50103643D01*
X28494928Y50103643D01*
X28566357Y50139358D01*
X28602071Y50175072D01*
X28637785Y50246500D01*
X28637785Y50353643D01*
X28137785Y49460786D02*
X28637785Y49460786D01*
X28137785Y49782215D02*
X28530642Y49782215D01*
X28602071Y49746500D01*
X28637785Y49675072D01*
X28637785Y49567929D01*
X28602071Y49496500D01*
X28566357Y49460786D01*
X28137785Y49210786D02*
X28137785Y48925072D01*
X27887785Y49103643D02*
X28530642Y49103643D01*
X28602071Y49067929D01*
X28637785Y48996500D01*
X28637785Y48925072D01*
X29850285Y50189358D02*
X29850285Y50546500D01*
X30207428Y50582215D01*
X30171714Y50546500D01*
X30136000Y50475072D01*
X30136000Y50296500D01*
X30171714Y50225072D01*
X30207428Y50189358D01*
X30278857Y50153643D01*
X30457428Y50153643D01*
X30528857Y50189358D01*
X30564571Y50225072D01*
X30600285Y50296500D01*
X30600285Y50475072D01*
X30564571Y50546500D01*
X30528857Y50582215D01*
X29850285Y49939358D02*
X30600285Y49689358D01*
X29850285Y49439358D01*
X20539571Y9975072D02*
X20789571Y9975072D01*
X20789571Y9582215D02*
X20789571Y10332215D01*
X20432428Y10332215D01*
X19825285Y9582215D02*
X19825285Y9975072D01*
X19861000Y10046500D01*
X19932428Y10082215D01*
X20075285Y10082215D01*
X20146714Y10046500D01*
X19825285Y9617929D02*
X19896714Y9582215D01*
X20075285Y9582215D01*
X20146714Y9617929D01*
X20182428Y9689358D01*
X20182428Y9760786D01*
X20146714Y9832215D01*
X20075285Y9867929D01*
X19896714Y9867929D01*
X19825285Y9903643D01*
X19468142Y10082215D02*
X19468142Y9582215D01*
X19468142Y10010786D02*
X19432428Y10046500D01*
X19361000Y10082215D01*
X19253857Y10082215D01*
X19182428Y10046500D01*
X19146714Y9975072D01*
X19146714Y9582215D01*
X17896714Y9617929D02*
X17968142Y9582215D01*
X18111000Y9582215D01*
X18182428Y9617929D01*
X18218142Y9653643D01*
X18253857Y9725072D01*
X18253857Y9939358D01*
X18218142Y10010786D01*
X18182428Y10046500D01*
X18111000Y10082215D01*
X17968142Y10082215D01*
X17896714Y10046500D01*
X17468142Y9582215D02*
X17539571Y9617929D01*
X17575285Y9653643D01*
X17611000Y9725072D01*
X17611000Y9939358D01*
X17575285Y10010786D01*
X17539571Y10046500D01*
X17468142Y10082215D01*
X17361000Y10082215D01*
X17289571Y10046500D01*
X17253857Y10010786D01*
X17218142Y9939358D01*
X17218142Y9725072D01*
X17253857Y9653643D01*
X17289571Y9617929D01*
X17361000Y9582215D01*
X17468142Y9582215D01*
X16896714Y10082215D02*
X16896714Y9582215D01*
X16896714Y10010786D02*
X16861000Y10046500D01*
X16789571Y10082215D01*
X16682428Y10082215D01*
X16611000Y10046500D01*
X16575285Y9975072D01*
X16575285Y9582215D01*
X16218142Y10082215D02*
X16218142Y9582215D01*
X16218142Y10010786D02*
X16182428Y10046500D01*
X16111000Y10082215D01*
X16003857Y10082215D01*
X15932428Y10046500D01*
X15896714Y9975072D01*
X15896714Y9582215D01*
X15253857Y9617929D02*
X15325285Y9582215D01*
X15468142Y9582215D01*
X15539571Y9617929D01*
X15575285Y9689358D01*
X15575285Y9975072D01*
X15539571Y10046500D01*
X15468142Y10082215D01*
X15325285Y10082215D01*
X15253857Y10046500D01*
X15218142Y9975072D01*
X15218142Y9903643D01*
X15575285Y9832215D01*
X14575285Y9617929D02*
X14646714Y9582215D01*
X14789571Y9582215D01*
X14861000Y9617929D01*
X14896714Y9653643D01*
X14932428Y9725072D01*
X14932428Y9939358D01*
X14896714Y10010786D01*
X14861000Y10046500D01*
X14789571Y10082215D01*
X14646714Y10082215D01*
X14575285Y10046500D01*
X14361000Y10082215D02*
X14075285Y10082215D01*
X14253857Y10332215D02*
X14253857Y9689358D01*
X14218142Y9617929D01*
X14146714Y9582215D01*
X14075285Y9582215D01*
X13718142Y9582215D02*
X13789571Y9617929D01*
X13825285Y9653643D01*
X13861000Y9725072D01*
X13861000Y9939358D01*
X13825285Y10010786D01*
X13789571Y10046500D01*
X13718142Y10082215D01*
X13611000Y10082215D01*
X13539571Y10046500D01*
X13503857Y10010786D01*
X13468142Y9939358D01*
X13468142Y9725072D01*
X13503857Y9653643D01*
X13539571Y9617929D01*
X13611000Y9582215D01*
X13718142Y9582215D01*
X13146714Y9582215D02*
X13146714Y10082215D01*
X13146714Y9939358D02*
X13111000Y10010786D01*
X13075285Y10046500D01*
X13003857Y10082215D01*
X12932428Y10082215D01*
X12718142Y9617929D02*
X12646714Y9582215D01*
X12503857Y9582215D01*
X12432428Y9617929D01*
X12396714Y9689358D01*
X12396714Y9725072D01*
X12432428Y9796500D01*
X12503857Y9832215D01*
X12611000Y9832215D01*
X12682428Y9867929D01*
X12718142Y9939358D01*
X12718142Y9975072D01*
X12682428Y10046500D01*
X12611000Y10082215D01*
X12503857Y10082215D01*
X12432428Y10046500D01*
X61669928Y7614358D02*
X61669928Y7864358D01*
X62062785Y7864358D02*
X61312785Y7864358D01*
X61312785Y7507215D01*
X62062785Y6900072D02*
X61669928Y6900072D01*
X61598500Y6935786D01*
X61562785Y7007215D01*
X61562785Y7150072D01*
X61598500Y7221500D01*
X62027071Y6900072D02*
X62062785Y6971500D01*
X62062785Y7150072D01*
X62027071Y7221500D01*
X61955642Y7257215D01*
X61884214Y7257215D01*
X61812785Y7221500D01*
X61777071Y7150072D01*
X61777071Y6971500D01*
X61741357Y6900072D01*
X61562785Y6542929D02*
X62062785Y6542929D01*
X61634214Y6542929D02*
X61598500Y6507215D01*
X61562785Y6435786D01*
X61562785Y6328643D01*
X61598500Y6257215D01*
X61669928Y6221500D01*
X62062785Y6221500D01*
X61562785Y5364358D02*
X62062785Y5185786D01*
X61562785Y5007215D01*
X62062785Y4614358D02*
X62027071Y4685786D01*
X61991357Y4721500D01*
X61919928Y4757215D01*
X61705642Y4757215D01*
X61634214Y4721500D01*
X61598500Y4685786D01*
X61562785Y4614358D01*
X61562785Y4507215D01*
X61598500Y4435786D01*
X61634214Y4400072D01*
X61705642Y4364358D01*
X61919928Y4364358D01*
X61991357Y4400072D01*
X62027071Y4435786D01*
X62062785Y4507215D01*
X62062785Y4614358D01*
X62062785Y3935786D02*
X62027071Y4007215D01*
X61955642Y4042929D01*
X61312785Y4042929D01*
X61562785Y3757215D02*
X61562785Y3471500D01*
X61312785Y3650072D02*
X61955642Y3650072D01*
X62027071Y3614358D01*
X62062785Y3542929D01*
X62062785Y3471500D01*
X62062785Y2900072D02*
X61669928Y2900072D01*
X61598500Y2935786D01*
X61562785Y3007215D01*
X61562785Y3150072D01*
X61598500Y3221500D01*
X62027071Y2900072D02*
X62062785Y2971500D01*
X62062785Y3150072D01*
X62027071Y3221500D01*
X61955642Y3257215D01*
X61884214Y3257215D01*
X61812785Y3221500D01*
X61777071Y3150072D01*
X61777071Y2971500D01*
X61741357Y2900072D01*
X61562785Y2221500D02*
X62169928Y2221500D01*
X62241357Y2257215D01*
X62277071Y2292929D01*
X62312785Y2364358D01*
X62312785Y2471500D01*
X62277071Y2542929D01*
X62027071Y2221500D02*
X62062785Y2292929D01*
X62062785Y2435786D01*
X62027071Y2507215D01*
X61991357Y2542929D01*
X61919928Y2578643D01*
X61705642Y2578643D01*
X61634214Y2542929D01*
X61598500Y2507215D01*
X61562785Y2435786D01*
X61562785Y2292929D01*
X61598500Y2221500D01*
X62027071Y1578643D02*
X62062785Y1650072D01*
X62062785Y1792929D01*
X62027071Y1864358D01*
X61955642Y1900072D01*
X61669928Y1900072D01*
X61598500Y1864358D01*
X61562785Y1792929D01*
X61562785Y1650072D01*
X61598500Y1578643D01*
X61669928Y1542929D01*
X61741357Y1542929D01*
X61812785Y1900072D01*
X63302071Y6828643D02*
X63337785Y6757215D01*
X63337785Y6614358D01*
X63302071Y6542929D01*
X63230642Y6507215D01*
X63194928Y6507215D01*
X63123500Y6542929D01*
X63087785Y6614358D01*
X63087785Y6721500D01*
X63052071Y6792929D01*
X62980642Y6828643D01*
X62944928Y6828643D01*
X62873500Y6792929D01*
X62837785Y6721500D01*
X62837785Y6614358D01*
X62873500Y6542929D01*
X63302071Y5900072D02*
X63337785Y5971500D01*
X63337785Y6114358D01*
X63302071Y6185786D01*
X63230642Y6221500D01*
X62944928Y6221500D01*
X62873500Y6185786D01*
X62837785Y6114358D01*
X62837785Y5971500D01*
X62873500Y5900072D01*
X62944928Y5864358D01*
X63016357Y5864358D01*
X63087785Y6221500D01*
X63337785Y5435786D02*
X63302071Y5507215D01*
X63230642Y5542929D01*
X62587785Y5542929D01*
X63302071Y4864358D02*
X63337785Y4935786D01*
X63337785Y5078643D01*
X63302071Y5150072D01*
X63230642Y5185786D01*
X62944928Y5185786D01*
X62873500Y5150072D01*
X62837785Y5078643D01*
X62837785Y4935786D01*
X62873500Y4864358D01*
X62944928Y4828643D01*
X63016357Y4828643D01*
X63087785Y5185786D01*
X63302071Y4185786D02*
X63337785Y4257215D01*
X63337785Y4400072D01*
X63302071Y4471500D01*
X63266357Y4507215D01*
X63194928Y4542929D01*
X62980642Y4542929D01*
X62909214Y4507215D01*
X62873500Y4471500D01*
X62837785Y4400072D01*
X62837785Y4257215D01*
X62873500Y4185786D01*
X62837785Y3971500D02*
X62837785Y3685786D01*
X62587785Y3864358D02*
X63230642Y3864358D01*
X63302071Y3828643D01*
X63337785Y3757215D01*
X63337785Y3685786D01*
X63337785Y3328643D02*
X63302071Y3400072D01*
X63266357Y3435786D01*
X63194928Y3471500D01*
X62980642Y3471500D01*
X62909214Y3435786D01*
X62873500Y3400072D01*
X62837785Y3328643D01*
X62837785Y3221500D01*
X62873500Y3150072D01*
X62909214Y3114358D01*
X62980642Y3078643D01*
X63194928Y3078643D01*
X63266357Y3114358D01*
X63302071Y3150072D01*
X63337785Y3221500D01*
X63337785Y3328643D01*
X63337785Y2757215D02*
X62837785Y2757215D01*
X62980642Y2757215D02*
X62909214Y2721500D01*
X62873500Y2685786D01*
X62837785Y2614358D01*
X62837785Y2542929D01*
X91850285Y17789358D02*
X92600285Y17289358D01*
X91850285Y17289358D02*
X92600285Y17789358D01*
X92386000Y16467929D02*
X92386000Y16110786D01*
X92600285Y16539358D02*
X91850285Y16289358D01*
X92600285Y16039358D01*
X92564571Y15825072D02*
X92600285Y15753643D01*
X92600285Y15610786D01*
X92564571Y15539358D01*
X92493142Y15503643D01*
X92457428Y15503643D01*
X92386000Y15539358D01*
X92350285Y15610786D01*
X92350285Y15717929D01*
X92314571Y15789358D01*
X92243142Y15825072D01*
X92207428Y15825072D01*
X92136000Y15789358D01*
X92100285Y15717929D01*
X92100285Y15610786D01*
X92136000Y15539358D01*
X92600285Y15182215D02*
X92100285Y15182215D01*
X91850285Y15182215D02*
X91886000Y15217929D01*
X91921714Y15182215D01*
X91886000Y15146500D01*
X91850285Y15182215D01*
X91921714Y15182215D01*
X92600285Y14896500D02*
X92100285Y14503643D01*
X92100285Y14896500D02*
X92600285Y14503643D01*
X92443142Y38439358D02*
X92800285Y38439358D01*
X92050285Y38689358D02*
X92443142Y38439358D01*
X92050285Y38189358D01*
X92586000Y37403643D02*
X92586000Y37046500D01*
X92800285Y37475072D02*
X92050285Y37225072D01*
X92800285Y36975072D01*
X92800285Y36796500D02*
X92300285Y36403643D01*
X92300285Y36796500D02*
X92800285Y36403643D01*
X92800285Y36117929D02*
X92300285Y36117929D01*
X92050285Y36117929D02*
X92086000Y36153643D01*
X92121714Y36117929D01*
X92086000Y36082215D01*
X92050285Y36117929D01*
X92121714Y36117929D01*
X92764571Y35796500D02*
X92800285Y35725072D01*
X92800285Y35582215D01*
X92764571Y35510786D01*
X92693142Y35475072D01*
X92657428Y35475072D01*
X92586000Y35510786D01*
X92550285Y35582215D01*
X92550285Y35689358D01*
X92514571Y35760786D01*
X92443142Y35796500D01*
X92407428Y35796500D01*
X92336000Y35760786D01*
X92300285Y35689358D01*
X92300285Y35582215D01*
X92336000Y35510786D01*
X92607428Y61532215D02*
X92607428Y61282215D01*
X93000285Y61175072D02*
X93000285Y61532215D01*
X92250285Y61532215D01*
X92250285Y61175072D01*
X93000285Y60925072D02*
X92500285Y60532215D01*
X92500285Y60925072D02*
X93000285Y60532215D01*
X92500285Y60353643D02*
X92500285Y60067929D01*
X92250285Y60246500D02*
X92893142Y60246500D01*
X92964571Y60210786D01*
X93000285Y60139358D01*
X93000285Y60067929D01*
X93000285Y59817929D02*
X92500285Y59817929D01*
X92643142Y59817929D02*
X92571714Y59782215D01*
X92536000Y59746500D01*
X92500285Y59675072D01*
X92500285Y59603643D01*
X92500285Y59032215D02*
X93000285Y59032215D01*
X92500285Y59353643D02*
X92893142Y59353643D01*
X92964571Y59317929D01*
X93000285Y59246500D01*
X93000285Y59139358D01*
X92964571Y59067929D01*
X92928857Y59032215D01*
X93000285Y58353643D02*
X92250285Y58353643D01*
X92964571Y58353643D02*
X93000285Y58425072D01*
X93000285Y58567929D01*
X92964571Y58639358D01*
X92928857Y58675072D01*
X92857428Y58710786D01*
X92643142Y58710786D01*
X92571714Y58675072D01*
X92536000Y58639358D01*
X92500285Y58567929D01*
X92500285Y58425072D01*
X92536000Y58353643D01*
X92964571Y57710786D02*
X93000285Y57782215D01*
X93000285Y57925072D01*
X92964571Y57996500D01*
X92893142Y58032215D01*
X92607428Y58032215D01*
X92536000Y57996500D01*
X92500285Y57925072D01*
X92500285Y57782215D01*
X92536000Y57710786D01*
X92607428Y57675072D01*
X92678857Y57675072D01*
X92750285Y58032215D01*
X93000285Y57353643D02*
X92500285Y57353643D01*
X92643142Y57353643D02*
X92571714Y57317929D01*
X92536000Y57282215D01*
X92500285Y57210786D01*
X92500285Y57139358D01*
X93000285Y55925072D02*
X93000285Y56353643D01*
X93000285Y56139358D02*
X92250285Y56139358D01*
X92357428Y56210786D01*
X92428857Y56282215D01*
X92464571Y56353643D01*
X92307428Y83632215D02*
X92307428Y83382215D01*
X92700285Y83275072D02*
X92700285Y83632215D01*
X91950285Y83632215D01*
X91950285Y83275072D01*
X92700285Y83025072D02*
X92200285Y82632215D01*
X92200285Y83025072D02*
X92700285Y82632215D01*
X92200285Y82453643D02*
X92200285Y82167929D01*
X91950285Y82346500D02*
X92593142Y82346500D01*
X92664571Y82310786D01*
X92700285Y82239358D01*
X92700285Y82167929D01*
X92700285Y81917929D02*
X92200285Y81917929D01*
X92343142Y81917929D02*
X92271714Y81882215D01*
X92236000Y81846500D01*
X92200285Y81775072D01*
X92200285Y81703643D01*
X92200285Y81132215D02*
X92700285Y81132215D01*
X92200285Y81453643D02*
X92593142Y81453643D01*
X92664571Y81417929D01*
X92700285Y81346500D01*
X92700285Y81239358D01*
X92664571Y81167929D01*
X92628857Y81132215D01*
X92700285Y80453643D02*
X91950285Y80453643D01*
X92664571Y80453643D02*
X92700285Y80525072D01*
X92700285Y80667929D01*
X92664571Y80739358D01*
X92628857Y80775072D01*
X92557428Y80810786D01*
X92343142Y80810786D01*
X92271714Y80775072D01*
X92236000Y80739358D01*
X92200285Y80667929D01*
X92200285Y80525072D01*
X92236000Y80453643D01*
X92664571Y79810786D02*
X92700285Y79882215D01*
X92700285Y80025072D01*
X92664571Y80096500D01*
X92593142Y80132215D01*
X92307428Y80132215D01*
X92236000Y80096500D01*
X92200285Y80025072D01*
X92200285Y79882215D01*
X92236000Y79810786D01*
X92307428Y79775072D01*
X92378857Y79775072D01*
X92450285Y80132215D01*
X92700285Y79453643D02*
X92200285Y79453643D01*
X92343142Y79453643D02*
X92271714Y79417929D01*
X92236000Y79382215D01*
X92200285Y79310786D01*
X92200285Y79239358D01*
X92021714Y78453643D02*
X91986000Y78417929D01*
X91950285Y78346500D01*
X91950285Y78167929D01*
X91986000Y78096500D01*
X92021714Y78060786D01*
X92093142Y78025072D01*
X92164571Y78025072D01*
X92271714Y78060786D01*
X92700285Y78489358D01*
X92700285Y78025072D01*
X59203857Y89857215D02*
X58703857Y89857215D01*
X59203857Y89107215D01*
X58703857Y89107215D01*
X57882428Y89321500D02*
X57525285Y89321500D01*
X57953857Y89107215D02*
X57703857Y89857215D01*
X57453857Y89107215D01*
X57275285Y89107215D02*
X56882428Y89607215D01*
X57275285Y89607215D02*
X56882428Y89107215D01*
X56596714Y89107215D02*
X56596714Y89607215D01*
X56596714Y89857215D02*
X56632428Y89821500D01*
X56596714Y89785786D01*
X56561000Y89821500D01*
X56596714Y89857215D01*
X56596714Y89785786D01*
X56275285Y89142929D02*
X56203857Y89107215D01*
X56061000Y89107215D01*
X55989571Y89142929D01*
X55953857Y89214358D01*
X55953857Y89250072D01*
X55989571Y89321500D01*
X56061000Y89357215D01*
X56168142Y89357215D01*
X56239571Y89392929D01*
X56275285Y89464358D01*
X56275285Y89500072D01*
X56239571Y89571500D01*
X56168142Y89607215D01*
X56061000Y89607215D01*
X55989571Y89571500D01*
X11068142Y96200072D02*
X11639571Y96200072D01*
X11353857Y96485786D02*
X11353857Y95914358D01*
X14282428Y96200072D02*
X14853857Y96200072D01*
X13403857Y91694715D02*
X13761000Y91694715D01*
X13796714Y91337572D01*
X13761000Y91373286D01*
X13689571Y91409000D01*
X13511000Y91409000D01*
X13439571Y91373286D01*
X13403857Y91337572D01*
X13368142Y91266143D01*
X13368142Y91087572D01*
X13403857Y91016143D01*
X13439571Y90980429D01*
X13511000Y90944715D01*
X13689571Y90944715D01*
X13761000Y90980429D01*
X13796714Y91016143D01*
X13153857Y91694715D02*
X12903857Y90944715D01*
X12653857Y91694715D01*
X14493142Y89669715D02*
X14493142Y90419715D01*
X14136000Y90169715D02*
X14136000Y89669715D01*
X14136000Y90098286D02*
X14100285Y90134000D01*
X14028857Y90169715D01*
X13921714Y90169715D01*
X13850285Y90134000D01*
X13814571Y90062572D01*
X13814571Y89669715D01*
X13457428Y90169715D02*
X13457428Y89419715D01*
X13457428Y90134000D02*
X13386000Y90169715D01*
X13243142Y90169715D01*
X13171714Y90134000D01*
X13136000Y90098286D01*
X13100285Y90026858D01*
X13100285Y89812572D01*
X13136000Y89741143D01*
X13171714Y89705429D01*
X13243142Y89669715D01*
X13386000Y89669715D01*
X13457428Y89705429D01*
X12457428Y90169715D02*
X12457428Y89669715D01*
X12778857Y90169715D02*
X12778857Y89776858D01*
X12743142Y89705429D01*
X12671714Y89669715D01*
X12564571Y89669715D01*
X12493142Y89705429D01*
X12457428Y89741143D01*
X12207428Y90169715D02*
X11921714Y90169715D01*
X12100285Y90419715D02*
X12100285Y89776858D01*
X12064571Y89705429D01*
X11993142Y89669715D01*
X11921714Y89669715D01*
X39968142Y97700072D02*
X40539571Y97700072D01*
X40253857Y97985786D02*
X40253857Y97414358D01*
X43182428Y97700072D02*
X43753857Y97700072D01*
X31868142Y97700072D02*
X32439571Y97700072D01*
X32153857Y97985786D02*
X32153857Y97414358D01*
X35082428Y97700072D02*
X35653857Y97700072D01*
X21025285Y96200072D02*
X21596714Y96200072D01*
X21311000Y96485786D02*
X21311000Y95914358D01*
X26525285Y96200072D02*
X27096714Y96200072D01*
X1814571Y65082215D02*
X1814571Y64510786D01*
X2100285Y64796500D02*
X1528857Y64796500D01*
X1814571Y59582215D02*
X1814571Y59010786D01*
X42478857Y92037572D02*
X42228857Y92037572D01*
X42121714Y91644715D02*
X42478857Y91644715D01*
X42478857Y92394715D01*
X42121714Y92394715D01*
X41836000Y92323286D02*
X41800285Y92359000D01*
X41728857Y92394715D01*
X41550285Y92394715D01*
X41478857Y92359000D01*
X41443142Y92323286D01*
X41407428Y92251858D01*
X41407428Y92180429D01*
X41443142Y92073286D01*
X41871714Y91644715D01*
X41407428Y91644715D01*
X43603857Y90369715D02*
X43603857Y91119715D01*
X43603857Y90762572D02*
X43175285Y90762572D01*
X43175285Y90369715D02*
X43175285Y91119715D01*
X42532428Y90405429D02*
X42603857Y90369715D01*
X42746714Y90369715D01*
X42818142Y90405429D01*
X42853857Y90476858D01*
X42853857Y90762572D01*
X42818142Y90834000D01*
X42746714Y90869715D01*
X42603857Y90869715D01*
X42532428Y90834000D01*
X42496714Y90762572D01*
X42496714Y90691143D01*
X42853857Y90619715D01*
X41853857Y90369715D02*
X41853857Y90762572D01*
X41889571Y90834000D01*
X41961000Y90869715D01*
X42103857Y90869715D01*
X42175285Y90834000D01*
X41853857Y90405429D02*
X41925285Y90369715D01*
X42103857Y90369715D01*
X42175285Y90405429D01*
X42211000Y90476858D01*
X42211000Y90548286D01*
X42175285Y90619715D01*
X42103857Y90655429D01*
X41925285Y90655429D01*
X41853857Y90691143D01*
X41603857Y90869715D02*
X41318142Y90869715D01*
X41496714Y91119715D02*
X41496714Y90476858D01*
X41461000Y90405429D01*
X41389571Y90369715D01*
X41318142Y90369715D01*
X40782428Y90405429D02*
X40853857Y90369715D01*
X40996714Y90369715D01*
X41068142Y90405429D01*
X41103857Y90476858D01*
X41103857Y90762572D01*
X41068142Y90834000D01*
X40996714Y90869715D01*
X40853857Y90869715D01*
X40782428Y90834000D01*
X40746714Y90762572D01*
X40746714Y90691143D01*
X41103857Y90619715D01*
X40425285Y90369715D02*
X40425285Y90869715D01*
X40425285Y90726858D02*
X40389571Y90798286D01*
X40353857Y90834000D01*
X40282428Y90869715D01*
X40211000Y90869715D01*
X34478857Y92037572D02*
X34228857Y92037572D01*
X34121714Y91644715D02*
X34478857Y91644715D01*
X34478857Y92394715D01*
X34121714Y92394715D01*
X33407428Y91644715D02*
X33836000Y91644715D01*
X33621714Y91644715D02*
X33621714Y92394715D01*
X33693142Y92287572D01*
X33764571Y92216143D01*
X33836000Y92180429D01*
X35603857Y90369715D02*
X35603857Y91119715D01*
X35603857Y90762572D02*
X35175285Y90762572D01*
X35175285Y90369715D02*
X35175285Y91119715D01*
X34532428Y90405429D02*
X34603857Y90369715D01*
X34746714Y90369715D01*
X34818142Y90405429D01*
X34853857Y90476858D01*
X34853857Y90762572D01*
X34818142Y90834000D01*
X34746714Y90869715D01*
X34603857Y90869715D01*
X34532428Y90834000D01*
X34496714Y90762572D01*
X34496714Y90691143D01*
X34853857Y90619715D01*
X33853857Y90369715D02*
X33853857Y90762572D01*
X33889571Y90834000D01*
X33961000Y90869715D01*
X34103857Y90869715D01*
X34175285Y90834000D01*
X33853857Y90405429D02*
X33925285Y90369715D01*
X34103857Y90369715D01*
X34175285Y90405429D01*
X34211000Y90476858D01*
X34211000Y90548286D01*
X34175285Y90619715D01*
X34103857Y90655429D01*
X33925285Y90655429D01*
X33853857Y90691143D01*
X33603857Y90869715D02*
X33318142Y90869715D01*
X33496714Y91119715D02*
X33496714Y90476858D01*
X33461000Y90405429D01*
X33389571Y90369715D01*
X33318142Y90369715D01*
X32782428Y90405429D02*
X32853857Y90369715D01*
X32996714Y90369715D01*
X33068142Y90405429D01*
X33103857Y90476858D01*
X33103857Y90762572D01*
X33068142Y90834000D01*
X32996714Y90869715D01*
X32853857Y90869715D01*
X32782428Y90834000D01*
X32746714Y90762572D01*
X32746714Y90691143D01*
X33103857Y90619715D01*
X32425285Y90369715D02*
X32425285Y90869715D01*
X32425285Y90726858D02*
X32389571Y90798286D01*
X32353857Y90834000D01*
X32282428Y90869715D01*
X32211000Y90869715D01*
X24921714Y91237572D02*
X24814571Y91201858D01*
X24778857Y91166143D01*
X24743142Y91094715D01*
X24743142Y90987572D01*
X24778857Y90916143D01*
X24814571Y90880429D01*
X24886000Y90844715D01*
X25171714Y90844715D01*
X25171714Y91594715D01*
X24921714Y91594715D01*
X24850285Y91559000D01*
X24814571Y91523286D01*
X24778857Y91451858D01*
X24778857Y91380429D01*
X24814571Y91309000D01*
X24850285Y91273286D01*
X24921714Y91237572D01*
X25171714Y91237572D01*
X24421714Y91237572D02*
X24171714Y91237572D01*
X24064571Y90844715D02*
X24421714Y90844715D01*
X24421714Y91594715D01*
X24064571Y91594715D01*
X23743142Y90844715D02*
X23743142Y91594715D01*
X23564571Y91594715D01*
X23457428Y91559000D01*
X23386000Y91487572D01*
X23350285Y91416143D01*
X23314571Y91273286D01*
X23314571Y91166143D01*
X23350285Y91023286D01*
X23386000Y90951858D01*
X23457428Y90880429D01*
X23564571Y90844715D01*
X23743142Y90844715D01*
X25903857Y89569715D02*
X25903857Y90319715D01*
X25903857Y89962572D02*
X25475285Y89962572D01*
X25475285Y89569715D02*
X25475285Y90319715D01*
X24832428Y89605429D02*
X24903857Y89569715D01*
X25046714Y89569715D01*
X25118142Y89605429D01*
X25153857Y89676858D01*
X25153857Y89962572D01*
X25118142Y90034000D01*
X25046714Y90069715D01*
X24903857Y90069715D01*
X24832428Y90034000D01*
X24796714Y89962572D01*
X24796714Y89891143D01*
X25153857Y89819715D01*
X24153857Y89569715D02*
X24153857Y89962572D01*
X24189571Y90034000D01*
X24261000Y90069715D01*
X24403857Y90069715D01*
X24475285Y90034000D01*
X24153857Y89605429D02*
X24225285Y89569715D01*
X24403857Y89569715D01*
X24475285Y89605429D01*
X24511000Y89676858D01*
X24511000Y89748286D01*
X24475285Y89819715D01*
X24403857Y89855429D01*
X24225285Y89855429D01*
X24153857Y89891143D01*
X23903857Y90069715D02*
X23618142Y90069715D01*
X23796714Y90319715D02*
X23796714Y89676858D01*
X23761000Y89605429D01*
X23689571Y89569715D01*
X23618142Y89569715D01*
X23082428Y89605429D02*
X23153857Y89569715D01*
X23296714Y89569715D01*
X23368142Y89605429D01*
X23403857Y89676858D01*
X23403857Y89962572D01*
X23368142Y90034000D01*
X23296714Y90069715D01*
X23153857Y90069715D01*
X23082428Y90034000D01*
X23046714Y89962572D01*
X23046714Y89891143D01*
X23403857Y89819715D01*
X22725285Y89569715D02*
X22725285Y90069715D01*
X22725285Y89926858D02*
X22689571Y89998286D01*
X22653857Y90034000D01*
X22582428Y90069715D01*
X22511000Y90069715D01*
X8925285Y63064358D02*
X8175285Y63064358D01*
X8425285Y62707215D02*
X8925285Y62707215D01*
X8496714Y62707215D02*
X8461000Y62671500D01*
X8425285Y62600072D01*
X8425285Y62492929D01*
X8461000Y62421500D01*
X8532428Y62385786D01*
X8925285Y62385786D01*
X8425285Y62028643D02*
X9175285Y62028643D01*
X8461000Y62028643D02*
X8425285Y61957215D01*
X8425285Y61814358D01*
X8461000Y61742929D01*
X8496714Y61707215D01*
X8568142Y61671500D01*
X8782428Y61671500D01*
X8853857Y61707215D01*
X8889571Y61742929D01*
X8925285Y61814358D01*
X8925285Y61957215D01*
X8889571Y62028643D01*
X8425285Y61028643D02*
X8925285Y61028643D01*
X8425285Y61350072D02*
X8818142Y61350072D01*
X8889571Y61314358D01*
X8925285Y61242929D01*
X8925285Y61135786D01*
X8889571Y61064358D01*
X8853857Y61028643D01*
X8425285Y60778643D02*
X8425285Y60492929D01*
X8175285Y60671500D02*
X8818142Y60671500D01*
X8889571Y60635786D01*
X8925285Y60564358D01*
X8925285Y60492929D01*
X9450285Y63546500D02*
X10200285Y63296500D01*
X9450285Y63046500D01*
X10200285Y62689358D02*
X10164571Y62760786D01*
X10128857Y62796500D01*
X10057428Y62832215D01*
X9843142Y62832215D01*
X9771714Y62796500D01*
X9736000Y62760786D01*
X9700285Y62689358D01*
X9700285Y62582215D01*
X9736000Y62510786D01*
X9771714Y62475072D01*
X9843142Y62439358D01*
X10057428Y62439358D01*
X10128857Y62475072D01*
X10164571Y62510786D01*
X10200285Y62582215D01*
X10200285Y62689358D01*
X10200285Y62010786D02*
X10164571Y62082215D01*
X10093142Y62117929D01*
X9450285Y62117929D01*
X9700285Y61832215D02*
X9700285Y61546500D01*
X9450285Y61725072D02*
X10093142Y61725072D01*
X10164571Y61689358D01*
X10200285Y61617929D01*
X10200285Y61546500D01*
X10200285Y60975072D02*
X9807428Y60975072D01*
X9736000Y61010786D01*
X9700285Y61082215D01*
X9700285Y61225072D01*
X9736000Y61296500D01*
X10164571Y60975072D02*
X10200285Y61046500D01*
X10200285Y61225072D01*
X10164571Y61296500D01*
X10093142Y61332215D01*
X10021714Y61332215D01*
X9950285Y61296500D01*
X9914571Y61225072D01*
X9914571Y61046500D01*
X9878857Y60975072D01*
X9700285Y60296500D02*
X10307428Y60296500D01*
X10378857Y60332215D01*
X10414571Y60367929D01*
X10450285Y60439358D01*
X10450285Y60546500D01*
X10414571Y60617929D01*
X10164571Y60296500D02*
X10200285Y60367929D01*
X10200285Y60510786D01*
X10164571Y60582215D01*
X10128857Y60617929D01*
X10057428Y60653643D01*
X9843142Y60653643D01*
X9771714Y60617929D01*
X9736000Y60582215D01*
X9700285Y60510786D01*
X9700285Y60367929D01*
X9736000Y60296500D01*
X10164571Y59653643D02*
X10200285Y59725072D01*
X10200285Y59867929D01*
X10164571Y59939358D01*
X10093142Y59975072D01*
X9807428Y59975072D01*
X9736000Y59939358D01*
X9700285Y59867929D01*
X9700285Y59725072D01*
X9736000Y59653643D01*
X9807428Y59617929D01*
X9878857Y59617929D01*
X9950285Y59975072D01*
X11475285Y63189358D02*
X11475285Y63617929D01*
X11475285Y63403643D02*
X10725285Y63403643D01*
X10832428Y63475072D01*
X10903857Y63546500D01*
X10939571Y63617929D01*
X10796714Y62903643D02*
X10761000Y62867929D01*
X10725285Y62796500D01*
X10725285Y62617929D01*
X10761000Y62546500D01*
X10796714Y62510786D01*
X10868142Y62475072D01*
X10939571Y62475072D01*
X11046714Y62510786D01*
X11475285Y62939358D01*
X11475285Y62475072D01*
X11189571Y62153643D02*
X11189571Y61582215D01*
X10796714Y61260786D02*
X10761000Y61225072D01*
X10725285Y61153643D01*
X10725285Y60975072D01*
X10761000Y60903643D01*
X10796714Y60867929D01*
X10868142Y60832215D01*
X10939571Y60832215D01*
X11046714Y60867929D01*
X11475285Y61296500D01*
X11475285Y60832215D01*
X10975285Y60189358D02*
X11475285Y60189358D01*
X10689571Y60367929D02*
X11225285Y60546500D01*
X11225285Y60082215D01*
X10725285Y59903643D02*
X11475285Y59653643D01*
X10725285Y59403643D01*
D11*
X27799095Y77494120D02*
X27799095Y78160786D01*
X27799095Y77970310D02*
X27751476Y78065548D01*
X27703857Y78113167D01*
X27608619Y78160786D01*
X27513380Y78160786D01*
X26799095Y77541739D02*
X26894333Y77494120D01*
X27084809Y77494120D01*
X27180047Y77541739D01*
X27227666Y77636977D01*
X27227666Y78017929D01*
X27180047Y78113167D01*
X27084809Y78160786D01*
X26894333Y78160786D01*
X26799095Y78113167D01*
X26751476Y78017929D01*
X26751476Y77922691D01*
X27227666Y77827453D01*
X26418142Y78160786D02*
X26180047Y77494120D01*
X25941952Y78160786D01*
X24370523Y78160786D02*
X24370523Y77494120D01*
X24608619Y78541739D02*
X24846714Y77827453D01*
X24227666Y77827453D01*
D12*
X27739571Y62796500D02*
X27811000Y62867929D01*
X27953857Y63082215D01*
X28025285Y63225072D01*
X28096714Y63439358D01*
X28168142Y63796500D01*
X28168142Y64082215D01*
X28096714Y64439358D01*
X28025285Y64653643D01*
X27953857Y64796500D01*
X27811000Y65010786D01*
X27739571Y65082215D01*
X26525285Y63439358D02*
X26668142Y63367929D01*
X26953857Y63367929D01*
X27096714Y63439358D01*
X27168142Y63510786D01*
X27239571Y63653643D01*
X27239571Y64082215D01*
X27168142Y64225072D01*
X27096714Y64296500D01*
X26953857Y64367929D01*
X26668142Y64367929D01*
X26525285Y64296500D01*
X26025285Y62796500D02*
X25953857Y62867929D01*
X25811000Y63082215D01*
X25739571Y63225072D01*
X25668142Y63439358D01*
X25596714Y63796500D01*
X25596714Y64082215D01*
X25668142Y64439358D01*
X25739571Y64653643D01*
X25811000Y64796500D01*
X25953857Y65010786D01*
X26025285Y65082215D01*
X23739571Y63367929D02*
X23739571Y64367929D01*
X23739571Y64867929D02*
X23811000Y64796500D01*
X23739571Y64725072D01*
X23668142Y64796500D01*
X23739571Y64867929D01*
X23739571Y64725072D01*
X22025285Y63225072D02*
X22168142Y63296500D01*
X22311000Y63439358D01*
X22525285Y63653643D01*
X22668142Y63725072D01*
X22811000Y63725072D01*
X22739571Y63367929D02*
X22882428Y63439358D01*
X23025285Y63582215D01*
X23096714Y63867929D01*
X23096714Y64367929D01*
X23025285Y64653643D01*
X22882428Y64796500D01*
X22739571Y64867929D01*
X22453857Y64867929D01*
X22311000Y64796500D01*
X22168142Y64653643D01*
X22096714Y64367929D01*
X22096714Y63867929D01*
X22168142Y63582215D01*
X22311000Y63439358D01*
X22453857Y63367929D01*
X22739571Y63367929D01*
X20811000Y64367929D02*
X20811000Y63367929D01*
X21453857Y64367929D02*
X21453857Y63582215D01*
X21382428Y63439358D01*
X21239571Y63367929D01*
X21025285Y63367929D01*
X20882428Y63439358D01*
X20811000Y63510786D01*
X20096714Y63367929D02*
X20096714Y64367929D01*
X20096714Y64082215D02*
X20025285Y64225072D01*
X19953857Y64296500D01*
X19811000Y64367929D01*
X19668142Y64367929D01*
X19311000Y64367929D02*
X18953857Y63367929D01*
X18596714Y64367929D02*
X18953857Y63367929D01*
X19096714Y63010786D01*
X19168142Y62939358D01*
X19311000Y62867929D01*
X18025285Y63510786D02*
X17953857Y63439358D01*
X18025285Y63367929D01*
X18096714Y63439358D01*
X18025285Y63510786D01*
X18025285Y63367929D01*
X16668142Y64367929D02*
X16668142Y63367929D01*
X17311000Y64367929D02*
X17311000Y63582215D01*
X17239571Y63439358D01*
X17096714Y63367929D01*
X16882428Y63367929D01*
X16739571Y63439358D01*
X16668142Y63510786D01*
X16025285Y63439358D02*
X15882428Y63367929D01*
X15596714Y63367929D01*
X15453857Y63439358D01*
X15382428Y63582215D01*
X15382428Y63653643D01*
X15453857Y63796500D01*
X15596714Y63867929D01*
X15811000Y63867929D01*
X15953857Y63939358D01*
X16025285Y64082215D01*
X16025285Y64153643D01*
X15953857Y64296500D01*
X15811000Y64367929D01*
X15596714Y64367929D01*
X15453857Y64296500D01*
X26989571Y60867929D02*
X26989571Y62367929D01*
X26489571Y61296500D01*
X25989571Y62367929D01*
X25989571Y60867929D01*
X24632428Y60867929D02*
X24632428Y61653643D01*
X24703857Y61796500D01*
X24846714Y61867929D01*
X25132428Y61867929D01*
X25275285Y61796500D01*
X24632428Y60939358D02*
X24775285Y60867929D01*
X25132428Y60867929D01*
X25275285Y60939358D01*
X25346714Y61082215D01*
X25346714Y61225072D01*
X25275285Y61367929D01*
X25132428Y61439358D01*
X24775285Y61439358D01*
X24632428Y61510786D01*
X24061000Y61867929D02*
X23703857Y60867929D01*
X23346714Y61867929D02*
X23703857Y60867929D01*
X23846714Y60510786D01*
X23918142Y60439358D01*
X24061000Y60367929D01*
X21703857Y62225072D02*
X21632428Y62296500D01*
X21489571Y62367929D01*
X21132428Y62367929D01*
X20989571Y62296500D01*
X20918142Y62225072D01*
X20846714Y62082215D01*
X20846714Y61939358D01*
X20918142Y61725072D01*
X21775285Y60867929D01*
X20846714Y60867929D01*
X19918142Y62367929D02*
X19775285Y62367929D01*
X19632428Y62296500D01*
X19561000Y62225072D01*
X19489571Y62082215D01*
X19418142Y61796500D01*
X19418142Y61439358D01*
X19489571Y61153643D01*
X19561000Y61010786D01*
X19632428Y60939358D01*
X19775285Y60867929D01*
X19918142Y60867929D01*
X20061000Y60939358D01*
X20132428Y61010786D01*
X20203857Y61153643D01*
X20275285Y61439358D01*
X20275285Y61796500D01*
X20203857Y62082215D01*
X20132428Y62225072D01*
X20061000Y62296500D01*
X19918142Y62367929D01*
X17989571Y60867929D02*
X18846714Y60867929D01*
X18418142Y60867929D02*
X18418142Y62367929D01*
X18561000Y62153643D01*
X18703857Y62010786D01*
X18846714Y61939358D01*
X17275285Y60867929D02*
X16989571Y60867929D01*
X16846714Y60939358D01*
X16775285Y61010786D01*
X16632428Y61225072D01*
X16561000Y61510786D01*
X16561000Y62082215D01*
X16632428Y62225072D01*
X16703857Y62296500D01*
X16846714Y62367929D01*
X17132428Y62367929D01*
X17275285Y62296500D01*
X17346714Y62225072D01*
X17418142Y62082215D01*
X17418142Y61725072D01*
X17346714Y61582215D01*
X17275285Y61510786D01*
X17132428Y61439358D01*
X16846714Y61439358D01*
X16703857Y61510786D01*
X16632428Y61582215D01*
X16561000Y61725072D01*
X45268142Y78817929D02*
X45268142Y80317929D01*
X44696714Y80317929D01*
X44553857Y80246500D01*
X44482428Y80175072D01*
X44411000Y80032215D01*
X44411000Y79817929D01*
X44482428Y79675072D01*
X44553857Y79603643D01*
X44696714Y79532215D01*
X45268142Y79532215D01*
X43768142Y78817929D02*
X43768142Y79817929D01*
X43768142Y79532215D02*
X43696714Y79675072D01*
X43625285Y79746500D01*
X43482428Y79817929D01*
X43339571Y79817929D01*
X42839571Y79817929D02*
X42839571Y78817929D01*
X42839571Y79675072D02*
X42768142Y79746500D01*
X42625285Y79817929D01*
X42411000Y79817929D01*
X42268142Y79746500D01*
X42196714Y79603643D01*
X42196714Y78817929D01*
X41696714Y79817929D02*
X41125285Y79817929D01*
X41482428Y80317929D02*
X41482428Y79032215D01*
X41411000Y78889358D01*
X41268142Y78817929D01*
X41125285Y78817929D01*
X40625285Y78817929D02*
X40625285Y79817929D01*
X40625285Y79532215D02*
X40553857Y79675072D01*
X40482428Y79746500D01*
X40339571Y79817929D01*
X40196714Y79817929D01*
X39196714Y79603643D02*
X38982428Y79532215D01*
X38911000Y79460786D01*
X38839571Y79317929D01*
X38839571Y79103643D01*
X38911000Y78960786D01*
X38982428Y78889358D01*
X39125285Y78817929D01*
X39696714Y78817929D01*
X39696714Y80317929D01*
X39196714Y80317929D01*
X39053857Y80246500D01*
X38982428Y80175072D01*
X38911000Y80032215D01*
X38911000Y79889358D01*
X38982428Y79746500D01*
X39053857Y79675072D01*
X39196714Y79603643D01*
X39696714Y79603643D01*
X37982428Y78817929D02*
X38125285Y78889358D01*
X38196714Y78960786D01*
X38268142Y79103643D01*
X38268142Y79532215D01*
X38196714Y79675072D01*
X38125285Y79746500D01*
X37982428Y79817929D01*
X37768142Y79817929D01*
X37625285Y79746500D01*
X37553857Y79675072D01*
X37482428Y79532215D01*
X37482428Y79103643D01*
X37553857Y78960786D01*
X37625285Y78889358D01*
X37768142Y78817929D01*
X37982428Y78817929D01*
X36196714Y78817929D02*
X36196714Y79603643D01*
X36268142Y79746500D01*
X36411000Y79817929D01*
X36696714Y79817929D01*
X36839571Y79746500D01*
X36196714Y78889358D02*
X36339571Y78817929D01*
X36696714Y78817929D01*
X36839571Y78889358D01*
X36911000Y79032215D01*
X36911000Y79175072D01*
X36839571Y79317929D01*
X36696714Y79389358D01*
X36339571Y79389358D01*
X36196714Y79460786D01*
X35482428Y78817929D02*
X35482428Y79817929D01*
X35482428Y79532215D02*
X35411000Y79675072D01*
X35339571Y79746500D01*
X35196714Y79817929D01*
X35053857Y79817929D01*
X33911000Y78817929D02*
X33911000Y80317929D01*
X33911000Y78889358D02*
X34053857Y78817929D01*
X34339571Y78817929D01*
X34482428Y78889358D01*
X34553857Y78960786D01*
X34625285Y79103643D01*
X34625285Y79532215D01*
X34553857Y79675072D01*
X34482428Y79746500D01*
X34339571Y79817929D01*
X34053857Y79817929D01*
X33911000Y79746500D01*
X32268142Y80317929D02*
X31768142Y78817929D01*
X31268142Y80317929D01*
X29982428Y78817929D02*
X30839571Y78817929D01*
X30411000Y78817929D02*
X30411000Y80317929D01*
X30553857Y80103643D01*
X30696714Y79960786D01*
X30839571Y79889358D01*
X42446714Y77317929D02*
X41875285Y77317929D01*
X42232428Y77817929D02*
X42232428Y76532215D01*
X42161000Y76389358D01*
X42018142Y76317929D01*
X41875285Y76317929D01*
X41375285Y76317929D02*
X41375285Y77317929D01*
X41375285Y77175072D02*
X41303857Y77246500D01*
X41161000Y77317929D01*
X40946714Y77317929D01*
X40803857Y77246500D01*
X40732428Y77103643D01*
X40732428Y76317929D01*
X40732428Y77103643D02*
X40661000Y77246500D01*
X40518142Y77317929D01*
X40303857Y77317929D01*
X40161000Y77246500D01*
X40089571Y77103643D01*
X40089571Y76317929D01*
X38732428Y76389358D02*
X38875285Y76317929D01*
X39161000Y76317929D01*
X39303857Y76389358D01*
X39375285Y76460786D01*
X39446714Y76603643D01*
X39446714Y77032215D01*
X39375285Y77175072D01*
X39303857Y77246500D01*
X39161000Y77317929D01*
X38875285Y77317929D01*
X38732428Y77246500D01*
X38161000Y77675072D02*
X38089571Y77746500D01*
X37946714Y77817929D01*
X37589571Y77817929D01*
X37446714Y77746500D01*
X37375285Y77675072D01*
X37303857Y77532215D01*
X37303857Y77389358D01*
X37375285Y77175072D01*
X38232428Y76317929D01*
X37303857Y76317929D01*
X36018142Y77817929D02*
X36303857Y77817929D01*
X36446714Y77746500D01*
X36518142Y77675072D01*
X36661000Y77460786D01*
X36732428Y77175072D01*
X36732428Y76603643D01*
X36661000Y76460786D01*
X36589571Y76389358D01*
X36446714Y76317929D01*
X36161000Y76317929D01*
X36018142Y76389358D01*
X35946714Y76460786D01*
X35875285Y76603643D01*
X35875285Y76960786D01*
X35946714Y77103643D01*
X36018142Y77175072D01*
X36161000Y77246500D01*
X36446714Y77246500D01*
X36589571Y77175072D01*
X36661000Y77103643D01*
X36732428Y76960786D01*
X34589571Y77817929D02*
X34875285Y77817929D01*
X35018142Y77746500D01*
X35089571Y77675072D01*
X35232428Y77460786D01*
X35303857Y77175072D01*
X35303857Y76603643D01*
X35232428Y76460786D01*
X35161000Y76389358D01*
X35018142Y76317929D01*
X34732428Y76317929D01*
X34589571Y76389358D01*
X34518142Y76460786D01*
X34446714Y76603643D01*
X34446714Y76960786D01*
X34518142Y77103643D01*
X34589571Y77175072D01*
X34732428Y77246500D01*
X35018142Y77246500D01*
X35161000Y77175072D01*
X35232428Y77103643D01*
X35303857Y76960786D01*
X33518142Y77817929D02*
X33375285Y77817929D01*
X33232428Y77746500D01*
X33161000Y77675072D01*
X33089571Y77532215D01*
X33018142Y77246500D01*
X33018142Y76889358D01*
X33089571Y76603643D01*
X33161000Y76460786D01*
X33232428Y76389358D01*
X33375285Y76317929D01*
X33518142Y76317929D01*
X33661000Y76389358D01*
X33732428Y76460786D01*
X33803857Y76603643D01*
X33875285Y76889358D01*
X33875285Y77246500D01*
X33803857Y77532215D01*
X33732428Y77675072D01*
X33661000Y77746500D01*
X33518142Y77817929D01*
D13*
G36*
X35457090Y66054152D02*
G01*
X35378546Y66053722D01*
X35321702Y66052558D01*
X35282895Y66050293D01*
X35258462Y66046560D01*
X35244738Y66040994D01*
X35238060Y66033227D01*
X35234764Y66022895D01*
X35234444Y66021557D01*
X35229438Y65997421D01*
X35220171Y65949799D01*
X35207608Y65883759D01*
X35192713Y65804372D01*
X35176449Y65716704D01*
X35175881Y65713625D01*
X35159590Y65627711D01*
X35144348Y65551804D01*
X35131139Y65490455D01*
X35120946Y65448218D01*
X35114752Y65429645D01*
X35114457Y65429316D01*
X35096212Y65420247D01*
X35058595Y65405133D01*
X35009729Y65387238D01*
X35009457Y65387142D01*
X34947907Y65364007D01*
X34875343Y65334535D01*
X34806943Y65304903D01*
X34803706Y65303438D01*
X34692298Y65252874D01*
X34445601Y65421340D01*
X34369923Y65472697D01*
X34301369Y65518611D01*
X34243912Y65556470D01*
X34201524Y65583663D01*
X34178175Y65597579D01*
X34175958Y65598611D01*
X34158990Y65594016D01*
X34127299Y65571845D01*
X34079648Y65531053D01*
X34014802Y65470595D01*
X33948603Y65406273D01*
X33884786Y65342888D01*
X33827671Y65285049D01*
X33780695Y65236325D01*
X33747297Y65200290D01*
X33730915Y65180516D01*
X33730306Y65179498D01*
X33728495Y65165928D01*
X33735317Y65143767D01*
X33752460Y65110022D01*
X33781607Y65061700D01*
X33824445Y64995808D01*
X33881552Y64910983D01*
X33932234Y64836323D01*
X33977539Y64769360D01*
X34014850Y64713984D01*
X34041548Y64674080D01*
X34055015Y64653538D01*
X34055863Y64652144D01*
X34054219Y64632462D01*
X34041755Y64594207D01*
X34020952Y64544611D01*
X34013538Y64528772D01*
X33981186Y64458210D01*
X33946672Y64378147D01*
X33918635Y64308871D01*
X33898432Y64257455D01*
X33882385Y64218381D01*
X33873112Y64197959D01*
X33871959Y64196386D01*
X33854904Y64193779D01*
X33814702Y64186637D01*
X33756698Y64175977D01*
X33686237Y64162815D01*
X33608665Y64148167D01*
X33529328Y64133051D01*
X33453569Y64118482D01*
X33386736Y64105478D01*
X33334172Y64095055D01*
X33301224Y64088230D01*
X33293143Y64086301D01*
X33284795Y64081538D01*
X33278494Y64070782D01*
X33273955Y64050402D01*
X33270896Y64016766D01*
X33269033Y63966245D01*
X33268082Y63895208D01*
X33267760Y63800024D01*
X33267743Y63761008D01*
X33267743Y63443701D01*
X33343943Y63428661D01*
X33386337Y63420505D01*
X33449600Y63408601D01*
X33526038Y63394384D01*
X33607957Y63379290D01*
X33630600Y63375145D01*
X33706194Y63360447D01*
X33772047Y63345995D01*
X33822634Y63333125D01*
X33852426Y63323178D01*
X33857388Y63320213D01*
X33869574Y63299217D01*
X33887047Y63258533D01*
X33906423Y63206178D01*
X33910266Y63194900D01*
X33935661Y63124977D01*
X33967183Y63046082D01*
X33998031Y62975234D01*
X33998183Y62974905D01*
X34049553Y62863767D01*
X33880601Y62615247D01*
X33711648Y62366728D01*
X33928571Y62149442D01*
X33994181Y62084774D01*
X34054021Y62027767D01*
X34104733Y61981467D01*
X34142954Y61948916D01*
X34165325Y61933157D01*
X34168534Y61932157D01*
X34187374Y61940031D01*
X34225820Y61961922D01*
X34279670Y61995233D01*
X34344724Y62037369D01*
X34415060Y62084557D01*
X34486445Y62132690D01*
X34550092Y62174572D01*
X34601959Y62207629D01*
X34638005Y62229282D01*
X34654133Y62236957D01*
X34673811Y62230463D01*
X34711125Y62213350D01*
X34758379Y62189174D01*
X34763388Y62186487D01*
X34827023Y62154573D01*
X34870659Y62138921D01*
X34897798Y62138755D01*
X34911943Y62153296D01*
X34912025Y62153500D01*
X34919095Y62170721D01*
X34935958Y62211601D01*
X34961305Y62272975D01*
X34993829Y62351681D01*
X35032222Y62444553D01*
X35075178Y62548428D01*
X35116778Y62648998D01*
X35162496Y62759984D01*
X35204474Y62862797D01*
X35241452Y62954285D01*
X35272173Y63031299D01*
X35295378Y63090685D01*
X35309810Y63129291D01*
X35314257Y63143700D01*
X35303104Y63160228D01*
X35273931Y63186570D01*
X35235029Y63215613D01*
X35124243Y63307461D01*
X35037649Y63412741D01*
X34976284Y63529234D01*
X34941185Y63654724D01*
X34933392Y63786993D01*
X34939057Y63848043D01*
X34969922Y63974705D01*
X35023080Y64086559D01*
X35095233Y64182499D01*
X35183083Y64261424D01*
X35283335Y64322230D01*
X35392690Y64363813D01*
X35507853Y64385072D01*
X35625525Y64384901D01*
X35742410Y64362199D01*
X35855211Y64315862D01*
X35960631Y64244787D01*
X36004632Y64204589D01*
X36089021Y64101371D01*
X36147778Y63988575D01*
X36181296Y63869490D01*
X36189965Y63747405D01*
X36174177Y63625607D01*
X36134322Y63507384D01*
X36070793Y63396025D01*
X35983979Y63294816D01*
X35886971Y63215613D01*
X35846563Y63185338D01*
X35818018Y63159281D01*
X35807743Y63143675D01*
X35813123Y63126657D01*
X35828425Y63086000D01*
X35852388Y63024858D01*
X35883756Y62946381D01*
X35921268Y62853720D01*
X35963667Y62750028D01*
X36005337Y62648974D01*
X36051310Y62537893D01*
X36093893Y62434959D01*
X36131779Y62343335D01*
X36163660Y62266184D01*
X36188229Y62206669D01*
X36204180Y62167956D01*
X36210090Y62153500D01*
X36224052Y62138815D01*
X36251060Y62138858D01*
X36294587Y62154401D01*
X36358110Y62186216D01*
X36358612Y62186487D01*
X36406440Y62211177D01*
X36445103Y62229162D01*
X36466905Y62236886D01*
X36467867Y62236957D01*
X36484279Y62229122D01*
X36520513Y62207335D01*
X36572526Y62174172D01*
X36636275Y62132209D01*
X36706940Y62084557D01*
X36778884Y62036309D01*
X36843726Y61994349D01*
X36897265Y61961273D01*
X36935303Y61939679D01*
X36953467Y61932157D01*
X36970192Y61942043D01*
X37003820Y61969674D01*
X37050990Y62012005D01*
X37108342Y62065995D01*
X37172516Y62128601D01*
X37193503Y62149517D01*
X37410501Y62366877D01*
X37245332Y62609280D01*
X37195136Y62683719D01*
X37151081Y62750528D01*
X37115638Y62805835D01*
X37091281Y62845771D01*
X37080478Y62866464D01*
X37080162Y62867937D01*
X37085857Y62887442D01*
X37101174Y62926678D01*
X37123463Y62979070D01*
X37139107Y63014145D01*
X37168359Y63081299D01*
X37195906Y63149142D01*
X37217263Y63206466D01*
X37223065Y63223928D01*
X37239548Y63270562D01*
X37255660Y63306595D01*
X37264510Y63320213D01*
X37284040Y63328548D01*
X37326666Y63340363D01*
X37386855Y63354319D01*
X37459078Y63369078D01*
X37491400Y63375145D01*
X37573478Y63390227D01*
X37652205Y63404831D01*
X37719891Y63417520D01*
X37768840Y63426858D01*
X37778057Y63428661D01*
X37854257Y63443701D01*
X37854257Y63761008D01*
X37854086Y63865346D01*
X37853384Y63944287D01*
X37851866Y64001462D01*
X37849251Y64040501D01*
X37845254Y64065035D01*
X37839591Y64078695D01*
X37831980Y64085111D01*
X37828857Y64086301D01*
X37810022Y64090520D01*
X37768412Y64098938D01*
X37709370Y64110539D01*
X37638243Y64124305D01*
X37560375Y64139220D01*
X37481113Y64154268D01*
X37405802Y64168431D01*
X37339787Y64180694D01*
X37288413Y64190039D01*
X37257025Y64195450D01*
X37250041Y64196386D01*
X37243715Y64208904D01*
X37229710Y64242254D01*
X37210645Y64290123D01*
X37203366Y64308871D01*
X37174004Y64381305D01*
X37139429Y64461330D01*
X37108463Y64528772D01*
X37085677Y64580341D01*
X37070518Y64622715D01*
X37065458Y64648666D01*
X37066264Y64652144D01*
X37076959Y64668564D01*
X37101380Y64705083D01*
X37136905Y64757813D01*
X37180913Y64822865D01*
X37230783Y64896349D01*
X37240644Y64910855D01*
X37298508Y64996796D01*
X37341044Y65062239D01*
X37369946Y65110196D01*
X37386910Y65143680D01*
X37393633Y65165705D01*
X37391810Y65179283D01*
X37391764Y65179369D01*
X37377414Y65197203D01*
X37345677Y65231683D01*
X37299990Y65279232D01*
X37243796Y65336278D01*
X37180532Y65399245D01*
X37173398Y65406273D01*
X37093670Y65483480D01*
X37032143Y65540170D01*
X36987579Y65577390D01*
X36958743Y65596185D01*
X36946042Y65598611D01*
X36927506Y65588029D01*
X36889039Y65563584D01*
X36834614Y65527888D01*
X36768202Y65483553D01*
X36693775Y65433189D01*
X36676399Y65421340D01*
X36429703Y65252874D01*
X36318294Y65303438D01*
X36250543Y65332905D01*
X36177817Y65362541D01*
X36115297Y65386170D01*
X36112543Y65387142D01*
X36063640Y65405043D01*
X36025943Y65420180D01*
X36007575Y65429290D01*
X36007544Y65429316D01*
X36001715Y65445783D01*
X35991808Y65486281D01*
X35978805Y65546258D01*
X35963691Y65621160D01*
X35947448Y65706436D01*
X35946119Y65713625D01*
X35929825Y65801486D01*
X35914867Y65881240D01*
X35902209Y65947819D01*
X35892814Y65996153D01*
X35887646Y66021175D01*
X35887556Y66021557D01*
X35884411Y66032201D01*
X35878296Y66040238D01*
X35865547Y66046033D01*
X35842500Y66049953D01*
X35805491Y66052365D01*
X35750856Y66053635D01*
X35674933Y66054129D01*
X35574056Y66054214D01*
X35561000Y66054214D01*
X35457090Y66054152D01*
X35457090Y66054152D01*
G37*
X35457090Y66054152D02*
X35378546Y66053722D01*
X35321702Y66052558D01*
X35282895Y66050293D01*
X35258462Y66046560D01*
X35244738Y66040994D01*
X35238060Y66033227D01*
X35234764Y66022895D01*
X35234444Y66021557D01*
X35229438Y65997421D01*
X35220171Y65949799D01*
X35207608Y65883759D01*
X35192713Y65804372D01*
X35176449Y65716704D01*
X35175881Y65713625D01*
X35159590Y65627711D01*
X35144348Y65551804D01*
X35131139Y65490455D01*
X35120946Y65448218D01*
X35114752Y65429645D01*
X35114457Y65429316D01*
X35096212Y65420247D01*
X35058595Y65405133D01*
X35009729Y65387238D01*
X35009457Y65387142D01*
X34947907Y65364007D01*
X34875343Y65334535D01*
X34806943Y65304903D01*
X34803706Y65303438D01*
X34692298Y65252874D01*
X34445601Y65421340D01*
X34369923Y65472697D01*
X34301369Y65518611D01*
X34243912Y65556470D01*
X34201524Y65583663D01*
X34178175Y65597579D01*
X34175958Y65598611D01*
X34158990Y65594016D01*
X34127299Y65571845D01*
X34079648Y65531053D01*
X34014802Y65470595D01*
X33948603Y65406273D01*
X33884786Y65342888D01*
X33827671Y65285049D01*
X33780695Y65236325D01*
X33747297Y65200290D01*
X33730915Y65180516D01*
X33730306Y65179498D01*
X33728495Y65165928D01*
X33735317Y65143767D01*
X33752460Y65110022D01*
X33781607Y65061700D01*
X33824445Y64995808D01*
X33881552Y64910983D01*
X33932234Y64836323D01*
X33977539Y64769360D01*
X34014850Y64713984D01*
X34041548Y64674080D01*
X34055015Y64653538D01*
X34055863Y64652144D01*
X34054219Y64632462D01*
X34041755Y64594207D01*
X34020952Y64544611D01*
X34013538Y64528772D01*
X33981186Y64458210D01*
X33946672Y64378147D01*
X33918635Y64308871D01*
X33898432Y64257455D01*
X33882385Y64218381D01*
X33873112Y64197959D01*
X33871959Y64196386D01*
X33854904Y64193779D01*
X33814702Y64186637D01*
X33756698Y64175977D01*
X33686237Y64162815D01*
X33608665Y64148167D01*
X33529328Y64133051D01*
X33453569Y64118482D01*
X33386736Y64105478D01*
X33334172Y64095055D01*
X33301224Y64088230D01*
X33293143Y64086301D01*
X33284795Y64081538D01*
X33278494Y64070782D01*
X33273955Y64050402D01*
X33270896Y64016766D01*
X33269033Y63966245D01*
X33268082Y63895208D01*
X33267760Y63800024D01*
X33267743Y63761008D01*
X33267743Y63443701D01*
X33343943Y63428661D01*
X33386337Y63420505D01*
X33449600Y63408601D01*
X33526038Y63394384D01*
X33607957Y63379290D01*
X33630600Y63375145D01*
X33706194Y63360447D01*
X33772047Y63345995D01*
X33822634Y63333125D01*
X33852426Y63323178D01*
X33857388Y63320213D01*
X33869574Y63299217D01*
X33887047Y63258533D01*
X33906423Y63206178D01*
X33910266Y63194900D01*
X33935661Y63124977D01*
X33967183Y63046082D01*
X33998031Y62975234D01*
X33998183Y62974905D01*
X34049553Y62863767D01*
X33880601Y62615247D01*
X33711648Y62366728D01*
X33928571Y62149442D01*
X33994181Y62084774D01*
X34054021Y62027767D01*
X34104733Y61981467D01*
X34142954Y61948916D01*
X34165325Y61933157D01*
X34168534Y61932157D01*
X34187374Y61940031D01*
X34225820Y61961922D01*
X34279670Y61995233D01*
X34344724Y62037369D01*
X34415060Y62084557D01*
X34486445Y62132690D01*
X34550092Y62174572D01*
X34601959Y62207629D01*
X34638005Y62229282D01*
X34654133Y62236957D01*
X34673811Y62230463D01*
X34711125Y62213350D01*
X34758379Y62189174D01*
X34763388Y62186487D01*
X34827023Y62154573D01*
X34870659Y62138921D01*
X34897798Y62138755D01*
X34911943Y62153296D01*
X34912025Y62153500D01*
X34919095Y62170721D01*
X34935958Y62211601D01*
X34961305Y62272975D01*
X34993829Y62351681D01*
X35032222Y62444553D01*
X35075178Y62548428D01*
X35116778Y62648998D01*
X35162496Y62759984D01*
X35204474Y62862797D01*
X35241452Y62954285D01*
X35272173Y63031299D01*
X35295378Y63090685D01*
X35309810Y63129291D01*
X35314257Y63143700D01*
X35303104Y63160228D01*
X35273931Y63186570D01*
X35235029Y63215613D01*
X35124243Y63307461D01*
X35037649Y63412741D01*
X34976284Y63529234D01*
X34941185Y63654724D01*
X34933392Y63786993D01*
X34939057Y63848043D01*
X34969922Y63974705D01*
X35023080Y64086559D01*
X35095233Y64182499D01*
X35183083Y64261424D01*
X35283335Y64322230D01*
X35392690Y64363813D01*
X35507853Y64385072D01*
X35625525Y64384901D01*
X35742410Y64362199D01*
X35855211Y64315862D01*
X35960631Y64244787D01*
X36004632Y64204589D01*
X36089021Y64101371D01*
X36147778Y63988575D01*
X36181296Y63869490D01*
X36189965Y63747405D01*
X36174177Y63625607D01*
X36134322Y63507384D01*
X36070793Y63396025D01*
X35983979Y63294816D01*
X35886971Y63215613D01*
X35846563Y63185338D01*
X35818018Y63159281D01*
X35807743Y63143675D01*
X35813123Y63126657D01*
X35828425Y63086000D01*
X35852388Y63024858D01*
X35883756Y62946381D01*
X35921268Y62853720D01*
X35963667Y62750028D01*
X36005337Y62648974D01*
X36051310Y62537893D01*
X36093893Y62434959D01*
X36131779Y62343335D01*
X36163660Y62266184D01*
X36188229Y62206669D01*
X36204180Y62167956D01*
X36210090Y62153500D01*
X36224052Y62138815D01*
X36251060Y62138858D01*
X36294587Y62154401D01*
X36358110Y62186216D01*
X36358612Y62186487D01*
X36406440Y62211177D01*
X36445103Y62229162D01*
X36466905Y62236886D01*
X36467867Y62236957D01*
X36484279Y62229122D01*
X36520513Y62207335D01*
X36572526Y62174172D01*
X36636275Y62132209D01*
X36706940Y62084557D01*
X36778884Y62036309D01*
X36843726Y61994349D01*
X36897265Y61961273D01*
X36935303Y61939679D01*
X36953467Y61932157D01*
X36970192Y61942043D01*
X37003820Y61969674D01*
X37050990Y62012005D01*
X37108342Y62065995D01*
X37172516Y62128601D01*
X37193503Y62149517D01*
X37410501Y62366877D01*
X37245332Y62609280D01*
X37195136Y62683719D01*
X37151081Y62750528D01*
X37115638Y62805835D01*
X37091281Y62845771D01*
X37080478Y62866464D01*
X37080162Y62867937D01*
X37085857Y62887442D01*
X37101174Y62926678D01*
X37123463Y62979070D01*
X37139107Y63014145D01*
X37168359Y63081299D01*
X37195906Y63149142D01*
X37217263Y63206466D01*
X37223065Y63223928D01*
X37239548Y63270562D01*
X37255660Y63306595D01*
X37264510Y63320213D01*
X37284040Y63328548D01*
X37326666Y63340363D01*
X37386855Y63354319D01*
X37459078Y63369078D01*
X37491400Y63375145D01*
X37573478Y63390227D01*
X37652205Y63404831D01*
X37719891Y63417520D01*
X37768840Y63426858D01*
X37778057Y63428661D01*
X37854257Y63443701D01*
X37854257Y63761008D01*
X37854086Y63865346D01*
X37853384Y63944287D01*
X37851866Y64001462D01*
X37849251Y64040501D01*
X37845254Y64065035D01*
X37839591Y64078695D01*
X37831980Y64085111D01*
X37828857Y64086301D01*
X37810022Y64090520D01*
X37768412Y64098938D01*
X37709370Y64110539D01*
X37638243Y64124305D01*
X37560375Y64139220D01*
X37481113Y64154268D01*
X37405802Y64168431D01*
X37339787Y64180694D01*
X37288413Y64190039D01*
X37257025Y64195450D01*
X37250041Y64196386D01*
X37243715Y64208904D01*
X37229710Y64242254D01*
X37210645Y64290123D01*
X37203366Y64308871D01*
X37174004Y64381305D01*
X37139429Y64461330D01*
X37108463Y64528772D01*
X37085677Y64580341D01*
X37070518Y64622715D01*
X37065458Y64648666D01*
X37066264Y64652144D01*
X37076959Y64668564D01*
X37101380Y64705083D01*
X37136905Y64757813D01*
X37180913Y64822865D01*
X37230783Y64896349D01*
X37240644Y64910855D01*
X37298508Y64996796D01*
X37341044Y65062239D01*
X37369946Y65110196D01*
X37386910Y65143680D01*
X37393633Y65165705D01*
X37391810Y65179283D01*
X37391764Y65179369D01*
X37377414Y65197203D01*
X37345677Y65231683D01*
X37299990Y65279232D01*
X37243796Y65336278D01*
X37180532Y65399245D01*
X37173398Y65406273D01*
X37093670Y65483480D01*
X37032143Y65540170D01*
X36987579Y65577390D01*
X36958743Y65596185D01*
X36946042Y65598611D01*
X36927506Y65588029D01*
X36889039Y65563584D01*
X36834614Y65527888D01*
X36768202Y65483553D01*
X36693775Y65433189D01*
X36676399Y65421340D01*
X36429703Y65252874D01*
X36318294Y65303438D01*
X36250543Y65332905D01*
X36177817Y65362541D01*
X36115297Y65386170D01*
X36112543Y65387142D01*
X36063640Y65405043D01*
X36025943Y65420180D01*
X36007575Y65429290D01*
X36007544Y65429316D01*
X36001715Y65445783D01*
X35991808Y65486281D01*
X35978805Y65546258D01*
X35963691Y65621160D01*
X35947448Y65706436D01*
X35946119Y65713625D01*
X35929825Y65801486D01*
X35914867Y65881240D01*
X35902209Y65947819D01*
X35892814Y65996153D01*
X35887646Y66021175D01*
X35887556Y66021557D01*
X35884411Y66032201D01*
X35878296Y66040238D01*
X35865547Y66046033D01*
X35842500Y66049953D01*
X35805491Y66052365D01*
X35750856Y66053635D01*
X35674933Y66054129D01*
X35574056Y66054214D01*
X35561000Y66054214D01*
X35457090Y66054152D01*
G36*
X32407405Y61329534D02*
G01*
X32349979Y61292003D01*
X32322281Y61258404D01*
X32300338Y61197436D01*
X32298595Y61149192D01*
X32302543Y61084684D01*
X32451314Y61019566D01*
X32523651Y60986298D01*
X32570916Y60959536D01*
X32595493Y60936356D01*
X32599763Y60913833D01*
X32586111Y60889045D01*
X32571057Y60872614D01*
X32527254Y60846265D01*
X32479611Y60844419D01*
X32435855Y60864954D01*
X32403711Y60905748D01*
X32397962Y60920153D01*
X32370424Y60965144D01*
X32338742Y60984318D01*
X32295286Y61000721D01*
X32295286Y60938534D01*
X32299128Y60896217D01*
X32314177Y60860531D01*
X32345720Y60819557D01*
X32350408Y60814233D01*
X32385494Y60777780D01*
X32415653Y60758217D01*
X32453385Y60749217D01*
X32484665Y60746270D01*
X32540615Y60745535D01*
X32580445Y60754840D01*
X32605292Y60768654D01*
X32644344Y60799033D01*
X32671375Y60831887D01*
X32688483Y60873206D01*
X32697762Y60928979D01*
X32701307Y61005195D01*
X32701590Y61043878D01*
X32700628Y61090253D01*
X32612993Y61090253D01*
X32611977Y61065374D01*
X32609444Y61061300D01*
X32592726Y61066835D01*
X32556751Y61081483D01*
X32508669Y61102310D01*
X32498614Y61106786D01*
X32437848Y61137686D01*
X32404368Y61164843D01*
X32397010Y61190280D01*
X32414609Y61216019D01*
X32429144Y61227391D01*
X32481590Y61250136D01*
X32530678Y61246378D01*
X32571773Y61218616D01*
X32600242Y61169348D01*
X32609369Y61130243D01*
X32612993Y61090253D01*
X32700628Y61090253D01*
X32699715Y61134251D01*
X32692804Y61201116D01*
X32679116Y61249805D01*
X32656904Y61285651D01*
X32624426Y61313987D01*
X32610267Y61323145D01*
X32545947Y61346993D01*
X32475527Y61348494D01*
X32407405Y61329534D01*
X32407405Y61329534D01*
G37*
X32407405Y61329534D02*
X32349979Y61292003D01*
X32322281Y61258404D01*
X32300338Y61197436D01*
X32298595Y61149192D01*
X32302543Y61084684D01*
X32451314Y61019566D01*
X32523651Y60986298D01*
X32570916Y60959536D01*
X32595493Y60936356D01*
X32599763Y60913833D01*
X32586111Y60889045D01*
X32571057Y60872614D01*
X32527254Y60846265D01*
X32479611Y60844419D01*
X32435855Y60864954D01*
X32403711Y60905748D01*
X32397962Y60920153D01*
X32370424Y60965144D01*
X32338742Y60984318D01*
X32295286Y61000721D01*
X32295286Y60938534D01*
X32299128Y60896217D01*
X32314177Y60860531D01*
X32345720Y60819557D01*
X32350408Y60814233D01*
X32385494Y60777780D01*
X32415653Y60758217D01*
X32453385Y60749217D01*
X32484665Y60746270D01*
X32540615Y60745535D01*
X32580445Y60754840D01*
X32605292Y60768654D01*
X32644344Y60799033D01*
X32671375Y60831887D01*
X32688483Y60873206D01*
X32697762Y60928979D01*
X32701307Y61005195D01*
X32701590Y61043878D01*
X32700628Y61090253D01*
X32612993Y61090253D01*
X32611977Y61065374D01*
X32609444Y61061300D01*
X32592726Y61066835D01*
X32556751Y61081483D01*
X32508669Y61102310D01*
X32498614Y61106786D01*
X32437848Y61137686D01*
X32404368Y61164843D01*
X32397010Y61190280D01*
X32414609Y61216019D01*
X32429144Y61227391D01*
X32481590Y61250136D01*
X32530678Y61246378D01*
X32571773Y61218616D01*
X32600242Y61169348D01*
X32609369Y61130243D01*
X32612993Y61090253D01*
X32700628Y61090253D01*
X32699715Y61134251D01*
X32692804Y61201116D01*
X32679116Y61249805D01*
X32656904Y61285651D01*
X32624426Y61313987D01*
X32610267Y61323145D01*
X32545947Y61346993D01*
X32475527Y61348494D01*
X32407405Y61329534D01*
G36*
X32908400Y61337748D02*
G01*
X32891052Y61330166D01*
X32849644Y61297372D01*
X32814235Y61249953D01*
X32792336Y61199349D01*
X32788771Y61174402D01*
X32800721Y61139573D01*
X32826933Y61121143D01*
X32855036Y61109984D01*
X32867905Y61107928D01*
X32874171Y61122851D01*
X32886544Y61155325D01*
X32891972Y61169998D01*
X32922410Y61220756D01*
X32966480Y61246073D01*
X33022990Y61245294D01*
X33027175Y61244297D01*
X33057345Y61229993D01*
X33079524Y61202107D01*
X33094673Y61157213D01*
X33103750Y61091885D01*
X33107714Y61002696D01*
X33108086Y60955239D01*
X33108270Y60880429D01*
X33109478Y60829431D01*
X33112691Y60797029D01*
X33118891Y60778005D01*
X33129060Y60767144D01*
X33144181Y60759228D01*
X33145054Y60758830D01*
X33174172Y60746519D01*
X33188597Y60741986D01*
X33190814Y60755691D01*
X33192711Y60793575D01*
X33194153Y60850785D01*
X33195002Y60922473D01*
X33195171Y60974935D01*
X33194308Y61076453D01*
X33190930Y61153468D01*
X33183858Y61210477D01*
X33171912Y61251974D01*
X33153910Y61282457D01*
X33128673Y61306420D01*
X33103753Y61323145D01*
X33043829Y61345403D01*
X32974089Y61350424D01*
X32908400Y61337748D01*
X32908400Y61337748D01*
G37*
X32908400Y61337748D02*
X32891052Y61330166D01*
X32849644Y61297372D01*
X32814235Y61249953D01*
X32792336Y61199349D01*
X32788771Y61174402D01*
X32800721Y61139573D01*
X32826933Y61121143D01*
X32855036Y61109984D01*
X32867905Y61107928D01*
X32874171Y61122851D01*
X32886544Y61155325D01*
X32891972Y61169998D01*
X32922410Y61220756D01*
X32966480Y61246073D01*
X33022990Y61245294D01*
X33027175Y61244297D01*
X33057345Y61229993D01*
X33079524Y61202107D01*
X33094673Y61157213D01*
X33103750Y61091885D01*
X33107714Y61002696D01*
X33108086Y60955239D01*
X33108270Y60880429D01*
X33109478Y60829431D01*
X33112691Y60797029D01*
X33118891Y60778005D01*
X33129060Y60767144D01*
X33144181Y60759228D01*
X33145054Y60758830D01*
X33174172Y60746519D01*
X33188597Y60741986D01*
X33190814Y60755691D01*
X33192711Y60793575D01*
X33194153Y60850785D01*
X33195002Y60922473D01*
X33195171Y60974935D01*
X33194308Y61076453D01*
X33190930Y61153468D01*
X33183858Y61210477D01*
X33171912Y61251974D01*
X33153910Y61282457D01*
X33128673Y61306420D01*
X33103753Y61323145D01*
X33043829Y61345403D01*
X32974089Y61350424D01*
X32908400Y61337748D01*
G36*
X33416124Y61340165D02*
G01*
X33374333Y61321156D01*
X33341531Y61298122D01*
X33317497Y61272367D01*
X33300903Y61239142D01*
X33290423Y61193700D01*
X33284729Y61131293D01*
X33282493Y61047173D01*
X33282257Y60991779D01*
X33282257Y60775674D01*
X33319226Y60758830D01*
X33348344Y60746519D01*
X33362769Y60741986D01*
X33365528Y60755475D01*
X33367718Y60791847D01*
X33369058Y60844958D01*
X33369343Y60887128D01*
X33370566Y60948053D01*
X33373864Y60996385D01*
X33378679Y61025982D01*
X33382504Y61032271D01*
X33408217Y61025848D01*
X33448582Y61009375D01*
X33495321Y60987042D01*
X33540155Y60963043D01*
X33574807Y60941570D01*
X33590998Y60926815D01*
X33591062Y60926655D01*
X33589670Y60899348D01*
X33577182Y60873281D01*
X33555257Y60852108D01*
X33523257Y60845026D01*
X33495908Y60845851D01*
X33457174Y60846458D01*
X33436842Y60837384D01*
X33424631Y60813408D01*
X33423091Y60808887D01*
X33417797Y60774694D01*
X33431953Y60753932D01*
X33468852Y60744038D01*
X33508711Y60742208D01*
X33580438Y60755773D01*
X33617568Y60775145D01*
X33663424Y60820655D01*
X33687744Y60876517D01*
X33689927Y60935543D01*
X33669371Y60990547D01*
X33638451Y61025014D01*
X33607580Y61044311D01*
X33559058Y61068741D01*
X33502515Y61093515D01*
X33493090Y61097301D01*
X33430981Y61124709D01*
X33395178Y61148866D01*
X33383663Y61172881D01*
X33394420Y61199865D01*
X33412886Y61220957D01*
X33456531Y61246928D01*
X33504554Y61248876D01*
X33548594Y61228863D01*
X33580291Y61188949D01*
X33584451Y61178652D01*
X33608673Y61140776D01*
X33644035Y61112658D01*
X33688657Y61089583D01*
X33688657Y61155015D01*
X33686031Y61194994D01*
X33674770Y61226503D01*
X33649801Y61260122D01*
X33625831Y61286016D01*
X33588559Y61322683D01*
X33559599Y61342379D01*
X33528495Y61350280D01*
X33493287Y61351586D01*
X33416124Y61340165D01*
X33416124Y61340165D01*
G37*
X33416124Y61340165D02*
X33374333Y61321156D01*
X33341531Y61298122D01*
X33317497Y61272367D01*
X33300903Y61239142D01*
X33290423Y61193700D01*
X33284729Y61131293D01*
X33282493Y61047173D01*
X33282257Y60991779D01*
X33282257Y60775674D01*
X33319226Y60758830D01*
X33348344Y60746519D01*
X33362769Y60741986D01*
X33365528Y60755475D01*
X33367718Y60791847D01*
X33369058Y60844958D01*
X33369343Y60887128D01*
X33370566Y60948053D01*
X33373864Y60996385D01*
X33378679Y61025982D01*
X33382504Y61032271D01*
X33408217Y61025848D01*
X33448582Y61009375D01*
X33495321Y60987042D01*
X33540155Y60963043D01*
X33574807Y60941570D01*
X33590998Y60926815D01*
X33591062Y60926655D01*
X33589670Y60899348D01*
X33577182Y60873281D01*
X33555257Y60852108D01*
X33523257Y60845026D01*
X33495908Y60845851D01*
X33457174Y60846458D01*
X33436842Y60837384D01*
X33424631Y60813408D01*
X33423091Y60808887D01*
X33417797Y60774694D01*
X33431953Y60753932D01*
X33468852Y60744038D01*
X33508711Y60742208D01*
X33580438Y60755773D01*
X33617568Y60775145D01*
X33663424Y60820655D01*
X33687744Y60876517D01*
X33689927Y60935543D01*
X33669371Y60990547D01*
X33638451Y61025014D01*
X33607580Y61044311D01*
X33559058Y61068741D01*
X33502515Y61093515D01*
X33493090Y61097301D01*
X33430981Y61124709D01*
X33395178Y61148866D01*
X33383663Y61172881D01*
X33394420Y61199865D01*
X33412886Y61220957D01*
X33456531Y61246928D01*
X33504554Y61248876D01*
X33548594Y61228863D01*
X33580291Y61188949D01*
X33584451Y61178652D01*
X33608673Y61140776D01*
X33644035Y61112658D01*
X33688657Y61089583D01*
X33688657Y61155015D01*
X33686031Y61194994D01*
X33674770Y61226503D01*
X33649801Y61260122D01*
X33625831Y61286016D01*
X33588559Y61322683D01*
X33559599Y61342379D01*
X33528495Y61350280D01*
X33493287Y61351586D01*
X33416124Y61340165D01*
G36*
X33781167Y61337837D02*
G01*
X33778952Y61299650D01*
X33777216Y61241614D01*
X33776101Y61168320D01*
X33775743Y61091445D01*
X33775743Y60831304D01*
X33821674Y60785373D01*
X33853325Y60757071D01*
X33881110Y60745607D01*
X33919085Y60746332D01*
X33934160Y60748179D01*
X33981274Y60753552D01*
X34020244Y60756631D01*
X34029743Y60756915D01*
X34061767Y60755055D01*
X34107568Y60750386D01*
X34125326Y60748179D01*
X34168943Y60744765D01*
X34198255Y60752180D01*
X34227320Y60775073D01*
X34237812Y60785373D01*
X34283743Y60831304D01*
X34283743Y61317898D01*
X34246774Y61334742D01*
X34214941Y61347218D01*
X34196317Y61351586D01*
X34191542Y61337782D01*
X34187079Y61299214D01*
X34183225Y61240144D01*
X34180278Y61164837D01*
X34178857Y61101214D01*
X34174886Y60850843D01*
X34140241Y60845944D01*
X34108732Y60849369D01*
X34093292Y60860459D01*
X34088977Y60881192D01*
X34085292Y60925355D01*
X34082531Y60987354D01*
X34080988Y61061591D01*
X34080765Y61099794D01*
X34080543Y61319717D01*
X34034834Y61335651D01*
X34002482Y61346485D01*
X33984885Y61351538D01*
X33984377Y61351586D01*
X33982612Y61337852D01*
X33980671Y61299770D01*
X33978718Y61242018D01*
X33976916Y61169273D01*
X33975657Y61101214D01*
X33971686Y60850843D01*
X33884600Y60850843D01*
X33880604Y61079260D01*
X33876608Y61307678D01*
X33834153Y61329632D01*
X33802808Y61344707D01*
X33784256Y61351549D01*
X33783721Y61351586D01*
X33781167Y61337837D01*
X33781167Y61337837D01*
G37*
X33781167Y61337837D02*
X33778952Y61299650D01*
X33777216Y61241614D01*
X33776101Y61168320D01*
X33775743Y61091445D01*
X33775743Y60831304D01*
X33821674Y60785373D01*
X33853325Y60757071D01*
X33881110Y60745607D01*
X33919085Y60746332D01*
X33934160Y60748179D01*
X33981274Y60753552D01*
X34020244Y60756631D01*
X34029743Y60756915D01*
X34061767Y60755055D01*
X34107568Y60750386D01*
X34125326Y60748179D01*
X34168943Y60744765D01*
X34198255Y60752180D01*
X34227320Y60775073D01*
X34237812Y60785373D01*
X34283743Y60831304D01*
X34283743Y61317898D01*
X34246774Y61334742D01*
X34214941Y61347218D01*
X34196317Y61351586D01*
X34191542Y61337782D01*
X34187079Y61299214D01*
X34183225Y61240144D01*
X34180278Y61164837D01*
X34178857Y61101214D01*
X34174886Y60850843D01*
X34140241Y60845944D01*
X34108732Y60849369D01*
X34093292Y60860459D01*
X34088977Y60881192D01*
X34085292Y60925355D01*
X34082531Y60987354D01*
X34080988Y61061591D01*
X34080765Y61099794D01*
X34080543Y61319717D01*
X34034834Y61335651D01*
X34002482Y61346485D01*
X33984885Y61351538D01*
X33984377Y61351586D01*
X33982612Y61337852D01*
X33980671Y61299770D01*
X33978718Y61242018D01*
X33976916Y61169273D01*
X33975657Y61101214D01*
X33971686Y60850843D01*
X33884600Y60850843D01*
X33880604Y61079260D01*
X33876608Y61307678D01*
X33834153Y61329632D01*
X33802808Y61344707D01*
X33784256Y61351549D01*
X33783721Y61351586D01*
X33781167Y61337837D01*
G36*
X34370883Y61231142D02*
G01*
X34371067Y61122663D01*
X34371781Y61039213D01*
X34373325Y60976796D01*
X34375999Y60931415D01*
X34380106Y60899071D01*
X34385945Y60875767D01*
X34393818Y60857505D01*
X34399779Y60847082D01*
X34449145Y60790555D01*
X34511736Y60755123D01*
X34580987Y60742410D01*
X34650332Y60754037D01*
X34691625Y60774932D01*
X34734975Y60811078D01*
X34764519Y60855224D01*
X34782345Y60913038D01*
X34790537Y60990187D01*
X34791698Y61046786D01*
X34791542Y61050853D01*
X34690143Y61050853D01*
X34689524Y60985950D01*
X34686686Y60942986D01*
X34680160Y60914878D01*
X34668477Y60894547D01*
X34654517Y60879212D01*
X34607635Y60849610D01*
X34557299Y60847081D01*
X34509724Y60871795D01*
X34506021Y60875144D01*
X34490217Y60892565D01*
X34480307Y60913291D01*
X34474942Y60944138D01*
X34472772Y60991923D01*
X34472429Y61044752D01*
X34473173Y61111119D01*
X34476252Y61155394D01*
X34482939Y61184491D01*
X34494504Y61205327D01*
X34503987Y61216393D01*
X34548040Y61244302D01*
X34598776Y61247657D01*
X34647204Y61226341D01*
X34656550Y61218427D01*
X34672460Y61200853D01*
X34682390Y61179913D01*
X34687722Y61148718D01*
X34689837Y61100378D01*
X34690143Y61050853D01*
X34791542Y61050853D01*
X34788190Y61137932D01*
X34776274Y61206414D01*
X34753865Y61257900D01*
X34718876Y61298057D01*
X34691625Y61318639D01*
X34642093Y61340875D01*
X34584684Y61351196D01*
X34531318Y61348433D01*
X34501457Y61337288D01*
X34489739Y61334117D01*
X34481963Y61345943D01*
X34476535Y61377634D01*
X34472429Y61425907D01*
X34467933Y61479671D01*
X34461687Y61512018D01*
X34450324Y61530515D01*
X34430472Y61542730D01*
X34418000Y61548138D01*
X34370829Y61567899D01*
X34370883Y61231142D01*
X34370883Y61231142D01*
G37*
X34370883Y61231142D02*
X34371067Y61122663D01*
X34371781Y61039213D01*
X34373325Y60976796D01*
X34375999Y60931415D01*
X34380106Y60899071D01*
X34385945Y60875767D01*
X34393818Y60857505D01*
X34399779Y60847082D01*
X34449145Y60790555D01*
X34511736Y60755123D01*
X34580987Y60742410D01*
X34650332Y60754037D01*
X34691625Y60774932D01*
X34734975Y60811078D01*
X34764519Y60855224D01*
X34782345Y60913038D01*
X34790537Y60990187D01*
X34791698Y61046786D01*
X34791542Y61050853D01*
X34690143Y61050853D01*
X34689524Y60985950D01*
X34686686Y60942986D01*
X34680160Y60914878D01*
X34668477Y60894547D01*
X34654517Y60879212D01*
X34607635Y60849610D01*
X34557299Y60847081D01*
X34509724Y60871795D01*
X34506021Y60875144D01*
X34490217Y60892565D01*
X34480307Y60913291D01*
X34474942Y60944138D01*
X34472772Y60991923D01*
X34472429Y61044752D01*
X34473173Y61111119D01*
X34476252Y61155394D01*
X34482939Y61184491D01*
X34494504Y61205327D01*
X34503987Y61216393D01*
X34548040Y61244302D01*
X34598776Y61247657D01*
X34647204Y61226341D01*
X34656550Y61218427D01*
X34672460Y61200853D01*
X34682390Y61179913D01*
X34687722Y61148718D01*
X34689837Y61100378D01*
X34690143Y61050853D01*
X34791542Y61050853D01*
X34788190Y61137932D01*
X34776274Y61206414D01*
X34753865Y61257900D01*
X34718876Y61298057D01*
X34691625Y61318639D01*
X34642093Y61340875D01*
X34584684Y61351196D01*
X34531318Y61348433D01*
X34501457Y61337288D01*
X34489739Y61334117D01*
X34481963Y61345943D01*
X34476535Y61377634D01*
X34472429Y61425907D01*
X34467933Y61479671D01*
X34461687Y61512018D01*
X34450324Y61530515D01*
X34430472Y61542730D01*
X34418000Y61548138D01*
X34370829Y61567899D01*
X34370883Y61231142D01*
G36*
X35031074Y61346745D02*
G01*
X34965142Y61322416D01*
X34911727Y61279383D01*
X34890836Y61249091D01*
X34868061Y61193506D01*
X34868534Y61153314D01*
X34892438Y61126283D01*
X34901283Y61121687D01*
X34939470Y61107356D01*
X34958972Y61111028D01*
X34965578Y61135093D01*
X34965914Y61148386D01*
X34978008Y61197290D01*
X35009529Y61231501D01*
X35053341Y61248024D01*
X35102305Y61243866D01*
X35142106Y61222273D01*
X35155550Y61209956D01*
X35165079Y61195013D01*
X35171515Y61172425D01*
X35175683Y61137172D01*
X35178403Y61084234D01*
X35180498Y61008593D01*
X35181040Y60984643D01*
X35183019Y60902710D01*
X35185269Y60845045D01*
X35188643Y60806892D01*
X35193994Y60783496D01*
X35202176Y60770102D01*
X35214041Y60761955D01*
X35221638Y60758356D01*
X35253898Y60746048D01*
X35272889Y60741986D01*
X35279164Y60755552D01*
X35282994Y60796566D01*
X35284400Y60865501D01*
X35283402Y60962831D01*
X35283092Y60977843D01*
X35280899Y61066641D01*
X35278307Y61131481D01*
X35274618Y61177433D01*
X35269136Y61209565D01*
X35261165Y61232947D01*
X35250007Y61252648D01*
X35244170Y61261090D01*
X35210704Y61298443D01*
X35173273Y61327497D01*
X35168691Y61330033D01*
X35101574Y61350057D01*
X35031074Y61346745D01*
X35031074Y61346745D01*
G37*
X35031074Y61346745D02*
X34965142Y61322416D01*
X34911727Y61279383D01*
X34890836Y61249091D01*
X34868061Y61193506D01*
X34868534Y61153314D01*
X34892438Y61126283D01*
X34901283Y61121687D01*
X34939470Y61107356D01*
X34958972Y61111028D01*
X34965578Y61135093D01*
X34965914Y61148386D01*
X34978008Y61197290D01*
X35009529Y61231501D01*
X35053341Y61248024D01*
X35102305Y61243866D01*
X35142106Y61222273D01*
X35155550Y61209956D01*
X35165079Y61195013D01*
X35171515Y61172425D01*
X35175683Y61137172D01*
X35178403Y61084234D01*
X35180498Y61008593D01*
X35181040Y60984643D01*
X35183019Y60902710D01*
X35185269Y60845045D01*
X35188643Y60806892D01*
X35193994Y60783496D01*
X35202176Y60770102D01*
X35214041Y60761955D01*
X35221638Y60758356D01*
X35253898Y60746048D01*
X35272889Y60741986D01*
X35279164Y60755552D01*
X35282994Y60796566D01*
X35284400Y60865501D01*
X35283402Y60962831D01*
X35283092Y60977843D01*
X35280899Y61066641D01*
X35278307Y61131481D01*
X35274618Y61177433D01*
X35269136Y61209565D01*
X35261165Y61232947D01*
X35250007Y61252648D01*
X35244170Y61261090D01*
X35210704Y61298443D01*
X35173273Y61327497D01*
X35168691Y61330033D01*
X35101574Y61350057D01*
X35031074Y61346745D01*
G36*
X35521256Y61345532D02*
G01*
X35464384Y61324413D01*
X35463733Y61324007D01*
X35428560Y61298120D01*
X35402593Y61267867D01*
X35384330Y61228442D01*
X35372268Y61175038D01*
X35364904Y61102849D01*
X35360736Y61007068D01*
X35360371Y60993422D01*
X35355124Y60787658D01*
X35399284Y60764822D01*
X35431237Y60749390D01*
X35450530Y60742077D01*
X35451422Y60741986D01*
X35454761Y60755478D01*
X35457413Y60791874D01*
X35459044Y60845048D01*
X35459400Y60888107D01*
X35459408Y60957859D01*
X35462597Y61001663D01*
X35473712Y61022556D01*
X35497499Y61023575D01*
X35538704Y61007759D01*
X35600914Y60978685D01*
X35646659Y60954537D01*
X35670187Y60933587D01*
X35677104Y60910753D01*
X35677114Y60909623D01*
X35665701Y60870288D01*
X35631908Y60849038D01*
X35580191Y60845961D01*
X35542939Y60846494D01*
X35523297Y60835765D01*
X35511048Y60809995D01*
X35503998Y60777163D01*
X35514158Y60758534D01*
X35517983Y60755868D01*
X35553999Y60745160D01*
X35604434Y60743644D01*
X35656374Y60750741D01*
X35693178Y60763712D01*
X35744062Y60806915D01*
X35772986Y60867054D01*
X35778714Y60914038D01*
X35774343Y60956418D01*
X35758525Y60991012D01*
X35727203Y61021737D01*
X35676322Y61052510D01*
X35601824Y61087248D01*
X35597286Y61089212D01*
X35530179Y61120213D01*
X35488768Y61145638D01*
X35471019Y61168486D01*
X35474893Y61191755D01*
X35498357Y61218444D01*
X35505373Y61224586D01*
X35552370Y61248400D01*
X35601067Y61247397D01*
X35643478Y61224049D01*
X35671616Y61180825D01*
X35674231Y61172340D01*
X35699692Y61131192D01*
X35731999Y61111372D01*
X35778714Y61091730D01*
X35778714Y61142550D01*
X35764504Y61216418D01*
X35722325Y61284173D01*
X35700376Y61306839D01*
X35650483Y61335931D01*
X35587033Y61349100D01*
X35521256Y61345532D01*
X35521256Y61345532D01*
G37*
X35521256Y61345532D02*
X35464384Y61324413D01*
X35463733Y61324007D01*
X35428560Y61298120D01*
X35402593Y61267867D01*
X35384330Y61228442D01*
X35372268Y61175038D01*
X35364904Y61102849D01*
X35360736Y61007068D01*
X35360371Y60993422D01*
X35355124Y60787658D01*
X35399284Y60764822D01*
X35431237Y60749390D01*
X35450530Y60742077D01*
X35451422Y60741986D01*
X35454761Y60755478D01*
X35457413Y60791874D01*
X35459044Y60845048D01*
X35459400Y60888107D01*
X35459408Y60957859D01*
X35462597Y61001663D01*
X35473712Y61022556D01*
X35497499Y61023575D01*
X35538704Y61007759D01*
X35600914Y60978685D01*
X35646659Y60954537D01*
X35670187Y60933587D01*
X35677104Y60910753D01*
X35677114Y60909623D01*
X35665701Y60870288D01*
X35631908Y60849038D01*
X35580191Y60845961D01*
X35542939Y60846494D01*
X35523297Y60835765D01*
X35511048Y60809995D01*
X35503998Y60777163D01*
X35514158Y60758534D01*
X35517983Y60755868D01*
X35553999Y60745160D01*
X35604434Y60743644D01*
X35656374Y60750741D01*
X35693178Y60763712D01*
X35744062Y60806915D01*
X35772986Y60867054D01*
X35778714Y60914038D01*
X35774343Y60956418D01*
X35758525Y60991012D01*
X35727203Y61021737D01*
X35676322Y61052510D01*
X35601824Y61087248D01*
X35597286Y61089212D01*
X35530179Y61120213D01*
X35488768Y61145638D01*
X35471019Y61168486D01*
X35474893Y61191755D01*
X35498357Y61218444D01*
X35505373Y61224586D01*
X35552370Y61248400D01*
X35601067Y61247397D01*
X35643478Y61224049D01*
X35671616Y61180825D01*
X35674231Y61172340D01*
X35699692Y61131192D01*
X35731999Y61111372D01*
X35778714Y61091730D01*
X35778714Y61142550D01*
X35764504Y61216418D01*
X35722325Y61284173D01*
X35700376Y61306839D01*
X35650483Y61335931D01*
X35587033Y61349100D01*
X35521256Y61345532D01*
G36*
X36185114Y61445211D02*
G01*
X36180861Y61385887D01*
X36175975Y61350928D01*
X36169205Y61335680D01*
X36159298Y61335485D01*
X36156086Y61337305D01*
X36113356Y61350485D01*
X36057773Y61349715D01*
X36001263Y61336167D01*
X35965918Y61318639D01*
X35929679Y61290639D01*
X35903187Y61258951D01*
X35885001Y61218687D01*
X35873678Y61164957D01*
X35867778Y61092874D01*
X35865857Y60997549D01*
X35865823Y60979263D01*
X35865800Y60773854D01*
X35911509Y60757920D01*
X35943973Y60747080D01*
X35961785Y60742032D01*
X35962309Y60741986D01*
X35964063Y60755672D01*
X35965556Y60793424D01*
X35966674Y60850276D01*
X35967303Y60921266D01*
X35967400Y60964427D01*
X35967602Y61049527D01*
X35968642Y61110519D01*
X35971169Y61152323D01*
X35975836Y61179858D01*
X35983293Y61198044D01*
X35994189Y61211802D01*
X36000993Y61218427D01*
X36047728Y61245125D01*
X36098728Y61247125D01*
X36144999Y61224545D01*
X36153556Y61216393D01*
X36166107Y61201064D01*
X36174812Y61182882D01*
X36180369Y61156591D01*
X36183474Y61116938D01*
X36184824Y61058668D01*
X36185114Y60978327D01*
X36185114Y60773854D01*
X36230823Y60757920D01*
X36263287Y60747080D01*
X36281099Y60742032D01*
X36281623Y60741986D01*
X36282963Y60755877D01*
X36284172Y60795061D01*
X36285199Y60855800D01*
X36285998Y60934359D01*
X36286519Y61027002D01*
X36286714Y61129991D01*
X36286714Y61527158D01*
X36239543Y61547056D01*
X36192371Y61566953D01*
X36185114Y61445211D01*
X36185114Y61445211D01*
G37*
X36185114Y61445211D02*
X36180861Y61385887D01*
X36175975Y61350928D01*
X36169205Y61335680D01*
X36159298Y61335485D01*
X36156086Y61337305D01*
X36113356Y61350485D01*
X36057773Y61349715D01*
X36001263Y61336167D01*
X35965918Y61318639D01*
X35929679Y61290639D01*
X35903187Y61258951D01*
X35885001Y61218687D01*
X35873678Y61164957D01*
X35867778Y61092874D01*
X35865857Y60997549D01*
X35865823Y60979263D01*
X35865800Y60773854D01*
X35911509Y60757920D01*
X35943973Y60747080D01*
X35961785Y60742032D01*
X35962309Y60741986D01*
X35964063Y60755672D01*
X35965556Y60793424D01*
X35966674Y60850276D01*
X35967303Y60921266D01*
X35967400Y60964427D01*
X35967602Y61049527D01*
X35968642Y61110519D01*
X35971169Y61152323D01*
X35975836Y61179858D01*
X35983293Y61198044D01*
X35994189Y61211802D01*
X36000993Y61218427D01*
X36047728Y61245125D01*
X36098728Y61247125D01*
X36144999Y61224545D01*
X36153556Y61216393D01*
X36166107Y61201064D01*
X36174812Y61182882D01*
X36180369Y61156591D01*
X36183474Y61116938D01*
X36184824Y61058668D01*
X36185114Y60978327D01*
X36185114Y60773854D01*
X36230823Y60757920D01*
X36263287Y60747080D01*
X36281099Y60742032D01*
X36281623Y60741986D01*
X36282963Y60755877D01*
X36284172Y60795061D01*
X36285199Y60855800D01*
X36285998Y60934359D01*
X36286519Y61027002D01*
X36286714Y61129991D01*
X36286714Y61527158D01*
X36239543Y61547056D01*
X36192371Y61566953D01*
X36185114Y61445211D01*
G36*
X37392697Y61365261D02*
G01*
X37335473Y61326765D01*
X37291251Y61271165D01*
X37264833Y61200414D01*
X37259490Y61148338D01*
X37260097Y61126607D01*
X37265178Y61109969D01*
X37279145Y61095063D01*
X37306411Y61078527D01*
X37351388Y61057002D01*
X37418489Y61027126D01*
X37418829Y61026976D01*
X37480593Y60998687D01*
X37531241Y60973567D01*
X37565596Y60954321D01*
X37578482Y60943652D01*
X37578486Y60943566D01*
X37567128Y60920334D01*
X37540569Y60894726D01*
X37510077Y60876279D01*
X37494630Y60872614D01*
X37452485Y60885288D01*
X37416192Y60917029D01*
X37398483Y60951928D01*
X37381448Y60977655D01*
X37348078Y61006954D01*
X37308851Y61032265D01*
X37274244Y61046029D01*
X37267007Y61046786D01*
X37258861Y61034340D01*
X37258370Y61002528D01*
X37264357Y60959634D01*
X37275643Y60913942D01*
X37291050Y60873739D01*
X37291829Y60872178D01*
X37338196Y60807438D01*
X37398289Y60763403D01*
X37466535Y60741789D01*
X37537362Y60744315D01*
X37605196Y60772696D01*
X37608212Y60774692D01*
X37661573Y60823052D01*
X37696660Y60886148D01*
X37716078Y60969113D01*
X37718684Y60992422D01*
X37723299Y61102445D01*
X37717767Y61153752D01*
X37578486Y61153752D01*
X37576676Y61121747D01*
X37566778Y61112407D01*
X37542102Y61119395D01*
X37503205Y61135913D01*
X37459725Y61156619D01*
X37458644Y61157167D01*
X37421791Y61176551D01*
X37407000Y61189487D01*
X37410647Y61203049D01*
X37426005Y61220868D01*
X37465077Y61246655D01*
X37507154Y61248550D01*
X37544897Y61229783D01*
X37570966Y61193585D01*
X37578486Y61153752D01*
X37717767Y61153752D01*
X37713806Y61190473D01*
X37689450Y61260288D01*
X37655544Y61309198D01*
X37594347Y61358622D01*
X37526937Y61383141D01*
X37458120Y61384703D01*
X37392697Y61365261D01*
X37392697Y61365261D01*
G37*
X37392697Y61365261D02*
X37335473Y61326765D01*
X37291251Y61271165D01*
X37264833Y61200414D01*
X37259490Y61148338D01*
X37260097Y61126607D01*
X37265178Y61109969D01*
X37279145Y61095063D01*
X37306411Y61078527D01*
X37351388Y61057002D01*
X37418489Y61027126D01*
X37418829Y61026976D01*
X37480593Y60998687D01*
X37531241Y60973567D01*
X37565596Y60954321D01*
X37578482Y60943652D01*
X37578486Y60943566D01*
X37567128Y60920334D01*
X37540569Y60894726D01*
X37510077Y60876279D01*
X37494630Y60872614D01*
X37452485Y60885288D01*
X37416192Y60917029D01*
X37398483Y60951928D01*
X37381448Y60977655D01*
X37348078Y61006954D01*
X37308851Y61032265D01*
X37274244Y61046029D01*
X37267007Y61046786D01*
X37258861Y61034340D01*
X37258370Y61002528D01*
X37264357Y60959634D01*
X37275643Y60913942D01*
X37291050Y60873739D01*
X37291829Y60872178D01*
X37338196Y60807438D01*
X37398289Y60763403D01*
X37466535Y60741789D01*
X37537362Y60744315D01*
X37605196Y60772696D01*
X37608212Y60774692D01*
X37661573Y60823052D01*
X37696660Y60886148D01*
X37716078Y60969113D01*
X37718684Y60992422D01*
X37723299Y61102445D01*
X37717767Y61153752D01*
X37578486Y61153752D01*
X37576676Y61121747D01*
X37566778Y61112407D01*
X37542102Y61119395D01*
X37503205Y61135913D01*
X37459725Y61156619D01*
X37458644Y61157167D01*
X37421791Y61176551D01*
X37407000Y61189487D01*
X37410647Y61203049D01*
X37426005Y61220868D01*
X37465077Y61246655D01*
X37507154Y61248550D01*
X37544897Y61229783D01*
X37570966Y61193585D01*
X37578486Y61153752D01*
X37717767Y61153752D01*
X37713806Y61190473D01*
X37689450Y61260288D01*
X37655544Y61309198D01*
X37594347Y61358622D01*
X37526937Y61383141D01*
X37458120Y61384703D01*
X37392697Y61365261D01*
G36*
X38519885Y61374538D02*
G01*
X38451855Y61338767D01*
X38401649Y61281199D01*
X38383815Y61244188D01*
X38369937Y61188618D01*
X38362833Y61118404D01*
X38362160Y61041773D01*
X38367573Y60966948D01*
X38378730Y60902158D01*
X38395286Y60855627D01*
X38400374Y60847613D01*
X38460645Y60787793D01*
X38532231Y60751965D01*
X38609908Y60741480D01*
X38688452Y60757690D01*
X38710311Y60767408D01*
X38752878Y60797357D01*
X38790237Y60837067D01*
X38793768Y60842103D01*
X38808119Y60866376D01*
X38817606Y60892322D01*
X38823210Y60926478D01*
X38825914Y60975381D01*
X38826701Y61045565D01*
X38826714Y61061300D01*
X38826678Y61066308D01*
X38681571Y61066308D01*
X38680727Y61000070D01*
X38677404Y60956114D01*
X38670417Y60927721D01*
X38658584Y60908175D01*
X38652543Y60901643D01*
X38617814Y60876820D01*
X38584097Y60877952D01*
X38550005Y60899484D01*
X38529671Y60922471D01*
X38517629Y60956022D01*
X38510866Y61008931D01*
X38510402Y61015101D01*
X38509248Y61110987D01*
X38521312Y61182201D01*
X38546430Y61228306D01*
X38584440Y61248865D01*
X38598008Y61249986D01*
X38633636Y61244348D01*
X38658006Y61224814D01*
X38672907Y61187458D01*
X38680125Y61128350D01*
X38681571Y61066308D01*
X38826678Y61066308D01*
X38826174Y61136087D01*
X38823904Y61188341D01*
X38818932Y61224551D01*
X38810287Y61251201D01*
X38796995Y61274778D01*
X38794057Y61279162D01*
X38744687Y61338251D01*
X38690891Y61372553D01*
X38625398Y61386169D01*
X38603158Y61386835D01*
X38519885Y61374538D01*
X38519885Y61374538D01*
G37*
X38519885Y61374538D02*
X38451855Y61338767D01*
X38401649Y61281199D01*
X38383815Y61244188D01*
X38369937Y61188618D01*
X38362833Y61118404D01*
X38362160Y61041773D01*
X38367573Y60966948D01*
X38378730Y60902158D01*
X38395286Y60855627D01*
X38400374Y60847613D01*
X38460645Y60787793D01*
X38532231Y60751965D01*
X38609908Y60741480D01*
X38688452Y60757690D01*
X38710311Y60767408D01*
X38752878Y60797357D01*
X38790237Y60837067D01*
X38793768Y60842103D01*
X38808119Y60866376D01*
X38817606Y60892322D01*
X38823210Y60926478D01*
X38825914Y60975381D01*
X38826701Y61045565D01*
X38826714Y61061300D01*
X38826678Y61066308D01*
X38681571Y61066308D01*
X38680727Y61000070D01*
X38677404Y60956114D01*
X38670417Y60927721D01*
X38658584Y60908175D01*
X38652543Y60901643D01*
X38617814Y60876820D01*
X38584097Y60877952D01*
X38550005Y60899484D01*
X38529671Y60922471D01*
X38517629Y60956022D01*
X38510866Y61008931D01*
X38510402Y61015101D01*
X38509248Y61110987D01*
X38521312Y61182201D01*
X38546430Y61228306D01*
X38584440Y61248865D01*
X38598008Y61249986D01*
X38633636Y61244348D01*
X38658006Y61224814D01*
X38672907Y61187458D01*
X38680125Y61128350D01*
X38681571Y61066308D01*
X38826678Y61066308D01*
X38826174Y61136087D01*
X38823904Y61188341D01*
X38818932Y61224551D01*
X38810287Y61251201D01*
X38796995Y61274778D01*
X38794057Y61279162D01*
X38744687Y61338251D01*
X38690891Y61372553D01*
X38625398Y61386169D01*
X38603158Y61386835D01*
X38519885Y61374538D01*
G36*
X36844907Y61368720D02*
G01*
X36798328Y61341777D01*
X36765943Y61315034D01*
X36742258Y61287016D01*
X36725941Y61252752D01*
X36715661Y61207273D01*
X36710086Y61145608D01*
X36707884Y61062789D01*
X36707629Y61003254D01*
X36707629Y60784109D01*
X36769314Y60756456D01*
X36831000Y60728803D01*
X36838257Y60968830D01*
X36841256Y61058472D01*
X36844402Y61123538D01*
X36848299Y61168474D01*
X36853553Y61197730D01*
X36860769Y61215752D01*
X36870550Y61226989D01*
X36873688Y61229421D01*
X36921239Y61248417D01*
X36969303Y61240900D01*
X36997914Y61220957D01*
X37009553Y61206825D01*
X37017609Y61188280D01*
X37022729Y61160166D01*
X37025559Y61117327D01*
X37026744Y61054605D01*
X37026943Y60989239D01*
X37026982Y60907232D01*
X37028386Y60849184D01*
X37033086Y60810035D01*
X37043013Y60784720D01*
X37060097Y60768177D01*
X37086268Y60755344D01*
X37121225Y60742009D01*
X37159404Y60727493D01*
X37154859Y60985111D01*
X37153029Y61077981D01*
X37150888Y61146611D01*
X37147819Y61195789D01*
X37143206Y61230302D01*
X37136432Y61254938D01*
X37126881Y61274484D01*
X37115366Y61291730D01*
X37059810Y61346820D01*
X36992020Y61378678D01*
X36918287Y61386309D01*
X36844907Y61368720D01*
X36844907Y61368720D01*
G37*
X36844907Y61368720D02*
X36798328Y61341777D01*
X36765943Y61315034D01*
X36742258Y61287016D01*
X36725941Y61252752D01*
X36715661Y61207273D01*
X36710086Y61145608D01*
X36707884Y61062789D01*
X36707629Y61003254D01*
X36707629Y60784109D01*
X36769314Y60756456D01*
X36831000Y60728803D01*
X36838257Y60968830D01*
X36841256Y61058472D01*
X36844402Y61123538D01*
X36848299Y61168474D01*
X36853553Y61197730D01*
X36860769Y61215752D01*
X36870550Y61226989D01*
X36873688Y61229421D01*
X36921239Y61248417D01*
X36969303Y61240900D01*
X36997914Y61220957D01*
X37009553Y61206825D01*
X37017609Y61188280D01*
X37022729Y61160166D01*
X37025559Y61117327D01*
X37026744Y61054605D01*
X37026943Y60989239D01*
X37026982Y60907232D01*
X37028386Y60849184D01*
X37033086Y60810035D01*
X37043013Y60784720D01*
X37060097Y60768177D01*
X37086268Y60755344D01*
X37121225Y60742009D01*
X37159404Y60727493D01*
X37154859Y60985111D01*
X37153029Y61077981D01*
X37150888Y61146611D01*
X37147819Y61195789D01*
X37143206Y61230302D01*
X37136432Y61254938D01*
X37126881Y61274484D01*
X37115366Y61291730D01*
X37059810Y61346820D01*
X36992020Y61378678D01*
X36918287Y61386309D01*
X36844907Y61368720D01*
G36*
X37961256Y61376582D02*
G01*
X37905799Y61348932D01*
X37856852Y61298020D01*
X37843371Y61279162D01*
X37828686Y61254485D01*
X37819158Y61227684D01*
X37813707Y61191913D01*
X37811253Y61140331D01*
X37810714Y61072233D01*
X37813148Y60978912D01*
X37821606Y60908843D01*
X37837826Y60856569D01*
X37863546Y60816631D01*
X37900503Y60783571D01*
X37903218Y60781614D01*
X37939640Y60761592D01*
X37983498Y60751685D01*
X38039276Y60749243D01*
X38129952Y60749243D01*
X38129990Y60661217D01*
X38130834Y60612192D01*
X38135976Y60583435D01*
X38149413Y60566189D01*
X38175142Y60551692D01*
X38181321Y60548731D01*
X38210236Y60534852D01*
X38232624Y60526086D01*
X38249271Y60525329D01*
X38260964Y60535477D01*
X38268490Y60559427D01*
X38272634Y60600074D01*
X38274185Y60660314D01*
X38273929Y60743045D01*
X38272651Y60851161D01*
X38272252Y60883500D01*
X38270815Y60994976D01*
X38269528Y61067897D01*
X38130029Y61067897D01*
X38129245Y61006001D01*
X38125760Y60965503D01*
X38117876Y60938792D01*
X38103895Y60918256D01*
X38094403Y60908240D01*
X38055596Y60878933D01*
X38021237Y60876548D01*
X37985784Y60900750D01*
X37984886Y60901643D01*
X37970461Y60920347D01*
X37961687Y60945768D01*
X37957261Y60984916D01*
X37955882Y61044803D01*
X37955857Y61058070D01*
X37959188Y61140599D01*
X37970031Y61197809D01*
X37989660Y61232734D01*
X38019350Y61248406D01*
X38036509Y61249986D01*
X38077234Y61242574D01*
X38105168Y61218170D01*
X38121983Y61173520D01*
X38129350Y61105370D01*
X38130029Y61067897D01*
X38269528Y61067897D01*
X38269292Y61081255D01*
X38267323Y61146167D01*
X38264550Y61193542D01*
X38260612Y61227210D01*
X38255151Y61251002D01*
X38247808Y61268747D01*
X38238223Y61284276D01*
X38234113Y61290119D01*
X38179595Y61345315D01*
X38110664Y61376610D01*
X38030928Y61385335D01*
X37961256Y61376582D01*
X37961256Y61376582D01*
G37*
X37961256Y61376582D02*
X37905799Y61348932D01*
X37856852Y61298020D01*
X37843371Y61279162D01*
X37828686Y61254485D01*
X37819158Y61227684D01*
X37813707Y61191913D01*
X37811253Y61140331D01*
X37810714Y61072233D01*
X37813148Y60978912D01*
X37821606Y60908843D01*
X37837826Y60856569D01*
X37863546Y60816631D01*
X37900503Y60783571D01*
X37903218Y60781614D01*
X37939640Y60761592D01*
X37983498Y60751685D01*
X38039276Y60749243D01*
X38129952Y60749243D01*
X38129990Y60661217D01*
X38130834Y60612192D01*
X38135976Y60583435D01*
X38149413Y60566189D01*
X38175142Y60551692D01*
X38181321Y60548731D01*
X38210236Y60534852D01*
X38232624Y60526086D01*
X38249271Y60525329D01*
X38260964Y60535477D01*
X38268490Y60559427D01*
X38272634Y60600074D01*
X38274185Y60660314D01*
X38273929Y60743045D01*
X38272651Y60851161D01*
X38272252Y60883500D01*
X38270815Y60994976D01*
X38269528Y61067897D01*
X38130029Y61067897D01*
X38129245Y61006001D01*
X38125760Y60965503D01*
X38117876Y60938792D01*
X38103895Y60918256D01*
X38094403Y60908240D01*
X38055596Y60878933D01*
X38021237Y60876548D01*
X37985784Y60900750D01*
X37984886Y60901643D01*
X37970461Y60920347D01*
X37961687Y60945768D01*
X37957261Y60984916D01*
X37955882Y61044803D01*
X37955857Y61058070D01*
X37959188Y61140599D01*
X37970031Y61197809D01*
X37989660Y61232734D01*
X38019350Y61248406D01*
X38036509Y61249986D01*
X38077234Y61242574D01*
X38105168Y61218170D01*
X38121983Y61173520D01*
X38129350Y61105370D01*
X38130029Y61067897D01*
X38269528Y61067897D01*
X38269292Y61081255D01*
X38267323Y61146167D01*
X38264550Y61193542D01*
X38260612Y61227210D01*
X38255151Y61251002D01*
X38247808Y61268747D01*
X38238223Y61284276D01*
X38234113Y61290119D01*
X38179595Y61345315D01*
X38110664Y61376610D01*
X38030928Y61385335D01*
X37961256Y61376582D01*
M02*
