%TF.GenerationSoftware,KiCad,Pcbnew,6.0.0-unknown-0ba0c17~86~ubuntu19.04.1*%
%TF.CreationDate,2019-08-27T02:54:08-07:00*%
%TF.ProjectId,PrntrBoardV1,50726e74-7242-46f6-9172-6456312e6b69,rev?*%
%TF.SameCoordinates,PX1303eb8PY7093f24*%
%TF.FileFunction,Legend,Top*%
%TF.FilePolarity,Positive*%
%FSLAX46Y46*%
G04 Gerber Fmt 4.6, Leading zero omitted, Abs format (unit mm)*
G04 Created by KiCad (PCBNEW 6.0.0-unknown-0ba0c17~86~ubuntu19.04.1) date 2019-08-27 02:54:08*
%MOMM*%
%LPD*%
G04 APERTURE LIST*
%ADD10C,0.150000*%
%ADD11C,0.200000*%
%ADD12C,0.250000*%
%ADD13C,0.300000*%
%ADD14C,0.100000*%
%ADD15C,0.120000*%
%ADD16C,0.152400*%
G04 APERTURE END LIST*
D10*
X23589514Y63148015D02*
X23160942Y63148015D01*
X23375228Y63148015D02*
X23375228Y63898015D01*
X23303800Y63790872D01*
X23232371Y63719443D01*
X23160942Y63683729D01*
X24053800Y63898015D02*
X24125228Y63898015D01*
X24196657Y63862300D01*
X24232371Y63826586D01*
X24268085Y63755158D01*
X24303800Y63612300D01*
X24303800Y63433729D01*
X24268085Y63290872D01*
X24232371Y63219443D01*
X24196657Y63183729D01*
X24125228Y63148015D01*
X24053800Y63148015D01*
X23982371Y63183729D01*
X23946657Y63219443D01*
X23910942Y63290872D01*
X23875228Y63433729D01*
X23875228Y63612300D01*
X23910942Y63755158D01*
X23946657Y63826586D01*
X23982371Y63862300D01*
X24053800Y63898015D01*
X24589514Y63362300D02*
X24946657Y63362300D01*
X24518085Y63148015D02*
X24768085Y63898015D01*
X25018085Y63148015D01*
X34919285Y60164215D02*
X35169285Y59414215D01*
X35419285Y60164215D01*
X35669285Y59699929D02*
X36240714Y59699929D01*
X36490714Y59914215D02*
X36776428Y59914215D01*
X36597857Y59414215D02*
X36597857Y60057072D01*
X36633571Y60128500D01*
X36705000Y60164215D01*
X36776428Y60164215D01*
X37347857Y59414215D02*
X37347857Y59807072D01*
X37312142Y59878500D01*
X37240714Y59914215D01*
X37097857Y59914215D01*
X37026428Y59878500D01*
X37347857Y59449929D02*
X37276428Y59414215D01*
X37097857Y59414215D01*
X37026428Y59449929D01*
X36990714Y59521358D01*
X36990714Y59592786D01*
X37026428Y59664215D01*
X37097857Y59699929D01*
X37276428Y59699929D01*
X37347857Y59735643D01*
X37705000Y59914215D02*
X37705000Y59414215D01*
X37705000Y59842786D02*
X37740714Y59878500D01*
X37812142Y59914215D01*
X37919285Y59914215D01*
X37990714Y59878500D01*
X38026428Y59807072D01*
X38026428Y59414215D01*
X38347857Y59449929D02*
X38419285Y59414215D01*
X38562142Y59414215D01*
X38633571Y59449929D01*
X38669285Y59521358D01*
X38669285Y59557072D01*
X38633571Y59628500D01*
X38562142Y59664215D01*
X38455000Y59664215D01*
X38383571Y59699929D01*
X38347857Y59771358D01*
X38347857Y59807072D01*
X38383571Y59878500D01*
X38455000Y59914215D01*
X38562142Y59914215D01*
X38633571Y59878500D01*
X26748971Y62277958D02*
X26748971Y62027958D01*
X26356114Y61920815D02*
X26356114Y62277958D01*
X27106114Y62277958D01*
X27106114Y61920815D01*
X27034685Y61635100D02*
X27070400Y61599386D01*
X27106114Y61527958D01*
X27106114Y61349386D01*
X27070400Y61277958D01*
X27034685Y61242243D01*
X26963257Y61206529D01*
X26891828Y61206529D01*
X26784685Y61242243D01*
X26356114Y61670815D01*
X26356114Y61206529D01*
X28374571Y62227158D02*
X28374571Y61977158D01*
X27981714Y61870015D02*
X27981714Y62227158D01*
X28731714Y62227158D01*
X28731714Y61870015D01*
X27981714Y61155729D02*
X27981714Y61584300D01*
X27981714Y61370015D02*
X28731714Y61370015D01*
X28624571Y61441443D01*
X28553142Y61512872D01*
X28517428Y61584300D01*
X29949371Y62573215D02*
X29913657Y62466072D01*
X29877942Y62430358D01*
X29806514Y62394643D01*
X29699371Y62394643D01*
X29627942Y62430358D01*
X29592228Y62466072D01*
X29556514Y62537500D01*
X29556514Y62823215D01*
X30306514Y62823215D01*
X30306514Y62573215D01*
X30270800Y62501786D01*
X30235085Y62466072D01*
X30163657Y62430358D01*
X30092228Y62430358D01*
X30020800Y62466072D01*
X29985085Y62501786D01*
X29949371Y62573215D01*
X29949371Y62823215D01*
X29949371Y62073215D02*
X29949371Y61823215D01*
X29556514Y61716072D02*
X29556514Y62073215D01*
X30306514Y62073215D01*
X30306514Y61716072D01*
X29556514Y61394643D02*
X30306514Y61394643D01*
X30306514Y61216072D01*
X30270800Y61108929D01*
X30199371Y61037500D01*
X30127942Y61001786D01*
X29985085Y60966072D01*
X29877942Y60966072D01*
X29735085Y61001786D01*
X29663657Y61037500D01*
X29592228Y61108929D01*
X29556514Y61216072D01*
X29556514Y61394643D01*
X17400285Y76850072D02*
X17150285Y76850072D01*
X17150285Y76457215D02*
X17150285Y77207215D01*
X17507428Y77207215D01*
X18114571Y76957215D02*
X18114571Y76457215D01*
X17793142Y76957215D02*
X17793142Y76564358D01*
X17828857Y76492929D01*
X17900285Y76457215D01*
X18007428Y76457215D01*
X18078857Y76492929D01*
X18114571Y76528643D01*
X18436000Y76492929D02*
X18507428Y76457215D01*
X18650285Y76457215D01*
X18721714Y76492929D01*
X18757428Y76564358D01*
X18757428Y76600072D01*
X18721714Y76671500D01*
X18650285Y76707215D01*
X18543142Y76707215D01*
X18471714Y76742929D01*
X18436000Y76814358D01*
X18436000Y76850072D01*
X18471714Y76921500D01*
X18543142Y76957215D01*
X18650285Y76957215D01*
X18721714Y76921500D01*
X19364571Y76492929D02*
X19293142Y76457215D01*
X19150285Y76457215D01*
X19078857Y76492929D01*
X19043142Y76564358D01*
X19043142Y76850072D01*
X19078857Y76921500D01*
X19150285Y76957215D01*
X19293142Y76957215D01*
X19364571Y76921500D01*
X19400285Y76850072D01*
X19400285Y76778643D01*
X19043142Y76707215D01*
X19686000Y76492929D02*
X19757428Y76457215D01*
X19900285Y76457215D01*
X19971714Y76492929D01*
X20007428Y76564358D01*
X20007428Y76600072D01*
X19971714Y76671500D01*
X19900285Y76707215D01*
X19793142Y76707215D01*
X19721714Y76742929D01*
X19686000Y76814358D01*
X19686000Y76850072D01*
X19721714Y76921500D01*
X19793142Y76957215D01*
X19900285Y76957215D01*
X19971714Y76921500D01*
X37000857Y77289429D02*
X37572285Y77289429D01*
X37286571Y77003715D02*
X37286571Y77575143D01*
X39643714Y77289429D02*
X40215142Y77289429D01*
D11*
X9154333Y11617929D02*
X8821000Y11617929D01*
X8821000Y11094120D02*
X8821000Y12094120D01*
X9297190Y12094120D01*
X10106714Y11094120D02*
X10106714Y11617929D01*
X10059095Y11713167D01*
X9963857Y11760786D01*
X9773380Y11760786D01*
X9678142Y11713167D01*
X10106714Y11141739D02*
X10011476Y11094120D01*
X9773380Y11094120D01*
X9678142Y11141739D01*
X9630523Y11236977D01*
X9630523Y11332215D01*
X9678142Y11427453D01*
X9773380Y11475072D01*
X10011476Y11475072D01*
X10106714Y11522691D01*
X10582904Y11760786D02*
X10582904Y11094120D01*
X10582904Y11665548D02*
X10630523Y11713167D01*
X10725761Y11760786D01*
X10868619Y11760786D01*
X10963857Y11713167D01*
X11011476Y11617929D01*
X11011476Y11094120D01*
X11440047Y11141739D02*
X11535285Y11094120D01*
X11725761Y11094120D01*
X11821000Y11141739D01*
X11868619Y11236977D01*
X11868619Y11284596D01*
X11821000Y11379834D01*
X11725761Y11427453D01*
X11582904Y11427453D01*
X11487666Y11475072D01*
X11440047Y11570310D01*
X11440047Y11617929D01*
X11487666Y11713167D01*
X11582904Y11760786D01*
X11725761Y11760786D01*
X11821000Y11713167D01*
D10*
X14650285Y41046500D02*
X14650285Y41475072D01*
X15400285Y41260786D02*
X14650285Y41260786D01*
X15328857Y42153643D02*
X15364571Y42117929D01*
X15400285Y42010786D01*
X15400285Y41939358D01*
X15364571Y41832215D01*
X15293142Y41760786D01*
X15221714Y41725072D01*
X15078857Y41689358D01*
X14971714Y41689358D01*
X14828857Y41725072D01*
X14757428Y41760786D01*
X14686000Y41832215D01*
X14650285Y41939358D01*
X14650285Y42010786D01*
X14686000Y42117929D01*
X14721714Y42153643D01*
X15007428Y43046500D02*
X15007428Y43296500D01*
X15400285Y43403643D02*
X15400285Y43046500D01*
X14650285Y43046500D01*
X14650285Y43403643D01*
X14900285Y43725072D02*
X15400285Y43725072D01*
X14971714Y43725072D02*
X14936000Y43760786D01*
X14900285Y43832215D01*
X14900285Y43939358D01*
X14936000Y44010786D01*
X15007428Y44046500D01*
X15400285Y44046500D01*
X15400285Y44725072D02*
X15007428Y44725072D01*
X14936000Y44689358D01*
X14900285Y44617929D01*
X14900285Y44475072D01*
X14936000Y44403643D01*
X15364571Y44725072D02*
X15400285Y44653643D01*
X15400285Y44475072D01*
X15364571Y44403643D01*
X15293142Y44367929D01*
X15221714Y44367929D01*
X15150285Y44403643D01*
X15114571Y44475072D01*
X15114571Y44653643D01*
X15078857Y44725072D01*
X15400285Y45082215D02*
X14650285Y45082215D01*
X14936000Y45082215D02*
X14900285Y45153643D01*
X14900285Y45296500D01*
X14936000Y45367929D01*
X14971714Y45403643D01*
X15043142Y45439358D01*
X15257428Y45439358D01*
X15328857Y45403643D01*
X15364571Y45367929D01*
X15400285Y45296500D01*
X15400285Y45153643D01*
X15364571Y45082215D01*
X15400285Y45867929D02*
X15364571Y45796500D01*
X15293142Y45760786D01*
X14650285Y45760786D01*
X15364571Y46439358D02*
X15400285Y46367929D01*
X15400285Y46225072D01*
X15364571Y46153643D01*
X15293142Y46117929D01*
X15007428Y46117929D01*
X14936000Y46153643D01*
X14900285Y46225072D01*
X14900285Y46367929D01*
X14936000Y46439358D01*
X15007428Y46475072D01*
X15078857Y46475072D01*
X15150285Y46117929D01*
X1925285Y71807215D02*
X1496714Y71807215D01*
X1711000Y71807215D02*
X1711000Y72557215D01*
X1639571Y72450072D01*
X1568142Y72378643D01*
X1496714Y72342929D01*
X2211000Y72485786D02*
X2246714Y72521500D01*
X2318142Y72557215D01*
X2496714Y72557215D01*
X2568142Y72521500D01*
X2603857Y72485786D01*
X2639571Y72414358D01*
X2639571Y72342929D01*
X2603857Y72235786D01*
X2175285Y71807215D01*
X2639571Y71807215D01*
X2853857Y72557215D02*
X3103857Y71807215D01*
X3353857Y72557215D01*
X4175285Y72092929D02*
X4746714Y72092929D01*
X5639571Y72485786D02*
X5675285Y72521500D01*
X5746714Y72557215D01*
X5925285Y72557215D01*
X5996714Y72521500D01*
X6032428Y72485786D01*
X6068142Y72414358D01*
X6068142Y72342929D01*
X6032428Y72235786D01*
X5603857Y71807215D01*
X6068142Y71807215D01*
X6711000Y72307215D02*
X6711000Y71807215D01*
X6532428Y72592929D02*
X6353857Y72057215D01*
X6818142Y72057215D01*
X6996714Y72557215D02*
X7246714Y71807215D01*
X7496714Y72557215D01*
X14221714Y80082215D02*
X14221714Y80510786D01*
X14221714Y80296500D02*
X14971714Y80296500D01*
X14864571Y80367929D01*
X14793142Y80439358D01*
X14757428Y80510786D01*
X14971714Y79403643D02*
X14971714Y79760786D01*
X14614571Y79796500D01*
X14650285Y79760786D01*
X14686000Y79689358D01*
X14686000Y79510786D01*
X14650285Y79439358D01*
X14614571Y79403643D01*
X14543142Y79367929D01*
X14364571Y79367929D01*
X14293142Y79403643D01*
X14257428Y79439358D01*
X14221714Y79510786D01*
X14221714Y79689358D01*
X14257428Y79760786D01*
X14293142Y79796500D01*
X14436000Y79082215D02*
X14436000Y78725072D01*
X14221714Y79153643D02*
X14971714Y78903643D01*
X14221714Y78653643D01*
X14614571Y77582215D02*
X14578857Y77475072D01*
X14543142Y77439358D01*
X14471714Y77403643D01*
X14364571Y77403643D01*
X14293142Y77439358D01*
X14257428Y77475072D01*
X14221714Y77546500D01*
X14221714Y77832215D01*
X14971714Y77832215D01*
X14971714Y77582215D01*
X14936000Y77510786D01*
X14900285Y77475072D01*
X14828857Y77439358D01*
X14757428Y77439358D01*
X14686000Y77475072D01*
X14650285Y77510786D01*
X14614571Y77582215D01*
X14614571Y77832215D01*
X14257428Y76796500D02*
X14221714Y76867929D01*
X14221714Y77010786D01*
X14257428Y77082215D01*
X14328857Y77117929D01*
X14614571Y77117929D01*
X14686000Y77082215D01*
X14721714Y77010786D01*
X14721714Y76867929D01*
X14686000Y76796500D01*
X14614571Y76760786D01*
X14543142Y76760786D01*
X14471714Y77117929D01*
X14221714Y76117929D02*
X14971714Y76117929D01*
X14257428Y76117929D02*
X14221714Y76189358D01*
X14221714Y76332215D01*
X14257428Y76403643D01*
X14293142Y76439358D01*
X14364571Y76475072D01*
X14578857Y76475072D01*
X14650285Y76439358D01*
X14686000Y76403643D01*
X14721714Y76332215D01*
X14721714Y76189358D01*
X14686000Y76117929D01*
X23792714Y75289215D02*
X23364142Y75289215D01*
X23578428Y75289215D02*
X23578428Y76039215D01*
X23507000Y75932072D01*
X23435571Y75860643D01*
X23364142Y75824929D01*
X24257000Y76039215D02*
X24328428Y76039215D01*
X24399857Y76003500D01*
X24435571Y75967786D01*
X24471285Y75896358D01*
X24507000Y75753500D01*
X24507000Y75574929D01*
X24471285Y75432072D01*
X24435571Y75360643D01*
X24399857Y75324929D01*
X24328428Y75289215D01*
X24257000Y75289215D01*
X24185571Y75324929D01*
X24149857Y75360643D01*
X24114142Y75432072D01*
X24078428Y75574929D01*
X24078428Y75753500D01*
X24114142Y75896358D01*
X24149857Y75967786D01*
X24185571Y76003500D01*
X24257000Y76039215D01*
X24792714Y75503500D02*
X25149857Y75503500D01*
X24721285Y75289215D02*
X24971285Y76039215D01*
X25221285Y75289215D01*
X61632428Y1828643D02*
X61632428Y1578643D01*
X62025285Y1578643D02*
X61275285Y1578643D01*
X61275285Y1935786D01*
X62025285Y2542929D02*
X61632428Y2542929D01*
X61561000Y2507215D01*
X61525285Y2435786D01*
X61525285Y2292929D01*
X61561000Y2221500D01*
X61989571Y2542929D02*
X62025285Y2471500D01*
X62025285Y2292929D01*
X61989571Y2221500D01*
X61918142Y2185786D01*
X61846714Y2185786D01*
X61775285Y2221500D01*
X61739571Y2292929D01*
X61739571Y2471500D01*
X61703857Y2542929D01*
X61525285Y2900072D02*
X62025285Y2900072D01*
X61596714Y2900072D02*
X61561000Y2935786D01*
X61525285Y3007215D01*
X61525285Y3114358D01*
X61561000Y3185786D01*
X61632428Y3221500D01*
X62025285Y3221500D01*
X61525285Y4078643D02*
X62025285Y4257215D01*
X61525285Y4435786D01*
X62025285Y4828643D02*
X61989571Y4757215D01*
X61953857Y4721500D01*
X61882428Y4685786D01*
X61668142Y4685786D01*
X61596714Y4721500D01*
X61561000Y4757215D01*
X61525285Y4828643D01*
X61525285Y4935786D01*
X61561000Y5007215D01*
X61596714Y5042929D01*
X61668142Y5078643D01*
X61882428Y5078643D01*
X61953857Y5042929D01*
X61989571Y5007215D01*
X62025285Y4935786D01*
X62025285Y4828643D01*
X62025285Y5507215D02*
X61989571Y5435786D01*
X61918142Y5400072D01*
X61275285Y5400072D01*
X61525285Y5685786D02*
X61525285Y5971500D01*
X61275285Y5792929D02*
X61918142Y5792929D01*
X61989571Y5828643D01*
X62025285Y5900072D01*
X62025285Y5971500D01*
X62025285Y6542929D02*
X61632428Y6542929D01*
X61561000Y6507215D01*
X61525285Y6435786D01*
X61525285Y6292929D01*
X61561000Y6221500D01*
X61989571Y6542929D02*
X62025285Y6471500D01*
X62025285Y6292929D01*
X61989571Y6221500D01*
X61918142Y6185786D01*
X61846714Y6185786D01*
X61775285Y6221500D01*
X61739571Y6292929D01*
X61739571Y6471500D01*
X61703857Y6542929D01*
X61525285Y7221500D02*
X62132428Y7221500D01*
X62203857Y7185786D01*
X62239571Y7150072D01*
X62275285Y7078643D01*
X62275285Y6971500D01*
X62239571Y6900072D01*
X61989571Y7221500D02*
X62025285Y7150072D01*
X62025285Y7007215D01*
X61989571Y6935786D01*
X61953857Y6900072D01*
X61882428Y6864358D01*
X61668142Y6864358D01*
X61596714Y6900072D01*
X61561000Y6935786D01*
X61525285Y7007215D01*
X61525285Y7150072D01*
X61561000Y7221500D01*
X61989571Y7864358D02*
X62025285Y7792929D01*
X62025285Y7650072D01*
X61989571Y7578643D01*
X61918142Y7542929D01*
X61632428Y7542929D01*
X61561000Y7578643D01*
X61525285Y7650072D01*
X61525285Y7792929D01*
X61561000Y7864358D01*
X61632428Y7900072D01*
X61703857Y7900072D01*
X61775285Y7542929D01*
D12*
X10239571Y13860786D02*
X8739571Y13860786D01*
X8739571Y14432215D01*
X8811000Y14575072D01*
X8882428Y14646500D01*
X9025285Y14717929D01*
X9239571Y14717929D01*
X9382428Y14646500D01*
X9453857Y14575072D01*
X9525285Y14432215D01*
X9525285Y13860786D01*
X10239571Y15360786D02*
X9239571Y15360786D01*
X9525285Y15360786D02*
X9382428Y15432215D01*
X9311000Y15503643D01*
X9239571Y15646500D01*
X9239571Y15789358D01*
X9239571Y16289358D02*
X10239571Y16289358D01*
X9382428Y16289358D02*
X9311000Y16360786D01*
X9239571Y16503643D01*
X9239571Y16717929D01*
X9311000Y16860786D01*
X9453857Y16932215D01*
X10239571Y16932215D01*
X9239571Y17432215D02*
X9239571Y18003643D01*
X8739571Y17646500D02*
X10025285Y17646500D01*
X10168142Y17717929D01*
X10239571Y17860786D01*
X10239571Y18003643D01*
X10239571Y18503643D02*
X9239571Y18503643D01*
X9525285Y18503643D02*
X9382428Y18575072D01*
X9311000Y18646500D01*
X9239571Y18789358D01*
X9239571Y18932215D01*
X9453857Y19932215D02*
X9525285Y20146500D01*
X9596714Y20217929D01*
X9739571Y20289358D01*
X9953857Y20289358D01*
X10096714Y20217929D01*
X10168142Y20146500D01*
X10239571Y20003643D01*
X10239571Y19432215D01*
X8739571Y19432215D01*
X8739571Y19932215D01*
X8811000Y20075072D01*
X8882428Y20146500D01*
X9025285Y20217929D01*
X9168142Y20217929D01*
X9311000Y20146500D01*
X9382428Y20075072D01*
X9453857Y19932215D01*
X9453857Y19432215D01*
X10239571Y21146500D02*
X10168142Y21003643D01*
X10096714Y20932215D01*
X9953857Y20860786D01*
X9525285Y20860786D01*
X9382428Y20932215D01*
X9311000Y21003643D01*
X9239571Y21146500D01*
X9239571Y21360786D01*
X9311000Y21503643D01*
X9382428Y21575072D01*
X9525285Y21646500D01*
X9953857Y21646500D01*
X10096714Y21575072D01*
X10168142Y21503643D01*
X10239571Y21360786D01*
X10239571Y21146500D01*
X10239571Y22932215D02*
X9453857Y22932215D01*
X9311000Y22860786D01*
X9239571Y22717929D01*
X9239571Y22432215D01*
X9311000Y22289358D01*
X10168142Y22932215D02*
X10239571Y22789358D01*
X10239571Y22432215D01*
X10168142Y22289358D01*
X10025285Y22217929D01*
X9882428Y22217929D01*
X9739571Y22289358D01*
X9668142Y22432215D01*
X9668142Y22789358D01*
X9596714Y22932215D01*
X10239571Y23646500D02*
X9239571Y23646500D01*
X9525285Y23646500D02*
X9382428Y23717929D01*
X9311000Y23789358D01*
X9239571Y23932215D01*
X9239571Y24075072D01*
X10239571Y25217929D02*
X8739571Y25217929D01*
X10168142Y25217929D02*
X10239571Y25075072D01*
X10239571Y24789358D01*
X10168142Y24646500D01*
X10096714Y24575072D01*
X9953857Y24503643D01*
X9525285Y24503643D01*
X9382428Y24575072D01*
X9311000Y24646500D01*
X9239571Y24789358D01*
X9239571Y25075072D01*
X9311000Y25217929D01*
X8739571Y26860786D02*
X8739571Y27717929D01*
X10239571Y27289358D02*
X8739571Y27289358D01*
X10239571Y28217929D02*
X8739571Y28217929D01*
X9811000Y28717929D01*
X8739571Y29217929D01*
X10239571Y29217929D01*
X10096714Y30789358D02*
X10168142Y30717929D01*
X10239571Y30503643D01*
X10239571Y30360786D01*
X10168142Y30146500D01*
X10025285Y30003643D01*
X9882428Y29932215D01*
X9596714Y29860786D01*
X9382428Y29860786D01*
X9096714Y29932215D01*
X8953857Y30003643D01*
X8811000Y30146500D01*
X8739571Y30360786D01*
X8739571Y30503643D01*
X8811000Y30717929D01*
X8882428Y30789358D01*
X8882428Y31360786D02*
X8811000Y31432215D01*
X8739571Y31575072D01*
X8739571Y31932215D01*
X8811000Y32075072D01*
X8882428Y32146500D01*
X9025285Y32217929D01*
X9168142Y32217929D01*
X9382428Y32146500D01*
X10239571Y31289358D01*
X10239571Y32217929D01*
X8739571Y33503643D02*
X8739571Y33217929D01*
X8811000Y33075072D01*
X8882428Y33003643D01*
X9096714Y32860786D01*
X9382428Y32789358D01*
X9953857Y32789358D01*
X10096714Y32860786D01*
X10168142Y32932215D01*
X10239571Y33075072D01*
X10239571Y33360786D01*
X10168142Y33503643D01*
X10096714Y33575072D01*
X9953857Y33646500D01*
X9596714Y33646500D01*
X9453857Y33575072D01*
X9382428Y33503643D01*
X9311000Y33360786D01*
X9311000Y33075072D01*
X9382428Y32932215D01*
X9453857Y32860786D01*
X9596714Y32789358D01*
X8739571Y34932215D02*
X8739571Y34646500D01*
X8811000Y34503643D01*
X8882428Y34432215D01*
X9096714Y34289358D01*
X9382428Y34217929D01*
X9953857Y34217929D01*
X10096714Y34289358D01*
X10168142Y34360786D01*
X10239571Y34503643D01*
X10239571Y34789358D01*
X10168142Y34932215D01*
X10096714Y35003643D01*
X9953857Y35075072D01*
X9596714Y35075072D01*
X9453857Y35003643D01*
X9382428Y34932215D01*
X9311000Y34789358D01*
X9311000Y34503643D01*
X9382428Y34360786D01*
X9453857Y34289358D01*
X9596714Y34217929D01*
X8739571Y36003643D02*
X8739571Y36146500D01*
X8811000Y36289358D01*
X8882428Y36360786D01*
X9025285Y36432215D01*
X9311000Y36503643D01*
X9668142Y36503643D01*
X9953857Y36432215D01*
X10096714Y36360786D01*
X10168142Y36289358D01*
X10239571Y36146500D01*
X10239571Y36003643D01*
X10168142Y35860786D01*
X10096714Y35789358D01*
X9953857Y35717929D01*
X9668142Y35646500D01*
X9311000Y35646500D01*
X9025285Y35717929D01*
X8882428Y35789358D01*
X8811000Y35860786D01*
X8739571Y36003643D01*
D10*
X12650285Y14278643D02*
X11900285Y14278643D01*
X12650285Y14600072D02*
X12257428Y14600072D01*
X12186000Y14564358D01*
X12150285Y14492929D01*
X12150285Y14385786D01*
X12186000Y14314358D01*
X12221714Y14278643D01*
X12150285Y14850072D02*
X12150285Y15135786D01*
X11900285Y14957215D02*
X12543142Y14957215D01*
X12614571Y14992929D01*
X12650285Y15064358D01*
X12650285Y15135786D01*
X12150285Y15278643D02*
X12150285Y15564358D01*
X11900285Y15385786D02*
X12543142Y15385786D01*
X12614571Y15421500D01*
X12650285Y15492929D01*
X12650285Y15564358D01*
X12150285Y15814358D02*
X12900285Y15814358D01*
X12186000Y15814358D02*
X12150285Y15885786D01*
X12150285Y16028643D01*
X12186000Y16100072D01*
X12221714Y16135786D01*
X12293142Y16171500D01*
X12507428Y16171500D01*
X12578857Y16135786D01*
X12614571Y16100072D01*
X12650285Y16028643D01*
X12650285Y15885786D01*
X12614571Y15814358D01*
X12614571Y16457215D02*
X12650285Y16528643D01*
X12650285Y16671500D01*
X12614571Y16742929D01*
X12543142Y16778643D01*
X12507428Y16778643D01*
X12436000Y16742929D01*
X12400285Y16671500D01*
X12400285Y16564358D01*
X12364571Y16492929D01*
X12293142Y16457215D01*
X12257428Y16457215D01*
X12186000Y16492929D01*
X12150285Y16564358D01*
X12150285Y16671500D01*
X12186000Y16742929D01*
X12578857Y17100072D02*
X12614571Y17135786D01*
X12650285Y17100072D01*
X12614571Y17064358D01*
X12578857Y17100072D01*
X12650285Y17100072D01*
X12186000Y17100072D02*
X12221714Y17135786D01*
X12257428Y17100072D01*
X12221714Y17064358D01*
X12186000Y17100072D01*
X12257428Y17100072D01*
X11864571Y17992929D02*
X12828857Y17350072D01*
X11864571Y18778643D02*
X12828857Y18135786D01*
X12650285Y19028643D02*
X11900285Y19028643D01*
X12186000Y19028643D02*
X12150285Y19100072D01*
X12150285Y19242929D01*
X12186000Y19314358D01*
X12221714Y19350072D01*
X12293142Y19385786D01*
X12507428Y19385786D01*
X12578857Y19350072D01*
X12614571Y19314358D01*
X12650285Y19242929D01*
X12650285Y19100072D01*
X12614571Y19028643D01*
X12650285Y19814358D02*
X12614571Y19742929D01*
X12543142Y19707215D01*
X11900285Y19707215D01*
X12650285Y20207215D02*
X12614571Y20135786D01*
X12578857Y20100072D01*
X12507428Y20064358D01*
X12293142Y20064358D01*
X12221714Y20100072D01*
X12186000Y20135786D01*
X12150285Y20207215D01*
X12150285Y20314358D01*
X12186000Y20385786D01*
X12221714Y20421500D01*
X12293142Y20457215D01*
X12507428Y20457215D01*
X12578857Y20421500D01*
X12614571Y20385786D01*
X12650285Y20314358D01*
X12650285Y20207215D01*
X12150285Y21100072D02*
X12757428Y21100072D01*
X12828857Y21064358D01*
X12864571Y21028643D01*
X12900285Y20957215D01*
X12900285Y20850072D01*
X12864571Y20778643D01*
X12614571Y21100072D02*
X12650285Y21028643D01*
X12650285Y20885786D01*
X12614571Y20814358D01*
X12578857Y20778643D01*
X12507428Y20742929D01*
X12293142Y20742929D01*
X12221714Y20778643D01*
X12186000Y20814358D01*
X12150285Y20885786D01*
X12150285Y21028643D01*
X12186000Y21100072D01*
X12578857Y21457215D02*
X12614571Y21492929D01*
X12650285Y21457215D01*
X12614571Y21421500D01*
X12578857Y21457215D01*
X12650285Y21457215D01*
X12150285Y21814358D02*
X12900285Y21814358D01*
X12186000Y21814358D02*
X12150285Y21885786D01*
X12150285Y22028643D01*
X12186000Y22100072D01*
X12221714Y22135786D01*
X12293142Y22171500D01*
X12507428Y22171500D01*
X12578857Y22135786D01*
X12614571Y22100072D01*
X12650285Y22028643D01*
X12650285Y21885786D01*
X12614571Y21814358D01*
X12614571Y22814358D02*
X12650285Y22742929D01*
X12650285Y22600072D01*
X12614571Y22528643D01*
X12578857Y22492929D01*
X12507428Y22457215D01*
X12293142Y22457215D01*
X12221714Y22492929D01*
X12186000Y22528643D01*
X12150285Y22600072D01*
X12150285Y22742929D01*
X12186000Y22814358D01*
X12650285Y23135786D02*
X11900285Y23135786D01*
X12186000Y23135786D02*
X12150285Y23207215D01*
X12150285Y23350072D01*
X12186000Y23421500D01*
X12221714Y23457215D01*
X12293142Y23492929D01*
X12507428Y23492929D01*
X12578857Y23457215D01*
X12614571Y23421500D01*
X12650285Y23350072D01*
X12650285Y23207215D01*
X12614571Y23135786D01*
X12650285Y23742929D02*
X12150285Y24135786D01*
X12150285Y23742929D02*
X12650285Y24135786D01*
X12150285Y24421500D02*
X12900285Y24421500D01*
X12186000Y24421500D02*
X12150285Y24492929D01*
X12150285Y24635786D01*
X12186000Y24707215D01*
X12221714Y24742929D01*
X12293142Y24778643D01*
X12507428Y24778643D01*
X12578857Y24742929D01*
X12614571Y24707215D01*
X12650285Y24635786D01*
X12650285Y24492929D01*
X12614571Y24421500D01*
X12650285Y25100072D02*
X12150285Y25100072D01*
X12293142Y25100072D02*
X12221714Y25135786D01*
X12186000Y25171500D01*
X12150285Y25242929D01*
X12150285Y25314358D01*
X12150285Y25457215D02*
X12150285Y25742929D01*
X11900285Y25564358D02*
X12543142Y25564358D01*
X12614571Y25600072D01*
X12650285Y25671500D01*
X12650285Y25742929D01*
X12578857Y25992929D02*
X12614571Y26028643D01*
X12650285Y25992929D01*
X12614571Y25957215D01*
X12578857Y25992929D01*
X12650285Y25992929D01*
X12614571Y26671500D02*
X12650285Y26600072D01*
X12650285Y26457215D01*
X12614571Y26385786D01*
X12578857Y26350072D01*
X12507428Y26314358D01*
X12293142Y26314358D01*
X12221714Y26350072D01*
X12186000Y26385786D01*
X12150285Y26457215D01*
X12150285Y26600072D01*
X12186000Y26671500D01*
X12650285Y27100072D02*
X12614571Y27028643D01*
X12578857Y26992929D01*
X12507428Y26957215D01*
X12293142Y26957215D01*
X12221714Y26992929D01*
X12186000Y27028643D01*
X12150285Y27100072D01*
X12150285Y27207215D01*
X12186000Y27278643D01*
X12221714Y27314358D01*
X12293142Y27350072D01*
X12507428Y27350072D01*
X12578857Y27314358D01*
X12614571Y27278643D01*
X12650285Y27207215D01*
X12650285Y27100072D01*
X12650285Y27671500D02*
X12150285Y27671500D01*
X12221714Y27671500D02*
X12186000Y27707215D01*
X12150285Y27778643D01*
X12150285Y27885786D01*
X12186000Y27957215D01*
X12257428Y27992929D01*
X12650285Y27992929D01*
X12257428Y27992929D02*
X12186000Y28028643D01*
X12150285Y28100072D01*
X12150285Y28207215D01*
X12186000Y28278643D01*
X12257428Y28314358D01*
X12650285Y28314358D01*
D11*
X56270523Y45017929D02*
X56603857Y45017929D01*
X56746714Y44494120D02*
X56270523Y44494120D01*
X56270523Y45494120D01*
X56746714Y45494120D01*
X57699095Y44494120D02*
X57127666Y44494120D01*
X57413380Y44494120D02*
X57413380Y45494120D01*
X57318142Y45351262D01*
X57222904Y45256024D01*
X57127666Y45208405D01*
X49670523Y45017929D02*
X50003857Y45017929D01*
X50146714Y44494120D02*
X49670523Y44494120D01*
X49670523Y45494120D01*
X50146714Y45494120D01*
X50527666Y45398881D02*
X50575285Y45446500D01*
X50670523Y45494120D01*
X50908619Y45494120D01*
X51003857Y45446500D01*
X51051476Y45398881D01*
X51099095Y45303643D01*
X51099095Y45208405D01*
X51051476Y45065548D01*
X50480047Y44494120D01*
X51099095Y44494120D01*
X41618142Y40522929D02*
X41284809Y40522929D01*
X41284809Y39999120D02*
X41284809Y40999120D01*
X41761000Y40999120D01*
X42141952Y39999120D02*
X42141952Y40665786D01*
X42141952Y40999120D02*
X42094333Y40951500D01*
X42141952Y40903881D01*
X42189571Y40951500D01*
X42141952Y40999120D01*
X42141952Y40903881D01*
X42761000Y39999120D02*
X42665761Y40046739D01*
X42618142Y40141977D01*
X42618142Y40999120D01*
X43570523Y39999120D02*
X43570523Y40522929D01*
X43522904Y40618167D01*
X43427666Y40665786D01*
X43237190Y40665786D01*
X43141952Y40618167D01*
X43570523Y40046739D02*
X43475285Y39999120D01*
X43237190Y39999120D01*
X43141952Y40046739D01*
X43094333Y40141977D01*
X43094333Y40237215D01*
X43141952Y40332453D01*
X43237190Y40380072D01*
X43475285Y40380072D01*
X43570523Y40427691D01*
X44046714Y39999120D02*
X44046714Y40665786D01*
X44046714Y40570548D02*
X44094333Y40618167D01*
X44189571Y40665786D01*
X44332428Y40665786D01*
X44427666Y40618167D01*
X44475285Y40522929D01*
X44475285Y39999120D01*
X44475285Y40522929D02*
X44522904Y40618167D01*
X44618142Y40665786D01*
X44761000Y40665786D01*
X44856238Y40618167D01*
X44903857Y40522929D01*
X44903857Y39999120D01*
X45761000Y40046739D02*
X45665761Y39999120D01*
X45475285Y39999120D01*
X45380047Y40046739D01*
X45332428Y40141977D01*
X45332428Y40522929D01*
X45380047Y40618167D01*
X45475285Y40665786D01*
X45665761Y40665786D01*
X45761000Y40618167D01*
X45808619Y40522929D01*
X45808619Y40427691D01*
X45332428Y40332453D01*
X46237190Y40665786D02*
X46237190Y39999120D01*
X46237190Y40570548D02*
X46284809Y40618167D01*
X46380047Y40665786D01*
X46522904Y40665786D01*
X46618142Y40618167D01*
X46665761Y40522929D01*
X46665761Y39999120D01*
X46999095Y40665786D02*
X47380047Y40665786D01*
X47141952Y40999120D02*
X47141952Y40141977D01*
X47189571Y40046739D01*
X47284809Y39999120D01*
X47380047Y39999120D01*
X41546714Y38436739D02*
X41451476Y38389120D01*
X41261000Y38389120D01*
X41165761Y38436739D01*
X41118142Y38531977D01*
X41118142Y38912929D01*
X41165761Y39008167D01*
X41261000Y39055786D01*
X41451476Y39055786D01*
X41546714Y39008167D01*
X41594333Y38912929D01*
X41594333Y38817691D01*
X41118142Y38722453D01*
X42022904Y39055786D02*
X42022904Y38389120D01*
X42022904Y38960548D02*
X42070523Y39008167D01*
X42165761Y39055786D01*
X42308619Y39055786D01*
X42403857Y39008167D01*
X42451476Y38912929D01*
X42451476Y38389120D01*
X43356238Y38389120D02*
X43356238Y39389120D01*
X43356238Y38436739D02*
X43261000Y38389120D01*
X43070523Y38389120D01*
X42975285Y38436739D01*
X42927666Y38484358D01*
X42880047Y38579596D01*
X42880047Y38865310D01*
X42927666Y38960548D01*
X42975285Y39008167D01*
X43070523Y39055786D01*
X43261000Y39055786D01*
X43356238Y39008167D01*
X43784809Y38436739D02*
X43880047Y38389120D01*
X44070523Y38389120D01*
X44165761Y38436739D01*
X44213380Y38531977D01*
X44213380Y38579596D01*
X44165761Y38674834D01*
X44070523Y38722453D01*
X43927666Y38722453D01*
X43832428Y38770072D01*
X43784809Y38865310D01*
X43784809Y38912929D01*
X43832428Y39008167D01*
X43927666Y39055786D01*
X44070523Y39055786D01*
X44165761Y39008167D01*
X44499095Y39055786D02*
X44880047Y39055786D01*
X44641952Y39389120D02*
X44641952Y38531977D01*
X44689571Y38436739D01*
X44784809Y38389120D01*
X44880047Y38389120D01*
X45356238Y38389120D02*
X45261000Y38436739D01*
X45213380Y38484358D01*
X45165761Y38579596D01*
X45165761Y38865310D01*
X45213380Y38960548D01*
X45261000Y39008167D01*
X45356238Y39055786D01*
X45499095Y39055786D01*
X45594333Y39008167D01*
X45641952Y38960548D01*
X45689571Y38865310D01*
X45689571Y38579596D01*
X45641952Y38484358D01*
X45594333Y38436739D01*
X45499095Y38389120D01*
X45356238Y38389120D01*
X46118142Y39055786D02*
X46118142Y38055786D01*
X46118142Y39008167D02*
X46213380Y39055786D01*
X46403857Y39055786D01*
X46499095Y39008167D01*
X46546714Y38960548D01*
X46594333Y38865310D01*
X46594333Y38579596D01*
X46546714Y38484358D01*
X46499095Y38436739D01*
X46403857Y38389120D01*
X46213380Y38389120D01*
X46118142Y38436739D01*
X46975285Y38436739D02*
X47070523Y38389120D01*
X47261000Y38389120D01*
X47356238Y38436739D01*
X47403857Y38531977D01*
X47403857Y38579596D01*
X47356238Y38674834D01*
X47261000Y38722453D01*
X47118142Y38722453D01*
X47022904Y38770072D01*
X46975285Y38865310D01*
X46975285Y38912929D01*
X47022904Y39008167D01*
X47118142Y39055786D01*
X47261000Y39055786D01*
X47356238Y39008167D01*
D10*
X15210285Y27198358D02*
X15210285Y27626929D01*
X15960285Y27412643D02*
X15210285Y27412643D01*
X15960285Y27876929D02*
X15210285Y27876929D01*
X15960285Y28198358D02*
X15567428Y28198358D01*
X15496000Y28162643D01*
X15460285Y28091215D01*
X15460285Y27984072D01*
X15496000Y27912643D01*
X15531714Y27876929D01*
X15924571Y28841215D02*
X15960285Y28769786D01*
X15960285Y28626929D01*
X15924571Y28555500D01*
X15853142Y28519786D01*
X15567428Y28519786D01*
X15496000Y28555500D01*
X15460285Y28626929D01*
X15460285Y28769786D01*
X15496000Y28841215D01*
X15567428Y28876929D01*
X15638857Y28876929D01*
X15710285Y28519786D01*
X15960285Y29198358D02*
X15460285Y29198358D01*
X15603142Y29198358D02*
X15531714Y29234072D01*
X15496000Y29269786D01*
X15460285Y29341215D01*
X15460285Y29412643D01*
X15960285Y29662643D02*
X15460285Y29662643D01*
X15531714Y29662643D02*
X15496000Y29698358D01*
X15460285Y29769786D01*
X15460285Y29876929D01*
X15496000Y29948358D01*
X15567428Y29984072D01*
X15960285Y29984072D01*
X15567428Y29984072D02*
X15496000Y30019786D01*
X15460285Y30091215D01*
X15460285Y30198358D01*
X15496000Y30269786D01*
X15567428Y30305500D01*
X15960285Y30305500D01*
X15960285Y30769786D02*
X15924571Y30698358D01*
X15888857Y30662643D01*
X15817428Y30626929D01*
X15603142Y30626929D01*
X15531714Y30662643D01*
X15496000Y30698358D01*
X15460285Y30769786D01*
X15460285Y30876929D01*
X15496000Y30948358D01*
X15531714Y30984072D01*
X15603142Y31019786D01*
X15817428Y31019786D01*
X15888857Y30984072D01*
X15924571Y30948358D01*
X15960285Y30876929D01*
X15960285Y30769786D01*
X15924571Y31662643D02*
X15960285Y31591215D01*
X15960285Y31448358D01*
X15924571Y31376929D01*
X15888857Y31341215D01*
X15817428Y31305500D01*
X15603142Y31305500D01*
X15531714Y31341215D01*
X15496000Y31376929D01*
X15460285Y31448358D01*
X15460285Y31591215D01*
X15496000Y31662643D01*
X15960285Y32091215D02*
X15924571Y32019786D01*
X15888857Y31984072D01*
X15817428Y31948358D01*
X15603142Y31948358D01*
X15531714Y31984072D01*
X15496000Y32019786D01*
X15460285Y32091215D01*
X15460285Y32198358D01*
X15496000Y32269786D01*
X15531714Y32305500D01*
X15603142Y32341215D01*
X15817428Y32341215D01*
X15888857Y32305500D01*
X15924571Y32269786D01*
X15960285Y32198358D01*
X15960285Y32091215D01*
X15460285Y32984072D02*
X15960285Y32984072D01*
X15460285Y32662643D02*
X15853142Y32662643D01*
X15924571Y32698358D01*
X15960285Y32769786D01*
X15960285Y32876929D01*
X15924571Y32948358D01*
X15888857Y32984072D01*
X15460285Y33341215D02*
X16210285Y33341215D01*
X15496000Y33341215D02*
X15460285Y33412643D01*
X15460285Y33555500D01*
X15496000Y33626929D01*
X15531714Y33662643D01*
X15603142Y33698358D01*
X15817428Y33698358D01*
X15888857Y33662643D01*
X15924571Y33626929D01*
X15960285Y33555500D01*
X15960285Y33412643D01*
X15924571Y33341215D01*
X15960285Y34126929D02*
X15924571Y34055500D01*
X15853142Y34019786D01*
X15210285Y34019786D01*
X15924571Y34698358D02*
X15960285Y34626929D01*
X15960285Y34484072D01*
X15924571Y34412643D01*
X15853142Y34376929D01*
X15567428Y34376929D01*
X15496000Y34412643D01*
X15460285Y34484072D01*
X15460285Y34626929D01*
X15496000Y34698358D01*
X15567428Y34734072D01*
X15638857Y34734072D01*
X15710285Y34376929D01*
X15924571Y35019786D02*
X15960285Y35091215D01*
X15960285Y35234072D01*
X15924571Y35305500D01*
X15853142Y35341215D01*
X15817428Y35341215D01*
X15746000Y35305500D01*
X15710285Y35234072D01*
X15710285Y35126929D01*
X15674571Y35055500D01*
X15603142Y35019786D01*
X15567428Y35019786D01*
X15496000Y35055500D01*
X15460285Y35126929D01*
X15460285Y35234072D01*
X15496000Y35305500D01*
X38861000Y35557215D02*
X38861000Y35378643D01*
X38682428Y35450072D02*
X38861000Y35378643D01*
X39039571Y35450072D01*
X38753857Y35235786D02*
X38861000Y35378643D01*
X38968142Y35235786D01*
X42000285Y30410786D02*
X42000285Y30053643D01*
X41250285Y30053643D01*
X41250285Y30553643D02*
X42000285Y30803643D01*
X41250285Y31053643D01*
X41928857Y31732215D02*
X41964571Y31696500D01*
X42000285Y31589358D01*
X42000285Y31517929D01*
X41964571Y31410786D01*
X41893142Y31339358D01*
X41821714Y31303643D01*
X41678857Y31267929D01*
X41571714Y31267929D01*
X41428857Y31303643D01*
X41357428Y31339358D01*
X41286000Y31410786D01*
X41250285Y31517929D01*
X41250285Y31589358D01*
X41286000Y31696500D01*
X41321714Y31732215D01*
X42000285Y32446500D02*
X42000285Y32017929D01*
X42000285Y32232215D02*
X41250285Y32232215D01*
X41357428Y32160786D01*
X41428857Y32089358D01*
X41464571Y32017929D01*
X41321714Y32732215D02*
X41286000Y32767929D01*
X41250285Y32839358D01*
X41250285Y33017929D01*
X41286000Y33089358D01*
X41321714Y33125072D01*
X41393142Y33160786D01*
X41464571Y33160786D01*
X41571714Y33125072D01*
X42000285Y32696500D01*
X42000285Y33160786D01*
X41250285Y33839358D02*
X41250285Y33482215D01*
X41607428Y33446500D01*
X41571714Y33482215D01*
X41536000Y33553643D01*
X41536000Y33732215D01*
X41571714Y33803643D01*
X41607428Y33839358D01*
X41678857Y33875072D01*
X41857428Y33875072D01*
X41928857Y33839358D01*
X41964571Y33803643D01*
X42000285Y33732215D01*
X42000285Y33553643D01*
X41964571Y33482215D01*
X41928857Y33446500D01*
X51261000Y35457215D02*
X51261000Y35278643D01*
X51082428Y35350072D02*
X51261000Y35278643D01*
X51439571Y35350072D01*
X51153857Y35135786D02*
X51261000Y35278643D01*
X51368142Y35135786D01*
X54400285Y31017929D02*
X54900285Y31017929D01*
X54114571Y30839358D02*
X54650285Y30660786D01*
X54650285Y31125072D01*
X54150285Y31553643D02*
X54150285Y31625072D01*
X54186000Y31696500D01*
X54221714Y31732215D01*
X54293142Y31767929D01*
X54436000Y31803643D01*
X54614571Y31803643D01*
X54757428Y31767929D01*
X54828857Y31732215D01*
X54864571Y31696500D01*
X54900285Y31625072D01*
X54900285Y31553643D01*
X54864571Y31482215D01*
X54828857Y31446500D01*
X54757428Y31410786D01*
X54614571Y31375072D01*
X54436000Y31375072D01*
X54293142Y31410786D01*
X54221714Y31446500D01*
X54186000Y31482215D01*
X54150285Y31553643D01*
X54150285Y32053643D02*
X54150285Y32553643D01*
X54900285Y32232215D01*
X54471714Y32946500D02*
X54436000Y32875072D01*
X54400285Y32839358D01*
X54328857Y32803643D01*
X54293142Y32803643D01*
X54221714Y32839358D01*
X54186000Y32875072D01*
X54150285Y32946500D01*
X54150285Y33089358D01*
X54186000Y33160786D01*
X54221714Y33196500D01*
X54293142Y33232215D01*
X54328857Y33232215D01*
X54400285Y33196500D01*
X54436000Y33160786D01*
X54471714Y33089358D01*
X54471714Y32946500D01*
X54507428Y32875072D01*
X54543142Y32839358D01*
X54614571Y32803643D01*
X54757428Y32803643D01*
X54828857Y32839358D01*
X54864571Y32875072D01*
X54900285Y32946500D01*
X54900285Y33089358D01*
X54864571Y33160786D01*
X54828857Y33196500D01*
X54757428Y33232215D01*
X54614571Y33232215D01*
X54543142Y33196500D01*
X54507428Y33160786D01*
X54471714Y33089358D01*
X30861000Y48657215D02*
X30861000Y48478643D01*
X30682428Y48550072D02*
X30861000Y48478643D01*
X31039571Y48550072D01*
X30753857Y48335786D02*
X30861000Y48478643D01*
X30968142Y48335786D01*
X34300285Y43642929D02*
X33550285Y43642929D01*
X33907428Y43642929D02*
X33907428Y44071500D01*
X34300285Y44071500D02*
X33550285Y44071500D01*
X34228857Y44857215D02*
X34264571Y44821500D01*
X34300285Y44714358D01*
X34300285Y44642929D01*
X34264571Y44535786D01*
X34193142Y44464358D01*
X34121714Y44428643D01*
X33978857Y44392929D01*
X33871714Y44392929D01*
X33728857Y44428643D01*
X33657428Y44464358D01*
X33586000Y44535786D01*
X33550285Y44642929D01*
X33550285Y44714358D01*
X33586000Y44821500D01*
X33621714Y44857215D01*
X33550285Y45321500D02*
X33550285Y45392929D01*
X33586000Y45464358D01*
X33621714Y45500072D01*
X33693142Y45535786D01*
X33836000Y45571500D01*
X34014571Y45571500D01*
X34157428Y45535786D01*
X34228857Y45500072D01*
X34264571Y45464358D01*
X34300285Y45392929D01*
X34300285Y45321500D01*
X34264571Y45250072D01*
X34228857Y45214358D01*
X34157428Y45178643D01*
X34014571Y45142929D01*
X33836000Y45142929D01*
X33693142Y45178643D01*
X33621714Y45214358D01*
X33586000Y45250072D01*
X33550285Y45321500D01*
X33621714Y45857215D02*
X33586000Y45892929D01*
X33550285Y45964358D01*
X33550285Y46142929D01*
X33586000Y46214358D01*
X33621714Y46250072D01*
X33693142Y46285786D01*
X33764571Y46285786D01*
X33871714Y46250072D01*
X34300285Y45821500D01*
X34300285Y46285786D01*
X68421714Y15860965D02*
X68421714Y15253822D01*
X68457428Y15182393D01*
X68493142Y15146679D01*
X68564571Y15110965D01*
X68707428Y15110965D01*
X68778857Y15146679D01*
X68814571Y15182393D01*
X68850285Y15253822D01*
X68850285Y15860965D01*
X69171714Y15146679D02*
X69243142Y15110965D01*
X69386000Y15110965D01*
X69457428Y15146679D01*
X69493142Y15218108D01*
X69493142Y15253822D01*
X69457428Y15325250D01*
X69386000Y15360965D01*
X69278857Y15360965D01*
X69207428Y15396679D01*
X69171714Y15468108D01*
X69171714Y15503822D01*
X69207428Y15575250D01*
X69278857Y15610965D01*
X69386000Y15610965D01*
X69457428Y15575250D01*
X70100285Y15146679D02*
X70028857Y15110965D01*
X69886000Y15110965D01*
X69814571Y15146679D01*
X69778857Y15218108D01*
X69778857Y15503822D01*
X69814571Y15575250D01*
X69886000Y15610965D01*
X70028857Y15610965D01*
X70100285Y15575250D01*
X70136000Y15503822D01*
X70136000Y15432393D01*
X69778857Y15360965D01*
X68153857Y13903465D02*
X68153857Y14653465D01*
X68403857Y14117750D01*
X68653857Y14653465D01*
X68653857Y13903465D01*
X69332428Y13903465D02*
X69332428Y14296322D01*
X69296714Y14367750D01*
X69225285Y14403465D01*
X69082428Y14403465D01*
X69011000Y14367750D01*
X69332428Y13939179D02*
X69261000Y13903465D01*
X69082428Y13903465D01*
X69011000Y13939179D01*
X68975285Y14010608D01*
X68975285Y14082036D01*
X69011000Y14153465D01*
X69082428Y14189179D01*
X69261000Y14189179D01*
X69332428Y14224893D01*
X69689571Y13903465D02*
X69689571Y14403465D01*
X69689571Y14653465D02*
X69653857Y14617750D01*
X69689571Y14582036D01*
X69725285Y14617750D01*
X69689571Y14653465D01*
X69689571Y14582036D01*
X70046714Y14403465D02*
X70046714Y13903465D01*
X70046714Y14332036D02*
X70082428Y14367750D01*
X70153857Y14403465D01*
X70261000Y14403465D01*
X70332428Y14367750D01*
X70368142Y14296322D01*
X70368142Y13903465D01*
D11*
X49266952Y63892929D02*
X49600285Y63892929D01*
X49743142Y63369120D02*
X49266952Y63369120D01*
X49266952Y64369120D01*
X49743142Y64369120D01*
X50171714Y64035786D02*
X50171714Y63369120D01*
X50171714Y63940548D02*
X50219333Y63988167D01*
X50314571Y64035786D01*
X50457428Y64035786D01*
X50552666Y63988167D01*
X50600285Y63892929D01*
X50600285Y63369120D01*
X51505047Y63369120D02*
X51505047Y64369120D01*
X51505047Y63416739D02*
X51409809Y63369120D01*
X51219333Y63369120D01*
X51124095Y63416739D01*
X51076476Y63464358D01*
X51028857Y63559596D01*
X51028857Y63845310D01*
X51076476Y63940548D01*
X51124095Y63988167D01*
X51219333Y64035786D01*
X51409809Y64035786D01*
X51505047Y63988167D01*
X51933619Y63416739D02*
X52028857Y63369120D01*
X52219333Y63369120D01*
X52314571Y63416739D01*
X52362190Y63511977D01*
X52362190Y63559596D01*
X52314571Y63654834D01*
X52219333Y63702453D01*
X52076476Y63702453D01*
X51981238Y63750072D01*
X51933619Y63845310D01*
X51933619Y63892929D01*
X51981238Y63988167D01*
X52076476Y64035786D01*
X52219333Y64035786D01*
X52314571Y63988167D01*
X52647904Y64035786D02*
X53028857Y64035786D01*
X52790761Y64369120D02*
X52790761Y63511977D01*
X52838380Y63416739D01*
X52933619Y63369120D01*
X53028857Y63369120D01*
X53505047Y63369120D02*
X53409809Y63416739D01*
X53362190Y63464358D01*
X53314571Y63559596D01*
X53314571Y63845310D01*
X53362190Y63940548D01*
X53409809Y63988167D01*
X53505047Y64035786D01*
X53647904Y64035786D01*
X53743142Y63988167D01*
X53790761Y63940548D01*
X53838380Y63845310D01*
X53838380Y63559596D01*
X53790761Y63464358D01*
X53743142Y63416739D01*
X53647904Y63369120D01*
X53505047Y63369120D01*
X54266952Y64035786D02*
X54266952Y63035786D01*
X54266952Y63988167D02*
X54362190Y64035786D01*
X54552666Y64035786D01*
X54647904Y63988167D01*
X54695523Y63940548D01*
X54743142Y63845310D01*
X54743142Y63559596D01*
X54695523Y63464358D01*
X54647904Y63416739D01*
X54552666Y63369120D01*
X54362190Y63369120D01*
X54266952Y63416739D01*
X55124095Y63416739D02*
X55219333Y63369120D01*
X55409809Y63369120D01*
X55505047Y63416739D01*
X55552666Y63511977D01*
X55552666Y63559596D01*
X55505047Y63654834D01*
X55409809Y63702453D01*
X55266952Y63702453D01*
X55171714Y63750072D01*
X55124095Y63845310D01*
X55124095Y63892929D01*
X55171714Y63988167D01*
X55266952Y64035786D01*
X55409809Y64035786D01*
X55505047Y63988167D01*
X41219380Y47564824D02*
X40219380Y47564824D01*
X40933666Y47898158D01*
X40219380Y48231491D01*
X41219380Y48231491D01*
X41219380Y49136253D02*
X40695571Y49136253D01*
X40600333Y49088634D01*
X40552714Y48993396D01*
X40552714Y48802920D01*
X40600333Y48707681D01*
X41171761Y49136253D02*
X41219380Y49041015D01*
X41219380Y48802920D01*
X41171761Y48707681D01*
X41076523Y48660062D01*
X40981285Y48660062D01*
X40886047Y48707681D01*
X40838428Y48802920D01*
X40838428Y49041015D01*
X40790809Y49136253D01*
X41219380Y49517205D02*
X40552714Y50041015D01*
X40552714Y49517205D02*
X41219380Y50041015D01*
X41219380Y57789891D02*
X40219380Y57789891D01*
X40933666Y58123224D01*
X40219380Y58456558D01*
X41219380Y58456558D01*
X41219380Y58932748D02*
X40552714Y58932748D01*
X40219380Y58932748D02*
X40267000Y58885129D01*
X40314619Y58932748D01*
X40267000Y58980367D01*
X40219380Y58932748D01*
X40314619Y58932748D01*
X40552714Y59408939D02*
X41219380Y59408939D01*
X40647952Y59408939D02*
X40600333Y59456558D01*
X40552714Y59551796D01*
X40552714Y59694653D01*
X40600333Y59789891D01*
X40695571Y59837510D01*
X41219380Y59837510D01*
X43164166Y61952120D02*
X43830833Y61952120D01*
X43164166Y60952120D01*
X43830833Y60952120D01*
X50361000Y61470310D02*
X50361000Y60994120D01*
X50027666Y61994120D02*
X50361000Y61470310D01*
X50694333Y61994120D01*
X56943666Y62015620D02*
X57610333Y61015620D01*
X57610333Y62015620D02*
X56943666Y61015620D01*
D10*
X16780142Y50385215D02*
X17280142Y50385215D01*
X16780142Y49635215D01*
X17280142Y49635215D01*
X18137285Y49635215D02*
X18137285Y50385215D01*
X18423000Y50385215D01*
X18494428Y50349500D01*
X18530142Y50313786D01*
X18565857Y50242358D01*
X18565857Y50135215D01*
X18530142Y50063786D01*
X18494428Y50028072D01*
X18423000Y49992358D01*
X18137285Y49992358D01*
X18887285Y49635215D02*
X18887285Y50135215D01*
X18887285Y49992358D02*
X18923000Y50063786D01*
X18958714Y50099500D01*
X19030142Y50135215D01*
X19101571Y50135215D01*
X19458714Y49635215D02*
X19387285Y49670929D01*
X19351571Y49706643D01*
X19315857Y49778072D01*
X19315857Y49992358D01*
X19351571Y50063786D01*
X19387285Y50099500D01*
X19458714Y50135215D01*
X19565857Y50135215D01*
X19637285Y50099500D01*
X19673000Y50063786D01*
X19708714Y49992358D01*
X19708714Y49778072D01*
X19673000Y49706643D01*
X19637285Y49670929D01*
X19565857Y49635215D01*
X19458714Y49635215D01*
X20030142Y49635215D02*
X20030142Y50385215D01*
X20030142Y50099500D02*
X20101571Y50135215D01*
X20244428Y50135215D01*
X20315857Y50099500D01*
X20351571Y50063786D01*
X20387285Y49992358D01*
X20387285Y49778072D01*
X20351571Y49706643D01*
X20315857Y49670929D01*
X20244428Y49635215D01*
X20101571Y49635215D01*
X20030142Y49670929D01*
X20994428Y49670929D02*
X20923000Y49635215D01*
X20780142Y49635215D01*
X20708714Y49670929D01*
X20673000Y49742358D01*
X20673000Y50028072D01*
X20708714Y50099500D01*
X20780142Y50135215D01*
X20923000Y50135215D01*
X20994428Y50099500D01*
X21030142Y50028072D01*
X21030142Y49956643D01*
X20673000Y49885215D01*
D13*
X2246714Y78482929D02*
X2246714Y79982929D01*
X2746714Y78911500D01*
X3246714Y79982929D01*
X3246714Y78482929D01*
X4603857Y78482929D02*
X4603857Y79268643D01*
X4532428Y79411500D01*
X4389571Y79482929D01*
X4103857Y79482929D01*
X3961000Y79411500D01*
X4603857Y78554358D02*
X4461000Y78482929D01*
X4103857Y78482929D01*
X3961000Y78554358D01*
X3889571Y78697215D01*
X3889571Y78840072D01*
X3961000Y78982929D01*
X4103857Y79054358D01*
X4461000Y79054358D01*
X4603857Y79125786D01*
X5318142Y78482929D02*
X5318142Y79482929D01*
X5318142Y79982929D02*
X5246714Y79911500D01*
X5318142Y79840072D01*
X5389571Y79911500D01*
X5318142Y79982929D01*
X5318142Y79840072D01*
X6032428Y79482929D02*
X6032428Y78482929D01*
X6032428Y79340072D02*
X6103857Y79411500D01*
X6246714Y79482929D01*
X6461000Y79482929D01*
X6603857Y79411500D01*
X6675285Y79268643D01*
X6675285Y78482929D01*
X1996714Y76067929D02*
X1996714Y77567929D01*
X2711000Y77067929D02*
X2711000Y76067929D01*
X2711000Y76925072D02*
X2782428Y76996500D01*
X2925285Y77067929D01*
X3139571Y77067929D01*
X3282428Y76996500D01*
X3353857Y76853643D01*
X3353857Y76067929D01*
X4068142Y77067929D02*
X4068142Y75567929D01*
X4068142Y76996500D02*
X4211000Y77067929D01*
X4496714Y77067929D01*
X4639571Y76996500D01*
X4711000Y76925072D01*
X4782428Y76782215D01*
X4782428Y76353643D01*
X4711000Y76210786D01*
X4639571Y76139358D01*
X4496714Y76067929D01*
X4211000Y76067929D01*
X4068142Y76139358D01*
X6068142Y77067929D02*
X6068142Y76067929D01*
X5425285Y77067929D02*
X5425285Y76282215D01*
X5496714Y76139358D01*
X5639571Y76067929D01*
X5853857Y76067929D01*
X5996714Y76139358D01*
X6068142Y76210786D01*
X6568142Y77067929D02*
X7139571Y77067929D01*
X6782428Y77567929D02*
X6782428Y76282215D01*
X6853857Y76139358D01*
X6996714Y76067929D01*
X7139571Y76067929D01*
X461000Y75152929D02*
X961000Y73652929D01*
X1461000Y75152929D01*
X2175285Y73652929D02*
X2032428Y73724358D01*
X1961000Y73795786D01*
X1889571Y73938643D01*
X1889571Y74367215D01*
X1961000Y74510072D01*
X2032428Y74581500D01*
X2175285Y74652929D01*
X2389571Y74652929D01*
X2532428Y74581500D01*
X2603857Y74510072D01*
X2675285Y74367215D01*
X2675285Y73938643D01*
X2603857Y73795786D01*
X2532428Y73724358D01*
X2389571Y73652929D01*
X2175285Y73652929D01*
X3532428Y73652929D02*
X3389571Y73724358D01*
X3318142Y73867215D01*
X3318142Y75152929D01*
X3889571Y74652929D02*
X4461000Y74652929D01*
X4103857Y75152929D02*
X4103857Y73867215D01*
X4175285Y73724358D01*
X4318142Y73652929D01*
X4461000Y73652929D01*
X5603857Y73652929D02*
X5603857Y74438643D01*
X5532428Y74581500D01*
X5389571Y74652929D01*
X5103857Y74652929D01*
X4961000Y74581500D01*
X5603857Y73724358D02*
X5461000Y73652929D01*
X5103857Y73652929D01*
X4961000Y73724358D01*
X4889571Y73867215D01*
X4889571Y74010072D01*
X4961000Y74152929D01*
X5103857Y74224358D01*
X5461000Y74224358D01*
X5603857Y74295786D01*
X6961000Y74652929D02*
X6961000Y73438643D01*
X6889571Y73295786D01*
X6818142Y73224358D01*
X6675285Y73152929D01*
X6461000Y73152929D01*
X6318142Y73224358D01*
X6961000Y73724358D02*
X6818142Y73652929D01*
X6532428Y73652929D01*
X6389571Y73724358D01*
X6318142Y73795786D01*
X6246714Y73938643D01*
X6246714Y74367215D01*
X6318142Y74510072D01*
X6389571Y74581500D01*
X6532428Y74652929D01*
X6818142Y74652929D01*
X6961000Y74581500D01*
X8246714Y73724358D02*
X8103857Y73652929D01*
X7818142Y73652929D01*
X7675285Y73724358D01*
X7603857Y73867215D01*
X7603857Y74438643D01*
X7675285Y74581500D01*
X7818142Y74652929D01*
X8103857Y74652929D01*
X8246714Y74581500D01*
X8318142Y74438643D01*
X8318142Y74295786D01*
X7603857Y74152929D01*
D10*
X7850285Y92007215D02*
X7850285Y91650072D01*
X8207428Y91614358D01*
X8171714Y91650072D01*
X8136000Y91721500D01*
X8136000Y91900072D01*
X8171714Y91971500D01*
X8207428Y92007215D01*
X8278857Y92042929D01*
X8457428Y92042929D01*
X8528857Y92007215D01*
X8564571Y91971500D01*
X8600285Y91900072D01*
X8600285Y91721500D01*
X8564571Y91650072D01*
X8528857Y91614358D01*
X7850285Y92257215D02*
X8600285Y92507215D01*
X7850285Y92757215D01*
X8600285Y93578643D02*
X8100285Y93578643D01*
X7850285Y93578643D02*
X7886000Y93542929D01*
X7921714Y93578643D01*
X7886000Y93614358D01*
X7850285Y93578643D01*
X7921714Y93578643D01*
X8100285Y93935786D02*
X8600285Y93935786D01*
X8171714Y93935786D02*
X8136000Y93971500D01*
X8100285Y94042929D01*
X8100285Y94150072D01*
X8136000Y94221500D01*
X8207428Y94257215D01*
X8600285Y94257215D01*
X8100285Y94614358D02*
X8850285Y94614358D01*
X8136000Y94614358D02*
X8100285Y94685786D01*
X8100285Y94828643D01*
X8136000Y94900072D01*
X8171714Y94935786D01*
X8243142Y94971500D01*
X8457428Y94971500D01*
X8528857Y94935786D01*
X8564571Y94900072D01*
X8600285Y94828643D01*
X8600285Y94685786D01*
X8564571Y94614358D01*
X8100285Y95614358D02*
X8600285Y95614358D01*
X8100285Y95292929D02*
X8493142Y95292929D01*
X8564571Y95328643D01*
X8600285Y95400072D01*
X8600285Y95507215D01*
X8564571Y95578643D01*
X8528857Y95614358D01*
X8100285Y95864358D02*
X8100285Y96150072D01*
X7850285Y95971500D02*
X8493142Y95971500D01*
X8564571Y96007215D01*
X8600285Y96078643D01*
X8600285Y96150072D01*
D11*
X30869261Y76954120D02*
X30869261Y77954120D01*
X30869261Y77477929D02*
X31440690Y77477929D01*
X31440690Y76954120D02*
X31440690Y77954120D01*
X32297833Y77001739D02*
X32202595Y76954120D01*
X32012119Y76954120D01*
X31916880Y77001739D01*
X31869261Y77096977D01*
X31869261Y77477929D01*
X31916880Y77573167D01*
X32012119Y77620786D01*
X32202595Y77620786D01*
X32297833Y77573167D01*
X32345452Y77477929D01*
X32345452Y77382691D01*
X31869261Y77287453D01*
X33202595Y76954120D02*
X33202595Y77477929D01*
X33154976Y77573167D01*
X33059738Y77620786D01*
X32869261Y77620786D01*
X32774023Y77573167D01*
X33202595Y77001739D02*
X33107357Y76954120D01*
X32869261Y76954120D01*
X32774023Y77001739D01*
X32726404Y77096977D01*
X32726404Y77192215D01*
X32774023Y77287453D01*
X32869261Y77335072D01*
X33107357Y77335072D01*
X33202595Y77382691D01*
X33535928Y77620786D02*
X33916880Y77620786D01*
X33678785Y77954120D02*
X33678785Y77096977D01*
X33726404Y77001739D01*
X33821642Y76954120D01*
X33916880Y76954120D01*
X34631166Y77001739D02*
X34535928Y76954120D01*
X34345452Y76954120D01*
X34250214Y77001739D01*
X34202595Y77096977D01*
X34202595Y77477929D01*
X34250214Y77573167D01*
X34345452Y77620786D01*
X34535928Y77620786D01*
X34631166Y77573167D01*
X34678785Y77477929D01*
X34678785Y77382691D01*
X34202595Y77287453D01*
X35107357Y76954120D02*
X35107357Y77620786D01*
X35107357Y77430310D02*
X35154976Y77525548D01*
X35202595Y77573167D01*
X35297833Y77620786D01*
X35393071Y77620786D01*
X35678785Y77001739D02*
X35774023Y76954120D01*
X35964500Y76954120D01*
X36059738Y77001739D01*
X36107357Y77096977D01*
X36107357Y77144596D01*
X36059738Y77239834D01*
X35964500Y77287453D01*
X35821642Y77287453D01*
X35726404Y77335072D01*
X35678785Y77430310D01*
X35678785Y77477929D01*
X35726404Y77573167D01*
X35821642Y77620786D01*
X35964500Y77620786D01*
X36059738Y77573167D01*
X41570523Y78917929D02*
X41903857Y78917929D01*
X42046714Y78394120D02*
X41570523Y78394120D01*
X41570523Y79394120D01*
X42046714Y79394120D01*
X42427666Y79298881D02*
X42475285Y79346500D01*
X42570523Y79394120D01*
X42808619Y79394120D01*
X42903857Y79346500D01*
X42951476Y79298881D01*
X42999095Y79203643D01*
X42999095Y79108405D01*
X42951476Y78965548D01*
X42380047Y78394120D01*
X42999095Y78394120D01*
X34070523Y79017929D02*
X34403857Y79017929D01*
X34546714Y78494120D02*
X34070523Y78494120D01*
X34070523Y79494120D01*
X34546714Y79494120D01*
X35499095Y78494120D02*
X34927666Y78494120D01*
X35213380Y78494120D02*
X35213380Y79494120D01*
X35118142Y79351262D01*
X35022904Y79256024D01*
X34927666Y79208405D01*
X25480047Y78017929D02*
X25622904Y77970310D01*
X25670523Y77922691D01*
X25718142Y77827453D01*
X25718142Y77684596D01*
X25670523Y77589358D01*
X25622904Y77541739D01*
X25527666Y77494120D01*
X25146714Y77494120D01*
X25146714Y78494120D01*
X25480047Y78494120D01*
X25575285Y78446500D01*
X25622904Y78398881D01*
X25670523Y78303643D01*
X25670523Y78208405D01*
X25622904Y78113167D01*
X25575285Y78065548D01*
X25480047Y78017929D01*
X25146714Y78017929D01*
X26146714Y78017929D02*
X26480047Y78017929D01*
X26622904Y77494120D02*
X26146714Y77494120D01*
X26146714Y78494120D01*
X26622904Y78494120D01*
X27051476Y77494120D02*
X27051476Y78494120D01*
X27289571Y78494120D01*
X27432428Y78446500D01*
X27527666Y78351262D01*
X27575285Y78256024D01*
X27622904Y78065548D01*
X27622904Y77922691D01*
X27575285Y77732215D01*
X27527666Y77636977D01*
X27432428Y77541739D01*
X27289571Y77494120D01*
X27051476Y77494120D01*
D10*
X11150285Y49896500D02*
X11757428Y49896500D01*
X11828857Y49932215D01*
X11864571Y49967929D01*
X11900285Y50039358D01*
X11900285Y50182215D01*
X11864571Y50253643D01*
X11828857Y50289358D01*
X11757428Y50325072D01*
X11150285Y50325072D01*
X11864571Y50646500D02*
X11900285Y50717929D01*
X11900285Y50860786D01*
X11864571Y50932215D01*
X11793142Y50967929D01*
X11757428Y50967929D01*
X11686000Y50932215D01*
X11650285Y50860786D01*
X11650285Y50753643D01*
X11614571Y50682215D01*
X11543142Y50646500D01*
X11507428Y50646500D01*
X11436000Y50682215D01*
X11400285Y50753643D01*
X11400285Y50860786D01*
X11436000Y50932215D01*
X11864571Y51575072D02*
X11900285Y51503643D01*
X11900285Y51360786D01*
X11864571Y51289358D01*
X11793142Y51253643D01*
X11507428Y51253643D01*
X11436000Y51289358D01*
X11400285Y51360786D01*
X11400285Y51503643D01*
X11436000Y51575072D01*
X11507428Y51610786D01*
X11578857Y51610786D01*
X11650285Y51253643D01*
X11150285Y52503643D02*
X11757428Y52503643D01*
X11828857Y52539358D01*
X11864571Y52575072D01*
X11900285Y52646500D01*
X11900285Y52789358D01*
X11864571Y52860786D01*
X11828857Y52896500D01*
X11757428Y52932215D01*
X11150285Y52932215D01*
X11864571Y53253643D02*
X11900285Y53360786D01*
X11900285Y53539358D01*
X11864571Y53610786D01*
X11828857Y53646500D01*
X11757428Y53682215D01*
X11686000Y53682215D01*
X11614571Y53646500D01*
X11578857Y53610786D01*
X11543142Y53539358D01*
X11507428Y53396500D01*
X11471714Y53325072D01*
X11436000Y53289358D01*
X11364571Y53253643D01*
X11293142Y53253643D01*
X11221714Y53289358D01*
X11186000Y53325072D01*
X11150285Y53396500D01*
X11150285Y53575072D01*
X11186000Y53682215D01*
X11507428Y54253643D02*
X11543142Y54360786D01*
X11578857Y54396500D01*
X11650285Y54432215D01*
X11757428Y54432215D01*
X11828857Y54396500D01*
X11864571Y54360786D01*
X11900285Y54289358D01*
X11900285Y54003643D01*
X11150285Y54003643D01*
X11150285Y54253643D01*
X11186000Y54325072D01*
X11221714Y54360786D01*
X11293142Y54396500D01*
X11364571Y54396500D01*
X11436000Y54360786D01*
X11471714Y54325072D01*
X11507428Y54253643D01*
X11507428Y54003643D01*
X13246714Y11321500D02*
X13603857Y11321500D01*
X13175285Y11107215D02*
X13425285Y11857215D01*
X13675285Y11107215D01*
X14032428Y11107215D02*
X13961000Y11142929D01*
X13925285Y11214358D01*
X13925285Y11857215D01*
X14246714Y11607215D02*
X14389571Y11107215D01*
X14532428Y11464358D01*
X14675285Y11107215D01*
X14818142Y11607215D01*
X15425285Y11107215D02*
X15425285Y11500072D01*
X15389571Y11571500D01*
X15318142Y11607215D01*
X15175285Y11607215D01*
X15103857Y11571500D01*
X15425285Y11142929D02*
X15353857Y11107215D01*
X15175285Y11107215D01*
X15103857Y11142929D01*
X15068142Y11214358D01*
X15068142Y11285786D01*
X15103857Y11357215D01*
X15175285Y11392929D01*
X15353857Y11392929D01*
X15425285Y11428643D01*
X15711000Y11607215D02*
X15889571Y11107215D01*
X16068142Y11607215D02*
X15889571Y11107215D01*
X15818142Y10928643D01*
X15782428Y10892929D01*
X15711000Y10857215D01*
X16318142Y11142929D02*
X16389571Y11107215D01*
X16532428Y11107215D01*
X16603857Y11142929D01*
X16639571Y11214358D01*
X16639571Y11250072D01*
X16603857Y11321500D01*
X16532428Y11357215D01*
X16425285Y11357215D01*
X16353857Y11392929D01*
X16318142Y11464358D01*
X16318142Y11500072D01*
X16353857Y11571500D01*
X16425285Y11607215D01*
X16532428Y11607215D01*
X16603857Y11571500D01*
X17675285Y11857215D02*
X17818142Y11857215D01*
X17889571Y11821500D01*
X17961000Y11750072D01*
X17996714Y11607215D01*
X17996714Y11357215D01*
X17961000Y11214358D01*
X17889571Y11142929D01*
X17818142Y11107215D01*
X17675285Y11107215D01*
X17603857Y11142929D01*
X17532428Y11214358D01*
X17496714Y11357215D01*
X17496714Y11607215D01*
X17532428Y11750072D01*
X17603857Y11821500D01*
X17675285Y11857215D01*
X18318142Y11607215D02*
X18318142Y11107215D01*
X18318142Y11535786D02*
X18353857Y11571500D01*
X18425285Y11607215D01*
X18532428Y11607215D01*
X18603857Y11571500D01*
X18639571Y11500072D01*
X18639571Y11107215D01*
X50196714Y14900072D02*
X50446714Y14900072D01*
X50553857Y14507215D02*
X50196714Y14507215D01*
X50196714Y15257215D01*
X50553857Y15257215D01*
X50839571Y15185786D02*
X50875285Y15221500D01*
X50946714Y15257215D01*
X51125285Y15257215D01*
X51196714Y15221500D01*
X51232428Y15185786D01*
X51268142Y15114358D01*
X51268142Y15042929D01*
X51232428Y14935786D01*
X50803857Y14507215D01*
X51268142Y14507215D01*
X52161000Y14507215D02*
X52161000Y15257215D01*
X52446714Y15257215D01*
X52518142Y15221500D01*
X52553857Y15185786D01*
X52589571Y15114358D01*
X52589571Y15007215D01*
X52553857Y14935786D01*
X52518142Y14900072D01*
X52446714Y14864358D01*
X52161000Y14864358D01*
X53232428Y14507215D02*
X53232428Y14900072D01*
X53196714Y14971500D01*
X53125285Y15007215D01*
X52982428Y15007215D01*
X52911000Y14971500D01*
X53232428Y14542929D02*
X53161000Y14507215D01*
X52982428Y14507215D01*
X52911000Y14542929D01*
X52875285Y14614358D01*
X52875285Y14685786D01*
X52911000Y14757215D01*
X52982428Y14792929D01*
X53161000Y14792929D01*
X53232428Y14828643D01*
X53589571Y14507215D02*
X53589571Y15007215D01*
X53589571Y14864358D02*
X53625285Y14935786D01*
X53661000Y14971500D01*
X53732428Y15007215D01*
X53803857Y15007215D01*
X53946714Y15007215D02*
X54232428Y15007215D01*
X54053857Y15257215D02*
X54053857Y14614358D01*
X54089571Y14542929D01*
X54161000Y14507215D01*
X54232428Y14507215D01*
X42596714Y14900072D02*
X42846714Y14900072D01*
X42953857Y14507215D02*
X42596714Y14507215D01*
X42596714Y15257215D01*
X42953857Y15257215D01*
X43668142Y14507215D02*
X43239571Y14507215D01*
X43453857Y14507215D02*
X43453857Y15257215D01*
X43382428Y15150072D01*
X43311000Y15078643D01*
X43239571Y15042929D01*
X44561000Y14507215D02*
X44561000Y15257215D01*
X44846714Y15257215D01*
X44918142Y15221500D01*
X44953857Y15185786D01*
X44989571Y15114358D01*
X44989571Y15007215D01*
X44953857Y14935786D01*
X44918142Y14900072D01*
X44846714Y14864358D01*
X44561000Y14864358D01*
X45632428Y14507215D02*
X45632428Y14900072D01*
X45596714Y14971500D01*
X45525285Y15007215D01*
X45382428Y15007215D01*
X45311000Y14971500D01*
X45632428Y14542929D02*
X45561000Y14507215D01*
X45382428Y14507215D01*
X45311000Y14542929D01*
X45275285Y14614358D01*
X45275285Y14685786D01*
X45311000Y14757215D01*
X45382428Y14792929D01*
X45561000Y14792929D01*
X45632428Y14828643D01*
X45989571Y14507215D02*
X45989571Y15007215D01*
X45989571Y14864358D02*
X46025285Y14935786D01*
X46061000Y14971500D01*
X46132428Y15007215D01*
X46203857Y15007215D01*
X46346714Y15007215D02*
X46632428Y15007215D01*
X46453857Y15257215D02*
X46453857Y14614358D01*
X46489571Y14542929D01*
X46561000Y14507215D01*
X46632428Y14507215D01*
X34607428Y14700072D02*
X34857428Y14700072D01*
X34964571Y14307215D02*
X34607428Y14307215D01*
X34607428Y15057215D01*
X34964571Y15057215D01*
X35678857Y14307215D02*
X35250285Y14307215D01*
X35464571Y14307215D02*
X35464571Y15057215D01*
X35393142Y14950072D01*
X35321714Y14878643D01*
X35250285Y14842929D01*
X37000285Y14378643D02*
X36964571Y14342929D01*
X36857428Y14307215D01*
X36786000Y14307215D01*
X36678857Y14342929D01*
X36607428Y14414358D01*
X36571714Y14485786D01*
X36536000Y14628643D01*
X36536000Y14735786D01*
X36571714Y14878643D01*
X36607428Y14950072D01*
X36678857Y15021500D01*
X36786000Y15057215D01*
X36857428Y15057215D01*
X36964571Y15021500D01*
X37000285Y14985786D01*
X37428857Y14307215D02*
X37357428Y14342929D01*
X37321714Y14378643D01*
X37286000Y14450072D01*
X37286000Y14664358D01*
X37321714Y14735786D01*
X37357428Y14771500D01*
X37428857Y14807215D01*
X37536000Y14807215D01*
X37607428Y14771500D01*
X37643142Y14735786D01*
X37678857Y14664358D01*
X37678857Y14450072D01*
X37643142Y14378643D01*
X37607428Y14342929D01*
X37536000Y14307215D01*
X37428857Y14307215D01*
X38107428Y14307215D02*
X38036000Y14342929D01*
X38000285Y14378643D01*
X37964571Y14450072D01*
X37964571Y14664358D01*
X38000285Y14735786D01*
X38036000Y14771500D01*
X38107428Y14807215D01*
X38214571Y14807215D01*
X38286000Y14771500D01*
X38321714Y14735786D01*
X38357428Y14664358D01*
X38357428Y14450072D01*
X38321714Y14378643D01*
X38286000Y14342929D01*
X38214571Y14307215D01*
X38107428Y14307215D01*
X38786000Y14307215D02*
X38714571Y14342929D01*
X38678857Y14414358D01*
X38678857Y15057215D01*
X26107428Y14800072D02*
X26357428Y14800072D01*
X26464571Y14407215D02*
X26107428Y14407215D01*
X26107428Y15157215D01*
X26464571Y15157215D01*
X26750285Y15085786D02*
X26786000Y15121500D01*
X26857428Y15157215D01*
X27036000Y15157215D01*
X27107428Y15121500D01*
X27143142Y15085786D01*
X27178857Y15014358D01*
X27178857Y14942929D01*
X27143142Y14835786D01*
X26714571Y14407215D01*
X27178857Y14407215D01*
X28500285Y14478643D02*
X28464571Y14442929D01*
X28357428Y14407215D01*
X28286000Y14407215D01*
X28178857Y14442929D01*
X28107428Y14514358D01*
X28071714Y14585786D01*
X28036000Y14728643D01*
X28036000Y14835786D01*
X28071714Y14978643D01*
X28107428Y15050072D01*
X28178857Y15121500D01*
X28286000Y15157215D01*
X28357428Y15157215D01*
X28464571Y15121500D01*
X28500285Y15085786D01*
X28928857Y14407215D02*
X28857428Y14442929D01*
X28821714Y14478643D01*
X28786000Y14550072D01*
X28786000Y14764358D01*
X28821714Y14835786D01*
X28857428Y14871500D01*
X28928857Y14907215D01*
X29036000Y14907215D01*
X29107428Y14871500D01*
X29143142Y14835786D01*
X29178857Y14764358D01*
X29178857Y14550072D01*
X29143142Y14478643D01*
X29107428Y14442929D01*
X29036000Y14407215D01*
X28928857Y14407215D01*
X29607428Y14407215D02*
X29536000Y14442929D01*
X29500285Y14478643D01*
X29464571Y14550072D01*
X29464571Y14764358D01*
X29500285Y14835786D01*
X29536000Y14871500D01*
X29607428Y14907215D01*
X29714571Y14907215D01*
X29786000Y14871500D01*
X29821714Y14835786D01*
X29857428Y14764358D01*
X29857428Y14550072D01*
X29821714Y14478643D01*
X29786000Y14442929D01*
X29714571Y14407215D01*
X29607428Y14407215D01*
X30286000Y14407215D02*
X30214571Y14442929D01*
X30178857Y14514358D01*
X30178857Y15157215D01*
D11*
X43122904Y26094120D02*
X43694333Y26094120D01*
X43408619Y25094120D02*
X43408619Y26094120D01*
X44027666Y25094120D02*
X44027666Y26094120D01*
X44456238Y25094120D02*
X44456238Y25617929D01*
X44408619Y25713167D01*
X44313380Y25760786D01*
X44170523Y25760786D01*
X44075285Y25713167D01*
X44027666Y25665548D01*
X45313380Y25141739D02*
X45218142Y25094120D01*
X45027666Y25094120D01*
X44932428Y25141739D01*
X44884809Y25236977D01*
X44884809Y25617929D01*
X44932428Y25713167D01*
X45027666Y25760786D01*
X45218142Y25760786D01*
X45313380Y25713167D01*
X45361000Y25617929D01*
X45361000Y25522691D01*
X44884809Y25427453D01*
X45789571Y25094120D02*
X45789571Y25760786D01*
X45789571Y25570310D02*
X45837190Y25665548D01*
X45884809Y25713167D01*
X45980047Y25760786D01*
X46075285Y25760786D01*
X46408619Y25094120D02*
X46408619Y25760786D01*
X46408619Y25665548D02*
X46456238Y25713167D01*
X46551476Y25760786D01*
X46694333Y25760786D01*
X46789571Y25713167D01*
X46837190Y25617929D01*
X46837190Y25094120D01*
X46837190Y25617929D02*
X46884809Y25713167D01*
X46980047Y25760786D01*
X47122904Y25760786D01*
X47218142Y25713167D01*
X47265761Y25617929D01*
X47265761Y25094120D01*
X47741952Y25094120D02*
X47741952Y25760786D01*
X47741952Y26094120D02*
X47694333Y26046500D01*
X47741952Y25998881D01*
X47789571Y26046500D01*
X47741952Y26094120D01*
X47741952Y25998881D01*
X48170523Y25141739D02*
X48265761Y25094120D01*
X48456238Y25094120D01*
X48551476Y25141739D01*
X48599095Y25236977D01*
X48599095Y25284596D01*
X48551476Y25379834D01*
X48456238Y25427453D01*
X48313380Y25427453D01*
X48218142Y25475072D01*
X48170523Y25570310D01*
X48170523Y25617929D01*
X48218142Y25713167D01*
X48313380Y25760786D01*
X48456238Y25760786D01*
X48551476Y25713167D01*
X48884809Y25760786D02*
X49265761Y25760786D01*
X49027666Y26094120D02*
X49027666Y25236977D01*
X49075285Y25141739D01*
X49170523Y25094120D01*
X49265761Y25094120D01*
X49741952Y25094120D02*
X49646714Y25141739D01*
X49599095Y25189358D01*
X49551476Y25284596D01*
X49551476Y25570310D01*
X49599095Y25665548D01*
X49646714Y25713167D01*
X49741952Y25760786D01*
X49884809Y25760786D01*
X49980047Y25713167D01*
X50027666Y25665548D01*
X50075285Y25570310D01*
X50075285Y25284596D01*
X50027666Y25189358D01*
X49980047Y25141739D01*
X49884809Y25094120D01*
X49741952Y25094120D01*
X50503857Y25094120D02*
X50503857Y25760786D01*
X50503857Y25570310D02*
X50551476Y25665548D01*
X50599095Y25713167D01*
X50694333Y25760786D01*
X50789571Y25760786D01*
X51075285Y25141739D02*
X51170523Y25094120D01*
X51361000Y25094120D01*
X51456238Y25141739D01*
X51503857Y25236977D01*
X51503857Y25284596D01*
X51456238Y25379834D01*
X51361000Y25427453D01*
X51218142Y25427453D01*
X51122904Y25475072D01*
X51075285Y25570310D01*
X51075285Y25617929D01*
X51122904Y25713167D01*
X51218142Y25760786D01*
X51361000Y25760786D01*
X51456238Y25713167D01*
X59689571Y24656024D02*
X59689571Y24989358D01*
X60213380Y25132215D02*
X60213380Y24656024D01*
X59213380Y24656024D01*
X59213380Y25132215D01*
X60213380Y26084596D02*
X60213380Y25513167D01*
X60213380Y25798881D02*
X59213380Y25798881D01*
X59356238Y25703643D01*
X59451476Y25608405D01*
X59499095Y25513167D01*
X59689571Y18056024D02*
X59689571Y18389358D01*
X60213380Y18532215D02*
X60213380Y18056024D01*
X59213380Y18056024D01*
X59213380Y18532215D01*
X59308619Y18913167D02*
X59261000Y18960786D01*
X59213380Y19056024D01*
X59213380Y19294120D01*
X59261000Y19389358D01*
X59308619Y19436977D01*
X59403857Y19484596D01*
X59499095Y19484596D01*
X59641952Y19436977D01*
X60213380Y18865548D01*
X60213380Y19484596D01*
X43189571Y17565548D02*
X43237190Y17708405D01*
X43284809Y17756024D01*
X43380047Y17803643D01*
X43522904Y17803643D01*
X43618142Y17756024D01*
X43665761Y17708405D01*
X43713380Y17613167D01*
X43713380Y17232215D01*
X42713380Y17232215D01*
X42713380Y17565548D01*
X42761000Y17660786D01*
X42808619Y17708405D01*
X42903857Y17756024D01*
X42999095Y17756024D01*
X43094333Y17708405D01*
X43141952Y17660786D01*
X43189571Y17565548D01*
X43189571Y17232215D01*
X43189571Y18232215D02*
X43189571Y18565548D01*
X43713380Y18708405D02*
X43713380Y18232215D01*
X42713380Y18232215D01*
X42713380Y18708405D01*
X43713380Y19136977D02*
X42713380Y19136977D01*
X42713380Y19375072D01*
X42761000Y19517929D01*
X42856238Y19613167D01*
X42951476Y19660786D01*
X43141952Y19708405D01*
X43284809Y19708405D01*
X43475285Y19660786D01*
X43570523Y19613167D01*
X43665761Y19517929D01*
X43713380Y19375072D01*
X43713380Y19136977D01*
D10*
X47493142Y92082215D02*
X47743142Y91332215D01*
X47993142Y92082215D01*
X48243142Y91332215D02*
X48243142Y91832215D01*
X48243142Y92082215D02*
X48207428Y92046500D01*
X48243142Y92010786D01*
X48278857Y92046500D01*
X48243142Y92082215D01*
X48243142Y92010786D01*
X48600285Y91832215D02*
X48600285Y91332215D01*
X48600285Y91760786D02*
X48636000Y91796500D01*
X48707428Y91832215D01*
X48814571Y91832215D01*
X48886000Y91796500D01*
X48921714Y91725072D01*
X48921714Y91332215D01*
X20318142Y20082215D02*
X19961000Y20082215D01*
X19925285Y19725072D01*
X19961000Y19760786D01*
X20032428Y19796500D01*
X20211000Y19796500D01*
X20282428Y19760786D01*
X20318142Y19725072D01*
X20353857Y19653643D01*
X20353857Y19475072D01*
X20318142Y19403643D01*
X20282428Y19367929D01*
X20211000Y19332215D01*
X20032428Y19332215D01*
X19961000Y19367929D01*
X19925285Y19403643D01*
X20568142Y20082215D02*
X20818142Y19332215D01*
X21068142Y20082215D01*
X46593142Y65157215D02*
X46843142Y64407215D01*
X47093142Y65157215D01*
X47343142Y64407215D02*
X47343142Y64907215D01*
X47343142Y65157215D02*
X47307428Y65121500D01*
X47343142Y65085786D01*
X47378857Y65121500D01*
X47343142Y65157215D01*
X47343142Y65085786D01*
X47700285Y64907215D02*
X47700285Y64407215D01*
X47700285Y64835786D02*
X47736000Y64871500D01*
X47807428Y64907215D01*
X47914571Y64907215D01*
X47986000Y64871500D01*
X48021714Y64800072D01*
X48021714Y64407215D01*
X17138142Y56397215D02*
X16781000Y56397215D01*
X16745285Y56040072D01*
X16781000Y56075786D01*
X16852428Y56111500D01*
X17031000Y56111500D01*
X17102428Y56075786D01*
X17138142Y56040072D01*
X17173857Y55968643D01*
X17173857Y55790072D01*
X17138142Y55718643D01*
X17102428Y55682929D01*
X17031000Y55647215D01*
X16852428Y55647215D01*
X16781000Y55682929D01*
X16745285Y55718643D01*
X17388142Y56397215D02*
X17638142Y55647215D01*
X17888142Y56397215D01*
X45066542Y67096872D02*
X44495114Y67096872D01*
X44780828Y67382586D02*
X44780828Y66811158D01*
X42423685Y67096872D02*
X41852257Y67096872D01*
X20978142Y56700072D02*
X20406714Y56700072D01*
X20692428Y56985786D02*
X20692428Y56414358D01*
X18335285Y56700072D02*
X17763857Y56700072D01*
X39745142Y56608215D02*
X39995142Y55858215D01*
X40245142Y56608215D01*
X40495142Y55858215D02*
X40495142Y56358215D01*
X40495142Y56608215D02*
X40459428Y56572500D01*
X40495142Y56536786D01*
X40530857Y56572500D01*
X40495142Y56608215D01*
X40495142Y56536786D01*
X40852285Y56358215D02*
X40852285Y55858215D01*
X40852285Y56286786D02*
X40888000Y56322500D01*
X40959428Y56358215D01*
X41066571Y56358215D01*
X41138000Y56322500D01*
X41173714Y56251072D01*
X41173714Y55858215D01*
X40043142Y54907215D02*
X39686000Y54907215D01*
X39650285Y54550072D01*
X39686000Y54585786D01*
X39757428Y54621500D01*
X39936000Y54621500D01*
X40007428Y54585786D01*
X40043142Y54550072D01*
X40078857Y54478643D01*
X40078857Y54300072D01*
X40043142Y54228643D01*
X40007428Y54192929D01*
X39936000Y54157215D01*
X39757428Y54157215D01*
X39686000Y54192929D01*
X39650285Y54228643D01*
X40293142Y54907215D02*
X40543142Y54157215D01*
X40793142Y54907215D01*
X39303857Y53282215D02*
X39768142Y53282215D01*
X39518142Y52996500D01*
X39625285Y52996500D01*
X39696714Y52960786D01*
X39732428Y52925072D01*
X39768142Y52853643D01*
X39768142Y52675072D01*
X39732428Y52603643D01*
X39696714Y52567929D01*
X39625285Y52532215D01*
X39411000Y52532215D01*
X39339571Y52567929D01*
X39303857Y52603643D01*
X40089571Y52603643D02*
X40125285Y52567929D01*
X40089571Y52532215D01*
X40053857Y52567929D01*
X40089571Y52603643D01*
X40089571Y52532215D01*
X40375285Y53282215D02*
X40839571Y53282215D01*
X40589571Y52996500D01*
X40696714Y52996500D01*
X40768142Y52960786D01*
X40803857Y52925072D01*
X40839571Y52853643D01*
X40839571Y52675072D01*
X40803857Y52603643D01*
X40768142Y52567929D01*
X40696714Y52532215D01*
X40482428Y52532215D01*
X40411000Y52567929D01*
X40375285Y52603643D01*
X41053857Y53282215D02*
X41303857Y52532215D01*
X41553857Y53282215D01*
X24400285Y42100072D02*
X24400285Y42528643D01*
X25150285Y42314358D02*
X24400285Y42314358D01*
X25078857Y43207215D02*
X25114571Y43171500D01*
X25150285Y43064358D01*
X25150285Y42992929D01*
X25114571Y42885786D01*
X25043142Y42814358D01*
X24971714Y42778643D01*
X24828857Y42742929D01*
X24721714Y42742929D01*
X24578857Y42778643D01*
X24507428Y42814358D01*
X24436000Y42885786D01*
X24400285Y42992929D01*
X24400285Y43064358D01*
X24436000Y43171500D01*
X24471714Y43207215D01*
X24757428Y45492929D02*
X24757428Y45242929D01*
X25150285Y45242929D02*
X24400285Y45242929D01*
X24400285Y45600072D01*
X25150285Y46207215D02*
X24757428Y46207215D01*
X24686000Y46171500D01*
X24650285Y46100072D01*
X24650285Y45957215D01*
X24686000Y45885786D01*
X25114571Y46207215D02*
X25150285Y46135786D01*
X25150285Y45957215D01*
X25114571Y45885786D01*
X25043142Y45850072D01*
X24971714Y45850072D01*
X24900285Y45885786D01*
X24864571Y45957215D01*
X24864571Y46135786D01*
X24828857Y46207215D01*
X24650285Y46564358D02*
X25150285Y46564358D01*
X24721714Y46564358D02*
X24686000Y46600072D01*
X24650285Y46671500D01*
X24650285Y46778643D01*
X24686000Y46850072D01*
X24757428Y46885786D01*
X25150285Y46885786D01*
X26293142Y40457215D02*
X25936000Y40457215D01*
X25936000Y41207215D01*
X26971714Y40528643D02*
X26936000Y40492929D01*
X26828857Y40457215D01*
X26757428Y40457215D01*
X26650285Y40492929D01*
X26578857Y40564358D01*
X26543142Y40635786D01*
X26507428Y40778643D01*
X26507428Y40885786D01*
X26543142Y41028643D01*
X26578857Y41100072D01*
X26650285Y41171500D01*
X26757428Y41207215D01*
X26828857Y41207215D01*
X26936000Y41171500D01*
X26971714Y41135786D01*
X27293142Y40457215D02*
X27293142Y41207215D01*
X27471714Y41207215D01*
X27578857Y41171500D01*
X27650285Y41100072D01*
X27686000Y41028643D01*
X27721714Y40885786D01*
X27721714Y40778643D01*
X27686000Y40635786D01*
X27650285Y40564358D01*
X27578857Y40492929D01*
X27471714Y40457215D01*
X27293142Y40457215D01*
X17489571Y23357215D02*
X17918142Y23357215D01*
X17703857Y22607215D02*
X17703857Y23357215D01*
X18596714Y22678643D02*
X18561000Y22642929D01*
X18453857Y22607215D01*
X18382428Y22607215D01*
X18275285Y22642929D01*
X18203857Y22714358D01*
X18168142Y22785786D01*
X18132428Y22928643D01*
X18132428Y23035786D01*
X18168142Y23178643D01*
X18203857Y23250072D01*
X18275285Y23321500D01*
X18382428Y23357215D01*
X18453857Y23357215D01*
X18561000Y23321500D01*
X18596714Y23285786D01*
X18882428Y23285786D02*
X18918142Y23321500D01*
X18989571Y23357215D01*
X19168142Y23357215D01*
X19239571Y23321500D01*
X19275285Y23285786D01*
X19311000Y23214358D01*
X19311000Y23142929D01*
X19275285Y23035786D01*
X18846714Y22607215D01*
X19311000Y22607215D01*
X21264571Y23357215D02*
X21693142Y23357215D01*
X21478857Y22607215D02*
X21478857Y23357215D01*
X22371714Y22678643D02*
X22336000Y22642929D01*
X22228857Y22607215D01*
X22157428Y22607215D01*
X22050285Y22642929D01*
X21978857Y22714358D01*
X21943142Y22785786D01*
X21907428Y22928643D01*
X21907428Y23035786D01*
X21943142Y23178643D01*
X21978857Y23250072D01*
X22050285Y23321500D01*
X22157428Y23357215D01*
X22228857Y23357215D01*
X22336000Y23321500D01*
X22371714Y23285786D01*
X23086000Y22607215D02*
X22657428Y22607215D01*
X22871714Y22607215D02*
X22871714Y23357215D01*
X22800285Y23250072D01*
X22728857Y23178643D01*
X22657428Y23142929D01*
X17582428Y9592929D02*
X18153857Y9592929D01*
X17868142Y9307215D02*
X17868142Y9878643D01*
X21368142Y9592929D02*
X21939571Y9592929D01*
X9582428Y9592929D02*
X10153857Y9592929D01*
X9868142Y9307215D02*
X9868142Y9878643D01*
X13368142Y9592929D02*
X13939571Y9592929D01*
X56843142Y6364715D02*
X56486000Y6364715D01*
X56450285Y6007572D01*
X56486000Y6043286D01*
X56557428Y6079000D01*
X56736000Y6079000D01*
X56807428Y6043286D01*
X56843142Y6007572D01*
X56878857Y5936143D01*
X56878857Y5757572D01*
X56843142Y5686143D01*
X56807428Y5650429D01*
X56736000Y5614715D01*
X56557428Y5614715D01*
X56486000Y5650429D01*
X56450285Y5686143D01*
X57093142Y6364715D02*
X57343142Y5614715D01*
X57593142Y6364715D01*
X56218142Y3949715D02*
X56468142Y3199715D01*
X56718142Y3949715D01*
X56968142Y3199715D02*
X56968142Y3699715D01*
X56968142Y3949715D02*
X56932428Y3914000D01*
X56968142Y3878286D01*
X57003857Y3914000D01*
X56968142Y3949715D01*
X56968142Y3878286D01*
X57325285Y3699715D02*
X57325285Y3199715D01*
X57325285Y3628286D02*
X57361000Y3664000D01*
X57432428Y3699715D01*
X57539571Y3699715D01*
X57611000Y3664000D01*
X57646714Y3592572D01*
X57646714Y3199715D01*
X50539571Y93950072D02*
X50539571Y94521500D01*
X50825285Y94235786D02*
X50253857Y94235786D01*
X50539571Y96021500D02*
X50539571Y96592929D01*
X16564571Y19442929D02*
X17136000Y19442929D01*
X16850285Y19157215D02*
X16850285Y19728643D01*
X18636000Y19442929D02*
X19207428Y19442929D01*
D12*
X96425011Y8054720D02*
X97925011Y9054720D01*
X96425011Y9054720D02*
X97925011Y8054720D01*
X97137065Y29715460D02*
X97851351Y29715460D01*
X96351351Y29215460D02*
X97137065Y29715460D01*
X96351351Y30215460D01*
X97085957Y50483106D02*
X97085957Y50983106D01*
X97871671Y51197392D02*
X97871671Y50483106D01*
X96371671Y50483106D01*
X96371671Y51197392D01*
X97871671Y52625963D02*
X97871671Y51768820D01*
X97871671Y52197392D02*
X96371671Y52197392D01*
X96585957Y52054535D01*
X96728814Y51911678D01*
X96800242Y51768820D01*
X96953857Y71010786D02*
X96953857Y71510786D01*
X97739571Y71725072D02*
X97739571Y71010786D01*
X96239571Y71010786D01*
X96239571Y71725072D01*
X96382428Y72296500D02*
X96311000Y72367929D01*
X96239571Y72510786D01*
X96239571Y72867929D01*
X96311000Y73010786D01*
X96382428Y73082215D01*
X96525285Y73153643D01*
X96668142Y73153643D01*
X96882428Y73082215D01*
X97739571Y72225072D01*
X97739571Y73153643D01*
X67461000Y91225072D02*
X66461000Y91225072D01*
X67461000Y92725072D01*
X66461000Y92725072D01*
D10*
X10914571Y89360786D02*
X10914571Y89932215D01*
X11200285Y89646500D02*
X10628857Y89646500D01*
X15246714Y89700072D02*
X14675285Y89700072D01*
D13*
X13189571Y66139358D02*
X14332428Y66139358D01*
X13761000Y65567929D02*
X13761000Y66710786D01*
X13768142Y59375072D02*
X13768142Y60517929D01*
D14*
X26402200Y69709900D02*
X26402200Y74739900D01*
X16672200Y69709900D02*
X16672200Y74724900D01*
X26402200Y69709900D02*
X16672200Y69709900D01*
X26402200Y74739900D02*
X16672200Y74739900D01*
D15*
X30379000Y70090100D02*
X38779000Y70090100D01*
X30379000Y63590100D02*
X38779000Y63590100D01*
X30379000Y63590100D02*
X30379000Y70090100D01*
D14*
X8971000Y71021500D02*
X14001000Y71021500D01*
X8971000Y80751500D02*
X13986000Y80751500D01*
X8971000Y71021500D02*
X8971000Y80751500D01*
X14001000Y71021500D02*
X14001000Y80751500D01*
X27902800Y64477500D02*
X27902800Y69507500D01*
X18172800Y64477500D02*
X18172800Y69492500D01*
X27902800Y64477500D02*
X18172800Y64477500D01*
X27902800Y69507500D02*
X18172800Y69507500D01*
D15*
X25977682Y95181256D02*
G75*
G02X26661000Y95326500I683318J-1534756D01*
G01*
X25125574Y92963458D02*
G75*
G02X25126000Y94330500I1535426J683042D01*
G01*
X27344042Y92111074D02*
G75*
G02X25977000Y92111500I-683042J1535426D01*
G01*
X28196426Y94329542D02*
G75*
G02X28196000Y92962500I-1535426J-683042D01*
G01*
X26632195Y95326753D02*
G75*
G02X27345000Y95181500I28805J-1680253D01*
G01*
X23261000Y93646500D02*
G75*
G03X23261000Y93646500I-1680000J0D01*
G01*
X29261000Y97746500D02*
X18981000Y97746500D01*
X29261000Y96246500D02*
X18981000Y96246500D01*
X29261000Y91345500D02*
X18981000Y91345500D01*
X29261000Y88385500D02*
X18981000Y88385500D01*
X29261000Y98306500D02*
X18981000Y98306500D01*
X29261000Y88385500D02*
X29261000Y98306500D01*
X18981000Y88385500D02*
X18981000Y98306500D01*
X20306000Y92577500D02*
X20353000Y92623500D01*
X22615000Y94885500D02*
X22650000Y94920500D01*
X20511000Y92371500D02*
X20546000Y92407500D01*
X22808000Y94669500D02*
X22855000Y94715500D01*
X29501000Y97806500D02*
X29501000Y98546500D01*
X29501000Y98546500D02*
X29001000Y98546500D01*
X42870736Y95171221D02*
G75*
G02X43761000Y95426500I890264J-1424721D01*
G01*
X42335495Y92856307D02*
G75*
G02X42336000Y94637500I1425505J890193D01*
G01*
X44650894Y92321142D02*
G75*
G02X42895000Y92306500I-889894J1425358D01*
G01*
X45186358Y94636394D02*
G75*
G02X45201000Y92880500I-1425358J-889894D01*
G01*
X43732326Y95426599D02*
G75*
G02X44627000Y95186500I28674J-1680099D01*
G01*
X41941000Y93746500D02*
G75*
G03X41941000Y93746500I-1680000J0D01*
G01*
X45571000Y97846500D02*
X38451000Y97846500D01*
X45571000Y96746500D02*
X38451000Y96746500D01*
X45571000Y90586500D02*
X38451000Y90586500D01*
X45571000Y98306500D02*
X38451000Y98306500D01*
X45571000Y90586500D02*
X45571000Y98306500D01*
X38451000Y90586500D02*
X38451000Y98306500D01*
X38986000Y92677500D02*
X39115000Y92805500D01*
X41236000Y94927500D02*
X41330000Y95020500D01*
X39191000Y92471500D02*
X39285000Y92565500D01*
X41406000Y94687500D02*
X41535000Y94815500D01*
X45811000Y97906500D02*
X45811000Y98546500D01*
X45811000Y98546500D02*
X45411000Y98546500D01*
X34670736Y95171221D02*
G75*
G02X35561000Y95426500I890264J-1424721D01*
G01*
X34135495Y92856307D02*
G75*
G02X34136000Y94637500I1425505J890193D01*
G01*
X36450894Y92321142D02*
G75*
G02X34695000Y92306500I-889894J1425358D01*
G01*
X36986358Y94636394D02*
G75*
G02X37001000Y92880500I-1425358J-889894D01*
G01*
X35532326Y95426599D02*
G75*
G02X36427000Y95186500I28674J-1680099D01*
G01*
X33741000Y93746500D02*
G75*
G03X33741000Y93746500I-1680000J0D01*
G01*
X37371000Y97846500D02*
X30251000Y97846500D01*
X37371000Y96746500D02*
X30251000Y96746500D01*
X37371000Y90586500D02*
X30251000Y90586500D01*
X37371000Y98306500D02*
X30251000Y98306500D01*
X37371000Y90586500D02*
X37371000Y98306500D01*
X30251000Y90586500D02*
X30251000Y98306500D01*
X30786000Y92677500D02*
X30915000Y92805500D01*
X33036000Y94927500D02*
X33130000Y95020500D01*
X30991000Y92471500D02*
X31085000Y92565500D01*
X33206000Y94687500D02*
X33335000Y94815500D01*
X37611000Y97906500D02*
X37611000Y98546500D01*
X37611000Y98546500D02*
X37211000Y98546500D01*
X10751264Y3821779D02*
G75*
G02X9861000Y3566500I-890264J1424721D01*
G01*
X11286505Y6136693D02*
G75*
G02X11286000Y4355500I-1425505J-890193D01*
G01*
X8971106Y6671858D02*
G75*
G02X10727000Y6686500I889894J-1425358D01*
G01*
X8435642Y4356606D02*
G75*
G02X8421000Y6112500I1425358J889894D01*
G01*
X9889674Y3566401D02*
G75*
G02X8995000Y3806500I-28674J1680099D01*
G01*
X15041000Y5246500D02*
G75*
G03X15041000Y5246500I-1680000J0D01*
G01*
X8051000Y1146500D02*
X15171000Y1146500D01*
X8051000Y2246500D02*
X15171000Y2246500D01*
X8051000Y8406500D02*
X15171000Y8406500D01*
X8051000Y686500D02*
X15171000Y686500D01*
X8051000Y8406500D02*
X8051000Y686500D01*
X15171000Y8406500D02*
X15171000Y686500D01*
X14636000Y6315500D02*
X14507000Y6187500D01*
X12386000Y4065500D02*
X12292000Y3972500D01*
X14431000Y6521500D02*
X14337000Y6427500D01*
X12216000Y4305500D02*
X12087000Y4177500D01*
X7811000Y1086500D02*
X7811000Y446500D01*
X7811000Y446500D02*
X8211000Y446500D01*
X18851264Y3821779D02*
G75*
G02X17961000Y3566500I-890264J1424721D01*
G01*
X19386505Y6136693D02*
G75*
G02X19386000Y4355500I-1425505J-890193D01*
G01*
X17071106Y6671858D02*
G75*
G02X18827000Y6686500I889894J-1425358D01*
G01*
X16535642Y4356606D02*
G75*
G02X16521000Y6112500I1425358J889894D01*
G01*
X17989674Y3566401D02*
G75*
G02X17095000Y3806500I-28674J1680099D01*
G01*
X23141000Y5246500D02*
G75*
G03X23141000Y5246500I-1680000J0D01*
G01*
X16151000Y1146500D02*
X23271000Y1146500D01*
X16151000Y2246500D02*
X23271000Y2246500D01*
X16151000Y8406500D02*
X23271000Y8406500D01*
X16151000Y686500D02*
X23271000Y686500D01*
X16151000Y8406500D02*
X16151000Y686500D01*
X23271000Y8406500D02*
X23271000Y686500D01*
X22736000Y6315500D02*
X22607000Y6187500D01*
X20486000Y4065500D02*
X20392000Y3972500D01*
X22531000Y6521500D02*
X22437000Y6427500D01*
X20316000Y4305500D02*
X20187000Y4177500D01*
X15911000Y1086500D02*
X15911000Y446500D01*
X15911000Y446500D02*
X16311000Y446500D01*
X51251264Y3821779D02*
G75*
G02X50361000Y3566500I-890264J1424721D01*
G01*
X51786505Y6136693D02*
G75*
G02X51786000Y4355500I-1425505J-890193D01*
G01*
X49471106Y6671858D02*
G75*
G02X51227000Y6686500I889894J-1425358D01*
G01*
X48935642Y4356606D02*
G75*
G02X48921000Y6112500I1425358J889894D01*
G01*
X50389674Y3566401D02*
G75*
G02X49495000Y3806500I-28674J1680099D01*
G01*
X55541000Y5246500D02*
G75*
G03X55541000Y5246500I-1680000J0D01*
G01*
X48551000Y1146500D02*
X55671000Y1146500D01*
X48551000Y2246500D02*
X55671000Y2246500D01*
X48551000Y8406500D02*
X55671000Y8406500D01*
X48551000Y686500D02*
X55671000Y686500D01*
X48551000Y8406500D02*
X48551000Y686500D01*
X55671000Y8406500D02*
X55671000Y686500D01*
X55136000Y6315500D02*
X55007000Y6187500D01*
X52886000Y4065500D02*
X52792000Y3972500D01*
X54931000Y6521500D02*
X54837000Y6427500D01*
X52716000Y4305500D02*
X52587000Y4177500D01*
X48311000Y1086500D02*
X48311000Y446500D01*
X48311000Y446500D02*
X48711000Y446500D01*
X26951264Y3821779D02*
G75*
G02X26061000Y3566500I-890264J1424721D01*
G01*
X27486505Y6136693D02*
G75*
G02X27486000Y4355500I-1425505J-890193D01*
G01*
X25171106Y6671858D02*
G75*
G02X26927000Y6686500I889894J-1425358D01*
G01*
X24635642Y4356606D02*
G75*
G02X24621000Y6112500I1425358J889894D01*
G01*
X26089674Y3566401D02*
G75*
G02X25195000Y3806500I-28674J1680099D01*
G01*
X31241000Y5246500D02*
G75*
G03X31241000Y5246500I-1680000J0D01*
G01*
X24251000Y1146500D02*
X31371000Y1146500D01*
X24251000Y2246500D02*
X31371000Y2246500D01*
X24251000Y8406500D02*
X31371000Y8406500D01*
X24251000Y686500D02*
X31371000Y686500D01*
X24251000Y8406500D02*
X24251000Y686500D01*
X31371000Y8406500D02*
X31371000Y686500D01*
X30836000Y6315500D02*
X30707000Y6187500D01*
X28586000Y4065500D02*
X28492000Y3972500D01*
X30631000Y6521500D02*
X30537000Y6427500D01*
X28416000Y4305500D02*
X28287000Y4177500D01*
X24011000Y1086500D02*
X24011000Y446500D01*
X24011000Y446500D02*
X24411000Y446500D01*
X43151264Y3821779D02*
G75*
G02X42261000Y3566500I-890264J1424721D01*
G01*
X43686505Y6136693D02*
G75*
G02X43686000Y4355500I-1425505J-890193D01*
G01*
X41371106Y6671858D02*
G75*
G02X43127000Y6686500I889894J-1425358D01*
G01*
X40835642Y4356606D02*
G75*
G02X40821000Y6112500I1425358J889894D01*
G01*
X42289674Y3566401D02*
G75*
G02X41395000Y3806500I-28674J1680099D01*
G01*
X47441000Y5246500D02*
G75*
G03X47441000Y5246500I-1680000J0D01*
G01*
X40451000Y1146500D02*
X47571000Y1146500D01*
X40451000Y2246500D02*
X47571000Y2246500D01*
X40451000Y8406500D02*
X47571000Y8406500D01*
X40451000Y686500D02*
X47571000Y686500D01*
X40451000Y8406500D02*
X40451000Y686500D01*
X47571000Y8406500D02*
X47571000Y686500D01*
X47036000Y6315500D02*
X46907000Y6187500D01*
X44786000Y4065500D02*
X44692000Y3972500D01*
X46831000Y6521500D02*
X46737000Y6427500D01*
X44616000Y4305500D02*
X44487000Y4177500D01*
X40211000Y1086500D02*
X40211000Y446500D01*
X40211000Y446500D02*
X40611000Y446500D01*
X35051264Y3821779D02*
G75*
G02X34161000Y3566500I-890264J1424721D01*
G01*
X35586505Y6136693D02*
G75*
G02X35586000Y4355500I-1425505J-890193D01*
G01*
X33271106Y6671858D02*
G75*
G02X35027000Y6686500I889894J-1425358D01*
G01*
X32735642Y4356606D02*
G75*
G02X32721000Y6112500I1425358J889894D01*
G01*
X34189674Y3566401D02*
G75*
G02X33295000Y3806500I-28674J1680099D01*
G01*
X39341000Y5246500D02*
G75*
G03X39341000Y5246500I-1680000J0D01*
G01*
X32351000Y1146500D02*
X39471000Y1146500D01*
X32351000Y2246500D02*
X39471000Y2246500D01*
X32351000Y8406500D02*
X39471000Y8406500D01*
X32351000Y686500D02*
X39471000Y686500D01*
X32351000Y8406500D02*
X32351000Y686500D01*
X39471000Y8406500D02*
X39471000Y686500D01*
X38936000Y6315500D02*
X38807000Y6187500D01*
X36686000Y4065500D02*
X36592000Y3972500D01*
X38731000Y6521500D02*
X38637000Y6427500D01*
X36516000Y4305500D02*
X36387000Y4177500D01*
X32111000Y1086500D02*
X32111000Y446500D01*
X32111000Y446500D02*
X32511000Y446500D01*
X13970736Y95171221D02*
G75*
G02X14861000Y95426500I890264J-1424721D01*
G01*
X13435495Y92856307D02*
G75*
G02X13436000Y94637500I1425505J890193D01*
G01*
X15750894Y92321142D02*
G75*
G02X13995000Y92306500I-889894J1425358D01*
G01*
X16286358Y94636394D02*
G75*
G02X16301000Y92880500I-1425358J-889894D01*
G01*
X14832326Y95426599D02*
G75*
G02X15727000Y95186500I28674J-1680099D01*
G01*
X13041000Y93746500D02*
G75*
G03X13041000Y93746500I-1680000J0D01*
G01*
X16671000Y97846500D02*
X9551000Y97846500D01*
X16671000Y96746500D02*
X9551000Y96746500D01*
X16671000Y90586500D02*
X9551000Y90586500D01*
X16671000Y98306500D02*
X9551000Y98306500D01*
X16671000Y90586500D02*
X16671000Y98306500D01*
X9551000Y90586500D02*
X9551000Y98306500D01*
X10086000Y92677500D02*
X10215000Y92805500D01*
X12336000Y94927500D02*
X12430000Y95020500D01*
X10291000Y92471500D02*
X10385000Y92565500D01*
X12506000Y94687500D02*
X12635000Y94815500D01*
X16911000Y97906500D02*
X16911000Y98546500D01*
X16911000Y98546500D02*
X16511000Y98546500D01*
X85408936Y74706500D02*
X86613064Y74706500D01*
X85408936Y71986500D02*
X86613064Y71986500D01*
X85358936Y92106500D02*
X86563064Y92106500D01*
X85358936Y89386500D02*
X86563064Y89386500D01*
X64501000Y81644436D02*
X64501000Y82848564D01*
X67221000Y81644436D02*
X67221000Y82848564D01*
X47301000Y81444436D02*
X47301000Y82648564D01*
X50021000Y81444436D02*
X50021000Y82648564D01*
X85408936Y31206500D02*
X86613064Y31206500D01*
X85408936Y28486500D02*
X86613064Y28486500D01*
X85358936Y48306500D02*
X86563064Y48306500D01*
X85358936Y45586500D02*
X86563064Y45586500D01*
X85508936Y9206500D02*
X86713064Y9206500D01*
X85508936Y6486500D02*
X86713064Y6486500D01*
X85408936Y27106500D02*
X86613064Y27106500D01*
X85408936Y24386500D02*
X86613064Y24386500D01*
X85458936Y52706500D02*
X86663064Y52706500D01*
X85458936Y49986500D02*
X86663064Y49986500D01*
X85358936Y69906500D02*
X86563064Y69906500D01*
X85358936Y67186500D02*
X86563064Y67186500D01*
D10*
X19931380Y50741580D02*
X22471380Y50741580D01*
X22471380Y50741580D02*
X22471380Y49217580D01*
X22471380Y49217580D02*
X30091380Y49217580D01*
X32631380Y50741580D02*
X30091380Y50741580D01*
X30091380Y50741580D02*
X30091380Y49217580D01*
X32631380Y55821580D02*
X32631380Y50741580D01*
X32631380Y55821580D02*
X19931380Y55821580D01*
X19931380Y55821580D02*
X19931380Y50741580D01*
D15*
X9741000Y66296500D02*
G75*
G03X9741000Y66296500I-2180000J0D01*
G01*
X9741000Y59946500D02*
G75*
G03X9741000Y59946500I-2180000J0D01*
G01*
X61000Y69531500D02*
X61000Y56711500D01*
X5061000Y69531500D02*
X5061000Y56711500D01*
X10061000Y69531500D02*
X10061000Y56711500D01*
X12121000Y69531500D02*
X12121000Y56711500D01*
X-499000Y69531500D02*
X-499000Y56711500D01*
X12121000Y69531500D02*
X-499000Y69531500D01*
X12121000Y56711500D02*
X-499000Y56711500D01*
X8949000Y64642500D02*
X8797000Y64794500D01*
X6059000Y67532500D02*
X5907000Y67684500D01*
X9215000Y64908500D02*
X9063000Y65060500D01*
X6326000Y67798500D02*
X6173000Y67950500D01*
X12061000Y67296500D02*
X12061000Y65296500D01*
X11061000Y67296500D02*
X11061000Y65296500D01*
X12061000Y67296500D02*
X11061000Y67296500D01*
X12061000Y65296500D02*
X11061000Y65296500D01*
X8949000Y58292500D02*
X8508000Y58733500D01*
X6333000Y60907500D02*
X5907000Y61333500D01*
X9215000Y58558500D02*
X8789000Y58984500D01*
X6599000Y61173500D02*
X6173000Y61599500D01*
X12061000Y60946500D02*
X12061000Y58946500D01*
X11061000Y60946500D02*
X11061000Y58946500D01*
X12061000Y60946500D02*
X11061000Y60946500D01*
X12061000Y58946500D02*
X11061000Y58946500D01*
X1000Y69771500D02*
X-739000Y69771500D01*
X-739000Y69771500D02*
X-739000Y69271500D01*
X36166000Y55486500D02*
X38436000Y55486500D01*
X36166000Y57006500D02*
X36166000Y55486500D01*
X38436000Y57006500D02*
X36166000Y57006500D01*
X47011000Y44546500D02*
X47011000Y44296500D01*
X43411000Y44296500D02*
X43411000Y44546500D01*
X42686000Y44296500D02*
X43411000Y44296500D01*
X47011000Y42971500D02*
X47011000Y42996500D01*
X43411000Y42971500D02*
X47011000Y42971500D01*
X43411000Y42996500D02*
X43411000Y42971500D01*
X42686000Y42996500D02*
X43411000Y42996500D01*
X47011000Y45871500D02*
X47011000Y45846500D01*
X43411000Y45871500D02*
X47011000Y45871500D01*
X43411000Y45846500D02*
X43411000Y45871500D01*
X45510721Y41536500D02*
X45836279Y41536500D01*
X45510721Y42556500D02*
X45836279Y42556500D01*
X42811279Y42556500D02*
X42485721Y42556500D01*
X42811279Y41536500D02*
X42485721Y41536500D01*
X69451000Y30956500D02*
X69451000Y28606500D01*
X69451000Y24136500D02*
X69451000Y26486500D01*
X75206563Y24136500D02*
X69451000Y24136500D01*
X75206563Y30956500D02*
X69451000Y30956500D01*
X76271000Y29892063D02*
X76271000Y28606500D01*
X76271000Y25200937D02*
X76271000Y26486500D01*
X76271000Y25200937D02*
X75206563Y24136500D01*
X76271000Y29892063D02*
X75206563Y30956500D01*
X77298500Y25699000D02*
X76511000Y25699000D01*
X76904750Y25305250D02*
X76904750Y26092750D01*
D16*
X78390206Y78277140D02*
G75*
G03X78390206Y78277140I-463646J0D01*
G01*
D14*
X86701000Y77046500D02*
X86701000Y87046500D01*
X76701000Y87046500D02*
X86701000Y87046500D01*
X76701000Y77896500D02*
X76701000Y87046500D01*
X86701000Y77046500D02*
X77551000Y77046500D01*
X77551000Y77046500D02*
X76701000Y77896500D01*
D16*
X61594006Y73972060D02*
G75*
G03X61594006Y73972060I-463646J0D01*
G01*
D14*
X62361000Y82746500D02*
X52361000Y82746500D01*
X52361000Y72746500D02*
X52361000Y82746500D01*
X61511000Y72746500D02*
X52361000Y72746500D01*
X62361000Y82746500D02*
X62361000Y73596500D01*
X62361000Y73596500D02*
X61511000Y72746500D01*
D16*
X78390206Y34597140D02*
G75*
G03X78390206Y34597140I-463646J0D01*
G01*
D14*
X86701000Y33366500D02*
X86701000Y43366500D01*
X76701000Y43366500D02*
X86701000Y43366500D01*
X76701000Y34216500D02*
X76701000Y43366500D01*
X86701000Y33366500D02*
X77551000Y33366500D01*
X77551000Y33366500D02*
X76701000Y34216500D01*
D16*
X78390206Y13087140D02*
G75*
G03X78390206Y13087140I-463646J0D01*
G01*
D14*
X86701000Y11856500D02*
X86701000Y21856500D01*
X76701000Y21856500D02*
X86701000Y21856500D01*
X76701000Y12706500D02*
X76701000Y21856500D01*
X86701000Y11856500D02*
X77551000Y11856500D01*
X77551000Y11856500D02*
X76701000Y12706500D01*
D16*
X78390206Y56187140D02*
G75*
G03X78390206Y56187140I-463646J0D01*
G01*
D14*
X86701000Y54956500D02*
X86701000Y64956500D01*
X76701000Y64956500D02*
X86701000Y64956500D01*
X76701000Y55806500D02*
X76701000Y64956500D01*
X86701000Y54956500D02*
X77551000Y54956500D01*
X77551000Y54956500D02*
X76701000Y55806500D01*
D10*
X39601001Y34756499D02*
X39601001Y34631499D01*
X44251001Y34756499D02*
X44251001Y34531499D01*
X44251001Y29506499D02*
X44251001Y29731499D01*
X39601001Y29506499D02*
X39601001Y29731499D01*
X39601001Y34756499D02*
X44251001Y34756499D01*
X39601001Y29506499D02*
X44251001Y29506499D01*
X39601001Y34631499D02*
X38251001Y34631499D01*
X31661001Y47846499D02*
X31661001Y47721499D01*
X36311001Y47846499D02*
X36311001Y47621499D01*
X36311001Y42596499D02*
X36311001Y42821499D01*
X31661001Y42596499D02*
X31661001Y42821499D01*
X31661001Y47846499D02*
X36311001Y47846499D01*
X31661001Y42596499D02*
X36311001Y42596499D01*
X31661001Y47721499D02*
X30311001Y47721499D01*
X52111001Y34696499D02*
X52111001Y34571499D01*
X56761001Y34696499D02*
X56761001Y34471499D01*
X56761001Y29446499D02*
X56761001Y29671499D01*
X52111001Y29446499D02*
X52111001Y29671499D01*
X52111001Y34696499D02*
X56761001Y34696499D01*
X52111001Y29446499D02*
X56761001Y29446499D01*
X52111001Y34571499D02*
X50761001Y34571499D01*
D15*
X52681000Y9886500D02*
X52681000Y11346500D01*
X55841000Y9886500D02*
X55841000Y12046500D01*
X55841000Y9886500D02*
X54911000Y9886500D01*
X52681000Y9886500D02*
X53611000Y9886500D01*
X28431000Y9886500D02*
X28431000Y11346500D01*
X31591000Y9886500D02*
X31591000Y12046500D01*
X31591000Y9886500D02*
X30661000Y9886500D01*
X28431000Y9886500D02*
X29361000Y9886500D01*
X44681000Y9886500D02*
X44681000Y11346500D01*
X47841000Y9886500D02*
X47841000Y12046500D01*
X47841000Y9886500D02*
X46911000Y9886500D01*
X44681000Y9886500D02*
X45611000Y9886500D01*
X36531000Y9886500D02*
X36531000Y11346500D01*
X39691000Y9886500D02*
X39691000Y12046500D01*
X39691000Y9886500D02*
X38761000Y9886500D01*
X36531000Y9886500D02*
X37461000Y9886500D01*
X40641000Y84046500D02*
X40841000Y84046500D01*
X40641000Y88346500D02*
X40641000Y84046500D01*
X40791000Y88346500D02*
X40641000Y88346500D01*
X45841000Y88346500D02*
X45691000Y88346500D01*
X45841000Y84046500D02*
X45841000Y88346500D01*
X45641000Y84046500D02*
X45841000Y84046500D01*
X32461000Y84031500D02*
X32661000Y84031500D01*
X32461000Y88331500D02*
X32461000Y84031500D01*
X32611000Y88331500D02*
X32461000Y88331500D01*
X37661000Y88331500D02*
X37511000Y88331500D01*
X37661000Y84031500D02*
X37661000Y88331500D01*
X37461000Y84031500D02*
X37661000Y84031500D01*
X54611279Y13656500D02*
X54285721Y13656500D01*
X54611279Y12636500D02*
X54285721Y12636500D01*
X50210721Y11136500D02*
X50536279Y11136500D01*
X50210721Y12156500D02*
X50536279Y12156500D01*
X30411279Y13656500D02*
X30085721Y13656500D01*
X30411279Y12636500D02*
X30085721Y12636500D01*
X26110721Y11236500D02*
X26436279Y11236500D01*
X26110721Y12256500D02*
X26436279Y12256500D01*
X46611279Y13656500D02*
X46285721Y13656500D01*
X46611279Y12636500D02*
X46285721Y12636500D01*
X42185721Y11136500D02*
X42511279Y11136500D01*
X42185721Y12156500D02*
X42511279Y12156500D01*
X38511279Y13656500D02*
X38185721Y13656500D01*
X38511279Y12636500D02*
X38185721Y12636500D01*
X34110721Y11136500D02*
X34436279Y11136500D01*
X34110721Y12156500D02*
X34436279Y12156500D01*
X31113000Y59001779D02*
X31113000Y58676221D01*
X32133000Y59001779D02*
X32133000Y58676221D01*
X28551000Y78521779D02*
X28551000Y78196221D01*
X29571000Y78521779D02*
X29571000Y78196221D01*
X51171000Y17171221D02*
X51171000Y17496779D01*
X50151000Y17171221D02*
X50151000Y17496779D01*
X48651000Y20521779D02*
X48651000Y20196221D01*
X49671000Y20521779D02*
X49671000Y20196221D01*
X24132221Y57910000D02*
X24457779Y57910000D01*
X24132221Y58930000D02*
X24457779Y58930000D01*
X43436279Y81356500D02*
X43110721Y81356500D01*
X43436279Y80336500D02*
X43110721Y80336500D01*
X58271000Y17271221D02*
X58271000Y17596779D01*
X57251000Y17271221D02*
X57251000Y17596779D01*
X55751000Y20521779D02*
X55751000Y20196221D01*
X56771000Y20521779D02*
X56771000Y20196221D01*
X53911279Y39256500D02*
X53585721Y39256500D01*
X53911279Y38236500D02*
X53585721Y38236500D01*
X53951000Y42821779D02*
X53951000Y42496221D01*
X54971000Y42821779D02*
X54971000Y42496221D01*
X88486279Y76556500D02*
X88160721Y76556500D01*
X88486279Y75536500D02*
X88160721Y75536500D01*
X88736279Y88806500D02*
X88410721Y88806500D01*
X88736279Y87786500D02*
X88410721Y87786500D01*
X47011279Y55456500D02*
X46685721Y55456500D01*
X47011279Y54436500D02*
X46685721Y54436500D01*
X47051000Y58996779D02*
X47051000Y58671221D01*
X48071000Y58996779D02*
X48071000Y58671221D01*
X47036279Y48256500D02*
X46710721Y48256500D01*
X47036279Y47236500D02*
X46710721Y47236500D01*
X47051000Y51921779D02*
X47051000Y51596221D01*
X48071000Y51921779D02*
X48071000Y51596221D01*
X62751000Y84896779D02*
X62751000Y84571221D01*
X63771000Y84896779D02*
X63771000Y84571221D01*
X50551000Y84309279D02*
X50551000Y83983721D01*
X51571000Y84309279D02*
X51571000Y83983721D01*
X53936279Y55456500D02*
X53610721Y55456500D01*
X53936279Y54436500D02*
X53610721Y54436500D01*
X53951000Y58996779D02*
X53951000Y58671221D01*
X54971000Y58996779D02*
X54971000Y58671221D01*
X53911279Y48256500D02*
X53585721Y48256500D01*
X53911279Y47236500D02*
X53585721Y47236500D01*
X53951000Y51896779D02*
X53951000Y51571221D01*
X54971000Y51896779D02*
X54971000Y51571221D01*
X88561279Y32806500D02*
X88235721Y32806500D01*
X88561279Y31786500D02*
X88235721Y31786500D01*
X88736279Y45056500D02*
X88410721Y45056500D01*
X88736279Y44036500D02*
X88410721Y44036500D01*
X60811279Y55456500D02*
X60485721Y55456500D01*
X60811279Y54436500D02*
X60485721Y54436500D01*
X60851000Y58996779D02*
X60851000Y58671221D01*
X61871000Y58996779D02*
X61871000Y58671221D01*
X60811279Y48256500D02*
X60485721Y48256500D01*
X60811279Y47236500D02*
X60485721Y47236500D01*
X60851000Y51921779D02*
X60851000Y51596221D01*
X61871000Y51921779D02*
X61871000Y51596221D01*
X88486279Y10806500D02*
X88160721Y10806500D01*
X88486279Y9786500D02*
X88160721Y9786500D01*
X88561279Y23806500D02*
X88235721Y23806500D01*
X88561279Y22786500D02*
X88235721Y22786500D01*
X29220279Y57342500D02*
X28894721Y57342500D01*
X29220279Y56322500D02*
X28894721Y56322500D01*
X36551000Y80296779D02*
X36551000Y79971221D01*
X37571000Y80296779D02*
X37571000Y79971221D01*
X58271000Y23471221D02*
X58271000Y23796779D01*
X57251000Y23471221D02*
X57251000Y23796779D01*
X55751000Y26821779D02*
X55751000Y26496221D01*
X56771000Y26821779D02*
X56771000Y26496221D01*
X60723779Y39256500D02*
X60398221Y39256500D01*
X60723779Y38236500D02*
X60398221Y38236500D01*
X60751000Y42796779D02*
X60751000Y42471221D01*
X61771000Y42796779D02*
X61771000Y42471221D01*
X88723779Y54256500D02*
X88398221Y54256500D01*
X88723779Y53236500D02*
X88398221Y53236500D01*
X88736279Y66456500D02*
X88410721Y66456500D01*
X88736279Y65436500D02*
X88410721Y65436500D01*
X34436279Y58356500D02*
X34110721Y58356500D01*
X34436279Y57336500D02*
X34110721Y57336500D01*
X19506660Y53916261D02*
X19506660Y54241819D01*
X18486660Y53916261D02*
X18486660Y54241819D01*
X34461279Y55031500D02*
X34135721Y55031500D01*
X34461279Y54011500D02*
X34135721Y54011500D01*
X27685721Y44036500D02*
X28011279Y44036500D01*
X27685721Y45056500D02*
X28011279Y45056500D01*
X40436279Y46356500D02*
X40110721Y46356500D01*
X40436279Y45336500D02*
X40110721Y45336500D01*
X40436279Y44256500D02*
X40110721Y44256500D01*
X40436279Y43236500D02*
X40110721Y43236500D01*
X27685721Y45736500D02*
X28011279Y45736500D01*
X27685721Y46756500D02*
X28011279Y46756500D01*
X34110721Y52436500D02*
X34436279Y52436500D01*
X34110721Y53456500D02*
X34436279Y53456500D01*
X34461279Y56706500D02*
X34135721Y56706500D01*
X34461279Y55686500D02*
X34135721Y55686500D01*
X60591000Y8726500D02*
X57931000Y8726500D01*
X60591000Y3586500D02*
X60591000Y8726500D01*
X57931000Y3586500D02*
X57931000Y8726500D01*
X60591000Y3586500D02*
X57931000Y3586500D01*
X60591000Y2316500D02*
X60591000Y986500D01*
X60591000Y986500D02*
X59261000Y986500D01*
X21031000Y40716500D02*
X23691000Y40716500D01*
X21031000Y45856500D02*
X21031000Y40716500D01*
X23691000Y45856500D02*
X23691000Y40716500D01*
X21031000Y45856500D02*
X23691000Y45856500D01*
X21031000Y47126500D02*
X21031000Y48456500D01*
X21031000Y48456500D02*
X22361000Y48456500D01*
X10191000Y54816500D02*
X7531000Y54816500D01*
X10191000Y52216500D02*
X10191000Y54816500D01*
X7531000Y52216500D02*
X7531000Y54816500D01*
X10191000Y52216500D02*
X7531000Y52216500D01*
X10191000Y50946500D02*
X10191000Y49616500D01*
X10191000Y49616500D02*
X8861000Y49616500D01*
X70591000Y22116500D02*
X67931000Y22116500D01*
X70591000Y19516500D02*
X70591000Y22116500D01*
X67931000Y19516500D02*
X67931000Y22116500D01*
X70591000Y19516500D02*
X67931000Y19516500D01*
X70591000Y18246500D02*
X70591000Y16916500D01*
X70591000Y16916500D02*
X69261000Y16916500D01*
X17131000Y40736500D02*
X19791000Y40736500D01*
X17131000Y45876500D02*
X17131000Y40736500D01*
X19791000Y45876500D02*
X19791000Y40736500D01*
X17131000Y45876500D02*
X19791000Y45876500D01*
X17131000Y47146500D02*
X17131000Y48476500D01*
X17131000Y48476500D02*
X18461000Y48476500D01*
X34706000Y39796500D02*
X34706000Y16396500D01*
X34706000Y16396500D02*
X25356000Y16396500D01*
X25356000Y16396500D02*
X25356000Y39796500D01*
X25356000Y39796500D02*
X34706000Y39796500D01*
X25106000Y40046500D02*
X25106000Y37506500D01*
X25106000Y40046500D02*
X27646000Y40046500D01*
X45231000Y16216500D02*
X47891000Y16216500D01*
X45231000Y18816500D02*
X45231000Y16216500D01*
X47891000Y18816500D02*
X47891000Y16216500D01*
X45231000Y18816500D02*
X47891000Y18816500D01*
X45231000Y20086500D02*
X45231000Y21416500D01*
X45231000Y21416500D02*
X46561000Y21416500D01*
X52296001Y16281499D02*
X54956001Y16281499D01*
X52296001Y18881499D02*
X52296001Y16281499D01*
X54956001Y18881499D02*
X54956001Y16281499D01*
X52296001Y18881499D02*
X54956001Y18881499D01*
X52296001Y20151499D02*
X52296001Y21481499D01*
X52296001Y21481499D02*
X53626001Y21481499D01*
D10*
X93577000Y86388500D02*
X93577000Y83848500D01*
X93577000Y83848500D02*
X92053000Y83848500D01*
X92053000Y83848500D02*
X92053000Y76228500D01*
X93577000Y73688500D02*
X93577000Y76228500D01*
X93577000Y76228500D02*
X92053000Y76228500D01*
X98657000Y73688500D02*
X93577000Y73688500D01*
X98657000Y73688500D02*
X98657000Y86388500D01*
X98657000Y86388500D02*
X93577000Y86388500D01*
D15*
X51691000Y43716500D02*
X49031000Y43716500D01*
X51691000Y41116500D02*
X51691000Y43716500D01*
X49031000Y41116500D02*
X49031000Y43716500D01*
X51691000Y41116500D02*
X49031000Y41116500D01*
X51691000Y39846500D02*
X51691000Y38516500D01*
X51691000Y38516500D02*
X50361000Y38516500D01*
D10*
X65903000Y98530500D02*
X63363000Y98530500D01*
X63363000Y98530500D02*
X63363000Y100054500D01*
X63363000Y100054500D02*
X55743000Y100054500D01*
X53203000Y98530500D02*
X55743000Y98530500D01*
X55743000Y98530500D02*
X55743000Y100054500D01*
X53203000Y93450500D02*
X53203000Y98530500D01*
X53203000Y93450500D02*
X65903000Y93450500D01*
X65903000Y93450500D02*
X65903000Y98530500D01*
X53201000Y88206500D02*
X55741000Y88206500D01*
X55741000Y88206500D02*
X55741000Y86682500D01*
X55741000Y86682500D02*
X63361000Y86682500D01*
X65901000Y88206500D02*
X63361000Y88206500D01*
X63361000Y88206500D02*
X63361000Y86682500D01*
X65901000Y93286500D02*
X65901000Y88206500D01*
X65901000Y93286500D02*
X53201000Y93286500D01*
X53201000Y93286500D02*
X53201000Y88206500D01*
X93555820Y43540680D02*
X93555820Y41000680D01*
X93555820Y41000680D02*
X92031820Y41000680D01*
X92031820Y41000680D02*
X92031820Y33380680D01*
X93555820Y30840680D02*
X93555820Y33380680D01*
X93555820Y33380680D02*
X92031820Y33380680D01*
X98635820Y30840680D02*
X93555820Y30840680D01*
X98635820Y30840680D02*
X98635820Y43540680D01*
X98635820Y43540680D02*
X93555820Y43540680D01*
X93652340Y22298660D02*
X93652340Y19758660D01*
X93652340Y19758660D02*
X92128340Y19758660D01*
X92128340Y19758660D02*
X92128340Y12138660D01*
X93652340Y9598660D02*
X93652340Y12138660D01*
X93652340Y12138660D02*
X92128340Y12138660D01*
X98732340Y9598660D02*
X93652340Y9598660D01*
X98732340Y9598660D02*
X98732340Y22298660D01*
X98732340Y22298660D02*
X93652340Y22298660D01*
D15*
X44791000Y59816500D02*
X42131000Y59816500D01*
X44791000Y57216500D02*
X44791000Y59816500D01*
X42131000Y57216500D02*
X42131000Y59816500D01*
X44791000Y57216500D02*
X42131000Y57216500D01*
X44791000Y55946500D02*
X44791000Y54616500D01*
X44791000Y54616500D02*
X43461000Y54616500D01*
X44791000Y52716500D02*
X42131000Y52716500D01*
X44791000Y50116500D02*
X44791000Y52716500D01*
X42131000Y50116500D02*
X42131000Y52716500D01*
X44791000Y50116500D02*
X42131000Y50116500D01*
X44791000Y48846500D02*
X44791000Y47516500D01*
X44791000Y47516500D02*
X43461000Y47516500D01*
X51691000Y59816500D02*
X49031000Y59816500D01*
X51691000Y57216500D02*
X51691000Y59816500D01*
X49031000Y57216500D02*
X49031000Y59816500D01*
X51691000Y57216500D02*
X49031000Y57216500D01*
X51691000Y55946500D02*
X51691000Y54616500D01*
X51691000Y54616500D02*
X50361000Y54616500D01*
X51691000Y52716500D02*
X49031000Y52716500D01*
X51691000Y50116500D02*
X51691000Y52716500D01*
X49031000Y50116500D02*
X49031000Y52716500D01*
X51691000Y50116500D02*
X49031000Y50116500D01*
X51691000Y48846500D02*
X51691000Y47516500D01*
X51691000Y47516500D02*
X50361000Y47516500D01*
X58591000Y59816500D02*
X55931000Y59816500D01*
X58591000Y57216500D02*
X58591000Y59816500D01*
X55931000Y57216500D02*
X55931000Y59816500D01*
X58591000Y57216500D02*
X55931000Y57216500D01*
X58591000Y55946500D02*
X58591000Y54616500D01*
X58591000Y54616500D02*
X57261000Y54616500D01*
X58591000Y52716500D02*
X55931000Y52716500D01*
X58591000Y50116500D02*
X58591000Y52716500D01*
X55931000Y50116500D02*
X55931000Y52716500D01*
X58591000Y50116500D02*
X55931000Y50116500D01*
X58591000Y48846500D02*
X58591000Y47516500D01*
X58591000Y47516500D02*
X57261000Y47516500D01*
X52331000Y22576500D02*
X54991000Y22576500D01*
X52331000Y25176500D02*
X52331000Y22576500D01*
X54991000Y25176500D02*
X54991000Y22576500D01*
X52331000Y25176500D02*
X54991000Y25176500D01*
X52331000Y26446500D02*
X52331000Y27776500D01*
X52331000Y27776500D02*
X53661000Y27776500D01*
D10*
X93644720Y65882520D02*
X93644720Y63342520D01*
X93644720Y63342520D02*
X92120720Y63342520D01*
X92120720Y63342520D02*
X92120720Y55722520D01*
X93644720Y53182520D02*
X93644720Y55722520D01*
X93644720Y55722520D02*
X92120720Y55722520D01*
X98724720Y53182520D02*
X93644720Y53182520D01*
X98724720Y53182520D02*
X98724720Y65882520D01*
X98724720Y65882520D02*
X93644720Y65882520D01*
D15*
X58491000Y43716500D02*
X55831000Y43716500D01*
X58491000Y41116500D02*
X58491000Y43716500D01*
X55831000Y41116500D02*
X55831000Y43716500D01*
X58491000Y41116500D02*
X55831000Y41116500D01*
X58491000Y39846500D02*
X58491000Y38516500D01*
X58491000Y38516500D02*
X57161000Y38516500D01*
X19791000Y39576500D02*
X17131000Y39576500D01*
X19791000Y26816500D02*
X19791000Y39576500D01*
X17131000Y26816500D02*
X17131000Y39576500D01*
X19791000Y26816500D02*
X17131000Y26816500D01*
X19791000Y25546500D02*
X19791000Y24216500D01*
X19791000Y24216500D02*
X18461000Y24216500D01*
X23691000Y39576500D02*
X21031000Y39576500D01*
X23691000Y26816500D02*
X23691000Y39576500D01*
X21031000Y26816500D02*
X21031000Y39576500D01*
X23691000Y26816500D02*
X21031000Y26816500D01*
X23691000Y25546500D02*
X23691000Y24216500D01*
X23691000Y24216500D02*
X22361000Y24216500D01*
X20556000Y15866500D02*
X20556000Y18526500D01*
X17956000Y15866500D02*
X20556000Y15866500D01*
X17956000Y18526500D02*
X20556000Y18526500D01*
X17956000Y15866500D02*
X17956000Y18526500D01*
X16686000Y15866500D02*
X15356000Y15866500D01*
X15356000Y15866500D02*
X15356000Y17196500D01*
X16721000Y59896500D02*
X16721000Y57236500D01*
X19321000Y59896500D02*
X16721000Y59896500D01*
X19321000Y57236500D02*
X16721000Y57236500D01*
X19321000Y59896500D02*
X19321000Y57236500D01*
X20591000Y59896500D02*
X21921000Y59896500D01*
X21921000Y59896500D02*
X21921000Y58566500D01*
X49641000Y98066500D02*
X46981000Y98066500D01*
X49641000Y95466500D02*
X49641000Y98066500D01*
X46981000Y95466500D02*
X46981000Y98066500D01*
X49641000Y95466500D02*
X46981000Y95466500D01*
X49641000Y94196500D02*
X49641000Y92866500D01*
X49641000Y92866500D02*
X48311000Y92866500D01*
X40656200Y66087300D02*
X40656200Y63427300D01*
X43256200Y66087300D02*
X40656200Y66087300D01*
X43256200Y63427300D02*
X40656200Y63427300D01*
X43256200Y66087300D02*
X43256200Y63427300D01*
X44526200Y66087300D02*
X45856200Y66087300D01*
X45856200Y66087300D02*
X45856200Y64757300D01*
X48511000Y10696500D02*
X48511000Y8996500D01*
X48511000Y8996500D02*
X51661000Y8996500D01*
X48511000Y10696500D02*
X51661000Y10696500D01*
X24211000Y10796500D02*
X24211000Y9096500D01*
X24211000Y9096500D02*
X27361000Y9096500D01*
X24211000Y10796500D02*
X27361000Y10796500D01*
X40511000Y10696500D02*
X40511000Y8996500D01*
X40511000Y8996500D02*
X43661000Y8996500D01*
X40511000Y10696500D02*
X43661000Y10696500D01*
X32311000Y10696500D02*
X32311000Y8996500D01*
X32311000Y8996500D02*
X35461000Y8996500D01*
X32311000Y10696500D02*
X35461000Y10696500D01*
X24111000Y87396500D02*
X22411000Y87396500D01*
X22411000Y87396500D02*
X22411000Y84246500D01*
X24111000Y87396500D02*
X24111000Y84246500D01*
X29239000Y60574000D02*
X29239000Y58304000D01*
X30759000Y60574000D02*
X29239000Y60574000D01*
X30759000Y58304000D02*
X30759000Y60574000D01*
X38311000Y80746500D02*
X40011000Y80746500D01*
X40011000Y80746500D02*
X40011000Y83896500D01*
X38311000Y80746500D02*
X38311000Y83896500D01*
X25839000Y60574000D02*
X25839000Y58304000D01*
X27359000Y60574000D02*
X25839000Y60574000D01*
X27359000Y58304000D02*
X27359000Y60574000D01*
X52291000Y39586500D02*
X54561000Y39586500D01*
X52291000Y41106500D02*
X52291000Y39586500D01*
X54561000Y41106500D02*
X52291000Y41106500D01*
X45391000Y55786500D02*
X47661000Y55786500D01*
X45391000Y57306500D02*
X45391000Y55786500D01*
X47661000Y57306500D02*
X45391000Y57306500D01*
X45391000Y48586500D02*
X47661000Y48586500D01*
X45391000Y50106500D02*
X45391000Y48586500D01*
X47661000Y50106500D02*
X45391000Y50106500D01*
X52291000Y55786500D02*
X54561000Y55786500D01*
X52291000Y57306500D02*
X52291000Y55786500D01*
X54561000Y57306500D02*
X52291000Y57306500D01*
X52291000Y48586500D02*
X54561000Y48586500D01*
X52291000Y50106500D02*
X52291000Y48586500D01*
X54561000Y50106500D02*
X52291000Y50106500D01*
X59191000Y55786500D02*
X61461000Y55786500D01*
X59191000Y57306500D02*
X59191000Y55786500D01*
X61461000Y57306500D02*
X59191000Y57306500D01*
X59191000Y48586500D02*
X61461000Y48586500D01*
X59191000Y50106500D02*
X59191000Y48586500D01*
X61461000Y50106500D02*
X59191000Y50106500D01*
X30211000Y80896500D02*
X31911000Y80896500D01*
X31911000Y80896500D02*
X31911000Y84046500D01*
X30211000Y80896500D02*
X30211000Y84046500D01*
X27539000Y60574000D02*
X27539000Y58304000D01*
X29059000Y60574000D02*
X27539000Y60574000D01*
X29059000Y58304000D02*
X29059000Y60574000D01*
X59091000Y39586500D02*
X61361000Y39586500D01*
X59091000Y41106500D02*
X59091000Y39586500D01*
X61361000Y41106500D02*
X59091000Y41106500D01*
X36166000Y57136500D02*
X38436000Y57136500D01*
X36166000Y58656500D02*
X36166000Y57136500D01*
X38436000Y58656500D02*
X36166000Y58656500D01*
X36166000Y53836500D02*
X38436000Y53836500D01*
X36166000Y55356500D02*
X36166000Y53836500D01*
X38436000Y55356500D02*
X36166000Y55356500D01*
X36191000Y52186500D02*
X38461000Y52186500D01*
X36191000Y53706500D02*
X36191000Y52186500D01*
X38461000Y53706500D02*
X36191000Y53706500D01*
X20463064Y87556500D02*
X19258936Y87556500D01*
X20463064Y85736500D02*
X19258936Y85736500D01*
X49671000Y17171221D02*
X49671000Y17496779D01*
X48651000Y17171221D02*
X48651000Y17496779D01*
X38251000Y88348564D02*
X38251000Y87144436D01*
X40071000Y88348564D02*
X40071000Y87144436D01*
X56771000Y17196221D02*
X56771000Y17521779D01*
X55751000Y17196221D02*
X55751000Y17521779D01*
X53471000Y42483721D02*
X53471000Y42809279D01*
X52451000Y42483721D02*
X52451000Y42809279D01*
X90235721Y77036500D02*
X90561279Y77036500D01*
X90235721Y78056500D02*
X90561279Y78056500D01*
X91251000Y84421779D02*
X91251000Y84096221D01*
X92271000Y84421779D02*
X92271000Y84096221D01*
X94310721Y87436500D02*
X94636279Y87436500D01*
X94310721Y88456500D02*
X94636279Y88456500D01*
X94110721Y72036500D02*
X94436279Y72036500D01*
X94110721Y73056500D02*
X94436279Y73056500D01*
X91851000Y80671779D02*
X91851000Y80346221D01*
X92871000Y80671779D02*
X92871000Y80346221D01*
X90198221Y86286500D02*
X90523779Y86286500D01*
X90198221Y87306500D02*
X90523779Y87306500D01*
X73621000Y81421221D02*
X73621000Y81746779D01*
X72601000Y81421221D02*
X72601000Y81746779D01*
X90101000Y80709279D02*
X90101000Y80383721D01*
X91121000Y80709279D02*
X91121000Y80383721D01*
X69501000Y74456500D02*
X69501000Y72106500D01*
X69501000Y67636500D02*
X69501000Y69986500D01*
X75256563Y67636500D02*
X69501000Y67636500D01*
X75256563Y74456500D02*
X69501000Y74456500D01*
X76321000Y73392063D02*
X76321000Y72106500D01*
X76321000Y68700937D02*
X76321000Y69986500D01*
X76321000Y68700937D02*
X75256563Y67636500D01*
X76321000Y73392063D02*
X75256563Y74456500D01*
X77348500Y69199000D02*
X76561000Y69199000D01*
X76954750Y68805250D02*
X76954750Y69592750D01*
X74463064Y89456500D02*
X73258936Y89456500D01*
X74463064Y87636500D02*
X73258936Y87636500D01*
X74563064Y76706500D02*
X73358936Y76706500D01*
X74563064Y74886500D02*
X73358936Y74886500D01*
X46571000Y58671221D02*
X46571000Y58996779D01*
X45551000Y58671221D02*
X45551000Y58996779D01*
X46571000Y51571221D02*
X46571000Y51896779D01*
X45551000Y51571221D02*
X45551000Y51896779D01*
X62271000Y86271221D02*
X62271000Y86596779D01*
X61251000Y86271221D02*
X61251000Y86596779D01*
X55511279Y87756500D02*
X55185721Y87756500D01*
X55511279Y86736500D02*
X55185721Y86736500D01*
X67471000Y94771221D02*
X67471000Y95096779D01*
X66451000Y94771221D02*
X66451000Y95096779D01*
X51651000Y90696779D02*
X51651000Y90371221D01*
X52671000Y90696779D02*
X52671000Y90371221D01*
X52671000Y93383721D02*
X52671000Y93709279D01*
X51651000Y93383721D02*
X51651000Y93709279D01*
X53071000Y86071221D02*
X53071000Y86396779D01*
X52051000Y86071221D02*
X52051000Y86396779D01*
X57911279Y69556500D02*
X57585721Y69556500D01*
X57911279Y68536500D02*
X57585721Y68536500D01*
X58910721Y86036500D02*
X59236279Y86036500D01*
X58910721Y87056500D02*
X59236279Y87056500D01*
X69201000Y97456500D02*
X69201000Y95106500D01*
X69201000Y90636500D02*
X69201000Y92986500D01*
X74956563Y90636500D02*
X69201000Y90636500D01*
X74956563Y97456500D02*
X69201000Y97456500D01*
X76021000Y96392063D02*
X76021000Y95106500D01*
X76021000Y91700937D02*
X76021000Y92986500D01*
X76021000Y91700937D02*
X74956563Y90636500D01*
X76021000Y96392063D02*
X74956563Y97456500D01*
X77048500Y92199000D02*
X76261000Y92199000D01*
X76654750Y91805250D02*
X76654750Y92592750D01*
X62451000Y70848564D02*
X62451000Y69644436D01*
X64271000Y70848564D02*
X64271000Y69644436D01*
X50451000Y70748564D02*
X50451000Y69544436D01*
X52271000Y70748564D02*
X52271000Y69544436D01*
X53471000Y58696221D02*
X53471000Y59021779D01*
X52451000Y58696221D02*
X52451000Y59021779D01*
X53471000Y51571221D02*
X53471000Y51896779D01*
X52451000Y51571221D02*
X52451000Y51896779D01*
X90160721Y33536500D02*
X90486279Y33536500D01*
X90160721Y34556500D02*
X90486279Y34556500D01*
X91101000Y40746779D02*
X91101000Y40421221D01*
X92121000Y40746779D02*
X92121000Y40421221D01*
X94320041Y44160980D02*
X94645599Y44160980D01*
X94320041Y45180980D02*
X94645599Y45180980D01*
X94060961Y29223240D02*
X94386519Y29223240D01*
X94060961Y30243240D02*
X94386519Y30243240D01*
X91101000Y36671779D02*
X91101000Y36346221D01*
X92121000Y36671779D02*
X92121000Y36346221D01*
X90235721Y42536500D02*
X90561279Y42536500D01*
X90235721Y43556500D02*
X90561279Y43556500D01*
X73621000Y37921221D02*
X73621000Y38246779D01*
X72601000Y37921221D02*
X72601000Y38246779D01*
X89601000Y36746779D02*
X89601000Y36421221D01*
X90621000Y36746779D02*
X90621000Y36421221D01*
X69451000Y9456500D02*
X69451000Y7106500D01*
X69451000Y2636500D02*
X69451000Y4986500D01*
X75206563Y2636500D02*
X69451000Y2636500D01*
X75206563Y9456500D02*
X69451000Y9456500D01*
X76271000Y8392063D02*
X76271000Y7106500D01*
X76271000Y3700937D02*
X76271000Y4986500D01*
X76271000Y3700937D02*
X75206563Y2636500D01*
X76271000Y8392063D02*
X75206563Y9456500D01*
X77298500Y4199000D02*
X76511000Y4199000D01*
X76904750Y3805250D02*
X76904750Y4592750D01*
X74313064Y45156500D02*
X73108936Y45156500D01*
X74313064Y43336500D02*
X73108936Y43336500D01*
X74313064Y33206500D02*
X73108936Y33206500D01*
X74313064Y31386500D02*
X73108936Y31386500D01*
X60371000Y58671221D02*
X60371000Y58996779D01*
X59351000Y58671221D02*
X59351000Y58996779D01*
X60371000Y51583721D02*
X60371000Y51909279D01*
X59351000Y51583721D02*
X59351000Y51909279D01*
X90235721Y11286500D02*
X90561279Y11286500D01*
X90235721Y12306500D02*
X90561279Y12306500D01*
X91101000Y19421779D02*
X91101000Y19096221D01*
X92121000Y19421779D02*
X92121000Y19096221D01*
X94137361Y22941820D02*
X94462919Y22941820D01*
X94137361Y23961820D02*
X94462919Y23961820D01*
X94236221Y8044720D02*
X94561779Y8044720D01*
X94236221Y9064720D02*
X94561779Y9064720D01*
X91101000Y15246779D02*
X91101000Y14921221D01*
X92121000Y15246779D02*
X92121000Y14921221D01*
X90235721Y21286500D02*
X90561279Y21286500D01*
X90235721Y22306500D02*
X90561279Y22306500D01*
X74121000Y16421221D02*
X74121000Y16746779D01*
X73101000Y16421221D02*
X73101000Y16746779D01*
X89601000Y15171779D02*
X89601000Y14846221D01*
X90621000Y15171779D02*
X90621000Y14846221D01*
X74313064Y11706500D02*
X73108936Y11706500D01*
X74313064Y9886500D02*
X73108936Y9886500D01*
X74313064Y23706500D02*
X73108936Y23706500D01*
X74313064Y21886500D02*
X73108936Y21886500D01*
X30151000Y88348564D02*
X30151000Y87144436D01*
X31971000Y88348564D02*
X31971000Y87144436D01*
X56771000Y23496221D02*
X56771000Y23821779D01*
X55751000Y23496221D02*
X55751000Y23821779D01*
X60271000Y42471221D02*
X60271000Y42796779D01*
X59251000Y42471221D02*
X59251000Y42796779D01*
X90185721Y54836500D02*
X90511279Y54836500D01*
X90185721Y55856500D02*
X90511279Y55856500D01*
X90996040Y62197099D02*
X90996040Y61871541D01*
X92016040Y62197099D02*
X92016040Y61871541D01*
X93781561Y66401220D02*
X94107119Y66401220D01*
X93781561Y67421220D02*
X94107119Y67421220D01*
X94063501Y51272980D02*
X94389059Y51272980D01*
X94063501Y52292980D02*
X94389059Y52292980D01*
X91351000Y58421779D02*
X91351000Y58096221D01*
X92371000Y58421779D02*
X92371000Y58096221D01*
X90185721Y63836500D02*
X90511279Y63836500D01*
X90185721Y64856500D02*
X90511279Y64856500D01*
X73871000Y59383721D02*
X73871000Y59709279D01*
X72851000Y59383721D02*
X72851000Y59709279D01*
X89651000Y58496779D02*
X89651000Y58171221D01*
X90671000Y58496779D02*
X90671000Y58171221D01*
X69451000Y52356500D02*
X69451000Y50006500D01*
X69451000Y45536500D02*
X69451000Y47886500D01*
X75206563Y45536500D02*
X69451000Y45536500D01*
X75206563Y52356500D02*
X69451000Y52356500D01*
X76271000Y51292063D02*
X76271000Y50006500D01*
X76271000Y46600937D02*
X76271000Y47886500D01*
X76271000Y46600937D02*
X75206563Y45536500D01*
X76271000Y51292063D02*
X75206563Y52356500D01*
X77298500Y47099000D02*
X76511000Y47099000D01*
X76904750Y46705250D02*
X76904750Y47492750D01*
X74563064Y54656500D02*
X73358936Y54656500D01*
X74563064Y52836500D02*
X73358936Y52836500D01*
X74563064Y67056500D02*
X73358936Y67056500D01*
X74563064Y65236500D02*
X73358936Y65236500D01*
X44636279Y36256500D02*
X44310721Y36256500D01*
X44636279Y35236500D02*
X44310721Y35236500D01*
X44623779Y37756500D02*
X44298221Y37756500D01*
X44623779Y36736500D02*
X44298221Y36736500D01*
X36711279Y51056500D02*
X36385721Y51056500D01*
X36711279Y50036500D02*
X36385721Y50036500D01*
X36711279Y49556500D02*
X36385721Y49556500D01*
X36711279Y48536500D02*
X36385721Y48536500D01*
X6951000Y45896779D02*
X6951000Y45571221D01*
X7971000Y45896779D02*
X7971000Y45571221D01*
X57023779Y36156500D02*
X56698221Y36156500D01*
X57023779Y35136500D02*
X56698221Y35136500D01*
X10451000Y87121779D02*
X10451000Y86796221D01*
X11471000Y87121779D02*
X11471000Y86796221D01*
X1951000Y91056500D02*
X1951000Y88706500D01*
X1951000Y84236500D02*
X1951000Y86586500D01*
X7706563Y84236500D02*
X1951000Y84236500D01*
X7706563Y91056500D02*
X1951000Y91056500D01*
X8771000Y89992063D02*
X8771000Y88706500D01*
X8771000Y85300937D02*
X8771000Y86586500D01*
X8771000Y85300937D02*
X7706563Y84236500D01*
X8771000Y89992063D02*
X7706563Y91056500D01*
X9798500Y85799000D02*
X9011000Y85799000D01*
X9404750Y85405250D02*
X9404750Y86192750D01*
X61523779Y37356500D02*
X61198221Y37356500D01*
X61523779Y36336500D02*
X61198221Y36336500D01*
M02*
