%TF.GenerationSoftware,KiCad,Pcbnew,6.0.0-unknown-a0ed408~86~ubuntu19.04.1*%
%TF.CreationDate,2019-08-18T20:16:58-07:00*%
%TF.ProjectId,PrntrBoardV1,50726e74-7242-46f6-9172-6456312e6b69,rev?*%
%TF.SameCoordinates,PX1303eb8PY7093f24*%
%TF.FileFunction,Legend,Top*%
%TF.FilePolarity,Positive*%
%FSLAX46Y46*%
G04 Gerber Fmt 4.6, Leading zero omitted, Abs format (unit mm)*
G04 Created by KiCad (PCBNEW 6.0.0-unknown-a0ed408~86~ubuntu19.04.1) date 2019-08-18 20:16:58*
%MOMM*%
%LPD*%
G04 APERTURE LIST*
%ADD10C,0.200000*%
%ADD11C,0.150000*%
%ADD12C,0.250000*%
%ADD13C,0.120000*%
%ADD14C,0.152400*%
%ADD15C,0.010000*%
%ADD16C,0.100000*%
G04 APERTURE END LIST*
D10*
X8981880Y77002215D02*
X7981880Y77002215D01*
X7981880Y77383167D01*
X8029500Y77478405D01*
X8077119Y77526024D01*
X8172357Y77573643D01*
X8315214Y77573643D01*
X8410452Y77526024D01*
X8458071Y77478405D01*
X8505690Y77383167D01*
X8505690Y77002215D01*
X8981880Y78145072D02*
X8934261Y78049834D01*
X8886642Y78002215D01*
X8791404Y77954596D01*
X8505690Y77954596D01*
X8410452Y78002215D01*
X8362833Y78049834D01*
X8315214Y78145072D01*
X8315214Y78287929D01*
X8362833Y78383167D01*
X8410452Y78430786D01*
X8505690Y78478405D01*
X8791404Y78478405D01*
X8886642Y78430786D01*
X8934261Y78383167D01*
X8981880Y78287929D01*
X8981880Y78145072D01*
X8315214Y78811739D02*
X8981880Y79002215D01*
X8505690Y79192691D01*
X8981880Y79383167D01*
X8315214Y79573643D01*
X8934261Y80335548D02*
X8981880Y80240310D01*
X8981880Y80049834D01*
X8934261Y79954596D01*
X8839023Y79906977D01*
X8458071Y79906977D01*
X8362833Y79954596D01*
X8315214Y80049834D01*
X8315214Y80240310D01*
X8362833Y80335548D01*
X8458071Y80383167D01*
X8553309Y80383167D01*
X8648547Y79906977D01*
X8981880Y80811739D02*
X8315214Y80811739D01*
X8505690Y80811739D02*
X8410452Y80859358D01*
X8362833Y80906977D01*
X8315214Y81002215D01*
X8315214Y81097453D01*
X8600928Y82192691D02*
X8600928Y82954596D01*
X8600928Y83430786D02*
X8600928Y84192691D01*
X8315214Y84668881D02*
X8600928Y85430786D01*
X8886642Y84668881D01*
X10972833Y78121262D02*
X10925214Y78073643D01*
X10782357Y77978405D01*
X10687119Y77930786D01*
X10544261Y77883167D01*
X10306166Y77835548D01*
X10115690Y77835548D01*
X9877595Y77883167D01*
X9734738Y77930786D01*
X9639500Y77978405D01*
X9496642Y78073643D01*
X9449023Y78121262D01*
X10591880Y79026024D02*
X10591880Y78454596D01*
X10591880Y78740310D02*
X9591880Y78740310D01*
X9734738Y78645072D01*
X9829976Y78549834D01*
X9877595Y78454596D01*
X9687119Y79406977D02*
X9639500Y79454596D01*
X9591880Y79549834D01*
X9591880Y79787929D01*
X9639500Y79883167D01*
X9687119Y79930786D01*
X9782357Y79978405D01*
X9877595Y79978405D01*
X10020452Y79930786D01*
X10591880Y79359358D01*
X10591880Y79978405D01*
X10210928Y80406977D02*
X10210928Y81168881D01*
X9687119Y81597453D02*
X9639500Y81645072D01*
X9591880Y81740310D01*
X9591880Y81978405D01*
X9639500Y82073643D01*
X9687119Y82121262D01*
X9782357Y82168881D01*
X9877595Y82168881D01*
X10020452Y82121262D01*
X10591880Y81549834D01*
X10591880Y82168881D01*
X9925214Y83026024D02*
X10591880Y83026024D01*
X9544261Y82787929D02*
X10258547Y82549834D01*
X10258547Y83168881D01*
X9591880Y83406977D02*
X10591880Y83740310D01*
X9591880Y84073643D01*
X10972833Y84311739D02*
X10925214Y84359358D01*
X10782357Y84454596D01*
X10687119Y84502215D01*
X10544261Y84549834D01*
X10306166Y84597453D01*
X10115690Y84597453D01*
X9877595Y84549834D01*
X9734738Y84502215D01*
X9639500Y84454596D01*
X9496642Y84359358D01*
X9449023Y84311739D01*
D11*
X49343500Y51655215D02*
X49843500Y51655215D01*
X49343500Y50905215D01*
X49843500Y50905215D01*
X49530000Y52913358D02*
X49530000Y52556215D01*
X49280000Y53306215D02*
X49530000Y52913358D01*
X49780000Y53306215D01*
X49407000Y54957215D02*
X49907000Y54207215D01*
X49907000Y54957215D02*
X49407000Y54207215D01*
X16722571Y44174215D02*
X16722571Y44924215D01*
X16722571Y44567072D02*
X17151142Y44567072D01*
X17151142Y44174215D02*
X17151142Y44924215D01*
X17794000Y44209929D02*
X17722571Y44174215D01*
X17579714Y44174215D01*
X17508285Y44209929D01*
X17472571Y44281358D01*
X17472571Y44567072D01*
X17508285Y44638500D01*
X17579714Y44674215D01*
X17722571Y44674215D01*
X17794000Y44638500D01*
X17829714Y44567072D01*
X17829714Y44495643D01*
X17472571Y44424215D01*
X18472571Y44174215D02*
X18472571Y44567072D01*
X18436857Y44638500D01*
X18365428Y44674215D01*
X18222571Y44674215D01*
X18151142Y44638500D01*
X18472571Y44209929D02*
X18401142Y44174215D01*
X18222571Y44174215D01*
X18151142Y44209929D01*
X18115428Y44281358D01*
X18115428Y44352786D01*
X18151142Y44424215D01*
X18222571Y44459929D01*
X18401142Y44459929D01*
X18472571Y44495643D01*
X18722571Y44674215D02*
X19008285Y44674215D01*
X18829714Y44924215D02*
X18829714Y44281358D01*
X18865428Y44209929D01*
X18936857Y44174215D01*
X19008285Y44174215D01*
X19544000Y44209929D02*
X19472571Y44174215D01*
X19329714Y44174215D01*
X19258285Y44209929D01*
X19222571Y44281358D01*
X19222571Y44567072D01*
X19258285Y44638500D01*
X19329714Y44674215D01*
X19472571Y44674215D01*
X19544000Y44638500D01*
X19579714Y44567072D01*
X19579714Y44495643D01*
X19222571Y44424215D01*
X19901142Y44174215D02*
X19901142Y44674215D01*
X19901142Y44531358D02*
X19936857Y44602786D01*
X19972571Y44638500D01*
X20044000Y44674215D01*
X20115428Y44674215D01*
X20329714Y44209929D02*
X20401142Y44174215D01*
X20544000Y44174215D01*
X20615428Y44209929D01*
X20651142Y44281358D01*
X20651142Y44317072D01*
X20615428Y44388500D01*
X20544000Y44424215D01*
X20436857Y44424215D01*
X20365428Y44459929D01*
X20329714Y44531358D01*
X20329714Y44567072D01*
X20365428Y44638500D01*
X20436857Y44674215D01*
X20544000Y44674215D01*
X20615428Y44638500D01*
X19738642Y46535572D02*
X19988642Y46535572D01*
X20095785Y46142715D02*
X19738642Y46142715D01*
X19738642Y46892715D01*
X20095785Y46892715D01*
X20381500Y46821286D02*
X20417214Y46857000D01*
X20488642Y46892715D01*
X20667214Y46892715D01*
X20738642Y46857000D01*
X20774357Y46821286D01*
X20810071Y46749858D01*
X20810071Y46678429D01*
X20774357Y46571286D01*
X20345785Y46142715D01*
X20810071Y46142715D01*
X18087642Y46535572D02*
X18337642Y46535572D01*
X18444785Y46142715D02*
X18087642Y46142715D01*
X18087642Y46892715D01*
X18444785Y46892715D01*
X19159071Y46142715D02*
X18730500Y46142715D01*
X18944785Y46142715D02*
X18944785Y46892715D01*
X18873357Y46785572D01*
X18801928Y46714143D01*
X18730500Y46678429D01*
X16964428Y45503786D02*
X17000142Y45610929D01*
X17035857Y45646643D01*
X17107285Y45682358D01*
X17214428Y45682358D01*
X17285857Y45646643D01*
X17321571Y45610929D01*
X17357285Y45539500D01*
X17357285Y45253786D01*
X16607285Y45253786D01*
X16607285Y45503786D01*
X16643000Y45575215D01*
X16678714Y45610929D01*
X16750142Y45646643D01*
X16821571Y45646643D01*
X16893000Y45610929D01*
X16928714Y45575215D01*
X16964428Y45503786D01*
X16964428Y45253786D01*
X16964428Y46003786D02*
X16964428Y46253786D01*
X17357285Y46360929D02*
X17357285Y46003786D01*
X16607285Y46003786D01*
X16607285Y46360929D01*
X17357285Y46682358D02*
X16607285Y46682358D01*
X16607285Y46860929D01*
X16643000Y46968072D01*
X16714428Y47039500D01*
X16785857Y47075215D01*
X16928714Y47110929D01*
X17035857Y47110929D01*
X17178714Y47075215D01*
X17250142Y47039500D01*
X17321571Y46968072D01*
X17357285Y46860929D01*
X17357285Y46682358D01*
X24053214Y47647322D02*
X23803214Y47647322D01*
X23803214Y47254465D02*
X23803214Y48004465D01*
X24160357Y48004465D01*
X24767500Y47254465D02*
X24767500Y47647322D01*
X24731785Y47718750D01*
X24660357Y47754465D01*
X24517500Y47754465D01*
X24446071Y47718750D01*
X24767500Y47290179D02*
X24696071Y47254465D01*
X24517500Y47254465D01*
X24446071Y47290179D01*
X24410357Y47361608D01*
X24410357Y47433036D01*
X24446071Y47504465D01*
X24517500Y47540179D01*
X24696071Y47540179D01*
X24767500Y47575893D01*
X25124642Y47754465D02*
X25124642Y47254465D01*
X25124642Y47683036D02*
X25160357Y47718750D01*
X25231785Y47754465D01*
X25338928Y47754465D01*
X25410357Y47718750D01*
X25446071Y47647322D01*
X25446071Y47254465D01*
X26338928Y48040179D02*
X25696071Y47075893D01*
X26481785Y48004465D02*
X26910357Y48004465D01*
X26696071Y47254465D02*
X26696071Y48004465D01*
X27160357Y47254465D02*
X27160357Y48004465D01*
X27481785Y47254465D02*
X27481785Y47647322D01*
X27446071Y47718750D01*
X27374642Y47754465D01*
X27267500Y47754465D01*
X27196071Y47718750D01*
X27160357Y47683036D01*
X28124642Y47290179D02*
X28053214Y47254465D01*
X27910357Y47254465D01*
X27838928Y47290179D01*
X27803214Y47361608D01*
X27803214Y47647322D01*
X27838928Y47718750D01*
X27910357Y47754465D01*
X28053214Y47754465D01*
X28124642Y47718750D01*
X28160357Y47647322D01*
X28160357Y47575893D01*
X27803214Y47504465D01*
X28481785Y47254465D02*
X28481785Y47754465D01*
X28481785Y47611608D02*
X28517500Y47683036D01*
X28553214Y47718750D01*
X28624642Y47754465D01*
X28696071Y47754465D01*
X28946071Y47254465D02*
X28946071Y47754465D01*
X28946071Y47683036D02*
X28981785Y47718750D01*
X29053214Y47754465D01*
X29160357Y47754465D01*
X29231785Y47718750D01*
X29267500Y47647322D01*
X29267500Y47254465D01*
X29267500Y47647322D02*
X29303214Y47718750D01*
X29374642Y47754465D01*
X29481785Y47754465D01*
X29553214Y47718750D01*
X29588928Y47647322D01*
X29588928Y47254465D01*
X30053214Y47254465D02*
X29981785Y47290179D01*
X29946071Y47325893D01*
X29910357Y47397322D01*
X29910357Y47611608D01*
X29946071Y47683036D01*
X29981785Y47718750D01*
X30053214Y47754465D01*
X30160357Y47754465D01*
X30231785Y47718750D01*
X30267500Y47683036D01*
X30303214Y47611608D01*
X30303214Y47397322D01*
X30267500Y47325893D01*
X30231785Y47290179D01*
X30160357Y47254465D01*
X30053214Y47254465D01*
X30946071Y47290179D02*
X30874642Y47254465D01*
X30731785Y47254465D01*
X30660357Y47290179D01*
X30624642Y47325893D01*
X30588928Y47397322D01*
X30588928Y47611608D01*
X30624642Y47683036D01*
X30660357Y47718750D01*
X30731785Y47754465D01*
X30874642Y47754465D01*
X30946071Y47718750D01*
X31374642Y47254465D02*
X31303214Y47290179D01*
X31267500Y47325893D01*
X31231785Y47397322D01*
X31231785Y47611608D01*
X31267500Y47683036D01*
X31303214Y47718750D01*
X31374642Y47754465D01*
X31481785Y47754465D01*
X31553214Y47718750D01*
X31588928Y47683036D01*
X31624642Y47611608D01*
X31624642Y47397322D01*
X31588928Y47325893D01*
X31553214Y47290179D01*
X31481785Y47254465D01*
X31374642Y47254465D01*
X32267500Y47754465D02*
X32267500Y47254465D01*
X31946071Y47754465D02*
X31946071Y47361608D01*
X31981785Y47290179D01*
X32053214Y47254465D01*
X32160357Y47254465D01*
X32231785Y47290179D01*
X32267500Y47325893D01*
X32624642Y47754465D02*
X32624642Y47004465D01*
X32624642Y47718750D02*
X32696071Y47754465D01*
X32838928Y47754465D01*
X32910357Y47718750D01*
X32946071Y47683036D01*
X32981785Y47611608D01*
X32981785Y47397322D01*
X32946071Y47325893D01*
X32910357Y47290179D01*
X32838928Y47254465D01*
X32696071Y47254465D01*
X32624642Y47290179D01*
X33410357Y47254465D02*
X33338928Y47290179D01*
X33303214Y47361608D01*
X33303214Y48004465D01*
X33981785Y47290179D02*
X33910357Y47254465D01*
X33767500Y47254465D01*
X33696071Y47290179D01*
X33660357Y47361608D01*
X33660357Y47647322D01*
X33696071Y47718750D01*
X33767500Y47754465D01*
X33910357Y47754465D01*
X33981785Y47718750D01*
X34017500Y47647322D01*
X34017500Y47575893D01*
X33660357Y47504465D01*
X26428214Y46082679D02*
X26535357Y46046965D01*
X26713928Y46046965D01*
X26785357Y46082679D01*
X26821071Y46118393D01*
X26856785Y46189822D01*
X26856785Y46261250D01*
X26821071Y46332679D01*
X26785357Y46368393D01*
X26713928Y46404108D01*
X26571071Y46439822D01*
X26499642Y46475536D01*
X26463928Y46511250D01*
X26428214Y46582679D01*
X26428214Y46654108D01*
X26463928Y46725536D01*
X26499642Y46761250D01*
X26571071Y46796965D01*
X26749642Y46796965D01*
X26856785Y46761250D01*
X27463928Y46082679D02*
X27392500Y46046965D01*
X27249642Y46046965D01*
X27178214Y46082679D01*
X27142500Y46154108D01*
X27142500Y46439822D01*
X27178214Y46511250D01*
X27249642Y46546965D01*
X27392500Y46546965D01*
X27463928Y46511250D01*
X27499642Y46439822D01*
X27499642Y46368393D01*
X27142500Y46296965D01*
X27928214Y46046965D02*
X27856785Y46082679D01*
X27821071Y46154108D01*
X27821071Y46796965D01*
X28499642Y46082679D02*
X28428214Y46046965D01*
X28285357Y46046965D01*
X28213928Y46082679D01*
X28178214Y46154108D01*
X28178214Y46439822D01*
X28213928Y46511250D01*
X28285357Y46546965D01*
X28428214Y46546965D01*
X28499642Y46511250D01*
X28535357Y46439822D01*
X28535357Y46368393D01*
X28178214Y46296965D01*
X29178214Y46082679D02*
X29106785Y46046965D01*
X28963928Y46046965D01*
X28892500Y46082679D01*
X28856785Y46118393D01*
X28821071Y46189822D01*
X28821071Y46404108D01*
X28856785Y46475536D01*
X28892500Y46511250D01*
X28963928Y46546965D01*
X29106785Y46546965D01*
X29178214Y46511250D01*
X29392500Y46546965D02*
X29678214Y46546965D01*
X29499642Y46796965D02*
X29499642Y46154108D01*
X29535357Y46082679D01*
X29606785Y46046965D01*
X29678214Y46046965D01*
X30035357Y46046965D02*
X29963928Y46082679D01*
X29928214Y46118393D01*
X29892500Y46189822D01*
X29892500Y46404108D01*
X29928214Y46475536D01*
X29963928Y46511250D01*
X30035357Y46546965D01*
X30142500Y46546965D01*
X30213928Y46511250D01*
X30249642Y46475536D01*
X30285357Y46404108D01*
X30285357Y46189822D01*
X30249642Y46118393D01*
X30213928Y46082679D01*
X30142500Y46046965D01*
X30035357Y46046965D01*
X30606785Y46046965D02*
X30606785Y46546965D01*
X30606785Y46404108D02*
X30642500Y46475536D01*
X30678214Y46511250D01*
X30749642Y46546965D01*
X30821071Y46546965D01*
X31035357Y46082679D02*
X31106785Y46046965D01*
X31249642Y46046965D01*
X31321071Y46082679D01*
X31356785Y46154108D01*
X31356785Y46189822D01*
X31321071Y46261250D01*
X31249642Y46296965D01*
X31142500Y46296965D01*
X31071071Y46332679D01*
X31035357Y46404108D01*
X31035357Y46439822D01*
X31071071Y46511250D01*
X31142500Y46546965D01*
X31249642Y46546965D01*
X31321071Y46511250D01*
D10*
X28376571Y50078048D02*
X28376571Y49744715D01*
X28900380Y49744715D02*
X27900380Y49744715D01*
X27900380Y50220905D01*
X28900380Y51030429D02*
X28376571Y51030429D01*
X28281333Y50982810D01*
X28233714Y50887572D01*
X28233714Y50697096D01*
X28281333Y50601858D01*
X28852761Y51030429D02*
X28900380Y50935191D01*
X28900380Y50697096D01*
X28852761Y50601858D01*
X28757523Y50554239D01*
X28662285Y50554239D01*
X28567047Y50601858D01*
X28519428Y50697096D01*
X28519428Y50935191D01*
X28471809Y51030429D01*
X28233714Y51506620D02*
X28900380Y51506620D01*
X28328952Y51506620D02*
X28281333Y51554239D01*
X28233714Y51649477D01*
X28233714Y51792334D01*
X28281333Y51887572D01*
X28376571Y51935191D01*
X28900380Y51935191D01*
X29233714Y53411381D02*
X27805142Y53411381D01*
X27900380Y54744715D02*
X27900380Y55316143D01*
X28900380Y55030429D02*
X27900380Y55030429D01*
X28805142Y56220905D02*
X28852761Y56173286D01*
X28900380Y56030429D01*
X28900380Y55935191D01*
X28852761Y55792334D01*
X28757523Y55697096D01*
X28662285Y55649477D01*
X28471809Y55601858D01*
X28328952Y55601858D01*
X28138476Y55649477D01*
X28043238Y55697096D01*
X27948000Y55792334D01*
X27900380Y55935191D01*
X27900380Y56030429D01*
X27948000Y56173286D01*
X27995619Y56220905D01*
D11*
X66919142Y64506072D02*
X67169142Y64506072D01*
X67276285Y64113215D02*
X66919142Y64113215D01*
X66919142Y64863215D01*
X67276285Y64863215D01*
X67562000Y64791786D02*
X67597714Y64827500D01*
X67669142Y64863215D01*
X67847714Y64863215D01*
X67919142Y64827500D01*
X67954857Y64791786D01*
X67990571Y64720358D01*
X67990571Y64648929D01*
X67954857Y64541786D01*
X67526285Y64113215D01*
X67990571Y64113215D01*
X67300142Y81016072D02*
X67550142Y81016072D01*
X67657285Y80623215D02*
X67300142Y80623215D01*
X67300142Y81373215D01*
X67657285Y81373215D01*
X68371571Y80623215D02*
X67943000Y80623215D01*
X68157285Y80623215D02*
X68157285Y81373215D01*
X68085857Y81266072D01*
X68014428Y81194643D01*
X67943000Y81158929D01*
X77718142Y67085715D02*
X77968142Y66335715D01*
X78218142Y67085715D01*
X78468142Y66335715D02*
X78468142Y66835715D01*
X78468142Y67085715D02*
X78432428Y67050000D01*
X78468142Y67014286D01*
X78503857Y67050000D01*
X78468142Y67085715D01*
X78468142Y67014286D01*
X78825285Y66835715D02*
X78825285Y66335715D01*
X78825285Y66764286D02*
X78861000Y66800000D01*
X78932428Y66835715D01*
X79039571Y66835715D01*
X79111000Y66800000D01*
X79146714Y66728572D01*
X79146714Y66335715D01*
X77894857Y64907000D02*
X77859142Y64942715D01*
X77787714Y65049858D01*
X77752000Y65121286D01*
X77716285Y65228429D01*
X77680571Y65407000D01*
X77680571Y65549858D01*
X77716285Y65728429D01*
X77752000Y65835572D01*
X77787714Y65907000D01*
X77859142Y66014143D01*
X77894857Y66049858D01*
X78180571Y65478429D02*
X78752000Y65478429D01*
X80252000Y65478429D02*
X80823428Y65478429D01*
X80537714Y65192715D02*
X80537714Y65764143D01*
X81109142Y64907000D02*
X81144857Y64942715D01*
X81216285Y65049858D01*
X81252000Y65121286D01*
X81287714Y65228429D01*
X81323428Y65407000D01*
X81323428Y65549858D01*
X81287714Y65728429D01*
X81252000Y65835572D01*
X81216285Y65907000D01*
X81144857Y66014143D01*
X81109142Y66049858D01*
X71040642Y49178715D02*
X70683500Y49178715D01*
X70647785Y48821572D01*
X70683500Y48857286D01*
X70754928Y48893000D01*
X70933500Y48893000D01*
X71004928Y48857286D01*
X71040642Y48821572D01*
X71076357Y48750143D01*
X71076357Y48571572D01*
X71040642Y48500143D01*
X71004928Y48464429D01*
X70933500Y48428715D01*
X70754928Y48428715D01*
X70683500Y48464429D01*
X70647785Y48500143D01*
X71290642Y49178715D02*
X71540642Y48428715D01*
X71790642Y49178715D01*
X70655857Y46873000D02*
X70620142Y46908715D01*
X70548714Y47015858D01*
X70513000Y47087286D01*
X70477285Y47194429D01*
X70441571Y47373000D01*
X70441571Y47515858D01*
X70477285Y47694429D01*
X70513000Y47801572D01*
X70548714Y47873000D01*
X70620142Y47980143D01*
X70655857Y48015858D01*
X70941571Y47444429D02*
X71513000Y47444429D01*
X73013000Y47444429D02*
X73584428Y47444429D01*
X73298714Y47158715D02*
X73298714Y47730143D01*
X73870142Y46873000D02*
X73905857Y46908715D01*
X73977285Y47015858D01*
X74013000Y47087286D01*
X74048714Y47194429D01*
X74084428Y47373000D01*
X74084428Y47515858D01*
X74048714Y47694429D01*
X74013000Y47801572D01*
X73977285Y47873000D01*
X73905857Y47980143D01*
X73870142Y48015858D01*
X35134071Y18564322D02*
X34884071Y18564322D01*
X34884071Y18171465D02*
X34884071Y18921465D01*
X35241214Y18921465D01*
X35848357Y18171465D02*
X35848357Y18564322D01*
X35812642Y18635750D01*
X35741214Y18671465D01*
X35598357Y18671465D01*
X35526928Y18635750D01*
X35848357Y18207179D02*
X35776928Y18171465D01*
X35598357Y18171465D01*
X35526928Y18207179D01*
X35491214Y18278608D01*
X35491214Y18350036D01*
X35526928Y18421465D01*
X35598357Y18457179D01*
X35776928Y18457179D01*
X35848357Y18492893D01*
X36205500Y18671465D02*
X36205500Y18171465D01*
X36205500Y18600036D02*
X36241214Y18635750D01*
X36312642Y18671465D01*
X36419785Y18671465D01*
X36491214Y18635750D01*
X36526928Y18564322D01*
X36526928Y18171465D01*
X37776928Y18207179D02*
X37705500Y18171465D01*
X37562642Y18171465D01*
X37491214Y18207179D01*
X37455500Y18242893D01*
X37419785Y18314322D01*
X37419785Y18528608D01*
X37455500Y18600036D01*
X37491214Y18635750D01*
X37562642Y18671465D01*
X37705500Y18671465D01*
X37776928Y18635750D01*
X38205500Y18171465D02*
X38134071Y18207179D01*
X38098357Y18242893D01*
X38062642Y18314322D01*
X38062642Y18528608D01*
X38098357Y18600036D01*
X38134071Y18635750D01*
X38205500Y18671465D01*
X38312642Y18671465D01*
X38384071Y18635750D01*
X38419785Y18600036D01*
X38455500Y18528608D01*
X38455500Y18314322D01*
X38419785Y18242893D01*
X38384071Y18207179D01*
X38312642Y18171465D01*
X38205500Y18171465D01*
X38776928Y18671465D02*
X38776928Y18171465D01*
X38776928Y18600036D02*
X38812642Y18635750D01*
X38884071Y18671465D01*
X38991214Y18671465D01*
X39062642Y18635750D01*
X39098357Y18564322D01*
X39098357Y18171465D01*
X39741214Y18207179D02*
X39669785Y18171465D01*
X39526928Y18171465D01*
X39455500Y18207179D01*
X39419785Y18278608D01*
X39419785Y18564322D01*
X39455500Y18635750D01*
X39526928Y18671465D01*
X39669785Y18671465D01*
X39741214Y18635750D01*
X39776928Y18564322D01*
X39776928Y18492893D01*
X39419785Y18421465D01*
X40419785Y18207179D02*
X40348357Y18171465D01*
X40205500Y18171465D01*
X40134071Y18207179D01*
X40098357Y18242893D01*
X40062642Y18314322D01*
X40062642Y18528608D01*
X40098357Y18600036D01*
X40134071Y18635750D01*
X40205500Y18671465D01*
X40348357Y18671465D01*
X40419785Y18635750D01*
X40634071Y18671465D02*
X40919785Y18671465D01*
X40741214Y18921465D02*
X40741214Y18278608D01*
X40776928Y18207179D01*
X40848357Y18171465D01*
X40919785Y18171465D01*
X41276928Y18171465D02*
X41205500Y18207179D01*
X41169785Y18242893D01*
X41134071Y18314322D01*
X41134071Y18528608D01*
X41169785Y18600036D01*
X41205500Y18635750D01*
X41276928Y18671465D01*
X41384071Y18671465D01*
X41455500Y18635750D01*
X41491214Y18600036D01*
X41526928Y18528608D01*
X41526928Y18314322D01*
X41491214Y18242893D01*
X41455500Y18207179D01*
X41384071Y18171465D01*
X41276928Y18171465D01*
X41848357Y18171465D02*
X41848357Y18671465D01*
X41848357Y18528608D02*
X41884071Y18600036D01*
X41919785Y18635750D01*
X41991214Y18671465D01*
X42062642Y18671465D01*
X42884071Y18671465D02*
X42884071Y17921465D01*
X42884071Y18635750D02*
X42955500Y18671465D01*
X43098357Y18671465D01*
X43169785Y18635750D01*
X43205500Y18600036D01*
X43241214Y18528608D01*
X43241214Y18314322D01*
X43205500Y18242893D01*
X43169785Y18207179D01*
X43098357Y18171465D01*
X42955500Y18171465D01*
X42884071Y18207179D01*
X43669785Y18171465D02*
X43598357Y18207179D01*
X43562642Y18242893D01*
X43526928Y18314322D01*
X43526928Y18528608D01*
X43562642Y18600036D01*
X43598357Y18635750D01*
X43669785Y18671465D01*
X43776928Y18671465D01*
X43848357Y18635750D01*
X43884071Y18600036D01*
X43919785Y18528608D01*
X43919785Y18314322D01*
X43884071Y18242893D01*
X43848357Y18207179D01*
X43776928Y18171465D01*
X43669785Y18171465D01*
X44348357Y18171465D02*
X44276928Y18207179D01*
X44241214Y18278608D01*
X44241214Y18921465D01*
X44955500Y18171465D02*
X44955500Y18564322D01*
X44919785Y18635750D01*
X44848357Y18671465D01*
X44705500Y18671465D01*
X44634071Y18635750D01*
X44955500Y18207179D02*
X44884071Y18171465D01*
X44705500Y18171465D01*
X44634071Y18207179D01*
X44598357Y18278608D01*
X44598357Y18350036D01*
X44634071Y18421465D01*
X44705500Y18457179D01*
X44884071Y18457179D01*
X44955500Y18492893D01*
X45312642Y18171465D02*
X45312642Y18671465D01*
X45312642Y18528608D02*
X45348357Y18600036D01*
X45384071Y18635750D01*
X45455500Y18671465D01*
X45526928Y18671465D01*
X45776928Y18171465D02*
X45776928Y18671465D01*
X45776928Y18921465D02*
X45741214Y18885750D01*
X45776928Y18850036D01*
X45812642Y18885750D01*
X45776928Y18921465D01*
X45776928Y18850036D01*
X46026928Y18671465D02*
X46312642Y18671465D01*
X46134071Y18921465D02*
X46134071Y18278608D01*
X46169785Y18207179D01*
X46241214Y18171465D01*
X46312642Y18171465D01*
X46491214Y18671465D02*
X46669785Y18171465D01*
X46848357Y18671465D02*
X46669785Y18171465D01*
X46598357Y17992893D01*
X46562642Y17957179D01*
X46491214Y17921465D01*
X38937642Y16678250D02*
X38901928Y16713965D01*
X38830500Y16821108D01*
X38794785Y16892536D01*
X38759071Y16999679D01*
X38723357Y17178250D01*
X38723357Y17321108D01*
X38759071Y17499679D01*
X38794785Y17606822D01*
X38830500Y17678250D01*
X38901928Y17785393D01*
X38937642Y17821108D01*
X39223357Y17249679D02*
X39794785Y17249679D01*
X39509071Y16963965D02*
X39509071Y17535393D01*
X41866214Y17249679D02*
X42437642Y17249679D01*
X42723357Y16678250D02*
X42759071Y16713965D01*
X42830500Y16821108D01*
X42866214Y16892536D01*
X42901928Y16999679D01*
X42937642Y17178250D01*
X42937642Y17321108D01*
X42901928Y17499679D01*
X42866214Y17606822D01*
X42830500Y17678250D01*
X42759071Y17785393D01*
X42723357Y17821108D01*
X77196357Y8074500D02*
X77160642Y8110215D01*
X77089214Y8217358D01*
X77053500Y8288786D01*
X77017785Y8395929D01*
X76982071Y8574500D01*
X76982071Y8717358D01*
X77017785Y8895929D01*
X77053500Y9003072D01*
X77089214Y9074500D01*
X77160642Y9181643D01*
X77196357Y9217358D01*
X77482071Y8645929D02*
X78053500Y8645929D01*
X79553500Y8645929D02*
X80124928Y8645929D01*
X79839214Y8360215D02*
X79839214Y8931643D01*
X80410642Y8074500D02*
X80446357Y8110215D01*
X80517785Y8217358D01*
X80553500Y8288786D01*
X80589214Y8395929D01*
X80624928Y8574500D01*
X80624928Y8717358D01*
X80589214Y8895929D01*
X80553500Y9003072D01*
X80517785Y9074500D01*
X80446357Y9181643D01*
X80410642Y9217358D01*
X77196357Y3312000D02*
X77160642Y3347715D01*
X77089214Y3454858D01*
X77053500Y3526286D01*
X77017785Y3633429D01*
X76982071Y3812000D01*
X76982071Y3954858D01*
X77017785Y4133429D01*
X77053500Y4240572D01*
X77089214Y4312000D01*
X77160642Y4419143D01*
X77196357Y4454858D01*
X77482071Y3883429D02*
X78053500Y3883429D01*
X79553500Y3883429D02*
X80124928Y3883429D01*
X79839214Y3597715D02*
X79839214Y4169143D01*
X80410642Y3312000D02*
X80446357Y3347715D01*
X80517785Y3454858D01*
X80553500Y3526286D01*
X80589214Y3633429D01*
X80624928Y3812000D01*
X80624928Y3954858D01*
X80589214Y4133429D01*
X80553500Y4240572D01*
X80517785Y4312000D01*
X80446357Y4419143D01*
X80410642Y4454858D01*
X77019642Y10253215D02*
X77269642Y9503215D01*
X77519642Y10253215D01*
X77769642Y9503215D02*
X77769642Y10003215D01*
X77769642Y10253215D02*
X77733928Y10217500D01*
X77769642Y10181786D01*
X77805357Y10217500D01*
X77769642Y10253215D01*
X77769642Y10181786D01*
X78126785Y10003215D02*
X78126785Y9503215D01*
X78126785Y9931786D02*
X78162500Y9967500D01*
X78233928Y10003215D01*
X78341071Y10003215D01*
X78412500Y9967500D01*
X78448214Y9896072D01*
X78448214Y9503215D01*
X77581142Y5617715D02*
X77224000Y5617715D01*
X77188285Y5260572D01*
X77224000Y5296286D01*
X77295428Y5332000D01*
X77474000Y5332000D01*
X77545428Y5296286D01*
X77581142Y5260572D01*
X77616857Y5189143D01*
X77616857Y5010572D01*
X77581142Y4939143D01*
X77545428Y4903429D01*
X77474000Y4867715D01*
X77295428Y4867715D01*
X77224000Y4903429D01*
X77188285Y4939143D01*
X77831142Y5617715D02*
X78081142Y4867715D01*
X78331142Y5617715D01*
X59723785Y10281286D02*
X59723785Y9924143D01*
X60080928Y9888429D01*
X60045214Y9924143D01*
X60009500Y9995572D01*
X60009500Y10174143D01*
X60045214Y10245572D01*
X60080928Y10281286D01*
X60152357Y10317000D01*
X60330928Y10317000D01*
X60402357Y10281286D01*
X60438071Y10245572D01*
X60473785Y10174143D01*
X60473785Y9995572D01*
X60438071Y9924143D01*
X60402357Y9888429D01*
X59723785Y10531286D02*
X60473785Y10781286D01*
X59723785Y11031286D01*
X60723785Y12031286D02*
X59652357Y12031286D01*
X59723785Y13031286D02*
X60473785Y13281286D01*
X59723785Y13531286D01*
X60473785Y13781286D02*
X59973785Y13781286D01*
X59723785Y13781286D02*
X59759500Y13745572D01*
X59795214Y13781286D01*
X59759500Y13817000D01*
X59723785Y13781286D01*
X59795214Y13781286D01*
X59973785Y14138429D02*
X60473785Y14138429D01*
X60045214Y14138429D02*
X60009500Y14174143D01*
X59973785Y14245572D01*
X59973785Y14352715D01*
X60009500Y14424143D01*
X60080928Y14459858D01*
X60473785Y14459858D01*
X57508678Y9489643D02*
X57508678Y9239643D01*
X57901535Y9239643D02*
X57151535Y9239643D01*
X57151535Y9596786D01*
X57901535Y10203929D02*
X57508678Y10203929D01*
X57437250Y10168215D01*
X57401535Y10096786D01*
X57401535Y9953929D01*
X57437250Y9882500D01*
X57865821Y10203929D02*
X57901535Y10132500D01*
X57901535Y9953929D01*
X57865821Y9882500D01*
X57794392Y9846786D01*
X57722964Y9846786D01*
X57651535Y9882500D01*
X57615821Y9953929D01*
X57615821Y10132500D01*
X57580107Y10203929D01*
X57401535Y10561072D02*
X57901535Y10561072D01*
X57472964Y10561072D02*
X57437250Y10596786D01*
X57401535Y10668215D01*
X57401535Y10775358D01*
X57437250Y10846786D01*
X57508678Y10882500D01*
X57901535Y10882500D01*
X57401535Y11739643D02*
X57901535Y11918215D01*
X57401535Y12096786D01*
X57901535Y12489643D02*
X57865821Y12418215D01*
X57830107Y12382500D01*
X57758678Y12346786D01*
X57544392Y12346786D01*
X57472964Y12382500D01*
X57437250Y12418215D01*
X57401535Y12489643D01*
X57401535Y12596786D01*
X57437250Y12668215D01*
X57472964Y12703929D01*
X57544392Y12739643D01*
X57758678Y12739643D01*
X57830107Y12703929D01*
X57865821Y12668215D01*
X57901535Y12596786D01*
X57901535Y12489643D01*
X57901535Y13168215D02*
X57865821Y13096786D01*
X57794392Y13061072D01*
X57151535Y13061072D01*
X57401535Y13346786D02*
X57401535Y13632500D01*
X57151535Y13453929D02*
X57794392Y13453929D01*
X57865821Y13489643D01*
X57901535Y13561072D01*
X57901535Y13632500D01*
X57901535Y14203929D02*
X57508678Y14203929D01*
X57437250Y14168215D01*
X57401535Y14096786D01*
X57401535Y13953929D01*
X57437250Y13882500D01*
X57865821Y14203929D02*
X57901535Y14132500D01*
X57901535Y13953929D01*
X57865821Y13882500D01*
X57794392Y13846786D01*
X57722964Y13846786D01*
X57651535Y13882500D01*
X57615821Y13953929D01*
X57615821Y14132500D01*
X57580107Y14203929D01*
X57401535Y14882500D02*
X58008678Y14882500D01*
X58080107Y14846786D01*
X58115821Y14811072D01*
X58151535Y14739643D01*
X58151535Y14632500D01*
X58115821Y14561072D01*
X57865821Y14882500D02*
X57901535Y14811072D01*
X57901535Y14668215D01*
X57865821Y14596786D01*
X57830107Y14561072D01*
X57758678Y14525358D01*
X57544392Y14525358D01*
X57472964Y14561072D01*
X57437250Y14596786D01*
X57401535Y14668215D01*
X57401535Y14811072D01*
X57437250Y14882500D01*
X57865821Y15525358D02*
X57901535Y15453929D01*
X57901535Y15311072D01*
X57865821Y15239643D01*
X57794392Y15203929D01*
X57508678Y15203929D01*
X57437250Y15239643D01*
X57401535Y15311072D01*
X57401535Y15453929D01*
X57437250Y15525358D01*
X57508678Y15561072D01*
X57580107Y15561072D01*
X57651535Y15203929D01*
X59073321Y10275358D02*
X59109035Y10346786D01*
X59109035Y10489643D01*
X59073321Y10561072D01*
X59001892Y10596786D01*
X58966178Y10596786D01*
X58894750Y10561072D01*
X58859035Y10489643D01*
X58859035Y10382500D01*
X58823321Y10311072D01*
X58751892Y10275358D01*
X58716178Y10275358D01*
X58644750Y10311072D01*
X58609035Y10382500D01*
X58609035Y10489643D01*
X58644750Y10561072D01*
X59073321Y11203929D02*
X59109035Y11132500D01*
X59109035Y10989643D01*
X59073321Y10918215D01*
X59001892Y10882500D01*
X58716178Y10882500D01*
X58644750Y10918215D01*
X58609035Y10989643D01*
X58609035Y11132500D01*
X58644750Y11203929D01*
X58716178Y11239643D01*
X58787607Y11239643D01*
X58859035Y10882500D01*
X59109035Y11668215D02*
X59073321Y11596786D01*
X59001892Y11561072D01*
X58359035Y11561072D01*
X59073321Y12239643D02*
X59109035Y12168215D01*
X59109035Y12025358D01*
X59073321Y11953929D01*
X59001892Y11918215D01*
X58716178Y11918215D01*
X58644750Y11953929D01*
X58609035Y12025358D01*
X58609035Y12168215D01*
X58644750Y12239643D01*
X58716178Y12275358D01*
X58787607Y12275358D01*
X58859035Y11918215D01*
X59073321Y12918215D02*
X59109035Y12846786D01*
X59109035Y12703929D01*
X59073321Y12632500D01*
X59037607Y12596786D01*
X58966178Y12561072D01*
X58751892Y12561072D01*
X58680464Y12596786D01*
X58644750Y12632500D01*
X58609035Y12703929D01*
X58609035Y12846786D01*
X58644750Y12918215D01*
X58609035Y13132500D02*
X58609035Y13418215D01*
X58359035Y13239643D02*
X59001892Y13239643D01*
X59073321Y13275358D01*
X59109035Y13346786D01*
X59109035Y13418215D01*
X59109035Y13775358D02*
X59073321Y13703929D01*
X59037607Y13668215D01*
X58966178Y13632500D01*
X58751892Y13632500D01*
X58680464Y13668215D01*
X58644750Y13703929D01*
X58609035Y13775358D01*
X58609035Y13882500D01*
X58644750Y13953929D01*
X58680464Y13989643D01*
X58751892Y14025358D01*
X58966178Y14025358D01*
X59037607Y13989643D01*
X59073321Y13953929D01*
X59109035Y13882500D01*
X59109035Y13775358D01*
X59109035Y14346786D02*
X58609035Y14346786D01*
X58751892Y14346786D02*
X58680464Y14382500D01*
X58644750Y14418215D01*
X58609035Y14489643D01*
X58609035Y14561072D01*
X24918214Y15865072D02*
X25168214Y15865072D01*
X25275357Y15472215D02*
X24918214Y15472215D01*
X24918214Y16222215D01*
X25275357Y16222215D01*
X25989642Y15472215D02*
X25561071Y15472215D01*
X25775357Y15472215D02*
X25775357Y16222215D01*
X25703928Y16115072D01*
X25632500Y16043643D01*
X25561071Y16007929D01*
X27311071Y15543643D02*
X27275357Y15507929D01*
X27168214Y15472215D01*
X27096785Y15472215D01*
X26989642Y15507929D01*
X26918214Y15579358D01*
X26882500Y15650786D01*
X26846785Y15793643D01*
X26846785Y15900786D01*
X26882500Y16043643D01*
X26918214Y16115072D01*
X26989642Y16186500D01*
X27096785Y16222215D01*
X27168214Y16222215D01*
X27275357Y16186500D01*
X27311071Y16150786D01*
X27739642Y15472215D02*
X27668214Y15507929D01*
X27632500Y15543643D01*
X27596785Y15615072D01*
X27596785Y15829358D01*
X27632500Y15900786D01*
X27668214Y15936500D01*
X27739642Y15972215D01*
X27846785Y15972215D01*
X27918214Y15936500D01*
X27953928Y15900786D01*
X27989642Y15829358D01*
X27989642Y15615072D01*
X27953928Y15543643D01*
X27918214Y15507929D01*
X27846785Y15472215D01*
X27739642Y15472215D01*
X28418214Y15472215D02*
X28346785Y15507929D01*
X28311071Y15543643D01*
X28275357Y15615072D01*
X28275357Y15829358D01*
X28311071Y15900786D01*
X28346785Y15936500D01*
X28418214Y15972215D01*
X28525357Y15972215D01*
X28596785Y15936500D01*
X28632500Y15900786D01*
X28668214Y15829358D01*
X28668214Y15615072D01*
X28632500Y15543643D01*
X28596785Y15507929D01*
X28525357Y15472215D01*
X28418214Y15472215D01*
X29096785Y15472215D02*
X29025357Y15507929D01*
X28989642Y15579358D01*
X28989642Y16222215D01*
X30203928Y15865072D02*
X29953928Y15865072D01*
X29953928Y15472215D02*
X29953928Y16222215D01*
X30311071Y16222215D01*
X30918214Y15472215D02*
X30918214Y15865072D01*
X30882500Y15936500D01*
X30811071Y15972215D01*
X30668214Y15972215D01*
X30596785Y15936500D01*
X30918214Y15507929D02*
X30846785Y15472215D01*
X30668214Y15472215D01*
X30596785Y15507929D01*
X30561071Y15579358D01*
X30561071Y15650786D01*
X30596785Y15722215D01*
X30668214Y15757929D01*
X30846785Y15757929D01*
X30918214Y15793643D01*
X31275357Y15972215D02*
X31275357Y15472215D01*
X31275357Y15900786D02*
X31311071Y15936500D01*
X31382500Y15972215D01*
X31489642Y15972215D01*
X31561071Y15936500D01*
X31596785Y15865072D01*
X31596785Y15472215D01*
X33453000Y15801572D02*
X33703000Y15801572D01*
X33810142Y15408715D02*
X33453000Y15408715D01*
X33453000Y16158715D01*
X33810142Y16158715D01*
X34524428Y15408715D02*
X34095857Y15408715D01*
X34310142Y15408715D02*
X34310142Y16158715D01*
X34238714Y16051572D01*
X34167285Y15980143D01*
X34095857Y15944429D01*
X35417285Y15408715D02*
X35417285Y16158715D01*
X35703000Y16158715D01*
X35774428Y16123000D01*
X35810142Y16087286D01*
X35845857Y16015858D01*
X35845857Y15908715D01*
X35810142Y15837286D01*
X35774428Y15801572D01*
X35703000Y15765858D01*
X35417285Y15765858D01*
X36488714Y15408715D02*
X36488714Y15801572D01*
X36453000Y15873000D01*
X36381571Y15908715D01*
X36238714Y15908715D01*
X36167285Y15873000D01*
X36488714Y15444429D02*
X36417285Y15408715D01*
X36238714Y15408715D01*
X36167285Y15444429D01*
X36131571Y15515858D01*
X36131571Y15587286D01*
X36167285Y15658715D01*
X36238714Y15694429D01*
X36417285Y15694429D01*
X36488714Y15730143D01*
X36845857Y15408715D02*
X36845857Y15908715D01*
X36845857Y15765858D02*
X36881571Y15837286D01*
X36917285Y15873000D01*
X36988714Y15908715D01*
X37060142Y15908715D01*
X37203000Y15908715D02*
X37488714Y15908715D01*
X37310142Y16158715D02*
X37310142Y15515858D01*
X37345857Y15444429D01*
X37417285Y15408715D01*
X37488714Y15408715D01*
X38560142Y15801572D02*
X38310142Y15801572D01*
X38310142Y15408715D02*
X38310142Y16158715D01*
X38667285Y16158715D01*
X39274428Y15408715D02*
X39274428Y15801572D01*
X39238714Y15873000D01*
X39167285Y15908715D01*
X39024428Y15908715D01*
X38953000Y15873000D01*
X39274428Y15444429D02*
X39203000Y15408715D01*
X39024428Y15408715D01*
X38953000Y15444429D01*
X38917285Y15515858D01*
X38917285Y15587286D01*
X38953000Y15658715D01*
X39024428Y15694429D01*
X39203000Y15694429D01*
X39274428Y15730143D01*
X39631571Y15908715D02*
X39631571Y15408715D01*
X39631571Y15837286D02*
X39667285Y15873000D01*
X39738714Y15908715D01*
X39845857Y15908715D01*
X39917285Y15873000D01*
X39953000Y15801572D01*
X39953000Y15408715D01*
X41047214Y15801572D02*
X41297214Y15801572D01*
X41404357Y15408715D02*
X41047214Y15408715D01*
X41047214Y16158715D01*
X41404357Y16158715D01*
X41690071Y16087286D02*
X41725785Y16123000D01*
X41797214Y16158715D01*
X41975785Y16158715D01*
X42047214Y16123000D01*
X42082928Y16087286D01*
X42118642Y16015858D01*
X42118642Y15944429D01*
X42082928Y15837286D01*
X41654357Y15408715D01*
X42118642Y15408715D01*
X43440071Y15480143D02*
X43404357Y15444429D01*
X43297214Y15408715D01*
X43225785Y15408715D01*
X43118642Y15444429D01*
X43047214Y15515858D01*
X43011500Y15587286D01*
X42975785Y15730143D01*
X42975785Y15837286D01*
X43011500Y15980143D01*
X43047214Y16051572D01*
X43118642Y16123000D01*
X43225785Y16158715D01*
X43297214Y16158715D01*
X43404357Y16123000D01*
X43440071Y16087286D01*
X43868642Y15408715D02*
X43797214Y15444429D01*
X43761500Y15480143D01*
X43725785Y15551572D01*
X43725785Y15765858D01*
X43761500Y15837286D01*
X43797214Y15873000D01*
X43868642Y15908715D01*
X43975785Y15908715D01*
X44047214Y15873000D01*
X44082928Y15837286D01*
X44118642Y15765858D01*
X44118642Y15551572D01*
X44082928Y15480143D01*
X44047214Y15444429D01*
X43975785Y15408715D01*
X43868642Y15408715D01*
X44547214Y15408715D02*
X44475785Y15444429D01*
X44440071Y15480143D01*
X44404357Y15551572D01*
X44404357Y15765858D01*
X44440071Y15837286D01*
X44475785Y15873000D01*
X44547214Y15908715D01*
X44654357Y15908715D01*
X44725785Y15873000D01*
X44761500Y15837286D01*
X44797214Y15765858D01*
X44797214Y15551572D01*
X44761500Y15480143D01*
X44725785Y15444429D01*
X44654357Y15408715D01*
X44547214Y15408715D01*
X45225785Y15408715D02*
X45154357Y15444429D01*
X45118642Y15515858D01*
X45118642Y16158715D01*
X46332928Y15801572D02*
X46082928Y15801572D01*
X46082928Y15408715D02*
X46082928Y16158715D01*
X46440071Y16158715D01*
X47047214Y15408715D02*
X47047214Y15801572D01*
X47011500Y15873000D01*
X46940071Y15908715D01*
X46797214Y15908715D01*
X46725785Y15873000D01*
X47047214Y15444429D02*
X46975785Y15408715D01*
X46797214Y15408715D01*
X46725785Y15444429D01*
X46690071Y15515858D01*
X46690071Y15587286D01*
X46725785Y15658715D01*
X46797214Y15694429D01*
X46975785Y15694429D01*
X47047214Y15730143D01*
X47404357Y15908715D02*
X47404357Y15408715D01*
X47404357Y15837286D02*
X47440071Y15873000D01*
X47511500Y15908715D01*
X47618642Y15908715D01*
X47690071Y15873000D01*
X47725785Y15801572D01*
X47725785Y15408715D01*
X49582000Y15801572D02*
X49832000Y15801572D01*
X49939142Y15408715D02*
X49582000Y15408715D01*
X49582000Y16158715D01*
X49939142Y16158715D01*
X50224857Y16087286D02*
X50260571Y16123000D01*
X50332000Y16158715D01*
X50510571Y16158715D01*
X50582000Y16123000D01*
X50617714Y16087286D01*
X50653428Y16015858D01*
X50653428Y15944429D01*
X50617714Y15837286D01*
X50189142Y15408715D01*
X50653428Y15408715D01*
X51546285Y15408715D02*
X51546285Y16158715D01*
X51832000Y16158715D01*
X51903428Y16123000D01*
X51939142Y16087286D01*
X51974857Y16015858D01*
X51974857Y15908715D01*
X51939142Y15837286D01*
X51903428Y15801572D01*
X51832000Y15765858D01*
X51546285Y15765858D01*
X52617714Y15408715D02*
X52617714Y15801572D01*
X52582000Y15873000D01*
X52510571Y15908715D01*
X52367714Y15908715D01*
X52296285Y15873000D01*
X52617714Y15444429D02*
X52546285Y15408715D01*
X52367714Y15408715D01*
X52296285Y15444429D01*
X52260571Y15515858D01*
X52260571Y15587286D01*
X52296285Y15658715D01*
X52367714Y15694429D01*
X52546285Y15694429D01*
X52617714Y15730143D01*
X52974857Y15408715D02*
X52974857Y15908715D01*
X52974857Y15765858D02*
X53010571Y15837286D01*
X53046285Y15873000D01*
X53117714Y15908715D01*
X53189142Y15908715D01*
X53332000Y15908715D02*
X53617714Y15908715D01*
X53439142Y16158715D02*
X53439142Y15515858D01*
X53474857Y15444429D01*
X53546285Y15408715D01*
X53617714Y15408715D01*
X54689142Y15801572D02*
X54439142Y15801572D01*
X54439142Y15408715D02*
X54439142Y16158715D01*
X54796285Y16158715D01*
X55403428Y15408715D02*
X55403428Y15801572D01*
X55367714Y15873000D01*
X55296285Y15908715D01*
X55153428Y15908715D01*
X55082000Y15873000D01*
X55403428Y15444429D02*
X55332000Y15408715D01*
X55153428Y15408715D01*
X55082000Y15444429D01*
X55046285Y15515858D01*
X55046285Y15587286D01*
X55082000Y15658715D01*
X55153428Y15694429D01*
X55332000Y15694429D01*
X55403428Y15730143D01*
X55760571Y15908715D02*
X55760571Y15408715D01*
X55760571Y15837286D02*
X55796285Y15873000D01*
X55867714Y15908715D01*
X55974857Y15908715D01*
X56046285Y15873000D01*
X56082000Y15801572D01*
X56082000Y15408715D01*
X19181214Y16551715D02*
X18931214Y16908858D01*
X18752642Y16551715D02*
X18752642Y17301715D01*
X19038357Y17301715D01*
X19109785Y17266000D01*
X19145500Y17230286D01*
X19181214Y17158858D01*
X19181214Y17051715D01*
X19145500Y16980286D01*
X19109785Y16944572D01*
X19038357Y16908858D01*
X18752642Y16908858D01*
X19895500Y17266000D02*
X19824071Y17301715D01*
X19716928Y17301715D01*
X19609785Y17266000D01*
X19538357Y17194572D01*
X19502642Y17123143D01*
X19466928Y16980286D01*
X19466928Y16873143D01*
X19502642Y16730286D01*
X19538357Y16658858D01*
X19609785Y16587429D01*
X19716928Y16551715D01*
X19788357Y16551715D01*
X19895500Y16587429D01*
X19931214Y16623143D01*
X19931214Y16873143D01*
X19788357Y16873143D01*
X20502642Y16944572D02*
X20609785Y16908858D01*
X20645500Y16873143D01*
X20681214Y16801715D01*
X20681214Y16694572D01*
X20645500Y16623143D01*
X20609785Y16587429D01*
X20538357Y16551715D01*
X20252642Y16551715D01*
X20252642Y17301715D01*
X20502642Y17301715D01*
X20574071Y17266000D01*
X20609785Y17230286D01*
X20645500Y17158858D01*
X20645500Y17087429D01*
X20609785Y17016000D01*
X20574071Y16980286D01*
X20502642Y16944572D01*
X20252642Y16944572D01*
X21681214Y16551715D02*
X21609785Y16587429D01*
X21574071Y16658858D01*
X21574071Y17301715D01*
X22252642Y16587429D02*
X22181214Y16551715D01*
X22038357Y16551715D01*
X21966928Y16587429D01*
X21931214Y16658858D01*
X21931214Y16944572D01*
X21966928Y17016000D01*
X22038357Y17051715D01*
X22181214Y17051715D01*
X22252642Y17016000D01*
X22288357Y16944572D01*
X22288357Y16873143D01*
X21931214Y16801715D01*
X22931214Y16551715D02*
X22931214Y17301715D01*
X22931214Y16587429D02*
X22859785Y16551715D01*
X22716928Y16551715D01*
X22645500Y16587429D01*
X22609785Y16623143D01*
X22574071Y16694572D01*
X22574071Y16908858D01*
X22609785Y16980286D01*
X22645500Y17016000D01*
X22716928Y17051715D01*
X22859785Y17051715D01*
X22931214Y17016000D01*
X23252642Y16587429D02*
X23324071Y16551715D01*
X23466928Y16551715D01*
X23538357Y16587429D01*
X23574071Y16658858D01*
X23574071Y16694572D01*
X23538357Y16766000D01*
X23466928Y16801715D01*
X23359785Y16801715D01*
X23288357Y16837429D01*
X23252642Y16908858D01*
X23252642Y16944572D01*
X23288357Y17016000D01*
X23359785Y17051715D01*
X23466928Y17051715D01*
X23538357Y17016000D01*
X40592642Y42701715D02*
X41092642Y42701715D01*
X40592642Y41951715D01*
X41092642Y41951715D01*
X41949785Y41951715D02*
X41949785Y42701715D01*
X42235500Y42701715D01*
X42306928Y42666000D01*
X42342642Y42630286D01*
X42378357Y42558858D01*
X42378357Y42451715D01*
X42342642Y42380286D01*
X42306928Y42344572D01*
X42235500Y42308858D01*
X41949785Y42308858D01*
X42699785Y41951715D02*
X42699785Y42451715D01*
X42699785Y42308858D02*
X42735500Y42380286D01*
X42771214Y42416000D01*
X42842642Y42451715D01*
X42914071Y42451715D01*
X43271214Y41951715D02*
X43199785Y41987429D01*
X43164071Y42023143D01*
X43128357Y42094572D01*
X43128357Y42308858D01*
X43164071Y42380286D01*
X43199785Y42416000D01*
X43271214Y42451715D01*
X43378357Y42451715D01*
X43449785Y42416000D01*
X43485500Y42380286D01*
X43521214Y42308858D01*
X43521214Y42094572D01*
X43485500Y42023143D01*
X43449785Y41987429D01*
X43378357Y41951715D01*
X43271214Y41951715D01*
X43842642Y41951715D02*
X43842642Y42701715D01*
X43842642Y42416000D02*
X43914071Y42451715D01*
X44056928Y42451715D01*
X44128357Y42416000D01*
X44164071Y42380286D01*
X44199785Y42308858D01*
X44199785Y42094572D01*
X44164071Y42023143D01*
X44128357Y41987429D01*
X44056928Y41951715D01*
X43914071Y41951715D01*
X43842642Y41987429D01*
X44806928Y41987429D02*
X44735500Y41951715D01*
X44592642Y41951715D01*
X44521214Y41987429D01*
X44485500Y42058858D01*
X44485500Y42344572D01*
X44521214Y42416000D01*
X44592642Y42451715D01*
X44735500Y42451715D01*
X44806928Y42416000D01*
X44842642Y42344572D01*
X44842642Y42273143D01*
X44485500Y42201715D01*
X13229785Y81196715D02*
X13229785Y80768143D01*
X13229785Y80982429D02*
X12479785Y80982429D01*
X12586928Y80911000D01*
X12658357Y80839572D01*
X12694071Y80768143D01*
X12479785Y81875286D02*
X12479785Y81518143D01*
X12836928Y81482429D01*
X12801214Y81518143D01*
X12765500Y81589572D01*
X12765500Y81768143D01*
X12801214Y81839572D01*
X12836928Y81875286D01*
X12908357Y81911000D01*
X13086928Y81911000D01*
X13158357Y81875286D01*
X13194071Y81839572D01*
X13229785Y81768143D01*
X13229785Y81589572D01*
X13194071Y81518143D01*
X13158357Y81482429D01*
X13015500Y82196715D02*
X13015500Y82553858D01*
X13229785Y82125286D02*
X12479785Y82375286D01*
X13229785Y82625286D01*
X7387785Y83355715D02*
X7387785Y82927143D01*
X7387785Y83141429D02*
X6637785Y83141429D01*
X6744928Y83070000D01*
X6816357Y82998572D01*
X6852071Y82927143D01*
X6637785Y83820000D02*
X6637785Y83891429D01*
X6673500Y83962858D01*
X6709214Y83998572D01*
X6780642Y84034286D01*
X6923500Y84070000D01*
X7102071Y84070000D01*
X7244928Y84034286D01*
X7316357Y83998572D01*
X7352071Y83962858D01*
X7387785Y83891429D01*
X7387785Y83820000D01*
X7352071Y83748572D01*
X7316357Y83712858D01*
X7244928Y83677143D01*
X7102071Y83641429D01*
X6923500Y83641429D01*
X6780642Y83677143D01*
X6709214Y83712858D01*
X6673500Y83748572D01*
X6637785Y83820000D01*
X7173500Y84355715D02*
X7173500Y84712858D01*
X7387785Y84284286D02*
X6637785Y84534286D01*
X7387785Y84784286D01*
X7401857Y60862715D02*
X7866142Y60862715D01*
X7616142Y60577000D01*
X7723285Y60577000D01*
X7794714Y60541286D01*
X7830428Y60505572D01*
X7866142Y60434143D01*
X7866142Y60255572D01*
X7830428Y60184143D01*
X7794714Y60148429D01*
X7723285Y60112715D01*
X7509000Y60112715D01*
X7437571Y60148429D01*
X7401857Y60184143D01*
X8187571Y60184143D02*
X8223285Y60148429D01*
X8187571Y60112715D01*
X8151857Y60148429D01*
X8187571Y60184143D01*
X8187571Y60112715D01*
X8473285Y60862715D02*
X8937571Y60862715D01*
X8687571Y60577000D01*
X8794714Y60577000D01*
X8866142Y60541286D01*
X8901857Y60505572D01*
X8937571Y60434143D01*
X8937571Y60255572D01*
X8901857Y60184143D01*
X8866142Y60148429D01*
X8794714Y60112715D01*
X8580428Y60112715D01*
X8509000Y60148429D01*
X8473285Y60184143D01*
X9151857Y60862715D02*
X9401857Y60112715D01*
X9651857Y60862715D01*
X7858142Y62577215D02*
X7501000Y62577215D01*
X7465285Y62220072D01*
X7501000Y62255786D01*
X7572428Y62291500D01*
X7751000Y62291500D01*
X7822428Y62255786D01*
X7858142Y62220072D01*
X7893857Y62148643D01*
X7893857Y61970072D01*
X7858142Y61898643D01*
X7822428Y61862929D01*
X7751000Y61827215D01*
X7572428Y61827215D01*
X7501000Y61862929D01*
X7465285Y61898643D01*
X8108142Y62577215D02*
X8358142Y61827215D01*
X8608142Y62577215D01*
X7366142Y64228215D02*
X7616142Y63478215D01*
X7866142Y64228215D01*
X8009000Y63978215D02*
X8294714Y63978215D01*
X8116142Y63478215D02*
X8116142Y64121072D01*
X8151857Y64192500D01*
X8223285Y64228215D01*
X8294714Y64228215D01*
X8866142Y63478215D02*
X8866142Y63871072D01*
X8830428Y63942500D01*
X8759000Y63978215D01*
X8616142Y63978215D01*
X8544714Y63942500D01*
X8866142Y63513929D02*
X8794714Y63478215D01*
X8616142Y63478215D01*
X8544714Y63513929D01*
X8509000Y63585358D01*
X8509000Y63656786D01*
X8544714Y63728215D01*
X8616142Y63763929D01*
X8794714Y63763929D01*
X8866142Y63799643D01*
X9223285Y63978215D02*
X9223285Y63478215D01*
X9223285Y63906786D02*
X9259000Y63942500D01*
X9330428Y63978215D01*
X9437571Y63978215D01*
X9509000Y63942500D01*
X9544714Y63871072D01*
X9544714Y63478215D01*
X7423642Y65942715D02*
X7673642Y65192715D01*
X7923642Y65942715D01*
X8173642Y65192715D02*
X8173642Y65692715D01*
X8173642Y65942715D02*
X8137928Y65907000D01*
X8173642Y65871286D01*
X8209357Y65907000D01*
X8173642Y65942715D01*
X8173642Y65871286D01*
X8530785Y65692715D02*
X8530785Y65192715D01*
X8530785Y65621286D02*
X8566500Y65657000D01*
X8637928Y65692715D01*
X8745071Y65692715D01*
X8816500Y65657000D01*
X8852214Y65585572D01*
X8852214Y65192715D01*
X28037285Y58235572D02*
X28037285Y58664143D01*
X28787285Y58449858D02*
X28037285Y58449858D01*
X28715857Y59342715D02*
X28751571Y59307000D01*
X28787285Y59199858D01*
X28787285Y59128429D01*
X28751571Y59021286D01*
X28680142Y58949858D01*
X28608714Y58914143D01*
X28465857Y58878429D01*
X28358714Y58878429D01*
X28215857Y58914143D01*
X28144428Y58949858D01*
X28073000Y59021286D01*
X28037285Y59128429D01*
X28037285Y59199858D01*
X28073000Y59307000D01*
X28108714Y59342715D01*
X28787285Y60057000D02*
X28787285Y59628429D01*
X28787285Y59842715D02*
X28037285Y59842715D01*
X28144428Y59771286D01*
X28215857Y59699858D01*
X28251571Y59628429D01*
X21242785Y58172072D02*
X21242785Y58600643D01*
X21992785Y58386358D02*
X21242785Y58386358D01*
X21921357Y59279215D02*
X21957071Y59243500D01*
X21992785Y59136358D01*
X21992785Y59064929D01*
X21957071Y58957786D01*
X21885642Y58886358D01*
X21814214Y58850643D01*
X21671357Y58814929D01*
X21564214Y58814929D01*
X21421357Y58850643D01*
X21349928Y58886358D01*
X21278500Y58957786D01*
X21242785Y59064929D01*
X21242785Y59136358D01*
X21278500Y59243500D01*
X21314214Y59279215D01*
X21314214Y59564929D02*
X21278500Y59600643D01*
X21242785Y59672072D01*
X21242785Y59850643D01*
X21278500Y59922072D01*
X21314214Y59957786D01*
X21385642Y59993500D01*
X21457071Y59993500D01*
X21564214Y59957786D01*
X21992785Y59529215D01*
X21992785Y59993500D01*
X10118285Y54981143D02*
X10118285Y54624000D01*
X9368285Y54624000D01*
X10046857Y55659715D02*
X10082571Y55624000D01*
X10118285Y55516858D01*
X10118285Y55445429D01*
X10082571Y55338286D01*
X10011142Y55266858D01*
X9939714Y55231143D01*
X9796857Y55195429D01*
X9689714Y55195429D01*
X9546857Y55231143D01*
X9475428Y55266858D01*
X9404000Y55338286D01*
X9368285Y55445429D01*
X9368285Y55516858D01*
X9404000Y55624000D01*
X9439714Y55659715D01*
X10118285Y55981143D02*
X9368285Y55981143D01*
X9368285Y56159715D01*
X9404000Y56266858D01*
X9475428Y56338286D01*
X9546857Y56374000D01*
X9689714Y56409715D01*
X9796857Y56409715D01*
X9939714Y56374000D01*
X10011142Y56338286D01*
X10082571Y56266858D01*
X10118285Y56159715D01*
X10118285Y55981143D01*
X94585285Y22864000D02*
X95335285Y23364000D01*
X94585285Y23364000D02*
X95335285Y22864000D01*
X94914642Y42545000D02*
X95271785Y42545000D01*
X94521785Y42295000D02*
X94914642Y42545000D01*
X94521785Y42795000D01*
X94878928Y61140643D02*
X94878928Y61390643D01*
X95271785Y61497786D02*
X95271785Y61140643D01*
X94521785Y61140643D01*
X94521785Y61497786D01*
X95271785Y62212072D02*
X95271785Y61783500D01*
X95271785Y61997786D02*
X94521785Y61997786D01*
X94628928Y61926358D01*
X94700357Y61854929D01*
X94736071Y61783500D01*
X94815428Y80254143D02*
X94815428Y80504143D01*
X95208285Y80611286D02*
X95208285Y80254143D01*
X94458285Y80254143D01*
X94458285Y80611286D01*
X94529714Y80897000D02*
X94494000Y80932715D01*
X94458285Y81004143D01*
X94458285Y81182715D01*
X94494000Y81254143D01*
X94529714Y81289858D01*
X94601142Y81325572D01*
X94672571Y81325572D01*
X94779714Y81289858D01*
X95208285Y80861286D01*
X95208285Y81325572D01*
X66492642Y98137215D02*
X66992642Y98137215D01*
X66492642Y97387215D01*
X66992642Y97387215D01*
X67814071Y97601500D02*
X68171214Y97601500D01*
X67742642Y97387215D02*
X67992642Y98137215D01*
X68242642Y97387215D01*
X68421214Y97387215D02*
X68814071Y97887215D01*
X68421214Y97887215D02*
X68814071Y97387215D01*
X69099785Y97387215D02*
X69099785Y97887215D01*
X69099785Y98137215D02*
X69064071Y98101500D01*
X69099785Y98065786D01*
X69135500Y98101500D01*
X69099785Y98137215D01*
X69099785Y98065786D01*
X69421214Y97422929D02*
X69492642Y97387215D01*
X69635500Y97387215D01*
X69706928Y97422929D01*
X69742642Y97494358D01*
X69742642Y97530072D01*
X69706928Y97601500D01*
X69635500Y97637215D01*
X69528357Y97637215D01*
X69456928Y97672929D01*
X69421214Y97744358D01*
X69421214Y97780072D01*
X69456928Y97851500D01*
X69528357Y97887215D01*
X69635500Y97887215D01*
X69706928Y97851500D01*
X68582464Y63727786D02*
X68368178Y64299215D01*
X68153892Y63727786D01*
X68368178Y63370643D02*
X68368178Y62799215D01*
X68368178Y62442072D02*
X68368178Y61870643D01*
X68475321Y60692072D02*
X68475321Y60942072D01*
X68082464Y60942072D02*
X68832464Y60942072D01*
X68832464Y60584929D01*
X68082464Y60299215D02*
X68582464Y60299215D01*
X68832464Y60299215D02*
X68796750Y60334929D01*
X68761035Y60299215D01*
X68796750Y60263500D01*
X68832464Y60299215D01*
X68761035Y60299215D01*
X68082464Y59834929D02*
X68118178Y59906358D01*
X68189607Y59942072D01*
X68832464Y59942072D01*
X68082464Y59227786D02*
X68475321Y59227786D01*
X68546750Y59263500D01*
X68582464Y59334929D01*
X68582464Y59477786D01*
X68546750Y59549215D01*
X68118178Y59227786D02*
X68082464Y59299215D01*
X68082464Y59477786D01*
X68118178Y59549215D01*
X68189607Y59584929D01*
X68261035Y59584929D01*
X68332464Y59549215D01*
X68368178Y59477786D01*
X68368178Y59299215D01*
X68403892Y59227786D01*
X68082464Y58870643D02*
X68582464Y58870643D01*
X68511035Y58870643D02*
X68546750Y58834929D01*
X68582464Y58763500D01*
X68582464Y58656358D01*
X68546750Y58584929D01*
X68475321Y58549215D01*
X68082464Y58549215D01*
X68475321Y58549215D02*
X68546750Y58513500D01*
X68582464Y58442072D01*
X68582464Y58334929D01*
X68546750Y58263500D01*
X68475321Y58227786D01*
X68082464Y58227786D01*
X68118178Y57584929D02*
X68082464Y57656358D01*
X68082464Y57799215D01*
X68118178Y57870643D01*
X68189607Y57906358D01*
X68475321Y57906358D01*
X68546750Y57870643D01*
X68582464Y57799215D01*
X68582464Y57656358D01*
X68546750Y57584929D01*
X68475321Y57549215D01*
X68403892Y57549215D01*
X68332464Y57906358D01*
X68582464Y57227786D02*
X68082464Y57227786D01*
X68511035Y57227786D02*
X68546750Y57192072D01*
X68582464Y57120643D01*
X68582464Y57013500D01*
X68546750Y56942072D01*
X68475321Y56906358D01*
X68082464Y56906358D01*
X68582464Y56656358D02*
X68582464Y56370643D01*
X68832464Y56549215D02*
X68189607Y56549215D01*
X68118178Y56513500D01*
X68082464Y56442072D01*
X68082464Y56370643D01*
X67267821Y61924215D02*
X67267821Y61674215D01*
X66874964Y61567072D02*
X66874964Y61924215D01*
X67624964Y61924215D01*
X67624964Y61567072D01*
X67374964Y61245643D02*
X66874964Y61245643D01*
X67303535Y61245643D02*
X67339250Y61209929D01*
X67374964Y61138500D01*
X67374964Y61031358D01*
X67339250Y60959929D01*
X67267821Y60924215D01*
X66874964Y60924215D01*
X66874964Y60245643D02*
X67624964Y60245643D01*
X66910678Y60245643D02*
X66874964Y60317072D01*
X66874964Y60459929D01*
X66910678Y60531358D01*
X66946392Y60567072D01*
X67017821Y60602786D01*
X67232107Y60602786D01*
X67303535Y60567072D01*
X67339250Y60531358D01*
X67374964Y60459929D01*
X67374964Y60317072D01*
X67339250Y60245643D01*
X66910678Y59352786D02*
X66874964Y59245643D01*
X66874964Y59067072D01*
X66910678Y58995643D01*
X66946392Y58959929D01*
X67017821Y58924215D01*
X67089250Y58924215D01*
X67160678Y58959929D01*
X67196392Y58995643D01*
X67232107Y59067072D01*
X67267821Y59209929D01*
X67303535Y59281358D01*
X67339250Y59317072D01*
X67410678Y59352786D01*
X67482107Y59352786D01*
X67553535Y59317072D01*
X67589250Y59281358D01*
X67624964Y59209929D01*
X67624964Y59031358D01*
X67589250Y58924215D01*
X67374964Y58709929D02*
X67374964Y58424215D01*
X67624964Y58602786D02*
X66982107Y58602786D01*
X66910678Y58567072D01*
X66874964Y58495643D01*
X66874964Y58424215D01*
X66874964Y58067072D02*
X66910678Y58138500D01*
X66946392Y58174215D01*
X67017821Y58209929D01*
X67232107Y58209929D01*
X67303535Y58174215D01*
X67339250Y58138500D01*
X67374964Y58067072D01*
X67374964Y57959929D01*
X67339250Y57888500D01*
X67303535Y57852786D01*
X67232107Y57817072D01*
X67017821Y57817072D01*
X66946392Y57852786D01*
X66910678Y57888500D01*
X66874964Y57959929D01*
X66874964Y58067072D01*
X67374964Y57495643D02*
X66624964Y57495643D01*
X67339250Y57495643D02*
X67374964Y57424215D01*
X67374964Y57281358D01*
X67339250Y57209929D01*
X67303535Y57174215D01*
X67232107Y57138500D01*
X67017821Y57138500D01*
X66946392Y57174215D01*
X66910678Y57209929D01*
X66874964Y57281358D01*
X66874964Y57424215D01*
X66910678Y57495643D01*
X66910678Y56852786D02*
X66874964Y56781358D01*
X66874964Y56638500D01*
X66910678Y56567072D01*
X66982107Y56531358D01*
X67017821Y56531358D01*
X67089250Y56567072D01*
X67124964Y56638500D01*
X67124964Y56745643D01*
X67160678Y56817072D01*
X67232107Y56852786D01*
X67267821Y56852786D01*
X67339250Y56817072D01*
X67374964Y56745643D01*
X67374964Y56638500D01*
X67339250Y56567072D01*
X52663571Y65851965D02*
X52092142Y65637679D01*
X52663571Y65423393D01*
X53020714Y65637679D02*
X53592142Y65637679D01*
X53949285Y65637679D02*
X54520714Y65637679D01*
X55449285Y65744822D02*
X55699285Y65744822D01*
X55806428Y65351965D02*
X55449285Y65351965D01*
X55449285Y66101965D01*
X55806428Y66101965D01*
X56127857Y65851965D02*
X56127857Y65351965D01*
X56127857Y65780536D02*
X56163571Y65816250D01*
X56235000Y65851965D01*
X56342142Y65851965D01*
X56413571Y65816250D01*
X56449285Y65744822D01*
X56449285Y65351965D01*
X57127857Y65351965D02*
X57127857Y66101965D01*
X57127857Y65387679D02*
X57056428Y65351965D01*
X56913571Y65351965D01*
X56842142Y65387679D01*
X56806428Y65423393D01*
X56770714Y65494822D01*
X56770714Y65709108D01*
X56806428Y65780536D01*
X56842142Y65816250D01*
X56913571Y65851965D01*
X57056428Y65851965D01*
X57127857Y65816250D01*
X54342142Y64180179D02*
X54449285Y64144465D01*
X54627857Y64144465D01*
X54699285Y64180179D01*
X54735000Y64215893D01*
X54770714Y64287322D01*
X54770714Y64358750D01*
X54735000Y64430179D01*
X54699285Y64465893D01*
X54627857Y64501608D01*
X54485000Y64537322D01*
X54413571Y64573036D01*
X54377857Y64608750D01*
X54342142Y64680179D01*
X54342142Y64751608D01*
X54377857Y64823036D01*
X54413571Y64858750D01*
X54485000Y64894465D01*
X54663571Y64894465D01*
X54770714Y64858750D01*
X54985000Y64644465D02*
X55270714Y64644465D01*
X55092142Y64894465D02*
X55092142Y64251608D01*
X55127857Y64180179D01*
X55199285Y64144465D01*
X55270714Y64144465D01*
X55627857Y64144465D02*
X55556428Y64180179D01*
X55520714Y64215893D01*
X55485000Y64287322D01*
X55485000Y64501608D01*
X55520714Y64573036D01*
X55556428Y64608750D01*
X55627857Y64644465D01*
X55735000Y64644465D01*
X55806428Y64608750D01*
X55842142Y64573036D01*
X55877857Y64501608D01*
X55877857Y64287322D01*
X55842142Y64215893D01*
X55806428Y64180179D01*
X55735000Y64144465D01*
X55627857Y64144465D01*
X56199285Y64644465D02*
X56199285Y63894465D01*
X56199285Y64608750D02*
X56270714Y64644465D01*
X56413571Y64644465D01*
X56485000Y64608750D01*
X56520714Y64573036D01*
X56556428Y64501608D01*
X56556428Y64287322D01*
X56520714Y64215893D01*
X56485000Y64180179D01*
X56413571Y64144465D01*
X56270714Y64144465D01*
X56199285Y64180179D01*
X56842142Y64180179D02*
X56913571Y64144465D01*
X57056428Y64144465D01*
X57127857Y64180179D01*
X57163571Y64251608D01*
X57163571Y64287322D01*
X57127857Y64358750D01*
X57056428Y64394465D01*
X56949285Y64394465D01*
X56877857Y64430179D01*
X56842142Y64501608D01*
X56842142Y64537322D01*
X56877857Y64608750D01*
X56949285Y64644465D01*
X57056428Y64644465D01*
X57127857Y64608750D01*
X58009214Y66726072D02*
X57794928Y67297500D01*
X57580642Y66726072D01*
X57794928Y66368929D02*
X57794928Y65797500D01*
X57794928Y65440358D02*
X57794928Y64868929D01*
X58259214Y64047500D02*
X58259214Y63618929D01*
X57509214Y63833215D02*
X58259214Y63833215D01*
X57509214Y63368929D02*
X58259214Y63368929D01*
X57509214Y63047500D02*
X57902071Y63047500D01*
X57973500Y63083215D01*
X58009214Y63154643D01*
X58009214Y63261786D01*
X57973500Y63333215D01*
X57937785Y63368929D01*
X57544928Y62404643D02*
X57509214Y62476072D01*
X57509214Y62618929D01*
X57544928Y62690358D01*
X57616357Y62726072D01*
X57902071Y62726072D01*
X57973500Y62690358D01*
X58009214Y62618929D01*
X58009214Y62476072D01*
X57973500Y62404643D01*
X57902071Y62368929D01*
X57830642Y62368929D01*
X57759214Y62726072D01*
X57509214Y62047500D02*
X58009214Y62047500D01*
X57866357Y62047500D02*
X57937785Y62011786D01*
X57973500Y61976072D01*
X58009214Y61904643D01*
X58009214Y61833215D01*
X57509214Y61583215D02*
X58009214Y61583215D01*
X57937785Y61583215D02*
X57973500Y61547500D01*
X58009214Y61476072D01*
X58009214Y61368929D01*
X57973500Y61297500D01*
X57902071Y61261786D01*
X57509214Y61261786D01*
X57902071Y61261786D02*
X57973500Y61226072D01*
X58009214Y61154643D01*
X58009214Y61047500D01*
X57973500Y60976072D01*
X57902071Y60940358D01*
X57509214Y60940358D01*
X57509214Y60583215D02*
X58009214Y60583215D01*
X58259214Y60583215D02*
X58223500Y60618929D01*
X58187785Y60583215D01*
X58223500Y60547500D01*
X58259214Y60583215D01*
X58187785Y60583215D01*
X57544928Y60261786D02*
X57509214Y60190358D01*
X57509214Y60047500D01*
X57544928Y59976072D01*
X57616357Y59940358D01*
X57652071Y59940358D01*
X57723500Y59976072D01*
X57759214Y60047500D01*
X57759214Y60154643D01*
X57794928Y60226072D01*
X57866357Y60261786D01*
X57902071Y60261786D01*
X57973500Y60226072D01*
X58009214Y60154643D01*
X58009214Y60047500D01*
X57973500Y59976072D01*
X58009214Y59726072D02*
X58009214Y59440358D01*
X58259214Y59618929D02*
X57616357Y59618929D01*
X57544928Y59583215D01*
X57509214Y59511786D01*
X57509214Y59440358D01*
X57509214Y59083215D02*
X57544928Y59154643D01*
X57580642Y59190358D01*
X57652071Y59226072D01*
X57866357Y59226072D01*
X57937785Y59190358D01*
X57973500Y59154643D01*
X58009214Y59083215D01*
X58009214Y58976072D01*
X57973500Y58904643D01*
X57937785Y58868929D01*
X57866357Y58833215D01*
X57652071Y58833215D01*
X57580642Y58868929D01*
X57544928Y58904643D01*
X57509214Y58976072D01*
X57509214Y59083215D01*
X57509214Y58511786D02*
X58009214Y58511786D01*
X57866357Y58511786D02*
X57937785Y58476072D01*
X57973500Y58440358D01*
X58009214Y58368929D01*
X58009214Y58297500D01*
X57544928Y58083215D02*
X57509214Y58011786D01*
X57509214Y57868929D01*
X57544928Y57797500D01*
X57616357Y57761786D01*
X57652071Y57761786D01*
X57723500Y57797500D01*
X57759214Y57868929D01*
X57759214Y57976072D01*
X57794928Y58047500D01*
X57866357Y58083215D01*
X57902071Y58083215D01*
X57973500Y58047500D01*
X58009214Y57976072D01*
X58009214Y57868929D01*
X57973500Y57797500D01*
X60334928Y75174143D02*
X60334928Y75424143D01*
X60727785Y75531286D02*
X60727785Y75174143D01*
X59977785Y75174143D01*
X59977785Y75531286D01*
X60049214Y75817000D02*
X60013500Y75852715D01*
X59977785Y75924143D01*
X59977785Y76102715D01*
X60013500Y76174143D01*
X60049214Y76209858D01*
X60120642Y76245572D01*
X60192071Y76245572D01*
X60299214Y76209858D01*
X60727785Y75781286D01*
X60727785Y76245572D01*
X60461928Y85207143D02*
X60461928Y85457143D01*
X60854785Y85564286D02*
X60854785Y85207143D01*
X60104785Y85207143D01*
X60104785Y85564286D01*
X60854785Y86278572D02*
X60854785Y85850000D01*
X60854785Y86064286D02*
X60104785Y86064286D01*
X60211928Y85992858D01*
X60283357Y85921429D01*
X60319071Y85850000D01*
X60461928Y94335286D02*
X60497642Y94442429D01*
X60533357Y94478143D01*
X60604785Y94513858D01*
X60711928Y94513858D01*
X60783357Y94478143D01*
X60819071Y94442429D01*
X60854785Y94371000D01*
X60854785Y94085286D01*
X60104785Y94085286D01*
X60104785Y94335286D01*
X60140500Y94406715D01*
X60176214Y94442429D01*
X60247642Y94478143D01*
X60319071Y94478143D01*
X60390500Y94442429D01*
X60426214Y94406715D01*
X60461928Y94335286D01*
X60461928Y94085286D01*
X60461928Y94835286D02*
X60461928Y95085286D01*
X60854785Y95192429D02*
X60854785Y94835286D01*
X60104785Y94835286D01*
X60104785Y95192429D01*
X60854785Y95513858D02*
X60104785Y95513858D01*
X60104785Y95692429D01*
X60140500Y95799572D01*
X60211928Y95871000D01*
X60283357Y95906715D01*
X60426214Y95942429D01*
X60533357Y95942429D01*
X60676214Y95906715D01*
X60747642Y95871000D01*
X60819071Y95799572D01*
X60854785Y95692429D01*
X60854785Y95513858D01*
X52137500Y59783215D02*
X52637500Y59783215D01*
X52137500Y59033215D01*
X52637500Y59033215D01*
X52451000Y67327858D02*
X52451000Y66970715D01*
X52201000Y67720715D02*
X52451000Y67327858D01*
X52701000Y67720715D01*
X47756000Y79849215D02*
X48256000Y79099215D01*
X48256000Y79849215D02*
X47756000Y79099215D01*
X37723000Y79849215D02*
X38223000Y79099215D01*
X38223000Y79849215D02*
X37723000Y79099215D01*
D10*
X52141380Y52117762D02*
X51141380Y52117762D01*
X51855666Y52451096D01*
X51141380Y52784429D01*
X52141380Y52784429D01*
X52141380Y53260620D02*
X51141380Y53260620D01*
X52141380Y53736810D02*
X51141380Y53736810D01*
X52141380Y54308239D01*
X51141380Y54308239D01*
X36202880Y51657405D02*
X35202880Y51657405D01*
X35917166Y51990739D01*
X35202880Y52324072D01*
X36202880Y52324072D01*
X35917166Y52752643D02*
X35917166Y53228834D01*
X36202880Y52657405D02*
X35202880Y52990739D01*
X36202880Y53324072D01*
X35202880Y53562167D02*
X36202880Y54228834D01*
X35202880Y54228834D02*
X36202880Y53562167D01*
D11*
X32478428Y24171715D02*
X32478428Y24671715D01*
X32478428Y24528858D02*
X32514142Y24600286D01*
X32549857Y24636000D01*
X32621285Y24671715D01*
X32692714Y24671715D01*
X33228428Y24207429D02*
X33157000Y24171715D01*
X33014142Y24171715D01*
X32942714Y24207429D01*
X32907000Y24278858D01*
X32907000Y24564572D01*
X32942714Y24636000D01*
X33014142Y24671715D01*
X33157000Y24671715D01*
X33228428Y24636000D01*
X33264142Y24564572D01*
X33264142Y24493143D01*
X32907000Y24421715D01*
X33514142Y24671715D02*
X33692714Y24171715D01*
X33871285Y24671715D01*
X35121285Y24171715D02*
X34692714Y24171715D01*
X34907000Y24171715D02*
X34907000Y24921715D01*
X34835571Y24814572D01*
X34764142Y24743143D01*
X34692714Y24707429D01*
X27833214Y30014250D02*
X27797500Y30049965D01*
X27726071Y30157108D01*
X27690357Y30228536D01*
X27654642Y30335679D01*
X27618928Y30514250D01*
X27618928Y30657108D01*
X27654642Y30835679D01*
X27690357Y30942822D01*
X27726071Y31014250D01*
X27797500Y31121393D01*
X27833214Y31157108D01*
X28440357Y30335679D02*
X28368928Y30299965D01*
X28226071Y30299965D01*
X28154642Y30335679D01*
X28118928Y30371393D01*
X28083214Y30442822D01*
X28083214Y30657108D01*
X28118928Y30728536D01*
X28154642Y30764250D01*
X28226071Y30799965D01*
X28368928Y30799965D01*
X28440357Y30764250D01*
X28690357Y30014250D02*
X28726071Y30049965D01*
X28797500Y30157108D01*
X28833214Y30228536D01*
X28868928Y30335679D01*
X28904642Y30514250D01*
X28904642Y30657108D01*
X28868928Y30835679D01*
X28833214Y30942822D01*
X28797500Y31014250D01*
X28726071Y31121393D01*
X28690357Y31157108D01*
X29833214Y30299965D02*
X29833214Y30799965D01*
X29833214Y31049965D02*
X29797500Y31014250D01*
X29833214Y30978536D01*
X29868928Y31014250D01*
X29833214Y31049965D01*
X29833214Y30978536D01*
X30690357Y30228536D02*
X30618928Y30264250D01*
X30547500Y30335679D01*
X30440357Y30442822D01*
X30368928Y30478536D01*
X30297500Y30478536D01*
X30333214Y30299965D02*
X30261785Y30335679D01*
X30190357Y30407108D01*
X30154642Y30549965D01*
X30154642Y30799965D01*
X30190357Y30942822D01*
X30261785Y31014250D01*
X30333214Y31049965D01*
X30476071Y31049965D01*
X30547500Y31014250D01*
X30618928Y30942822D01*
X30654642Y30799965D01*
X30654642Y30549965D01*
X30618928Y30407108D01*
X30547500Y30335679D01*
X30476071Y30299965D01*
X30333214Y30299965D01*
X31297500Y30799965D02*
X31297500Y30299965D01*
X30976071Y30799965D02*
X30976071Y30407108D01*
X31011785Y30335679D01*
X31083214Y30299965D01*
X31190357Y30299965D01*
X31261785Y30335679D01*
X31297500Y30371393D01*
X31654642Y30299965D02*
X31654642Y30799965D01*
X31654642Y30657108D02*
X31690357Y30728536D01*
X31726071Y30764250D01*
X31797500Y30799965D01*
X31868928Y30799965D01*
X32047500Y30799965D02*
X32226071Y30299965D01*
X32404642Y30799965D02*
X32226071Y30299965D01*
X32154642Y30121393D01*
X32118928Y30085679D01*
X32047500Y30049965D01*
X32690357Y30371393D02*
X32726071Y30335679D01*
X32690357Y30299965D01*
X32654642Y30335679D01*
X32690357Y30371393D01*
X32690357Y30299965D01*
X33368928Y30799965D02*
X33368928Y30299965D01*
X33047500Y30799965D02*
X33047500Y30407108D01*
X33083214Y30335679D01*
X33154642Y30299965D01*
X33261785Y30299965D01*
X33333214Y30335679D01*
X33368928Y30371393D01*
X33690357Y30335679D02*
X33761785Y30299965D01*
X33904642Y30299965D01*
X33976071Y30335679D01*
X34011785Y30407108D01*
X34011785Y30442822D01*
X33976071Y30514250D01*
X33904642Y30549965D01*
X33797500Y30549965D01*
X33726071Y30585679D01*
X33690357Y30657108D01*
X33690357Y30692822D01*
X33726071Y30764250D01*
X33797500Y30799965D01*
X33904642Y30799965D01*
X33976071Y30764250D01*
X28226071Y29306750D02*
X28583214Y29306750D01*
X28154642Y29092465D02*
X28404642Y29842465D01*
X28654642Y29092465D01*
X29226071Y29592465D02*
X29226071Y29092465D01*
X28904642Y29592465D02*
X28904642Y29199608D01*
X28940357Y29128179D01*
X29011785Y29092465D01*
X29118928Y29092465D01*
X29190357Y29128179D01*
X29226071Y29163893D01*
X29904642Y29592465D02*
X29904642Y28985322D01*
X29868928Y28913893D01*
X29833214Y28878179D01*
X29761785Y28842465D01*
X29654642Y28842465D01*
X29583214Y28878179D01*
X29904642Y29128179D02*
X29833214Y29092465D01*
X29690357Y29092465D01*
X29618928Y29128179D01*
X29583214Y29163893D01*
X29547500Y29235322D01*
X29547500Y29449608D01*
X29583214Y29521036D01*
X29618928Y29556750D01*
X29690357Y29592465D01*
X29833214Y29592465D01*
X29904642Y29556750D01*
X30797500Y29771036D02*
X30833214Y29806750D01*
X30904642Y29842465D01*
X31083214Y29842465D01*
X31154642Y29806750D01*
X31190357Y29771036D01*
X31226071Y29699608D01*
X31226071Y29628179D01*
X31190357Y29521036D01*
X30761785Y29092465D01*
X31226071Y29092465D01*
X31690357Y29842465D02*
X31761785Y29842465D01*
X31833214Y29806750D01*
X31868928Y29771036D01*
X31904642Y29699608D01*
X31940357Y29556750D01*
X31940357Y29378179D01*
X31904642Y29235322D01*
X31868928Y29163893D01*
X31833214Y29128179D01*
X31761785Y29092465D01*
X31690357Y29092465D01*
X31618928Y29128179D01*
X31583214Y29163893D01*
X31547500Y29235322D01*
X31511785Y29378179D01*
X31511785Y29556750D01*
X31547500Y29699608D01*
X31583214Y29771036D01*
X31618928Y29806750D01*
X31690357Y29842465D01*
X32654642Y29092465D02*
X32226071Y29092465D01*
X32440357Y29092465D02*
X32440357Y29842465D01*
X32368928Y29735322D01*
X32297500Y29663893D01*
X32226071Y29628179D01*
X33011785Y29092465D02*
X33154642Y29092465D01*
X33226071Y29128179D01*
X33261785Y29163893D01*
X33333214Y29271036D01*
X33368928Y29413893D01*
X33368928Y29699608D01*
X33333214Y29771036D01*
X33297500Y29806750D01*
X33226071Y29842465D01*
X33083214Y29842465D01*
X33011785Y29806750D01*
X32976071Y29771036D01*
X32940357Y29699608D01*
X32940357Y29521036D01*
X32976071Y29449608D01*
X33011785Y29413893D01*
X33083214Y29378179D01*
X33226071Y29378179D01*
X33297500Y29413893D01*
X33333214Y29449608D01*
X33368928Y29521036D01*
X14635642Y24171715D02*
X14635642Y24921715D01*
X14957071Y24171715D02*
X14957071Y24564572D01*
X14921357Y24636000D01*
X14849928Y24671715D01*
X14742785Y24671715D01*
X14671357Y24636000D01*
X14635642Y24600286D01*
X15207071Y24671715D02*
X15492785Y24671715D01*
X15314214Y24921715D02*
X15314214Y24278858D01*
X15349928Y24207429D01*
X15421357Y24171715D01*
X15492785Y24171715D01*
X15635642Y24671715D02*
X15921357Y24671715D01*
X15742785Y24921715D02*
X15742785Y24278858D01*
X15778500Y24207429D01*
X15849928Y24171715D01*
X15921357Y24171715D01*
X16171357Y24671715D02*
X16171357Y23921715D01*
X16171357Y24636000D02*
X16242785Y24671715D01*
X16385642Y24671715D01*
X16457071Y24636000D01*
X16492785Y24600286D01*
X16528500Y24528858D01*
X16528500Y24314572D01*
X16492785Y24243143D01*
X16457071Y24207429D01*
X16385642Y24171715D01*
X16242785Y24171715D01*
X16171357Y24207429D01*
X16814214Y24207429D02*
X16885642Y24171715D01*
X17028500Y24171715D01*
X17099928Y24207429D01*
X17135642Y24278858D01*
X17135642Y24314572D01*
X17099928Y24386000D01*
X17028500Y24421715D01*
X16921357Y24421715D01*
X16849928Y24457429D01*
X16814214Y24528858D01*
X16814214Y24564572D01*
X16849928Y24636000D01*
X16921357Y24671715D01*
X17028500Y24671715D01*
X17099928Y24636000D01*
X17457071Y24243143D02*
X17492785Y24207429D01*
X17457071Y24171715D01*
X17421357Y24207429D01*
X17457071Y24243143D01*
X17457071Y24171715D01*
X17457071Y24636000D02*
X17492785Y24600286D01*
X17457071Y24564572D01*
X17421357Y24600286D01*
X17457071Y24636000D01*
X17457071Y24564572D01*
X18349928Y24957429D02*
X17707071Y23993143D01*
X19135642Y24957429D02*
X18492785Y23993143D01*
X19385642Y24171715D02*
X19385642Y24921715D01*
X19385642Y24636000D02*
X19457071Y24671715D01*
X19599928Y24671715D01*
X19671357Y24636000D01*
X19707071Y24600286D01*
X19742785Y24528858D01*
X19742785Y24314572D01*
X19707071Y24243143D01*
X19671357Y24207429D01*
X19599928Y24171715D01*
X19457071Y24171715D01*
X19385642Y24207429D01*
X20171357Y24171715D02*
X20099928Y24207429D01*
X20064214Y24278858D01*
X20064214Y24921715D01*
X20564214Y24171715D02*
X20492785Y24207429D01*
X20457071Y24243143D01*
X20421357Y24314572D01*
X20421357Y24528858D01*
X20457071Y24600286D01*
X20492785Y24636000D01*
X20564214Y24671715D01*
X20671357Y24671715D01*
X20742785Y24636000D01*
X20778500Y24600286D01*
X20814214Y24528858D01*
X20814214Y24314572D01*
X20778500Y24243143D01*
X20742785Y24207429D01*
X20671357Y24171715D01*
X20564214Y24171715D01*
X21457071Y24671715D02*
X21457071Y24064572D01*
X21421357Y23993143D01*
X21385642Y23957429D01*
X21314214Y23921715D01*
X21207071Y23921715D01*
X21135642Y23957429D01*
X21457071Y24207429D02*
X21385642Y24171715D01*
X21242785Y24171715D01*
X21171357Y24207429D01*
X21135642Y24243143D01*
X21099928Y24314572D01*
X21099928Y24528858D01*
X21135642Y24600286D01*
X21171357Y24636000D01*
X21242785Y24671715D01*
X21385642Y24671715D01*
X21457071Y24636000D01*
X21814214Y24243143D02*
X21849928Y24207429D01*
X21814214Y24171715D01*
X21778500Y24207429D01*
X21814214Y24243143D01*
X21814214Y24171715D01*
X22171357Y24671715D02*
X22171357Y23921715D01*
X22171357Y24636000D02*
X22242785Y24671715D01*
X22385642Y24671715D01*
X22457071Y24636000D01*
X22492785Y24600286D01*
X22528500Y24528858D01*
X22528500Y24314572D01*
X22492785Y24243143D01*
X22457071Y24207429D01*
X22385642Y24171715D01*
X22242785Y24171715D01*
X22171357Y24207429D01*
X23171357Y24207429D02*
X23099928Y24171715D01*
X22957071Y24171715D01*
X22885642Y24207429D01*
X22849928Y24243143D01*
X22814214Y24314572D01*
X22814214Y24528858D01*
X22849928Y24600286D01*
X22885642Y24636000D01*
X22957071Y24671715D01*
X23099928Y24671715D01*
X23171357Y24636000D01*
X23492785Y24171715D02*
X23492785Y24921715D01*
X23492785Y24636000D02*
X23564214Y24671715D01*
X23707071Y24671715D01*
X23778500Y24636000D01*
X23814214Y24600286D01*
X23849928Y24528858D01*
X23849928Y24314572D01*
X23814214Y24243143D01*
X23778500Y24207429D01*
X23707071Y24171715D01*
X23564214Y24171715D01*
X23492785Y24207429D01*
X24099928Y24171715D02*
X24492785Y24671715D01*
X24099928Y24671715D02*
X24492785Y24171715D01*
X24778500Y24671715D02*
X24778500Y23921715D01*
X24778500Y24636000D02*
X24849928Y24671715D01*
X24992785Y24671715D01*
X25064214Y24636000D01*
X25099928Y24600286D01*
X25135642Y24528858D01*
X25135642Y24314572D01*
X25099928Y24243143D01*
X25064214Y24207429D01*
X24992785Y24171715D01*
X24849928Y24171715D01*
X24778500Y24207429D01*
X25457071Y24171715D02*
X25457071Y24671715D01*
X25457071Y24528858D02*
X25492785Y24600286D01*
X25528500Y24636000D01*
X25599928Y24671715D01*
X25671357Y24671715D01*
X25814214Y24671715D02*
X26099928Y24671715D01*
X25921357Y24921715D02*
X25921357Y24278858D01*
X25957071Y24207429D01*
X26028500Y24171715D01*
X26099928Y24171715D01*
X26349928Y24243143D02*
X26385642Y24207429D01*
X26349928Y24171715D01*
X26314214Y24207429D01*
X26349928Y24243143D01*
X26349928Y24171715D01*
X27028500Y24207429D02*
X26957071Y24171715D01*
X26814214Y24171715D01*
X26742785Y24207429D01*
X26707071Y24243143D01*
X26671357Y24314572D01*
X26671357Y24528858D01*
X26707071Y24600286D01*
X26742785Y24636000D01*
X26814214Y24671715D01*
X26957071Y24671715D01*
X27028500Y24636000D01*
X27457071Y24171715D02*
X27385642Y24207429D01*
X27349928Y24243143D01*
X27314214Y24314572D01*
X27314214Y24528858D01*
X27349928Y24600286D01*
X27385642Y24636000D01*
X27457071Y24671715D01*
X27564214Y24671715D01*
X27635642Y24636000D01*
X27671357Y24600286D01*
X27707071Y24528858D01*
X27707071Y24314572D01*
X27671357Y24243143D01*
X27635642Y24207429D01*
X27564214Y24171715D01*
X27457071Y24171715D01*
X28028500Y24171715D02*
X28028500Y24671715D01*
X28028500Y24600286D02*
X28064214Y24636000D01*
X28135642Y24671715D01*
X28242785Y24671715D01*
X28314214Y24636000D01*
X28349928Y24564572D01*
X28349928Y24171715D01*
X28349928Y24564572D02*
X28385642Y24636000D01*
X28457071Y24671715D01*
X28564214Y24671715D01*
X28635642Y24636000D01*
X28671357Y24564572D01*
X28671357Y24171715D01*
D12*
X14685785Y25737429D02*
X14685785Y27237429D01*
X15257214Y27237429D01*
X15400071Y27166000D01*
X15471500Y27094572D01*
X15542928Y26951715D01*
X15542928Y26737429D01*
X15471500Y26594572D01*
X15400071Y26523143D01*
X15257214Y26451715D01*
X14685785Y26451715D01*
X16185785Y25737429D02*
X16185785Y26737429D01*
X16185785Y26451715D02*
X16257214Y26594572D01*
X16328642Y26666000D01*
X16471500Y26737429D01*
X16614357Y26737429D01*
X17114357Y26737429D02*
X17114357Y25737429D01*
X17114357Y26594572D02*
X17185785Y26666000D01*
X17328642Y26737429D01*
X17542928Y26737429D01*
X17685785Y26666000D01*
X17757214Y26523143D01*
X17757214Y25737429D01*
X18257214Y26737429D02*
X18828642Y26737429D01*
X18471500Y27237429D02*
X18471500Y25951715D01*
X18542928Y25808858D01*
X18685785Y25737429D01*
X18828642Y25737429D01*
X19328642Y25737429D02*
X19328642Y26737429D01*
X19328642Y26451715D02*
X19400071Y26594572D01*
X19471500Y26666000D01*
X19614357Y26737429D01*
X19757214Y26737429D01*
X20757214Y26523143D02*
X20971500Y26451715D01*
X21042928Y26380286D01*
X21114357Y26237429D01*
X21114357Y26023143D01*
X21042928Y25880286D01*
X20971500Y25808858D01*
X20828642Y25737429D01*
X20257214Y25737429D01*
X20257214Y27237429D01*
X20757214Y27237429D01*
X20900071Y27166000D01*
X20971500Y27094572D01*
X21042928Y26951715D01*
X21042928Y26808858D01*
X20971500Y26666000D01*
X20900071Y26594572D01*
X20757214Y26523143D01*
X20257214Y26523143D01*
X21971500Y25737429D02*
X21828642Y25808858D01*
X21757214Y25880286D01*
X21685785Y26023143D01*
X21685785Y26451715D01*
X21757214Y26594572D01*
X21828642Y26666000D01*
X21971500Y26737429D01*
X22185785Y26737429D01*
X22328642Y26666000D01*
X22400071Y26594572D01*
X22471500Y26451715D01*
X22471500Y26023143D01*
X22400071Y25880286D01*
X22328642Y25808858D01*
X22185785Y25737429D01*
X21971500Y25737429D01*
X23757214Y25737429D02*
X23757214Y26523143D01*
X23685785Y26666000D01*
X23542928Y26737429D01*
X23257214Y26737429D01*
X23114357Y26666000D01*
X23757214Y25808858D02*
X23614357Y25737429D01*
X23257214Y25737429D01*
X23114357Y25808858D01*
X23042928Y25951715D01*
X23042928Y26094572D01*
X23114357Y26237429D01*
X23257214Y26308858D01*
X23614357Y26308858D01*
X23757214Y26380286D01*
X24471500Y25737429D02*
X24471500Y26737429D01*
X24471500Y26451715D02*
X24542928Y26594572D01*
X24614357Y26666000D01*
X24757214Y26737429D01*
X24900071Y26737429D01*
X26042928Y25737429D02*
X26042928Y27237429D01*
X26042928Y25808858D02*
X25900071Y25737429D01*
X25614357Y25737429D01*
X25471500Y25808858D01*
X25400071Y25880286D01*
X25328642Y26023143D01*
X25328642Y26451715D01*
X25400071Y26594572D01*
X25471500Y26666000D01*
X25614357Y26737429D01*
X25900071Y26737429D01*
X26042928Y26666000D01*
X27685785Y27237429D02*
X28542928Y27237429D01*
X28114357Y25737429D02*
X28114357Y27237429D01*
X29042928Y25737429D02*
X29042928Y27237429D01*
X29542928Y26166000D01*
X30042928Y27237429D01*
X30042928Y25737429D01*
X31614357Y25880286D02*
X31542928Y25808858D01*
X31328642Y25737429D01*
X31185785Y25737429D01*
X30971500Y25808858D01*
X30828642Y25951715D01*
X30757214Y26094572D01*
X30685785Y26380286D01*
X30685785Y26594572D01*
X30757214Y26880286D01*
X30828642Y27023143D01*
X30971500Y27166000D01*
X31185785Y27237429D01*
X31328642Y27237429D01*
X31542928Y27166000D01*
X31614357Y27094572D01*
X32185785Y27094572D02*
X32257214Y27166000D01*
X32400071Y27237429D01*
X32757214Y27237429D01*
X32900071Y27166000D01*
X32971500Y27094572D01*
X33042928Y26951715D01*
X33042928Y26808858D01*
X32971500Y26594572D01*
X32114357Y25737429D01*
X33042928Y25737429D01*
X33614357Y27094572D02*
X33685785Y27166000D01*
X33828642Y27237429D01*
X34185785Y27237429D01*
X34328642Y27166000D01*
X34400071Y27094572D01*
X34471500Y26951715D01*
X34471500Y26808858D01*
X34400071Y26594572D01*
X33542928Y25737429D01*
X34471500Y25737429D01*
X35400071Y27237429D02*
X35542928Y27237429D01*
X35685785Y27166000D01*
X35757214Y27094572D01*
X35828642Y26951715D01*
X35900071Y26666000D01*
X35900071Y26308858D01*
X35828642Y26023143D01*
X35757214Y25880286D01*
X35685785Y25808858D01*
X35542928Y25737429D01*
X35400071Y25737429D01*
X35257214Y25808858D01*
X35185785Y25880286D01*
X35114357Y26023143D01*
X35042928Y26308858D01*
X35042928Y26666000D01*
X35114357Y26951715D01*
X35185785Y27094572D01*
X35257214Y27166000D01*
X35400071Y27237429D01*
X36614357Y25737429D02*
X36900071Y25737429D01*
X37042928Y25808858D01*
X37114357Y25880286D01*
X37257214Y26094572D01*
X37328642Y26380286D01*
X37328642Y26951715D01*
X37257214Y27094572D01*
X37185785Y27166000D01*
X37042928Y27237429D01*
X36757214Y27237429D01*
X36614357Y27166000D01*
X36542928Y27094572D01*
X36471500Y26951715D01*
X36471500Y26594572D01*
X36542928Y26451715D01*
X36614357Y26380286D01*
X36757214Y26308858D01*
X37042928Y26308858D01*
X37185785Y26380286D01*
X37257214Y26451715D01*
X37328642Y26594572D01*
D11*
X46575285Y33043929D02*
X47075285Y33043929D01*
X46289571Y32865358D02*
X46825285Y32686786D01*
X46825285Y33151072D01*
X46325285Y33579643D02*
X46325285Y33651072D01*
X46361000Y33722500D01*
X46396714Y33758215D01*
X46468142Y33793929D01*
X46611000Y33829643D01*
X46789571Y33829643D01*
X46932428Y33793929D01*
X47003857Y33758215D01*
X47039571Y33722500D01*
X47075285Y33651072D01*
X47075285Y33579643D01*
X47039571Y33508215D01*
X47003857Y33472500D01*
X46932428Y33436786D01*
X46789571Y33401072D01*
X46611000Y33401072D01*
X46468142Y33436786D01*
X46396714Y33472500D01*
X46361000Y33508215D01*
X46325285Y33579643D01*
X46325285Y34079643D02*
X46325285Y34579643D01*
X47075285Y34258215D01*
X46646714Y34972500D02*
X46611000Y34901072D01*
X46575285Y34865358D01*
X46503857Y34829643D01*
X46468142Y34829643D01*
X46396714Y34865358D01*
X46361000Y34901072D01*
X46325285Y34972500D01*
X46325285Y35115358D01*
X46361000Y35186786D01*
X46396714Y35222500D01*
X46468142Y35258215D01*
X46503857Y35258215D01*
X46575285Y35222500D01*
X46611000Y35186786D01*
X46646714Y35115358D01*
X46646714Y34972500D01*
X46682428Y34901072D01*
X46718142Y34865358D01*
X46789571Y34829643D01*
X46932428Y34829643D01*
X47003857Y34865358D01*
X47039571Y34901072D01*
X47075285Y34972500D01*
X47075285Y35115358D01*
X47039571Y35186786D01*
X47003857Y35222500D01*
X46932428Y35258215D01*
X46789571Y35258215D01*
X46718142Y35222500D01*
X46682428Y35186786D01*
X46646714Y35115358D01*
X40800785Y21989072D02*
X41550785Y22239072D01*
X40800785Y22489072D01*
X41479357Y23167643D02*
X41515071Y23131929D01*
X41550785Y23024786D01*
X41550785Y22953358D01*
X41515071Y22846215D01*
X41443642Y22774786D01*
X41372214Y22739072D01*
X41229357Y22703358D01*
X41122214Y22703358D01*
X40979357Y22739072D01*
X40907928Y22774786D01*
X40836500Y22846215D01*
X40800785Y22953358D01*
X40800785Y23024786D01*
X40836500Y23131929D01*
X40872214Y23167643D01*
X41550785Y23881929D02*
X41550785Y23453358D01*
X41550785Y23667643D02*
X40800785Y23667643D01*
X40907928Y23596215D01*
X40979357Y23524786D01*
X41015071Y23453358D01*
X40872214Y24167643D02*
X40836500Y24203358D01*
X40800785Y24274786D01*
X40800785Y24453358D01*
X40836500Y24524786D01*
X40872214Y24560500D01*
X40943642Y24596215D01*
X41015071Y24596215D01*
X41122214Y24560500D01*
X41550785Y24131929D01*
X41550785Y24596215D01*
X40800785Y25274786D02*
X40800785Y24917643D01*
X41157928Y24881929D01*
X41122214Y24917643D01*
X41086500Y24989072D01*
X41086500Y25167643D01*
X41122214Y25239072D01*
X41157928Y25274786D01*
X41229357Y25310500D01*
X41407928Y25310500D01*
X41479357Y25274786D01*
X41515071Y25239072D01*
X41550785Y25167643D01*
X41550785Y24989072D01*
X41515071Y24917643D01*
X41479357Y24881929D01*
X20476928Y34903215D02*
X20476928Y35653215D01*
X20476928Y35296072D02*
X20905500Y35296072D01*
X20905500Y34903215D02*
X20905500Y35653215D01*
X21691214Y34974643D02*
X21655500Y34938929D01*
X21548357Y34903215D01*
X21476928Y34903215D01*
X21369785Y34938929D01*
X21298357Y35010358D01*
X21262642Y35081786D01*
X21226928Y35224643D01*
X21226928Y35331786D01*
X21262642Y35474643D01*
X21298357Y35546072D01*
X21369785Y35617500D01*
X21476928Y35653215D01*
X21548357Y35653215D01*
X21655500Y35617500D01*
X21691214Y35581786D01*
X22155500Y35653215D02*
X22226928Y35653215D01*
X22298357Y35617500D01*
X22334071Y35581786D01*
X22369785Y35510358D01*
X22405500Y35367500D01*
X22405500Y35188929D01*
X22369785Y35046072D01*
X22334071Y34974643D01*
X22298357Y34938929D01*
X22226928Y34903215D01*
X22155500Y34903215D01*
X22084071Y34938929D01*
X22048357Y34974643D01*
X22012642Y35046072D01*
X21976928Y35188929D01*
X21976928Y35367500D01*
X22012642Y35510358D01*
X22048357Y35581786D01*
X22084071Y35617500D01*
X22155500Y35653215D01*
X22691214Y35581786D02*
X22726928Y35617500D01*
X22798357Y35653215D01*
X22976928Y35653215D01*
X23048357Y35617500D01*
X23084071Y35581786D01*
X23119785Y35510358D01*
X23119785Y35438929D01*
X23084071Y35331786D01*
X22655500Y34903215D01*
X23119785Y34903215D01*
D13*
X53820600Y80672621D02*
X53820600Y80998179D01*
X54840600Y80672621D02*
X54840600Y80998179D01*
X18112200Y17655321D02*
X18112200Y17980879D01*
X17092200Y17655321D02*
X17092200Y17980879D01*
X15572200Y17655321D02*
X15572200Y17980879D01*
X14552200Y17655321D02*
X14552200Y17980879D01*
X13032200Y17655321D02*
X13032200Y17980879D01*
X12012200Y17655321D02*
X12012200Y17980879D01*
D11*
X9982200Y16167100D02*
X9982200Y11087100D01*
X22682200Y16167100D02*
X9982200Y16167100D01*
X22682200Y16167100D02*
X22682200Y11087100D01*
X20142200Y11087100D02*
X20142200Y9563100D01*
X22682200Y11087100D02*
X20142200Y11087100D01*
X12522200Y9563100D02*
X20142200Y9563100D01*
X12522200Y11087100D02*
X12522200Y9563100D01*
X9982200Y11087100D02*
X12522200Y11087100D01*
D13*
X10031000Y50103721D02*
X10031000Y50429279D01*
X11051000Y50103721D02*
X11051000Y50429279D01*
X9476200Y18399879D02*
X9476200Y18074321D01*
X8456200Y18399879D02*
X8456200Y18074321D01*
X88648321Y91111800D02*
X88973879Y91111800D01*
X88648321Y90091800D02*
X88973879Y90091800D01*
X79161321Y71871300D02*
X79486879Y71871300D01*
X79161321Y70851300D02*
X79486879Y70851300D01*
X79499779Y32764000D02*
X79174221Y32764000D01*
X79499779Y33784000D02*
X79174221Y33784000D01*
X79186721Y52719700D02*
X79512279Y52719700D01*
X79186721Y51699700D02*
X79512279Y51699700D01*
X79436279Y13206000D02*
X79110721Y13206000D01*
X79436279Y14226000D02*
X79110721Y14226000D01*
X8464300Y50065721D02*
X8464300Y50391279D01*
X9484300Y50065721D02*
X9484300Y50391279D01*
X8456200Y21160521D02*
X8456200Y21486079D01*
X9476200Y21160521D02*
X9476200Y21486079D01*
X49209600Y22594500D02*
X49184600Y22594500D01*
X49184600Y22594500D02*
X49184600Y26194500D01*
X49184600Y26194500D02*
X49209600Y26194500D01*
X52059600Y21869500D02*
X52059600Y22594500D01*
X52059600Y22594500D02*
X52084600Y22594500D01*
X52084600Y22594500D02*
X52084600Y26194500D01*
X52084600Y26194500D02*
X52059600Y26194500D01*
X50759600Y21869500D02*
X50759600Y22594500D01*
X50759600Y22594500D02*
X50509600Y22594500D01*
X50509600Y26194500D02*
X50759600Y26194500D01*
D14*
X81419700Y76022200D02*
X81419700Y75338440D01*
X81419700Y70764400D02*
X82103460Y70764400D01*
X86677500Y70764400D02*
X86677500Y71448160D01*
X86677500Y76022200D02*
X85993740Y76022200D01*
X82103460Y76022200D02*
X81419700Y76022200D01*
X81419700Y71448160D02*
X81419700Y70764400D01*
X85993740Y70764400D02*
X86677500Y70764400D01*
X86677500Y75338440D02*
X86677500Y76022200D01*
X80992701Y74083799D02*
X80738701Y74083799D01*
X80738701Y74083799D02*
X80738701Y73702799D01*
X80738701Y73702799D02*
X80992701Y73702799D01*
X80992701Y73702799D02*
X80992701Y74083799D01*
X85239101Y70083401D02*
X84858101Y70083401D01*
X84858101Y70083401D02*
X84858101Y70337401D01*
X84858101Y70337401D02*
X85239101Y70337401D01*
X85239101Y70337401D02*
X85239101Y70083401D01*
X82858099Y91689199D02*
X82858099Y91943199D01*
X83239099Y91689199D02*
X82858099Y91689199D01*
X83239099Y91943199D02*
X83239099Y91689199D01*
X82858099Y91943199D02*
X83239099Y91943199D01*
X87104499Y88323801D02*
X87104499Y87942801D01*
X87358499Y88323801D02*
X87104499Y88323801D01*
X87358499Y87942801D02*
X87358499Y88323801D01*
X87104499Y87942801D02*
X87358499Y87942801D01*
X81419700Y86688160D02*
X81419700Y86004400D01*
X82103460Y91262200D02*
X81419700Y91262200D01*
X86677500Y90578440D02*
X86677500Y91262200D01*
X85993740Y86004400D02*
X86677500Y86004400D01*
X81419700Y86004400D02*
X82103460Y86004400D01*
X81419700Y91262200D02*
X81419700Y90578440D01*
X86677500Y91262200D02*
X85993740Y91262200D01*
X86677500Y86004400D02*
X86677500Y86688160D01*
X81445100Y37782500D02*
X81445100Y37098740D01*
X81445100Y32524700D02*
X82128860Y32524700D01*
X86702900Y32524700D02*
X86702900Y33208460D01*
X86702900Y37782500D02*
X86019140Y37782500D01*
X82128860Y37782500D02*
X81445100Y37782500D01*
X81445100Y33208460D02*
X81445100Y32524700D01*
X86019140Y32524700D02*
X86702900Y32524700D01*
X86702900Y37098740D02*
X86702900Y37782500D01*
X81018101Y35844099D02*
X80764101Y35844099D01*
X80764101Y35844099D02*
X80764101Y35463099D01*
X80764101Y35463099D02*
X81018101Y35463099D01*
X81018101Y35463099D02*
X81018101Y35844099D01*
X85264501Y31843701D02*
X84883501Y31843701D01*
X84883501Y31843701D02*
X84883501Y32097701D01*
X84883501Y32097701D02*
X85264501Y32097701D01*
X85264501Y32097701D02*
X85264501Y31843701D01*
X81452501Y18447301D02*
X81452501Y17763541D01*
X81452501Y13189501D02*
X82136261Y13189501D01*
X86710301Y13189501D02*
X86710301Y13873261D01*
X86710301Y18447301D02*
X86026541Y18447301D01*
X82136261Y18447301D02*
X81452501Y18447301D01*
X81452501Y13873261D02*
X81452501Y13189501D01*
X86026541Y13189501D02*
X86710301Y13189501D01*
X86710301Y17763541D02*
X86710301Y18447301D01*
X81025502Y16508900D02*
X80771502Y16508900D01*
X80771502Y16508900D02*
X80771502Y16127900D01*
X80771502Y16127900D02*
X81025502Y16127900D01*
X81025502Y16127900D02*
X81025502Y16508900D01*
X85271902Y12508502D02*
X84890902Y12508502D01*
X84890902Y12508502D02*
X84890902Y12762502D01*
X84890902Y12762502D02*
X85271902Y12762502D01*
X85271902Y12762502D02*
X85271902Y12508502D01*
X81445100Y56870600D02*
X81445100Y56186840D01*
X81445100Y51612800D02*
X82128860Y51612800D01*
X86702900Y51612800D02*
X86702900Y52296560D01*
X86702900Y56870600D02*
X86019140Y56870600D01*
X82128860Y56870600D02*
X81445100Y56870600D01*
X81445100Y52296560D02*
X81445100Y51612800D01*
X86019140Y51612800D02*
X86702900Y51612800D01*
X86702900Y56186840D02*
X86702900Y56870600D01*
X81018101Y54932199D02*
X80764101Y54932199D01*
X80764101Y54932199D02*
X80764101Y54551199D01*
X80764101Y54551199D02*
X81018101Y54551199D01*
X81018101Y54551199D02*
X81018101Y54932199D01*
X85264501Y50931801D02*
X84883501Y50931801D01*
X84883501Y50931801D02*
X84883501Y51185801D01*
X84883501Y51185801D02*
X85264501Y51185801D01*
X85264501Y51185801D02*
X85264501Y50931801D01*
D11*
X39560100Y26474600D02*
X38210100Y26474600D01*
X39560100Y21349600D02*
X44210100Y21349600D01*
X39560100Y26599600D02*
X44210100Y26599600D01*
X39560100Y21349600D02*
X39560100Y21574600D01*
X44210100Y21349600D02*
X44210100Y21574600D01*
X44210100Y26599600D02*
X44210100Y26374600D01*
X39560100Y26599600D02*
X39560100Y26474600D01*
X19632500Y39261800D02*
X18282500Y39261800D01*
X19632500Y34136800D02*
X24282500Y34136800D01*
X19632500Y39386800D02*
X24282500Y39386800D01*
X19632500Y34136800D02*
X19632500Y34361800D01*
X24282500Y34136800D02*
X24282500Y34361800D01*
X24282500Y39386800D02*
X24282500Y39161800D01*
X19632500Y39386800D02*
X19632500Y39261800D01*
X44727500Y36767800D02*
X43377500Y36767800D01*
X44727500Y31642800D02*
X49377500Y31642800D01*
X44727500Y36892800D02*
X49377500Y36892800D01*
X44727500Y31642800D02*
X44727500Y31867800D01*
X49377500Y31642800D02*
X49377500Y31867800D01*
X49377500Y36892800D02*
X49377500Y36667800D01*
X44727500Y36892800D02*
X44727500Y36767800D01*
D13*
X53004600Y9946100D02*
X53934600Y9946100D01*
X56164600Y9946100D02*
X55234600Y9946100D01*
X56164600Y9946100D02*
X56164600Y12106100D01*
X53004600Y9946100D02*
X53004600Y11406100D01*
X44876600Y9946100D02*
X45806600Y9946100D01*
X48036600Y9946100D02*
X47106600Y9946100D01*
X48036600Y9946100D02*
X48036600Y12106100D01*
X44876600Y9946100D02*
X44876600Y11406100D01*
X36723200Y9930100D02*
X37653200Y9930100D01*
X39883200Y9930100D02*
X38953200Y9930100D01*
X39883200Y9930100D02*
X39883200Y12090100D01*
X36723200Y9930100D02*
X36723200Y11390100D01*
X28544400Y9920700D02*
X29474400Y9920700D01*
X31704400Y9920700D02*
X30774400Y9920700D01*
X31704400Y9920700D02*
X31704400Y12080700D01*
X28544400Y9920700D02*
X28544400Y11380700D01*
X50685400Y83930700D02*
X50885400Y83930700D01*
X50885400Y83930700D02*
X50885400Y88230700D01*
X50885400Y88230700D02*
X50735400Y88230700D01*
X45835400Y88230700D02*
X45685400Y88230700D01*
X45685400Y88230700D02*
X45685400Y83930700D01*
X45685400Y83930700D02*
X45885400Y83930700D01*
X41643000Y83950000D02*
X41843000Y83950000D01*
X41843000Y83950000D02*
X41843000Y88250000D01*
X41843000Y88250000D02*
X41693000Y88250000D01*
X36793000Y88250000D02*
X36643000Y88250000D01*
X36643000Y88250000D02*
X36643000Y83950000D01*
X36643000Y83950000D02*
X36843000Y83950000D01*
X55001379Y12736100D02*
X54675821Y12736100D01*
X55001379Y13756100D02*
X54675821Y13756100D01*
X52351400Y12672379D02*
X52351400Y12346821D01*
X51331400Y12672379D02*
X51331400Y12346821D01*
X46848079Y12736100D02*
X46522521Y12736100D01*
X46848079Y13756100D02*
X46522521Y13756100D01*
X44223400Y12646879D02*
X44223400Y12321321D01*
X43203400Y12646879D02*
X43203400Y12321321D01*
X38719979Y12685300D02*
X38394421Y12685300D01*
X38719979Y13705300D02*
X38394421Y13705300D01*
X36095400Y12621479D02*
X36095400Y12295921D01*
X35075400Y12621479D02*
X35075400Y12295921D01*
X30541179Y12685300D02*
X30215621Y12685300D01*
X30541179Y13705300D02*
X30215621Y13705300D01*
X27967400Y12596179D02*
X27967400Y12270621D01*
X26947400Y12596179D02*
X26947400Y12270621D01*
X16431800Y48668621D02*
X16431800Y48994179D01*
X17451800Y48668621D02*
X17451800Y48994179D01*
X32958500Y78458279D02*
X32958500Y78132721D01*
X31938500Y78458279D02*
X31938500Y78132721D01*
X55446200Y90451721D02*
X55446200Y90777279D01*
X56466200Y90451721D02*
X56466200Y90777279D01*
X58404979Y90866500D02*
X58079421Y90866500D01*
X58404979Y91886500D02*
X58079421Y91886500D01*
X19784600Y48643321D02*
X19784600Y48968879D01*
X20804600Y48643321D02*
X20804600Y48968879D01*
X50776600Y81048979D02*
X50776600Y80723421D01*
X49756600Y81048979D02*
X49756600Y80723421D01*
X55192200Y70868221D02*
X55192200Y71193779D01*
X56212200Y70868221D02*
X56212200Y71193779D01*
X58150979Y71308500D02*
X57825421Y71308500D01*
X58150979Y72328500D02*
X57825421Y72328500D01*
X61542200Y66474121D02*
X61542200Y66799679D01*
X62562200Y66474121D02*
X62562200Y66799679D01*
X60987400Y63650079D02*
X60987400Y63324521D01*
X59967400Y63650079D02*
X59967400Y63324521D01*
X93155600Y67457236D02*
X93155600Y68661364D01*
X90435600Y67457236D02*
X90435600Y68661364D01*
X90435600Y79332364D02*
X90435600Y78128236D01*
X93155600Y79332364D02*
X93155600Y78128236D01*
X43559000Y57685721D02*
X43559000Y58011279D01*
X44579000Y57685721D02*
X44579000Y58011279D01*
X47711679Y50734500D02*
X47386121Y50734500D01*
X47711679Y51754500D02*
X47386121Y51754500D01*
X42699400Y61668879D02*
X42699400Y61343321D01*
X41679400Y61668879D02*
X41679400Y61343321D01*
X38216621Y51754500D02*
X38542179Y51754500D01*
X38216621Y50734500D02*
X38542179Y50734500D01*
X74814600Y94572364D02*
X74814600Y93368236D01*
X77534600Y94572364D02*
X77534600Y93368236D01*
X77598100Y82694236D02*
X77598100Y83898364D01*
X74878100Y82694236D02*
X74878100Y83898364D01*
X43508200Y65458121D02*
X43508200Y65783679D01*
X44528200Y65458121D02*
X44528200Y65783679D01*
X47736979Y52410900D02*
X47411421Y52410900D01*
X47736979Y53430900D02*
X47411421Y53430900D01*
X42699400Y69238079D02*
X42699400Y68912521D01*
X41679400Y69238079D02*
X41679400Y68912521D01*
X38216621Y53430900D02*
X38542179Y53430900D01*
X38216621Y52410900D02*
X38542179Y52410900D01*
X93308000Y29062136D02*
X93308000Y30266264D01*
X90588000Y29062136D02*
X90588000Y30266264D01*
X90537200Y41168864D02*
X90537200Y39964736D01*
X93257200Y41168864D02*
X93257200Y39964736D01*
X43508200Y73230521D02*
X43508200Y73556079D01*
X44528200Y73230521D02*
X44528200Y73556079D01*
X47736979Y54087300D02*
X47411421Y54087300D01*
X47736979Y55107300D02*
X47411421Y55107300D01*
X42648600Y76858079D02*
X42648600Y76532521D01*
X41628600Y76858079D02*
X41628600Y76532521D01*
X38216621Y55107300D02*
X38542179Y55107300D01*
X38216621Y54087300D02*
X38542179Y54087300D01*
X93257200Y9770836D02*
X93257200Y10974964D01*
X90537200Y9770836D02*
X90537200Y10974964D01*
X90461000Y21846164D02*
X90461000Y20642036D01*
X93181000Y21846164D02*
X93181000Y20642036D01*
X18108200Y48643321D02*
X18108200Y48968879D01*
X19128200Y48643321D02*
X19128200Y48968879D01*
X41721500Y81125279D02*
X41721500Y80799721D01*
X40701500Y81125279D02*
X40701500Y80799721D01*
X55344600Y80647321D02*
X55344600Y80972879D01*
X56364600Y80647321D02*
X56364600Y80972879D01*
X58303379Y81062100D02*
X57977821Y81062100D01*
X58303379Y82082100D02*
X57977821Y82082100D01*
X61542200Y74094121D02*
X61542200Y74419679D01*
X62562200Y74094121D02*
X62562200Y74419679D01*
X65864200Y63650079D02*
X65864200Y63324521D01*
X64844200Y63650079D02*
X64844200Y63324521D01*
X93308000Y48175636D02*
X93308000Y49379764D01*
X90588000Y48175636D02*
X90588000Y49379764D01*
X90461000Y60174764D02*
X90461000Y58970636D01*
X93181000Y60174764D02*
X93181000Y58970636D01*
X4891821Y64352900D02*
X5217379Y64352900D01*
X4891821Y63332900D02*
X5217379Y63332900D01*
X47952779Y41781000D02*
X47627221Y41781000D01*
X47952779Y42801000D02*
X47627221Y42801000D01*
X4891821Y62676500D02*
X5217379Y62676500D01*
X4891821Y61656500D02*
X5217379Y61656500D01*
X15077221Y36692300D02*
X15402779Y36692300D01*
X15077221Y35672300D02*
X15402779Y35672300D01*
X28966379Y36891500D02*
X28640821Y36891500D01*
X28966379Y37911500D02*
X28640821Y37911500D01*
X28915579Y34757900D02*
X28590021Y34757900D01*
X28915579Y35777900D02*
X28590021Y35777900D01*
X15077221Y38419500D02*
X15402779Y38419500D01*
X15077221Y37399500D02*
X15402779Y37399500D01*
X5217379Y60005500D02*
X4891821Y60005500D01*
X5217379Y61025500D02*
X4891821Y61025500D01*
X4891821Y66067400D02*
X5217379Y66067400D01*
X4891821Y65047400D02*
X5217379Y65047400D01*
D15*
G36*
X22455910Y33060610D02*
G01*
X22534454Y33060180D01*
X22591298Y33059016D01*
X22630105Y33056751D01*
X22654538Y33053018D01*
X22668262Y33047452D01*
X22674940Y33039685D01*
X22678236Y33029353D01*
X22678556Y33028015D01*
X22683562Y33003879D01*
X22692829Y32956257D01*
X22705392Y32890217D01*
X22720287Y32810830D01*
X22736551Y32723162D01*
X22737119Y32720083D01*
X22753410Y32634169D01*
X22768652Y32558262D01*
X22781861Y32496913D01*
X22792054Y32454676D01*
X22798248Y32436103D01*
X22798543Y32435774D01*
X22816788Y32426705D01*
X22854405Y32411591D01*
X22903271Y32393696D01*
X22903543Y32393600D01*
X22965093Y32370465D01*
X23037657Y32340993D01*
X23106057Y32311361D01*
X23109294Y32309896D01*
X23220702Y32259332D01*
X23467399Y32427798D01*
X23543077Y32479155D01*
X23611631Y32525069D01*
X23669088Y32562928D01*
X23711476Y32590121D01*
X23734825Y32604037D01*
X23737042Y32605069D01*
X23754010Y32600474D01*
X23785701Y32578303D01*
X23833352Y32537511D01*
X23898198Y32477053D01*
X23964397Y32412731D01*
X24028214Y32349346D01*
X24085329Y32291507D01*
X24132305Y32242783D01*
X24165703Y32206748D01*
X24182085Y32186974D01*
X24182694Y32185956D01*
X24184505Y32172386D01*
X24177683Y32150225D01*
X24160540Y32116480D01*
X24131393Y32068158D01*
X24088555Y32002266D01*
X24031448Y31917441D01*
X23980766Y31842781D01*
X23935461Y31775818D01*
X23898150Y31720442D01*
X23871452Y31680538D01*
X23857985Y31659996D01*
X23857137Y31658602D01*
X23858781Y31638920D01*
X23871245Y31600665D01*
X23892048Y31551069D01*
X23899462Y31535230D01*
X23931814Y31464668D01*
X23966328Y31384605D01*
X23994365Y31315329D01*
X24014568Y31263913D01*
X24030615Y31224839D01*
X24039888Y31204417D01*
X24041041Y31202844D01*
X24058096Y31200237D01*
X24098298Y31193095D01*
X24156302Y31182435D01*
X24226763Y31169273D01*
X24304335Y31154625D01*
X24383672Y31139509D01*
X24459431Y31124940D01*
X24526264Y31111936D01*
X24578828Y31101513D01*
X24611776Y31094688D01*
X24619857Y31092759D01*
X24628205Y31087996D01*
X24634506Y31077240D01*
X24639045Y31056860D01*
X24642104Y31023224D01*
X24643967Y30972703D01*
X24644918Y30901666D01*
X24645240Y30806482D01*
X24645257Y30767466D01*
X24645257Y30450159D01*
X24569057Y30435119D01*
X24526663Y30426963D01*
X24463400Y30415059D01*
X24386962Y30400842D01*
X24305043Y30385748D01*
X24282400Y30381603D01*
X24206806Y30366905D01*
X24140953Y30352453D01*
X24090366Y30339583D01*
X24060574Y30329636D01*
X24055612Y30326671D01*
X24043426Y30305675D01*
X24025953Y30264991D01*
X24006577Y30212636D01*
X24002734Y30201358D01*
X23977339Y30131435D01*
X23945817Y30052540D01*
X23914969Y29981692D01*
X23914817Y29981363D01*
X23863447Y29870225D01*
X24032399Y29621705D01*
X24201352Y29373186D01*
X23984429Y29155900D01*
X23918819Y29091232D01*
X23858979Y29034225D01*
X23808267Y28987925D01*
X23770046Y28955374D01*
X23747675Y28939615D01*
X23744466Y28938615D01*
X23725626Y28946489D01*
X23687180Y28968380D01*
X23633330Y29001691D01*
X23568276Y29043827D01*
X23497940Y29091015D01*
X23426555Y29139148D01*
X23362908Y29181030D01*
X23311041Y29214087D01*
X23274995Y29235740D01*
X23258867Y29243415D01*
X23239189Y29236921D01*
X23201875Y29219808D01*
X23154621Y29195632D01*
X23149612Y29192945D01*
X23085977Y29161031D01*
X23042341Y29145379D01*
X23015202Y29145213D01*
X23001057Y29159754D01*
X23000975Y29159958D01*
X22993905Y29177179D01*
X22977042Y29218059D01*
X22951695Y29279433D01*
X22919171Y29358139D01*
X22880778Y29451011D01*
X22837822Y29554886D01*
X22796222Y29655456D01*
X22750504Y29766442D01*
X22708526Y29869255D01*
X22671548Y29960743D01*
X22640827Y30037757D01*
X22617622Y30097143D01*
X22603190Y30135749D01*
X22598743Y30150158D01*
X22609896Y30166686D01*
X22639069Y30193028D01*
X22677971Y30222071D01*
X22788757Y30313919D01*
X22875351Y30419199D01*
X22936716Y30535692D01*
X22971815Y30661182D01*
X22979608Y30793451D01*
X22973943Y30854501D01*
X22943078Y30981163D01*
X22889920Y31093017D01*
X22817767Y31188957D01*
X22729917Y31267882D01*
X22629665Y31328688D01*
X22520310Y31370271D01*
X22405147Y31391530D01*
X22287475Y31391359D01*
X22170590Y31368657D01*
X22057789Y31322320D01*
X21952369Y31251245D01*
X21908368Y31211047D01*
X21823979Y31107829D01*
X21765222Y30995033D01*
X21731704Y30875948D01*
X21723035Y30753863D01*
X21738823Y30632065D01*
X21778678Y30513842D01*
X21842207Y30402483D01*
X21929021Y30301274D01*
X22026029Y30222071D01*
X22066437Y30191796D01*
X22094982Y30165739D01*
X22105257Y30150133D01*
X22099877Y30133115D01*
X22084575Y30092458D01*
X22060612Y30031316D01*
X22029244Y29952839D01*
X21991732Y29860178D01*
X21949333Y29756486D01*
X21907663Y29655432D01*
X21861690Y29544351D01*
X21819107Y29441417D01*
X21781221Y29349793D01*
X21749340Y29272642D01*
X21724771Y29213127D01*
X21708820Y29174414D01*
X21702910Y29159958D01*
X21688948Y29145273D01*
X21661940Y29145316D01*
X21618413Y29160859D01*
X21554890Y29192674D01*
X21554388Y29192945D01*
X21506560Y29217635D01*
X21467897Y29235620D01*
X21446095Y29243344D01*
X21445133Y29243415D01*
X21428721Y29235580D01*
X21392487Y29213793D01*
X21340474Y29180630D01*
X21276725Y29138667D01*
X21206060Y29091015D01*
X21134116Y29042767D01*
X21069274Y29000807D01*
X21015735Y28967731D01*
X20977697Y28946137D01*
X20959533Y28938615D01*
X20942808Y28948501D01*
X20909180Y28976132D01*
X20862010Y29018463D01*
X20804658Y29072453D01*
X20740484Y29135059D01*
X20719497Y29155975D01*
X20502499Y29373335D01*
X20667668Y29615738D01*
X20717864Y29690177D01*
X20761919Y29756986D01*
X20797362Y29812293D01*
X20821719Y29852229D01*
X20832522Y29872922D01*
X20832838Y29874395D01*
X20827143Y29893900D01*
X20811826Y29933136D01*
X20789537Y29985528D01*
X20773893Y30020603D01*
X20744641Y30087757D01*
X20717094Y30155600D01*
X20695737Y30212924D01*
X20689935Y30230386D01*
X20673452Y30277020D01*
X20657340Y30313053D01*
X20648490Y30326671D01*
X20628960Y30335006D01*
X20586334Y30346821D01*
X20526145Y30360777D01*
X20453922Y30375536D01*
X20421600Y30381603D01*
X20339522Y30396685D01*
X20260795Y30411289D01*
X20193109Y30423978D01*
X20144160Y30433316D01*
X20134943Y30435119D01*
X20058743Y30450159D01*
X20058743Y30767466D01*
X20058914Y30871804D01*
X20059616Y30950745D01*
X20061134Y31007920D01*
X20063749Y31046959D01*
X20067746Y31071493D01*
X20073409Y31085153D01*
X20081020Y31091569D01*
X20084143Y31092759D01*
X20102978Y31096978D01*
X20144588Y31105396D01*
X20203630Y31116997D01*
X20274757Y31130763D01*
X20352625Y31145678D01*
X20431887Y31160726D01*
X20507198Y31174889D01*
X20573213Y31187152D01*
X20624587Y31196497D01*
X20655975Y31201908D01*
X20662959Y31202844D01*
X20669285Y31215362D01*
X20683290Y31248712D01*
X20702355Y31296581D01*
X20709634Y31315329D01*
X20738996Y31387763D01*
X20773571Y31467788D01*
X20804537Y31535230D01*
X20827323Y31586799D01*
X20842482Y31629173D01*
X20847542Y31655124D01*
X20846736Y31658602D01*
X20836041Y31675022D01*
X20811620Y31711541D01*
X20776095Y31764271D01*
X20732087Y31829323D01*
X20682217Y31902807D01*
X20672356Y31917313D01*
X20614492Y32003254D01*
X20571956Y32068697D01*
X20543054Y32116654D01*
X20526090Y32150138D01*
X20519367Y32172163D01*
X20521190Y32185741D01*
X20521236Y32185827D01*
X20535586Y32203661D01*
X20567323Y32238141D01*
X20613010Y32285690D01*
X20669204Y32342736D01*
X20732468Y32405703D01*
X20739602Y32412731D01*
X20819330Y32489938D01*
X20880857Y32546628D01*
X20925421Y32583848D01*
X20954257Y32602643D01*
X20966958Y32605069D01*
X20985494Y32594487D01*
X21023961Y32570042D01*
X21078386Y32534346D01*
X21144798Y32490011D01*
X21219225Y32439647D01*
X21236601Y32427798D01*
X21483297Y32259332D01*
X21594706Y32309896D01*
X21662457Y32339363D01*
X21735183Y32368999D01*
X21797703Y32392628D01*
X21800457Y32393600D01*
X21849360Y32411501D01*
X21887057Y32426638D01*
X21905425Y32435748D01*
X21905456Y32435774D01*
X21911285Y32452241D01*
X21921192Y32492739D01*
X21934195Y32552716D01*
X21949309Y32627618D01*
X21965552Y32712894D01*
X21966881Y32720083D01*
X21983175Y32807944D01*
X21998133Y32887698D01*
X22010791Y32954277D01*
X22020186Y33002611D01*
X22025354Y33027633D01*
X22025444Y33028015D01*
X22028589Y33038659D01*
X22034704Y33046696D01*
X22047453Y33052491D01*
X22070500Y33056411D01*
X22107509Y33058823D01*
X22162144Y33060093D01*
X22238067Y33060587D01*
X22338944Y33060672D01*
X22352000Y33060672D01*
X22455910Y33060610D01*
G37*
X22455910Y33060610D02*
X22534454Y33060180D01*
X22591298Y33059016D01*
X22630105Y33056751D01*
X22654538Y33053018D01*
X22668262Y33047452D01*
X22674940Y33039685D01*
X22678236Y33029353D01*
X22678556Y33028015D01*
X22683562Y33003879D01*
X22692829Y32956257D01*
X22705392Y32890217D01*
X22720287Y32810830D01*
X22736551Y32723162D01*
X22737119Y32720083D01*
X22753410Y32634169D01*
X22768652Y32558262D01*
X22781861Y32496913D01*
X22792054Y32454676D01*
X22798248Y32436103D01*
X22798543Y32435774D01*
X22816788Y32426705D01*
X22854405Y32411591D01*
X22903271Y32393696D01*
X22903543Y32393600D01*
X22965093Y32370465D01*
X23037657Y32340993D01*
X23106057Y32311361D01*
X23109294Y32309896D01*
X23220702Y32259332D01*
X23467399Y32427798D01*
X23543077Y32479155D01*
X23611631Y32525069D01*
X23669088Y32562928D01*
X23711476Y32590121D01*
X23734825Y32604037D01*
X23737042Y32605069D01*
X23754010Y32600474D01*
X23785701Y32578303D01*
X23833352Y32537511D01*
X23898198Y32477053D01*
X23964397Y32412731D01*
X24028214Y32349346D01*
X24085329Y32291507D01*
X24132305Y32242783D01*
X24165703Y32206748D01*
X24182085Y32186974D01*
X24182694Y32185956D01*
X24184505Y32172386D01*
X24177683Y32150225D01*
X24160540Y32116480D01*
X24131393Y32068158D01*
X24088555Y32002266D01*
X24031448Y31917441D01*
X23980766Y31842781D01*
X23935461Y31775818D01*
X23898150Y31720442D01*
X23871452Y31680538D01*
X23857985Y31659996D01*
X23857137Y31658602D01*
X23858781Y31638920D01*
X23871245Y31600665D01*
X23892048Y31551069D01*
X23899462Y31535230D01*
X23931814Y31464668D01*
X23966328Y31384605D01*
X23994365Y31315329D01*
X24014568Y31263913D01*
X24030615Y31224839D01*
X24039888Y31204417D01*
X24041041Y31202844D01*
X24058096Y31200237D01*
X24098298Y31193095D01*
X24156302Y31182435D01*
X24226763Y31169273D01*
X24304335Y31154625D01*
X24383672Y31139509D01*
X24459431Y31124940D01*
X24526264Y31111936D01*
X24578828Y31101513D01*
X24611776Y31094688D01*
X24619857Y31092759D01*
X24628205Y31087996D01*
X24634506Y31077240D01*
X24639045Y31056860D01*
X24642104Y31023224D01*
X24643967Y30972703D01*
X24644918Y30901666D01*
X24645240Y30806482D01*
X24645257Y30767466D01*
X24645257Y30450159D01*
X24569057Y30435119D01*
X24526663Y30426963D01*
X24463400Y30415059D01*
X24386962Y30400842D01*
X24305043Y30385748D01*
X24282400Y30381603D01*
X24206806Y30366905D01*
X24140953Y30352453D01*
X24090366Y30339583D01*
X24060574Y30329636D01*
X24055612Y30326671D01*
X24043426Y30305675D01*
X24025953Y30264991D01*
X24006577Y30212636D01*
X24002734Y30201358D01*
X23977339Y30131435D01*
X23945817Y30052540D01*
X23914969Y29981692D01*
X23914817Y29981363D01*
X23863447Y29870225D01*
X24032399Y29621705D01*
X24201352Y29373186D01*
X23984429Y29155900D01*
X23918819Y29091232D01*
X23858979Y29034225D01*
X23808267Y28987925D01*
X23770046Y28955374D01*
X23747675Y28939615D01*
X23744466Y28938615D01*
X23725626Y28946489D01*
X23687180Y28968380D01*
X23633330Y29001691D01*
X23568276Y29043827D01*
X23497940Y29091015D01*
X23426555Y29139148D01*
X23362908Y29181030D01*
X23311041Y29214087D01*
X23274995Y29235740D01*
X23258867Y29243415D01*
X23239189Y29236921D01*
X23201875Y29219808D01*
X23154621Y29195632D01*
X23149612Y29192945D01*
X23085977Y29161031D01*
X23042341Y29145379D01*
X23015202Y29145213D01*
X23001057Y29159754D01*
X23000975Y29159958D01*
X22993905Y29177179D01*
X22977042Y29218059D01*
X22951695Y29279433D01*
X22919171Y29358139D01*
X22880778Y29451011D01*
X22837822Y29554886D01*
X22796222Y29655456D01*
X22750504Y29766442D01*
X22708526Y29869255D01*
X22671548Y29960743D01*
X22640827Y30037757D01*
X22617622Y30097143D01*
X22603190Y30135749D01*
X22598743Y30150158D01*
X22609896Y30166686D01*
X22639069Y30193028D01*
X22677971Y30222071D01*
X22788757Y30313919D01*
X22875351Y30419199D01*
X22936716Y30535692D01*
X22971815Y30661182D01*
X22979608Y30793451D01*
X22973943Y30854501D01*
X22943078Y30981163D01*
X22889920Y31093017D01*
X22817767Y31188957D01*
X22729917Y31267882D01*
X22629665Y31328688D01*
X22520310Y31370271D01*
X22405147Y31391530D01*
X22287475Y31391359D01*
X22170590Y31368657D01*
X22057789Y31322320D01*
X21952369Y31251245D01*
X21908368Y31211047D01*
X21823979Y31107829D01*
X21765222Y30995033D01*
X21731704Y30875948D01*
X21723035Y30753863D01*
X21738823Y30632065D01*
X21778678Y30513842D01*
X21842207Y30402483D01*
X21929021Y30301274D01*
X22026029Y30222071D01*
X22066437Y30191796D01*
X22094982Y30165739D01*
X22105257Y30150133D01*
X22099877Y30133115D01*
X22084575Y30092458D01*
X22060612Y30031316D01*
X22029244Y29952839D01*
X21991732Y29860178D01*
X21949333Y29756486D01*
X21907663Y29655432D01*
X21861690Y29544351D01*
X21819107Y29441417D01*
X21781221Y29349793D01*
X21749340Y29272642D01*
X21724771Y29213127D01*
X21708820Y29174414D01*
X21702910Y29159958D01*
X21688948Y29145273D01*
X21661940Y29145316D01*
X21618413Y29160859D01*
X21554890Y29192674D01*
X21554388Y29192945D01*
X21506560Y29217635D01*
X21467897Y29235620D01*
X21446095Y29243344D01*
X21445133Y29243415D01*
X21428721Y29235580D01*
X21392487Y29213793D01*
X21340474Y29180630D01*
X21276725Y29138667D01*
X21206060Y29091015D01*
X21134116Y29042767D01*
X21069274Y29000807D01*
X21015735Y28967731D01*
X20977697Y28946137D01*
X20959533Y28938615D01*
X20942808Y28948501D01*
X20909180Y28976132D01*
X20862010Y29018463D01*
X20804658Y29072453D01*
X20740484Y29135059D01*
X20719497Y29155975D01*
X20502499Y29373335D01*
X20667668Y29615738D01*
X20717864Y29690177D01*
X20761919Y29756986D01*
X20797362Y29812293D01*
X20821719Y29852229D01*
X20832522Y29872922D01*
X20832838Y29874395D01*
X20827143Y29893900D01*
X20811826Y29933136D01*
X20789537Y29985528D01*
X20773893Y30020603D01*
X20744641Y30087757D01*
X20717094Y30155600D01*
X20695737Y30212924D01*
X20689935Y30230386D01*
X20673452Y30277020D01*
X20657340Y30313053D01*
X20648490Y30326671D01*
X20628960Y30335006D01*
X20586334Y30346821D01*
X20526145Y30360777D01*
X20453922Y30375536D01*
X20421600Y30381603D01*
X20339522Y30396685D01*
X20260795Y30411289D01*
X20193109Y30423978D01*
X20144160Y30433316D01*
X20134943Y30435119D01*
X20058743Y30450159D01*
X20058743Y30767466D01*
X20058914Y30871804D01*
X20059616Y30950745D01*
X20061134Y31007920D01*
X20063749Y31046959D01*
X20067746Y31071493D01*
X20073409Y31085153D01*
X20081020Y31091569D01*
X20084143Y31092759D01*
X20102978Y31096978D01*
X20144588Y31105396D01*
X20203630Y31116997D01*
X20274757Y31130763D01*
X20352625Y31145678D01*
X20431887Y31160726D01*
X20507198Y31174889D01*
X20573213Y31187152D01*
X20624587Y31196497D01*
X20655975Y31201908D01*
X20662959Y31202844D01*
X20669285Y31215362D01*
X20683290Y31248712D01*
X20702355Y31296581D01*
X20709634Y31315329D01*
X20738996Y31387763D01*
X20773571Y31467788D01*
X20804537Y31535230D01*
X20827323Y31586799D01*
X20842482Y31629173D01*
X20847542Y31655124D01*
X20846736Y31658602D01*
X20836041Y31675022D01*
X20811620Y31711541D01*
X20776095Y31764271D01*
X20732087Y31829323D01*
X20682217Y31902807D01*
X20672356Y31917313D01*
X20614492Y32003254D01*
X20571956Y32068697D01*
X20543054Y32116654D01*
X20526090Y32150138D01*
X20519367Y32172163D01*
X20521190Y32185741D01*
X20521236Y32185827D01*
X20535586Y32203661D01*
X20567323Y32238141D01*
X20613010Y32285690D01*
X20669204Y32342736D01*
X20732468Y32405703D01*
X20739602Y32412731D01*
X20819330Y32489938D01*
X20880857Y32546628D01*
X20925421Y32583848D01*
X20954257Y32602643D01*
X20966958Y32605069D01*
X20985494Y32594487D01*
X21023961Y32570042D01*
X21078386Y32534346D01*
X21144798Y32490011D01*
X21219225Y32439647D01*
X21236601Y32427798D01*
X21483297Y32259332D01*
X21594706Y32309896D01*
X21662457Y32339363D01*
X21735183Y32368999D01*
X21797703Y32392628D01*
X21800457Y32393600D01*
X21849360Y32411501D01*
X21887057Y32426638D01*
X21905425Y32435748D01*
X21905456Y32435774D01*
X21911285Y32452241D01*
X21921192Y32492739D01*
X21934195Y32552716D01*
X21949309Y32627618D01*
X21965552Y32712894D01*
X21966881Y32720083D01*
X21983175Y32807944D01*
X21998133Y32887698D01*
X22010791Y32954277D01*
X22020186Y33002611D01*
X22025354Y33027633D01*
X22025444Y33028015D01*
X22028589Y33038659D01*
X22034704Y33046696D01*
X22047453Y33052491D01*
X22070500Y33056411D01*
X22107509Y33058823D01*
X22162144Y33060093D01*
X22238067Y33060587D01*
X22338944Y33060672D01*
X22352000Y33060672D01*
X22455910Y33060610D01*
G36*
X25220196Y28207574D02*
G01*
X25233884Y28256263D01*
X25256096Y28292109D01*
X25288574Y28320445D01*
X25302733Y28329603D01*
X25367053Y28353451D01*
X25437473Y28354952D01*
X25505595Y28335992D01*
X25563021Y28298461D01*
X25590719Y28264862D01*
X25612662Y28203894D01*
X25614405Y28155650D01*
X25610457Y28091142D01*
X25461686Y28026024D01*
X25389349Y27992756D01*
X25342084Y27965994D01*
X25317507Y27942814D01*
X25313237Y27920291D01*
X25326889Y27895503D01*
X25341943Y27879072D01*
X25385746Y27852723D01*
X25433389Y27850877D01*
X25477145Y27871412D01*
X25509289Y27912206D01*
X25515038Y27926611D01*
X25542576Y27971602D01*
X25574258Y27990776D01*
X25617714Y28007179D01*
X25617714Y27944992D01*
X25613872Y27902675D01*
X25598823Y27866989D01*
X25567280Y27826015D01*
X25562592Y27820691D01*
X25527506Y27784238D01*
X25497347Y27764675D01*
X25459615Y27755675D01*
X25428335Y27752728D01*
X25372385Y27751993D01*
X25332555Y27761298D01*
X25307708Y27775112D01*
X25268656Y27805491D01*
X25241625Y27838345D01*
X25224517Y27879664D01*
X25215238Y27935437D01*
X25211693Y28011653D01*
X25211410Y28050336D01*
X25212372Y28096711D01*
X25300007Y28096711D01*
X25301023Y28071832D01*
X25303556Y28067758D01*
X25320274Y28073293D01*
X25356249Y28087941D01*
X25404331Y28108768D01*
X25414386Y28113244D01*
X25475152Y28144144D01*
X25508632Y28171301D01*
X25515990Y28196738D01*
X25498391Y28222477D01*
X25483856Y28233849D01*
X25431410Y28256594D01*
X25382322Y28252836D01*
X25341227Y28225074D01*
X25312758Y28175806D01*
X25303631Y28136701D01*
X25300007Y28096711D01*
X25212372Y28096711D01*
X25213285Y28140709D01*
X25220196Y28207574D01*
G37*
X25220196Y28207574D02*
X25233884Y28256263D01*
X25256096Y28292109D01*
X25288574Y28320445D01*
X25302733Y28329603D01*
X25367053Y28353451D01*
X25437473Y28354952D01*
X25505595Y28335992D01*
X25563021Y28298461D01*
X25590719Y28264862D01*
X25612662Y28203894D01*
X25614405Y28155650D01*
X25610457Y28091142D01*
X25461686Y28026024D01*
X25389349Y27992756D01*
X25342084Y27965994D01*
X25317507Y27942814D01*
X25313237Y27920291D01*
X25326889Y27895503D01*
X25341943Y27879072D01*
X25385746Y27852723D01*
X25433389Y27850877D01*
X25477145Y27871412D01*
X25509289Y27912206D01*
X25515038Y27926611D01*
X25542576Y27971602D01*
X25574258Y27990776D01*
X25617714Y28007179D01*
X25617714Y27944992D01*
X25613872Y27902675D01*
X25598823Y27866989D01*
X25567280Y27826015D01*
X25562592Y27820691D01*
X25527506Y27784238D01*
X25497347Y27764675D01*
X25459615Y27755675D01*
X25428335Y27752728D01*
X25372385Y27751993D01*
X25332555Y27761298D01*
X25307708Y27775112D01*
X25268656Y27805491D01*
X25241625Y27838345D01*
X25224517Y27879664D01*
X25215238Y27935437D01*
X25211693Y28011653D01*
X25211410Y28050336D01*
X25212372Y28096711D01*
X25300007Y28096711D01*
X25301023Y28071832D01*
X25303556Y28067758D01*
X25320274Y28073293D01*
X25356249Y28087941D01*
X25404331Y28108768D01*
X25414386Y28113244D01*
X25475152Y28144144D01*
X25508632Y28171301D01*
X25515990Y28196738D01*
X25498391Y28222477D01*
X25483856Y28233849D01*
X25431410Y28256594D01*
X25382322Y28252836D01*
X25341227Y28225074D01*
X25312758Y28175806D01*
X25303631Y28136701D01*
X25300007Y28096711D01*
X25212372Y28096711D01*
X25213285Y28140709D01*
X25220196Y28207574D01*
G36*
X25004600Y28344206D02*
G01*
X25021948Y28336624D01*
X25063356Y28303830D01*
X25098765Y28256411D01*
X25120664Y28205807D01*
X25124229Y28180860D01*
X25112279Y28146031D01*
X25086067Y28127601D01*
X25057964Y28116442D01*
X25045095Y28114386D01*
X25038829Y28129309D01*
X25026456Y28161783D01*
X25021028Y28176456D01*
X24990590Y28227214D01*
X24946520Y28252531D01*
X24890010Y28251752D01*
X24885825Y28250755D01*
X24855655Y28236451D01*
X24833476Y28208565D01*
X24818327Y28163671D01*
X24809250Y28098343D01*
X24805286Y28009154D01*
X24804914Y27961697D01*
X24804730Y27886887D01*
X24803522Y27835889D01*
X24800309Y27803487D01*
X24794109Y27784463D01*
X24783940Y27773602D01*
X24768819Y27765686D01*
X24767946Y27765288D01*
X24738828Y27752977D01*
X24724403Y27748444D01*
X24722186Y27762149D01*
X24720289Y27800033D01*
X24718847Y27857243D01*
X24717998Y27928931D01*
X24717829Y27981393D01*
X24718692Y28082911D01*
X24722070Y28159926D01*
X24729142Y28216935D01*
X24741088Y28258432D01*
X24759090Y28288915D01*
X24784327Y28312878D01*
X24809247Y28329603D01*
X24869171Y28351861D01*
X24938911Y28356882D01*
X25004600Y28344206D01*
G37*
X25004600Y28344206D02*
X25021948Y28336624D01*
X25063356Y28303830D01*
X25098765Y28256411D01*
X25120664Y28205807D01*
X25124229Y28180860D01*
X25112279Y28146031D01*
X25086067Y28127601D01*
X25057964Y28116442D01*
X25045095Y28114386D01*
X25038829Y28129309D01*
X25026456Y28161783D01*
X25021028Y28176456D01*
X24990590Y28227214D01*
X24946520Y28252531D01*
X24890010Y28251752D01*
X24885825Y28250755D01*
X24855655Y28236451D01*
X24833476Y28208565D01*
X24818327Y28163671D01*
X24809250Y28098343D01*
X24805286Y28009154D01*
X24804914Y27961697D01*
X24804730Y27886887D01*
X24803522Y27835889D01*
X24800309Y27803487D01*
X24794109Y27784463D01*
X24783940Y27773602D01*
X24768819Y27765686D01*
X24767946Y27765288D01*
X24738828Y27752977D01*
X24724403Y27748444D01*
X24722186Y27762149D01*
X24720289Y27800033D01*
X24718847Y27857243D01*
X24717998Y27928931D01*
X24717829Y27981393D01*
X24718692Y28082911D01*
X24722070Y28159926D01*
X24729142Y28216935D01*
X24741088Y28258432D01*
X24759090Y28288915D01*
X24784327Y28312878D01*
X24809247Y28329603D01*
X24869171Y28351861D01*
X24938911Y28356882D01*
X25004600Y28344206D01*
G36*
X24496876Y28346623D02*
G01*
X24538667Y28327614D01*
X24571469Y28304580D01*
X24595503Y28278825D01*
X24612097Y28245600D01*
X24622577Y28200158D01*
X24628271Y28137751D01*
X24630507Y28053631D01*
X24630743Y27998237D01*
X24630743Y27782132D01*
X24593774Y27765288D01*
X24564656Y27752977D01*
X24550231Y27748444D01*
X24547472Y27761933D01*
X24545282Y27798305D01*
X24543942Y27851416D01*
X24543657Y27893586D01*
X24542434Y27954511D01*
X24539136Y28002843D01*
X24534321Y28032440D01*
X24530496Y28038729D01*
X24504783Y28032306D01*
X24464418Y28015833D01*
X24417679Y27993500D01*
X24372845Y27969501D01*
X24338193Y27948028D01*
X24322002Y27933273D01*
X24321938Y27933113D01*
X24323330Y27905806D01*
X24335818Y27879739D01*
X24357743Y27858566D01*
X24389743Y27851484D01*
X24417092Y27852309D01*
X24455826Y27852916D01*
X24476158Y27843842D01*
X24488369Y27819866D01*
X24489909Y27815345D01*
X24495203Y27781152D01*
X24481047Y27760390D01*
X24444148Y27750496D01*
X24404289Y27748666D01*
X24332562Y27762231D01*
X24295432Y27781603D01*
X24249576Y27827113D01*
X24225256Y27882975D01*
X24223073Y27942001D01*
X24243629Y27997005D01*
X24274549Y28031472D01*
X24305420Y28050769D01*
X24353942Y28075199D01*
X24410485Y28099973D01*
X24419910Y28103759D01*
X24482019Y28131167D01*
X24517822Y28155324D01*
X24529337Y28179339D01*
X24518580Y28206323D01*
X24500114Y28227415D01*
X24456469Y28253386D01*
X24408446Y28255334D01*
X24364406Y28235321D01*
X24332709Y28195407D01*
X24328549Y28185110D01*
X24304327Y28147234D01*
X24268965Y28119116D01*
X24224343Y28096041D01*
X24224343Y28161473D01*
X24226969Y28201452D01*
X24238230Y28232961D01*
X24263199Y28266580D01*
X24287169Y28292474D01*
X24324441Y28329141D01*
X24353401Y28348837D01*
X24384505Y28356738D01*
X24419713Y28358044D01*
X24496876Y28346623D01*
G37*
X24496876Y28346623D02*
X24538667Y28327614D01*
X24571469Y28304580D01*
X24595503Y28278825D01*
X24612097Y28245600D01*
X24622577Y28200158D01*
X24628271Y28137751D01*
X24630507Y28053631D01*
X24630743Y27998237D01*
X24630743Y27782132D01*
X24593774Y27765288D01*
X24564656Y27752977D01*
X24550231Y27748444D01*
X24547472Y27761933D01*
X24545282Y27798305D01*
X24543942Y27851416D01*
X24543657Y27893586D01*
X24542434Y27954511D01*
X24539136Y28002843D01*
X24534321Y28032440D01*
X24530496Y28038729D01*
X24504783Y28032306D01*
X24464418Y28015833D01*
X24417679Y27993500D01*
X24372845Y27969501D01*
X24338193Y27948028D01*
X24322002Y27933273D01*
X24321938Y27933113D01*
X24323330Y27905806D01*
X24335818Y27879739D01*
X24357743Y27858566D01*
X24389743Y27851484D01*
X24417092Y27852309D01*
X24455826Y27852916D01*
X24476158Y27843842D01*
X24488369Y27819866D01*
X24489909Y27815345D01*
X24495203Y27781152D01*
X24481047Y27760390D01*
X24444148Y27750496D01*
X24404289Y27748666D01*
X24332562Y27762231D01*
X24295432Y27781603D01*
X24249576Y27827113D01*
X24225256Y27882975D01*
X24223073Y27942001D01*
X24243629Y27997005D01*
X24274549Y28031472D01*
X24305420Y28050769D01*
X24353942Y28075199D01*
X24410485Y28099973D01*
X24419910Y28103759D01*
X24482019Y28131167D01*
X24517822Y28155324D01*
X24529337Y28179339D01*
X24518580Y28206323D01*
X24500114Y28227415D01*
X24456469Y28253386D01*
X24408446Y28255334D01*
X24364406Y28235321D01*
X24332709Y28195407D01*
X24328549Y28185110D01*
X24304327Y28147234D01*
X24268965Y28119116D01*
X24224343Y28096041D01*
X24224343Y28161473D01*
X24226969Y28201452D01*
X24238230Y28232961D01*
X24263199Y28266580D01*
X24287169Y28292474D01*
X24324441Y28329141D01*
X24353401Y28348837D01*
X24384505Y28356738D01*
X24419713Y28358044D01*
X24496876Y28346623D01*
G36*
X24131833Y28344295D02*
G01*
X24134048Y28306108D01*
X24135784Y28248072D01*
X24136899Y28174778D01*
X24137257Y28097903D01*
X24137257Y27837762D01*
X24091326Y27791831D01*
X24059675Y27763529D01*
X24031890Y27752065D01*
X23993915Y27752790D01*
X23978840Y27754637D01*
X23931726Y27760010D01*
X23892756Y27763089D01*
X23883257Y27763373D01*
X23851233Y27761513D01*
X23805432Y27756844D01*
X23787674Y27754637D01*
X23744057Y27751223D01*
X23714745Y27758638D01*
X23685680Y27781531D01*
X23675188Y27791831D01*
X23629257Y27837762D01*
X23629257Y28324356D01*
X23666226Y28341200D01*
X23698059Y28353676D01*
X23716683Y28358044D01*
X23721458Y28344240D01*
X23725921Y28305672D01*
X23729775Y28246602D01*
X23732722Y28171295D01*
X23734143Y28107672D01*
X23738114Y27857301D01*
X23772759Y27852402D01*
X23804268Y27855827D01*
X23819708Y27866917D01*
X23824023Y27887650D01*
X23827708Y27931813D01*
X23830469Y27993812D01*
X23832012Y28068049D01*
X23832235Y28106252D01*
X23832457Y28326175D01*
X23878166Y28342109D01*
X23910518Y28352943D01*
X23928115Y28357996D01*
X23928623Y28358044D01*
X23930388Y28344310D01*
X23932329Y28306228D01*
X23934282Y28248476D01*
X23936084Y28175731D01*
X23937343Y28107672D01*
X23941314Y27857301D01*
X24028400Y27857301D01*
X24032396Y28085718D01*
X24036392Y28314136D01*
X24078847Y28336090D01*
X24110192Y28351165D01*
X24128744Y28358007D01*
X24129279Y28358044D01*
X24131833Y28344295D01*
G37*
X24131833Y28344295D02*
X24134048Y28306108D01*
X24135784Y28248072D01*
X24136899Y28174778D01*
X24137257Y28097903D01*
X24137257Y27837762D01*
X24091326Y27791831D01*
X24059675Y27763529D01*
X24031890Y27752065D01*
X23993915Y27752790D01*
X23978840Y27754637D01*
X23931726Y27760010D01*
X23892756Y27763089D01*
X23883257Y27763373D01*
X23851233Y27761513D01*
X23805432Y27756844D01*
X23787674Y27754637D01*
X23744057Y27751223D01*
X23714745Y27758638D01*
X23685680Y27781531D01*
X23675188Y27791831D01*
X23629257Y27837762D01*
X23629257Y28324356D01*
X23666226Y28341200D01*
X23698059Y28353676D01*
X23716683Y28358044D01*
X23721458Y28344240D01*
X23725921Y28305672D01*
X23729775Y28246602D01*
X23732722Y28171295D01*
X23734143Y28107672D01*
X23738114Y27857301D01*
X23772759Y27852402D01*
X23804268Y27855827D01*
X23819708Y27866917D01*
X23824023Y27887650D01*
X23827708Y27931813D01*
X23830469Y27993812D01*
X23832012Y28068049D01*
X23832235Y28106252D01*
X23832457Y28326175D01*
X23878166Y28342109D01*
X23910518Y28352943D01*
X23928115Y28357996D01*
X23928623Y28358044D01*
X23930388Y28344310D01*
X23932329Y28306228D01*
X23934282Y28248476D01*
X23936084Y28175731D01*
X23937343Y28107672D01*
X23941314Y27857301D01*
X24028400Y27857301D01*
X24032396Y28085718D01*
X24036392Y28314136D01*
X24078847Y28336090D01*
X24110192Y28351165D01*
X24128744Y28358007D01*
X24129279Y28358044D01*
X24131833Y28344295D01*
G36*
X23136726Y28212872D02*
G01*
X23159135Y28264358D01*
X23194124Y28304515D01*
X23221375Y28325097D01*
X23270907Y28347333D01*
X23328316Y28357654D01*
X23381682Y28354891D01*
X23411543Y28343746D01*
X23423261Y28340575D01*
X23431037Y28352401D01*
X23436465Y28384092D01*
X23440571Y28432365D01*
X23445067Y28486129D01*
X23451313Y28518476D01*
X23462676Y28536973D01*
X23482528Y28549188D01*
X23495000Y28554596D01*
X23542171Y28574357D01*
X23542117Y28237600D01*
X23541933Y28129121D01*
X23541219Y28045671D01*
X23539675Y27983254D01*
X23537001Y27937873D01*
X23532894Y27905529D01*
X23527055Y27882225D01*
X23519182Y27863963D01*
X23513221Y27853540D01*
X23463855Y27797013D01*
X23401264Y27761581D01*
X23332013Y27748868D01*
X23262668Y27760495D01*
X23221375Y27781390D01*
X23178025Y27817536D01*
X23148481Y27861682D01*
X23130655Y27919496D01*
X23122463Y27996645D01*
X23121302Y28053244D01*
X23121458Y28057311D01*
X23222857Y28057311D01*
X23223476Y27992408D01*
X23226314Y27949444D01*
X23232840Y27921336D01*
X23244523Y27901005D01*
X23258483Y27885670D01*
X23305365Y27856068D01*
X23355701Y27853539D01*
X23403276Y27878253D01*
X23406979Y27881602D01*
X23422783Y27899023D01*
X23432693Y27919749D01*
X23438058Y27950596D01*
X23440228Y27998381D01*
X23440571Y28051210D01*
X23439827Y28117577D01*
X23436748Y28161852D01*
X23430061Y28190949D01*
X23418496Y28211785D01*
X23409013Y28222851D01*
X23364960Y28250760D01*
X23314224Y28254115D01*
X23265796Y28232799D01*
X23256450Y28224885D01*
X23240540Y28207311D01*
X23230610Y28186371D01*
X23225278Y28155176D01*
X23223163Y28106836D01*
X23222857Y28057311D01*
X23121458Y28057311D01*
X23124810Y28144390D01*
X23136726Y28212872D01*
G37*
X23136726Y28212872D02*
X23159135Y28264358D01*
X23194124Y28304515D01*
X23221375Y28325097D01*
X23270907Y28347333D01*
X23328316Y28357654D01*
X23381682Y28354891D01*
X23411543Y28343746D01*
X23423261Y28340575D01*
X23431037Y28352401D01*
X23436465Y28384092D01*
X23440571Y28432365D01*
X23445067Y28486129D01*
X23451313Y28518476D01*
X23462676Y28536973D01*
X23482528Y28549188D01*
X23495000Y28554596D01*
X23542171Y28574357D01*
X23542117Y28237600D01*
X23541933Y28129121D01*
X23541219Y28045671D01*
X23539675Y27983254D01*
X23537001Y27937873D01*
X23532894Y27905529D01*
X23527055Y27882225D01*
X23519182Y27863963D01*
X23513221Y27853540D01*
X23463855Y27797013D01*
X23401264Y27761581D01*
X23332013Y27748868D01*
X23262668Y27760495D01*
X23221375Y27781390D01*
X23178025Y27817536D01*
X23148481Y27861682D01*
X23130655Y27919496D01*
X23122463Y27996645D01*
X23121302Y28053244D01*
X23121458Y28057311D01*
X23222857Y28057311D01*
X23223476Y27992408D01*
X23226314Y27949444D01*
X23232840Y27921336D01*
X23244523Y27901005D01*
X23258483Y27885670D01*
X23305365Y27856068D01*
X23355701Y27853539D01*
X23403276Y27878253D01*
X23406979Y27881602D01*
X23422783Y27899023D01*
X23432693Y27919749D01*
X23438058Y27950596D01*
X23440228Y27998381D01*
X23440571Y28051210D01*
X23439827Y28117577D01*
X23436748Y28161852D01*
X23430061Y28190949D01*
X23418496Y28211785D01*
X23409013Y28222851D01*
X23364960Y28250760D01*
X23314224Y28254115D01*
X23265796Y28232799D01*
X23256450Y28224885D01*
X23240540Y28207311D01*
X23230610Y28186371D01*
X23225278Y28155176D01*
X23223163Y28106836D01*
X23222857Y28057311D01*
X23121458Y28057311D01*
X23124810Y28144390D01*
X23136726Y28212872D01*
G36*
X22881926Y28353203D02*
G01*
X22947858Y28328874D01*
X23001273Y28285841D01*
X23022164Y28255549D01*
X23044939Y28199964D01*
X23044466Y28159772D01*
X23020562Y28132741D01*
X23011717Y28128145D01*
X22973530Y28113814D01*
X22954028Y28117486D01*
X22947422Y28141551D01*
X22947086Y28154844D01*
X22934992Y28203748D01*
X22903471Y28237959D01*
X22859659Y28254482D01*
X22810695Y28250324D01*
X22770894Y28228731D01*
X22757450Y28216414D01*
X22747921Y28201471D01*
X22741485Y28178883D01*
X22737317Y28143630D01*
X22734597Y28090692D01*
X22732502Y28015051D01*
X22731960Y27991101D01*
X22729981Y27909168D01*
X22727731Y27851503D01*
X22724357Y27813350D01*
X22719006Y27789954D01*
X22710824Y27776560D01*
X22698959Y27768413D01*
X22691362Y27764814D01*
X22659102Y27752506D01*
X22640111Y27748444D01*
X22633836Y27762010D01*
X22630006Y27803024D01*
X22628600Y27871959D01*
X22629598Y27969289D01*
X22629908Y27984301D01*
X22632101Y28073099D01*
X22634693Y28137939D01*
X22638382Y28183891D01*
X22643864Y28216023D01*
X22651835Y28239405D01*
X22662993Y28259106D01*
X22668830Y28267548D01*
X22702296Y28304901D01*
X22739727Y28333955D01*
X22744309Y28336491D01*
X22811426Y28356515D01*
X22881926Y28353203D01*
G37*
X22881926Y28353203D02*
X22947858Y28328874D01*
X23001273Y28285841D01*
X23022164Y28255549D01*
X23044939Y28199964D01*
X23044466Y28159772D01*
X23020562Y28132741D01*
X23011717Y28128145D01*
X22973530Y28113814D01*
X22954028Y28117486D01*
X22947422Y28141551D01*
X22947086Y28154844D01*
X22934992Y28203748D01*
X22903471Y28237959D01*
X22859659Y28254482D01*
X22810695Y28250324D01*
X22770894Y28228731D01*
X22757450Y28216414D01*
X22747921Y28201471D01*
X22741485Y28178883D01*
X22737317Y28143630D01*
X22734597Y28090692D01*
X22732502Y28015051D01*
X22731960Y27991101D01*
X22729981Y27909168D01*
X22727731Y27851503D01*
X22724357Y27813350D01*
X22719006Y27789954D01*
X22710824Y27776560D01*
X22698959Y27768413D01*
X22691362Y27764814D01*
X22659102Y27752506D01*
X22640111Y27748444D01*
X22633836Y27762010D01*
X22630006Y27803024D01*
X22628600Y27871959D01*
X22629598Y27969289D01*
X22629908Y27984301D01*
X22632101Y28073099D01*
X22634693Y28137939D01*
X22638382Y28183891D01*
X22643864Y28216023D01*
X22651835Y28239405D01*
X22662993Y28259106D01*
X22668830Y28267548D01*
X22702296Y28304901D01*
X22739727Y28333955D01*
X22744309Y28336491D01*
X22811426Y28356515D01*
X22881926Y28353203D01*
G36*
X22391744Y28351990D02*
G01*
X22448616Y28330871D01*
X22449267Y28330465D01*
X22484440Y28304578D01*
X22510407Y28274325D01*
X22528670Y28234900D01*
X22540732Y28181496D01*
X22548096Y28109307D01*
X22552264Y28013526D01*
X22552629Y27999880D01*
X22557876Y27794116D01*
X22513716Y27771280D01*
X22481763Y27755848D01*
X22462470Y27748535D01*
X22461578Y27748444D01*
X22458239Y27761936D01*
X22455587Y27798332D01*
X22453956Y27851506D01*
X22453600Y27894565D01*
X22453592Y27964317D01*
X22450403Y28008121D01*
X22439288Y28029014D01*
X22415501Y28030033D01*
X22374296Y28014217D01*
X22312086Y27985143D01*
X22266341Y27960995D01*
X22242813Y27940045D01*
X22235896Y27917211D01*
X22235886Y27916081D01*
X22247299Y27876746D01*
X22281092Y27855496D01*
X22332809Y27852419D01*
X22370061Y27852952D01*
X22389703Y27842223D01*
X22401952Y27816453D01*
X22409002Y27783621D01*
X22398842Y27764992D01*
X22395017Y27762326D01*
X22359001Y27751618D01*
X22308566Y27750102D01*
X22256626Y27757199D01*
X22219822Y27770170D01*
X22168938Y27813373D01*
X22140014Y27873512D01*
X22134286Y27920496D01*
X22138657Y27962876D01*
X22154475Y27997470D01*
X22185797Y28028195D01*
X22236678Y28058968D01*
X22311176Y28093706D01*
X22315714Y28095670D01*
X22382821Y28126671D01*
X22424232Y28152096D01*
X22441981Y28174944D01*
X22438107Y28198213D01*
X22414643Y28224902D01*
X22407627Y28231044D01*
X22360630Y28254858D01*
X22311933Y28253855D01*
X22269522Y28230507D01*
X22241384Y28187283D01*
X22238769Y28178798D01*
X22213308Y28137650D01*
X22181001Y28117830D01*
X22134286Y28098188D01*
X22134286Y28149008D01*
X22148496Y28222876D01*
X22190675Y28290631D01*
X22212624Y28313297D01*
X22262517Y28342389D01*
X22325967Y28355558D01*
X22391744Y28351990D01*
G37*
X22391744Y28351990D02*
X22448616Y28330871D01*
X22449267Y28330465D01*
X22484440Y28304578D01*
X22510407Y28274325D01*
X22528670Y28234900D01*
X22540732Y28181496D01*
X22548096Y28109307D01*
X22552264Y28013526D01*
X22552629Y27999880D01*
X22557876Y27794116D01*
X22513716Y27771280D01*
X22481763Y27755848D01*
X22462470Y27748535D01*
X22461578Y27748444D01*
X22458239Y27761936D01*
X22455587Y27798332D01*
X22453956Y27851506D01*
X22453600Y27894565D01*
X22453592Y27964317D01*
X22450403Y28008121D01*
X22439288Y28029014D01*
X22415501Y28030033D01*
X22374296Y28014217D01*
X22312086Y27985143D01*
X22266341Y27960995D01*
X22242813Y27940045D01*
X22235896Y27917211D01*
X22235886Y27916081D01*
X22247299Y27876746D01*
X22281092Y27855496D01*
X22332809Y27852419D01*
X22370061Y27852952D01*
X22389703Y27842223D01*
X22401952Y27816453D01*
X22409002Y27783621D01*
X22398842Y27764992D01*
X22395017Y27762326D01*
X22359001Y27751618D01*
X22308566Y27750102D01*
X22256626Y27757199D01*
X22219822Y27770170D01*
X22168938Y27813373D01*
X22140014Y27873512D01*
X22134286Y27920496D01*
X22138657Y27962876D01*
X22154475Y27997470D01*
X22185797Y28028195D01*
X22236678Y28058968D01*
X22311176Y28093706D01*
X22315714Y28095670D01*
X22382821Y28126671D01*
X22424232Y28152096D01*
X22441981Y28174944D01*
X22438107Y28198213D01*
X22414643Y28224902D01*
X22407627Y28231044D01*
X22360630Y28254858D01*
X22311933Y28253855D01*
X22269522Y28230507D01*
X22241384Y28187283D01*
X22238769Y28178798D01*
X22213308Y28137650D01*
X22181001Y28117830D01*
X22134286Y28098188D01*
X22134286Y28149008D01*
X22148496Y28222876D01*
X22190675Y28290631D01*
X22212624Y28313297D01*
X22262517Y28342389D01*
X22325967Y28355558D01*
X22391744Y28351990D01*
G36*
X21727886Y28451669D02*
G01*
X21732139Y28392345D01*
X21737025Y28357386D01*
X21743795Y28342138D01*
X21753702Y28341943D01*
X21756914Y28343763D01*
X21799644Y28356943D01*
X21855227Y28356173D01*
X21911737Y28342625D01*
X21947082Y28325097D01*
X21983321Y28297097D01*
X22009813Y28265409D01*
X22027999Y28225145D01*
X22039322Y28171415D01*
X22045222Y28099332D01*
X22047143Y28004007D01*
X22047177Y27985721D01*
X22047200Y27780312D01*
X22001491Y27764378D01*
X21969027Y27753538D01*
X21951215Y27748490D01*
X21950691Y27748444D01*
X21948937Y27762130D01*
X21947444Y27799882D01*
X21946326Y27856734D01*
X21945697Y27927724D01*
X21945600Y27970885D01*
X21945398Y28055985D01*
X21944358Y28116977D01*
X21941831Y28158781D01*
X21937164Y28186316D01*
X21929707Y28204502D01*
X21918811Y28218260D01*
X21912007Y28224885D01*
X21865272Y28251583D01*
X21814272Y28253583D01*
X21768001Y28231003D01*
X21759444Y28222851D01*
X21746893Y28207522D01*
X21738188Y28189340D01*
X21732631Y28163049D01*
X21729526Y28123396D01*
X21728176Y28065126D01*
X21727886Y27984785D01*
X21727886Y27780312D01*
X21682177Y27764378D01*
X21649713Y27753538D01*
X21631901Y27748490D01*
X21631377Y27748444D01*
X21630037Y27762335D01*
X21628828Y27801519D01*
X21627801Y27862258D01*
X21627002Y27940817D01*
X21626481Y28033460D01*
X21626286Y28136449D01*
X21626286Y28533616D01*
X21673457Y28553514D01*
X21720629Y28573411D01*
X21727886Y28451669D01*
G37*
X21727886Y28451669D02*
X21732139Y28392345D01*
X21737025Y28357386D01*
X21743795Y28342138D01*
X21753702Y28341943D01*
X21756914Y28343763D01*
X21799644Y28356943D01*
X21855227Y28356173D01*
X21911737Y28342625D01*
X21947082Y28325097D01*
X21983321Y28297097D01*
X22009813Y28265409D01*
X22027999Y28225145D01*
X22039322Y28171415D01*
X22045222Y28099332D01*
X22047143Y28004007D01*
X22047177Y27985721D01*
X22047200Y27780312D01*
X22001491Y27764378D01*
X21969027Y27753538D01*
X21951215Y27748490D01*
X21950691Y27748444D01*
X21948937Y27762130D01*
X21947444Y27799882D01*
X21946326Y27856734D01*
X21945697Y27927724D01*
X21945600Y27970885D01*
X21945398Y28055985D01*
X21944358Y28116977D01*
X21941831Y28158781D01*
X21937164Y28186316D01*
X21929707Y28204502D01*
X21918811Y28218260D01*
X21912007Y28224885D01*
X21865272Y28251583D01*
X21814272Y28253583D01*
X21768001Y28231003D01*
X21759444Y28222851D01*
X21746893Y28207522D01*
X21738188Y28189340D01*
X21732631Y28163049D01*
X21729526Y28123396D01*
X21728176Y28065126D01*
X21727886Y27984785D01*
X21727886Y27780312D01*
X21682177Y27764378D01*
X21649713Y27753538D01*
X21631901Y27748490D01*
X21631377Y27748444D01*
X21630037Y27762335D01*
X21628828Y27801519D01*
X21627801Y27862258D01*
X21627002Y27940817D01*
X21626481Y28033460D01*
X21626286Y28136449D01*
X21626286Y28533616D01*
X21673457Y28553514D01*
X21720629Y28573411D01*
X21727886Y28451669D01*
G36*
X20223550Y28266746D02*
G01*
X20257456Y28315656D01*
X20318653Y28365080D01*
X20386063Y28389599D01*
X20454880Y28391161D01*
X20520303Y28371719D01*
X20577527Y28333223D01*
X20621749Y28277623D01*
X20648167Y28206872D01*
X20653510Y28154796D01*
X20652903Y28133065D01*
X20647822Y28116427D01*
X20633855Y28101521D01*
X20606589Y28084985D01*
X20561612Y28063460D01*
X20494511Y28033584D01*
X20494171Y28033434D01*
X20432407Y28005145D01*
X20381759Y27980025D01*
X20347404Y27960779D01*
X20334518Y27950110D01*
X20334514Y27950024D01*
X20345872Y27926792D01*
X20372431Y27901184D01*
X20402923Y27882737D01*
X20418370Y27879072D01*
X20460515Y27891746D01*
X20496808Y27923487D01*
X20514517Y27958386D01*
X20531552Y27984113D01*
X20564922Y28013412D01*
X20604149Y28038723D01*
X20638756Y28052487D01*
X20645993Y28053244D01*
X20654139Y28040798D01*
X20654630Y28008986D01*
X20648643Y27966092D01*
X20637357Y27920400D01*
X20621950Y27880197D01*
X20621171Y27878636D01*
X20574804Y27813896D01*
X20514711Y27769861D01*
X20446465Y27748247D01*
X20375638Y27750773D01*
X20307804Y27779154D01*
X20304788Y27781150D01*
X20251427Y27829510D01*
X20216340Y27892606D01*
X20196922Y27975571D01*
X20194316Y27998880D01*
X20189701Y28108903D01*
X20195233Y28160210D01*
X20334514Y28160210D01*
X20336324Y28128205D01*
X20346222Y28118865D01*
X20370898Y28125853D01*
X20409795Y28142371D01*
X20453275Y28163077D01*
X20454356Y28163625D01*
X20491209Y28183009D01*
X20506000Y28195945D01*
X20502353Y28209507D01*
X20486995Y28227326D01*
X20447923Y28253113D01*
X20405846Y28255008D01*
X20368103Y28236241D01*
X20342034Y28200043D01*
X20334514Y28160210D01*
X20195233Y28160210D01*
X20199194Y28196931D01*
X20223550Y28266746D01*
G37*
X20223550Y28266746D02*
X20257456Y28315656D01*
X20318653Y28365080D01*
X20386063Y28389599D01*
X20454880Y28391161D01*
X20520303Y28371719D01*
X20577527Y28333223D01*
X20621749Y28277623D01*
X20648167Y28206872D01*
X20653510Y28154796D01*
X20652903Y28133065D01*
X20647822Y28116427D01*
X20633855Y28101521D01*
X20606589Y28084985D01*
X20561612Y28063460D01*
X20494511Y28033584D01*
X20494171Y28033434D01*
X20432407Y28005145D01*
X20381759Y27980025D01*
X20347404Y27960779D01*
X20334518Y27950110D01*
X20334514Y27950024D01*
X20345872Y27926792D01*
X20372431Y27901184D01*
X20402923Y27882737D01*
X20418370Y27879072D01*
X20460515Y27891746D01*
X20496808Y27923487D01*
X20514517Y27958386D01*
X20531552Y27984113D01*
X20564922Y28013412D01*
X20604149Y28038723D01*
X20638756Y28052487D01*
X20645993Y28053244D01*
X20654139Y28040798D01*
X20654630Y28008986D01*
X20648643Y27966092D01*
X20637357Y27920400D01*
X20621950Y27880197D01*
X20621171Y27878636D01*
X20574804Y27813896D01*
X20514711Y27769861D01*
X20446465Y27748247D01*
X20375638Y27750773D01*
X20307804Y27779154D01*
X20304788Y27781150D01*
X20251427Y27829510D01*
X20216340Y27892606D01*
X20196922Y27975571D01*
X20194316Y27998880D01*
X20189701Y28108903D01*
X20195233Y28160210D01*
X20334514Y28160210D01*
X20336324Y28128205D01*
X20346222Y28118865D01*
X20370898Y28125853D01*
X20409795Y28142371D01*
X20453275Y28163077D01*
X20454356Y28163625D01*
X20491209Y28183009D01*
X20506000Y28195945D01*
X20502353Y28209507D01*
X20486995Y28227326D01*
X20447923Y28253113D01*
X20405846Y28255008D01*
X20368103Y28236241D01*
X20342034Y28200043D01*
X20334514Y28160210D01*
X20195233Y28160210D01*
X20199194Y28196931D01*
X20223550Y28266746D01*
G36*
X19089096Y28194799D02*
G01*
X19094068Y28231009D01*
X19102713Y28257659D01*
X19116005Y28281236D01*
X19118943Y28285620D01*
X19168313Y28344709D01*
X19222109Y28379011D01*
X19287602Y28392627D01*
X19309842Y28393293D01*
X19393115Y28380996D01*
X19461145Y28345225D01*
X19511351Y28287657D01*
X19529185Y28250646D01*
X19543063Y28195076D01*
X19550167Y28124862D01*
X19550840Y28048231D01*
X19545427Y27973406D01*
X19534270Y27908616D01*
X19517714Y27862085D01*
X19512626Y27854071D01*
X19452355Y27794251D01*
X19380769Y27758423D01*
X19303092Y27747938D01*
X19224548Y27764148D01*
X19202689Y27773866D01*
X19160122Y27803815D01*
X19122763Y27843525D01*
X19119232Y27848561D01*
X19104881Y27872834D01*
X19095394Y27898780D01*
X19089790Y27932936D01*
X19087086Y27981839D01*
X19086299Y28052023D01*
X19086286Y28067758D01*
X19086322Y28072766D01*
X19231429Y28072766D01*
X19232273Y28006528D01*
X19235596Y27962572D01*
X19242583Y27934179D01*
X19254416Y27914633D01*
X19260457Y27908101D01*
X19295186Y27883278D01*
X19328903Y27884410D01*
X19362995Y27905942D01*
X19383329Y27928929D01*
X19395371Y27962480D01*
X19402134Y28015389D01*
X19402598Y28021559D01*
X19403752Y28117445D01*
X19391688Y28188659D01*
X19366570Y28234764D01*
X19328560Y28255323D01*
X19314992Y28256444D01*
X19279364Y28250806D01*
X19254994Y28231272D01*
X19240093Y28193916D01*
X19232875Y28134808D01*
X19231429Y28072766D01*
X19086322Y28072766D01*
X19086826Y28142545D01*
X19089096Y28194799D01*
G37*
X19089096Y28194799D02*
X19094068Y28231009D01*
X19102713Y28257659D01*
X19116005Y28281236D01*
X19118943Y28285620D01*
X19168313Y28344709D01*
X19222109Y28379011D01*
X19287602Y28392627D01*
X19309842Y28393293D01*
X19393115Y28380996D01*
X19461145Y28345225D01*
X19511351Y28287657D01*
X19529185Y28250646D01*
X19543063Y28195076D01*
X19550167Y28124862D01*
X19550840Y28048231D01*
X19545427Y27973406D01*
X19534270Y27908616D01*
X19517714Y27862085D01*
X19512626Y27854071D01*
X19452355Y27794251D01*
X19380769Y27758423D01*
X19303092Y27747938D01*
X19224548Y27764148D01*
X19202689Y27773866D01*
X19160122Y27803815D01*
X19122763Y27843525D01*
X19119232Y27848561D01*
X19104881Y27872834D01*
X19095394Y27898780D01*
X19089790Y27932936D01*
X19087086Y27981839D01*
X19086299Y28052023D01*
X19086286Y28067758D01*
X19086322Y28072766D01*
X19231429Y28072766D01*
X19232273Y28006528D01*
X19235596Y27962572D01*
X19242583Y27934179D01*
X19254416Y27914633D01*
X19260457Y27908101D01*
X19295186Y27883278D01*
X19328903Y27884410D01*
X19362995Y27905942D01*
X19383329Y27928929D01*
X19395371Y27962480D01*
X19402134Y28015389D01*
X19402598Y28021559D01*
X19403752Y28117445D01*
X19391688Y28188659D01*
X19366570Y28234764D01*
X19328560Y28255323D01*
X19314992Y28256444D01*
X19279364Y28250806D01*
X19254994Y28231272D01*
X19240093Y28193916D01*
X19232875Y28134808D01*
X19231429Y28072766D01*
X19086322Y28072766D01*
X19086826Y28142545D01*
X19089096Y28194799D01*
G36*
X21068093Y28375178D02*
G01*
X21114672Y28348235D01*
X21147057Y28321492D01*
X21170742Y28293474D01*
X21187059Y28259210D01*
X21197339Y28213731D01*
X21202914Y28152066D01*
X21205116Y28069247D01*
X21205371Y28009712D01*
X21205371Y27790567D01*
X21143686Y27762914D01*
X21082000Y27735261D01*
X21074743Y27975288D01*
X21071744Y28064930D01*
X21068598Y28129996D01*
X21064701Y28174932D01*
X21059447Y28204188D01*
X21052231Y28222210D01*
X21042450Y28233447D01*
X21039312Y28235879D01*
X20991761Y28254875D01*
X20943697Y28247358D01*
X20915086Y28227415D01*
X20903447Y28213283D01*
X20895391Y28194738D01*
X20890271Y28166624D01*
X20887441Y28123785D01*
X20886256Y28061063D01*
X20886057Y27995697D01*
X20886018Y27913690D01*
X20884614Y27855642D01*
X20879914Y27816493D01*
X20869987Y27791178D01*
X20852903Y27774635D01*
X20826732Y27761802D01*
X20791775Y27748467D01*
X20753596Y27733951D01*
X20758141Y27991569D01*
X20759971Y28084439D01*
X20762112Y28153069D01*
X20765181Y28202247D01*
X20769794Y28236760D01*
X20776568Y28261396D01*
X20786119Y28280942D01*
X20797634Y28298188D01*
X20853190Y28353278D01*
X20920980Y28385136D01*
X20994713Y28392767D01*
X21068093Y28375178D01*
G37*
X21068093Y28375178D02*
X21114672Y28348235D01*
X21147057Y28321492D01*
X21170742Y28293474D01*
X21187059Y28259210D01*
X21197339Y28213731D01*
X21202914Y28152066D01*
X21205116Y28069247D01*
X21205371Y28009712D01*
X21205371Y27790567D01*
X21143686Y27762914D01*
X21082000Y27735261D01*
X21074743Y27975288D01*
X21071744Y28064930D01*
X21068598Y28129996D01*
X21064701Y28174932D01*
X21059447Y28204188D01*
X21052231Y28222210D01*
X21042450Y28233447D01*
X21039312Y28235879D01*
X20991761Y28254875D01*
X20943697Y28247358D01*
X20915086Y28227415D01*
X20903447Y28213283D01*
X20895391Y28194738D01*
X20890271Y28166624D01*
X20887441Y28123785D01*
X20886256Y28061063D01*
X20886057Y27995697D01*
X20886018Y27913690D01*
X20884614Y27855642D01*
X20879914Y27816493D01*
X20869987Y27791178D01*
X20852903Y27774635D01*
X20826732Y27761802D01*
X20791775Y27748467D01*
X20753596Y27733951D01*
X20758141Y27991569D01*
X20759971Y28084439D01*
X20762112Y28153069D01*
X20765181Y28202247D01*
X20769794Y28236760D01*
X20776568Y28261396D01*
X20786119Y28280942D01*
X20797634Y28298188D01*
X20853190Y28353278D01*
X20920980Y28385136D01*
X20994713Y28392767D01*
X21068093Y28375178D01*
G36*
X19645677Y28152625D02*
G01*
X19648450Y28200000D01*
X19652388Y28233668D01*
X19657849Y28257460D01*
X19665192Y28275205D01*
X19674777Y28290734D01*
X19678887Y28296577D01*
X19733405Y28351773D01*
X19802336Y28383068D01*
X19882072Y28391793D01*
X19951744Y28383040D01*
X20007201Y28355390D01*
X20056148Y28304478D01*
X20069629Y28285620D01*
X20084314Y28260943D01*
X20093842Y28234142D01*
X20099293Y28198371D01*
X20101747Y28146789D01*
X20102286Y28078691D01*
X20099852Y27985370D01*
X20091394Y27915301D01*
X20075174Y27863027D01*
X20049454Y27823089D01*
X20012497Y27790029D01*
X20009782Y27788072D01*
X19973360Y27768050D01*
X19929502Y27758143D01*
X19873724Y27755701D01*
X19783048Y27755701D01*
X19783010Y27667675D01*
X19782166Y27618650D01*
X19777024Y27589893D01*
X19763587Y27572647D01*
X19737858Y27558150D01*
X19731679Y27555189D01*
X19702764Y27541310D01*
X19680376Y27532544D01*
X19663729Y27531787D01*
X19652036Y27541935D01*
X19644510Y27565885D01*
X19640366Y27606532D01*
X19638815Y27666772D01*
X19639071Y27749503D01*
X19640349Y27857619D01*
X19640748Y27889958D01*
X19642185Y28001434D01*
X19643472Y28074355D01*
X19782971Y28074355D01*
X19783755Y28012459D01*
X19787240Y27971961D01*
X19795124Y27945250D01*
X19809105Y27924714D01*
X19818597Y27914698D01*
X19857404Y27885391D01*
X19891763Y27883006D01*
X19927216Y27907208D01*
X19928114Y27908101D01*
X19942539Y27926805D01*
X19951313Y27952226D01*
X19955739Y27991374D01*
X19957118Y28051261D01*
X19957143Y28064528D01*
X19953812Y28147057D01*
X19942969Y28204267D01*
X19923340Y28239192D01*
X19893650Y28254864D01*
X19876491Y28256444D01*
X19835766Y28249032D01*
X19807832Y28224628D01*
X19791017Y28179978D01*
X19783650Y28111828D01*
X19782971Y28074355D01*
X19643472Y28074355D01*
X19643708Y28087713D01*
X19645677Y28152625D01*
G37*
X19645677Y28152625D02*
X19648450Y28200000D01*
X19652388Y28233668D01*
X19657849Y28257460D01*
X19665192Y28275205D01*
X19674777Y28290734D01*
X19678887Y28296577D01*
X19733405Y28351773D01*
X19802336Y28383068D01*
X19882072Y28391793D01*
X19951744Y28383040D01*
X20007201Y28355390D01*
X20056148Y28304478D01*
X20069629Y28285620D01*
X20084314Y28260943D01*
X20093842Y28234142D01*
X20099293Y28198371D01*
X20101747Y28146789D01*
X20102286Y28078691D01*
X20099852Y27985370D01*
X20091394Y27915301D01*
X20075174Y27863027D01*
X20049454Y27823089D01*
X20012497Y27790029D01*
X20009782Y27788072D01*
X19973360Y27768050D01*
X19929502Y27758143D01*
X19873724Y27755701D01*
X19783048Y27755701D01*
X19783010Y27667675D01*
X19782166Y27618650D01*
X19777024Y27589893D01*
X19763587Y27572647D01*
X19737858Y27558150D01*
X19731679Y27555189D01*
X19702764Y27541310D01*
X19680376Y27532544D01*
X19663729Y27531787D01*
X19652036Y27541935D01*
X19644510Y27565885D01*
X19640366Y27606532D01*
X19638815Y27666772D01*
X19639071Y27749503D01*
X19640349Y27857619D01*
X19640748Y27889958D01*
X19642185Y28001434D01*
X19643472Y28074355D01*
X19782971Y28074355D01*
X19783755Y28012459D01*
X19787240Y27971961D01*
X19795124Y27945250D01*
X19809105Y27924714D01*
X19818597Y27914698D01*
X19857404Y27885391D01*
X19891763Y27883006D01*
X19927216Y27907208D01*
X19928114Y27908101D01*
X19942539Y27926805D01*
X19951313Y27952226D01*
X19955739Y27991374D01*
X19957118Y28051261D01*
X19957143Y28064528D01*
X19953812Y28147057D01*
X19942969Y28204267D01*
X19923340Y28239192D01*
X19893650Y28254864D01*
X19876491Y28256444D01*
X19835766Y28249032D01*
X19807832Y28224628D01*
X19791017Y28179978D01*
X19783650Y28111828D01*
X19782971Y28074355D01*
X19643472Y28074355D01*
X19643708Y28087713D01*
X19645677Y28152625D01*
D13*
X57420200Y8327700D02*
X58750200Y8327700D01*
X57420200Y6997700D02*
X57420200Y8327700D01*
X57420200Y5727700D02*
X60080200Y5727700D01*
X60080200Y5727700D02*
X60080200Y587700D01*
X57420200Y5727700D02*
X57420200Y587700D01*
X57420200Y587700D02*
X60080200Y587700D01*
X33156200Y49711300D02*
X31826200Y49711300D01*
X33156200Y51041300D02*
X33156200Y49711300D01*
X33156200Y52311300D02*
X30496200Y52311300D01*
X30496200Y52311300D02*
X30496200Y57451300D01*
X33156200Y52311300D02*
X33156200Y57451300D01*
X33156200Y57451300D02*
X30496200Y57451300D01*
X1032200Y56162900D02*
X1032200Y57492900D01*
X2362200Y56162900D02*
X1032200Y56162900D01*
X3632200Y56162900D02*
X3632200Y58822900D01*
X3632200Y58822900D02*
X6232200Y58822900D01*
X3632200Y56162900D02*
X6232200Y56162900D01*
X6232200Y56162900D02*
X6232200Y58822900D01*
X61299400Y22736500D02*
X59969400Y22736500D01*
X61299400Y24066500D02*
X61299400Y22736500D01*
X61299400Y25336500D02*
X58639400Y25336500D01*
X58639400Y25336500D02*
X58639400Y27936500D01*
X61299400Y25336500D02*
X61299400Y27936500D01*
X61299400Y27936500D02*
X58639400Y27936500D01*
X26349000Y49711300D02*
X25019000Y49711300D01*
X26349000Y51041300D02*
X26349000Y49711300D01*
X26349000Y52311300D02*
X23689000Y52311300D01*
X23689000Y52311300D02*
X23689000Y57451300D01*
X26349000Y52311300D02*
X26349000Y57451300D01*
X26349000Y57451300D02*
X23689000Y57451300D01*
X10442000Y77520100D02*
X12982000Y77520100D01*
X10442000Y77520100D02*
X10442000Y74980100D01*
X10692000Y77270100D02*
X20042000Y77270100D01*
X10692000Y53870100D02*
X10692000Y77270100D01*
X20042000Y53870100D02*
X10692000Y53870100D01*
X20042000Y77270100D02*
X20042000Y53870100D01*
D11*
X52311700Y97341400D02*
X52311700Y98738400D01*
X52311700Y98738400D02*
X59677700Y98738400D01*
X59677700Y98738400D02*
X59677700Y97341400D01*
X57264700Y97341400D02*
X57264700Y98738400D01*
X57264700Y98738400D02*
X54724700Y98738400D01*
X54724700Y98738400D02*
X54724700Y97341400D01*
X52311700Y92261400D02*
X52311700Y97341400D01*
X52311700Y97341400D02*
X54724700Y97341400D01*
X59677700Y97341400D02*
X57264700Y97341400D01*
X52311700Y92261400D02*
X59677700Y92261400D01*
X59677700Y92261400D02*
X59677700Y97341400D01*
X52097700Y77778600D02*
X52097700Y79175600D01*
X52097700Y79175600D02*
X59463700Y79175600D01*
X59463700Y79175600D02*
X59463700Y77778600D01*
X57050700Y77778600D02*
X57050700Y79175600D01*
X57050700Y79175600D02*
X54510700Y79175600D01*
X54510700Y79175600D02*
X54510700Y77778600D01*
X52097700Y72698600D02*
X52097700Y77778600D01*
X52097700Y77778600D02*
X54510700Y77778600D01*
X59463700Y77778600D02*
X57050700Y77778600D01*
X52097700Y72698600D02*
X59463700Y72698600D01*
X59463700Y72698600D02*
X59463700Y77778600D01*
X93573600Y79743300D02*
X93573600Y77203300D01*
X93573600Y77203300D02*
X92049600Y77203300D01*
X92049600Y77203300D02*
X92049600Y69583300D01*
X93573600Y67043300D02*
X93573600Y69583300D01*
X93573600Y69583300D02*
X92049600Y69583300D01*
X98653600Y67043300D02*
X93573600Y67043300D01*
X98653600Y67043300D02*
X98653600Y79743300D01*
X98653600Y79743300D02*
X93573600Y79743300D01*
D13*
X47903136Y95290421D02*
G75*
G02X48793400Y95545700I890264J-1424721D01*
G01*
X47367895Y92975507D02*
G75*
G02X47368400Y94756700I1425505J890193D01*
G01*
X49683294Y92440342D02*
G75*
G02X47927400Y92425700I-889894J1425358D01*
G01*
X50218758Y94755594D02*
G75*
G02X50233400Y92999700I-1425358J-889894D01*
G01*
X48764726Y95545799D02*
G75*
G02X49659400Y95305700I28674J-1680099D01*
G01*
X46973400Y93865700D02*
G75*
G03X46973400Y93865700I-1680000J0D01*
G01*
X50603400Y97965700D02*
X43483400Y97965700D01*
X50603400Y96865700D02*
X43483400Y96865700D01*
X50603400Y90705700D02*
X43483400Y90705700D01*
X50603400Y98425700D02*
X43483400Y98425700D01*
X50603400Y90705700D02*
X50603400Y98425700D01*
X43483400Y90705700D02*
X43483400Y98425700D01*
X44018400Y92796700D02*
X44147400Y92924700D01*
X46268400Y95046700D02*
X46362400Y95139700D01*
X44223400Y92590700D02*
X44317400Y92684700D01*
X46438400Y94806700D02*
X46567400Y94934700D01*
X50843400Y98025700D02*
X50843400Y98665700D01*
X50843400Y98665700D02*
X50443400Y98665700D01*
D11*
X67995800Y72580500D02*
X69392800Y72580500D01*
X69392800Y72580500D02*
X69392800Y65214500D01*
X69392800Y65214500D02*
X67995800Y65214500D01*
X67995800Y67627500D02*
X69392800Y67627500D01*
X69392800Y67627500D02*
X69392800Y70167500D01*
X69392800Y70167500D02*
X67995800Y70167500D01*
X62915800Y72580500D02*
X67995800Y72580500D01*
X67995800Y72580500D02*
X67995800Y70167500D01*
X67995800Y65214500D02*
X67995800Y67627500D01*
X62915800Y72580500D02*
X62915800Y65214500D01*
X62915800Y65214500D02*
X67995800Y65214500D01*
X67475100Y82283300D02*
X67475100Y84823300D01*
X67475100Y84823300D02*
X68999100Y84823300D01*
X68999100Y84823300D02*
X68999100Y92443300D01*
X67475100Y94983300D02*
X67475100Y92443300D01*
X67475100Y92443300D02*
X68999100Y92443300D01*
X62395100Y94983300D02*
X67475100Y94983300D01*
X62395100Y94983300D02*
X62395100Y82283300D01*
X62395100Y82283300D02*
X67475100Y82283300D01*
X74460100Y82283300D02*
X74460100Y84823300D01*
X74460100Y84823300D02*
X75984100Y84823300D01*
X75984100Y84823300D02*
X75984100Y92443300D01*
X74460100Y94983300D02*
X74460100Y92443300D01*
X74460100Y92443300D02*
X75984100Y92443300D01*
X69380100Y94983300D02*
X74460100Y94983300D01*
X69380100Y94983300D02*
X69380100Y82283300D01*
X69380100Y82283300D02*
X74460100Y82283300D01*
X93649800Y41579800D02*
X93649800Y39039800D01*
X93649800Y39039800D02*
X92125800Y39039800D01*
X92125800Y39039800D02*
X92125800Y31419800D01*
X93649800Y28879800D02*
X93649800Y31419800D01*
X93649800Y31419800D02*
X92125800Y31419800D01*
X98729800Y28879800D02*
X93649800Y28879800D01*
X98729800Y28879800D02*
X98729800Y41579800D01*
X98729800Y41579800D02*
X93649800Y41579800D01*
X93649800Y22186900D02*
X93649800Y19646900D01*
X93649800Y19646900D02*
X92125800Y19646900D01*
X92125800Y19646900D02*
X92125800Y12026900D01*
X93649800Y9486900D02*
X93649800Y12026900D01*
X93649800Y12026900D02*
X92125800Y12026900D01*
X98729800Y9486900D02*
X93649800Y9486900D01*
X98729800Y9486900D02*
X98729800Y22186900D01*
X98729800Y22186900D02*
X93649800Y22186900D01*
X50012600Y63284100D02*
X51409600Y63284100D01*
X51409600Y63284100D02*
X51409600Y55918100D01*
X51409600Y55918100D02*
X50012600Y55918100D01*
X50012600Y58331100D02*
X51409600Y58331100D01*
X51409600Y58331100D02*
X51409600Y60871100D01*
X51409600Y60871100D02*
X50012600Y60871100D01*
X44932600Y63284100D02*
X50012600Y63284100D01*
X50012600Y63284100D02*
X50012600Y60871100D01*
X50012600Y55918100D02*
X50012600Y58331100D01*
X44932600Y63284100D02*
X44932600Y55918100D01*
X44932600Y55918100D02*
X50012600Y55918100D01*
X36195000Y55918100D02*
X34798000Y55918100D01*
X34798000Y55918100D02*
X34798000Y63284100D01*
X34798000Y63284100D02*
X36195000Y63284100D01*
X36195000Y60871100D02*
X34798000Y60871100D01*
X34798000Y60871100D02*
X34798000Y58331100D01*
X34798000Y58331100D02*
X36195000Y58331100D01*
X41275000Y55918100D02*
X36195000Y55918100D01*
X36195000Y55918100D02*
X36195000Y58331100D01*
X36195000Y63284100D02*
X36195000Y60871100D01*
X41275000Y55918100D02*
X41275000Y63284100D01*
X41275000Y63284100D02*
X36195000Y63284100D01*
X50012600Y70954900D02*
X51409600Y70954900D01*
X51409600Y70954900D02*
X51409600Y63588900D01*
X51409600Y63588900D02*
X50012600Y63588900D01*
X50012600Y66001900D02*
X51409600Y66001900D01*
X51409600Y66001900D02*
X51409600Y68541900D01*
X51409600Y68541900D02*
X50012600Y68541900D01*
X44932600Y70954900D02*
X50012600Y70954900D01*
X50012600Y70954900D02*
X50012600Y68541900D01*
X50012600Y63588900D02*
X50012600Y66001900D01*
X44932600Y70954900D02*
X44932600Y63588900D01*
X44932600Y63588900D02*
X50012600Y63588900D01*
X36195000Y63588900D02*
X34798000Y63588900D01*
X34798000Y63588900D02*
X34798000Y70954900D01*
X34798000Y70954900D02*
X36195000Y70954900D01*
X36195000Y68541900D02*
X34798000Y68541900D01*
X34798000Y68541900D02*
X34798000Y66001900D01*
X34798000Y66001900D02*
X36195000Y66001900D01*
X41275000Y63588900D02*
X36195000Y63588900D01*
X36195000Y63588900D02*
X36195000Y66001900D01*
X36195000Y70954900D02*
X36195000Y68541900D01*
X41275000Y63588900D02*
X41275000Y70954900D01*
X41275000Y70954900D02*
X36195000Y70954900D01*
X50012600Y78574900D02*
X51409600Y78574900D01*
X51409600Y78574900D02*
X51409600Y71208900D01*
X51409600Y71208900D02*
X50012600Y71208900D01*
X50012600Y73621900D02*
X51409600Y73621900D01*
X51409600Y73621900D02*
X51409600Y76161900D01*
X51409600Y76161900D02*
X50012600Y76161900D01*
X44932600Y78574900D02*
X50012600Y78574900D01*
X50012600Y78574900D02*
X50012600Y76161900D01*
X50012600Y71208900D02*
X50012600Y73621900D01*
X44932600Y78574900D02*
X44932600Y71208900D01*
X44932600Y71208900D02*
X50012600Y71208900D01*
X36195000Y71208900D02*
X34798000Y71208900D01*
X34798000Y71208900D02*
X34798000Y78574900D01*
X34798000Y78574900D02*
X36195000Y78574900D01*
X36195000Y76161900D02*
X34798000Y76161900D01*
X34798000Y76161900D02*
X34798000Y73621900D01*
X34798000Y73621900D02*
X36195000Y73621900D01*
X41275000Y71208900D02*
X36195000Y71208900D01*
X36195000Y71208900D02*
X36195000Y73621900D01*
X36195000Y78574900D02*
X36195000Y76161900D01*
X41275000Y71208900D02*
X41275000Y78574900D01*
X41275000Y78574900D02*
X36195000Y78574900D01*
X52252500Y87536200D02*
X52252500Y88933200D01*
X52252500Y88933200D02*
X59618500Y88933200D01*
X59618500Y88933200D02*
X59618500Y87536200D01*
X57205500Y87536200D02*
X57205500Y88933200D01*
X57205500Y88933200D02*
X54665500Y88933200D01*
X54665500Y88933200D02*
X54665500Y87536200D01*
X52252500Y82456200D02*
X52252500Y87536200D01*
X52252500Y87536200D02*
X54665500Y87536200D01*
X59618500Y87536200D02*
X57205500Y87536200D01*
X52252500Y82456200D02*
X59618500Y82456200D01*
X59618500Y82456200D02*
X59618500Y87536200D01*
X93599000Y60591700D02*
X93599000Y58051700D01*
X93599000Y58051700D02*
X92075000Y58051700D01*
X92075000Y58051700D02*
X92075000Y50431700D01*
X93599000Y47891700D02*
X93599000Y50431700D01*
X93599000Y50431700D02*
X92075000Y50431700D01*
X98679000Y47891700D02*
X93599000Y47891700D01*
X98679000Y47891700D02*
X98679000Y60591700D01*
X98679000Y60591700D02*
X93599000Y60591700D01*
D13*
X38860736Y95277721D02*
G75*
G02X39751000Y95533000I890264J-1424721D01*
G01*
X38325495Y92962807D02*
G75*
G02X38326000Y94744000I1425505J890193D01*
G01*
X40640894Y92427642D02*
G75*
G02X38885000Y92413000I-889894J1425358D01*
G01*
X41176358Y94742894D02*
G75*
G02X41191000Y92987000I-1425358J-889894D01*
G01*
X39722326Y95533099D02*
G75*
G02X40617000Y95293000I28674J-1680099D01*
G01*
X37931000Y93853000D02*
G75*
G03X37931000Y93853000I-1680000J0D01*
G01*
X41561000Y97953000D02*
X34441000Y97953000D01*
X41561000Y96853000D02*
X34441000Y96853000D01*
X41561000Y90693000D02*
X34441000Y90693000D01*
X41561000Y98413000D02*
X34441000Y98413000D01*
X41561000Y90693000D02*
X41561000Y98413000D01*
X34441000Y90693000D02*
X34441000Y98413000D01*
X34976000Y92784000D02*
X35105000Y92912000D01*
X37226000Y95034000D02*
X37320000Y95127000D01*
X35181000Y92578000D02*
X35275000Y92672000D01*
X37396000Y94794000D02*
X37525000Y94922000D01*
X41801000Y98013000D02*
X41801000Y98653000D01*
X41801000Y98653000D02*
X41401000Y98653000D01*
D11*
X67995800Y80200500D02*
X69392800Y80200500D01*
X69392800Y80200500D02*
X69392800Y72834500D01*
X69392800Y72834500D02*
X67995800Y72834500D01*
X67995800Y75247500D02*
X69392800Y75247500D01*
X69392800Y75247500D02*
X69392800Y77787500D01*
X69392800Y77787500D02*
X67995800Y77787500D01*
X62915800Y80200500D02*
X67995800Y80200500D01*
X67995800Y80200500D02*
X67995800Y77787500D01*
X67995800Y72834500D02*
X67995800Y75247500D01*
X62915800Y80200500D02*
X62915800Y72834500D01*
X62915800Y72834500D02*
X67995800Y72834500D01*
X20955000Y73393300D02*
X20955000Y60693300D01*
X27559000Y75933300D02*
X27559000Y58153300D01*
X22479000Y58153300D02*
X22479000Y60693300D01*
X22479000Y60693300D02*
X20955000Y60693300D01*
X27559000Y58153300D02*
X22479000Y58153300D01*
X22479000Y73393300D02*
X20955000Y73393300D01*
X22479000Y75933300D02*
X22479000Y73393300D01*
X27559000Y75933300D02*
X22479000Y75933300D01*
X27762200Y73393300D02*
X27762200Y60693300D01*
X34366200Y75933300D02*
X34366200Y58153300D01*
X29286200Y58153300D02*
X29286200Y60693300D01*
X29286200Y60693300D02*
X27762200Y60693300D01*
X34366200Y58153300D02*
X29286200Y58153300D01*
X29286200Y73393300D02*
X27762200Y73393300D01*
X29286200Y75933300D02*
X29286200Y73393300D01*
X34366200Y75933300D02*
X29286200Y75933300D01*
D13*
X11177264Y3794979D02*
G75*
G02X10287000Y3539700I-890264J1424721D01*
G01*
X11712505Y6109893D02*
G75*
G02X11712000Y4328700I-1425505J-890193D01*
G01*
X9397106Y6645058D02*
G75*
G02X11153000Y6659700I889894J-1425358D01*
G01*
X8861642Y4329806D02*
G75*
G02X8847000Y6085700I1425358J889894D01*
G01*
X10315674Y3539601D02*
G75*
G02X9421000Y3779700I-28674J1680099D01*
G01*
X15467000Y5219700D02*
G75*
G03X15467000Y5219700I-1680000J0D01*
G01*
X8477000Y1119700D02*
X15597000Y1119700D01*
X8477000Y2219700D02*
X15597000Y2219700D01*
X8477000Y8379700D02*
X15597000Y8379700D01*
X8477000Y659700D02*
X15597000Y659700D01*
X8477000Y8379700D02*
X8477000Y659700D01*
X15597000Y8379700D02*
X15597000Y659700D01*
X15062000Y6288700D02*
X14933000Y6160700D01*
X12812000Y4038700D02*
X12718000Y3945700D01*
X14857000Y6494700D02*
X14763000Y6400700D01*
X12642000Y4278700D02*
X12513000Y4150700D01*
X8237000Y1059700D02*
X8237000Y419700D01*
X8237000Y419700D02*
X8637000Y419700D01*
X19254464Y3794979D02*
G75*
G02X18364200Y3539700I-890264J1424721D01*
G01*
X19789705Y6109893D02*
G75*
G02X19789200Y4328700I-1425505J-890193D01*
G01*
X17474306Y6645058D02*
G75*
G02X19230200Y6659700I889894J-1425358D01*
G01*
X16938842Y4329806D02*
G75*
G02X16924200Y6085700I1425358J889894D01*
G01*
X18392874Y3539601D02*
G75*
G02X17498200Y3779700I-28674J1680099D01*
G01*
X23544200Y5219700D02*
G75*
G03X23544200Y5219700I-1680000J0D01*
G01*
X16554200Y1119700D02*
X23674200Y1119700D01*
X16554200Y2219700D02*
X23674200Y2219700D01*
X16554200Y8379700D02*
X23674200Y8379700D01*
X16554200Y659700D02*
X23674200Y659700D01*
X16554200Y8379700D02*
X16554200Y659700D01*
X23674200Y8379700D02*
X23674200Y659700D01*
X23139200Y6288700D02*
X23010200Y6160700D01*
X20889200Y4038700D02*
X20795200Y3945700D01*
X22934200Y6494700D02*
X22840200Y6400700D01*
X20719200Y4278700D02*
X20590200Y4150700D01*
X16314200Y1059700D02*
X16314200Y419700D01*
X16314200Y419700D02*
X16714200Y419700D01*
X51690264Y3794979D02*
G75*
G02X50800000Y3539700I-890264J1424721D01*
G01*
X52225505Y6109893D02*
G75*
G02X52225000Y4328700I-1425505J-890193D01*
G01*
X49910106Y6645058D02*
G75*
G02X51666000Y6659700I889894J-1425358D01*
G01*
X49374642Y4329806D02*
G75*
G02X49360000Y6085700I1425358J889894D01*
G01*
X50828674Y3539601D02*
G75*
G02X49934000Y3779700I-28674J1680099D01*
G01*
X55980000Y5219700D02*
G75*
G03X55980000Y5219700I-1680000J0D01*
G01*
X48990000Y1119700D02*
X56110000Y1119700D01*
X48990000Y2219700D02*
X56110000Y2219700D01*
X48990000Y8379700D02*
X56110000Y8379700D01*
X48990000Y659700D02*
X56110000Y659700D01*
X48990000Y8379700D02*
X48990000Y659700D01*
X56110000Y8379700D02*
X56110000Y659700D01*
X55575000Y6288700D02*
X55446000Y6160700D01*
X53325000Y4038700D02*
X53231000Y3945700D01*
X55370000Y6494700D02*
X55276000Y6400700D01*
X53155000Y4278700D02*
X53026000Y4150700D01*
X48750000Y1059700D02*
X48750000Y419700D01*
X48750000Y419700D02*
X49150000Y419700D01*
X43587664Y3794979D02*
G75*
G02X42697400Y3539700I-890264J1424721D01*
G01*
X44122905Y6109893D02*
G75*
G02X44122400Y4328700I-1425505J-890193D01*
G01*
X41807506Y6645058D02*
G75*
G02X43563400Y6659700I889894J-1425358D01*
G01*
X41272042Y4329806D02*
G75*
G02X41257400Y6085700I1425358J889894D01*
G01*
X42726074Y3539601D02*
G75*
G02X41831400Y3779700I-28674J1680099D01*
G01*
X47877400Y5219700D02*
G75*
G03X47877400Y5219700I-1680000J0D01*
G01*
X40887400Y1119700D02*
X48007400Y1119700D01*
X40887400Y2219700D02*
X48007400Y2219700D01*
X40887400Y8379700D02*
X48007400Y8379700D01*
X40887400Y659700D02*
X48007400Y659700D01*
X40887400Y8379700D02*
X40887400Y659700D01*
X48007400Y8379700D02*
X48007400Y659700D01*
X47472400Y6288700D02*
X47343400Y6160700D01*
X45222400Y4038700D02*
X45128400Y3945700D01*
X47267400Y6494700D02*
X47173400Y6400700D01*
X45052400Y4278700D02*
X44923400Y4150700D01*
X40647400Y1059700D02*
X40647400Y419700D01*
X40647400Y419700D02*
X41047400Y419700D01*
X35459664Y3794979D02*
G75*
G02X34569400Y3539700I-890264J1424721D01*
G01*
X35994905Y6109893D02*
G75*
G02X35994400Y4328700I-1425505J-890193D01*
G01*
X33679506Y6645058D02*
G75*
G02X35435400Y6659700I889894J-1425358D01*
G01*
X33144042Y4329806D02*
G75*
G02X33129400Y6085700I1425358J889894D01*
G01*
X34598074Y3539601D02*
G75*
G02X33703400Y3779700I-28674J1680099D01*
G01*
X39749400Y5219700D02*
G75*
G03X39749400Y5219700I-1680000J0D01*
G01*
X32759400Y1119700D02*
X39879400Y1119700D01*
X32759400Y2219700D02*
X39879400Y2219700D01*
X32759400Y8379700D02*
X39879400Y8379700D01*
X32759400Y659700D02*
X39879400Y659700D01*
X32759400Y8379700D02*
X32759400Y659700D01*
X39879400Y8379700D02*
X39879400Y659700D01*
X39344400Y6288700D02*
X39215400Y6160700D01*
X37094400Y4038700D02*
X37000400Y3945700D01*
X39139400Y6494700D02*
X39045400Y6400700D01*
X36924400Y4278700D02*
X36795400Y4150700D01*
X32519400Y1059700D02*
X32519400Y419700D01*
X32519400Y419700D02*
X32919400Y419700D01*
X27331664Y3794979D02*
G75*
G02X26441400Y3539700I-890264J1424721D01*
G01*
X27866905Y6109893D02*
G75*
G02X27866400Y4328700I-1425505J-890193D01*
G01*
X25551506Y6645058D02*
G75*
G02X27307400Y6659700I889894J-1425358D01*
G01*
X25016042Y4329806D02*
G75*
G02X25001400Y6085700I1425358J889894D01*
G01*
X26470074Y3539601D02*
G75*
G02X25575400Y3779700I-28674J1680099D01*
G01*
X31621400Y5219700D02*
G75*
G03X31621400Y5219700I-1680000J0D01*
G01*
X24631400Y1119700D02*
X31751400Y1119700D01*
X24631400Y2219700D02*
X31751400Y2219700D01*
X24631400Y8379700D02*
X31751400Y8379700D01*
X24631400Y659700D02*
X31751400Y659700D01*
X24631400Y8379700D02*
X24631400Y659700D01*
X31751400Y8379700D02*
X31751400Y659700D01*
X31216400Y6288700D02*
X31087400Y6160700D01*
X28966400Y4038700D02*
X28872400Y3945700D01*
X31011400Y6494700D02*
X30917400Y6400700D01*
X28796400Y4278700D02*
X28667400Y4150700D01*
X24391400Y1059700D02*
X24391400Y419700D01*
X24391400Y419700D02*
X24791400Y419700D01*
D11*
X49511700Y48350400D02*
X46971700Y48350400D01*
X46971700Y48350400D02*
X46971700Y49874400D01*
X46971700Y49874400D02*
X39351700Y49874400D01*
X36811700Y48350400D02*
X39351700Y48350400D01*
X39351700Y48350400D02*
X39351700Y49874400D01*
X36811700Y43270400D02*
X36811700Y48350400D01*
X36811700Y43270400D02*
X49511700Y43270400D01*
X49511700Y43270400D02*
X49511700Y48350400D01*
D13*
X29491882Y95273456D02*
G75*
G02X30175200Y95418700I683318J-1534756D01*
G01*
X28639774Y93055658D02*
G75*
G02X28640200Y94422700I1535426J683042D01*
G01*
X30858242Y92203274D02*
G75*
G02X29491200Y92203700I-683042J1535426D01*
G01*
X31710626Y94421742D02*
G75*
G02X31710200Y93054700I-1535426J-683042D01*
G01*
X30146395Y95418953D02*
G75*
G02X30859200Y95273700I28805J-1680253D01*
G01*
X26775200Y93738700D02*
G75*
G03X26775200Y93738700I-1680000J0D01*
G01*
X32775200Y97838700D02*
X22495200Y97838700D01*
X32775200Y96338700D02*
X22495200Y96338700D01*
X32775200Y91437700D02*
X22495200Y91437700D01*
X32775200Y88477700D02*
X22495200Y88477700D01*
X32775200Y98398700D02*
X22495200Y98398700D01*
X32775200Y88477700D02*
X32775200Y98398700D01*
X22495200Y88477700D02*
X22495200Y98398700D01*
X23820200Y92669700D02*
X23867200Y92715700D01*
X26129200Y94977700D02*
X26164200Y95012700D01*
X24025200Y92463700D02*
X24060200Y92499700D01*
X26322200Y94761700D02*
X26369200Y94807700D01*
X33015200Y97898700D02*
X33015200Y98638700D01*
X33015200Y98638700D02*
X32515200Y98638700D01*
D11*
X77279500Y51054000D02*
X77279500Y49657000D01*
X77279500Y49657000D02*
X69913500Y49657000D01*
X69913500Y49657000D02*
X69913500Y51054000D01*
X72326500Y51054000D02*
X72326500Y49657000D01*
X72326500Y49657000D02*
X74866500Y49657000D01*
X74866500Y49657000D02*
X74866500Y51054000D01*
X77279500Y56134000D02*
X77279500Y51054000D01*
X77279500Y51054000D02*
X74866500Y51054000D01*
X69913500Y51054000D02*
X72326500Y51054000D01*
X77279500Y56134000D02*
X69913500Y56134000D01*
X69913500Y56134000D02*
X69913500Y51054000D01*
X76644500Y2667000D02*
X76644500Y1270000D01*
X76644500Y1270000D02*
X69278500Y1270000D01*
X69278500Y1270000D02*
X69278500Y2667000D01*
X71691500Y2667000D02*
X71691500Y1270000D01*
X71691500Y1270000D02*
X74231500Y1270000D01*
X74231500Y1270000D02*
X74231500Y2667000D01*
X76644500Y7747000D02*
X76644500Y2667000D01*
X76644500Y2667000D02*
X74231500Y2667000D01*
X69278500Y2667000D02*
X71691500Y2667000D01*
X76644500Y7747000D02*
X69278500Y7747000D01*
X69278500Y7747000D02*
X69278500Y2667000D01*
X77279500Y67564000D02*
X77279500Y66167000D01*
X77279500Y66167000D02*
X69913500Y66167000D01*
X69913500Y66167000D02*
X69913500Y67564000D01*
X72326500Y67564000D02*
X72326500Y66167000D01*
X72326500Y66167000D02*
X74866500Y66167000D01*
X74866500Y66167000D02*
X74866500Y67564000D01*
X77279500Y72644000D02*
X77279500Y67564000D01*
X77279500Y67564000D02*
X74866500Y67564000D01*
X69913500Y67564000D02*
X72326500Y67564000D01*
X77279500Y72644000D02*
X69913500Y72644000D01*
X69913500Y72644000D02*
X69913500Y67564000D01*
X76708000Y9398000D02*
X76708000Y8001000D01*
X76708000Y8001000D02*
X69342000Y8001000D01*
X69342000Y8001000D02*
X69342000Y9398000D01*
X71755000Y9398000D02*
X71755000Y8001000D01*
X71755000Y8001000D02*
X74295000Y8001000D01*
X74295000Y8001000D02*
X74295000Y9398000D01*
X76708000Y14478000D02*
X76708000Y9398000D01*
X76708000Y9398000D02*
X74295000Y9398000D01*
X69342000Y9398000D02*
X71755000Y9398000D01*
X76708000Y14478000D02*
X69342000Y14478000D01*
X69342000Y14478000D02*
X69342000Y9398000D01*
D13*
X63760464Y2829779D02*
G75*
G02X62870200Y2574500I-890264J1424721D01*
G01*
X64295705Y5144693D02*
G75*
G02X64295200Y3363500I-1425505J-890193D01*
G01*
X61980306Y5679858D02*
G75*
G02X63736200Y5694500I889894J-1425358D01*
G01*
X61444842Y3364606D02*
G75*
G02X61430200Y5120500I1425358J889894D01*
G01*
X62898874Y2574401D02*
G75*
G02X62004200Y2814500I-28674J1680099D01*
G01*
X68050200Y4254500D02*
G75*
G03X68050200Y4254500I-1680000J0D01*
G01*
X61060200Y154500D02*
X68180200Y154500D01*
X61060200Y1254500D02*
X68180200Y1254500D01*
X61060200Y7414500D02*
X68180200Y7414500D01*
X61060200Y-305500D02*
X68180200Y-305500D01*
X61060200Y7414500D02*
X61060200Y-305500D01*
X68180200Y7414500D02*
X68180200Y-305500D01*
X67645200Y5323500D02*
X67516200Y5195500D01*
X65395200Y3073500D02*
X65301200Y2980500D01*
X67440200Y5529500D02*
X67346200Y5435500D01*
X65225200Y3313500D02*
X65096200Y3185500D01*
X60820200Y94500D02*
X60820200Y-545500D01*
X60820200Y-545500D02*
X61220200Y-545500D01*
X19604400Y90284300D02*
G75*
G03X19604400Y90284300I-2180000J0D01*
G01*
X13254400Y90284300D02*
G75*
G03X13254400Y90284300I-2180000J0D01*
G01*
X20659400Y97784300D02*
X7839400Y97784300D01*
X20659400Y92784300D02*
X7839400Y92784300D01*
X20659400Y87784300D02*
X7839400Y87784300D01*
X20659400Y85724300D02*
X7839400Y85724300D01*
X20659400Y98344300D02*
X7839400Y98344300D01*
X20659400Y85724300D02*
X20659400Y98344300D01*
X7839400Y85724300D02*
X7839400Y98344300D01*
X15770400Y88896300D02*
X15922400Y89048300D01*
X18660400Y91786300D02*
X18812400Y91938300D01*
X16036400Y88630300D02*
X16188400Y88782300D01*
X18926400Y91519300D02*
X19078400Y91672300D01*
X18424400Y85784300D02*
X16424400Y85784300D01*
X18424400Y86784300D02*
X16424400Y86784300D01*
X18424400Y85784300D02*
X18424400Y86784300D01*
X16424400Y85784300D02*
X16424400Y86784300D01*
X9420400Y88896300D02*
X9861400Y89337300D01*
X12035400Y91512300D02*
X12461400Y91938300D01*
X9686400Y88630300D02*
X10112400Y89056300D01*
X12301400Y91246300D02*
X12727400Y91672300D01*
X12074400Y85784300D02*
X10074400Y85784300D01*
X12074400Y86784300D02*
X10074400Y86784300D01*
X12074400Y85784300D02*
X12074400Y86784300D01*
X10074400Y85784300D02*
X10074400Y86784300D01*
X20899400Y97844300D02*
X20899400Y98584300D01*
X20899400Y98584300D02*
X20399400Y98584300D01*
D16*
X15480400Y79488900D02*
X25210400Y79488900D01*
X15480400Y84518900D02*
X25210400Y84518900D01*
X25210400Y84518900D02*
X25210400Y79503900D01*
X15480400Y84518900D02*
X15480400Y79488900D01*
X6248800Y79323300D02*
X6248800Y89053300D01*
X1218800Y79323300D02*
X1218800Y89053300D01*
X1218800Y89053300D02*
X6233800Y89053300D01*
X1218800Y79323300D02*
X6248800Y79323300D01*
D13*
X6933000Y76872500D02*
X6933000Y68472500D01*
X433000Y76872500D02*
X433000Y68472500D01*
X433000Y76872500D02*
X6933000Y76872500D01*
X48671400Y10794100D02*
X51821400Y10794100D01*
X48671400Y9094100D02*
X51821400Y9094100D01*
X48671400Y10794100D02*
X48671400Y9094100D01*
X40568800Y10794100D02*
X43718800Y10794100D01*
X40568800Y9094100D02*
X43718800Y9094100D01*
X40568800Y10794100D02*
X40568800Y9094100D01*
X32440800Y10794100D02*
X35590800Y10794100D01*
X32440800Y9094100D02*
X35590800Y9094100D01*
X32440800Y10794100D02*
X32440800Y9094100D01*
X24312800Y10768700D02*
X27462800Y10768700D01*
X24312800Y9068700D02*
X27462800Y9068700D01*
X24312800Y10768700D02*
X24312800Y9068700D01*
X23309500Y79082000D02*
X26459500Y79082000D01*
X23309500Y77382000D02*
X26459500Y77382000D01*
X23309500Y79082000D02*
X23309500Y77382000D01*
X17701800Y51054100D02*
X17701800Y53324100D01*
X17701800Y53324100D02*
X16181800Y53324100D01*
X16181800Y53324100D02*
X16181800Y51054100D01*
X44919000Y89974500D02*
X44919000Y86824500D01*
X43219000Y89974500D02*
X43219000Y86824500D01*
X44919000Y89974500D02*
X43219000Y89974500D01*
X21054600Y51054100D02*
X21054600Y53324100D01*
X21054600Y53324100D02*
X19534600Y53324100D01*
X19534600Y53324100D02*
X19534600Y51054100D01*
X62812200Y62687300D02*
X62812200Y64957300D01*
X62812200Y64957300D02*
X61292200Y64957300D01*
X61292200Y64957300D02*
X61292200Y62687300D01*
X45326200Y52004500D02*
X43056200Y52004500D01*
X43056200Y52004500D02*
X43056200Y50484500D01*
X43056200Y50484500D02*
X45326200Y50484500D01*
X40627400Y50484500D02*
X42897400Y50484500D01*
X42897400Y50484500D02*
X42897400Y52004500D01*
X42897400Y52004500D02*
X40627400Y52004500D01*
X45349900Y53669400D02*
X43079900Y53669400D01*
X43079900Y53669400D02*
X43079900Y52149400D01*
X43079900Y52149400D02*
X45349900Y52149400D01*
X40627400Y52160900D02*
X42897400Y52160900D01*
X42897400Y52160900D02*
X42897400Y53680900D01*
X42897400Y53680900D02*
X40627400Y53680900D01*
X45326200Y55357300D02*
X43056200Y55357300D01*
X43056200Y55357300D02*
X43056200Y53837300D01*
X43056200Y53837300D02*
X45326200Y53837300D01*
X40627400Y53837300D02*
X42897400Y53837300D01*
X42897400Y53837300D02*
X42897400Y55357300D01*
X42897400Y55357300D02*
X40627400Y55357300D01*
X35838500Y89974500D02*
X35838500Y86824500D01*
X34138500Y89974500D02*
X34138500Y86824500D01*
X35838500Y89974500D02*
X34138500Y89974500D01*
X19378200Y51054100D02*
X19378200Y53324100D01*
X19378200Y53324100D02*
X17858200Y53324100D01*
X17858200Y53324100D02*
X17858200Y51054100D01*
X64488600Y62687300D02*
X64488600Y64957300D01*
X64488600Y64957300D02*
X62968600Y64957300D01*
X62968600Y64957300D02*
X62968600Y62687300D01*
X1155800Y63082900D02*
X3425800Y63082900D01*
X3425800Y63082900D02*
X3425800Y64602900D01*
X3425800Y64602900D02*
X1155800Y64602900D01*
X1155800Y61406500D02*
X3425800Y61406500D01*
X3425800Y61406500D02*
X3425800Y62926500D01*
X3425800Y62926500D02*
X1155800Y62926500D01*
X1155800Y59704700D02*
X3425800Y59704700D01*
X3425800Y59704700D02*
X3425800Y61224700D01*
X3425800Y61224700D02*
X1155800Y61224700D01*
X1155800Y64797400D02*
X3425800Y64797400D01*
X3425800Y64797400D02*
X3425800Y66317400D01*
X3425800Y66317400D02*
X1155800Y66317400D01*
X90030250Y88601250D02*
X90030250Y87813750D01*
X89636500Y88207500D02*
X90424000Y88207500D01*
X90664000Y84014437D02*
X91728437Y82950000D01*
X90664000Y88705563D02*
X91728437Y89770000D01*
X90664000Y88705563D02*
X90664000Y87420000D01*
X90664000Y84014437D02*
X90664000Y85300000D01*
X91728437Y82950000D02*
X97484000Y82950000D01*
X91728437Y89770000D02*
X97484000Y89770000D01*
X97484000Y89770000D02*
X97484000Y87420000D01*
X97484000Y82950000D02*
X97484000Y85300000D01*
X87447664Y78706300D02*
X86243536Y78706300D01*
X87447664Y80526300D02*
X86243536Y80526300D01*
X87447664Y66260300D02*
X86243536Y66260300D01*
X87447664Y68080300D02*
X86243536Y68080300D01*
X48833500Y22070279D02*
X48833500Y21744721D01*
X47813500Y22070279D02*
X47813500Y21744721D01*
X50446721Y21465000D02*
X50772279Y21465000D01*
X50446721Y20445000D02*
X50772279Y20445000D01*
X24300264Y85615100D02*
X23096136Y85615100D01*
X24300264Y87435100D02*
X23096136Y87435100D01*
X53922200Y90451721D02*
X53922200Y90777279D01*
X54942200Y90451721D02*
X54942200Y90777279D01*
X44928200Y84155364D02*
X44928200Y82951236D01*
X43108200Y84155364D02*
X43108200Y82951236D01*
X53617400Y70893721D02*
X53617400Y71219279D01*
X54637400Y70893721D02*
X54637400Y71219279D01*
X61542200Y70944521D02*
X61542200Y71270079D01*
X62562200Y70944521D02*
X62562200Y71270079D01*
X81447321Y77840300D02*
X81772879Y77840300D01*
X81447321Y76820300D02*
X81772879Y76820300D01*
X97317879Y80122300D02*
X96992321Y80122300D01*
X97317879Y81142300D02*
X96992321Y81142300D01*
X91683721Y82564700D02*
X92009279Y82564700D01*
X91683721Y81544700D02*
X92009279Y81544700D01*
X97317879Y65644300D02*
X96992321Y65644300D01*
X97317879Y66664300D02*
X96992321Y66664300D01*
X91734421Y65064100D02*
X92059979Y65064100D01*
X91734421Y64044100D02*
X92059979Y64044100D01*
X82742821Y79618300D02*
X83068379Y79618300D01*
X82742821Y78598300D02*
X83068379Y78598300D01*
X79601600Y74462521D02*
X79601600Y74788079D01*
X80621600Y74462521D02*
X80621600Y74788079D01*
X83098321Y69839300D02*
X83423879Y69839300D01*
X83098321Y68819300D02*
X83423879Y68819300D01*
X78409850Y74454050D02*
X78409850Y75241550D01*
X78803600Y74847800D02*
X78016100Y74847800D01*
X77776100Y79040863D02*
X76711663Y80105300D01*
X77776100Y74349737D02*
X76711663Y73285300D01*
X77776100Y74349737D02*
X77776100Y75635300D01*
X77776100Y79040863D02*
X77776100Y77755300D01*
X76711663Y80105300D02*
X70956100Y80105300D01*
X76711663Y73285300D02*
X70956100Y73285300D01*
X70956100Y73285300D02*
X70956100Y75635300D01*
X70956100Y80105300D02*
X70956100Y77755300D01*
X80589036Y83320300D02*
X81793164Y83320300D01*
X80589036Y81500300D02*
X81793164Y81500300D01*
X80592036Y95702800D02*
X81796164Y95702800D01*
X80592036Y93882800D02*
X81796164Y93882800D01*
X43559000Y61140121D02*
X43559000Y61465679D01*
X44579000Y61140121D02*
X44579000Y61465679D01*
X42699400Y58239979D02*
X42699400Y57914421D01*
X41679400Y58239979D02*
X41679400Y57914421D01*
X70741321Y81840800D02*
X71066879Y81840800D01*
X70741321Y80820800D02*
X71066879Y80820800D01*
X64627879Y80757300D02*
X64302321Y80757300D01*
X64627879Y81777300D02*
X64302321Y81777300D01*
X70779321Y96382300D02*
X71104879Y96382300D01*
X70779321Y95362300D02*
X71104879Y95362300D01*
X64627879Y95425800D02*
X64302321Y95425800D01*
X64627879Y96445800D02*
X64302321Y96445800D01*
X86687879Y84059300D02*
X86362321Y84059300D01*
X86687879Y85079300D02*
X86362321Y85079300D01*
X85252879Y82408300D02*
X84927321Y82408300D01*
X85252879Y83428300D02*
X84927321Y83428300D01*
X88495600Y87488079D02*
X88495600Y87162521D01*
X87475600Y87488079D02*
X87475600Y87162521D01*
X85011379Y92123800D02*
X84685821Y92123800D01*
X85011379Y93143800D02*
X84685821Y93143800D01*
X78409850Y39033750D02*
X78409850Y39821250D01*
X78803600Y39427500D02*
X78016100Y39427500D01*
X77776100Y43620563D02*
X76711663Y44685000D01*
X77776100Y38929437D02*
X76711663Y37865000D01*
X77776100Y38929437D02*
X77776100Y40215000D01*
X77776100Y43620563D02*
X77776100Y42335000D01*
X76711663Y44685000D02*
X70956100Y44685000D01*
X76711663Y37865000D02*
X70956100Y37865000D01*
X70956100Y37865000D02*
X70956100Y40215000D01*
X70956100Y44685000D02*
X70956100Y42335000D01*
X87571664Y40492000D02*
X86367536Y40492000D01*
X87571664Y42312000D02*
X86367536Y42312000D01*
X87546264Y28071400D02*
X86342136Y28071400D01*
X87546264Y29891400D02*
X86342136Y29891400D01*
X43508200Y68810921D02*
X43508200Y69136479D01*
X44528200Y68810921D02*
X44528200Y69136479D01*
X42699400Y65732879D02*
X42699400Y65407321D01*
X41679400Y65732879D02*
X41679400Y65407321D01*
X97343279Y42035000D02*
X97017721Y42035000D01*
X97343279Y43055000D02*
X97017721Y43055000D01*
X91810621Y44388500D02*
X92136179Y44388500D01*
X91810621Y43368500D02*
X92136179Y43368500D01*
X97343279Y27480800D02*
X97017721Y27480800D01*
X97343279Y28500800D02*
X97017721Y28500800D01*
X91823221Y26735500D02*
X92148779Y26735500D01*
X91823221Y25715500D02*
X92148779Y25715500D01*
X81269621Y39727600D02*
X81595179Y39727600D01*
X81269621Y38707600D02*
X81595179Y38707600D01*
X82971321Y41327800D02*
X83296879Y41327800D01*
X82971321Y40307800D02*
X83296879Y40307800D01*
X79614300Y36337021D02*
X79614300Y36662579D01*
X80634300Y36337021D02*
X80634300Y36662579D01*
X83073021Y31675800D02*
X83398579Y31675800D01*
X83073021Y30655800D02*
X83398579Y30655800D01*
X78409850Y19742450D02*
X78409850Y20529950D01*
X78803600Y20136200D02*
X78016100Y20136200D01*
X77776100Y24329263D02*
X76711663Y25393700D01*
X77776100Y19638137D02*
X76711663Y18573700D01*
X77776100Y19638137D02*
X77776100Y20923700D01*
X77776100Y24329263D02*
X77776100Y23043700D01*
X76711663Y25393700D02*
X70956100Y25393700D01*
X76711663Y18573700D02*
X70956100Y18573700D01*
X70956100Y18573700D02*
X70956100Y20923700D01*
X70956100Y25393700D02*
X70956100Y23043700D01*
X87520864Y21149900D02*
X86316736Y21149900D01*
X87520864Y22969900D02*
X86316736Y22969900D01*
X43508200Y76583321D02*
X43508200Y76908879D01*
X44528200Y76583321D02*
X44528200Y76908879D01*
X42699400Y73606879D02*
X42699400Y73281321D01*
X41679400Y73606879D02*
X41679400Y73281321D01*
X87619464Y8653100D02*
X86415336Y8653100D01*
X87619464Y10473100D02*
X86415336Y10473100D01*
X97368679Y22591300D02*
X97043121Y22591300D01*
X97368679Y23611300D02*
X97043121Y23611300D01*
X91848721Y25148000D02*
X92174279Y25148000D01*
X91848721Y24128000D02*
X92174279Y24128000D01*
X97368679Y8037100D02*
X97043121Y8037100D01*
X97368679Y9057100D02*
X97043121Y9057100D01*
X90413721Y7241000D02*
X90739279Y7241000D01*
X90413721Y6221000D02*
X90739279Y6221000D01*
X81421921Y20360100D02*
X81747479Y20360100D01*
X81421921Y19340100D02*
X81747479Y19340100D01*
X82945921Y21934900D02*
X83271479Y21934900D01*
X82945921Y20914900D02*
X83271479Y20914900D01*
X79627000Y17020221D02*
X79627000Y17345779D01*
X80647000Y17020221D02*
X80647000Y17345779D01*
X83174721Y12321000D02*
X83500279Y12321000D01*
X83174721Y11301000D02*
X83500279Y11301000D01*
X78409850Y58096450D02*
X78409850Y58883950D01*
X78803600Y58490200D02*
X78016100Y58490200D01*
X77776100Y62683263D02*
X76711663Y63747700D01*
X77776100Y57992137D02*
X76711663Y56927700D01*
X77776100Y57992137D02*
X77776100Y59277700D01*
X77776100Y62683263D02*
X77776100Y61397700D01*
X76711663Y63747700D02*
X70956100Y63747700D01*
X76711663Y56927700D02*
X70956100Y56927700D01*
X70956100Y56927700D02*
X70956100Y59277700D01*
X70956100Y63747700D02*
X70956100Y61397700D01*
X35835000Y84168064D02*
X35835000Y82963936D01*
X34015000Y84168064D02*
X34015000Y82963936D01*
X61542200Y78564521D02*
X61542200Y78890079D01*
X62562200Y78564521D02*
X62562200Y78890079D01*
X87470064Y59554700D02*
X86265936Y59554700D01*
X87470064Y61374700D02*
X86265936Y61374700D01*
X97343279Y61097700D02*
X97017721Y61097700D01*
X97343279Y62117700D02*
X97017721Y62117700D01*
X91759821Y63489300D02*
X92085379Y63489300D01*
X91759821Y62469300D02*
X92085379Y62469300D01*
X97343279Y46492700D02*
X97017721Y46492700D01*
X97343279Y47512700D02*
X97017721Y47512700D01*
X91835921Y45963300D02*
X92161479Y45963300D01*
X91835921Y44943300D02*
X92161479Y44943300D01*
X87597064Y47108700D02*
X86392936Y47108700D01*
X87597064Y48928700D02*
X86392936Y48928700D01*
X81396721Y58815700D02*
X81722279Y58815700D01*
X81396721Y57795700D02*
X81722279Y57795700D01*
X82768221Y60466700D02*
X83093779Y60466700D01*
X82768221Y59446700D02*
X83093779Y59446700D01*
X79500000Y55450421D02*
X79500000Y55775979D01*
X80520000Y55450421D02*
X80520000Y55775979D01*
X83174721Y50687700D02*
X83500279Y50687700D01*
X83174721Y49667700D02*
X83500279Y49667700D01*
X44511179Y28661900D02*
X44185621Y28661900D01*
X44511179Y29681900D02*
X44185621Y29681900D01*
X44511179Y27087100D02*
X44185621Y27087100D01*
X44511179Y28107100D02*
X44185621Y28107100D01*
X24508779Y41463500D02*
X24183221Y41463500D01*
X24508779Y42483500D02*
X24183221Y42483500D01*
X24521279Y39939500D02*
X24195721Y39939500D01*
X24521279Y40959500D02*
X24195721Y40959500D01*
X57338279Y68070000D02*
X57012721Y68070000D01*
X57338279Y69090000D02*
X57012721Y69090000D01*
X49667379Y37450300D02*
X49341821Y37450300D01*
X49667379Y38470300D02*
X49341821Y38470300D01*
X61393800Y48486379D02*
X61393800Y48160821D01*
X60373800Y48486379D02*
X60373800Y48160821D01*
X57943450Y52138650D02*
X57155950Y52138650D01*
X57549700Y52532400D02*
X57549700Y51744900D01*
X53356637Y51504900D02*
X52292200Y50440463D01*
X58047763Y51504900D02*
X59112200Y50440463D01*
X58047763Y51504900D02*
X56762200Y51504900D01*
X53356637Y51504900D02*
X54642200Y51504900D01*
X52292200Y50440463D02*
X52292200Y44684900D01*
X59112200Y50440463D02*
X59112200Y44684900D01*
X59112200Y44684900D02*
X56762200Y44684900D01*
X52292200Y44684900D02*
X54642200Y44684900D01*
X61546200Y34363979D02*
X61546200Y34038421D01*
X60526200Y34363979D02*
X60526200Y34038421D01*
D11*
X85631980Y76195199D02*
X85870076Y76195199D01*
X85774838Y75957104D02*
X85870076Y76195199D01*
X85774838Y76433295D01*
X86060552Y76052342D02*
X85870076Y76195199D01*
X86060552Y76338057D01*
X85631980Y76195199D02*
X85870076Y76195199D01*
X85774838Y75957104D02*
X85870076Y76195199D01*
X85774838Y76433295D01*
X86060552Y76052342D02*
X85870076Y76195199D01*
X86060552Y76338057D01*
X81369980Y85831401D02*
X81608076Y85831401D01*
X81512838Y85593306D02*
X81608076Y85831401D01*
X81512838Y86069497D01*
X81798552Y85688544D02*
X81608076Y85831401D01*
X81798552Y85974259D01*
X81369980Y85831401D02*
X81608076Y85831401D01*
X81512838Y85593306D02*
X81608076Y85831401D01*
X81512838Y86069497D01*
X81798552Y85688544D02*
X81608076Y85831401D01*
X81798552Y85974259D01*
X85657380Y37955499D02*
X85895476Y37955499D01*
X85800238Y37717404D02*
X85895476Y37955499D01*
X85800238Y38193595D01*
X86085952Y37812642D02*
X85895476Y37955499D01*
X86085952Y38098357D01*
X85657380Y37955499D02*
X85895476Y37955499D01*
X85800238Y37717404D02*
X85895476Y37955499D01*
X85800238Y38193595D01*
X86085952Y37812642D02*
X85895476Y37955499D01*
X86085952Y38098357D01*
X85664781Y18620300D02*
X85902877Y18620300D01*
X85807639Y18382205D02*
X85902877Y18620300D01*
X85807639Y18858396D01*
X86093353Y18477443D02*
X85902877Y18620300D01*
X86093353Y18763158D01*
X85664781Y18620300D02*
X85902877Y18620300D01*
X85807639Y18382205D02*
X85902877Y18620300D01*
X85807639Y18858396D01*
X86093353Y18477443D02*
X85902877Y18620300D01*
X86093353Y18763158D01*
X85657380Y57043599D02*
X85895476Y57043599D01*
X85800238Y56805504D02*
X85895476Y57043599D01*
X85800238Y57281695D01*
X86085952Y56900742D02*
X85895476Y57043599D01*
X86085952Y57186457D01*
X85657380Y57043599D02*
X85895476Y57043599D01*
X85800238Y56805504D02*
X85895476Y57043599D01*
X85800238Y57281695D01*
X86085952Y56900742D02*
X85895476Y57043599D01*
X86085952Y57186457D01*
M02*
