M48
; DRILL file {KiCad 6.0.0-rc1-unknown-170ff66~66~ubuntu18.10.1} date Sun 13 Jan 2019 03:31:41 PM PST
; FORMAT={-:-/ absolute / metric / decimal}
; #@! TF.CreationDate,2019-01-13T15:31:41-08:00
; #@! TF.GenerationSoftware,Kicad,Pcbnew,6.0.0-rc1-unknown-170ff66~66~ubuntu18.10.1
; #@! TF.FileFunction,Plated,1,2,PTH
FMAT,2
METRIC
T1C0.400
T2C1.000
T3C1.016
T4C1.200
%
G90
G05
T1
X129.3Y-126.4
X132.1Y-89.7
X132.7Y-98.9
X135.1Y-101.2
X135.8Y-111.6
X135.8Y-120.8
X136.3Y-127.0
X136.5Y-101.2
X137.3Y-125.1
X137.444Y-119.772
X137.9Y-101.2
X138.023Y-97.53
X138.1Y-94.2
X139.1Y-116.3
X139.3Y-101.2
X139.4Y-108.0
X140.2Y-84.7
X140.2Y-86.2
X140.2Y-87.6
X140.2Y-88.9
X140.4Y-111.6
X140.415Y-109.246
X140.461Y-117.871
X140.6Y-113.7
X140.7Y-104.6
X141.557Y-92.765
X142.5Y-105.1
X142.5Y-126.353
X142.6Y-111.4
X143.2Y-117.3
X143.5Y-84.4
X143.9Y-98.4
X144.0Y-115.9
X145.4Y-103.9
X145.8Y-98.4
X146.0Y-112.8
X146.0Y-120.8
X147.8Y-93.9
X147.8Y-94.9
X147.8Y-96.0
X147.8Y-117.3
X147.9Y-123.012
X148.5Y-99.7
X149.0Y-93.9
X149.0Y-94.9
X149.0Y-96.0
X149.5Y-99.7
X149.6Y-122.7
X149.9Y-106.9
X149.9Y-113.7
X149.9Y-120.3
X150.3Y-93.9
X150.3Y-94.9
X150.3Y-96.0
X150.3Y-102.0
X150.468Y-123.838
X150.5Y-103.8
X150.9Y-107.8
X150.934Y-117.573
X151.7Y-127.8
X152.1Y-99.8
X152.1Y-100.9
X152.1Y-113.2
X152.2Y-115.5
X152.3Y-117.7
X152.3Y-120.3
X152.705Y-114.605
X152.8Y-110.7
X152.8Y-123.4
X153.34Y-116.416
X153.5Y-98.3
X153.6Y-84.3
X154.0Y-120.4
X154.0Y-122.5
X154.697Y-117.3
X155.0Y-84.5
X155.2Y-123.4
X155.503Y-111.928
X155.512Y-115.098
X155.609Y-109.943
X156.254Y-113.757
X156.612Y-109.92
X156.7Y-105.3
X156.822Y-122.502
X156.825Y-111.41
X157.058Y-112.363
X157.441Y-99.233
X158.2Y-128.2
X158.271Y-118.626
X158.445Y-107.145
X158.613Y-121.867
X158.633Y-115.82
X158.638Y-109.838
X158.779Y-105.3
X158.9Y-103.4
X159.1Y-129.3
X159.3Y-123.1
X159.4Y-126.6
X159.45Y-124.942
X159.5Y-94.0
X159.5Y-95.1
X159.5Y-96.2
X159.505Y-112.456
X159.522Y-121.519
X159.683Y-99.724
X160.755Y-114.739
X160.8Y-94.0
X160.8Y-95.1
X160.8Y-96.2
X161.6Y-99.6
X161.6Y-100.5
X161.709Y-111.317
X162.1Y-94.0
X162.1Y-95.1
X162.1Y-96.2
X162.755Y-107.093
X162.853Y-115.703
X163.0Y-83.9
X163.151Y-118.327
X163.5Y-104.4
X163.526Y-125.475
X163.555Y-106.366
X163.684Y-108.03
X164.1Y-100.8
X164.53Y-113.162
X164.6Y-98.9
X164.726Y-115.131
X165.3Y-94.3
X165.3Y-96.0
X165.4Y-92.5
X165.648Y-105.474
X165.652Y-106.959
X165.7Y-90.6
X165.7Y-120.4
X165.8Y-104.2
X165.924Y-114.893
X166.069Y-116.366
X166.132Y-107.869
X166.4Y-117.9
X167.2Y-111.9
X167.385Y-107.562
X167.517Y-99.365
X168.029Y-108.559
X170.2Y-84.6
X170.8Y-117.9
X170.88Y-107.282
X171.4Y-90.9
X172.5Y-84.0
X172.5Y-105.7
X172.5Y-114.1
X172.6Y-108.6
X173.2Y-90.4
X173.3Y-120.4
X174.0Y-94.6
X174.4Y-102.7
X174.5Y-90.4
X174.934Y-116.864
X175.1Y-112.5
X175.9Y-90.4
X175.905Y-121.114
X176.3Y-94.7
X176.9Y-113.4
X177.422Y-115.362
X178.0Y-84.3
X178.5Y-116.0
X178.8Y-112.7
X179.4Y-84.3
X180.7Y-84.3
X181.1Y-88.9
X181.1Y-90.1
X181.1Y-91.2
X181.1Y-106.6
X182.0Y-84.3
X182.4Y-104.3
X182.557Y-123.966
X183.4Y-108.4
X183.6Y-101.7
X184.2Y-112.0
X184.3Y-115.6
X185.6Y-90.5
X185.6Y-92.1
X185.6Y-93.5
X185.6Y-94.8
X185.6Y-96.0
X186.8Y-119.6
X186.8Y-120.7
X186.8Y-121.8
X186.9Y-102.6
X188.0Y-88.534
X188.183Y-112.429
X189.1Y-121.6
X190.4Y-119.6
X196.8Y-115.1
X196.8Y-116.9
X196.8Y-118.6
X199.3Y-90.5
X199.3Y-92.1
X199.3Y-93.7
X199.3Y-95.3
X199.3Y-96.9
T2
X130.568Y-104.181
X130.568Y-106.721
X130.568Y-109.261
X130.607Y-122.576
X130.607Y-125.116
X130.607Y-127.656
X161.544Y-123.063
X161.544Y-125.603
X161.544Y-128.143
X168.5Y-100.8
X171.04Y-100.8
X173.58Y-100.8
X176.12Y-100.8
X178.66Y-100.8
X181.2Y-100.8
X179.642Y-123.063
X179.642Y-125.603
X179.642Y-128.143
X145.642Y-128.156
X148.182Y-128.156
X165.164Y-123.063
X165.164Y-125.603
X165.164Y-128.143
X168.5Y-96.7
X171.04Y-96.7
X173.58Y-96.7
X176.12Y-96.7
X178.66Y-96.7
X181.2Y-96.7
X184.76Y-127.4
X187.3Y-127.4
X189.84Y-127.4
X168.5Y-104.5
X171.04Y-104.5
X173.58Y-104.5
X176.12Y-104.5
X178.66Y-104.5
X187.26Y-123.4
X189.8Y-123.4
X130.58Y-113.388
X130.58Y-115.928
X130.58Y-118.468
X154.219Y-128.143
X156.759Y-128.143
X176.022Y-123.063
X176.022Y-125.603
X176.022Y-128.143
X172.402Y-123.063
X172.402Y-125.603
X172.402Y-128.143
X168.783Y-123.063
X168.783Y-125.603
X168.783Y-128.143
T3
X180.4Y-114.36
X180.4Y-116.9
X182.94Y-114.36
X182.94Y-116.9
X185.48Y-114.36
X185.48Y-116.9
X188.02Y-114.36
X188.02Y-116.9
X190.56Y-114.36
X190.56Y-116.9
X193.1Y-114.36
X193.1Y-116.9
T4
X144.5Y-88.328
X148.0Y-88.328
X155.9Y-88.328
X159.4Y-88.328
X167.005Y-88.328
X170.505Y-88.328
T0
M30
