G04 #@! TF.GenerationSoftware,KiCad,Pcbnew,6.0.0-rc1-unknown-170ff66~66~ubuntu18.10.1*
G04 #@! TF.CreationDate,2019-01-13T15:19:13-08:00
G04 #@! TF.ProjectId,EExtruder,45457874-7275-4646-9572-2e6b69636164,rev?*
G04 #@! TF.SameCoordinates,Original*
G04 #@! TF.FileFunction,Paste,Top*
G04 #@! TF.FilePolarity,Positive*
%FSLAX46Y46*%
G04 Gerber Fmt 4.6, Leading zero omitted, Abs format (unit mm)*
G04 Created by KiCad (PCBNEW 6.0.0-rc1-unknown-170ff66~66~ubuntu18.10.1) date Sun 13 Jan 2019 03:19:13 PM PST*
%MOMM*%
%LPD*%
G04 APERTURE LIST*
%ADD10R,2.500000X1.200000*%
%ADD11R,1.500000X2.000000*%
%ADD12R,3.800000X2.000000*%
%ADD13R,0.950000X0.875000*%
%ADD14R,0.875000X0.950000*%
%ADD15R,3.000000X0.127000*%
%ADD16R,0.127000X3.000000*%
%ADD17R,1.750000X1.250000*%
%ADD18R,2.000000X4.000000*%
%ADD19R,2.000000X4.500000*%
%ADD20R,0.250000X1.300000*%
%ADD21R,1.300000X0.250000*%
%ADD22R,0.900000X0.800000*%
%ADD23R,0.900000X0.600000*%
%ADD24R,0.600000X0.900000*%
%ADD25R,0.600000X1.050000*%
%ADD26R,1.000000X1.000000*%
%ADD27C,0.100000*%
%ADD28C,0.875000*%
G04 APERTURE END LIST*
D10*
X137425000Y-89150000D03*
X137425000Y-92150000D03*
X137425000Y-96150000D03*
X130925000Y-97250000D03*
D11*
X176300000Y-93250000D03*
X180900000Y-93250000D03*
X178600000Y-93250000D03*
D12*
X178600000Y-86950000D03*
D13*
X174000000Y-92200000D03*
X174000000Y-93775000D03*
X183100000Y-93787500D03*
X183100000Y-92212500D03*
D14*
X188212500Y-109300000D03*
X189787500Y-109300000D03*
D15*
X199500000Y-128300000D03*
D16*
X199500000Y-128300000D03*
D15*
X129730000Y-84899500D03*
D16*
X129730000Y-84899500D03*
D14*
X134683500Y-108585000D03*
X133108500Y-108585000D03*
X136524500Y-105156000D03*
X138099500Y-105156000D03*
X138099500Y-103124000D03*
X136524500Y-103124000D03*
X134683500Y-127000000D03*
X133108500Y-127000000D03*
X136562500Y-123571000D03*
X138137500Y-123571000D03*
X138137500Y-121539000D03*
X136562500Y-121539000D03*
X134683500Y-117792000D03*
X133108500Y-117792000D03*
X136524500Y-114364000D03*
X138099500Y-114364000D03*
X138112500Y-112332000D03*
X136537500Y-112332000D03*
D13*
X155130000Y-124015500D03*
X155130000Y-125590500D03*
X158052000Y-124028500D03*
X158052000Y-125603500D03*
X146431000Y-124078500D03*
X146431000Y-125653500D03*
X149352000Y-124078500D03*
X149352000Y-125653500D03*
X143828000Y-92710000D03*
X143828000Y-94285000D03*
D14*
X143712500Y-102552000D03*
X145287500Y-102552000D03*
X145275500Y-99631500D03*
X143700500Y-99631500D03*
X143700500Y-101092000D03*
X145275500Y-101092000D03*
D13*
X155638000Y-92659000D03*
X155638000Y-94234000D03*
D14*
X154571500Y-102298000D03*
X156146500Y-102298000D03*
X156146500Y-99377500D03*
X154571500Y-99377500D03*
X154571500Y-100838000D03*
X156146500Y-100838000D03*
X139573500Y-126428000D03*
X137998500Y-126428000D03*
D13*
X172400000Y-110524500D03*
X172400000Y-112099500D03*
X192500000Y-122512500D03*
X192500000Y-124087500D03*
X170700000Y-110512500D03*
X170700000Y-112087500D03*
D14*
X150987500Y-112000000D03*
X149412500Y-112000000D03*
X150987500Y-110490000D03*
X149412500Y-110490000D03*
D13*
X140100000Y-97987500D03*
X140100000Y-96412500D03*
X140200000Y-94387500D03*
X140200000Y-92812500D03*
X156591000Y-125603500D03*
X156591000Y-124028500D03*
X147892000Y-125603500D03*
X147892000Y-124028500D03*
D17*
X152100000Y-86500000D03*
X152100000Y-89300000D03*
X163000000Y-86500000D03*
X163000000Y-89300000D03*
D14*
X150987500Y-114500000D03*
X149412500Y-114500000D03*
X139573500Y-128080000D03*
X137998500Y-128080000D03*
X184340500Y-109601000D03*
X185915500Y-109601000D03*
X150987500Y-116400000D03*
X149412500Y-116400000D03*
X162187500Y-119300000D03*
X160612500Y-119300000D03*
X155012500Y-106100000D03*
X156587500Y-106100000D03*
D13*
X142500000Y-115112500D03*
X142500000Y-116687500D03*
X142500000Y-107312500D03*
X142500000Y-108887500D03*
D14*
X152487500Y-109000000D03*
X150912500Y-109000000D03*
D13*
X152000000Y-105587500D03*
X152000000Y-104012500D03*
D18*
X188000000Y-105800000D03*
X185600000Y-105800000D03*
X196800000Y-105800000D03*
X199200000Y-105800000D03*
X188000000Y-86000000D03*
X185600000Y-86000000D03*
X196800000Y-86000000D03*
X199200000Y-86000000D03*
D19*
X145923000Y-107514000D03*
X145923000Y-116014000D03*
D20*
X155873000Y-108426000D03*
X156373000Y-108426000D03*
X156873000Y-108426000D03*
X157373000Y-108426000D03*
X157873000Y-108426000D03*
X158373000Y-108426000D03*
X158873000Y-108426000D03*
X159373000Y-108426000D03*
X159873000Y-108426000D03*
X160373000Y-108426000D03*
X160873000Y-108426000D03*
X161373000Y-108426000D03*
D21*
X162973000Y-110026000D03*
X162973000Y-110526000D03*
X162973000Y-111026000D03*
X162973000Y-111526000D03*
X162973000Y-112026000D03*
X162973000Y-112526000D03*
X162973000Y-113026000D03*
X162973000Y-113526000D03*
X162973000Y-114026000D03*
X162973000Y-114526000D03*
X162973000Y-115026000D03*
X162973000Y-115526000D03*
D20*
X161373000Y-117126000D03*
X160873000Y-117126000D03*
X160373000Y-117126000D03*
X159873000Y-117126000D03*
X159373000Y-117126000D03*
X158873000Y-117126000D03*
X158373000Y-117126000D03*
X157873000Y-117126000D03*
X157373000Y-117126000D03*
X156873000Y-117126000D03*
X156373000Y-117126000D03*
X155873000Y-117126000D03*
D21*
X154273000Y-115526000D03*
X154273000Y-115026000D03*
X154273000Y-114526000D03*
X154273000Y-114026000D03*
X154273000Y-113526000D03*
X154273000Y-113026000D03*
X154273000Y-112526000D03*
X154273000Y-112026000D03*
X154273000Y-111526000D03*
X154273000Y-111026000D03*
X154273000Y-110526000D03*
X154273000Y-110026000D03*
D22*
X133096000Y-104138000D03*
X135096000Y-103188000D03*
X135096000Y-105088000D03*
X133128000Y-122552000D03*
X135128000Y-121602000D03*
X135128000Y-123502000D03*
X133128000Y-113345000D03*
X135128000Y-112395000D03*
X135128000Y-114295000D03*
D23*
X148971000Y-95436500D03*
D24*
X149571000Y-92736500D03*
D25*
X150881000Y-98456500D03*
X149611000Y-98456500D03*
X147061000Y-98456500D03*
X148331000Y-98456500D03*
D24*
X148371000Y-92736500D03*
X150851000Y-92736500D03*
X147091000Y-92736500D03*
D23*
X148971000Y-96286500D03*
X148971000Y-94586500D03*
X150121000Y-94586500D03*
X150121000Y-96286500D03*
X150121000Y-95436500D03*
X147821000Y-94586500D03*
X147821000Y-96286500D03*
X147821000Y-95436500D03*
D22*
X148717000Y-101536000D03*
X146717000Y-102486000D03*
X146717000Y-100586000D03*
D23*
X160846000Y-95446000D03*
D24*
X161446000Y-92746000D03*
D25*
X162756000Y-98466000D03*
X161486000Y-98466000D03*
X158936000Y-98466000D03*
X160206000Y-98466000D03*
D24*
X160246000Y-92746000D03*
X162726000Y-92746000D03*
X158966000Y-92746000D03*
D23*
X160846000Y-96296000D03*
X160846000Y-94596000D03*
X161996000Y-94596000D03*
X161996000Y-96296000D03*
X161996000Y-95446000D03*
X159696000Y-94596000D03*
X159696000Y-96296000D03*
X159696000Y-95446000D03*
D22*
X159639000Y-101282000D03*
X157639000Y-102232000D03*
X157639000Y-100332000D03*
D26*
X135660000Y-110300000D03*
X133160000Y-110300000D03*
X135636000Y-106870000D03*
X133136000Y-106870000D03*
X135723000Y-128714000D03*
X133223000Y-128714000D03*
X135680000Y-125286000D03*
X133180000Y-125286000D03*
X135660000Y-119507000D03*
X133160000Y-119507000D03*
X135660000Y-116078000D03*
X133160000Y-116078000D03*
D22*
X153574000Y-124587000D03*
X151574000Y-125537000D03*
X151574000Y-123637000D03*
X143066000Y-127318000D03*
X141066000Y-128268000D03*
X141066000Y-126368000D03*
D26*
X145375000Y-96012000D03*
X142875000Y-96012000D03*
D27*
G36*
X145692691Y-93848553D02*
G01*
X145713926Y-93851703D01*
X145734750Y-93856919D01*
X145754962Y-93864151D01*
X145774368Y-93873330D01*
X145792781Y-93884366D01*
X145810024Y-93897154D01*
X145825930Y-93911570D01*
X145840346Y-93927476D01*
X145853134Y-93944719D01*
X145864170Y-93963132D01*
X145873349Y-93982538D01*
X145880581Y-94002750D01*
X145885797Y-94023574D01*
X145888947Y-94044809D01*
X145890000Y-94066250D01*
X145890000Y-94503750D01*
X145888947Y-94525191D01*
X145885797Y-94546426D01*
X145880581Y-94567250D01*
X145873349Y-94587462D01*
X145864170Y-94606868D01*
X145853134Y-94625281D01*
X145840346Y-94642524D01*
X145825930Y-94658430D01*
X145810024Y-94672846D01*
X145792781Y-94685634D01*
X145774368Y-94696670D01*
X145754962Y-94705849D01*
X145734750Y-94713081D01*
X145713926Y-94718297D01*
X145692691Y-94721447D01*
X145671250Y-94722500D01*
X145158750Y-94722500D01*
X145137309Y-94721447D01*
X145116074Y-94718297D01*
X145095250Y-94713081D01*
X145075038Y-94705849D01*
X145055632Y-94696670D01*
X145037219Y-94685634D01*
X145019976Y-94672846D01*
X145004070Y-94658430D01*
X144989654Y-94642524D01*
X144976866Y-94625281D01*
X144965830Y-94606868D01*
X144956651Y-94587462D01*
X144949419Y-94567250D01*
X144944203Y-94546426D01*
X144941053Y-94525191D01*
X144940000Y-94503750D01*
X144940000Y-94066250D01*
X144941053Y-94044809D01*
X144944203Y-94023574D01*
X144949419Y-94002750D01*
X144956651Y-93982538D01*
X144965830Y-93963132D01*
X144976866Y-93944719D01*
X144989654Y-93927476D01*
X145004070Y-93911570D01*
X145019976Y-93897154D01*
X145037219Y-93884366D01*
X145055632Y-93873330D01*
X145075038Y-93864151D01*
X145095250Y-93856919D01*
X145116074Y-93851703D01*
X145137309Y-93848553D01*
X145158750Y-93847500D01*
X145671250Y-93847500D01*
X145692691Y-93848553D01*
X145692691Y-93848553D01*
G37*
D28*
X145415000Y-94285000D03*
D27*
G36*
X145692691Y-92273553D02*
G01*
X145713926Y-92276703D01*
X145734750Y-92281919D01*
X145754962Y-92289151D01*
X145774368Y-92298330D01*
X145792781Y-92309366D01*
X145810024Y-92322154D01*
X145825930Y-92336570D01*
X145840346Y-92352476D01*
X145853134Y-92369719D01*
X145864170Y-92388132D01*
X145873349Y-92407538D01*
X145880581Y-92427750D01*
X145885797Y-92448574D01*
X145888947Y-92469809D01*
X145890000Y-92491250D01*
X145890000Y-92928750D01*
X145888947Y-92950191D01*
X145885797Y-92971426D01*
X145880581Y-92992250D01*
X145873349Y-93012462D01*
X145864170Y-93031868D01*
X145853134Y-93050281D01*
X145840346Y-93067524D01*
X145825930Y-93083430D01*
X145810024Y-93097846D01*
X145792781Y-93110634D01*
X145774368Y-93121670D01*
X145754962Y-93130849D01*
X145734750Y-93138081D01*
X145713926Y-93143297D01*
X145692691Y-93146447D01*
X145671250Y-93147500D01*
X145158750Y-93147500D01*
X145137309Y-93146447D01*
X145116074Y-93143297D01*
X145095250Y-93138081D01*
X145075038Y-93130849D01*
X145055632Y-93121670D01*
X145037219Y-93110634D01*
X145019976Y-93097846D01*
X145004070Y-93083430D01*
X144989654Y-93067524D01*
X144976866Y-93050281D01*
X144965830Y-93031868D01*
X144956651Y-93012462D01*
X144949419Y-92992250D01*
X144944203Y-92971426D01*
X144941053Y-92950191D01*
X144940000Y-92928750D01*
X144940000Y-92491250D01*
X144941053Y-92469809D01*
X144944203Y-92448574D01*
X144949419Y-92427750D01*
X144956651Y-92407538D01*
X144965830Y-92388132D01*
X144976866Y-92369719D01*
X144989654Y-92352476D01*
X145004070Y-92336570D01*
X145019976Y-92322154D01*
X145037219Y-92309366D01*
X145055632Y-92298330D01*
X145075038Y-92289151D01*
X145095250Y-92281919D01*
X145116074Y-92276703D01*
X145137309Y-92273553D01*
X145158750Y-92272500D01*
X145671250Y-92272500D01*
X145692691Y-92273553D01*
X145692691Y-92273553D01*
G37*
D28*
X145415000Y-92710000D03*
D26*
X157186000Y-96012000D03*
X154686000Y-96012000D03*
D27*
G36*
X157503691Y-93823053D02*
G01*
X157524926Y-93826203D01*
X157545750Y-93831419D01*
X157565962Y-93838651D01*
X157585368Y-93847830D01*
X157603781Y-93858866D01*
X157621024Y-93871654D01*
X157636930Y-93886070D01*
X157651346Y-93901976D01*
X157664134Y-93919219D01*
X157675170Y-93937632D01*
X157684349Y-93957038D01*
X157691581Y-93977250D01*
X157696797Y-93998074D01*
X157699947Y-94019309D01*
X157701000Y-94040750D01*
X157701000Y-94478250D01*
X157699947Y-94499691D01*
X157696797Y-94520926D01*
X157691581Y-94541750D01*
X157684349Y-94561962D01*
X157675170Y-94581368D01*
X157664134Y-94599781D01*
X157651346Y-94617024D01*
X157636930Y-94632930D01*
X157621024Y-94647346D01*
X157603781Y-94660134D01*
X157585368Y-94671170D01*
X157565962Y-94680349D01*
X157545750Y-94687581D01*
X157524926Y-94692797D01*
X157503691Y-94695947D01*
X157482250Y-94697000D01*
X156969750Y-94697000D01*
X156948309Y-94695947D01*
X156927074Y-94692797D01*
X156906250Y-94687581D01*
X156886038Y-94680349D01*
X156866632Y-94671170D01*
X156848219Y-94660134D01*
X156830976Y-94647346D01*
X156815070Y-94632930D01*
X156800654Y-94617024D01*
X156787866Y-94599781D01*
X156776830Y-94581368D01*
X156767651Y-94561962D01*
X156760419Y-94541750D01*
X156755203Y-94520926D01*
X156752053Y-94499691D01*
X156751000Y-94478250D01*
X156751000Y-94040750D01*
X156752053Y-94019309D01*
X156755203Y-93998074D01*
X156760419Y-93977250D01*
X156767651Y-93957038D01*
X156776830Y-93937632D01*
X156787866Y-93919219D01*
X156800654Y-93901976D01*
X156815070Y-93886070D01*
X156830976Y-93871654D01*
X156848219Y-93858866D01*
X156866632Y-93847830D01*
X156886038Y-93838651D01*
X156906250Y-93831419D01*
X156927074Y-93826203D01*
X156948309Y-93823053D01*
X156969750Y-93822000D01*
X157482250Y-93822000D01*
X157503691Y-93823053D01*
X157503691Y-93823053D01*
G37*
D28*
X157226000Y-94259500D03*
D27*
G36*
X157503691Y-92248053D02*
G01*
X157524926Y-92251203D01*
X157545750Y-92256419D01*
X157565962Y-92263651D01*
X157585368Y-92272830D01*
X157603781Y-92283866D01*
X157621024Y-92296654D01*
X157636930Y-92311070D01*
X157651346Y-92326976D01*
X157664134Y-92344219D01*
X157675170Y-92362632D01*
X157684349Y-92382038D01*
X157691581Y-92402250D01*
X157696797Y-92423074D01*
X157699947Y-92444309D01*
X157701000Y-92465750D01*
X157701000Y-92903250D01*
X157699947Y-92924691D01*
X157696797Y-92945926D01*
X157691581Y-92966750D01*
X157684349Y-92986962D01*
X157675170Y-93006368D01*
X157664134Y-93024781D01*
X157651346Y-93042024D01*
X157636930Y-93057930D01*
X157621024Y-93072346D01*
X157603781Y-93085134D01*
X157585368Y-93096170D01*
X157565962Y-93105349D01*
X157545750Y-93112581D01*
X157524926Y-93117797D01*
X157503691Y-93120947D01*
X157482250Y-93122000D01*
X156969750Y-93122000D01*
X156948309Y-93120947D01*
X156927074Y-93117797D01*
X156906250Y-93112581D01*
X156886038Y-93105349D01*
X156866632Y-93096170D01*
X156848219Y-93085134D01*
X156830976Y-93072346D01*
X156815070Y-93057930D01*
X156800654Y-93042024D01*
X156787866Y-93024781D01*
X156776830Y-93006368D01*
X156767651Y-92986962D01*
X156760419Y-92966750D01*
X156755203Y-92945926D01*
X156752053Y-92924691D01*
X156751000Y-92903250D01*
X156751000Y-92465750D01*
X156752053Y-92444309D01*
X156755203Y-92423074D01*
X156760419Y-92402250D01*
X156767651Y-92382038D01*
X156776830Y-92362632D01*
X156787866Y-92344219D01*
X156800654Y-92326976D01*
X156815070Y-92311070D01*
X156830976Y-92296654D01*
X156848219Y-92283866D01*
X156866632Y-92272830D01*
X156886038Y-92263651D01*
X156906250Y-92256419D01*
X156927074Y-92251203D01*
X156948309Y-92248053D01*
X156969750Y-92247000D01*
X157482250Y-92247000D01*
X157503691Y-92248053D01*
X157503691Y-92248053D01*
G37*
D28*
X157226000Y-92684500D03*
M02*
