G04 #@! TF.GenerationSoftware,KiCad,Pcbnew,6.0.0-rc1-unknown-6a5744a~66~ubuntu18.04.1*
G04 #@! TF.CreationDate,2018-10-14T14:19:45-07:00*
G04 #@! TF.ProjectId,EExtruder,4545787472756465722E6B696361645F,rev?*
G04 #@! TF.SameCoordinates,Original*
G04 #@! TF.FileFunction,Copper,L2,Bot,Signal*
G04 #@! TF.FilePolarity,Positive*
%FSLAX46Y46*%
G04 Gerber Fmt 4.6, Leading zero omitted, Abs format (unit mm)*
G04 Created by KiCad (PCBNEW 6.0.0-rc1-unknown-6a5744a~66~ubuntu18.04.1) date Sun 14 Oct 2018 02:19:45 PM PDT*
%MOMM*%
%LPD*%
G01*
G04 APERTURE LIST*
G04 #@! TA.AperFunction,ComponentPad*
%ADD10R,2.400000X2.400000*%
G04 #@! TD*
G04 #@! TA.AperFunction,ComponentPad*
%ADD11C,2.400000*%
G04 #@! TD*
G04 #@! TA.AperFunction,ComponentPad*
%ADD12O,1.700000X1.700000*%
G04 #@! TD*
G04 #@! TA.AperFunction,ComponentPad*
%ADD13R,1.700000X1.700000*%
G04 #@! TD*
G04 #@! TA.AperFunction,ComponentPad*
%ADD14O,1.727200X1.727200*%
G04 #@! TD*
G04 #@! TA.AperFunction,ComponentPad*
%ADD15R,1.727200X1.727200*%
G04 #@! TD*
G04 #@! TA.AperFunction,ViaPad*
%ADD16C,0.600000*%
G04 #@! TD*
G04 #@! TA.AperFunction,ViaPad*
%ADD17C,0.800000*%
G04 #@! TD*
G04 #@! TA.AperFunction,Conductor*
%ADD18C,0.508000*%
G04 #@! TD*
G04 #@! TA.AperFunction,Conductor*
%ADD19C,0.152400*%
G04 #@! TD*
G04 #@! TA.AperFunction,Conductor*
%ADD20C,0.762000*%
G04 #@! TD*
G04 #@! TA.AperFunction,Conductor*
%ADD21C,0.254000*%
G04 #@! TD*
G04 APERTURE END LIST*
D10*
G04 #@! TO.P,J4,1*
G04 #@! TO.N,Net-(D3-Pad1)*
X148653500Y-88328500D03*
D11*
G04 #@! TO.P,J4,2*
G04 #@! TO.N,/VIN*
X145153500Y-88328500D03*
G04 #@! TD*
D10*
G04 #@! TO.P,J3,1*
G04 #@! TO.N,Net-(D1-Pad1)*
X160281500Y-88328500D03*
D11*
G04 #@! TO.P,J3,2*
G04 #@! TO.N,/VIN*
X156781500Y-88328500D03*
G04 #@! TD*
D10*
G04 #@! TO.P,J1,1*
G04 #@! TO.N,/VIN*
X170505000Y-88328500D03*
D11*
G04 #@! TO.P,J1,2*
G04 #@! TO.N,GND*
X167005000Y-88328500D03*
G04 #@! TD*
D12*
G04 #@! TO.P,TC1,5*
G04 #@! TO.N,/SPI_CLK*
X165735000Y-104140000D03*
G04 #@! TO.P,TC1,4*
G04 #@! TO.N,/~TC1_CS*
X165735000Y-101600000D03*
G04 #@! TO.P,TC1,3*
G04 #@! TO.N,/MISO*
X165735000Y-99060000D03*
G04 #@! TO.P,TC1,2*
G04 #@! TO.N,GND*
X165735000Y-96520000D03*
D13*
G04 #@! TO.P,TC1,1*
G04 #@! TO.N,/3.3V*
X165735000Y-93980000D03*
G04 #@! TD*
D12*
G04 #@! TO.P,TC0,5*
G04 #@! TO.N,/SPI_CLK*
X169354000Y-104140000D03*
G04 #@! TO.P,TC0,4*
G04 #@! TO.N,/~TC0_CS*
X169354000Y-101600000D03*
G04 #@! TO.P,TC0,3*
G04 #@! TO.N,/MISO*
X169354000Y-99060000D03*
G04 #@! TO.P,TC0,2*
G04 #@! TO.N,GND*
X169354000Y-96520000D03*
D13*
G04 #@! TO.P,TC0,1*
G04 #@! TO.N,/3.3V*
X169354000Y-93980000D03*
G04 #@! TD*
D12*
G04 #@! TO.P,SWD1,5*
G04 #@! TO.N,/~RESET*
X172910000Y-104140000D03*
G04 #@! TO.P,SWD1,4*
G04 #@! TO.N,/SWDIO*
X172910000Y-101600000D03*
G04 #@! TO.P,SWD1,3*
G04 #@! TO.N,/SWCLK*
X172910000Y-99060000D03*
G04 #@! TO.P,SWD1,2*
G04 #@! TO.N,/3.3V*
X172910000Y-96520000D03*
D13*
G04 #@! TO.P,SWD1,1*
G04 #@! TO.N,GND*
X172910000Y-93980000D03*
G04 #@! TD*
D14*
G04 #@! TO.P,LCD1,12*
G04 #@! TO.N,/3.3V*
X186500000Y-113982000D03*
G04 #@! TO.P,LCD1,11*
G04 #@! TO.N,GND*
X186500000Y-116522000D03*
G04 #@! TO.P,LCD1,10*
G04 #@! TO.N,/VIN*
X183960000Y-113982000D03*
G04 #@! TO.P,LCD1,9*
G04 #@! TO.N,/TEMP_EX*
X183960000Y-116522000D03*
G04 #@! TO.P,LCD1,8*
G04 #@! TO.N,/EXT2*
X181420000Y-113982000D03*
G04 #@! TO.P,LCD1,7*
G04 #@! TO.N,/SPI_CLK*
X181420000Y-116522000D03*
G04 #@! TO.P,LCD1,6*
G04 #@! TO.N,/EXT1*
X178880000Y-113982000D03*
G04 #@! TO.P,LCD1,5*
G04 #@! TO.N,/MISO*
X178880000Y-116522000D03*
G04 #@! TO.P,LCD1,4*
G04 #@! TO.N,/LCD_LED*
X176340000Y-113982000D03*
G04 #@! TO.P,LCD1,3*
G04 #@! TO.N,/MOSI*
X176340000Y-116522000D03*
G04 #@! TO.P,LCD1,2*
G04 #@! TO.N,/SCL2*
X173800000Y-113982000D03*
D15*
G04 #@! TO.P,LCD1,1*
G04 #@! TO.N,/SDA2*
X173800000Y-116522000D03*
G04 #@! TD*
D12*
G04 #@! TO.P,PWM_PWR1,3*
G04 #@! TO.N,GND*
X161544000Y-128143000D03*
G04 #@! TO.P,PWM_PWR1,2*
G04 #@! TO.N,/VIN*
X161544000Y-125603000D03*
D13*
G04 #@! TO.P,PWM_PWR1,1*
X161544000Y-123063000D03*
G04 #@! TD*
D12*
G04 #@! TO.P,PWM5,3*
G04 #@! TO.N,GND*
X179642000Y-128143000D03*
G04 #@! TO.P,PWM5,2*
G04 #@! TO.N,/TACH5*
X179642000Y-125603000D03*
D13*
G04 #@! TO.P,PWM5,1*
G04 #@! TO.N,/PWM5*
X179642000Y-123063000D03*
G04 #@! TD*
D12*
G04 #@! TO.P,PWM4,3*
G04 #@! TO.N,GND*
X176022000Y-128143000D03*
G04 #@! TO.P,PWM4,2*
G04 #@! TO.N,/TACH4*
X176022000Y-125603000D03*
D13*
G04 #@! TO.P,PWM4,1*
G04 #@! TO.N,/PWM4*
X176022000Y-123063000D03*
G04 #@! TD*
D12*
G04 #@! TO.P,PWM3,3*
G04 #@! TO.N,GND*
X172402000Y-128143000D03*
G04 #@! TO.P,PWM3,2*
G04 #@! TO.N,/TACH3*
X172402000Y-125603000D03*
D13*
G04 #@! TO.P,PWM3,1*
G04 #@! TO.N,/PWM3*
X172402000Y-123063000D03*
G04 #@! TD*
D12*
G04 #@! TO.P,PWM2,3*
G04 #@! TO.N,GND*
X168783000Y-128143000D03*
G04 #@! TO.P,PWM2,2*
G04 #@! TO.N,/TACH2*
X168783000Y-125603000D03*
D13*
G04 #@! TO.P,PWM2,1*
G04 #@! TO.N,/PWM2*
X168783000Y-123063000D03*
G04 #@! TD*
D12*
G04 #@! TO.P,PWM1,3*
G04 #@! TO.N,GND*
X165164000Y-128143000D03*
G04 #@! TO.P,PWM1,2*
G04 #@! TO.N,/TACH1*
X165164000Y-125603000D03*
D13*
G04 #@! TO.P,PWM1,1*
G04 #@! TO.N,/PWM1*
X165164000Y-123063000D03*
G04 #@! TD*
D12*
G04 #@! TO.P,JP1,2*
G04 #@! TO.N,Net-(JP1-Pad2)*
X162306000Y-104394000D03*
D13*
G04 #@! TO.P,JP1,1*
G04 #@! TO.N,/3.3V*
X162306000Y-101854000D03*
G04 #@! TD*
D12*
G04 #@! TO.P,J11,3*
G04 #@! TO.N,/UART_TX*
X183388000Y-123063000D03*
G04 #@! TO.P,J11,2*
G04 #@! TO.N,/UART_RX*
X183388000Y-125603000D03*
D13*
G04 #@! TO.P,J11,1*
G04 #@! TO.N,GND*
X183388000Y-128143000D03*
G04 #@! TD*
D12*
G04 #@! TO.P,J9,3*
G04 #@! TO.N,Net-(J9-Pad3)*
X130568000Y-109261000D03*
G04 #@! TO.P,J9,2*
G04 #@! TO.N,/VIN*
X130568000Y-106721000D03*
D13*
G04 #@! TO.P,J9,1*
G04 #@! TO.N,Net-(D11-Pad2)*
X130568000Y-104181000D03*
G04 #@! TD*
D12*
G04 #@! TO.P,J8,3*
G04 #@! TO.N,Net-(J8-Pad3)*
X130607000Y-127656000D03*
G04 #@! TO.P,J8,2*
G04 #@! TO.N,/VIN*
X130607000Y-125116000D03*
D13*
G04 #@! TO.P,J8,1*
G04 #@! TO.N,Net-(D9-Pad2)*
X130607000Y-122576000D03*
G04 #@! TD*
D12*
G04 #@! TO.P,J7,3*
G04 #@! TO.N,Net-(J7-Pad3)*
X130580000Y-118468000D03*
G04 #@! TO.P,J7,2*
G04 #@! TO.N,/VIN*
X130580000Y-115928000D03*
D13*
G04 #@! TO.P,J7,1*
G04 #@! TO.N,Net-(D7-Pad2)*
X130580000Y-113388000D03*
G04 #@! TD*
D12*
G04 #@! TO.P,J6,2*
G04 #@! TO.N,Net-(C14-Pad1)*
X156759000Y-128143000D03*
D13*
G04 #@! TO.P,J6,1*
G04 #@! TO.N,GND*
X154219000Y-128143000D03*
G04 #@! TD*
D12*
G04 #@! TO.P,J5,2*
G04 #@! TO.N,Net-(C13-Pad1)*
X148182000Y-128156000D03*
D13*
G04 #@! TO.P,J5,1*
G04 #@! TO.N,GND*
X145642000Y-128156000D03*
G04 #@! TD*
D16*
G04 #@! TO.N,GND*
X174396400Y-111150400D03*
X176072800Y-111455200D03*
X178257200Y-112623600D03*
X165608000Y-118364000D03*
X150876000Y-114554000D03*
X173990000Y-118872000D03*
X171704000Y-116332000D03*
X169672000Y-113538000D03*
D17*
X137414000Y-93980000D03*
X139954000Y-97282000D03*
X134112000Y-90932000D03*
X139192000Y-108712000D03*
X142240000Y-114554000D03*
X140208000Y-117602000D03*
D16*
X179070000Y-118872000D03*
X149352000Y-116078000D03*
X147320000Y-121920000D03*
X159766000Y-127000000D03*
X154686000Y-121666000D03*
X170688000Y-123952000D03*
X157734000Y-121666000D03*
X152146000Y-121158000D03*
X150876000Y-117602000D03*
X173355000Y-121285000D03*
X189230000Y-117983000D03*
X189484000Y-112458500D03*
X156768800Y-119278400D03*
X163322000Y-116484400D03*
X167843200Y-102768400D03*
X167843200Y-106273600D03*
X165658800Y-107594400D03*
X163830000Y-106781600D03*
X160223200Y-110540800D03*
X160740546Y-115105161D03*
X158953200Y-111658400D03*
X142849600Y-104851200D03*
X147675600Y-98552000D03*
X148945600Y-98552000D03*
X148971000Y-99250500D03*
X147675600Y-99250500D03*
X147523200Y-102717600D03*
X155498800Y-98450400D03*
X152563690Y-117859529D03*
X182524400Y-111861600D03*
X180746400Y-111455200D03*
X179019200Y-111150400D03*
X151231600Y-103682800D03*
X150520400Y-105410000D03*
X149098000Y-105511600D03*
X150825200Y-108051600D03*
X153822400Y-107594400D03*
X154025600Y-105359200D03*
X155584000Y-106091388D03*
X159207200Y-102260400D03*
X159308800Y-106172000D03*
X164388800Y-109118400D03*
X150672800Y-101193600D03*
X152806400Y-98856800D03*
X161594800Y-113690400D03*
X160070800Y-112369600D03*
X159105600Y-122174000D03*
X154178000Y-123139200D03*
D17*
X138557000Y-128714500D03*
X141986000Y-126365000D03*
D16*
X147599090Y-124408280D03*
D17*
X169545000Y-116903500D03*
D16*
X171005500Y-118872000D03*
X176276000Y-121221500D03*
X177800000Y-122364500D03*
X181038500Y-121920000D03*
X182689500Y-120904000D03*
X183451500Y-119062500D03*
X186055000Y-121158000D03*
X188277500Y-121158000D03*
X190500000Y-121158000D03*
X177863500Y-124904500D03*
X158750000Y-128841500D03*
X152527000Y-124777500D03*
X146240500Y-119761000D03*
X142684500Y-116205000D03*
X136461500Y-126873000D03*
X128968500Y-126492000D03*
X133794500Y-121348500D03*
X133731000Y-112141000D03*
X135890000Y-101790500D03*
X132905500Y-100266500D03*
X133096000Y-97345500D03*
X166052500Y-111315500D03*
X169735500Y-106870500D03*
X172148500Y-106426000D03*
X176403000Y-108966000D03*
X178816000Y-109093000D03*
X180657500Y-107632500D03*
X182435500Y-109347000D03*
X182499000Y-105092500D03*
X175831500Y-102298500D03*
X176339500Y-96520000D03*
X178498500Y-99123500D03*
X180848000Y-91313000D03*
X183388000Y-93408500D03*
X185991500Y-95440500D03*
X188341000Y-97345500D03*
X188341000Y-100012500D03*
X171577000Y-84582000D03*
X173799500Y-84582000D03*
X185229500Y-112331500D03*
X185229500Y-106172000D03*
X189293500Y-109093000D03*
X190436500Y-109093000D03*
X191516000Y-109093000D03*
X189928500Y-102806500D03*
X187452000Y-102806500D03*
X187515500Y-89281000D03*
X189928500Y-89281000D03*
X185420000Y-86169500D03*
X185356500Y-89217500D03*
X163004500Y-121793000D03*
X166624000Y-121729500D03*
X162306000Y-108077000D03*
X160655000Y-106045000D03*
X163703000Y-100647500D03*
X171196000Y-100965000D03*
X167513000Y-97663000D03*
X167513000Y-91948000D03*
X171069000Y-92011500D03*
X159512000Y-99885500D03*
X160909000Y-99885500D03*
X159575500Y-99187000D03*
X161544000Y-99377500D03*
X172092190Y-112776000D03*
X155568804Y-102556544D03*
D17*
X130302000Y-88201500D03*
X130238500Y-85153500D03*
G04 #@! TO.N,/~RESET*
X152204495Y-113244752D03*
G04 #@! TO.N,/AVREF*
X149643300Y-120696600D03*
X152102978Y-115226492D03*
G04 #@! TO.N,Net-(D1-Pad1)*
X162433000Y-96202500D03*
X162433000Y-93662500D03*
X159258000Y-96202500D03*
X160338000Y-93662500D03*
X161417000Y-93662500D03*
X159258000Y-94932500D03*
X160338000Y-96202500D03*
X162433000Y-94932500D03*
X160338000Y-94932500D03*
X161417000Y-94932500D03*
X161417000Y-96202500D03*
X159258000Y-93662500D03*
G04 #@! TO.N,Net-(D3-Pad1)*
X148463000Y-93789500D03*
X147384000Y-93789500D03*
X147384000Y-95059500D03*
X147384000Y-96329500D03*
X148463000Y-96329500D03*
X150558000Y-96329500D03*
X149542000Y-96329500D03*
X150558000Y-95059500D03*
X149542000Y-95059500D03*
X148463000Y-95059500D03*
X150558000Y-93789500D03*
X149542000Y-93789500D03*
G04 #@! TO.N,/TEMP0*
X152046300Y-116207200D03*
X148736400Y-122993600D03*
G04 #@! TO.N,/TEMP1*
X153112100Y-116266500D03*
X153092300Y-123142400D03*
G04 #@! TO.N,/TACH_E0*
X136458200Y-117519800D03*
X154390517Y-104069364D03*
G04 #@! TO.N,/TEMP_EX*
X153854000Y-117282000D03*
G04 #@! TO.N,/EXT2*
X160123000Y-107212100D03*
G04 #@! TO.N,/SPI_CLK*
X174175900Y-102932000D03*
X158201800Y-113782700D03*
G04 #@! TO.N,/MISO*
X159538058Y-114311525D03*
G04 #@! TO.N,/LCD_LED*
X173390700Y-111684100D03*
X167571800Y-109324500D03*
G04 #@! TO.N,/MOSI*
X166665400Y-114348400D03*
X159415026Y-115255957D03*
G04 #@! TO.N,/SDA2*
X168666100Y-109602400D03*
G04 #@! TO.N,/PWM1*
X160141604Y-115871726D03*
G04 #@! TO.N,/TACH2*
X166113300Y-113350800D03*
G04 #@! TO.N,/TACH3*
X148991100Y-107657700D03*
X159711100Y-123797800D03*
G04 #@! TO.N,/TACH4*
X155555500Y-111037500D03*
X160578400Y-124523300D03*
G04 #@! TO.N,/PWM4*
X161520700Y-112636000D03*
G04 #@! TO.N,/TACH5*
X154813500Y-117000100D03*
G04 #@! TO.N,/PWM5*
X155943592Y-105034577D03*
G04 #@! TO.N,/HEAT0*
X152613500Y-103748400D03*
X159902165Y-118592976D03*
G04 #@! TO.N,/HEAT1*
X159507700Y-120923900D03*
X149947800Y-103831800D03*
G04 #@! TO.N,/SDA*
X158546700Y-107212100D03*
X143239900Y-91721300D03*
G04 #@! TO.N,/SCL*
X158444900Y-109696300D03*
X140987500Y-94985400D03*
G04 #@! TO.N,/SWDIO*
X161598900Y-111073100D03*
G04 #@! TO.N,/SWCLK*
X162451000Y-106878000D03*
G04 #@! TO.N,/~TC0_CS*
X155897190Y-113421072D03*
X155975300Y-97301090D03*
G04 #@! TO.N,/~TC1_CS*
X157685171Y-112597607D03*
G04 #@! TD*
D18*
G04 #@! TO.N,/3.3V*
X169354000Y-93980000D02*
X169354000Y-95236700D01*
X172910000Y-96520000D02*
X171653300Y-96520000D01*
X171653300Y-96520000D02*
X170370000Y-95236700D01*
X170370000Y-95236700D02*
X169354000Y-95236700D01*
X164377000Y-93980000D02*
X165735000Y-93980000D01*
X163965300Y-94391700D02*
X164377000Y-93980000D01*
X163965300Y-96456500D02*
X163965300Y-94391700D01*
X162306000Y-98115800D02*
X163965300Y-96456500D01*
X162306000Y-101854000D02*
X162306000Y-98115800D01*
D19*
G04 #@! TO.N,/~RESET*
X177101000Y-124040400D02*
X176769800Y-124371600D01*
X152604494Y-113644751D02*
X152204495Y-113244752D01*
X169745400Y-126696000D02*
X161111000Y-126696000D01*
X172069800Y-124371600D02*
X169745400Y-126696000D01*
X155586700Y-116626957D02*
X152604494Y-113644751D01*
X177101000Y-120891600D02*
X177101000Y-124040400D01*
X174962000Y-118752600D02*
X177101000Y-120891600D01*
X161111000Y-126696000D02*
X155586700Y-121171700D01*
X174962000Y-106192000D02*
X174962000Y-118752600D01*
X155586700Y-121171700D02*
X155586700Y-116626957D01*
X176769800Y-124371600D02*
X172069800Y-124371600D01*
X172910000Y-104140000D02*
X174962000Y-106192000D01*
G04 #@! TO.N,/AVREF*
X149643300Y-117686170D02*
X151702979Y-115626491D01*
X151702979Y-115626491D02*
X152102978Y-115226492D01*
X149643300Y-120696600D02*
X149643300Y-117686170D01*
D20*
G04 #@! TO.N,/VIN*
X170370000Y-88392000D02*
X171803700Y-88392000D01*
X171803700Y-88392000D02*
X183960000Y-100548300D01*
X183960000Y-100548300D02*
X183960000Y-113982000D01*
X130568000Y-106721000D02*
X129140200Y-108148800D01*
X129140200Y-108148800D02*
X129140200Y-115871900D01*
X129140200Y-115871900D02*
X129196300Y-115928000D01*
X129196300Y-115928000D02*
X129196300Y-123705300D01*
X129196300Y-123705300D02*
X130607000Y-125116000D01*
X130580000Y-115928000D02*
X129196300Y-115928000D01*
X134850100Y-98779900D02*
X134850100Y-102438900D01*
X134850100Y-102438900D02*
X130568000Y-106721000D01*
X161544000Y-123063000D02*
X161544000Y-125603000D01*
X157125000Y-105645621D02*
X157125000Y-111776344D01*
X156751770Y-113045640D02*
X157052300Y-113346170D01*
X161544000Y-118442361D02*
X161544000Y-121451000D01*
X157052300Y-114233861D02*
X160153817Y-117335378D01*
X161544000Y-121451000D02*
X161544000Y-123063000D01*
X156751770Y-112149574D02*
X156751770Y-113045640D01*
X157052300Y-113346170D02*
X157052300Y-114233861D01*
X157125000Y-111776344D02*
X156751770Y-112149574D01*
X157125000Y-104423533D02*
X157181805Y-104480338D01*
X160153817Y-117335378D02*
X160437017Y-117335378D01*
X157181805Y-105588816D02*
X157125000Y-105645621D01*
X157181805Y-104480338D02*
X157181805Y-105588816D01*
X160437017Y-117335378D02*
X161544000Y-118442361D01*
X157125000Y-88672000D02*
X156781500Y-88328500D01*
X157125000Y-89916000D02*
X157125000Y-88672000D01*
X157125000Y-89916000D02*
X157125000Y-104423533D01*
X142380500Y-91101500D02*
X145153500Y-88328500D01*
X142380500Y-91249500D02*
X142380500Y-91101500D01*
X145254000Y-88376000D02*
X142380500Y-91249500D01*
X142380500Y-91249500D02*
X134850100Y-98779900D01*
D19*
G04 #@! TO.N,/TEMP0*
X152046300Y-119683700D02*
X148736400Y-122993600D01*
X152046300Y-118414800D02*
X152046300Y-119683700D01*
X151942800Y-118311300D02*
X152046300Y-118414800D01*
X151942800Y-117551200D02*
X151942800Y-118311300D01*
X152046300Y-117447700D02*
X151942800Y-117551200D01*
X152046300Y-116207200D02*
X152046300Y-117447700D01*
G04 #@! TO.N,/TEMP1*
X153092300Y-119176800D02*
X153092300Y-123142400D01*
X153263600Y-117652800D02*
X153263600Y-118599100D01*
X153092300Y-116286300D02*
X153092300Y-117481500D01*
X153092300Y-117481500D02*
X153263600Y-117652800D01*
X153092300Y-118770400D02*
X153092300Y-119176800D01*
X153112100Y-116266500D02*
X153092300Y-116286300D01*
X153263600Y-118599100D02*
X153092300Y-118770400D01*
G04 #@! TO.N,/TACH_E0*
X149602100Y-102748800D02*
X153069953Y-102748800D01*
X136458200Y-117519800D02*
X136458200Y-115892700D01*
X153990518Y-103669365D02*
X154390517Y-104069364D01*
X136458200Y-115892700D02*
X149602100Y-102748800D01*
X153069953Y-102748800D02*
X153990518Y-103669365D01*
G04 #@! TO.N,/TEMP_EX*
X161114900Y-129246000D02*
X153854000Y-121985100D01*
X179059400Y-126873000D02*
X176686400Y-129246000D01*
X179994100Y-126873000D02*
X179059400Y-126873000D01*
X176686400Y-129246000D02*
X161114900Y-129246000D01*
X180721000Y-125140700D02*
X180721000Y-126146100D01*
X153854000Y-121985100D02*
X153854000Y-117282000D01*
X183960000Y-116522000D02*
X183960000Y-116633518D01*
X183960000Y-116633518D02*
X178562400Y-122031118D01*
X178718300Y-124225000D02*
X179805300Y-124225000D01*
X178562400Y-122031118D02*
X178562400Y-124069100D01*
X180721000Y-126146100D02*
X179994100Y-126873000D01*
X178562400Y-124069100D02*
X178718300Y-124225000D01*
X179805300Y-124225000D02*
X180721000Y-125140700D01*
G04 #@! TO.N,/EXT2*
X160123000Y-107212100D02*
X160123000Y-99402100D01*
X160123000Y-99402100D02*
X163251300Y-96273800D01*
X163251300Y-96273800D02*
X163251300Y-94376500D01*
X163251300Y-94376500D02*
X164726800Y-92901000D01*
X164726800Y-92901000D02*
X166683500Y-92901000D01*
X166683500Y-92901000D02*
X167582200Y-93799700D01*
X167582200Y-93799700D02*
X167582200Y-96317800D01*
X167582200Y-96317800D02*
X168863400Y-97599000D01*
X168863400Y-97599000D02*
X173476200Y-97599000D01*
X173476200Y-97599000D02*
X181420000Y-105542800D01*
X181420000Y-105542800D02*
X181420000Y-113982000D01*
G04 #@! TO.N,/SPI_CLK*
X165735000Y-104140000D02*
X165735000Y-105879800D01*
X165735000Y-105879800D02*
X158201800Y-113413000D01*
X158201800Y-113413000D02*
X158201800Y-113782700D01*
X169354000Y-104140000D02*
X165735000Y-104140000D01*
X180150000Y-115252000D02*
X181420000Y-116522000D01*
X180150000Y-108906100D02*
X180150000Y-115252000D01*
X174175900Y-102932000D02*
X180150000Y-108906100D01*
G04 #@! TO.N,/MISO*
X170432900Y-99060000D02*
X171513200Y-97979700D01*
X171513200Y-97979700D02*
X173369300Y-97979700D01*
X173369300Y-97979700D02*
X174026300Y-98636700D01*
X174026300Y-98636700D02*
X174026300Y-102016500D01*
X174026300Y-102016500D02*
X173466700Y-102576100D01*
X173466700Y-102576100D02*
X173466700Y-103061000D01*
X169354000Y-99060000D02*
X170432900Y-99060000D01*
X161556972Y-111702000D02*
X159538058Y-113720914D01*
X173466700Y-103061000D02*
X172463000Y-103061000D01*
X163822000Y-111702000D02*
X161556972Y-111702000D01*
X159538058Y-113720914D02*
X159538058Y-113745840D01*
X159538058Y-113745840D02*
X159538058Y-114311525D01*
X172463000Y-103061000D02*
X163822000Y-111702000D01*
X177610000Y-115252000D02*
X178880000Y-116522000D01*
X177610000Y-107265300D02*
X177610000Y-115252000D01*
X173466700Y-103122000D02*
X177610000Y-107265300D01*
X173466700Y-103061000D02*
X173466700Y-103122000D01*
G04 #@! TO.N,/LCD_LED*
X167571800Y-109324500D02*
X167951900Y-108944400D01*
X167951900Y-108944400D02*
X170651000Y-108944400D01*
X170651000Y-108944400D02*
X173390700Y-111684100D01*
G04 #@! TO.N,/MOSI*
X160406589Y-114348400D02*
X159499032Y-115255957D01*
X166665400Y-114348400D02*
X160406589Y-114348400D01*
X159499032Y-115255957D02*
X159415026Y-115255957D01*
G04 #@! TO.N,/SDA2*
X168666100Y-109602400D02*
X168666100Y-110432200D01*
X172784000Y-116522000D02*
X173800000Y-116522000D01*
X171747789Y-115485789D02*
X172784000Y-116522000D01*
X171747789Y-113474500D02*
X171747789Y-115485789D01*
X168666100Y-110432200D02*
X171747789Y-113474500D01*
G04 #@! TO.N,/PWM1*
X165164000Y-123063000D02*
X165164000Y-120894122D01*
X165164000Y-120894122D02*
X160541603Y-116271725D01*
X160541603Y-116271725D02*
X160141604Y-115871726D01*
G04 #@! TO.N,/TACH2*
X167704100Y-114453000D02*
X167704100Y-124524100D01*
X166602000Y-113350900D02*
X167704100Y-114453000D01*
X166113300Y-113350900D02*
X166602000Y-113350900D01*
X167704100Y-124524100D02*
X168783000Y-125603000D01*
X166113300Y-113350800D02*
X166113300Y-113350900D01*
G04 #@! TO.N,/TACH3*
X159711100Y-123797800D02*
X158436500Y-122523200D01*
X158436500Y-122523200D02*
X158436500Y-118207500D01*
X158436500Y-118207500D02*
X148991100Y-108762100D01*
X148991100Y-108762100D02*
X148991100Y-107657700D01*
G04 #@! TO.N,/TACH4*
X160455667Y-118969804D02*
X160530766Y-118894705D01*
X155862469Y-114049674D02*
X155635449Y-114049674D01*
X160578400Y-124523300D02*
X160455667Y-124400567D01*
X155635449Y-114049674D02*
X155155501Y-113569726D01*
X160455667Y-124400567D02*
X160455667Y-118969804D01*
X155155501Y-113569726D02*
X155155501Y-111437499D01*
X155155501Y-111437499D02*
X155555500Y-111037500D01*
X160530766Y-118894705D02*
X160530766Y-118304989D01*
X159757784Y-117944989D02*
X155862469Y-114049674D01*
X160530766Y-118304989D02*
X160170766Y-117944989D01*
X160170766Y-117944989D02*
X159757784Y-117944989D01*
G04 #@! TO.N,/PWM4*
X176022000Y-123063000D02*
X176022000Y-121984100D01*
X176022000Y-121984100D02*
X166673900Y-112636000D01*
X166673900Y-112636000D02*
X161520700Y-112636000D01*
G04 #@! TO.N,/TACH5*
X179642000Y-125603000D02*
X178563100Y-125603000D01*
X178563100Y-125603000D02*
X177102100Y-127064000D01*
X177102100Y-127064000D02*
X160955500Y-127064000D01*
X160955500Y-127064000D02*
X154813500Y-120922000D01*
X154813500Y-120922000D02*
X154813500Y-117000100D01*
G04 #@! TO.N,/PWM5*
X181050400Y-128307000D02*
X179799200Y-129558200D01*
X154088788Y-104697965D02*
X155041295Y-104697965D01*
X153761916Y-104371093D02*
X154088788Y-104697965D01*
X152868500Y-103107400D02*
X153761916Y-104000816D01*
X180644400Y-123063000D02*
X181050400Y-123469000D01*
X155377907Y-105034577D02*
X155943592Y-105034577D01*
X154933000Y-123990700D02*
X148818500Y-123990700D01*
X155041295Y-104697965D02*
X155377907Y-105034577D01*
X148818500Y-123990700D02*
X148095100Y-123267300D01*
X148095100Y-123267300D02*
X148095100Y-104763200D01*
X153761916Y-104000816D02*
X153761916Y-104371093D01*
X148095100Y-104763200D02*
X149750900Y-103107400D01*
X149750900Y-103107400D02*
X152868500Y-103107400D01*
X179799200Y-129558200D02*
X160500500Y-129558200D01*
X160500500Y-129558200D02*
X154933000Y-123990700D01*
X181050400Y-123469000D02*
X181050400Y-128307000D01*
X179642000Y-123063000D02*
X180644400Y-123063000D01*
G04 #@! TO.N,/HEAT0*
X159502166Y-118192977D02*
X159902165Y-118592976D01*
X152613500Y-111498781D02*
X159307696Y-118192977D01*
X152613500Y-103748400D02*
X152613500Y-111498781D01*
X159307696Y-118192977D02*
X159502166Y-118192977D01*
G04 #@! TO.N,/HEAT1*
X159507700Y-120923900D02*
X158741700Y-120157900D01*
X158741700Y-120157900D02*
X158741700Y-118081100D01*
X158741700Y-118081100D02*
X149947800Y-109287200D01*
X149947800Y-109287200D02*
X149947800Y-103831800D01*
G04 #@! TO.N,/SDA*
X158546700Y-106646415D02*
X158546700Y-107212100D01*
X158587400Y-106605715D02*
X158546700Y-106646415D01*
X143239900Y-91721300D02*
X143239900Y-91252218D01*
X158587400Y-86461000D02*
X158587400Y-106605715D01*
X146582101Y-89014229D02*
X146582101Y-87157349D01*
X158147400Y-86021000D02*
X158587400Y-86461000D01*
X144735017Y-89757101D02*
X145839229Y-89757101D01*
X147718451Y-86021000D02*
X158147400Y-86021000D01*
X145839229Y-89757101D02*
X146582101Y-89014229D01*
X143239900Y-91252218D02*
X144735017Y-89757101D01*
X146582101Y-87157349D02*
X147718451Y-86021000D01*
G04 #@! TO.N,/SCL*
X157917700Y-109169100D02*
X158444900Y-109696300D01*
X157917700Y-105365600D02*
X157917700Y-109169100D01*
X158282200Y-105001100D02*
X157917700Y-105365600D01*
X158282200Y-86587500D02*
X158282200Y-105001100D01*
X158027500Y-86332800D02*
X158282200Y-86587500D01*
X143135900Y-92837000D02*
X143190396Y-92837000D01*
X147837718Y-86332800D02*
X158027500Y-86332800D01*
X143190396Y-92837000D02*
X146886910Y-89140486D01*
X140987500Y-94985400D02*
X143135900Y-92837000D01*
X146886910Y-89140486D02*
X146886911Y-87283607D01*
X146886911Y-87283607D02*
X147837718Y-86332800D01*
G04 #@! TO.N,/SWDIO*
X164019200Y-111073100D02*
X161598900Y-111073100D01*
X171206300Y-103303700D02*
X172910000Y-101600000D01*
X171206300Y-103886000D02*
X171206300Y-103303700D01*
X171206300Y-103886000D02*
X164019200Y-111073100D01*
G04 #@! TO.N,/SWCLK*
X172910000Y-99060000D02*
X171831100Y-99060000D01*
X171831100Y-99060000D02*
X170752200Y-100138900D01*
X170752200Y-100138900D02*
X169251500Y-100138900D01*
X169251500Y-100138900D02*
X166520400Y-102870000D01*
X166520400Y-102870000D02*
X165461700Y-102870000D01*
X165461700Y-102870000D02*
X162451000Y-105880700D01*
X162451000Y-105880700D02*
X162451000Y-106878000D01*
G04 #@! TO.N,/~TC0_CS*
X156485570Y-105422931D02*
X156572194Y-105336307D01*
X156572194Y-104732847D02*
X156485570Y-104646223D01*
X156485570Y-97811360D02*
X156375299Y-97701089D01*
X155897190Y-112127502D02*
X156485570Y-111539122D01*
X156485570Y-111539122D02*
X156485570Y-105422931D01*
X156485570Y-104646223D02*
X156485570Y-97811360D01*
X156375299Y-97701089D02*
X155975300Y-97301090D01*
X155897190Y-113421072D02*
X155897190Y-112127502D01*
X156572194Y-105336307D02*
X156572194Y-104732847D01*
G04 #@! TO.N,/~TC1_CS*
X161227100Y-108489993D02*
X157685171Y-112031922D01*
X161930800Y-103232000D02*
X161227100Y-103935700D01*
X165735000Y-101600000D02*
X164103000Y-103232000D01*
X164103000Y-103232000D02*
X161930800Y-103232000D01*
X161227100Y-103935700D02*
X161227100Y-108489993D01*
X157685171Y-112031922D02*
X157685171Y-112597607D01*
G04 #@! TD*
G04 #@! TO.N,Net-(D3-Pad1)*
G36*
X152831800Y-97586800D02*
X141808200Y-97586800D01*
X141808200Y-94595752D01*
X143272516Y-93131436D01*
X143309323Y-93124115D01*
X143410144Y-93056748D01*
X143427148Y-93031300D01*
X147081212Y-89377236D01*
X147106657Y-89360234D01*
X147123659Y-89334789D01*
X147123661Y-89334787D01*
X147174024Y-89259414D01*
X147197680Y-89140487D01*
X147191709Y-89110469D01*
X147191711Y-87409859D01*
X147963970Y-86637600D01*
X152831800Y-86637600D01*
X152831800Y-97586800D01*
X152831800Y-97586800D01*
G37*
X152831800Y-97586800D02*
X141808200Y-97586800D01*
X141808200Y-94595752D01*
X143272516Y-93131436D01*
X143309323Y-93124115D01*
X143410144Y-93056748D01*
X143427148Y-93031300D01*
X147081212Y-89377236D01*
X147106657Y-89360234D01*
X147123659Y-89334789D01*
X147123661Y-89334787D01*
X147174024Y-89259414D01*
X147197680Y-89140487D01*
X147191709Y-89110469D01*
X147191711Y-87409859D01*
X147963970Y-86637600D01*
X152831800Y-86637600D01*
X152831800Y-97586800D01*
G04 #@! TO.N,Net-(D1-Pad1)*
G36*
X164325300Y-92871448D02*
X163056998Y-94139750D01*
X163031553Y-94156752D01*
X163014551Y-94182197D01*
X163014548Y-94182200D01*
X162964185Y-94257574D01*
X162940530Y-94376500D01*
X162946501Y-94406519D01*
X162946500Y-96147548D01*
X161507248Y-97586800D01*
X158892200Y-97586800D01*
X158892200Y-86491014D01*
X158898170Y-86461000D01*
X158892200Y-86430983D01*
X158892200Y-86430982D01*
X158874515Y-86342073D01*
X158846660Y-86300385D01*
X158824152Y-86266699D01*
X158824150Y-86266697D01*
X158807148Y-86241252D01*
X158781703Y-86224250D01*
X158384152Y-85826700D01*
X158367148Y-85801252D01*
X158266327Y-85733885D01*
X158177418Y-85716200D01*
X158177414Y-85716200D01*
X158147400Y-85710230D01*
X158117386Y-85716200D01*
X153301700Y-85716200D01*
X153301700Y-83375100D01*
X164325300Y-83375100D01*
X164325300Y-92871448D01*
X164325300Y-92871448D01*
G37*
X164325300Y-92871448D02*
X163056998Y-94139750D01*
X163031553Y-94156752D01*
X163014551Y-94182197D01*
X163014548Y-94182200D01*
X162964185Y-94257574D01*
X162940530Y-94376500D01*
X162946501Y-94406519D01*
X162946500Y-96147548D01*
X161507248Y-97586800D01*
X158892200Y-97586800D01*
X158892200Y-86491014D01*
X158898170Y-86461000D01*
X158892200Y-86430983D01*
X158892200Y-86430982D01*
X158874515Y-86342073D01*
X158846660Y-86300385D01*
X158824152Y-86266699D01*
X158824150Y-86266697D01*
X158807148Y-86241252D01*
X158781703Y-86224250D01*
X158384152Y-85826700D01*
X158367148Y-85801252D01*
X158266327Y-85733885D01*
X158177418Y-85716200D01*
X158177414Y-85716200D01*
X158147400Y-85710230D01*
X158117386Y-85716200D01*
X153301700Y-85716200D01*
X153301700Y-83375100D01*
X164325300Y-83375100D01*
X164325300Y-92871448D01*
D21*
G04 #@! TO.N,GND*
G36*
X192037101Y-129870600D02*
X179971722Y-129870600D01*
X180055573Y-129814573D01*
X180075411Y-129784883D01*
X180521008Y-129339287D01*
X180523358Y-129338183D01*
X180536171Y-129324123D01*
X181277086Y-128583209D01*
X181306773Y-128563373D01*
X181385367Y-128445748D01*
X181388748Y-128428750D01*
X181903000Y-128428750D01*
X181903000Y-129119310D01*
X181999673Y-129352699D01*
X182178302Y-129531327D01*
X182411691Y-129628000D01*
X183102250Y-129628000D01*
X183261000Y-129469250D01*
X183261000Y-128270000D01*
X183515000Y-128270000D01*
X183515000Y-129469250D01*
X183673750Y-129628000D01*
X184364309Y-129628000D01*
X184597698Y-129531327D01*
X184776327Y-129352699D01*
X184873000Y-129119310D01*
X184873000Y-128428750D01*
X184714250Y-128270000D01*
X183515000Y-128270000D01*
X183261000Y-128270000D01*
X182061750Y-128270000D01*
X181903000Y-128428750D01*
X181388748Y-128428750D01*
X181406000Y-128342020D01*
X181412966Y-128307001D01*
X181406000Y-128271981D01*
X181406000Y-127166690D01*
X181903000Y-127166690D01*
X181903000Y-127857250D01*
X182061750Y-128016000D01*
X183261000Y-128016000D01*
X183261000Y-127996000D01*
X183515000Y-127996000D01*
X183515000Y-128016000D01*
X184714250Y-128016000D01*
X184873000Y-127857250D01*
X184873000Y-127166690D01*
X184776327Y-126933301D01*
X184597698Y-126754673D01*
X184364309Y-126658000D01*
X183841946Y-126658000D01*
X184202252Y-126417252D01*
X184274808Y-126308664D01*
X186906100Y-126308664D01*
X186906100Y-127056336D01*
X187192221Y-127747095D01*
X187720905Y-128275779D01*
X188411664Y-128561900D01*
X189159336Y-128561900D01*
X189850095Y-128275779D01*
X190378779Y-127747095D01*
X190664900Y-127056336D01*
X190664900Y-126308664D01*
X190378779Y-125617905D01*
X189850095Y-125089221D01*
X189159336Y-124803100D01*
X188411664Y-124803100D01*
X187720905Y-125089221D01*
X187192221Y-125617905D01*
X186906100Y-126308664D01*
X184274808Y-126308664D01*
X184451871Y-126043670D01*
X184539526Y-125603000D01*
X184451871Y-125162330D01*
X184202252Y-124788748D01*
X183828670Y-124539129D01*
X183499235Y-124473600D01*
X183276765Y-124473600D01*
X182947330Y-124539129D01*
X182573748Y-124788748D01*
X182324129Y-125162330D01*
X182236474Y-125603000D01*
X182324129Y-126043670D01*
X182573748Y-126417252D01*
X182934054Y-126658000D01*
X182411691Y-126658000D01*
X182178302Y-126754673D01*
X181999673Y-126933301D01*
X181903000Y-127166690D01*
X181406000Y-127166690D01*
X181406000Y-123504020D01*
X181412966Y-123469000D01*
X181385367Y-123330252D01*
X181326610Y-123242315D01*
X181326607Y-123242312D01*
X181306772Y-123212627D01*
X181277087Y-123192793D01*
X181147294Y-123063000D01*
X182236474Y-123063000D01*
X182324129Y-123503670D01*
X182573748Y-123877252D01*
X182947330Y-124126871D01*
X183276765Y-124192400D01*
X183499235Y-124192400D01*
X183828670Y-124126871D01*
X184202252Y-123877252D01*
X184451871Y-123503670D01*
X184539526Y-123063000D01*
X184451871Y-122622330D01*
X184202252Y-122248748D01*
X183828670Y-121999129D01*
X183499235Y-121933600D01*
X183276765Y-121933600D01*
X182947330Y-121999129D01*
X182573748Y-122248748D01*
X182324129Y-122622330D01*
X182236474Y-123063000D01*
X181147294Y-123063000D01*
X180920611Y-122836317D01*
X180900773Y-122806627D01*
X180783148Y-122728033D01*
X180776873Y-122726785D01*
X180776873Y-122213000D01*
X180755188Y-122103984D01*
X180693436Y-122011564D01*
X180601016Y-121949812D01*
X180492000Y-121928127D01*
X179168285Y-121928127D01*
X183504256Y-117592156D01*
X183514024Y-117598682D01*
X183847428Y-117665000D01*
X184072572Y-117665000D01*
X184405976Y-117598682D01*
X184784057Y-117346057D01*
X185036682Y-116967976D01*
X185051312Y-116894426D01*
X185293179Y-117410490D01*
X185725053Y-117804688D01*
X186140974Y-117976958D01*
X186373000Y-117855817D01*
X186373000Y-116649000D01*
X186627000Y-116649000D01*
X186627000Y-117855817D01*
X186859026Y-117976958D01*
X187274947Y-117804688D01*
X187706821Y-117410490D01*
X187954968Y-116881027D01*
X187834469Y-116649000D01*
X186627000Y-116649000D01*
X186373000Y-116649000D01*
X186353000Y-116649000D01*
X186353000Y-116395000D01*
X186373000Y-116395000D01*
X186373000Y-116375000D01*
X186627000Y-116375000D01*
X186627000Y-116395000D01*
X187834469Y-116395000D01*
X187954968Y-116162973D01*
X187706821Y-115633510D01*
X187274947Y-115239312D01*
X186873600Y-115073078D01*
X186945976Y-115058682D01*
X187324057Y-114806057D01*
X187576682Y-114427976D01*
X187665392Y-113982000D01*
X187576682Y-113536024D01*
X187324057Y-113157943D01*
X186945976Y-112905318D01*
X186612572Y-112839000D01*
X186387428Y-112839000D01*
X186054024Y-112905318D01*
X185675943Y-113157943D01*
X185423318Y-113536024D01*
X185334608Y-113982000D01*
X185423318Y-114427976D01*
X185675943Y-114806057D01*
X186054024Y-115058682D01*
X186126400Y-115073078D01*
X185725053Y-115239312D01*
X185293179Y-115633510D01*
X185051312Y-116149574D01*
X185036682Y-116076024D01*
X184784057Y-115697943D01*
X184405976Y-115445318D01*
X184072572Y-115379000D01*
X183847428Y-115379000D01*
X183514024Y-115445318D01*
X183135943Y-115697943D01*
X182883318Y-116076024D01*
X182794608Y-116522000D01*
X182883318Y-116967976D01*
X182979180Y-117111444D01*
X178335715Y-121754909D01*
X178306027Y-121774746D01*
X178286191Y-121804433D01*
X178286190Y-121804434D01*
X178227433Y-121892371D01*
X178199834Y-122031118D01*
X178206800Y-122066138D01*
X178206801Y-124034075D01*
X178199834Y-124069100D01*
X178227433Y-124207847D01*
X178286190Y-124295784D01*
X178286192Y-124295786D01*
X178306028Y-124325473D01*
X178335715Y-124345309D01*
X178442089Y-124451683D01*
X178461927Y-124481373D01*
X178548644Y-124539315D01*
X178579552Y-124559967D01*
X178718300Y-124587566D01*
X178753320Y-124580600D01*
X179139264Y-124580600D01*
X178827748Y-124788748D01*
X178578129Y-125162330D01*
X178562572Y-125240539D01*
X178424352Y-125268033D01*
X178306727Y-125346627D01*
X178286891Y-125376314D01*
X176954806Y-126708400D01*
X176393555Y-126708400D01*
X176378892Y-126701514D01*
X176365773Y-126708400D01*
X176253891Y-126708400D01*
X176462670Y-126666871D01*
X176836252Y-126417252D01*
X177085871Y-126043670D01*
X177173526Y-125603000D01*
X177085871Y-125162330D01*
X176836252Y-124788748D01*
X176748106Y-124729851D01*
X176769800Y-124734166D01*
X176804820Y-124727200D01*
X176908548Y-124706567D01*
X177026173Y-124627973D01*
X177046011Y-124598283D01*
X177327683Y-124316611D01*
X177357373Y-124296773D01*
X177435967Y-124179148D01*
X177456600Y-124075420D01*
X177463566Y-124040400D01*
X177456600Y-124005380D01*
X177456600Y-120926620D01*
X177463566Y-120891600D01*
X177435967Y-120752852D01*
X177377210Y-120664915D01*
X177377207Y-120664912D01*
X177357372Y-120635227D01*
X177327688Y-120615393D01*
X175317600Y-118605306D01*
X175317600Y-117049215D01*
X175515943Y-117346057D01*
X175894024Y-117598682D01*
X176227428Y-117665000D01*
X176452572Y-117665000D01*
X176785976Y-117598682D01*
X177164057Y-117346057D01*
X177416682Y-116967976D01*
X177505392Y-116522000D01*
X177416682Y-116076024D01*
X177164057Y-115697943D01*
X176785976Y-115445318D01*
X176452572Y-115379000D01*
X176227428Y-115379000D01*
X175894024Y-115445318D01*
X175515943Y-115697943D01*
X175317600Y-115994785D01*
X175317600Y-114509215D01*
X175515943Y-114806057D01*
X175894024Y-115058682D01*
X176227428Y-115125000D01*
X176452572Y-115125000D01*
X176785976Y-115058682D01*
X177164057Y-114806057D01*
X177254401Y-114670847D01*
X177254401Y-115216975D01*
X177247434Y-115252000D01*
X177275033Y-115390747D01*
X177333790Y-115478684D01*
X177333792Y-115478686D01*
X177353628Y-115508373D01*
X177383315Y-115528209D01*
X177854512Y-115999406D01*
X177803318Y-116076024D01*
X177714608Y-116522000D01*
X177803318Y-116967976D01*
X178055943Y-117346057D01*
X178434024Y-117598682D01*
X178767428Y-117665000D01*
X178992572Y-117665000D01*
X179325976Y-117598682D01*
X179704057Y-117346057D01*
X179956682Y-116967976D01*
X180045392Y-116522000D01*
X179956682Y-116076024D01*
X179704057Y-115697943D01*
X179325976Y-115445318D01*
X178992572Y-115379000D01*
X178767428Y-115379000D01*
X178434024Y-115445318D01*
X178357406Y-115496512D01*
X177965600Y-115104706D01*
X177965600Y-114670849D01*
X178055943Y-114806057D01*
X178434024Y-115058682D01*
X178767428Y-115125000D01*
X178992572Y-115125000D01*
X179325976Y-115058682D01*
X179704057Y-114806057D01*
X179794401Y-114670847D01*
X179794401Y-115216975D01*
X179787434Y-115252000D01*
X179815033Y-115390747D01*
X179873790Y-115478684D01*
X179873792Y-115478686D01*
X179893628Y-115508373D01*
X179923315Y-115528209D01*
X180394512Y-115999406D01*
X180343318Y-116076024D01*
X180254608Y-116522000D01*
X180343318Y-116967976D01*
X180595943Y-117346057D01*
X180974024Y-117598682D01*
X181307428Y-117665000D01*
X181532572Y-117665000D01*
X181865976Y-117598682D01*
X182244057Y-117346057D01*
X182496682Y-116967976D01*
X182585392Y-116522000D01*
X182496682Y-116076024D01*
X182244057Y-115697943D01*
X181865976Y-115445318D01*
X181532572Y-115379000D01*
X181307428Y-115379000D01*
X180974024Y-115445318D01*
X180897406Y-115496512D01*
X180505600Y-115104706D01*
X180505600Y-114670849D01*
X180595943Y-114806057D01*
X180974024Y-115058682D01*
X181307428Y-115125000D01*
X181532572Y-115125000D01*
X181865976Y-115058682D01*
X182244057Y-114806057D01*
X182496682Y-114427976D01*
X182585392Y-113982000D01*
X182496682Y-113536024D01*
X182244057Y-113157943D01*
X181865976Y-112905318D01*
X181775600Y-112887341D01*
X181775600Y-105577820D01*
X181782566Y-105542800D01*
X181754967Y-105404052D01*
X181696210Y-105316115D01*
X181696207Y-105316112D01*
X181676372Y-105286427D01*
X181646688Y-105266593D01*
X173752411Y-97372317D01*
X173732573Y-97342627D01*
X173722145Y-97335660D01*
X173724252Y-97334252D01*
X173973871Y-96960670D01*
X174061526Y-96520000D01*
X173973871Y-96079330D01*
X173724252Y-95705748D01*
X173363946Y-95465000D01*
X173886309Y-95465000D01*
X174119698Y-95368327D01*
X174298327Y-95189699D01*
X174395000Y-94956310D01*
X174395000Y-94265750D01*
X174236250Y-94107000D01*
X173037000Y-94107000D01*
X173037000Y-94127000D01*
X172783000Y-94127000D01*
X172783000Y-94107000D01*
X171583750Y-94107000D01*
X171425000Y-94265750D01*
X171425000Y-94956310D01*
X171521673Y-95189699D01*
X171700302Y-95368327D01*
X171933691Y-95465000D01*
X172456054Y-95465000D01*
X172095748Y-95705748D01*
X171908089Y-95986600D01*
X171874241Y-95986600D01*
X170784317Y-94896677D01*
X170754559Y-94852141D01*
X170578122Y-94734249D01*
X170488873Y-94716496D01*
X170488873Y-93130000D01*
X170467188Y-93020984D01*
X170455633Y-93003690D01*
X171425000Y-93003690D01*
X171425000Y-93694250D01*
X171583750Y-93853000D01*
X172783000Y-93853000D01*
X172783000Y-92653750D01*
X173037000Y-92653750D01*
X173037000Y-93853000D01*
X174236250Y-93853000D01*
X174395000Y-93694250D01*
X174395000Y-93003690D01*
X174298327Y-92770301D01*
X174119698Y-92591673D01*
X173886309Y-92495000D01*
X173195750Y-92495000D01*
X173037000Y-92653750D01*
X172783000Y-92653750D01*
X172624250Y-92495000D01*
X171933691Y-92495000D01*
X171700302Y-92591673D01*
X171521673Y-92770301D01*
X171425000Y-93003690D01*
X170455633Y-93003690D01*
X170405436Y-92928564D01*
X170313016Y-92866812D01*
X170204000Y-92845127D01*
X168504000Y-92845127D01*
X168394984Y-92866812D01*
X168302564Y-92928564D01*
X168240812Y-93020984D01*
X168219127Y-93130000D01*
X168219127Y-94830000D01*
X168240812Y-94939016D01*
X168302564Y-95031436D01*
X168394984Y-95093188D01*
X168504000Y-95114873D01*
X168820601Y-95114873D01*
X168820601Y-95161406D01*
X168472642Y-95324817D01*
X168082355Y-95753076D01*
X167937800Y-96102085D01*
X167937800Y-93834720D01*
X167944766Y-93799700D01*
X167917167Y-93660952D01*
X167858410Y-93573015D01*
X167858407Y-93573012D01*
X167838572Y-93543327D01*
X167808888Y-93523493D01*
X166959711Y-92674317D01*
X166939873Y-92644627D01*
X166822248Y-92566033D01*
X166718520Y-92545400D01*
X166683500Y-92538434D01*
X166648480Y-92545400D01*
X164761819Y-92545400D01*
X164726799Y-92538434D01*
X164680900Y-92547564D01*
X164680900Y-89625675D01*
X165887430Y-89625675D01*
X166010565Y-89913288D01*
X166692734Y-90173207D01*
X167422443Y-90152286D01*
X167999435Y-89913288D01*
X168122570Y-89625675D01*
X167005000Y-88508105D01*
X165887430Y-89625675D01*
X164680900Y-89625675D01*
X164680900Y-88016234D01*
X165160293Y-88016234D01*
X165181214Y-88745943D01*
X165420212Y-89322935D01*
X165707825Y-89446070D01*
X166825395Y-88328500D01*
X167184605Y-88328500D01*
X168302175Y-89446070D01*
X168589788Y-89322935D01*
X168849707Y-88640766D01*
X168828786Y-87911057D01*
X168589788Y-87334065D01*
X168302175Y-87210930D01*
X167184605Y-88328500D01*
X166825395Y-88328500D01*
X165707825Y-87210930D01*
X165420212Y-87334065D01*
X165160293Y-88016234D01*
X164680900Y-88016234D01*
X164680900Y-87031325D01*
X165887430Y-87031325D01*
X167005000Y-88148895D01*
X168025395Y-87128500D01*
X169020127Y-87128500D01*
X169020127Y-89528500D01*
X169041812Y-89637516D01*
X169103564Y-89729936D01*
X169195984Y-89791688D01*
X169305000Y-89813373D01*
X171705000Y-89813373D01*
X171814016Y-89791688D01*
X171906436Y-89729936D01*
X171968188Y-89637516D01*
X171989873Y-89528500D01*
X171989873Y-89512118D01*
X183299600Y-100821847D01*
X183299601Y-113048591D01*
X183135943Y-113157943D01*
X182883318Y-113536024D01*
X182794608Y-113982000D01*
X182883318Y-114427976D01*
X183135943Y-114806057D01*
X183514024Y-115058682D01*
X183847428Y-115125000D01*
X184072572Y-115125000D01*
X184405976Y-115058682D01*
X184784057Y-114806057D01*
X185036682Y-114427976D01*
X185125392Y-113982000D01*
X185036682Y-113536024D01*
X184784057Y-113157943D01*
X184620400Y-113048591D01*
X184620400Y-100613338D01*
X184633337Y-100548299D01*
X184620400Y-100483261D01*
X184620400Y-100483257D01*
X184582083Y-100290625D01*
X184540250Y-100228017D01*
X184472965Y-100127318D01*
X184472963Y-100127316D01*
X184436121Y-100072178D01*
X184380983Y-100035336D01*
X172316670Y-87971025D01*
X172279822Y-87915878D01*
X172061375Y-87769917D01*
X171989873Y-87755694D01*
X171989873Y-87128500D01*
X171968188Y-87019484D01*
X171906436Y-86927064D01*
X171814016Y-86865312D01*
X171705000Y-86843627D01*
X169305000Y-86843627D01*
X169195984Y-86865312D01*
X169103564Y-86927064D01*
X169041812Y-87019484D01*
X169020127Y-87128500D01*
X168025395Y-87128500D01*
X168122570Y-87031325D01*
X167999435Y-86743712D01*
X167317266Y-86483793D01*
X166587557Y-86504714D01*
X166010565Y-86743712D01*
X165887430Y-87031325D01*
X164680900Y-87031325D01*
X164680900Y-83425900D01*
X192037100Y-83425900D01*
X192037101Y-129870600D01*
X192037101Y-129870600D01*
G37*
X192037101Y-129870600D02*
X179971722Y-129870600D01*
X180055573Y-129814573D01*
X180075411Y-129784883D01*
X180521008Y-129339287D01*
X180523358Y-129338183D01*
X180536171Y-129324123D01*
X181277086Y-128583209D01*
X181306773Y-128563373D01*
X181385367Y-128445748D01*
X181388748Y-128428750D01*
X181903000Y-128428750D01*
X181903000Y-129119310D01*
X181999673Y-129352699D01*
X182178302Y-129531327D01*
X182411691Y-129628000D01*
X183102250Y-129628000D01*
X183261000Y-129469250D01*
X183261000Y-128270000D01*
X183515000Y-128270000D01*
X183515000Y-129469250D01*
X183673750Y-129628000D01*
X184364309Y-129628000D01*
X184597698Y-129531327D01*
X184776327Y-129352699D01*
X184873000Y-129119310D01*
X184873000Y-128428750D01*
X184714250Y-128270000D01*
X183515000Y-128270000D01*
X183261000Y-128270000D01*
X182061750Y-128270000D01*
X181903000Y-128428750D01*
X181388748Y-128428750D01*
X181406000Y-128342020D01*
X181412966Y-128307001D01*
X181406000Y-128271981D01*
X181406000Y-127166690D01*
X181903000Y-127166690D01*
X181903000Y-127857250D01*
X182061750Y-128016000D01*
X183261000Y-128016000D01*
X183261000Y-127996000D01*
X183515000Y-127996000D01*
X183515000Y-128016000D01*
X184714250Y-128016000D01*
X184873000Y-127857250D01*
X184873000Y-127166690D01*
X184776327Y-126933301D01*
X184597698Y-126754673D01*
X184364309Y-126658000D01*
X183841946Y-126658000D01*
X184202252Y-126417252D01*
X184274808Y-126308664D01*
X186906100Y-126308664D01*
X186906100Y-127056336D01*
X187192221Y-127747095D01*
X187720905Y-128275779D01*
X188411664Y-128561900D01*
X189159336Y-128561900D01*
X189850095Y-128275779D01*
X190378779Y-127747095D01*
X190664900Y-127056336D01*
X190664900Y-126308664D01*
X190378779Y-125617905D01*
X189850095Y-125089221D01*
X189159336Y-124803100D01*
X188411664Y-124803100D01*
X187720905Y-125089221D01*
X187192221Y-125617905D01*
X186906100Y-126308664D01*
X184274808Y-126308664D01*
X184451871Y-126043670D01*
X184539526Y-125603000D01*
X184451871Y-125162330D01*
X184202252Y-124788748D01*
X183828670Y-124539129D01*
X183499235Y-124473600D01*
X183276765Y-124473600D01*
X182947330Y-124539129D01*
X182573748Y-124788748D01*
X182324129Y-125162330D01*
X182236474Y-125603000D01*
X182324129Y-126043670D01*
X182573748Y-126417252D01*
X182934054Y-126658000D01*
X182411691Y-126658000D01*
X182178302Y-126754673D01*
X181999673Y-126933301D01*
X181903000Y-127166690D01*
X181406000Y-127166690D01*
X181406000Y-123504020D01*
X181412966Y-123469000D01*
X181385367Y-123330252D01*
X181326610Y-123242315D01*
X181326607Y-123242312D01*
X181306772Y-123212627D01*
X181277087Y-123192793D01*
X181147294Y-123063000D01*
X182236474Y-123063000D01*
X182324129Y-123503670D01*
X182573748Y-123877252D01*
X182947330Y-124126871D01*
X183276765Y-124192400D01*
X183499235Y-124192400D01*
X183828670Y-124126871D01*
X184202252Y-123877252D01*
X184451871Y-123503670D01*
X184539526Y-123063000D01*
X184451871Y-122622330D01*
X184202252Y-122248748D01*
X183828670Y-121999129D01*
X183499235Y-121933600D01*
X183276765Y-121933600D01*
X182947330Y-121999129D01*
X182573748Y-122248748D01*
X182324129Y-122622330D01*
X182236474Y-123063000D01*
X181147294Y-123063000D01*
X180920611Y-122836317D01*
X180900773Y-122806627D01*
X180783148Y-122728033D01*
X180776873Y-122726785D01*
X180776873Y-122213000D01*
X180755188Y-122103984D01*
X180693436Y-122011564D01*
X180601016Y-121949812D01*
X180492000Y-121928127D01*
X179168285Y-121928127D01*
X183504256Y-117592156D01*
X183514024Y-117598682D01*
X183847428Y-117665000D01*
X184072572Y-117665000D01*
X184405976Y-117598682D01*
X184784057Y-117346057D01*
X185036682Y-116967976D01*
X185051312Y-116894426D01*
X185293179Y-117410490D01*
X185725053Y-117804688D01*
X186140974Y-117976958D01*
X186373000Y-117855817D01*
X186373000Y-116649000D01*
X186627000Y-116649000D01*
X186627000Y-117855817D01*
X186859026Y-117976958D01*
X187274947Y-117804688D01*
X187706821Y-117410490D01*
X187954968Y-116881027D01*
X187834469Y-116649000D01*
X186627000Y-116649000D01*
X186373000Y-116649000D01*
X186353000Y-116649000D01*
X186353000Y-116395000D01*
X186373000Y-116395000D01*
X186373000Y-116375000D01*
X186627000Y-116375000D01*
X186627000Y-116395000D01*
X187834469Y-116395000D01*
X187954968Y-116162973D01*
X187706821Y-115633510D01*
X187274947Y-115239312D01*
X186873600Y-115073078D01*
X186945976Y-115058682D01*
X187324057Y-114806057D01*
X187576682Y-114427976D01*
X187665392Y-113982000D01*
X187576682Y-113536024D01*
X187324057Y-113157943D01*
X186945976Y-112905318D01*
X186612572Y-112839000D01*
X186387428Y-112839000D01*
X186054024Y-112905318D01*
X185675943Y-113157943D01*
X185423318Y-113536024D01*
X185334608Y-113982000D01*
X185423318Y-114427976D01*
X185675943Y-114806057D01*
X186054024Y-115058682D01*
X186126400Y-115073078D01*
X185725053Y-115239312D01*
X185293179Y-115633510D01*
X185051312Y-116149574D01*
X185036682Y-116076024D01*
X184784057Y-115697943D01*
X184405976Y-115445318D01*
X184072572Y-115379000D01*
X183847428Y-115379000D01*
X183514024Y-115445318D01*
X183135943Y-115697943D01*
X182883318Y-116076024D01*
X182794608Y-116522000D01*
X182883318Y-116967976D01*
X182979180Y-117111444D01*
X178335715Y-121754909D01*
X178306027Y-121774746D01*
X178286191Y-121804433D01*
X178286190Y-121804434D01*
X178227433Y-121892371D01*
X178199834Y-122031118D01*
X178206800Y-122066138D01*
X178206801Y-124034075D01*
X178199834Y-124069100D01*
X178227433Y-124207847D01*
X178286190Y-124295784D01*
X178286192Y-124295786D01*
X178306028Y-124325473D01*
X178335715Y-124345309D01*
X178442089Y-124451683D01*
X178461927Y-124481373D01*
X178548644Y-124539315D01*
X178579552Y-124559967D01*
X178718300Y-124587566D01*
X178753320Y-124580600D01*
X179139264Y-124580600D01*
X178827748Y-124788748D01*
X178578129Y-125162330D01*
X178562572Y-125240539D01*
X178424352Y-125268033D01*
X178306727Y-125346627D01*
X178286891Y-125376314D01*
X176954806Y-126708400D01*
X176393555Y-126708400D01*
X176378892Y-126701514D01*
X176365773Y-126708400D01*
X176253891Y-126708400D01*
X176462670Y-126666871D01*
X176836252Y-126417252D01*
X177085871Y-126043670D01*
X177173526Y-125603000D01*
X177085871Y-125162330D01*
X176836252Y-124788748D01*
X176748106Y-124729851D01*
X176769800Y-124734166D01*
X176804820Y-124727200D01*
X176908548Y-124706567D01*
X177026173Y-124627973D01*
X177046011Y-124598283D01*
X177327683Y-124316611D01*
X177357373Y-124296773D01*
X177435967Y-124179148D01*
X177456600Y-124075420D01*
X177463566Y-124040400D01*
X177456600Y-124005380D01*
X177456600Y-120926620D01*
X177463566Y-120891600D01*
X177435967Y-120752852D01*
X177377210Y-120664915D01*
X177377207Y-120664912D01*
X177357372Y-120635227D01*
X177327688Y-120615393D01*
X175317600Y-118605306D01*
X175317600Y-117049215D01*
X175515943Y-117346057D01*
X175894024Y-117598682D01*
X176227428Y-117665000D01*
X176452572Y-117665000D01*
X176785976Y-117598682D01*
X177164057Y-117346057D01*
X177416682Y-116967976D01*
X177505392Y-116522000D01*
X177416682Y-116076024D01*
X177164057Y-115697943D01*
X176785976Y-115445318D01*
X176452572Y-115379000D01*
X176227428Y-115379000D01*
X175894024Y-115445318D01*
X175515943Y-115697943D01*
X175317600Y-115994785D01*
X175317600Y-114509215D01*
X175515943Y-114806057D01*
X175894024Y-115058682D01*
X176227428Y-115125000D01*
X176452572Y-115125000D01*
X176785976Y-115058682D01*
X177164057Y-114806057D01*
X177254401Y-114670847D01*
X177254401Y-115216975D01*
X177247434Y-115252000D01*
X177275033Y-115390747D01*
X177333790Y-115478684D01*
X177333792Y-115478686D01*
X177353628Y-115508373D01*
X177383315Y-115528209D01*
X177854512Y-115999406D01*
X177803318Y-116076024D01*
X177714608Y-116522000D01*
X177803318Y-116967976D01*
X178055943Y-117346057D01*
X178434024Y-117598682D01*
X178767428Y-117665000D01*
X178992572Y-117665000D01*
X179325976Y-117598682D01*
X179704057Y-117346057D01*
X179956682Y-116967976D01*
X180045392Y-116522000D01*
X179956682Y-116076024D01*
X179704057Y-115697943D01*
X179325976Y-115445318D01*
X178992572Y-115379000D01*
X178767428Y-115379000D01*
X178434024Y-115445318D01*
X178357406Y-115496512D01*
X177965600Y-115104706D01*
X177965600Y-114670849D01*
X178055943Y-114806057D01*
X178434024Y-115058682D01*
X178767428Y-115125000D01*
X178992572Y-115125000D01*
X179325976Y-115058682D01*
X179704057Y-114806057D01*
X179794401Y-114670847D01*
X179794401Y-115216975D01*
X179787434Y-115252000D01*
X179815033Y-115390747D01*
X179873790Y-115478684D01*
X179873792Y-115478686D01*
X179893628Y-115508373D01*
X179923315Y-115528209D01*
X180394512Y-115999406D01*
X180343318Y-116076024D01*
X180254608Y-116522000D01*
X180343318Y-116967976D01*
X180595943Y-117346057D01*
X180974024Y-117598682D01*
X181307428Y-117665000D01*
X181532572Y-117665000D01*
X181865976Y-117598682D01*
X182244057Y-117346057D01*
X182496682Y-116967976D01*
X182585392Y-116522000D01*
X182496682Y-116076024D01*
X182244057Y-115697943D01*
X181865976Y-115445318D01*
X181532572Y-115379000D01*
X181307428Y-115379000D01*
X180974024Y-115445318D01*
X180897406Y-115496512D01*
X180505600Y-115104706D01*
X180505600Y-114670849D01*
X180595943Y-114806057D01*
X180974024Y-115058682D01*
X181307428Y-115125000D01*
X181532572Y-115125000D01*
X181865976Y-115058682D01*
X182244057Y-114806057D01*
X182496682Y-114427976D01*
X182585392Y-113982000D01*
X182496682Y-113536024D01*
X182244057Y-113157943D01*
X181865976Y-112905318D01*
X181775600Y-112887341D01*
X181775600Y-105577820D01*
X181782566Y-105542800D01*
X181754967Y-105404052D01*
X181696210Y-105316115D01*
X181696207Y-105316112D01*
X181676372Y-105286427D01*
X181646688Y-105266593D01*
X173752411Y-97372317D01*
X173732573Y-97342627D01*
X173722145Y-97335660D01*
X173724252Y-97334252D01*
X173973871Y-96960670D01*
X174061526Y-96520000D01*
X173973871Y-96079330D01*
X173724252Y-95705748D01*
X173363946Y-95465000D01*
X173886309Y-95465000D01*
X174119698Y-95368327D01*
X174298327Y-95189699D01*
X174395000Y-94956310D01*
X174395000Y-94265750D01*
X174236250Y-94107000D01*
X173037000Y-94107000D01*
X173037000Y-94127000D01*
X172783000Y-94127000D01*
X172783000Y-94107000D01*
X171583750Y-94107000D01*
X171425000Y-94265750D01*
X171425000Y-94956310D01*
X171521673Y-95189699D01*
X171700302Y-95368327D01*
X171933691Y-95465000D01*
X172456054Y-95465000D01*
X172095748Y-95705748D01*
X171908089Y-95986600D01*
X171874241Y-95986600D01*
X170784317Y-94896677D01*
X170754559Y-94852141D01*
X170578122Y-94734249D01*
X170488873Y-94716496D01*
X170488873Y-93130000D01*
X170467188Y-93020984D01*
X170455633Y-93003690D01*
X171425000Y-93003690D01*
X171425000Y-93694250D01*
X171583750Y-93853000D01*
X172783000Y-93853000D01*
X172783000Y-92653750D01*
X173037000Y-92653750D01*
X173037000Y-93853000D01*
X174236250Y-93853000D01*
X174395000Y-93694250D01*
X174395000Y-93003690D01*
X174298327Y-92770301D01*
X174119698Y-92591673D01*
X173886309Y-92495000D01*
X173195750Y-92495000D01*
X173037000Y-92653750D01*
X172783000Y-92653750D01*
X172624250Y-92495000D01*
X171933691Y-92495000D01*
X171700302Y-92591673D01*
X171521673Y-92770301D01*
X171425000Y-93003690D01*
X170455633Y-93003690D01*
X170405436Y-92928564D01*
X170313016Y-92866812D01*
X170204000Y-92845127D01*
X168504000Y-92845127D01*
X168394984Y-92866812D01*
X168302564Y-92928564D01*
X168240812Y-93020984D01*
X168219127Y-93130000D01*
X168219127Y-94830000D01*
X168240812Y-94939016D01*
X168302564Y-95031436D01*
X168394984Y-95093188D01*
X168504000Y-95114873D01*
X168820601Y-95114873D01*
X168820601Y-95161406D01*
X168472642Y-95324817D01*
X168082355Y-95753076D01*
X167937800Y-96102085D01*
X167937800Y-93834720D01*
X167944766Y-93799700D01*
X167917167Y-93660952D01*
X167858410Y-93573015D01*
X167858407Y-93573012D01*
X167838572Y-93543327D01*
X167808888Y-93523493D01*
X166959711Y-92674317D01*
X166939873Y-92644627D01*
X166822248Y-92566033D01*
X166718520Y-92545400D01*
X166683500Y-92538434D01*
X166648480Y-92545400D01*
X164761819Y-92545400D01*
X164726799Y-92538434D01*
X164680900Y-92547564D01*
X164680900Y-89625675D01*
X165887430Y-89625675D01*
X166010565Y-89913288D01*
X166692734Y-90173207D01*
X167422443Y-90152286D01*
X167999435Y-89913288D01*
X168122570Y-89625675D01*
X167005000Y-88508105D01*
X165887430Y-89625675D01*
X164680900Y-89625675D01*
X164680900Y-88016234D01*
X165160293Y-88016234D01*
X165181214Y-88745943D01*
X165420212Y-89322935D01*
X165707825Y-89446070D01*
X166825395Y-88328500D01*
X167184605Y-88328500D01*
X168302175Y-89446070D01*
X168589788Y-89322935D01*
X168849707Y-88640766D01*
X168828786Y-87911057D01*
X168589788Y-87334065D01*
X168302175Y-87210930D01*
X167184605Y-88328500D01*
X166825395Y-88328500D01*
X165707825Y-87210930D01*
X165420212Y-87334065D01*
X165160293Y-88016234D01*
X164680900Y-88016234D01*
X164680900Y-87031325D01*
X165887430Y-87031325D01*
X167005000Y-88148895D01*
X168025395Y-87128500D01*
X169020127Y-87128500D01*
X169020127Y-89528500D01*
X169041812Y-89637516D01*
X169103564Y-89729936D01*
X169195984Y-89791688D01*
X169305000Y-89813373D01*
X171705000Y-89813373D01*
X171814016Y-89791688D01*
X171906436Y-89729936D01*
X171968188Y-89637516D01*
X171989873Y-89528500D01*
X171989873Y-89512118D01*
X183299600Y-100821847D01*
X183299601Y-113048591D01*
X183135943Y-113157943D01*
X182883318Y-113536024D01*
X182794608Y-113982000D01*
X182883318Y-114427976D01*
X183135943Y-114806057D01*
X183514024Y-115058682D01*
X183847428Y-115125000D01*
X184072572Y-115125000D01*
X184405976Y-115058682D01*
X184784057Y-114806057D01*
X185036682Y-114427976D01*
X185125392Y-113982000D01*
X185036682Y-113536024D01*
X184784057Y-113157943D01*
X184620400Y-113048591D01*
X184620400Y-100613338D01*
X184633337Y-100548299D01*
X184620400Y-100483261D01*
X184620400Y-100483257D01*
X184582083Y-100290625D01*
X184540250Y-100228017D01*
X184472965Y-100127318D01*
X184472963Y-100127316D01*
X184436121Y-100072178D01*
X184380983Y-100035336D01*
X172316670Y-87971025D01*
X172279822Y-87915878D01*
X172061375Y-87769917D01*
X171989873Y-87755694D01*
X171989873Y-87128500D01*
X171968188Y-87019484D01*
X171906436Y-86927064D01*
X171814016Y-86865312D01*
X171705000Y-86843627D01*
X169305000Y-86843627D01*
X169195984Y-86865312D01*
X169103564Y-86927064D01*
X169041812Y-87019484D01*
X169020127Y-87128500D01*
X168025395Y-87128500D01*
X168122570Y-87031325D01*
X167999435Y-86743712D01*
X167317266Y-86483793D01*
X166587557Y-86504714D01*
X166010565Y-86743712D01*
X165887430Y-87031325D01*
X164680900Y-87031325D01*
X164680900Y-83425900D01*
X192037100Y-83425900D01*
X192037101Y-129870600D01*
G36*
X141452600Y-91243454D02*
X134429122Y-98266933D01*
X134373978Y-98303779D01*
X134228017Y-98522226D01*
X134208917Y-98618250D01*
X134176762Y-98779900D01*
X134189700Y-98844942D01*
X134189701Y-102165353D01*
X131702873Y-104652182D01*
X131702873Y-103331000D01*
X131681188Y-103221984D01*
X131619436Y-103129564D01*
X131527016Y-103067812D01*
X131418000Y-103046127D01*
X129718000Y-103046127D01*
X129608984Y-103067812D01*
X129516564Y-103129564D01*
X129454812Y-103221984D01*
X129433127Y-103331000D01*
X129433127Y-105031000D01*
X129454812Y-105140016D01*
X129516564Y-105232436D01*
X129608984Y-105294188D01*
X129718000Y-105315873D01*
X131039182Y-105315873D01*
X130749482Y-105605573D01*
X130679235Y-105591600D01*
X130456765Y-105591600D01*
X130127330Y-105657129D01*
X129753748Y-105906748D01*
X129504129Y-106280330D01*
X129416474Y-106721000D01*
X129452573Y-106902481D01*
X128719222Y-107635833D01*
X128664078Y-107672679D01*
X128518117Y-107891126D01*
X128518043Y-107891500D01*
X128466862Y-108148800D01*
X128479800Y-108213842D01*
X128479801Y-115806853D01*
X128466862Y-115871900D01*
X128498599Y-116031447D01*
X128518118Y-116129575D01*
X128535900Y-116156188D01*
X128535901Y-123640253D01*
X128522962Y-123705300D01*
X128559709Y-123890033D01*
X128574218Y-123962975D01*
X128720179Y-124181422D01*
X128775322Y-124218267D01*
X129491573Y-124934519D01*
X129455474Y-125116000D01*
X129543129Y-125556670D01*
X129792748Y-125930252D01*
X130166330Y-126179871D01*
X130495765Y-126245400D01*
X130718235Y-126245400D01*
X131047670Y-126179871D01*
X131421252Y-125930252D01*
X131670871Y-125556670D01*
X131758526Y-125116000D01*
X131670871Y-124675330D01*
X131421252Y-124301748D01*
X131047670Y-124052129D01*
X130718235Y-123986600D01*
X130495765Y-123986600D01*
X130425519Y-124000573D01*
X130135819Y-123710873D01*
X131457000Y-123710873D01*
X131566016Y-123689188D01*
X131658436Y-123627436D01*
X131720188Y-123535016D01*
X131741873Y-123426000D01*
X131741873Y-121726000D01*
X131731364Y-121673164D01*
X140487600Y-121673164D01*
X140487600Y-122420836D01*
X140773721Y-123111595D01*
X141302405Y-123640279D01*
X141993164Y-123926400D01*
X142740836Y-123926400D01*
X143431595Y-123640279D01*
X143960279Y-123111595D01*
X144246400Y-122420836D01*
X144246400Y-121673164D01*
X143960279Y-120982405D01*
X143431595Y-120453721D01*
X142740836Y-120167600D01*
X141993164Y-120167600D01*
X141302405Y-120453721D01*
X140773721Y-120982405D01*
X140487600Y-121673164D01*
X131731364Y-121673164D01*
X131720188Y-121616984D01*
X131658436Y-121524564D01*
X131566016Y-121462812D01*
X131457000Y-121441127D01*
X129856700Y-121441127D01*
X129856700Y-119343024D01*
X130139330Y-119531871D01*
X130468765Y-119597400D01*
X130691235Y-119597400D01*
X131020670Y-119531871D01*
X131394252Y-119282252D01*
X131643871Y-118908670D01*
X131731526Y-118468000D01*
X131643871Y-118027330D01*
X131394252Y-117653748D01*
X131020670Y-117404129D01*
X130691235Y-117338600D01*
X130468765Y-117338600D01*
X130139330Y-117404129D01*
X129856700Y-117592976D01*
X129856700Y-116803024D01*
X130139330Y-116991871D01*
X130468765Y-117057400D01*
X130691235Y-117057400D01*
X131020670Y-116991871D01*
X131394252Y-116742252D01*
X131643871Y-116368670D01*
X131731526Y-115928000D01*
X131643871Y-115487330D01*
X131394252Y-115113748D01*
X131020670Y-114864129D01*
X130691235Y-114798600D01*
X130468765Y-114798600D01*
X130139330Y-114864129D01*
X129800600Y-115090461D01*
X129800600Y-114522873D01*
X131430000Y-114522873D01*
X131539016Y-114501188D01*
X131631436Y-114439436D01*
X131693188Y-114347016D01*
X131714873Y-114238000D01*
X131714873Y-112538000D01*
X131693188Y-112428984D01*
X131631436Y-112336564D01*
X131539016Y-112274812D01*
X131430000Y-112253127D01*
X129800600Y-112253127D01*
X129800600Y-110106557D01*
X130127330Y-110324871D01*
X130456765Y-110390400D01*
X130679235Y-110390400D01*
X131008670Y-110324871D01*
X131382252Y-110075252D01*
X131631871Y-109701670D01*
X131719526Y-109261000D01*
X131631871Y-108820330D01*
X131382252Y-108446748D01*
X131008670Y-108197129D01*
X130679235Y-108131600D01*
X130456765Y-108131600D01*
X130127330Y-108197129D01*
X129821403Y-108401543D01*
X130386519Y-107836427D01*
X130456765Y-107850400D01*
X130679235Y-107850400D01*
X131008670Y-107784871D01*
X131382252Y-107535252D01*
X131631871Y-107161670D01*
X131719526Y-106721000D01*
X131683427Y-106539518D01*
X135271078Y-102951868D01*
X135326222Y-102915022D01*
X135472183Y-102696575D01*
X135510500Y-102503943D01*
X135510500Y-102503942D01*
X135523438Y-102438900D01*
X135510500Y-102373858D01*
X135510500Y-99053445D01*
X141452600Y-93111346D01*
X141452600Y-94017406D01*
X141151890Y-94318116D01*
X141122641Y-94306000D01*
X140852359Y-94306000D01*
X140602651Y-94409433D01*
X140411533Y-94600551D01*
X140308100Y-94850259D01*
X140308100Y-95120541D01*
X140411533Y-95370249D01*
X140602651Y-95561367D01*
X140852359Y-95664800D01*
X141122641Y-95664800D01*
X141372349Y-95561367D01*
X141452600Y-95481116D01*
X141452600Y-97663000D01*
X141473868Y-97769922D01*
X141534434Y-97860566D01*
X141625078Y-97921132D01*
X141732000Y-97942400D01*
X152908000Y-97942400D01*
X153014922Y-97921132D01*
X153066750Y-97886502D01*
X153118578Y-97921132D01*
X153225500Y-97942400D01*
X155748202Y-97942400D01*
X155840159Y-97980490D01*
X156110441Y-97980490D01*
X156129971Y-97972400D01*
X156129970Y-104376400D01*
X156078733Y-104355177D01*
X155808451Y-104355177D01*
X155558743Y-104458610D01*
X155431789Y-104585565D01*
X155317506Y-104471282D01*
X155297668Y-104441592D01*
X155180043Y-104362998D01*
X155076315Y-104342365D01*
X155041295Y-104335399D01*
X155013400Y-104340948D01*
X155069917Y-104204505D01*
X155069917Y-103934223D01*
X154966484Y-103684515D01*
X154775366Y-103493397D01*
X154525658Y-103389964D01*
X154255376Y-103389964D01*
X154226127Y-103402080D01*
X153346164Y-102522117D01*
X153326326Y-102492427D01*
X153208701Y-102413833D01*
X153104973Y-102393200D01*
X153069953Y-102386234D01*
X153034933Y-102393200D01*
X149637120Y-102393200D01*
X149602100Y-102386234D01*
X149463352Y-102413833D01*
X149428152Y-102437353D01*
X149345727Y-102492427D01*
X149325891Y-102522114D01*
X136231515Y-115616491D01*
X136201828Y-115636327D01*
X136181992Y-115666014D01*
X136181990Y-115666016D01*
X136123233Y-115753953D01*
X136095634Y-115892700D01*
X136102601Y-115927725D01*
X136102600Y-116931717D01*
X136073351Y-116943833D01*
X135882233Y-117134951D01*
X135778800Y-117384659D01*
X135778800Y-117654941D01*
X135882233Y-117904649D01*
X136073351Y-118095767D01*
X136323059Y-118199200D01*
X136593341Y-118199200D01*
X136843049Y-118095767D01*
X137034167Y-117904649D01*
X137137600Y-117654941D01*
X137137600Y-117384659D01*
X137034167Y-117134951D01*
X136843049Y-116943833D01*
X136813800Y-116931718D01*
X136813800Y-116039994D01*
X147739501Y-105114294D01*
X147739500Y-123232280D01*
X147732534Y-123267300D01*
X147760133Y-123406047D01*
X147802197Y-123469000D01*
X147838727Y-123523672D01*
X147868415Y-123543509D01*
X148542289Y-124217383D01*
X148562127Y-124247073D01*
X148679462Y-124325473D01*
X148679752Y-124325667D01*
X148818499Y-124353266D01*
X148853519Y-124346300D01*
X154785706Y-124346300D01*
X160224291Y-129784886D01*
X160244127Y-129814573D01*
X160273814Y-129834409D01*
X160273815Y-129834410D01*
X160327978Y-129870600D01*
X128256900Y-129870600D01*
X128256900Y-127656000D01*
X129455474Y-127656000D01*
X129543129Y-128096670D01*
X129792748Y-128470252D01*
X130166330Y-128719871D01*
X130495765Y-128785400D01*
X130718235Y-128785400D01*
X131047670Y-128719871D01*
X131421252Y-128470252D01*
X131440296Y-128441750D01*
X144157000Y-128441750D01*
X144157000Y-129132309D01*
X144253673Y-129365698D01*
X144432301Y-129544327D01*
X144665690Y-129641000D01*
X145356250Y-129641000D01*
X145515000Y-129482250D01*
X145515000Y-128283000D01*
X144315750Y-128283000D01*
X144157000Y-128441750D01*
X131440296Y-128441750D01*
X131670871Y-128096670D01*
X131758526Y-127656000D01*
X131670871Y-127215330D01*
X131647058Y-127179691D01*
X144157000Y-127179691D01*
X144157000Y-127870250D01*
X144315750Y-128029000D01*
X145515000Y-128029000D01*
X145515000Y-126829750D01*
X145769000Y-126829750D01*
X145769000Y-128029000D01*
X145789000Y-128029000D01*
X145789000Y-128283000D01*
X145769000Y-128283000D01*
X145769000Y-129482250D01*
X145927750Y-129641000D01*
X146618310Y-129641000D01*
X146851699Y-129544327D01*
X147030327Y-129365698D01*
X147127000Y-129132309D01*
X147127000Y-128609946D01*
X147367748Y-128970252D01*
X147741330Y-129219871D01*
X148070765Y-129285400D01*
X148293235Y-129285400D01*
X148622670Y-129219871D01*
X148996252Y-128970252D01*
X149245871Y-128596670D01*
X149279272Y-128428750D01*
X152734000Y-128428750D01*
X152734000Y-129119309D01*
X152830673Y-129352698D01*
X153009301Y-129531327D01*
X153242690Y-129628000D01*
X153933250Y-129628000D01*
X154092000Y-129469250D01*
X154092000Y-128270000D01*
X152892750Y-128270000D01*
X152734000Y-128428750D01*
X149279272Y-128428750D01*
X149333526Y-128156000D01*
X149245871Y-127715330D01*
X148996252Y-127341748D01*
X148734261Y-127166691D01*
X152734000Y-127166691D01*
X152734000Y-127857250D01*
X152892750Y-128016000D01*
X154092000Y-128016000D01*
X154092000Y-126816750D01*
X154346000Y-126816750D01*
X154346000Y-128016000D01*
X154366000Y-128016000D01*
X154366000Y-128270000D01*
X154346000Y-128270000D01*
X154346000Y-129469250D01*
X154504750Y-129628000D01*
X155195310Y-129628000D01*
X155428699Y-129531327D01*
X155607327Y-129352698D01*
X155704000Y-129119309D01*
X155704000Y-128596946D01*
X155944748Y-128957252D01*
X156318330Y-129206871D01*
X156647765Y-129272400D01*
X156870235Y-129272400D01*
X157199670Y-129206871D01*
X157573252Y-128957252D01*
X157822871Y-128583670D01*
X157910526Y-128143000D01*
X157822871Y-127702330D01*
X157573252Y-127328748D01*
X157199670Y-127079129D01*
X156870235Y-127013600D01*
X156647765Y-127013600D01*
X156318330Y-127079129D01*
X155944748Y-127328748D01*
X155704000Y-127689054D01*
X155704000Y-127166691D01*
X155607327Y-126933302D01*
X155428699Y-126754673D01*
X155195310Y-126658000D01*
X154504750Y-126658000D01*
X154346000Y-126816750D01*
X154092000Y-126816750D01*
X153933250Y-126658000D01*
X153242690Y-126658000D01*
X153009301Y-126754673D01*
X152830673Y-126933302D01*
X152734000Y-127166691D01*
X148734261Y-127166691D01*
X148622670Y-127092129D01*
X148293235Y-127026600D01*
X148070765Y-127026600D01*
X147741330Y-127092129D01*
X147367748Y-127341748D01*
X147127000Y-127702054D01*
X147127000Y-127179691D01*
X147030327Y-126946302D01*
X146851699Y-126767673D01*
X146618310Y-126671000D01*
X145927750Y-126671000D01*
X145769000Y-126829750D01*
X145515000Y-126829750D01*
X145356250Y-126671000D01*
X144665690Y-126671000D01*
X144432301Y-126767673D01*
X144253673Y-126946302D01*
X144157000Y-127179691D01*
X131647058Y-127179691D01*
X131421252Y-126841748D01*
X131047670Y-126592129D01*
X130718235Y-126526600D01*
X130495765Y-126526600D01*
X130166330Y-126592129D01*
X129792748Y-126841748D01*
X129543129Y-127215330D01*
X129455474Y-127656000D01*
X128256900Y-127656000D01*
X128256900Y-94349240D01*
X133146600Y-94349240D01*
X133146600Y-94758760D01*
X133303317Y-95137108D01*
X133592892Y-95426683D01*
X133971240Y-95583400D01*
X134380760Y-95583400D01*
X134759108Y-95426683D01*
X135048683Y-95137108D01*
X135205400Y-94758760D01*
X135205400Y-94349240D01*
X135048683Y-93970892D01*
X134759108Y-93681317D01*
X134380760Y-93524600D01*
X133971240Y-93524600D01*
X133592892Y-93681317D01*
X133303317Y-93970892D01*
X133146600Y-94349240D01*
X128256900Y-94349240D01*
X128256900Y-87349240D01*
X133146600Y-87349240D01*
X133146600Y-87758760D01*
X133303317Y-88137108D01*
X133592892Y-88426683D01*
X133971240Y-88583400D01*
X134380760Y-88583400D01*
X134759108Y-88426683D01*
X135048683Y-88137108D01*
X135205400Y-87758760D01*
X135205400Y-87349240D01*
X135048683Y-86970892D01*
X134759108Y-86681317D01*
X134380760Y-86524600D01*
X133971240Y-86524600D01*
X133592892Y-86681317D01*
X133303317Y-86970892D01*
X133146600Y-87349240D01*
X128256900Y-87349240D01*
X128256900Y-83425900D01*
X141452600Y-83425900D01*
X141452600Y-91243454D01*
X141452600Y-91243454D01*
G37*
X141452600Y-91243454D02*
X134429122Y-98266933D01*
X134373978Y-98303779D01*
X134228017Y-98522226D01*
X134208917Y-98618250D01*
X134176762Y-98779900D01*
X134189700Y-98844942D01*
X134189701Y-102165353D01*
X131702873Y-104652182D01*
X131702873Y-103331000D01*
X131681188Y-103221984D01*
X131619436Y-103129564D01*
X131527016Y-103067812D01*
X131418000Y-103046127D01*
X129718000Y-103046127D01*
X129608984Y-103067812D01*
X129516564Y-103129564D01*
X129454812Y-103221984D01*
X129433127Y-103331000D01*
X129433127Y-105031000D01*
X129454812Y-105140016D01*
X129516564Y-105232436D01*
X129608984Y-105294188D01*
X129718000Y-105315873D01*
X131039182Y-105315873D01*
X130749482Y-105605573D01*
X130679235Y-105591600D01*
X130456765Y-105591600D01*
X130127330Y-105657129D01*
X129753748Y-105906748D01*
X129504129Y-106280330D01*
X129416474Y-106721000D01*
X129452573Y-106902481D01*
X128719222Y-107635833D01*
X128664078Y-107672679D01*
X128518117Y-107891126D01*
X128518043Y-107891500D01*
X128466862Y-108148800D01*
X128479800Y-108213842D01*
X128479801Y-115806853D01*
X128466862Y-115871900D01*
X128498599Y-116031447D01*
X128518118Y-116129575D01*
X128535900Y-116156188D01*
X128535901Y-123640253D01*
X128522962Y-123705300D01*
X128559709Y-123890033D01*
X128574218Y-123962975D01*
X128720179Y-124181422D01*
X128775322Y-124218267D01*
X129491573Y-124934519D01*
X129455474Y-125116000D01*
X129543129Y-125556670D01*
X129792748Y-125930252D01*
X130166330Y-126179871D01*
X130495765Y-126245400D01*
X130718235Y-126245400D01*
X131047670Y-126179871D01*
X131421252Y-125930252D01*
X131670871Y-125556670D01*
X131758526Y-125116000D01*
X131670871Y-124675330D01*
X131421252Y-124301748D01*
X131047670Y-124052129D01*
X130718235Y-123986600D01*
X130495765Y-123986600D01*
X130425519Y-124000573D01*
X130135819Y-123710873D01*
X131457000Y-123710873D01*
X131566016Y-123689188D01*
X131658436Y-123627436D01*
X131720188Y-123535016D01*
X131741873Y-123426000D01*
X131741873Y-121726000D01*
X131731364Y-121673164D01*
X140487600Y-121673164D01*
X140487600Y-122420836D01*
X140773721Y-123111595D01*
X141302405Y-123640279D01*
X141993164Y-123926400D01*
X142740836Y-123926400D01*
X143431595Y-123640279D01*
X143960279Y-123111595D01*
X144246400Y-122420836D01*
X144246400Y-121673164D01*
X143960279Y-120982405D01*
X143431595Y-120453721D01*
X142740836Y-120167600D01*
X141993164Y-120167600D01*
X141302405Y-120453721D01*
X140773721Y-120982405D01*
X140487600Y-121673164D01*
X131731364Y-121673164D01*
X131720188Y-121616984D01*
X131658436Y-121524564D01*
X131566016Y-121462812D01*
X131457000Y-121441127D01*
X129856700Y-121441127D01*
X129856700Y-119343024D01*
X130139330Y-119531871D01*
X130468765Y-119597400D01*
X130691235Y-119597400D01*
X131020670Y-119531871D01*
X131394252Y-119282252D01*
X131643871Y-118908670D01*
X131731526Y-118468000D01*
X131643871Y-118027330D01*
X131394252Y-117653748D01*
X131020670Y-117404129D01*
X130691235Y-117338600D01*
X130468765Y-117338600D01*
X130139330Y-117404129D01*
X129856700Y-117592976D01*
X129856700Y-116803024D01*
X130139330Y-116991871D01*
X130468765Y-117057400D01*
X130691235Y-117057400D01*
X131020670Y-116991871D01*
X131394252Y-116742252D01*
X131643871Y-116368670D01*
X131731526Y-115928000D01*
X131643871Y-115487330D01*
X131394252Y-115113748D01*
X131020670Y-114864129D01*
X130691235Y-114798600D01*
X130468765Y-114798600D01*
X130139330Y-114864129D01*
X129800600Y-115090461D01*
X129800600Y-114522873D01*
X131430000Y-114522873D01*
X131539016Y-114501188D01*
X131631436Y-114439436D01*
X131693188Y-114347016D01*
X131714873Y-114238000D01*
X131714873Y-112538000D01*
X131693188Y-112428984D01*
X131631436Y-112336564D01*
X131539016Y-112274812D01*
X131430000Y-112253127D01*
X129800600Y-112253127D01*
X129800600Y-110106557D01*
X130127330Y-110324871D01*
X130456765Y-110390400D01*
X130679235Y-110390400D01*
X131008670Y-110324871D01*
X131382252Y-110075252D01*
X131631871Y-109701670D01*
X131719526Y-109261000D01*
X131631871Y-108820330D01*
X131382252Y-108446748D01*
X131008670Y-108197129D01*
X130679235Y-108131600D01*
X130456765Y-108131600D01*
X130127330Y-108197129D01*
X129821403Y-108401543D01*
X130386519Y-107836427D01*
X130456765Y-107850400D01*
X130679235Y-107850400D01*
X131008670Y-107784871D01*
X131382252Y-107535252D01*
X131631871Y-107161670D01*
X131719526Y-106721000D01*
X131683427Y-106539518D01*
X135271078Y-102951868D01*
X135326222Y-102915022D01*
X135472183Y-102696575D01*
X135510500Y-102503943D01*
X135510500Y-102503942D01*
X135523438Y-102438900D01*
X135510500Y-102373858D01*
X135510500Y-99053445D01*
X141452600Y-93111346D01*
X141452600Y-94017406D01*
X141151890Y-94318116D01*
X141122641Y-94306000D01*
X140852359Y-94306000D01*
X140602651Y-94409433D01*
X140411533Y-94600551D01*
X140308100Y-94850259D01*
X140308100Y-95120541D01*
X140411533Y-95370249D01*
X140602651Y-95561367D01*
X140852359Y-95664800D01*
X141122641Y-95664800D01*
X141372349Y-95561367D01*
X141452600Y-95481116D01*
X141452600Y-97663000D01*
X141473868Y-97769922D01*
X141534434Y-97860566D01*
X141625078Y-97921132D01*
X141732000Y-97942400D01*
X152908000Y-97942400D01*
X153014922Y-97921132D01*
X153066750Y-97886502D01*
X153118578Y-97921132D01*
X153225500Y-97942400D01*
X155748202Y-97942400D01*
X155840159Y-97980490D01*
X156110441Y-97980490D01*
X156129971Y-97972400D01*
X156129970Y-104376400D01*
X156078733Y-104355177D01*
X155808451Y-104355177D01*
X155558743Y-104458610D01*
X155431789Y-104585565D01*
X155317506Y-104471282D01*
X155297668Y-104441592D01*
X155180043Y-104362998D01*
X155076315Y-104342365D01*
X155041295Y-104335399D01*
X155013400Y-104340948D01*
X155069917Y-104204505D01*
X155069917Y-103934223D01*
X154966484Y-103684515D01*
X154775366Y-103493397D01*
X154525658Y-103389964D01*
X154255376Y-103389964D01*
X154226127Y-103402080D01*
X153346164Y-102522117D01*
X153326326Y-102492427D01*
X153208701Y-102413833D01*
X153104973Y-102393200D01*
X153069953Y-102386234D01*
X153034933Y-102393200D01*
X149637120Y-102393200D01*
X149602100Y-102386234D01*
X149463352Y-102413833D01*
X149428152Y-102437353D01*
X149345727Y-102492427D01*
X149325891Y-102522114D01*
X136231515Y-115616491D01*
X136201828Y-115636327D01*
X136181992Y-115666014D01*
X136181990Y-115666016D01*
X136123233Y-115753953D01*
X136095634Y-115892700D01*
X136102601Y-115927725D01*
X136102600Y-116931717D01*
X136073351Y-116943833D01*
X135882233Y-117134951D01*
X135778800Y-117384659D01*
X135778800Y-117654941D01*
X135882233Y-117904649D01*
X136073351Y-118095767D01*
X136323059Y-118199200D01*
X136593341Y-118199200D01*
X136843049Y-118095767D01*
X137034167Y-117904649D01*
X137137600Y-117654941D01*
X137137600Y-117384659D01*
X137034167Y-117134951D01*
X136843049Y-116943833D01*
X136813800Y-116931718D01*
X136813800Y-116039994D01*
X147739501Y-105114294D01*
X147739500Y-123232280D01*
X147732534Y-123267300D01*
X147760133Y-123406047D01*
X147802197Y-123469000D01*
X147838727Y-123523672D01*
X147868415Y-123543509D01*
X148542289Y-124217383D01*
X148562127Y-124247073D01*
X148679462Y-124325473D01*
X148679752Y-124325667D01*
X148818499Y-124353266D01*
X148853519Y-124346300D01*
X154785706Y-124346300D01*
X160224291Y-129784886D01*
X160244127Y-129814573D01*
X160273814Y-129834409D01*
X160273815Y-129834410D01*
X160327978Y-129870600D01*
X128256900Y-129870600D01*
X128256900Y-127656000D01*
X129455474Y-127656000D01*
X129543129Y-128096670D01*
X129792748Y-128470252D01*
X130166330Y-128719871D01*
X130495765Y-128785400D01*
X130718235Y-128785400D01*
X131047670Y-128719871D01*
X131421252Y-128470252D01*
X131440296Y-128441750D01*
X144157000Y-128441750D01*
X144157000Y-129132309D01*
X144253673Y-129365698D01*
X144432301Y-129544327D01*
X144665690Y-129641000D01*
X145356250Y-129641000D01*
X145515000Y-129482250D01*
X145515000Y-128283000D01*
X144315750Y-128283000D01*
X144157000Y-128441750D01*
X131440296Y-128441750D01*
X131670871Y-128096670D01*
X131758526Y-127656000D01*
X131670871Y-127215330D01*
X131647058Y-127179691D01*
X144157000Y-127179691D01*
X144157000Y-127870250D01*
X144315750Y-128029000D01*
X145515000Y-128029000D01*
X145515000Y-126829750D01*
X145769000Y-126829750D01*
X145769000Y-128029000D01*
X145789000Y-128029000D01*
X145789000Y-128283000D01*
X145769000Y-128283000D01*
X145769000Y-129482250D01*
X145927750Y-129641000D01*
X146618310Y-129641000D01*
X146851699Y-129544327D01*
X147030327Y-129365698D01*
X147127000Y-129132309D01*
X147127000Y-128609946D01*
X147367748Y-128970252D01*
X147741330Y-129219871D01*
X148070765Y-129285400D01*
X148293235Y-129285400D01*
X148622670Y-129219871D01*
X148996252Y-128970252D01*
X149245871Y-128596670D01*
X149279272Y-128428750D01*
X152734000Y-128428750D01*
X152734000Y-129119309D01*
X152830673Y-129352698D01*
X153009301Y-129531327D01*
X153242690Y-129628000D01*
X153933250Y-129628000D01*
X154092000Y-129469250D01*
X154092000Y-128270000D01*
X152892750Y-128270000D01*
X152734000Y-128428750D01*
X149279272Y-128428750D01*
X149333526Y-128156000D01*
X149245871Y-127715330D01*
X148996252Y-127341748D01*
X148734261Y-127166691D01*
X152734000Y-127166691D01*
X152734000Y-127857250D01*
X152892750Y-128016000D01*
X154092000Y-128016000D01*
X154092000Y-126816750D01*
X154346000Y-126816750D01*
X154346000Y-128016000D01*
X154366000Y-128016000D01*
X154366000Y-128270000D01*
X154346000Y-128270000D01*
X154346000Y-129469250D01*
X154504750Y-129628000D01*
X155195310Y-129628000D01*
X155428699Y-129531327D01*
X155607327Y-129352698D01*
X155704000Y-129119309D01*
X155704000Y-128596946D01*
X155944748Y-128957252D01*
X156318330Y-129206871D01*
X156647765Y-129272400D01*
X156870235Y-129272400D01*
X157199670Y-129206871D01*
X157573252Y-128957252D01*
X157822871Y-128583670D01*
X157910526Y-128143000D01*
X157822871Y-127702330D01*
X157573252Y-127328748D01*
X157199670Y-127079129D01*
X156870235Y-127013600D01*
X156647765Y-127013600D01*
X156318330Y-127079129D01*
X155944748Y-127328748D01*
X155704000Y-127689054D01*
X155704000Y-127166691D01*
X155607327Y-126933302D01*
X155428699Y-126754673D01*
X155195310Y-126658000D01*
X154504750Y-126658000D01*
X154346000Y-126816750D01*
X154092000Y-126816750D01*
X153933250Y-126658000D01*
X153242690Y-126658000D01*
X153009301Y-126754673D01*
X152830673Y-126933302D01*
X152734000Y-127166691D01*
X148734261Y-127166691D01*
X148622670Y-127092129D01*
X148293235Y-127026600D01*
X148070765Y-127026600D01*
X147741330Y-127092129D01*
X147367748Y-127341748D01*
X147127000Y-127702054D01*
X147127000Y-127179691D01*
X147030327Y-126946302D01*
X146851699Y-126767673D01*
X146618310Y-126671000D01*
X145927750Y-126671000D01*
X145769000Y-126829750D01*
X145515000Y-126829750D01*
X145356250Y-126671000D01*
X144665690Y-126671000D01*
X144432301Y-126767673D01*
X144253673Y-126946302D01*
X144157000Y-127179691D01*
X131647058Y-127179691D01*
X131421252Y-126841748D01*
X131047670Y-126592129D01*
X130718235Y-126526600D01*
X130495765Y-126526600D01*
X130166330Y-126592129D01*
X129792748Y-126841748D01*
X129543129Y-127215330D01*
X129455474Y-127656000D01*
X128256900Y-127656000D01*
X128256900Y-94349240D01*
X133146600Y-94349240D01*
X133146600Y-94758760D01*
X133303317Y-95137108D01*
X133592892Y-95426683D01*
X133971240Y-95583400D01*
X134380760Y-95583400D01*
X134759108Y-95426683D01*
X135048683Y-95137108D01*
X135205400Y-94758760D01*
X135205400Y-94349240D01*
X135048683Y-93970892D01*
X134759108Y-93681317D01*
X134380760Y-93524600D01*
X133971240Y-93524600D01*
X133592892Y-93681317D01*
X133303317Y-93970892D01*
X133146600Y-94349240D01*
X128256900Y-94349240D01*
X128256900Y-87349240D01*
X133146600Y-87349240D01*
X133146600Y-87758760D01*
X133303317Y-88137108D01*
X133592892Y-88426683D01*
X133971240Y-88583400D01*
X134380760Y-88583400D01*
X134759108Y-88426683D01*
X135048683Y-88137108D01*
X135205400Y-87758760D01*
X135205400Y-87349240D01*
X135048683Y-86970892D01*
X134759108Y-86681317D01*
X134380760Y-86524600D01*
X133971240Y-86524600D01*
X133592892Y-86681317D01*
X133303317Y-86970892D01*
X133146600Y-87349240D01*
X128256900Y-87349240D01*
X128256900Y-83425900D01*
X141452600Y-83425900D01*
X141452600Y-91243454D01*
G36*
X163722524Y-127786110D02*
X163843845Y-128016000D01*
X165037000Y-128016000D01*
X165037000Y-127996000D01*
X165291000Y-127996000D01*
X165291000Y-128016000D01*
X166484155Y-128016000D01*
X166605476Y-127786110D01*
X166453672Y-127419600D01*
X167493328Y-127419600D01*
X167341524Y-127786110D01*
X167462845Y-128016000D01*
X168656000Y-128016000D01*
X168656000Y-127996000D01*
X168910000Y-127996000D01*
X168910000Y-128016000D01*
X170103155Y-128016000D01*
X170224476Y-127786110D01*
X170072672Y-127419600D01*
X171112328Y-127419600D01*
X170960524Y-127786110D01*
X171081845Y-128016000D01*
X172275000Y-128016000D01*
X172275000Y-127996000D01*
X172529000Y-127996000D01*
X172529000Y-128016000D01*
X173722155Y-128016000D01*
X173843476Y-127786110D01*
X173691672Y-127419600D01*
X174732328Y-127419600D01*
X174580524Y-127786110D01*
X174701845Y-128016000D01*
X175895000Y-128016000D01*
X175895000Y-127996000D01*
X176149000Y-127996000D01*
X176149000Y-128016000D01*
X176169000Y-128016000D01*
X176169000Y-128270000D01*
X176149000Y-128270000D01*
X176149000Y-128290000D01*
X175895000Y-128290000D01*
X175895000Y-128270000D01*
X174701845Y-128270000D01*
X174580524Y-128499890D01*
X174742268Y-128890400D01*
X173681732Y-128890400D01*
X173843476Y-128499890D01*
X173722155Y-128270000D01*
X172529000Y-128270000D01*
X172529000Y-128290000D01*
X172275000Y-128290000D01*
X172275000Y-128270000D01*
X171081845Y-128270000D01*
X170960524Y-128499890D01*
X171122268Y-128890400D01*
X170062732Y-128890400D01*
X170224476Y-128499890D01*
X170103155Y-128270000D01*
X168910000Y-128270000D01*
X168910000Y-128290000D01*
X168656000Y-128290000D01*
X168656000Y-128270000D01*
X167462845Y-128270000D01*
X167341524Y-128499890D01*
X167503268Y-128890400D01*
X166443732Y-128890400D01*
X166605476Y-128499890D01*
X166484155Y-128270000D01*
X165291000Y-128270000D01*
X165291000Y-128290000D01*
X165037000Y-128290000D01*
X165037000Y-128270000D01*
X163843845Y-128270000D01*
X163722524Y-128499890D01*
X163884268Y-128890400D01*
X162823732Y-128890400D01*
X162985476Y-128499890D01*
X162864155Y-128270000D01*
X161671000Y-128270000D01*
X161671000Y-128290000D01*
X161417000Y-128290000D01*
X161417000Y-128270000D01*
X161397000Y-128270000D01*
X161397000Y-128016000D01*
X161417000Y-128016000D01*
X161417000Y-127996000D01*
X161671000Y-127996000D01*
X161671000Y-128016000D01*
X162864155Y-128016000D01*
X162985476Y-127786110D01*
X162833672Y-127419600D01*
X163874328Y-127419600D01*
X163722524Y-127786110D01*
X163722524Y-127786110D01*
G37*
X163722524Y-127786110D02*
X163843845Y-128016000D01*
X165037000Y-128016000D01*
X165037000Y-127996000D01*
X165291000Y-127996000D01*
X165291000Y-128016000D01*
X166484155Y-128016000D01*
X166605476Y-127786110D01*
X166453672Y-127419600D01*
X167493328Y-127419600D01*
X167341524Y-127786110D01*
X167462845Y-128016000D01*
X168656000Y-128016000D01*
X168656000Y-127996000D01*
X168910000Y-127996000D01*
X168910000Y-128016000D01*
X170103155Y-128016000D01*
X170224476Y-127786110D01*
X170072672Y-127419600D01*
X171112328Y-127419600D01*
X170960524Y-127786110D01*
X171081845Y-128016000D01*
X172275000Y-128016000D01*
X172275000Y-127996000D01*
X172529000Y-127996000D01*
X172529000Y-128016000D01*
X173722155Y-128016000D01*
X173843476Y-127786110D01*
X173691672Y-127419600D01*
X174732328Y-127419600D01*
X174580524Y-127786110D01*
X174701845Y-128016000D01*
X175895000Y-128016000D01*
X175895000Y-127996000D01*
X176149000Y-127996000D01*
X176149000Y-128016000D01*
X176169000Y-128016000D01*
X176169000Y-128270000D01*
X176149000Y-128270000D01*
X176149000Y-128290000D01*
X175895000Y-128290000D01*
X175895000Y-128270000D01*
X174701845Y-128270000D01*
X174580524Y-128499890D01*
X174742268Y-128890400D01*
X173681732Y-128890400D01*
X173843476Y-128499890D01*
X173722155Y-128270000D01*
X172529000Y-128270000D01*
X172529000Y-128290000D01*
X172275000Y-128290000D01*
X172275000Y-128270000D01*
X171081845Y-128270000D01*
X170960524Y-128499890D01*
X171122268Y-128890400D01*
X170062732Y-128890400D01*
X170224476Y-128499890D01*
X170103155Y-128270000D01*
X168910000Y-128270000D01*
X168910000Y-128290000D01*
X168656000Y-128290000D01*
X168656000Y-128270000D01*
X167462845Y-128270000D01*
X167341524Y-128499890D01*
X167503268Y-128890400D01*
X166443732Y-128890400D01*
X166605476Y-128499890D01*
X166484155Y-128270000D01*
X165291000Y-128270000D01*
X165291000Y-128290000D01*
X165037000Y-128290000D01*
X165037000Y-128270000D01*
X163843845Y-128270000D01*
X163722524Y-128499890D01*
X163884268Y-128890400D01*
X162823732Y-128890400D01*
X162985476Y-128499890D01*
X162864155Y-128270000D01*
X161671000Y-128270000D01*
X161671000Y-128290000D01*
X161417000Y-128290000D01*
X161417000Y-128270000D01*
X161397000Y-128270000D01*
X161397000Y-128016000D01*
X161417000Y-128016000D01*
X161417000Y-127996000D01*
X161671000Y-127996000D01*
X161671000Y-128016000D01*
X162864155Y-128016000D01*
X162985476Y-127786110D01*
X162833672Y-127419600D01*
X163874328Y-127419600D01*
X163722524Y-127786110D01*
G36*
X179769000Y-128016000D02*
X179789000Y-128016000D01*
X179789000Y-128270000D01*
X179769000Y-128270000D01*
X179769000Y-128290000D01*
X179515000Y-128290000D01*
X179515000Y-128270000D01*
X179495000Y-128270000D01*
X179495000Y-128016000D01*
X179515000Y-128016000D01*
X179515000Y-127996000D01*
X179769000Y-127996000D01*
X179769000Y-128016000D01*
X179769000Y-128016000D01*
G37*
X179769000Y-128016000D02*
X179789000Y-128016000D01*
X179789000Y-128270000D01*
X179769000Y-128270000D01*
X179769000Y-128290000D01*
X179515000Y-128290000D01*
X179515000Y-128270000D01*
X179495000Y-128270000D01*
X179495000Y-128016000D01*
X179515000Y-128016000D01*
X179515000Y-127996000D01*
X179769000Y-127996000D01*
X179769000Y-128016000D01*
G36*
X154457900Y-120886980D02*
X154450934Y-120922000D01*
X154478533Y-121060747D01*
X154492366Y-121081449D01*
X154557127Y-121178372D01*
X154586815Y-121198209D01*
X160507099Y-127118494D01*
X160272355Y-127376076D01*
X160118744Y-127746950D01*
X154209600Y-121837806D01*
X154209600Y-117870082D01*
X154238849Y-117857967D01*
X154429967Y-117666849D01*
X154457901Y-117599411D01*
X154457900Y-120886980D01*
X154457900Y-120886980D01*
G37*
X154457900Y-120886980D02*
X154450934Y-120922000D01*
X154478533Y-121060747D01*
X154492366Y-121081449D01*
X154557127Y-121178372D01*
X154586815Y-121198209D01*
X160507099Y-127118494D01*
X160272355Y-127376076D01*
X160118744Y-127746950D01*
X154209600Y-121837806D01*
X154209600Y-117870082D01*
X154238849Y-117857967D01*
X154429967Y-117666849D01*
X154457901Y-117599411D01*
X154457900Y-120886980D01*
G36*
X167348500Y-114600295D02*
X167348501Y-124489075D01*
X167341534Y-124524100D01*
X167369133Y-124662847D01*
X167427890Y-124750784D01*
X167427892Y-124750786D01*
X167447728Y-124780473D01*
X167477415Y-124800309D01*
X167767317Y-125090211D01*
X167719129Y-125162330D01*
X167631474Y-125603000D01*
X167719129Y-126043670D01*
X167917397Y-126340400D01*
X166029603Y-126340400D01*
X166227871Y-126043670D01*
X166315526Y-125603000D01*
X166227871Y-125162330D01*
X165978252Y-124788748D01*
X165604670Y-124539129D01*
X165275235Y-124473600D01*
X165052765Y-124473600D01*
X164723330Y-124539129D01*
X164349748Y-124788748D01*
X164100129Y-125162330D01*
X164012474Y-125603000D01*
X164100129Y-126043670D01*
X164298397Y-126340400D01*
X162409603Y-126340400D01*
X162607871Y-126043670D01*
X162695526Y-125603000D01*
X162607871Y-125162330D01*
X162358252Y-124788748D01*
X162204400Y-124685948D01*
X162204400Y-124197873D01*
X162394000Y-124197873D01*
X162503016Y-124176188D01*
X162595436Y-124114436D01*
X162657188Y-124022016D01*
X162678873Y-123913000D01*
X162678873Y-122213000D01*
X162657188Y-122103984D01*
X162595436Y-122011564D01*
X162503016Y-121949812D01*
X162394000Y-121928127D01*
X162204400Y-121928127D01*
X162204400Y-118507399D01*
X162216011Y-118449027D01*
X164808401Y-121041417D01*
X164808401Y-121928127D01*
X164314000Y-121928127D01*
X164204984Y-121949812D01*
X164112564Y-122011564D01*
X164050812Y-122103984D01*
X164029127Y-122213000D01*
X164029127Y-123913000D01*
X164050812Y-124022016D01*
X164112564Y-124114436D01*
X164204984Y-124176188D01*
X164314000Y-124197873D01*
X166014000Y-124197873D01*
X166123016Y-124176188D01*
X166215436Y-124114436D01*
X166277188Y-124022016D01*
X166298873Y-123913000D01*
X166298873Y-122213000D01*
X166277188Y-122103984D01*
X166215436Y-122011564D01*
X166123016Y-121949812D01*
X166014000Y-121928127D01*
X165519600Y-121928127D01*
X165519600Y-120929142D01*
X165526566Y-120894122D01*
X165498967Y-120755374D01*
X165483095Y-120731620D01*
X165420373Y-120637749D01*
X165390683Y-120617911D01*
X160817815Y-116045043D01*
X160817813Y-116045040D01*
X160808889Y-116036116D01*
X160821004Y-116006867D01*
X160821004Y-115736585D01*
X160717571Y-115486877D01*
X160526453Y-115295759D01*
X160276745Y-115192326D01*
X160094426Y-115192326D01*
X160094426Y-115163457D01*
X160553883Y-114704000D01*
X166077318Y-114704000D01*
X166089433Y-114733249D01*
X166280551Y-114924367D01*
X166530259Y-115027800D01*
X166800541Y-115027800D01*
X167050249Y-114924367D01*
X167241367Y-114733249D01*
X167311687Y-114563482D01*
X167348500Y-114600295D01*
X167348500Y-114600295D01*
G37*
X167348500Y-114600295D02*
X167348501Y-124489075D01*
X167341534Y-124524100D01*
X167369133Y-124662847D01*
X167427890Y-124750784D01*
X167427892Y-124750786D01*
X167447728Y-124780473D01*
X167477415Y-124800309D01*
X167767317Y-125090211D01*
X167719129Y-125162330D01*
X167631474Y-125603000D01*
X167719129Y-126043670D01*
X167917397Y-126340400D01*
X166029603Y-126340400D01*
X166227871Y-126043670D01*
X166315526Y-125603000D01*
X166227871Y-125162330D01*
X165978252Y-124788748D01*
X165604670Y-124539129D01*
X165275235Y-124473600D01*
X165052765Y-124473600D01*
X164723330Y-124539129D01*
X164349748Y-124788748D01*
X164100129Y-125162330D01*
X164012474Y-125603000D01*
X164100129Y-126043670D01*
X164298397Y-126340400D01*
X162409603Y-126340400D01*
X162607871Y-126043670D01*
X162695526Y-125603000D01*
X162607871Y-125162330D01*
X162358252Y-124788748D01*
X162204400Y-124685948D01*
X162204400Y-124197873D01*
X162394000Y-124197873D01*
X162503016Y-124176188D01*
X162595436Y-124114436D01*
X162657188Y-124022016D01*
X162678873Y-123913000D01*
X162678873Y-122213000D01*
X162657188Y-122103984D01*
X162595436Y-122011564D01*
X162503016Y-121949812D01*
X162394000Y-121928127D01*
X162204400Y-121928127D01*
X162204400Y-118507399D01*
X162216011Y-118449027D01*
X164808401Y-121041417D01*
X164808401Y-121928127D01*
X164314000Y-121928127D01*
X164204984Y-121949812D01*
X164112564Y-122011564D01*
X164050812Y-122103984D01*
X164029127Y-122213000D01*
X164029127Y-123913000D01*
X164050812Y-124022016D01*
X164112564Y-124114436D01*
X164204984Y-124176188D01*
X164314000Y-124197873D01*
X166014000Y-124197873D01*
X166123016Y-124176188D01*
X166215436Y-124114436D01*
X166277188Y-124022016D01*
X166298873Y-123913000D01*
X166298873Y-122213000D01*
X166277188Y-122103984D01*
X166215436Y-122011564D01*
X166123016Y-121949812D01*
X166014000Y-121928127D01*
X165519600Y-121928127D01*
X165519600Y-120929142D01*
X165526566Y-120894122D01*
X165498967Y-120755374D01*
X165483095Y-120731620D01*
X165420373Y-120637749D01*
X165390683Y-120617911D01*
X160817815Y-116045043D01*
X160817813Y-116045040D01*
X160808889Y-116036116D01*
X160821004Y-116006867D01*
X160821004Y-115736585D01*
X160717571Y-115486877D01*
X160526453Y-115295759D01*
X160276745Y-115192326D01*
X160094426Y-115192326D01*
X160094426Y-115163457D01*
X160553883Y-114704000D01*
X166077318Y-114704000D01*
X166089433Y-114733249D01*
X166280551Y-114924367D01*
X166530259Y-115027800D01*
X166800541Y-115027800D01*
X167050249Y-114924367D01*
X167241367Y-114733249D01*
X167311687Y-114563482D01*
X167348500Y-114600295D01*
G36*
X175463132Y-121928127D02*
X175172000Y-121928127D01*
X175062984Y-121949812D01*
X174970564Y-122011564D01*
X174908812Y-122103984D01*
X174887127Y-122213000D01*
X174887127Y-123913000D01*
X174907615Y-124016000D01*
X173516385Y-124016000D01*
X173536873Y-123913000D01*
X173536873Y-122213000D01*
X173515188Y-122103984D01*
X173453436Y-122011564D01*
X173361016Y-121949812D01*
X173252000Y-121928127D01*
X171552000Y-121928127D01*
X171442984Y-121949812D01*
X171350564Y-122011564D01*
X171288812Y-122103984D01*
X171267127Y-122213000D01*
X171267127Y-123913000D01*
X171288812Y-124022016D01*
X171350564Y-124114436D01*
X171442984Y-124176188D01*
X171552000Y-124197873D01*
X171740632Y-124197873D01*
X169750286Y-126188220D01*
X169846871Y-126043670D01*
X169934526Y-125603000D01*
X169846871Y-125162330D01*
X169597252Y-124788748D01*
X169223670Y-124539129D01*
X168894235Y-124473600D01*
X168671765Y-124473600D01*
X168342330Y-124539129D01*
X168270211Y-124587317D01*
X168059700Y-124376806D01*
X168059700Y-124197873D01*
X169633000Y-124197873D01*
X169742016Y-124176188D01*
X169834436Y-124114436D01*
X169896188Y-124022016D01*
X169917873Y-123913000D01*
X169917873Y-122213000D01*
X169896188Y-122103984D01*
X169834436Y-122011564D01*
X169742016Y-121949812D01*
X169633000Y-121928127D01*
X168059700Y-121928127D01*
X168059700Y-114524694D01*
X175463132Y-121928127D01*
X175463132Y-121928127D01*
G37*
X175463132Y-121928127D02*
X175172000Y-121928127D01*
X175062984Y-121949812D01*
X174970564Y-122011564D01*
X174908812Y-122103984D01*
X174887127Y-122213000D01*
X174887127Y-123913000D01*
X174907615Y-124016000D01*
X173516385Y-124016000D01*
X173536873Y-123913000D01*
X173536873Y-122213000D01*
X173515188Y-122103984D01*
X173453436Y-122011564D01*
X173361016Y-121949812D01*
X173252000Y-121928127D01*
X171552000Y-121928127D01*
X171442984Y-121949812D01*
X171350564Y-122011564D01*
X171288812Y-122103984D01*
X171267127Y-122213000D01*
X171267127Y-123913000D01*
X171288812Y-124022016D01*
X171350564Y-124114436D01*
X171442984Y-124176188D01*
X171552000Y-124197873D01*
X171740632Y-124197873D01*
X169750286Y-126188220D01*
X169846871Y-126043670D01*
X169934526Y-125603000D01*
X169846871Y-125162330D01*
X169597252Y-124788748D01*
X169223670Y-124539129D01*
X168894235Y-124473600D01*
X168671765Y-124473600D01*
X168342330Y-124539129D01*
X168270211Y-124587317D01*
X168059700Y-124376806D01*
X168059700Y-124197873D01*
X169633000Y-124197873D01*
X169742016Y-124176188D01*
X169834436Y-124114436D01*
X169896188Y-124022016D01*
X169917873Y-123913000D01*
X169917873Y-122213000D01*
X169896188Y-122103984D01*
X169834436Y-122011564D01*
X169742016Y-121949812D01*
X169633000Y-121928127D01*
X168059700Y-121928127D01*
X168059700Y-114524694D01*
X175463132Y-121928127D01*
G36*
X158080901Y-118354796D02*
X158080900Y-122488180D01*
X158073934Y-122523200D01*
X158101533Y-122661947D01*
X158131904Y-122707400D01*
X158180127Y-122779572D01*
X158209815Y-122799409D01*
X159043815Y-123633410D01*
X159031700Y-123662659D01*
X159031700Y-123932941D01*
X159135133Y-124182649D01*
X159326251Y-124373767D01*
X159575959Y-124477200D01*
X159846241Y-124477200D01*
X159899000Y-124455346D01*
X159899000Y-124658441D01*
X160002433Y-124908149D01*
X160193551Y-125099267D01*
X160443259Y-125202700D01*
X160472099Y-125202700D01*
X160413780Y-125495886D01*
X155942300Y-121024406D01*
X155942300Y-116661975D01*
X155949266Y-116626956D01*
X155941596Y-116588400D01*
X155921667Y-116488209D01*
X155843073Y-116370584D01*
X155813383Y-116350746D01*
X152880706Y-113418069D01*
X152880704Y-113418066D01*
X152871780Y-113409142D01*
X152883895Y-113379893D01*
X152883895Y-113157789D01*
X158080901Y-118354796D01*
X158080901Y-118354796D01*
G37*
X158080901Y-118354796D02*
X158080900Y-122488180D01*
X158073934Y-122523200D01*
X158101533Y-122661947D01*
X158131904Y-122707400D01*
X158180127Y-122779572D01*
X158209815Y-122799409D01*
X159043815Y-123633410D01*
X159031700Y-123662659D01*
X159031700Y-123932941D01*
X159135133Y-124182649D01*
X159326251Y-124373767D01*
X159575959Y-124477200D01*
X159846241Y-124477200D01*
X159899000Y-124455346D01*
X159899000Y-124658441D01*
X160002433Y-124908149D01*
X160193551Y-125099267D01*
X160443259Y-125202700D01*
X160472099Y-125202700D01*
X160413780Y-125495886D01*
X155942300Y-121024406D01*
X155942300Y-116661975D01*
X155949266Y-116626956D01*
X155941596Y-116588400D01*
X155921667Y-116488209D01*
X155843073Y-116370584D01*
X155813383Y-116350746D01*
X152880706Y-113418069D01*
X152880704Y-113418066D01*
X152871780Y-113409142D01*
X152883895Y-113379893D01*
X152883895Y-113157789D01*
X158080901Y-118354796D01*
G36*
X153498400Y-121950080D02*
X153491434Y-121985100D01*
X153498400Y-122020119D01*
X153519033Y-122123847D01*
X153597627Y-122241472D01*
X153627315Y-122261309D01*
X155009321Y-123643315D01*
X154968020Y-123635100D01*
X154933000Y-123628134D01*
X154897980Y-123635100D01*
X153560416Y-123635100D01*
X153668267Y-123527249D01*
X153771700Y-123277541D01*
X153771700Y-123007259D01*
X153668267Y-122757551D01*
X153477149Y-122566433D01*
X153447900Y-122554318D01*
X153447900Y-118917694D01*
X153490283Y-118875311D01*
X153498401Y-118869887D01*
X153498400Y-121950080D01*
X153498400Y-121950080D01*
G37*
X153498400Y-121950080D02*
X153491434Y-121985100D01*
X153498400Y-122020119D01*
X153519033Y-122123847D01*
X153597627Y-122241472D01*
X153627315Y-122261309D01*
X155009321Y-123643315D01*
X154968020Y-123635100D01*
X154933000Y-123628134D01*
X154897980Y-123635100D01*
X153560416Y-123635100D01*
X153668267Y-123527249D01*
X153771700Y-123277541D01*
X153771700Y-123007259D01*
X153668267Y-122757551D01*
X153477149Y-122566433D01*
X153447900Y-122554318D01*
X153447900Y-118917694D01*
X153490283Y-118875311D01*
X153498401Y-118869887D01*
X153498400Y-121950080D01*
G36*
X152727251Y-116842467D02*
X152736700Y-116846381D01*
X152736701Y-117446475D01*
X152729734Y-117481500D01*
X152757333Y-117620247D01*
X152816090Y-117708184D01*
X152816092Y-117708186D01*
X152835928Y-117737873D01*
X152865615Y-117757709D01*
X152908000Y-117800094D01*
X152908001Y-118451805D01*
X152865615Y-118494191D01*
X152835927Y-118514028D01*
X152816091Y-118543715D01*
X152816090Y-118543716D01*
X152757333Y-118631653D01*
X152729734Y-118770400D01*
X152736700Y-118805420D01*
X152736700Y-119141781D01*
X152736701Y-122554317D01*
X152707451Y-122566433D01*
X152516333Y-122757551D01*
X152412900Y-123007259D01*
X152412900Y-123277541D01*
X152516333Y-123527249D01*
X152624184Y-123635100D01*
X148965794Y-123635100D01*
X148964987Y-123634293D01*
X149121249Y-123569567D01*
X149312367Y-123378449D01*
X149415800Y-123128741D01*
X149415800Y-122858459D01*
X149403684Y-122829210D01*
X152272983Y-119959911D01*
X152302673Y-119940073D01*
X152381267Y-119822448D01*
X152401900Y-119718720D01*
X152401900Y-119718716D01*
X152408865Y-119683701D01*
X152401900Y-119648686D01*
X152401900Y-118449819D01*
X152408866Y-118414799D01*
X152386148Y-118300589D01*
X152381267Y-118276052D01*
X152302672Y-118158427D01*
X152298400Y-118155573D01*
X152298400Y-117706928D01*
X152302673Y-117704073D01*
X152381267Y-117586448D01*
X152401900Y-117482720D01*
X152408866Y-117447701D01*
X152401900Y-117412681D01*
X152401900Y-116795282D01*
X152431149Y-116783167D01*
X152549550Y-116664766D01*
X152727251Y-116842467D01*
X152727251Y-116842467D01*
G37*
X152727251Y-116842467D02*
X152736700Y-116846381D01*
X152736701Y-117446475D01*
X152729734Y-117481500D01*
X152757333Y-117620247D01*
X152816090Y-117708184D01*
X152816092Y-117708186D01*
X152835928Y-117737873D01*
X152865615Y-117757709D01*
X152908000Y-117800094D01*
X152908001Y-118451805D01*
X152865615Y-118494191D01*
X152835927Y-118514028D01*
X152816091Y-118543715D01*
X152816090Y-118543716D01*
X152757333Y-118631653D01*
X152729734Y-118770400D01*
X152736700Y-118805420D01*
X152736700Y-119141781D01*
X152736701Y-122554317D01*
X152707451Y-122566433D01*
X152516333Y-122757551D01*
X152412900Y-123007259D01*
X152412900Y-123277541D01*
X152516333Y-123527249D01*
X152624184Y-123635100D01*
X148965794Y-123635100D01*
X148964987Y-123634293D01*
X149121249Y-123569567D01*
X149312367Y-123378449D01*
X149415800Y-123128741D01*
X149415800Y-122858459D01*
X149403684Y-122829210D01*
X152272983Y-119959911D01*
X152302673Y-119940073D01*
X152381267Y-119822448D01*
X152401900Y-119718720D01*
X152401900Y-119718716D01*
X152408865Y-119683701D01*
X152401900Y-119648686D01*
X152401900Y-118449819D01*
X152408866Y-118414799D01*
X152386148Y-118300589D01*
X152381267Y-118276052D01*
X152302672Y-118158427D01*
X152298400Y-118155573D01*
X152298400Y-117706928D01*
X152302673Y-117704073D01*
X152381267Y-117586448D01*
X152401900Y-117482720D01*
X152408866Y-117447701D01*
X152401900Y-117412681D01*
X152401900Y-116795282D01*
X152431149Y-116783167D01*
X152549550Y-116664766D01*
X152727251Y-116842467D01*
G36*
X158840415Y-120759510D02*
X158828300Y-120788759D01*
X158828300Y-121059041D01*
X158931733Y-121308749D01*
X159122851Y-121499867D01*
X159372559Y-121603300D01*
X159642841Y-121603300D01*
X159892549Y-121499867D01*
X160083667Y-121308749D01*
X160100068Y-121269155D01*
X160100067Y-123225951D01*
X160095949Y-123221833D01*
X159846241Y-123118400D01*
X159575959Y-123118400D01*
X159546710Y-123130515D01*
X158792100Y-122375906D01*
X158792100Y-120711194D01*
X158840415Y-120759510D01*
X158840415Y-120759510D01*
G37*
X158840415Y-120759510D02*
X158828300Y-120788759D01*
X158828300Y-121059041D01*
X158931733Y-121308749D01*
X159122851Y-121499867D01*
X159372559Y-121603300D01*
X159642841Y-121603300D01*
X159892549Y-121499867D01*
X160083667Y-121308749D01*
X160100068Y-121269155D01*
X160100067Y-123225951D01*
X160095949Y-123221833D01*
X159846241Y-123118400D01*
X159575959Y-123118400D01*
X159546710Y-123130515D01*
X158792100Y-122375906D01*
X158792100Y-120711194D01*
X158840415Y-120759510D01*
G36*
X148606251Y-108233667D02*
X148635500Y-108245783D01*
X148635500Y-108727080D01*
X148628534Y-108762100D01*
X148637373Y-108806534D01*
X148656133Y-108900847D01*
X148734727Y-109018472D01*
X148764415Y-109038309D01*
X152291458Y-112565352D01*
X152069354Y-112565352D01*
X151819646Y-112668785D01*
X151628528Y-112859903D01*
X151525095Y-113109611D01*
X151525095Y-113379893D01*
X151628528Y-113629601D01*
X151819646Y-113820719D01*
X152069354Y-113924152D01*
X152339636Y-113924152D01*
X152368885Y-113912037D01*
X152377809Y-113920961D01*
X152377812Y-113920963D01*
X154777549Y-116320700D01*
X154678359Y-116320700D01*
X154428651Y-116424133D01*
X154237533Y-116615251D01*
X154205629Y-116692273D01*
X153989141Y-116602600D01*
X153718859Y-116602600D01*
X153706064Y-116607900D01*
X153791500Y-116401641D01*
X153791500Y-116131359D01*
X153688067Y-115881651D01*
X153496949Y-115690533D01*
X153247241Y-115587100D01*
X152976959Y-115587100D01*
X152727251Y-115690533D01*
X152608850Y-115808934D01*
X152545101Y-115745185D01*
X152678945Y-115611341D01*
X152782378Y-115361633D01*
X152782378Y-115091351D01*
X152678945Y-114841643D01*
X152487827Y-114650525D01*
X152238119Y-114547092D01*
X151967837Y-114547092D01*
X151718129Y-114650525D01*
X151527011Y-114841643D01*
X151423578Y-115091351D01*
X151423578Y-115361633D01*
X151435693Y-115390882D01*
X149416615Y-117409961D01*
X149386928Y-117429797D01*
X149367092Y-117459484D01*
X149367090Y-117459486D01*
X149308333Y-117547423D01*
X149280734Y-117686170D01*
X149287701Y-117721195D01*
X149287700Y-120108518D01*
X149258451Y-120120633D01*
X149067333Y-120311751D01*
X148963900Y-120561459D01*
X148963900Y-120831741D01*
X149067333Y-121081449D01*
X149258451Y-121272567D01*
X149508159Y-121376000D01*
X149778441Y-121376000D01*
X149902488Y-121324618D01*
X148900790Y-122326316D01*
X148871541Y-122314200D01*
X148601259Y-122314200D01*
X148450700Y-122376564D01*
X148450700Y-108078116D01*
X148606251Y-108233667D01*
X148606251Y-108233667D01*
G37*
X148606251Y-108233667D02*
X148635500Y-108245783D01*
X148635500Y-108727080D01*
X148628534Y-108762100D01*
X148637373Y-108806534D01*
X148656133Y-108900847D01*
X148734727Y-109018472D01*
X148764415Y-109038309D01*
X152291458Y-112565352D01*
X152069354Y-112565352D01*
X151819646Y-112668785D01*
X151628528Y-112859903D01*
X151525095Y-113109611D01*
X151525095Y-113379893D01*
X151628528Y-113629601D01*
X151819646Y-113820719D01*
X152069354Y-113924152D01*
X152339636Y-113924152D01*
X152368885Y-113912037D01*
X152377809Y-113920961D01*
X152377812Y-113920963D01*
X154777549Y-116320700D01*
X154678359Y-116320700D01*
X154428651Y-116424133D01*
X154237533Y-116615251D01*
X154205629Y-116692273D01*
X153989141Y-116602600D01*
X153718859Y-116602600D01*
X153706064Y-116607900D01*
X153791500Y-116401641D01*
X153791500Y-116131359D01*
X153688067Y-115881651D01*
X153496949Y-115690533D01*
X153247241Y-115587100D01*
X152976959Y-115587100D01*
X152727251Y-115690533D01*
X152608850Y-115808934D01*
X152545101Y-115745185D01*
X152678945Y-115611341D01*
X152782378Y-115361633D01*
X152782378Y-115091351D01*
X152678945Y-114841643D01*
X152487827Y-114650525D01*
X152238119Y-114547092D01*
X151967837Y-114547092D01*
X151718129Y-114650525D01*
X151527011Y-114841643D01*
X151423578Y-115091351D01*
X151423578Y-115361633D01*
X151435693Y-115390882D01*
X149416615Y-117409961D01*
X149386928Y-117429797D01*
X149367092Y-117459484D01*
X149367090Y-117459486D01*
X149308333Y-117547423D01*
X149280734Y-117686170D01*
X149287701Y-117721195D01*
X149287700Y-120108518D01*
X149258451Y-120120633D01*
X149067333Y-120311751D01*
X148963900Y-120561459D01*
X148963900Y-120831741D01*
X149067333Y-121081449D01*
X149258451Y-121272567D01*
X149508159Y-121376000D01*
X149778441Y-121376000D01*
X149902488Y-121324618D01*
X148900790Y-122326316D01*
X148871541Y-122314200D01*
X148601259Y-122314200D01*
X148450700Y-122376564D01*
X148450700Y-108078116D01*
X148606251Y-108233667D01*
G36*
X166892400Y-109189359D02*
X166892400Y-109459641D01*
X166995833Y-109709349D01*
X167186951Y-109900467D01*
X167436659Y-110003900D01*
X167706941Y-110003900D01*
X167956649Y-109900467D01*
X168025618Y-109831498D01*
X168090133Y-109987249D01*
X168281251Y-110178367D01*
X168310501Y-110190483D01*
X168310501Y-110398332D01*
X168303542Y-110434531D01*
X168317566Y-110502736D01*
X168331134Y-110570948D01*
X168331794Y-110571935D01*
X168332033Y-110573099D01*
X168371082Y-110630735D01*
X168409728Y-110688573D01*
X168440375Y-110709051D01*
X171392189Y-113623136D01*
X171392190Y-115450764D01*
X171385223Y-115485789D01*
X171412822Y-115624536D01*
X171471579Y-115712473D01*
X171471581Y-115712475D01*
X171491417Y-115742162D01*
X171521104Y-115761998D01*
X172507791Y-116748686D01*
X172527627Y-116778373D01*
X172557314Y-116798209D01*
X172557315Y-116798210D01*
X172645252Y-116856967D01*
X172651527Y-116858215D01*
X172651527Y-117385600D01*
X172673212Y-117494616D01*
X172734964Y-117587036D01*
X172827384Y-117648788D01*
X172936400Y-117670473D01*
X174606401Y-117670473D01*
X174606401Y-118717575D01*
X174599434Y-118752600D01*
X174627033Y-118891347D01*
X174685790Y-118979284D01*
X174685792Y-118979286D01*
X174705628Y-119008973D01*
X174735315Y-119028809D01*
X176745400Y-121038895D01*
X176745400Y-121928127D01*
X176373432Y-121928127D01*
X176356967Y-121845352D01*
X176298210Y-121757415D01*
X176298209Y-121757414D01*
X176278373Y-121727727D01*
X176248686Y-121707891D01*
X166950111Y-112409317D01*
X166930273Y-112379627D01*
X166812648Y-112301033D01*
X166708920Y-112280400D01*
X166673900Y-112273434D01*
X166638880Y-112280400D01*
X162108782Y-112280400D01*
X162096667Y-112251151D01*
X161905549Y-112060033D01*
X161899675Y-112057600D01*
X163786980Y-112057600D01*
X163822000Y-112064566D01*
X163857020Y-112057600D01*
X163960748Y-112036967D01*
X164078373Y-111958373D01*
X164098211Y-111928683D01*
X166931196Y-109095698D01*
X166892400Y-109189359D01*
X166892400Y-109189359D01*
G37*
X166892400Y-109189359D02*
X166892400Y-109459641D01*
X166995833Y-109709349D01*
X167186951Y-109900467D01*
X167436659Y-110003900D01*
X167706941Y-110003900D01*
X167956649Y-109900467D01*
X168025618Y-109831498D01*
X168090133Y-109987249D01*
X168281251Y-110178367D01*
X168310501Y-110190483D01*
X168310501Y-110398332D01*
X168303542Y-110434531D01*
X168317566Y-110502736D01*
X168331134Y-110570948D01*
X168331794Y-110571935D01*
X168332033Y-110573099D01*
X168371082Y-110630735D01*
X168409728Y-110688573D01*
X168440375Y-110709051D01*
X171392189Y-113623136D01*
X171392190Y-115450764D01*
X171385223Y-115485789D01*
X171412822Y-115624536D01*
X171471579Y-115712473D01*
X171471581Y-115712475D01*
X171491417Y-115742162D01*
X171521104Y-115761998D01*
X172507791Y-116748686D01*
X172527627Y-116778373D01*
X172557314Y-116798209D01*
X172557315Y-116798210D01*
X172645252Y-116856967D01*
X172651527Y-116858215D01*
X172651527Y-117385600D01*
X172673212Y-117494616D01*
X172734964Y-117587036D01*
X172827384Y-117648788D01*
X172936400Y-117670473D01*
X174606401Y-117670473D01*
X174606401Y-118717575D01*
X174599434Y-118752600D01*
X174627033Y-118891347D01*
X174685790Y-118979284D01*
X174685792Y-118979286D01*
X174705628Y-119008973D01*
X174735315Y-119028809D01*
X176745400Y-121038895D01*
X176745400Y-121928127D01*
X176373432Y-121928127D01*
X176356967Y-121845352D01*
X176298210Y-121757415D01*
X176298209Y-121757414D01*
X176278373Y-121727727D01*
X176248686Y-121707891D01*
X166950111Y-112409317D01*
X166930273Y-112379627D01*
X166812648Y-112301033D01*
X166708920Y-112280400D01*
X166673900Y-112273434D01*
X166638880Y-112280400D01*
X162108782Y-112280400D01*
X162096667Y-112251151D01*
X161905549Y-112060033D01*
X161899675Y-112057600D01*
X163786980Y-112057600D01*
X163822000Y-112064566D01*
X163857020Y-112057600D01*
X163960748Y-112036967D01*
X164078373Y-111958373D01*
X164098211Y-111928683D01*
X166931196Y-109095698D01*
X166892400Y-109189359D01*
G36*
X151470333Y-116592049D02*
X151661451Y-116783167D01*
X151690700Y-116795283D01*
X151690701Y-117291972D01*
X151686427Y-117294828D01*
X151666591Y-117324515D01*
X151666590Y-117324516D01*
X151607833Y-117412453D01*
X151580234Y-117551200D01*
X151587200Y-117586220D01*
X151587201Y-118276276D01*
X151580234Y-118311300D01*
X151607833Y-118450047D01*
X151666590Y-118537984D01*
X151666592Y-118537986D01*
X151686428Y-118567673D01*
X151690700Y-118570528D01*
X151690701Y-119536405D01*
X150271318Y-120955788D01*
X150322700Y-120831741D01*
X150322700Y-120561459D01*
X150219267Y-120311751D01*
X150028149Y-120120633D01*
X149998900Y-120108518D01*
X149998900Y-117833464D01*
X151402962Y-116429402D01*
X151470333Y-116592049D01*
X151470333Y-116592049D01*
G37*
X151470333Y-116592049D02*
X151661451Y-116783167D01*
X151690700Y-116795283D01*
X151690701Y-117291972D01*
X151686427Y-117294828D01*
X151666591Y-117324515D01*
X151666590Y-117324516D01*
X151607833Y-117412453D01*
X151580234Y-117551200D01*
X151587200Y-117586220D01*
X151587201Y-118276276D01*
X151580234Y-118311300D01*
X151607833Y-118450047D01*
X151666590Y-118537984D01*
X151666592Y-118537986D01*
X151686428Y-118567673D01*
X151690700Y-118570528D01*
X151690701Y-119536405D01*
X150271318Y-120955788D01*
X150322700Y-120831741D01*
X150322700Y-120561459D01*
X150219267Y-120311751D01*
X150028149Y-120120633D01*
X149998900Y-120108518D01*
X149998900Y-117833464D01*
X151402962Y-116429402D01*
X151470333Y-116592049D01*
G36*
X171846129Y-104580670D02*
X172095748Y-104954252D01*
X172469330Y-105203871D01*
X172798765Y-105269400D01*
X173021235Y-105269400D01*
X173350670Y-105203871D01*
X173422789Y-105155683D01*
X174606400Y-106339294D01*
X174606401Y-113146145D01*
X174245976Y-112905318D01*
X173912572Y-112839000D01*
X173687428Y-112839000D01*
X173354024Y-112905318D01*
X172975943Y-113157943D01*
X172723318Y-113536024D01*
X172634608Y-113982000D01*
X172723318Y-114427976D01*
X172975943Y-114806057D01*
X173354024Y-115058682D01*
X173687428Y-115125000D01*
X173912572Y-115125000D01*
X174245976Y-115058682D01*
X174606401Y-114817855D01*
X174606401Y-115373527D01*
X172936400Y-115373527D01*
X172827384Y-115395212D01*
X172734964Y-115456964D01*
X172673212Y-115549384D01*
X172651527Y-115658400D01*
X172651527Y-115886632D01*
X172103389Y-115338495D01*
X172103389Y-113508363D01*
X172110347Y-113472168D01*
X172096348Y-113404083D01*
X172082756Y-113335752D01*
X172082095Y-113334763D01*
X172081856Y-113333600D01*
X172042826Y-113275993D01*
X172004161Y-113218127D01*
X171973514Y-113197649D01*
X169021700Y-110283564D01*
X169021700Y-110190482D01*
X169050949Y-110178367D01*
X169242067Y-109987249D01*
X169345500Y-109737541D01*
X169345500Y-109467259D01*
X169276219Y-109300000D01*
X170503706Y-109300000D01*
X172723415Y-111519710D01*
X172711300Y-111548959D01*
X172711300Y-111819241D01*
X172814733Y-112068949D01*
X173005851Y-112260067D01*
X173255559Y-112363500D01*
X173525841Y-112363500D01*
X173775549Y-112260067D01*
X173966667Y-112068949D01*
X174070100Y-111819241D01*
X174070100Y-111548959D01*
X173966667Y-111299251D01*
X173775549Y-111108133D01*
X173525841Y-111004700D01*
X173255559Y-111004700D01*
X173226310Y-111016815D01*
X170927211Y-108717717D01*
X170907373Y-108688027D01*
X170789748Y-108609433D01*
X170686020Y-108588800D01*
X170651000Y-108581834D01*
X170615980Y-108588800D01*
X167986920Y-108588800D01*
X167951900Y-108581834D01*
X167916880Y-108588800D01*
X167813152Y-108609433D01*
X167739554Y-108658609D01*
X167706941Y-108645100D01*
X167436659Y-108645100D01*
X167342998Y-108683896D01*
X171779780Y-104247114D01*
X171846129Y-104580670D01*
X171846129Y-104580670D01*
G37*
X171846129Y-104580670D02*
X172095748Y-104954252D01*
X172469330Y-105203871D01*
X172798765Y-105269400D01*
X173021235Y-105269400D01*
X173350670Y-105203871D01*
X173422789Y-105155683D01*
X174606400Y-106339294D01*
X174606401Y-113146145D01*
X174245976Y-112905318D01*
X173912572Y-112839000D01*
X173687428Y-112839000D01*
X173354024Y-112905318D01*
X172975943Y-113157943D01*
X172723318Y-113536024D01*
X172634608Y-113982000D01*
X172723318Y-114427976D01*
X172975943Y-114806057D01*
X173354024Y-115058682D01*
X173687428Y-115125000D01*
X173912572Y-115125000D01*
X174245976Y-115058682D01*
X174606401Y-114817855D01*
X174606401Y-115373527D01*
X172936400Y-115373527D01*
X172827384Y-115395212D01*
X172734964Y-115456964D01*
X172673212Y-115549384D01*
X172651527Y-115658400D01*
X172651527Y-115886632D01*
X172103389Y-115338495D01*
X172103389Y-113508363D01*
X172110347Y-113472168D01*
X172096348Y-113404083D01*
X172082756Y-113335752D01*
X172082095Y-113334763D01*
X172081856Y-113333600D01*
X172042826Y-113275993D01*
X172004161Y-113218127D01*
X171973514Y-113197649D01*
X169021700Y-110283564D01*
X169021700Y-110190482D01*
X169050949Y-110178367D01*
X169242067Y-109987249D01*
X169345500Y-109737541D01*
X169345500Y-109467259D01*
X169276219Y-109300000D01*
X170503706Y-109300000D01*
X172723415Y-111519710D01*
X172711300Y-111548959D01*
X172711300Y-111819241D01*
X172814733Y-112068949D01*
X173005851Y-112260067D01*
X173255559Y-112363500D01*
X173525841Y-112363500D01*
X173775549Y-112260067D01*
X173966667Y-112068949D01*
X174070100Y-111819241D01*
X174070100Y-111548959D01*
X173966667Y-111299251D01*
X173775549Y-111108133D01*
X173525841Y-111004700D01*
X173255559Y-111004700D01*
X173226310Y-111016815D01*
X170927211Y-108717717D01*
X170907373Y-108688027D01*
X170789748Y-108609433D01*
X170686020Y-108588800D01*
X170651000Y-108581834D01*
X170615980Y-108588800D01*
X167986920Y-108588800D01*
X167951900Y-108581834D01*
X167916880Y-108588800D01*
X167813152Y-108609433D01*
X167739554Y-108658609D01*
X167706941Y-108645100D01*
X167436659Y-108645100D01*
X167342998Y-108683896D01*
X171779780Y-104247114D01*
X171846129Y-104580670D01*
G36*
X160919500Y-111208241D02*
X161022933Y-111457949D01*
X161160531Y-111595547D01*
X159311373Y-113444705D01*
X159281685Y-113464542D01*
X159261849Y-113494229D01*
X159261848Y-113494230D01*
X159203091Y-113582167D01*
X159175492Y-113720914D01*
X159176487Y-113725916D01*
X159153209Y-113735558D01*
X158962091Y-113926676D01*
X158858658Y-114176384D01*
X158858658Y-114446666D01*
X158962091Y-114696374D01*
X158987942Y-114722225D01*
X158839059Y-114871108D01*
X158775921Y-115023536D01*
X158214484Y-114462100D01*
X158336941Y-114462100D01*
X158586649Y-114358667D01*
X158777767Y-114167549D01*
X158881200Y-113917841D01*
X158881200Y-113647559D01*
X158777767Y-113397851D01*
X158748805Y-113368889D01*
X160919500Y-111198194D01*
X160919500Y-111208241D01*
X160919500Y-111208241D01*
G37*
X160919500Y-111208241D02*
X161022933Y-111457949D01*
X161160531Y-111595547D01*
X159311373Y-113444705D01*
X159281685Y-113464542D01*
X159261849Y-113494229D01*
X159261848Y-113494230D01*
X159203091Y-113582167D01*
X159175492Y-113720914D01*
X159176487Y-113725916D01*
X159153209Y-113735558D01*
X158962091Y-113926676D01*
X158858658Y-114176384D01*
X158858658Y-114446666D01*
X158962091Y-114696374D01*
X158987942Y-114722225D01*
X158839059Y-114871108D01*
X158775921Y-115023536D01*
X158214484Y-114462100D01*
X158336941Y-114462100D01*
X158586649Y-114358667D01*
X158777767Y-114167549D01*
X158881200Y-113917841D01*
X158881200Y-113647559D01*
X158777767Y-113397851D01*
X158748805Y-113368889D01*
X160919500Y-111198194D01*
X160919500Y-111208241D01*
G36*
X160944733Y-113020849D02*
X161135851Y-113211967D01*
X161385559Y-113315400D01*
X161655841Y-113315400D01*
X161905549Y-113211967D01*
X162096667Y-113020849D01*
X162108782Y-112991600D01*
X165526709Y-112991600D01*
X165433900Y-113215659D01*
X165433900Y-113485941D01*
X165537333Y-113735649D01*
X165728451Y-113926767D01*
X165887868Y-113992800D01*
X160441603Y-113992800D01*
X160406588Y-113985835D01*
X160371573Y-113992800D01*
X160371569Y-113992800D01*
X160267841Y-114013433D01*
X160175514Y-114075123D01*
X160114025Y-113926676D01*
X159974608Y-113787259D01*
X160885066Y-112876800D01*
X160944733Y-113020849D01*
X160944733Y-113020849D01*
G37*
X160944733Y-113020849D02*
X161135851Y-113211967D01*
X161385559Y-113315400D01*
X161655841Y-113315400D01*
X161905549Y-113211967D01*
X162096667Y-113020849D01*
X162108782Y-112991600D01*
X165526709Y-112991600D01*
X165433900Y-113215659D01*
X165433900Y-113485941D01*
X165537333Y-113735649D01*
X165728451Y-113926767D01*
X165887868Y-113992800D01*
X160441603Y-113992800D01*
X160406588Y-113985835D01*
X160371573Y-113992800D01*
X160371569Y-113992800D01*
X160267841Y-114013433D01*
X160175514Y-114075123D01*
X160114025Y-113926676D01*
X159974608Y-113787259D01*
X160885066Y-112876800D01*
X160944733Y-113020849D01*
G36*
X177254400Y-107412595D02*
X177254401Y-113293152D01*
X177164057Y-113157943D01*
X176785976Y-112905318D01*
X176452572Y-112839000D01*
X176227428Y-112839000D01*
X175894024Y-112905318D01*
X175515943Y-113157943D01*
X175317600Y-113454785D01*
X175317600Y-106227018D01*
X175324566Y-106191999D01*
X175313461Y-106136173D01*
X175296967Y-106053252D01*
X175218372Y-105935627D01*
X175188685Y-105915791D01*
X173925683Y-104652789D01*
X173973871Y-104580670D01*
X174048300Y-104206494D01*
X177254400Y-107412595D01*
X177254400Y-107412595D01*
G37*
X177254400Y-107412595D02*
X177254401Y-113293152D01*
X177164057Y-113157943D01*
X176785976Y-112905318D01*
X176452572Y-112839000D01*
X176227428Y-112839000D01*
X175894024Y-112905318D01*
X175515943Y-113157943D01*
X175317600Y-113454785D01*
X175317600Y-106227018D01*
X175324566Y-106191999D01*
X175313461Y-106136173D01*
X175296967Y-106053252D01*
X175218372Y-105935627D01*
X175188685Y-105915791D01*
X173925683Y-104652789D01*
X173973871Y-104580670D01*
X174048300Y-104206494D01*
X177254400Y-107412595D01*
G36*
X179794400Y-109053394D02*
X179794401Y-113293152D01*
X179704057Y-113157943D01*
X179325976Y-112905318D01*
X178992572Y-112839000D01*
X178767428Y-112839000D01*
X178434024Y-112905318D01*
X178055943Y-113157943D01*
X177965600Y-113293151D01*
X177965600Y-107300319D01*
X177972566Y-107265299D01*
X177964188Y-107223182D01*
X179794400Y-109053394D01*
X179794400Y-109053394D01*
G37*
X179794400Y-109053394D02*
X179794401Y-113293152D01*
X179704057Y-113157943D01*
X179325976Y-112905318D01*
X178992572Y-112839000D01*
X178767428Y-112839000D01*
X178434024Y-112905318D01*
X178055943Y-113157943D01*
X177965600Y-113293151D01*
X177965600Y-107300319D01*
X177972566Y-107265299D01*
X177964188Y-107223182D01*
X179794400Y-109053394D01*
G36*
X181064400Y-105690095D02*
X181064401Y-112887341D01*
X180974024Y-112905318D01*
X180595943Y-113157943D01*
X180505600Y-113293151D01*
X180505600Y-108941118D01*
X180512566Y-108906099D01*
X180501916Y-108852559D01*
X180484967Y-108767352D01*
X180406372Y-108649727D01*
X180376685Y-108629891D01*
X174843184Y-103096390D01*
X174855300Y-103067141D01*
X174855300Y-102796859D01*
X174751867Y-102547151D01*
X174560749Y-102356033D01*
X174311041Y-102252600D01*
X174296219Y-102252600D01*
X174361267Y-102155248D01*
X174381900Y-102051520D01*
X174388866Y-102016500D01*
X174381900Y-101981480D01*
X174381900Y-99007594D01*
X181064400Y-105690095D01*
X181064400Y-105690095D01*
G37*
X181064400Y-105690095D02*
X181064401Y-112887341D01*
X180974024Y-112905318D01*
X180595943Y-113157943D01*
X180505600Y-113293151D01*
X180505600Y-108941118D01*
X180512566Y-108906099D01*
X180501916Y-108852559D01*
X180484967Y-108767352D01*
X180406372Y-108649727D01*
X180376685Y-108629891D01*
X174843184Y-103096390D01*
X174855300Y-103067141D01*
X174855300Y-102796859D01*
X174751867Y-102547151D01*
X174560749Y-102356033D01*
X174311041Y-102252600D01*
X174296219Y-102252600D01*
X174361267Y-102155248D01*
X174381900Y-102051520D01*
X174388866Y-102016500D01*
X174381900Y-101981480D01*
X174381900Y-99007594D01*
X181064400Y-105690095D01*
G36*
X153406316Y-104148111D02*
X153406316Y-104336073D01*
X153399350Y-104371093D01*
X153426949Y-104509840D01*
X153485706Y-104597777D01*
X153485708Y-104597779D01*
X153505544Y-104627466D01*
X153535231Y-104647302D01*
X153812578Y-104924650D01*
X153832415Y-104954338D01*
X153862102Y-104974174D01*
X153862103Y-104974175D01*
X153950040Y-105032932D01*
X154088788Y-105060531D01*
X154123808Y-105053565D01*
X154894001Y-105053565D01*
X155101696Y-105261260D01*
X155121534Y-105290950D01*
X155239159Y-105369544D01*
X155342887Y-105390177D01*
X155342891Y-105390177D01*
X155356643Y-105392912D01*
X155367625Y-105419426D01*
X155558743Y-105610544D01*
X155808451Y-105713977D01*
X156078733Y-105713977D01*
X156129971Y-105692753D01*
X156129970Y-110651154D01*
X155940349Y-110461533D01*
X155690641Y-110358100D01*
X155420359Y-110358100D01*
X155170651Y-110461533D01*
X154979533Y-110652651D01*
X154876100Y-110902359D01*
X154876100Y-111172641D01*
X154887083Y-111199155D01*
X154879293Y-111210813D01*
X154879291Y-111210815D01*
X154820534Y-111298752D01*
X154792935Y-111437499D01*
X154799902Y-111472524D01*
X154799901Y-113182288D01*
X152969100Y-111351487D01*
X152969100Y-104336482D01*
X152998349Y-104324367D01*
X153189467Y-104133249D01*
X153248628Y-103990423D01*
X153406316Y-104148111D01*
X153406316Y-104148111D01*
G37*
X153406316Y-104148111D02*
X153406316Y-104336073D01*
X153399350Y-104371093D01*
X153426949Y-104509840D01*
X153485706Y-104597777D01*
X153485708Y-104597779D01*
X153505544Y-104627466D01*
X153535231Y-104647302D01*
X153812578Y-104924650D01*
X153832415Y-104954338D01*
X153862102Y-104974174D01*
X153862103Y-104974175D01*
X153950040Y-105032932D01*
X154088788Y-105060531D01*
X154123808Y-105053565D01*
X154894001Y-105053565D01*
X155101696Y-105261260D01*
X155121534Y-105290950D01*
X155239159Y-105369544D01*
X155342887Y-105390177D01*
X155342891Y-105390177D01*
X155356643Y-105392912D01*
X155367625Y-105419426D01*
X155558743Y-105610544D01*
X155808451Y-105713977D01*
X156078733Y-105713977D01*
X156129971Y-105692753D01*
X156129970Y-110651154D01*
X155940349Y-110461533D01*
X155690641Y-110358100D01*
X155420359Y-110358100D01*
X155170651Y-110461533D01*
X154979533Y-110652651D01*
X154876100Y-110902359D01*
X154876100Y-111172641D01*
X154887083Y-111199155D01*
X154879293Y-111210813D01*
X154879291Y-111210815D01*
X154820534Y-111298752D01*
X154792935Y-111437499D01*
X154799902Y-111472524D01*
X154799901Y-113182288D01*
X152969100Y-111351487D01*
X152969100Y-104336482D01*
X152998349Y-104324367D01*
X153189467Y-104133249D01*
X153248628Y-103990423D01*
X153406316Y-104148111D01*
G36*
X164671129Y-104580670D02*
X164920748Y-104954252D01*
X165294330Y-105203871D01*
X165379401Y-105220793D01*
X165379401Y-105732504D01*
X158354256Y-112757650D01*
X158364571Y-112732748D01*
X158364571Y-112462466D01*
X158261138Y-112212758D01*
X158134184Y-112085804D01*
X161453786Y-108766202D01*
X161483473Y-108746366D01*
X161562067Y-108628741D01*
X161570012Y-108588800D01*
X161589666Y-108489994D01*
X161582700Y-108454974D01*
X161582700Y-105269024D01*
X161865330Y-105457871D01*
X162194765Y-105523400D01*
X162305406Y-105523400D01*
X162224315Y-105604491D01*
X162194627Y-105624328D01*
X162174791Y-105654015D01*
X162174790Y-105654016D01*
X162116033Y-105741953D01*
X162088434Y-105880700D01*
X162095400Y-105915720D01*
X162095400Y-106289917D01*
X162066151Y-106302033D01*
X161875033Y-106493151D01*
X161771600Y-106742859D01*
X161771600Y-107013141D01*
X161875033Y-107262849D01*
X162066151Y-107453967D01*
X162315859Y-107557400D01*
X162586141Y-107557400D01*
X162835849Y-107453967D01*
X163026967Y-107262849D01*
X163130400Y-107013141D01*
X163130400Y-106742859D01*
X163026967Y-106493151D01*
X162835849Y-106302033D01*
X162806600Y-106289918D01*
X162806600Y-106027994D01*
X164601910Y-104232684D01*
X164671129Y-104580670D01*
X164671129Y-104580670D01*
G37*
X164671129Y-104580670D02*
X164920748Y-104954252D01*
X165294330Y-105203871D01*
X165379401Y-105220793D01*
X165379401Y-105732504D01*
X158354256Y-112757650D01*
X158364571Y-112732748D01*
X158364571Y-112462466D01*
X158261138Y-112212758D01*
X158134184Y-112085804D01*
X161453786Y-108766202D01*
X161483473Y-108746366D01*
X161562067Y-108628741D01*
X161570012Y-108588800D01*
X161589666Y-108489994D01*
X161582700Y-108454974D01*
X161582700Y-105269024D01*
X161865330Y-105457871D01*
X162194765Y-105523400D01*
X162305406Y-105523400D01*
X162224315Y-105604491D01*
X162194627Y-105624328D01*
X162174791Y-105654015D01*
X162174790Y-105654016D01*
X162116033Y-105741953D01*
X162088434Y-105880700D01*
X162095400Y-105915720D01*
X162095400Y-106289917D01*
X162066151Y-106302033D01*
X161875033Y-106493151D01*
X161771600Y-106742859D01*
X161771600Y-107013141D01*
X161875033Y-107262849D01*
X162066151Y-107453967D01*
X162315859Y-107557400D01*
X162586141Y-107557400D01*
X162835849Y-107453967D01*
X163026967Y-107262849D01*
X163130400Y-107013141D01*
X163130400Y-106742859D01*
X163026967Y-106493151D01*
X162835849Y-106302033D01*
X162806600Y-106289918D01*
X162806600Y-106027994D01*
X164601910Y-104232684D01*
X164671129Y-104580670D01*
G36*
X159896315Y-99125891D02*
X159866628Y-99145727D01*
X159846792Y-99175414D01*
X159846790Y-99175416D01*
X159788033Y-99263353D01*
X159760434Y-99402100D01*
X159767401Y-99437125D01*
X159767400Y-106624018D01*
X159738151Y-106636133D01*
X159547033Y-106827251D01*
X159443600Y-107076959D01*
X159443600Y-107347241D01*
X159547033Y-107596949D01*
X159738151Y-107788067D01*
X159987859Y-107891500D01*
X160258141Y-107891500D01*
X160507849Y-107788067D01*
X160698967Y-107596949D01*
X160802400Y-107347241D01*
X160802400Y-107076959D01*
X160698967Y-106827251D01*
X160507849Y-106636133D01*
X160478600Y-106624018D01*
X160478600Y-99549394D01*
X161772601Y-98255393D01*
X161772600Y-100719127D01*
X161456000Y-100719127D01*
X161346984Y-100740812D01*
X161254564Y-100802564D01*
X161192812Y-100894984D01*
X161171127Y-101004000D01*
X161171127Y-102704000D01*
X161192812Y-102813016D01*
X161254564Y-102905436D01*
X161346984Y-102967188D01*
X161456000Y-102988873D01*
X161665576Y-102988873D01*
X161654590Y-103005316D01*
X161000415Y-103659491D01*
X160970727Y-103679328D01*
X160950891Y-103709015D01*
X160950890Y-103709016D01*
X160892133Y-103796953D01*
X160864534Y-103935700D01*
X160871500Y-103970720D01*
X160871501Y-108342697D01*
X157785400Y-111428799D01*
X157785400Y-109879484D01*
X157868933Y-110081149D01*
X158060051Y-110272267D01*
X158309759Y-110375700D01*
X158580041Y-110375700D01*
X158829749Y-110272267D01*
X159020867Y-110081149D01*
X159124300Y-109831441D01*
X159124300Y-109561159D01*
X159020867Y-109311451D01*
X158829749Y-109120333D01*
X158580041Y-109016900D01*
X158309759Y-109016900D01*
X158280510Y-109029016D01*
X158273300Y-109021806D01*
X158273300Y-107834231D01*
X158411559Y-107891500D01*
X158681841Y-107891500D01*
X158931549Y-107788067D01*
X159122667Y-107596949D01*
X159226100Y-107347241D01*
X159226100Y-107076959D01*
X159122667Y-106827251D01*
X158941864Y-106646448D01*
X158943000Y-106640735D01*
X158943000Y-106640731D01*
X158949965Y-106605716D01*
X158943000Y-106570701D01*
X158943000Y-97942400D01*
X161079806Y-97942400D01*
X159896315Y-99125891D01*
X159896315Y-99125891D01*
G37*
X159896315Y-99125891D02*
X159866628Y-99145727D01*
X159846792Y-99175414D01*
X159846790Y-99175416D01*
X159788033Y-99263353D01*
X159760434Y-99402100D01*
X159767401Y-99437125D01*
X159767400Y-106624018D01*
X159738151Y-106636133D01*
X159547033Y-106827251D01*
X159443600Y-107076959D01*
X159443600Y-107347241D01*
X159547033Y-107596949D01*
X159738151Y-107788067D01*
X159987859Y-107891500D01*
X160258141Y-107891500D01*
X160507849Y-107788067D01*
X160698967Y-107596949D01*
X160802400Y-107347241D01*
X160802400Y-107076959D01*
X160698967Y-106827251D01*
X160507849Y-106636133D01*
X160478600Y-106624018D01*
X160478600Y-99549394D01*
X161772601Y-98255393D01*
X161772600Y-100719127D01*
X161456000Y-100719127D01*
X161346984Y-100740812D01*
X161254564Y-100802564D01*
X161192812Y-100894984D01*
X161171127Y-101004000D01*
X161171127Y-102704000D01*
X161192812Y-102813016D01*
X161254564Y-102905436D01*
X161346984Y-102967188D01*
X161456000Y-102988873D01*
X161665576Y-102988873D01*
X161654590Y-103005316D01*
X161000415Y-103659491D01*
X160970727Y-103679328D01*
X160950891Y-103709015D01*
X160950890Y-103709016D01*
X160892133Y-103796953D01*
X160864534Y-103935700D01*
X160871500Y-103970720D01*
X160871501Y-108342697D01*
X157785400Y-111428799D01*
X157785400Y-109879484D01*
X157868933Y-110081149D01*
X158060051Y-110272267D01*
X158309759Y-110375700D01*
X158580041Y-110375700D01*
X158829749Y-110272267D01*
X159020867Y-110081149D01*
X159124300Y-109831441D01*
X159124300Y-109561159D01*
X159020867Y-109311451D01*
X158829749Y-109120333D01*
X158580041Y-109016900D01*
X158309759Y-109016900D01*
X158280510Y-109029016D01*
X158273300Y-109021806D01*
X158273300Y-107834231D01*
X158411559Y-107891500D01*
X158681841Y-107891500D01*
X158931549Y-107788067D01*
X159122667Y-107596949D01*
X159226100Y-107347241D01*
X159226100Y-107076959D01*
X159122667Y-106827251D01*
X158941864Y-106646448D01*
X158943000Y-106640735D01*
X158943000Y-106640731D01*
X158949965Y-106605716D01*
X158943000Y-106570701D01*
X158943000Y-97942400D01*
X161079806Y-97942400D01*
X159896315Y-99125891D01*
G36*
X151934100Y-103613259D02*
X151934100Y-103883541D01*
X152037533Y-104133249D01*
X152228651Y-104324367D01*
X152257900Y-104336482D01*
X152257901Y-111094407D01*
X150303400Y-109139906D01*
X150303400Y-104419882D01*
X150332649Y-104407767D01*
X150523767Y-104216649D01*
X150627200Y-103966941D01*
X150627200Y-103696659D01*
X150530415Y-103463000D01*
X151996340Y-103463000D01*
X151934100Y-103613259D01*
X151934100Y-103613259D01*
G37*
X151934100Y-103613259D02*
X151934100Y-103883541D01*
X152037533Y-104133249D01*
X152228651Y-104324367D01*
X152257900Y-104336482D01*
X152257901Y-111094407D01*
X150303400Y-109139906D01*
X150303400Y-104419882D01*
X150332649Y-104407767D01*
X150523767Y-104216649D01*
X150627200Y-103966941D01*
X150627200Y-103696659D01*
X150530415Y-103463000D01*
X151996340Y-103463000D01*
X151934100Y-103613259D01*
G36*
X168290129Y-104580670D02*
X168539748Y-104954252D01*
X168913330Y-105203871D01*
X169242765Y-105269400D01*
X169320006Y-105269400D01*
X163871906Y-110717500D01*
X162186982Y-110717500D01*
X162174867Y-110688251D01*
X161983749Y-110497133D01*
X161734041Y-110393700D01*
X161723994Y-110393700D01*
X165961686Y-106156009D01*
X165991373Y-106136173D01*
X166038971Y-106064938D01*
X166069967Y-106018548D01*
X166097566Y-105879800D01*
X166090600Y-105844780D01*
X166090600Y-105220793D01*
X166175670Y-105203871D01*
X166549252Y-104954252D01*
X166798871Y-104580670D01*
X166815793Y-104495600D01*
X168273207Y-104495600D01*
X168290129Y-104580670D01*
X168290129Y-104580670D01*
G37*
X168290129Y-104580670D02*
X168539748Y-104954252D01*
X168913330Y-105203871D01*
X169242765Y-105269400D01*
X169320006Y-105269400D01*
X163871906Y-110717500D01*
X162186982Y-110717500D01*
X162174867Y-110688251D01*
X161983749Y-110497133D01*
X161734041Y-110393700D01*
X161723994Y-110393700D01*
X165961686Y-106156009D01*
X165991373Y-106136173D01*
X166038971Y-106064938D01*
X166069967Y-106018548D01*
X166097566Y-105879800D01*
X166090600Y-105844780D01*
X166090600Y-105220793D01*
X166175670Y-105203871D01*
X166549252Y-104954252D01*
X166798871Y-104580670D01*
X166815793Y-104495600D01*
X168273207Y-104495600D01*
X168290129Y-104580670D01*
G36*
X149371833Y-104216649D02*
X149562951Y-104407767D01*
X149592201Y-104419883D01*
X149592200Y-107333528D01*
X149567067Y-107272851D01*
X149375949Y-107081733D01*
X149126241Y-106978300D01*
X148855959Y-106978300D01*
X148606251Y-107081733D01*
X148450700Y-107237284D01*
X148450700Y-104910494D01*
X149305262Y-104055933D01*
X149371833Y-104216649D01*
X149371833Y-104216649D01*
G37*
X149371833Y-104216649D02*
X149562951Y-104407767D01*
X149592201Y-104419883D01*
X149592200Y-107333528D01*
X149567067Y-107272851D01*
X149375949Y-107081733D01*
X149126241Y-106978300D01*
X148855959Y-106978300D01*
X148606251Y-107081733D01*
X148450700Y-107237284D01*
X148450700Y-104910494D01*
X149305262Y-104055933D01*
X149371833Y-104216649D01*
G36*
X172095748Y-99874252D02*
X172469330Y-100123871D01*
X172798765Y-100189400D01*
X173021235Y-100189400D01*
X173350670Y-100123871D01*
X173670700Y-99910034D01*
X173670701Y-100749966D01*
X173350670Y-100536129D01*
X173021235Y-100470600D01*
X172798765Y-100470600D01*
X172469330Y-100536129D01*
X172095748Y-100785748D01*
X171846129Y-101159330D01*
X171758474Y-101600000D01*
X171846129Y-102040670D01*
X171894317Y-102112789D01*
X170979615Y-103027491D01*
X170949928Y-103047327D01*
X170930092Y-103077014D01*
X170930090Y-103077016D01*
X170871333Y-103164953D01*
X170843734Y-103303700D01*
X170850701Y-103338724D01*
X170850700Y-103738706D01*
X170496215Y-104093191D01*
X170417871Y-103699330D01*
X170168252Y-103325748D01*
X169794670Y-103076129D01*
X169465235Y-103010600D01*
X169242765Y-103010600D01*
X168913330Y-103076129D01*
X168539748Y-103325748D01*
X168290129Y-103699330D01*
X168273207Y-103784400D01*
X166815793Y-103784400D01*
X166798871Y-103699330D01*
X166549252Y-103325748D01*
X166399370Y-103225600D01*
X166485380Y-103225600D01*
X166520400Y-103232566D01*
X166555420Y-103225600D01*
X166659148Y-103204967D01*
X166776773Y-103126373D01*
X166796611Y-103096683D01*
X168217542Y-101675752D01*
X168290129Y-102040670D01*
X168539748Y-102414252D01*
X168913330Y-102663871D01*
X169242765Y-102729400D01*
X169465235Y-102729400D01*
X169794670Y-102663871D01*
X170168252Y-102414252D01*
X170417871Y-102040670D01*
X170505526Y-101600000D01*
X170417871Y-101159330D01*
X170168252Y-100785748D01*
X169794670Y-100536129D01*
X169585388Y-100494500D01*
X170717180Y-100494500D01*
X170752200Y-100501466D01*
X170787220Y-100494500D01*
X170890948Y-100473867D01*
X171008573Y-100395273D01*
X171028411Y-100365583D01*
X171865033Y-99528962D01*
X172095748Y-99874252D01*
X172095748Y-99874252D01*
G37*
X172095748Y-99874252D02*
X172469330Y-100123871D01*
X172798765Y-100189400D01*
X173021235Y-100189400D01*
X173350670Y-100123871D01*
X173670700Y-99910034D01*
X173670701Y-100749966D01*
X173350670Y-100536129D01*
X173021235Y-100470600D01*
X172798765Y-100470600D01*
X172469330Y-100536129D01*
X172095748Y-100785748D01*
X171846129Y-101159330D01*
X171758474Y-101600000D01*
X171846129Y-102040670D01*
X171894317Y-102112789D01*
X170979615Y-103027491D01*
X170949928Y-103047327D01*
X170930092Y-103077014D01*
X170930090Y-103077016D01*
X170871333Y-103164953D01*
X170843734Y-103303700D01*
X170850701Y-103338724D01*
X170850700Y-103738706D01*
X170496215Y-104093191D01*
X170417871Y-103699330D01*
X170168252Y-103325748D01*
X169794670Y-103076129D01*
X169465235Y-103010600D01*
X169242765Y-103010600D01*
X168913330Y-103076129D01*
X168539748Y-103325748D01*
X168290129Y-103699330D01*
X168273207Y-103784400D01*
X166815793Y-103784400D01*
X166798871Y-103699330D01*
X166549252Y-103325748D01*
X166399370Y-103225600D01*
X166485380Y-103225600D01*
X166520400Y-103232566D01*
X166555420Y-103225600D01*
X166659148Y-103204967D01*
X166776773Y-103126373D01*
X166796611Y-103096683D01*
X168217542Y-101675752D01*
X168290129Y-102040670D01*
X168539748Y-102414252D01*
X168913330Y-102663871D01*
X169242765Y-102729400D01*
X169465235Y-102729400D01*
X169794670Y-102663871D01*
X170168252Y-102414252D01*
X170417871Y-102040670D01*
X170505526Y-101600000D01*
X170417871Y-101159330D01*
X170168252Y-100785748D01*
X169794670Y-100536129D01*
X169585388Y-100494500D01*
X170717180Y-100494500D01*
X170752200Y-100501466D01*
X170787220Y-100494500D01*
X170890948Y-100473867D01*
X171008573Y-100395273D01*
X171028411Y-100365583D01*
X171865033Y-99528962D01*
X172095748Y-99874252D01*
G36*
X167226600Y-93946995D02*
X167226601Y-96282775D01*
X167219634Y-96317800D01*
X167247233Y-96456547D01*
X167305990Y-96544484D01*
X167305992Y-96544486D01*
X167325828Y-96574173D01*
X167355515Y-96594009D01*
X168431046Y-97669540D01*
X168472642Y-97715183D01*
X168480272Y-97718766D01*
X168587189Y-97825683D01*
X168607027Y-97855373D01*
X168724652Y-97933967D01*
X168828380Y-97954600D01*
X168828384Y-97954600D01*
X168863399Y-97961565D01*
X168898414Y-97954600D01*
X168982445Y-97954600D01*
X168997108Y-97961486D01*
X169010227Y-97954600D01*
X169122109Y-97954600D01*
X168913330Y-97996129D01*
X168539748Y-98245748D01*
X168290129Y-98619330D01*
X168202474Y-99060000D01*
X168290129Y-99500670D01*
X168539748Y-99874252D01*
X168823594Y-100063911D01*
X166702286Y-102185220D01*
X166798871Y-102040670D01*
X166886526Y-101600000D01*
X166798871Y-101159330D01*
X166549252Y-100785748D01*
X166175670Y-100536129D01*
X165846235Y-100470600D01*
X165623765Y-100470600D01*
X165294330Y-100536129D01*
X164920748Y-100785748D01*
X164671129Y-101159330D01*
X164583474Y-101600000D01*
X164671129Y-102040670D01*
X164719317Y-102112789D01*
X163955706Y-102876400D01*
X163376837Y-102876400D01*
X163419188Y-102813016D01*
X163440873Y-102704000D01*
X163440873Y-101004000D01*
X163419188Y-100894984D01*
X163357436Y-100802564D01*
X163265016Y-100740812D01*
X163156000Y-100719127D01*
X162839400Y-100719127D01*
X162839400Y-98336740D01*
X163233741Y-97942400D01*
X164401500Y-97942400D01*
X164508422Y-97921132D01*
X164599066Y-97860566D01*
X164659632Y-97769922D01*
X164680900Y-97663000D01*
X164680900Y-97525634D01*
X164853642Y-97715183D01*
X165378108Y-97961486D01*
X165607998Y-97840820D01*
X165607998Y-97933736D01*
X165294330Y-97996129D01*
X164920748Y-98245748D01*
X164671129Y-98619330D01*
X164583474Y-99060000D01*
X164671129Y-99500670D01*
X164920748Y-99874252D01*
X165294330Y-100123871D01*
X165623765Y-100189400D01*
X165846235Y-100189400D01*
X166175670Y-100123871D01*
X166549252Y-99874252D01*
X166798871Y-99500670D01*
X166886526Y-99060000D01*
X166798871Y-98619330D01*
X166549252Y-98245748D01*
X166175670Y-97996129D01*
X165862002Y-97933736D01*
X165862002Y-97840820D01*
X166091892Y-97961486D01*
X166616358Y-97715183D01*
X167006645Y-97286924D01*
X167176476Y-96876890D01*
X167055155Y-96647000D01*
X165862000Y-96647000D01*
X165862000Y-96667000D01*
X165608000Y-96667000D01*
X165608000Y-96647000D01*
X165588000Y-96647000D01*
X165588000Y-96393000D01*
X165608000Y-96393000D01*
X165608000Y-96373000D01*
X165862000Y-96373000D01*
X165862000Y-96393000D01*
X167055155Y-96393000D01*
X167176476Y-96163110D01*
X167006645Y-95753076D01*
X166616358Y-95324817D01*
X166169313Y-95114873D01*
X166585000Y-95114873D01*
X166694016Y-95093188D01*
X166786436Y-95031436D01*
X166848188Y-94939016D01*
X166869873Y-94830000D01*
X166869873Y-93590267D01*
X167226600Y-93946995D01*
X167226600Y-93946995D01*
G37*
X167226600Y-93946995D02*
X167226601Y-96282775D01*
X167219634Y-96317800D01*
X167247233Y-96456547D01*
X167305990Y-96544484D01*
X167305992Y-96544486D01*
X167325828Y-96574173D01*
X167355515Y-96594009D01*
X168431046Y-97669540D01*
X168472642Y-97715183D01*
X168480272Y-97718766D01*
X168587189Y-97825683D01*
X168607027Y-97855373D01*
X168724652Y-97933967D01*
X168828380Y-97954600D01*
X168828384Y-97954600D01*
X168863399Y-97961565D01*
X168898414Y-97954600D01*
X168982445Y-97954600D01*
X168997108Y-97961486D01*
X169010227Y-97954600D01*
X169122109Y-97954600D01*
X168913330Y-97996129D01*
X168539748Y-98245748D01*
X168290129Y-98619330D01*
X168202474Y-99060000D01*
X168290129Y-99500670D01*
X168539748Y-99874252D01*
X168823594Y-100063911D01*
X166702286Y-102185220D01*
X166798871Y-102040670D01*
X166886526Y-101600000D01*
X166798871Y-101159330D01*
X166549252Y-100785748D01*
X166175670Y-100536129D01*
X165846235Y-100470600D01*
X165623765Y-100470600D01*
X165294330Y-100536129D01*
X164920748Y-100785748D01*
X164671129Y-101159330D01*
X164583474Y-101600000D01*
X164671129Y-102040670D01*
X164719317Y-102112789D01*
X163955706Y-102876400D01*
X163376837Y-102876400D01*
X163419188Y-102813016D01*
X163440873Y-102704000D01*
X163440873Y-101004000D01*
X163419188Y-100894984D01*
X163357436Y-100802564D01*
X163265016Y-100740812D01*
X163156000Y-100719127D01*
X162839400Y-100719127D01*
X162839400Y-98336740D01*
X163233741Y-97942400D01*
X164401500Y-97942400D01*
X164508422Y-97921132D01*
X164599066Y-97860566D01*
X164659632Y-97769922D01*
X164680900Y-97663000D01*
X164680900Y-97525634D01*
X164853642Y-97715183D01*
X165378108Y-97961486D01*
X165607998Y-97840820D01*
X165607998Y-97933736D01*
X165294330Y-97996129D01*
X164920748Y-98245748D01*
X164671129Y-98619330D01*
X164583474Y-99060000D01*
X164671129Y-99500670D01*
X164920748Y-99874252D01*
X165294330Y-100123871D01*
X165623765Y-100189400D01*
X165846235Y-100189400D01*
X166175670Y-100123871D01*
X166549252Y-99874252D01*
X166798871Y-99500670D01*
X166886526Y-99060000D01*
X166798871Y-98619330D01*
X166549252Y-98245748D01*
X166175670Y-97996129D01*
X165862002Y-97933736D01*
X165862002Y-97840820D01*
X166091892Y-97961486D01*
X166616358Y-97715183D01*
X167006645Y-97286924D01*
X167176476Y-96876890D01*
X167055155Y-96647000D01*
X165862000Y-96647000D01*
X165862000Y-96667000D01*
X165608000Y-96667000D01*
X165608000Y-96647000D01*
X165588000Y-96647000D01*
X165588000Y-96393000D01*
X165608000Y-96393000D01*
X165608000Y-96373000D01*
X165862000Y-96373000D01*
X165862000Y-96393000D01*
X167055155Y-96393000D01*
X167176476Y-96163110D01*
X167006645Y-95753076D01*
X166616358Y-95324817D01*
X166169313Y-95114873D01*
X166585000Y-95114873D01*
X166694016Y-95093188D01*
X166786436Y-95031436D01*
X166848188Y-94939016D01*
X166869873Y-94830000D01*
X166869873Y-93590267D01*
X167226600Y-93946995D01*
G36*
X171238984Y-96860025D02*
X171268741Y-96904559D01*
X171445178Y-97022451D01*
X171600769Y-97053400D01*
X171600773Y-97053400D01*
X171653299Y-97063848D01*
X171705825Y-97053400D01*
X171908089Y-97053400D01*
X172035043Y-97243400D01*
X170643672Y-97243400D01*
X170795476Y-96876890D01*
X170674155Y-96647000D01*
X169481000Y-96647000D01*
X169481000Y-96667000D01*
X169227000Y-96667000D01*
X169227000Y-96647000D01*
X169207000Y-96647000D01*
X169207000Y-96393000D01*
X169227000Y-96393000D01*
X169227000Y-96373000D01*
X169481000Y-96373000D01*
X169481000Y-96393000D01*
X170674155Y-96393000D01*
X170707940Y-96328981D01*
X171238984Y-96860025D01*
X171238984Y-96860025D01*
G37*
X171238984Y-96860025D02*
X171268741Y-96904559D01*
X171445178Y-97022451D01*
X171600769Y-97053400D01*
X171600773Y-97053400D01*
X171653299Y-97063848D01*
X171705825Y-97053400D01*
X171908089Y-97053400D01*
X172035043Y-97243400D01*
X170643672Y-97243400D01*
X170795476Y-96876890D01*
X170674155Y-96647000D01*
X169481000Y-96647000D01*
X169481000Y-96667000D01*
X169227000Y-96667000D01*
X169227000Y-96647000D01*
X169207000Y-96647000D01*
X169207000Y-96393000D01*
X169227000Y-96393000D01*
X169227000Y-96373000D01*
X169481000Y-96373000D01*
X169481000Y-96393000D01*
X170674155Y-96393000D01*
X170707940Y-96328981D01*
X171238984Y-96860025D01*
G04 #@! TD*
M02*
