G04 #@! TF.GenerationSoftware,KiCad,Pcbnew,(5.0.0)*
G04 #@! TF.CreationDate,2018-10-14T15:21:16-07:00*
G04 #@! TF.ProjectId,EExtruder,4545787472756465722E6B696361645F,rev?*
G04 #@! TF.SameCoordinates,Original*
G04 #@! TF.FileFunction,Legend,Top*
G04 #@! TF.FilePolarity,Positive*
%FSLAX46Y46*%
G04 Gerber Fmt 4.6, Leading zero omitted, Abs format (unit mm)*
G04 Created by KiCad (PCBNEW (5.0.0)) date 10/14/18 15:21:16*
%MOMM*%
%LPD*%
G01*
G04 APERTURE LIST*
%ADD10C,0.120000*%
%ADD11C,0.100000*%
%ADD12C,0.300000*%
%ADD13R,2.502000X2.502000*%
%ADD14C,2.502000*%
%ADD15O,1.802000X1.802000*%
%ADD16R,1.802000X1.802000*%
%ADD17R,0.977000X1.052000*%
%ADD18R,1.052000X0.977000*%
%ADD19R,1.852000X1.352000*%
%ADD20R,2.102000X4.102000*%
%ADD21C,3.302000*%
%ADD22O,1.829200X1.829200*%
%ADD23R,1.829200X1.829200*%
%ADD24R,2.102000X4.602000*%
%ADD25C,1.602000*%
%ADD26R,2.602000X1.302000*%
%ADD27R,0.352000X1.402000*%
%ADD28R,1.402000X0.352000*%
%ADD29R,1.002000X0.902000*%
%ADD30R,0.840000X1.290000*%
%ADD31R,4.340000X3.440000*%
%ADD32R,4.840000X1.690000*%
%ADD33R,1.102000X1.102000*%
%ADD34C,0.977000*%
G04 APERTURE END LIST*
D10*
G04 #@! TO.C,JP2*
X129193000Y-98885500D02*
X131993000Y-98885500D01*
X131993000Y-98885500D02*
X131993000Y-100885500D01*
X131993000Y-100885500D02*
X129193000Y-100885500D01*
X129193000Y-100885500D02*
X129193000Y-98885500D01*
G04 #@! TO.C,J4*
X147763236Y-86903779D02*
G75*
G02X148653500Y-86648500I890264J-1424721D01*
G01*
X147227995Y-89218693D02*
G75*
G02X147228500Y-87437500I1425505J890193D01*
G01*
X149543394Y-89753858D02*
G75*
G02X147787500Y-89768500I-889894J1425358D01*
G01*
X150078858Y-87438606D02*
G75*
G02X150093500Y-89194500I-1425358J-889894D01*
G01*
X148624826Y-86648401D02*
G75*
G02X149519500Y-86888500I28674J-1680099D01*
G01*
X146833500Y-88328500D02*
G75*
G03X146833500Y-88328500I-1680000J0D01*
G01*
X150463500Y-84228500D02*
X143343500Y-84228500D01*
X150463500Y-85328500D02*
X143343500Y-85328500D01*
X150463500Y-91488500D02*
X143343500Y-91488500D01*
X150463500Y-83768500D02*
X143343500Y-83768500D01*
X150463500Y-91488500D02*
X150463500Y-83768500D01*
X143343500Y-91488500D02*
X143343500Y-83768500D01*
X143878500Y-89397500D02*
X144007500Y-89269500D01*
X146128500Y-87147500D02*
X146222500Y-87054500D01*
X144083500Y-89603500D02*
X144177500Y-89509500D01*
X146298500Y-87387500D02*
X146427500Y-87259500D01*
X150703500Y-84168500D02*
X150703500Y-83528500D01*
X150703500Y-83528500D02*
X150303500Y-83528500D01*
G04 #@! TO.C,J3*
X159391236Y-86903779D02*
G75*
G02X160281500Y-86648500I890264J-1424721D01*
G01*
X158855995Y-89218693D02*
G75*
G02X158856500Y-87437500I1425505J890193D01*
G01*
X161171394Y-89753858D02*
G75*
G02X159415500Y-89768500I-889894J1425358D01*
G01*
X161706858Y-87438606D02*
G75*
G02X161721500Y-89194500I-1425358J-889894D01*
G01*
X160252826Y-86648401D02*
G75*
G02X161147500Y-86888500I28674J-1680099D01*
G01*
X158461500Y-88328500D02*
G75*
G03X158461500Y-88328500I-1680000J0D01*
G01*
X162091500Y-84228500D02*
X154971500Y-84228500D01*
X162091500Y-85328500D02*
X154971500Y-85328500D01*
X162091500Y-91488500D02*
X154971500Y-91488500D01*
X162091500Y-83768500D02*
X154971500Y-83768500D01*
X162091500Y-91488500D02*
X162091500Y-83768500D01*
X154971500Y-91488500D02*
X154971500Y-83768500D01*
X155506500Y-89397500D02*
X155635500Y-89269500D01*
X157756500Y-87147500D02*
X157850500Y-87054500D01*
X155711500Y-89603500D02*
X155805500Y-89509500D01*
X157926500Y-87387500D02*
X158055500Y-87259500D01*
X162331500Y-84168500D02*
X162331500Y-83528500D01*
X162331500Y-83528500D02*
X161931500Y-83528500D01*
G04 #@! TO.C,J1*
X169614736Y-86903779D02*
G75*
G02X170505000Y-86648500I890264J-1424721D01*
G01*
X169079495Y-89218693D02*
G75*
G02X169080000Y-87437500I1425505J890193D01*
G01*
X171394894Y-89753858D02*
G75*
G02X169639000Y-89768500I-889894J1425358D01*
G01*
X171930358Y-87438606D02*
G75*
G02X171945000Y-89194500I-1425358J-889894D01*
G01*
X170476326Y-86648401D02*
G75*
G02X171371000Y-86888500I28674J-1680099D01*
G01*
X168685000Y-88328500D02*
G75*
G03X168685000Y-88328500I-1680000J0D01*
G01*
X172315000Y-84228500D02*
X165195000Y-84228500D01*
X172315000Y-85328500D02*
X165195000Y-85328500D01*
X172315000Y-91488500D02*
X165195000Y-91488500D01*
X172315000Y-83768500D02*
X165195000Y-83768500D01*
X172315000Y-91488500D02*
X172315000Y-83768500D01*
X165195000Y-91488500D02*
X165195000Y-83768500D01*
X165730000Y-89397500D02*
X165859000Y-89269500D01*
X167980000Y-87147500D02*
X168074000Y-87054500D01*
X165935000Y-89603500D02*
X166029000Y-89509500D01*
X168150000Y-87387500D02*
X168279000Y-87259500D01*
X172555000Y-84168500D02*
X172555000Y-83528500D01*
X172555000Y-83528500D02*
X172155000Y-83528500D01*
G04 #@! TO.C,TC1*
X164405000Y-92650000D02*
X165735000Y-92650000D01*
X164405000Y-93980000D02*
X164405000Y-92650000D01*
X164405000Y-95250000D02*
X167065000Y-95250000D01*
X167065000Y-95250000D02*
X167065000Y-105470000D01*
X164405000Y-95250000D02*
X164405000Y-105470000D01*
X164405000Y-105470000D02*
X167065000Y-105470000D01*
G04 #@! TO.C,TC0*
X168024000Y-92650000D02*
X169354000Y-92650000D01*
X168024000Y-93980000D02*
X168024000Y-92650000D01*
X168024000Y-95250000D02*
X170684000Y-95250000D01*
X170684000Y-95250000D02*
X170684000Y-105470000D01*
X168024000Y-95250000D02*
X168024000Y-105470000D01*
X168024000Y-105470000D02*
X170684000Y-105470000D01*
G04 #@! TO.C,SWD1*
X171580000Y-92650000D02*
X172910000Y-92650000D01*
X171580000Y-93980000D02*
X171580000Y-92650000D01*
X171580000Y-95250000D02*
X174240000Y-95250000D01*
X174240000Y-95250000D02*
X174240000Y-105470000D01*
X171580000Y-95250000D02*
X171580000Y-105470000D01*
X171580000Y-105470000D02*
X174240000Y-105470000D01*
G04 #@! TO.C,R29*
X134058779Y-109095000D02*
X133733221Y-109095000D01*
X134058779Y-108075000D02*
X133733221Y-108075000D01*
G04 #@! TO.C,R28*
X137149221Y-104646000D02*
X137474779Y-104646000D01*
X137149221Y-105666000D02*
X137474779Y-105666000D01*
G04 #@! TO.C,R27*
X137474779Y-103634000D02*
X137149221Y-103634000D01*
X137474779Y-102614000D02*
X137149221Y-102614000D01*
G04 #@! TO.C,R26*
X134058779Y-127510000D02*
X133733221Y-127510000D01*
X134058779Y-126490000D02*
X133733221Y-126490000D01*
G04 #@! TO.C,R25*
X137187221Y-123061000D02*
X137512779Y-123061000D01*
X137187221Y-124081000D02*
X137512779Y-124081000D01*
G04 #@! TO.C,R24*
X137512779Y-122049000D02*
X137187221Y-122049000D01*
X137512779Y-121029000D02*
X137187221Y-121029000D01*
G04 #@! TO.C,R23*
X134058779Y-118302000D02*
X133733221Y-118302000D01*
X134058779Y-117282000D02*
X133733221Y-117282000D01*
G04 #@! TO.C,R22*
X137149221Y-113854000D02*
X137474779Y-113854000D01*
X137149221Y-114874000D02*
X137474779Y-114874000D01*
G04 #@! TO.C,R21*
X137487779Y-112842000D02*
X137162221Y-112842000D01*
X137487779Y-111822000D02*
X137162221Y-111822000D01*
G04 #@! TO.C,R20*
X155640000Y-124640221D02*
X155640000Y-124965779D01*
X154620000Y-124640221D02*
X154620000Y-124965779D01*
G04 #@! TO.C,R19*
X158562000Y-124653221D02*
X158562000Y-124978779D01*
X157542000Y-124653221D02*
X157542000Y-124978779D01*
G04 #@! TO.C,R18*
X146941000Y-124703221D02*
X146941000Y-125028779D01*
X145921000Y-124703221D02*
X145921000Y-125028779D01*
G04 #@! TO.C,R17*
X149862000Y-124703221D02*
X149862000Y-125028779D01*
X148842000Y-124703221D02*
X148842000Y-125028779D01*
G04 #@! TO.C,R16*
X144338000Y-93334721D02*
X144338000Y-93660279D01*
X143318000Y-93334721D02*
X143318000Y-93660279D01*
G04 #@! TO.C,R15*
X144337221Y-102042000D02*
X144662779Y-102042000D01*
X144337221Y-103062000D02*
X144662779Y-103062000D01*
G04 #@! TO.C,R14*
X144650779Y-100141500D02*
X144325221Y-100141500D01*
X144650779Y-99121500D02*
X144325221Y-99121500D01*
G04 #@! TO.C,R13*
X144325221Y-100582000D02*
X144650779Y-100582000D01*
X144325221Y-101602000D02*
X144650779Y-101602000D01*
G04 #@! TO.C,R12*
X156148000Y-93283721D02*
X156148000Y-93609279D01*
X155128000Y-93283721D02*
X155128000Y-93609279D01*
G04 #@! TO.C,R11*
X155196221Y-101788000D02*
X155521779Y-101788000D01*
X155196221Y-102808000D02*
X155521779Y-102808000D01*
G04 #@! TO.C,R10*
X155521779Y-99887500D02*
X155196221Y-99887500D01*
X155521779Y-98867500D02*
X155196221Y-98867500D01*
G04 #@! TO.C,R9*
X155196221Y-100328000D02*
X155521779Y-100328000D01*
X155196221Y-101348000D02*
X155521779Y-101348000D01*
G04 #@! TO.C,R8*
X138948279Y-126938500D02*
X138622721Y-126938500D01*
X138948279Y-125918500D02*
X138622721Y-125918500D01*
G04 #@! TO.C,R7*
X173103000Y-108460221D02*
X173103000Y-108785779D01*
X172083000Y-108460221D02*
X172083000Y-108785779D01*
G04 #@! TO.C,R6*
X158938779Y-105158000D02*
X158613221Y-105158000D01*
X158938779Y-104138000D02*
X158613221Y-104138000D01*
G04 #@! TO.C,R5*
X171388000Y-108460221D02*
X171388000Y-108785779D01*
X170368000Y-108460221D02*
X170368000Y-108785779D01*
G04 #@! TO.C,R4*
X151826779Y-112460000D02*
X151501221Y-112460000D01*
X151826779Y-111440000D02*
X151501221Y-111440000D01*
G04 #@! TO.C,R3*
X151826779Y-111000000D02*
X151501221Y-111000000D01*
X151826779Y-109980000D02*
X151501221Y-109980000D01*
G04 #@! TO.C,R2*
X137830779Y-101284000D02*
X137505221Y-101284000D01*
X137830779Y-100264000D02*
X137505221Y-100264000D01*
G04 #@! TO.C,R1*
X137856779Y-99760500D02*
X137531221Y-99760500D01*
X137856779Y-98740500D02*
X137531221Y-98740500D01*
G04 #@! TO.C,C14*
X156081000Y-124978779D02*
X156081000Y-124653221D01*
X157101000Y-124978779D02*
X157101000Y-124653221D01*
G04 #@! TO.C,C13*
X147381500Y-124978279D02*
X147381500Y-124652721D01*
X148401500Y-124978279D02*
X148401500Y-124652721D01*
G04 #@! TO.C,C12*
X142070000Y-88993436D02*
X142070000Y-90197564D01*
X140250000Y-88993436D02*
X140250000Y-90197564D01*
G04 #@! TO.C,C11*
X153882000Y-88993436D02*
X153882000Y-90197564D01*
X152062000Y-88993436D02*
X152062000Y-90197564D01*
G04 #@! TO.C,C10*
X148790779Y-122494000D02*
X148465221Y-122494000D01*
X148790779Y-121474000D02*
X148465221Y-121474000D01*
G04 #@! TO.C,C9*
X138948279Y-128589500D02*
X138622721Y-128589500D01*
X138948279Y-127569500D02*
X138622721Y-127569500D01*
G04 #@! TO.C,C8*
X184965221Y-109091000D02*
X185290779Y-109091000D01*
X184965221Y-110111000D02*
X185290779Y-110111000D01*
G04 #@! TO.C,C7*
X151450000Y-114099221D02*
X151450000Y-114424779D01*
X150430000Y-114099221D02*
X150430000Y-114424779D01*
G04 #@! TO.C,C6*
X162442779Y-119446000D02*
X162117221Y-119446000D01*
X162442779Y-118426000D02*
X162117221Y-118426000D01*
G04 #@! TO.C,C5*
X155311221Y-106043000D02*
X155636779Y-106043000D01*
X155311221Y-107063000D02*
X155636779Y-107063000D01*
G04 #@! TO.C,C4*
X149926000Y-112715221D02*
X149926000Y-113040779D01*
X148906000Y-112715221D02*
X148906000Y-113040779D01*
G04 #@! TO.C,C3*
X148906000Y-110055779D02*
X148906000Y-109730221D01*
X149926000Y-110055779D02*
X149926000Y-109730221D01*
G04 #@! TO.C,C2*
X153298779Y-109158000D02*
X152973221Y-109158000D01*
X153298779Y-108138000D02*
X152973221Y-108138000D01*
G04 #@! TO.C,C1*
X152460779Y-107063000D02*
X152135221Y-107063000D01*
X152460779Y-106043000D02*
X152135221Y-106043000D01*
D11*
G04 #@! TO.C,U2*
X175104000Y-85344000D02*
X191104000Y-85344000D01*
X175104000Y-106744000D02*
X175104000Y-85344000D01*
X191104000Y-106744000D02*
X175104000Y-106744000D01*
X191104000Y-85344000D02*
X191104000Y-106744000D01*
D10*
G04 #@! TO.C,LCD1*
X168200000Y-120177000D02*
X168200000Y-117637000D01*
X168200000Y-120177000D02*
X170740000Y-120177000D01*
X168450000Y-119927000D02*
X168450000Y-110577000D01*
X191850000Y-119927000D02*
X168450000Y-119927000D01*
X191850000Y-110577000D02*
X191850000Y-119927000D01*
X168450000Y-110577000D02*
X191850000Y-110577000D01*
G04 #@! TO.C,Y1*
X148473000Y-118464000D02*
X148473000Y-105864000D01*
X143373000Y-118464000D02*
X148473000Y-118464000D01*
X143373000Y-105864000D02*
X143373000Y-118464000D01*
G04 #@! TO.C,J2*
X131676000Y-85954000D02*
X131676000Y-83954000D01*
X136676000Y-85954000D02*
X136676000Y-83954000D01*
X136676000Y-83954000D02*
X131676000Y-83954000D01*
X131676000Y-85954000D02*
X131076000Y-85954000D01*
X137276000Y-85954000D02*
X136676000Y-85954000D01*
X131076000Y-98054000D02*
X137276000Y-98054000D01*
X137276000Y-85954000D02*
X137276000Y-88329000D01*
X137276000Y-89979000D02*
X137276000Y-91329000D01*
X137276000Y-92979000D02*
X137276000Y-95379000D01*
X137276000Y-96929000D02*
X137276000Y-98054000D01*
X131076000Y-96479000D02*
X131076000Y-85954000D01*
X137276000Y-96929000D02*
X138676000Y-96929000D01*
X137276000Y-95379000D02*
X138676000Y-95379000D01*
G04 #@! TO.C,U1*
X155063000Y-116336000D02*
X155483000Y-116336000D01*
X155063000Y-109216000D02*
X155063000Y-109636000D01*
X155063000Y-109636000D02*
X153683000Y-109636000D01*
X162183000Y-109216000D02*
X161763000Y-109216000D01*
X162183000Y-116336000D02*
X161763000Y-116336000D01*
X155063000Y-109216000D02*
X155483000Y-109216000D01*
X155063000Y-116336000D02*
X155063000Y-115916000D01*
X162183000Y-116336000D02*
X162183000Y-115916000D01*
X162183000Y-109216000D02*
X162183000Y-109636000D01*
G04 #@! TO.C,Q7*
X133336000Y-102558000D02*
X134796000Y-102558000D01*
X133336000Y-105718000D02*
X135496000Y-105718000D01*
X133336000Y-105718000D02*
X133336000Y-104788000D01*
X133336000Y-102558000D02*
X133336000Y-103488000D01*
G04 #@! TO.C,Q6*
X133368000Y-120972000D02*
X134828000Y-120972000D01*
X133368000Y-124132000D02*
X135528000Y-124132000D01*
X133368000Y-124132000D02*
X133368000Y-123202000D01*
X133368000Y-120972000D02*
X133368000Y-121902000D01*
G04 #@! TO.C,Q5*
X133368000Y-111765000D02*
X134828000Y-111765000D01*
X133368000Y-114925000D02*
X135528000Y-114925000D01*
X133368000Y-114925000D02*
X133368000Y-113995000D01*
X133368000Y-111765000D02*
X133368000Y-112695000D01*
G04 #@! TO.C,Q4*
X146371000Y-97936500D02*
X146571000Y-97936500D01*
X146371000Y-93636500D02*
X146371000Y-97936500D01*
X146521000Y-93636500D02*
X146371000Y-93636500D01*
X151571000Y-93636500D02*
X151421000Y-93636500D01*
X151571000Y-97936500D02*
X151571000Y-93636500D01*
X151371000Y-97936500D02*
X151571000Y-97936500D01*
G04 #@! TO.C,Q3*
X148477000Y-103116000D02*
X147017000Y-103116000D01*
X148477000Y-99956000D02*
X146317000Y-99956000D01*
X148477000Y-99956000D02*
X148477000Y-100886000D01*
X148477000Y-103116000D02*
X148477000Y-102186000D01*
G04 #@! TO.C,Q2*
X158246000Y-97946000D02*
X158446000Y-97946000D01*
X158246000Y-93646000D02*
X158246000Y-97946000D01*
X158396000Y-93646000D02*
X158246000Y-93646000D01*
X163446000Y-93646000D02*
X163296000Y-93646000D01*
X163446000Y-97946000D02*
X163446000Y-93646000D01*
X163246000Y-97946000D02*
X163446000Y-97946000D01*
G04 #@! TO.C,Q1*
X159399000Y-102862000D02*
X157939000Y-102862000D01*
X159399000Y-99702000D02*
X157239000Y-99702000D01*
X159399000Y-99702000D02*
X159399000Y-100632000D01*
X159399000Y-102862000D02*
X159399000Y-101932000D01*
G04 #@! TO.C,PWM_PWR1*
X160214000Y-121733000D02*
X161544000Y-121733000D01*
X160214000Y-123063000D02*
X160214000Y-121733000D01*
X160214000Y-124333000D02*
X162874000Y-124333000D01*
X162874000Y-124333000D02*
X162874000Y-129473000D01*
X160214000Y-124333000D02*
X160214000Y-129473000D01*
X160214000Y-129473000D02*
X162874000Y-129473000D01*
G04 #@! TO.C,PWM5*
X178312000Y-121733000D02*
X179642000Y-121733000D01*
X178312000Y-123063000D02*
X178312000Y-121733000D01*
X178312000Y-124333000D02*
X180972000Y-124333000D01*
X180972000Y-124333000D02*
X180972000Y-129473000D01*
X178312000Y-124333000D02*
X178312000Y-129473000D01*
X178312000Y-129473000D02*
X180972000Y-129473000D01*
G04 #@! TO.C,PWM4*
X174692000Y-121733000D02*
X176022000Y-121733000D01*
X174692000Y-123063000D02*
X174692000Y-121733000D01*
X174692000Y-124333000D02*
X177352000Y-124333000D01*
X177352000Y-124333000D02*
X177352000Y-129473000D01*
X174692000Y-124333000D02*
X174692000Y-129473000D01*
X174692000Y-129473000D02*
X177352000Y-129473000D01*
G04 #@! TO.C,PWM3*
X171072000Y-121733000D02*
X172402000Y-121733000D01*
X171072000Y-123063000D02*
X171072000Y-121733000D01*
X171072000Y-124333000D02*
X173732000Y-124333000D01*
X173732000Y-124333000D02*
X173732000Y-129473000D01*
X171072000Y-124333000D02*
X171072000Y-129473000D01*
X171072000Y-129473000D02*
X173732000Y-129473000D01*
G04 #@! TO.C,PWM2*
X167453000Y-121733000D02*
X168783000Y-121733000D01*
X167453000Y-123063000D02*
X167453000Y-121733000D01*
X167453000Y-124333000D02*
X170113000Y-124333000D01*
X170113000Y-124333000D02*
X170113000Y-129473000D01*
X167453000Y-124333000D02*
X167453000Y-129473000D01*
X167453000Y-129473000D02*
X170113000Y-129473000D01*
G04 #@! TO.C,PWM1*
X163834000Y-121733000D02*
X165164000Y-121733000D01*
X163834000Y-123063000D02*
X163834000Y-121733000D01*
X163834000Y-124333000D02*
X166494000Y-124333000D01*
X166494000Y-124333000D02*
X166494000Y-129473000D01*
X163834000Y-124333000D02*
X163834000Y-129473000D01*
X163834000Y-129473000D02*
X166494000Y-129473000D01*
G04 #@! TO.C,JP1*
X160976000Y-100524000D02*
X162306000Y-100524000D01*
X160976000Y-101854000D02*
X160976000Y-100524000D01*
X160976000Y-103124000D02*
X163636000Y-103124000D01*
X163636000Y-103124000D02*
X163636000Y-105724000D01*
X160976000Y-103124000D02*
X160976000Y-105724000D01*
X160976000Y-105724000D02*
X163636000Y-105724000D01*
G04 #@! TO.C,J11*
X184718000Y-129473000D02*
X183388000Y-129473000D01*
X184718000Y-128143000D02*
X184718000Y-129473000D01*
X184718000Y-126873000D02*
X182058000Y-126873000D01*
X182058000Y-126873000D02*
X182058000Y-121733000D01*
X184718000Y-126873000D02*
X184718000Y-121733000D01*
X184718000Y-121733000D02*
X182058000Y-121733000D01*
G04 #@! TO.C,J9*
X129238000Y-102851000D02*
X130568000Y-102851000D01*
X129238000Y-104181000D02*
X129238000Y-102851000D01*
X129238000Y-105451000D02*
X131898000Y-105451000D01*
X131898000Y-105451000D02*
X131898000Y-110591000D01*
X129238000Y-105451000D02*
X129238000Y-110591000D01*
X129238000Y-110591000D02*
X131898000Y-110591000D01*
G04 #@! TO.C,J8*
X129277000Y-121246000D02*
X130607000Y-121246000D01*
X129277000Y-122576000D02*
X129277000Y-121246000D01*
X129277000Y-123846000D02*
X131937000Y-123846000D01*
X131937000Y-123846000D02*
X131937000Y-128986000D01*
X129277000Y-123846000D02*
X129277000Y-128986000D01*
X129277000Y-128986000D02*
X131937000Y-128986000D01*
G04 #@! TO.C,J7*
X129250000Y-112058000D02*
X130580000Y-112058000D01*
X129250000Y-113388000D02*
X129250000Y-112058000D01*
X129250000Y-114658000D02*
X131910000Y-114658000D01*
X131910000Y-114658000D02*
X131910000Y-119798000D01*
X129250000Y-114658000D02*
X129250000Y-119798000D01*
X129250000Y-119798000D02*
X131910000Y-119798000D01*
G04 #@! TO.C,J6*
X152889000Y-129473000D02*
X152889000Y-128143000D01*
X154219000Y-129473000D02*
X152889000Y-129473000D01*
X155489000Y-129473000D02*
X155489000Y-126813000D01*
X155489000Y-126813000D02*
X158089000Y-126813000D01*
X155489000Y-129473000D02*
X158089000Y-129473000D01*
X158089000Y-129473000D02*
X158089000Y-126813000D01*
G04 #@! TO.C,J5*
X144312000Y-129486000D02*
X144312000Y-128156000D01*
X145642000Y-129486000D02*
X144312000Y-129486000D01*
X146912000Y-129486000D02*
X146912000Y-126826000D01*
X146912000Y-126826000D02*
X149512000Y-126826000D01*
X146912000Y-129486000D02*
X149512000Y-129486000D01*
X149512000Y-129486000D02*
X149512000Y-126826000D01*
G04 #@! TO.C,D12*
X132510000Y-109450000D02*
X135660000Y-109450000D01*
X132510000Y-111150000D02*
X135660000Y-111150000D01*
X132510000Y-109450000D02*
X132510000Y-111150000D01*
G04 #@! TO.C,D11*
X132486000Y-106020000D02*
X135636000Y-106020000D01*
X132486000Y-107720000D02*
X135636000Y-107720000D01*
X132486000Y-106020000D02*
X132486000Y-107720000D01*
G04 #@! TO.C,D10*
X132573000Y-127864000D02*
X135723000Y-127864000D01*
X132573000Y-129564000D02*
X135723000Y-129564000D01*
X132573000Y-127864000D02*
X132573000Y-129564000D01*
G04 #@! TO.C,D9*
X132530000Y-124436000D02*
X135680000Y-124436000D01*
X132530000Y-126136000D02*
X135680000Y-126136000D01*
X132530000Y-124436000D02*
X132530000Y-126136000D01*
G04 #@! TO.C,D8*
X132510000Y-118657000D02*
X135660000Y-118657000D01*
X132510000Y-120357000D02*
X135660000Y-120357000D01*
X132510000Y-118657000D02*
X132510000Y-120357000D01*
G04 #@! TO.C,D7*
X132510000Y-115228000D02*
X135660000Y-115228000D01*
X132510000Y-116928000D02*
X135660000Y-116928000D01*
X132510000Y-115228000D02*
X132510000Y-116928000D01*
G04 #@! TO.C,D6*
X153334000Y-126167000D02*
X151874000Y-126167000D01*
X153334000Y-123007000D02*
X151174000Y-123007000D01*
X153334000Y-123007000D02*
X153334000Y-123937000D01*
X153334000Y-126167000D02*
X153334000Y-125237000D01*
G04 #@! TO.C,D5*
X142825500Y-128897500D02*
X141365500Y-128897500D01*
X142825500Y-125737500D02*
X140665500Y-125737500D01*
X142825500Y-125737500D02*
X142825500Y-126667500D01*
X142825500Y-128897500D02*
X142825500Y-127967500D01*
G04 #@! TO.C,D4*
X142225000Y-95162000D02*
X145375000Y-95162000D01*
X142225000Y-96862000D02*
X145375000Y-96862000D01*
X142225000Y-95162000D02*
X142225000Y-96862000D01*
G04 #@! TO.C,D3*
X144680000Y-92012500D02*
X144680000Y-94297500D01*
X146150000Y-92012500D02*
X144680000Y-92012500D01*
X146150000Y-94297500D02*
X146150000Y-92012500D01*
G04 #@! TO.C,D2*
X154036000Y-95162000D02*
X157186000Y-95162000D01*
X154036000Y-96862000D02*
X157186000Y-96862000D01*
X154036000Y-95162000D02*
X154036000Y-96862000D01*
G04 #@! TO.C,D1*
X156491000Y-91987000D02*
X156491000Y-94272000D01*
X157961000Y-91987000D02*
X156491000Y-91987000D01*
X157961000Y-94272000D02*
X157961000Y-91987000D01*
G04 #@! TD*
%LPC*%
D12*
G04 #@! TO.C,JP2*
X129868000Y-99885500D03*
D11*
G36*
X130377950Y-99085480D02*
X130387517Y-99088382D01*
X130396334Y-99093095D01*
X130404062Y-99099438D01*
X130410435Y-99107210D01*
X130910435Y-99857210D01*
X130915138Y-99866032D01*
X130918030Y-99875603D01*
X130919000Y-99885553D01*
X130918010Y-99895502D01*
X130915097Y-99905066D01*
X130910435Y-99913790D01*
X130410435Y-100663790D01*
X130404100Y-100671525D01*
X130396378Y-100677875D01*
X130387566Y-100682597D01*
X130378002Y-100685510D01*
X130368000Y-100686500D01*
X129368000Y-100686500D01*
X129358050Y-100685520D01*
X129348483Y-100682618D01*
X129339666Y-100677905D01*
X129331938Y-100671562D01*
X129325595Y-100663834D01*
X129320882Y-100655017D01*
X129317980Y-100645450D01*
X129317000Y-100635500D01*
X129317000Y-99135500D01*
X129317980Y-99125550D01*
X129320882Y-99115983D01*
X129325595Y-99107166D01*
X129331938Y-99099438D01*
X129339666Y-99093095D01*
X129348483Y-99088382D01*
X129358050Y-99085480D01*
X129368000Y-99084500D01*
X130368000Y-99084500D01*
X130377950Y-99085480D01*
X130377950Y-99085480D01*
G37*
D12*
X131318000Y-99885500D03*
D11*
G36*
X131827950Y-99085480D02*
X131837517Y-99088382D01*
X131846334Y-99093095D01*
X131854062Y-99099438D01*
X131860405Y-99107166D01*
X131865118Y-99115983D01*
X131868020Y-99125550D01*
X131869000Y-99135500D01*
X131869000Y-100635500D01*
X131868020Y-100645450D01*
X131865118Y-100655017D01*
X131860405Y-100663834D01*
X131854062Y-100671562D01*
X131846334Y-100677905D01*
X131837517Y-100682618D01*
X131827950Y-100685520D01*
X131818000Y-100686500D01*
X130668000Y-100686500D01*
X130658050Y-100685520D01*
X130648483Y-100682618D01*
X130639666Y-100677905D01*
X130631938Y-100671562D01*
X130625595Y-100663834D01*
X130620882Y-100655017D01*
X130617980Y-100645450D01*
X130617000Y-100635500D01*
X130617980Y-100625550D01*
X130620882Y-100615983D01*
X130625565Y-100607210D01*
X131106705Y-99885500D01*
X130625565Y-99163790D01*
X130620862Y-99154968D01*
X130617970Y-99145397D01*
X130617000Y-99135447D01*
X130617990Y-99125498D01*
X130620903Y-99115934D01*
X130625625Y-99107122D01*
X130631975Y-99099400D01*
X130639710Y-99093065D01*
X130648532Y-99088362D01*
X130658103Y-99085470D01*
X130668000Y-99084500D01*
X131818000Y-99084500D01*
X131827950Y-99085480D01*
X131827950Y-99085480D01*
G37*
G04 #@! TD*
D13*
G04 #@! TO.C,J4*
X148653500Y-88328500D03*
D14*
X145153500Y-88328500D03*
G04 #@! TD*
D13*
G04 #@! TO.C,J3*
X160281500Y-88328500D03*
D14*
X156781500Y-88328500D03*
G04 #@! TD*
D13*
G04 #@! TO.C,J1*
X170505000Y-88328500D03*
D14*
X167005000Y-88328500D03*
G04 #@! TD*
D15*
G04 #@! TO.C,TC1*
X165735000Y-104140000D03*
X165735000Y-101600000D03*
X165735000Y-99060000D03*
X165735000Y-96520000D03*
D16*
X165735000Y-93980000D03*
G04 #@! TD*
D15*
G04 #@! TO.C,TC0*
X169354000Y-104140000D03*
X169354000Y-101600000D03*
X169354000Y-99060000D03*
X169354000Y-96520000D03*
D16*
X169354000Y-93980000D03*
G04 #@! TD*
D15*
G04 #@! TO.C,SWD1*
X172910000Y-104140000D03*
X172910000Y-101600000D03*
X172910000Y-99060000D03*
X172910000Y-96520000D03*
D16*
X172910000Y-93980000D03*
G04 #@! TD*
D17*
G04 #@! TO.C,R29*
X134683500Y-108585000D03*
X133108500Y-108585000D03*
G04 #@! TD*
G04 #@! TO.C,R28*
X136524500Y-105156000D03*
X138099500Y-105156000D03*
G04 #@! TD*
G04 #@! TO.C,R27*
X138099500Y-103124000D03*
X136524500Y-103124000D03*
G04 #@! TD*
G04 #@! TO.C,R26*
X134683500Y-127000000D03*
X133108500Y-127000000D03*
G04 #@! TD*
G04 #@! TO.C,R25*
X136562500Y-123571000D03*
X138137500Y-123571000D03*
G04 #@! TD*
G04 #@! TO.C,R24*
X138137500Y-121539000D03*
X136562500Y-121539000D03*
G04 #@! TD*
G04 #@! TO.C,R23*
X134683500Y-117792000D03*
X133108500Y-117792000D03*
G04 #@! TD*
G04 #@! TO.C,R22*
X136524500Y-114364000D03*
X138099500Y-114364000D03*
G04 #@! TD*
G04 #@! TO.C,R21*
X138112500Y-112332000D03*
X136537500Y-112332000D03*
G04 #@! TD*
D18*
G04 #@! TO.C,R20*
X155130000Y-124015500D03*
X155130000Y-125590500D03*
G04 #@! TD*
G04 #@! TO.C,R19*
X158052000Y-124028500D03*
X158052000Y-125603500D03*
G04 #@! TD*
G04 #@! TO.C,R18*
X146431000Y-124078500D03*
X146431000Y-125653500D03*
G04 #@! TD*
G04 #@! TO.C,R17*
X149352000Y-124078500D03*
X149352000Y-125653500D03*
G04 #@! TD*
G04 #@! TO.C,R16*
X143828000Y-92710000D03*
X143828000Y-94285000D03*
G04 #@! TD*
D17*
G04 #@! TO.C,R15*
X143712500Y-102552000D03*
X145287500Y-102552000D03*
G04 #@! TD*
G04 #@! TO.C,R14*
X145275500Y-99631500D03*
X143700500Y-99631500D03*
G04 #@! TD*
G04 #@! TO.C,R13*
X143700500Y-101092000D03*
X145275500Y-101092000D03*
G04 #@! TD*
D18*
G04 #@! TO.C,R12*
X155638000Y-92659000D03*
X155638000Y-94234000D03*
G04 #@! TD*
D17*
G04 #@! TO.C,R11*
X154571500Y-102298000D03*
X156146500Y-102298000D03*
G04 #@! TD*
G04 #@! TO.C,R10*
X156146500Y-99377500D03*
X154571500Y-99377500D03*
G04 #@! TD*
G04 #@! TO.C,R9*
X154571500Y-100838000D03*
X156146500Y-100838000D03*
G04 #@! TD*
G04 #@! TO.C,R8*
X139573000Y-126428500D03*
X137998000Y-126428500D03*
G04 #@! TD*
D18*
G04 #@! TO.C,R7*
X172593000Y-107835500D03*
X172593000Y-109410500D03*
G04 #@! TD*
D17*
G04 #@! TO.C,R6*
X159563500Y-104648000D03*
X157988500Y-104648000D03*
G04 #@! TD*
D18*
G04 #@! TO.C,R5*
X170878000Y-107835500D03*
X170878000Y-109410500D03*
G04 #@! TD*
D17*
G04 #@! TO.C,R4*
X152451500Y-111950000D03*
X150876500Y-111950000D03*
G04 #@! TD*
G04 #@! TO.C,R3*
X152451500Y-110490000D03*
X150876500Y-110490000D03*
G04 #@! TD*
G04 #@! TO.C,R2*
X138455500Y-100774000D03*
X136880500Y-100774000D03*
G04 #@! TD*
G04 #@! TO.C,R1*
X138481500Y-99250500D03*
X136906500Y-99250500D03*
G04 #@! TD*
D18*
G04 #@! TO.C,C14*
X156591000Y-125603500D03*
X156591000Y-124028500D03*
G04 #@! TD*
G04 #@! TO.C,C13*
X147891500Y-125603000D03*
X147891500Y-124028000D03*
G04 #@! TD*
D19*
G04 #@! TO.C,C12*
X141160000Y-88195500D03*
X141160000Y-90995500D03*
G04 #@! TD*
G04 #@! TO.C,C11*
X152972000Y-88195500D03*
X152972000Y-90995500D03*
G04 #@! TD*
D17*
G04 #@! TO.C,C10*
X149415500Y-121984000D03*
X147840500Y-121984000D03*
G04 #@! TD*
G04 #@! TO.C,C9*
X139573000Y-128079500D03*
X137998000Y-128079500D03*
G04 #@! TD*
G04 #@! TO.C,C8*
X184340500Y-109601000D03*
X185915500Y-109601000D03*
G04 #@! TD*
D18*
G04 #@! TO.C,C7*
X150940000Y-113474500D03*
X150940000Y-115049500D03*
G04 #@! TD*
D17*
G04 #@! TO.C,C6*
X163067500Y-118936000D03*
X161492500Y-118936000D03*
G04 #@! TD*
G04 #@! TO.C,C5*
X154686500Y-106553000D03*
X156261500Y-106553000D03*
G04 #@! TD*
D18*
G04 #@! TO.C,C4*
X149416000Y-112090500D03*
X149416000Y-113665500D03*
G04 #@! TD*
G04 #@! TO.C,C3*
X149416000Y-110680500D03*
X149416000Y-109105500D03*
G04 #@! TD*
D17*
G04 #@! TO.C,C2*
X153923500Y-108648000D03*
X152348500Y-108648000D03*
G04 #@! TD*
G04 #@! TO.C,C1*
X153085500Y-106553000D03*
X151510500Y-106553000D03*
G04 #@! TD*
D20*
G04 #@! TO.C,U2*
X178704000Y-105944000D03*
X176304000Y-105944000D03*
X187504000Y-105944000D03*
X189904000Y-105944000D03*
X178704000Y-86144000D03*
X176304000Y-86144000D03*
X187504000Y-86144000D03*
X189904000Y-86144000D03*
G04 #@! TD*
D21*
G04 #@! TO.C,H2*
X188785500Y-126682500D03*
G04 #@! TD*
G04 #@! TO.C,H1*
X142367000Y-122047000D03*
G04 #@! TD*
D22*
G04 #@! TO.C,LCD1*
X186500000Y-113982000D03*
X186500000Y-116522000D03*
X183960000Y-113982000D03*
X183960000Y-116522000D03*
X181420000Y-113982000D03*
X181420000Y-116522000D03*
X178880000Y-113982000D03*
X178880000Y-116522000D03*
X176340000Y-113982000D03*
X176340000Y-116522000D03*
X173800000Y-113982000D03*
D23*
X173800000Y-116522000D03*
G04 #@! TD*
D24*
G04 #@! TO.C,Y1*
X145923000Y-107514000D03*
X145923000Y-116014000D03*
G04 #@! TD*
D25*
G04 #@! TO.C,J2*
X134176000Y-94554000D03*
X134176000Y-87554000D03*
D26*
X137426000Y-89154000D03*
X137426000Y-92154000D03*
X137426000Y-96154000D03*
X130926000Y-97254000D03*
G04 #@! TD*
D27*
G04 #@! TO.C,U1*
X155873000Y-108426000D03*
X156373000Y-108426000D03*
X156873000Y-108426000D03*
X157373000Y-108426000D03*
X157873000Y-108426000D03*
X158373000Y-108426000D03*
X158873000Y-108426000D03*
X159373000Y-108426000D03*
X159873000Y-108426000D03*
X160373000Y-108426000D03*
X160873000Y-108426000D03*
X161373000Y-108426000D03*
D28*
X162973000Y-110026000D03*
X162973000Y-110526000D03*
X162973000Y-111026000D03*
X162973000Y-111526000D03*
X162973000Y-112026000D03*
X162973000Y-112526000D03*
X162973000Y-113026000D03*
X162973000Y-113526000D03*
X162973000Y-114026000D03*
X162973000Y-114526000D03*
X162973000Y-115026000D03*
X162973000Y-115526000D03*
D27*
X161373000Y-117126000D03*
X160873000Y-117126000D03*
X160373000Y-117126000D03*
X159873000Y-117126000D03*
X159373000Y-117126000D03*
X158873000Y-117126000D03*
X158373000Y-117126000D03*
X157873000Y-117126000D03*
X157373000Y-117126000D03*
X156873000Y-117126000D03*
X156373000Y-117126000D03*
X155873000Y-117126000D03*
D28*
X154273000Y-115526000D03*
X154273000Y-115026000D03*
X154273000Y-114526000D03*
X154273000Y-114026000D03*
X154273000Y-113526000D03*
X154273000Y-113026000D03*
X154273000Y-112526000D03*
X154273000Y-112026000D03*
X154273000Y-111526000D03*
X154273000Y-111026000D03*
X154273000Y-110526000D03*
X154273000Y-110026000D03*
G04 #@! TD*
D29*
G04 #@! TO.C,Q7*
X133096000Y-104138000D03*
X135096000Y-103188000D03*
X135096000Y-105088000D03*
G04 #@! TD*
G04 #@! TO.C,Q6*
X133128000Y-122552000D03*
X135128000Y-121602000D03*
X135128000Y-123502000D03*
G04 #@! TD*
G04 #@! TO.C,Q5*
X133128000Y-113345000D03*
X135128000Y-112395000D03*
X135128000Y-114295000D03*
G04 #@! TD*
D30*
G04 #@! TO.C,Q4*
X150881000Y-98456500D03*
D31*
X148971000Y-95186500D03*
D32*
X148971000Y-92986500D03*
D30*
X149611000Y-98456500D03*
X147061000Y-98456500D03*
X148331000Y-98456500D03*
G04 #@! TD*
D29*
G04 #@! TO.C,Q3*
X148717000Y-101536000D03*
X146717000Y-102486000D03*
X146717000Y-100586000D03*
G04 #@! TD*
D30*
G04 #@! TO.C,Q2*
X162756000Y-98466000D03*
D31*
X160846000Y-95196000D03*
D32*
X160846000Y-92996000D03*
D30*
X161486000Y-98466000D03*
X158936000Y-98466000D03*
X160206000Y-98466000D03*
G04 #@! TD*
D29*
G04 #@! TO.C,Q1*
X159639000Y-101282000D03*
X157639000Y-102232000D03*
X157639000Y-100332000D03*
G04 #@! TD*
D15*
G04 #@! TO.C,PWM_PWR1*
X161544000Y-128143000D03*
X161544000Y-125603000D03*
D16*
X161544000Y-123063000D03*
G04 #@! TD*
D15*
G04 #@! TO.C,PWM5*
X179642000Y-128143000D03*
X179642000Y-125603000D03*
D16*
X179642000Y-123063000D03*
G04 #@! TD*
D15*
G04 #@! TO.C,PWM4*
X176022000Y-128143000D03*
X176022000Y-125603000D03*
D16*
X176022000Y-123063000D03*
G04 #@! TD*
D15*
G04 #@! TO.C,PWM3*
X172402000Y-128143000D03*
X172402000Y-125603000D03*
D16*
X172402000Y-123063000D03*
G04 #@! TD*
D15*
G04 #@! TO.C,PWM2*
X168783000Y-128143000D03*
X168783000Y-125603000D03*
D16*
X168783000Y-123063000D03*
G04 #@! TD*
D15*
G04 #@! TO.C,PWM1*
X165164000Y-128143000D03*
X165164000Y-125603000D03*
D16*
X165164000Y-123063000D03*
G04 #@! TD*
D15*
G04 #@! TO.C,JP1*
X162306000Y-104394000D03*
D16*
X162306000Y-101854000D03*
G04 #@! TD*
D15*
G04 #@! TO.C,J11*
X183388000Y-123063000D03*
X183388000Y-125603000D03*
D16*
X183388000Y-128143000D03*
G04 #@! TD*
D15*
G04 #@! TO.C,J9*
X130568000Y-109261000D03*
X130568000Y-106721000D03*
D16*
X130568000Y-104181000D03*
G04 #@! TD*
D15*
G04 #@! TO.C,J8*
X130607000Y-127656000D03*
X130607000Y-125116000D03*
D16*
X130607000Y-122576000D03*
G04 #@! TD*
D15*
G04 #@! TO.C,J7*
X130580000Y-118468000D03*
X130580000Y-115928000D03*
D16*
X130580000Y-113388000D03*
G04 #@! TD*
D15*
G04 #@! TO.C,J6*
X156759000Y-128143000D03*
D16*
X154219000Y-128143000D03*
G04 #@! TD*
D15*
G04 #@! TO.C,J5*
X148182000Y-128156000D03*
D16*
X145642000Y-128156000D03*
G04 #@! TD*
D33*
G04 #@! TO.C,D12*
X135660000Y-110300000D03*
X133160000Y-110300000D03*
G04 #@! TD*
G04 #@! TO.C,D11*
X135636000Y-106870000D03*
X133136000Y-106870000D03*
G04 #@! TD*
G04 #@! TO.C,D10*
X135723000Y-128714000D03*
X133223000Y-128714000D03*
G04 #@! TD*
G04 #@! TO.C,D9*
X135680000Y-125286000D03*
X133180000Y-125286000D03*
G04 #@! TD*
G04 #@! TO.C,D8*
X135660000Y-119507000D03*
X133160000Y-119507000D03*
G04 #@! TD*
G04 #@! TO.C,D7*
X135660000Y-116078000D03*
X133160000Y-116078000D03*
G04 #@! TD*
D29*
G04 #@! TO.C,D6*
X153574000Y-124587000D03*
X151574000Y-125537000D03*
X151574000Y-123637000D03*
G04 #@! TD*
G04 #@! TO.C,D5*
X143065500Y-127317500D03*
X141065500Y-128267500D03*
X141065500Y-126367500D03*
G04 #@! TD*
D33*
G04 #@! TO.C,D4*
X145375000Y-96012000D03*
X142875000Y-96012000D03*
G04 #@! TD*
D11*
G04 #@! TO.C,D3*
G36*
X145720691Y-93797676D02*
X145744401Y-93801193D01*
X145767652Y-93807017D01*
X145790220Y-93815092D01*
X145811889Y-93825341D01*
X145832448Y-93837664D01*
X145851701Y-93851942D01*
X145869461Y-93868039D01*
X145885558Y-93885799D01*
X145899836Y-93905052D01*
X145912159Y-93925611D01*
X145922408Y-93947280D01*
X145930483Y-93969848D01*
X145936307Y-93993099D01*
X145939824Y-94016809D01*
X145941000Y-94040750D01*
X145941000Y-94529250D01*
X145939824Y-94553191D01*
X145936307Y-94576901D01*
X145930483Y-94600152D01*
X145922408Y-94622720D01*
X145912159Y-94644389D01*
X145899836Y-94664948D01*
X145885558Y-94684201D01*
X145869461Y-94701961D01*
X145851701Y-94718058D01*
X145832448Y-94732336D01*
X145811889Y-94744659D01*
X145790220Y-94754908D01*
X145767652Y-94762983D01*
X145744401Y-94768807D01*
X145720691Y-94772324D01*
X145696750Y-94773500D01*
X145133250Y-94773500D01*
X145109309Y-94772324D01*
X145085599Y-94768807D01*
X145062348Y-94762983D01*
X145039780Y-94754908D01*
X145018111Y-94744659D01*
X144997552Y-94732336D01*
X144978299Y-94718058D01*
X144960539Y-94701961D01*
X144944442Y-94684201D01*
X144930164Y-94664948D01*
X144917841Y-94644389D01*
X144907592Y-94622720D01*
X144899517Y-94600152D01*
X144893693Y-94576901D01*
X144890176Y-94553191D01*
X144889000Y-94529250D01*
X144889000Y-94040750D01*
X144890176Y-94016809D01*
X144893693Y-93993099D01*
X144899517Y-93969848D01*
X144907592Y-93947280D01*
X144917841Y-93925611D01*
X144930164Y-93905052D01*
X144944442Y-93885799D01*
X144960539Y-93868039D01*
X144978299Y-93851942D01*
X144997552Y-93837664D01*
X145018111Y-93825341D01*
X145039780Y-93815092D01*
X145062348Y-93807017D01*
X145085599Y-93801193D01*
X145109309Y-93797676D01*
X145133250Y-93796500D01*
X145696750Y-93796500D01*
X145720691Y-93797676D01*
X145720691Y-93797676D01*
G37*
D34*
X145415000Y-94285000D03*
D11*
G36*
X145720691Y-92222676D02*
X145744401Y-92226193D01*
X145767652Y-92232017D01*
X145790220Y-92240092D01*
X145811889Y-92250341D01*
X145832448Y-92262664D01*
X145851701Y-92276942D01*
X145869461Y-92293039D01*
X145885558Y-92310799D01*
X145899836Y-92330052D01*
X145912159Y-92350611D01*
X145922408Y-92372280D01*
X145930483Y-92394848D01*
X145936307Y-92418099D01*
X145939824Y-92441809D01*
X145941000Y-92465750D01*
X145941000Y-92954250D01*
X145939824Y-92978191D01*
X145936307Y-93001901D01*
X145930483Y-93025152D01*
X145922408Y-93047720D01*
X145912159Y-93069389D01*
X145899836Y-93089948D01*
X145885558Y-93109201D01*
X145869461Y-93126961D01*
X145851701Y-93143058D01*
X145832448Y-93157336D01*
X145811889Y-93169659D01*
X145790220Y-93179908D01*
X145767652Y-93187983D01*
X145744401Y-93193807D01*
X145720691Y-93197324D01*
X145696750Y-93198500D01*
X145133250Y-93198500D01*
X145109309Y-93197324D01*
X145085599Y-93193807D01*
X145062348Y-93187983D01*
X145039780Y-93179908D01*
X145018111Y-93169659D01*
X144997552Y-93157336D01*
X144978299Y-93143058D01*
X144960539Y-93126961D01*
X144944442Y-93109201D01*
X144930164Y-93089948D01*
X144917841Y-93069389D01*
X144907592Y-93047720D01*
X144899517Y-93025152D01*
X144893693Y-93001901D01*
X144890176Y-92978191D01*
X144889000Y-92954250D01*
X144889000Y-92465750D01*
X144890176Y-92441809D01*
X144893693Y-92418099D01*
X144899517Y-92394848D01*
X144907592Y-92372280D01*
X144917841Y-92350611D01*
X144930164Y-92330052D01*
X144944442Y-92310799D01*
X144960539Y-92293039D01*
X144978299Y-92276942D01*
X144997552Y-92262664D01*
X145018111Y-92250341D01*
X145039780Y-92240092D01*
X145062348Y-92232017D01*
X145085599Y-92226193D01*
X145109309Y-92222676D01*
X145133250Y-92221500D01*
X145696750Y-92221500D01*
X145720691Y-92222676D01*
X145720691Y-92222676D01*
G37*
D34*
X145415000Y-92710000D03*
G04 #@! TD*
D33*
G04 #@! TO.C,D2*
X157186000Y-96012000D03*
X154686000Y-96012000D03*
G04 #@! TD*
D11*
G04 #@! TO.C,D1*
G36*
X157531691Y-93772176D02*
X157555401Y-93775693D01*
X157578652Y-93781517D01*
X157601220Y-93789592D01*
X157622889Y-93799841D01*
X157643448Y-93812164D01*
X157662701Y-93826442D01*
X157680461Y-93842539D01*
X157696558Y-93860299D01*
X157710836Y-93879552D01*
X157723159Y-93900111D01*
X157733408Y-93921780D01*
X157741483Y-93944348D01*
X157747307Y-93967599D01*
X157750824Y-93991309D01*
X157752000Y-94015250D01*
X157752000Y-94503750D01*
X157750824Y-94527691D01*
X157747307Y-94551401D01*
X157741483Y-94574652D01*
X157733408Y-94597220D01*
X157723159Y-94618889D01*
X157710836Y-94639448D01*
X157696558Y-94658701D01*
X157680461Y-94676461D01*
X157662701Y-94692558D01*
X157643448Y-94706836D01*
X157622889Y-94719159D01*
X157601220Y-94729408D01*
X157578652Y-94737483D01*
X157555401Y-94743307D01*
X157531691Y-94746824D01*
X157507750Y-94748000D01*
X156944250Y-94748000D01*
X156920309Y-94746824D01*
X156896599Y-94743307D01*
X156873348Y-94737483D01*
X156850780Y-94729408D01*
X156829111Y-94719159D01*
X156808552Y-94706836D01*
X156789299Y-94692558D01*
X156771539Y-94676461D01*
X156755442Y-94658701D01*
X156741164Y-94639448D01*
X156728841Y-94618889D01*
X156718592Y-94597220D01*
X156710517Y-94574652D01*
X156704693Y-94551401D01*
X156701176Y-94527691D01*
X156700000Y-94503750D01*
X156700000Y-94015250D01*
X156701176Y-93991309D01*
X156704693Y-93967599D01*
X156710517Y-93944348D01*
X156718592Y-93921780D01*
X156728841Y-93900111D01*
X156741164Y-93879552D01*
X156755442Y-93860299D01*
X156771539Y-93842539D01*
X156789299Y-93826442D01*
X156808552Y-93812164D01*
X156829111Y-93799841D01*
X156850780Y-93789592D01*
X156873348Y-93781517D01*
X156896599Y-93775693D01*
X156920309Y-93772176D01*
X156944250Y-93771000D01*
X157507750Y-93771000D01*
X157531691Y-93772176D01*
X157531691Y-93772176D01*
G37*
D34*
X157226000Y-94259500D03*
D11*
G36*
X157531691Y-92197176D02*
X157555401Y-92200693D01*
X157578652Y-92206517D01*
X157601220Y-92214592D01*
X157622889Y-92224841D01*
X157643448Y-92237164D01*
X157662701Y-92251442D01*
X157680461Y-92267539D01*
X157696558Y-92285299D01*
X157710836Y-92304552D01*
X157723159Y-92325111D01*
X157733408Y-92346780D01*
X157741483Y-92369348D01*
X157747307Y-92392599D01*
X157750824Y-92416309D01*
X157752000Y-92440250D01*
X157752000Y-92928750D01*
X157750824Y-92952691D01*
X157747307Y-92976401D01*
X157741483Y-92999652D01*
X157733408Y-93022220D01*
X157723159Y-93043889D01*
X157710836Y-93064448D01*
X157696558Y-93083701D01*
X157680461Y-93101461D01*
X157662701Y-93117558D01*
X157643448Y-93131836D01*
X157622889Y-93144159D01*
X157601220Y-93154408D01*
X157578652Y-93162483D01*
X157555401Y-93168307D01*
X157531691Y-93171824D01*
X157507750Y-93173000D01*
X156944250Y-93173000D01*
X156920309Y-93171824D01*
X156896599Y-93168307D01*
X156873348Y-93162483D01*
X156850780Y-93154408D01*
X156829111Y-93144159D01*
X156808552Y-93131836D01*
X156789299Y-93117558D01*
X156771539Y-93101461D01*
X156755442Y-93083701D01*
X156741164Y-93064448D01*
X156728841Y-93043889D01*
X156718592Y-93022220D01*
X156710517Y-92999652D01*
X156704693Y-92976401D01*
X156701176Y-92952691D01*
X156700000Y-92928750D01*
X156700000Y-92440250D01*
X156701176Y-92416309D01*
X156704693Y-92392599D01*
X156710517Y-92369348D01*
X156718592Y-92346780D01*
X156728841Y-92325111D01*
X156741164Y-92304552D01*
X156755442Y-92285299D01*
X156771539Y-92267539D01*
X156789299Y-92251442D01*
X156808552Y-92237164D01*
X156829111Y-92224841D01*
X156850780Y-92214592D01*
X156873348Y-92206517D01*
X156896599Y-92200693D01*
X156920309Y-92197176D01*
X156944250Y-92196000D01*
X157507750Y-92196000D01*
X157531691Y-92197176D01*
X157531691Y-92197176D01*
G37*
D34*
X157226000Y-92684500D03*
G04 #@! TD*
M02*
