G04 #@! TF.GenerationSoftware,KiCad,Pcbnew,6.0.0-rc1-unknown-170ff66~66~ubuntu18.10.1*
G04 #@! TF.CreationDate,2019-01-13T01:23:09-08:00
G04 #@! TF.ProjectId,EExtruder,45457874-7275-4646-9572-2e6b69636164,rev?*
G04 #@! TF.SameCoordinates,Original*
G04 #@! TF.FileFunction,Legend,Top*
G04 #@! TF.FilePolarity,Positive*
%FSLAX46Y46*%
G04 Gerber Fmt 4.6, Leading zero omitted, Abs format (unit mm)*
G04 Created by KiCad (PCBNEW 6.0.0-rc1-unknown-170ff66~66~ubuntu18.10.1) date Sun 13 Jan 2019 01:23:09 AM PST*
%MOMM*%
%LPD*%
G04 APERTURE LIST*
%ADD10C,0.150000*%
%ADD11C,0.120000*%
%ADD12C,0.100000*%
%ADD13C,1.602000*%
%ADD14R,2.602000X1.302000*%
%ADD15R,1.602000X2.102000*%
%ADD16R,3.902000X2.102000*%
%ADD17O,1.802000X1.802000*%
%ADD18R,1.802000X1.802000*%
%ADD19R,1.102000X1.602000*%
%ADD20R,1.052000X0.977000*%
%ADD21R,0.977000X1.052000*%
%ADD22R,3.102000X0.229000*%
%ADD23R,0.229000X3.102000*%
%ADD24C,0.300000*%
%ADD25R,2.502000X2.502000*%
%ADD26C,2.502000*%
%ADD27R,1.852000X1.352000*%
%ADD28R,2.102000X4.102000*%
%ADD29C,3.302000*%
%ADD30O,1.829200X1.829200*%
%ADD31R,1.829200X1.829200*%
%ADD32R,2.102000X4.602000*%
%ADD33R,0.352000X1.402000*%
%ADD34R,1.402000X0.352000*%
%ADD35R,1.002000X0.902000*%
%ADD36R,0.840000X1.290000*%
%ADD37R,4.340000X3.440000*%
%ADD38R,4.840000X1.690000*%
%ADD39R,1.102000X1.102000*%
%ADD40C,0.977000*%
G04 APERTURE END LIST*
D10*
X173852380Y-107752380D02*
X174471428Y-107752380D01*
X174138095Y-108133333D01*
X174280952Y-108133333D01*
X174376190Y-108180952D01*
X174423809Y-108228571D01*
X174471428Y-108323809D01*
X174471428Y-108561904D01*
X174423809Y-108657142D01*
X174376190Y-108704761D01*
X174280952Y-108752380D01*
X173995238Y-108752380D01*
X173900000Y-108704761D01*
X173852380Y-108657142D01*
X174900000Y-108657142D02*
X174947619Y-108704761D01*
X174900000Y-108752380D01*
X174852380Y-108704761D01*
X174900000Y-108657142D01*
X174900000Y-108752380D01*
X175280952Y-107752380D02*
X175900000Y-107752380D01*
X175566666Y-108133333D01*
X175709523Y-108133333D01*
X175804761Y-108180952D01*
X175852380Y-108228571D01*
X175900000Y-108323809D01*
X175900000Y-108561904D01*
X175852380Y-108657142D01*
X175804761Y-108704761D01*
X175709523Y-108752380D01*
X175423809Y-108752380D01*
X175328571Y-108704761D01*
X175280952Y-108657142D01*
X181638095Y-107752380D02*
X181161904Y-107752380D01*
X181114285Y-108228571D01*
X181161904Y-108180952D01*
X181257142Y-108133333D01*
X181495238Y-108133333D01*
X181590476Y-108180952D01*
X181638095Y-108228571D01*
X181685714Y-108323809D01*
X181685714Y-108561904D01*
X181638095Y-108657142D01*
X181590476Y-108704761D01*
X181495238Y-108752380D01*
X181257142Y-108752380D01*
X181161904Y-108704761D01*
X181114285Y-108657142D01*
X165352380Y-93461904D02*
X165352380Y-93938095D01*
X165828571Y-93985714D01*
X165780952Y-93938095D01*
X165733333Y-93842857D01*
X165733333Y-93604761D01*
X165780952Y-93509523D01*
X165828571Y-93461904D01*
X165923809Y-93414285D01*
X166161904Y-93414285D01*
X166257142Y-93461904D01*
X166304761Y-93509523D01*
X166352380Y-93604761D01*
X166352380Y-93842857D01*
X166304761Y-93938095D01*
X166257142Y-93985714D01*
X171752380Y-94447619D02*
X171752380Y-93828571D01*
X172133333Y-94161904D01*
X172133333Y-94019047D01*
X172180952Y-93923809D01*
X172228571Y-93876190D01*
X172323809Y-93828571D01*
X172561904Y-93828571D01*
X172657142Y-93876190D01*
X172704761Y-93923809D01*
X172752380Y-94019047D01*
X172752380Y-94304761D01*
X172704761Y-94400000D01*
X172657142Y-94447619D01*
X172657142Y-93400000D02*
X172704761Y-93352380D01*
X172752380Y-93400000D01*
X172704761Y-93447619D01*
X172657142Y-93400000D01*
X172752380Y-93400000D01*
X171752380Y-93019047D02*
X171752380Y-92400000D01*
X172133333Y-92733333D01*
X172133333Y-92590476D01*
X172180952Y-92495238D01*
X172228571Y-92447619D01*
X172323809Y-92400000D01*
X172561904Y-92400000D01*
X172657142Y-92447619D01*
X172704761Y-92495238D01*
X172752380Y-92590476D01*
X172752380Y-92876190D01*
X172704761Y-92971428D01*
X172657142Y-93019047D01*
D11*
X131675000Y-85950000D02*
X131675000Y-83950000D01*
X136675000Y-85950000D02*
X136675000Y-83950000D01*
X136675000Y-83950000D02*
X131675000Y-83950000D01*
X131675000Y-85950000D02*
X131075000Y-85950000D01*
X137275000Y-85950000D02*
X136675000Y-85950000D01*
X131075000Y-98050000D02*
X137275000Y-98050000D01*
X137275000Y-85950000D02*
X137275000Y-88325000D01*
X137275000Y-89975000D02*
X137275000Y-91325000D01*
X137275000Y-92975000D02*
X137275000Y-95375000D01*
X137275000Y-96925000D02*
X137275000Y-98050000D01*
X131075000Y-96475000D02*
X131075000Y-85950000D01*
X137275000Y-96925000D02*
X138675000Y-96925000D01*
X137275000Y-95375000D02*
X138675000Y-95375000D01*
X175190000Y-94200000D02*
X175190000Y-88190000D01*
X182010000Y-91950000D02*
X182010000Y-88190000D01*
X175190000Y-88190000D02*
X176450000Y-88190000D01*
X182010000Y-88190000D02*
X180750000Y-88190000D01*
X167170000Y-98030000D02*
X167170000Y-96700000D01*
X168500000Y-98030000D02*
X167170000Y-98030000D01*
X169770000Y-98030000D02*
X169770000Y-95370000D01*
X169770000Y-95370000D02*
X182530000Y-95370000D01*
X169770000Y-98030000D02*
X182530000Y-98030000D01*
X182530000Y-98030000D02*
X182530000Y-95370000D01*
X167170000Y-102130000D02*
X167170000Y-100800000D01*
X168500000Y-102130000D02*
X167170000Y-102130000D01*
X169770000Y-102130000D02*
X169770000Y-99470000D01*
X169770000Y-99470000D02*
X182530000Y-99470000D01*
X169770000Y-102130000D02*
X182530000Y-102130000D01*
X182530000Y-102130000D02*
X182530000Y-99470000D01*
X180550000Y-110400000D02*
X176450000Y-110400000D01*
X176450000Y-110400000D02*
X176450000Y-108400000D01*
X176450000Y-108400000D02*
X180550000Y-108400000D01*
X180550000Y-108400000D02*
X180550000Y-110400000D01*
X179800000Y-108200000D02*
X180100000Y-107900000D01*
X180100000Y-107900000D02*
X179500000Y-107900000D01*
X179800000Y-108200000D02*
X179500000Y-107900000D01*
X166950000Y-92500000D02*
X171050000Y-92500000D01*
X171050000Y-92500000D02*
X171050000Y-94500000D01*
X171050000Y-94500000D02*
X166950000Y-94500000D01*
X166950000Y-94500000D02*
X166950000Y-92500000D01*
X167700000Y-94700000D02*
X167400000Y-95000000D01*
X167400000Y-95000000D02*
X168000000Y-95000000D01*
X167700000Y-94700000D02*
X168000000Y-95000000D01*
X174510000Y-92824721D02*
X174510000Y-93150279D01*
X173490000Y-92824721D02*
X173490000Y-93150279D01*
X182590000Y-93162779D02*
X182590000Y-92837221D01*
X183610000Y-93162779D02*
X183610000Y-92837221D01*
X188837221Y-108790000D02*
X189162779Y-108790000D01*
X188837221Y-109810000D02*
X189162779Y-109810000D01*
X129193000Y-98885500D02*
X131993000Y-98885500D01*
X131993000Y-98885500D02*
X131993000Y-100885500D01*
X131993000Y-100885500D02*
X129193000Y-100885500D01*
X129193000Y-100885500D02*
X129193000Y-98885500D01*
X147109736Y-86903779D02*
G75*
G02X148000000Y-86648500I890264J-1424721D01*
G01*
X146574495Y-89218693D02*
G75*
G02X146575000Y-87437500I1425505J890193D01*
G01*
X148889894Y-89753858D02*
G75*
G02X147134000Y-89768500I-889894J1425358D01*
G01*
X149425358Y-87438606D02*
G75*
G02X149440000Y-89194500I-1425358J-889894D01*
G01*
X147971326Y-86648401D02*
G75*
G02X148866000Y-86888500I28674J-1680099D01*
G01*
X146180000Y-88328500D02*
G75*
G03X146180000Y-88328500I-1680000J0D01*
G01*
X149810000Y-84228500D02*
X142690000Y-84228500D01*
X149810000Y-85328500D02*
X142690000Y-85328500D01*
X149810000Y-91488500D02*
X142690000Y-91488500D01*
X149810000Y-83768500D02*
X142690000Y-83768500D01*
X149810000Y-91488500D02*
X149810000Y-83768500D01*
X142690000Y-91488500D02*
X142690000Y-83768500D01*
X143225000Y-89397500D02*
X143354000Y-89269500D01*
X145475000Y-87147500D02*
X145569000Y-87054500D01*
X143430000Y-89603500D02*
X143524000Y-89509500D01*
X145645000Y-87387500D02*
X145774000Y-87259500D01*
X150050000Y-84168500D02*
X150050000Y-83528500D01*
X150050000Y-83528500D02*
X149650000Y-83528500D01*
X158509736Y-86903779D02*
G75*
G02X159400000Y-86648500I890264J-1424721D01*
G01*
X157974495Y-89218693D02*
G75*
G02X157975000Y-87437500I1425505J890193D01*
G01*
X160289894Y-89753858D02*
G75*
G02X158534000Y-89768500I-889894J1425358D01*
G01*
X160825358Y-87438606D02*
G75*
G02X160840000Y-89194500I-1425358J-889894D01*
G01*
X159371326Y-86648401D02*
G75*
G02X160266000Y-86888500I28674J-1680099D01*
G01*
X157580000Y-88328500D02*
G75*
G03X157580000Y-88328500I-1680000J0D01*
G01*
X161210000Y-84228500D02*
X154090000Y-84228500D01*
X161210000Y-85328500D02*
X154090000Y-85328500D01*
X161210000Y-91488500D02*
X154090000Y-91488500D01*
X161210000Y-83768500D02*
X154090000Y-83768500D01*
X161210000Y-91488500D02*
X161210000Y-83768500D01*
X154090000Y-91488500D02*
X154090000Y-83768500D01*
X154625000Y-89397500D02*
X154754000Y-89269500D01*
X156875000Y-87147500D02*
X156969000Y-87054500D01*
X154830000Y-89603500D02*
X154924000Y-89509500D01*
X157045000Y-87387500D02*
X157174000Y-87259500D01*
X161450000Y-84168500D02*
X161450000Y-83528500D01*
X161450000Y-83528500D02*
X161050000Y-83528500D01*
X169614736Y-86903779D02*
G75*
G02X170505000Y-86648500I890264J-1424721D01*
G01*
X169079495Y-89218693D02*
G75*
G02X169080000Y-87437500I1425505J890193D01*
G01*
X171394894Y-89753858D02*
G75*
G02X169639000Y-89768500I-889894J1425358D01*
G01*
X171930358Y-87438606D02*
G75*
G02X171945000Y-89194500I-1425358J-889894D01*
G01*
X170476326Y-86648401D02*
G75*
G02X171371000Y-86888500I28674J-1680099D01*
G01*
X168685000Y-88328500D02*
G75*
G03X168685000Y-88328500I-1680000J0D01*
G01*
X172315000Y-84228500D02*
X165195000Y-84228500D01*
X172315000Y-85328500D02*
X165195000Y-85328500D01*
X172315000Y-91488500D02*
X165195000Y-91488500D01*
X172315000Y-83768500D02*
X165195000Y-83768500D01*
X172315000Y-91488500D02*
X172315000Y-83768500D01*
X165195000Y-91488500D02*
X165195000Y-83768500D01*
X165730000Y-89397500D02*
X165859000Y-89269500D01*
X167980000Y-87147500D02*
X168074000Y-87054500D01*
X165935000Y-89603500D02*
X166029000Y-89509500D01*
X168150000Y-87387500D02*
X168279000Y-87259500D01*
X172555000Y-84168500D02*
X172555000Y-83528500D01*
X172555000Y-83528500D02*
X172155000Y-83528500D01*
X167170000Y-105830000D02*
X167170000Y-104500000D01*
X168500000Y-105830000D02*
X167170000Y-105830000D01*
X169770000Y-105830000D02*
X169770000Y-103170000D01*
X169770000Y-103170000D02*
X179990000Y-103170000D01*
X169770000Y-105830000D02*
X179990000Y-105830000D01*
X179990000Y-105830000D02*
X179990000Y-103170000D01*
X134058779Y-109095000D02*
X133733221Y-109095000D01*
X134058779Y-108075000D02*
X133733221Y-108075000D01*
X137149221Y-104646000D02*
X137474779Y-104646000D01*
X137149221Y-105666000D02*
X137474779Y-105666000D01*
X137474779Y-103634000D02*
X137149221Y-103634000D01*
X137474779Y-102614000D02*
X137149221Y-102614000D01*
X134058779Y-127510000D02*
X133733221Y-127510000D01*
X134058779Y-126490000D02*
X133733221Y-126490000D01*
X137187221Y-123061000D02*
X137512779Y-123061000D01*
X137187221Y-124081000D02*
X137512779Y-124081000D01*
X137512779Y-122049000D02*
X137187221Y-122049000D01*
X137512779Y-121029000D02*
X137187221Y-121029000D01*
X134058779Y-118302000D02*
X133733221Y-118302000D01*
X134058779Y-117282000D02*
X133733221Y-117282000D01*
X137149221Y-113854000D02*
X137474779Y-113854000D01*
X137149221Y-114874000D02*
X137474779Y-114874000D01*
X137487779Y-112842000D02*
X137162221Y-112842000D01*
X137487779Y-111822000D02*
X137162221Y-111822000D01*
X155640000Y-124640221D02*
X155640000Y-124965779D01*
X154620000Y-124640221D02*
X154620000Y-124965779D01*
X158562000Y-124653221D02*
X158562000Y-124978779D01*
X157542000Y-124653221D02*
X157542000Y-124978779D01*
X146941000Y-124703221D02*
X146941000Y-125028779D01*
X145921000Y-124703221D02*
X145921000Y-125028779D01*
X149862000Y-124703221D02*
X149862000Y-125028779D01*
X148842000Y-124703221D02*
X148842000Y-125028779D01*
X144338000Y-93334721D02*
X144338000Y-93660279D01*
X143318000Y-93334721D02*
X143318000Y-93660279D01*
X144337221Y-102042000D02*
X144662779Y-102042000D01*
X144337221Y-103062000D02*
X144662779Y-103062000D01*
X144650779Y-100141500D02*
X144325221Y-100141500D01*
X144650779Y-99121500D02*
X144325221Y-99121500D01*
X144325221Y-100582000D02*
X144650779Y-100582000D01*
X144325221Y-101602000D02*
X144650779Y-101602000D01*
X156148000Y-93283721D02*
X156148000Y-93609279D01*
X155128000Y-93283721D02*
X155128000Y-93609279D01*
X155196221Y-101788000D02*
X155521779Y-101788000D01*
X155196221Y-102808000D02*
X155521779Y-102808000D01*
X155521779Y-99887500D02*
X155196221Y-99887500D01*
X155521779Y-98867500D02*
X155196221Y-98867500D01*
X155196221Y-100328000D02*
X155521779Y-100328000D01*
X155196221Y-101348000D02*
X155521779Y-101348000D01*
X138948779Y-126938000D02*
X138623221Y-126938000D01*
X138948779Y-125918000D02*
X138623221Y-125918000D01*
X172910000Y-111149221D02*
X172910000Y-111474779D01*
X171890000Y-111149221D02*
X171890000Y-111474779D01*
X193010000Y-123137221D02*
X193010000Y-123462779D01*
X191990000Y-123137221D02*
X191990000Y-123462779D01*
X171210000Y-111137221D02*
X171210000Y-111462779D01*
X170190000Y-111137221D02*
X170190000Y-111462779D01*
X150362779Y-112510000D02*
X150037221Y-112510000D01*
X150362779Y-111490000D02*
X150037221Y-111490000D01*
X150362779Y-111000000D02*
X150037221Y-111000000D01*
X150362779Y-109980000D02*
X150037221Y-109980000D01*
X139590000Y-97362779D02*
X139590000Y-97037221D01*
X140610000Y-97362779D02*
X140610000Y-97037221D01*
X139690000Y-93762779D02*
X139690000Y-93437221D01*
X140710000Y-93762779D02*
X140710000Y-93437221D01*
X156081000Y-124978779D02*
X156081000Y-124653221D01*
X157101000Y-124978779D02*
X157101000Y-124653221D01*
X147382000Y-124978779D02*
X147382000Y-124653221D01*
X148402000Y-124978779D02*
X148402000Y-124653221D01*
X153010000Y-87297936D02*
X153010000Y-88502064D01*
X151190000Y-87297936D02*
X151190000Y-88502064D01*
X163910000Y-87297936D02*
X163910000Y-88502064D01*
X162090000Y-87297936D02*
X162090000Y-88502064D01*
X150362779Y-115010000D02*
X150037221Y-115010000D01*
X150362779Y-113990000D02*
X150037221Y-113990000D01*
X138948779Y-128590000D02*
X138623221Y-128590000D01*
X138948779Y-127570000D02*
X138623221Y-127570000D01*
X184965221Y-109091000D02*
X185290779Y-109091000D01*
X184965221Y-110111000D02*
X185290779Y-110111000D01*
X150362779Y-116910000D02*
X150037221Y-116910000D01*
X150362779Y-115890000D02*
X150037221Y-115890000D01*
X161562779Y-119810000D02*
X161237221Y-119810000D01*
X161562779Y-118790000D02*
X161237221Y-118790000D01*
X155637221Y-105590000D02*
X155962779Y-105590000D01*
X155637221Y-106610000D02*
X155962779Y-106610000D01*
X143010000Y-115737221D02*
X143010000Y-116062779D01*
X141990000Y-115737221D02*
X141990000Y-116062779D01*
X143010000Y-107937221D02*
X143010000Y-108262779D01*
X141990000Y-107937221D02*
X141990000Y-108262779D01*
X151862779Y-109510000D02*
X151537221Y-109510000D01*
X151862779Y-108490000D02*
X151537221Y-108490000D01*
X151490000Y-104962779D02*
X151490000Y-104637221D01*
X152510000Y-104962779D02*
X152510000Y-104637221D01*
D12*
X184400000Y-85200000D02*
X200400000Y-85200000D01*
X184400000Y-106600000D02*
X184400000Y-85200000D01*
X200400000Y-106600000D02*
X184400000Y-106600000D01*
X200400000Y-85200000D02*
X200400000Y-106600000D01*
D11*
X174800000Y-120555000D02*
X174800000Y-118015000D01*
X174800000Y-120555000D02*
X177340000Y-120555000D01*
X175050000Y-120305000D02*
X175050000Y-110955000D01*
X198450000Y-120305000D02*
X175050000Y-120305000D01*
X198450000Y-110955000D02*
X198450000Y-120305000D01*
X175050000Y-110955000D02*
X198450000Y-110955000D01*
X148473000Y-118464000D02*
X148473000Y-105864000D01*
X143373000Y-118464000D02*
X148473000Y-118464000D01*
X143373000Y-105864000D02*
X143373000Y-118464000D01*
X155063000Y-116336000D02*
X155483000Y-116336000D01*
X155063000Y-109216000D02*
X155063000Y-109636000D01*
X155063000Y-109636000D02*
X153683000Y-109636000D01*
X162183000Y-109216000D02*
X161763000Y-109216000D01*
X162183000Y-116336000D02*
X161763000Y-116336000D01*
X155063000Y-109216000D02*
X155483000Y-109216000D01*
X155063000Y-116336000D02*
X155063000Y-115916000D01*
X162183000Y-116336000D02*
X162183000Y-115916000D01*
X162183000Y-109216000D02*
X162183000Y-109636000D01*
X133336000Y-102558000D02*
X134796000Y-102558000D01*
X133336000Y-105718000D02*
X135496000Y-105718000D01*
X133336000Y-105718000D02*
X133336000Y-104788000D01*
X133336000Y-102558000D02*
X133336000Y-103488000D01*
X133368000Y-120972000D02*
X134828000Y-120972000D01*
X133368000Y-124132000D02*
X135528000Y-124132000D01*
X133368000Y-124132000D02*
X133368000Y-123202000D01*
X133368000Y-120972000D02*
X133368000Y-121902000D01*
X133368000Y-111765000D02*
X134828000Y-111765000D01*
X133368000Y-114925000D02*
X135528000Y-114925000D01*
X133368000Y-114925000D02*
X133368000Y-113995000D01*
X133368000Y-111765000D02*
X133368000Y-112695000D01*
X146371000Y-97936500D02*
X146571000Y-97936500D01*
X146371000Y-93636500D02*
X146371000Y-97936500D01*
X146521000Y-93636500D02*
X146371000Y-93636500D01*
X151571000Y-93636500D02*
X151421000Y-93636500D01*
X151571000Y-97936500D02*
X151571000Y-93636500D01*
X151371000Y-97936500D02*
X151571000Y-97936500D01*
X148477000Y-103116000D02*
X147017000Y-103116000D01*
X148477000Y-99956000D02*
X146317000Y-99956000D01*
X148477000Y-99956000D02*
X148477000Y-100886000D01*
X148477000Y-103116000D02*
X148477000Y-102186000D01*
X158246000Y-97946000D02*
X158446000Y-97946000D01*
X158246000Y-93646000D02*
X158246000Y-97946000D01*
X158396000Y-93646000D02*
X158246000Y-93646000D01*
X163446000Y-93646000D02*
X163296000Y-93646000D01*
X163446000Y-97946000D02*
X163446000Y-93646000D01*
X163246000Y-97946000D02*
X163446000Y-97946000D01*
X159399000Y-102862000D02*
X157939000Y-102862000D01*
X159399000Y-99702000D02*
X157239000Y-99702000D01*
X159399000Y-99702000D02*
X159399000Y-100632000D01*
X159399000Y-102862000D02*
X159399000Y-101932000D01*
X160214000Y-121733000D02*
X161544000Y-121733000D01*
X160214000Y-123063000D02*
X160214000Y-121733000D01*
X160214000Y-124333000D02*
X162874000Y-124333000D01*
X162874000Y-124333000D02*
X162874000Y-129473000D01*
X160214000Y-124333000D02*
X160214000Y-129473000D01*
X160214000Y-129473000D02*
X162874000Y-129473000D01*
X178312000Y-121733000D02*
X179642000Y-121733000D01*
X178312000Y-123063000D02*
X178312000Y-121733000D01*
X178312000Y-124333000D02*
X180972000Y-124333000D01*
X180972000Y-124333000D02*
X180972000Y-129473000D01*
X178312000Y-124333000D02*
X178312000Y-129473000D01*
X178312000Y-129473000D02*
X180972000Y-129473000D01*
X174692000Y-121733000D02*
X176022000Y-121733000D01*
X174692000Y-123063000D02*
X174692000Y-121733000D01*
X174692000Y-124333000D02*
X177352000Y-124333000D01*
X177352000Y-124333000D02*
X177352000Y-129473000D01*
X174692000Y-124333000D02*
X174692000Y-129473000D01*
X174692000Y-129473000D02*
X177352000Y-129473000D01*
X171072000Y-121733000D02*
X172402000Y-121733000D01*
X171072000Y-123063000D02*
X171072000Y-121733000D01*
X171072000Y-124333000D02*
X173732000Y-124333000D01*
X173732000Y-124333000D02*
X173732000Y-129473000D01*
X171072000Y-124333000D02*
X171072000Y-129473000D01*
X171072000Y-129473000D02*
X173732000Y-129473000D01*
X167453000Y-121733000D02*
X168783000Y-121733000D01*
X167453000Y-123063000D02*
X167453000Y-121733000D01*
X167453000Y-124333000D02*
X170113000Y-124333000D01*
X170113000Y-124333000D02*
X170113000Y-129473000D01*
X167453000Y-124333000D02*
X167453000Y-129473000D01*
X167453000Y-129473000D02*
X170113000Y-129473000D01*
X163834000Y-121733000D02*
X165164000Y-121733000D01*
X163834000Y-123063000D02*
X163834000Y-121733000D01*
X163834000Y-124333000D02*
X166494000Y-124333000D01*
X166494000Y-124333000D02*
X166494000Y-129473000D01*
X163834000Y-124333000D02*
X163834000Y-129473000D01*
X163834000Y-129473000D02*
X166494000Y-129473000D01*
X185930000Y-124730000D02*
X185930000Y-123400000D01*
X187260000Y-124730000D02*
X185930000Y-124730000D01*
X188530000Y-124730000D02*
X188530000Y-122070000D01*
X188530000Y-122070000D02*
X191130000Y-122070000D01*
X188530000Y-124730000D02*
X191130000Y-124730000D01*
X191130000Y-124730000D02*
X191130000Y-122070000D01*
X191170000Y-126070000D02*
X191170000Y-127400000D01*
X189840000Y-126070000D02*
X191170000Y-126070000D01*
X188570000Y-126070000D02*
X188570000Y-128730000D01*
X188570000Y-128730000D02*
X183430000Y-128730000D01*
X188570000Y-126070000D02*
X183430000Y-126070000D01*
X183430000Y-126070000D02*
X183430000Y-128730000D01*
X129238000Y-102851000D02*
X130568000Y-102851000D01*
X129238000Y-104181000D02*
X129238000Y-102851000D01*
X129238000Y-105451000D02*
X131898000Y-105451000D01*
X131898000Y-105451000D02*
X131898000Y-110591000D01*
X129238000Y-105451000D02*
X129238000Y-110591000D01*
X129238000Y-110591000D02*
X131898000Y-110591000D01*
X129277000Y-121246000D02*
X130607000Y-121246000D01*
X129277000Y-122576000D02*
X129277000Y-121246000D01*
X129277000Y-123846000D02*
X131937000Y-123846000D01*
X131937000Y-123846000D02*
X131937000Y-128986000D01*
X129277000Y-123846000D02*
X129277000Y-128986000D01*
X129277000Y-128986000D02*
X131937000Y-128986000D01*
X129250000Y-112058000D02*
X130580000Y-112058000D01*
X129250000Y-113388000D02*
X129250000Y-112058000D01*
X129250000Y-114658000D02*
X131910000Y-114658000D01*
X131910000Y-114658000D02*
X131910000Y-119798000D01*
X129250000Y-114658000D02*
X129250000Y-119798000D01*
X129250000Y-119798000D02*
X131910000Y-119798000D01*
X152889000Y-129473000D02*
X152889000Y-128143000D01*
X154219000Y-129473000D02*
X152889000Y-129473000D01*
X155489000Y-129473000D02*
X155489000Y-126813000D01*
X155489000Y-126813000D02*
X158089000Y-126813000D01*
X155489000Y-129473000D02*
X158089000Y-129473000D01*
X158089000Y-129473000D02*
X158089000Y-126813000D01*
X144312000Y-129486000D02*
X144312000Y-128156000D01*
X145642000Y-129486000D02*
X144312000Y-129486000D01*
X146912000Y-129486000D02*
X146912000Y-126826000D01*
X146912000Y-126826000D02*
X149512000Y-126826000D01*
X146912000Y-129486000D02*
X149512000Y-129486000D01*
X149512000Y-129486000D02*
X149512000Y-126826000D01*
X132510000Y-109450000D02*
X135660000Y-109450000D01*
X132510000Y-111150000D02*
X135660000Y-111150000D01*
X132510000Y-109450000D02*
X132510000Y-111150000D01*
X132486000Y-106020000D02*
X135636000Y-106020000D01*
X132486000Y-107720000D02*
X135636000Y-107720000D01*
X132486000Y-106020000D02*
X132486000Y-107720000D01*
X132573000Y-127864000D02*
X135723000Y-127864000D01*
X132573000Y-129564000D02*
X135723000Y-129564000D01*
X132573000Y-127864000D02*
X132573000Y-129564000D01*
X132530000Y-124436000D02*
X135680000Y-124436000D01*
X132530000Y-126136000D02*
X135680000Y-126136000D01*
X132530000Y-124436000D02*
X132530000Y-126136000D01*
X132510000Y-118657000D02*
X135660000Y-118657000D01*
X132510000Y-120357000D02*
X135660000Y-120357000D01*
X132510000Y-118657000D02*
X132510000Y-120357000D01*
X132510000Y-115228000D02*
X135660000Y-115228000D01*
X132510000Y-116928000D02*
X135660000Y-116928000D01*
X132510000Y-115228000D02*
X132510000Y-116928000D01*
X153334000Y-126167000D02*
X151874000Y-126167000D01*
X153334000Y-123007000D02*
X151174000Y-123007000D01*
X153334000Y-123007000D02*
X153334000Y-123937000D01*
X153334000Y-126167000D02*
X153334000Y-125237000D01*
X142826000Y-128898000D02*
X141366000Y-128898000D01*
X142826000Y-125738000D02*
X140666000Y-125738000D01*
X142826000Y-125738000D02*
X142826000Y-126668000D01*
X142826000Y-128898000D02*
X142826000Y-127968000D01*
X142225000Y-95162000D02*
X145375000Y-95162000D01*
X142225000Y-96862000D02*
X145375000Y-96862000D01*
X142225000Y-95162000D02*
X142225000Y-96862000D01*
X144680000Y-92012500D02*
X144680000Y-94297500D01*
X146150000Y-92012500D02*
X144680000Y-92012500D01*
X146150000Y-94297500D02*
X146150000Y-92012500D01*
X154036000Y-95162000D02*
X157186000Y-95162000D01*
X154036000Y-96862000D02*
X157186000Y-96862000D01*
X154036000Y-95162000D02*
X154036000Y-96862000D01*
X156491000Y-91987000D02*
X156491000Y-94272000D01*
X157961000Y-91987000D02*
X156491000Y-91987000D01*
X157961000Y-94272000D02*
X157961000Y-91987000D01*
%LPC*%
D13*
X134175000Y-94550000D03*
X134175000Y-87550000D03*
D14*
X137425000Y-89150000D03*
X137425000Y-92150000D03*
X137425000Y-96150000D03*
X130925000Y-97250000D03*
D15*
X176300000Y-93250000D03*
X180900000Y-93250000D03*
X178600000Y-93250000D03*
D16*
X178600000Y-86950000D03*
D17*
X181200000Y-96700000D03*
X178660000Y-96700000D03*
X176120000Y-96700000D03*
X173580000Y-96700000D03*
X171040000Y-96700000D03*
D18*
X168500000Y-96700000D03*
D17*
X181200000Y-100800000D03*
X178660000Y-100800000D03*
X176120000Y-100800000D03*
X173580000Y-100800000D03*
X171040000Y-100800000D03*
D18*
X168500000Y-100800000D03*
D19*
X179800000Y-109400000D03*
X178500000Y-109400000D03*
X177200000Y-109400000D03*
X167700000Y-93500000D03*
X169000000Y-93500000D03*
X170300000Y-93500000D03*
D20*
X174000000Y-92200000D03*
X174000000Y-93775000D03*
X183100000Y-93787500D03*
X183100000Y-92212500D03*
D21*
X188212500Y-109300000D03*
X189787500Y-109300000D03*
D22*
X199500000Y-128300000D03*
D23*
X199500000Y-128300000D03*
D22*
X129730000Y-84899500D03*
D23*
X129730000Y-84899500D03*
D24*
X129868000Y-99885500D03*
D12*
G36*
X130377950Y-99085480D02*
G01*
X130387517Y-99088382D01*
X130396334Y-99093095D01*
X130404062Y-99099438D01*
X130410435Y-99107210D01*
X130910435Y-99857210D01*
X130915138Y-99866032D01*
X130918030Y-99875603D01*
X130919000Y-99885553D01*
X130918010Y-99895502D01*
X130915097Y-99905066D01*
X130910435Y-99913790D01*
X130410435Y-100663790D01*
X130404100Y-100671525D01*
X130396378Y-100677875D01*
X130387566Y-100682597D01*
X130378002Y-100685510D01*
X130368000Y-100686500D01*
X129368000Y-100686500D01*
X129358050Y-100685520D01*
X129348483Y-100682618D01*
X129339666Y-100677905D01*
X129331938Y-100671562D01*
X129325595Y-100663834D01*
X129320882Y-100655017D01*
X129317980Y-100645450D01*
X129317000Y-100635500D01*
X129317000Y-99135500D01*
X129317980Y-99125550D01*
X129320882Y-99115983D01*
X129325595Y-99107166D01*
X129331938Y-99099438D01*
X129339666Y-99093095D01*
X129348483Y-99088382D01*
X129358050Y-99085480D01*
X129368000Y-99084500D01*
X130368000Y-99084500D01*
X130377950Y-99085480D01*
X130377950Y-99085480D01*
G37*
D24*
X131318000Y-99885500D03*
D12*
G36*
X131827950Y-99085480D02*
G01*
X131837517Y-99088382D01*
X131846334Y-99093095D01*
X131854062Y-99099438D01*
X131860405Y-99107166D01*
X131865118Y-99115983D01*
X131868020Y-99125550D01*
X131869000Y-99135500D01*
X131869000Y-100635500D01*
X131868020Y-100645450D01*
X131865118Y-100655017D01*
X131860405Y-100663834D01*
X131854062Y-100671562D01*
X131846334Y-100677905D01*
X131837517Y-100682618D01*
X131827950Y-100685520D01*
X131818000Y-100686500D01*
X130668000Y-100686500D01*
X130658050Y-100685520D01*
X130648483Y-100682618D01*
X130639666Y-100677905D01*
X130631938Y-100671562D01*
X130625595Y-100663834D01*
X130620882Y-100655017D01*
X130617980Y-100645450D01*
X130617000Y-100635500D01*
X130617980Y-100625550D01*
X130620882Y-100615983D01*
X130625565Y-100607210D01*
X131106705Y-99885500D01*
X130625565Y-99163790D01*
X130620862Y-99154968D01*
X130617970Y-99145397D01*
X130617000Y-99135447D01*
X130617990Y-99125498D01*
X130620903Y-99115934D01*
X130625625Y-99107122D01*
X130631975Y-99099400D01*
X130639710Y-99093065D01*
X130648532Y-99088362D01*
X130658103Y-99085470D01*
X130668000Y-99084500D01*
X131818000Y-99084500D01*
X131827950Y-99085480D01*
X131827950Y-99085480D01*
G37*
D25*
X148000000Y-88328500D03*
D26*
X144500000Y-88328500D03*
D25*
X159400000Y-88328500D03*
D26*
X155900000Y-88328500D03*
D25*
X170505000Y-88328500D03*
D26*
X167005000Y-88328500D03*
D17*
X178660000Y-104500000D03*
X176120000Y-104500000D03*
X173580000Y-104500000D03*
X171040000Y-104500000D03*
D18*
X168500000Y-104500000D03*
D21*
X134683500Y-108585000D03*
X133108500Y-108585000D03*
X136524500Y-105156000D03*
X138099500Y-105156000D03*
X138099500Y-103124000D03*
X136524500Y-103124000D03*
X134683500Y-127000000D03*
X133108500Y-127000000D03*
X136562500Y-123571000D03*
X138137500Y-123571000D03*
X138137500Y-121539000D03*
X136562500Y-121539000D03*
X134683500Y-117792000D03*
X133108500Y-117792000D03*
X136524500Y-114364000D03*
X138099500Y-114364000D03*
X138112500Y-112332000D03*
X136537500Y-112332000D03*
D20*
X155130000Y-124015500D03*
X155130000Y-125590500D03*
X158052000Y-124028500D03*
X158052000Y-125603500D03*
X146431000Y-124078500D03*
X146431000Y-125653500D03*
X149352000Y-124078500D03*
X149352000Y-125653500D03*
X143828000Y-92710000D03*
X143828000Y-94285000D03*
D21*
X143712500Y-102552000D03*
X145287500Y-102552000D03*
X145275500Y-99631500D03*
X143700500Y-99631500D03*
X143700500Y-101092000D03*
X145275500Y-101092000D03*
D20*
X155638000Y-92659000D03*
X155638000Y-94234000D03*
D21*
X154571500Y-102298000D03*
X156146500Y-102298000D03*
X156146500Y-99377500D03*
X154571500Y-99377500D03*
X154571500Y-100838000D03*
X156146500Y-100838000D03*
X139573500Y-126428000D03*
X137998500Y-126428000D03*
D20*
X172400000Y-110524500D03*
X172400000Y-112099500D03*
X192500000Y-122512500D03*
X192500000Y-124087500D03*
X170700000Y-110512500D03*
X170700000Y-112087500D03*
D21*
X150987500Y-112000000D03*
X149412500Y-112000000D03*
X150987500Y-110490000D03*
X149412500Y-110490000D03*
D20*
X140100000Y-97987500D03*
X140100000Y-96412500D03*
X140200000Y-94387500D03*
X140200000Y-92812500D03*
X156591000Y-125603500D03*
X156591000Y-124028500D03*
X147892000Y-125603500D03*
X147892000Y-124028500D03*
D27*
X152100000Y-86500000D03*
X152100000Y-89300000D03*
X163000000Y-86500000D03*
X163000000Y-89300000D03*
D21*
X150987500Y-114500000D03*
X149412500Y-114500000D03*
X139573500Y-128080000D03*
X137998500Y-128080000D03*
X184340500Y-109601000D03*
X185915500Y-109601000D03*
X150987500Y-116400000D03*
X149412500Y-116400000D03*
X162187500Y-119300000D03*
X160612500Y-119300000D03*
X155012500Y-106100000D03*
X156587500Y-106100000D03*
D20*
X142500000Y-115112500D03*
X142500000Y-116687500D03*
X142500000Y-107312500D03*
X142500000Y-108887500D03*
D21*
X152487500Y-109000000D03*
X150912500Y-109000000D03*
D20*
X152000000Y-105587500D03*
X152000000Y-104012500D03*
D28*
X188000000Y-105800000D03*
X185600000Y-105800000D03*
X196800000Y-105800000D03*
X199200000Y-105800000D03*
X188000000Y-86000000D03*
X185600000Y-86000000D03*
X196800000Y-86000000D03*
X199200000Y-86000000D03*
D29*
X197200000Y-125900000D03*
X142367000Y-122047000D03*
D30*
X193100000Y-114360000D03*
X193100000Y-116900000D03*
X190560000Y-114360000D03*
X190560000Y-116900000D03*
X188020000Y-114360000D03*
X188020000Y-116900000D03*
X185480000Y-114360000D03*
X185480000Y-116900000D03*
X182940000Y-114360000D03*
X182940000Y-116900000D03*
X180400000Y-114360000D03*
D31*
X180400000Y-116900000D03*
D32*
X145923000Y-107514000D03*
X145923000Y-116014000D03*
D33*
X155873000Y-108426000D03*
X156373000Y-108426000D03*
X156873000Y-108426000D03*
X157373000Y-108426000D03*
X157873000Y-108426000D03*
X158373000Y-108426000D03*
X158873000Y-108426000D03*
X159373000Y-108426000D03*
X159873000Y-108426000D03*
X160373000Y-108426000D03*
X160873000Y-108426000D03*
X161373000Y-108426000D03*
D34*
X162973000Y-110026000D03*
X162973000Y-110526000D03*
X162973000Y-111026000D03*
X162973000Y-111526000D03*
X162973000Y-112026000D03*
X162973000Y-112526000D03*
X162973000Y-113026000D03*
X162973000Y-113526000D03*
X162973000Y-114026000D03*
X162973000Y-114526000D03*
X162973000Y-115026000D03*
X162973000Y-115526000D03*
D33*
X161373000Y-117126000D03*
X160873000Y-117126000D03*
X160373000Y-117126000D03*
X159873000Y-117126000D03*
X159373000Y-117126000D03*
X158873000Y-117126000D03*
X158373000Y-117126000D03*
X157873000Y-117126000D03*
X157373000Y-117126000D03*
X156873000Y-117126000D03*
X156373000Y-117126000D03*
X155873000Y-117126000D03*
D34*
X154273000Y-115526000D03*
X154273000Y-115026000D03*
X154273000Y-114526000D03*
X154273000Y-114026000D03*
X154273000Y-113526000D03*
X154273000Y-113026000D03*
X154273000Y-112526000D03*
X154273000Y-112026000D03*
X154273000Y-111526000D03*
X154273000Y-111026000D03*
X154273000Y-110526000D03*
X154273000Y-110026000D03*
D35*
X133096000Y-104138000D03*
X135096000Y-103188000D03*
X135096000Y-105088000D03*
X133128000Y-122552000D03*
X135128000Y-121602000D03*
X135128000Y-123502000D03*
X133128000Y-113345000D03*
X135128000Y-112395000D03*
X135128000Y-114295000D03*
D36*
X150881000Y-98456500D03*
D37*
X148971000Y-95186500D03*
D38*
X148971000Y-92986500D03*
D36*
X149611000Y-98456500D03*
X147061000Y-98456500D03*
X148331000Y-98456500D03*
D35*
X148717000Y-101536000D03*
X146717000Y-102486000D03*
X146717000Y-100586000D03*
D36*
X162756000Y-98466000D03*
D37*
X160846000Y-95196000D03*
D38*
X160846000Y-92996000D03*
D36*
X161486000Y-98466000D03*
X158936000Y-98466000D03*
X160206000Y-98466000D03*
D35*
X159639000Y-101282000D03*
X157639000Y-102232000D03*
X157639000Y-100332000D03*
D17*
X161544000Y-128143000D03*
X161544000Y-125603000D03*
D18*
X161544000Y-123063000D03*
D17*
X179642000Y-128143000D03*
X179642000Y-125603000D03*
D18*
X179642000Y-123063000D03*
D17*
X176022000Y-128143000D03*
X176022000Y-125603000D03*
D18*
X176022000Y-123063000D03*
D17*
X172402000Y-128143000D03*
X172402000Y-125603000D03*
D18*
X172402000Y-123063000D03*
D17*
X168783000Y-128143000D03*
X168783000Y-125603000D03*
D18*
X168783000Y-123063000D03*
D17*
X165164000Y-128143000D03*
X165164000Y-125603000D03*
D18*
X165164000Y-123063000D03*
D17*
X189800000Y-123400000D03*
D18*
X187260000Y-123400000D03*
D17*
X184760000Y-127400000D03*
X187300000Y-127400000D03*
D18*
X189840000Y-127400000D03*
D17*
X130568000Y-109261000D03*
X130568000Y-106721000D03*
D18*
X130568000Y-104181000D03*
D17*
X130607000Y-127656000D03*
X130607000Y-125116000D03*
D18*
X130607000Y-122576000D03*
D17*
X130580000Y-118468000D03*
X130580000Y-115928000D03*
D18*
X130580000Y-113388000D03*
D17*
X156759000Y-128143000D03*
D18*
X154219000Y-128143000D03*
D17*
X148182000Y-128156000D03*
D18*
X145642000Y-128156000D03*
D39*
X135660000Y-110300000D03*
X133160000Y-110300000D03*
X135636000Y-106870000D03*
X133136000Y-106870000D03*
X135723000Y-128714000D03*
X133223000Y-128714000D03*
X135680000Y-125286000D03*
X133180000Y-125286000D03*
X135660000Y-119507000D03*
X133160000Y-119507000D03*
X135660000Y-116078000D03*
X133160000Y-116078000D03*
D35*
X153574000Y-124587000D03*
X151574000Y-125537000D03*
X151574000Y-123637000D03*
X143066000Y-127318000D03*
X141066000Y-128268000D03*
X141066000Y-126368000D03*
D39*
X145375000Y-96012000D03*
X142875000Y-96012000D03*
D12*
G36*
X145720691Y-93797676D02*
G01*
X145744401Y-93801193D01*
X145767652Y-93807017D01*
X145790220Y-93815092D01*
X145811889Y-93825341D01*
X145832448Y-93837664D01*
X145851701Y-93851942D01*
X145869461Y-93868039D01*
X145885558Y-93885799D01*
X145899836Y-93905052D01*
X145912159Y-93925611D01*
X145922408Y-93947280D01*
X145930483Y-93969848D01*
X145936307Y-93993099D01*
X145939824Y-94016809D01*
X145941000Y-94040750D01*
X145941000Y-94529250D01*
X145939824Y-94553191D01*
X145936307Y-94576901D01*
X145930483Y-94600152D01*
X145922408Y-94622720D01*
X145912159Y-94644389D01*
X145899836Y-94664948D01*
X145885558Y-94684201D01*
X145869461Y-94701961D01*
X145851701Y-94718058D01*
X145832448Y-94732336D01*
X145811889Y-94744659D01*
X145790220Y-94754908D01*
X145767652Y-94762983D01*
X145744401Y-94768807D01*
X145720691Y-94772324D01*
X145696750Y-94773500D01*
X145133250Y-94773500D01*
X145109309Y-94772324D01*
X145085599Y-94768807D01*
X145062348Y-94762983D01*
X145039780Y-94754908D01*
X145018111Y-94744659D01*
X144997552Y-94732336D01*
X144978299Y-94718058D01*
X144960539Y-94701961D01*
X144944442Y-94684201D01*
X144930164Y-94664948D01*
X144917841Y-94644389D01*
X144907592Y-94622720D01*
X144899517Y-94600152D01*
X144893693Y-94576901D01*
X144890176Y-94553191D01*
X144889000Y-94529250D01*
X144889000Y-94040750D01*
X144890176Y-94016809D01*
X144893693Y-93993099D01*
X144899517Y-93969848D01*
X144907592Y-93947280D01*
X144917841Y-93925611D01*
X144930164Y-93905052D01*
X144944442Y-93885799D01*
X144960539Y-93868039D01*
X144978299Y-93851942D01*
X144997552Y-93837664D01*
X145018111Y-93825341D01*
X145039780Y-93815092D01*
X145062348Y-93807017D01*
X145085599Y-93801193D01*
X145109309Y-93797676D01*
X145133250Y-93796500D01*
X145696750Y-93796500D01*
X145720691Y-93797676D01*
X145720691Y-93797676D01*
G37*
D40*
X145415000Y-94285000D03*
D12*
G36*
X145720691Y-92222676D02*
G01*
X145744401Y-92226193D01*
X145767652Y-92232017D01*
X145790220Y-92240092D01*
X145811889Y-92250341D01*
X145832448Y-92262664D01*
X145851701Y-92276942D01*
X145869461Y-92293039D01*
X145885558Y-92310799D01*
X145899836Y-92330052D01*
X145912159Y-92350611D01*
X145922408Y-92372280D01*
X145930483Y-92394848D01*
X145936307Y-92418099D01*
X145939824Y-92441809D01*
X145941000Y-92465750D01*
X145941000Y-92954250D01*
X145939824Y-92978191D01*
X145936307Y-93001901D01*
X145930483Y-93025152D01*
X145922408Y-93047720D01*
X145912159Y-93069389D01*
X145899836Y-93089948D01*
X145885558Y-93109201D01*
X145869461Y-93126961D01*
X145851701Y-93143058D01*
X145832448Y-93157336D01*
X145811889Y-93169659D01*
X145790220Y-93179908D01*
X145767652Y-93187983D01*
X145744401Y-93193807D01*
X145720691Y-93197324D01*
X145696750Y-93198500D01*
X145133250Y-93198500D01*
X145109309Y-93197324D01*
X145085599Y-93193807D01*
X145062348Y-93187983D01*
X145039780Y-93179908D01*
X145018111Y-93169659D01*
X144997552Y-93157336D01*
X144978299Y-93143058D01*
X144960539Y-93126961D01*
X144944442Y-93109201D01*
X144930164Y-93089948D01*
X144917841Y-93069389D01*
X144907592Y-93047720D01*
X144899517Y-93025152D01*
X144893693Y-93001901D01*
X144890176Y-92978191D01*
X144889000Y-92954250D01*
X144889000Y-92465750D01*
X144890176Y-92441809D01*
X144893693Y-92418099D01*
X144899517Y-92394848D01*
X144907592Y-92372280D01*
X144917841Y-92350611D01*
X144930164Y-92330052D01*
X144944442Y-92310799D01*
X144960539Y-92293039D01*
X144978299Y-92276942D01*
X144997552Y-92262664D01*
X145018111Y-92250341D01*
X145039780Y-92240092D01*
X145062348Y-92232017D01*
X145085599Y-92226193D01*
X145109309Y-92222676D01*
X145133250Y-92221500D01*
X145696750Y-92221500D01*
X145720691Y-92222676D01*
X145720691Y-92222676D01*
G37*
D40*
X145415000Y-92710000D03*
D39*
X157186000Y-96012000D03*
X154686000Y-96012000D03*
D12*
G36*
X157531691Y-93772176D02*
G01*
X157555401Y-93775693D01*
X157578652Y-93781517D01*
X157601220Y-93789592D01*
X157622889Y-93799841D01*
X157643448Y-93812164D01*
X157662701Y-93826442D01*
X157680461Y-93842539D01*
X157696558Y-93860299D01*
X157710836Y-93879552D01*
X157723159Y-93900111D01*
X157733408Y-93921780D01*
X157741483Y-93944348D01*
X157747307Y-93967599D01*
X157750824Y-93991309D01*
X157752000Y-94015250D01*
X157752000Y-94503750D01*
X157750824Y-94527691D01*
X157747307Y-94551401D01*
X157741483Y-94574652D01*
X157733408Y-94597220D01*
X157723159Y-94618889D01*
X157710836Y-94639448D01*
X157696558Y-94658701D01*
X157680461Y-94676461D01*
X157662701Y-94692558D01*
X157643448Y-94706836D01*
X157622889Y-94719159D01*
X157601220Y-94729408D01*
X157578652Y-94737483D01*
X157555401Y-94743307D01*
X157531691Y-94746824D01*
X157507750Y-94748000D01*
X156944250Y-94748000D01*
X156920309Y-94746824D01*
X156896599Y-94743307D01*
X156873348Y-94737483D01*
X156850780Y-94729408D01*
X156829111Y-94719159D01*
X156808552Y-94706836D01*
X156789299Y-94692558D01*
X156771539Y-94676461D01*
X156755442Y-94658701D01*
X156741164Y-94639448D01*
X156728841Y-94618889D01*
X156718592Y-94597220D01*
X156710517Y-94574652D01*
X156704693Y-94551401D01*
X156701176Y-94527691D01*
X156700000Y-94503750D01*
X156700000Y-94015250D01*
X156701176Y-93991309D01*
X156704693Y-93967599D01*
X156710517Y-93944348D01*
X156718592Y-93921780D01*
X156728841Y-93900111D01*
X156741164Y-93879552D01*
X156755442Y-93860299D01*
X156771539Y-93842539D01*
X156789299Y-93826442D01*
X156808552Y-93812164D01*
X156829111Y-93799841D01*
X156850780Y-93789592D01*
X156873348Y-93781517D01*
X156896599Y-93775693D01*
X156920309Y-93772176D01*
X156944250Y-93771000D01*
X157507750Y-93771000D01*
X157531691Y-93772176D01*
X157531691Y-93772176D01*
G37*
D40*
X157226000Y-94259500D03*
D12*
G36*
X157531691Y-92197176D02*
G01*
X157555401Y-92200693D01*
X157578652Y-92206517D01*
X157601220Y-92214592D01*
X157622889Y-92224841D01*
X157643448Y-92237164D01*
X157662701Y-92251442D01*
X157680461Y-92267539D01*
X157696558Y-92285299D01*
X157710836Y-92304552D01*
X157723159Y-92325111D01*
X157733408Y-92346780D01*
X157741483Y-92369348D01*
X157747307Y-92392599D01*
X157750824Y-92416309D01*
X157752000Y-92440250D01*
X157752000Y-92928750D01*
X157750824Y-92952691D01*
X157747307Y-92976401D01*
X157741483Y-92999652D01*
X157733408Y-93022220D01*
X157723159Y-93043889D01*
X157710836Y-93064448D01*
X157696558Y-93083701D01*
X157680461Y-93101461D01*
X157662701Y-93117558D01*
X157643448Y-93131836D01*
X157622889Y-93144159D01*
X157601220Y-93154408D01*
X157578652Y-93162483D01*
X157555401Y-93168307D01*
X157531691Y-93171824D01*
X157507750Y-93173000D01*
X156944250Y-93173000D01*
X156920309Y-93171824D01*
X156896599Y-93168307D01*
X156873348Y-93162483D01*
X156850780Y-93154408D01*
X156829111Y-93144159D01*
X156808552Y-93131836D01*
X156789299Y-93117558D01*
X156771539Y-93101461D01*
X156755442Y-93083701D01*
X156741164Y-93064448D01*
X156728841Y-93043889D01*
X156718592Y-93022220D01*
X156710517Y-92999652D01*
X156704693Y-92976401D01*
X156701176Y-92952691D01*
X156700000Y-92928750D01*
X156700000Y-92440250D01*
X156701176Y-92416309D01*
X156704693Y-92392599D01*
X156710517Y-92369348D01*
X156718592Y-92346780D01*
X156728841Y-92325111D01*
X156741164Y-92304552D01*
X156755442Y-92285299D01*
X156771539Y-92267539D01*
X156789299Y-92251442D01*
X156808552Y-92237164D01*
X156829111Y-92224841D01*
X156850780Y-92214592D01*
X156873348Y-92206517D01*
X156896599Y-92200693D01*
X156920309Y-92197176D01*
X156944250Y-92196000D01*
X157507750Y-92196000D01*
X157531691Y-92197176D01*
X157531691Y-92197176D01*
G37*
D40*
X157226000Y-92684500D03*
M02*
