M48
;DRILL file {KiCad 6.0.0-rc1-unknown-6a5744a~66~ubuntu18.04.1} date Sun 14 Oct 2018 04:50:08 PM PDT
;FORMAT={-:-/ absolute / metric / decimal}
FMAT,2
METRIC
T1C0.400
T2C0.500
T3C1.000
T4C1.016
T5C1.200
%
G90
G05
M71
T1
X128.969Y-126.492
X130.302Y-88.201
X132.905Y-100.266
X133.096Y-97.346
X133.731Y-112.141
X133.794Y-121.349
X135.89Y-101.79
X136.458Y-117.52
X136.462Y-126.873
X137.668Y-84.772
X138.557Y-128.714
X140.987Y-94.985
X141.986Y-126.365
X142.684Y-116.205
X142.85Y-104.851
X143.24Y-91.721
X146.24Y-119.761
X147.32Y-121.92
X147.384Y-93.789
X147.384Y-95.059
X147.384Y-96.329
X147.523Y-102.718
X147.599Y-124.408
X147.676Y-98.552
X147.676Y-99.251
X148.463Y-93.789
X148.463Y-95.059
X148.463Y-96.329
X148.736Y-122.994
X148.946Y-98.552
X148.971Y-99.251
X148.991Y-107.658
X149.098Y-105.512
X149.352Y-116.078
X149.542Y-93.789
X149.542Y-95.059
X149.542Y-96.329
X149.643Y-120.697
X149.948Y-103.832
X150.52Y-105.41
X150.558Y-93.789
X150.558Y-95.059
X150.558Y-96.329
X150.673Y-101.194
X150.825Y-108.052
X150.876Y-114.554
X150.876Y-117.602
X151.232Y-103.683
X152.046Y-116.207
X152.103Y-115.226
X152.146Y-121.158
X152.204Y-113.245
X152.527Y-124.777
X152.564Y-117.86
X152.613Y-103.748
X152.806Y-98.857
X153.092Y-123.142
X153.112Y-116.266
X153.822Y-107.594
X153.854Y-117.282
X154.026Y-105.359
X154.178Y-123.139
X154.391Y-104.069
X154.686Y-121.666
X154.814Y-117.0
X155.499Y-98.45
X155.555Y-111.037
X155.569Y-102.557
X155.584Y-106.091
X155.897Y-113.421
X155.944Y-105.035
X155.975Y-97.301
X156.769Y-119.278
X157.685Y-112.598
X157.734Y-121.666
X158.202Y-113.783
X158.445Y-109.696
X158.547Y-107.212
X158.75Y-128.841
X158.953Y-111.658
X159.106Y-122.174
X159.207Y-102.26
X159.258Y-93.662
X159.258Y-94.932
X159.258Y-96.203
X159.309Y-106.172
X159.415Y-115.256
X159.508Y-120.924
X159.512Y-99.885
X159.538Y-114.312
X159.576Y-99.187
X159.711Y-123.798
X159.766Y-127.0
X159.902Y-118.593
X160.071Y-112.37
X160.123Y-107.212
X160.142Y-115.872
X160.223Y-110.541
X160.338Y-93.662
X160.338Y-94.932
X160.338Y-96.203
X160.578Y-124.523
X160.655Y-106.045
X160.741Y-115.105
X160.909Y-99.885
X161.417Y-93.662
X161.417Y-94.932
X161.417Y-96.203
X161.521Y-112.636
X161.544Y-99.377
X161.595Y-113.69
X161.599Y-111.073
X162.306Y-108.077
X162.433Y-93.662
X162.433Y-94.932
X162.433Y-96.203
X162.451Y-106.878
X163.004Y-121.793
X163.322Y-116.484
X163.703Y-100.647
X163.83Y-106.782
X164.389Y-109.118
X165.608Y-118.364
X165.659Y-107.594
X166.052Y-111.316
X166.113Y-113.351
X166.624Y-121.73
X166.665Y-114.348
X167.513Y-91.948
X167.513Y-97.663
X167.572Y-109.325
X167.843Y-102.768
X167.843Y-106.274
X168.666Y-109.602
X169.545Y-116.903
X169.672Y-113.538
X169.736Y-106.87
X170.688Y-123.952
X171.005Y-118.872
X171.069Y-92.011
X171.196Y-100.965
X171.577Y-84.582
X171.704Y-116.332
X172.092Y-112.776
X172.148Y-106.426
X173.355Y-121.285
X173.391Y-111.684
X173.799Y-84.582
X173.99Y-118.872
X174.176Y-102.932
X174.396Y-111.15
X175.832Y-102.298
X176.073Y-111.455
X176.276Y-121.221
X176.339Y-96.52
X176.403Y-108.966
X177.8Y-122.364
X177.863Y-124.904
X178.257Y-112.624
X178.498Y-99.123
X178.816Y-109.093
X179.019Y-111.15
X179.07Y-118.872
X180.657Y-107.632
X180.746Y-111.455
X180.848Y-91.313
X181.038Y-121.92
X182.435Y-109.347
X182.499Y-105.093
X182.524Y-111.862
X182.689Y-120.904
X183.388Y-93.408
X183.451Y-119.062
X185.23Y-106.172
X185.23Y-112.331
X185.356Y-89.218
X185.42Y-86.169
X185.992Y-95.441
X186.055Y-121.158
X187.452Y-102.806
X187.516Y-89.281
X188.278Y-121.158
X188.341Y-97.346
X188.341Y-100.012
X189.23Y-117.983
X189.293Y-109.093
X189.484Y-112.459
X189.928Y-89.281
X189.928Y-102.806
X190.436Y-109.093
X190.5Y-121.158
X191.516Y-109.093
T2
X134.112Y-90.932
X137.414Y-93.98
X139.192Y-108.712
X139.954Y-97.282
X140.208Y-117.602
X142.24Y-114.554
T3
X161.544Y-123.063
X161.544Y-125.603
X161.544Y-128.143
X168.783Y-123.063
X168.783Y-125.603
X168.783Y-128.143
X176.022Y-123.063
X176.022Y-125.603
X176.022Y-128.143
X172.402Y-123.063
X172.402Y-125.603
X172.402Y-128.143
X172.91Y-93.98
X172.91Y-96.52
X172.91Y-99.06
X172.91Y-101.6
X172.91Y-104.14
X130.58Y-113.388
X130.58Y-115.928
X130.58Y-118.468
X154.219Y-128.143
X156.759Y-128.143
X165.735Y-93.98
X165.735Y-96.52
X165.735Y-99.06
X165.735Y-101.6
X165.735Y-104.14
X145.642Y-128.156
X148.182Y-128.156
X179.642Y-123.063
X179.642Y-125.603
X179.642Y-128.143
X183.388Y-123.063
X183.388Y-125.603
X183.388Y-128.143
X169.354Y-93.98
X169.354Y-96.52
X169.354Y-99.06
X169.354Y-101.6
X169.354Y-104.14
X162.306Y-101.854
X162.306Y-104.394
X130.568Y-104.181
X130.568Y-106.721
X130.568Y-109.261
X165.164Y-123.063
X165.164Y-125.603
X165.164Y-128.143
X130.607Y-122.576
X130.607Y-125.116
X130.607Y-127.656
T4
X173.8Y-113.982
X173.8Y-116.522
X176.34Y-113.982
X176.34Y-116.522
X178.88Y-113.982
X178.88Y-116.522
X181.42Y-113.982
X181.42Y-116.522
X183.96Y-113.982
X183.96Y-116.522
X186.5Y-113.982
X186.5Y-116.522
T5
X145.153Y-88.328
X148.653Y-88.328
X156.781Y-88.328
X160.281Y-88.328
X167.005Y-88.328
X170.505Y-88.328
T0
M30
