G04 #@! TF.GenerationSoftware,KiCad,Pcbnew,6.0.0-rc1-unknown-170ff66~66~ubuntu18.10.1*
G04 #@! TF.CreationDate,2019-01-13T15:31:38-08:00
G04 #@! TF.ProjectId,EExtruder,45457874-7275-4646-9572-2e6b69636164,rev?*
G04 #@! TF.SameCoordinates,Original*
G04 #@! TF.FileFunction,Legend,Bot*
G04 #@! TF.FilePolarity,Positive*
%FSLAX46Y46*%
G04 Gerber Fmt 4.6, Leading zero omitted, Abs format (unit mm)*
G04 Created by KiCad (PCBNEW 6.0.0-rc1-unknown-170ff66~66~ubuntu18.10.1) date Sun 13 Jan 2019 03:31:38 PM PST*
%MOMM*%
%LPD*%
G04 APERTURE LIST*
%ADD10C,0.150000*%
%ADD11C,0.300000*%
%ADD12C,1.602000*%
%ADD13O,1.802000X1.802000*%
%ADD14R,1.802000X1.802000*%
%ADD15R,2.502000X2.502000*%
%ADD16C,2.502000*%
%ADD17C,3.302000*%
%ADD18O,1.829200X1.829200*%
%ADD19R,1.829200X1.829200*%
G04 APERTURE END LIST*
D10*
X190861904Y-125200000D02*
X190957142Y-125152380D01*
X191100000Y-125152380D01*
X191242857Y-125200000D01*
X191338095Y-125295238D01*
X191385714Y-125390476D01*
X191433333Y-125580952D01*
X191433333Y-125723809D01*
X191385714Y-125914285D01*
X191338095Y-126009523D01*
X191242857Y-126104761D01*
X191100000Y-126152380D01*
X191004761Y-126152380D01*
X190861904Y-126104761D01*
X190814285Y-126057142D01*
X190814285Y-125723809D01*
X191004761Y-125723809D01*
X190385714Y-126152380D02*
X190385714Y-125152380D01*
X189814285Y-126152380D01*
X189814285Y-125152380D01*
X189338095Y-126152380D02*
X189338095Y-125152380D01*
X189100000Y-125152380D01*
X188957142Y-125200000D01*
X188861904Y-125295238D01*
X188814285Y-125390476D01*
X188766666Y-125580952D01*
X188766666Y-125723809D01*
X188814285Y-125914285D01*
X188861904Y-126009523D01*
X188957142Y-126104761D01*
X189100000Y-126152380D01*
X189338095Y-126152380D01*
X185561904Y-125152380D02*
X184990476Y-125152380D01*
X185276190Y-126152380D02*
X185276190Y-125152380D01*
X184752380Y-125152380D02*
X184085714Y-126152380D01*
X184085714Y-125152380D02*
X184752380Y-126152380D01*
X187566666Y-126152380D02*
X187900000Y-125676190D01*
X188138095Y-126152380D02*
X188138095Y-125152380D01*
X187757142Y-125152380D01*
X187661904Y-125200000D01*
X187614285Y-125247619D01*
X187566666Y-125342857D01*
X187566666Y-125485714D01*
X187614285Y-125580952D01*
X187661904Y-125628571D01*
X187757142Y-125676190D01*
X188138095Y-125676190D01*
X187233333Y-125152380D02*
X186566666Y-126152380D01*
X186566666Y-125152380D02*
X187233333Y-126152380D01*
X169052380Y-92366666D02*
X168052380Y-92366666D01*
X168052380Y-92747619D01*
X168100000Y-92842857D01*
X168147619Y-92890476D01*
X168242857Y-92938095D01*
X168385714Y-92938095D01*
X168480952Y-92890476D01*
X168528571Y-92842857D01*
X168576190Y-92747619D01*
X168576190Y-92366666D01*
X168052380Y-93271428D02*
X169052380Y-93509523D01*
X168338095Y-93700000D01*
X169052380Y-93890476D01*
X168052380Y-94128571D01*
X169052380Y-95080952D02*
X168576190Y-94747619D01*
X169052380Y-94509523D02*
X168052380Y-94509523D01*
X168052380Y-94890476D01*
X168100000Y-94985714D01*
X168147619Y-95033333D01*
X168242857Y-95080952D01*
X168385714Y-95080952D01*
X168480952Y-95033333D01*
X168528571Y-94985714D01*
X168576190Y-94890476D01*
X168576190Y-94509523D01*
X170600000Y-93038095D02*
X170552380Y-92942857D01*
X170552380Y-92800000D01*
X170600000Y-92657142D01*
X170695238Y-92561904D01*
X170790476Y-92514285D01*
X170980952Y-92466666D01*
X171123809Y-92466666D01*
X171314285Y-92514285D01*
X171409523Y-92561904D01*
X171504761Y-92657142D01*
X171552380Y-92800000D01*
X171552380Y-92895238D01*
X171504761Y-93038095D01*
X171457142Y-93085714D01*
X171123809Y-93085714D01*
X171123809Y-92895238D01*
X171552380Y-93514285D02*
X170552380Y-93514285D01*
X171552380Y-94085714D01*
X170552380Y-94085714D01*
X171552380Y-94561904D02*
X170552380Y-94561904D01*
X170552380Y-94800000D01*
X170600000Y-94942857D01*
X170695238Y-95038095D01*
X170790476Y-95085714D01*
X170980952Y-95133333D01*
X171123809Y-95133333D01*
X171314285Y-95085714D01*
X171409523Y-95038095D01*
X171504761Y-94942857D01*
X171552380Y-94800000D01*
X171552380Y-94561904D01*
X174152380Y-91928571D02*
X173152380Y-91928571D01*
X173866666Y-92261904D01*
X173152380Y-92595238D01*
X174152380Y-92595238D01*
X174152380Y-93071428D02*
X173152380Y-93071428D01*
X174104761Y-93500000D02*
X174152380Y-93642857D01*
X174152380Y-93880952D01*
X174104761Y-93976190D01*
X174057142Y-94023809D01*
X173961904Y-94071428D01*
X173866666Y-94071428D01*
X173771428Y-94023809D01*
X173723809Y-93976190D01*
X173676190Y-93880952D01*
X173628571Y-93690476D01*
X173580952Y-93595238D01*
X173533333Y-93547619D01*
X173438095Y-93500000D01*
X173342857Y-93500000D01*
X173247619Y-93547619D01*
X173200000Y-93595238D01*
X173152380Y-93690476D01*
X173152380Y-93928571D01*
X173200000Y-94071428D01*
X173152380Y-94690476D02*
X173152380Y-94880952D01*
X173200000Y-94976190D01*
X173295238Y-95071428D01*
X173485714Y-95119047D01*
X173819047Y-95119047D01*
X174009523Y-95071428D01*
X174104761Y-94976190D01*
X174152380Y-94880952D01*
X174152380Y-94690476D01*
X174104761Y-94595238D01*
X174009523Y-94500000D01*
X173819047Y-94452380D01*
X173485714Y-94452380D01*
X173295238Y-94500000D01*
X173200000Y-94595238D01*
X173152380Y-94690476D01*
X176752380Y-91828571D02*
X175752380Y-91828571D01*
X176466666Y-92161904D01*
X175752380Y-92495238D01*
X176752380Y-92495238D01*
X175752380Y-93161904D02*
X175752380Y-93352380D01*
X175800000Y-93447619D01*
X175895238Y-93542857D01*
X176085714Y-93590476D01*
X176419047Y-93590476D01*
X176609523Y-93542857D01*
X176704761Y-93447619D01*
X176752380Y-93352380D01*
X176752380Y-93161904D01*
X176704761Y-93066666D01*
X176609523Y-92971428D01*
X176419047Y-92923809D01*
X176085714Y-92923809D01*
X175895238Y-92971428D01*
X175800000Y-93066666D01*
X175752380Y-93161904D01*
X176704761Y-93971428D02*
X176752380Y-94114285D01*
X176752380Y-94352380D01*
X176704761Y-94447619D01*
X176657142Y-94495238D01*
X176561904Y-94542857D01*
X176466666Y-94542857D01*
X176371428Y-94495238D01*
X176323809Y-94447619D01*
X176276190Y-94352380D01*
X176228571Y-94161904D01*
X176180952Y-94066666D01*
X176133333Y-94019047D01*
X176038095Y-93971428D01*
X175942857Y-93971428D01*
X175847619Y-94019047D01*
X175800000Y-94066666D01*
X175752380Y-94161904D01*
X175752380Y-94400000D01*
X175800000Y-94542857D01*
X176752380Y-94971428D02*
X175752380Y-94971428D01*
X179204761Y-92514285D02*
X179252380Y-92657142D01*
X179252380Y-92895238D01*
X179204761Y-92990476D01*
X179157142Y-93038095D01*
X179061904Y-93085714D01*
X178966666Y-93085714D01*
X178871428Y-93038095D01*
X178823809Y-92990476D01*
X178776190Y-92895238D01*
X178728571Y-92704761D01*
X178680952Y-92609523D01*
X178633333Y-92561904D01*
X178538095Y-92514285D01*
X178442857Y-92514285D01*
X178347619Y-92561904D01*
X178300000Y-92609523D01*
X178252380Y-92704761D01*
X178252380Y-92942857D01*
X178300000Y-93085714D01*
X179157142Y-94085714D02*
X179204761Y-94038095D01*
X179252380Y-93895238D01*
X179252380Y-93800000D01*
X179204761Y-93657142D01*
X179109523Y-93561904D01*
X179014285Y-93514285D01*
X178823809Y-93466666D01*
X178680952Y-93466666D01*
X178490476Y-93514285D01*
X178395238Y-93561904D01*
X178300000Y-93657142D01*
X178252380Y-93800000D01*
X178252380Y-93895238D01*
X178300000Y-94038095D01*
X178347619Y-94085714D01*
X179252380Y-94514285D02*
X178252380Y-94514285D01*
X179252380Y-95085714D02*
X178680952Y-94657142D01*
X178252380Y-95085714D02*
X178823809Y-94514285D01*
X180485000Y-93123809D02*
X180485000Y-94123809D01*
X181757142Y-93933333D02*
X181804761Y-93885714D01*
X181852380Y-93742857D01*
X181852380Y-93647619D01*
X181804761Y-93504761D01*
X181709523Y-93409523D01*
X181614285Y-93361904D01*
X181423809Y-93314285D01*
X181280952Y-93314285D01*
X181090476Y-93361904D01*
X180995238Y-93409523D01*
X180900000Y-93504761D01*
X180852380Y-93647619D01*
X180852380Y-93742857D01*
X180900000Y-93885714D01*
X180947619Y-93933333D01*
X180485000Y-94123809D02*
X180485000Y-95076190D01*
X181804761Y-94314285D02*
X181852380Y-94457142D01*
X181852380Y-94695238D01*
X181804761Y-94790476D01*
X181757142Y-94838095D01*
X181661904Y-94885714D01*
X181566666Y-94885714D01*
X181471428Y-94838095D01*
X181423809Y-94790476D01*
X181376190Y-94695238D01*
X181328571Y-94504761D01*
X181280952Y-94409523D01*
X181233333Y-94361904D01*
X181138095Y-94314285D01*
X181042857Y-94314285D01*
X180947619Y-94361904D01*
X180900000Y-94409523D01*
X180852380Y-94504761D01*
X180852380Y-94742857D01*
X180900000Y-94885714D01*
D11*
X150708571Y-111735000D02*
X150780000Y-111663571D01*
X150922857Y-111449285D01*
X150994285Y-111306428D01*
X151065714Y-111092142D01*
X151137142Y-110735000D01*
X151137142Y-110449285D01*
X151065714Y-110092142D01*
X150994285Y-109877857D01*
X150922857Y-109735000D01*
X150780000Y-109520714D01*
X150708571Y-109449285D01*
X149494285Y-111092142D02*
X149637142Y-111163571D01*
X149922857Y-111163571D01*
X150065714Y-111092142D01*
X150137142Y-111020714D01*
X150208571Y-110877857D01*
X150208571Y-110449285D01*
X150137142Y-110306428D01*
X150065714Y-110235000D01*
X149922857Y-110163571D01*
X149637142Y-110163571D01*
X149494285Y-110235000D01*
X148994285Y-111735000D02*
X148922857Y-111663571D01*
X148780000Y-111449285D01*
X148708571Y-111306428D01*
X148637142Y-111092142D01*
X148565714Y-110735000D01*
X148565714Y-110449285D01*
X148637142Y-110092142D01*
X148708571Y-109877857D01*
X148780000Y-109735000D01*
X148922857Y-109520714D01*
X148994285Y-109449285D01*
X146708571Y-111163571D02*
X146708571Y-110163571D01*
X146708571Y-109663571D02*
X146780000Y-109735000D01*
X146708571Y-109806428D01*
X146637142Y-109735000D01*
X146708571Y-109663571D01*
X146708571Y-109806428D01*
X144994285Y-111306428D02*
X145137142Y-111235000D01*
X145280000Y-111092142D01*
X145494285Y-110877857D01*
X145637142Y-110806428D01*
X145780000Y-110806428D01*
X145708571Y-111163571D02*
X145851428Y-111092142D01*
X145994285Y-110949285D01*
X146065714Y-110663571D01*
X146065714Y-110163571D01*
X145994285Y-109877857D01*
X145851428Y-109735000D01*
X145708571Y-109663571D01*
X145422857Y-109663571D01*
X145280000Y-109735000D01*
X145137142Y-109877857D01*
X145065714Y-110163571D01*
X145065714Y-110663571D01*
X145137142Y-110949285D01*
X145280000Y-111092142D01*
X145422857Y-111163571D01*
X145708571Y-111163571D01*
X143780000Y-110163571D02*
X143780000Y-111163571D01*
X144422857Y-110163571D02*
X144422857Y-110949285D01*
X144351428Y-111092142D01*
X144208571Y-111163571D01*
X143994285Y-111163571D01*
X143851428Y-111092142D01*
X143780000Y-111020714D01*
X143065714Y-111163571D02*
X143065714Y-110163571D01*
X143065714Y-110449285D02*
X142994285Y-110306428D01*
X142922857Y-110235000D01*
X142780000Y-110163571D01*
X142637142Y-110163571D01*
X142280000Y-110163571D02*
X141922857Y-111163571D01*
X141565714Y-110163571D02*
X141922857Y-111163571D01*
X142065714Y-111520714D01*
X142137142Y-111592142D01*
X142280000Y-111663571D01*
X140994285Y-111020714D02*
X140922857Y-111092142D01*
X140994285Y-111163571D01*
X141065714Y-111092142D01*
X140994285Y-111020714D01*
X140994285Y-111163571D01*
X139637142Y-110163571D02*
X139637142Y-111163571D01*
X140280000Y-110163571D02*
X140280000Y-110949285D01*
X140208571Y-111092142D01*
X140065714Y-111163571D01*
X139851428Y-111163571D01*
X139708571Y-111092142D01*
X139637142Y-111020714D01*
X138994285Y-111092142D02*
X138851428Y-111163571D01*
X138565714Y-111163571D01*
X138422857Y-111092142D01*
X138351428Y-110949285D01*
X138351428Y-110877857D01*
X138422857Y-110735000D01*
X138565714Y-110663571D01*
X138780000Y-110663571D01*
X138922857Y-110592142D01*
X138994285Y-110449285D01*
X138994285Y-110377857D01*
X138922857Y-110235000D01*
X138780000Y-110163571D01*
X138565714Y-110163571D01*
X138422857Y-110235000D01*
X149351428Y-112213571D02*
X149351428Y-113285000D01*
X149422857Y-113499285D01*
X149565714Y-113642142D01*
X149780000Y-113713571D01*
X149922857Y-113713571D01*
X147994285Y-113713571D02*
X147994285Y-112927857D01*
X148065714Y-112785000D01*
X148208571Y-112713571D01*
X148494285Y-112713571D01*
X148637142Y-112785000D01*
X147994285Y-113642142D02*
X148137142Y-113713571D01*
X148494285Y-113713571D01*
X148637142Y-113642142D01*
X148708571Y-113499285D01*
X148708571Y-113356428D01*
X148637142Y-113213571D01*
X148494285Y-113142142D01*
X148137142Y-113142142D01*
X147994285Y-113070714D01*
X147280000Y-112713571D02*
X147280000Y-113713571D01*
X147280000Y-112856428D02*
X147208571Y-112785000D01*
X147065714Y-112713571D01*
X146851428Y-112713571D01*
X146708571Y-112785000D01*
X146637142Y-112927857D01*
X146637142Y-113713571D01*
X144851428Y-112356428D02*
X144780000Y-112285000D01*
X144637142Y-112213571D01*
X144280000Y-112213571D01*
X144137142Y-112285000D01*
X144065714Y-112356428D01*
X143994285Y-112499285D01*
X143994285Y-112642142D01*
X144065714Y-112856428D01*
X144922857Y-113713571D01*
X143994285Y-113713571D01*
X143065714Y-112213571D02*
X142922857Y-112213571D01*
X142780000Y-112285000D01*
X142708571Y-112356428D01*
X142637142Y-112499285D01*
X142565714Y-112785000D01*
X142565714Y-113142142D01*
X142637142Y-113427857D01*
X142708571Y-113570714D01*
X142780000Y-113642142D01*
X142922857Y-113713571D01*
X143065714Y-113713571D01*
X143208571Y-113642142D01*
X143280000Y-113570714D01*
X143351428Y-113427857D01*
X143422857Y-113142142D01*
X143422857Y-112785000D01*
X143351428Y-112499285D01*
X143280000Y-112356428D01*
X143208571Y-112285000D01*
X143065714Y-112213571D01*
X141137142Y-113713571D02*
X141994285Y-113713571D01*
X141565714Y-113713571D02*
X141565714Y-112213571D01*
X141708571Y-112427857D01*
X141851428Y-112570714D01*
X141994285Y-112642142D01*
X140422857Y-113713571D02*
X140137142Y-113713571D01*
X139994285Y-113642142D01*
X139922857Y-113570714D01*
X139780000Y-113356428D01*
X139708571Y-113070714D01*
X139708571Y-112499285D01*
X139780000Y-112356428D01*
X139851428Y-112285000D01*
X139994285Y-112213571D01*
X140280000Y-112213571D01*
X140422857Y-112285000D01*
X140494285Y-112356428D01*
X140565714Y-112499285D01*
X140565714Y-112856428D01*
X140494285Y-112999285D01*
X140422857Y-113070714D01*
X140280000Y-113142142D01*
X139994285Y-113142142D01*
X139851428Y-113070714D01*
X139780000Y-112999285D01*
X139708571Y-112856428D01*
X197064285Y-91517857D02*
X196564285Y-91517857D01*
X196350000Y-92303571D02*
X197064285Y-92303571D01*
X197064285Y-90803571D01*
X196350000Y-90803571D01*
X195707142Y-91517857D02*
X195207142Y-91517857D01*
X194992857Y-92303571D02*
X195707142Y-92303571D01*
X195707142Y-90803571D01*
X194992857Y-90803571D01*
X194492857Y-92303571D02*
X193707142Y-91303571D01*
X194492857Y-91303571D02*
X193707142Y-92303571D01*
X193350000Y-91303571D02*
X192778571Y-91303571D01*
X193135714Y-90803571D02*
X193135714Y-92089285D01*
X193064285Y-92232142D01*
X192921428Y-92303571D01*
X192778571Y-92303571D01*
X192278571Y-92303571D02*
X192278571Y-91303571D01*
X192278571Y-91589285D02*
X192207142Y-91446428D01*
X192135714Y-91375000D01*
X191992857Y-91303571D01*
X191850000Y-91303571D01*
X190707142Y-91303571D02*
X190707142Y-92303571D01*
X191350000Y-91303571D02*
X191350000Y-92089285D01*
X191278571Y-92232142D01*
X191135714Y-92303571D01*
X190921428Y-92303571D01*
X190778571Y-92232142D01*
X190707142Y-92160714D01*
X189350000Y-92303571D02*
X189350000Y-90803571D01*
X189350000Y-92232142D02*
X189492857Y-92303571D01*
X189778571Y-92303571D01*
X189921428Y-92232142D01*
X189992857Y-92160714D01*
X190064285Y-92017857D01*
X190064285Y-91589285D01*
X189992857Y-91446428D01*
X189921428Y-91375000D01*
X189778571Y-91303571D01*
X189492857Y-91303571D01*
X189350000Y-91375000D01*
X188064285Y-92232142D02*
X188207142Y-92303571D01*
X188492857Y-92303571D01*
X188635714Y-92232142D01*
X188707142Y-92089285D01*
X188707142Y-91517857D01*
X188635714Y-91375000D01*
X188492857Y-91303571D01*
X188207142Y-91303571D01*
X188064285Y-91375000D01*
X187992857Y-91517857D01*
X187992857Y-91660714D01*
X188707142Y-91803571D01*
X187350000Y-92303571D02*
X187350000Y-91303571D01*
X187350000Y-91589285D02*
X187278571Y-91446428D01*
X187207142Y-91375000D01*
X187064285Y-91303571D01*
X186921428Y-91303571D01*
X194135714Y-94853571D02*
X194135714Y-93853571D01*
X194135714Y-94139285D02*
X194064285Y-93996428D01*
X193992857Y-93925000D01*
X193850000Y-93853571D01*
X193707142Y-93853571D01*
X192635714Y-94782142D02*
X192778571Y-94853571D01*
X193064285Y-94853571D01*
X193207142Y-94782142D01*
X193278571Y-94639285D01*
X193278571Y-94067857D01*
X193207142Y-93925000D01*
X193064285Y-93853571D01*
X192778571Y-93853571D01*
X192635714Y-93925000D01*
X192564285Y-94067857D01*
X192564285Y-94210714D01*
X193278571Y-94353571D01*
X192064285Y-93853571D02*
X191707142Y-94853571D01*
X191350000Y-93853571D01*
X190921428Y-93353571D02*
X189992857Y-93353571D01*
X190492857Y-93925000D01*
X190278571Y-93925000D01*
X190135714Y-93996428D01*
X190064285Y-94067857D01*
X189992857Y-94210714D01*
X189992857Y-94567857D01*
X190064285Y-94710714D01*
X190135714Y-94782142D01*
X190278571Y-94853571D01*
X190707142Y-94853571D01*
X190850000Y-94782142D01*
X190921428Y-94710714D01*
D10*
X176823809Y-84527380D02*
X176490476Y-85527380D01*
X176157142Y-84527380D01*
X175823809Y-85527380D02*
X175823809Y-84860714D01*
X175823809Y-84527380D02*
X175871428Y-84575000D01*
X175823809Y-84622619D01*
X175776190Y-84575000D01*
X175823809Y-84527380D01*
X175823809Y-84622619D01*
X175347619Y-84860714D02*
X175347619Y-85527380D01*
X175347619Y-84955952D02*
X175300000Y-84908333D01*
X175204761Y-84860714D01*
X175061904Y-84860714D01*
X174966666Y-84908333D01*
X174919047Y-85003571D01*
X174919047Y-85527380D01*
X177990476Y-87177380D02*
X178561904Y-87177380D01*
X178276190Y-87177380D02*
X178276190Y-86177380D01*
X178371428Y-86320238D01*
X178466666Y-86415476D01*
X178561904Y-86463095D01*
X177609523Y-86272619D02*
X177561904Y-86225000D01*
X177466666Y-86177380D01*
X177228571Y-86177380D01*
X177133333Y-86225000D01*
X177085714Y-86272619D01*
X177038095Y-86367857D01*
X177038095Y-86463095D01*
X177085714Y-86605952D01*
X177657142Y-87177380D01*
X177038095Y-87177380D01*
X176609523Y-86796428D02*
X175847619Y-86796428D01*
X175419047Y-86272619D02*
X175371428Y-86225000D01*
X175276190Y-86177380D01*
X175038095Y-86177380D01*
X174942857Y-86225000D01*
X174895238Y-86272619D01*
X174847619Y-86367857D01*
X174847619Y-86463095D01*
X174895238Y-86605952D01*
X175466666Y-87177380D01*
X174847619Y-87177380D01*
X173990476Y-86510714D02*
X173990476Y-87177380D01*
X174228571Y-86129761D02*
X174466666Y-86844047D01*
X173847619Y-86844047D01*
X173609523Y-86177380D02*
X173276190Y-87177380D01*
X172942857Y-86177380D01*
X160456309Y-92527380D02*
X160456309Y-91527380D01*
X160456309Y-92003571D02*
X159884880Y-92003571D01*
X159884880Y-92527380D02*
X159884880Y-91527380D01*
X159408690Y-92003571D02*
X159075357Y-92003571D01*
X158932500Y-92527380D02*
X159408690Y-92527380D01*
X159408690Y-91527380D01*
X158932500Y-91527380D01*
X158551547Y-92241666D02*
X158075357Y-92241666D01*
X158646785Y-92527380D02*
X158313452Y-91527380D01*
X157980119Y-92527380D01*
X157789642Y-91527380D02*
X157218214Y-91527380D01*
X157503928Y-92527380D02*
X157503928Y-91527380D01*
X156694404Y-91527380D02*
X156599166Y-91527380D01*
X156503928Y-91575000D01*
X156456309Y-91622619D01*
X156408690Y-91717857D01*
X156361071Y-91908333D01*
X156361071Y-92146428D01*
X156408690Y-92336904D01*
X156456309Y-92432142D01*
X156503928Y-92479761D01*
X156599166Y-92527380D01*
X156694404Y-92527380D01*
X156789642Y-92479761D01*
X156837261Y-92432142D01*
X156884880Y-92336904D01*
X156932500Y-92146428D01*
X156932500Y-91908333D01*
X156884880Y-91717857D01*
X156837261Y-91622619D01*
X156789642Y-91575000D01*
X156694404Y-91527380D01*
X148581809Y-92273380D02*
X148581809Y-91273380D01*
X148581809Y-91749571D02*
X148010380Y-91749571D01*
X148010380Y-92273380D02*
X148010380Y-91273380D01*
X147534190Y-91749571D02*
X147200857Y-91749571D01*
X147058000Y-92273380D02*
X147534190Y-92273380D01*
X147534190Y-91273380D01*
X147058000Y-91273380D01*
X146677047Y-91987666D02*
X146200857Y-91987666D01*
X146772285Y-92273380D02*
X146438952Y-91273380D01*
X146105619Y-92273380D01*
X145915142Y-91273380D02*
X145343714Y-91273380D01*
X145629428Y-92273380D02*
X145629428Y-91273380D01*
X144486571Y-92273380D02*
X145058000Y-92273380D01*
X144772285Y-92273380D02*
X144772285Y-91273380D01*
X144867523Y-91416238D01*
X144962761Y-91511476D01*
X145058000Y-91559095D01*
X182447619Y-112442857D02*
X182447619Y-112919047D01*
X183447619Y-112919047D01*
X182971428Y-112109523D02*
X182971428Y-111776190D01*
X182447619Y-111633333D02*
X182447619Y-112109523D01*
X183447619Y-112109523D01*
X183447619Y-111633333D01*
X182447619Y-111204761D02*
X183447619Y-111204761D01*
X183447619Y-110966666D01*
X183400000Y-110823809D01*
X183304761Y-110728571D01*
X183209523Y-110680952D01*
X183019047Y-110633333D01*
X182876190Y-110633333D01*
X182685714Y-110680952D01*
X182590476Y-110728571D01*
X182495238Y-110823809D01*
X182447619Y-110966666D01*
X182447619Y-111204761D01*
X185371428Y-112947619D02*
X185371428Y-112614285D01*
X184847619Y-112471428D02*
X184847619Y-112947619D01*
X185847619Y-112947619D01*
X185847619Y-112471428D01*
X185847619Y-112138095D02*
X184847619Y-111471428D01*
X185847619Y-111471428D02*
X184847619Y-112138095D01*
X185847619Y-111233333D02*
X185847619Y-110661904D01*
X184847619Y-110947619D02*
X185847619Y-110947619D01*
X184847619Y-109804761D02*
X184847619Y-110376190D01*
X184847619Y-110090476D02*
X185847619Y-110090476D01*
X185704761Y-110185714D01*
X185609523Y-110280952D01*
X185561904Y-110376190D01*
X187971428Y-113047619D02*
X187971428Y-112714285D01*
X187447619Y-112571428D02*
X187447619Y-113047619D01*
X188447619Y-113047619D01*
X188447619Y-112571428D01*
X188447619Y-112238095D02*
X187447619Y-111571428D01*
X188447619Y-111571428D02*
X187447619Y-112238095D01*
X188447619Y-111333333D02*
X188447619Y-110761904D01*
X187447619Y-111047619D02*
X188447619Y-111047619D01*
X188352380Y-110476190D02*
X188400000Y-110428571D01*
X188447619Y-110333333D01*
X188447619Y-110095238D01*
X188400000Y-110000000D01*
X188352380Y-109952380D01*
X188257142Y-109904761D01*
X188161904Y-109904761D01*
X188019047Y-109952380D01*
X187447619Y-110523809D01*
X187447619Y-109904761D01*
X191147619Y-112823809D02*
X190147619Y-112490476D01*
X191147619Y-112157142D01*
X190147619Y-111823809D02*
X190814285Y-111823809D01*
X191147619Y-111823809D02*
X191100000Y-111871428D01*
X191052380Y-111823809D01*
X191100000Y-111776190D01*
X191147619Y-111823809D01*
X191052380Y-111823809D01*
X190814285Y-111347619D02*
X190147619Y-111347619D01*
X190719047Y-111347619D02*
X190766666Y-111300000D01*
X190814285Y-111204761D01*
X190814285Y-111061904D01*
X190766666Y-110966666D01*
X190671428Y-110919047D01*
X190147619Y-110919047D01*
X193647619Y-113042857D02*
X192647619Y-112709523D01*
X193647619Y-112376190D01*
X192552380Y-112280952D02*
X192552380Y-111519047D01*
X192647619Y-111280952D02*
X193647619Y-111280952D01*
X193647619Y-110900000D01*
X193600000Y-110804761D01*
X193552380Y-110757142D01*
X193457142Y-110709523D01*
X193314285Y-110709523D01*
X193219047Y-110757142D01*
X193171428Y-110804761D01*
X193123809Y-110900000D01*
X193123809Y-111280952D01*
X192647619Y-110280952D02*
X193647619Y-110280952D01*
X192647619Y-109709523D01*
X193647619Y-109709523D01*
X192647619Y-108757142D02*
X192647619Y-109233333D01*
X193647619Y-109233333D01*
X193700000Y-120861904D02*
X193747619Y-120957142D01*
X193747619Y-121100000D01*
X193700000Y-121242857D01*
X193604761Y-121338095D01*
X193509523Y-121385714D01*
X193319047Y-121433333D01*
X193176190Y-121433333D01*
X192985714Y-121385714D01*
X192890476Y-121338095D01*
X192795238Y-121242857D01*
X192747619Y-121100000D01*
X192747619Y-121004761D01*
X192795238Y-120861904D01*
X192842857Y-120814285D01*
X193176190Y-120814285D01*
X193176190Y-121004761D01*
X192747619Y-120385714D02*
X193747619Y-120385714D01*
X192747619Y-119814285D01*
X193747619Y-119814285D01*
X192747619Y-119338095D02*
X193747619Y-119338095D01*
X193747619Y-119100000D01*
X193700000Y-118957142D01*
X193604761Y-118861904D01*
X193509523Y-118814285D01*
X193319047Y-118766666D01*
X193176190Y-118766666D01*
X192985714Y-118814285D01*
X192890476Y-118861904D01*
X192795238Y-118957142D01*
X192747619Y-119100000D01*
X192747619Y-119338095D01*
X191647619Y-123366666D02*
X191647619Y-122795238D01*
X190647619Y-123080952D02*
X191647619Y-123080952D01*
X190647619Y-122461904D02*
X191647619Y-122461904D01*
X190933333Y-122128571D01*
X191647619Y-121795238D01*
X190647619Y-121795238D01*
X190647619Y-121319047D02*
X191647619Y-121319047D01*
X191647619Y-120938095D01*
X191600000Y-120842857D01*
X191552380Y-120795238D01*
X191457142Y-120747619D01*
X191314285Y-120747619D01*
X191219047Y-120795238D01*
X191171428Y-120842857D01*
X191123809Y-120938095D01*
X191123809Y-121319047D01*
X191171428Y-119557142D02*
X191171428Y-119223809D01*
X190647619Y-119080952D02*
X190647619Y-119557142D01*
X191647619Y-119557142D01*
X191647619Y-119080952D01*
X191647619Y-118747619D02*
X190647619Y-118080952D01*
X191647619Y-118080952D02*
X190647619Y-118747619D01*
X187595238Y-120885714D02*
X187547619Y-120742857D01*
X187547619Y-120504761D01*
X187595238Y-120409523D01*
X187642857Y-120361904D01*
X187738095Y-120314285D01*
X187833333Y-120314285D01*
X187928571Y-120361904D01*
X187976190Y-120409523D01*
X188023809Y-120504761D01*
X188071428Y-120695238D01*
X188119047Y-120790476D01*
X188166666Y-120838095D01*
X188261904Y-120885714D01*
X188357142Y-120885714D01*
X188452380Y-120838095D01*
X188500000Y-120790476D01*
X188547619Y-120695238D01*
X188547619Y-120457142D01*
X188500000Y-120314285D01*
X187642857Y-119314285D02*
X187595238Y-119361904D01*
X187547619Y-119504761D01*
X187547619Y-119600000D01*
X187595238Y-119742857D01*
X187690476Y-119838095D01*
X187785714Y-119885714D01*
X187976190Y-119933333D01*
X188119047Y-119933333D01*
X188309523Y-119885714D01*
X188404761Y-119838095D01*
X188500000Y-119742857D01*
X188547619Y-119600000D01*
X188547619Y-119504761D01*
X188500000Y-119361904D01*
X188452380Y-119314285D01*
X187547619Y-118885714D02*
X188547619Y-118885714D01*
X187547619Y-118314285D02*
X188119047Y-118742857D01*
X188547619Y-118314285D02*
X187976190Y-118885714D01*
X185047619Y-121371428D02*
X186047619Y-121371428D01*
X185333333Y-121038095D01*
X186047619Y-120704761D01*
X185047619Y-120704761D01*
X185047619Y-120228571D02*
X186047619Y-120228571D01*
X185095238Y-119800000D02*
X185047619Y-119657142D01*
X185047619Y-119419047D01*
X185095238Y-119323809D01*
X185142857Y-119276190D01*
X185238095Y-119228571D01*
X185333333Y-119228571D01*
X185428571Y-119276190D01*
X185476190Y-119323809D01*
X185523809Y-119419047D01*
X185571428Y-119609523D01*
X185619047Y-119704761D01*
X185666666Y-119752380D01*
X185761904Y-119800000D01*
X185857142Y-119800000D01*
X185952380Y-119752380D01*
X186000000Y-119704761D01*
X186047619Y-119609523D01*
X186047619Y-119371428D01*
X186000000Y-119228571D01*
X186047619Y-118609523D02*
X186047619Y-118419047D01*
X186000000Y-118323809D01*
X185904761Y-118228571D01*
X185714285Y-118180952D01*
X185380952Y-118180952D01*
X185190476Y-118228571D01*
X185095238Y-118323809D01*
X185047619Y-118419047D01*
X185047619Y-118609523D01*
X185095238Y-118704761D01*
X185190476Y-118800000D01*
X185380952Y-118847619D01*
X185714285Y-118847619D01*
X185904761Y-118800000D01*
X186000000Y-118704761D01*
X186047619Y-118609523D01*
X182347619Y-121371428D02*
X183347619Y-121371428D01*
X182633333Y-121038095D01*
X183347619Y-120704761D01*
X182347619Y-120704761D01*
X183347619Y-120038095D02*
X183347619Y-119847619D01*
X183300000Y-119752380D01*
X183204761Y-119657142D01*
X183014285Y-119609523D01*
X182680952Y-119609523D01*
X182490476Y-119657142D01*
X182395238Y-119752380D01*
X182347619Y-119847619D01*
X182347619Y-120038095D01*
X182395238Y-120133333D01*
X182490476Y-120228571D01*
X182680952Y-120276190D01*
X183014285Y-120276190D01*
X183204761Y-120228571D01*
X183300000Y-120133333D01*
X183347619Y-120038095D01*
X182395238Y-119228571D02*
X182347619Y-119085714D01*
X182347619Y-118847619D01*
X182395238Y-118752380D01*
X182442857Y-118704761D01*
X182538095Y-118657142D01*
X182633333Y-118657142D01*
X182728571Y-118704761D01*
X182776190Y-118752380D01*
X182823809Y-118847619D01*
X182871428Y-119038095D01*
X182919047Y-119133333D01*
X182966666Y-119180952D01*
X183061904Y-119228571D01*
X183157142Y-119228571D01*
X183252380Y-119180952D01*
X183300000Y-119133333D01*
X183347619Y-119038095D01*
X183347619Y-118800000D01*
X183300000Y-118657142D01*
X182347619Y-118228571D02*
X183347619Y-118228571D01*
X179895238Y-120914285D02*
X179847619Y-120771428D01*
X179847619Y-120533333D01*
X179895238Y-120438095D01*
X179942857Y-120390476D01*
X180038095Y-120342857D01*
X180133333Y-120342857D01*
X180228571Y-120390476D01*
X180276190Y-120438095D01*
X180323809Y-120533333D01*
X180371428Y-120723809D01*
X180419047Y-120819047D01*
X180466666Y-120866666D01*
X180561904Y-120914285D01*
X180657142Y-120914285D01*
X180752380Y-120866666D01*
X180800000Y-120819047D01*
X180847619Y-120723809D01*
X180847619Y-120485714D01*
X180800000Y-120342857D01*
X179847619Y-119914285D02*
X180847619Y-119914285D01*
X180847619Y-119676190D01*
X180800000Y-119533333D01*
X180704761Y-119438095D01*
X180609523Y-119390476D01*
X180419047Y-119342857D01*
X180276190Y-119342857D01*
X180085714Y-119390476D01*
X179990476Y-119438095D01*
X179895238Y-119533333D01*
X179847619Y-119676190D01*
X179847619Y-119914285D01*
X180133333Y-118961904D02*
X180133333Y-118485714D01*
X179847619Y-119057142D02*
X180847619Y-118723809D01*
X179847619Y-118390476D01*
X179895238Y-113090476D02*
X179847619Y-112947619D01*
X179847619Y-112709523D01*
X179895238Y-112614285D01*
X179942857Y-112566666D01*
X180038095Y-112519047D01*
X180133333Y-112519047D01*
X180228571Y-112566666D01*
X180276190Y-112614285D01*
X180323809Y-112709523D01*
X180371428Y-112900000D01*
X180419047Y-112995238D01*
X180466666Y-113042857D01*
X180561904Y-113090476D01*
X180657142Y-113090476D01*
X180752380Y-113042857D01*
X180800000Y-112995238D01*
X180847619Y-112900000D01*
X180847619Y-112661904D01*
X180800000Y-112519047D01*
X179942857Y-111519047D02*
X179895238Y-111566666D01*
X179847619Y-111709523D01*
X179847619Y-111804761D01*
X179895238Y-111947619D01*
X179990476Y-112042857D01*
X180085714Y-112090476D01*
X180276190Y-112138095D01*
X180419047Y-112138095D01*
X180609523Y-112090476D01*
X180704761Y-112042857D01*
X180800000Y-111947619D01*
X180847619Y-111804761D01*
X180847619Y-111709523D01*
X180800000Y-111566666D01*
X180752380Y-111519047D01*
X179847619Y-110614285D02*
X179847619Y-111090476D01*
X180847619Y-111090476D01*
X184957142Y-123628571D02*
X184814285Y-123676190D01*
X184766666Y-123723809D01*
X184719047Y-123819047D01*
X184719047Y-123961904D01*
X184766666Y-124057142D01*
X184814285Y-124104761D01*
X184909523Y-124152380D01*
X185290476Y-124152380D01*
X185290476Y-123152380D01*
X184957142Y-123152380D01*
X184861904Y-123200000D01*
X184814285Y-123247619D01*
X184766666Y-123342857D01*
X184766666Y-123438095D01*
X184814285Y-123533333D01*
X184861904Y-123580952D01*
X184957142Y-123628571D01*
X185290476Y-123628571D01*
X184100000Y-123152380D02*
X183909523Y-123152380D01*
X183814285Y-123200000D01*
X183719047Y-123295238D01*
X183671428Y-123485714D01*
X183671428Y-123819047D01*
X183719047Y-124009523D01*
X183814285Y-124104761D01*
X183909523Y-124152380D01*
X184100000Y-124152380D01*
X184195238Y-124104761D01*
X184290476Y-124009523D01*
X184338095Y-123819047D01*
X184338095Y-123485714D01*
X184290476Y-123295238D01*
X184195238Y-123200000D01*
X184100000Y-123152380D01*
X183052380Y-123152380D02*
X182861904Y-123152380D01*
X182766666Y-123200000D01*
X182671428Y-123295238D01*
X182623809Y-123485714D01*
X182623809Y-123819047D01*
X182671428Y-124009523D01*
X182766666Y-124104761D01*
X182861904Y-124152380D01*
X183052380Y-124152380D01*
X183147619Y-124104761D01*
X183242857Y-124009523D01*
X183290476Y-123819047D01*
X183290476Y-123485714D01*
X183242857Y-123295238D01*
X183147619Y-123200000D01*
X183052380Y-123152380D01*
X182338095Y-123152380D02*
X181766666Y-123152380D01*
X182052380Y-124152380D02*
X182052380Y-123152380D01*
X168000000Y-107138095D02*
X167952380Y-107042857D01*
X167952380Y-106900000D01*
X168000000Y-106757142D01*
X168095238Y-106661904D01*
X168190476Y-106614285D01*
X168380952Y-106566666D01*
X168523809Y-106566666D01*
X168714285Y-106614285D01*
X168809523Y-106661904D01*
X168904761Y-106757142D01*
X168952380Y-106900000D01*
X168952380Y-106995238D01*
X168904761Y-107138095D01*
X168857142Y-107185714D01*
X168523809Y-107185714D01*
X168523809Y-106995238D01*
X168952380Y-107614285D02*
X167952380Y-107614285D01*
X168952380Y-108185714D01*
X167952380Y-108185714D01*
X168952380Y-108661904D02*
X167952380Y-108661904D01*
X167952380Y-108900000D01*
X168000000Y-109042857D01*
X168095238Y-109138095D01*
X168190476Y-109185714D01*
X168380952Y-109233333D01*
X168523809Y-109233333D01*
X168714285Y-109185714D01*
X168809523Y-109138095D01*
X168904761Y-109042857D01*
X168952380Y-108900000D01*
X168952380Y-108661904D01*
X170452380Y-106571428D02*
X170452380Y-107190476D01*
X170833333Y-106857142D01*
X170833333Y-107000000D01*
X170880952Y-107095238D01*
X170928571Y-107142857D01*
X171023809Y-107190476D01*
X171261904Y-107190476D01*
X171357142Y-107142857D01*
X171404761Y-107095238D01*
X171452380Y-107000000D01*
X171452380Y-106714285D01*
X171404761Y-106619047D01*
X171357142Y-106571428D01*
X171357142Y-107619047D02*
X171404761Y-107666666D01*
X171452380Y-107619047D01*
X171404761Y-107571428D01*
X171357142Y-107619047D01*
X171452380Y-107619047D01*
X170452380Y-108000000D02*
X170452380Y-108619047D01*
X170833333Y-108285714D01*
X170833333Y-108428571D01*
X170880952Y-108523809D01*
X170928571Y-108571428D01*
X171023809Y-108619047D01*
X171261904Y-108619047D01*
X171357142Y-108571428D01*
X171404761Y-108523809D01*
X171452380Y-108428571D01*
X171452380Y-108142857D01*
X171404761Y-108047619D01*
X171357142Y-108000000D01*
X170785714Y-108952380D02*
X171452380Y-109190476D01*
X170785714Y-109428571D01*
X173804761Y-106666666D02*
X173852380Y-106761904D01*
X173852380Y-106952380D01*
X173804761Y-107047619D01*
X173709523Y-107095238D01*
X173661904Y-107095238D01*
X173566666Y-107047619D01*
X173519047Y-106952380D01*
X173519047Y-106809523D01*
X173471428Y-106714285D01*
X173376190Y-106666666D01*
X173328571Y-106666666D01*
X173233333Y-106714285D01*
X173185714Y-106809523D01*
X173185714Y-106952380D01*
X173233333Y-107047619D01*
X173185714Y-107428571D02*
X173852380Y-107619047D01*
X173376190Y-107809523D01*
X173852380Y-108000000D01*
X173185714Y-108190476D01*
X173804761Y-109000000D02*
X173852380Y-108904761D01*
X173852380Y-108714285D01*
X173804761Y-108619047D01*
X173757142Y-108571428D01*
X173661904Y-108523809D01*
X173376190Y-108523809D01*
X173280952Y-108571428D01*
X173233333Y-108619047D01*
X173185714Y-108714285D01*
X173185714Y-108904761D01*
X173233333Y-109000000D01*
X173852380Y-109571428D02*
X173804761Y-109476190D01*
X173709523Y-109428571D01*
X172852380Y-109428571D01*
X173852380Y-109952380D02*
X172852380Y-109952380D01*
X173471428Y-110047619D02*
X173852380Y-110333333D01*
X173185714Y-110333333D02*
X173566666Y-109952380D01*
X176504761Y-106619047D02*
X176552380Y-106714285D01*
X176552380Y-106904761D01*
X176504761Y-107000000D01*
X176409523Y-107047619D01*
X176361904Y-107047619D01*
X176266666Y-107000000D01*
X176219047Y-106904761D01*
X176219047Y-106761904D01*
X176171428Y-106666666D01*
X176076190Y-106619047D01*
X176028571Y-106619047D01*
X175933333Y-106666666D01*
X175885714Y-106761904D01*
X175885714Y-106904761D01*
X175933333Y-107000000D01*
X175885714Y-107380952D02*
X176552380Y-107571428D01*
X176076190Y-107761904D01*
X176552380Y-107952380D01*
X175885714Y-108142857D01*
X176552380Y-108952380D02*
X175552380Y-108952380D01*
X176504761Y-108952380D02*
X176552380Y-108857142D01*
X176552380Y-108666666D01*
X176504761Y-108571428D01*
X176457142Y-108523809D01*
X176361904Y-108476190D01*
X176076190Y-108476190D01*
X175980952Y-108523809D01*
X175933333Y-108571428D01*
X175885714Y-108666666D01*
X175885714Y-108857142D01*
X175933333Y-108952380D01*
X176552380Y-109428571D02*
X175885714Y-109428571D01*
X175552380Y-109428571D02*
X175600000Y-109380952D01*
X175647619Y-109428571D01*
X175600000Y-109476190D01*
X175552380Y-109428571D01*
X175647619Y-109428571D01*
X176552380Y-110047619D02*
X176504761Y-109952380D01*
X176457142Y-109904761D01*
X176361904Y-109857142D01*
X176076190Y-109857142D01*
X175980952Y-109904761D01*
X175933333Y-109952380D01*
X175885714Y-110047619D01*
X175885714Y-110190476D01*
X175933333Y-110285714D01*
X175980952Y-110333333D01*
X176076190Y-110380952D01*
X176361904Y-110380952D01*
X176457142Y-110333333D01*
X176504761Y-110285714D01*
X176552380Y-110190476D01*
X176552380Y-110047619D01*
X177885000Y-106542857D02*
X177885000Y-107161904D01*
X179252380Y-106780952D02*
X178585714Y-106780952D01*
X178776190Y-106780952D02*
X178680952Y-106828571D01*
X178633333Y-106876190D01*
X178585714Y-106971428D01*
X178585714Y-107066666D01*
X177885000Y-107161904D02*
X177885000Y-108019047D01*
X179204761Y-107780952D02*
X179252380Y-107685714D01*
X179252380Y-107495238D01*
X179204761Y-107400000D01*
X179109523Y-107352380D01*
X178728571Y-107352380D01*
X178633333Y-107400000D01*
X178585714Y-107495238D01*
X178585714Y-107685714D01*
X178633333Y-107780952D01*
X178728571Y-107828571D01*
X178823809Y-107828571D01*
X178919047Y-107352380D01*
X177885000Y-108019047D02*
X177885000Y-108828571D01*
X179204761Y-108209523D02*
X179252380Y-108304761D01*
X179252380Y-108495238D01*
X179204761Y-108590476D01*
X179109523Y-108638095D01*
X179061904Y-108638095D01*
X178966666Y-108590476D01*
X178919047Y-108495238D01*
X178919047Y-108352380D01*
X178871428Y-108257142D01*
X178776190Y-108209523D01*
X178728571Y-108209523D01*
X178633333Y-108257142D01*
X178585714Y-108352380D01*
X178585714Y-108495238D01*
X178633333Y-108590476D01*
X177885000Y-108828571D02*
X177885000Y-109685714D01*
X179204761Y-109447619D02*
X179252380Y-109352380D01*
X179252380Y-109161904D01*
X179204761Y-109066666D01*
X179109523Y-109019047D01*
X178728571Y-109019047D01*
X178633333Y-109066666D01*
X178585714Y-109161904D01*
X178585714Y-109352380D01*
X178633333Y-109447619D01*
X178728571Y-109495238D01*
X178823809Y-109495238D01*
X178919047Y-109019047D01*
X177885000Y-109685714D02*
X177885000Y-110257142D01*
X178585714Y-109780952D02*
X178585714Y-110161904D01*
X178252380Y-109923809D02*
X179109523Y-109923809D01*
X179204761Y-109971428D01*
X179252380Y-110066666D01*
X179252380Y-110161904D01*
X166447619Y-101861904D02*
X166447619Y-101290476D01*
X165447619Y-101576190D02*
X166447619Y-101576190D01*
X165542857Y-100385714D02*
X165495238Y-100433333D01*
X165447619Y-100576190D01*
X165447619Y-100671428D01*
X165495238Y-100814285D01*
X165590476Y-100909523D01*
X165685714Y-100957142D01*
X165876190Y-101004761D01*
X166019047Y-101004761D01*
X166209523Y-100957142D01*
X166304761Y-100909523D01*
X166400000Y-100814285D01*
X166447619Y-100671428D01*
X166447619Y-100576190D01*
X166400000Y-100433333D01*
X166352380Y-100385714D01*
X166447619Y-99766666D02*
X166447619Y-99671428D01*
X166400000Y-99576190D01*
X166352380Y-99528571D01*
X166257142Y-99480952D01*
X166066666Y-99433333D01*
X165828571Y-99433333D01*
X165638095Y-99480952D01*
X165542857Y-99528571D01*
X165495238Y-99576190D01*
X165447619Y-99671428D01*
X165447619Y-99766666D01*
X165495238Y-99861904D01*
X165542857Y-99909523D01*
X165638095Y-99957142D01*
X165828571Y-100004761D01*
X166066666Y-100004761D01*
X166257142Y-99957142D01*
X166352380Y-99909523D01*
X166400000Y-99861904D01*
X166447619Y-99766666D01*
X166447619Y-97861904D02*
X166447619Y-97290476D01*
X165447619Y-97576190D02*
X166447619Y-97576190D01*
X165542857Y-96385714D02*
X165495238Y-96433333D01*
X165447619Y-96576190D01*
X165447619Y-96671428D01*
X165495238Y-96814285D01*
X165590476Y-96909523D01*
X165685714Y-96957142D01*
X165876190Y-97004761D01*
X166019047Y-97004761D01*
X166209523Y-96957142D01*
X166304761Y-96909523D01*
X166400000Y-96814285D01*
X166447619Y-96671428D01*
X166447619Y-96576190D01*
X166400000Y-96433333D01*
X166352380Y-96385714D01*
X165447619Y-95433333D02*
X165447619Y-96004761D01*
X165447619Y-95719047D02*
X166447619Y-95719047D01*
X166304761Y-95814285D01*
X166209523Y-95909523D01*
X166161904Y-96004761D01*
X156273404Y-124991880D02*
X155701976Y-124991880D01*
X155987690Y-125991880D02*
X155987690Y-124991880D01*
X154844833Y-125991880D02*
X155416261Y-125991880D01*
X155130547Y-125991880D02*
X155130547Y-124991880D01*
X155225785Y-125134738D01*
X155321023Y-125229976D01*
X155416261Y-125277595D01*
X147700904Y-124928380D02*
X147129476Y-124928380D01*
X147415190Y-125928380D02*
X147415190Y-124928380D01*
X146605666Y-124928380D02*
X146510428Y-124928380D01*
X146415190Y-124976000D01*
X146367571Y-125023619D01*
X146319952Y-125118857D01*
X146272333Y-125309333D01*
X146272333Y-125547428D01*
X146319952Y-125737904D01*
X146367571Y-125833142D01*
X146415190Y-125880761D01*
X146510428Y-125928380D01*
X146605666Y-125928380D01*
X146700904Y-125880761D01*
X146748523Y-125833142D01*
X146796142Y-125737904D01*
X146843761Y-125547428D01*
X146843761Y-125309333D01*
X146796142Y-125118857D01*
X146748523Y-125023619D01*
X146700904Y-124976000D01*
X146605666Y-124928380D01*
X133262619Y-128269619D02*
X133262619Y-127698190D01*
X132262619Y-127983904D02*
X133262619Y-127983904D01*
X132643571Y-125841047D02*
X132643571Y-125079142D01*
X132262619Y-125460095D02*
X133024523Y-125460095D01*
X132643571Y-123079142D02*
X132643571Y-122317238D01*
X133262619Y-118871619D02*
X133262619Y-118300190D01*
X132262619Y-118585904D02*
X133262619Y-118585904D01*
X132643571Y-116443047D02*
X132643571Y-115681142D01*
X132262619Y-116062095D02*
X133024523Y-116062095D01*
X132643571Y-113681142D02*
X132643571Y-112919238D01*
X133135619Y-109600619D02*
X133135619Y-109029190D01*
X132135619Y-109314904D02*
X133135619Y-109314904D01*
X132516571Y-107172047D02*
X132516571Y-106410142D01*
X132135619Y-106791095D02*
X132897523Y-106791095D01*
X132516571Y-104410142D02*
X132516571Y-103648238D01*
X134961357Y-107886357D02*
X134913738Y-107933976D01*
X134866119Y-108076833D01*
X134866119Y-108172071D01*
X134913738Y-108314928D01*
X135008976Y-108410166D01*
X135104214Y-108457785D01*
X135294690Y-108505404D01*
X135437547Y-108505404D01*
X135628023Y-108457785D01*
X135723261Y-108410166D01*
X135818500Y-108314928D01*
X135866119Y-108172071D01*
X135866119Y-108076833D01*
X135818500Y-107933976D01*
X135770880Y-107886357D01*
X135866119Y-107267309D02*
X135866119Y-107076833D01*
X135818500Y-106981595D01*
X135723261Y-106886357D01*
X135532785Y-106838738D01*
X135199452Y-106838738D01*
X135008976Y-106886357D01*
X134913738Y-106981595D01*
X134866119Y-107076833D01*
X134866119Y-107267309D01*
X134913738Y-107362547D01*
X135008976Y-107457785D01*
X135199452Y-107505404D01*
X135532785Y-107505404D01*
X135723261Y-107457785D01*
X135818500Y-107362547D01*
X135866119Y-107267309D01*
X135866119Y-106219690D02*
X135866119Y-106029214D01*
X135818500Y-105933976D01*
X135723261Y-105838738D01*
X135532785Y-105791119D01*
X135199452Y-105791119D01*
X135008976Y-105838738D01*
X134913738Y-105933976D01*
X134866119Y-106029214D01*
X134866119Y-106219690D01*
X134913738Y-106314928D01*
X135008976Y-106410166D01*
X135199452Y-106457785D01*
X135532785Y-106457785D01*
X135723261Y-106410166D01*
X135818500Y-106314928D01*
X135866119Y-106219690D01*
X134866119Y-104886357D02*
X134866119Y-105362547D01*
X135866119Y-105362547D01*
X135135928Y-126444214D02*
X135135928Y-126777547D01*
X134612119Y-126777547D02*
X135612119Y-126777547D01*
X135612119Y-126301357D01*
X134897833Y-125968023D02*
X134897833Y-125491833D01*
X134612119Y-126063261D02*
X135612119Y-125729928D01*
X134612119Y-125396595D01*
X134612119Y-125063261D02*
X135612119Y-125063261D01*
X134612119Y-124491833D01*
X135612119Y-124491833D01*
X134612119Y-123491833D02*
X134612119Y-124063261D01*
X134612119Y-123777547D02*
X135612119Y-123777547D01*
X135469261Y-123872785D01*
X135374023Y-123968023D01*
X135326404Y-124063261D01*
X135262928Y-117109714D02*
X135262928Y-117443047D01*
X134739119Y-117443047D02*
X135739119Y-117443047D01*
X135739119Y-116966857D01*
X135024833Y-116633523D02*
X135024833Y-116157333D01*
X134739119Y-116728761D02*
X135739119Y-116395428D01*
X134739119Y-116062095D01*
X134739119Y-115728761D02*
X135739119Y-115728761D01*
X134739119Y-115157333D01*
X135739119Y-115157333D01*
X135739119Y-114490666D02*
X135739119Y-114395428D01*
X135691500Y-114300190D01*
X135643880Y-114252571D01*
X135548642Y-114204952D01*
X135358166Y-114157333D01*
X135120071Y-114157333D01*
X134929595Y-114204952D01*
X134834357Y-114252571D01*
X134786738Y-114300190D01*
X134739119Y-114395428D01*
X134739119Y-114490666D01*
X134786738Y-114585904D01*
X134834357Y-114633523D01*
X134929595Y-114681142D01*
X135120071Y-114728761D01*
X135358166Y-114728761D01*
X135548642Y-114681142D01*
X135643880Y-114633523D01*
X135691500Y-114585904D01*
X135739119Y-114490666D01*
X149208857Y-84970928D02*
X148446952Y-84970928D01*
X145685047Y-84970928D02*
X144923142Y-84970928D01*
X145304095Y-85351880D02*
X145304095Y-84589976D01*
X156734142Y-85018571D02*
X157496047Y-85018571D01*
X157115095Y-84637619D02*
X157115095Y-85399523D01*
X160257952Y-85018571D02*
X161019857Y-85018571D01*
X166449642Y-85209071D02*
X167211547Y-85209071D01*
X169973452Y-85209071D02*
X170735357Y-85209071D01*
X170354404Y-84828119D02*
X170354404Y-85590023D01*
%LPC*%
D12*
X134175000Y-94550000D03*
X134175000Y-87550000D03*
D13*
X181200000Y-96700000D03*
X178660000Y-96700000D03*
X176120000Y-96700000D03*
X173580000Y-96700000D03*
X171040000Y-96700000D03*
D14*
X168500000Y-96700000D03*
D13*
X181200000Y-100800000D03*
X178660000Y-100800000D03*
X176120000Y-100800000D03*
X173580000Y-100800000D03*
X171040000Y-100800000D03*
D14*
X168500000Y-100800000D03*
D15*
X148000000Y-88328500D03*
D16*
X144500000Y-88328500D03*
D15*
X159400000Y-88328500D03*
D16*
X155900000Y-88328500D03*
D15*
X170505000Y-88328500D03*
D16*
X167005000Y-88328500D03*
D13*
X178660000Y-104500000D03*
X176120000Y-104500000D03*
X173580000Y-104500000D03*
X171040000Y-104500000D03*
D14*
X168500000Y-104500000D03*
D17*
X197200000Y-125900000D03*
X142367000Y-122047000D03*
D18*
X193100000Y-114360000D03*
X193100000Y-116900000D03*
X190560000Y-114360000D03*
X190560000Y-116900000D03*
X188020000Y-114360000D03*
X188020000Y-116900000D03*
X185480000Y-114360000D03*
X185480000Y-116900000D03*
X182940000Y-114360000D03*
X182940000Y-116900000D03*
X180400000Y-114360000D03*
D19*
X180400000Y-116900000D03*
D13*
X161544000Y-128143000D03*
X161544000Y-125603000D03*
D14*
X161544000Y-123063000D03*
D13*
X179642000Y-128143000D03*
X179642000Y-125603000D03*
D14*
X179642000Y-123063000D03*
D13*
X176022000Y-128143000D03*
X176022000Y-125603000D03*
D14*
X176022000Y-123063000D03*
D13*
X172402000Y-128143000D03*
X172402000Y-125603000D03*
D14*
X172402000Y-123063000D03*
D13*
X168783000Y-128143000D03*
X168783000Y-125603000D03*
D14*
X168783000Y-123063000D03*
D13*
X165164000Y-128143000D03*
X165164000Y-125603000D03*
D14*
X165164000Y-123063000D03*
D13*
X189800000Y-123400000D03*
D14*
X187260000Y-123400000D03*
D13*
X184760000Y-127400000D03*
X187300000Y-127400000D03*
D14*
X189840000Y-127400000D03*
D13*
X130568000Y-109261000D03*
X130568000Y-106721000D03*
D14*
X130568000Y-104181000D03*
D13*
X130607000Y-127656000D03*
X130607000Y-125116000D03*
D14*
X130607000Y-122576000D03*
D13*
X130580000Y-118468000D03*
X130580000Y-115928000D03*
D14*
X130580000Y-113388000D03*
D13*
X156759000Y-128143000D03*
D14*
X154219000Y-128143000D03*
D13*
X148182000Y-128156000D03*
D14*
X145642000Y-128156000D03*
M02*
