G04 #@! TF.GenerationSoftware,KiCad,Pcbnew,6.0.0-rc1-unknown-170ff66~66~ubuntu18.10.1*
G04 #@! TF.CreationDate,2019-01-13T15:19:13-08:00
G04 #@! TF.ProjectId,EExtruder,45457874-7275-4646-9572-2e6b69636164,rev?*
G04 #@! TF.SameCoordinates,Original*
G04 #@! TF.FileFunction,Soldermask,Bot*
G04 #@! TF.FilePolarity,Negative*
%FSLAX46Y46*%
G04 Gerber Fmt 4.6, Leading zero omitted, Abs format (unit mm)*
G04 Created by KiCad (PCBNEW 6.0.0-rc1-unknown-170ff66~66~ubuntu18.10.1) date Sun 13 Jan 2019 03:19:13 PM PST*
%MOMM*%
%LPD*%
G04 APERTURE LIST*
%ADD10C,0.100000*%
G04 APERTURE END LIST*
D10*
G36*
X148292443Y-127261519D02*
G01*
X148358627Y-127268037D01*
X148471853Y-127302384D01*
X148528467Y-127319557D01*
X148609923Y-127363097D01*
X148684991Y-127403222D01*
X148720729Y-127432552D01*
X148822186Y-127515814D01*
X148905448Y-127617271D01*
X148934778Y-127653009D01*
X148934779Y-127653011D01*
X149018443Y-127809533D01*
X149018443Y-127809534D01*
X149069963Y-127979373D01*
X149087359Y-128156000D01*
X149069963Y-128332627D01*
X149035616Y-128445853D01*
X149018443Y-128502467D01*
X148989294Y-128557000D01*
X148934778Y-128658991D01*
X148905448Y-128694729D01*
X148822186Y-128796186D01*
X148720729Y-128879448D01*
X148684991Y-128908778D01*
X148684989Y-128908779D01*
X148528467Y-128992443D01*
X148471853Y-129009616D01*
X148358627Y-129043963D01*
X148292442Y-129050482D01*
X148226260Y-129057000D01*
X148137740Y-129057000D01*
X148071558Y-129050482D01*
X148005373Y-129043963D01*
X147892147Y-129009616D01*
X147835533Y-128992443D01*
X147679011Y-128908779D01*
X147679009Y-128908778D01*
X147643271Y-128879448D01*
X147541814Y-128796186D01*
X147458552Y-128694729D01*
X147429222Y-128658991D01*
X147374706Y-128557000D01*
X147345557Y-128502467D01*
X147328384Y-128445853D01*
X147294037Y-128332627D01*
X147276641Y-128156000D01*
X147294037Y-127979373D01*
X147345557Y-127809534D01*
X147345557Y-127809533D01*
X147429221Y-127653011D01*
X147429222Y-127653009D01*
X147458552Y-127617271D01*
X147541814Y-127515814D01*
X147643271Y-127432552D01*
X147679009Y-127403222D01*
X147754077Y-127363097D01*
X147835533Y-127319557D01*
X147892147Y-127302384D01*
X148005373Y-127268037D01*
X148071557Y-127261519D01*
X148137740Y-127255000D01*
X148226260Y-127255000D01*
X148292443Y-127261519D01*
X148292443Y-127261519D01*
G37*
G36*
X146543000Y-129057000D02*
G01*
X144741000Y-129057000D01*
X144741000Y-127255000D01*
X146543000Y-127255000D01*
X146543000Y-129057000D01*
X146543000Y-129057000D01*
G37*
G36*
X161654443Y-127248519D02*
G01*
X161720627Y-127255037D01*
X161833853Y-127289384D01*
X161890467Y-127306557D01*
X161996244Y-127363097D01*
X162046991Y-127390222D01*
X162058905Y-127400000D01*
X162184186Y-127502814D01*
X162267448Y-127604271D01*
X162296778Y-127640009D01*
X162296779Y-127640011D01*
X162380443Y-127796533D01*
X162391391Y-127832625D01*
X162431963Y-127966373D01*
X162449359Y-128143000D01*
X162431963Y-128319627D01*
X162404919Y-128408778D01*
X162380443Y-128489467D01*
X162373494Y-128502467D01*
X162296778Y-128645991D01*
X162286109Y-128658991D01*
X162184186Y-128783186D01*
X162082729Y-128866448D01*
X162046991Y-128895778D01*
X162046989Y-128895779D01*
X161890467Y-128979443D01*
X161847611Y-128992443D01*
X161720627Y-129030963D01*
X161654442Y-129037482D01*
X161588260Y-129044000D01*
X161499740Y-129044000D01*
X161433558Y-129037482D01*
X161367373Y-129030963D01*
X161240389Y-128992443D01*
X161197533Y-128979443D01*
X161041011Y-128895779D01*
X161041009Y-128895778D01*
X161005271Y-128866448D01*
X160903814Y-128783186D01*
X160801891Y-128658991D01*
X160791222Y-128645991D01*
X160714506Y-128502467D01*
X160707557Y-128489467D01*
X160683081Y-128408778D01*
X160656037Y-128319627D01*
X160638641Y-128143000D01*
X160656037Y-127966373D01*
X160696609Y-127832625D01*
X160707557Y-127796533D01*
X160791221Y-127640011D01*
X160791222Y-127640009D01*
X160820552Y-127604271D01*
X160903814Y-127502814D01*
X161029095Y-127400000D01*
X161041009Y-127390222D01*
X161091756Y-127363097D01*
X161197533Y-127306557D01*
X161254147Y-127289384D01*
X161367373Y-127255037D01*
X161433557Y-127248519D01*
X161499740Y-127242000D01*
X161588260Y-127242000D01*
X161654443Y-127248519D01*
X161654443Y-127248519D01*
G37*
G36*
X176132443Y-127248519D02*
G01*
X176198627Y-127255037D01*
X176311853Y-127289384D01*
X176368467Y-127306557D01*
X176474244Y-127363097D01*
X176524991Y-127390222D01*
X176536905Y-127400000D01*
X176662186Y-127502814D01*
X176745448Y-127604271D01*
X176774778Y-127640009D01*
X176774779Y-127640011D01*
X176858443Y-127796533D01*
X176869391Y-127832625D01*
X176909963Y-127966373D01*
X176927359Y-128143000D01*
X176909963Y-128319627D01*
X176882919Y-128408778D01*
X176858443Y-128489467D01*
X176851494Y-128502467D01*
X176774778Y-128645991D01*
X176764109Y-128658991D01*
X176662186Y-128783186D01*
X176560729Y-128866448D01*
X176524991Y-128895778D01*
X176524989Y-128895779D01*
X176368467Y-128979443D01*
X176325611Y-128992443D01*
X176198627Y-129030963D01*
X176132442Y-129037482D01*
X176066260Y-129044000D01*
X175977740Y-129044000D01*
X175911558Y-129037482D01*
X175845373Y-129030963D01*
X175718389Y-128992443D01*
X175675533Y-128979443D01*
X175519011Y-128895779D01*
X175519009Y-128895778D01*
X175483271Y-128866448D01*
X175381814Y-128783186D01*
X175279891Y-128658991D01*
X175269222Y-128645991D01*
X175192506Y-128502467D01*
X175185557Y-128489467D01*
X175161081Y-128408778D01*
X175134037Y-128319627D01*
X175116641Y-128143000D01*
X175134037Y-127966373D01*
X175174609Y-127832625D01*
X175185557Y-127796533D01*
X175269221Y-127640011D01*
X175269222Y-127640009D01*
X175298552Y-127604271D01*
X175381814Y-127502814D01*
X175507095Y-127400000D01*
X175519009Y-127390222D01*
X175569756Y-127363097D01*
X175675533Y-127306557D01*
X175732147Y-127289384D01*
X175845373Y-127255037D01*
X175911557Y-127248519D01*
X175977740Y-127242000D01*
X176066260Y-127242000D01*
X176132443Y-127248519D01*
X176132443Y-127248519D01*
G37*
G36*
X168893443Y-127248519D02*
G01*
X168959627Y-127255037D01*
X169072853Y-127289384D01*
X169129467Y-127306557D01*
X169235244Y-127363097D01*
X169285991Y-127390222D01*
X169297905Y-127400000D01*
X169423186Y-127502814D01*
X169506448Y-127604271D01*
X169535778Y-127640009D01*
X169535779Y-127640011D01*
X169619443Y-127796533D01*
X169630391Y-127832625D01*
X169670963Y-127966373D01*
X169688359Y-128143000D01*
X169670963Y-128319627D01*
X169643919Y-128408778D01*
X169619443Y-128489467D01*
X169612494Y-128502467D01*
X169535778Y-128645991D01*
X169525109Y-128658991D01*
X169423186Y-128783186D01*
X169321729Y-128866448D01*
X169285991Y-128895778D01*
X169285989Y-128895779D01*
X169129467Y-128979443D01*
X169086611Y-128992443D01*
X168959627Y-129030963D01*
X168893442Y-129037482D01*
X168827260Y-129044000D01*
X168738740Y-129044000D01*
X168672558Y-129037482D01*
X168606373Y-129030963D01*
X168479389Y-128992443D01*
X168436533Y-128979443D01*
X168280011Y-128895779D01*
X168280009Y-128895778D01*
X168244271Y-128866448D01*
X168142814Y-128783186D01*
X168040891Y-128658991D01*
X168030222Y-128645991D01*
X167953506Y-128502467D01*
X167946557Y-128489467D01*
X167922081Y-128408778D01*
X167895037Y-128319627D01*
X167877641Y-128143000D01*
X167895037Y-127966373D01*
X167935609Y-127832625D01*
X167946557Y-127796533D01*
X168030221Y-127640011D01*
X168030222Y-127640009D01*
X168059552Y-127604271D01*
X168142814Y-127502814D01*
X168268095Y-127400000D01*
X168280009Y-127390222D01*
X168330756Y-127363097D01*
X168436533Y-127306557D01*
X168493147Y-127289384D01*
X168606373Y-127255037D01*
X168672557Y-127248519D01*
X168738740Y-127242000D01*
X168827260Y-127242000D01*
X168893443Y-127248519D01*
X168893443Y-127248519D01*
G37*
G36*
X165274443Y-127248519D02*
G01*
X165340627Y-127255037D01*
X165453853Y-127289384D01*
X165510467Y-127306557D01*
X165616244Y-127363097D01*
X165666991Y-127390222D01*
X165678905Y-127400000D01*
X165804186Y-127502814D01*
X165887448Y-127604271D01*
X165916778Y-127640009D01*
X165916779Y-127640011D01*
X166000443Y-127796533D01*
X166011391Y-127832625D01*
X166051963Y-127966373D01*
X166069359Y-128143000D01*
X166051963Y-128319627D01*
X166024919Y-128408778D01*
X166000443Y-128489467D01*
X165993494Y-128502467D01*
X165916778Y-128645991D01*
X165906109Y-128658991D01*
X165804186Y-128783186D01*
X165702729Y-128866448D01*
X165666991Y-128895778D01*
X165666989Y-128895779D01*
X165510467Y-128979443D01*
X165467611Y-128992443D01*
X165340627Y-129030963D01*
X165274442Y-129037482D01*
X165208260Y-129044000D01*
X165119740Y-129044000D01*
X165053558Y-129037482D01*
X164987373Y-129030963D01*
X164860389Y-128992443D01*
X164817533Y-128979443D01*
X164661011Y-128895779D01*
X164661009Y-128895778D01*
X164625271Y-128866448D01*
X164523814Y-128783186D01*
X164421891Y-128658991D01*
X164411222Y-128645991D01*
X164334506Y-128502467D01*
X164327557Y-128489467D01*
X164303081Y-128408778D01*
X164276037Y-128319627D01*
X164258641Y-128143000D01*
X164276037Y-127966373D01*
X164316609Y-127832625D01*
X164327557Y-127796533D01*
X164411221Y-127640011D01*
X164411222Y-127640009D01*
X164440552Y-127604271D01*
X164523814Y-127502814D01*
X164649095Y-127400000D01*
X164661009Y-127390222D01*
X164711756Y-127363097D01*
X164817533Y-127306557D01*
X164874147Y-127289384D01*
X164987373Y-127255037D01*
X165053557Y-127248519D01*
X165119740Y-127242000D01*
X165208260Y-127242000D01*
X165274443Y-127248519D01*
X165274443Y-127248519D01*
G37*
G36*
X156869443Y-127248519D02*
G01*
X156935627Y-127255037D01*
X157048853Y-127289384D01*
X157105467Y-127306557D01*
X157211244Y-127363097D01*
X157261991Y-127390222D01*
X157273905Y-127400000D01*
X157399186Y-127502814D01*
X157482448Y-127604271D01*
X157511778Y-127640009D01*
X157511779Y-127640011D01*
X157595443Y-127796533D01*
X157606391Y-127832625D01*
X157646963Y-127966373D01*
X157664359Y-128143000D01*
X157646963Y-128319627D01*
X157619919Y-128408778D01*
X157595443Y-128489467D01*
X157588494Y-128502467D01*
X157511778Y-128645991D01*
X157501109Y-128658991D01*
X157399186Y-128783186D01*
X157297729Y-128866448D01*
X157261991Y-128895778D01*
X157261989Y-128895779D01*
X157105467Y-128979443D01*
X157062611Y-128992443D01*
X156935627Y-129030963D01*
X156869442Y-129037482D01*
X156803260Y-129044000D01*
X156714740Y-129044000D01*
X156648558Y-129037482D01*
X156582373Y-129030963D01*
X156455389Y-128992443D01*
X156412533Y-128979443D01*
X156256011Y-128895779D01*
X156256009Y-128895778D01*
X156220271Y-128866448D01*
X156118814Y-128783186D01*
X156016891Y-128658991D01*
X156006222Y-128645991D01*
X155929506Y-128502467D01*
X155922557Y-128489467D01*
X155898081Y-128408778D01*
X155871037Y-128319627D01*
X155853641Y-128143000D01*
X155871037Y-127966373D01*
X155911609Y-127832625D01*
X155922557Y-127796533D01*
X156006221Y-127640011D01*
X156006222Y-127640009D01*
X156035552Y-127604271D01*
X156118814Y-127502814D01*
X156244095Y-127400000D01*
X156256009Y-127390222D01*
X156306756Y-127363097D01*
X156412533Y-127306557D01*
X156469147Y-127289384D01*
X156582373Y-127255037D01*
X156648557Y-127248519D01*
X156714740Y-127242000D01*
X156803260Y-127242000D01*
X156869443Y-127248519D01*
X156869443Y-127248519D01*
G37*
G36*
X155120000Y-129044000D02*
G01*
X153318000Y-129044000D01*
X153318000Y-127242000D01*
X155120000Y-127242000D01*
X155120000Y-129044000D01*
X155120000Y-129044000D01*
G37*
G36*
X179752443Y-127248519D02*
G01*
X179818627Y-127255037D01*
X179931853Y-127289384D01*
X179988467Y-127306557D01*
X180094244Y-127363097D01*
X180144991Y-127390222D01*
X180156905Y-127400000D01*
X180282186Y-127502814D01*
X180365448Y-127604271D01*
X180394778Y-127640009D01*
X180394779Y-127640011D01*
X180478443Y-127796533D01*
X180489391Y-127832625D01*
X180529963Y-127966373D01*
X180547359Y-128143000D01*
X180529963Y-128319627D01*
X180502919Y-128408778D01*
X180478443Y-128489467D01*
X180471494Y-128502467D01*
X180394778Y-128645991D01*
X180384109Y-128658991D01*
X180282186Y-128783186D01*
X180180729Y-128866448D01*
X180144991Y-128895778D01*
X180144989Y-128895779D01*
X179988467Y-128979443D01*
X179945611Y-128992443D01*
X179818627Y-129030963D01*
X179752442Y-129037482D01*
X179686260Y-129044000D01*
X179597740Y-129044000D01*
X179531558Y-129037482D01*
X179465373Y-129030963D01*
X179338389Y-128992443D01*
X179295533Y-128979443D01*
X179139011Y-128895779D01*
X179139009Y-128895778D01*
X179103271Y-128866448D01*
X179001814Y-128783186D01*
X178899891Y-128658991D01*
X178889222Y-128645991D01*
X178812506Y-128502467D01*
X178805557Y-128489467D01*
X178781081Y-128408778D01*
X178754037Y-128319627D01*
X178736641Y-128143000D01*
X178754037Y-127966373D01*
X178794609Y-127832625D01*
X178805557Y-127796533D01*
X178889221Y-127640011D01*
X178889222Y-127640009D01*
X178918552Y-127604271D01*
X179001814Y-127502814D01*
X179127095Y-127400000D01*
X179139009Y-127390222D01*
X179189756Y-127363097D01*
X179295533Y-127306557D01*
X179352147Y-127289384D01*
X179465373Y-127255037D01*
X179531557Y-127248519D01*
X179597740Y-127242000D01*
X179686260Y-127242000D01*
X179752443Y-127248519D01*
X179752443Y-127248519D01*
G37*
G36*
X172512443Y-127248519D02*
G01*
X172578627Y-127255037D01*
X172691853Y-127289384D01*
X172748467Y-127306557D01*
X172854244Y-127363097D01*
X172904991Y-127390222D01*
X172916905Y-127400000D01*
X173042186Y-127502814D01*
X173125448Y-127604271D01*
X173154778Y-127640009D01*
X173154779Y-127640011D01*
X173238443Y-127796533D01*
X173249391Y-127832625D01*
X173289963Y-127966373D01*
X173307359Y-128143000D01*
X173289963Y-128319627D01*
X173262919Y-128408778D01*
X173238443Y-128489467D01*
X173231494Y-128502467D01*
X173154778Y-128645991D01*
X173144109Y-128658991D01*
X173042186Y-128783186D01*
X172940729Y-128866448D01*
X172904991Y-128895778D01*
X172904989Y-128895779D01*
X172748467Y-128979443D01*
X172705611Y-128992443D01*
X172578627Y-129030963D01*
X172512442Y-129037482D01*
X172446260Y-129044000D01*
X172357740Y-129044000D01*
X172291558Y-129037482D01*
X172225373Y-129030963D01*
X172098389Y-128992443D01*
X172055533Y-128979443D01*
X171899011Y-128895779D01*
X171899009Y-128895778D01*
X171863271Y-128866448D01*
X171761814Y-128783186D01*
X171659891Y-128658991D01*
X171649222Y-128645991D01*
X171572506Y-128502467D01*
X171565557Y-128489467D01*
X171541081Y-128408778D01*
X171514037Y-128319627D01*
X171496641Y-128143000D01*
X171514037Y-127966373D01*
X171554609Y-127832625D01*
X171565557Y-127796533D01*
X171649221Y-127640011D01*
X171649222Y-127640009D01*
X171678552Y-127604271D01*
X171761814Y-127502814D01*
X171887095Y-127400000D01*
X171899009Y-127390222D01*
X171949756Y-127363097D01*
X172055533Y-127306557D01*
X172112147Y-127289384D01*
X172225373Y-127255037D01*
X172291557Y-127248519D01*
X172357740Y-127242000D01*
X172446260Y-127242000D01*
X172512443Y-127248519D01*
X172512443Y-127248519D01*
G37*
G36*
X130717443Y-126761519D02*
G01*
X130783627Y-126768037D01*
X130896853Y-126802384D01*
X130953467Y-126819557D01*
X131092087Y-126893652D01*
X131109991Y-126903222D01*
X131145729Y-126932552D01*
X131247186Y-127015814D01*
X131330448Y-127117271D01*
X131359778Y-127153009D01*
X131359779Y-127153011D01*
X131443443Y-127309533D01*
X131459691Y-127363097D01*
X131494963Y-127479373D01*
X131512359Y-127656000D01*
X131494963Y-127832627D01*
X131473619Y-127902989D01*
X131443443Y-128002467D01*
X131423282Y-128040185D01*
X131359778Y-128158991D01*
X131330448Y-128194729D01*
X131247186Y-128296186D01*
X131145729Y-128379448D01*
X131109991Y-128408778D01*
X131109989Y-128408779D01*
X130953467Y-128492443D01*
X130896853Y-128509616D01*
X130783627Y-128543963D01*
X130717443Y-128550481D01*
X130651260Y-128557000D01*
X130562740Y-128557000D01*
X130496557Y-128550481D01*
X130430373Y-128543963D01*
X130317147Y-128509616D01*
X130260533Y-128492443D01*
X130104011Y-128408779D01*
X130104009Y-128408778D01*
X130068271Y-128379448D01*
X129966814Y-128296186D01*
X129883552Y-128194729D01*
X129854222Y-128158991D01*
X129790718Y-128040185D01*
X129770557Y-128002467D01*
X129740381Y-127902989D01*
X129719037Y-127832627D01*
X129701641Y-127656000D01*
X129719037Y-127479373D01*
X129754309Y-127363097D01*
X129770557Y-127309533D01*
X129854221Y-127153011D01*
X129854222Y-127153009D01*
X129883552Y-127117271D01*
X129966814Y-127015814D01*
X130068271Y-126932552D01*
X130104009Y-126903222D01*
X130121913Y-126893652D01*
X130260533Y-126819557D01*
X130317147Y-126802384D01*
X130430373Y-126768037D01*
X130496557Y-126761519D01*
X130562740Y-126755000D01*
X130651260Y-126755000D01*
X130717443Y-126761519D01*
X130717443Y-126761519D01*
G37*
G36*
X184855025Y-126504000D02*
G01*
X184936627Y-126512037D01*
X185049853Y-126546384D01*
X185106467Y-126563557D01*
X185245087Y-126637652D01*
X185262991Y-126647222D01*
X185298729Y-126676552D01*
X185400186Y-126759814D01*
X185483448Y-126861271D01*
X185512778Y-126897009D01*
X185512779Y-126897011D01*
X185596443Y-127053533D01*
X185596443Y-127053534D01*
X185647963Y-127223373D01*
X185665359Y-127400000D01*
X185647963Y-127576627D01*
X185613616Y-127689853D01*
X185596443Y-127746467D01*
X185569681Y-127796534D01*
X185512778Y-127902991D01*
X185483448Y-127938729D01*
X185400186Y-128040186D01*
X185298729Y-128123448D01*
X185262991Y-128152778D01*
X185262989Y-128152779D01*
X185106467Y-128236443D01*
X185049853Y-128253616D01*
X184936627Y-128287963D01*
X184870443Y-128294481D01*
X184804260Y-128301000D01*
X184715740Y-128301000D01*
X184649557Y-128294481D01*
X184583373Y-128287963D01*
X184470147Y-128253616D01*
X184413533Y-128236443D01*
X184257011Y-128152779D01*
X184257009Y-128152778D01*
X184221271Y-128123448D01*
X184119814Y-128040186D01*
X184036552Y-127938729D01*
X184007222Y-127902991D01*
X183950319Y-127796534D01*
X183923557Y-127746467D01*
X183906384Y-127689853D01*
X183872037Y-127576627D01*
X183854641Y-127400000D01*
X183872037Y-127223373D01*
X183923557Y-127053534D01*
X183923557Y-127053533D01*
X184007221Y-126897011D01*
X184007222Y-126897009D01*
X184036552Y-126861271D01*
X184119814Y-126759814D01*
X184221271Y-126676552D01*
X184257009Y-126647222D01*
X184274913Y-126637652D01*
X184413533Y-126563557D01*
X184470147Y-126546384D01*
X184583373Y-126512037D01*
X184664975Y-126504000D01*
X184715740Y-126499000D01*
X184804260Y-126499000D01*
X184855025Y-126504000D01*
X184855025Y-126504000D01*
G37*
G36*
X190741000Y-128301000D02*
G01*
X188939000Y-128301000D01*
X188939000Y-126499000D01*
X190741000Y-126499000D01*
X190741000Y-128301000D01*
X190741000Y-128301000D01*
G37*
G36*
X187395025Y-126504000D02*
G01*
X187476627Y-126512037D01*
X187589853Y-126546384D01*
X187646467Y-126563557D01*
X187785087Y-126637652D01*
X187802991Y-126647222D01*
X187838729Y-126676552D01*
X187940186Y-126759814D01*
X188023448Y-126861271D01*
X188052778Y-126897009D01*
X188052779Y-126897011D01*
X188136443Y-127053533D01*
X188136443Y-127053534D01*
X188187963Y-127223373D01*
X188205359Y-127400000D01*
X188187963Y-127576627D01*
X188153616Y-127689853D01*
X188136443Y-127746467D01*
X188109681Y-127796534D01*
X188052778Y-127902991D01*
X188023448Y-127938729D01*
X187940186Y-128040186D01*
X187838729Y-128123448D01*
X187802991Y-128152778D01*
X187802989Y-128152779D01*
X187646467Y-128236443D01*
X187589853Y-128253616D01*
X187476627Y-128287963D01*
X187410443Y-128294481D01*
X187344260Y-128301000D01*
X187255740Y-128301000D01*
X187189557Y-128294481D01*
X187123373Y-128287963D01*
X187010147Y-128253616D01*
X186953533Y-128236443D01*
X186797011Y-128152779D01*
X186797009Y-128152778D01*
X186761271Y-128123448D01*
X186659814Y-128040186D01*
X186576552Y-127938729D01*
X186547222Y-127902991D01*
X186490319Y-127796534D01*
X186463557Y-127746467D01*
X186446384Y-127689853D01*
X186412037Y-127576627D01*
X186394641Y-127400000D01*
X186412037Y-127223373D01*
X186463557Y-127053534D01*
X186463557Y-127053533D01*
X186547221Y-126897011D01*
X186547222Y-126897009D01*
X186576552Y-126861271D01*
X186659814Y-126759814D01*
X186761271Y-126676552D01*
X186797009Y-126647222D01*
X186814913Y-126637652D01*
X186953533Y-126563557D01*
X187010147Y-126546384D01*
X187123373Y-126512037D01*
X187204975Y-126504000D01*
X187255740Y-126499000D01*
X187344260Y-126499000D01*
X187395025Y-126504000D01*
X187395025Y-126504000D01*
G37*
G36*
X197575256Y-124291298D02*
G01*
X197681579Y-124312447D01*
X197982042Y-124436903D01*
X198245603Y-124613009D01*
X198252454Y-124617587D01*
X198482413Y-124847546D01*
X198482415Y-124847549D01*
X198663097Y-125117958D01*
X198735447Y-125292625D01*
X198787553Y-125418422D01*
X198851000Y-125737389D01*
X198851000Y-126062611D01*
X198842371Y-126105991D01*
X198787553Y-126381579D01*
X198663097Y-126682042D01*
X198515309Y-126903222D01*
X198482413Y-126952454D01*
X198252454Y-127182413D01*
X198252451Y-127182415D01*
X197982042Y-127363097D01*
X197681579Y-127487553D01*
X197575256Y-127508702D01*
X197362611Y-127551000D01*
X197037389Y-127551000D01*
X196824744Y-127508702D01*
X196718421Y-127487553D01*
X196417958Y-127363097D01*
X196147549Y-127182415D01*
X196147546Y-127182413D01*
X195917587Y-126952454D01*
X195884691Y-126903222D01*
X195736903Y-126682042D01*
X195612447Y-126381579D01*
X195557629Y-126105991D01*
X195549000Y-126062611D01*
X195549000Y-125737389D01*
X195612447Y-125418422D01*
X195664554Y-125292625D01*
X195736903Y-125117958D01*
X195917585Y-124847549D01*
X195917587Y-124847546D01*
X196147546Y-124617587D01*
X196154397Y-124613009D01*
X196417958Y-124436903D01*
X196718421Y-124312447D01*
X196824744Y-124291298D01*
X197037389Y-124249000D01*
X197362611Y-124249000D01*
X197575256Y-124291298D01*
X197575256Y-124291298D01*
G37*
G36*
X179752442Y-124708518D02*
G01*
X179818627Y-124715037D01*
X179931853Y-124749384D01*
X179988467Y-124766557D01*
X179994036Y-124769534D01*
X180144991Y-124850222D01*
X180180729Y-124879552D01*
X180282186Y-124962814D01*
X180365448Y-125064271D01*
X180394778Y-125100009D01*
X180394779Y-125100011D01*
X180478443Y-125256533D01*
X180478443Y-125256534D01*
X180529963Y-125426373D01*
X180547359Y-125603000D01*
X180529963Y-125779627D01*
X180502919Y-125868778D01*
X180478443Y-125949467D01*
X180476852Y-125952443D01*
X180394778Y-126105991D01*
X180365448Y-126141729D01*
X180282186Y-126243186D01*
X180180729Y-126326448D01*
X180144991Y-126355778D01*
X180144989Y-126355779D01*
X179988467Y-126439443D01*
X179931853Y-126456616D01*
X179818627Y-126490963D01*
X179752442Y-126497482D01*
X179686260Y-126504000D01*
X179597740Y-126504000D01*
X179531558Y-126497482D01*
X179465373Y-126490963D01*
X179352147Y-126456616D01*
X179295533Y-126439443D01*
X179139011Y-126355779D01*
X179139009Y-126355778D01*
X179103271Y-126326448D01*
X179001814Y-126243186D01*
X178918552Y-126141729D01*
X178889222Y-126105991D01*
X178807148Y-125952443D01*
X178805557Y-125949467D01*
X178781081Y-125868778D01*
X178754037Y-125779627D01*
X178736641Y-125603000D01*
X178754037Y-125426373D01*
X178805557Y-125256534D01*
X178805557Y-125256533D01*
X178889221Y-125100011D01*
X178889222Y-125100009D01*
X178918552Y-125064271D01*
X179001814Y-124962814D01*
X179103271Y-124879552D01*
X179139009Y-124850222D01*
X179289964Y-124769534D01*
X179295533Y-124766557D01*
X179352147Y-124749384D01*
X179465373Y-124715037D01*
X179531558Y-124708518D01*
X179597740Y-124702000D01*
X179686260Y-124702000D01*
X179752442Y-124708518D01*
X179752442Y-124708518D01*
G37*
G36*
X161654442Y-124708518D02*
G01*
X161720627Y-124715037D01*
X161833853Y-124749384D01*
X161890467Y-124766557D01*
X161896036Y-124769534D01*
X162046991Y-124850222D01*
X162082729Y-124879552D01*
X162184186Y-124962814D01*
X162267448Y-125064271D01*
X162296778Y-125100009D01*
X162296779Y-125100011D01*
X162380443Y-125256533D01*
X162380443Y-125256534D01*
X162431963Y-125426373D01*
X162449359Y-125603000D01*
X162431963Y-125779627D01*
X162404919Y-125868778D01*
X162380443Y-125949467D01*
X162378852Y-125952443D01*
X162296778Y-126105991D01*
X162267448Y-126141729D01*
X162184186Y-126243186D01*
X162082729Y-126326448D01*
X162046991Y-126355778D01*
X162046989Y-126355779D01*
X161890467Y-126439443D01*
X161833853Y-126456616D01*
X161720627Y-126490963D01*
X161654442Y-126497482D01*
X161588260Y-126504000D01*
X161499740Y-126504000D01*
X161433558Y-126497482D01*
X161367373Y-126490963D01*
X161254147Y-126456616D01*
X161197533Y-126439443D01*
X161041011Y-126355779D01*
X161041009Y-126355778D01*
X161005271Y-126326448D01*
X160903814Y-126243186D01*
X160820552Y-126141729D01*
X160791222Y-126105991D01*
X160709148Y-125952443D01*
X160707557Y-125949467D01*
X160683081Y-125868778D01*
X160656037Y-125779627D01*
X160638641Y-125603000D01*
X160656037Y-125426373D01*
X160707557Y-125256534D01*
X160707557Y-125256533D01*
X160791221Y-125100011D01*
X160791222Y-125100009D01*
X160820552Y-125064271D01*
X160903814Y-124962814D01*
X161005271Y-124879552D01*
X161041009Y-124850222D01*
X161191964Y-124769534D01*
X161197533Y-124766557D01*
X161254147Y-124749384D01*
X161367373Y-124715037D01*
X161433558Y-124708518D01*
X161499740Y-124702000D01*
X161588260Y-124702000D01*
X161654442Y-124708518D01*
X161654442Y-124708518D01*
G37*
G36*
X165274442Y-124708518D02*
G01*
X165340627Y-124715037D01*
X165453853Y-124749384D01*
X165510467Y-124766557D01*
X165516036Y-124769534D01*
X165666991Y-124850222D01*
X165702729Y-124879552D01*
X165804186Y-124962814D01*
X165887448Y-125064271D01*
X165916778Y-125100009D01*
X165916779Y-125100011D01*
X166000443Y-125256533D01*
X166000443Y-125256534D01*
X166051963Y-125426373D01*
X166069359Y-125603000D01*
X166051963Y-125779627D01*
X166024919Y-125868778D01*
X166000443Y-125949467D01*
X165998852Y-125952443D01*
X165916778Y-126105991D01*
X165887448Y-126141729D01*
X165804186Y-126243186D01*
X165702729Y-126326448D01*
X165666991Y-126355778D01*
X165666989Y-126355779D01*
X165510467Y-126439443D01*
X165453853Y-126456616D01*
X165340627Y-126490963D01*
X165274442Y-126497482D01*
X165208260Y-126504000D01*
X165119740Y-126504000D01*
X165053558Y-126497482D01*
X164987373Y-126490963D01*
X164874147Y-126456616D01*
X164817533Y-126439443D01*
X164661011Y-126355779D01*
X164661009Y-126355778D01*
X164625271Y-126326448D01*
X164523814Y-126243186D01*
X164440552Y-126141729D01*
X164411222Y-126105991D01*
X164329148Y-125952443D01*
X164327557Y-125949467D01*
X164303081Y-125868778D01*
X164276037Y-125779627D01*
X164258641Y-125603000D01*
X164276037Y-125426373D01*
X164327557Y-125256534D01*
X164327557Y-125256533D01*
X164411221Y-125100011D01*
X164411222Y-125100009D01*
X164440552Y-125064271D01*
X164523814Y-124962814D01*
X164625271Y-124879552D01*
X164661009Y-124850222D01*
X164811964Y-124769534D01*
X164817533Y-124766557D01*
X164874147Y-124749384D01*
X164987373Y-124715037D01*
X165053558Y-124708518D01*
X165119740Y-124702000D01*
X165208260Y-124702000D01*
X165274442Y-124708518D01*
X165274442Y-124708518D01*
G37*
G36*
X168893442Y-124708518D02*
G01*
X168959627Y-124715037D01*
X169072853Y-124749384D01*
X169129467Y-124766557D01*
X169135036Y-124769534D01*
X169285991Y-124850222D01*
X169321729Y-124879552D01*
X169423186Y-124962814D01*
X169506448Y-125064271D01*
X169535778Y-125100009D01*
X169535779Y-125100011D01*
X169619443Y-125256533D01*
X169619443Y-125256534D01*
X169670963Y-125426373D01*
X169688359Y-125603000D01*
X169670963Y-125779627D01*
X169643919Y-125868778D01*
X169619443Y-125949467D01*
X169617852Y-125952443D01*
X169535778Y-126105991D01*
X169506448Y-126141729D01*
X169423186Y-126243186D01*
X169321729Y-126326448D01*
X169285991Y-126355778D01*
X169285989Y-126355779D01*
X169129467Y-126439443D01*
X169072853Y-126456616D01*
X168959627Y-126490963D01*
X168893442Y-126497482D01*
X168827260Y-126504000D01*
X168738740Y-126504000D01*
X168672558Y-126497482D01*
X168606373Y-126490963D01*
X168493147Y-126456616D01*
X168436533Y-126439443D01*
X168280011Y-126355779D01*
X168280009Y-126355778D01*
X168244271Y-126326448D01*
X168142814Y-126243186D01*
X168059552Y-126141729D01*
X168030222Y-126105991D01*
X167948148Y-125952443D01*
X167946557Y-125949467D01*
X167922081Y-125868778D01*
X167895037Y-125779627D01*
X167877641Y-125603000D01*
X167895037Y-125426373D01*
X167946557Y-125256534D01*
X167946557Y-125256533D01*
X168030221Y-125100011D01*
X168030222Y-125100009D01*
X168059552Y-125064271D01*
X168142814Y-124962814D01*
X168244271Y-124879552D01*
X168280009Y-124850222D01*
X168430964Y-124769534D01*
X168436533Y-124766557D01*
X168493147Y-124749384D01*
X168606373Y-124715037D01*
X168672558Y-124708518D01*
X168738740Y-124702000D01*
X168827260Y-124702000D01*
X168893442Y-124708518D01*
X168893442Y-124708518D01*
G37*
G36*
X176132442Y-124708518D02*
G01*
X176198627Y-124715037D01*
X176311853Y-124749384D01*
X176368467Y-124766557D01*
X176374036Y-124769534D01*
X176524991Y-124850222D01*
X176560729Y-124879552D01*
X176662186Y-124962814D01*
X176745448Y-125064271D01*
X176774778Y-125100009D01*
X176774779Y-125100011D01*
X176858443Y-125256533D01*
X176858443Y-125256534D01*
X176909963Y-125426373D01*
X176927359Y-125603000D01*
X176909963Y-125779627D01*
X176882919Y-125868778D01*
X176858443Y-125949467D01*
X176856852Y-125952443D01*
X176774778Y-126105991D01*
X176745448Y-126141729D01*
X176662186Y-126243186D01*
X176560729Y-126326448D01*
X176524991Y-126355778D01*
X176524989Y-126355779D01*
X176368467Y-126439443D01*
X176311853Y-126456616D01*
X176198627Y-126490963D01*
X176132442Y-126497482D01*
X176066260Y-126504000D01*
X175977740Y-126504000D01*
X175911558Y-126497482D01*
X175845373Y-126490963D01*
X175732147Y-126456616D01*
X175675533Y-126439443D01*
X175519011Y-126355779D01*
X175519009Y-126355778D01*
X175483271Y-126326448D01*
X175381814Y-126243186D01*
X175298552Y-126141729D01*
X175269222Y-126105991D01*
X175187148Y-125952443D01*
X175185557Y-125949467D01*
X175161081Y-125868778D01*
X175134037Y-125779627D01*
X175116641Y-125603000D01*
X175134037Y-125426373D01*
X175185557Y-125256534D01*
X175185557Y-125256533D01*
X175269221Y-125100011D01*
X175269222Y-125100009D01*
X175298552Y-125064271D01*
X175381814Y-124962814D01*
X175483271Y-124879552D01*
X175519009Y-124850222D01*
X175669964Y-124769534D01*
X175675533Y-124766557D01*
X175732147Y-124749384D01*
X175845373Y-124715037D01*
X175911558Y-124708518D01*
X175977740Y-124702000D01*
X176066260Y-124702000D01*
X176132442Y-124708518D01*
X176132442Y-124708518D01*
G37*
G36*
X172512442Y-124708518D02*
G01*
X172578627Y-124715037D01*
X172691853Y-124749384D01*
X172748467Y-124766557D01*
X172754036Y-124769534D01*
X172904991Y-124850222D01*
X172940729Y-124879552D01*
X173042186Y-124962814D01*
X173125448Y-125064271D01*
X173154778Y-125100009D01*
X173154779Y-125100011D01*
X173238443Y-125256533D01*
X173238443Y-125256534D01*
X173289963Y-125426373D01*
X173307359Y-125603000D01*
X173289963Y-125779627D01*
X173262919Y-125868778D01*
X173238443Y-125949467D01*
X173236852Y-125952443D01*
X173154778Y-126105991D01*
X173125448Y-126141729D01*
X173042186Y-126243186D01*
X172940729Y-126326448D01*
X172904991Y-126355778D01*
X172904989Y-126355779D01*
X172748467Y-126439443D01*
X172691853Y-126456616D01*
X172578627Y-126490963D01*
X172512442Y-126497482D01*
X172446260Y-126504000D01*
X172357740Y-126504000D01*
X172291558Y-126497482D01*
X172225373Y-126490963D01*
X172112147Y-126456616D01*
X172055533Y-126439443D01*
X171899011Y-126355779D01*
X171899009Y-126355778D01*
X171863271Y-126326448D01*
X171761814Y-126243186D01*
X171678552Y-126141729D01*
X171649222Y-126105991D01*
X171567148Y-125952443D01*
X171565557Y-125949467D01*
X171541081Y-125868778D01*
X171514037Y-125779627D01*
X171496641Y-125603000D01*
X171514037Y-125426373D01*
X171565557Y-125256534D01*
X171565557Y-125256533D01*
X171649221Y-125100011D01*
X171649222Y-125100009D01*
X171678552Y-125064271D01*
X171761814Y-124962814D01*
X171863271Y-124879552D01*
X171899009Y-124850222D01*
X172049964Y-124769534D01*
X172055533Y-124766557D01*
X172112147Y-124749384D01*
X172225373Y-124715037D01*
X172291558Y-124708518D01*
X172357740Y-124702000D01*
X172446260Y-124702000D01*
X172512442Y-124708518D01*
X172512442Y-124708518D01*
G37*
G36*
X130717442Y-124221518D02*
G01*
X130783627Y-124228037D01*
X130896853Y-124262384D01*
X130953467Y-124279557D01*
X131092087Y-124353652D01*
X131109991Y-124363222D01*
X131145729Y-124392552D01*
X131247186Y-124475814D01*
X131330448Y-124577271D01*
X131359778Y-124613009D01*
X131359779Y-124613011D01*
X131443443Y-124769533D01*
X131443443Y-124769534D01*
X131494963Y-124939373D01*
X131512359Y-125116000D01*
X131494963Y-125292627D01*
X131460616Y-125405853D01*
X131443443Y-125462467D01*
X131369348Y-125601087D01*
X131359778Y-125618991D01*
X131330448Y-125654729D01*
X131247186Y-125756186D01*
X131145729Y-125839448D01*
X131109991Y-125868778D01*
X131109989Y-125868779D01*
X130953467Y-125952443D01*
X130896853Y-125969616D01*
X130783627Y-126003963D01*
X130717443Y-126010481D01*
X130651260Y-126017000D01*
X130562740Y-126017000D01*
X130496557Y-126010481D01*
X130430373Y-126003963D01*
X130317147Y-125969616D01*
X130260533Y-125952443D01*
X130104011Y-125868779D01*
X130104009Y-125868778D01*
X130068271Y-125839448D01*
X129966814Y-125756186D01*
X129883552Y-125654729D01*
X129854222Y-125618991D01*
X129844652Y-125601087D01*
X129770557Y-125462467D01*
X129753384Y-125405853D01*
X129719037Y-125292627D01*
X129701641Y-125116000D01*
X129719037Y-124939373D01*
X129770557Y-124769534D01*
X129770557Y-124769533D01*
X129854221Y-124613011D01*
X129854222Y-124613009D01*
X129883552Y-124577271D01*
X129966814Y-124475814D01*
X130068271Y-124392552D01*
X130104009Y-124363222D01*
X130121913Y-124353652D01*
X130260533Y-124279557D01*
X130317147Y-124262384D01*
X130430373Y-124228037D01*
X130496558Y-124221518D01*
X130562740Y-124215000D01*
X130651260Y-124215000D01*
X130717442Y-124221518D01*
X130717442Y-124221518D01*
G37*
G36*
X189910443Y-122505519D02*
G01*
X189976627Y-122512037D01*
X190089853Y-122546384D01*
X190146467Y-122563557D01*
X190285087Y-122637652D01*
X190302991Y-122647222D01*
X190338729Y-122676552D01*
X190440186Y-122759814D01*
X190496997Y-122829040D01*
X190552778Y-122897009D01*
X190552779Y-122897011D01*
X190636443Y-123053533D01*
X190636443Y-123053534D01*
X190687963Y-123223373D01*
X190705359Y-123400000D01*
X190687963Y-123576627D01*
X190670391Y-123634553D01*
X190636443Y-123746467D01*
X190562348Y-123885087D01*
X190552778Y-123902991D01*
X190523448Y-123938729D01*
X190440186Y-124040186D01*
X190338729Y-124123448D01*
X190302991Y-124152778D01*
X190302989Y-124152779D01*
X190146467Y-124236443D01*
X190105071Y-124249000D01*
X189976627Y-124287963D01*
X189910443Y-124294481D01*
X189844260Y-124301000D01*
X189755740Y-124301000D01*
X189689557Y-124294481D01*
X189623373Y-124287963D01*
X189494929Y-124249000D01*
X189453533Y-124236443D01*
X189297011Y-124152779D01*
X189297009Y-124152778D01*
X189261271Y-124123448D01*
X189159814Y-124040186D01*
X189076552Y-123938729D01*
X189047222Y-123902991D01*
X189037652Y-123885087D01*
X188963557Y-123746467D01*
X188929609Y-123634553D01*
X188912037Y-123576627D01*
X188894641Y-123400000D01*
X188912037Y-123223373D01*
X188963557Y-123053534D01*
X188963557Y-123053533D01*
X189047221Y-122897011D01*
X189047222Y-122897009D01*
X189103003Y-122829040D01*
X189159814Y-122759814D01*
X189261271Y-122676552D01*
X189297009Y-122647222D01*
X189314913Y-122637652D01*
X189453533Y-122563557D01*
X189510147Y-122546384D01*
X189623373Y-122512037D01*
X189689557Y-122505519D01*
X189755740Y-122499000D01*
X189844260Y-122499000D01*
X189910443Y-122505519D01*
X189910443Y-122505519D01*
G37*
G36*
X188161000Y-124301000D02*
G01*
X186359000Y-124301000D01*
X186359000Y-122499000D01*
X188161000Y-122499000D01*
X188161000Y-124301000D01*
X188161000Y-124301000D01*
G37*
G36*
X176923000Y-123964000D02*
G01*
X175121000Y-123964000D01*
X175121000Y-122162000D01*
X176923000Y-122162000D01*
X176923000Y-123964000D01*
X176923000Y-123964000D01*
G37*
G36*
X169684000Y-123964000D02*
G01*
X167882000Y-123964000D01*
X167882000Y-122162000D01*
X169684000Y-122162000D01*
X169684000Y-123964000D01*
X169684000Y-123964000D01*
G37*
G36*
X166065000Y-123964000D02*
G01*
X164263000Y-123964000D01*
X164263000Y-122162000D01*
X166065000Y-122162000D01*
X166065000Y-123964000D01*
X166065000Y-123964000D01*
G37*
G36*
X173303000Y-123964000D02*
G01*
X171501000Y-123964000D01*
X171501000Y-122162000D01*
X173303000Y-122162000D01*
X173303000Y-123964000D01*
X173303000Y-123964000D01*
G37*
G36*
X162445000Y-123964000D02*
G01*
X160643000Y-123964000D01*
X160643000Y-122162000D01*
X162445000Y-122162000D01*
X162445000Y-123964000D01*
X162445000Y-123964000D01*
G37*
G36*
X180543000Y-123964000D02*
G01*
X178741000Y-123964000D01*
X178741000Y-122162000D01*
X180543000Y-122162000D01*
X180543000Y-123964000D01*
X180543000Y-123964000D01*
G37*
G36*
X142742256Y-120438298D02*
G01*
X142848579Y-120459447D01*
X143149042Y-120583903D01*
X143415852Y-120762180D01*
X143419454Y-120764587D01*
X143649413Y-120994546D01*
X143649415Y-120994549D01*
X143830097Y-121264958D01*
X143954553Y-121565421D01*
X144018000Y-121884391D01*
X144018000Y-122209609D01*
X143954553Y-122528579D01*
X143830097Y-122829042D01*
X143680096Y-123053534D01*
X143649413Y-123099454D01*
X143419454Y-123329413D01*
X143419451Y-123329415D01*
X143149042Y-123510097D01*
X142848579Y-123634553D01*
X142742256Y-123655702D01*
X142529611Y-123698000D01*
X142204389Y-123698000D01*
X141991744Y-123655702D01*
X141885421Y-123634553D01*
X141584958Y-123510097D01*
X141314549Y-123329415D01*
X141314546Y-123329413D01*
X141084587Y-123099454D01*
X141053904Y-123053534D01*
X140903903Y-122829042D01*
X140779447Y-122528579D01*
X140716000Y-122209609D01*
X140716000Y-121884391D01*
X140779447Y-121565421D01*
X140903903Y-121264958D01*
X141084585Y-120994549D01*
X141084587Y-120994546D01*
X141314546Y-120764587D01*
X141318148Y-120762180D01*
X141584958Y-120583903D01*
X141885421Y-120459447D01*
X141991744Y-120438298D01*
X142204389Y-120396000D01*
X142529611Y-120396000D01*
X142742256Y-120438298D01*
X142742256Y-120438298D01*
G37*
G36*
X131508000Y-123477000D02*
G01*
X129706000Y-123477000D01*
X129706000Y-121675000D01*
X131508000Y-121675000D01*
X131508000Y-123477000D01*
X131508000Y-123477000D01*
G37*
G36*
X130690443Y-117573519D02*
G01*
X130756627Y-117580037D01*
X130869853Y-117614384D01*
X130926467Y-117631557D01*
X130987426Y-117664141D01*
X131082991Y-117715222D01*
X131118729Y-117744552D01*
X131220186Y-117827814D01*
X131303448Y-117929271D01*
X131332778Y-117965009D01*
X131332779Y-117965011D01*
X131416443Y-118121533D01*
X131416443Y-118121534D01*
X131467963Y-118291373D01*
X131485359Y-118468000D01*
X131467963Y-118644627D01*
X131433616Y-118757853D01*
X131416443Y-118814467D01*
X131342348Y-118953087D01*
X131332778Y-118970991D01*
X131303448Y-119006729D01*
X131220186Y-119108186D01*
X131118729Y-119191448D01*
X131082991Y-119220778D01*
X131082989Y-119220779D01*
X130926467Y-119304443D01*
X130869853Y-119321616D01*
X130756627Y-119355963D01*
X130690443Y-119362481D01*
X130624260Y-119369000D01*
X130535740Y-119369000D01*
X130469557Y-119362481D01*
X130403373Y-119355963D01*
X130290147Y-119321616D01*
X130233533Y-119304443D01*
X130077011Y-119220779D01*
X130077009Y-119220778D01*
X130041271Y-119191448D01*
X129939814Y-119108186D01*
X129856552Y-119006729D01*
X129827222Y-118970991D01*
X129817652Y-118953087D01*
X129743557Y-118814467D01*
X129726384Y-118757853D01*
X129692037Y-118644627D01*
X129674641Y-118468000D01*
X129692037Y-118291373D01*
X129743557Y-118121534D01*
X129743557Y-118121533D01*
X129827221Y-117965011D01*
X129827222Y-117965009D01*
X129856552Y-117929271D01*
X129939814Y-117827814D01*
X130041271Y-117744552D01*
X130077009Y-117715222D01*
X130172574Y-117664141D01*
X130233533Y-117631557D01*
X130290147Y-117614384D01*
X130403373Y-117580037D01*
X130469557Y-117573519D01*
X130535740Y-117567000D01*
X130624260Y-117567000D01*
X130690443Y-117573519D01*
X130690443Y-117573519D01*
G37*
G36*
X183119294Y-115998633D02*
G01*
X183291694Y-116050931D01*
X183291696Y-116050932D01*
X183450583Y-116135859D01*
X183589849Y-116250151D01*
X183704141Y-116389417D01*
X183789068Y-116548304D01*
X183789069Y-116548306D01*
X183841367Y-116720706D01*
X183859025Y-116900000D01*
X183841367Y-117079294D01*
X183789069Y-117251694D01*
X183789068Y-117251696D01*
X183704141Y-117410583D01*
X183589849Y-117549849D01*
X183450583Y-117664141D01*
X183355019Y-117715221D01*
X183291694Y-117749069D01*
X183119294Y-117801367D01*
X182984931Y-117814600D01*
X182895069Y-117814600D01*
X182760706Y-117801367D01*
X182588306Y-117749069D01*
X182524981Y-117715221D01*
X182429417Y-117664141D01*
X182290151Y-117549849D01*
X182175859Y-117410583D01*
X182090932Y-117251696D01*
X182090931Y-117251694D01*
X182038633Y-117079294D01*
X182020975Y-116900000D01*
X182038633Y-116720706D01*
X182090931Y-116548306D01*
X182090932Y-116548304D01*
X182175859Y-116389417D01*
X182290151Y-116250151D01*
X182429417Y-116135859D01*
X182588304Y-116050932D01*
X182588306Y-116050931D01*
X182760706Y-115998633D01*
X182895069Y-115985400D01*
X182984931Y-115985400D01*
X183119294Y-115998633D01*
X183119294Y-115998633D01*
G37*
G36*
X185659294Y-115998633D02*
G01*
X185831694Y-116050931D01*
X185831696Y-116050932D01*
X185990583Y-116135859D01*
X186129849Y-116250151D01*
X186244141Y-116389417D01*
X186329068Y-116548304D01*
X186329069Y-116548306D01*
X186381367Y-116720706D01*
X186399025Y-116900000D01*
X186381367Y-117079294D01*
X186329069Y-117251694D01*
X186329068Y-117251696D01*
X186244141Y-117410583D01*
X186129849Y-117549849D01*
X185990583Y-117664141D01*
X185895019Y-117715221D01*
X185831694Y-117749069D01*
X185659294Y-117801367D01*
X185524931Y-117814600D01*
X185435069Y-117814600D01*
X185300706Y-117801367D01*
X185128306Y-117749069D01*
X185064981Y-117715221D01*
X184969417Y-117664141D01*
X184830151Y-117549849D01*
X184715859Y-117410583D01*
X184630932Y-117251696D01*
X184630931Y-117251694D01*
X184578633Y-117079294D01*
X184560975Y-116900000D01*
X184578633Y-116720706D01*
X184630931Y-116548306D01*
X184630932Y-116548304D01*
X184715859Y-116389417D01*
X184830151Y-116250151D01*
X184969417Y-116135859D01*
X185128304Y-116050932D01*
X185128306Y-116050931D01*
X185300706Y-115998633D01*
X185435069Y-115985400D01*
X185524931Y-115985400D01*
X185659294Y-115998633D01*
X185659294Y-115998633D01*
G37*
G36*
X181314600Y-117814600D02*
G01*
X179485400Y-117814600D01*
X179485400Y-115985400D01*
X181314600Y-115985400D01*
X181314600Y-117814600D01*
X181314600Y-117814600D01*
G37*
G36*
X190739294Y-115998633D02*
G01*
X190911694Y-116050931D01*
X190911696Y-116050932D01*
X191070583Y-116135859D01*
X191209849Y-116250151D01*
X191324141Y-116389417D01*
X191409068Y-116548304D01*
X191409069Y-116548306D01*
X191461367Y-116720706D01*
X191479025Y-116900000D01*
X191461367Y-117079294D01*
X191409069Y-117251694D01*
X191409068Y-117251696D01*
X191324141Y-117410583D01*
X191209849Y-117549849D01*
X191070583Y-117664141D01*
X190975019Y-117715221D01*
X190911694Y-117749069D01*
X190739294Y-117801367D01*
X190604931Y-117814600D01*
X190515069Y-117814600D01*
X190380706Y-117801367D01*
X190208306Y-117749069D01*
X190144981Y-117715221D01*
X190049417Y-117664141D01*
X189910151Y-117549849D01*
X189795859Y-117410583D01*
X189710932Y-117251696D01*
X189710931Y-117251694D01*
X189658633Y-117079294D01*
X189640975Y-116900000D01*
X189658633Y-116720706D01*
X189710931Y-116548306D01*
X189710932Y-116548304D01*
X189795859Y-116389417D01*
X189910151Y-116250151D01*
X190049417Y-116135859D01*
X190208304Y-116050932D01*
X190208306Y-116050931D01*
X190380706Y-115998633D01*
X190515069Y-115985400D01*
X190604931Y-115985400D01*
X190739294Y-115998633D01*
X190739294Y-115998633D01*
G37*
G36*
X193279294Y-115998633D02*
G01*
X193451694Y-116050931D01*
X193451696Y-116050932D01*
X193610583Y-116135859D01*
X193749849Y-116250151D01*
X193864141Y-116389417D01*
X193949068Y-116548304D01*
X193949069Y-116548306D01*
X194001367Y-116720706D01*
X194019025Y-116900000D01*
X194001367Y-117079294D01*
X193949069Y-117251694D01*
X193949068Y-117251696D01*
X193864141Y-117410583D01*
X193749849Y-117549849D01*
X193610583Y-117664141D01*
X193515019Y-117715221D01*
X193451694Y-117749069D01*
X193279294Y-117801367D01*
X193144931Y-117814600D01*
X193055069Y-117814600D01*
X192920706Y-117801367D01*
X192748306Y-117749069D01*
X192684981Y-117715221D01*
X192589417Y-117664141D01*
X192450151Y-117549849D01*
X192335859Y-117410583D01*
X192250932Y-117251696D01*
X192250931Y-117251694D01*
X192198633Y-117079294D01*
X192180975Y-116900000D01*
X192198633Y-116720706D01*
X192250931Y-116548306D01*
X192250932Y-116548304D01*
X192335859Y-116389417D01*
X192450151Y-116250151D01*
X192589417Y-116135859D01*
X192748304Y-116050932D01*
X192748306Y-116050931D01*
X192920706Y-115998633D01*
X193055069Y-115985400D01*
X193144931Y-115985400D01*
X193279294Y-115998633D01*
X193279294Y-115998633D01*
G37*
G36*
X188199294Y-115998633D02*
G01*
X188371694Y-116050931D01*
X188371696Y-116050932D01*
X188530583Y-116135859D01*
X188669849Y-116250151D01*
X188784141Y-116389417D01*
X188869068Y-116548304D01*
X188869069Y-116548306D01*
X188921367Y-116720706D01*
X188939025Y-116900000D01*
X188921367Y-117079294D01*
X188869069Y-117251694D01*
X188869068Y-117251696D01*
X188784141Y-117410583D01*
X188669849Y-117549849D01*
X188530583Y-117664141D01*
X188435019Y-117715221D01*
X188371694Y-117749069D01*
X188199294Y-117801367D01*
X188064931Y-117814600D01*
X187975069Y-117814600D01*
X187840706Y-117801367D01*
X187668306Y-117749069D01*
X187604981Y-117715221D01*
X187509417Y-117664141D01*
X187370151Y-117549849D01*
X187255859Y-117410583D01*
X187170932Y-117251696D01*
X187170931Y-117251694D01*
X187118633Y-117079294D01*
X187100975Y-116900000D01*
X187118633Y-116720706D01*
X187170931Y-116548306D01*
X187170932Y-116548304D01*
X187255859Y-116389417D01*
X187370151Y-116250151D01*
X187509417Y-116135859D01*
X187668304Y-116050932D01*
X187668306Y-116050931D01*
X187840706Y-115998633D01*
X187975069Y-115985400D01*
X188064931Y-115985400D01*
X188199294Y-115998633D01*
X188199294Y-115998633D01*
G37*
G36*
X130690442Y-115033518D02*
G01*
X130756627Y-115040037D01*
X130869853Y-115074384D01*
X130926467Y-115091557D01*
X130987426Y-115124141D01*
X131082991Y-115175222D01*
X131118729Y-115204552D01*
X131220186Y-115287814D01*
X131303448Y-115389271D01*
X131332778Y-115425009D01*
X131332779Y-115425011D01*
X131416443Y-115581533D01*
X131416443Y-115581534D01*
X131467963Y-115751373D01*
X131485359Y-115928000D01*
X131467963Y-116104627D01*
X131433616Y-116217853D01*
X131416443Y-116274467D01*
X131355000Y-116389417D01*
X131332778Y-116430991D01*
X131303448Y-116466729D01*
X131220186Y-116568186D01*
X131118729Y-116651448D01*
X131082991Y-116680778D01*
X131082989Y-116680779D01*
X130926467Y-116764443D01*
X130869853Y-116781616D01*
X130756627Y-116815963D01*
X130690443Y-116822481D01*
X130624260Y-116829000D01*
X130535740Y-116829000D01*
X130469557Y-116822481D01*
X130403373Y-116815963D01*
X130290147Y-116781616D01*
X130233533Y-116764443D01*
X130077011Y-116680779D01*
X130077009Y-116680778D01*
X130041271Y-116651448D01*
X129939814Y-116568186D01*
X129856552Y-116466729D01*
X129827222Y-116430991D01*
X129805000Y-116389417D01*
X129743557Y-116274467D01*
X129726384Y-116217853D01*
X129692037Y-116104627D01*
X129674641Y-115928000D01*
X129692037Y-115751373D01*
X129743557Y-115581534D01*
X129743557Y-115581533D01*
X129827221Y-115425011D01*
X129827222Y-115425009D01*
X129856552Y-115389271D01*
X129939814Y-115287814D01*
X130041271Y-115204552D01*
X130077009Y-115175222D01*
X130172574Y-115124141D01*
X130233533Y-115091557D01*
X130290147Y-115074384D01*
X130403373Y-115040037D01*
X130469558Y-115033518D01*
X130535740Y-115027000D01*
X130624260Y-115027000D01*
X130690442Y-115033518D01*
X130690442Y-115033518D01*
G37*
G36*
X188199294Y-113458633D02*
G01*
X188371694Y-113510931D01*
X188371696Y-113510932D01*
X188530583Y-113595859D01*
X188530585Y-113595860D01*
X188530584Y-113595860D01*
X188669849Y-113710151D01*
X188784140Y-113849416D01*
X188869069Y-114008306D01*
X188921367Y-114180706D01*
X188939025Y-114360000D01*
X188921367Y-114539294D01*
X188869069Y-114711694D01*
X188869068Y-114711696D01*
X188784141Y-114870583D01*
X188669849Y-115009849D01*
X188530583Y-115124141D01*
X188435019Y-115175221D01*
X188371694Y-115209069D01*
X188199294Y-115261367D01*
X188064931Y-115274600D01*
X187975069Y-115274600D01*
X187840706Y-115261367D01*
X187668306Y-115209069D01*
X187604981Y-115175221D01*
X187509417Y-115124141D01*
X187370151Y-115009849D01*
X187255859Y-114870583D01*
X187170932Y-114711696D01*
X187170931Y-114711694D01*
X187118633Y-114539294D01*
X187100975Y-114360000D01*
X187118633Y-114180706D01*
X187170931Y-114008306D01*
X187255860Y-113849416D01*
X187370151Y-113710151D01*
X187509416Y-113595860D01*
X187509415Y-113595860D01*
X187509417Y-113595859D01*
X187668304Y-113510932D01*
X187668306Y-113510931D01*
X187840706Y-113458633D01*
X187975069Y-113445400D01*
X188064931Y-113445400D01*
X188199294Y-113458633D01*
X188199294Y-113458633D01*
G37*
G36*
X193279294Y-113458633D02*
G01*
X193451694Y-113510931D01*
X193451696Y-113510932D01*
X193610583Y-113595859D01*
X193610585Y-113595860D01*
X193610584Y-113595860D01*
X193749849Y-113710151D01*
X193864140Y-113849416D01*
X193949069Y-114008306D01*
X194001367Y-114180706D01*
X194019025Y-114360000D01*
X194001367Y-114539294D01*
X193949069Y-114711694D01*
X193949068Y-114711696D01*
X193864141Y-114870583D01*
X193749849Y-115009849D01*
X193610583Y-115124141D01*
X193515019Y-115175221D01*
X193451694Y-115209069D01*
X193279294Y-115261367D01*
X193144931Y-115274600D01*
X193055069Y-115274600D01*
X192920706Y-115261367D01*
X192748306Y-115209069D01*
X192684981Y-115175221D01*
X192589417Y-115124141D01*
X192450151Y-115009849D01*
X192335859Y-114870583D01*
X192250932Y-114711696D01*
X192250931Y-114711694D01*
X192198633Y-114539294D01*
X192180975Y-114360000D01*
X192198633Y-114180706D01*
X192250931Y-114008306D01*
X192335860Y-113849416D01*
X192450151Y-113710151D01*
X192589416Y-113595860D01*
X192589415Y-113595860D01*
X192589417Y-113595859D01*
X192748304Y-113510932D01*
X192748306Y-113510931D01*
X192920706Y-113458633D01*
X193055069Y-113445400D01*
X193144931Y-113445400D01*
X193279294Y-113458633D01*
X193279294Y-113458633D01*
G37*
G36*
X190739294Y-113458633D02*
G01*
X190911694Y-113510931D01*
X190911696Y-113510932D01*
X191070583Y-113595859D01*
X191070585Y-113595860D01*
X191070584Y-113595860D01*
X191209849Y-113710151D01*
X191324140Y-113849416D01*
X191409069Y-114008306D01*
X191461367Y-114180706D01*
X191479025Y-114360000D01*
X191461367Y-114539294D01*
X191409069Y-114711694D01*
X191409068Y-114711696D01*
X191324141Y-114870583D01*
X191209849Y-115009849D01*
X191070583Y-115124141D01*
X190975019Y-115175221D01*
X190911694Y-115209069D01*
X190739294Y-115261367D01*
X190604931Y-115274600D01*
X190515069Y-115274600D01*
X190380706Y-115261367D01*
X190208306Y-115209069D01*
X190144981Y-115175221D01*
X190049417Y-115124141D01*
X189910151Y-115009849D01*
X189795859Y-114870583D01*
X189710932Y-114711696D01*
X189710931Y-114711694D01*
X189658633Y-114539294D01*
X189640975Y-114360000D01*
X189658633Y-114180706D01*
X189710931Y-114008306D01*
X189795860Y-113849416D01*
X189910151Y-113710151D01*
X190049416Y-113595860D01*
X190049415Y-113595860D01*
X190049417Y-113595859D01*
X190208304Y-113510932D01*
X190208306Y-113510931D01*
X190380706Y-113458633D01*
X190515069Y-113445400D01*
X190604931Y-113445400D01*
X190739294Y-113458633D01*
X190739294Y-113458633D01*
G37*
G36*
X180579294Y-113458633D02*
G01*
X180751694Y-113510931D01*
X180751696Y-113510932D01*
X180910583Y-113595859D01*
X180910585Y-113595860D01*
X180910584Y-113595860D01*
X181049849Y-113710151D01*
X181164140Y-113849416D01*
X181249069Y-114008306D01*
X181301367Y-114180706D01*
X181319025Y-114360000D01*
X181301367Y-114539294D01*
X181249069Y-114711694D01*
X181249068Y-114711696D01*
X181164141Y-114870583D01*
X181049849Y-115009849D01*
X180910583Y-115124141D01*
X180815019Y-115175221D01*
X180751694Y-115209069D01*
X180579294Y-115261367D01*
X180444931Y-115274600D01*
X180355069Y-115274600D01*
X180220706Y-115261367D01*
X180048306Y-115209069D01*
X179984981Y-115175221D01*
X179889417Y-115124141D01*
X179750151Y-115009849D01*
X179635859Y-114870583D01*
X179550932Y-114711696D01*
X179550931Y-114711694D01*
X179498633Y-114539294D01*
X179480975Y-114360000D01*
X179498633Y-114180706D01*
X179550931Y-114008306D01*
X179635860Y-113849416D01*
X179750151Y-113710151D01*
X179889416Y-113595860D01*
X179889415Y-113595860D01*
X179889417Y-113595859D01*
X180048304Y-113510932D01*
X180048306Y-113510931D01*
X180220706Y-113458633D01*
X180355069Y-113445400D01*
X180444931Y-113445400D01*
X180579294Y-113458633D01*
X180579294Y-113458633D01*
G37*
G36*
X183119294Y-113458633D02*
G01*
X183291694Y-113510931D01*
X183291696Y-113510932D01*
X183450583Y-113595859D01*
X183450585Y-113595860D01*
X183450584Y-113595860D01*
X183589849Y-113710151D01*
X183704140Y-113849416D01*
X183789069Y-114008306D01*
X183841367Y-114180706D01*
X183859025Y-114360000D01*
X183841367Y-114539294D01*
X183789069Y-114711694D01*
X183789068Y-114711696D01*
X183704141Y-114870583D01*
X183589849Y-115009849D01*
X183450583Y-115124141D01*
X183355019Y-115175221D01*
X183291694Y-115209069D01*
X183119294Y-115261367D01*
X182984931Y-115274600D01*
X182895069Y-115274600D01*
X182760706Y-115261367D01*
X182588306Y-115209069D01*
X182524981Y-115175221D01*
X182429417Y-115124141D01*
X182290151Y-115009849D01*
X182175859Y-114870583D01*
X182090932Y-114711696D01*
X182090931Y-114711694D01*
X182038633Y-114539294D01*
X182020975Y-114360000D01*
X182038633Y-114180706D01*
X182090931Y-114008306D01*
X182175860Y-113849416D01*
X182290151Y-113710151D01*
X182429416Y-113595860D01*
X182429415Y-113595860D01*
X182429417Y-113595859D01*
X182588304Y-113510932D01*
X182588306Y-113510931D01*
X182760706Y-113458633D01*
X182895069Y-113445400D01*
X182984931Y-113445400D01*
X183119294Y-113458633D01*
X183119294Y-113458633D01*
G37*
G36*
X185659294Y-113458633D02*
G01*
X185831694Y-113510931D01*
X185831696Y-113510932D01*
X185990583Y-113595859D01*
X185990585Y-113595860D01*
X185990584Y-113595860D01*
X186129849Y-113710151D01*
X186244140Y-113849416D01*
X186329069Y-114008306D01*
X186381367Y-114180706D01*
X186399025Y-114360000D01*
X186381367Y-114539294D01*
X186329069Y-114711694D01*
X186329068Y-114711696D01*
X186244141Y-114870583D01*
X186129849Y-115009849D01*
X185990583Y-115124141D01*
X185895019Y-115175221D01*
X185831694Y-115209069D01*
X185659294Y-115261367D01*
X185524931Y-115274600D01*
X185435069Y-115274600D01*
X185300706Y-115261367D01*
X185128306Y-115209069D01*
X185064981Y-115175221D01*
X184969417Y-115124141D01*
X184830151Y-115009849D01*
X184715859Y-114870583D01*
X184630932Y-114711696D01*
X184630931Y-114711694D01*
X184578633Y-114539294D01*
X184560975Y-114360000D01*
X184578633Y-114180706D01*
X184630931Y-114008306D01*
X184715860Y-113849416D01*
X184830151Y-113710151D01*
X184969416Y-113595860D01*
X184969415Y-113595860D01*
X184969417Y-113595859D01*
X185128304Y-113510932D01*
X185128306Y-113510931D01*
X185300706Y-113458633D01*
X185435069Y-113445400D01*
X185524931Y-113445400D01*
X185659294Y-113458633D01*
X185659294Y-113458633D01*
G37*
G36*
X131481000Y-114289000D02*
G01*
X129679000Y-114289000D01*
X129679000Y-112487000D01*
X131481000Y-112487000D01*
X131481000Y-114289000D01*
X131481000Y-114289000D01*
G37*
G36*
X130678442Y-108366518D02*
G01*
X130744627Y-108373037D01*
X130857853Y-108407384D01*
X130914467Y-108424557D01*
X131053087Y-108498652D01*
X131070991Y-108508222D01*
X131106729Y-108537552D01*
X131208186Y-108620814D01*
X131291448Y-108722271D01*
X131320778Y-108758009D01*
X131320779Y-108758011D01*
X131404443Y-108914533D01*
X131404443Y-108914534D01*
X131455963Y-109084373D01*
X131473359Y-109261000D01*
X131455963Y-109437627D01*
X131421616Y-109550853D01*
X131404443Y-109607467D01*
X131330348Y-109746087D01*
X131320778Y-109763991D01*
X131291448Y-109799729D01*
X131208186Y-109901186D01*
X131106729Y-109984448D01*
X131070991Y-110013778D01*
X131070989Y-110013779D01*
X130914467Y-110097443D01*
X130857853Y-110114616D01*
X130744627Y-110148963D01*
X130678443Y-110155481D01*
X130612260Y-110162000D01*
X130523740Y-110162000D01*
X130457557Y-110155481D01*
X130391373Y-110148963D01*
X130278147Y-110114616D01*
X130221533Y-110097443D01*
X130065011Y-110013779D01*
X130065009Y-110013778D01*
X130029271Y-109984448D01*
X129927814Y-109901186D01*
X129844552Y-109799729D01*
X129815222Y-109763991D01*
X129805652Y-109746087D01*
X129731557Y-109607467D01*
X129714384Y-109550853D01*
X129680037Y-109437627D01*
X129662641Y-109261000D01*
X129680037Y-109084373D01*
X129731557Y-108914534D01*
X129731557Y-108914533D01*
X129815221Y-108758011D01*
X129815222Y-108758009D01*
X129844552Y-108722271D01*
X129927814Y-108620814D01*
X130029271Y-108537552D01*
X130065009Y-108508222D01*
X130082913Y-108498652D01*
X130221533Y-108424557D01*
X130278147Y-108407384D01*
X130391373Y-108373037D01*
X130457558Y-108366518D01*
X130523740Y-108360000D01*
X130612260Y-108360000D01*
X130678442Y-108366518D01*
X130678442Y-108366518D01*
G37*
G36*
X130678442Y-105826518D02*
G01*
X130744627Y-105833037D01*
X130857853Y-105867384D01*
X130914467Y-105884557D01*
X131053087Y-105958652D01*
X131070991Y-105968222D01*
X131106729Y-105997552D01*
X131208186Y-106080814D01*
X131291448Y-106182271D01*
X131320778Y-106218009D01*
X131320779Y-106218011D01*
X131404443Y-106374533D01*
X131404443Y-106374534D01*
X131455963Y-106544373D01*
X131473359Y-106721000D01*
X131455963Y-106897627D01*
X131421616Y-107010853D01*
X131404443Y-107067467D01*
X131330348Y-107206087D01*
X131320778Y-107223991D01*
X131291448Y-107259729D01*
X131208186Y-107361186D01*
X131106729Y-107444448D01*
X131070991Y-107473778D01*
X131070989Y-107473779D01*
X130914467Y-107557443D01*
X130857853Y-107574616D01*
X130744627Y-107608963D01*
X130678442Y-107615482D01*
X130612260Y-107622000D01*
X130523740Y-107622000D01*
X130457558Y-107615482D01*
X130391373Y-107608963D01*
X130278147Y-107574616D01*
X130221533Y-107557443D01*
X130065011Y-107473779D01*
X130065009Y-107473778D01*
X130029271Y-107444448D01*
X129927814Y-107361186D01*
X129844552Y-107259729D01*
X129815222Y-107223991D01*
X129805652Y-107206087D01*
X129731557Y-107067467D01*
X129714384Y-107010853D01*
X129680037Y-106897627D01*
X129662641Y-106721000D01*
X129680037Y-106544373D01*
X129731557Y-106374534D01*
X129731557Y-106374533D01*
X129815221Y-106218011D01*
X129815222Y-106218009D01*
X129844552Y-106182271D01*
X129927814Y-106080814D01*
X130029271Y-105997552D01*
X130065009Y-105968222D01*
X130082913Y-105958652D01*
X130221533Y-105884557D01*
X130278147Y-105867384D01*
X130391373Y-105833037D01*
X130457558Y-105826518D01*
X130523740Y-105820000D01*
X130612260Y-105820000D01*
X130678442Y-105826518D01*
X130678442Y-105826518D01*
G37*
G36*
X169401000Y-105401000D02*
G01*
X167599000Y-105401000D01*
X167599000Y-103599000D01*
X169401000Y-103599000D01*
X169401000Y-105401000D01*
X169401000Y-105401000D01*
G37*
G36*
X171150443Y-103605519D02*
G01*
X171216627Y-103612037D01*
X171329853Y-103646384D01*
X171386467Y-103663557D01*
X171525087Y-103737652D01*
X171542991Y-103747222D01*
X171578729Y-103776552D01*
X171680186Y-103859814D01*
X171763448Y-103961271D01*
X171792778Y-103997009D01*
X171792779Y-103997011D01*
X171876443Y-104153533D01*
X171876443Y-104153534D01*
X171927963Y-104323373D01*
X171945359Y-104500000D01*
X171927963Y-104676627D01*
X171893616Y-104789853D01*
X171876443Y-104846467D01*
X171802348Y-104985087D01*
X171792778Y-105002991D01*
X171763448Y-105038729D01*
X171680186Y-105140186D01*
X171578729Y-105223448D01*
X171542991Y-105252778D01*
X171542989Y-105252779D01*
X171386467Y-105336443D01*
X171329853Y-105353616D01*
X171216627Y-105387963D01*
X171150443Y-105394481D01*
X171084260Y-105401000D01*
X170995740Y-105401000D01*
X170929557Y-105394481D01*
X170863373Y-105387963D01*
X170750147Y-105353616D01*
X170693533Y-105336443D01*
X170537011Y-105252779D01*
X170537009Y-105252778D01*
X170501271Y-105223448D01*
X170399814Y-105140186D01*
X170316552Y-105038729D01*
X170287222Y-105002991D01*
X170277652Y-104985087D01*
X170203557Y-104846467D01*
X170186384Y-104789853D01*
X170152037Y-104676627D01*
X170134641Y-104500000D01*
X170152037Y-104323373D01*
X170203557Y-104153534D01*
X170203557Y-104153533D01*
X170287221Y-103997011D01*
X170287222Y-103997009D01*
X170316552Y-103961271D01*
X170399814Y-103859814D01*
X170501271Y-103776552D01*
X170537009Y-103747222D01*
X170554913Y-103737652D01*
X170693533Y-103663557D01*
X170750147Y-103646384D01*
X170863373Y-103612037D01*
X170929558Y-103605518D01*
X170995740Y-103599000D01*
X171084260Y-103599000D01*
X171150443Y-103605519D01*
X171150443Y-103605519D01*
G37*
G36*
X173690443Y-103605519D02*
G01*
X173756627Y-103612037D01*
X173869853Y-103646384D01*
X173926467Y-103663557D01*
X174065087Y-103737652D01*
X174082991Y-103747222D01*
X174118729Y-103776552D01*
X174220186Y-103859814D01*
X174303448Y-103961271D01*
X174332778Y-103997009D01*
X174332779Y-103997011D01*
X174416443Y-104153533D01*
X174416443Y-104153534D01*
X174467963Y-104323373D01*
X174485359Y-104500000D01*
X174467963Y-104676627D01*
X174433616Y-104789853D01*
X174416443Y-104846467D01*
X174342348Y-104985087D01*
X174332778Y-105002991D01*
X174303448Y-105038729D01*
X174220186Y-105140186D01*
X174118729Y-105223448D01*
X174082991Y-105252778D01*
X174082989Y-105252779D01*
X173926467Y-105336443D01*
X173869853Y-105353616D01*
X173756627Y-105387963D01*
X173690443Y-105394481D01*
X173624260Y-105401000D01*
X173535740Y-105401000D01*
X173469557Y-105394481D01*
X173403373Y-105387963D01*
X173290147Y-105353616D01*
X173233533Y-105336443D01*
X173077011Y-105252779D01*
X173077009Y-105252778D01*
X173041271Y-105223448D01*
X172939814Y-105140186D01*
X172856552Y-105038729D01*
X172827222Y-105002991D01*
X172817652Y-104985087D01*
X172743557Y-104846467D01*
X172726384Y-104789853D01*
X172692037Y-104676627D01*
X172674641Y-104500000D01*
X172692037Y-104323373D01*
X172743557Y-104153534D01*
X172743557Y-104153533D01*
X172827221Y-103997011D01*
X172827222Y-103997009D01*
X172856552Y-103961271D01*
X172939814Y-103859814D01*
X173041271Y-103776552D01*
X173077009Y-103747222D01*
X173094913Y-103737652D01*
X173233533Y-103663557D01*
X173290147Y-103646384D01*
X173403373Y-103612037D01*
X173469558Y-103605518D01*
X173535740Y-103599000D01*
X173624260Y-103599000D01*
X173690443Y-103605519D01*
X173690443Y-103605519D01*
G37*
G36*
X176230443Y-103605519D02*
G01*
X176296627Y-103612037D01*
X176409853Y-103646384D01*
X176466467Y-103663557D01*
X176605087Y-103737652D01*
X176622991Y-103747222D01*
X176658729Y-103776552D01*
X176760186Y-103859814D01*
X176843448Y-103961271D01*
X176872778Y-103997009D01*
X176872779Y-103997011D01*
X176956443Y-104153533D01*
X176956443Y-104153534D01*
X177007963Y-104323373D01*
X177025359Y-104500000D01*
X177007963Y-104676627D01*
X176973616Y-104789853D01*
X176956443Y-104846467D01*
X176882348Y-104985087D01*
X176872778Y-105002991D01*
X176843448Y-105038729D01*
X176760186Y-105140186D01*
X176658729Y-105223448D01*
X176622991Y-105252778D01*
X176622989Y-105252779D01*
X176466467Y-105336443D01*
X176409853Y-105353616D01*
X176296627Y-105387963D01*
X176230443Y-105394481D01*
X176164260Y-105401000D01*
X176075740Y-105401000D01*
X176009557Y-105394481D01*
X175943373Y-105387963D01*
X175830147Y-105353616D01*
X175773533Y-105336443D01*
X175617011Y-105252779D01*
X175617009Y-105252778D01*
X175581271Y-105223448D01*
X175479814Y-105140186D01*
X175396552Y-105038729D01*
X175367222Y-105002991D01*
X175357652Y-104985087D01*
X175283557Y-104846467D01*
X175266384Y-104789853D01*
X175232037Y-104676627D01*
X175214641Y-104500000D01*
X175232037Y-104323373D01*
X175283557Y-104153534D01*
X175283557Y-104153533D01*
X175367221Y-103997011D01*
X175367222Y-103997009D01*
X175396552Y-103961271D01*
X175479814Y-103859814D01*
X175581271Y-103776552D01*
X175617009Y-103747222D01*
X175634913Y-103737652D01*
X175773533Y-103663557D01*
X175830147Y-103646384D01*
X175943373Y-103612037D01*
X176009558Y-103605518D01*
X176075740Y-103599000D01*
X176164260Y-103599000D01*
X176230443Y-103605519D01*
X176230443Y-103605519D01*
G37*
G36*
X178770443Y-103605519D02*
G01*
X178836627Y-103612037D01*
X178949853Y-103646384D01*
X179006467Y-103663557D01*
X179145087Y-103737652D01*
X179162991Y-103747222D01*
X179198729Y-103776552D01*
X179300186Y-103859814D01*
X179383448Y-103961271D01*
X179412778Y-103997009D01*
X179412779Y-103997011D01*
X179496443Y-104153533D01*
X179496443Y-104153534D01*
X179547963Y-104323373D01*
X179565359Y-104500000D01*
X179547963Y-104676627D01*
X179513616Y-104789853D01*
X179496443Y-104846467D01*
X179422348Y-104985087D01*
X179412778Y-105002991D01*
X179383448Y-105038729D01*
X179300186Y-105140186D01*
X179198729Y-105223448D01*
X179162991Y-105252778D01*
X179162989Y-105252779D01*
X179006467Y-105336443D01*
X178949853Y-105353616D01*
X178836627Y-105387963D01*
X178770443Y-105394481D01*
X178704260Y-105401000D01*
X178615740Y-105401000D01*
X178549557Y-105394481D01*
X178483373Y-105387963D01*
X178370147Y-105353616D01*
X178313533Y-105336443D01*
X178157011Y-105252779D01*
X178157009Y-105252778D01*
X178121271Y-105223448D01*
X178019814Y-105140186D01*
X177936552Y-105038729D01*
X177907222Y-105002991D01*
X177897652Y-104985087D01*
X177823557Y-104846467D01*
X177806384Y-104789853D01*
X177772037Y-104676627D01*
X177754641Y-104500000D01*
X177772037Y-104323373D01*
X177823557Y-104153534D01*
X177823557Y-104153533D01*
X177907221Y-103997011D01*
X177907222Y-103997009D01*
X177936552Y-103961271D01*
X178019814Y-103859814D01*
X178121271Y-103776552D01*
X178157009Y-103747222D01*
X178174913Y-103737652D01*
X178313533Y-103663557D01*
X178370147Y-103646384D01*
X178483373Y-103612037D01*
X178549558Y-103605518D01*
X178615740Y-103599000D01*
X178704260Y-103599000D01*
X178770443Y-103605519D01*
X178770443Y-103605519D01*
G37*
G36*
X131469000Y-105082000D02*
G01*
X129667000Y-105082000D01*
X129667000Y-103280000D01*
X131469000Y-103280000D01*
X131469000Y-105082000D01*
X131469000Y-105082000D01*
G37*
G36*
X171150443Y-99905519D02*
G01*
X171216627Y-99912037D01*
X171329853Y-99946384D01*
X171386467Y-99963557D01*
X171525087Y-100037652D01*
X171542991Y-100047222D01*
X171578729Y-100076552D01*
X171680186Y-100159814D01*
X171763448Y-100261271D01*
X171792778Y-100297009D01*
X171792779Y-100297011D01*
X171876443Y-100453533D01*
X171876443Y-100453534D01*
X171927963Y-100623373D01*
X171945359Y-100800000D01*
X171927963Y-100976627D01*
X171893616Y-101089853D01*
X171876443Y-101146467D01*
X171802348Y-101285087D01*
X171792778Y-101302991D01*
X171763448Y-101338729D01*
X171680186Y-101440186D01*
X171578729Y-101523448D01*
X171542991Y-101552778D01*
X171542989Y-101552779D01*
X171386467Y-101636443D01*
X171329853Y-101653616D01*
X171216627Y-101687963D01*
X171150442Y-101694482D01*
X171084260Y-101701000D01*
X170995740Y-101701000D01*
X170929557Y-101694481D01*
X170863373Y-101687963D01*
X170750147Y-101653616D01*
X170693533Y-101636443D01*
X170537011Y-101552779D01*
X170537009Y-101552778D01*
X170501271Y-101523448D01*
X170399814Y-101440186D01*
X170316552Y-101338729D01*
X170287222Y-101302991D01*
X170277652Y-101285087D01*
X170203557Y-101146467D01*
X170186384Y-101089853D01*
X170152037Y-100976627D01*
X170134641Y-100800000D01*
X170152037Y-100623373D01*
X170203557Y-100453534D01*
X170203557Y-100453533D01*
X170287221Y-100297011D01*
X170287222Y-100297009D01*
X170316552Y-100261271D01*
X170399814Y-100159814D01*
X170501271Y-100076552D01*
X170537009Y-100047222D01*
X170554913Y-100037652D01*
X170693533Y-99963557D01*
X170750147Y-99946384D01*
X170863373Y-99912037D01*
X170929557Y-99905519D01*
X170995740Y-99899000D01*
X171084260Y-99899000D01*
X171150443Y-99905519D01*
X171150443Y-99905519D01*
G37*
G36*
X169401000Y-101701000D02*
G01*
X167599000Y-101701000D01*
X167599000Y-99899000D01*
X169401000Y-99899000D01*
X169401000Y-101701000D01*
X169401000Y-101701000D01*
G37*
G36*
X181310443Y-99905519D02*
G01*
X181376627Y-99912037D01*
X181489853Y-99946384D01*
X181546467Y-99963557D01*
X181685087Y-100037652D01*
X181702991Y-100047222D01*
X181738729Y-100076552D01*
X181840186Y-100159814D01*
X181923448Y-100261271D01*
X181952778Y-100297009D01*
X181952779Y-100297011D01*
X182036443Y-100453533D01*
X182036443Y-100453534D01*
X182087963Y-100623373D01*
X182105359Y-100800000D01*
X182087963Y-100976627D01*
X182053616Y-101089853D01*
X182036443Y-101146467D01*
X181962348Y-101285087D01*
X181952778Y-101302991D01*
X181923448Y-101338729D01*
X181840186Y-101440186D01*
X181738729Y-101523448D01*
X181702991Y-101552778D01*
X181702989Y-101552779D01*
X181546467Y-101636443D01*
X181489853Y-101653616D01*
X181376627Y-101687963D01*
X181310442Y-101694482D01*
X181244260Y-101701000D01*
X181155740Y-101701000D01*
X181089557Y-101694481D01*
X181023373Y-101687963D01*
X180910147Y-101653616D01*
X180853533Y-101636443D01*
X180697011Y-101552779D01*
X180697009Y-101552778D01*
X180661271Y-101523448D01*
X180559814Y-101440186D01*
X180476552Y-101338729D01*
X180447222Y-101302991D01*
X180437652Y-101285087D01*
X180363557Y-101146467D01*
X180346384Y-101089853D01*
X180312037Y-100976627D01*
X180294641Y-100800000D01*
X180312037Y-100623373D01*
X180363557Y-100453534D01*
X180363557Y-100453533D01*
X180447221Y-100297011D01*
X180447222Y-100297009D01*
X180476552Y-100261271D01*
X180559814Y-100159814D01*
X180661271Y-100076552D01*
X180697009Y-100047222D01*
X180714913Y-100037652D01*
X180853533Y-99963557D01*
X180910147Y-99946384D01*
X181023373Y-99912037D01*
X181089557Y-99905519D01*
X181155740Y-99899000D01*
X181244260Y-99899000D01*
X181310443Y-99905519D01*
X181310443Y-99905519D01*
G37*
G36*
X176230443Y-99905519D02*
G01*
X176296627Y-99912037D01*
X176409853Y-99946384D01*
X176466467Y-99963557D01*
X176605087Y-100037652D01*
X176622991Y-100047222D01*
X176658729Y-100076552D01*
X176760186Y-100159814D01*
X176843448Y-100261271D01*
X176872778Y-100297009D01*
X176872779Y-100297011D01*
X176956443Y-100453533D01*
X176956443Y-100453534D01*
X177007963Y-100623373D01*
X177025359Y-100800000D01*
X177007963Y-100976627D01*
X176973616Y-101089853D01*
X176956443Y-101146467D01*
X176882348Y-101285087D01*
X176872778Y-101302991D01*
X176843448Y-101338729D01*
X176760186Y-101440186D01*
X176658729Y-101523448D01*
X176622991Y-101552778D01*
X176622989Y-101552779D01*
X176466467Y-101636443D01*
X176409853Y-101653616D01*
X176296627Y-101687963D01*
X176230442Y-101694482D01*
X176164260Y-101701000D01*
X176075740Y-101701000D01*
X176009557Y-101694481D01*
X175943373Y-101687963D01*
X175830147Y-101653616D01*
X175773533Y-101636443D01*
X175617011Y-101552779D01*
X175617009Y-101552778D01*
X175581271Y-101523448D01*
X175479814Y-101440186D01*
X175396552Y-101338729D01*
X175367222Y-101302991D01*
X175357652Y-101285087D01*
X175283557Y-101146467D01*
X175266384Y-101089853D01*
X175232037Y-100976627D01*
X175214641Y-100800000D01*
X175232037Y-100623373D01*
X175283557Y-100453534D01*
X175283557Y-100453533D01*
X175367221Y-100297011D01*
X175367222Y-100297009D01*
X175396552Y-100261271D01*
X175479814Y-100159814D01*
X175581271Y-100076552D01*
X175617009Y-100047222D01*
X175634913Y-100037652D01*
X175773533Y-99963557D01*
X175830147Y-99946384D01*
X175943373Y-99912037D01*
X176009557Y-99905519D01*
X176075740Y-99899000D01*
X176164260Y-99899000D01*
X176230443Y-99905519D01*
X176230443Y-99905519D01*
G37*
G36*
X173690443Y-99905519D02*
G01*
X173756627Y-99912037D01*
X173869853Y-99946384D01*
X173926467Y-99963557D01*
X174065087Y-100037652D01*
X174082991Y-100047222D01*
X174118729Y-100076552D01*
X174220186Y-100159814D01*
X174303448Y-100261271D01*
X174332778Y-100297009D01*
X174332779Y-100297011D01*
X174416443Y-100453533D01*
X174416443Y-100453534D01*
X174467963Y-100623373D01*
X174485359Y-100800000D01*
X174467963Y-100976627D01*
X174433616Y-101089853D01*
X174416443Y-101146467D01*
X174342348Y-101285087D01*
X174332778Y-101302991D01*
X174303448Y-101338729D01*
X174220186Y-101440186D01*
X174118729Y-101523448D01*
X174082991Y-101552778D01*
X174082989Y-101552779D01*
X173926467Y-101636443D01*
X173869853Y-101653616D01*
X173756627Y-101687963D01*
X173690442Y-101694482D01*
X173624260Y-101701000D01*
X173535740Y-101701000D01*
X173469557Y-101694481D01*
X173403373Y-101687963D01*
X173290147Y-101653616D01*
X173233533Y-101636443D01*
X173077011Y-101552779D01*
X173077009Y-101552778D01*
X173041271Y-101523448D01*
X172939814Y-101440186D01*
X172856552Y-101338729D01*
X172827222Y-101302991D01*
X172817652Y-101285087D01*
X172743557Y-101146467D01*
X172726384Y-101089853D01*
X172692037Y-100976627D01*
X172674641Y-100800000D01*
X172692037Y-100623373D01*
X172743557Y-100453534D01*
X172743557Y-100453533D01*
X172827221Y-100297011D01*
X172827222Y-100297009D01*
X172856552Y-100261271D01*
X172939814Y-100159814D01*
X173041271Y-100076552D01*
X173077009Y-100047222D01*
X173094913Y-100037652D01*
X173233533Y-99963557D01*
X173290147Y-99946384D01*
X173403373Y-99912037D01*
X173469557Y-99905519D01*
X173535740Y-99899000D01*
X173624260Y-99899000D01*
X173690443Y-99905519D01*
X173690443Y-99905519D01*
G37*
G36*
X178770443Y-99905519D02*
G01*
X178836627Y-99912037D01*
X178949853Y-99946384D01*
X179006467Y-99963557D01*
X179145087Y-100037652D01*
X179162991Y-100047222D01*
X179198729Y-100076552D01*
X179300186Y-100159814D01*
X179383448Y-100261271D01*
X179412778Y-100297009D01*
X179412779Y-100297011D01*
X179496443Y-100453533D01*
X179496443Y-100453534D01*
X179547963Y-100623373D01*
X179565359Y-100800000D01*
X179547963Y-100976627D01*
X179513616Y-101089853D01*
X179496443Y-101146467D01*
X179422348Y-101285087D01*
X179412778Y-101302991D01*
X179383448Y-101338729D01*
X179300186Y-101440186D01*
X179198729Y-101523448D01*
X179162991Y-101552778D01*
X179162989Y-101552779D01*
X179006467Y-101636443D01*
X178949853Y-101653616D01*
X178836627Y-101687963D01*
X178770442Y-101694482D01*
X178704260Y-101701000D01*
X178615740Y-101701000D01*
X178549557Y-101694481D01*
X178483373Y-101687963D01*
X178370147Y-101653616D01*
X178313533Y-101636443D01*
X178157011Y-101552779D01*
X178157009Y-101552778D01*
X178121271Y-101523448D01*
X178019814Y-101440186D01*
X177936552Y-101338729D01*
X177907222Y-101302991D01*
X177897652Y-101285087D01*
X177823557Y-101146467D01*
X177806384Y-101089853D01*
X177772037Y-100976627D01*
X177754641Y-100800000D01*
X177772037Y-100623373D01*
X177823557Y-100453534D01*
X177823557Y-100453533D01*
X177907221Y-100297011D01*
X177907222Y-100297009D01*
X177936552Y-100261271D01*
X178019814Y-100159814D01*
X178121271Y-100076552D01*
X178157009Y-100047222D01*
X178174913Y-100037652D01*
X178313533Y-99963557D01*
X178370147Y-99946384D01*
X178483373Y-99912037D01*
X178549557Y-99905519D01*
X178615740Y-99899000D01*
X178704260Y-99899000D01*
X178770443Y-99905519D01*
X178770443Y-99905519D01*
G37*
G36*
X169401000Y-97601000D02*
G01*
X167599000Y-97601000D01*
X167599000Y-95799000D01*
X169401000Y-95799000D01*
X169401000Y-97601000D01*
X169401000Y-97601000D01*
G37*
G36*
X171150443Y-95805519D02*
G01*
X171216627Y-95812037D01*
X171329853Y-95846384D01*
X171386467Y-95863557D01*
X171525087Y-95937652D01*
X171542991Y-95947222D01*
X171578729Y-95976552D01*
X171680186Y-96059814D01*
X171763448Y-96161271D01*
X171792778Y-96197009D01*
X171792779Y-96197011D01*
X171876443Y-96353533D01*
X171876443Y-96353534D01*
X171927963Y-96523373D01*
X171945359Y-96700000D01*
X171927963Y-96876627D01*
X171893616Y-96989853D01*
X171876443Y-97046467D01*
X171802348Y-97185087D01*
X171792778Y-97202991D01*
X171763448Y-97238729D01*
X171680186Y-97340186D01*
X171578729Y-97423448D01*
X171542991Y-97452778D01*
X171542989Y-97452779D01*
X171386467Y-97536443D01*
X171329853Y-97553616D01*
X171216627Y-97587963D01*
X171150443Y-97594481D01*
X171084260Y-97601000D01*
X170995740Y-97601000D01*
X170929557Y-97594481D01*
X170863373Y-97587963D01*
X170750147Y-97553616D01*
X170693533Y-97536443D01*
X170537011Y-97452779D01*
X170537009Y-97452778D01*
X170501271Y-97423448D01*
X170399814Y-97340186D01*
X170316552Y-97238729D01*
X170287222Y-97202991D01*
X170277652Y-97185087D01*
X170203557Y-97046467D01*
X170186384Y-96989853D01*
X170152037Y-96876627D01*
X170134641Y-96700000D01*
X170152037Y-96523373D01*
X170203557Y-96353534D01*
X170203557Y-96353533D01*
X170287221Y-96197011D01*
X170287222Y-96197009D01*
X170316552Y-96161271D01*
X170399814Y-96059814D01*
X170501271Y-95976552D01*
X170537009Y-95947222D01*
X170554913Y-95937652D01*
X170693533Y-95863557D01*
X170750147Y-95846384D01*
X170863373Y-95812037D01*
X170929557Y-95805519D01*
X170995740Y-95799000D01*
X171084260Y-95799000D01*
X171150443Y-95805519D01*
X171150443Y-95805519D01*
G37*
G36*
X173690443Y-95805519D02*
G01*
X173756627Y-95812037D01*
X173869853Y-95846384D01*
X173926467Y-95863557D01*
X174065087Y-95937652D01*
X174082991Y-95947222D01*
X174118729Y-95976552D01*
X174220186Y-96059814D01*
X174303448Y-96161271D01*
X174332778Y-96197009D01*
X174332779Y-96197011D01*
X174416443Y-96353533D01*
X174416443Y-96353534D01*
X174467963Y-96523373D01*
X174485359Y-96700000D01*
X174467963Y-96876627D01*
X174433616Y-96989853D01*
X174416443Y-97046467D01*
X174342348Y-97185087D01*
X174332778Y-97202991D01*
X174303448Y-97238729D01*
X174220186Y-97340186D01*
X174118729Y-97423448D01*
X174082991Y-97452778D01*
X174082989Y-97452779D01*
X173926467Y-97536443D01*
X173869853Y-97553616D01*
X173756627Y-97587963D01*
X173690443Y-97594481D01*
X173624260Y-97601000D01*
X173535740Y-97601000D01*
X173469557Y-97594481D01*
X173403373Y-97587963D01*
X173290147Y-97553616D01*
X173233533Y-97536443D01*
X173077011Y-97452779D01*
X173077009Y-97452778D01*
X173041271Y-97423448D01*
X172939814Y-97340186D01*
X172856552Y-97238729D01*
X172827222Y-97202991D01*
X172817652Y-97185087D01*
X172743557Y-97046467D01*
X172726384Y-96989853D01*
X172692037Y-96876627D01*
X172674641Y-96700000D01*
X172692037Y-96523373D01*
X172743557Y-96353534D01*
X172743557Y-96353533D01*
X172827221Y-96197011D01*
X172827222Y-96197009D01*
X172856552Y-96161271D01*
X172939814Y-96059814D01*
X173041271Y-95976552D01*
X173077009Y-95947222D01*
X173094913Y-95937652D01*
X173233533Y-95863557D01*
X173290147Y-95846384D01*
X173403373Y-95812037D01*
X173469557Y-95805519D01*
X173535740Y-95799000D01*
X173624260Y-95799000D01*
X173690443Y-95805519D01*
X173690443Y-95805519D01*
G37*
G36*
X176230443Y-95805519D02*
G01*
X176296627Y-95812037D01*
X176409853Y-95846384D01*
X176466467Y-95863557D01*
X176605087Y-95937652D01*
X176622991Y-95947222D01*
X176658729Y-95976552D01*
X176760186Y-96059814D01*
X176843448Y-96161271D01*
X176872778Y-96197009D01*
X176872779Y-96197011D01*
X176956443Y-96353533D01*
X176956443Y-96353534D01*
X177007963Y-96523373D01*
X177025359Y-96700000D01*
X177007963Y-96876627D01*
X176973616Y-96989853D01*
X176956443Y-97046467D01*
X176882348Y-97185087D01*
X176872778Y-97202991D01*
X176843448Y-97238729D01*
X176760186Y-97340186D01*
X176658729Y-97423448D01*
X176622991Y-97452778D01*
X176622989Y-97452779D01*
X176466467Y-97536443D01*
X176409853Y-97553616D01*
X176296627Y-97587963D01*
X176230443Y-97594481D01*
X176164260Y-97601000D01*
X176075740Y-97601000D01*
X176009557Y-97594481D01*
X175943373Y-97587963D01*
X175830147Y-97553616D01*
X175773533Y-97536443D01*
X175617011Y-97452779D01*
X175617009Y-97452778D01*
X175581271Y-97423448D01*
X175479814Y-97340186D01*
X175396552Y-97238729D01*
X175367222Y-97202991D01*
X175357652Y-97185087D01*
X175283557Y-97046467D01*
X175266384Y-96989853D01*
X175232037Y-96876627D01*
X175214641Y-96700000D01*
X175232037Y-96523373D01*
X175283557Y-96353534D01*
X175283557Y-96353533D01*
X175367221Y-96197011D01*
X175367222Y-96197009D01*
X175396552Y-96161271D01*
X175479814Y-96059814D01*
X175581271Y-95976552D01*
X175617009Y-95947222D01*
X175634913Y-95937652D01*
X175773533Y-95863557D01*
X175830147Y-95846384D01*
X175943373Y-95812037D01*
X176009557Y-95805519D01*
X176075740Y-95799000D01*
X176164260Y-95799000D01*
X176230443Y-95805519D01*
X176230443Y-95805519D01*
G37*
G36*
X181310443Y-95805519D02*
G01*
X181376627Y-95812037D01*
X181489853Y-95846384D01*
X181546467Y-95863557D01*
X181685087Y-95937652D01*
X181702991Y-95947222D01*
X181738729Y-95976552D01*
X181840186Y-96059814D01*
X181923448Y-96161271D01*
X181952778Y-96197009D01*
X181952779Y-96197011D01*
X182036443Y-96353533D01*
X182036443Y-96353534D01*
X182087963Y-96523373D01*
X182105359Y-96700000D01*
X182087963Y-96876627D01*
X182053616Y-96989853D01*
X182036443Y-97046467D01*
X181962348Y-97185087D01*
X181952778Y-97202991D01*
X181923448Y-97238729D01*
X181840186Y-97340186D01*
X181738729Y-97423448D01*
X181702991Y-97452778D01*
X181702989Y-97452779D01*
X181546467Y-97536443D01*
X181489853Y-97553616D01*
X181376627Y-97587963D01*
X181310443Y-97594481D01*
X181244260Y-97601000D01*
X181155740Y-97601000D01*
X181089557Y-97594481D01*
X181023373Y-97587963D01*
X180910147Y-97553616D01*
X180853533Y-97536443D01*
X180697011Y-97452779D01*
X180697009Y-97452778D01*
X180661271Y-97423448D01*
X180559814Y-97340186D01*
X180476552Y-97238729D01*
X180447222Y-97202991D01*
X180437652Y-97185087D01*
X180363557Y-97046467D01*
X180346384Y-96989853D01*
X180312037Y-96876627D01*
X180294641Y-96700000D01*
X180312037Y-96523373D01*
X180363557Y-96353534D01*
X180363557Y-96353533D01*
X180447221Y-96197011D01*
X180447222Y-96197009D01*
X180476552Y-96161271D01*
X180559814Y-96059814D01*
X180661271Y-95976552D01*
X180697009Y-95947222D01*
X180714913Y-95937652D01*
X180853533Y-95863557D01*
X180910147Y-95846384D01*
X181023373Y-95812037D01*
X181089557Y-95805519D01*
X181155740Y-95799000D01*
X181244260Y-95799000D01*
X181310443Y-95805519D01*
X181310443Y-95805519D01*
G37*
G36*
X178770443Y-95805519D02*
G01*
X178836627Y-95812037D01*
X178949853Y-95846384D01*
X179006467Y-95863557D01*
X179145087Y-95937652D01*
X179162991Y-95947222D01*
X179198729Y-95976552D01*
X179300186Y-96059814D01*
X179383448Y-96161271D01*
X179412778Y-96197009D01*
X179412779Y-96197011D01*
X179496443Y-96353533D01*
X179496443Y-96353534D01*
X179547963Y-96523373D01*
X179565359Y-96700000D01*
X179547963Y-96876627D01*
X179513616Y-96989853D01*
X179496443Y-97046467D01*
X179422348Y-97185087D01*
X179412778Y-97202991D01*
X179383448Y-97238729D01*
X179300186Y-97340186D01*
X179198729Y-97423448D01*
X179162991Y-97452778D01*
X179162989Y-97452779D01*
X179006467Y-97536443D01*
X178949853Y-97553616D01*
X178836627Y-97587963D01*
X178770443Y-97594481D01*
X178704260Y-97601000D01*
X178615740Y-97601000D01*
X178549557Y-97594481D01*
X178483373Y-97587963D01*
X178370147Y-97553616D01*
X178313533Y-97536443D01*
X178157011Y-97452779D01*
X178157009Y-97452778D01*
X178121271Y-97423448D01*
X178019814Y-97340186D01*
X177936552Y-97238729D01*
X177907222Y-97202991D01*
X177897652Y-97185087D01*
X177823557Y-97046467D01*
X177806384Y-96989853D01*
X177772037Y-96876627D01*
X177754641Y-96700000D01*
X177772037Y-96523373D01*
X177823557Y-96353534D01*
X177823557Y-96353533D01*
X177907221Y-96197011D01*
X177907222Y-96197009D01*
X177936552Y-96161271D01*
X178019814Y-96059814D01*
X178121271Y-95976552D01*
X178157009Y-95947222D01*
X178174913Y-95937652D01*
X178313533Y-95863557D01*
X178370147Y-95846384D01*
X178483373Y-95812037D01*
X178549557Y-95805519D01*
X178615740Y-95799000D01*
X178704260Y-95799000D01*
X178770443Y-95805519D01*
X178770443Y-95805519D01*
G37*
G36*
X134408643Y-93779781D02*
G01*
X134554415Y-93840162D01*
X134685611Y-93927824D01*
X134797176Y-94039389D01*
X134884838Y-94170585D01*
X134945219Y-94316357D01*
X134976000Y-94471107D01*
X134976000Y-94628893D01*
X134945219Y-94783643D01*
X134884838Y-94929415D01*
X134797176Y-95060611D01*
X134685611Y-95172176D01*
X134554415Y-95259838D01*
X134408643Y-95320219D01*
X134253893Y-95351000D01*
X134096107Y-95351000D01*
X133941357Y-95320219D01*
X133795585Y-95259838D01*
X133664389Y-95172176D01*
X133552824Y-95060611D01*
X133465162Y-94929415D01*
X133404781Y-94783643D01*
X133374000Y-94628893D01*
X133374000Y-94471107D01*
X133404781Y-94316357D01*
X133465162Y-94170585D01*
X133552824Y-94039389D01*
X133664389Y-93927824D01*
X133795585Y-93840162D01*
X133941357Y-93779781D01*
X134096107Y-93749000D01*
X134253893Y-93749000D01*
X134408643Y-93779781D01*
X134408643Y-93779781D01*
G37*
G36*
X167188636Y-87089519D02*
G01*
X167369903Y-87125575D01*
X167597571Y-87219878D01*
X167741961Y-87316357D01*
X167802469Y-87356787D01*
X167976713Y-87531031D01*
X167976715Y-87531034D01*
X168113622Y-87735929D01*
X168207925Y-87963597D01*
X168256000Y-88205287D01*
X168256000Y-88451713D01*
X168207925Y-88693403D01*
X168113622Y-88921071D01*
X167977332Y-89125042D01*
X167976713Y-89125969D01*
X167802469Y-89300213D01*
X167802466Y-89300215D01*
X167597571Y-89437122D01*
X167369903Y-89531425D01*
X167188636Y-89567481D01*
X167128214Y-89579500D01*
X166881786Y-89579500D01*
X166821365Y-89567481D01*
X166640097Y-89531425D01*
X166412429Y-89437122D01*
X166207534Y-89300215D01*
X166207531Y-89300213D01*
X166033287Y-89125969D01*
X166032668Y-89125042D01*
X165896378Y-88921071D01*
X165802075Y-88693403D01*
X165754000Y-88451713D01*
X165754000Y-88205287D01*
X165802075Y-87963597D01*
X165896378Y-87735929D01*
X166033285Y-87531034D01*
X166033287Y-87531031D01*
X166207531Y-87356787D01*
X166268039Y-87316357D01*
X166412429Y-87219878D01*
X166640097Y-87125575D01*
X166821364Y-87089519D01*
X166881786Y-87077500D01*
X167128214Y-87077500D01*
X167188636Y-87089519D01*
X167188636Y-87089519D01*
G37*
G36*
X149251000Y-89579500D02*
G01*
X146749000Y-89579500D01*
X146749000Y-87077500D01*
X149251000Y-87077500D01*
X149251000Y-89579500D01*
X149251000Y-89579500D01*
G37*
G36*
X144683636Y-87089519D02*
G01*
X144864903Y-87125575D01*
X145092571Y-87219878D01*
X145236961Y-87316357D01*
X145297469Y-87356787D01*
X145471713Y-87531031D01*
X145471715Y-87531034D01*
X145608622Y-87735929D01*
X145702925Y-87963597D01*
X145751000Y-88205287D01*
X145751000Y-88451713D01*
X145702925Y-88693403D01*
X145608622Y-88921071D01*
X145472332Y-89125042D01*
X145471713Y-89125969D01*
X145297469Y-89300213D01*
X145297466Y-89300215D01*
X145092571Y-89437122D01*
X144864903Y-89531425D01*
X144683636Y-89567481D01*
X144623214Y-89579500D01*
X144376786Y-89579500D01*
X144316365Y-89567481D01*
X144135097Y-89531425D01*
X143907429Y-89437122D01*
X143702534Y-89300215D01*
X143702531Y-89300213D01*
X143528287Y-89125969D01*
X143527668Y-89125042D01*
X143391378Y-88921071D01*
X143297075Y-88693403D01*
X143249000Y-88451713D01*
X143249000Y-88205287D01*
X143297075Y-87963597D01*
X143391378Y-87735929D01*
X143528285Y-87531034D01*
X143528287Y-87531031D01*
X143702531Y-87356787D01*
X143763039Y-87316357D01*
X143907429Y-87219878D01*
X144135097Y-87125575D01*
X144316364Y-87089519D01*
X144376786Y-87077500D01*
X144623214Y-87077500D01*
X144683636Y-87089519D01*
X144683636Y-87089519D01*
G37*
G36*
X160651000Y-89579500D02*
G01*
X158149000Y-89579500D01*
X158149000Y-87077500D01*
X160651000Y-87077500D01*
X160651000Y-89579500D01*
X160651000Y-89579500D01*
G37*
G36*
X156083636Y-87089519D02*
G01*
X156264903Y-87125575D01*
X156492571Y-87219878D01*
X156636961Y-87316357D01*
X156697469Y-87356787D01*
X156871713Y-87531031D01*
X156871715Y-87531034D01*
X157008622Y-87735929D01*
X157102925Y-87963597D01*
X157151000Y-88205287D01*
X157151000Y-88451713D01*
X157102925Y-88693403D01*
X157008622Y-88921071D01*
X156872332Y-89125042D01*
X156871713Y-89125969D01*
X156697469Y-89300213D01*
X156697466Y-89300215D01*
X156492571Y-89437122D01*
X156264903Y-89531425D01*
X156083636Y-89567481D01*
X156023214Y-89579500D01*
X155776786Y-89579500D01*
X155716365Y-89567481D01*
X155535097Y-89531425D01*
X155307429Y-89437122D01*
X155102534Y-89300215D01*
X155102531Y-89300213D01*
X154928287Y-89125969D01*
X154927668Y-89125042D01*
X154791378Y-88921071D01*
X154697075Y-88693403D01*
X154649000Y-88451713D01*
X154649000Y-88205287D01*
X154697075Y-87963597D01*
X154791378Y-87735929D01*
X154928285Y-87531034D01*
X154928287Y-87531031D01*
X155102531Y-87356787D01*
X155163039Y-87316357D01*
X155307429Y-87219878D01*
X155535097Y-87125575D01*
X155716364Y-87089519D01*
X155776786Y-87077500D01*
X156023214Y-87077500D01*
X156083636Y-87089519D01*
X156083636Y-87089519D01*
G37*
G36*
X171756000Y-89579500D02*
G01*
X169254000Y-89579500D01*
X169254000Y-87077500D01*
X171756000Y-87077500D01*
X171756000Y-89579500D01*
X171756000Y-89579500D01*
G37*
G36*
X134408643Y-86779781D02*
G01*
X134554415Y-86840162D01*
X134685611Y-86927824D01*
X134797176Y-87039389D01*
X134884838Y-87170585D01*
X134945219Y-87316357D01*
X134976000Y-87471107D01*
X134976000Y-87628893D01*
X134945219Y-87783643D01*
X134884838Y-87929415D01*
X134797176Y-88060611D01*
X134685611Y-88172176D01*
X134554415Y-88259838D01*
X134408643Y-88320219D01*
X134253893Y-88351000D01*
X134096107Y-88351000D01*
X133941357Y-88320219D01*
X133795585Y-88259838D01*
X133664389Y-88172176D01*
X133552824Y-88060611D01*
X133465162Y-87929415D01*
X133404781Y-87783643D01*
X133374000Y-87628893D01*
X133374000Y-87471107D01*
X133404781Y-87316357D01*
X133465162Y-87170585D01*
X133552824Y-87039389D01*
X133664389Y-86927824D01*
X133795585Y-86840162D01*
X133941357Y-86779781D01*
X134096107Y-86749000D01*
X134253893Y-86749000D01*
X134408643Y-86779781D01*
X134408643Y-86779781D01*
G37*
M02*
