G04 #@! TF.GenerationSoftware,KiCad,Pcbnew,6.0.0-rc1-unknown-170ff66~66~ubuntu18.10.1*
G04 #@! TF.CreationDate,2019-01-13T01:23:09-08:00
G04 #@! TF.ProjectId,EExtruder,45457874-7275-4646-9572-2e6b69636164,rev?*
G04 #@! TF.SameCoordinates,Original*
G04 #@! TF.FileFunction,Copper,L2,Bot*
G04 #@! TF.FilePolarity,Positive*
%FSLAX46Y46*%
G04 Gerber Fmt 4.6, Leading zero omitted, Abs format (unit mm)*
G04 Created by KiCad (PCBNEW 6.0.0-rc1-unknown-170ff66~66~ubuntu18.10.1) date Sun 13 Jan 2019 01:23:09 AM PST*
%MOMM*%
%LPD*%
G04 APERTURE LIST*
%ADD10O,1.700000X1.700000*%
%ADD11R,1.700000X1.700000*%
%ADD12R,2.400000X2.400000*%
%ADD13C,2.400000*%
%ADD14O,1.727200X1.727200*%
%ADD15R,1.727200X1.727200*%
%ADD16C,0.800000*%
%ADD17C,0.508000*%
%ADD18C,0.152400*%
%ADD19C,0.762000*%
%ADD20C,2.540000*%
%ADD21C,0.254000*%
G04 APERTURE END LIST*
D10*
X181200000Y-96700000D03*
X178660000Y-96700000D03*
X176120000Y-96700000D03*
X173580000Y-96700000D03*
X171040000Y-96700000D03*
D11*
X168500000Y-96700000D03*
D10*
X181200000Y-100800000D03*
X178660000Y-100800000D03*
X176120000Y-100800000D03*
X173580000Y-100800000D03*
X171040000Y-100800000D03*
D11*
X168500000Y-100800000D03*
D12*
X148000000Y-88328500D03*
D13*
X144500000Y-88328500D03*
D12*
X159400000Y-88328500D03*
D13*
X155900000Y-88328500D03*
D12*
X170505000Y-88328500D03*
D13*
X167005000Y-88328500D03*
D10*
X178660000Y-104500000D03*
X176120000Y-104500000D03*
X173580000Y-104500000D03*
X171040000Y-104500000D03*
D11*
X168500000Y-104500000D03*
D14*
X193100000Y-114360000D03*
X193100000Y-116900000D03*
X190560000Y-114360000D03*
X190560000Y-116900000D03*
X188020000Y-114360000D03*
X188020000Y-116900000D03*
X185480000Y-114360000D03*
X185480000Y-116900000D03*
X182940000Y-114360000D03*
X182940000Y-116900000D03*
X180400000Y-114360000D03*
D15*
X180400000Y-116900000D03*
D10*
X161544000Y-128143000D03*
X161544000Y-125603000D03*
D11*
X161544000Y-123063000D03*
D10*
X179642000Y-128143000D03*
X179642000Y-125603000D03*
D11*
X179642000Y-123063000D03*
D10*
X176022000Y-128143000D03*
X176022000Y-125603000D03*
D11*
X176022000Y-123063000D03*
D10*
X172402000Y-128143000D03*
X172402000Y-125603000D03*
D11*
X172402000Y-123063000D03*
D10*
X168783000Y-128143000D03*
X168783000Y-125603000D03*
D11*
X168783000Y-123063000D03*
D10*
X165164000Y-128143000D03*
X165164000Y-125603000D03*
D11*
X165164000Y-123063000D03*
D10*
X189800000Y-123400000D03*
D11*
X187260000Y-123400000D03*
D10*
X184760000Y-127400000D03*
X187300000Y-127400000D03*
D11*
X189840000Y-127400000D03*
D10*
X130568000Y-109261000D03*
X130568000Y-106721000D03*
D11*
X130568000Y-104181000D03*
D10*
X130607000Y-127656000D03*
X130607000Y-125116000D03*
D11*
X130607000Y-122576000D03*
D10*
X130580000Y-118468000D03*
X130580000Y-115928000D03*
D11*
X130580000Y-113388000D03*
D10*
X156759000Y-128143000D03*
D11*
X154219000Y-128143000D03*
D10*
X148182000Y-128156000D03*
D11*
X145642000Y-128156000D03*
D16*
X149000000Y-94900000D03*
X147800000Y-94900000D03*
X147800000Y-96000000D03*
X149000000Y-96000000D03*
X150300000Y-96000000D03*
X150300000Y-94900000D03*
X150300000Y-93900000D03*
X149000000Y-93900000D03*
X147800000Y-93900000D03*
X160800000Y-96200000D03*
X159500000Y-96200000D03*
X159500000Y-95100000D03*
X160800000Y-95100000D03*
X162100000Y-96200000D03*
X162100000Y-95100000D03*
X162100000Y-94000000D03*
X160800000Y-94000000D03*
X159500000Y-94000000D03*
X152704545Y-114604545D03*
X149900000Y-113700000D03*
X142500000Y-105100000D03*
X140700000Y-104600000D03*
X139400000Y-108000000D03*
X140400000Y-111600000D03*
X142600000Y-111400000D03*
X146000000Y-112800000D03*
X149900000Y-106900000D03*
X150300000Y-102000000D03*
X158900000Y-103400000D03*
X161600000Y-99600000D03*
X164600000Y-98900000D03*
X143900000Y-98400000D03*
X153500000Y-98300000D03*
X158779325Y-105300000D03*
X165800000Y-104200000D03*
X172600000Y-108600000D03*
X172500000Y-105700000D03*
X174400000Y-102700000D03*
X181100000Y-106600000D03*
X182400000Y-104300000D03*
X183600000Y-101700000D03*
X186900000Y-102600000D03*
X184200000Y-112000000D03*
X184300000Y-115600000D03*
X146000000Y-120800000D03*
X152800000Y-123400000D03*
X151700000Y-127800000D03*
X147900000Y-123011710D03*
X159300000Y-123100000D03*
X154000000Y-120400000D03*
X152300000Y-120300000D03*
X149900000Y-120300000D03*
X143200000Y-117300000D03*
X183400000Y-108400000D03*
X175100000Y-112500000D03*
X178800000Y-112700000D03*
X176900000Y-113400000D03*
X178500000Y-116000000D03*
X132700000Y-98900000D03*
X135100000Y-101200000D03*
X132100000Y-89700000D03*
X173300000Y-120400000D03*
X170400000Y-117600000D03*
X167200000Y-111900000D03*
X172500000Y-114100000D03*
X166500000Y-117400000D03*
X165700000Y-120400000D03*
X152300000Y-117700000D03*
X147800000Y-117300000D03*
X144000000Y-115900000D03*
X139100000Y-116300000D03*
X140600000Y-113700000D03*
X163500000Y-104400000D03*
X138100000Y-94200000D03*
X190400000Y-119600000D03*
X189100000Y-121600000D03*
X154000000Y-122500000D03*
X149600000Y-122700000D03*
X157441307Y-99233410D03*
X148500000Y-99700000D03*
X149500000Y-99700000D03*
X145800000Y-98400000D03*
X161600000Y-100500000D03*
X152100000Y-113200000D03*
X152800000Y-110700000D03*
X152200000Y-115500000D03*
X158200000Y-128200000D03*
X159400000Y-126600000D03*
X142500000Y-126353009D03*
X140460753Y-117871390D03*
X159100000Y-129300000D03*
X170880500Y-107282000D03*
X168029100Y-108559200D03*
X150933600Y-117573300D03*
X150468400Y-123837600D03*
X156254000Y-113757100D03*
X156822227Y-122502178D03*
X155512000Y-115097600D03*
X155200000Y-123400000D03*
X155609500Y-109942700D03*
X137443900Y-119772100D03*
X163684000Y-108030400D03*
X163526400Y-125475100D03*
X160754800Y-114739000D03*
X140415400Y-109246400D03*
X164529600Y-113161600D03*
X175905500Y-121114000D03*
X174934400Y-116863600D03*
X182557400Y-123965600D03*
X163555000Y-106365700D03*
X153340200Y-116416200D03*
X166132300Y-107869400D03*
X154697400Y-117299800D03*
X165647800Y-105473700D03*
X163045800Y-117624100D03*
X162754700Y-107093300D03*
X161708600Y-111316700D03*
X167516600Y-99365400D03*
X164726200Y-115131500D03*
X158613485Y-121866821D03*
X158271229Y-118626199D03*
X158633500Y-115820000D03*
X165377800Y-117082900D03*
X156825100Y-111410000D03*
X165924200Y-114893400D03*
X157058500Y-112362800D03*
X159449800Y-124942500D03*
X156611600Y-109920500D03*
X159522215Y-121519183D03*
X155503100Y-111927600D03*
X165651900Y-106959100D03*
X159505400Y-112455500D03*
X159683300Y-99724400D03*
X141556700Y-92765300D03*
X158638100Y-109838200D03*
X138022600Y-97530500D03*
X158445300Y-107144900D03*
X177422100Y-115362200D03*
X167385400Y-107562400D03*
X188183100Y-112428900D03*
X162543586Y-116154597D03*
D17*
X160943000Y-128143000D02*
X159400000Y-126600000D01*
X161544000Y-128143000D02*
X160943000Y-128143000D01*
X186003300Y-123400000D02*
X184319100Y-123400000D01*
X184319100Y-123400000D02*
X171687200Y-110768100D01*
X171687200Y-110768100D02*
X171687200Y-106403900D01*
X171687200Y-106403900D02*
X171040000Y-105756700D01*
X187260000Y-123400000D02*
X186003300Y-123400000D01*
X171040000Y-104500000D02*
X171040000Y-105756700D01*
D18*
X170880500Y-107282000D02*
X169306300Y-107282000D01*
X169306300Y-107282000D02*
X168029100Y-108559200D01*
X150468400Y-123837600D02*
X150933600Y-123372400D01*
X150933600Y-123372400D02*
X150933600Y-117573300D01*
D19*
X160652600Y-112285400D02*
X161688500Y-113321300D01*
X161688500Y-113321300D02*
X161688500Y-115640500D01*
X161688500Y-115640500D02*
X161443000Y-115886000D01*
X161443000Y-115886000D02*
X161443000Y-121578300D01*
X161443000Y-121578300D02*
X161544000Y-121679300D01*
X170505000Y-87566700D02*
X174062700Y-87566700D01*
X174062700Y-87566700D02*
X190560000Y-104064000D01*
X190560000Y-104064000D02*
X190560000Y-114360000D01*
D20*
X170505000Y-87566700D02*
X170505000Y-86805000D01*
X170505000Y-86805000D02*
X168800000Y-85100000D01*
X168800000Y-85100000D02*
X164400000Y-85100000D01*
X170505000Y-88328500D02*
X170505000Y-87566700D01*
D19*
X161544000Y-123063000D02*
X161544000Y-121679300D01*
X161544000Y-125603000D02*
X161544000Y-123063000D01*
D20*
X155900000Y-88328500D02*
X155828000Y-88328500D01*
X155828000Y-88328500D02*
X154000000Y-86500000D01*
X154000000Y-86500000D02*
X152100000Y-86500000D01*
X152100000Y-86500000D02*
X152100000Y-86400000D01*
X152100000Y-86400000D02*
X150800000Y-85100000D01*
X150800000Y-85100000D02*
X146000000Y-85100000D01*
X146000000Y-85100000D02*
X144500000Y-86600000D01*
X144500000Y-86600000D02*
X144500000Y-88328500D01*
X155900000Y-88328500D02*
X155900000Y-86700000D01*
X155900000Y-86700000D02*
X157500000Y-85100000D01*
X157500000Y-85100000D02*
X164400000Y-85100000D01*
X164400000Y-85100000D02*
X163000000Y-86500000D01*
X163000000Y-86500000D02*
X163000000Y-86400000D01*
D19*
X155900000Y-90025556D02*
X155800000Y-90125556D01*
X155900000Y-88328500D02*
X155900000Y-90025556D01*
X155800000Y-90125556D02*
X155800000Y-96900000D01*
X157200000Y-98300000D02*
X160652600Y-98300000D01*
X155800000Y-96900000D02*
X157200000Y-98300000D01*
X160652600Y-98300000D02*
X160652600Y-112285400D01*
D18*
X156822227Y-114325327D02*
X156822227Y-121936493D01*
X156254000Y-113757100D02*
X156822227Y-114325327D01*
X156822227Y-121936493D02*
X156822227Y-122502178D01*
X155512000Y-121800000D02*
X155512000Y-115097600D01*
X155200000Y-123400000D02*
X155512000Y-123088000D01*
X155512000Y-123088000D02*
X155512000Y-121800000D01*
X137443900Y-119772100D02*
X147273300Y-109942700D01*
X147273300Y-109942700D02*
X155609500Y-109942700D01*
X163526400Y-125475100D02*
X163684000Y-125317500D01*
X163684000Y-125317500D02*
X163684000Y-108030400D01*
X160754800Y-114739000D02*
X160754800Y-114611300D01*
X160754800Y-114611300D02*
X157454100Y-111310600D01*
X157454100Y-111310600D02*
X157454100Y-109873500D01*
X157454100Y-109873500D02*
X156827000Y-109246400D01*
X156827000Y-109246400D02*
X140415400Y-109246400D01*
X175905500Y-121114000D02*
X167953100Y-113161600D01*
X167953100Y-113161600D02*
X164529600Y-113161600D01*
X174934400Y-116863600D02*
X175547700Y-116863600D01*
X175547700Y-116863600D02*
X182557400Y-123873300D01*
X182557400Y-123873300D02*
X182557400Y-123965600D01*
X189800000Y-123400000D02*
X188414800Y-124785200D01*
X188414800Y-124785200D02*
X182189600Y-124785200D01*
X182189600Y-124785200D02*
X181629400Y-124225000D01*
X181629400Y-124225000D02*
X178770200Y-124225000D01*
X178770200Y-124225000D02*
X177940000Y-123394800D01*
X177940000Y-123394800D02*
X177940000Y-121366200D01*
X177940000Y-121366200D02*
X163555000Y-106981200D01*
X163555000Y-106981200D02*
X163555000Y-106365700D01*
X183422700Y-126214900D02*
X188980500Y-126214900D01*
X153340200Y-122901597D02*
X154872015Y-124433412D01*
X155400114Y-124433412D02*
X160848500Y-129881800D01*
X191423599Y-117763599D02*
X190560000Y-116900000D01*
X154872015Y-124433412D02*
X155400114Y-124433412D01*
X191423599Y-123771801D02*
X191423599Y-117763599D01*
X153340200Y-116416200D02*
X153340200Y-122901597D01*
X160848500Y-129881800D02*
X179755800Y-129881800D01*
X179755800Y-129881800D02*
X183422700Y-126214900D01*
X188980500Y-126214900D02*
X191423599Y-123771801D01*
X188020000Y-114360000D02*
X188020000Y-115452500D01*
X188020000Y-115452500D02*
X188156600Y-115452500D01*
X188156600Y-115452500D02*
X189162200Y-116458100D01*
X189162200Y-116458100D02*
X189162200Y-117551400D01*
X189162200Y-117551400D02*
X188422000Y-118291600D01*
X188422000Y-118291600D02*
X188422000Y-124346300D01*
X188422000Y-124346300D02*
X188289300Y-124479000D01*
X188289300Y-124479000D02*
X184715000Y-124479000D01*
X184715000Y-124479000D02*
X169512000Y-109276000D01*
X169512000Y-109276000D02*
X167538900Y-109276000D01*
X167538900Y-109276000D02*
X166132300Y-107869400D01*
X187143100Y-113267400D02*
X187143100Y-110362000D01*
X187143100Y-110362000D02*
X178660000Y-101878900D01*
X188020000Y-115807500D02*
X187906800Y-115807500D01*
X187906800Y-115807500D02*
X186927400Y-114828100D01*
X186927400Y-114828100D02*
X186927400Y-113483100D01*
X186927400Y-113483100D02*
X187143100Y-113267400D01*
X178660000Y-100800000D02*
X178660000Y-101878900D01*
X188020000Y-116900000D02*
X188020000Y-115807500D01*
X178660000Y-100800000D02*
X178660000Y-96700000D01*
X154697400Y-117299800D02*
X154697400Y-122672270D01*
X154697400Y-122672270D02*
X154571399Y-122798271D01*
X182571300Y-125302300D02*
X189461400Y-125302300D01*
X190910700Y-122321000D02*
X189467400Y-120877700D01*
X154571399Y-122798271D02*
X154571399Y-123701729D01*
X154571399Y-123701729D02*
X154998271Y-124128601D01*
X154998271Y-124128601D02*
X155527601Y-124128601D01*
X155527601Y-124128601D02*
X160951600Y-129552600D01*
X189461400Y-125302300D02*
X190910700Y-123853000D01*
X181000600Y-126873000D02*
X182571300Y-125302300D01*
X190910700Y-123853000D02*
X190910700Y-122321000D01*
X160951600Y-129552600D02*
X176195200Y-129552600D01*
X188496000Y-113267400D02*
X187143100Y-113267400D01*
X189467400Y-114238800D02*
X188496000Y-113267400D01*
X189467400Y-120877700D02*
X189467400Y-114238800D01*
X178874800Y-126873000D02*
X181000600Y-126873000D01*
X176195200Y-129552600D02*
X178874800Y-126873000D01*
X173580000Y-100800000D02*
X172501100Y-100800000D01*
X165647800Y-105473700D02*
X165647800Y-105328500D01*
X165647800Y-105328500D02*
X167860500Y-103115800D01*
X167860500Y-103115800D02*
X170297100Y-103115800D01*
X170297100Y-103115800D02*
X172501100Y-100911800D01*
X172501100Y-100911800D02*
X172501100Y-100800000D01*
X173580000Y-100800000D02*
X174658900Y-100800000D01*
X185480000Y-116900000D02*
X184387500Y-116900000D01*
X184387500Y-116900000D02*
X184387500Y-117036600D01*
X184387500Y-117036600D02*
X183408300Y-118015800D01*
X183408300Y-118015800D02*
X182475100Y-118015800D01*
X182475100Y-118015800D02*
X181492500Y-117033200D01*
X181492500Y-117033200D02*
X181492500Y-115941600D01*
X181492500Y-115941600D02*
X181288900Y-115738000D01*
X181288900Y-115738000D02*
X180209400Y-115738000D01*
X180209400Y-115738000D02*
X177210900Y-112739500D01*
X177210900Y-112739500D02*
X177210900Y-104033800D01*
X177210900Y-104033800D02*
X174658900Y-101481800D01*
X174658900Y-101481800D02*
X174658900Y-100800000D01*
X173580000Y-96700000D02*
X173580000Y-100800000D01*
X162754700Y-107093300D02*
X162754700Y-115435379D01*
X163172188Y-115852867D02*
X163172188Y-116932027D01*
X163045800Y-117058415D02*
X163045800Y-117624100D01*
X163172188Y-116932027D02*
X163045800Y-117058415D01*
X162754700Y-115435379D02*
X163172188Y-115852867D01*
X167516600Y-99365400D02*
X161708600Y-105173400D01*
X161708600Y-105173400D02*
X161708600Y-111316700D01*
X176120000Y-101878900D02*
X177516100Y-103275000D01*
X177516100Y-103275000D02*
X177516100Y-109000600D01*
X177516100Y-109000600D02*
X181670000Y-113154500D01*
X181670000Y-113154500D02*
X181670000Y-114645600D01*
X181670000Y-114645600D02*
X182831900Y-115807500D01*
X182831900Y-115807500D02*
X182940000Y-115807500D01*
X176120000Y-100800000D02*
X176120000Y-101878900D01*
X182940000Y-116900000D02*
X182940000Y-115807500D01*
X176120000Y-100800000D02*
X176120000Y-96700000D01*
X165164000Y-125603000D02*
X165164000Y-124524100D01*
X165164000Y-124524100D02*
X164574000Y-124524100D01*
X164574000Y-124524100D02*
X164085000Y-124035100D01*
X164085000Y-124035100D02*
X164085000Y-115772700D01*
X164085000Y-115772700D02*
X164726200Y-115131500D01*
X158271229Y-121524565D02*
X158613485Y-121866821D01*
X158271229Y-118626199D02*
X158271229Y-121524565D01*
X158233501Y-116219999D02*
X158633500Y-115820000D01*
X157538600Y-116914900D02*
X158233501Y-116219999D01*
X157538600Y-123950300D02*
X157538600Y-116914900D01*
X159474697Y-125886397D02*
X157538600Y-123950300D01*
X160900015Y-126986412D02*
X159800000Y-125886397D01*
X161086412Y-126986412D02*
X160900015Y-126986412D01*
X168783000Y-125603000D02*
X169886900Y-124499100D01*
X173522900Y-125194200D02*
X173522900Y-126027800D01*
X161100000Y-127000000D02*
X161086412Y-126986412D01*
X161100000Y-127051700D02*
X161100000Y-127000000D01*
X169886900Y-124499100D02*
X172827800Y-124499100D01*
X172827800Y-124499100D02*
X173522900Y-125194200D01*
X159800000Y-125886397D02*
X159474697Y-125886397D01*
X173522900Y-126027800D02*
X172499000Y-127051700D01*
X172499000Y-127051700D02*
X161100000Y-127051700D01*
X168783000Y-123063000D02*
X168783000Y-121984100D01*
X168783000Y-121984100D02*
X165377800Y-118578900D01*
X165377800Y-118578900D02*
X165377800Y-117082900D01*
X160455627Y-115329227D02*
X160455627Y-126042927D01*
X161212668Y-126681601D02*
X161265367Y-126734300D01*
X160125900Y-114999500D02*
X160455627Y-115329227D01*
X171552001Y-126452999D02*
X172402000Y-125603000D01*
X171270700Y-126734300D02*
X171552001Y-126452999D01*
X161265367Y-126734300D02*
X171270700Y-126734300D01*
X160125900Y-114540700D02*
X160125900Y-114999500D01*
X156995200Y-111410000D02*
X160125900Y-114540700D01*
X156825100Y-111410000D02*
X156995200Y-111410000D01*
X160455627Y-126042927D02*
X161094301Y-126681601D01*
X161094301Y-126681601D02*
X161212668Y-126681601D01*
X172402000Y-123063000D02*
X172402000Y-121984100D01*
X172402000Y-121984100D02*
X165924200Y-115506300D01*
X165924200Y-115506300D02*
X165924200Y-114893400D01*
X157458499Y-112762799D02*
X157058500Y-112362800D01*
X157458499Y-112763699D02*
X157458499Y-112762799D01*
X160150816Y-115456016D02*
X157458499Y-112763699D01*
X160150816Y-124241484D02*
X160150816Y-115456016D01*
X159449800Y-124942500D02*
X160150816Y-124241484D01*
X156611600Y-109920500D02*
X156182000Y-110350100D01*
X159522215Y-115716115D02*
X159522215Y-120953498D01*
X156182000Y-110350100D02*
X156182000Y-112375900D01*
X156182000Y-112375900D02*
X159522215Y-115716115D01*
X159522215Y-120953498D02*
X159522215Y-121519183D01*
X178563100Y-125603000D02*
X177484200Y-126681900D01*
X177484200Y-126681900D02*
X175656900Y-126681900D01*
X175656900Y-126681900D02*
X173115300Y-129223500D01*
X173115300Y-129223500D02*
X161095500Y-129223500D01*
X161095500Y-129223500D02*
X156141100Y-124269100D01*
X156141100Y-124269100D02*
X156141100Y-114533700D01*
X156141100Y-114533700D02*
X155503100Y-113895700D01*
X155503100Y-113895700D02*
X155503100Y-111927600D01*
X179642000Y-125603000D02*
X178563100Y-125603000D01*
X165651900Y-106959100D02*
X165503400Y-107107600D01*
X165503400Y-107107600D02*
X165503400Y-108341300D01*
X165503400Y-108341300D02*
X179146200Y-121984100D01*
X179146200Y-121984100D02*
X179642000Y-121984100D01*
X179642000Y-123063000D02*
X179642000Y-121984100D01*
X159683300Y-99724400D02*
X159683300Y-112277600D01*
X159683300Y-112277600D02*
X159505400Y-112455500D01*
X159100500Y-109375800D02*
X159100500Y-106886100D01*
X158638100Y-109838200D02*
X159100500Y-109375800D01*
X149514400Y-97300000D02*
X143100000Y-97300000D01*
X159100500Y-106886100D02*
X149514400Y-97300000D01*
X141556700Y-95756700D02*
X141556700Y-92765300D01*
X143100000Y-97300000D02*
X141556700Y-95756700D01*
X148905211Y-97604811D02*
X142973744Y-97604811D01*
X138588285Y-97530500D02*
X138022600Y-97530500D01*
X142973744Y-97604811D02*
X142899433Y-97530500D01*
X158445300Y-107144900D02*
X148905211Y-97604811D01*
X142899433Y-97530500D02*
X138588285Y-97530500D01*
X177422100Y-115362200D02*
X176120000Y-114060100D01*
X176120000Y-114060100D02*
X176120000Y-104500000D01*
X167385400Y-107562400D02*
X167484300Y-107562400D01*
X167484300Y-107562400D02*
X169878000Y-105168700D01*
X169878000Y-105168700D02*
X169878000Y-104128400D01*
X169878000Y-104128400D02*
X170585400Y-103421000D01*
X170585400Y-103421000D02*
X171533900Y-103421000D01*
X171533900Y-103421000D02*
X172501100Y-104388200D01*
X172501100Y-104388200D02*
X172501100Y-104500000D01*
X173580000Y-104500000D02*
X172501100Y-104500000D01*
X181200000Y-100800000D02*
X181200000Y-101878900D01*
X188183100Y-112428900D02*
X188183100Y-108862000D01*
X188183100Y-108862000D02*
X181200000Y-101878900D01*
X166318700Y-102619600D02*
X162101900Y-106836400D01*
X162443586Y-116054597D02*
X162543586Y-116154597D01*
X162443586Y-107673486D02*
X162443586Y-116054597D01*
X162101900Y-106836400D02*
X162101900Y-107331800D01*
X168724100Y-102619600D02*
X166318700Y-102619600D01*
X169662000Y-101681700D02*
X168724100Y-102619600D01*
X169662000Y-99930600D02*
X169662000Y-101681700D01*
X172310000Y-97282600D02*
X169662000Y-99930600D01*
X172310000Y-96347900D02*
X172310000Y-97282600D01*
X162101900Y-107331800D02*
X162443586Y-107673486D01*
X173053200Y-95604700D02*
X172310000Y-96347900D01*
X180104700Y-95604700D02*
X173053200Y-95604700D01*
X181200000Y-96700000D02*
X180104700Y-95604700D01*
D17*
X168500000Y-100800000D02*
X168500000Y-96700000D01*
D18*
G36*
X143001400Y-86526382D02*
G01*
X143001400Y-86526388D01*
X142994150Y-86600000D01*
X143001400Y-86673612D01*
X143001400Y-88402119D01*
X143023085Y-88622277D01*
X143108776Y-88904764D01*
X143247932Y-89165106D01*
X143435204Y-89393297D01*
X143663395Y-89580569D01*
X143923737Y-89719725D01*
X144206224Y-89805416D01*
X144500000Y-89834351D01*
X144793777Y-89805416D01*
X145076264Y-89719725D01*
X145336606Y-89580569D01*
X145564797Y-89393297D01*
X145752069Y-89165106D01*
X145891225Y-88904764D01*
X145976916Y-88622277D01*
X145998600Y-88402119D01*
X145998600Y-87220739D01*
X146620740Y-86598600D01*
X150179261Y-86598600D01*
X150768314Y-87187654D01*
X150847931Y-87336606D01*
X150991649Y-87511726D01*
X151035203Y-87564797D01*
X151263394Y-87752069D01*
X151523736Y-87891225D01*
X151806223Y-87976916D01*
X152100000Y-88005851D01*
X152173619Y-87998600D01*
X152772523Y-87998600D01*
X152831331Y-97586800D01*
X150232251Y-97586800D01*
X149740512Y-97095061D01*
X149730968Y-97083432D01*
X149684557Y-97045342D01*
X149631606Y-97017040D01*
X149574151Y-96999611D01*
X149529366Y-96995200D01*
X149529358Y-96995200D01*
X149514400Y-96993727D01*
X149499442Y-96995200D01*
X143226252Y-96995200D01*
X141861500Y-95630449D01*
X141861500Y-93317651D01*
X141957409Y-93253566D01*
X142044966Y-93166009D01*
X142113759Y-93063054D01*
X142161144Y-92948656D01*
X142185300Y-92827212D01*
X142185300Y-92703388D01*
X142161144Y-92581944D01*
X142113759Y-92467546D01*
X142044966Y-92364591D01*
X141957409Y-92277034D01*
X141854454Y-92208241D01*
X141774543Y-92175141D01*
X141738669Y-86326200D01*
X143021117Y-86326200D01*
X143001400Y-86526382D01*
X143001400Y-86526382D01*
G37*
X143001400Y-86526382D02*
X143001400Y-86526388D01*
X142994150Y-86600000D01*
X143001400Y-86673612D01*
X143001400Y-88402119D01*
X143023085Y-88622277D01*
X143108776Y-88904764D01*
X143247932Y-89165106D01*
X143435204Y-89393297D01*
X143663395Y-89580569D01*
X143923737Y-89719725D01*
X144206224Y-89805416D01*
X144500000Y-89834351D01*
X144793777Y-89805416D01*
X145076264Y-89719725D01*
X145336606Y-89580569D01*
X145564797Y-89393297D01*
X145752069Y-89165106D01*
X145891225Y-88904764D01*
X145976916Y-88622277D01*
X145998600Y-88402119D01*
X145998600Y-87220739D01*
X146620740Y-86598600D01*
X150179261Y-86598600D01*
X150768314Y-87187654D01*
X150847931Y-87336606D01*
X150991649Y-87511726D01*
X151035203Y-87564797D01*
X151263394Y-87752069D01*
X151523736Y-87891225D01*
X151806223Y-87976916D01*
X152100000Y-88005851D01*
X152173619Y-87998600D01*
X152772523Y-87998600D01*
X152831331Y-97586800D01*
X150232251Y-97586800D01*
X149740512Y-97095061D01*
X149730968Y-97083432D01*
X149684557Y-97045342D01*
X149631606Y-97017040D01*
X149574151Y-96999611D01*
X149529366Y-96995200D01*
X149529358Y-96995200D01*
X149514400Y-96993727D01*
X149499442Y-96995200D01*
X143226252Y-96995200D01*
X141861500Y-95630449D01*
X141861500Y-93317651D01*
X141957409Y-93253566D01*
X142044966Y-93166009D01*
X142113759Y-93063054D01*
X142161144Y-92948656D01*
X142185300Y-92827212D01*
X142185300Y-92703388D01*
X142161144Y-92581944D01*
X142113759Y-92467546D01*
X142044966Y-92364591D01*
X141957409Y-92277034D01*
X141854454Y-92208241D01*
X141774543Y-92175141D01*
X141738669Y-86326200D01*
X143021117Y-86326200D01*
X143001400Y-86526382D01*
G36*
X161523084Y-86793776D02*
G01*
X161608775Y-87076263D01*
X161747931Y-87336605D01*
X161935203Y-87564797D01*
X162163394Y-87752069D01*
X162423736Y-87891225D01*
X162706223Y-87976916D01*
X163000000Y-88005851D01*
X163293776Y-87976916D01*
X163576263Y-87891225D01*
X163836605Y-87752069D01*
X164064797Y-87564797D01*
X164111730Y-87507609D01*
X164267927Y-87351412D01*
X164324875Y-97586800D01*
X157348904Y-97586800D01*
X156409600Y-96647497D01*
X156409600Y-90365339D01*
X156465921Y-90259968D01*
X156500779Y-90145058D01*
X156509600Y-90055497D01*
X156509600Y-90055496D01*
X156512549Y-90025557D01*
X156509600Y-89995618D01*
X156509600Y-89701906D01*
X156736606Y-89580569D01*
X156964797Y-89393297D01*
X157152069Y-89165106D01*
X157291225Y-88904764D01*
X157376916Y-88622277D01*
X157405851Y-88328500D01*
X157398600Y-88254881D01*
X157398600Y-87320739D01*
X158120740Y-86598600D01*
X161503861Y-86598600D01*
X161523084Y-86793776D01*
X161523084Y-86793776D01*
G37*
X161523084Y-86793776D02*
X161608775Y-87076263D01*
X161747931Y-87336605D01*
X161935203Y-87564797D01*
X162163394Y-87752069D01*
X162423736Y-87891225D01*
X162706223Y-87976916D01*
X163000000Y-88005851D01*
X163293776Y-87976916D01*
X163576263Y-87891225D01*
X163836605Y-87752069D01*
X164064797Y-87564797D01*
X164111730Y-87507609D01*
X164267927Y-87351412D01*
X164324875Y-97586800D01*
X157348904Y-97586800D01*
X156409600Y-96647497D01*
X156409600Y-90365339D01*
X156465921Y-90259968D01*
X156500779Y-90145058D01*
X156509600Y-90055497D01*
X156509600Y-90055496D01*
X156512549Y-90025557D01*
X156509600Y-89995618D01*
X156509600Y-89701906D01*
X156736606Y-89580569D01*
X156964797Y-89393297D01*
X157152069Y-89165106D01*
X157291225Y-88904764D01*
X157376916Y-88622277D01*
X157405851Y-88328500D01*
X157398600Y-88254881D01*
X157398600Y-87320739D01*
X158120740Y-86598600D01*
X161503861Y-86598600D01*
X161523084Y-86793776D01*
D21*
G36*
X201095601Y-129895497D02*
G01*
X180252091Y-129888402D01*
X183569994Y-126570500D01*
X183990466Y-126570500D01*
X183957530Y-126597530D01*
X183816395Y-126769503D01*
X183711522Y-126965706D01*
X183646942Y-127178599D01*
X183625136Y-127400000D01*
X183646942Y-127621401D01*
X183711522Y-127834294D01*
X183816395Y-128030497D01*
X183957530Y-128202470D01*
X184129503Y-128343605D01*
X184325706Y-128448478D01*
X184538599Y-128513058D01*
X184704523Y-128529400D01*
X184815477Y-128529400D01*
X184981401Y-128513058D01*
X185194294Y-128448478D01*
X185390497Y-128343605D01*
X185562470Y-128202470D01*
X185703605Y-128030497D01*
X185808478Y-127834294D01*
X185873058Y-127621401D01*
X185894864Y-127400000D01*
X185873058Y-127178599D01*
X185808478Y-126965706D01*
X185703605Y-126769503D01*
X185562470Y-126597530D01*
X185529534Y-126570500D01*
X186530466Y-126570500D01*
X186497530Y-126597530D01*
X186356395Y-126769503D01*
X186251522Y-126965706D01*
X186186942Y-127178599D01*
X186165136Y-127400000D01*
X186186942Y-127621401D01*
X186251522Y-127834294D01*
X186356395Y-128030497D01*
X186497530Y-128202470D01*
X186669503Y-128343605D01*
X186865706Y-128448478D01*
X187078599Y-128513058D01*
X187244523Y-128529400D01*
X187355477Y-128529400D01*
X187521401Y-128513058D01*
X187734294Y-128448478D01*
X187930497Y-128343605D01*
X188102470Y-128202470D01*
X188243605Y-128030497D01*
X188348478Y-127834294D01*
X188355000Y-127812794D01*
X188355000Y-128312542D01*
X188379403Y-128435223D01*
X188427270Y-128550785D01*
X188496763Y-128654789D01*
X188585211Y-128743237D01*
X188689215Y-128812730D01*
X188804777Y-128860597D01*
X188927458Y-128885000D01*
X189554250Y-128885000D01*
X189713000Y-128726250D01*
X189713000Y-127527000D01*
X189967000Y-127527000D01*
X189967000Y-128726250D01*
X190125750Y-128885000D01*
X190752542Y-128885000D01*
X190875223Y-128860597D01*
X190990785Y-128812730D01*
X191094789Y-128743237D01*
X191183237Y-128654789D01*
X191252730Y-128550785D01*
X191300597Y-128435223D01*
X191325000Y-128312542D01*
X191325000Y-127685750D01*
X191166250Y-127527000D01*
X189967000Y-127527000D01*
X189713000Y-127527000D01*
X189693000Y-127527000D01*
X189693000Y-127273000D01*
X189713000Y-127273000D01*
X189713000Y-126073750D01*
X189967000Y-126073750D01*
X189967000Y-127273000D01*
X191166250Y-127273000D01*
X191325000Y-127114250D01*
X191325000Y-126487458D01*
X191300597Y-126364777D01*
X191252730Y-126249215D01*
X191183237Y-126145211D01*
X191094789Y-126056763D01*
X190990785Y-125987270D01*
X190875223Y-125939403D01*
X190752542Y-125915000D01*
X190125750Y-125915000D01*
X189967000Y-126073750D01*
X189713000Y-126073750D01*
X189668772Y-126029522D01*
X189983399Y-125714895D01*
X195320600Y-125714895D01*
X195320600Y-126085105D01*
X195392824Y-126448201D01*
X195534497Y-126790230D01*
X195740174Y-127098048D01*
X196001952Y-127359826D01*
X196309770Y-127565503D01*
X196651799Y-127707176D01*
X197014895Y-127779400D01*
X197385105Y-127779400D01*
X197748201Y-127707176D01*
X198090230Y-127565503D01*
X198398048Y-127359826D01*
X198659826Y-127098048D01*
X198865503Y-126790230D01*
X199007176Y-126448201D01*
X199079400Y-126085105D01*
X199079400Y-125714895D01*
X199007176Y-125351799D01*
X198865503Y-125009770D01*
X198659826Y-124701952D01*
X198398048Y-124440174D01*
X198090230Y-124234497D01*
X197748201Y-124092824D01*
X197385105Y-124020600D01*
X197014895Y-124020600D01*
X196651799Y-124092824D01*
X196309770Y-124234497D01*
X196001952Y-124440174D01*
X195740174Y-124701952D01*
X195534497Y-125009770D01*
X195392824Y-125351799D01*
X195320600Y-125714895D01*
X189983399Y-125714895D01*
X191662703Y-124035591D01*
X191676261Y-124024464D01*
X191687389Y-124010905D01*
X191687394Y-124010900D01*
X191703037Y-123991839D01*
X191720700Y-123970317D01*
X191753720Y-123908541D01*
X191774053Y-123841511D01*
X191779199Y-123789264D01*
X191779199Y-123789256D01*
X191780918Y-123771801D01*
X191779199Y-123754346D01*
X191779199Y-117781051D01*
X191780918Y-117763598D01*
X191779199Y-117746145D01*
X191779199Y-117746136D01*
X191774053Y-117693889D01*
X191753720Y-117626859D01*
X191720700Y-117565083D01*
X191713112Y-117555837D01*
X191687394Y-117524499D01*
X191687389Y-117524494D01*
X191676262Y-117510936D01*
X191662704Y-117499809D01*
X191579762Y-117416867D01*
X191621103Y-117339523D01*
X191645298Y-117259764D01*
X191743036Y-117535978D01*
X191893183Y-117788488D01*
X192089707Y-118006854D01*
X192325056Y-118182684D01*
X192590186Y-118309222D01*
X192740974Y-118354958D01*
X192973000Y-118233817D01*
X192973000Y-117027000D01*
X193227000Y-117027000D01*
X193227000Y-118233817D01*
X193459026Y-118354958D01*
X193609814Y-118309222D01*
X193874944Y-118182684D01*
X194110293Y-118006854D01*
X194306817Y-117788488D01*
X194456964Y-117535978D01*
X194554963Y-117259027D01*
X194434464Y-117027000D01*
X193227000Y-117027000D01*
X192973000Y-117027000D01*
X192953000Y-117027000D01*
X192953000Y-116773000D01*
X192973000Y-116773000D01*
X192973000Y-116753000D01*
X193227000Y-116753000D01*
X193227000Y-116773000D01*
X194434464Y-116773000D01*
X194554963Y-116540973D01*
X194456964Y-116264022D01*
X194306817Y-116011512D01*
X194110293Y-115793146D01*
X193874944Y-115617316D01*
X193609814Y-115490778D01*
X193459816Y-115445282D01*
X193539523Y-115421103D01*
X193738089Y-115314968D01*
X193912133Y-115172133D01*
X194054968Y-114998089D01*
X194161103Y-114799523D01*
X194226461Y-114584067D01*
X194248530Y-114360000D01*
X194226461Y-114135933D01*
X194161103Y-113920477D01*
X194054968Y-113721911D01*
X193912133Y-113547867D01*
X193738089Y-113405032D01*
X193539523Y-113298897D01*
X193324067Y-113233539D01*
X193156146Y-113217000D01*
X193043854Y-113217000D01*
X192875933Y-113233539D01*
X192660477Y-113298897D01*
X192461911Y-113405032D01*
X192287867Y-113547867D01*
X192145032Y-113721911D01*
X192038897Y-113920477D01*
X191973539Y-114135933D01*
X191951470Y-114360000D01*
X191973539Y-114584067D01*
X192038897Y-114799523D01*
X192145032Y-114998089D01*
X192287867Y-115172133D01*
X192461911Y-115314968D01*
X192660477Y-115421103D01*
X192740184Y-115445282D01*
X192590186Y-115490778D01*
X192325056Y-115617316D01*
X192089707Y-115793146D01*
X191893183Y-116011512D01*
X191743036Y-116264022D01*
X191645298Y-116540236D01*
X191621103Y-116460477D01*
X191514968Y-116261911D01*
X191372133Y-116087867D01*
X191198089Y-115945032D01*
X190999523Y-115838897D01*
X190784067Y-115773539D01*
X190616146Y-115757000D01*
X190503854Y-115757000D01*
X190335933Y-115773539D01*
X190120477Y-115838897D01*
X189921911Y-115945032D01*
X189823000Y-116026207D01*
X189823000Y-115233793D01*
X189921911Y-115314968D01*
X190120477Y-115421103D01*
X190335933Y-115486461D01*
X190503854Y-115503000D01*
X190616146Y-115503000D01*
X190784067Y-115486461D01*
X190999523Y-115421103D01*
X191198089Y-115314968D01*
X191372133Y-115172133D01*
X191514968Y-114998089D01*
X191621103Y-114799523D01*
X191686461Y-114584067D01*
X191708530Y-114360000D01*
X191686461Y-114135933D01*
X191621103Y-113920477D01*
X191514968Y-113721911D01*
X191372133Y-113547867D01*
X191220400Y-113423342D01*
X191220400Y-104096438D01*
X191223595Y-104063999D01*
X191210844Y-103934539D01*
X191199474Y-103897058D01*
X191173082Y-103810053D01*
X191111759Y-103695326D01*
X191029233Y-103594767D01*
X191004029Y-103574083D01*
X174552618Y-87122672D01*
X174531933Y-87097467D01*
X174431374Y-87014941D01*
X174316647Y-86953618D01*
X174192161Y-86915856D01*
X174095139Y-86906300D01*
X174062700Y-86903105D01*
X174030261Y-86906300D01*
X172054400Y-86906300D01*
X172054400Y-86881106D01*
X172061896Y-86804999D01*
X172051554Y-86700000D01*
X172031981Y-86501265D01*
X171943384Y-86209202D01*
X171799512Y-85940035D01*
X171605892Y-85704108D01*
X171546775Y-85655592D01*
X169949412Y-84058230D01*
X169900892Y-83999108D01*
X169664965Y-83805488D01*
X169395798Y-83661616D01*
X169103735Y-83573019D01*
X168876109Y-83550600D01*
X168876106Y-83550600D01*
X168800000Y-83543104D01*
X168723894Y-83550600D01*
X164476106Y-83550600D01*
X164400000Y-83543104D01*
X164323893Y-83550600D01*
X157576109Y-83550600D01*
X157500000Y-83543104D01*
X157196264Y-83573019D01*
X156904201Y-83661616D01*
X156760329Y-83738517D01*
X156635035Y-83805488D01*
X156399108Y-83999108D01*
X156350587Y-84058231D01*
X155050811Y-85358007D01*
X154977739Y-85298039D01*
X154865142Y-85205607D01*
X154865050Y-85205558D01*
X154864965Y-85205488D01*
X154725921Y-85131168D01*
X154595994Y-85061698D01*
X154595895Y-85061668D01*
X154595798Y-85061616D01*
X154446169Y-85016226D01*
X154303944Y-84973061D01*
X154303839Y-84973051D01*
X154303735Y-84973019D01*
X154150105Y-84957888D01*
X154000212Y-84943104D01*
X153923998Y-84950600D01*
X152841782Y-84950600D01*
X151949413Y-84058231D01*
X151900892Y-83999108D01*
X151664965Y-83805488D01*
X151395798Y-83661616D01*
X151103735Y-83573019D01*
X150876109Y-83550600D01*
X150876106Y-83550600D01*
X150800000Y-83543104D01*
X150723894Y-83550600D01*
X146076106Y-83550600D01*
X145999999Y-83543104D01*
X145923893Y-83550600D01*
X145923891Y-83550600D01*
X145696265Y-83573019D01*
X145404202Y-83661616D01*
X145135035Y-83805488D01*
X144899108Y-83999108D01*
X144850592Y-84058225D01*
X143458230Y-85450588D01*
X143399108Y-85499108D01*
X143205488Y-85735036D01*
X143079577Y-85970600D01*
X141662000Y-85970600D01*
X141605812Y-85976308D01*
X141553497Y-85992529D01*
X141505352Y-86018644D01*
X141463226Y-86053650D01*
X141428740Y-86096201D01*
X141403217Y-86144663D01*
X141387639Y-86197173D01*
X141382605Y-86251714D01*
X141418475Y-92100084D01*
X141358526Y-92112009D01*
X141234884Y-92163224D01*
X141123608Y-92237576D01*
X141028976Y-92332208D01*
X140954624Y-92443484D01*
X140903409Y-92567126D01*
X140877300Y-92698385D01*
X140877300Y-92832215D01*
X140903409Y-92963474D01*
X140954624Y-93087116D01*
X141028976Y-93198392D01*
X141123608Y-93293024D01*
X141201101Y-93344803D01*
X141201100Y-95739244D01*
X141199381Y-95756700D01*
X141201100Y-95774155D01*
X141201100Y-95774162D01*
X141206246Y-95826409D01*
X141226579Y-95893439D01*
X141259599Y-95955215D01*
X141304037Y-96009362D01*
X141317602Y-96020495D01*
X141443291Y-96146184D01*
X141449601Y-97174900D01*
X138602102Y-97174900D01*
X138550324Y-97097408D01*
X138455692Y-97002776D01*
X138344416Y-96928424D01*
X138220774Y-96877209D01*
X138089515Y-96851100D01*
X137955685Y-96851100D01*
X137824426Y-96877209D01*
X137700784Y-96928424D01*
X137589508Y-97002776D01*
X137494876Y-97097408D01*
X137420524Y-97208684D01*
X137369309Y-97332326D01*
X137343200Y-97463585D01*
X137343200Y-97597415D01*
X137369309Y-97728674D01*
X137420524Y-97852316D01*
X137494876Y-97963592D01*
X137589508Y-98058224D01*
X137700784Y-98132576D01*
X137824426Y-98183791D01*
X137955685Y-98209900D01*
X138089515Y-98209900D01*
X138220774Y-98183791D01*
X138344416Y-98132576D01*
X138455692Y-98058224D01*
X138550324Y-97963592D01*
X138602102Y-97886100D01*
X141565548Y-97886100D01*
X141576774Y-97895313D01*
X141625078Y-97921132D01*
X141677492Y-97937031D01*
X141732000Y-97942400D01*
X142861623Y-97942400D01*
X142904034Y-97955265D01*
X142956281Y-97960411D01*
X142956289Y-97960411D01*
X142973744Y-97962130D01*
X142991199Y-97960411D01*
X148757918Y-97960411D01*
X157784082Y-106986577D01*
X157765900Y-107077985D01*
X157765900Y-107211815D01*
X157792009Y-107343074D01*
X157843224Y-107466716D01*
X157917576Y-107577992D01*
X158012208Y-107672624D01*
X158123484Y-107746976D01*
X158247126Y-107798191D01*
X158378385Y-107824300D01*
X158512215Y-107824300D01*
X158643474Y-107798191D01*
X158744901Y-107756178D01*
X158744900Y-109166734D01*
X158705015Y-109158800D01*
X158571185Y-109158800D01*
X158439926Y-109184909D01*
X158316284Y-109236124D01*
X158205008Y-109310476D01*
X158110376Y-109405108D01*
X158036024Y-109516384D01*
X157984809Y-109640026D01*
X157958700Y-109771285D01*
X157958700Y-109905115D01*
X157984809Y-110036374D01*
X158036024Y-110160016D01*
X158110376Y-110271292D01*
X158205008Y-110365924D01*
X158316284Y-110440276D01*
X158439926Y-110491491D01*
X158571185Y-110517600D01*
X158705015Y-110517600D01*
X158836274Y-110491491D01*
X158959916Y-110440276D01*
X159071192Y-110365924D01*
X159165824Y-110271292D01*
X159240176Y-110160016D01*
X159291391Y-110036374D01*
X159317500Y-109905115D01*
X159317500Y-109771285D01*
X159299318Y-109679877D01*
X159327701Y-109651494D01*
X159327701Y-111798136D01*
X159307226Y-111802209D01*
X159183584Y-111853424D01*
X159072308Y-111927776D01*
X158977676Y-112022408D01*
X158903324Y-112133684D01*
X158867225Y-112220832D01*
X157809700Y-111163307D01*
X157809700Y-109890952D01*
X157811419Y-109873499D01*
X157809700Y-109856046D01*
X157809700Y-109856037D01*
X157804554Y-109803790D01*
X157784221Y-109736760D01*
X157751201Y-109674984D01*
X157727086Y-109645600D01*
X157717895Y-109634400D01*
X157717890Y-109634395D01*
X157706763Y-109620837D01*
X157693205Y-109609710D01*
X157090798Y-109007305D01*
X157079663Y-108993737D01*
X157025516Y-108949299D01*
X156963740Y-108916279D01*
X156896710Y-108895946D01*
X156844463Y-108890800D01*
X156844455Y-108890800D01*
X156827000Y-108889081D01*
X156809545Y-108890800D01*
X140994902Y-108890800D01*
X140943124Y-108813308D01*
X140848492Y-108718676D01*
X140737216Y-108644324D01*
X140613574Y-108593109D01*
X140482315Y-108567000D01*
X140348485Y-108567000D01*
X140217226Y-108593109D01*
X140093584Y-108644324D01*
X139982308Y-108718676D01*
X139887676Y-108813308D01*
X139813324Y-108924584D01*
X139762109Y-109048226D01*
X139736000Y-109179485D01*
X139736000Y-109313315D01*
X139762109Y-109444574D01*
X139813324Y-109568216D01*
X139887676Y-109679492D01*
X139982308Y-109774124D01*
X140093584Y-109848476D01*
X140217226Y-109899691D01*
X140348485Y-109925800D01*
X140482315Y-109925800D01*
X140613574Y-109899691D01*
X140737216Y-109848476D01*
X140848492Y-109774124D01*
X140943124Y-109679492D01*
X140994902Y-109602000D01*
X147171435Y-109602000D01*
X147136560Y-109612579D01*
X147074784Y-109645599D01*
X147020637Y-109690037D01*
X147009506Y-109703600D01*
X137602225Y-119110882D01*
X137510815Y-119092700D01*
X137376985Y-119092700D01*
X137245726Y-119118809D01*
X137122084Y-119170024D01*
X137010808Y-119244376D01*
X136916176Y-119339008D01*
X136841824Y-119450284D01*
X136790609Y-119573926D01*
X136764500Y-119705185D01*
X136764500Y-119839015D01*
X136790609Y-119970274D01*
X136841824Y-120093916D01*
X136916176Y-120205192D01*
X137010808Y-120299824D01*
X137122084Y-120374176D01*
X137245726Y-120425391D01*
X137376985Y-120451500D01*
X137510815Y-120451500D01*
X137642074Y-120425391D01*
X137765716Y-120374176D01*
X137876992Y-120299824D01*
X137971624Y-120205192D01*
X138045976Y-120093916D01*
X138097191Y-119970274D01*
X138123300Y-119839015D01*
X138123300Y-119705185D01*
X138105118Y-119613775D01*
X147420594Y-110298300D01*
X155029998Y-110298300D01*
X155081776Y-110375792D01*
X155176408Y-110470424D01*
X155287684Y-110544776D01*
X155411326Y-110595991D01*
X155542585Y-110622100D01*
X155676415Y-110622100D01*
X155807674Y-110595991D01*
X155826400Y-110588234D01*
X155826400Y-111326516D01*
X155824916Y-111325524D01*
X155701274Y-111274309D01*
X155570015Y-111248200D01*
X155436185Y-111248200D01*
X155304926Y-111274309D01*
X155181284Y-111325524D01*
X155070008Y-111399876D01*
X154975376Y-111494508D01*
X154901024Y-111605784D01*
X154849809Y-111729426D01*
X154823700Y-111860685D01*
X154823700Y-111994515D01*
X154849809Y-112125774D01*
X154901024Y-112249416D01*
X154975376Y-112360692D01*
X155070008Y-112455324D01*
X155147501Y-112507103D01*
X155147500Y-113878244D01*
X155145781Y-113895700D01*
X155147500Y-113913155D01*
X155147500Y-113913162D01*
X155152646Y-113965409D01*
X155172979Y-114032439D01*
X155205999Y-114094215D01*
X155250437Y-114148362D01*
X155264001Y-114159494D01*
X155522706Y-114418200D01*
X155445085Y-114418200D01*
X155313826Y-114444309D01*
X155190184Y-114495524D01*
X155078908Y-114569876D01*
X154984276Y-114664508D01*
X154909924Y-114775784D01*
X154858709Y-114899426D01*
X154832600Y-115030685D01*
X154832600Y-115164515D01*
X154858709Y-115295774D01*
X154909924Y-115419416D01*
X154984276Y-115530692D01*
X155078908Y-115625324D01*
X155156401Y-115677103D01*
X155156401Y-116797985D01*
X155130492Y-116772076D01*
X155019216Y-116697724D01*
X154895574Y-116646509D01*
X154764315Y-116620400D01*
X154630485Y-116620400D01*
X154499226Y-116646509D01*
X154375584Y-116697724D01*
X154264308Y-116772076D01*
X154169676Y-116866708D01*
X154095324Y-116977984D01*
X154044109Y-117101626D01*
X154018000Y-117232885D01*
X154018000Y-117366715D01*
X154044109Y-117497974D01*
X154095324Y-117621616D01*
X154169676Y-117732892D01*
X154264308Y-117827524D01*
X154341800Y-117879302D01*
X154341801Y-122524976D01*
X154332300Y-122534477D01*
X154318736Y-122545609D01*
X154274298Y-122599756D01*
X154241278Y-122661532D01*
X154220945Y-122728562D01*
X154215799Y-122780809D01*
X154215799Y-122780816D01*
X154214080Y-122798271D01*
X154215799Y-122815727D01*
X154215800Y-123274303D01*
X153695800Y-122754304D01*
X153695800Y-116995702D01*
X153773292Y-116943924D01*
X153867924Y-116849292D01*
X153942276Y-116738016D01*
X153993491Y-116614374D01*
X154019600Y-116483115D01*
X154019600Y-116349285D01*
X153993491Y-116218026D01*
X153942276Y-116094384D01*
X153867924Y-115983108D01*
X153773292Y-115888476D01*
X153662016Y-115814124D01*
X153538374Y-115762909D01*
X153407115Y-115736800D01*
X153273285Y-115736800D01*
X153142026Y-115762909D01*
X153018384Y-115814124D01*
X152907108Y-115888476D01*
X152812476Y-115983108D01*
X152738124Y-116094384D01*
X152686909Y-116218026D01*
X152660800Y-116349285D01*
X152660800Y-116483115D01*
X152686909Y-116614374D01*
X152738124Y-116738016D01*
X152812476Y-116849292D01*
X152907108Y-116943924D01*
X152984600Y-116995702D01*
X152984601Y-122884131D01*
X152982881Y-122901597D01*
X152989746Y-122971307D01*
X153010080Y-123038338D01*
X153016071Y-123049546D01*
X153043100Y-123100113D01*
X153087538Y-123154260D01*
X153101101Y-123165391D01*
X154608219Y-124672510D01*
X154619352Y-124686075D01*
X154632915Y-124697206D01*
X154632916Y-124697207D01*
X154633416Y-124697617D01*
X154673499Y-124730513D01*
X154735275Y-124763533D01*
X154802305Y-124783866D01*
X154854552Y-124789012D01*
X154854560Y-124789012D01*
X154872015Y-124790731D01*
X154889470Y-124789012D01*
X155252821Y-124789012D01*
X160345432Y-129881626D01*
X128256900Y-129870704D01*
X128256900Y-127656000D01*
X129472136Y-127656000D01*
X129493942Y-127877401D01*
X129558522Y-128090294D01*
X129663395Y-128286497D01*
X129804530Y-128458470D01*
X129976503Y-128599605D01*
X130172706Y-128704478D01*
X130385599Y-128769058D01*
X130551523Y-128785400D01*
X130662477Y-128785400D01*
X130828401Y-128769058D01*
X131041294Y-128704478D01*
X131237497Y-128599605D01*
X131409470Y-128458470D01*
X131423191Y-128441750D01*
X144157000Y-128441750D01*
X144157000Y-129068542D01*
X144181403Y-129191223D01*
X144229270Y-129306785D01*
X144298763Y-129410789D01*
X144387211Y-129499237D01*
X144491215Y-129568730D01*
X144606777Y-129616597D01*
X144729458Y-129641000D01*
X145356250Y-129641000D01*
X145515000Y-129482250D01*
X145515000Y-128283000D01*
X144315750Y-128283000D01*
X144157000Y-128441750D01*
X131423191Y-128441750D01*
X131550605Y-128286497D01*
X131655478Y-128090294D01*
X131720058Y-127877401D01*
X131741864Y-127656000D01*
X131720058Y-127434599D01*
X131662077Y-127243458D01*
X144157000Y-127243458D01*
X144157000Y-127870250D01*
X144315750Y-128029000D01*
X145515000Y-128029000D01*
X145515000Y-126829750D01*
X145769000Y-126829750D01*
X145769000Y-128029000D01*
X145789000Y-128029000D01*
X145789000Y-128283000D01*
X145769000Y-128283000D01*
X145769000Y-129482250D01*
X145927750Y-129641000D01*
X146554542Y-129641000D01*
X146677223Y-129616597D01*
X146792785Y-129568730D01*
X146896789Y-129499237D01*
X146985237Y-129410789D01*
X147054730Y-129306785D01*
X147102597Y-129191223D01*
X147127000Y-129068542D01*
X147127000Y-128568794D01*
X147133522Y-128590294D01*
X147238395Y-128786497D01*
X147379530Y-128958470D01*
X147551503Y-129099605D01*
X147747706Y-129204478D01*
X147960599Y-129269058D01*
X148126523Y-129285400D01*
X148237477Y-129285400D01*
X148403401Y-129269058D01*
X148616294Y-129204478D01*
X148812497Y-129099605D01*
X148984470Y-128958470D01*
X149125605Y-128786497D01*
X149230478Y-128590294D01*
X149279481Y-128428750D01*
X152734000Y-128428750D01*
X152734000Y-129055542D01*
X152758403Y-129178223D01*
X152806270Y-129293785D01*
X152875763Y-129397789D01*
X152964211Y-129486237D01*
X153068215Y-129555730D01*
X153183777Y-129603597D01*
X153306458Y-129628000D01*
X153933250Y-129628000D01*
X154092000Y-129469250D01*
X154092000Y-128270000D01*
X152892750Y-128270000D01*
X152734000Y-128428750D01*
X149279481Y-128428750D01*
X149295058Y-128377401D01*
X149316864Y-128156000D01*
X149295058Y-127934599D01*
X149230478Y-127721706D01*
X149125605Y-127525503D01*
X148984470Y-127353530D01*
X148834507Y-127230458D01*
X152734000Y-127230458D01*
X152734000Y-127857250D01*
X152892750Y-128016000D01*
X154092000Y-128016000D01*
X154092000Y-126816750D01*
X154346000Y-126816750D01*
X154346000Y-128016000D01*
X154366000Y-128016000D01*
X154366000Y-128270000D01*
X154346000Y-128270000D01*
X154346000Y-129469250D01*
X154504750Y-129628000D01*
X155131542Y-129628000D01*
X155254223Y-129603597D01*
X155369785Y-129555730D01*
X155473789Y-129486237D01*
X155562237Y-129397789D01*
X155631730Y-129293785D01*
X155679597Y-129178223D01*
X155704000Y-129055542D01*
X155704000Y-128555794D01*
X155710522Y-128577294D01*
X155815395Y-128773497D01*
X155956530Y-128945470D01*
X156128503Y-129086605D01*
X156324706Y-129191478D01*
X156537599Y-129256058D01*
X156703523Y-129272400D01*
X156814477Y-129272400D01*
X156980401Y-129256058D01*
X157193294Y-129191478D01*
X157389497Y-129086605D01*
X157561470Y-128945470D01*
X157702605Y-128773497D01*
X157807478Y-128577294D01*
X157872058Y-128364401D01*
X157893864Y-128143000D01*
X157872058Y-127921599D01*
X157807478Y-127708706D01*
X157702605Y-127512503D01*
X157561470Y-127340530D01*
X157389497Y-127199395D01*
X157193294Y-127094522D01*
X156980401Y-127029942D01*
X156814477Y-127013600D01*
X156703523Y-127013600D01*
X156537599Y-127029942D01*
X156324706Y-127094522D01*
X156128503Y-127199395D01*
X155956530Y-127340530D01*
X155815395Y-127512503D01*
X155710522Y-127708706D01*
X155704000Y-127730206D01*
X155704000Y-127230458D01*
X155679597Y-127107777D01*
X155631730Y-126992215D01*
X155562237Y-126888211D01*
X155473789Y-126799763D01*
X155369785Y-126730270D01*
X155254223Y-126682403D01*
X155131542Y-126658000D01*
X154504750Y-126658000D01*
X154346000Y-126816750D01*
X154092000Y-126816750D01*
X153933250Y-126658000D01*
X153306458Y-126658000D01*
X153183777Y-126682403D01*
X153068215Y-126730270D01*
X152964211Y-126799763D01*
X152875763Y-126888211D01*
X152806270Y-126992215D01*
X152758403Y-127107777D01*
X152734000Y-127230458D01*
X148834507Y-127230458D01*
X148812497Y-127212395D01*
X148616294Y-127107522D01*
X148403401Y-127042942D01*
X148237477Y-127026600D01*
X148126523Y-127026600D01*
X147960599Y-127042942D01*
X147747706Y-127107522D01*
X147551503Y-127212395D01*
X147379530Y-127353530D01*
X147238395Y-127525503D01*
X147133522Y-127721706D01*
X147127000Y-127743206D01*
X147127000Y-127243458D01*
X147102597Y-127120777D01*
X147054730Y-127005215D01*
X146985237Y-126901211D01*
X146896789Y-126812763D01*
X146792785Y-126743270D01*
X146677223Y-126695403D01*
X146554542Y-126671000D01*
X145927750Y-126671000D01*
X145769000Y-126829750D01*
X145515000Y-126829750D01*
X145356250Y-126671000D01*
X144729458Y-126671000D01*
X144606777Y-126695403D01*
X144491215Y-126743270D01*
X144387211Y-126812763D01*
X144298763Y-126901211D01*
X144229270Y-127005215D01*
X144181403Y-127120777D01*
X144157000Y-127243458D01*
X131662077Y-127243458D01*
X131655478Y-127221706D01*
X131550605Y-127025503D01*
X131409470Y-126853530D01*
X131237497Y-126712395D01*
X131041294Y-126607522D01*
X130828401Y-126542942D01*
X130662477Y-126526600D01*
X130551523Y-126526600D01*
X130385599Y-126542942D01*
X130172706Y-126607522D01*
X129976503Y-126712395D01*
X129804530Y-126853530D01*
X129663395Y-127025503D01*
X129558522Y-127221706D01*
X129493942Y-127434599D01*
X129472136Y-127656000D01*
X128256900Y-127656000D01*
X128256900Y-125116000D01*
X129472136Y-125116000D01*
X129493942Y-125337401D01*
X129558522Y-125550294D01*
X129663395Y-125746497D01*
X129804530Y-125918470D01*
X129976503Y-126059605D01*
X130172706Y-126164478D01*
X130385599Y-126229058D01*
X130551523Y-126245400D01*
X130662477Y-126245400D01*
X130828401Y-126229058D01*
X131041294Y-126164478D01*
X131237497Y-126059605D01*
X131409470Y-125918470D01*
X131550605Y-125746497D01*
X131655478Y-125550294D01*
X131720058Y-125337401D01*
X131741864Y-125116000D01*
X131720058Y-124894599D01*
X131655478Y-124681706D01*
X131550605Y-124485503D01*
X131409470Y-124313530D01*
X131237497Y-124172395D01*
X131041294Y-124067522D01*
X130828401Y-124002942D01*
X130662477Y-123986600D01*
X130551523Y-123986600D01*
X130385599Y-124002942D01*
X130172706Y-124067522D01*
X129976503Y-124172395D01*
X129804530Y-124313530D01*
X129663395Y-124485503D01*
X129558522Y-124681706D01*
X129493942Y-124894599D01*
X129472136Y-125116000D01*
X128256900Y-125116000D01*
X128256900Y-121726000D01*
X129476249Y-121726000D01*
X129476249Y-123426000D01*
X129481644Y-123480772D01*
X129497620Y-123533439D01*
X129523564Y-123581977D01*
X129558479Y-123624521D01*
X129601023Y-123659436D01*
X129649561Y-123685380D01*
X129702228Y-123701356D01*
X129757000Y-123706751D01*
X131457000Y-123706751D01*
X131511772Y-123701356D01*
X131564439Y-123685380D01*
X131612977Y-123659436D01*
X131655521Y-123624521D01*
X131690436Y-123581977D01*
X131716380Y-123533439D01*
X131732356Y-123480772D01*
X131737751Y-123426000D01*
X131737751Y-121861895D01*
X140487600Y-121861895D01*
X140487600Y-122232105D01*
X140559824Y-122595201D01*
X140701497Y-122937230D01*
X140907174Y-123245048D01*
X141168952Y-123506826D01*
X141476770Y-123712503D01*
X141818799Y-123854176D01*
X142181895Y-123926400D01*
X142552105Y-123926400D01*
X142915201Y-123854176D01*
X143116766Y-123770685D01*
X149789000Y-123770685D01*
X149789000Y-123904515D01*
X149815109Y-124035774D01*
X149866324Y-124159416D01*
X149940676Y-124270692D01*
X150035308Y-124365324D01*
X150146584Y-124439676D01*
X150270226Y-124490891D01*
X150401485Y-124517000D01*
X150535315Y-124517000D01*
X150666574Y-124490891D01*
X150790216Y-124439676D01*
X150901492Y-124365324D01*
X150996124Y-124270692D01*
X151070476Y-124159416D01*
X151121691Y-124035774D01*
X151147800Y-123904515D01*
X151147800Y-123770685D01*
X151129618Y-123679277D01*
X151172709Y-123636186D01*
X151186262Y-123625063D01*
X151197385Y-123611510D01*
X151197395Y-123611500D01*
X151230700Y-123570917D01*
X151230702Y-123570915D01*
X151263721Y-123509140D01*
X151277259Y-123464510D01*
X151284054Y-123442111D01*
X151286876Y-123413454D01*
X151289200Y-123389863D01*
X151289200Y-123389856D01*
X151290919Y-123372401D01*
X151289200Y-123354945D01*
X151289200Y-118152802D01*
X151366692Y-118101024D01*
X151461324Y-118006392D01*
X151535676Y-117895116D01*
X151586891Y-117771474D01*
X151613000Y-117640215D01*
X151613000Y-117506385D01*
X151586891Y-117375126D01*
X151535676Y-117251484D01*
X151461324Y-117140208D01*
X151366692Y-117045576D01*
X151255416Y-116971224D01*
X151131774Y-116920009D01*
X151000515Y-116893900D01*
X150866685Y-116893900D01*
X150735426Y-116920009D01*
X150611784Y-116971224D01*
X150500508Y-117045576D01*
X150405876Y-117140208D01*
X150331524Y-117251484D01*
X150280309Y-117375126D01*
X150254200Y-117506385D01*
X150254200Y-117640215D01*
X150280309Y-117771474D01*
X150331524Y-117895116D01*
X150405876Y-118006392D01*
X150500508Y-118101024D01*
X150578001Y-118152803D01*
X150578000Y-123166691D01*
X150535315Y-123158200D01*
X150401485Y-123158200D01*
X150270226Y-123184309D01*
X150146584Y-123235524D01*
X150035308Y-123309876D01*
X149940676Y-123404508D01*
X149866324Y-123515784D01*
X149815109Y-123639426D01*
X149789000Y-123770685D01*
X143116766Y-123770685D01*
X143257230Y-123712503D01*
X143565048Y-123506826D01*
X143826826Y-123245048D01*
X144032503Y-122937230D01*
X144174176Y-122595201D01*
X144246400Y-122232105D01*
X144246400Y-121861895D01*
X144174176Y-121498799D01*
X144032503Y-121156770D01*
X143826826Y-120848952D01*
X143565048Y-120587174D01*
X143257230Y-120381497D01*
X142915201Y-120239824D01*
X142552105Y-120167600D01*
X142181895Y-120167600D01*
X141818799Y-120239824D01*
X141476770Y-120381497D01*
X141168952Y-120587174D01*
X140907174Y-120848952D01*
X140701497Y-121156770D01*
X140559824Y-121498799D01*
X140487600Y-121861895D01*
X131737751Y-121861895D01*
X131737751Y-121726000D01*
X131732356Y-121671228D01*
X131716380Y-121618561D01*
X131690436Y-121570023D01*
X131655521Y-121527479D01*
X131612977Y-121492564D01*
X131564439Y-121466620D01*
X131511772Y-121450644D01*
X131457000Y-121445249D01*
X129757000Y-121445249D01*
X129702228Y-121450644D01*
X129649561Y-121466620D01*
X129601023Y-121492564D01*
X129558479Y-121527479D01*
X129523564Y-121570023D01*
X129497620Y-121618561D01*
X129481644Y-121671228D01*
X129476249Y-121726000D01*
X128256900Y-121726000D01*
X128256900Y-118468000D01*
X129445136Y-118468000D01*
X129466942Y-118689401D01*
X129531522Y-118902294D01*
X129636395Y-119098497D01*
X129777530Y-119270470D01*
X129949503Y-119411605D01*
X130145706Y-119516478D01*
X130358599Y-119581058D01*
X130524523Y-119597400D01*
X130635477Y-119597400D01*
X130801401Y-119581058D01*
X131014294Y-119516478D01*
X131210497Y-119411605D01*
X131382470Y-119270470D01*
X131523605Y-119098497D01*
X131628478Y-118902294D01*
X131693058Y-118689401D01*
X131714864Y-118468000D01*
X131693058Y-118246599D01*
X131628478Y-118033706D01*
X131523605Y-117837503D01*
X131382470Y-117665530D01*
X131210497Y-117524395D01*
X131014294Y-117419522D01*
X130801401Y-117354942D01*
X130635477Y-117338600D01*
X130524523Y-117338600D01*
X130358599Y-117354942D01*
X130145706Y-117419522D01*
X129949503Y-117524395D01*
X129777530Y-117665530D01*
X129636395Y-117837503D01*
X129531522Y-118033706D01*
X129466942Y-118246599D01*
X129445136Y-118468000D01*
X128256900Y-118468000D01*
X128256900Y-115928000D01*
X129445136Y-115928000D01*
X129466942Y-116149401D01*
X129531522Y-116362294D01*
X129636395Y-116558497D01*
X129777530Y-116730470D01*
X129949503Y-116871605D01*
X130145706Y-116976478D01*
X130358599Y-117041058D01*
X130524523Y-117057400D01*
X130635477Y-117057400D01*
X130801401Y-117041058D01*
X131014294Y-116976478D01*
X131210497Y-116871605D01*
X131382470Y-116730470D01*
X131523605Y-116558497D01*
X131628478Y-116362294D01*
X131693058Y-116149401D01*
X131714864Y-115928000D01*
X131693058Y-115706599D01*
X131628478Y-115493706D01*
X131523605Y-115297503D01*
X131382470Y-115125530D01*
X131210497Y-114984395D01*
X131014294Y-114879522D01*
X130801401Y-114814942D01*
X130635477Y-114798600D01*
X130524523Y-114798600D01*
X130358599Y-114814942D01*
X130145706Y-114879522D01*
X129949503Y-114984395D01*
X129777530Y-115125530D01*
X129636395Y-115297503D01*
X129531522Y-115493706D01*
X129466942Y-115706599D01*
X129445136Y-115928000D01*
X128256900Y-115928000D01*
X128256900Y-112538000D01*
X129449249Y-112538000D01*
X129449249Y-114238000D01*
X129454644Y-114292772D01*
X129470620Y-114345439D01*
X129496564Y-114393977D01*
X129531479Y-114436521D01*
X129574023Y-114471436D01*
X129622561Y-114497380D01*
X129675228Y-114513356D01*
X129730000Y-114518751D01*
X131430000Y-114518751D01*
X131484772Y-114513356D01*
X131537439Y-114497380D01*
X131585977Y-114471436D01*
X131628521Y-114436521D01*
X131663436Y-114393977D01*
X131689380Y-114345439D01*
X131705356Y-114292772D01*
X131710751Y-114238000D01*
X131710751Y-112538000D01*
X131705356Y-112483228D01*
X131689380Y-112430561D01*
X131663436Y-112382023D01*
X131628521Y-112339479D01*
X131585977Y-112304564D01*
X131537439Y-112278620D01*
X131484772Y-112262644D01*
X131430000Y-112257249D01*
X129730000Y-112257249D01*
X129675228Y-112262644D01*
X129622561Y-112278620D01*
X129574023Y-112304564D01*
X129531479Y-112339479D01*
X129496564Y-112382023D01*
X129470620Y-112430561D01*
X129454644Y-112483228D01*
X129449249Y-112538000D01*
X128256900Y-112538000D01*
X128256900Y-109261000D01*
X129433136Y-109261000D01*
X129454942Y-109482401D01*
X129519522Y-109695294D01*
X129624395Y-109891497D01*
X129765530Y-110063470D01*
X129937503Y-110204605D01*
X130133706Y-110309478D01*
X130346599Y-110374058D01*
X130512523Y-110390400D01*
X130623477Y-110390400D01*
X130789401Y-110374058D01*
X131002294Y-110309478D01*
X131198497Y-110204605D01*
X131370470Y-110063470D01*
X131511605Y-109891497D01*
X131616478Y-109695294D01*
X131681058Y-109482401D01*
X131702864Y-109261000D01*
X131681058Y-109039599D01*
X131616478Y-108826706D01*
X131511605Y-108630503D01*
X131370470Y-108458530D01*
X131198497Y-108317395D01*
X131002294Y-108212522D01*
X130789401Y-108147942D01*
X130623477Y-108131600D01*
X130512523Y-108131600D01*
X130346599Y-108147942D01*
X130133706Y-108212522D01*
X129937503Y-108317395D01*
X129765530Y-108458530D01*
X129624395Y-108630503D01*
X129519522Y-108826706D01*
X129454942Y-109039599D01*
X129433136Y-109261000D01*
X128256900Y-109261000D01*
X128256900Y-106721000D01*
X129433136Y-106721000D01*
X129454942Y-106942401D01*
X129519522Y-107155294D01*
X129624395Y-107351497D01*
X129765530Y-107523470D01*
X129937503Y-107664605D01*
X130133706Y-107769478D01*
X130346599Y-107834058D01*
X130512523Y-107850400D01*
X130623477Y-107850400D01*
X130789401Y-107834058D01*
X131002294Y-107769478D01*
X131198497Y-107664605D01*
X131370470Y-107523470D01*
X131511605Y-107351497D01*
X131616478Y-107155294D01*
X131681058Y-106942401D01*
X131702864Y-106721000D01*
X131681058Y-106499599D01*
X131616478Y-106286706D01*
X131511605Y-106090503D01*
X131370470Y-105918530D01*
X131198497Y-105777395D01*
X131002294Y-105672522D01*
X130789401Y-105607942D01*
X130623477Y-105591600D01*
X130512523Y-105591600D01*
X130346599Y-105607942D01*
X130133706Y-105672522D01*
X129937503Y-105777395D01*
X129765530Y-105918530D01*
X129624395Y-106090503D01*
X129519522Y-106286706D01*
X129454942Y-106499599D01*
X129433136Y-106721000D01*
X128256900Y-106721000D01*
X128256900Y-103331000D01*
X129437249Y-103331000D01*
X129437249Y-105031000D01*
X129442644Y-105085772D01*
X129458620Y-105138439D01*
X129484564Y-105186977D01*
X129519479Y-105229521D01*
X129562023Y-105264436D01*
X129610561Y-105290380D01*
X129663228Y-105306356D01*
X129718000Y-105311751D01*
X131418000Y-105311751D01*
X131472772Y-105306356D01*
X131525439Y-105290380D01*
X131573977Y-105264436D01*
X131616521Y-105229521D01*
X131651436Y-105186977D01*
X131677380Y-105138439D01*
X131693356Y-105085772D01*
X131698751Y-105031000D01*
X131698751Y-103331000D01*
X131693356Y-103276228D01*
X131677380Y-103223561D01*
X131651436Y-103175023D01*
X131616521Y-103132479D01*
X131573977Y-103097564D01*
X131525439Y-103071620D01*
X131472772Y-103055644D01*
X131418000Y-103050249D01*
X129718000Y-103050249D01*
X129663228Y-103055644D01*
X129610561Y-103071620D01*
X129562023Y-103097564D01*
X129519479Y-103132479D01*
X129484564Y-103175023D01*
X129458620Y-103223561D01*
X129442644Y-103276228D01*
X129437249Y-103331000D01*
X128256900Y-103331000D01*
X128256900Y-94448613D01*
X133145600Y-94448613D01*
X133145600Y-94651387D01*
X133185159Y-94850265D01*
X133262757Y-95037604D01*
X133375413Y-95206204D01*
X133518796Y-95349587D01*
X133687396Y-95462243D01*
X133874735Y-95539841D01*
X134073613Y-95579400D01*
X134276387Y-95579400D01*
X134475265Y-95539841D01*
X134662604Y-95462243D01*
X134831204Y-95349587D01*
X134974587Y-95206204D01*
X135087243Y-95037604D01*
X135164841Y-94850265D01*
X135204400Y-94651387D01*
X135204400Y-94448613D01*
X135164841Y-94249735D01*
X135087243Y-94062396D01*
X134974587Y-93893796D01*
X134831204Y-93750413D01*
X134662604Y-93637757D01*
X134475265Y-93560159D01*
X134276387Y-93520600D01*
X134073613Y-93520600D01*
X133874735Y-93560159D01*
X133687396Y-93637757D01*
X133518796Y-93750413D01*
X133375413Y-93893796D01*
X133262757Y-94062396D01*
X133185159Y-94249735D01*
X133145600Y-94448613D01*
X128256900Y-94448613D01*
X128256900Y-87448613D01*
X133145600Y-87448613D01*
X133145600Y-87651387D01*
X133185159Y-87850265D01*
X133262757Y-88037604D01*
X133375413Y-88206204D01*
X133518796Y-88349587D01*
X133687396Y-88462243D01*
X133874735Y-88539841D01*
X134073613Y-88579400D01*
X134276387Y-88579400D01*
X134475265Y-88539841D01*
X134662604Y-88462243D01*
X134831204Y-88349587D01*
X134974587Y-88206204D01*
X135087243Y-88037604D01*
X135164841Y-87850265D01*
X135204400Y-87651387D01*
X135204400Y-87448613D01*
X135164841Y-87249735D01*
X135087243Y-87062396D01*
X134974587Y-86893796D01*
X134831204Y-86750413D01*
X134662604Y-86637757D01*
X134475265Y-86560159D01*
X134276387Y-86520600D01*
X134073613Y-86520600D01*
X133874735Y-86560159D01*
X133687396Y-86637757D01*
X133518796Y-86750413D01*
X133375413Y-86893796D01*
X133262757Y-87062396D01*
X133185159Y-87249735D01*
X133145600Y-87448613D01*
X128256900Y-87448613D01*
X128256900Y-83425900D01*
X201095600Y-83425900D01*
X201095601Y-129895497D01*
X201095601Y-129895497D01*
G37*
X201095601Y-129895497D02*
X180252091Y-129888402D01*
X183569994Y-126570500D01*
X183990466Y-126570500D01*
X183957530Y-126597530D01*
X183816395Y-126769503D01*
X183711522Y-126965706D01*
X183646942Y-127178599D01*
X183625136Y-127400000D01*
X183646942Y-127621401D01*
X183711522Y-127834294D01*
X183816395Y-128030497D01*
X183957530Y-128202470D01*
X184129503Y-128343605D01*
X184325706Y-128448478D01*
X184538599Y-128513058D01*
X184704523Y-128529400D01*
X184815477Y-128529400D01*
X184981401Y-128513058D01*
X185194294Y-128448478D01*
X185390497Y-128343605D01*
X185562470Y-128202470D01*
X185703605Y-128030497D01*
X185808478Y-127834294D01*
X185873058Y-127621401D01*
X185894864Y-127400000D01*
X185873058Y-127178599D01*
X185808478Y-126965706D01*
X185703605Y-126769503D01*
X185562470Y-126597530D01*
X185529534Y-126570500D01*
X186530466Y-126570500D01*
X186497530Y-126597530D01*
X186356395Y-126769503D01*
X186251522Y-126965706D01*
X186186942Y-127178599D01*
X186165136Y-127400000D01*
X186186942Y-127621401D01*
X186251522Y-127834294D01*
X186356395Y-128030497D01*
X186497530Y-128202470D01*
X186669503Y-128343605D01*
X186865706Y-128448478D01*
X187078599Y-128513058D01*
X187244523Y-128529400D01*
X187355477Y-128529400D01*
X187521401Y-128513058D01*
X187734294Y-128448478D01*
X187930497Y-128343605D01*
X188102470Y-128202470D01*
X188243605Y-128030497D01*
X188348478Y-127834294D01*
X188355000Y-127812794D01*
X188355000Y-128312542D01*
X188379403Y-128435223D01*
X188427270Y-128550785D01*
X188496763Y-128654789D01*
X188585211Y-128743237D01*
X188689215Y-128812730D01*
X188804777Y-128860597D01*
X188927458Y-128885000D01*
X189554250Y-128885000D01*
X189713000Y-128726250D01*
X189713000Y-127527000D01*
X189967000Y-127527000D01*
X189967000Y-128726250D01*
X190125750Y-128885000D01*
X190752542Y-128885000D01*
X190875223Y-128860597D01*
X190990785Y-128812730D01*
X191094789Y-128743237D01*
X191183237Y-128654789D01*
X191252730Y-128550785D01*
X191300597Y-128435223D01*
X191325000Y-128312542D01*
X191325000Y-127685750D01*
X191166250Y-127527000D01*
X189967000Y-127527000D01*
X189713000Y-127527000D01*
X189693000Y-127527000D01*
X189693000Y-127273000D01*
X189713000Y-127273000D01*
X189713000Y-126073750D01*
X189967000Y-126073750D01*
X189967000Y-127273000D01*
X191166250Y-127273000D01*
X191325000Y-127114250D01*
X191325000Y-126487458D01*
X191300597Y-126364777D01*
X191252730Y-126249215D01*
X191183237Y-126145211D01*
X191094789Y-126056763D01*
X190990785Y-125987270D01*
X190875223Y-125939403D01*
X190752542Y-125915000D01*
X190125750Y-125915000D01*
X189967000Y-126073750D01*
X189713000Y-126073750D01*
X189668772Y-126029522D01*
X189983399Y-125714895D01*
X195320600Y-125714895D01*
X195320600Y-126085105D01*
X195392824Y-126448201D01*
X195534497Y-126790230D01*
X195740174Y-127098048D01*
X196001952Y-127359826D01*
X196309770Y-127565503D01*
X196651799Y-127707176D01*
X197014895Y-127779400D01*
X197385105Y-127779400D01*
X197748201Y-127707176D01*
X198090230Y-127565503D01*
X198398048Y-127359826D01*
X198659826Y-127098048D01*
X198865503Y-126790230D01*
X199007176Y-126448201D01*
X199079400Y-126085105D01*
X199079400Y-125714895D01*
X199007176Y-125351799D01*
X198865503Y-125009770D01*
X198659826Y-124701952D01*
X198398048Y-124440174D01*
X198090230Y-124234497D01*
X197748201Y-124092824D01*
X197385105Y-124020600D01*
X197014895Y-124020600D01*
X196651799Y-124092824D01*
X196309770Y-124234497D01*
X196001952Y-124440174D01*
X195740174Y-124701952D01*
X195534497Y-125009770D01*
X195392824Y-125351799D01*
X195320600Y-125714895D01*
X189983399Y-125714895D01*
X191662703Y-124035591D01*
X191676261Y-124024464D01*
X191687389Y-124010905D01*
X191687394Y-124010900D01*
X191703037Y-123991839D01*
X191720700Y-123970317D01*
X191753720Y-123908541D01*
X191774053Y-123841511D01*
X191779199Y-123789264D01*
X191779199Y-123789256D01*
X191780918Y-123771801D01*
X191779199Y-123754346D01*
X191779199Y-117781051D01*
X191780918Y-117763598D01*
X191779199Y-117746145D01*
X191779199Y-117746136D01*
X191774053Y-117693889D01*
X191753720Y-117626859D01*
X191720700Y-117565083D01*
X191713112Y-117555837D01*
X191687394Y-117524499D01*
X191687389Y-117524494D01*
X191676262Y-117510936D01*
X191662704Y-117499809D01*
X191579762Y-117416867D01*
X191621103Y-117339523D01*
X191645298Y-117259764D01*
X191743036Y-117535978D01*
X191893183Y-117788488D01*
X192089707Y-118006854D01*
X192325056Y-118182684D01*
X192590186Y-118309222D01*
X192740974Y-118354958D01*
X192973000Y-118233817D01*
X192973000Y-117027000D01*
X193227000Y-117027000D01*
X193227000Y-118233817D01*
X193459026Y-118354958D01*
X193609814Y-118309222D01*
X193874944Y-118182684D01*
X194110293Y-118006854D01*
X194306817Y-117788488D01*
X194456964Y-117535978D01*
X194554963Y-117259027D01*
X194434464Y-117027000D01*
X193227000Y-117027000D01*
X192973000Y-117027000D01*
X192953000Y-117027000D01*
X192953000Y-116773000D01*
X192973000Y-116773000D01*
X192973000Y-116753000D01*
X193227000Y-116753000D01*
X193227000Y-116773000D01*
X194434464Y-116773000D01*
X194554963Y-116540973D01*
X194456964Y-116264022D01*
X194306817Y-116011512D01*
X194110293Y-115793146D01*
X193874944Y-115617316D01*
X193609814Y-115490778D01*
X193459816Y-115445282D01*
X193539523Y-115421103D01*
X193738089Y-115314968D01*
X193912133Y-115172133D01*
X194054968Y-114998089D01*
X194161103Y-114799523D01*
X194226461Y-114584067D01*
X194248530Y-114360000D01*
X194226461Y-114135933D01*
X194161103Y-113920477D01*
X194054968Y-113721911D01*
X193912133Y-113547867D01*
X193738089Y-113405032D01*
X193539523Y-113298897D01*
X193324067Y-113233539D01*
X193156146Y-113217000D01*
X193043854Y-113217000D01*
X192875933Y-113233539D01*
X192660477Y-113298897D01*
X192461911Y-113405032D01*
X192287867Y-113547867D01*
X192145032Y-113721911D01*
X192038897Y-113920477D01*
X191973539Y-114135933D01*
X191951470Y-114360000D01*
X191973539Y-114584067D01*
X192038897Y-114799523D01*
X192145032Y-114998089D01*
X192287867Y-115172133D01*
X192461911Y-115314968D01*
X192660477Y-115421103D01*
X192740184Y-115445282D01*
X192590186Y-115490778D01*
X192325056Y-115617316D01*
X192089707Y-115793146D01*
X191893183Y-116011512D01*
X191743036Y-116264022D01*
X191645298Y-116540236D01*
X191621103Y-116460477D01*
X191514968Y-116261911D01*
X191372133Y-116087867D01*
X191198089Y-115945032D01*
X190999523Y-115838897D01*
X190784067Y-115773539D01*
X190616146Y-115757000D01*
X190503854Y-115757000D01*
X190335933Y-115773539D01*
X190120477Y-115838897D01*
X189921911Y-115945032D01*
X189823000Y-116026207D01*
X189823000Y-115233793D01*
X189921911Y-115314968D01*
X190120477Y-115421103D01*
X190335933Y-115486461D01*
X190503854Y-115503000D01*
X190616146Y-115503000D01*
X190784067Y-115486461D01*
X190999523Y-115421103D01*
X191198089Y-115314968D01*
X191372133Y-115172133D01*
X191514968Y-114998089D01*
X191621103Y-114799523D01*
X191686461Y-114584067D01*
X191708530Y-114360000D01*
X191686461Y-114135933D01*
X191621103Y-113920477D01*
X191514968Y-113721911D01*
X191372133Y-113547867D01*
X191220400Y-113423342D01*
X191220400Y-104096438D01*
X191223595Y-104063999D01*
X191210844Y-103934539D01*
X191199474Y-103897058D01*
X191173082Y-103810053D01*
X191111759Y-103695326D01*
X191029233Y-103594767D01*
X191004029Y-103574083D01*
X174552618Y-87122672D01*
X174531933Y-87097467D01*
X174431374Y-87014941D01*
X174316647Y-86953618D01*
X174192161Y-86915856D01*
X174095139Y-86906300D01*
X174062700Y-86903105D01*
X174030261Y-86906300D01*
X172054400Y-86906300D01*
X172054400Y-86881106D01*
X172061896Y-86804999D01*
X172051554Y-86700000D01*
X172031981Y-86501265D01*
X171943384Y-86209202D01*
X171799512Y-85940035D01*
X171605892Y-85704108D01*
X171546775Y-85655592D01*
X169949412Y-84058230D01*
X169900892Y-83999108D01*
X169664965Y-83805488D01*
X169395798Y-83661616D01*
X169103735Y-83573019D01*
X168876109Y-83550600D01*
X168876106Y-83550600D01*
X168800000Y-83543104D01*
X168723894Y-83550600D01*
X164476106Y-83550600D01*
X164400000Y-83543104D01*
X164323893Y-83550600D01*
X157576109Y-83550600D01*
X157500000Y-83543104D01*
X157196264Y-83573019D01*
X156904201Y-83661616D01*
X156760329Y-83738517D01*
X156635035Y-83805488D01*
X156399108Y-83999108D01*
X156350587Y-84058231D01*
X155050811Y-85358007D01*
X154977739Y-85298039D01*
X154865142Y-85205607D01*
X154865050Y-85205558D01*
X154864965Y-85205488D01*
X154725921Y-85131168D01*
X154595994Y-85061698D01*
X154595895Y-85061668D01*
X154595798Y-85061616D01*
X154446169Y-85016226D01*
X154303944Y-84973061D01*
X154303839Y-84973051D01*
X154303735Y-84973019D01*
X154150105Y-84957888D01*
X154000212Y-84943104D01*
X153923998Y-84950600D01*
X152841782Y-84950600D01*
X151949413Y-84058231D01*
X151900892Y-83999108D01*
X151664965Y-83805488D01*
X151395798Y-83661616D01*
X151103735Y-83573019D01*
X150876109Y-83550600D01*
X150876106Y-83550600D01*
X150800000Y-83543104D01*
X150723894Y-83550600D01*
X146076106Y-83550600D01*
X145999999Y-83543104D01*
X145923893Y-83550600D01*
X145923891Y-83550600D01*
X145696265Y-83573019D01*
X145404202Y-83661616D01*
X145135035Y-83805488D01*
X144899108Y-83999108D01*
X144850592Y-84058225D01*
X143458230Y-85450588D01*
X143399108Y-85499108D01*
X143205488Y-85735036D01*
X143079577Y-85970600D01*
X141662000Y-85970600D01*
X141605812Y-85976308D01*
X141553497Y-85992529D01*
X141505352Y-86018644D01*
X141463226Y-86053650D01*
X141428740Y-86096201D01*
X141403217Y-86144663D01*
X141387639Y-86197173D01*
X141382605Y-86251714D01*
X141418475Y-92100084D01*
X141358526Y-92112009D01*
X141234884Y-92163224D01*
X141123608Y-92237576D01*
X141028976Y-92332208D01*
X140954624Y-92443484D01*
X140903409Y-92567126D01*
X140877300Y-92698385D01*
X140877300Y-92832215D01*
X140903409Y-92963474D01*
X140954624Y-93087116D01*
X141028976Y-93198392D01*
X141123608Y-93293024D01*
X141201101Y-93344803D01*
X141201100Y-95739244D01*
X141199381Y-95756700D01*
X141201100Y-95774155D01*
X141201100Y-95774162D01*
X141206246Y-95826409D01*
X141226579Y-95893439D01*
X141259599Y-95955215D01*
X141304037Y-96009362D01*
X141317602Y-96020495D01*
X141443291Y-96146184D01*
X141449601Y-97174900D01*
X138602102Y-97174900D01*
X138550324Y-97097408D01*
X138455692Y-97002776D01*
X138344416Y-96928424D01*
X138220774Y-96877209D01*
X138089515Y-96851100D01*
X137955685Y-96851100D01*
X137824426Y-96877209D01*
X137700784Y-96928424D01*
X137589508Y-97002776D01*
X137494876Y-97097408D01*
X137420524Y-97208684D01*
X137369309Y-97332326D01*
X137343200Y-97463585D01*
X137343200Y-97597415D01*
X137369309Y-97728674D01*
X137420524Y-97852316D01*
X137494876Y-97963592D01*
X137589508Y-98058224D01*
X137700784Y-98132576D01*
X137824426Y-98183791D01*
X137955685Y-98209900D01*
X138089515Y-98209900D01*
X138220774Y-98183791D01*
X138344416Y-98132576D01*
X138455692Y-98058224D01*
X138550324Y-97963592D01*
X138602102Y-97886100D01*
X141565548Y-97886100D01*
X141576774Y-97895313D01*
X141625078Y-97921132D01*
X141677492Y-97937031D01*
X141732000Y-97942400D01*
X142861623Y-97942400D01*
X142904034Y-97955265D01*
X142956281Y-97960411D01*
X142956289Y-97960411D01*
X142973744Y-97962130D01*
X142991199Y-97960411D01*
X148757918Y-97960411D01*
X157784082Y-106986577D01*
X157765900Y-107077985D01*
X157765900Y-107211815D01*
X157792009Y-107343074D01*
X157843224Y-107466716D01*
X157917576Y-107577992D01*
X158012208Y-107672624D01*
X158123484Y-107746976D01*
X158247126Y-107798191D01*
X158378385Y-107824300D01*
X158512215Y-107824300D01*
X158643474Y-107798191D01*
X158744901Y-107756178D01*
X158744900Y-109166734D01*
X158705015Y-109158800D01*
X158571185Y-109158800D01*
X158439926Y-109184909D01*
X158316284Y-109236124D01*
X158205008Y-109310476D01*
X158110376Y-109405108D01*
X158036024Y-109516384D01*
X157984809Y-109640026D01*
X157958700Y-109771285D01*
X157958700Y-109905115D01*
X157984809Y-110036374D01*
X158036024Y-110160016D01*
X158110376Y-110271292D01*
X158205008Y-110365924D01*
X158316284Y-110440276D01*
X158439926Y-110491491D01*
X158571185Y-110517600D01*
X158705015Y-110517600D01*
X158836274Y-110491491D01*
X158959916Y-110440276D01*
X159071192Y-110365924D01*
X159165824Y-110271292D01*
X159240176Y-110160016D01*
X159291391Y-110036374D01*
X159317500Y-109905115D01*
X159317500Y-109771285D01*
X159299318Y-109679877D01*
X159327701Y-109651494D01*
X159327701Y-111798136D01*
X159307226Y-111802209D01*
X159183584Y-111853424D01*
X159072308Y-111927776D01*
X158977676Y-112022408D01*
X158903324Y-112133684D01*
X158867225Y-112220832D01*
X157809700Y-111163307D01*
X157809700Y-109890952D01*
X157811419Y-109873499D01*
X157809700Y-109856046D01*
X157809700Y-109856037D01*
X157804554Y-109803790D01*
X157784221Y-109736760D01*
X157751201Y-109674984D01*
X157727086Y-109645600D01*
X157717895Y-109634400D01*
X157717890Y-109634395D01*
X157706763Y-109620837D01*
X157693205Y-109609710D01*
X157090798Y-109007305D01*
X157079663Y-108993737D01*
X157025516Y-108949299D01*
X156963740Y-108916279D01*
X156896710Y-108895946D01*
X156844463Y-108890800D01*
X156844455Y-108890800D01*
X156827000Y-108889081D01*
X156809545Y-108890800D01*
X140994902Y-108890800D01*
X140943124Y-108813308D01*
X140848492Y-108718676D01*
X140737216Y-108644324D01*
X140613574Y-108593109D01*
X140482315Y-108567000D01*
X140348485Y-108567000D01*
X140217226Y-108593109D01*
X140093584Y-108644324D01*
X139982308Y-108718676D01*
X139887676Y-108813308D01*
X139813324Y-108924584D01*
X139762109Y-109048226D01*
X139736000Y-109179485D01*
X139736000Y-109313315D01*
X139762109Y-109444574D01*
X139813324Y-109568216D01*
X139887676Y-109679492D01*
X139982308Y-109774124D01*
X140093584Y-109848476D01*
X140217226Y-109899691D01*
X140348485Y-109925800D01*
X140482315Y-109925800D01*
X140613574Y-109899691D01*
X140737216Y-109848476D01*
X140848492Y-109774124D01*
X140943124Y-109679492D01*
X140994902Y-109602000D01*
X147171435Y-109602000D01*
X147136560Y-109612579D01*
X147074784Y-109645599D01*
X147020637Y-109690037D01*
X147009506Y-109703600D01*
X137602225Y-119110882D01*
X137510815Y-119092700D01*
X137376985Y-119092700D01*
X137245726Y-119118809D01*
X137122084Y-119170024D01*
X137010808Y-119244376D01*
X136916176Y-119339008D01*
X136841824Y-119450284D01*
X136790609Y-119573926D01*
X136764500Y-119705185D01*
X136764500Y-119839015D01*
X136790609Y-119970274D01*
X136841824Y-120093916D01*
X136916176Y-120205192D01*
X137010808Y-120299824D01*
X137122084Y-120374176D01*
X137245726Y-120425391D01*
X137376985Y-120451500D01*
X137510815Y-120451500D01*
X137642074Y-120425391D01*
X137765716Y-120374176D01*
X137876992Y-120299824D01*
X137971624Y-120205192D01*
X138045976Y-120093916D01*
X138097191Y-119970274D01*
X138123300Y-119839015D01*
X138123300Y-119705185D01*
X138105118Y-119613775D01*
X147420594Y-110298300D01*
X155029998Y-110298300D01*
X155081776Y-110375792D01*
X155176408Y-110470424D01*
X155287684Y-110544776D01*
X155411326Y-110595991D01*
X155542585Y-110622100D01*
X155676415Y-110622100D01*
X155807674Y-110595991D01*
X155826400Y-110588234D01*
X155826400Y-111326516D01*
X155824916Y-111325524D01*
X155701274Y-111274309D01*
X155570015Y-111248200D01*
X155436185Y-111248200D01*
X155304926Y-111274309D01*
X155181284Y-111325524D01*
X155070008Y-111399876D01*
X154975376Y-111494508D01*
X154901024Y-111605784D01*
X154849809Y-111729426D01*
X154823700Y-111860685D01*
X154823700Y-111994515D01*
X154849809Y-112125774D01*
X154901024Y-112249416D01*
X154975376Y-112360692D01*
X155070008Y-112455324D01*
X155147501Y-112507103D01*
X155147500Y-113878244D01*
X155145781Y-113895700D01*
X155147500Y-113913155D01*
X155147500Y-113913162D01*
X155152646Y-113965409D01*
X155172979Y-114032439D01*
X155205999Y-114094215D01*
X155250437Y-114148362D01*
X155264001Y-114159494D01*
X155522706Y-114418200D01*
X155445085Y-114418200D01*
X155313826Y-114444309D01*
X155190184Y-114495524D01*
X155078908Y-114569876D01*
X154984276Y-114664508D01*
X154909924Y-114775784D01*
X154858709Y-114899426D01*
X154832600Y-115030685D01*
X154832600Y-115164515D01*
X154858709Y-115295774D01*
X154909924Y-115419416D01*
X154984276Y-115530692D01*
X155078908Y-115625324D01*
X155156401Y-115677103D01*
X155156401Y-116797985D01*
X155130492Y-116772076D01*
X155019216Y-116697724D01*
X154895574Y-116646509D01*
X154764315Y-116620400D01*
X154630485Y-116620400D01*
X154499226Y-116646509D01*
X154375584Y-116697724D01*
X154264308Y-116772076D01*
X154169676Y-116866708D01*
X154095324Y-116977984D01*
X154044109Y-117101626D01*
X154018000Y-117232885D01*
X154018000Y-117366715D01*
X154044109Y-117497974D01*
X154095324Y-117621616D01*
X154169676Y-117732892D01*
X154264308Y-117827524D01*
X154341800Y-117879302D01*
X154341801Y-122524976D01*
X154332300Y-122534477D01*
X154318736Y-122545609D01*
X154274298Y-122599756D01*
X154241278Y-122661532D01*
X154220945Y-122728562D01*
X154215799Y-122780809D01*
X154215799Y-122780816D01*
X154214080Y-122798271D01*
X154215799Y-122815727D01*
X154215800Y-123274303D01*
X153695800Y-122754304D01*
X153695800Y-116995702D01*
X153773292Y-116943924D01*
X153867924Y-116849292D01*
X153942276Y-116738016D01*
X153993491Y-116614374D01*
X154019600Y-116483115D01*
X154019600Y-116349285D01*
X153993491Y-116218026D01*
X153942276Y-116094384D01*
X153867924Y-115983108D01*
X153773292Y-115888476D01*
X153662016Y-115814124D01*
X153538374Y-115762909D01*
X153407115Y-115736800D01*
X153273285Y-115736800D01*
X153142026Y-115762909D01*
X153018384Y-115814124D01*
X152907108Y-115888476D01*
X152812476Y-115983108D01*
X152738124Y-116094384D01*
X152686909Y-116218026D01*
X152660800Y-116349285D01*
X152660800Y-116483115D01*
X152686909Y-116614374D01*
X152738124Y-116738016D01*
X152812476Y-116849292D01*
X152907108Y-116943924D01*
X152984600Y-116995702D01*
X152984601Y-122884131D01*
X152982881Y-122901597D01*
X152989746Y-122971307D01*
X153010080Y-123038338D01*
X153016071Y-123049546D01*
X153043100Y-123100113D01*
X153087538Y-123154260D01*
X153101101Y-123165391D01*
X154608219Y-124672510D01*
X154619352Y-124686075D01*
X154632915Y-124697206D01*
X154632916Y-124697207D01*
X154633416Y-124697617D01*
X154673499Y-124730513D01*
X154735275Y-124763533D01*
X154802305Y-124783866D01*
X154854552Y-124789012D01*
X154854560Y-124789012D01*
X154872015Y-124790731D01*
X154889470Y-124789012D01*
X155252821Y-124789012D01*
X160345432Y-129881626D01*
X128256900Y-129870704D01*
X128256900Y-127656000D01*
X129472136Y-127656000D01*
X129493942Y-127877401D01*
X129558522Y-128090294D01*
X129663395Y-128286497D01*
X129804530Y-128458470D01*
X129976503Y-128599605D01*
X130172706Y-128704478D01*
X130385599Y-128769058D01*
X130551523Y-128785400D01*
X130662477Y-128785400D01*
X130828401Y-128769058D01*
X131041294Y-128704478D01*
X131237497Y-128599605D01*
X131409470Y-128458470D01*
X131423191Y-128441750D01*
X144157000Y-128441750D01*
X144157000Y-129068542D01*
X144181403Y-129191223D01*
X144229270Y-129306785D01*
X144298763Y-129410789D01*
X144387211Y-129499237D01*
X144491215Y-129568730D01*
X144606777Y-129616597D01*
X144729458Y-129641000D01*
X145356250Y-129641000D01*
X145515000Y-129482250D01*
X145515000Y-128283000D01*
X144315750Y-128283000D01*
X144157000Y-128441750D01*
X131423191Y-128441750D01*
X131550605Y-128286497D01*
X131655478Y-128090294D01*
X131720058Y-127877401D01*
X131741864Y-127656000D01*
X131720058Y-127434599D01*
X131662077Y-127243458D01*
X144157000Y-127243458D01*
X144157000Y-127870250D01*
X144315750Y-128029000D01*
X145515000Y-128029000D01*
X145515000Y-126829750D01*
X145769000Y-126829750D01*
X145769000Y-128029000D01*
X145789000Y-128029000D01*
X145789000Y-128283000D01*
X145769000Y-128283000D01*
X145769000Y-129482250D01*
X145927750Y-129641000D01*
X146554542Y-129641000D01*
X146677223Y-129616597D01*
X146792785Y-129568730D01*
X146896789Y-129499237D01*
X146985237Y-129410789D01*
X147054730Y-129306785D01*
X147102597Y-129191223D01*
X147127000Y-129068542D01*
X147127000Y-128568794D01*
X147133522Y-128590294D01*
X147238395Y-128786497D01*
X147379530Y-128958470D01*
X147551503Y-129099605D01*
X147747706Y-129204478D01*
X147960599Y-129269058D01*
X148126523Y-129285400D01*
X148237477Y-129285400D01*
X148403401Y-129269058D01*
X148616294Y-129204478D01*
X148812497Y-129099605D01*
X148984470Y-128958470D01*
X149125605Y-128786497D01*
X149230478Y-128590294D01*
X149279481Y-128428750D01*
X152734000Y-128428750D01*
X152734000Y-129055542D01*
X152758403Y-129178223D01*
X152806270Y-129293785D01*
X152875763Y-129397789D01*
X152964211Y-129486237D01*
X153068215Y-129555730D01*
X153183777Y-129603597D01*
X153306458Y-129628000D01*
X153933250Y-129628000D01*
X154092000Y-129469250D01*
X154092000Y-128270000D01*
X152892750Y-128270000D01*
X152734000Y-128428750D01*
X149279481Y-128428750D01*
X149295058Y-128377401D01*
X149316864Y-128156000D01*
X149295058Y-127934599D01*
X149230478Y-127721706D01*
X149125605Y-127525503D01*
X148984470Y-127353530D01*
X148834507Y-127230458D01*
X152734000Y-127230458D01*
X152734000Y-127857250D01*
X152892750Y-128016000D01*
X154092000Y-128016000D01*
X154092000Y-126816750D01*
X154346000Y-126816750D01*
X154346000Y-128016000D01*
X154366000Y-128016000D01*
X154366000Y-128270000D01*
X154346000Y-128270000D01*
X154346000Y-129469250D01*
X154504750Y-129628000D01*
X155131542Y-129628000D01*
X155254223Y-129603597D01*
X155369785Y-129555730D01*
X155473789Y-129486237D01*
X155562237Y-129397789D01*
X155631730Y-129293785D01*
X155679597Y-129178223D01*
X155704000Y-129055542D01*
X155704000Y-128555794D01*
X155710522Y-128577294D01*
X155815395Y-128773497D01*
X155956530Y-128945470D01*
X156128503Y-129086605D01*
X156324706Y-129191478D01*
X156537599Y-129256058D01*
X156703523Y-129272400D01*
X156814477Y-129272400D01*
X156980401Y-129256058D01*
X157193294Y-129191478D01*
X157389497Y-129086605D01*
X157561470Y-128945470D01*
X157702605Y-128773497D01*
X157807478Y-128577294D01*
X157872058Y-128364401D01*
X157893864Y-128143000D01*
X157872058Y-127921599D01*
X157807478Y-127708706D01*
X157702605Y-127512503D01*
X157561470Y-127340530D01*
X157389497Y-127199395D01*
X157193294Y-127094522D01*
X156980401Y-127029942D01*
X156814477Y-127013600D01*
X156703523Y-127013600D01*
X156537599Y-127029942D01*
X156324706Y-127094522D01*
X156128503Y-127199395D01*
X155956530Y-127340530D01*
X155815395Y-127512503D01*
X155710522Y-127708706D01*
X155704000Y-127730206D01*
X155704000Y-127230458D01*
X155679597Y-127107777D01*
X155631730Y-126992215D01*
X155562237Y-126888211D01*
X155473789Y-126799763D01*
X155369785Y-126730270D01*
X155254223Y-126682403D01*
X155131542Y-126658000D01*
X154504750Y-126658000D01*
X154346000Y-126816750D01*
X154092000Y-126816750D01*
X153933250Y-126658000D01*
X153306458Y-126658000D01*
X153183777Y-126682403D01*
X153068215Y-126730270D01*
X152964211Y-126799763D01*
X152875763Y-126888211D01*
X152806270Y-126992215D01*
X152758403Y-127107777D01*
X152734000Y-127230458D01*
X148834507Y-127230458D01*
X148812497Y-127212395D01*
X148616294Y-127107522D01*
X148403401Y-127042942D01*
X148237477Y-127026600D01*
X148126523Y-127026600D01*
X147960599Y-127042942D01*
X147747706Y-127107522D01*
X147551503Y-127212395D01*
X147379530Y-127353530D01*
X147238395Y-127525503D01*
X147133522Y-127721706D01*
X147127000Y-127743206D01*
X147127000Y-127243458D01*
X147102597Y-127120777D01*
X147054730Y-127005215D01*
X146985237Y-126901211D01*
X146896789Y-126812763D01*
X146792785Y-126743270D01*
X146677223Y-126695403D01*
X146554542Y-126671000D01*
X145927750Y-126671000D01*
X145769000Y-126829750D01*
X145515000Y-126829750D01*
X145356250Y-126671000D01*
X144729458Y-126671000D01*
X144606777Y-126695403D01*
X144491215Y-126743270D01*
X144387211Y-126812763D01*
X144298763Y-126901211D01*
X144229270Y-127005215D01*
X144181403Y-127120777D01*
X144157000Y-127243458D01*
X131662077Y-127243458D01*
X131655478Y-127221706D01*
X131550605Y-127025503D01*
X131409470Y-126853530D01*
X131237497Y-126712395D01*
X131041294Y-126607522D01*
X130828401Y-126542942D01*
X130662477Y-126526600D01*
X130551523Y-126526600D01*
X130385599Y-126542942D01*
X130172706Y-126607522D01*
X129976503Y-126712395D01*
X129804530Y-126853530D01*
X129663395Y-127025503D01*
X129558522Y-127221706D01*
X129493942Y-127434599D01*
X129472136Y-127656000D01*
X128256900Y-127656000D01*
X128256900Y-125116000D01*
X129472136Y-125116000D01*
X129493942Y-125337401D01*
X129558522Y-125550294D01*
X129663395Y-125746497D01*
X129804530Y-125918470D01*
X129976503Y-126059605D01*
X130172706Y-126164478D01*
X130385599Y-126229058D01*
X130551523Y-126245400D01*
X130662477Y-126245400D01*
X130828401Y-126229058D01*
X131041294Y-126164478D01*
X131237497Y-126059605D01*
X131409470Y-125918470D01*
X131550605Y-125746497D01*
X131655478Y-125550294D01*
X131720058Y-125337401D01*
X131741864Y-125116000D01*
X131720058Y-124894599D01*
X131655478Y-124681706D01*
X131550605Y-124485503D01*
X131409470Y-124313530D01*
X131237497Y-124172395D01*
X131041294Y-124067522D01*
X130828401Y-124002942D01*
X130662477Y-123986600D01*
X130551523Y-123986600D01*
X130385599Y-124002942D01*
X130172706Y-124067522D01*
X129976503Y-124172395D01*
X129804530Y-124313530D01*
X129663395Y-124485503D01*
X129558522Y-124681706D01*
X129493942Y-124894599D01*
X129472136Y-125116000D01*
X128256900Y-125116000D01*
X128256900Y-121726000D01*
X129476249Y-121726000D01*
X129476249Y-123426000D01*
X129481644Y-123480772D01*
X129497620Y-123533439D01*
X129523564Y-123581977D01*
X129558479Y-123624521D01*
X129601023Y-123659436D01*
X129649561Y-123685380D01*
X129702228Y-123701356D01*
X129757000Y-123706751D01*
X131457000Y-123706751D01*
X131511772Y-123701356D01*
X131564439Y-123685380D01*
X131612977Y-123659436D01*
X131655521Y-123624521D01*
X131690436Y-123581977D01*
X131716380Y-123533439D01*
X131732356Y-123480772D01*
X131737751Y-123426000D01*
X131737751Y-121861895D01*
X140487600Y-121861895D01*
X140487600Y-122232105D01*
X140559824Y-122595201D01*
X140701497Y-122937230D01*
X140907174Y-123245048D01*
X141168952Y-123506826D01*
X141476770Y-123712503D01*
X141818799Y-123854176D01*
X142181895Y-123926400D01*
X142552105Y-123926400D01*
X142915201Y-123854176D01*
X143116766Y-123770685D01*
X149789000Y-123770685D01*
X149789000Y-123904515D01*
X149815109Y-124035774D01*
X149866324Y-124159416D01*
X149940676Y-124270692D01*
X150035308Y-124365324D01*
X150146584Y-124439676D01*
X150270226Y-124490891D01*
X150401485Y-124517000D01*
X150535315Y-124517000D01*
X150666574Y-124490891D01*
X150790216Y-124439676D01*
X150901492Y-124365324D01*
X150996124Y-124270692D01*
X151070476Y-124159416D01*
X151121691Y-124035774D01*
X151147800Y-123904515D01*
X151147800Y-123770685D01*
X151129618Y-123679277D01*
X151172709Y-123636186D01*
X151186262Y-123625063D01*
X151197385Y-123611510D01*
X151197395Y-123611500D01*
X151230700Y-123570917D01*
X151230702Y-123570915D01*
X151263721Y-123509140D01*
X151277259Y-123464510D01*
X151284054Y-123442111D01*
X151286876Y-123413454D01*
X151289200Y-123389863D01*
X151289200Y-123389856D01*
X151290919Y-123372401D01*
X151289200Y-123354945D01*
X151289200Y-118152802D01*
X151366692Y-118101024D01*
X151461324Y-118006392D01*
X151535676Y-117895116D01*
X151586891Y-117771474D01*
X151613000Y-117640215D01*
X151613000Y-117506385D01*
X151586891Y-117375126D01*
X151535676Y-117251484D01*
X151461324Y-117140208D01*
X151366692Y-117045576D01*
X151255416Y-116971224D01*
X151131774Y-116920009D01*
X151000515Y-116893900D01*
X150866685Y-116893900D01*
X150735426Y-116920009D01*
X150611784Y-116971224D01*
X150500508Y-117045576D01*
X150405876Y-117140208D01*
X150331524Y-117251484D01*
X150280309Y-117375126D01*
X150254200Y-117506385D01*
X150254200Y-117640215D01*
X150280309Y-117771474D01*
X150331524Y-117895116D01*
X150405876Y-118006392D01*
X150500508Y-118101024D01*
X150578001Y-118152803D01*
X150578000Y-123166691D01*
X150535315Y-123158200D01*
X150401485Y-123158200D01*
X150270226Y-123184309D01*
X150146584Y-123235524D01*
X150035308Y-123309876D01*
X149940676Y-123404508D01*
X149866324Y-123515784D01*
X149815109Y-123639426D01*
X149789000Y-123770685D01*
X143116766Y-123770685D01*
X143257230Y-123712503D01*
X143565048Y-123506826D01*
X143826826Y-123245048D01*
X144032503Y-122937230D01*
X144174176Y-122595201D01*
X144246400Y-122232105D01*
X144246400Y-121861895D01*
X144174176Y-121498799D01*
X144032503Y-121156770D01*
X143826826Y-120848952D01*
X143565048Y-120587174D01*
X143257230Y-120381497D01*
X142915201Y-120239824D01*
X142552105Y-120167600D01*
X142181895Y-120167600D01*
X141818799Y-120239824D01*
X141476770Y-120381497D01*
X141168952Y-120587174D01*
X140907174Y-120848952D01*
X140701497Y-121156770D01*
X140559824Y-121498799D01*
X140487600Y-121861895D01*
X131737751Y-121861895D01*
X131737751Y-121726000D01*
X131732356Y-121671228D01*
X131716380Y-121618561D01*
X131690436Y-121570023D01*
X131655521Y-121527479D01*
X131612977Y-121492564D01*
X131564439Y-121466620D01*
X131511772Y-121450644D01*
X131457000Y-121445249D01*
X129757000Y-121445249D01*
X129702228Y-121450644D01*
X129649561Y-121466620D01*
X129601023Y-121492564D01*
X129558479Y-121527479D01*
X129523564Y-121570023D01*
X129497620Y-121618561D01*
X129481644Y-121671228D01*
X129476249Y-121726000D01*
X128256900Y-121726000D01*
X128256900Y-118468000D01*
X129445136Y-118468000D01*
X129466942Y-118689401D01*
X129531522Y-118902294D01*
X129636395Y-119098497D01*
X129777530Y-119270470D01*
X129949503Y-119411605D01*
X130145706Y-119516478D01*
X130358599Y-119581058D01*
X130524523Y-119597400D01*
X130635477Y-119597400D01*
X130801401Y-119581058D01*
X131014294Y-119516478D01*
X131210497Y-119411605D01*
X131382470Y-119270470D01*
X131523605Y-119098497D01*
X131628478Y-118902294D01*
X131693058Y-118689401D01*
X131714864Y-118468000D01*
X131693058Y-118246599D01*
X131628478Y-118033706D01*
X131523605Y-117837503D01*
X131382470Y-117665530D01*
X131210497Y-117524395D01*
X131014294Y-117419522D01*
X130801401Y-117354942D01*
X130635477Y-117338600D01*
X130524523Y-117338600D01*
X130358599Y-117354942D01*
X130145706Y-117419522D01*
X129949503Y-117524395D01*
X129777530Y-117665530D01*
X129636395Y-117837503D01*
X129531522Y-118033706D01*
X129466942Y-118246599D01*
X129445136Y-118468000D01*
X128256900Y-118468000D01*
X128256900Y-115928000D01*
X129445136Y-115928000D01*
X129466942Y-116149401D01*
X129531522Y-116362294D01*
X129636395Y-116558497D01*
X129777530Y-116730470D01*
X129949503Y-116871605D01*
X130145706Y-116976478D01*
X130358599Y-117041058D01*
X130524523Y-117057400D01*
X130635477Y-117057400D01*
X130801401Y-117041058D01*
X131014294Y-116976478D01*
X131210497Y-116871605D01*
X131382470Y-116730470D01*
X131523605Y-116558497D01*
X131628478Y-116362294D01*
X131693058Y-116149401D01*
X131714864Y-115928000D01*
X131693058Y-115706599D01*
X131628478Y-115493706D01*
X131523605Y-115297503D01*
X131382470Y-115125530D01*
X131210497Y-114984395D01*
X131014294Y-114879522D01*
X130801401Y-114814942D01*
X130635477Y-114798600D01*
X130524523Y-114798600D01*
X130358599Y-114814942D01*
X130145706Y-114879522D01*
X129949503Y-114984395D01*
X129777530Y-115125530D01*
X129636395Y-115297503D01*
X129531522Y-115493706D01*
X129466942Y-115706599D01*
X129445136Y-115928000D01*
X128256900Y-115928000D01*
X128256900Y-112538000D01*
X129449249Y-112538000D01*
X129449249Y-114238000D01*
X129454644Y-114292772D01*
X129470620Y-114345439D01*
X129496564Y-114393977D01*
X129531479Y-114436521D01*
X129574023Y-114471436D01*
X129622561Y-114497380D01*
X129675228Y-114513356D01*
X129730000Y-114518751D01*
X131430000Y-114518751D01*
X131484772Y-114513356D01*
X131537439Y-114497380D01*
X131585977Y-114471436D01*
X131628521Y-114436521D01*
X131663436Y-114393977D01*
X131689380Y-114345439D01*
X131705356Y-114292772D01*
X131710751Y-114238000D01*
X131710751Y-112538000D01*
X131705356Y-112483228D01*
X131689380Y-112430561D01*
X131663436Y-112382023D01*
X131628521Y-112339479D01*
X131585977Y-112304564D01*
X131537439Y-112278620D01*
X131484772Y-112262644D01*
X131430000Y-112257249D01*
X129730000Y-112257249D01*
X129675228Y-112262644D01*
X129622561Y-112278620D01*
X129574023Y-112304564D01*
X129531479Y-112339479D01*
X129496564Y-112382023D01*
X129470620Y-112430561D01*
X129454644Y-112483228D01*
X129449249Y-112538000D01*
X128256900Y-112538000D01*
X128256900Y-109261000D01*
X129433136Y-109261000D01*
X129454942Y-109482401D01*
X129519522Y-109695294D01*
X129624395Y-109891497D01*
X129765530Y-110063470D01*
X129937503Y-110204605D01*
X130133706Y-110309478D01*
X130346599Y-110374058D01*
X130512523Y-110390400D01*
X130623477Y-110390400D01*
X130789401Y-110374058D01*
X131002294Y-110309478D01*
X131198497Y-110204605D01*
X131370470Y-110063470D01*
X131511605Y-109891497D01*
X131616478Y-109695294D01*
X131681058Y-109482401D01*
X131702864Y-109261000D01*
X131681058Y-109039599D01*
X131616478Y-108826706D01*
X131511605Y-108630503D01*
X131370470Y-108458530D01*
X131198497Y-108317395D01*
X131002294Y-108212522D01*
X130789401Y-108147942D01*
X130623477Y-108131600D01*
X130512523Y-108131600D01*
X130346599Y-108147942D01*
X130133706Y-108212522D01*
X129937503Y-108317395D01*
X129765530Y-108458530D01*
X129624395Y-108630503D01*
X129519522Y-108826706D01*
X129454942Y-109039599D01*
X129433136Y-109261000D01*
X128256900Y-109261000D01*
X128256900Y-106721000D01*
X129433136Y-106721000D01*
X129454942Y-106942401D01*
X129519522Y-107155294D01*
X129624395Y-107351497D01*
X129765530Y-107523470D01*
X129937503Y-107664605D01*
X130133706Y-107769478D01*
X130346599Y-107834058D01*
X130512523Y-107850400D01*
X130623477Y-107850400D01*
X130789401Y-107834058D01*
X131002294Y-107769478D01*
X131198497Y-107664605D01*
X131370470Y-107523470D01*
X131511605Y-107351497D01*
X131616478Y-107155294D01*
X131681058Y-106942401D01*
X131702864Y-106721000D01*
X131681058Y-106499599D01*
X131616478Y-106286706D01*
X131511605Y-106090503D01*
X131370470Y-105918530D01*
X131198497Y-105777395D01*
X131002294Y-105672522D01*
X130789401Y-105607942D01*
X130623477Y-105591600D01*
X130512523Y-105591600D01*
X130346599Y-105607942D01*
X130133706Y-105672522D01*
X129937503Y-105777395D01*
X129765530Y-105918530D01*
X129624395Y-106090503D01*
X129519522Y-106286706D01*
X129454942Y-106499599D01*
X129433136Y-106721000D01*
X128256900Y-106721000D01*
X128256900Y-103331000D01*
X129437249Y-103331000D01*
X129437249Y-105031000D01*
X129442644Y-105085772D01*
X129458620Y-105138439D01*
X129484564Y-105186977D01*
X129519479Y-105229521D01*
X129562023Y-105264436D01*
X129610561Y-105290380D01*
X129663228Y-105306356D01*
X129718000Y-105311751D01*
X131418000Y-105311751D01*
X131472772Y-105306356D01*
X131525439Y-105290380D01*
X131573977Y-105264436D01*
X131616521Y-105229521D01*
X131651436Y-105186977D01*
X131677380Y-105138439D01*
X131693356Y-105085772D01*
X131698751Y-105031000D01*
X131698751Y-103331000D01*
X131693356Y-103276228D01*
X131677380Y-103223561D01*
X131651436Y-103175023D01*
X131616521Y-103132479D01*
X131573977Y-103097564D01*
X131525439Y-103071620D01*
X131472772Y-103055644D01*
X131418000Y-103050249D01*
X129718000Y-103050249D01*
X129663228Y-103055644D01*
X129610561Y-103071620D01*
X129562023Y-103097564D01*
X129519479Y-103132479D01*
X129484564Y-103175023D01*
X129458620Y-103223561D01*
X129442644Y-103276228D01*
X129437249Y-103331000D01*
X128256900Y-103331000D01*
X128256900Y-94448613D01*
X133145600Y-94448613D01*
X133145600Y-94651387D01*
X133185159Y-94850265D01*
X133262757Y-95037604D01*
X133375413Y-95206204D01*
X133518796Y-95349587D01*
X133687396Y-95462243D01*
X133874735Y-95539841D01*
X134073613Y-95579400D01*
X134276387Y-95579400D01*
X134475265Y-95539841D01*
X134662604Y-95462243D01*
X134831204Y-95349587D01*
X134974587Y-95206204D01*
X135087243Y-95037604D01*
X135164841Y-94850265D01*
X135204400Y-94651387D01*
X135204400Y-94448613D01*
X135164841Y-94249735D01*
X135087243Y-94062396D01*
X134974587Y-93893796D01*
X134831204Y-93750413D01*
X134662604Y-93637757D01*
X134475265Y-93560159D01*
X134276387Y-93520600D01*
X134073613Y-93520600D01*
X133874735Y-93560159D01*
X133687396Y-93637757D01*
X133518796Y-93750413D01*
X133375413Y-93893796D01*
X133262757Y-94062396D01*
X133185159Y-94249735D01*
X133145600Y-94448613D01*
X128256900Y-94448613D01*
X128256900Y-87448613D01*
X133145600Y-87448613D01*
X133145600Y-87651387D01*
X133185159Y-87850265D01*
X133262757Y-88037604D01*
X133375413Y-88206204D01*
X133518796Y-88349587D01*
X133687396Y-88462243D01*
X133874735Y-88539841D01*
X134073613Y-88579400D01*
X134276387Y-88579400D01*
X134475265Y-88539841D01*
X134662604Y-88462243D01*
X134831204Y-88349587D01*
X134974587Y-88206204D01*
X135087243Y-88037604D01*
X135164841Y-87850265D01*
X135204400Y-87651387D01*
X135204400Y-87448613D01*
X135164841Y-87249735D01*
X135087243Y-87062396D01*
X134974587Y-86893796D01*
X134831204Y-86750413D01*
X134662604Y-86637757D01*
X134475265Y-86560159D01*
X134276387Y-86520600D01*
X134073613Y-86520600D01*
X133874735Y-86560159D01*
X133687396Y-86637757D01*
X133518796Y-86750413D01*
X133375413Y-86893796D01*
X133262757Y-87062396D01*
X133185159Y-87249735D01*
X133145600Y-87448613D01*
X128256900Y-87448613D01*
X128256900Y-83425900D01*
X201095600Y-83425900D01*
X201095601Y-129895497D01*
G36*
X178321845Y-128016000D02*
G01*
X179515000Y-128016000D01*
X179515000Y-127996000D01*
X179769000Y-127996000D01*
X179769000Y-128016000D01*
X179789000Y-128016000D01*
X179789000Y-128270000D01*
X179769000Y-128270000D01*
X179769000Y-128290000D01*
X179515000Y-128290000D01*
X179515000Y-128270000D01*
X178321845Y-128270000D01*
X178200524Y-128499890D01*
X178245175Y-128647099D01*
X178370359Y-128909920D01*
X178544412Y-129143269D01*
X178760645Y-129338178D01*
X179010748Y-129487157D01*
X179120812Y-129526200D01*
X176724493Y-129526200D01*
X176996243Y-129254450D01*
X177119588Y-129143269D01*
X177155293Y-129095401D01*
X178291740Y-127958954D01*
X178321845Y-128016000D01*
X178321845Y-128016000D01*
G37*
X178321845Y-128016000D02*
X179515000Y-128016000D01*
X179515000Y-127996000D01*
X179769000Y-127996000D01*
X179769000Y-128016000D01*
X179789000Y-128016000D01*
X179789000Y-128270000D01*
X179769000Y-128270000D01*
X179769000Y-128290000D01*
X179515000Y-128290000D01*
X179515000Y-128270000D01*
X178321845Y-128270000D01*
X178200524Y-128499890D01*
X178245175Y-128647099D01*
X178370359Y-128909920D01*
X178544412Y-129143269D01*
X178760645Y-129338178D01*
X179010748Y-129487157D01*
X179120812Y-129526200D01*
X176724493Y-129526200D01*
X176996243Y-129254450D01*
X177119588Y-129143269D01*
X177155293Y-129095401D01*
X178291740Y-127958954D01*
X178321845Y-128016000D01*
G36*
X163767175Y-127638901D02*
G01*
X163722524Y-127786110D01*
X163843845Y-128016000D01*
X165037000Y-128016000D01*
X165037000Y-127996000D01*
X165291000Y-127996000D01*
X165291000Y-128016000D01*
X166484155Y-128016000D01*
X166605476Y-127786110D01*
X166560825Y-127638901D01*
X166450511Y-127407300D01*
X167496489Y-127407300D01*
X167386175Y-127638901D01*
X167341524Y-127786110D01*
X167462845Y-128016000D01*
X168656000Y-128016000D01*
X168656000Y-127996000D01*
X168910000Y-127996000D01*
X168910000Y-128016000D01*
X170103155Y-128016000D01*
X170224476Y-127786110D01*
X170179825Y-127638901D01*
X170069511Y-127407300D01*
X171115489Y-127407300D01*
X171005175Y-127638901D01*
X170960524Y-127786110D01*
X171081845Y-128016000D01*
X172275000Y-128016000D01*
X172275000Y-127996000D01*
X172529000Y-127996000D01*
X172529000Y-128016000D01*
X172549000Y-128016000D01*
X172549000Y-128270000D01*
X172529000Y-128270000D01*
X172529000Y-128290000D01*
X172275000Y-128290000D01*
X172275000Y-128270000D01*
X171081845Y-128270000D01*
X170960524Y-128499890D01*
X171005175Y-128647099D01*
X171110344Y-128867900D01*
X170074656Y-128867900D01*
X170179825Y-128647099D01*
X170224476Y-128499890D01*
X170103155Y-128270000D01*
X168910000Y-128270000D01*
X168910000Y-128290000D01*
X168656000Y-128290000D01*
X168656000Y-128270000D01*
X167462845Y-128270000D01*
X167341524Y-128499890D01*
X167386175Y-128647099D01*
X167491344Y-128867900D01*
X166455656Y-128867900D01*
X166560825Y-128647099D01*
X166605476Y-128499890D01*
X166484155Y-128270000D01*
X165291000Y-128270000D01*
X165291000Y-128290000D01*
X165037000Y-128290000D01*
X165037000Y-128270000D01*
X163843845Y-128270000D01*
X163722524Y-128499890D01*
X163767175Y-128647099D01*
X163872344Y-128867900D01*
X162835656Y-128867900D01*
X162940825Y-128647099D01*
X162985476Y-128499890D01*
X162864155Y-128270000D01*
X161671000Y-128270000D01*
X161671000Y-128290000D01*
X161417000Y-128290000D01*
X161417000Y-128270000D01*
X161397000Y-128270000D01*
X161397000Y-128016000D01*
X161417000Y-128016000D01*
X161417000Y-127996000D01*
X161671000Y-127996000D01*
X161671000Y-128016000D01*
X162864155Y-128016000D01*
X162985476Y-127786110D01*
X162940825Y-127638901D01*
X162830511Y-127407300D01*
X163877489Y-127407300D01*
X163767175Y-127638901D01*
X163767175Y-127638901D01*
G37*
X163767175Y-127638901D02*
X163722524Y-127786110D01*
X163843845Y-128016000D01*
X165037000Y-128016000D01*
X165037000Y-127996000D01*
X165291000Y-127996000D01*
X165291000Y-128016000D01*
X166484155Y-128016000D01*
X166605476Y-127786110D01*
X166560825Y-127638901D01*
X166450511Y-127407300D01*
X167496489Y-127407300D01*
X167386175Y-127638901D01*
X167341524Y-127786110D01*
X167462845Y-128016000D01*
X168656000Y-128016000D01*
X168656000Y-127996000D01*
X168910000Y-127996000D01*
X168910000Y-128016000D01*
X170103155Y-128016000D01*
X170224476Y-127786110D01*
X170179825Y-127638901D01*
X170069511Y-127407300D01*
X171115489Y-127407300D01*
X171005175Y-127638901D01*
X170960524Y-127786110D01*
X171081845Y-128016000D01*
X172275000Y-128016000D01*
X172275000Y-127996000D01*
X172529000Y-127996000D01*
X172529000Y-128016000D01*
X172549000Y-128016000D01*
X172549000Y-128270000D01*
X172529000Y-128270000D01*
X172529000Y-128290000D01*
X172275000Y-128290000D01*
X172275000Y-128270000D01*
X171081845Y-128270000D01*
X170960524Y-128499890D01*
X171005175Y-128647099D01*
X171110344Y-128867900D01*
X170074656Y-128867900D01*
X170179825Y-128647099D01*
X170224476Y-128499890D01*
X170103155Y-128270000D01*
X168910000Y-128270000D01*
X168910000Y-128290000D01*
X168656000Y-128290000D01*
X168656000Y-128270000D01*
X167462845Y-128270000D01*
X167341524Y-128499890D01*
X167386175Y-128647099D01*
X167491344Y-128867900D01*
X166455656Y-128867900D01*
X166560825Y-128647099D01*
X166605476Y-128499890D01*
X166484155Y-128270000D01*
X165291000Y-128270000D01*
X165291000Y-128290000D01*
X165037000Y-128290000D01*
X165037000Y-128270000D01*
X163843845Y-128270000D01*
X163722524Y-128499890D01*
X163767175Y-128647099D01*
X163872344Y-128867900D01*
X162835656Y-128867900D01*
X162940825Y-128647099D01*
X162985476Y-128499890D01*
X162864155Y-128270000D01*
X161671000Y-128270000D01*
X161671000Y-128290000D01*
X161417000Y-128290000D01*
X161417000Y-128270000D01*
X161397000Y-128270000D01*
X161397000Y-128016000D01*
X161417000Y-128016000D01*
X161417000Y-127996000D01*
X161671000Y-127996000D01*
X161671000Y-128016000D01*
X162864155Y-128016000D01*
X162985476Y-127786110D01*
X162940825Y-127638901D01*
X162830511Y-127407300D01*
X163877489Y-127407300D01*
X163767175Y-127638901D01*
G36*
X176149000Y-128016000D02*
G01*
X176169000Y-128016000D01*
X176169000Y-128270000D01*
X176149000Y-128270000D01*
X176149000Y-128290000D01*
X175895000Y-128290000D01*
X175895000Y-128270000D01*
X175875000Y-128270000D01*
X175875000Y-128016000D01*
X175895000Y-128016000D01*
X175895000Y-127996000D01*
X176149000Y-127996000D01*
X176149000Y-128016000D01*
X176149000Y-128016000D01*
G37*
X176149000Y-128016000D02*
X176169000Y-128016000D01*
X176169000Y-128270000D01*
X176149000Y-128270000D01*
X176149000Y-128290000D01*
X175895000Y-128290000D01*
X175895000Y-128270000D01*
X175875000Y-128270000D01*
X175875000Y-128016000D01*
X175895000Y-128016000D01*
X175895000Y-127996000D01*
X176149000Y-127996000D01*
X176149000Y-128016000D01*
G36*
X177584401Y-121513496D02*
G01*
X177584400Y-123377344D01*
X177582681Y-123394800D01*
X177584400Y-123412255D01*
X177584400Y-123412262D01*
X177586312Y-123431673D01*
X177589546Y-123464510D01*
X177594479Y-123480772D01*
X177609879Y-123531539D01*
X177642899Y-123593315D01*
X177687337Y-123647462D01*
X177700901Y-123658594D01*
X178506410Y-124464105D01*
X178517537Y-124477663D01*
X178531095Y-124488790D01*
X178531100Y-124488795D01*
X178560665Y-124513058D01*
X178571684Y-124522101D01*
X178633460Y-124555121D01*
X178669986Y-124566201D01*
X178700489Y-124575454D01*
X178707387Y-124576133D01*
X178752737Y-124580600D01*
X178752744Y-124580600D01*
X178770199Y-124582319D01*
X178787655Y-124580600D01*
X179158918Y-124580600D01*
X179011503Y-124659395D01*
X178839530Y-124800530D01*
X178698395Y-124972503D01*
X178593522Y-125168706D01*
X178569967Y-125246357D01*
X178563099Y-125245681D01*
X178545644Y-125247400D01*
X178545637Y-125247400D01*
X178500287Y-125251867D01*
X178493389Y-125252546D01*
X178464202Y-125261400D01*
X178426360Y-125272879D01*
X178364584Y-125305899D01*
X178310437Y-125350337D01*
X178299306Y-125363900D01*
X177336907Y-126326300D01*
X176889443Y-126326300D01*
X176965605Y-126233497D01*
X177070478Y-126037294D01*
X177135058Y-125824401D01*
X177156864Y-125603000D01*
X177135058Y-125381599D01*
X177070478Y-125168706D01*
X176965605Y-124972503D01*
X176824470Y-124800530D01*
X176652497Y-124659395D01*
X176456294Y-124554522D01*
X176243401Y-124489942D01*
X176077477Y-124473600D01*
X175966523Y-124473600D01*
X175800599Y-124489942D01*
X175587706Y-124554522D01*
X175391503Y-124659395D01*
X175219530Y-124800530D01*
X175078395Y-124972503D01*
X174973522Y-125168706D01*
X174908942Y-125381599D01*
X174887136Y-125603000D01*
X174908942Y-125824401D01*
X174973522Y-126037294D01*
X175078395Y-126233497D01*
X175219530Y-126405470D01*
X175335369Y-126500537D01*
X173819908Y-128015998D01*
X173722156Y-128015998D01*
X173843476Y-127786110D01*
X173798825Y-127638901D01*
X173673641Y-127376080D01*
X173499588Y-127142731D01*
X173283355Y-126947822D01*
X173172064Y-126881529D01*
X173762005Y-126291590D01*
X173775563Y-126280463D01*
X173786690Y-126266905D01*
X173786695Y-126266900D01*
X173820000Y-126226317D01*
X173825239Y-126216517D01*
X173853021Y-126164540D01*
X173873354Y-126097510D01*
X173878500Y-126045263D01*
X173878500Y-126045254D01*
X173880219Y-126027801D01*
X173878500Y-126010348D01*
X173878500Y-125211655D01*
X173880219Y-125194200D01*
X173878500Y-125176744D01*
X173878500Y-125176737D01*
X173873354Y-125124490D01*
X173870573Y-125115320D01*
X173859628Y-125079241D01*
X173853021Y-125057460D01*
X173820001Y-124995684D01*
X173800710Y-124972179D01*
X173786695Y-124955101D01*
X173786690Y-124955096D01*
X173775562Y-124941537D01*
X173762004Y-124930410D01*
X173091599Y-124260006D01*
X173080463Y-124246437D01*
X173026316Y-124201999D01*
X173010885Y-124193751D01*
X173252000Y-124193751D01*
X173306772Y-124188356D01*
X173359439Y-124172380D01*
X173407977Y-124146436D01*
X173450521Y-124111521D01*
X173485436Y-124068977D01*
X173511380Y-124020439D01*
X173527356Y-123967772D01*
X173532751Y-123913000D01*
X173532751Y-122213000D01*
X174891249Y-122213000D01*
X174891249Y-123913000D01*
X174896644Y-123967772D01*
X174912620Y-124020439D01*
X174938564Y-124068977D01*
X174973479Y-124111521D01*
X175016023Y-124146436D01*
X175064561Y-124172380D01*
X175117228Y-124188356D01*
X175172000Y-124193751D01*
X176872000Y-124193751D01*
X176926772Y-124188356D01*
X176979439Y-124172380D01*
X177027977Y-124146436D01*
X177070521Y-124111521D01*
X177105436Y-124068977D01*
X177131380Y-124020439D01*
X177147356Y-123967772D01*
X177152751Y-123913000D01*
X177152751Y-122213000D01*
X177147356Y-122158228D01*
X177131380Y-122105561D01*
X177105436Y-122057023D01*
X177070521Y-122014479D01*
X177027977Y-121979564D01*
X176979439Y-121953620D01*
X176926772Y-121937644D01*
X176872000Y-121932249D01*
X175172000Y-121932249D01*
X175117228Y-121937644D01*
X175064561Y-121953620D01*
X175016023Y-121979564D01*
X174973479Y-122014479D01*
X174938564Y-122057023D01*
X174912620Y-122105561D01*
X174896644Y-122158228D01*
X174891249Y-122213000D01*
X173532751Y-122213000D01*
X173527356Y-122158228D01*
X173511380Y-122105561D01*
X173485436Y-122057023D01*
X173450521Y-122014479D01*
X173407977Y-121979564D01*
X173359439Y-121953620D01*
X173306772Y-121937644D01*
X173252000Y-121932249D01*
X172754213Y-121932249D01*
X172752454Y-121914390D01*
X172732121Y-121847360D01*
X172699101Y-121785584D01*
X172654663Y-121731437D01*
X172641100Y-121720306D01*
X166348075Y-115427282D01*
X166357292Y-115421124D01*
X166451924Y-115326492D01*
X166526276Y-115215216D01*
X166577491Y-115091574D01*
X166603600Y-114960315D01*
X166603600Y-114826485D01*
X166577491Y-114695226D01*
X166526276Y-114571584D01*
X166451924Y-114460308D01*
X166357292Y-114365676D01*
X166246016Y-114291324D01*
X166122374Y-114240109D01*
X165991115Y-114214000D01*
X165857285Y-114214000D01*
X165726026Y-114240109D01*
X165602384Y-114291324D01*
X165491108Y-114365676D01*
X165396476Y-114460308D01*
X165322124Y-114571584D01*
X165270909Y-114695226D01*
X165266525Y-114717267D01*
X165253924Y-114698408D01*
X165159292Y-114603776D01*
X165048016Y-114529424D01*
X164924374Y-114478209D01*
X164793115Y-114452100D01*
X164659285Y-114452100D01*
X164528026Y-114478209D01*
X164404384Y-114529424D01*
X164293108Y-114603776D01*
X164198476Y-114698408D01*
X164124124Y-114809684D01*
X164072909Y-114933326D01*
X164046800Y-115064585D01*
X164046800Y-115198415D01*
X164064982Y-115289824D01*
X164039600Y-115315207D01*
X164039600Y-113632416D01*
X164096508Y-113689324D01*
X164207784Y-113763676D01*
X164331426Y-113814891D01*
X164462685Y-113841000D01*
X164596515Y-113841000D01*
X164727774Y-113814891D01*
X164851416Y-113763676D01*
X164962692Y-113689324D01*
X165057324Y-113594692D01*
X165109102Y-113517200D01*
X167805807Y-113517200D01*
X175244282Y-120955676D01*
X175226100Y-121047085D01*
X175226100Y-121180915D01*
X175252209Y-121312174D01*
X175303424Y-121435816D01*
X175377776Y-121547092D01*
X175472408Y-121641724D01*
X175583684Y-121716076D01*
X175707326Y-121767291D01*
X175838585Y-121793400D01*
X175972415Y-121793400D01*
X176103674Y-121767291D01*
X176227316Y-121716076D01*
X176338592Y-121641724D01*
X176433224Y-121547092D01*
X176507576Y-121435816D01*
X176558791Y-121312174D01*
X176584900Y-121180915D01*
X176584900Y-121047085D01*
X176558791Y-120915826D01*
X176507576Y-120792184D01*
X176433224Y-120680908D01*
X176338592Y-120586276D01*
X176227316Y-120511924D01*
X176103674Y-120460709D01*
X175972415Y-120434600D01*
X175838585Y-120434600D01*
X175747176Y-120452782D01*
X168216899Y-112922506D01*
X168205763Y-112908937D01*
X168151616Y-112864499D01*
X168089840Y-112831479D01*
X168022810Y-112811146D01*
X167970563Y-112806000D01*
X167970555Y-112806000D01*
X167953100Y-112804281D01*
X167935645Y-112806000D01*
X165109102Y-112806000D01*
X165057324Y-112728508D01*
X164962692Y-112633876D01*
X164851416Y-112559524D01*
X164727774Y-112508309D01*
X164596515Y-112482200D01*
X164462685Y-112482200D01*
X164331426Y-112508309D01*
X164207784Y-112559524D01*
X164096508Y-112633876D01*
X164039600Y-112690784D01*
X164039600Y-108609902D01*
X164117092Y-108558124D01*
X164211724Y-108463492D01*
X164286076Y-108352216D01*
X164326217Y-108255310D01*
X177584401Y-121513496D01*
X177584401Y-121513496D01*
G37*
X177584401Y-121513496D02*
X177584400Y-123377344D01*
X177582681Y-123394800D01*
X177584400Y-123412255D01*
X177584400Y-123412262D01*
X177586312Y-123431673D01*
X177589546Y-123464510D01*
X177594479Y-123480772D01*
X177609879Y-123531539D01*
X177642899Y-123593315D01*
X177687337Y-123647462D01*
X177700901Y-123658594D01*
X178506410Y-124464105D01*
X178517537Y-124477663D01*
X178531095Y-124488790D01*
X178531100Y-124488795D01*
X178560665Y-124513058D01*
X178571684Y-124522101D01*
X178633460Y-124555121D01*
X178669986Y-124566201D01*
X178700489Y-124575454D01*
X178707387Y-124576133D01*
X178752737Y-124580600D01*
X178752744Y-124580600D01*
X178770199Y-124582319D01*
X178787655Y-124580600D01*
X179158918Y-124580600D01*
X179011503Y-124659395D01*
X178839530Y-124800530D01*
X178698395Y-124972503D01*
X178593522Y-125168706D01*
X178569967Y-125246357D01*
X178563099Y-125245681D01*
X178545644Y-125247400D01*
X178545637Y-125247400D01*
X178500287Y-125251867D01*
X178493389Y-125252546D01*
X178464202Y-125261400D01*
X178426360Y-125272879D01*
X178364584Y-125305899D01*
X178310437Y-125350337D01*
X178299306Y-125363900D01*
X177336907Y-126326300D01*
X176889443Y-126326300D01*
X176965605Y-126233497D01*
X177070478Y-126037294D01*
X177135058Y-125824401D01*
X177156864Y-125603000D01*
X177135058Y-125381599D01*
X177070478Y-125168706D01*
X176965605Y-124972503D01*
X176824470Y-124800530D01*
X176652497Y-124659395D01*
X176456294Y-124554522D01*
X176243401Y-124489942D01*
X176077477Y-124473600D01*
X175966523Y-124473600D01*
X175800599Y-124489942D01*
X175587706Y-124554522D01*
X175391503Y-124659395D01*
X175219530Y-124800530D01*
X175078395Y-124972503D01*
X174973522Y-125168706D01*
X174908942Y-125381599D01*
X174887136Y-125603000D01*
X174908942Y-125824401D01*
X174973522Y-126037294D01*
X175078395Y-126233497D01*
X175219530Y-126405470D01*
X175335369Y-126500537D01*
X173819908Y-128015998D01*
X173722156Y-128015998D01*
X173843476Y-127786110D01*
X173798825Y-127638901D01*
X173673641Y-127376080D01*
X173499588Y-127142731D01*
X173283355Y-126947822D01*
X173172064Y-126881529D01*
X173762005Y-126291590D01*
X173775563Y-126280463D01*
X173786690Y-126266905D01*
X173786695Y-126266900D01*
X173820000Y-126226317D01*
X173825239Y-126216517D01*
X173853021Y-126164540D01*
X173873354Y-126097510D01*
X173878500Y-126045263D01*
X173878500Y-126045254D01*
X173880219Y-126027801D01*
X173878500Y-126010348D01*
X173878500Y-125211655D01*
X173880219Y-125194200D01*
X173878500Y-125176744D01*
X173878500Y-125176737D01*
X173873354Y-125124490D01*
X173870573Y-125115320D01*
X173859628Y-125079241D01*
X173853021Y-125057460D01*
X173820001Y-124995684D01*
X173800710Y-124972179D01*
X173786695Y-124955101D01*
X173786690Y-124955096D01*
X173775562Y-124941537D01*
X173762004Y-124930410D01*
X173091599Y-124260006D01*
X173080463Y-124246437D01*
X173026316Y-124201999D01*
X173010885Y-124193751D01*
X173252000Y-124193751D01*
X173306772Y-124188356D01*
X173359439Y-124172380D01*
X173407977Y-124146436D01*
X173450521Y-124111521D01*
X173485436Y-124068977D01*
X173511380Y-124020439D01*
X173527356Y-123967772D01*
X173532751Y-123913000D01*
X173532751Y-122213000D01*
X174891249Y-122213000D01*
X174891249Y-123913000D01*
X174896644Y-123967772D01*
X174912620Y-124020439D01*
X174938564Y-124068977D01*
X174973479Y-124111521D01*
X175016023Y-124146436D01*
X175064561Y-124172380D01*
X175117228Y-124188356D01*
X175172000Y-124193751D01*
X176872000Y-124193751D01*
X176926772Y-124188356D01*
X176979439Y-124172380D01*
X177027977Y-124146436D01*
X177070521Y-124111521D01*
X177105436Y-124068977D01*
X177131380Y-124020439D01*
X177147356Y-123967772D01*
X177152751Y-123913000D01*
X177152751Y-122213000D01*
X177147356Y-122158228D01*
X177131380Y-122105561D01*
X177105436Y-122057023D01*
X177070521Y-122014479D01*
X177027977Y-121979564D01*
X176979439Y-121953620D01*
X176926772Y-121937644D01*
X176872000Y-121932249D01*
X175172000Y-121932249D01*
X175117228Y-121937644D01*
X175064561Y-121953620D01*
X175016023Y-121979564D01*
X174973479Y-122014479D01*
X174938564Y-122057023D01*
X174912620Y-122105561D01*
X174896644Y-122158228D01*
X174891249Y-122213000D01*
X173532751Y-122213000D01*
X173527356Y-122158228D01*
X173511380Y-122105561D01*
X173485436Y-122057023D01*
X173450521Y-122014479D01*
X173407977Y-121979564D01*
X173359439Y-121953620D01*
X173306772Y-121937644D01*
X173252000Y-121932249D01*
X172754213Y-121932249D01*
X172752454Y-121914390D01*
X172732121Y-121847360D01*
X172699101Y-121785584D01*
X172654663Y-121731437D01*
X172641100Y-121720306D01*
X166348075Y-115427282D01*
X166357292Y-115421124D01*
X166451924Y-115326492D01*
X166526276Y-115215216D01*
X166577491Y-115091574D01*
X166603600Y-114960315D01*
X166603600Y-114826485D01*
X166577491Y-114695226D01*
X166526276Y-114571584D01*
X166451924Y-114460308D01*
X166357292Y-114365676D01*
X166246016Y-114291324D01*
X166122374Y-114240109D01*
X165991115Y-114214000D01*
X165857285Y-114214000D01*
X165726026Y-114240109D01*
X165602384Y-114291324D01*
X165491108Y-114365676D01*
X165396476Y-114460308D01*
X165322124Y-114571584D01*
X165270909Y-114695226D01*
X165266525Y-114717267D01*
X165253924Y-114698408D01*
X165159292Y-114603776D01*
X165048016Y-114529424D01*
X164924374Y-114478209D01*
X164793115Y-114452100D01*
X164659285Y-114452100D01*
X164528026Y-114478209D01*
X164404384Y-114529424D01*
X164293108Y-114603776D01*
X164198476Y-114698408D01*
X164124124Y-114809684D01*
X164072909Y-114933326D01*
X164046800Y-115064585D01*
X164046800Y-115198415D01*
X164064982Y-115289824D01*
X164039600Y-115315207D01*
X164039600Y-113632416D01*
X164096508Y-113689324D01*
X164207784Y-113763676D01*
X164331426Y-113814891D01*
X164462685Y-113841000D01*
X164596515Y-113841000D01*
X164727774Y-113814891D01*
X164851416Y-113763676D01*
X164962692Y-113689324D01*
X165057324Y-113594692D01*
X165109102Y-113517200D01*
X167805807Y-113517200D01*
X175244282Y-120955676D01*
X175226100Y-121047085D01*
X175226100Y-121180915D01*
X175252209Y-121312174D01*
X175303424Y-121435816D01*
X175377776Y-121547092D01*
X175472408Y-121641724D01*
X175583684Y-121716076D01*
X175707326Y-121767291D01*
X175838585Y-121793400D01*
X175972415Y-121793400D01*
X176103674Y-121767291D01*
X176227316Y-121716076D01*
X176338592Y-121641724D01*
X176433224Y-121547092D01*
X176507576Y-121435816D01*
X176558791Y-121312174D01*
X176584900Y-121180915D01*
X176584900Y-121047085D01*
X176558791Y-120915826D01*
X176507576Y-120792184D01*
X176433224Y-120680908D01*
X176338592Y-120586276D01*
X176227316Y-120511924D01*
X176103674Y-120460709D01*
X175972415Y-120434600D01*
X175838585Y-120434600D01*
X175747176Y-120452782D01*
X168216899Y-112922506D01*
X168205763Y-112908937D01*
X168151616Y-112864499D01*
X168089840Y-112831479D01*
X168022810Y-112811146D01*
X167970563Y-112806000D01*
X167970555Y-112806000D01*
X167953100Y-112804281D01*
X167935645Y-112806000D01*
X165109102Y-112806000D01*
X165057324Y-112728508D01*
X164962692Y-112633876D01*
X164851416Y-112559524D01*
X164727774Y-112508309D01*
X164596515Y-112482200D01*
X164462685Y-112482200D01*
X164331426Y-112508309D01*
X164207784Y-112559524D01*
X164096508Y-112633876D01*
X164039600Y-112690784D01*
X164039600Y-108609902D01*
X164117092Y-108558124D01*
X164211724Y-108463492D01*
X164286076Y-108352216D01*
X164326217Y-108255310D01*
X177584401Y-121513496D01*
G36*
X157183000Y-123932845D02*
G01*
X157181281Y-123950300D01*
X157183000Y-123967755D01*
X157183000Y-123967762D01*
X157185374Y-123991860D01*
X157188146Y-124020010D01*
X157195111Y-124042969D01*
X157208479Y-124087039D01*
X157241499Y-124148815D01*
X157285937Y-124202962D01*
X157299502Y-124214095D01*
X159210901Y-126125495D01*
X159222034Y-126139060D01*
X159276181Y-126183498D01*
X159337957Y-126216518D01*
X159404987Y-126236851D01*
X159457234Y-126241997D01*
X159457242Y-126241997D01*
X159474697Y-126243716D01*
X159492152Y-126241997D01*
X159652707Y-126241997D01*
X160502701Y-127091993D01*
X160446412Y-127142731D01*
X160272359Y-127376080D01*
X160147175Y-127638901D01*
X160116134Y-127741240D01*
X156496700Y-124121807D01*
X156496700Y-123101774D01*
X156500411Y-123104254D01*
X156624053Y-123155469D01*
X156755312Y-123181578D01*
X156889142Y-123181578D01*
X157020401Y-123155469D01*
X157144043Y-123104254D01*
X157183000Y-123078224D01*
X157183000Y-123932845D01*
X157183000Y-123932845D01*
G37*
X157183000Y-123932845D02*
X157181281Y-123950300D01*
X157183000Y-123967755D01*
X157183000Y-123967762D01*
X157185374Y-123991860D01*
X157188146Y-124020010D01*
X157195111Y-124042969D01*
X157208479Y-124087039D01*
X157241499Y-124148815D01*
X157285937Y-124202962D01*
X157299502Y-124214095D01*
X159210901Y-126125495D01*
X159222034Y-126139060D01*
X159276181Y-126183498D01*
X159337957Y-126216518D01*
X159404987Y-126236851D01*
X159457234Y-126241997D01*
X159457242Y-126241997D01*
X159474697Y-126243716D01*
X159492152Y-126241997D01*
X159652707Y-126241997D01*
X160502701Y-127091993D01*
X160446412Y-127142731D01*
X160272359Y-127376080D01*
X160147175Y-127638901D01*
X160116134Y-127741240D01*
X156496700Y-124121807D01*
X156496700Y-123101774D01*
X156500411Y-123104254D01*
X156624053Y-123155469D01*
X156755312Y-123181578D01*
X156889142Y-123181578D01*
X157020401Y-123155469D01*
X157144043Y-123104254D01*
X157183000Y-123078224D01*
X157183000Y-123932845D01*
G36*
X165396476Y-115326492D02*
G01*
X165491108Y-115421124D01*
X165568600Y-115472902D01*
X165568600Y-115488844D01*
X165566881Y-115506300D01*
X165568600Y-115523755D01*
X165568600Y-115523762D01*
X165572778Y-115566183D01*
X165573746Y-115576010D01*
X165577760Y-115589241D01*
X165594079Y-115643039D01*
X165627099Y-115704815D01*
X165671537Y-115758962D01*
X165685102Y-115770095D01*
X171847255Y-121932249D01*
X171552000Y-121932249D01*
X171497228Y-121937644D01*
X171444561Y-121953620D01*
X171396023Y-121979564D01*
X171353479Y-122014479D01*
X171318564Y-122057023D01*
X171292620Y-122105561D01*
X171276644Y-122158228D01*
X171271249Y-122213000D01*
X171271249Y-123913000D01*
X171276644Y-123967772D01*
X171292620Y-124020439D01*
X171318564Y-124068977D01*
X171353479Y-124111521D01*
X171392445Y-124143500D01*
X169904352Y-124143500D01*
X169886899Y-124141781D01*
X169869446Y-124143500D01*
X169869437Y-124143500D01*
X169817190Y-124148646D01*
X169750160Y-124168979D01*
X169688384Y-124201999D01*
X169686653Y-124203420D01*
X169647800Y-124235305D01*
X169647795Y-124235310D01*
X169634237Y-124246437D01*
X169623110Y-124259995D01*
X169289818Y-124593287D01*
X169217294Y-124554522D01*
X169004401Y-124489942D01*
X168838477Y-124473600D01*
X168727523Y-124473600D01*
X168561599Y-124489942D01*
X168348706Y-124554522D01*
X168152503Y-124659395D01*
X167980530Y-124800530D01*
X167839395Y-124972503D01*
X167734522Y-125168706D01*
X167669942Y-125381599D01*
X167648136Y-125603000D01*
X167669942Y-125824401D01*
X167734522Y-126037294D01*
X167839395Y-126233497D01*
X167958560Y-126378700D01*
X165988440Y-126378700D01*
X166107605Y-126233497D01*
X166212478Y-126037294D01*
X166277058Y-125824401D01*
X166298864Y-125603000D01*
X166277058Y-125381599D01*
X166212478Y-125168706D01*
X166107605Y-124972503D01*
X165966470Y-124800530D01*
X165794497Y-124659395D01*
X165598294Y-124554522D01*
X165520644Y-124530967D01*
X165521320Y-124524100D01*
X165514454Y-124454390D01*
X165494121Y-124387360D01*
X165461101Y-124325584D01*
X165416663Y-124271437D01*
X165362516Y-124226999D01*
X165300740Y-124193979D01*
X165299988Y-124193751D01*
X166014000Y-124193751D01*
X166068772Y-124188356D01*
X166121439Y-124172380D01*
X166169977Y-124146436D01*
X166212521Y-124111521D01*
X166247436Y-124068977D01*
X166273380Y-124020439D01*
X166289356Y-123967772D01*
X166294751Y-123913000D01*
X166294751Y-122213000D01*
X166289356Y-122158228D01*
X166273380Y-122105561D01*
X166247436Y-122057023D01*
X166212521Y-122014479D01*
X166169977Y-121979564D01*
X166121439Y-121953620D01*
X166068772Y-121937644D01*
X166014000Y-121932249D01*
X164440600Y-121932249D01*
X164440600Y-117015985D01*
X164698400Y-117015985D01*
X164698400Y-117149815D01*
X164724509Y-117281074D01*
X164775724Y-117404716D01*
X164850076Y-117515992D01*
X164944708Y-117610624D01*
X165022201Y-117662403D01*
X165022200Y-118561444D01*
X165020481Y-118578900D01*
X165022200Y-118596355D01*
X165022200Y-118596362D01*
X165027346Y-118648609D01*
X165047679Y-118715639D01*
X165080699Y-118777415D01*
X165125137Y-118831562D01*
X165138702Y-118842695D01*
X168228255Y-121932249D01*
X167933000Y-121932249D01*
X167878228Y-121937644D01*
X167825561Y-121953620D01*
X167777023Y-121979564D01*
X167734479Y-122014479D01*
X167699564Y-122057023D01*
X167673620Y-122105561D01*
X167657644Y-122158228D01*
X167652249Y-122213000D01*
X167652249Y-123913000D01*
X167657644Y-123967772D01*
X167673620Y-124020439D01*
X167699564Y-124068977D01*
X167734479Y-124111521D01*
X167777023Y-124146436D01*
X167825561Y-124172380D01*
X167878228Y-124188356D01*
X167933000Y-124193751D01*
X169633000Y-124193751D01*
X169687772Y-124188356D01*
X169740439Y-124172380D01*
X169788977Y-124146436D01*
X169831521Y-124111521D01*
X169866436Y-124068977D01*
X169892380Y-124020439D01*
X169908356Y-123967772D01*
X169913751Y-123913000D01*
X169913751Y-122213000D01*
X169908356Y-122158228D01*
X169892380Y-122105561D01*
X169866436Y-122057023D01*
X169831521Y-122014479D01*
X169788977Y-121979564D01*
X169740439Y-121953620D01*
X169687772Y-121937644D01*
X169633000Y-121932249D01*
X169135213Y-121932249D01*
X169133454Y-121914390D01*
X169113121Y-121847360D01*
X169080101Y-121785584D01*
X169035663Y-121731437D01*
X169022100Y-121720306D01*
X165733400Y-118431607D01*
X165733400Y-117662402D01*
X165810892Y-117610624D01*
X165905524Y-117515992D01*
X165979876Y-117404716D01*
X166031091Y-117281074D01*
X166057200Y-117149815D01*
X166057200Y-117015985D01*
X166031091Y-116884726D01*
X165979876Y-116761084D01*
X165905524Y-116649808D01*
X165810892Y-116555176D01*
X165699616Y-116480824D01*
X165575974Y-116429609D01*
X165444715Y-116403500D01*
X165310885Y-116403500D01*
X165179626Y-116429609D01*
X165055984Y-116480824D01*
X164944708Y-116555176D01*
X164850076Y-116649808D01*
X164775724Y-116761084D01*
X164724509Y-116884726D01*
X164698400Y-117015985D01*
X164440600Y-117015985D01*
X164440600Y-115919993D01*
X164567876Y-115792718D01*
X164659285Y-115810900D01*
X164793115Y-115810900D01*
X164924374Y-115784791D01*
X165048016Y-115733576D01*
X165159292Y-115659224D01*
X165253924Y-115564592D01*
X165328276Y-115453316D01*
X165379491Y-115329674D01*
X165383875Y-115307633D01*
X165396476Y-115326492D01*
X165396476Y-115326492D01*
G37*
X165396476Y-115326492D02*
X165491108Y-115421124D01*
X165568600Y-115472902D01*
X165568600Y-115488844D01*
X165566881Y-115506300D01*
X165568600Y-115523755D01*
X165568600Y-115523762D01*
X165572778Y-115566183D01*
X165573746Y-115576010D01*
X165577760Y-115589241D01*
X165594079Y-115643039D01*
X165627099Y-115704815D01*
X165671537Y-115758962D01*
X165685102Y-115770095D01*
X171847255Y-121932249D01*
X171552000Y-121932249D01*
X171497228Y-121937644D01*
X171444561Y-121953620D01*
X171396023Y-121979564D01*
X171353479Y-122014479D01*
X171318564Y-122057023D01*
X171292620Y-122105561D01*
X171276644Y-122158228D01*
X171271249Y-122213000D01*
X171271249Y-123913000D01*
X171276644Y-123967772D01*
X171292620Y-124020439D01*
X171318564Y-124068977D01*
X171353479Y-124111521D01*
X171392445Y-124143500D01*
X169904352Y-124143500D01*
X169886899Y-124141781D01*
X169869446Y-124143500D01*
X169869437Y-124143500D01*
X169817190Y-124148646D01*
X169750160Y-124168979D01*
X169688384Y-124201999D01*
X169686653Y-124203420D01*
X169647800Y-124235305D01*
X169647795Y-124235310D01*
X169634237Y-124246437D01*
X169623110Y-124259995D01*
X169289818Y-124593287D01*
X169217294Y-124554522D01*
X169004401Y-124489942D01*
X168838477Y-124473600D01*
X168727523Y-124473600D01*
X168561599Y-124489942D01*
X168348706Y-124554522D01*
X168152503Y-124659395D01*
X167980530Y-124800530D01*
X167839395Y-124972503D01*
X167734522Y-125168706D01*
X167669942Y-125381599D01*
X167648136Y-125603000D01*
X167669942Y-125824401D01*
X167734522Y-126037294D01*
X167839395Y-126233497D01*
X167958560Y-126378700D01*
X165988440Y-126378700D01*
X166107605Y-126233497D01*
X166212478Y-126037294D01*
X166277058Y-125824401D01*
X166298864Y-125603000D01*
X166277058Y-125381599D01*
X166212478Y-125168706D01*
X166107605Y-124972503D01*
X165966470Y-124800530D01*
X165794497Y-124659395D01*
X165598294Y-124554522D01*
X165520644Y-124530967D01*
X165521320Y-124524100D01*
X165514454Y-124454390D01*
X165494121Y-124387360D01*
X165461101Y-124325584D01*
X165416663Y-124271437D01*
X165362516Y-124226999D01*
X165300740Y-124193979D01*
X165299988Y-124193751D01*
X166014000Y-124193751D01*
X166068772Y-124188356D01*
X166121439Y-124172380D01*
X166169977Y-124146436D01*
X166212521Y-124111521D01*
X166247436Y-124068977D01*
X166273380Y-124020439D01*
X166289356Y-123967772D01*
X166294751Y-123913000D01*
X166294751Y-122213000D01*
X166289356Y-122158228D01*
X166273380Y-122105561D01*
X166247436Y-122057023D01*
X166212521Y-122014479D01*
X166169977Y-121979564D01*
X166121439Y-121953620D01*
X166068772Y-121937644D01*
X166014000Y-121932249D01*
X164440600Y-121932249D01*
X164440600Y-117015985D01*
X164698400Y-117015985D01*
X164698400Y-117149815D01*
X164724509Y-117281074D01*
X164775724Y-117404716D01*
X164850076Y-117515992D01*
X164944708Y-117610624D01*
X165022201Y-117662403D01*
X165022200Y-118561444D01*
X165020481Y-118578900D01*
X165022200Y-118596355D01*
X165022200Y-118596362D01*
X165027346Y-118648609D01*
X165047679Y-118715639D01*
X165080699Y-118777415D01*
X165125137Y-118831562D01*
X165138702Y-118842695D01*
X168228255Y-121932249D01*
X167933000Y-121932249D01*
X167878228Y-121937644D01*
X167825561Y-121953620D01*
X167777023Y-121979564D01*
X167734479Y-122014479D01*
X167699564Y-122057023D01*
X167673620Y-122105561D01*
X167657644Y-122158228D01*
X167652249Y-122213000D01*
X167652249Y-123913000D01*
X167657644Y-123967772D01*
X167673620Y-124020439D01*
X167699564Y-124068977D01*
X167734479Y-124111521D01*
X167777023Y-124146436D01*
X167825561Y-124172380D01*
X167878228Y-124188356D01*
X167933000Y-124193751D01*
X169633000Y-124193751D01*
X169687772Y-124188356D01*
X169740439Y-124172380D01*
X169788977Y-124146436D01*
X169831521Y-124111521D01*
X169866436Y-124068977D01*
X169892380Y-124020439D01*
X169908356Y-123967772D01*
X169913751Y-123913000D01*
X169913751Y-122213000D01*
X169908356Y-122158228D01*
X169892380Y-122105561D01*
X169866436Y-122057023D01*
X169831521Y-122014479D01*
X169788977Y-121979564D01*
X169740439Y-121953620D01*
X169687772Y-121937644D01*
X169633000Y-121932249D01*
X169135213Y-121932249D01*
X169133454Y-121914390D01*
X169113121Y-121847360D01*
X169080101Y-121785584D01*
X169035663Y-121731437D01*
X169022100Y-121720306D01*
X165733400Y-118431607D01*
X165733400Y-117662402D01*
X165810892Y-117610624D01*
X165905524Y-117515992D01*
X165979876Y-117404716D01*
X166031091Y-117281074D01*
X166057200Y-117149815D01*
X166057200Y-117015985D01*
X166031091Y-116884726D01*
X165979876Y-116761084D01*
X165905524Y-116649808D01*
X165810892Y-116555176D01*
X165699616Y-116480824D01*
X165575974Y-116429609D01*
X165444715Y-116403500D01*
X165310885Y-116403500D01*
X165179626Y-116429609D01*
X165055984Y-116480824D01*
X164944708Y-116555176D01*
X164850076Y-116649808D01*
X164775724Y-116761084D01*
X164724509Y-116884726D01*
X164698400Y-117015985D01*
X164440600Y-117015985D01*
X164440600Y-115919993D01*
X164567876Y-115792718D01*
X164659285Y-115810900D01*
X164793115Y-115810900D01*
X164924374Y-115784791D01*
X165048016Y-115733576D01*
X165159292Y-115659224D01*
X165253924Y-115564592D01*
X165328276Y-115453316D01*
X165379491Y-115329674D01*
X165383875Y-115307633D01*
X165396476Y-115326492D01*
G36*
X157915629Y-119205701D02*
G01*
X157915630Y-121507100D01*
X157913910Y-121524565D01*
X157920775Y-121594275D01*
X157941109Y-121661306D01*
X157953149Y-121683830D01*
X157956082Y-121689318D01*
X157934085Y-121799906D01*
X157934085Y-121933736D01*
X157960194Y-122064995D01*
X158011409Y-122188637D01*
X158085761Y-122299913D01*
X158180393Y-122394545D01*
X158291669Y-122468897D01*
X158415311Y-122520112D01*
X158546570Y-122546221D01*
X158680400Y-122546221D01*
X158811659Y-122520112D01*
X158935301Y-122468897D01*
X159046577Y-122394545D01*
X159141209Y-122299913D01*
X159215561Y-122188637D01*
X159237163Y-122136487D01*
X159324041Y-122172474D01*
X159455300Y-122198583D01*
X159589130Y-122198583D01*
X159720389Y-122172474D01*
X159795216Y-122141479D01*
X159795216Y-124094189D01*
X159608124Y-124281282D01*
X159516715Y-124263100D01*
X159382885Y-124263100D01*
X159251626Y-124289209D01*
X159127984Y-124340424D01*
X159016708Y-124414776D01*
X158922076Y-124509408D01*
X158847724Y-124620684D01*
X158807935Y-124716742D01*
X157894200Y-123803007D01*
X157894200Y-119191383D01*
X157915629Y-119205701D01*
X157915629Y-119205701D01*
G37*
X157915629Y-119205701D02*
X157915630Y-121507100D01*
X157913910Y-121524565D01*
X157920775Y-121594275D01*
X157941109Y-121661306D01*
X157953149Y-121683830D01*
X157956082Y-121689318D01*
X157934085Y-121799906D01*
X157934085Y-121933736D01*
X157960194Y-122064995D01*
X158011409Y-122188637D01*
X158085761Y-122299913D01*
X158180393Y-122394545D01*
X158291669Y-122468897D01*
X158415311Y-122520112D01*
X158546570Y-122546221D01*
X158680400Y-122546221D01*
X158811659Y-122520112D01*
X158935301Y-122468897D01*
X159046577Y-122394545D01*
X159141209Y-122299913D01*
X159215561Y-122188637D01*
X159237163Y-122136487D01*
X159324041Y-122172474D01*
X159455300Y-122198583D01*
X159589130Y-122198583D01*
X159720389Y-122172474D01*
X159795216Y-122141479D01*
X159795216Y-124094189D01*
X159608124Y-124281282D01*
X159516715Y-124263100D01*
X159382885Y-124263100D01*
X159251626Y-124289209D01*
X159127984Y-124340424D01*
X159016708Y-124414776D01*
X158922076Y-124509408D01*
X158847724Y-124620684D01*
X158807935Y-124716742D01*
X157894200Y-123803007D01*
X157894200Y-119191383D01*
X157915629Y-119205701D01*
G36*
X167275104Y-109515098D02*
G01*
X167286237Y-109528663D01*
X167340384Y-109573101D01*
X167402160Y-109606121D01*
X167469190Y-109626454D01*
X167521437Y-109631600D01*
X167521445Y-109631600D01*
X167538900Y-109633319D01*
X167556355Y-109631600D01*
X169364707Y-109631600D01*
X184162706Y-124429600D01*
X183054216Y-124429600D01*
X183085124Y-124398692D01*
X183159476Y-124287416D01*
X183210691Y-124163774D01*
X183236800Y-124032515D01*
X183236800Y-123898685D01*
X183210691Y-123767426D01*
X183159476Y-123643784D01*
X183085124Y-123532508D01*
X182990492Y-123437876D01*
X182879216Y-123363524D01*
X182755574Y-123312309D01*
X182624315Y-123286200D01*
X182490485Y-123286200D01*
X182476063Y-123289069D01*
X175811499Y-116624506D01*
X175800363Y-116610937D01*
X175746216Y-116566499D01*
X175684440Y-116533479D01*
X175617410Y-116513146D01*
X175565163Y-116508000D01*
X175565155Y-116508000D01*
X175547700Y-116506281D01*
X175530245Y-116508000D01*
X175513902Y-116508000D01*
X175462124Y-116430508D01*
X175367492Y-116335876D01*
X175256216Y-116261524D01*
X175132574Y-116210309D01*
X175001315Y-116184200D01*
X174867485Y-116184200D01*
X174736226Y-116210309D01*
X174612584Y-116261524D01*
X174501308Y-116335876D01*
X174406676Y-116430508D01*
X174332324Y-116541784D01*
X174295552Y-116630558D01*
X166211374Y-108546381D01*
X166290624Y-108530618D01*
X167275104Y-109515098D01*
X167275104Y-109515098D01*
G37*
X167275104Y-109515098D02*
X167286237Y-109528663D01*
X167340384Y-109573101D01*
X167402160Y-109606121D01*
X167469190Y-109626454D01*
X167521437Y-109631600D01*
X167521445Y-109631600D01*
X167538900Y-109633319D01*
X167556355Y-109631600D01*
X169364707Y-109631600D01*
X184162706Y-124429600D01*
X183054216Y-124429600D01*
X183085124Y-124398692D01*
X183159476Y-124287416D01*
X183210691Y-124163774D01*
X183236800Y-124032515D01*
X183236800Y-123898685D01*
X183210691Y-123767426D01*
X183159476Y-123643784D01*
X183085124Y-123532508D01*
X182990492Y-123437876D01*
X182879216Y-123363524D01*
X182755574Y-123312309D01*
X182624315Y-123286200D01*
X182490485Y-123286200D01*
X182476063Y-123289069D01*
X175811499Y-116624506D01*
X175800363Y-116610937D01*
X175746216Y-116566499D01*
X175684440Y-116533479D01*
X175617410Y-116513146D01*
X175565163Y-116508000D01*
X175565155Y-116508000D01*
X175547700Y-116506281D01*
X175530245Y-116508000D01*
X175513902Y-116508000D01*
X175462124Y-116430508D01*
X175367492Y-116335876D01*
X175256216Y-116261524D01*
X175132574Y-116210309D01*
X175001315Y-116184200D01*
X174867485Y-116184200D01*
X174736226Y-116210309D01*
X174612584Y-116261524D01*
X174501308Y-116335876D01*
X174406676Y-116430508D01*
X174332324Y-116541784D01*
X174295552Y-116630558D01*
X166211374Y-108546381D01*
X166290624Y-108530618D01*
X167275104Y-109515098D01*
G36*
X189111800Y-120860245D02*
G01*
X189110081Y-120877700D01*
X189111800Y-120895155D01*
X189111800Y-120895162D01*
X189116946Y-120947409D01*
X189137279Y-121014439D01*
X189170299Y-121076215D01*
X189214737Y-121130362D01*
X189228301Y-121141494D01*
X190555101Y-122468296D01*
X190555101Y-122558655D01*
X190430497Y-122456395D01*
X190234294Y-122351522D01*
X190021401Y-122286942D01*
X189855477Y-122270600D01*
X189744523Y-122270600D01*
X189578599Y-122286942D01*
X189365706Y-122351522D01*
X189169503Y-122456395D01*
X188997530Y-122597530D01*
X188856395Y-122769503D01*
X188777600Y-122916918D01*
X188777600Y-118438893D01*
X189111800Y-118104693D01*
X189111800Y-120860245D01*
X189111800Y-120860245D01*
G37*
X189111800Y-120860245D02*
X189110081Y-120877700D01*
X189111800Y-120895155D01*
X189111800Y-120895162D01*
X189116946Y-120947409D01*
X189137279Y-121014439D01*
X189170299Y-121076215D01*
X189214737Y-121130362D01*
X189228301Y-121141494D01*
X190555101Y-122468296D01*
X190555101Y-122558655D01*
X190430497Y-122456395D01*
X190234294Y-122351522D01*
X190021401Y-122286942D01*
X189855477Y-122270600D01*
X189744523Y-122270600D01*
X189578599Y-122286942D01*
X189365706Y-122351522D01*
X189169503Y-122456395D01*
X188997530Y-122597530D01*
X188856395Y-122769503D01*
X188777600Y-122916918D01*
X188777600Y-118438893D01*
X189111800Y-118104693D01*
X189111800Y-120860245D01*
G36*
X177716395Y-96069503D02*
G01*
X177611522Y-96265706D01*
X177546942Y-96478599D01*
X177525136Y-96700000D01*
X177546942Y-96921401D01*
X177611522Y-97134294D01*
X177716395Y-97330497D01*
X177857530Y-97502470D01*
X178029503Y-97643605D01*
X178225706Y-97748478D01*
X178304401Y-97772350D01*
X178304400Y-99727650D01*
X178225706Y-99751522D01*
X178029503Y-99856395D01*
X177857530Y-99997530D01*
X177716395Y-100169503D01*
X177611522Y-100365706D01*
X177546942Y-100578599D01*
X177525136Y-100800000D01*
X177546942Y-101021401D01*
X177611522Y-101234294D01*
X177716395Y-101430497D01*
X177857530Y-101602470D01*
X178029503Y-101743605D01*
X178225706Y-101848478D01*
X178303357Y-101872033D01*
X178302681Y-101878900D01*
X178309546Y-101948610D01*
X178329880Y-102015641D01*
X178338707Y-102032154D01*
X178362900Y-102077416D01*
X178407338Y-102131563D01*
X178420901Y-102142694D01*
X186787501Y-110509296D01*
X186787500Y-113120107D01*
X186688301Y-113219306D01*
X186674738Y-113230437D01*
X186630300Y-113284584D01*
X186622947Y-113298341D01*
X186597280Y-113346359D01*
X186576946Y-113413390D01*
X186570081Y-113483100D01*
X186571801Y-113500565D01*
X186571801Y-114021673D01*
X186541103Y-113920477D01*
X186434968Y-113721911D01*
X186292133Y-113547867D01*
X186118089Y-113405032D01*
X185919523Y-113298897D01*
X185704067Y-113233539D01*
X185536146Y-113217000D01*
X185423854Y-113217000D01*
X185255933Y-113233539D01*
X185040477Y-113298897D01*
X184841911Y-113405032D01*
X184667867Y-113547867D01*
X184525032Y-113721911D01*
X184418897Y-113920477D01*
X184353539Y-114135933D01*
X184331470Y-114360000D01*
X184353539Y-114584067D01*
X184418897Y-114799523D01*
X184525032Y-114998089D01*
X184667867Y-115172133D01*
X184841911Y-115314968D01*
X185040477Y-115421103D01*
X185255933Y-115486461D01*
X185423854Y-115503000D01*
X185536146Y-115503000D01*
X185704067Y-115486461D01*
X185919523Y-115421103D01*
X186118089Y-115314968D01*
X186292133Y-115172133D01*
X186434968Y-114998089D01*
X186541103Y-114799523D01*
X186571800Y-114698328D01*
X186571800Y-114810644D01*
X186570081Y-114828100D01*
X186571800Y-114845555D01*
X186571800Y-114845562D01*
X186575145Y-114879522D01*
X186576946Y-114897810D01*
X186585800Y-114926997D01*
X186597279Y-114964839D01*
X186630299Y-115026615D01*
X186674737Y-115080762D01*
X186688302Y-115091895D01*
X187485871Y-115889465D01*
X187381911Y-115945032D01*
X187207867Y-116087867D01*
X187065032Y-116261911D01*
X186958897Y-116460477D01*
X186893539Y-116675933D01*
X186871470Y-116900000D01*
X186893539Y-117124067D01*
X186958897Y-117339523D01*
X187065032Y-117538089D01*
X187207867Y-117712133D01*
X187381911Y-117854968D01*
X187580477Y-117961103D01*
X187795933Y-118026461D01*
X187963854Y-118043000D01*
X188076146Y-118043000D01*
X188176422Y-118033124D01*
X188169337Y-118038938D01*
X188124899Y-118093085D01*
X188091879Y-118154861D01*
X188071546Y-118221891D01*
X188066400Y-118274138D01*
X188066400Y-118274145D01*
X188064681Y-118291600D01*
X188066400Y-118309055D01*
X188066401Y-122269249D01*
X186410000Y-122269249D01*
X186355228Y-122274644D01*
X186302561Y-122290620D01*
X186254023Y-122316564D01*
X186211479Y-122351479D01*
X186176564Y-122394023D01*
X186150620Y-122442561D01*
X186134644Y-122495228D01*
X186129249Y-122550000D01*
X186129249Y-122866600D01*
X184540042Y-122866600D01*
X179717793Y-118044351D01*
X181263600Y-118044351D01*
X181318372Y-118038956D01*
X181371039Y-118022980D01*
X181419577Y-117997036D01*
X181462121Y-117962121D01*
X181497036Y-117919577D01*
X181522980Y-117871039D01*
X181538956Y-117818372D01*
X181544351Y-117763600D01*
X181544351Y-117587945D01*
X182211310Y-118254905D01*
X182222437Y-118268463D01*
X182235995Y-118279590D01*
X182236000Y-118279595D01*
X182256085Y-118296078D01*
X182276584Y-118312901D01*
X182338360Y-118345921D01*
X182405390Y-118366254D01*
X182457637Y-118371400D01*
X182457646Y-118371400D01*
X182475099Y-118373119D01*
X182492552Y-118371400D01*
X183390845Y-118371400D01*
X183408300Y-118373119D01*
X183425755Y-118371400D01*
X183425763Y-118371400D01*
X183478010Y-118366254D01*
X183545040Y-118345921D01*
X183606816Y-118312901D01*
X183660963Y-118268463D01*
X183672099Y-118254894D01*
X184477615Y-117449378D01*
X184525032Y-117538089D01*
X184667867Y-117712133D01*
X184841911Y-117854968D01*
X185040477Y-117961103D01*
X185255933Y-118026461D01*
X185423854Y-118043000D01*
X185536146Y-118043000D01*
X185704067Y-118026461D01*
X185919523Y-117961103D01*
X186118089Y-117854968D01*
X186292133Y-117712133D01*
X186434968Y-117538089D01*
X186541103Y-117339523D01*
X186606461Y-117124067D01*
X186628530Y-116900000D01*
X186606461Y-116675933D01*
X186541103Y-116460477D01*
X186434968Y-116261911D01*
X186292133Y-116087867D01*
X186118089Y-115945032D01*
X185919523Y-115838897D01*
X185704067Y-115773539D01*
X185536146Y-115757000D01*
X185423854Y-115757000D01*
X185255933Y-115773539D01*
X185040477Y-115838897D01*
X184841911Y-115945032D01*
X184667867Y-116087867D01*
X184525032Y-116261911D01*
X184418897Y-116460477D01*
X184393773Y-116543298D01*
X184387500Y-116542680D01*
X184370037Y-116544400D01*
X184317790Y-116549546D01*
X184250760Y-116569879D01*
X184188984Y-116602899D01*
X184134837Y-116647337D01*
X184090399Y-116701484D01*
X184072311Y-116735325D01*
X184066461Y-116675933D01*
X184001103Y-116460477D01*
X183894968Y-116261911D01*
X183752133Y-116087867D01*
X183578089Y-115945032D01*
X183379523Y-115838897D01*
X183296702Y-115813774D01*
X183297320Y-115807500D01*
X183290454Y-115737790D01*
X183270121Y-115670760D01*
X183237101Y-115608984D01*
X183192663Y-115554837D01*
X183138516Y-115510399D01*
X183104675Y-115492311D01*
X183164067Y-115486461D01*
X183379523Y-115421103D01*
X183578089Y-115314968D01*
X183752133Y-115172133D01*
X183894968Y-114998089D01*
X184001103Y-114799523D01*
X184066461Y-114584067D01*
X184088530Y-114360000D01*
X184066461Y-114135933D01*
X184001103Y-113920477D01*
X183894968Y-113721911D01*
X183752133Y-113547867D01*
X183578089Y-113405032D01*
X183379523Y-113298897D01*
X183164067Y-113233539D01*
X182996146Y-113217000D01*
X182883854Y-113217000D01*
X182715933Y-113233539D01*
X182500477Y-113298897D01*
X182301911Y-113405032D01*
X182127867Y-113547867D01*
X182025600Y-113672479D01*
X182025600Y-113171955D01*
X182027319Y-113154500D01*
X182025600Y-113137045D01*
X182025600Y-113137037D01*
X182020454Y-113084790D01*
X182000121Y-113017760D01*
X181967101Y-112955984D01*
X181961365Y-112948995D01*
X181933795Y-112915401D01*
X181933790Y-112915396D01*
X181922662Y-112901837D01*
X181909104Y-112890710D01*
X177871700Y-108853307D01*
X177871700Y-105314099D01*
X178029503Y-105443605D01*
X178225706Y-105548478D01*
X178438599Y-105613058D01*
X178604523Y-105629400D01*
X178715477Y-105629400D01*
X178881401Y-105613058D01*
X179094294Y-105548478D01*
X179290497Y-105443605D01*
X179462470Y-105302470D01*
X179603605Y-105130497D01*
X179708478Y-104934294D01*
X179773058Y-104721401D01*
X179794864Y-104500000D01*
X179773058Y-104278599D01*
X179708478Y-104065706D01*
X179603605Y-103869503D01*
X179462470Y-103697530D01*
X179290497Y-103556395D01*
X179094294Y-103451522D01*
X178881401Y-103386942D01*
X178715477Y-103370600D01*
X178604523Y-103370600D01*
X178438599Y-103386942D01*
X178225706Y-103451522D01*
X178029503Y-103556395D01*
X177871700Y-103685901D01*
X177871700Y-103292455D01*
X177873419Y-103275000D01*
X177871700Y-103257545D01*
X177871700Y-103257537D01*
X177866554Y-103205290D01*
X177846221Y-103138260D01*
X177813201Y-103076484D01*
X177804104Y-103065400D01*
X177779895Y-103035901D01*
X177779890Y-103035896D01*
X177768762Y-103022337D01*
X177755204Y-103011210D01*
X176579173Y-101835180D01*
X176750497Y-101743605D01*
X176922470Y-101602470D01*
X177063605Y-101430497D01*
X177168478Y-101234294D01*
X177233058Y-101021401D01*
X177254864Y-100800000D01*
X177233058Y-100578599D01*
X177168478Y-100365706D01*
X177063605Y-100169503D01*
X176922470Y-99997530D01*
X176750497Y-99856395D01*
X176554294Y-99751522D01*
X176475600Y-99727651D01*
X176475600Y-97772349D01*
X176554294Y-97748478D01*
X176750497Y-97643605D01*
X176922470Y-97502470D01*
X177063605Y-97330497D01*
X177168478Y-97134294D01*
X177233058Y-96921401D01*
X177254864Y-96700000D01*
X177233058Y-96478599D01*
X177168478Y-96265706D01*
X177063605Y-96069503D01*
X176973984Y-95960300D01*
X177806016Y-95960300D01*
X177716395Y-96069503D01*
X177716395Y-96069503D01*
G37*
X177716395Y-96069503D02*
X177611522Y-96265706D01*
X177546942Y-96478599D01*
X177525136Y-96700000D01*
X177546942Y-96921401D01*
X177611522Y-97134294D01*
X177716395Y-97330497D01*
X177857530Y-97502470D01*
X178029503Y-97643605D01*
X178225706Y-97748478D01*
X178304401Y-97772350D01*
X178304400Y-99727650D01*
X178225706Y-99751522D01*
X178029503Y-99856395D01*
X177857530Y-99997530D01*
X177716395Y-100169503D01*
X177611522Y-100365706D01*
X177546942Y-100578599D01*
X177525136Y-100800000D01*
X177546942Y-101021401D01*
X177611522Y-101234294D01*
X177716395Y-101430497D01*
X177857530Y-101602470D01*
X178029503Y-101743605D01*
X178225706Y-101848478D01*
X178303357Y-101872033D01*
X178302681Y-101878900D01*
X178309546Y-101948610D01*
X178329880Y-102015641D01*
X178338707Y-102032154D01*
X178362900Y-102077416D01*
X178407338Y-102131563D01*
X178420901Y-102142694D01*
X186787501Y-110509296D01*
X186787500Y-113120107D01*
X186688301Y-113219306D01*
X186674738Y-113230437D01*
X186630300Y-113284584D01*
X186622947Y-113298341D01*
X186597280Y-113346359D01*
X186576946Y-113413390D01*
X186570081Y-113483100D01*
X186571801Y-113500565D01*
X186571801Y-114021673D01*
X186541103Y-113920477D01*
X186434968Y-113721911D01*
X186292133Y-113547867D01*
X186118089Y-113405032D01*
X185919523Y-113298897D01*
X185704067Y-113233539D01*
X185536146Y-113217000D01*
X185423854Y-113217000D01*
X185255933Y-113233539D01*
X185040477Y-113298897D01*
X184841911Y-113405032D01*
X184667867Y-113547867D01*
X184525032Y-113721911D01*
X184418897Y-113920477D01*
X184353539Y-114135933D01*
X184331470Y-114360000D01*
X184353539Y-114584067D01*
X184418897Y-114799523D01*
X184525032Y-114998089D01*
X184667867Y-115172133D01*
X184841911Y-115314968D01*
X185040477Y-115421103D01*
X185255933Y-115486461D01*
X185423854Y-115503000D01*
X185536146Y-115503000D01*
X185704067Y-115486461D01*
X185919523Y-115421103D01*
X186118089Y-115314968D01*
X186292133Y-115172133D01*
X186434968Y-114998089D01*
X186541103Y-114799523D01*
X186571800Y-114698328D01*
X186571800Y-114810644D01*
X186570081Y-114828100D01*
X186571800Y-114845555D01*
X186571800Y-114845562D01*
X186575145Y-114879522D01*
X186576946Y-114897810D01*
X186585800Y-114926997D01*
X186597279Y-114964839D01*
X186630299Y-115026615D01*
X186674737Y-115080762D01*
X186688302Y-115091895D01*
X187485871Y-115889465D01*
X187381911Y-115945032D01*
X187207867Y-116087867D01*
X187065032Y-116261911D01*
X186958897Y-116460477D01*
X186893539Y-116675933D01*
X186871470Y-116900000D01*
X186893539Y-117124067D01*
X186958897Y-117339523D01*
X187065032Y-117538089D01*
X187207867Y-117712133D01*
X187381911Y-117854968D01*
X187580477Y-117961103D01*
X187795933Y-118026461D01*
X187963854Y-118043000D01*
X188076146Y-118043000D01*
X188176422Y-118033124D01*
X188169337Y-118038938D01*
X188124899Y-118093085D01*
X188091879Y-118154861D01*
X188071546Y-118221891D01*
X188066400Y-118274138D01*
X188066400Y-118274145D01*
X188064681Y-118291600D01*
X188066400Y-118309055D01*
X188066401Y-122269249D01*
X186410000Y-122269249D01*
X186355228Y-122274644D01*
X186302561Y-122290620D01*
X186254023Y-122316564D01*
X186211479Y-122351479D01*
X186176564Y-122394023D01*
X186150620Y-122442561D01*
X186134644Y-122495228D01*
X186129249Y-122550000D01*
X186129249Y-122866600D01*
X184540042Y-122866600D01*
X179717793Y-118044351D01*
X181263600Y-118044351D01*
X181318372Y-118038956D01*
X181371039Y-118022980D01*
X181419577Y-117997036D01*
X181462121Y-117962121D01*
X181497036Y-117919577D01*
X181522980Y-117871039D01*
X181538956Y-117818372D01*
X181544351Y-117763600D01*
X181544351Y-117587945D01*
X182211310Y-118254905D01*
X182222437Y-118268463D01*
X182235995Y-118279590D01*
X182236000Y-118279595D01*
X182256085Y-118296078D01*
X182276584Y-118312901D01*
X182338360Y-118345921D01*
X182405390Y-118366254D01*
X182457637Y-118371400D01*
X182457646Y-118371400D01*
X182475099Y-118373119D01*
X182492552Y-118371400D01*
X183390845Y-118371400D01*
X183408300Y-118373119D01*
X183425755Y-118371400D01*
X183425763Y-118371400D01*
X183478010Y-118366254D01*
X183545040Y-118345921D01*
X183606816Y-118312901D01*
X183660963Y-118268463D01*
X183672099Y-118254894D01*
X184477615Y-117449378D01*
X184525032Y-117538089D01*
X184667867Y-117712133D01*
X184841911Y-117854968D01*
X185040477Y-117961103D01*
X185255933Y-118026461D01*
X185423854Y-118043000D01*
X185536146Y-118043000D01*
X185704067Y-118026461D01*
X185919523Y-117961103D01*
X186118089Y-117854968D01*
X186292133Y-117712133D01*
X186434968Y-117538089D01*
X186541103Y-117339523D01*
X186606461Y-117124067D01*
X186628530Y-116900000D01*
X186606461Y-116675933D01*
X186541103Y-116460477D01*
X186434968Y-116261911D01*
X186292133Y-116087867D01*
X186118089Y-115945032D01*
X185919523Y-115838897D01*
X185704067Y-115773539D01*
X185536146Y-115757000D01*
X185423854Y-115757000D01*
X185255933Y-115773539D01*
X185040477Y-115838897D01*
X184841911Y-115945032D01*
X184667867Y-116087867D01*
X184525032Y-116261911D01*
X184418897Y-116460477D01*
X184393773Y-116543298D01*
X184387500Y-116542680D01*
X184370037Y-116544400D01*
X184317790Y-116549546D01*
X184250760Y-116569879D01*
X184188984Y-116602899D01*
X184134837Y-116647337D01*
X184090399Y-116701484D01*
X184072311Y-116735325D01*
X184066461Y-116675933D01*
X184001103Y-116460477D01*
X183894968Y-116261911D01*
X183752133Y-116087867D01*
X183578089Y-115945032D01*
X183379523Y-115838897D01*
X183296702Y-115813774D01*
X183297320Y-115807500D01*
X183290454Y-115737790D01*
X183270121Y-115670760D01*
X183237101Y-115608984D01*
X183192663Y-115554837D01*
X183138516Y-115510399D01*
X183104675Y-115492311D01*
X183164067Y-115486461D01*
X183379523Y-115421103D01*
X183578089Y-115314968D01*
X183752133Y-115172133D01*
X183894968Y-114998089D01*
X184001103Y-114799523D01*
X184066461Y-114584067D01*
X184088530Y-114360000D01*
X184066461Y-114135933D01*
X184001103Y-113920477D01*
X183894968Y-113721911D01*
X183752133Y-113547867D01*
X183578089Y-113405032D01*
X183379523Y-113298897D01*
X183164067Y-113233539D01*
X182996146Y-113217000D01*
X182883854Y-113217000D01*
X182715933Y-113233539D01*
X182500477Y-113298897D01*
X182301911Y-113405032D01*
X182127867Y-113547867D01*
X182025600Y-113672479D01*
X182025600Y-113171955D01*
X182027319Y-113154500D01*
X182025600Y-113137045D01*
X182025600Y-113137037D01*
X182020454Y-113084790D01*
X182000121Y-113017760D01*
X181967101Y-112955984D01*
X181961365Y-112948995D01*
X181933795Y-112915401D01*
X181933790Y-112915396D01*
X181922662Y-112901837D01*
X181909104Y-112890710D01*
X177871700Y-108853307D01*
X177871700Y-105314099D01*
X178029503Y-105443605D01*
X178225706Y-105548478D01*
X178438599Y-105613058D01*
X178604523Y-105629400D01*
X178715477Y-105629400D01*
X178881401Y-105613058D01*
X179094294Y-105548478D01*
X179290497Y-105443605D01*
X179462470Y-105302470D01*
X179603605Y-105130497D01*
X179708478Y-104934294D01*
X179773058Y-104721401D01*
X179794864Y-104500000D01*
X179773058Y-104278599D01*
X179708478Y-104065706D01*
X179603605Y-103869503D01*
X179462470Y-103697530D01*
X179290497Y-103556395D01*
X179094294Y-103451522D01*
X178881401Y-103386942D01*
X178715477Y-103370600D01*
X178604523Y-103370600D01*
X178438599Y-103386942D01*
X178225706Y-103451522D01*
X178029503Y-103556395D01*
X177871700Y-103685901D01*
X177871700Y-103292455D01*
X177873419Y-103275000D01*
X177871700Y-103257545D01*
X177871700Y-103257537D01*
X177866554Y-103205290D01*
X177846221Y-103138260D01*
X177813201Y-103076484D01*
X177804104Y-103065400D01*
X177779895Y-103035901D01*
X177779890Y-103035896D01*
X177768762Y-103022337D01*
X177755204Y-103011210D01*
X176579173Y-101835180D01*
X176750497Y-101743605D01*
X176922470Y-101602470D01*
X177063605Y-101430497D01*
X177168478Y-101234294D01*
X177233058Y-101021401D01*
X177254864Y-100800000D01*
X177233058Y-100578599D01*
X177168478Y-100365706D01*
X177063605Y-100169503D01*
X176922470Y-99997530D01*
X176750497Y-99856395D01*
X176554294Y-99751522D01*
X176475600Y-99727651D01*
X176475600Y-97772349D01*
X176554294Y-97748478D01*
X176750497Y-97643605D01*
X176922470Y-97502470D01*
X177063605Y-97330497D01*
X177168478Y-97134294D01*
X177233058Y-96921401D01*
X177254864Y-96700000D01*
X177233058Y-96478599D01*
X177168478Y-96265706D01*
X177063605Y-96069503D01*
X176973984Y-95960300D01*
X177806016Y-95960300D01*
X177716395Y-96069503D01*
G36*
X189921911Y-117854968D02*
G01*
X190120477Y-117961103D01*
X190335933Y-118026461D01*
X190503854Y-118043000D01*
X190616146Y-118043000D01*
X190784067Y-118026461D01*
X190999523Y-117961103D01*
X191068000Y-117924502D01*
X191067999Y-121975404D01*
X189823000Y-120730407D01*
X189823000Y-117773793D01*
X189921911Y-117854968D01*
X189921911Y-117854968D01*
G37*
X189921911Y-117854968D02*
X190120477Y-117961103D01*
X190335933Y-118026461D01*
X190503854Y-118043000D01*
X190616146Y-118043000D01*
X190784067Y-118026461D01*
X190999523Y-117961103D01*
X191068000Y-117924502D01*
X191067999Y-121975404D01*
X189823000Y-120730407D01*
X189823000Y-117773793D01*
X189921911Y-117854968D01*
G36*
X176855300Y-112722045D02*
G01*
X176853581Y-112739500D01*
X176855300Y-112756955D01*
X176855300Y-112756962D01*
X176857684Y-112781162D01*
X176860446Y-112809210D01*
X176861541Y-112812819D01*
X176880779Y-112876239D01*
X176913799Y-112938015D01*
X176958237Y-112992162D01*
X176971802Y-113003295D01*
X179724154Y-115755649D01*
X179536400Y-115755649D01*
X179481628Y-115761044D01*
X179428961Y-115777020D01*
X179380423Y-115802964D01*
X179337879Y-115837879D01*
X179302964Y-115880423D01*
X179277020Y-115928961D01*
X179261044Y-115981628D01*
X179255649Y-116036400D01*
X179255649Y-117582207D01*
X177668823Y-115995381D01*
X177743916Y-115964276D01*
X177855192Y-115889924D01*
X177949824Y-115795292D01*
X178024176Y-115684016D01*
X178075391Y-115560374D01*
X178101500Y-115429115D01*
X178101500Y-115295285D01*
X178075391Y-115164026D01*
X178024176Y-115040384D01*
X177949824Y-114929108D01*
X177855192Y-114834476D01*
X177743916Y-114760124D01*
X177620274Y-114708909D01*
X177489015Y-114682800D01*
X177355185Y-114682800D01*
X177263777Y-114700982D01*
X176475600Y-113912807D01*
X176475600Y-105572349D01*
X176554294Y-105548478D01*
X176750497Y-105443605D01*
X176855301Y-105357594D01*
X176855300Y-112722045D01*
X176855300Y-112722045D01*
G37*
X176855300Y-112722045D02*
X176853581Y-112739500D01*
X176855300Y-112756955D01*
X176855300Y-112756962D01*
X176857684Y-112781162D01*
X176860446Y-112809210D01*
X176861541Y-112812819D01*
X176880779Y-112876239D01*
X176913799Y-112938015D01*
X176958237Y-112992162D01*
X176971802Y-113003295D01*
X179724154Y-115755649D01*
X179536400Y-115755649D01*
X179481628Y-115761044D01*
X179428961Y-115777020D01*
X179380423Y-115802964D01*
X179337879Y-115837879D01*
X179302964Y-115880423D01*
X179277020Y-115928961D01*
X179261044Y-115981628D01*
X179255649Y-116036400D01*
X179255649Y-117582207D01*
X177668823Y-115995381D01*
X177743916Y-115964276D01*
X177855192Y-115889924D01*
X177949824Y-115795292D01*
X178024176Y-115684016D01*
X178075391Y-115560374D01*
X178101500Y-115429115D01*
X178101500Y-115295285D01*
X178075391Y-115164026D01*
X178024176Y-115040384D01*
X177949824Y-114929108D01*
X177855192Y-114834476D01*
X177743916Y-114760124D01*
X177620274Y-114708909D01*
X177489015Y-114682800D01*
X177355185Y-114682800D01*
X177263777Y-114700982D01*
X176475600Y-113912807D01*
X176475600Y-105572349D01*
X176554294Y-105548478D01*
X176750497Y-105443605D01*
X176855301Y-105357594D01*
X176855300Y-112722045D01*
G36*
X181314400Y-113301794D02*
G01*
X181314400Y-113672479D01*
X181212133Y-113547867D01*
X181038089Y-113405032D01*
X180839523Y-113298897D01*
X180624067Y-113233539D01*
X180456146Y-113217000D01*
X180343854Y-113217000D01*
X180175933Y-113233539D01*
X179960477Y-113298897D01*
X179761911Y-113405032D01*
X179587867Y-113547867D01*
X179445032Y-113721911D01*
X179338897Y-113920477D01*
X179273539Y-114135933D01*
X179258896Y-114284602D01*
X177566500Y-112592207D01*
X177566500Y-109553893D01*
X181314400Y-113301794D01*
X181314400Y-113301794D01*
G37*
X181314400Y-113301794D02*
X181314400Y-113672479D01*
X181212133Y-113547867D01*
X181038089Y-113405032D01*
X180839523Y-113298897D01*
X180624067Y-113233539D01*
X180456146Y-113217000D01*
X180343854Y-113217000D01*
X180175933Y-113233539D01*
X179960477Y-113298897D01*
X179761911Y-113405032D01*
X179587867Y-113547867D01*
X179445032Y-113721911D01*
X179338897Y-113920477D01*
X179273539Y-114135933D01*
X179258896Y-114284602D01*
X177566500Y-112592207D01*
X177566500Y-109553893D01*
X181314400Y-113301794D01*
G36*
X172636395Y-101430497D02*
G01*
X172777530Y-101602470D01*
X172949503Y-101743605D01*
X173145706Y-101848478D01*
X173358599Y-101913058D01*
X173524523Y-101929400D01*
X173635477Y-101929400D01*
X173801401Y-101913058D01*
X174014294Y-101848478D01*
X174210497Y-101743605D01*
X174339180Y-101637997D01*
X174361799Y-101680315D01*
X174406237Y-101734462D01*
X174419802Y-101745595D01*
X176046574Y-103372368D01*
X175898599Y-103386942D01*
X175685706Y-103451522D01*
X175489503Y-103556395D01*
X175317530Y-103697530D01*
X175176395Y-103869503D01*
X175071522Y-104065706D01*
X175006942Y-104278599D01*
X174985136Y-104500000D01*
X175006942Y-104721401D01*
X175071522Y-104934294D01*
X175176395Y-105130497D01*
X175317530Y-105302470D01*
X175489503Y-105443605D01*
X175685706Y-105548478D01*
X175764401Y-105572350D01*
X175764400Y-114042645D01*
X175762681Y-114060100D01*
X175764400Y-114077555D01*
X175764400Y-114077562D01*
X175765864Y-114092422D01*
X172220600Y-110547159D01*
X172220600Y-106430086D01*
X172223179Y-106403899D01*
X172220600Y-106377712D01*
X172220600Y-106377705D01*
X172212881Y-106299335D01*
X172182381Y-106198789D01*
X172132851Y-106106125D01*
X172066195Y-106024905D01*
X172045851Y-106008209D01*
X171573400Y-105535759D01*
X171573400Y-105495505D01*
X171670497Y-105443605D01*
X171842470Y-105302470D01*
X171983605Y-105130497D01*
X172088478Y-104934294D01*
X172153058Y-104721401D01*
X172163745Y-104612893D01*
X172170979Y-104636740D01*
X172203999Y-104698516D01*
X172248437Y-104752663D01*
X172302584Y-104797101D01*
X172364360Y-104830121D01*
X172431390Y-104850454D01*
X172483637Y-104855600D01*
X172501100Y-104857320D01*
X172507967Y-104856644D01*
X172531522Y-104934294D01*
X172636395Y-105130497D01*
X172777530Y-105302470D01*
X172949503Y-105443605D01*
X173145706Y-105548478D01*
X173358599Y-105613058D01*
X173524523Y-105629400D01*
X173635477Y-105629400D01*
X173801401Y-105613058D01*
X174014294Y-105548478D01*
X174210497Y-105443605D01*
X174382470Y-105302470D01*
X174523605Y-105130497D01*
X174628478Y-104934294D01*
X174693058Y-104721401D01*
X174714864Y-104500000D01*
X174693058Y-104278599D01*
X174628478Y-104065706D01*
X174523605Y-103869503D01*
X174382470Y-103697530D01*
X174210497Y-103556395D01*
X174014294Y-103451522D01*
X173801401Y-103386942D01*
X173635477Y-103370600D01*
X173524523Y-103370600D01*
X173358599Y-103386942D01*
X173145706Y-103451522D01*
X172949503Y-103556395D01*
X172777530Y-103697530D01*
X172636395Y-103869503D01*
X172583764Y-103967969D01*
X171797699Y-103181906D01*
X171786563Y-103168337D01*
X171732416Y-103123899D01*
X171670640Y-103090879D01*
X171603610Y-103070546D01*
X171551363Y-103065400D01*
X171551355Y-103065400D01*
X171533900Y-103063681D01*
X171516445Y-103065400D01*
X170850393Y-103065400D01*
X171953443Y-101962351D01*
X172040269Y-101897588D01*
X172235178Y-101681355D01*
X172236267Y-101679527D01*
X172583763Y-101332031D01*
X172636395Y-101430497D01*
X172636395Y-101430497D01*
G37*
X172636395Y-101430497D02*
X172777530Y-101602470D01*
X172949503Y-101743605D01*
X173145706Y-101848478D01*
X173358599Y-101913058D01*
X173524523Y-101929400D01*
X173635477Y-101929400D01*
X173801401Y-101913058D01*
X174014294Y-101848478D01*
X174210497Y-101743605D01*
X174339180Y-101637997D01*
X174361799Y-101680315D01*
X174406237Y-101734462D01*
X174419802Y-101745595D01*
X176046574Y-103372368D01*
X175898599Y-103386942D01*
X175685706Y-103451522D01*
X175489503Y-103556395D01*
X175317530Y-103697530D01*
X175176395Y-103869503D01*
X175071522Y-104065706D01*
X175006942Y-104278599D01*
X174985136Y-104500000D01*
X175006942Y-104721401D01*
X175071522Y-104934294D01*
X175176395Y-105130497D01*
X175317530Y-105302470D01*
X175489503Y-105443605D01*
X175685706Y-105548478D01*
X175764401Y-105572350D01*
X175764400Y-114042645D01*
X175762681Y-114060100D01*
X175764400Y-114077555D01*
X175764400Y-114077562D01*
X175765864Y-114092422D01*
X172220600Y-110547159D01*
X172220600Y-106430086D01*
X172223179Y-106403899D01*
X172220600Y-106377712D01*
X172220600Y-106377705D01*
X172212881Y-106299335D01*
X172182381Y-106198789D01*
X172132851Y-106106125D01*
X172066195Y-106024905D01*
X172045851Y-106008209D01*
X171573400Y-105535759D01*
X171573400Y-105495505D01*
X171670497Y-105443605D01*
X171842470Y-105302470D01*
X171983605Y-105130497D01*
X172088478Y-104934294D01*
X172153058Y-104721401D01*
X172163745Y-104612893D01*
X172170979Y-104636740D01*
X172203999Y-104698516D01*
X172248437Y-104752663D01*
X172302584Y-104797101D01*
X172364360Y-104830121D01*
X172431390Y-104850454D01*
X172483637Y-104855600D01*
X172501100Y-104857320D01*
X172507967Y-104856644D01*
X172531522Y-104934294D01*
X172636395Y-105130497D01*
X172777530Y-105302470D01*
X172949503Y-105443605D01*
X173145706Y-105548478D01*
X173358599Y-105613058D01*
X173524523Y-105629400D01*
X173635477Y-105629400D01*
X173801401Y-105613058D01*
X174014294Y-105548478D01*
X174210497Y-105443605D01*
X174382470Y-105302470D01*
X174523605Y-105130497D01*
X174628478Y-104934294D01*
X174693058Y-104721401D01*
X174714864Y-104500000D01*
X174693058Y-104278599D01*
X174628478Y-104065706D01*
X174523605Y-103869503D01*
X174382470Y-103697530D01*
X174210497Y-103556395D01*
X174014294Y-103451522D01*
X173801401Y-103386942D01*
X173635477Y-103370600D01*
X173524523Y-103370600D01*
X173358599Y-103386942D01*
X173145706Y-103451522D01*
X172949503Y-103556395D01*
X172777530Y-103697530D01*
X172636395Y-103869503D01*
X172583764Y-103967969D01*
X171797699Y-103181906D01*
X171786563Y-103168337D01*
X171732416Y-103123899D01*
X171670640Y-103090879D01*
X171603610Y-103070546D01*
X171551363Y-103065400D01*
X171551355Y-103065400D01*
X171533900Y-103063681D01*
X171516445Y-103065400D01*
X170850393Y-103065400D01*
X171953443Y-101962351D01*
X172040269Y-101897588D01*
X172235178Y-101681355D01*
X172236267Y-101679527D01*
X172583763Y-101332031D01*
X172636395Y-101430497D01*
G36*
X180190287Y-96193181D02*
G01*
X180151522Y-96265706D01*
X180086942Y-96478599D01*
X180065136Y-96700000D01*
X180086942Y-96921401D01*
X180151522Y-97134294D01*
X180256395Y-97330497D01*
X180397530Y-97502470D01*
X180569503Y-97643605D01*
X180765706Y-97748478D01*
X180978599Y-97813058D01*
X181144523Y-97829400D01*
X181255477Y-97829400D01*
X181421401Y-97813058D01*
X181634294Y-97748478D01*
X181830497Y-97643605D01*
X182002470Y-97502470D01*
X182143605Y-97330497D01*
X182248478Y-97134294D01*
X182313058Y-96921401D01*
X182328336Y-96766282D01*
X189899600Y-104337546D01*
X189899601Y-113423342D01*
X189747867Y-113547867D01*
X189605032Y-113721911D01*
X189552217Y-113820722D01*
X188759799Y-113028306D01*
X188748663Y-113014737D01*
X188694516Y-112970299D01*
X188634563Y-112938253D01*
X188710824Y-112861992D01*
X188785176Y-112750716D01*
X188836391Y-112627074D01*
X188862500Y-112495815D01*
X188862500Y-112361985D01*
X188836391Y-112230726D01*
X188785176Y-112107084D01*
X188710824Y-111995808D01*
X188616192Y-111901176D01*
X188538700Y-111849398D01*
X188538700Y-108879455D01*
X188540419Y-108862000D01*
X188538700Y-108844545D01*
X188538700Y-108844537D01*
X188533554Y-108792290D01*
X188513221Y-108725260D01*
X188480201Y-108663484D01*
X188453134Y-108630503D01*
X188446895Y-108622901D01*
X188446894Y-108622900D01*
X188435763Y-108609337D01*
X188422200Y-108598206D01*
X181659173Y-101835180D01*
X181830497Y-101743605D01*
X182002470Y-101602470D01*
X182143605Y-101430497D01*
X182248478Y-101234294D01*
X182313058Y-101021401D01*
X182334864Y-100800000D01*
X182313058Y-100578599D01*
X182248478Y-100365706D01*
X182143605Y-100169503D01*
X182002470Y-99997530D01*
X181830497Y-99856395D01*
X181634294Y-99751522D01*
X181421401Y-99686942D01*
X181255477Y-99670600D01*
X181144523Y-99670600D01*
X180978599Y-99686942D01*
X180765706Y-99751522D01*
X180569503Y-99856395D01*
X180397530Y-99997530D01*
X180256395Y-100169503D01*
X180151522Y-100365706D01*
X180086942Y-100578599D01*
X180065136Y-100800000D01*
X180086942Y-101021401D01*
X180151522Y-101234294D01*
X180256395Y-101430497D01*
X180397530Y-101602470D01*
X180569503Y-101743605D01*
X180765706Y-101848478D01*
X180843357Y-101872033D01*
X180842681Y-101878900D01*
X180849546Y-101948610D01*
X180869880Y-102015641D01*
X180878707Y-102032154D01*
X180902900Y-102077416D01*
X180947338Y-102131563D01*
X180960901Y-102142694D01*
X187827501Y-109009295D01*
X187827500Y-111849398D01*
X187750008Y-111901176D01*
X187655376Y-111995808D01*
X187581024Y-112107084D01*
X187529809Y-112230726D01*
X187503700Y-112361985D01*
X187503700Y-112495815D01*
X187529809Y-112627074D01*
X187581024Y-112750716D01*
X187655376Y-112861992D01*
X187705184Y-112911800D01*
X187498700Y-112911800D01*
X187498700Y-110379455D01*
X187500419Y-110361999D01*
X187498700Y-110344544D01*
X187498700Y-110344537D01*
X187493554Y-110292290D01*
X187487185Y-110271292D01*
X187473220Y-110225258D01*
X187457241Y-110195363D01*
X187440201Y-110163484D01*
X187421926Y-110141216D01*
X187406895Y-110122900D01*
X187406890Y-110122895D01*
X187395763Y-110109337D01*
X187382205Y-110098210D01*
X179119173Y-101835180D01*
X179290497Y-101743605D01*
X179462470Y-101602470D01*
X179603605Y-101430497D01*
X179708478Y-101234294D01*
X179773058Y-101021401D01*
X179794864Y-100800000D01*
X179773058Y-100578599D01*
X179708478Y-100365706D01*
X179603605Y-100169503D01*
X179462470Y-99997530D01*
X179290497Y-99856395D01*
X179094294Y-99751522D01*
X179015600Y-99727651D01*
X179015600Y-97772349D01*
X179094294Y-97748478D01*
X179290497Y-97643605D01*
X179462470Y-97502470D01*
X179603605Y-97330497D01*
X179708478Y-97134294D01*
X179773058Y-96921401D01*
X179794864Y-96700000D01*
X179773058Y-96478599D01*
X179708478Y-96265706D01*
X179603605Y-96069503D01*
X179513984Y-95960300D01*
X179957407Y-95960300D01*
X180190287Y-96193181D01*
X180190287Y-96193181D01*
G37*
X180190287Y-96193181D02*
X180151522Y-96265706D01*
X180086942Y-96478599D01*
X180065136Y-96700000D01*
X180086942Y-96921401D01*
X180151522Y-97134294D01*
X180256395Y-97330497D01*
X180397530Y-97502470D01*
X180569503Y-97643605D01*
X180765706Y-97748478D01*
X180978599Y-97813058D01*
X181144523Y-97829400D01*
X181255477Y-97829400D01*
X181421401Y-97813058D01*
X181634294Y-97748478D01*
X181830497Y-97643605D01*
X182002470Y-97502470D01*
X182143605Y-97330497D01*
X182248478Y-97134294D01*
X182313058Y-96921401D01*
X182328336Y-96766282D01*
X189899600Y-104337546D01*
X189899601Y-113423342D01*
X189747867Y-113547867D01*
X189605032Y-113721911D01*
X189552217Y-113820722D01*
X188759799Y-113028306D01*
X188748663Y-113014737D01*
X188694516Y-112970299D01*
X188634563Y-112938253D01*
X188710824Y-112861992D01*
X188785176Y-112750716D01*
X188836391Y-112627074D01*
X188862500Y-112495815D01*
X188862500Y-112361985D01*
X188836391Y-112230726D01*
X188785176Y-112107084D01*
X188710824Y-111995808D01*
X188616192Y-111901176D01*
X188538700Y-111849398D01*
X188538700Y-108879455D01*
X188540419Y-108862000D01*
X188538700Y-108844545D01*
X188538700Y-108844537D01*
X188533554Y-108792290D01*
X188513221Y-108725260D01*
X188480201Y-108663484D01*
X188453134Y-108630503D01*
X188446895Y-108622901D01*
X188446894Y-108622900D01*
X188435763Y-108609337D01*
X188422200Y-108598206D01*
X181659173Y-101835180D01*
X181830497Y-101743605D01*
X182002470Y-101602470D01*
X182143605Y-101430497D01*
X182248478Y-101234294D01*
X182313058Y-101021401D01*
X182334864Y-100800000D01*
X182313058Y-100578599D01*
X182248478Y-100365706D01*
X182143605Y-100169503D01*
X182002470Y-99997530D01*
X181830497Y-99856395D01*
X181634294Y-99751522D01*
X181421401Y-99686942D01*
X181255477Y-99670600D01*
X181144523Y-99670600D01*
X180978599Y-99686942D01*
X180765706Y-99751522D01*
X180569503Y-99856395D01*
X180397530Y-99997530D01*
X180256395Y-100169503D01*
X180151522Y-100365706D01*
X180086942Y-100578599D01*
X180065136Y-100800000D01*
X180086942Y-101021401D01*
X180151522Y-101234294D01*
X180256395Y-101430497D01*
X180397530Y-101602470D01*
X180569503Y-101743605D01*
X180765706Y-101848478D01*
X180843357Y-101872033D01*
X180842681Y-101878900D01*
X180849546Y-101948610D01*
X180869880Y-102015641D01*
X180878707Y-102032154D01*
X180902900Y-102077416D01*
X180947338Y-102131563D01*
X180960901Y-102142694D01*
X187827501Y-109009295D01*
X187827500Y-111849398D01*
X187750008Y-111901176D01*
X187655376Y-111995808D01*
X187581024Y-112107084D01*
X187529809Y-112230726D01*
X187503700Y-112361985D01*
X187503700Y-112495815D01*
X187529809Y-112627074D01*
X187581024Y-112750716D01*
X187655376Y-112861992D01*
X187705184Y-112911800D01*
X187498700Y-112911800D01*
X187498700Y-110379455D01*
X187500419Y-110361999D01*
X187498700Y-110344544D01*
X187498700Y-110344537D01*
X187493554Y-110292290D01*
X187487185Y-110271292D01*
X187473220Y-110225258D01*
X187457241Y-110195363D01*
X187440201Y-110163484D01*
X187421926Y-110141216D01*
X187406895Y-110122900D01*
X187406890Y-110122895D01*
X187395763Y-110109337D01*
X187382205Y-110098210D01*
X179119173Y-101835180D01*
X179290497Y-101743605D01*
X179462470Y-101602470D01*
X179603605Y-101430497D01*
X179708478Y-101234294D01*
X179773058Y-101021401D01*
X179794864Y-100800000D01*
X179773058Y-100578599D01*
X179708478Y-100365706D01*
X179603605Y-100169503D01*
X179462470Y-99997530D01*
X179290497Y-99856395D01*
X179094294Y-99751522D01*
X179015600Y-99727651D01*
X179015600Y-97772349D01*
X179094294Y-97748478D01*
X179290497Y-97643605D01*
X179462470Y-97502470D01*
X179603605Y-97330497D01*
X179708478Y-97134294D01*
X179773058Y-96921401D01*
X179794864Y-96700000D01*
X179773058Y-96478599D01*
X179708478Y-96265706D01*
X179603605Y-96069503D01*
X179513984Y-95960300D01*
X179957407Y-95960300D01*
X180190287Y-96193181D01*
G36*
X166026514Y-86765664D02*
G01*
X165906626Y-87050520D01*
X167005000Y-88148895D01*
X168103374Y-87050520D01*
X167983486Y-86765664D01*
X167749534Y-86649400D01*
X168158218Y-86649400D01*
X168955600Y-87446783D01*
X168955600Y-88404608D01*
X168978019Y-88632234D01*
X169024249Y-88784633D01*
X169024249Y-89528500D01*
X169029644Y-89583272D01*
X169045620Y-89635939D01*
X169071564Y-89684477D01*
X169106479Y-89727021D01*
X169149023Y-89761936D01*
X169197561Y-89787880D01*
X169250228Y-89803856D01*
X169305000Y-89809251D01*
X170048866Y-89809251D01*
X170201265Y-89855481D01*
X170505000Y-89885396D01*
X170808734Y-89855481D01*
X170961133Y-89809251D01*
X171705000Y-89809251D01*
X171759772Y-89803856D01*
X171812439Y-89787880D01*
X171860977Y-89761936D01*
X171903521Y-89727021D01*
X171938436Y-89684477D01*
X171964380Y-89635939D01*
X171980356Y-89583272D01*
X171985751Y-89528500D01*
X171985751Y-88784634D01*
X172031981Y-88632235D01*
X172054400Y-88404609D01*
X172054400Y-88227100D01*
X173789154Y-88227100D01*
X181133718Y-95571664D01*
X180978599Y-95586942D01*
X180765706Y-95651522D01*
X180693181Y-95690287D01*
X180368499Y-95365606D01*
X180357363Y-95352037D01*
X180303216Y-95307599D01*
X180241440Y-95274579D01*
X180174410Y-95254246D01*
X180122163Y-95249100D01*
X180122155Y-95249100D01*
X180104700Y-95247381D01*
X180087245Y-95249100D01*
X173070655Y-95249100D01*
X173053200Y-95247381D01*
X173035745Y-95249100D01*
X173035737Y-95249100D01*
X172983490Y-95254246D01*
X172916460Y-95274579D01*
X172854684Y-95307599D01*
X172800537Y-95352037D01*
X172789406Y-95365600D01*
X172272950Y-95882056D01*
X172235178Y-95818645D01*
X172040269Y-95602412D01*
X171806920Y-95428359D01*
X171544099Y-95303175D01*
X171396890Y-95258524D01*
X171167000Y-95379845D01*
X171167000Y-96573000D01*
X171187000Y-96573000D01*
X171187000Y-96827000D01*
X171167000Y-96827000D01*
X171167000Y-96847000D01*
X170913000Y-96847000D01*
X170913000Y-96827000D01*
X170893000Y-96827000D01*
X170893000Y-96573000D01*
X170913000Y-96573000D01*
X170913000Y-95379845D01*
X170683110Y-95258524D01*
X170535901Y-95303175D01*
X170273080Y-95428359D01*
X170039731Y-95602412D01*
X169844822Y-95818645D01*
X169695843Y-96068748D01*
X169630751Y-96252245D01*
X169630751Y-95850000D01*
X169625356Y-95795228D01*
X169609380Y-95742561D01*
X169583436Y-95694023D01*
X169548521Y-95651479D01*
X169505977Y-95616564D01*
X169457439Y-95590620D01*
X169404772Y-95574644D01*
X169350000Y-95569249D01*
X167650000Y-95569249D01*
X167595228Y-95574644D01*
X167542561Y-95590620D01*
X167494023Y-95616564D01*
X167451479Y-95651479D01*
X167416564Y-95694023D01*
X167390620Y-95742561D01*
X167374644Y-95795228D01*
X167369249Y-95850000D01*
X167369249Y-97550000D01*
X167374644Y-97604772D01*
X167390620Y-97657439D01*
X167416564Y-97705977D01*
X167451479Y-97748521D01*
X167494023Y-97783436D01*
X167542561Y-97809380D01*
X167595228Y-97825356D01*
X167650000Y-97830751D01*
X167966601Y-97830751D01*
X167966600Y-98854584D01*
X167949692Y-98837676D01*
X167838416Y-98763324D01*
X167714774Y-98712109D01*
X167583515Y-98686000D01*
X167449685Y-98686000D01*
X167318426Y-98712109D01*
X167194784Y-98763324D01*
X167083508Y-98837676D01*
X166988876Y-98932308D01*
X166914524Y-99043584D01*
X166863309Y-99167226D01*
X166837200Y-99298485D01*
X166837200Y-99432315D01*
X166855382Y-99523723D01*
X161469502Y-104909605D01*
X161455937Y-104920738D01*
X161411499Y-104974885D01*
X161381505Y-105031000D01*
X161378480Y-105036659D01*
X161363582Y-105085772D01*
X161358146Y-105103691D01*
X161353000Y-105155938D01*
X161353000Y-105155945D01*
X161351281Y-105173400D01*
X161353000Y-105190855D01*
X161353001Y-110737197D01*
X161313000Y-110763925D01*
X161313000Y-98332439D01*
X161316195Y-98300000D01*
X161303444Y-98170539D01*
X161265682Y-98046053D01*
X161210278Y-97942400D01*
X164401500Y-97942400D01*
X164457532Y-97936724D01*
X164509856Y-97920533D01*
X164558016Y-97894445D01*
X164600162Y-97859463D01*
X164634673Y-97816931D01*
X164660223Y-97768484D01*
X164675830Y-97715983D01*
X164680896Y-97661445D01*
X164636081Y-89606480D01*
X165906626Y-89606480D01*
X166026514Y-89891336D01*
X166350210Y-90052199D01*
X166699069Y-90146822D01*
X167059684Y-90171567D01*
X167418198Y-90125485D01*
X167760833Y-90010346D01*
X167983486Y-89891336D01*
X168103374Y-89606480D01*
X167005000Y-88508105D01*
X165906626Y-89606480D01*
X164636081Y-89606480D01*
X164629274Y-88383184D01*
X165161933Y-88383184D01*
X165208015Y-88741698D01*
X165323154Y-89084333D01*
X165442164Y-89306986D01*
X165727020Y-89426874D01*
X166825395Y-88328500D01*
X167184605Y-88328500D01*
X168282980Y-89426874D01*
X168567836Y-89306986D01*
X168728699Y-88983290D01*
X168823322Y-88634431D01*
X168848067Y-88273816D01*
X168801985Y-87915302D01*
X168686846Y-87572667D01*
X168567836Y-87350014D01*
X168282980Y-87230126D01*
X167184605Y-88328500D01*
X166825395Y-88328500D01*
X165727020Y-87230126D01*
X165442164Y-87350014D01*
X165281301Y-87673710D01*
X165186678Y-88022569D01*
X165161933Y-88383184D01*
X164629274Y-88383184D01*
X164621963Y-87069220D01*
X165041783Y-86649400D01*
X166244030Y-86649400D01*
X166026514Y-86765664D01*
X166026514Y-86765664D01*
G37*
X166026514Y-86765664D02*
X165906626Y-87050520D01*
X167005000Y-88148895D01*
X168103374Y-87050520D01*
X167983486Y-86765664D01*
X167749534Y-86649400D01*
X168158218Y-86649400D01*
X168955600Y-87446783D01*
X168955600Y-88404608D01*
X168978019Y-88632234D01*
X169024249Y-88784633D01*
X169024249Y-89528500D01*
X169029644Y-89583272D01*
X169045620Y-89635939D01*
X169071564Y-89684477D01*
X169106479Y-89727021D01*
X169149023Y-89761936D01*
X169197561Y-89787880D01*
X169250228Y-89803856D01*
X169305000Y-89809251D01*
X170048866Y-89809251D01*
X170201265Y-89855481D01*
X170505000Y-89885396D01*
X170808734Y-89855481D01*
X170961133Y-89809251D01*
X171705000Y-89809251D01*
X171759772Y-89803856D01*
X171812439Y-89787880D01*
X171860977Y-89761936D01*
X171903521Y-89727021D01*
X171938436Y-89684477D01*
X171964380Y-89635939D01*
X171980356Y-89583272D01*
X171985751Y-89528500D01*
X171985751Y-88784634D01*
X172031981Y-88632235D01*
X172054400Y-88404609D01*
X172054400Y-88227100D01*
X173789154Y-88227100D01*
X181133718Y-95571664D01*
X180978599Y-95586942D01*
X180765706Y-95651522D01*
X180693181Y-95690287D01*
X180368499Y-95365606D01*
X180357363Y-95352037D01*
X180303216Y-95307599D01*
X180241440Y-95274579D01*
X180174410Y-95254246D01*
X180122163Y-95249100D01*
X180122155Y-95249100D01*
X180104700Y-95247381D01*
X180087245Y-95249100D01*
X173070655Y-95249100D01*
X173053200Y-95247381D01*
X173035745Y-95249100D01*
X173035737Y-95249100D01*
X172983490Y-95254246D01*
X172916460Y-95274579D01*
X172854684Y-95307599D01*
X172800537Y-95352037D01*
X172789406Y-95365600D01*
X172272950Y-95882056D01*
X172235178Y-95818645D01*
X172040269Y-95602412D01*
X171806920Y-95428359D01*
X171544099Y-95303175D01*
X171396890Y-95258524D01*
X171167000Y-95379845D01*
X171167000Y-96573000D01*
X171187000Y-96573000D01*
X171187000Y-96827000D01*
X171167000Y-96827000D01*
X171167000Y-96847000D01*
X170913000Y-96847000D01*
X170913000Y-96827000D01*
X170893000Y-96827000D01*
X170893000Y-96573000D01*
X170913000Y-96573000D01*
X170913000Y-95379845D01*
X170683110Y-95258524D01*
X170535901Y-95303175D01*
X170273080Y-95428359D01*
X170039731Y-95602412D01*
X169844822Y-95818645D01*
X169695843Y-96068748D01*
X169630751Y-96252245D01*
X169630751Y-95850000D01*
X169625356Y-95795228D01*
X169609380Y-95742561D01*
X169583436Y-95694023D01*
X169548521Y-95651479D01*
X169505977Y-95616564D01*
X169457439Y-95590620D01*
X169404772Y-95574644D01*
X169350000Y-95569249D01*
X167650000Y-95569249D01*
X167595228Y-95574644D01*
X167542561Y-95590620D01*
X167494023Y-95616564D01*
X167451479Y-95651479D01*
X167416564Y-95694023D01*
X167390620Y-95742561D01*
X167374644Y-95795228D01*
X167369249Y-95850000D01*
X167369249Y-97550000D01*
X167374644Y-97604772D01*
X167390620Y-97657439D01*
X167416564Y-97705977D01*
X167451479Y-97748521D01*
X167494023Y-97783436D01*
X167542561Y-97809380D01*
X167595228Y-97825356D01*
X167650000Y-97830751D01*
X167966601Y-97830751D01*
X167966600Y-98854584D01*
X167949692Y-98837676D01*
X167838416Y-98763324D01*
X167714774Y-98712109D01*
X167583515Y-98686000D01*
X167449685Y-98686000D01*
X167318426Y-98712109D01*
X167194784Y-98763324D01*
X167083508Y-98837676D01*
X166988876Y-98932308D01*
X166914524Y-99043584D01*
X166863309Y-99167226D01*
X166837200Y-99298485D01*
X166837200Y-99432315D01*
X166855382Y-99523723D01*
X161469502Y-104909605D01*
X161455937Y-104920738D01*
X161411499Y-104974885D01*
X161381505Y-105031000D01*
X161378480Y-105036659D01*
X161363582Y-105085772D01*
X161358146Y-105103691D01*
X161353000Y-105155938D01*
X161353000Y-105155945D01*
X161351281Y-105173400D01*
X161353000Y-105190855D01*
X161353001Y-110737197D01*
X161313000Y-110763925D01*
X161313000Y-98332439D01*
X161316195Y-98300000D01*
X161303444Y-98170539D01*
X161265682Y-98046053D01*
X161210278Y-97942400D01*
X164401500Y-97942400D01*
X164457532Y-97936724D01*
X164509856Y-97920533D01*
X164558016Y-97894445D01*
X164600162Y-97859463D01*
X164634673Y-97816931D01*
X164660223Y-97768484D01*
X164675830Y-97715983D01*
X164680896Y-97661445D01*
X164636081Y-89606480D01*
X165906626Y-89606480D01*
X166026514Y-89891336D01*
X166350210Y-90052199D01*
X166699069Y-90146822D01*
X167059684Y-90171567D01*
X167418198Y-90125485D01*
X167760833Y-90010346D01*
X167983486Y-89891336D01*
X168103374Y-89606480D01*
X167005000Y-88508105D01*
X165906626Y-89606480D01*
X164636081Y-89606480D01*
X164629274Y-88383184D01*
X165161933Y-88383184D01*
X165208015Y-88741698D01*
X165323154Y-89084333D01*
X165442164Y-89306986D01*
X165727020Y-89426874D01*
X166825395Y-88328500D01*
X167184605Y-88328500D01*
X168282980Y-89426874D01*
X168567836Y-89306986D01*
X168728699Y-88983290D01*
X168823322Y-88634431D01*
X168848067Y-88273816D01*
X168801985Y-87915302D01*
X168686846Y-87572667D01*
X168567836Y-87350014D01*
X168282980Y-87230126D01*
X167184605Y-88328500D01*
X166825395Y-88328500D01*
X165727020Y-87230126D01*
X165442164Y-87350014D01*
X165281301Y-87673710D01*
X165186678Y-88022569D01*
X165161933Y-88383184D01*
X164629274Y-88383184D01*
X164621963Y-87069220D01*
X165041783Y-86649400D01*
X166244030Y-86649400D01*
X166026514Y-86765664D01*
G36*
X167412241Y-103061164D02*
G01*
X167349215Y-103087270D01*
X167245211Y-103156763D01*
X167156763Y-103245211D01*
X167087270Y-103349215D01*
X167061164Y-103412242D01*
X165679107Y-104794300D01*
X165580885Y-104794300D01*
X165449626Y-104820409D01*
X165325984Y-104871624D01*
X165214708Y-104945976D01*
X165120076Y-105040608D01*
X165045724Y-105151884D01*
X164994509Y-105275526D01*
X164968400Y-105406785D01*
X164968400Y-105540615D01*
X164994509Y-105671874D01*
X165045724Y-105795516D01*
X165120076Y-105906792D01*
X165214708Y-106001424D01*
X165325984Y-106075776D01*
X165449626Y-106126991D01*
X165580885Y-106153100D01*
X165714715Y-106153100D01*
X165845974Y-106126991D01*
X165969616Y-106075776D01*
X166080892Y-106001424D01*
X166175524Y-105906792D01*
X166249876Y-105795516D01*
X166301091Y-105671874D01*
X166327200Y-105540615D01*
X166327200Y-105406785D01*
X166301091Y-105275526D01*
X166272556Y-105206637D01*
X166693443Y-104785750D01*
X167015000Y-104785750D01*
X167015000Y-105412542D01*
X167039403Y-105535223D01*
X167087270Y-105650785D01*
X167156763Y-105754789D01*
X167245211Y-105843237D01*
X167349215Y-105912730D01*
X167464777Y-105960597D01*
X167587458Y-105985000D01*
X168214250Y-105985000D01*
X168373000Y-105826250D01*
X168373000Y-104627000D01*
X167173750Y-104627000D01*
X167015000Y-104785750D01*
X166693443Y-104785750D01*
X167139972Y-104339222D01*
X167173750Y-104373000D01*
X168373000Y-104373000D01*
X168373000Y-104353000D01*
X168627000Y-104353000D01*
X168627000Y-104373000D01*
X168647000Y-104373000D01*
X168647000Y-104627000D01*
X168627000Y-104627000D01*
X168627000Y-105826250D01*
X168672278Y-105871528D01*
X167619724Y-106924083D01*
X167583574Y-106909109D01*
X167452315Y-106883000D01*
X167318485Y-106883000D01*
X167187226Y-106909109D01*
X167063584Y-106960324D01*
X166952308Y-107034676D01*
X166857676Y-107129308D01*
X166783324Y-107240584D01*
X166732109Y-107364226D01*
X166706000Y-107495485D01*
X166706000Y-107505116D01*
X166660024Y-107436308D01*
X166565392Y-107341676D01*
X166454116Y-107267324D01*
X166330474Y-107216109D01*
X166284600Y-107206984D01*
X166305191Y-107157274D01*
X166331300Y-107026015D01*
X166331300Y-106892185D01*
X166305191Y-106760926D01*
X166253976Y-106637284D01*
X166179624Y-106526008D01*
X166084992Y-106431376D01*
X165973716Y-106357024D01*
X165850074Y-106305809D01*
X165718815Y-106279700D01*
X165584985Y-106279700D01*
X165453726Y-106305809D01*
X165330084Y-106357024D01*
X165218808Y-106431376D01*
X165124176Y-106526008D01*
X165049824Y-106637284D01*
X164998609Y-106760926D01*
X164972500Y-106892185D01*
X164972500Y-107026015D01*
X164998609Y-107157274D01*
X165049824Y-107280916D01*
X165124176Y-107392192D01*
X165147800Y-107415816D01*
X165147801Y-108071108D01*
X163977317Y-106900624D01*
X163988092Y-106893424D01*
X164082724Y-106798792D01*
X164157076Y-106687516D01*
X164208291Y-106563874D01*
X164234400Y-106432615D01*
X164234400Y-106298785D01*
X164208291Y-106167526D01*
X164157076Y-106043884D01*
X164082724Y-105932608D01*
X163988092Y-105837976D01*
X163876816Y-105763624D01*
X163753174Y-105712409D01*
X163732831Y-105708362D01*
X166465994Y-102975200D01*
X167498205Y-102975200D01*
X167412241Y-103061164D01*
X167412241Y-103061164D01*
G37*
X167412241Y-103061164D02*
X167349215Y-103087270D01*
X167245211Y-103156763D01*
X167156763Y-103245211D01*
X167087270Y-103349215D01*
X167061164Y-103412242D01*
X165679107Y-104794300D01*
X165580885Y-104794300D01*
X165449626Y-104820409D01*
X165325984Y-104871624D01*
X165214708Y-104945976D01*
X165120076Y-105040608D01*
X165045724Y-105151884D01*
X164994509Y-105275526D01*
X164968400Y-105406785D01*
X164968400Y-105540615D01*
X164994509Y-105671874D01*
X165045724Y-105795516D01*
X165120076Y-105906792D01*
X165214708Y-106001424D01*
X165325984Y-106075776D01*
X165449626Y-106126991D01*
X165580885Y-106153100D01*
X165714715Y-106153100D01*
X165845974Y-106126991D01*
X165969616Y-106075776D01*
X166080892Y-106001424D01*
X166175524Y-105906792D01*
X166249876Y-105795516D01*
X166301091Y-105671874D01*
X166327200Y-105540615D01*
X166327200Y-105406785D01*
X166301091Y-105275526D01*
X166272556Y-105206637D01*
X166693443Y-104785750D01*
X167015000Y-104785750D01*
X167015000Y-105412542D01*
X167039403Y-105535223D01*
X167087270Y-105650785D01*
X167156763Y-105754789D01*
X167245211Y-105843237D01*
X167349215Y-105912730D01*
X167464777Y-105960597D01*
X167587458Y-105985000D01*
X168214250Y-105985000D01*
X168373000Y-105826250D01*
X168373000Y-104627000D01*
X167173750Y-104627000D01*
X167015000Y-104785750D01*
X166693443Y-104785750D01*
X167139972Y-104339222D01*
X167173750Y-104373000D01*
X168373000Y-104373000D01*
X168373000Y-104353000D01*
X168627000Y-104353000D01*
X168627000Y-104373000D01*
X168647000Y-104373000D01*
X168647000Y-104627000D01*
X168627000Y-104627000D01*
X168627000Y-105826250D01*
X168672278Y-105871528D01*
X167619724Y-106924083D01*
X167583574Y-106909109D01*
X167452315Y-106883000D01*
X167318485Y-106883000D01*
X167187226Y-106909109D01*
X167063584Y-106960324D01*
X166952308Y-107034676D01*
X166857676Y-107129308D01*
X166783324Y-107240584D01*
X166732109Y-107364226D01*
X166706000Y-107495485D01*
X166706000Y-107505116D01*
X166660024Y-107436308D01*
X166565392Y-107341676D01*
X166454116Y-107267324D01*
X166330474Y-107216109D01*
X166284600Y-107206984D01*
X166305191Y-107157274D01*
X166331300Y-107026015D01*
X166331300Y-106892185D01*
X166305191Y-106760926D01*
X166253976Y-106637284D01*
X166179624Y-106526008D01*
X166084992Y-106431376D01*
X165973716Y-106357024D01*
X165850074Y-106305809D01*
X165718815Y-106279700D01*
X165584985Y-106279700D01*
X165453726Y-106305809D01*
X165330084Y-106357024D01*
X165218808Y-106431376D01*
X165124176Y-106526008D01*
X165049824Y-106637284D01*
X164998609Y-106760926D01*
X164972500Y-106892185D01*
X164972500Y-107026015D01*
X164998609Y-107157274D01*
X165049824Y-107280916D01*
X165124176Y-107392192D01*
X165147800Y-107415816D01*
X165147801Y-108071108D01*
X163977317Y-106900624D01*
X163988092Y-106893424D01*
X164082724Y-106798792D01*
X164157076Y-106687516D01*
X164208291Y-106563874D01*
X164234400Y-106432615D01*
X164234400Y-106298785D01*
X164208291Y-106167526D01*
X164157076Y-106043884D01*
X164082724Y-105932608D01*
X163988092Y-105837976D01*
X163876816Y-105763624D01*
X163753174Y-105712409D01*
X163732831Y-105708362D01*
X166465994Y-102975200D01*
X167498205Y-102975200D01*
X167412241Y-103061164D01*
G36*
X153070274Y-97895313D02*
G01*
X153118578Y-97921132D01*
X153170992Y-97937031D01*
X153225500Y-97942400D01*
X155908454Y-97942400D01*
X156710086Y-98744033D01*
X156730767Y-98769233D01*
X156831326Y-98851759D01*
X156946053Y-98913082D01*
X157070539Y-98950844D01*
X157200000Y-98963595D01*
X157232439Y-98960400D01*
X159992200Y-98960400D01*
X159992200Y-99116974D01*
X159881474Y-99071109D01*
X159750215Y-99045000D01*
X159616385Y-99045000D01*
X159485126Y-99071109D01*
X159361484Y-99122324D01*
X159250208Y-99196676D01*
X159155576Y-99291308D01*
X159081224Y-99402584D01*
X159030009Y-99526226D01*
X159003900Y-99657485D01*
X159003900Y-99791315D01*
X159030009Y-99922574D01*
X159081224Y-100046216D01*
X159155576Y-100157492D01*
X159250208Y-100252124D01*
X159327700Y-100303902D01*
X159327701Y-106610407D01*
X150659693Y-97942400D01*
X152908000Y-97942400D01*
X152964188Y-97936692D01*
X153016503Y-97920471D01*
X153064648Y-97894356D01*
X153066864Y-97892515D01*
X153070274Y-97895313D01*
X153070274Y-97895313D01*
G37*
X153070274Y-97895313D02*
X153118578Y-97921132D01*
X153170992Y-97937031D01*
X153225500Y-97942400D01*
X155908454Y-97942400D01*
X156710086Y-98744033D01*
X156730767Y-98769233D01*
X156831326Y-98851759D01*
X156946053Y-98913082D01*
X157070539Y-98950844D01*
X157200000Y-98963595D01*
X157232439Y-98960400D01*
X159992200Y-98960400D01*
X159992200Y-99116974D01*
X159881474Y-99071109D01*
X159750215Y-99045000D01*
X159616385Y-99045000D01*
X159485126Y-99071109D01*
X159361484Y-99122324D01*
X159250208Y-99196676D01*
X159155576Y-99291308D01*
X159081224Y-99402584D01*
X159030009Y-99526226D01*
X159003900Y-99657485D01*
X159003900Y-99791315D01*
X159030009Y-99922574D01*
X159081224Y-100046216D01*
X159155576Y-100157492D01*
X159250208Y-100252124D01*
X159327700Y-100303902D01*
X159327701Y-106610407D01*
X150659693Y-97942400D01*
X152908000Y-97942400D01*
X152964188Y-97936692D01*
X153016503Y-97920471D01*
X153064648Y-97894356D01*
X153066864Y-97892515D01*
X153070274Y-97895313D01*
G36*
X167369249Y-100028800D02*
G01*
X167369249Y-101650000D01*
X167374644Y-101704772D01*
X167390620Y-101757439D01*
X167416564Y-101805977D01*
X167451479Y-101848521D01*
X167494023Y-101883436D01*
X167542561Y-101909380D01*
X167595228Y-101925356D01*
X167650000Y-101930751D01*
X168910056Y-101930751D01*
X168576807Y-102264000D01*
X166336155Y-102264000D01*
X166318700Y-102262281D01*
X166301245Y-102264000D01*
X166301237Y-102264000D01*
X166248990Y-102269146D01*
X166181960Y-102289479D01*
X166120184Y-102322499D01*
X166066037Y-102366937D01*
X166054906Y-102380500D01*
X162064200Y-106371207D01*
X162064200Y-105320693D01*
X167358277Y-100026618D01*
X167369249Y-100028800D01*
X167369249Y-100028800D01*
G37*
X167369249Y-100028800D02*
X167369249Y-101650000D01*
X167374644Y-101704772D01*
X167390620Y-101757439D01*
X167416564Y-101805977D01*
X167451479Y-101848521D01*
X167494023Y-101883436D01*
X167542561Y-101909380D01*
X167595228Y-101925356D01*
X167650000Y-101930751D01*
X168910056Y-101930751D01*
X168576807Y-102264000D01*
X166336155Y-102264000D01*
X166318700Y-102262281D01*
X166301245Y-102264000D01*
X166301237Y-102264000D01*
X166248990Y-102269146D01*
X166181960Y-102289479D01*
X166120184Y-102322499D01*
X166066037Y-102366937D01*
X166054906Y-102380500D01*
X162064200Y-106371207D01*
X162064200Y-105320693D01*
X167358277Y-100026618D01*
X167369249Y-100028800D01*
G36*
X172777530Y-97502470D02*
G01*
X172949503Y-97643605D01*
X173145706Y-97748478D01*
X173224400Y-97772350D01*
X173224401Y-99727650D01*
X173145706Y-99751522D01*
X172949503Y-99856395D01*
X172777530Y-99997530D01*
X172636395Y-100169503D01*
X172531522Y-100365706D01*
X172507967Y-100443356D01*
X172501100Y-100442680D01*
X172483637Y-100444400D01*
X172480649Y-100444694D01*
X172481481Y-100443109D01*
X172384157Y-100168748D01*
X172235178Y-99918645D01*
X172040269Y-99702412D01*
X171806920Y-99528359D01*
X171544099Y-99403175D01*
X171396890Y-99358524D01*
X171167000Y-99479845D01*
X171167000Y-100673000D01*
X171187000Y-100673000D01*
X171187000Y-100927000D01*
X171167000Y-100927000D01*
X171167000Y-100947000D01*
X170913000Y-100947000D01*
X170913000Y-100927000D01*
X170893000Y-100927000D01*
X170893000Y-100673000D01*
X170913000Y-100673000D01*
X170913000Y-99479845D01*
X170718364Y-99377129D01*
X172549100Y-97546394D01*
X172562663Y-97535263D01*
X172607101Y-97481116D01*
X172640121Y-97419340D01*
X172658792Y-97357788D01*
X172777530Y-97502470D01*
X172777530Y-97502470D01*
G37*
X172777530Y-97502470D02*
X172949503Y-97643605D01*
X173145706Y-97748478D01*
X173224400Y-97772350D01*
X173224401Y-99727650D01*
X173145706Y-99751522D01*
X172949503Y-99856395D01*
X172777530Y-99997530D01*
X172636395Y-100169503D01*
X172531522Y-100365706D01*
X172507967Y-100443356D01*
X172501100Y-100442680D01*
X172483637Y-100444400D01*
X172480649Y-100444694D01*
X172481481Y-100443109D01*
X172384157Y-100168748D01*
X172235178Y-99918645D01*
X172040269Y-99702412D01*
X171806920Y-99528359D01*
X171544099Y-99403175D01*
X171396890Y-99358524D01*
X171167000Y-99479845D01*
X171167000Y-100673000D01*
X171187000Y-100673000D01*
X171187000Y-100927000D01*
X171167000Y-100927000D01*
X171167000Y-100947000D01*
X170913000Y-100947000D01*
X170913000Y-100927000D01*
X170893000Y-100927000D01*
X170893000Y-100673000D01*
X170913000Y-100673000D01*
X170913000Y-99479845D01*
X170718364Y-99377129D01*
X172549100Y-97546394D01*
X172562663Y-97535263D01*
X172607101Y-97481116D01*
X172640121Y-97419340D01*
X172658792Y-97357788D01*
X172777530Y-97502470D01*
M02*
