G04 #@! TF.GenerationSoftware,KiCad,Pcbnew,6.0.0-rc1-unknown-da35b16~65~ubuntu18.04.1*
G04 #@! TF.CreationDate,2018-07-20T19:33:13-07:00*
G04 #@! TF.ProjectId,ZProbe,5A50726F62652E6B696361645F706362,rev?*
G04 #@! TF.SameCoordinates,Original*
G04 #@! TF.FileFunction,Paste,Top*
G04 #@! TF.FilePolarity,Positive*
%FSLAX46Y46*%
G04 Gerber Fmt 4.6, Leading zero omitted, Abs format (unit mm)*
G04 Created by KiCad (PCBNEW 6.0.0-rc1-unknown-da35b16~65~ubuntu18.04.1) date Fri Jul 20 19:33:13 2018*
%MOMM*%
%LPD*%
G01*
G04 APERTURE LIST*
%ADD10C,0.100000*%
%ADD11C,0.875000*%
%ADD12R,1.000000X1.000000*%
%ADD13R,0.800000X0.900000*%
G04 APERTURE END LIST*
D10*
G04 #@! TO.C,C2*
G36*
X101577691Y-57363553D02*
X101598926Y-57366703D01*
X101619750Y-57371919D01*
X101639962Y-57379151D01*
X101659368Y-57388330D01*
X101677781Y-57399366D01*
X101695024Y-57412154D01*
X101710930Y-57426570D01*
X101725346Y-57442476D01*
X101738134Y-57459719D01*
X101749170Y-57478132D01*
X101758349Y-57497538D01*
X101765581Y-57517750D01*
X101770797Y-57538574D01*
X101773947Y-57559809D01*
X101775000Y-57581250D01*
X101775000Y-58018750D01*
X101773947Y-58040191D01*
X101770797Y-58061426D01*
X101765581Y-58082250D01*
X101758349Y-58102462D01*
X101749170Y-58121868D01*
X101738134Y-58140281D01*
X101725346Y-58157524D01*
X101710930Y-58173430D01*
X101695024Y-58187846D01*
X101677781Y-58200634D01*
X101659368Y-58211670D01*
X101639962Y-58220849D01*
X101619750Y-58228081D01*
X101598926Y-58233297D01*
X101577691Y-58236447D01*
X101556250Y-58237500D01*
X101043750Y-58237500D01*
X101022309Y-58236447D01*
X101001074Y-58233297D01*
X100980250Y-58228081D01*
X100960038Y-58220849D01*
X100940632Y-58211670D01*
X100922219Y-58200634D01*
X100904976Y-58187846D01*
X100889070Y-58173430D01*
X100874654Y-58157524D01*
X100861866Y-58140281D01*
X100850830Y-58121868D01*
X100841651Y-58102462D01*
X100834419Y-58082250D01*
X100829203Y-58061426D01*
X100826053Y-58040191D01*
X100825000Y-58018750D01*
X100825000Y-57581250D01*
X100826053Y-57559809D01*
X100829203Y-57538574D01*
X100834419Y-57517750D01*
X100841651Y-57497538D01*
X100850830Y-57478132D01*
X100861866Y-57459719D01*
X100874654Y-57442476D01*
X100889070Y-57426570D01*
X100904976Y-57412154D01*
X100922219Y-57399366D01*
X100940632Y-57388330D01*
X100960038Y-57379151D01*
X100980250Y-57371919D01*
X101001074Y-57366703D01*
X101022309Y-57363553D01*
X101043750Y-57362500D01*
X101556250Y-57362500D01*
X101577691Y-57363553D01*
X101577691Y-57363553D01*
G37*
D11*
X101300000Y-57800000D03*
D10*
G36*
X101577691Y-55788553D02*
X101598926Y-55791703D01*
X101619750Y-55796919D01*
X101639962Y-55804151D01*
X101659368Y-55813330D01*
X101677781Y-55824366D01*
X101695024Y-55837154D01*
X101710930Y-55851570D01*
X101725346Y-55867476D01*
X101738134Y-55884719D01*
X101749170Y-55903132D01*
X101758349Y-55922538D01*
X101765581Y-55942750D01*
X101770797Y-55963574D01*
X101773947Y-55984809D01*
X101775000Y-56006250D01*
X101775000Y-56443750D01*
X101773947Y-56465191D01*
X101770797Y-56486426D01*
X101765581Y-56507250D01*
X101758349Y-56527462D01*
X101749170Y-56546868D01*
X101738134Y-56565281D01*
X101725346Y-56582524D01*
X101710930Y-56598430D01*
X101695024Y-56612846D01*
X101677781Y-56625634D01*
X101659368Y-56636670D01*
X101639962Y-56645849D01*
X101619750Y-56653081D01*
X101598926Y-56658297D01*
X101577691Y-56661447D01*
X101556250Y-56662500D01*
X101043750Y-56662500D01*
X101022309Y-56661447D01*
X101001074Y-56658297D01*
X100980250Y-56653081D01*
X100960038Y-56645849D01*
X100940632Y-56636670D01*
X100922219Y-56625634D01*
X100904976Y-56612846D01*
X100889070Y-56598430D01*
X100874654Y-56582524D01*
X100861866Y-56565281D01*
X100850830Y-56546868D01*
X100841651Y-56527462D01*
X100834419Y-56507250D01*
X100829203Y-56486426D01*
X100826053Y-56465191D01*
X100825000Y-56443750D01*
X100825000Y-56006250D01*
X100826053Y-55984809D01*
X100829203Y-55963574D01*
X100834419Y-55942750D01*
X100841651Y-55922538D01*
X100850830Y-55903132D01*
X100861866Y-55884719D01*
X100874654Y-55867476D01*
X100889070Y-55851570D01*
X100904976Y-55837154D01*
X100922219Y-55824366D01*
X100940632Y-55813330D01*
X100960038Y-55804151D01*
X100980250Y-55796919D01*
X101001074Y-55791703D01*
X101022309Y-55788553D01*
X101043750Y-55787500D01*
X101556250Y-55787500D01*
X101577691Y-55788553D01*
X101577691Y-55788553D01*
G37*
D11*
X101300000Y-56225000D03*
G04 #@! TD*
D10*
G04 #@! TO.C,C1*
G36*
X94590191Y-53251053D02*
X94611426Y-53254203D01*
X94632250Y-53259419D01*
X94652462Y-53266651D01*
X94671868Y-53275830D01*
X94690281Y-53286866D01*
X94707524Y-53299654D01*
X94723430Y-53314070D01*
X94737846Y-53329976D01*
X94750634Y-53347219D01*
X94761670Y-53365632D01*
X94770849Y-53385038D01*
X94778081Y-53405250D01*
X94783297Y-53426074D01*
X94786447Y-53447309D01*
X94787500Y-53468750D01*
X94787500Y-53906250D01*
X94786447Y-53927691D01*
X94783297Y-53948926D01*
X94778081Y-53969750D01*
X94770849Y-53989962D01*
X94761670Y-54009368D01*
X94750634Y-54027781D01*
X94737846Y-54045024D01*
X94723430Y-54060930D01*
X94707524Y-54075346D01*
X94690281Y-54088134D01*
X94671868Y-54099170D01*
X94652462Y-54108349D01*
X94632250Y-54115581D01*
X94611426Y-54120797D01*
X94590191Y-54123947D01*
X94568750Y-54125000D01*
X94056250Y-54125000D01*
X94034809Y-54123947D01*
X94013574Y-54120797D01*
X93992750Y-54115581D01*
X93972538Y-54108349D01*
X93953132Y-54099170D01*
X93934719Y-54088134D01*
X93917476Y-54075346D01*
X93901570Y-54060930D01*
X93887154Y-54045024D01*
X93874366Y-54027781D01*
X93863330Y-54009368D01*
X93854151Y-53989962D01*
X93846919Y-53969750D01*
X93841703Y-53948926D01*
X93838553Y-53927691D01*
X93837500Y-53906250D01*
X93837500Y-53468750D01*
X93838553Y-53447309D01*
X93841703Y-53426074D01*
X93846919Y-53405250D01*
X93854151Y-53385038D01*
X93863330Y-53365632D01*
X93874366Y-53347219D01*
X93887154Y-53329976D01*
X93901570Y-53314070D01*
X93917476Y-53299654D01*
X93934719Y-53286866D01*
X93953132Y-53275830D01*
X93972538Y-53266651D01*
X93992750Y-53259419D01*
X94013574Y-53254203D01*
X94034809Y-53251053D01*
X94056250Y-53250000D01*
X94568750Y-53250000D01*
X94590191Y-53251053D01*
X94590191Y-53251053D01*
G37*
D11*
X94312500Y-53687500D03*
D10*
G36*
X94590191Y-51676053D02*
X94611426Y-51679203D01*
X94632250Y-51684419D01*
X94652462Y-51691651D01*
X94671868Y-51700830D01*
X94690281Y-51711866D01*
X94707524Y-51724654D01*
X94723430Y-51739070D01*
X94737846Y-51754976D01*
X94750634Y-51772219D01*
X94761670Y-51790632D01*
X94770849Y-51810038D01*
X94778081Y-51830250D01*
X94783297Y-51851074D01*
X94786447Y-51872309D01*
X94787500Y-51893750D01*
X94787500Y-52331250D01*
X94786447Y-52352691D01*
X94783297Y-52373926D01*
X94778081Y-52394750D01*
X94770849Y-52414962D01*
X94761670Y-52434368D01*
X94750634Y-52452781D01*
X94737846Y-52470024D01*
X94723430Y-52485930D01*
X94707524Y-52500346D01*
X94690281Y-52513134D01*
X94671868Y-52524170D01*
X94652462Y-52533349D01*
X94632250Y-52540581D01*
X94611426Y-52545797D01*
X94590191Y-52548947D01*
X94568750Y-52550000D01*
X94056250Y-52550000D01*
X94034809Y-52548947D01*
X94013574Y-52545797D01*
X93992750Y-52540581D01*
X93972538Y-52533349D01*
X93953132Y-52524170D01*
X93934719Y-52513134D01*
X93917476Y-52500346D01*
X93901570Y-52485930D01*
X93887154Y-52470024D01*
X93874366Y-52452781D01*
X93863330Y-52434368D01*
X93854151Y-52414962D01*
X93846919Y-52394750D01*
X93841703Y-52373926D01*
X93838553Y-52352691D01*
X93837500Y-52331250D01*
X93837500Y-51893750D01*
X93838553Y-51872309D01*
X93841703Y-51851074D01*
X93846919Y-51830250D01*
X93854151Y-51810038D01*
X93863330Y-51790632D01*
X93874366Y-51772219D01*
X93887154Y-51754976D01*
X93901570Y-51739070D01*
X93917476Y-51724654D01*
X93934719Y-51711866D01*
X93953132Y-51700830D01*
X93972538Y-51691651D01*
X93992750Y-51684419D01*
X94013574Y-51679203D01*
X94034809Y-51676053D01*
X94056250Y-51675000D01*
X94568750Y-51675000D01*
X94590191Y-51676053D01*
X94590191Y-51676053D01*
G37*
D11*
X94312500Y-52112500D03*
G04 #@! TD*
D12*
G04 #@! TO.C,D1*
X94250000Y-55250000D03*
X94250000Y-57750000D03*
G04 #@! TD*
D13*
G04 #@! TO.C,Q2*
X97100000Y-52100000D03*
X98050000Y-54100000D03*
X96150000Y-54100000D03*
G04 #@! TD*
G04 #@! TO.C,Q1*
X98050000Y-55800000D03*
X96150000Y-55800000D03*
X97100000Y-57800000D03*
G04 #@! TD*
D10*
G04 #@! TO.C,R2*
G36*
X99977691Y-55788553D02*
X99998926Y-55791703D01*
X100019750Y-55796919D01*
X100039962Y-55804151D01*
X100059368Y-55813330D01*
X100077781Y-55824366D01*
X100095024Y-55837154D01*
X100110930Y-55851570D01*
X100125346Y-55867476D01*
X100138134Y-55884719D01*
X100149170Y-55903132D01*
X100158349Y-55922538D01*
X100165581Y-55942750D01*
X100170797Y-55963574D01*
X100173947Y-55984809D01*
X100175000Y-56006250D01*
X100175000Y-56443750D01*
X100173947Y-56465191D01*
X100170797Y-56486426D01*
X100165581Y-56507250D01*
X100158349Y-56527462D01*
X100149170Y-56546868D01*
X100138134Y-56565281D01*
X100125346Y-56582524D01*
X100110930Y-56598430D01*
X100095024Y-56612846D01*
X100077781Y-56625634D01*
X100059368Y-56636670D01*
X100039962Y-56645849D01*
X100019750Y-56653081D01*
X99998926Y-56658297D01*
X99977691Y-56661447D01*
X99956250Y-56662500D01*
X99443750Y-56662500D01*
X99422309Y-56661447D01*
X99401074Y-56658297D01*
X99380250Y-56653081D01*
X99360038Y-56645849D01*
X99340632Y-56636670D01*
X99322219Y-56625634D01*
X99304976Y-56612846D01*
X99289070Y-56598430D01*
X99274654Y-56582524D01*
X99261866Y-56565281D01*
X99250830Y-56546868D01*
X99241651Y-56527462D01*
X99234419Y-56507250D01*
X99229203Y-56486426D01*
X99226053Y-56465191D01*
X99225000Y-56443750D01*
X99225000Y-56006250D01*
X99226053Y-55984809D01*
X99229203Y-55963574D01*
X99234419Y-55942750D01*
X99241651Y-55922538D01*
X99250830Y-55903132D01*
X99261866Y-55884719D01*
X99274654Y-55867476D01*
X99289070Y-55851570D01*
X99304976Y-55837154D01*
X99322219Y-55824366D01*
X99340632Y-55813330D01*
X99360038Y-55804151D01*
X99380250Y-55796919D01*
X99401074Y-55791703D01*
X99422309Y-55788553D01*
X99443750Y-55787500D01*
X99956250Y-55787500D01*
X99977691Y-55788553D01*
X99977691Y-55788553D01*
G37*
D11*
X99700000Y-56225000D03*
D10*
G36*
X99977691Y-57363553D02*
X99998926Y-57366703D01*
X100019750Y-57371919D01*
X100039962Y-57379151D01*
X100059368Y-57388330D01*
X100077781Y-57399366D01*
X100095024Y-57412154D01*
X100110930Y-57426570D01*
X100125346Y-57442476D01*
X100138134Y-57459719D01*
X100149170Y-57478132D01*
X100158349Y-57497538D01*
X100165581Y-57517750D01*
X100170797Y-57538574D01*
X100173947Y-57559809D01*
X100175000Y-57581250D01*
X100175000Y-58018750D01*
X100173947Y-58040191D01*
X100170797Y-58061426D01*
X100165581Y-58082250D01*
X100158349Y-58102462D01*
X100149170Y-58121868D01*
X100138134Y-58140281D01*
X100125346Y-58157524D01*
X100110930Y-58173430D01*
X100095024Y-58187846D01*
X100077781Y-58200634D01*
X100059368Y-58211670D01*
X100039962Y-58220849D01*
X100019750Y-58228081D01*
X99998926Y-58233297D01*
X99977691Y-58236447D01*
X99956250Y-58237500D01*
X99443750Y-58237500D01*
X99422309Y-58236447D01*
X99401074Y-58233297D01*
X99380250Y-58228081D01*
X99360038Y-58220849D01*
X99340632Y-58211670D01*
X99322219Y-58200634D01*
X99304976Y-58187846D01*
X99289070Y-58173430D01*
X99274654Y-58157524D01*
X99261866Y-58140281D01*
X99250830Y-58121868D01*
X99241651Y-58102462D01*
X99234419Y-58082250D01*
X99229203Y-58061426D01*
X99226053Y-58040191D01*
X99225000Y-58018750D01*
X99225000Y-57581250D01*
X99226053Y-57559809D01*
X99229203Y-57538574D01*
X99234419Y-57517750D01*
X99241651Y-57497538D01*
X99250830Y-57478132D01*
X99261866Y-57459719D01*
X99274654Y-57442476D01*
X99289070Y-57426570D01*
X99304976Y-57412154D01*
X99322219Y-57399366D01*
X99340632Y-57388330D01*
X99360038Y-57379151D01*
X99380250Y-57371919D01*
X99401074Y-57366703D01*
X99422309Y-57363553D01*
X99443750Y-57362500D01*
X99956250Y-57362500D01*
X99977691Y-57363553D01*
X99977691Y-57363553D01*
G37*
D11*
X99700000Y-57800000D03*
G04 #@! TD*
D10*
G04 #@! TO.C,R1*
G36*
X92677691Y-54638553D02*
X92698926Y-54641703D01*
X92719750Y-54646919D01*
X92739962Y-54654151D01*
X92759368Y-54663330D01*
X92777781Y-54674366D01*
X92795024Y-54687154D01*
X92810930Y-54701570D01*
X92825346Y-54717476D01*
X92838134Y-54734719D01*
X92849170Y-54753132D01*
X92858349Y-54772538D01*
X92865581Y-54792750D01*
X92870797Y-54813574D01*
X92873947Y-54834809D01*
X92875000Y-54856250D01*
X92875000Y-55293750D01*
X92873947Y-55315191D01*
X92870797Y-55336426D01*
X92865581Y-55357250D01*
X92858349Y-55377462D01*
X92849170Y-55396868D01*
X92838134Y-55415281D01*
X92825346Y-55432524D01*
X92810930Y-55448430D01*
X92795024Y-55462846D01*
X92777781Y-55475634D01*
X92759368Y-55486670D01*
X92739962Y-55495849D01*
X92719750Y-55503081D01*
X92698926Y-55508297D01*
X92677691Y-55511447D01*
X92656250Y-55512500D01*
X92143750Y-55512500D01*
X92122309Y-55511447D01*
X92101074Y-55508297D01*
X92080250Y-55503081D01*
X92060038Y-55495849D01*
X92040632Y-55486670D01*
X92022219Y-55475634D01*
X92004976Y-55462846D01*
X91989070Y-55448430D01*
X91974654Y-55432524D01*
X91961866Y-55415281D01*
X91950830Y-55396868D01*
X91941651Y-55377462D01*
X91934419Y-55357250D01*
X91929203Y-55336426D01*
X91926053Y-55315191D01*
X91925000Y-55293750D01*
X91925000Y-54856250D01*
X91926053Y-54834809D01*
X91929203Y-54813574D01*
X91934419Y-54792750D01*
X91941651Y-54772538D01*
X91950830Y-54753132D01*
X91961866Y-54734719D01*
X91974654Y-54717476D01*
X91989070Y-54701570D01*
X92004976Y-54687154D01*
X92022219Y-54674366D01*
X92040632Y-54663330D01*
X92060038Y-54654151D01*
X92080250Y-54646919D01*
X92101074Y-54641703D01*
X92122309Y-54638553D01*
X92143750Y-54637500D01*
X92656250Y-54637500D01*
X92677691Y-54638553D01*
X92677691Y-54638553D01*
G37*
D11*
X92400000Y-55075000D03*
D10*
G36*
X92677691Y-53063553D02*
X92698926Y-53066703D01*
X92719750Y-53071919D01*
X92739962Y-53079151D01*
X92759368Y-53088330D01*
X92777781Y-53099366D01*
X92795024Y-53112154D01*
X92810930Y-53126570D01*
X92825346Y-53142476D01*
X92838134Y-53159719D01*
X92849170Y-53178132D01*
X92858349Y-53197538D01*
X92865581Y-53217750D01*
X92870797Y-53238574D01*
X92873947Y-53259809D01*
X92875000Y-53281250D01*
X92875000Y-53718750D01*
X92873947Y-53740191D01*
X92870797Y-53761426D01*
X92865581Y-53782250D01*
X92858349Y-53802462D01*
X92849170Y-53821868D01*
X92838134Y-53840281D01*
X92825346Y-53857524D01*
X92810930Y-53873430D01*
X92795024Y-53887846D01*
X92777781Y-53900634D01*
X92759368Y-53911670D01*
X92739962Y-53920849D01*
X92719750Y-53928081D01*
X92698926Y-53933297D01*
X92677691Y-53936447D01*
X92656250Y-53937500D01*
X92143750Y-53937500D01*
X92122309Y-53936447D01*
X92101074Y-53933297D01*
X92080250Y-53928081D01*
X92060038Y-53920849D01*
X92040632Y-53911670D01*
X92022219Y-53900634D01*
X92004976Y-53887846D01*
X91989070Y-53873430D01*
X91974654Y-53857524D01*
X91961866Y-53840281D01*
X91950830Y-53821868D01*
X91941651Y-53802462D01*
X91934419Y-53782250D01*
X91929203Y-53761426D01*
X91926053Y-53740191D01*
X91925000Y-53718750D01*
X91925000Y-53281250D01*
X91926053Y-53259809D01*
X91929203Y-53238574D01*
X91934419Y-53217750D01*
X91941651Y-53197538D01*
X91950830Y-53178132D01*
X91961866Y-53159719D01*
X91974654Y-53142476D01*
X91989070Y-53126570D01*
X92004976Y-53112154D01*
X92022219Y-53099366D01*
X92040632Y-53088330D01*
X92060038Y-53079151D01*
X92080250Y-53071919D01*
X92101074Y-53066703D01*
X92122309Y-53063553D01*
X92143750Y-53062500D01*
X92656250Y-53062500D01*
X92677691Y-53063553D01*
X92677691Y-53063553D01*
G37*
D11*
X92400000Y-53500000D03*
G04 #@! TD*
M02*
