G04 #@! TF.GenerationSoftware,KiCad,Pcbnew,6.0.0-rc1-unknown-6d2dfbb~65~ubuntu18.04.1*
G04 #@! TF.CreationDate,2018-07-21T00:59:14-07:00*
G04 #@! TF.ProjectId,ZProbe,5A50726F62652E6B696361645F706362,rev?*
G04 #@! TF.SameCoordinates,Original*
G04 #@! TF.FileFunction,Soldermask,Top*
G04 #@! TF.FilePolarity,Negative*
%FSLAX46Y46*%
G04 Gerber Fmt 4.6, Leading zero omitted, Abs format (unit mm)*
G04 Created by KiCad (PCBNEW 6.0.0-rc1-unknown-6d2dfbb~65~ubuntu18.04.1) date Sat Jul 21 00:59:14 2018*
%MOMM*%
%LPD*%
G01*
G04 APERTURE LIST*
%ADD10C,0.100000*%
%ADD11C,1.275000*%
%ADD12R,2.100000X2.400000*%
%ADD13O,2.100000X2.400000*%
%ADD14R,2.100000X2.100000*%
%ADD15O,2.100000X2.100000*%
%ADD16R,1.400000X1.400000*%
%ADD17R,1.200000X1.300000*%
G04 APERTURE END LIST*
D10*
G04 #@! TO.C,C2*
G36*
X101687493Y-57164035D02*
X101718435Y-57168625D01*
X101748778Y-57176225D01*
X101778230Y-57186763D01*
X101806508Y-57200138D01*
X101833338Y-57216219D01*
X101858463Y-57234853D01*
X101881640Y-57255860D01*
X101902647Y-57279037D01*
X101921281Y-57304162D01*
X101937362Y-57330992D01*
X101950737Y-57359270D01*
X101961275Y-57388722D01*
X101968875Y-57419065D01*
X101973465Y-57450007D01*
X101975000Y-57481250D01*
X101975000Y-58118750D01*
X101973465Y-58149993D01*
X101968875Y-58180935D01*
X101961275Y-58211278D01*
X101950737Y-58240730D01*
X101937362Y-58269008D01*
X101921281Y-58295838D01*
X101902647Y-58320963D01*
X101881640Y-58344140D01*
X101858463Y-58365147D01*
X101833338Y-58383781D01*
X101806508Y-58399862D01*
X101778230Y-58413237D01*
X101748778Y-58423775D01*
X101718435Y-58431375D01*
X101687493Y-58435965D01*
X101656250Y-58437500D01*
X100943750Y-58437500D01*
X100912507Y-58435965D01*
X100881565Y-58431375D01*
X100851222Y-58423775D01*
X100821770Y-58413237D01*
X100793492Y-58399862D01*
X100766662Y-58383781D01*
X100741537Y-58365147D01*
X100718360Y-58344140D01*
X100697353Y-58320963D01*
X100678719Y-58295838D01*
X100662638Y-58269008D01*
X100649263Y-58240730D01*
X100638725Y-58211278D01*
X100631125Y-58180935D01*
X100626535Y-58149993D01*
X100625000Y-58118750D01*
X100625000Y-57481250D01*
X100626535Y-57450007D01*
X100631125Y-57419065D01*
X100638725Y-57388722D01*
X100649263Y-57359270D01*
X100662638Y-57330992D01*
X100678719Y-57304162D01*
X100697353Y-57279037D01*
X100718360Y-57255860D01*
X100741537Y-57234853D01*
X100766662Y-57216219D01*
X100793492Y-57200138D01*
X100821770Y-57186763D01*
X100851222Y-57176225D01*
X100881565Y-57168625D01*
X100912507Y-57164035D01*
X100943750Y-57162500D01*
X101656250Y-57162500D01*
X101687493Y-57164035D01*
X101687493Y-57164035D01*
G37*
D11*
X101300000Y-57800000D03*
D10*
G36*
X101687493Y-55589035D02*
X101718435Y-55593625D01*
X101748778Y-55601225D01*
X101778230Y-55611763D01*
X101806508Y-55625138D01*
X101833338Y-55641219D01*
X101858463Y-55659853D01*
X101881640Y-55680860D01*
X101902647Y-55704037D01*
X101921281Y-55729162D01*
X101937362Y-55755992D01*
X101950737Y-55784270D01*
X101961275Y-55813722D01*
X101968875Y-55844065D01*
X101973465Y-55875007D01*
X101975000Y-55906250D01*
X101975000Y-56543750D01*
X101973465Y-56574993D01*
X101968875Y-56605935D01*
X101961275Y-56636278D01*
X101950737Y-56665730D01*
X101937362Y-56694008D01*
X101921281Y-56720838D01*
X101902647Y-56745963D01*
X101881640Y-56769140D01*
X101858463Y-56790147D01*
X101833338Y-56808781D01*
X101806508Y-56824862D01*
X101778230Y-56838237D01*
X101748778Y-56848775D01*
X101718435Y-56856375D01*
X101687493Y-56860965D01*
X101656250Y-56862500D01*
X100943750Y-56862500D01*
X100912507Y-56860965D01*
X100881565Y-56856375D01*
X100851222Y-56848775D01*
X100821770Y-56838237D01*
X100793492Y-56824862D01*
X100766662Y-56808781D01*
X100741537Y-56790147D01*
X100718360Y-56769140D01*
X100697353Y-56745963D01*
X100678719Y-56720838D01*
X100662638Y-56694008D01*
X100649263Y-56665730D01*
X100638725Y-56636278D01*
X100631125Y-56605935D01*
X100626535Y-56574993D01*
X100625000Y-56543750D01*
X100625000Y-55906250D01*
X100626535Y-55875007D01*
X100631125Y-55844065D01*
X100638725Y-55813722D01*
X100649263Y-55784270D01*
X100662638Y-55755992D01*
X100678719Y-55729162D01*
X100697353Y-55704037D01*
X100718360Y-55680860D01*
X100741537Y-55659853D01*
X100766662Y-55641219D01*
X100793492Y-55625138D01*
X100821770Y-55611763D01*
X100851222Y-55601225D01*
X100881565Y-55593625D01*
X100912507Y-55589035D01*
X100943750Y-55587500D01*
X101656250Y-55587500D01*
X101687493Y-55589035D01*
X101687493Y-55589035D01*
G37*
D11*
X101300000Y-56225000D03*
G04 #@! TD*
D12*
G04 #@! TO.C,J2*
X96300000Y-48500000D03*
D13*
X98800000Y-48500000D03*
G04 #@! TD*
D14*
G04 #@! TO.C,J1*
X89500000Y-56640000D03*
D15*
X89500000Y-54100000D03*
X89500000Y-51560000D03*
G04 #@! TD*
D14*
G04 #@! TO.C,J3*
X104000000Y-50000000D03*
D15*
X104000000Y-52540000D03*
X104000000Y-55080000D03*
X104000000Y-57620000D03*
G04 #@! TD*
D10*
G04 #@! TO.C,C1*
G36*
X94699993Y-53051535D02*
X94730935Y-53056125D01*
X94761278Y-53063725D01*
X94790730Y-53074263D01*
X94819008Y-53087638D01*
X94845838Y-53103719D01*
X94870963Y-53122353D01*
X94894140Y-53143360D01*
X94915147Y-53166537D01*
X94933781Y-53191662D01*
X94949862Y-53218492D01*
X94963237Y-53246770D01*
X94973775Y-53276222D01*
X94981375Y-53306565D01*
X94985965Y-53337507D01*
X94987500Y-53368750D01*
X94987500Y-54006250D01*
X94985965Y-54037493D01*
X94981375Y-54068435D01*
X94973775Y-54098778D01*
X94963237Y-54128230D01*
X94949862Y-54156508D01*
X94933781Y-54183338D01*
X94915147Y-54208463D01*
X94894140Y-54231640D01*
X94870963Y-54252647D01*
X94845838Y-54271281D01*
X94819008Y-54287362D01*
X94790730Y-54300737D01*
X94761278Y-54311275D01*
X94730935Y-54318875D01*
X94699993Y-54323465D01*
X94668750Y-54325000D01*
X93956250Y-54325000D01*
X93925007Y-54323465D01*
X93894065Y-54318875D01*
X93863722Y-54311275D01*
X93834270Y-54300737D01*
X93805992Y-54287362D01*
X93779162Y-54271281D01*
X93754037Y-54252647D01*
X93730860Y-54231640D01*
X93709853Y-54208463D01*
X93691219Y-54183338D01*
X93675138Y-54156508D01*
X93661763Y-54128230D01*
X93651225Y-54098778D01*
X93643625Y-54068435D01*
X93639035Y-54037493D01*
X93637500Y-54006250D01*
X93637500Y-53368750D01*
X93639035Y-53337507D01*
X93643625Y-53306565D01*
X93651225Y-53276222D01*
X93661763Y-53246770D01*
X93675138Y-53218492D01*
X93691219Y-53191662D01*
X93709853Y-53166537D01*
X93730860Y-53143360D01*
X93754037Y-53122353D01*
X93779162Y-53103719D01*
X93805992Y-53087638D01*
X93834270Y-53074263D01*
X93863722Y-53063725D01*
X93894065Y-53056125D01*
X93925007Y-53051535D01*
X93956250Y-53050000D01*
X94668750Y-53050000D01*
X94699993Y-53051535D01*
X94699993Y-53051535D01*
G37*
D11*
X94312500Y-53687500D03*
D10*
G36*
X94699993Y-51476535D02*
X94730935Y-51481125D01*
X94761278Y-51488725D01*
X94790730Y-51499263D01*
X94819008Y-51512638D01*
X94845838Y-51528719D01*
X94870963Y-51547353D01*
X94894140Y-51568360D01*
X94915147Y-51591537D01*
X94933781Y-51616662D01*
X94949862Y-51643492D01*
X94963237Y-51671770D01*
X94973775Y-51701222D01*
X94981375Y-51731565D01*
X94985965Y-51762507D01*
X94987500Y-51793750D01*
X94987500Y-52431250D01*
X94985965Y-52462493D01*
X94981375Y-52493435D01*
X94973775Y-52523778D01*
X94963237Y-52553230D01*
X94949862Y-52581508D01*
X94933781Y-52608338D01*
X94915147Y-52633463D01*
X94894140Y-52656640D01*
X94870963Y-52677647D01*
X94845838Y-52696281D01*
X94819008Y-52712362D01*
X94790730Y-52725737D01*
X94761278Y-52736275D01*
X94730935Y-52743875D01*
X94699993Y-52748465D01*
X94668750Y-52750000D01*
X93956250Y-52750000D01*
X93925007Y-52748465D01*
X93894065Y-52743875D01*
X93863722Y-52736275D01*
X93834270Y-52725737D01*
X93805992Y-52712362D01*
X93779162Y-52696281D01*
X93754037Y-52677647D01*
X93730860Y-52656640D01*
X93709853Y-52633463D01*
X93691219Y-52608338D01*
X93675138Y-52581508D01*
X93661763Y-52553230D01*
X93651225Y-52523778D01*
X93643625Y-52493435D01*
X93639035Y-52462493D01*
X93637500Y-52431250D01*
X93637500Y-51793750D01*
X93639035Y-51762507D01*
X93643625Y-51731565D01*
X93651225Y-51701222D01*
X93661763Y-51671770D01*
X93675138Y-51643492D01*
X93691219Y-51616662D01*
X93709853Y-51591537D01*
X93730860Y-51568360D01*
X93754037Y-51547353D01*
X93779162Y-51528719D01*
X93805992Y-51512638D01*
X93834270Y-51499263D01*
X93863722Y-51488725D01*
X93894065Y-51481125D01*
X93925007Y-51476535D01*
X93956250Y-51475000D01*
X94668750Y-51475000D01*
X94699993Y-51476535D01*
X94699993Y-51476535D01*
G37*
D11*
X94312500Y-52112500D03*
G04 #@! TD*
D16*
G04 #@! TO.C,D1*
X94250000Y-55250000D03*
X94250000Y-57750000D03*
G04 #@! TD*
D17*
G04 #@! TO.C,Q2*
X97100000Y-52100000D03*
X98050000Y-54100000D03*
X96150000Y-54100000D03*
G04 #@! TD*
G04 #@! TO.C,Q1*
X98050000Y-55800000D03*
X96150000Y-55800000D03*
X97100000Y-57800000D03*
G04 #@! TD*
D10*
G04 #@! TO.C,R2*
G36*
X100087493Y-55589035D02*
X100118435Y-55593625D01*
X100148778Y-55601225D01*
X100178230Y-55611763D01*
X100206508Y-55625138D01*
X100233338Y-55641219D01*
X100258463Y-55659853D01*
X100281640Y-55680860D01*
X100302647Y-55704037D01*
X100321281Y-55729162D01*
X100337362Y-55755992D01*
X100350737Y-55784270D01*
X100361275Y-55813722D01*
X100368875Y-55844065D01*
X100373465Y-55875007D01*
X100375000Y-55906250D01*
X100375000Y-56543750D01*
X100373465Y-56574993D01*
X100368875Y-56605935D01*
X100361275Y-56636278D01*
X100350737Y-56665730D01*
X100337362Y-56694008D01*
X100321281Y-56720838D01*
X100302647Y-56745963D01*
X100281640Y-56769140D01*
X100258463Y-56790147D01*
X100233338Y-56808781D01*
X100206508Y-56824862D01*
X100178230Y-56838237D01*
X100148778Y-56848775D01*
X100118435Y-56856375D01*
X100087493Y-56860965D01*
X100056250Y-56862500D01*
X99343750Y-56862500D01*
X99312507Y-56860965D01*
X99281565Y-56856375D01*
X99251222Y-56848775D01*
X99221770Y-56838237D01*
X99193492Y-56824862D01*
X99166662Y-56808781D01*
X99141537Y-56790147D01*
X99118360Y-56769140D01*
X99097353Y-56745963D01*
X99078719Y-56720838D01*
X99062638Y-56694008D01*
X99049263Y-56665730D01*
X99038725Y-56636278D01*
X99031125Y-56605935D01*
X99026535Y-56574993D01*
X99025000Y-56543750D01*
X99025000Y-55906250D01*
X99026535Y-55875007D01*
X99031125Y-55844065D01*
X99038725Y-55813722D01*
X99049263Y-55784270D01*
X99062638Y-55755992D01*
X99078719Y-55729162D01*
X99097353Y-55704037D01*
X99118360Y-55680860D01*
X99141537Y-55659853D01*
X99166662Y-55641219D01*
X99193492Y-55625138D01*
X99221770Y-55611763D01*
X99251222Y-55601225D01*
X99281565Y-55593625D01*
X99312507Y-55589035D01*
X99343750Y-55587500D01*
X100056250Y-55587500D01*
X100087493Y-55589035D01*
X100087493Y-55589035D01*
G37*
D11*
X99700000Y-56225000D03*
D10*
G36*
X100087493Y-57164035D02*
X100118435Y-57168625D01*
X100148778Y-57176225D01*
X100178230Y-57186763D01*
X100206508Y-57200138D01*
X100233338Y-57216219D01*
X100258463Y-57234853D01*
X100281640Y-57255860D01*
X100302647Y-57279037D01*
X100321281Y-57304162D01*
X100337362Y-57330992D01*
X100350737Y-57359270D01*
X100361275Y-57388722D01*
X100368875Y-57419065D01*
X100373465Y-57450007D01*
X100375000Y-57481250D01*
X100375000Y-58118750D01*
X100373465Y-58149993D01*
X100368875Y-58180935D01*
X100361275Y-58211278D01*
X100350737Y-58240730D01*
X100337362Y-58269008D01*
X100321281Y-58295838D01*
X100302647Y-58320963D01*
X100281640Y-58344140D01*
X100258463Y-58365147D01*
X100233338Y-58383781D01*
X100206508Y-58399862D01*
X100178230Y-58413237D01*
X100148778Y-58423775D01*
X100118435Y-58431375D01*
X100087493Y-58435965D01*
X100056250Y-58437500D01*
X99343750Y-58437500D01*
X99312507Y-58435965D01*
X99281565Y-58431375D01*
X99251222Y-58423775D01*
X99221770Y-58413237D01*
X99193492Y-58399862D01*
X99166662Y-58383781D01*
X99141537Y-58365147D01*
X99118360Y-58344140D01*
X99097353Y-58320963D01*
X99078719Y-58295838D01*
X99062638Y-58269008D01*
X99049263Y-58240730D01*
X99038725Y-58211278D01*
X99031125Y-58180935D01*
X99026535Y-58149993D01*
X99025000Y-58118750D01*
X99025000Y-57481250D01*
X99026535Y-57450007D01*
X99031125Y-57419065D01*
X99038725Y-57388722D01*
X99049263Y-57359270D01*
X99062638Y-57330992D01*
X99078719Y-57304162D01*
X99097353Y-57279037D01*
X99118360Y-57255860D01*
X99141537Y-57234853D01*
X99166662Y-57216219D01*
X99193492Y-57200138D01*
X99221770Y-57186763D01*
X99251222Y-57176225D01*
X99281565Y-57168625D01*
X99312507Y-57164035D01*
X99343750Y-57162500D01*
X100056250Y-57162500D01*
X100087493Y-57164035D01*
X100087493Y-57164035D01*
G37*
D11*
X99700000Y-57800000D03*
G04 #@! TD*
D10*
G04 #@! TO.C,R1*
G36*
X92787493Y-54439035D02*
X92818435Y-54443625D01*
X92848778Y-54451225D01*
X92878230Y-54461763D01*
X92906508Y-54475138D01*
X92933338Y-54491219D01*
X92958463Y-54509853D01*
X92981640Y-54530860D01*
X93002647Y-54554037D01*
X93021281Y-54579162D01*
X93037362Y-54605992D01*
X93050737Y-54634270D01*
X93061275Y-54663722D01*
X93068875Y-54694065D01*
X93073465Y-54725007D01*
X93075000Y-54756250D01*
X93075000Y-55393750D01*
X93073465Y-55424993D01*
X93068875Y-55455935D01*
X93061275Y-55486278D01*
X93050737Y-55515730D01*
X93037362Y-55544008D01*
X93021281Y-55570838D01*
X93002647Y-55595963D01*
X92981640Y-55619140D01*
X92958463Y-55640147D01*
X92933338Y-55658781D01*
X92906508Y-55674862D01*
X92878230Y-55688237D01*
X92848778Y-55698775D01*
X92818435Y-55706375D01*
X92787493Y-55710965D01*
X92756250Y-55712500D01*
X92043750Y-55712500D01*
X92012507Y-55710965D01*
X91981565Y-55706375D01*
X91951222Y-55698775D01*
X91921770Y-55688237D01*
X91893492Y-55674862D01*
X91866662Y-55658781D01*
X91841537Y-55640147D01*
X91818360Y-55619140D01*
X91797353Y-55595963D01*
X91778719Y-55570838D01*
X91762638Y-55544008D01*
X91749263Y-55515730D01*
X91738725Y-55486278D01*
X91731125Y-55455935D01*
X91726535Y-55424993D01*
X91725000Y-55393750D01*
X91725000Y-54756250D01*
X91726535Y-54725007D01*
X91731125Y-54694065D01*
X91738725Y-54663722D01*
X91749263Y-54634270D01*
X91762638Y-54605992D01*
X91778719Y-54579162D01*
X91797353Y-54554037D01*
X91818360Y-54530860D01*
X91841537Y-54509853D01*
X91866662Y-54491219D01*
X91893492Y-54475138D01*
X91921770Y-54461763D01*
X91951222Y-54451225D01*
X91981565Y-54443625D01*
X92012507Y-54439035D01*
X92043750Y-54437500D01*
X92756250Y-54437500D01*
X92787493Y-54439035D01*
X92787493Y-54439035D01*
G37*
D11*
X92400000Y-55075000D03*
D10*
G36*
X92787493Y-52864035D02*
X92818435Y-52868625D01*
X92848778Y-52876225D01*
X92878230Y-52886763D01*
X92906508Y-52900138D01*
X92933338Y-52916219D01*
X92958463Y-52934853D01*
X92981640Y-52955860D01*
X93002647Y-52979037D01*
X93021281Y-53004162D01*
X93037362Y-53030992D01*
X93050737Y-53059270D01*
X93061275Y-53088722D01*
X93068875Y-53119065D01*
X93073465Y-53150007D01*
X93075000Y-53181250D01*
X93075000Y-53818750D01*
X93073465Y-53849993D01*
X93068875Y-53880935D01*
X93061275Y-53911278D01*
X93050737Y-53940730D01*
X93037362Y-53969008D01*
X93021281Y-53995838D01*
X93002647Y-54020963D01*
X92981640Y-54044140D01*
X92958463Y-54065147D01*
X92933338Y-54083781D01*
X92906508Y-54099862D01*
X92878230Y-54113237D01*
X92848778Y-54123775D01*
X92818435Y-54131375D01*
X92787493Y-54135965D01*
X92756250Y-54137500D01*
X92043750Y-54137500D01*
X92012507Y-54135965D01*
X91981565Y-54131375D01*
X91951222Y-54123775D01*
X91921770Y-54113237D01*
X91893492Y-54099862D01*
X91866662Y-54083781D01*
X91841537Y-54065147D01*
X91818360Y-54044140D01*
X91797353Y-54020963D01*
X91778719Y-53995838D01*
X91762638Y-53969008D01*
X91749263Y-53940730D01*
X91738725Y-53911278D01*
X91731125Y-53880935D01*
X91726535Y-53849993D01*
X91725000Y-53818750D01*
X91725000Y-53181250D01*
X91726535Y-53150007D01*
X91731125Y-53119065D01*
X91738725Y-53088722D01*
X91749263Y-53059270D01*
X91762638Y-53030992D01*
X91778719Y-53004162D01*
X91797353Y-52979037D01*
X91818360Y-52955860D01*
X91841537Y-52934853D01*
X91866662Y-52916219D01*
X91893492Y-52900138D01*
X91921770Y-52886763D01*
X91951222Y-52876225D01*
X91981565Y-52868625D01*
X92012507Y-52864035D01*
X92043750Y-52862500D01*
X92756250Y-52862500D01*
X92787493Y-52864035D01*
X92787493Y-52864035D01*
G37*
D11*
X92400000Y-53500000D03*
G04 #@! TD*
M02*
