G04 #@! TF.GenerationSoftware,KiCad,Pcbnew,6.0.0-rc1-unknown-6d2dfbb~65~ubuntu18.04.1*
G04 #@! TF.CreationDate,2018-07-21T00:59:14-07:00*
G04 #@! TF.ProjectId,ZProbe,5A50726F62652E6B696361645F706362,rev?*
G04 #@! TF.SameCoordinates,Original*
G04 #@! TF.FileFunction,Copper,L2,Bot,Signal*
G04 #@! TF.FilePolarity,Positive*
%FSLAX46Y46*%
G04 Gerber Fmt 4.6, Leading zero omitted, Abs format (unit mm)*
G04 Created by KiCad (PCBNEW 6.0.0-rc1-unknown-6d2dfbb~65~ubuntu18.04.1) date Sat Jul 21 00:59:14 2018*
%MOMM*%
%LPD*%
G01*
G04 APERTURE LIST*
G04 #@! TA.AperFunction,ComponentPad*
%ADD10R,1.700000X2.000000*%
G04 #@! TD*
G04 #@! TA.AperFunction,ComponentPad*
%ADD11O,1.700000X2.000000*%
G04 #@! TD*
G04 #@! TA.AperFunction,ComponentPad*
%ADD12R,1.700000X1.700000*%
G04 #@! TD*
G04 #@! TA.AperFunction,ComponentPad*
%ADD13O,1.700000X1.700000*%
G04 #@! TD*
G04 #@! TA.AperFunction,ViaPad*
%ADD14C,0.800000*%
G04 #@! TD*
G04 #@! TA.AperFunction,Conductor*
%ADD15C,0.254000*%
G04 #@! TD*
G04 APERTURE END LIST*
D10*
G04 #@! TO.P,J2,1*
G04 #@! TO.N,Net-(J1-Pad3)*
X96300000Y-48500000D03*
D11*
G04 #@! TO.P,J2,2*
G04 #@! TO.N,GND*
X98800000Y-48500000D03*
G04 #@! TD*
D12*
G04 #@! TO.P,J1,1*
G04 #@! TO.N,GND*
X89500000Y-56640000D03*
D13*
G04 #@! TO.P,J1,2*
G04 #@! TO.N,Net-(J1-Pad2)*
X89500000Y-54100000D03*
G04 #@! TO.P,J1,3*
G04 #@! TO.N,Net-(J1-Pad3)*
X89500000Y-51560000D03*
G04 #@! TD*
D12*
G04 #@! TO.P,J3,1*
G04 #@! TO.N,Net-(J3-Pad1)*
X104000000Y-50000000D03*
D13*
G04 #@! TO.P,J3,2*
G04 #@! TO.N,GND*
X104000000Y-52540000D03*
G04 #@! TO.P,J3,3*
G04 #@! TO.N,Net-(J3-Pad3)*
X104000000Y-55080000D03*
G04 #@! TO.P,J3,4*
G04 #@! TO.N,+5V*
X104000000Y-57620000D03*
G04 #@! TD*
D14*
G04 #@! TO.N,GND*
X99000000Y-52875000D03*
X92775000Y-50475000D03*
G04 #@! TD*
D15*
G04 #@! TO.N,GND*
G36*
X107840001Y-58840000D02*
X104847069Y-58840000D01*
X105070625Y-58690625D01*
X105398839Y-58199418D01*
X105514092Y-57620000D01*
X105398839Y-57040582D01*
X105070625Y-56549375D01*
X104772239Y-56350000D01*
X105070625Y-56150625D01*
X105398839Y-55659418D01*
X105514092Y-55080000D01*
X105398839Y-54500582D01*
X105070625Y-54009375D01*
X104751522Y-53796157D01*
X104881358Y-53735183D01*
X105271645Y-53306924D01*
X105441476Y-52896890D01*
X105320155Y-52667000D01*
X104127000Y-52667000D01*
X104127000Y-52687000D01*
X103873000Y-52687000D01*
X103873000Y-52667000D01*
X102679845Y-52667000D01*
X102558524Y-52896890D01*
X102728355Y-53306924D01*
X103118642Y-53735183D01*
X103248478Y-53796157D01*
X102929375Y-54009375D01*
X102601161Y-54500582D01*
X102485908Y-55080000D01*
X102601161Y-55659418D01*
X102929375Y-56150625D01*
X103227761Y-56350000D01*
X102929375Y-56549375D01*
X102601161Y-57040582D01*
X102485908Y-57620000D01*
X102601161Y-58199418D01*
X102929375Y-58690625D01*
X103152931Y-58840000D01*
X85660000Y-58840000D01*
X85660000Y-56925750D01*
X88015000Y-56925750D01*
X88015000Y-57616310D01*
X88111673Y-57849699D01*
X88290302Y-58028327D01*
X88523691Y-58125000D01*
X89214250Y-58125000D01*
X89373000Y-57966250D01*
X89373000Y-56767000D01*
X89627000Y-56767000D01*
X89627000Y-57966250D01*
X89785750Y-58125000D01*
X90476309Y-58125000D01*
X90709698Y-58028327D01*
X90888327Y-57849699D01*
X90985000Y-57616310D01*
X90985000Y-56925750D01*
X90826250Y-56767000D01*
X89627000Y-56767000D01*
X89373000Y-56767000D01*
X88173750Y-56767000D01*
X88015000Y-56925750D01*
X85660000Y-56925750D01*
X85660000Y-51560000D01*
X87985908Y-51560000D01*
X88101161Y-52139418D01*
X88429375Y-52630625D01*
X88727761Y-52830000D01*
X88429375Y-53029375D01*
X88101161Y-53520582D01*
X87985908Y-54100000D01*
X88101161Y-54679418D01*
X88429375Y-55170625D01*
X88451033Y-55185096D01*
X88290302Y-55251673D01*
X88111673Y-55430301D01*
X88015000Y-55663690D01*
X88015000Y-56354250D01*
X88173750Y-56513000D01*
X89373000Y-56513000D01*
X89373000Y-56493000D01*
X89627000Y-56493000D01*
X89627000Y-56513000D01*
X90826250Y-56513000D01*
X90985000Y-56354250D01*
X90985000Y-55663690D01*
X90888327Y-55430301D01*
X90709698Y-55251673D01*
X90548967Y-55185096D01*
X90570625Y-55170625D01*
X90898839Y-54679418D01*
X91014092Y-54100000D01*
X90898839Y-53520582D01*
X90570625Y-53029375D01*
X90272239Y-52830000D01*
X90570625Y-52630625D01*
X90898839Y-52139418D01*
X91014092Y-51560000D01*
X90898839Y-50980582D01*
X90570625Y-50489375D01*
X90079418Y-50161161D01*
X89646256Y-50075000D01*
X89353744Y-50075000D01*
X88920582Y-50161161D01*
X88429375Y-50489375D01*
X88101161Y-50980582D01*
X87985908Y-51560000D01*
X85660000Y-51560000D01*
X85660000Y-47500000D01*
X94802560Y-47500000D01*
X94802560Y-49500000D01*
X94851843Y-49747765D01*
X94992191Y-49957809D01*
X95202235Y-50098157D01*
X95450000Y-50147440D01*
X97150000Y-50147440D01*
X97397765Y-50098157D01*
X97607809Y-49957809D01*
X97748157Y-49747765D01*
X97762388Y-49676218D01*
X97907955Y-49838664D01*
X98430740Y-50089553D01*
X98443110Y-50091476D01*
X98673000Y-49970155D01*
X98673000Y-48627000D01*
X98927000Y-48627000D01*
X98927000Y-49970155D01*
X99156890Y-50091476D01*
X99169260Y-50089553D01*
X99692045Y-49838664D01*
X100079024Y-49406812D01*
X100169276Y-49150000D01*
X102502560Y-49150000D01*
X102502560Y-50850000D01*
X102551843Y-51097765D01*
X102692191Y-51307809D01*
X102902235Y-51448157D01*
X103005708Y-51468739D01*
X102728355Y-51773076D01*
X102558524Y-52183110D01*
X102679845Y-52413000D01*
X103873000Y-52413000D01*
X103873000Y-52393000D01*
X104127000Y-52393000D01*
X104127000Y-52413000D01*
X105320155Y-52413000D01*
X105441476Y-52183110D01*
X105271645Y-51773076D01*
X104994292Y-51468739D01*
X105097765Y-51448157D01*
X105307809Y-51307809D01*
X105448157Y-51097765D01*
X105497440Y-50850000D01*
X105497440Y-49150000D01*
X105448157Y-48902235D01*
X105307809Y-48692191D01*
X105097765Y-48551843D01*
X104850000Y-48502560D01*
X103150000Y-48502560D01*
X102902235Y-48551843D01*
X102692191Y-48692191D01*
X102551843Y-48902235D01*
X102502560Y-49150000D01*
X100169276Y-49150000D01*
X100271284Y-48859742D01*
X100127231Y-48627000D01*
X98927000Y-48627000D01*
X98673000Y-48627000D01*
X98653000Y-48627000D01*
X98653000Y-48373000D01*
X98673000Y-48373000D01*
X98673000Y-47029845D01*
X98927000Y-47029845D01*
X98927000Y-48373000D01*
X100127231Y-48373000D01*
X100271284Y-48140258D01*
X100079024Y-47593188D01*
X99692045Y-47161336D01*
X99169260Y-46910447D01*
X99156890Y-46908524D01*
X98927000Y-47029845D01*
X98673000Y-47029845D01*
X98443110Y-46908524D01*
X98430740Y-46910447D01*
X97907955Y-47161336D01*
X97762388Y-47323782D01*
X97748157Y-47252235D01*
X97607809Y-47042191D01*
X97397765Y-46901843D01*
X97150000Y-46852560D01*
X95450000Y-46852560D01*
X95202235Y-46901843D01*
X94992191Y-47042191D01*
X94851843Y-47252235D01*
X94802560Y-47500000D01*
X85660000Y-47500000D01*
X85660000Y-46660000D01*
X107840000Y-46660000D01*
X107840001Y-58840000D01*
X107840001Y-58840000D01*
G37*
X107840001Y-58840000D02*
X104847069Y-58840000D01*
X105070625Y-58690625D01*
X105398839Y-58199418D01*
X105514092Y-57620000D01*
X105398839Y-57040582D01*
X105070625Y-56549375D01*
X104772239Y-56350000D01*
X105070625Y-56150625D01*
X105398839Y-55659418D01*
X105514092Y-55080000D01*
X105398839Y-54500582D01*
X105070625Y-54009375D01*
X104751522Y-53796157D01*
X104881358Y-53735183D01*
X105271645Y-53306924D01*
X105441476Y-52896890D01*
X105320155Y-52667000D01*
X104127000Y-52667000D01*
X104127000Y-52687000D01*
X103873000Y-52687000D01*
X103873000Y-52667000D01*
X102679845Y-52667000D01*
X102558524Y-52896890D01*
X102728355Y-53306924D01*
X103118642Y-53735183D01*
X103248478Y-53796157D01*
X102929375Y-54009375D01*
X102601161Y-54500582D01*
X102485908Y-55080000D01*
X102601161Y-55659418D01*
X102929375Y-56150625D01*
X103227761Y-56350000D01*
X102929375Y-56549375D01*
X102601161Y-57040582D01*
X102485908Y-57620000D01*
X102601161Y-58199418D01*
X102929375Y-58690625D01*
X103152931Y-58840000D01*
X85660000Y-58840000D01*
X85660000Y-56925750D01*
X88015000Y-56925750D01*
X88015000Y-57616310D01*
X88111673Y-57849699D01*
X88290302Y-58028327D01*
X88523691Y-58125000D01*
X89214250Y-58125000D01*
X89373000Y-57966250D01*
X89373000Y-56767000D01*
X89627000Y-56767000D01*
X89627000Y-57966250D01*
X89785750Y-58125000D01*
X90476309Y-58125000D01*
X90709698Y-58028327D01*
X90888327Y-57849699D01*
X90985000Y-57616310D01*
X90985000Y-56925750D01*
X90826250Y-56767000D01*
X89627000Y-56767000D01*
X89373000Y-56767000D01*
X88173750Y-56767000D01*
X88015000Y-56925750D01*
X85660000Y-56925750D01*
X85660000Y-51560000D01*
X87985908Y-51560000D01*
X88101161Y-52139418D01*
X88429375Y-52630625D01*
X88727761Y-52830000D01*
X88429375Y-53029375D01*
X88101161Y-53520582D01*
X87985908Y-54100000D01*
X88101161Y-54679418D01*
X88429375Y-55170625D01*
X88451033Y-55185096D01*
X88290302Y-55251673D01*
X88111673Y-55430301D01*
X88015000Y-55663690D01*
X88015000Y-56354250D01*
X88173750Y-56513000D01*
X89373000Y-56513000D01*
X89373000Y-56493000D01*
X89627000Y-56493000D01*
X89627000Y-56513000D01*
X90826250Y-56513000D01*
X90985000Y-56354250D01*
X90985000Y-55663690D01*
X90888327Y-55430301D01*
X90709698Y-55251673D01*
X90548967Y-55185096D01*
X90570625Y-55170625D01*
X90898839Y-54679418D01*
X91014092Y-54100000D01*
X90898839Y-53520582D01*
X90570625Y-53029375D01*
X90272239Y-52830000D01*
X90570625Y-52630625D01*
X90898839Y-52139418D01*
X91014092Y-51560000D01*
X90898839Y-50980582D01*
X90570625Y-50489375D01*
X90079418Y-50161161D01*
X89646256Y-50075000D01*
X89353744Y-50075000D01*
X88920582Y-50161161D01*
X88429375Y-50489375D01*
X88101161Y-50980582D01*
X87985908Y-51560000D01*
X85660000Y-51560000D01*
X85660000Y-47500000D01*
X94802560Y-47500000D01*
X94802560Y-49500000D01*
X94851843Y-49747765D01*
X94992191Y-49957809D01*
X95202235Y-50098157D01*
X95450000Y-50147440D01*
X97150000Y-50147440D01*
X97397765Y-50098157D01*
X97607809Y-49957809D01*
X97748157Y-49747765D01*
X97762388Y-49676218D01*
X97907955Y-49838664D01*
X98430740Y-50089553D01*
X98443110Y-50091476D01*
X98673000Y-49970155D01*
X98673000Y-48627000D01*
X98927000Y-48627000D01*
X98927000Y-49970155D01*
X99156890Y-50091476D01*
X99169260Y-50089553D01*
X99692045Y-49838664D01*
X100079024Y-49406812D01*
X100169276Y-49150000D01*
X102502560Y-49150000D01*
X102502560Y-50850000D01*
X102551843Y-51097765D01*
X102692191Y-51307809D01*
X102902235Y-51448157D01*
X103005708Y-51468739D01*
X102728355Y-51773076D01*
X102558524Y-52183110D01*
X102679845Y-52413000D01*
X103873000Y-52413000D01*
X103873000Y-52393000D01*
X104127000Y-52393000D01*
X104127000Y-52413000D01*
X105320155Y-52413000D01*
X105441476Y-52183110D01*
X105271645Y-51773076D01*
X104994292Y-51468739D01*
X105097765Y-51448157D01*
X105307809Y-51307809D01*
X105448157Y-51097765D01*
X105497440Y-50850000D01*
X105497440Y-49150000D01*
X105448157Y-48902235D01*
X105307809Y-48692191D01*
X105097765Y-48551843D01*
X104850000Y-48502560D01*
X103150000Y-48502560D01*
X102902235Y-48551843D01*
X102692191Y-48692191D01*
X102551843Y-48902235D01*
X102502560Y-49150000D01*
X100169276Y-49150000D01*
X100271284Y-48859742D01*
X100127231Y-48627000D01*
X98927000Y-48627000D01*
X98673000Y-48627000D01*
X98653000Y-48627000D01*
X98653000Y-48373000D01*
X98673000Y-48373000D01*
X98673000Y-47029845D01*
X98927000Y-47029845D01*
X98927000Y-48373000D01*
X100127231Y-48373000D01*
X100271284Y-48140258D01*
X100079024Y-47593188D01*
X99692045Y-47161336D01*
X99169260Y-46910447D01*
X99156890Y-46908524D01*
X98927000Y-47029845D01*
X98673000Y-47029845D01*
X98443110Y-46908524D01*
X98430740Y-46910447D01*
X97907955Y-47161336D01*
X97762388Y-47323782D01*
X97748157Y-47252235D01*
X97607809Y-47042191D01*
X97397765Y-46901843D01*
X97150000Y-46852560D01*
X95450000Y-46852560D01*
X95202235Y-46901843D01*
X94992191Y-47042191D01*
X94851843Y-47252235D01*
X94802560Y-47500000D01*
X85660000Y-47500000D01*
X85660000Y-46660000D01*
X107840000Y-46660000D01*
X107840001Y-58840000D01*
G04 #@! TD*
M02*
