G04 #@! TF.GenerationSoftware,KiCad,Pcbnew,6.0.0-rc1-unknown-da35b16~65~ubuntu18.04.1*
G04 #@! TF.CreationDate,2018-07-20T19:33:13-07:00*
G04 #@! TF.ProjectId,ZProbe,5A50726F62652E6B696361645F706362,rev?*
G04 #@! TF.SameCoordinates,Original*
G04 #@! TF.FileFunction,Copper,L1,Top,Signal*
G04 #@! TF.FilePolarity,Positive*
%FSLAX46Y46*%
G04 Gerber Fmt 4.6, Leading zero omitted, Abs format (unit mm)*
G04 Created by KiCad (PCBNEW 6.0.0-rc1-unknown-da35b16~65~ubuntu18.04.1) date Fri Jul 20 19:33:13 2018*
%MOMM*%
%LPD*%
G01*
G04 APERTURE LIST*
G04 #@! TA.AperFunction,Conductor*
%ADD10C,0.100000*%
G04 #@! TD*
G04 #@! TA.AperFunction,SMDPad,CuDef*
%ADD11C,0.875000*%
G04 #@! TD*
G04 #@! TA.AperFunction,ComponentPad*
%ADD12R,1.700000X2.000000*%
G04 #@! TD*
G04 #@! TA.AperFunction,ComponentPad*
%ADD13O,1.700000X2.000000*%
G04 #@! TD*
G04 #@! TA.AperFunction,ComponentPad*
%ADD14R,1.700000X1.700000*%
G04 #@! TD*
G04 #@! TA.AperFunction,ComponentPad*
%ADD15O,1.700000X1.700000*%
G04 #@! TD*
G04 #@! TA.AperFunction,SMDPad,CuDef*
%ADD16R,1.000000X1.000000*%
G04 #@! TD*
G04 #@! TA.AperFunction,SMDPad,CuDef*
%ADD17R,0.800000X0.900000*%
G04 #@! TD*
G04 #@! TA.AperFunction,ViaPad*
%ADD18C,0.800000*%
G04 #@! TD*
G04 #@! TA.AperFunction,Conductor*
%ADD19C,0.508000*%
G04 #@! TD*
G04 #@! TA.AperFunction,Conductor*
%ADD20C,1.270000*%
G04 #@! TD*
G04 #@! TA.AperFunction,Conductor*
%ADD21C,0.254000*%
G04 #@! TD*
G04 APERTURE END LIST*
D10*
G04 #@! TO.N,+5V*
G04 #@! TO.C,C2*
G36*
X101577691Y-57363553D02*
X101598926Y-57366703D01*
X101619750Y-57371919D01*
X101639962Y-57379151D01*
X101659368Y-57388330D01*
X101677781Y-57399366D01*
X101695024Y-57412154D01*
X101710930Y-57426570D01*
X101725346Y-57442476D01*
X101738134Y-57459719D01*
X101749170Y-57478132D01*
X101758349Y-57497538D01*
X101765581Y-57517750D01*
X101770797Y-57538574D01*
X101773947Y-57559809D01*
X101775000Y-57581250D01*
X101775000Y-58018750D01*
X101773947Y-58040191D01*
X101770797Y-58061426D01*
X101765581Y-58082250D01*
X101758349Y-58102462D01*
X101749170Y-58121868D01*
X101738134Y-58140281D01*
X101725346Y-58157524D01*
X101710930Y-58173430D01*
X101695024Y-58187846D01*
X101677781Y-58200634D01*
X101659368Y-58211670D01*
X101639962Y-58220849D01*
X101619750Y-58228081D01*
X101598926Y-58233297D01*
X101577691Y-58236447D01*
X101556250Y-58237500D01*
X101043750Y-58237500D01*
X101022309Y-58236447D01*
X101001074Y-58233297D01*
X100980250Y-58228081D01*
X100960038Y-58220849D01*
X100940632Y-58211670D01*
X100922219Y-58200634D01*
X100904976Y-58187846D01*
X100889070Y-58173430D01*
X100874654Y-58157524D01*
X100861866Y-58140281D01*
X100850830Y-58121868D01*
X100841651Y-58102462D01*
X100834419Y-58082250D01*
X100829203Y-58061426D01*
X100826053Y-58040191D01*
X100825000Y-58018750D01*
X100825000Y-57581250D01*
X100826053Y-57559809D01*
X100829203Y-57538574D01*
X100834419Y-57517750D01*
X100841651Y-57497538D01*
X100850830Y-57478132D01*
X100861866Y-57459719D01*
X100874654Y-57442476D01*
X100889070Y-57426570D01*
X100904976Y-57412154D01*
X100922219Y-57399366D01*
X100940632Y-57388330D01*
X100960038Y-57379151D01*
X100980250Y-57371919D01*
X101001074Y-57366703D01*
X101022309Y-57363553D01*
X101043750Y-57362500D01*
X101556250Y-57362500D01*
X101577691Y-57363553D01*
X101577691Y-57363553D01*
G37*
D11*
G04 #@! TD*
G04 #@! TO.P,C2,1*
G04 #@! TO.N,+5V*
X101300000Y-57800000D03*
D10*
G04 #@! TO.N,GND*
G04 #@! TO.C,C2*
G36*
X101577691Y-55788553D02*
X101598926Y-55791703D01*
X101619750Y-55796919D01*
X101639962Y-55804151D01*
X101659368Y-55813330D01*
X101677781Y-55824366D01*
X101695024Y-55837154D01*
X101710930Y-55851570D01*
X101725346Y-55867476D01*
X101738134Y-55884719D01*
X101749170Y-55903132D01*
X101758349Y-55922538D01*
X101765581Y-55942750D01*
X101770797Y-55963574D01*
X101773947Y-55984809D01*
X101775000Y-56006250D01*
X101775000Y-56443750D01*
X101773947Y-56465191D01*
X101770797Y-56486426D01*
X101765581Y-56507250D01*
X101758349Y-56527462D01*
X101749170Y-56546868D01*
X101738134Y-56565281D01*
X101725346Y-56582524D01*
X101710930Y-56598430D01*
X101695024Y-56612846D01*
X101677781Y-56625634D01*
X101659368Y-56636670D01*
X101639962Y-56645849D01*
X101619750Y-56653081D01*
X101598926Y-56658297D01*
X101577691Y-56661447D01*
X101556250Y-56662500D01*
X101043750Y-56662500D01*
X101022309Y-56661447D01*
X101001074Y-56658297D01*
X100980250Y-56653081D01*
X100960038Y-56645849D01*
X100940632Y-56636670D01*
X100922219Y-56625634D01*
X100904976Y-56612846D01*
X100889070Y-56598430D01*
X100874654Y-56582524D01*
X100861866Y-56565281D01*
X100850830Y-56546868D01*
X100841651Y-56527462D01*
X100834419Y-56507250D01*
X100829203Y-56486426D01*
X100826053Y-56465191D01*
X100825000Y-56443750D01*
X100825000Y-56006250D01*
X100826053Y-55984809D01*
X100829203Y-55963574D01*
X100834419Y-55942750D01*
X100841651Y-55922538D01*
X100850830Y-55903132D01*
X100861866Y-55884719D01*
X100874654Y-55867476D01*
X100889070Y-55851570D01*
X100904976Y-55837154D01*
X100922219Y-55824366D01*
X100940632Y-55813330D01*
X100960038Y-55804151D01*
X100980250Y-55796919D01*
X101001074Y-55791703D01*
X101022309Y-55788553D01*
X101043750Y-55787500D01*
X101556250Y-55787500D01*
X101577691Y-55788553D01*
X101577691Y-55788553D01*
G37*
D11*
G04 #@! TD*
G04 #@! TO.P,C2,2*
G04 #@! TO.N,GND*
X101300000Y-56225000D03*
D12*
G04 #@! TO.P,J2,1*
G04 #@! TO.N,Net-(J1-Pad3)*
X96300000Y-48500000D03*
D13*
G04 #@! TO.P,J2,2*
G04 #@! TO.N,GND*
X98800000Y-48500000D03*
G04 #@! TD*
D14*
G04 #@! TO.P,J1,1*
G04 #@! TO.N,GND*
X89500000Y-56640000D03*
D15*
G04 #@! TO.P,J1,2*
G04 #@! TO.N,Net-(J1-Pad2)*
X89500000Y-54100000D03*
G04 #@! TO.P,J1,3*
G04 #@! TO.N,Net-(J1-Pad3)*
X89500000Y-51560000D03*
G04 #@! TD*
D14*
G04 #@! TO.P,J3,1*
G04 #@! TO.N,Net-(J3-Pad1)*
X104000000Y-50000000D03*
D15*
G04 #@! TO.P,J3,2*
G04 #@! TO.N,GND*
X104000000Y-52540000D03*
G04 #@! TO.P,J3,3*
G04 #@! TO.N,Net-(J3-Pad3)*
X104000000Y-55080000D03*
G04 #@! TO.P,J3,4*
G04 #@! TO.N,+5V*
X104000000Y-57620000D03*
G04 #@! TD*
D10*
G04 #@! TO.N,Net-(C1-Pad1)*
G04 #@! TO.C,C1*
G36*
X94590191Y-53251053D02*
X94611426Y-53254203D01*
X94632250Y-53259419D01*
X94652462Y-53266651D01*
X94671868Y-53275830D01*
X94690281Y-53286866D01*
X94707524Y-53299654D01*
X94723430Y-53314070D01*
X94737846Y-53329976D01*
X94750634Y-53347219D01*
X94761670Y-53365632D01*
X94770849Y-53385038D01*
X94778081Y-53405250D01*
X94783297Y-53426074D01*
X94786447Y-53447309D01*
X94787500Y-53468750D01*
X94787500Y-53906250D01*
X94786447Y-53927691D01*
X94783297Y-53948926D01*
X94778081Y-53969750D01*
X94770849Y-53989962D01*
X94761670Y-54009368D01*
X94750634Y-54027781D01*
X94737846Y-54045024D01*
X94723430Y-54060930D01*
X94707524Y-54075346D01*
X94690281Y-54088134D01*
X94671868Y-54099170D01*
X94652462Y-54108349D01*
X94632250Y-54115581D01*
X94611426Y-54120797D01*
X94590191Y-54123947D01*
X94568750Y-54125000D01*
X94056250Y-54125000D01*
X94034809Y-54123947D01*
X94013574Y-54120797D01*
X93992750Y-54115581D01*
X93972538Y-54108349D01*
X93953132Y-54099170D01*
X93934719Y-54088134D01*
X93917476Y-54075346D01*
X93901570Y-54060930D01*
X93887154Y-54045024D01*
X93874366Y-54027781D01*
X93863330Y-54009368D01*
X93854151Y-53989962D01*
X93846919Y-53969750D01*
X93841703Y-53948926D01*
X93838553Y-53927691D01*
X93837500Y-53906250D01*
X93837500Y-53468750D01*
X93838553Y-53447309D01*
X93841703Y-53426074D01*
X93846919Y-53405250D01*
X93854151Y-53385038D01*
X93863330Y-53365632D01*
X93874366Y-53347219D01*
X93887154Y-53329976D01*
X93901570Y-53314070D01*
X93917476Y-53299654D01*
X93934719Y-53286866D01*
X93953132Y-53275830D01*
X93972538Y-53266651D01*
X93992750Y-53259419D01*
X94013574Y-53254203D01*
X94034809Y-53251053D01*
X94056250Y-53250000D01*
X94568750Y-53250000D01*
X94590191Y-53251053D01*
X94590191Y-53251053D01*
G37*
D11*
G04 #@! TD*
G04 #@! TO.P,C1,1*
G04 #@! TO.N,Net-(C1-Pad1)*
X94312500Y-53687500D03*
D10*
G04 #@! TO.N,GND*
G04 #@! TO.C,C1*
G36*
X94590191Y-51676053D02*
X94611426Y-51679203D01*
X94632250Y-51684419D01*
X94652462Y-51691651D01*
X94671868Y-51700830D01*
X94690281Y-51711866D01*
X94707524Y-51724654D01*
X94723430Y-51739070D01*
X94737846Y-51754976D01*
X94750634Y-51772219D01*
X94761670Y-51790632D01*
X94770849Y-51810038D01*
X94778081Y-51830250D01*
X94783297Y-51851074D01*
X94786447Y-51872309D01*
X94787500Y-51893750D01*
X94787500Y-52331250D01*
X94786447Y-52352691D01*
X94783297Y-52373926D01*
X94778081Y-52394750D01*
X94770849Y-52414962D01*
X94761670Y-52434368D01*
X94750634Y-52452781D01*
X94737846Y-52470024D01*
X94723430Y-52485930D01*
X94707524Y-52500346D01*
X94690281Y-52513134D01*
X94671868Y-52524170D01*
X94652462Y-52533349D01*
X94632250Y-52540581D01*
X94611426Y-52545797D01*
X94590191Y-52548947D01*
X94568750Y-52550000D01*
X94056250Y-52550000D01*
X94034809Y-52548947D01*
X94013574Y-52545797D01*
X93992750Y-52540581D01*
X93972538Y-52533349D01*
X93953132Y-52524170D01*
X93934719Y-52513134D01*
X93917476Y-52500346D01*
X93901570Y-52485930D01*
X93887154Y-52470024D01*
X93874366Y-52452781D01*
X93863330Y-52434368D01*
X93854151Y-52414962D01*
X93846919Y-52394750D01*
X93841703Y-52373926D01*
X93838553Y-52352691D01*
X93837500Y-52331250D01*
X93837500Y-51893750D01*
X93838553Y-51872309D01*
X93841703Y-51851074D01*
X93846919Y-51830250D01*
X93854151Y-51810038D01*
X93863330Y-51790632D01*
X93874366Y-51772219D01*
X93887154Y-51754976D01*
X93901570Y-51739070D01*
X93917476Y-51724654D01*
X93934719Y-51711866D01*
X93953132Y-51700830D01*
X93972538Y-51691651D01*
X93992750Y-51684419D01*
X94013574Y-51679203D01*
X94034809Y-51676053D01*
X94056250Y-51675000D01*
X94568750Y-51675000D01*
X94590191Y-51676053D01*
X94590191Y-51676053D01*
G37*
D11*
G04 #@! TD*
G04 #@! TO.P,C1,2*
G04 #@! TO.N,GND*
X94312500Y-52112500D03*
D16*
G04 #@! TO.P,D1,1*
G04 #@! TO.N,Net-(C1-Pad1)*
X94250000Y-55250000D03*
G04 #@! TO.P,D1,2*
G04 #@! TO.N,Net-(D1-Pad2)*
X94250000Y-57750000D03*
G04 #@! TD*
D17*
G04 #@! TO.P,Q2,3*
G04 #@! TO.N,Net-(J3-Pad1)*
X97100000Y-52100000D03*
G04 #@! TO.P,Q2,2*
G04 #@! TO.N,GND*
X98050000Y-54100000D03*
G04 #@! TO.P,Q2,1*
G04 #@! TO.N,Net-(Q1-Pad2)*
X96150000Y-54100000D03*
G04 #@! TD*
G04 #@! TO.P,Q1,1*
G04 #@! TO.N,Net-(D1-Pad2)*
X98050000Y-55800000D03*
G04 #@! TO.P,Q1,2*
G04 #@! TO.N,Net-(Q1-Pad2)*
X96150000Y-55800000D03*
G04 #@! TO.P,Q1,3*
G04 #@! TO.N,+5V*
X97100000Y-57800000D03*
G04 #@! TD*
D10*
G04 #@! TO.N,Net-(J3-Pad1)*
G04 #@! TO.C,R2*
G36*
X99977691Y-55788553D02*
X99998926Y-55791703D01*
X100019750Y-55796919D01*
X100039962Y-55804151D01*
X100059368Y-55813330D01*
X100077781Y-55824366D01*
X100095024Y-55837154D01*
X100110930Y-55851570D01*
X100125346Y-55867476D01*
X100138134Y-55884719D01*
X100149170Y-55903132D01*
X100158349Y-55922538D01*
X100165581Y-55942750D01*
X100170797Y-55963574D01*
X100173947Y-55984809D01*
X100175000Y-56006250D01*
X100175000Y-56443750D01*
X100173947Y-56465191D01*
X100170797Y-56486426D01*
X100165581Y-56507250D01*
X100158349Y-56527462D01*
X100149170Y-56546868D01*
X100138134Y-56565281D01*
X100125346Y-56582524D01*
X100110930Y-56598430D01*
X100095024Y-56612846D01*
X100077781Y-56625634D01*
X100059368Y-56636670D01*
X100039962Y-56645849D01*
X100019750Y-56653081D01*
X99998926Y-56658297D01*
X99977691Y-56661447D01*
X99956250Y-56662500D01*
X99443750Y-56662500D01*
X99422309Y-56661447D01*
X99401074Y-56658297D01*
X99380250Y-56653081D01*
X99360038Y-56645849D01*
X99340632Y-56636670D01*
X99322219Y-56625634D01*
X99304976Y-56612846D01*
X99289070Y-56598430D01*
X99274654Y-56582524D01*
X99261866Y-56565281D01*
X99250830Y-56546868D01*
X99241651Y-56527462D01*
X99234419Y-56507250D01*
X99229203Y-56486426D01*
X99226053Y-56465191D01*
X99225000Y-56443750D01*
X99225000Y-56006250D01*
X99226053Y-55984809D01*
X99229203Y-55963574D01*
X99234419Y-55942750D01*
X99241651Y-55922538D01*
X99250830Y-55903132D01*
X99261866Y-55884719D01*
X99274654Y-55867476D01*
X99289070Y-55851570D01*
X99304976Y-55837154D01*
X99322219Y-55824366D01*
X99340632Y-55813330D01*
X99360038Y-55804151D01*
X99380250Y-55796919D01*
X99401074Y-55791703D01*
X99422309Y-55788553D01*
X99443750Y-55787500D01*
X99956250Y-55787500D01*
X99977691Y-55788553D01*
X99977691Y-55788553D01*
G37*
D11*
G04 #@! TD*
G04 #@! TO.P,R2,2*
G04 #@! TO.N,Net-(J3-Pad1)*
X99700000Y-56225000D03*
D10*
G04 #@! TO.N,+5V*
G04 #@! TO.C,R2*
G36*
X99977691Y-57363553D02*
X99998926Y-57366703D01*
X100019750Y-57371919D01*
X100039962Y-57379151D01*
X100059368Y-57388330D01*
X100077781Y-57399366D01*
X100095024Y-57412154D01*
X100110930Y-57426570D01*
X100125346Y-57442476D01*
X100138134Y-57459719D01*
X100149170Y-57478132D01*
X100158349Y-57497538D01*
X100165581Y-57517750D01*
X100170797Y-57538574D01*
X100173947Y-57559809D01*
X100175000Y-57581250D01*
X100175000Y-58018750D01*
X100173947Y-58040191D01*
X100170797Y-58061426D01*
X100165581Y-58082250D01*
X100158349Y-58102462D01*
X100149170Y-58121868D01*
X100138134Y-58140281D01*
X100125346Y-58157524D01*
X100110930Y-58173430D01*
X100095024Y-58187846D01*
X100077781Y-58200634D01*
X100059368Y-58211670D01*
X100039962Y-58220849D01*
X100019750Y-58228081D01*
X99998926Y-58233297D01*
X99977691Y-58236447D01*
X99956250Y-58237500D01*
X99443750Y-58237500D01*
X99422309Y-58236447D01*
X99401074Y-58233297D01*
X99380250Y-58228081D01*
X99360038Y-58220849D01*
X99340632Y-58211670D01*
X99322219Y-58200634D01*
X99304976Y-58187846D01*
X99289070Y-58173430D01*
X99274654Y-58157524D01*
X99261866Y-58140281D01*
X99250830Y-58121868D01*
X99241651Y-58102462D01*
X99234419Y-58082250D01*
X99229203Y-58061426D01*
X99226053Y-58040191D01*
X99225000Y-58018750D01*
X99225000Y-57581250D01*
X99226053Y-57559809D01*
X99229203Y-57538574D01*
X99234419Y-57517750D01*
X99241651Y-57497538D01*
X99250830Y-57478132D01*
X99261866Y-57459719D01*
X99274654Y-57442476D01*
X99289070Y-57426570D01*
X99304976Y-57412154D01*
X99322219Y-57399366D01*
X99340632Y-57388330D01*
X99360038Y-57379151D01*
X99380250Y-57371919D01*
X99401074Y-57366703D01*
X99422309Y-57363553D01*
X99443750Y-57362500D01*
X99956250Y-57362500D01*
X99977691Y-57363553D01*
X99977691Y-57363553D01*
G37*
D11*
G04 #@! TD*
G04 #@! TO.P,R2,1*
G04 #@! TO.N,+5V*
X99700000Y-57800000D03*
D10*
G04 #@! TO.N,Net-(C1-Pad1)*
G04 #@! TO.C,R1*
G36*
X92677691Y-54638553D02*
X92698926Y-54641703D01*
X92719750Y-54646919D01*
X92739962Y-54654151D01*
X92759368Y-54663330D01*
X92777781Y-54674366D01*
X92795024Y-54687154D01*
X92810930Y-54701570D01*
X92825346Y-54717476D01*
X92838134Y-54734719D01*
X92849170Y-54753132D01*
X92858349Y-54772538D01*
X92865581Y-54792750D01*
X92870797Y-54813574D01*
X92873947Y-54834809D01*
X92875000Y-54856250D01*
X92875000Y-55293750D01*
X92873947Y-55315191D01*
X92870797Y-55336426D01*
X92865581Y-55357250D01*
X92858349Y-55377462D01*
X92849170Y-55396868D01*
X92838134Y-55415281D01*
X92825346Y-55432524D01*
X92810930Y-55448430D01*
X92795024Y-55462846D01*
X92777781Y-55475634D01*
X92759368Y-55486670D01*
X92739962Y-55495849D01*
X92719750Y-55503081D01*
X92698926Y-55508297D01*
X92677691Y-55511447D01*
X92656250Y-55512500D01*
X92143750Y-55512500D01*
X92122309Y-55511447D01*
X92101074Y-55508297D01*
X92080250Y-55503081D01*
X92060038Y-55495849D01*
X92040632Y-55486670D01*
X92022219Y-55475634D01*
X92004976Y-55462846D01*
X91989070Y-55448430D01*
X91974654Y-55432524D01*
X91961866Y-55415281D01*
X91950830Y-55396868D01*
X91941651Y-55377462D01*
X91934419Y-55357250D01*
X91929203Y-55336426D01*
X91926053Y-55315191D01*
X91925000Y-55293750D01*
X91925000Y-54856250D01*
X91926053Y-54834809D01*
X91929203Y-54813574D01*
X91934419Y-54792750D01*
X91941651Y-54772538D01*
X91950830Y-54753132D01*
X91961866Y-54734719D01*
X91974654Y-54717476D01*
X91989070Y-54701570D01*
X92004976Y-54687154D01*
X92022219Y-54674366D01*
X92040632Y-54663330D01*
X92060038Y-54654151D01*
X92080250Y-54646919D01*
X92101074Y-54641703D01*
X92122309Y-54638553D01*
X92143750Y-54637500D01*
X92656250Y-54637500D01*
X92677691Y-54638553D01*
X92677691Y-54638553D01*
G37*
D11*
G04 #@! TD*
G04 #@! TO.P,R1,1*
G04 #@! TO.N,Net-(C1-Pad1)*
X92400000Y-55075000D03*
D10*
G04 #@! TO.N,Net-(J1-Pad2)*
G04 #@! TO.C,R1*
G36*
X92677691Y-53063553D02*
X92698926Y-53066703D01*
X92719750Y-53071919D01*
X92739962Y-53079151D01*
X92759368Y-53088330D01*
X92777781Y-53099366D01*
X92795024Y-53112154D01*
X92810930Y-53126570D01*
X92825346Y-53142476D01*
X92838134Y-53159719D01*
X92849170Y-53178132D01*
X92858349Y-53197538D01*
X92865581Y-53217750D01*
X92870797Y-53238574D01*
X92873947Y-53259809D01*
X92875000Y-53281250D01*
X92875000Y-53718750D01*
X92873947Y-53740191D01*
X92870797Y-53761426D01*
X92865581Y-53782250D01*
X92858349Y-53802462D01*
X92849170Y-53821868D01*
X92838134Y-53840281D01*
X92825346Y-53857524D01*
X92810930Y-53873430D01*
X92795024Y-53887846D01*
X92777781Y-53900634D01*
X92759368Y-53911670D01*
X92739962Y-53920849D01*
X92719750Y-53928081D01*
X92698926Y-53933297D01*
X92677691Y-53936447D01*
X92656250Y-53937500D01*
X92143750Y-53937500D01*
X92122309Y-53936447D01*
X92101074Y-53933297D01*
X92080250Y-53928081D01*
X92060038Y-53920849D01*
X92040632Y-53911670D01*
X92022219Y-53900634D01*
X92004976Y-53887846D01*
X91989070Y-53873430D01*
X91974654Y-53857524D01*
X91961866Y-53840281D01*
X91950830Y-53821868D01*
X91941651Y-53802462D01*
X91934419Y-53782250D01*
X91929203Y-53761426D01*
X91926053Y-53740191D01*
X91925000Y-53718750D01*
X91925000Y-53281250D01*
X91926053Y-53259809D01*
X91929203Y-53238574D01*
X91934419Y-53217750D01*
X91941651Y-53197538D01*
X91950830Y-53178132D01*
X91961866Y-53159719D01*
X91974654Y-53142476D01*
X91989070Y-53126570D01*
X92004976Y-53112154D01*
X92022219Y-53099366D01*
X92040632Y-53088330D01*
X92060038Y-53079151D01*
X92080250Y-53071919D01*
X92101074Y-53066703D01*
X92122309Y-53063553D01*
X92143750Y-53062500D01*
X92656250Y-53062500D01*
X92677691Y-53063553D01*
X92677691Y-53063553D01*
G37*
D11*
G04 #@! TD*
G04 #@! TO.P,R1,2*
G04 #@! TO.N,Net-(J1-Pad2)*
X92400000Y-53500000D03*
D18*
G04 #@! TO.N,GND*
X99000000Y-52875000D03*
X92775000Y-50475000D03*
G04 #@! TD*
D19*
G04 #@! TO.N,Net-(C1-Pad1)*
X94075000Y-55075000D02*
X94250000Y-55250000D01*
X92400000Y-55075000D02*
X94075000Y-55075000D01*
X94312500Y-55187500D02*
X94250000Y-55250000D01*
X94312500Y-53687500D02*
X94312500Y-55187500D01*
D20*
G04 #@! TO.N,+5V*
X97100000Y-57800000D02*
X99700000Y-57800000D01*
X99700000Y-57800000D02*
X101300000Y-57800000D01*
X103820000Y-57800000D02*
X104000000Y-57620000D01*
X101300000Y-57800000D02*
X103820000Y-57800000D01*
D19*
G04 #@! TO.N,Net-(D1-Pad2)*
X96303999Y-56704001D02*
X97145999Y-56704001D01*
X95258000Y-57750000D02*
X96303999Y-56704001D01*
X97145999Y-56704001D02*
X98050000Y-55800000D01*
X94250000Y-57750000D02*
X95258000Y-57750000D01*
G04 #@! TO.N,Net-(Q1-Pad2)*
X96150000Y-54100000D02*
X96150000Y-55800000D01*
G04 #@! TO.N,Net-(J1-Pad2)*
X91800000Y-54100000D02*
X92400000Y-53500000D01*
X89500000Y-54100000D02*
X91800000Y-54100000D01*
G04 #@! TO.N,Net-(J3-Pad1)*
X97100000Y-52050000D02*
X97100000Y-52100000D01*
X102642000Y-50000000D02*
X104000000Y-50000000D01*
X100161612Y-55763388D02*
X100161612Y-52480388D01*
X99700000Y-56225000D02*
X100161612Y-55763388D01*
X97100000Y-52100000D02*
X98008000Y-52100000D01*
X98791000Y-51317000D02*
X101325000Y-51317000D01*
X100161612Y-52480388D02*
X101325000Y-51317000D01*
X98008000Y-52100000D02*
X98791000Y-51317000D01*
X101325000Y-51317000D02*
X102642000Y-50000000D01*
G04 #@! TO.N,Net-(J1-Pad3)*
X92560000Y-48500000D02*
X96300000Y-48500000D01*
X89500000Y-51560000D02*
X92560000Y-48500000D01*
G04 #@! TD*
D21*
G04 #@! TO.N,GND*
G36*
X107840001Y-58840000D02*
X104847069Y-58840000D01*
X105070625Y-58690625D01*
X105398839Y-58199418D01*
X105514092Y-57620000D01*
X105398839Y-57040582D01*
X105070625Y-56549375D01*
X104772239Y-56350000D01*
X105070625Y-56150625D01*
X105398839Y-55659418D01*
X105514092Y-55080000D01*
X105398839Y-54500582D01*
X105070625Y-54009375D01*
X104751522Y-53796157D01*
X104881358Y-53735183D01*
X105271645Y-53306924D01*
X105441476Y-52896890D01*
X105320155Y-52667000D01*
X104127000Y-52667000D01*
X104127000Y-52687000D01*
X103873000Y-52687000D01*
X103873000Y-52667000D01*
X102679845Y-52667000D01*
X102558524Y-52896890D01*
X102728355Y-53306924D01*
X103118642Y-53735183D01*
X103248478Y-53796157D01*
X102929375Y-54009375D01*
X102601161Y-54500582D01*
X102485908Y-55080000D01*
X102601161Y-55659418D01*
X102929375Y-56150625D01*
X103227761Y-56350000D01*
X102958372Y-56530000D01*
X102410000Y-56530000D01*
X102410000Y-56510750D01*
X102251250Y-56352000D01*
X101427000Y-56352000D01*
X101427000Y-56372000D01*
X101173000Y-56372000D01*
X101173000Y-56352000D01*
X101153000Y-56352000D01*
X101153000Y-56098000D01*
X101173000Y-56098000D01*
X101173000Y-55311250D01*
X101427000Y-55311250D01*
X101427000Y-56098000D01*
X102251250Y-56098000D01*
X102410000Y-55939250D01*
X102410000Y-55661191D01*
X102313327Y-55427802D01*
X102134699Y-55249173D01*
X101901310Y-55152500D01*
X101585750Y-55152500D01*
X101427000Y-55311250D01*
X101173000Y-55311250D01*
X101050612Y-55188862D01*
X101050612Y-52848623D01*
X101891706Y-52007529D01*
X101965933Y-51957933D01*
X102015531Y-51883704D01*
X102651830Y-51247405D01*
X102692191Y-51307809D01*
X102902235Y-51448157D01*
X103005708Y-51468739D01*
X102728355Y-51773076D01*
X102558524Y-52183110D01*
X102679845Y-52413000D01*
X103873000Y-52413000D01*
X103873000Y-52393000D01*
X104127000Y-52393000D01*
X104127000Y-52413000D01*
X105320155Y-52413000D01*
X105441476Y-52183110D01*
X105271645Y-51773076D01*
X104994292Y-51468739D01*
X105097765Y-51448157D01*
X105307809Y-51307809D01*
X105448157Y-51097765D01*
X105497440Y-50850000D01*
X105497440Y-49150000D01*
X105448157Y-48902235D01*
X105307809Y-48692191D01*
X105097765Y-48551843D01*
X104850000Y-48502560D01*
X103150000Y-48502560D01*
X102902235Y-48551843D01*
X102692191Y-48692191D01*
X102551843Y-48902235D01*
X102508500Y-49120139D01*
X102295130Y-49162581D01*
X102001067Y-49359067D01*
X101951471Y-49433293D01*
X100956765Y-50428000D01*
X98878550Y-50428000D01*
X98790999Y-50410585D01*
X98703448Y-50428000D01*
X98703444Y-50428000D01*
X98444130Y-50479581D01*
X98150067Y-50676067D01*
X98100471Y-50750294D01*
X97778431Y-51072334D01*
X97747765Y-51051843D01*
X97500000Y-51002560D01*
X96700000Y-51002560D01*
X96452235Y-51051843D01*
X96242191Y-51192191D01*
X96101843Y-51402235D01*
X96052560Y-51650000D01*
X96052560Y-52550000D01*
X96101843Y-52797765D01*
X96238684Y-53002560D01*
X95750000Y-53002560D01*
X95502235Y-53051843D01*
X95369636Y-53140444D01*
X95369005Y-53137273D01*
X95260557Y-52974969D01*
X95325827Y-52909698D01*
X95422500Y-52676309D01*
X95422500Y-52398250D01*
X95263750Y-52239500D01*
X94439500Y-52239500D01*
X94439500Y-52259500D01*
X94185500Y-52259500D01*
X94185500Y-52239500D01*
X93361250Y-52239500D01*
X93202500Y-52398250D01*
X93202500Y-52624502D01*
X92987727Y-52480995D01*
X92656250Y-52415060D01*
X92143750Y-52415060D01*
X91812273Y-52480995D01*
X91531261Y-52668761D01*
X91343495Y-52949773D01*
X91291534Y-53211000D01*
X90691983Y-53211000D01*
X90570625Y-53029375D01*
X90272239Y-52830000D01*
X90570625Y-52630625D01*
X90898839Y-52139418D01*
X91014092Y-51560000D01*
X91011843Y-51548691D01*
X93202500Y-51548691D01*
X93202500Y-51826750D01*
X93361250Y-51985500D01*
X94185500Y-51985500D01*
X94185500Y-51198750D01*
X94439500Y-51198750D01*
X94439500Y-51985500D01*
X95263750Y-51985500D01*
X95422500Y-51826750D01*
X95422500Y-51548691D01*
X95325827Y-51315302D01*
X95147199Y-51136673D01*
X94913810Y-51040000D01*
X94598250Y-51040000D01*
X94439500Y-51198750D01*
X94185500Y-51198750D01*
X94026750Y-51040000D01*
X93711190Y-51040000D01*
X93477801Y-51136673D01*
X93299173Y-51315302D01*
X93202500Y-51548691D01*
X91011843Y-51548691D01*
X90971477Y-51345758D01*
X92928236Y-49389000D01*
X94802560Y-49389000D01*
X94802560Y-49500000D01*
X94851843Y-49747765D01*
X94992191Y-49957809D01*
X95202235Y-50098157D01*
X95450000Y-50147440D01*
X97150000Y-50147440D01*
X97397765Y-50098157D01*
X97607809Y-49957809D01*
X97748157Y-49747765D01*
X97762388Y-49676218D01*
X97907955Y-49838664D01*
X98430740Y-50089553D01*
X98443110Y-50091476D01*
X98673000Y-49970155D01*
X98673000Y-48627000D01*
X98927000Y-48627000D01*
X98927000Y-49970155D01*
X99156890Y-50091476D01*
X99169260Y-50089553D01*
X99692045Y-49838664D01*
X100079024Y-49406812D01*
X100271284Y-48859742D01*
X100127231Y-48627000D01*
X98927000Y-48627000D01*
X98673000Y-48627000D01*
X98653000Y-48627000D01*
X98653000Y-48373000D01*
X98673000Y-48373000D01*
X98673000Y-47029845D01*
X98927000Y-47029845D01*
X98927000Y-48373000D01*
X100127231Y-48373000D01*
X100271284Y-48140258D01*
X100079024Y-47593188D01*
X99692045Y-47161336D01*
X99169260Y-46910447D01*
X99156890Y-46908524D01*
X98927000Y-47029845D01*
X98673000Y-47029845D01*
X98443110Y-46908524D01*
X98430740Y-46910447D01*
X97907955Y-47161336D01*
X97762388Y-47323782D01*
X97748157Y-47252235D01*
X97607809Y-47042191D01*
X97397765Y-46901843D01*
X97150000Y-46852560D01*
X95450000Y-46852560D01*
X95202235Y-46901843D01*
X94992191Y-47042191D01*
X94851843Y-47252235D01*
X94802560Y-47500000D01*
X94802560Y-47611000D01*
X92647556Y-47611000D01*
X92560000Y-47593584D01*
X92213129Y-47662581D01*
X92014783Y-47795112D01*
X91919067Y-47859067D01*
X91869471Y-47933293D01*
X89714242Y-50088523D01*
X89646256Y-50075000D01*
X89353744Y-50075000D01*
X88920582Y-50161161D01*
X88429375Y-50489375D01*
X88101161Y-50980582D01*
X87985908Y-51560000D01*
X88101161Y-52139418D01*
X88429375Y-52630625D01*
X88727761Y-52830000D01*
X88429375Y-53029375D01*
X88101161Y-53520582D01*
X87985908Y-54100000D01*
X88101161Y-54679418D01*
X88429375Y-55170625D01*
X88451033Y-55185096D01*
X88290302Y-55251673D01*
X88111673Y-55430301D01*
X88015000Y-55663690D01*
X88015000Y-56354250D01*
X88173750Y-56513000D01*
X89373000Y-56513000D01*
X89373000Y-56493000D01*
X89627000Y-56493000D01*
X89627000Y-56513000D01*
X90826250Y-56513000D01*
X90985000Y-56354250D01*
X90985000Y-55663690D01*
X90888327Y-55430301D01*
X90709698Y-55251673D01*
X90548967Y-55185096D01*
X90570625Y-55170625D01*
X90691983Y-54989000D01*
X91277560Y-54989000D01*
X91277560Y-55293750D01*
X91343495Y-55625227D01*
X91531261Y-55906239D01*
X91812273Y-56094005D01*
X92143750Y-56159940D01*
X92656250Y-56159940D01*
X92987727Y-56094005D01*
X93149487Y-55985921D01*
X93151843Y-55997765D01*
X93292191Y-56207809D01*
X93502235Y-56348157D01*
X93750000Y-56397440D01*
X94750000Y-56397440D01*
X94997765Y-56348157D01*
X95107500Y-56274834D01*
X95151843Y-56497765D01*
X95192361Y-56558404D01*
X95058404Y-56692361D01*
X94997765Y-56651843D01*
X94750000Y-56602560D01*
X93750000Y-56602560D01*
X93502235Y-56651843D01*
X93292191Y-56792191D01*
X93151843Y-57002235D01*
X93102560Y-57250000D01*
X93102560Y-58250000D01*
X93151843Y-58497765D01*
X93292191Y-58707809D01*
X93490027Y-58840000D01*
X85660000Y-58840000D01*
X85660000Y-56925750D01*
X88015000Y-56925750D01*
X88015000Y-57616310D01*
X88111673Y-57849699D01*
X88290302Y-58028327D01*
X88523691Y-58125000D01*
X89214250Y-58125000D01*
X89373000Y-57966250D01*
X89373000Y-56767000D01*
X89627000Y-56767000D01*
X89627000Y-57966250D01*
X89785750Y-58125000D01*
X90476309Y-58125000D01*
X90709698Y-58028327D01*
X90888327Y-57849699D01*
X90985000Y-57616310D01*
X90985000Y-56925750D01*
X90826250Y-56767000D01*
X89627000Y-56767000D01*
X89373000Y-56767000D01*
X88173750Y-56767000D01*
X88015000Y-56925750D01*
X85660000Y-56925750D01*
X85660000Y-46660000D01*
X107840000Y-46660000D01*
X107840001Y-58840000D01*
X107840001Y-58840000D01*
G37*
X107840001Y-58840000D02*
X104847069Y-58840000D01*
X105070625Y-58690625D01*
X105398839Y-58199418D01*
X105514092Y-57620000D01*
X105398839Y-57040582D01*
X105070625Y-56549375D01*
X104772239Y-56350000D01*
X105070625Y-56150625D01*
X105398839Y-55659418D01*
X105514092Y-55080000D01*
X105398839Y-54500582D01*
X105070625Y-54009375D01*
X104751522Y-53796157D01*
X104881358Y-53735183D01*
X105271645Y-53306924D01*
X105441476Y-52896890D01*
X105320155Y-52667000D01*
X104127000Y-52667000D01*
X104127000Y-52687000D01*
X103873000Y-52687000D01*
X103873000Y-52667000D01*
X102679845Y-52667000D01*
X102558524Y-52896890D01*
X102728355Y-53306924D01*
X103118642Y-53735183D01*
X103248478Y-53796157D01*
X102929375Y-54009375D01*
X102601161Y-54500582D01*
X102485908Y-55080000D01*
X102601161Y-55659418D01*
X102929375Y-56150625D01*
X103227761Y-56350000D01*
X102958372Y-56530000D01*
X102410000Y-56530000D01*
X102410000Y-56510750D01*
X102251250Y-56352000D01*
X101427000Y-56352000D01*
X101427000Y-56372000D01*
X101173000Y-56372000D01*
X101173000Y-56352000D01*
X101153000Y-56352000D01*
X101153000Y-56098000D01*
X101173000Y-56098000D01*
X101173000Y-55311250D01*
X101427000Y-55311250D01*
X101427000Y-56098000D01*
X102251250Y-56098000D01*
X102410000Y-55939250D01*
X102410000Y-55661191D01*
X102313327Y-55427802D01*
X102134699Y-55249173D01*
X101901310Y-55152500D01*
X101585750Y-55152500D01*
X101427000Y-55311250D01*
X101173000Y-55311250D01*
X101050612Y-55188862D01*
X101050612Y-52848623D01*
X101891706Y-52007529D01*
X101965933Y-51957933D01*
X102015531Y-51883704D01*
X102651830Y-51247405D01*
X102692191Y-51307809D01*
X102902235Y-51448157D01*
X103005708Y-51468739D01*
X102728355Y-51773076D01*
X102558524Y-52183110D01*
X102679845Y-52413000D01*
X103873000Y-52413000D01*
X103873000Y-52393000D01*
X104127000Y-52393000D01*
X104127000Y-52413000D01*
X105320155Y-52413000D01*
X105441476Y-52183110D01*
X105271645Y-51773076D01*
X104994292Y-51468739D01*
X105097765Y-51448157D01*
X105307809Y-51307809D01*
X105448157Y-51097765D01*
X105497440Y-50850000D01*
X105497440Y-49150000D01*
X105448157Y-48902235D01*
X105307809Y-48692191D01*
X105097765Y-48551843D01*
X104850000Y-48502560D01*
X103150000Y-48502560D01*
X102902235Y-48551843D01*
X102692191Y-48692191D01*
X102551843Y-48902235D01*
X102508500Y-49120139D01*
X102295130Y-49162581D01*
X102001067Y-49359067D01*
X101951471Y-49433293D01*
X100956765Y-50428000D01*
X98878550Y-50428000D01*
X98790999Y-50410585D01*
X98703448Y-50428000D01*
X98703444Y-50428000D01*
X98444130Y-50479581D01*
X98150067Y-50676067D01*
X98100471Y-50750294D01*
X97778431Y-51072334D01*
X97747765Y-51051843D01*
X97500000Y-51002560D01*
X96700000Y-51002560D01*
X96452235Y-51051843D01*
X96242191Y-51192191D01*
X96101843Y-51402235D01*
X96052560Y-51650000D01*
X96052560Y-52550000D01*
X96101843Y-52797765D01*
X96238684Y-53002560D01*
X95750000Y-53002560D01*
X95502235Y-53051843D01*
X95369636Y-53140444D01*
X95369005Y-53137273D01*
X95260557Y-52974969D01*
X95325827Y-52909698D01*
X95422500Y-52676309D01*
X95422500Y-52398250D01*
X95263750Y-52239500D01*
X94439500Y-52239500D01*
X94439500Y-52259500D01*
X94185500Y-52259500D01*
X94185500Y-52239500D01*
X93361250Y-52239500D01*
X93202500Y-52398250D01*
X93202500Y-52624502D01*
X92987727Y-52480995D01*
X92656250Y-52415060D01*
X92143750Y-52415060D01*
X91812273Y-52480995D01*
X91531261Y-52668761D01*
X91343495Y-52949773D01*
X91291534Y-53211000D01*
X90691983Y-53211000D01*
X90570625Y-53029375D01*
X90272239Y-52830000D01*
X90570625Y-52630625D01*
X90898839Y-52139418D01*
X91014092Y-51560000D01*
X91011843Y-51548691D01*
X93202500Y-51548691D01*
X93202500Y-51826750D01*
X93361250Y-51985500D01*
X94185500Y-51985500D01*
X94185500Y-51198750D01*
X94439500Y-51198750D01*
X94439500Y-51985500D01*
X95263750Y-51985500D01*
X95422500Y-51826750D01*
X95422500Y-51548691D01*
X95325827Y-51315302D01*
X95147199Y-51136673D01*
X94913810Y-51040000D01*
X94598250Y-51040000D01*
X94439500Y-51198750D01*
X94185500Y-51198750D01*
X94026750Y-51040000D01*
X93711190Y-51040000D01*
X93477801Y-51136673D01*
X93299173Y-51315302D01*
X93202500Y-51548691D01*
X91011843Y-51548691D01*
X90971477Y-51345758D01*
X92928236Y-49389000D01*
X94802560Y-49389000D01*
X94802560Y-49500000D01*
X94851843Y-49747765D01*
X94992191Y-49957809D01*
X95202235Y-50098157D01*
X95450000Y-50147440D01*
X97150000Y-50147440D01*
X97397765Y-50098157D01*
X97607809Y-49957809D01*
X97748157Y-49747765D01*
X97762388Y-49676218D01*
X97907955Y-49838664D01*
X98430740Y-50089553D01*
X98443110Y-50091476D01*
X98673000Y-49970155D01*
X98673000Y-48627000D01*
X98927000Y-48627000D01*
X98927000Y-49970155D01*
X99156890Y-50091476D01*
X99169260Y-50089553D01*
X99692045Y-49838664D01*
X100079024Y-49406812D01*
X100271284Y-48859742D01*
X100127231Y-48627000D01*
X98927000Y-48627000D01*
X98673000Y-48627000D01*
X98653000Y-48627000D01*
X98653000Y-48373000D01*
X98673000Y-48373000D01*
X98673000Y-47029845D01*
X98927000Y-47029845D01*
X98927000Y-48373000D01*
X100127231Y-48373000D01*
X100271284Y-48140258D01*
X100079024Y-47593188D01*
X99692045Y-47161336D01*
X99169260Y-46910447D01*
X99156890Y-46908524D01*
X98927000Y-47029845D01*
X98673000Y-47029845D01*
X98443110Y-46908524D01*
X98430740Y-46910447D01*
X97907955Y-47161336D01*
X97762388Y-47323782D01*
X97748157Y-47252235D01*
X97607809Y-47042191D01*
X97397765Y-46901843D01*
X97150000Y-46852560D01*
X95450000Y-46852560D01*
X95202235Y-46901843D01*
X94992191Y-47042191D01*
X94851843Y-47252235D01*
X94802560Y-47500000D01*
X94802560Y-47611000D01*
X92647556Y-47611000D01*
X92560000Y-47593584D01*
X92213129Y-47662581D01*
X92014783Y-47795112D01*
X91919067Y-47859067D01*
X91869471Y-47933293D01*
X89714242Y-50088523D01*
X89646256Y-50075000D01*
X89353744Y-50075000D01*
X88920582Y-50161161D01*
X88429375Y-50489375D01*
X88101161Y-50980582D01*
X87985908Y-51560000D01*
X88101161Y-52139418D01*
X88429375Y-52630625D01*
X88727761Y-52830000D01*
X88429375Y-53029375D01*
X88101161Y-53520582D01*
X87985908Y-54100000D01*
X88101161Y-54679418D01*
X88429375Y-55170625D01*
X88451033Y-55185096D01*
X88290302Y-55251673D01*
X88111673Y-55430301D01*
X88015000Y-55663690D01*
X88015000Y-56354250D01*
X88173750Y-56513000D01*
X89373000Y-56513000D01*
X89373000Y-56493000D01*
X89627000Y-56493000D01*
X89627000Y-56513000D01*
X90826250Y-56513000D01*
X90985000Y-56354250D01*
X90985000Y-55663690D01*
X90888327Y-55430301D01*
X90709698Y-55251673D01*
X90548967Y-55185096D01*
X90570625Y-55170625D01*
X90691983Y-54989000D01*
X91277560Y-54989000D01*
X91277560Y-55293750D01*
X91343495Y-55625227D01*
X91531261Y-55906239D01*
X91812273Y-56094005D01*
X92143750Y-56159940D01*
X92656250Y-56159940D01*
X92987727Y-56094005D01*
X93149487Y-55985921D01*
X93151843Y-55997765D01*
X93292191Y-56207809D01*
X93502235Y-56348157D01*
X93750000Y-56397440D01*
X94750000Y-56397440D01*
X94997765Y-56348157D01*
X95107500Y-56274834D01*
X95151843Y-56497765D01*
X95192361Y-56558404D01*
X95058404Y-56692361D01*
X94997765Y-56651843D01*
X94750000Y-56602560D01*
X93750000Y-56602560D01*
X93502235Y-56651843D01*
X93292191Y-56792191D01*
X93151843Y-57002235D01*
X93102560Y-57250000D01*
X93102560Y-58250000D01*
X93151843Y-58497765D01*
X93292191Y-58707809D01*
X93490027Y-58840000D01*
X85660000Y-58840000D01*
X85660000Y-56925750D01*
X88015000Y-56925750D01*
X88015000Y-57616310D01*
X88111673Y-57849699D01*
X88290302Y-58028327D01*
X88523691Y-58125000D01*
X89214250Y-58125000D01*
X89373000Y-57966250D01*
X89373000Y-56767000D01*
X89627000Y-56767000D01*
X89627000Y-57966250D01*
X89785750Y-58125000D01*
X90476309Y-58125000D01*
X90709698Y-58028327D01*
X90888327Y-57849699D01*
X90985000Y-57616310D01*
X90985000Y-56925750D01*
X90826250Y-56767000D01*
X89627000Y-56767000D01*
X89373000Y-56767000D01*
X88173750Y-56767000D01*
X88015000Y-56925750D01*
X85660000Y-56925750D01*
X85660000Y-46660000D01*
X107840000Y-46660000D01*
X107840001Y-58840000D01*
G36*
X99255196Y-52480388D02*
X99272613Y-52567947D01*
X99272612Y-55174101D01*
X99112273Y-55205995D01*
X99073896Y-55231637D01*
X99048157Y-55102235D01*
X98947073Y-54950953D01*
X98988327Y-54909698D01*
X99085000Y-54676309D01*
X99085000Y-54385750D01*
X98926250Y-54227000D01*
X98177000Y-54227000D01*
X98177000Y-54247000D01*
X97923000Y-54247000D01*
X97923000Y-54227000D01*
X97903000Y-54227000D01*
X97903000Y-53973000D01*
X97923000Y-53973000D01*
X97923000Y-53173750D01*
X98177000Y-53173750D01*
X98177000Y-53973000D01*
X98926250Y-53973000D01*
X99085000Y-53814250D01*
X99085000Y-53523691D01*
X98988327Y-53290302D01*
X98809699Y-53111673D01*
X98576310Y-53015000D01*
X98335750Y-53015000D01*
X98177000Y-53173750D01*
X97923000Y-53173750D01*
X97837469Y-53088219D01*
X97957809Y-53007809D01*
X97964519Y-52997767D01*
X98008000Y-53006416D01*
X98095555Y-52989000D01*
X98095556Y-52989000D01*
X98354870Y-52937419D01*
X98648933Y-52740933D01*
X98698531Y-52666704D01*
X99159236Y-52206000D01*
X99309776Y-52206000D01*
X99255196Y-52480388D01*
X99255196Y-52480388D01*
G37*
X99255196Y-52480388D02*
X99272613Y-52567947D01*
X99272612Y-55174101D01*
X99112273Y-55205995D01*
X99073896Y-55231637D01*
X99048157Y-55102235D01*
X98947073Y-54950953D01*
X98988327Y-54909698D01*
X99085000Y-54676309D01*
X99085000Y-54385750D01*
X98926250Y-54227000D01*
X98177000Y-54227000D01*
X98177000Y-54247000D01*
X97923000Y-54247000D01*
X97923000Y-54227000D01*
X97903000Y-54227000D01*
X97903000Y-53973000D01*
X97923000Y-53973000D01*
X97923000Y-53173750D01*
X98177000Y-53173750D01*
X98177000Y-53973000D01*
X98926250Y-53973000D01*
X99085000Y-53814250D01*
X99085000Y-53523691D01*
X98988327Y-53290302D01*
X98809699Y-53111673D01*
X98576310Y-53015000D01*
X98335750Y-53015000D01*
X98177000Y-53173750D01*
X97923000Y-53173750D01*
X97837469Y-53088219D01*
X97957809Y-53007809D01*
X97964519Y-52997767D01*
X98008000Y-53006416D01*
X98095555Y-52989000D01*
X98095556Y-52989000D01*
X98354870Y-52937419D01*
X98648933Y-52740933D01*
X98698531Y-52666704D01*
X99159236Y-52206000D01*
X99309776Y-52206000D01*
X99255196Y-52480388D01*
G04 #@! TD*
M02*
