G04 #@! TF.GenerationSoftware,KiCad,Pcbnew,6.0.0-rc1-unknown-6d2dfbb~65~ubuntu18.04.1*
G04 #@! TF.CreationDate,2018-07-21T00:59:14-07:00*
G04 #@! TF.ProjectId,ZProbe,5A50726F62652E6B696361645F706362,rev?*
G04 #@! TF.SameCoordinates,Original*
G04 #@! TF.FileFunction,Legend,Top*
G04 #@! TF.FilePolarity,Positive*
%FSLAX46Y46*%
G04 Gerber Fmt 4.6, Leading zero omitted, Abs format (unit mm)*
G04 Created by KiCad (PCBNEW 6.0.0-rc1-unknown-6d2dfbb~65~ubuntu18.04.1) date Sat Jul 21 00:59:14 2018*
%MOMM*%
%LPD*%
G01*
G04 APERTURE LIST*
%ADD10C,0.120000*%
%ADD11C,0.150000*%
G04 APERTURE END LIST*
D10*
G04 #@! TO.C,C2*
X100790000Y-57175279D02*
X100790000Y-56849721D01*
X101810000Y-57175279D02*
X101810000Y-56849721D01*
G04 #@! TO.C,J2*
X93690000Y-46790000D02*
X93690000Y-50810000D01*
X93690000Y-50810000D02*
X101410000Y-50810000D01*
X101410000Y-50810000D02*
X101410000Y-46790000D01*
X101410000Y-46790000D02*
X93690000Y-46790000D01*
X93690000Y-48500000D02*
X94190000Y-48500000D01*
X94190000Y-48500000D02*
X94190000Y-47290000D01*
X94190000Y-47290000D02*
X100910000Y-47290000D01*
X100910000Y-47290000D02*
X100910000Y-48500000D01*
X100910000Y-48500000D02*
X101410000Y-48500000D01*
X93690000Y-49310000D02*
X94690000Y-49310000D01*
X94690000Y-49310000D02*
X94690000Y-50810000D01*
X101410000Y-49310000D02*
X100410000Y-49310000D01*
X100410000Y-49310000D02*
X100410000Y-50810000D01*
X93390000Y-48610000D02*
X93390000Y-51110000D01*
X93390000Y-51110000D02*
X95890000Y-51110000D01*
G04 #@! TO.C,J1*
X88060000Y-57970000D02*
X88060000Y-50230000D01*
X88060000Y-50230000D02*
X85400000Y-50230000D01*
X85400000Y-50230000D02*
X85400000Y-57970000D01*
X85400000Y-57970000D02*
X88060000Y-57970000D01*
X85400000Y-57020000D02*
X79400000Y-57020000D01*
X79400000Y-57020000D02*
X79400000Y-56260000D01*
X79400000Y-56260000D02*
X85400000Y-56260000D01*
X85400000Y-56960000D02*
X79400000Y-56960000D01*
X85400000Y-56840000D02*
X79400000Y-56840000D01*
X85400000Y-56720000D02*
X79400000Y-56720000D01*
X85400000Y-56600000D02*
X79400000Y-56600000D01*
X85400000Y-56480000D02*
X79400000Y-56480000D01*
X85400000Y-56360000D02*
X79400000Y-56360000D01*
X88390000Y-57020000D02*
X88060000Y-57020000D01*
X88390000Y-56260000D02*
X88060000Y-56260000D01*
X88060000Y-55370000D02*
X85400000Y-55370000D01*
X85400000Y-54480000D02*
X79400000Y-54480000D01*
X79400000Y-54480000D02*
X79400000Y-53720000D01*
X79400000Y-53720000D02*
X85400000Y-53720000D01*
X88457071Y-54480000D02*
X88060000Y-54480000D01*
X88457071Y-53720000D02*
X88060000Y-53720000D01*
X88060000Y-52830000D02*
X85400000Y-52830000D01*
X85400000Y-51940000D02*
X79400000Y-51940000D01*
X79400000Y-51940000D02*
X79400000Y-51180000D01*
X79400000Y-51180000D02*
X85400000Y-51180000D01*
X88457071Y-51940000D02*
X88060000Y-51940000D01*
X88457071Y-51180000D02*
X88060000Y-51180000D01*
X90770000Y-56640000D02*
X90770000Y-57910000D01*
X90770000Y-57910000D02*
X89500000Y-57910000D01*
G04 #@! TO.C,J3*
X105440000Y-48670000D02*
X105440000Y-58950000D01*
X105440000Y-58950000D02*
X108100000Y-58950000D01*
X108100000Y-58950000D02*
X108100000Y-48670000D01*
X108100000Y-48670000D02*
X105440000Y-48670000D01*
X108100000Y-49620000D02*
X114100000Y-49620000D01*
X114100000Y-49620000D02*
X114100000Y-50380000D01*
X114100000Y-50380000D02*
X108100000Y-50380000D01*
X108100000Y-49680000D02*
X114100000Y-49680000D01*
X108100000Y-49800000D02*
X114100000Y-49800000D01*
X108100000Y-49920000D02*
X114100000Y-49920000D01*
X108100000Y-50040000D02*
X114100000Y-50040000D01*
X108100000Y-50160000D02*
X114100000Y-50160000D01*
X108100000Y-50280000D02*
X114100000Y-50280000D01*
X105110000Y-49620000D02*
X105440000Y-49620000D01*
X105110000Y-50380000D02*
X105440000Y-50380000D01*
X105440000Y-51270000D02*
X108100000Y-51270000D01*
X108100000Y-52160000D02*
X114100000Y-52160000D01*
X114100000Y-52160000D02*
X114100000Y-52920000D01*
X114100000Y-52920000D02*
X108100000Y-52920000D01*
X105042929Y-52160000D02*
X105440000Y-52160000D01*
X105042929Y-52920000D02*
X105440000Y-52920000D01*
X105440000Y-53810000D02*
X108100000Y-53810000D01*
X108100000Y-54700000D02*
X114100000Y-54700000D01*
X114100000Y-54700000D02*
X114100000Y-55460000D01*
X114100000Y-55460000D02*
X108100000Y-55460000D01*
X105042929Y-54700000D02*
X105440000Y-54700000D01*
X105042929Y-55460000D02*
X105440000Y-55460000D01*
X105440000Y-56350000D02*
X108100000Y-56350000D01*
X108100000Y-57240000D02*
X114100000Y-57240000D01*
X114100000Y-57240000D02*
X114100000Y-58000000D01*
X114100000Y-58000000D02*
X108100000Y-58000000D01*
X105042929Y-57240000D02*
X105440000Y-57240000D01*
X105042929Y-58000000D02*
X105440000Y-58000000D01*
X102730000Y-50000000D02*
X102730000Y-48730000D01*
X102730000Y-48730000D02*
X104000000Y-48730000D01*
G04 #@! TO.C,C1*
X93802500Y-53062779D02*
X93802500Y-52737221D01*
X94822500Y-53062779D02*
X94822500Y-52737221D01*
G04 #@! TO.C,D1*
X95100000Y-54600000D02*
X93400000Y-54600000D01*
X93400000Y-54600000D02*
X93400000Y-57750000D01*
X95100000Y-54600000D02*
X95100000Y-57750000D01*
G04 #@! TO.C,Q2*
X98680000Y-52340000D02*
X98680000Y-53800000D01*
X95520000Y-52340000D02*
X95520000Y-54500000D01*
X95520000Y-52340000D02*
X96450000Y-52340000D01*
X98680000Y-52340000D02*
X97750000Y-52340000D01*
G04 #@! TO.C,Q1*
X95520000Y-57560000D02*
X96450000Y-57560000D01*
X98680000Y-57560000D02*
X97750000Y-57560000D01*
X98680000Y-57560000D02*
X98680000Y-55400000D01*
X95520000Y-57560000D02*
X95520000Y-56100000D01*
G04 #@! TO.C,R2*
X100210000Y-57175279D02*
X100210000Y-56849721D01*
X99190000Y-57175279D02*
X99190000Y-56849721D01*
G04 #@! TO.C,R1*
X91890000Y-54450279D02*
X91890000Y-54124721D01*
X92910000Y-54450279D02*
X92910000Y-54124721D01*
G04 #@! TO.C,C2*
D11*
X101657142Y-54766666D02*
X101704761Y-54814285D01*
X101752380Y-54957142D01*
X101752380Y-55052380D01*
X101704761Y-55195238D01*
X101609523Y-55290476D01*
X101514285Y-55338095D01*
X101323809Y-55385714D01*
X101180952Y-55385714D01*
X100990476Y-55338095D01*
X100895238Y-55290476D01*
X100800000Y-55195238D01*
X100752380Y-55052380D01*
X100752380Y-54957142D01*
X100800000Y-54814285D01*
X100847619Y-54766666D01*
X100847619Y-54385714D02*
X100800000Y-54338095D01*
X100752380Y-54242857D01*
X100752380Y-54004761D01*
X100800000Y-53909523D01*
X100847619Y-53861904D01*
X100942857Y-53814285D01*
X101038095Y-53814285D01*
X101180952Y-53861904D01*
X101752380Y-54433333D01*
X101752380Y-53814285D01*
G04 #@! TO.C,C1*
X92857142Y-51966666D02*
X92904761Y-52014285D01*
X92952380Y-52157142D01*
X92952380Y-52252380D01*
X92904761Y-52395238D01*
X92809523Y-52490476D01*
X92714285Y-52538095D01*
X92523809Y-52585714D01*
X92380952Y-52585714D01*
X92190476Y-52538095D01*
X92095238Y-52490476D01*
X92000000Y-52395238D01*
X91952380Y-52252380D01*
X91952380Y-52157142D01*
X92000000Y-52014285D01*
X92047619Y-51966666D01*
X92952380Y-51014285D02*
X92952380Y-51585714D01*
X92952380Y-51300000D02*
X91952380Y-51300000D01*
X92095238Y-51395238D01*
X92190476Y-51490476D01*
X92238095Y-51585714D01*
G04 #@! TO.C,D1*
X91761904Y-58852380D02*
X91761904Y-57852380D01*
X92000000Y-57852380D01*
X92142857Y-57900000D01*
X92238095Y-57995238D01*
X92285714Y-58090476D01*
X92333333Y-58280952D01*
X92333333Y-58423809D01*
X92285714Y-58614285D01*
X92238095Y-58709523D01*
X92142857Y-58804761D01*
X92000000Y-58852380D01*
X91761904Y-58852380D01*
X93285714Y-58852380D02*
X92714285Y-58852380D01*
X93000000Y-58852380D02*
X93000000Y-57852380D01*
X92904761Y-57995238D01*
X92809523Y-58090476D01*
X92714285Y-58138095D01*
G04 #@! TO.C,Q2*
X100647619Y-52520238D02*
X100600000Y-52615476D01*
X100504761Y-52710714D01*
X100361904Y-52853571D01*
X100314285Y-52948809D01*
X100314285Y-53044047D01*
X100552380Y-52996428D02*
X100504761Y-53091666D01*
X100409523Y-53186904D01*
X100219047Y-53234523D01*
X99885714Y-53234523D01*
X99695238Y-53186904D01*
X99600000Y-53091666D01*
X99552380Y-52996428D01*
X99552380Y-52805952D01*
X99600000Y-52710714D01*
X99695238Y-52615476D01*
X99885714Y-52567857D01*
X100219047Y-52567857D01*
X100409523Y-52615476D01*
X100504761Y-52710714D01*
X100552380Y-52805952D01*
X100552380Y-52996428D01*
X99647619Y-52186904D02*
X99600000Y-52139285D01*
X99552380Y-52044047D01*
X99552380Y-51805952D01*
X99600000Y-51710714D01*
X99647619Y-51663095D01*
X99742857Y-51615476D01*
X99838095Y-51615476D01*
X99980952Y-51663095D01*
X100552380Y-52234523D01*
X100552380Y-51615476D01*
G04 #@! TO.C,Q1*
X101997619Y-52470238D02*
X101950000Y-52565476D01*
X101854761Y-52660714D01*
X101711904Y-52803571D01*
X101664285Y-52898809D01*
X101664285Y-52994047D01*
X101902380Y-52946428D02*
X101854761Y-53041666D01*
X101759523Y-53136904D01*
X101569047Y-53184523D01*
X101235714Y-53184523D01*
X101045238Y-53136904D01*
X100950000Y-53041666D01*
X100902380Y-52946428D01*
X100902380Y-52755952D01*
X100950000Y-52660714D01*
X101045238Y-52565476D01*
X101235714Y-52517857D01*
X101569047Y-52517857D01*
X101759523Y-52565476D01*
X101854761Y-52660714D01*
X101902380Y-52755952D01*
X101902380Y-52946428D01*
X101902380Y-51565476D02*
X101902380Y-52136904D01*
X101902380Y-51851190D02*
X100902380Y-51851190D01*
X101045238Y-51946428D01*
X101140476Y-52041666D01*
X101188095Y-52136904D01*
G04 #@! TO.C,R2*
X100252380Y-54666666D02*
X99776190Y-55000000D01*
X100252380Y-55238095D02*
X99252380Y-55238095D01*
X99252380Y-54857142D01*
X99300000Y-54761904D01*
X99347619Y-54714285D01*
X99442857Y-54666666D01*
X99585714Y-54666666D01*
X99680952Y-54714285D01*
X99728571Y-54761904D01*
X99776190Y-54857142D01*
X99776190Y-55238095D01*
X99347619Y-54285714D02*
X99300000Y-54238095D01*
X99252380Y-54142857D01*
X99252380Y-53904761D01*
X99300000Y-53809523D01*
X99347619Y-53761904D01*
X99442857Y-53714285D01*
X99538095Y-53714285D01*
X99680952Y-53761904D01*
X100252380Y-54333333D01*
X100252380Y-53714285D01*
G04 #@! TO.C,R1*
X92852380Y-56866666D02*
X92376190Y-57200000D01*
X92852380Y-57438095D02*
X91852380Y-57438095D01*
X91852380Y-57057142D01*
X91900000Y-56961904D01*
X91947619Y-56914285D01*
X92042857Y-56866666D01*
X92185714Y-56866666D01*
X92280952Y-56914285D01*
X92328571Y-56961904D01*
X92376190Y-57057142D01*
X92376190Y-57438095D01*
X92852380Y-55914285D02*
X92852380Y-56485714D01*
X92852380Y-56200000D02*
X91852380Y-56200000D01*
X91995238Y-56295238D01*
X92090476Y-56390476D01*
X92138095Y-56485714D01*
G04 #@! TD*
M02*
